<?xml version="1.0" encoding="UTF-8" standalone="no"?>
<!DOCTYPE svg PUBLIC "-//W3C//DTD SVG 1.1//EN"
 "http://www.w3.org/Graphics/SVG/1.1/DTD/svg11.dtd">
<!-- Generated by graphviz version 2.44.0 ()
 -->
<!-- Title: libs/JSystem/JGadget/binary.cpp Pages: 1 -->
<svg width="540pt" height="274pt"
 viewBox="0.00 0.00 539.50 274.00" xmlns="http://www.w3.org/2000/svg" xmlns:xlink="http://www.w3.org/1999/xlink">
<g id="graph0" class="graph" transform="scale(1 1) rotate(0) translate(4 270)">
<title>libs/JSystem/JGadget/binary.cpp</title>
<polygon fill="white" stroke="transparent" points="-4,4 -4,-270 535.5,-270 535.5,4 -4,4"/>
<!-- Node1 -->
<g id="node1" class="node">
<title>Node1</title>
<g id="a_node1"><a xlink:title=" ">
<polygon fill="#bfbfbf" stroke="black" points="232,-235.5 232,-265.5 345,-265.5 345,-235.5 232,-235.5"/>
<text text-anchor="start" x="240" y="-253.5" font-family="Helvetica,sans-Serif" font-size="10.00">libs/JSystem/JGadget</text>
<text text-anchor="middle" x="288.5" y="-242.5" font-family="Helvetica,sans-Serif" font-size="10.00">/binary.cpp</text>
</a>
</g>
</g>
<!-- Node2 -->
<g id="node2" class="node">
<title>Node2</title>
<g id="a_node2"><a xlink:href="binary_8h.html" target="_top" xlink:title=" ">
<polygon fill="white" stroke="black" points="0,-56.5 0,-75.5 131,-75.5 131,-56.5 0,-56.5"/>
<text text-anchor="middle" x="65.5" y="-63.5" font-family="Helvetica,sans-Serif" font-size="10.00">JSystem/JGadget/binary.h</text>
</a>
</g>
</g>
<!-- Node1&#45;&gt;Node2 -->
<g id="edge1" class="edge">
<title>Node1&#45;&gt;Node2</title>
<path fill="none" stroke="midnightblue" d="M261.81,-235.43C244.81,-226 222.65,-212.81 204.5,-199 155.51,-161.72 104.74,-109.4 80.35,-83.23"/>
<polygon fill="midnightblue" stroke="midnightblue" points="82.75,-80.67 73.39,-75.71 77.61,-85.43 82.75,-80.67"/>
</g>
<!-- Node4 -->
<g id="node4" class="node">
<title>Node4</title>
<g id="a_node4"><a xlink:href="global_8h.html" target="_top" xlink:title=" ">
<polygon fill="white" stroke="black" points="213.5,-174 213.5,-193 263.5,-193 263.5,-174 213.5,-174"/>
<text text-anchor="middle" x="238.5" y="-181" font-family="Helvetica,sans-Serif" font-size="10.00">global.h</text>
</a>
</g>
</g>
<!-- Node1&#45;&gt;Node4 -->
<g id="edge3" class="edge">
<title>Node1&#45;&gt;Node4</title>
<path fill="none" stroke="midnightblue" d="M277.65,-235.4C269.93,-225.36 259.53,-211.84 251.39,-201.25"/>
<polygon fill="midnightblue" stroke="midnightblue" points="254.06,-198.99 245.19,-193.19 248.51,-203.25 254.06,-198.99"/>
</g>
<!-- Node10 -->
<g id="node10" class="node">
<title>Node10</title>
<g id="a_node10"><a xlink:title=" ">
<polygon fill="white" stroke="#bfbfbf" points="281.5,-168.5 281.5,-198.5 397.5,-198.5 397.5,-168.5 281.5,-168.5"/>
<text text-anchor="start" x="289.5" y="-186.5" font-family="Helvetica,sans-Serif" font-size="10.00">JSystem/JGadget/asm</text>
<text text-anchor="middle" x="339.5" y="-175.5" font-family="Helvetica,sans-Serif" font-size="10.00">/func_802DC864.s</text>
</a>
</g>
</g>
<!-- Node1&#45;&gt;Node10 -->
<g id="edge14" class="edge">
<title>Node1&#45;&gt;Node10</title>
<path fill="none" stroke="midnightblue" d="M299.57,-235.4C306.18,-226.96 314.73,-216.07 322.22,-206.52"/>
<polygon fill="midnightblue" stroke="midnightblue" points="325.04,-208.6 328.46,-198.58 319.53,-204.28 325.04,-208.6"/>
</g>
<!-- Node11 -->
<g id="node11" class="node">
<title>Node11</title>
<g id="a_node11"><a xlink:title=" ">
<polygon fill="white" stroke="#bfbfbf" points="415.5,-168.5 415.5,-198.5 531.5,-198.5 531.5,-168.5 415.5,-168.5"/>
<text text-anchor="start" x="423.5" y="-186.5" font-family="Helvetica,sans-Serif" font-size="10.00">JSystem/JGadget/asm</text>
<text text-anchor="middle" x="473.5" y="-175.5" font-family="Helvetica,sans-Serif" font-size="10.00">/func_802DC910.s</text>
</a>
</g>
</g>
<!-- Node1&#45;&gt;Node11 -->
<g id="edge15" class="edge">
<title>Node1&#45;&gt;Node11</title>
<path fill="none" stroke="midnightblue" d="M328.64,-235.4C356.52,-225.6 393.86,-212.48 423.65,-202.02"/>
<polygon fill="midnightblue" stroke="midnightblue" points="425.16,-205.19 433.44,-198.58 422.84,-198.59 425.16,-205.19"/>
</g>
<!-- Node3 -->
<g id="node3" class="node">
<title>Node3</title>
<g id="a_node3"><a xlink:href="types_8h.html" target="_top" xlink:title=" ">
<polygon fill="white" stroke="black" points="199,-0.5 199,-19.5 280,-19.5 280,-0.5 199,-0.5"/>
<text text-anchor="middle" x="239.5" y="-7.5" font-family="Helvetica,sans-Serif" font-size="10.00">dolphin/types.h</text>
</a>
</g>
</g>
<!-- Node2&#45;&gt;Node3 -->
<g id="edge2" class="edge">
<title>Node2&#45;&gt;Node3</title>
<path fill="none" stroke="midnightblue" d="M93.07,-56.44C122.6,-47.28 169.62,-32.69 202.38,-22.52"/>
<polygon fill="midnightblue" stroke="midnightblue" points="203.54,-25.82 212.06,-19.52 201.47,-19.14 203.54,-25.82"/>
</g>
<!-- Node4&#45;&gt;Node3 -->
<g id="edge4" class="edge">
<title>Node4&#45;&gt;Node3</title>
<path fill="none" stroke="midnightblue" d="M221.73,-173.89C207.26,-165.42 187.35,-151.01 178.5,-132 174.75,-123.94 176.11,-120.56 178.5,-112 187.61,-79.29 210.5,-46.6 225.5,-27.61"/>
<polygon fill="midnightblue" stroke="midnightblue" points="228.36,-29.64 231.95,-19.68 222.92,-25.23 228.36,-29.64"/>
</g>
<!-- Node5 -->
<g id="node5" class="node">
<title>Node5</title>
<g id="a_node5"><a xlink:href="AR_8h.html" target="_top" xlink:title=" ">
<polygon fill="white" stroke="black" points="188,-112.5 188,-131.5 237,-131.5 237,-112.5 188,-112.5"/>
<text text-anchor="middle" x="212.5" y="-119.5" font-family="Helvetica,sans-Serif" font-size="10.00">ar/AR.h</text>
</a>
</g>
</g>
<!-- Node4&#45;&gt;Node5 -->
<g id="edge5" class="edge">
<title>Node4&#45;&gt;Node5</title>
<path fill="none" stroke="midnightblue" d="M234.77,-173.98C231.03,-165.4 225.14,-151.93 220.36,-140.98"/>
<polygon fill="midnightblue" stroke="midnightblue" points="223.43,-139.27 216.22,-131.51 217.02,-142.07 223.43,-139.27"/>
</g>
<!-- Node6 -->
<g id="node6" class="node">
<title>Node6</title>
<g id="a_node6"><a xlink:href="ARQ_8h.html" target="_top" xlink:title=" ">
<polygon fill="white" stroke="black" points="239.5,-56.5 239.5,-75.5 295.5,-75.5 295.5,-56.5 239.5,-56.5"/>
<text text-anchor="middle" x="267.5" y="-63.5" font-family="Helvetica,sans-Serif" font-size="10.00">ar/ARQ.h</text>
</a>
</g>
</g>
<!-- Node4&#45;&gt;Node6 -->
<g id="edge7" class="edge">
<title>Node4&#45;&gt;Node6</title>
<path fill="none" stroke="midnightblue" d="M240.68,-173.82C245.36,-155.17 256.47,-110.94 262.82,-85.63"/>
<polygon fill="midnightblue" stroke="midnightblue" points="266.25,-86.33 265.29,-75.78 259.47,-84.63 266.25,-86.33"/>
</g>
<!-- Node7 -->
<g id="node7" class="node">
<title>Node7</title>
<g id="a_node7"><a xlink:href="mwcc_8h.html" target="_top" xlink:title=" ">
<polygon fill="white" stroke="black" points="293.5,-112.5 293.5,-131.5 343.5,-131.5 343.5,-112.5 293.5,-112.5"/>
<text text-anchor="middle" x="318.5" y="-119.5" font-family="Helvetica,sans-Serif" font-size="10.00">mwcc.h</text>
</a>
</g>
</g>
<!-- Node4&#45;&gt;Node7 -->
<g id="edge9" class="edge">
<title>Node4&#45;&gt;Node7</title>
<path fill="none" stroke="midnightblue" d="M249.96,-173.98C262.67,-164.52 283.41,-149.1 298.75,-137.69"/>
<polygon fill="midnightblue" stroke="midnightblue" points="301.12,-140.29 307.06,-131.51 296.95,-134.67 301.12,-140.29"/>
</g>
<!-- Node8 -->
<g id="node8" class="node">
<title>Node8</title>
<g id="a_node8"><a xlink:href="OS_8h.html" target="_top" xlink:title=" ">
<polygon fill="white" stroke="black" points="361.5,-112.5 361.5,-131.5 413.5,-131.5 413.5,-112.5 361.5,-112.5"/>
<text text-anchor="middle" x="387.5" y="-119.5" font-family="Helvetica,sans-Serif" font-size="10.00">os/OS.h</text>
</a>
</g>
</g>
<!-- Node4&#45;&gt;Node8 -->
<g id="edge10" class="edge">
<title>Node4&#45;&gt;Node8</title>
<path fill="none" stroke="midnightblue" d="M258.23,-173.96C262.9,-171.98 267.87,-169.89 272.5,-168 300.46,-156.57 332.47,-144.09 355.61,-135.18"/>
<polygon fill="midnightblue" stroke="midnightblue" points="356.86,-138.45 364.94,-131.6 354.35,-131.92 356.86,-138.45"/>
</g>
<!-- Node5&#45;&gt;Node3 -->
<g id="edge6" class="edge">
<title>Node5&#45;&gt;Node3</title>
<path fill="none" stroke="midnightblue" d="M214.62,-112.37C218.98,-94.62 229.03,-53.67 234.94,-29.6"/>
<polygon fill="midnightblue" stroke="midnightblue" points="238.41,-30.14 237.39,-19.59 231.61,-28.47 238.41,-30.14"/>
</g>
<!-- Node6&#45;&gt;Node3 -->
<g id="edge8" class="edge">
<title>Node6&#45;&gt;Node3</title>
<path fill="none" stroke="midnightblue" d="M262.88,-56.08C259.04,-48.69 253.48,-37.95 248.74,-28.81"/>
<polygon fill="midnightblue" stroke="midnightblue" points="251.75,-27.02 244.04,-19.75 245.53,-30.24 251.75,-27.02"/>
</g>
<!-- Node8&#45;&gt;Node3 -->
<g id="edge11" class="edge">
<title>Node8&#45;&gt;Node3</title>
<path fill="none" stroke="midnightblue" d="M376.91,-112.38C361.28,-99.74 331.02,-75.54 304.5,-56 290.27,-45.52 273.92,-34.2 261.17,-25.53"/>
<polygon fill="midnightblue" stroke="midnightblue" points="262.85,-22.45 252.61,-19.74 258.93,-28.24 262.85,-22.45"/>
</g>
<!-- Node9 -->
<g id="node9" class="node">
<title>Node9</title>
<g id="a_node9"><a xlink:href="dvd_8h.html" target="_top" xlink:title=" ">
<polygon fill="white" stroke="black" points="356,-56.5 356,-75.5 415,-75.5 415,-56.5 356,-56.5"/>
<text text-anchor="middle" x="385.5" y="-63.5" font-family="Helvetica,sans-Serif" font-size="10.00">dvd/dvd.h</text>
</a>
</g>
</g>
<!-- Node8&#45;&gt;Node9 -->
<g id="edge12" class="edge">
<title>Node8&#45;&gt;Node9</title>
<path fill="none" stroke="midnightblue" d="M387.17,-112.08C386.91,-105.01 386.53,-94.86 386.2,-85.99"/>
<polygon fill="midnightblue" stroke="midnightblue" points="389.69,-85.61 385.82,-75.75 382.7,-85.87 389.69,-85.61"/>
</g>
<!-- Node9&#45;&gt;Node3 -->
<g id="edge13" class="edge">
<title>Node9&#45;&gt;Node3</title>
<path fill="none" stroke="midnightblue" d="M362.37,-56.44C338.02,-47.44 299.49,-33.19 272.08,-23.05"/>
<polygon fill="midnightblue" stroke="midnightblue" points="273.12,-19.7 262.53,-19.52 270.69,-26.27 273.12,-19.7"/>
</g>
</g>
</svg>
