<?xml version="1.0" encoding="UTF-8" standalone="no"?>
<!DOCTYPE svg PUBLIC "-//W3C//DTD SVG 1.1//EN"
 "http://www.w3.org/Graphics/SVG/1.1/DTD/svg11.dtd">
<!-- Generated by graphviz version 2.44.0 ()
 -->
<!-- Title: libs/SSystem/SComponent/c_angle.cpp Pages: 1 -->
<svg width="476pt" height="442pt"
 viewBox="0.00 0.00 475.50 442.00" xmlns="http://www.w3.org/2000/svg" xmlns:xlink="http://www.w3.org/1999/xlink">
<g id="graph0" class="graph" transform="scale(1 1) rotate(0) translate(4 438)">
<title>libs/SSystem/SComponent/c_angle.cpp</title>
<polygon fill="white" stroke="transparent" points="-4,4 -4,-438 471.5,-438 471.5,4 -4,4"/>
<!-- Node1 -->
<g id="node1" class="node">
<title>Node1</title>
<g id="a_node1"><a xlink:title=" ">
<polygon fill="#bfbfbf" stroke="black" points="235.5,-403.5 235.5,-433.5 369.5,-433.5 369.5,-403.5 235.5,-403.5"/>
<text text-anchor="start" x="243.5" y="-421.5" font-family="Helvetica,sans-Serif" font-size="10.00">libs/SSystem/SComponent</text>
<text text-anchor="middle" x="302.5" y="-410.5" font-family="Helvetica,sans-Serif" font-size="10.00">/c_angle.cpp</text>
</a>
</g>
</g>
<!-- Node2 -->
<g id="node2" class="node">
<title>Node2</title>
<g id="a_node2"><a xlink:href="c__angle_8h.html" target="_top" xlink:title=" ">
<polygon fill="white" stroke="black" points="138,-342 138,-361 255,-361 255,-342 138,-342"/>
<text text-anchor="middle" x="196.5" y="-349" font-family="Helvetica,sans-Serif" font-size="10.00">SComponent/c_angle.h</text>
</a>
</g>
</g>
<!-- Node1&#45;&gt;Node2 -->
<g id="edge1" class="edge">
<title>Node1&#45;&gt;Node2</title>
<path fill="none" stroke="midnightblue" d="M279.5,-403.4C261.56,-392.39 236.78,-377.2 218.98,-366.28"/>
<polygon fill="midnightblue" stroke="midnightblue" points="220.73,-363.25 210.37,-361.01 217.07,-369.22 220.73,-363.25"/>
</g>
<!-- Node5 -->
<g id="node5" class="node">
<title>Node5</title>
<g id="a_node5"><a xlink:href="global_8h.html" target="_top" xlink:title=" ">
<polygon fill="white" stroke="black" points="178.5,-168.5 178.5,-187.5 228.5,-187.5 228.5,-168.5 178.5,-168.5"/>
<text text-anchor="middle" x="203.5" y="-175.5" font-family="Helvetica,sans-Serif" font-size="10.00">global.h</text>
</a>
</g>
</g>
<!-- Node1&#45;&gt;Node5 -->
<g id="edge19" class="edge">
<title>Node1&#45;&gt;Node5</title>
<path fill="none" stroke="midnightblue" d="M296.6,-403.29C279.53,-362.17 230.09,-243.05 211.07,-197.24"/>
<polygon fill="midnightblue" stroke="midnightblue" points="214.28,-195.84 207.21,-187.95 207.81,-198.52 214.28,-195.84"/>
</g>
<!-- Node13 -->
<g id="node13" class="node">
<title>Node13</title>
<g id="a_node13"><a xlink:href="math_8h.html" target="_top" xlink:title=" ">
<polygon fill="white" stroke="black" points="321,-280.5 321,-299.5 396,-299.5 396,-280.5 321,-280.5"/>
<text text-anchor="middle" x="358.5" y="-287.5" font-family="Helvetica,sans-Serif" font-size="10.00">msl_c/math.h</text>
</a>
</g>
</g>
<!-- Node1&#45;&gt;Node13 -->
<g id="edge20" class="edge">
<title>Node1&#45;&gt;Node13</title>
<path fill="none" stroke="midnightblue" d="M308.71,-403.48C318.92,-380.41 339.25,-334.48 350.52,-309.03"/>
<polygon fill="midnightblue" stroke="midnightblue" points="353.76,-310.35 354.61,-299.79 347.36,-307.52 353.76,-310.35"/>
</g>
<!-- Node14 -->
<g id="node14" class="node">
<title>Node14</title>
<g id="a_node14"><a xlink:title=" ">
<polygon fill="white" stroke="#bfbfbf" points="349.5,-336.5 349.5,-366.5 467.5,-366.5 467.5,-336.5 349.5,-336.5"/>
<text text-anchor="start" x="357.5" y="-354.5" font-family="Helvetica,sans-Serif" font-size="10.00">SComponent/c_angle</text>
<text text-anchor="middle" x="408.5" y="-343.5" font-family="Helvetica,sans-Serif" font-size="10.00">/asm/func_80271BD4.s</text>
</a>
</g>
</g>
<!-- Node1&#45;&gt;Node14 -->
<g id="edge22" class="edge">
<title>Node1&#45;&gt;Node14</title>
<path fill="none" stroke="midnightblue" d="M325.5,-403.4C340.5,-394.2 360.29,-382.07 376.77,-371.95"/>
<polygon fill="midnightblue" stroke="midnightblue" points="378.85,-374.79 385.54,-366.58 375.19,-368.82 378.85,-374.79"/>
</g>
<!-- Node3 -->
<g id="node3" class="node">
<title>Node3</title>
<g id="a_node3"><a xlink:href="c__xyz_8h.html" target="_top" xlink:title=" ">
<polygon fill="white" stroke="black" points="84,-280.5 84,-299.5 191,-299.5 191,-280.5 84,-280.5"/>
<text text-anchor="middle" x="137.5" y="-287.5" font-family="Helvetica,sans-Serif" font-size="10.00">SComponent/c_xyz.h</text>
</a>
</g>
</g>
<!-- Node2&#45;&gt;Node3 -->
<g id="edge2" class="edge">
<title>Node2&#45;&gt;Node3</title>
<path fill="none" stroke="midnightblue" d="M188.05,-341.98C178.93,-332.78 164.23,-317.96 153.02,-306.66"/>
<polygon fill="midnightblue" stroke="midnightblue" points="155.46,-304.15 145.94,-299.51 150.49,-309.07 155.46,-304.15"/>
</g>
<!-- Node2&#45;&gt;Node5 -->
<g id="edge18" class="edge">
<title>Node2&#45;&gt;Node5</title>
<path fill="none" stroke="midnightblue" d="M197.02,-341.92C197.64,-331.88 198.67,-314.73 199.5,-300 200.91,-275.12 201.64,-268.91 202.5,-244 203.04,-228.47 203.28,-210.85 203.4,-197.87"/>
<polygon fill="midnightblue" stroke="midnightblue" points="206.9,-197.86 203.47,-187.83 199.9,-197.81 206.9,-197.86"/>
</g>
<!-- Node4 -->
<g id="node4" class="node">
<title>Node4</title>
<g id="a_node4"><a xlink:href="c__math_8h.html" target="_top" xlink:title=" ">
<polygon fill="white" stroke="black" points="58.5,-224.5 58.5,-243.5 174.5,-243.5 174.5,-224.5 58.5,-224.5"/>
<text text-anchor="middle" x="116.5" y="-231.5" font-family="Helvetica,sans-Serif" font-size="10.00">SComponent/c_math.h</text>
</a>
</g>
</g>
<!-- Node3&#45;&gt;Node4 -->
<g id="edge3" class="edge">
<title>Node3&#45;&gt;Node4</title>
<path fill="none" stroke="midnightblue" d="M134.03,-280.08C131.19,-272.77 127.07,-262.18 123.54,-253.1"/>
<polygon fill="midnightblue" stroke="midnightblue" points="126.79,-251.8 119.9,-243.75 120.27,-254.34 126.79,-251.8"/>
</g>
<!-- Node3&#45;&gt;Node5 -->
<g id="edge15" class="edge">
<title>Node3&#45;&gt;Node5</title>
<path fill="none" stroke="midnightblue" d="M149.32,-280.26C159.72,-271.99 174.54,-258.69 183.5,-244 192.24,-229.67 197.44,-211.2 200.34,-197.62"/>
<polygon fill="midnightblue" stroke="midnightblue" points="203.82,-198.03 202.26,-187.55 196.95,-196.72 203.82,-198.03"/>
</g>
<!-- Node12 -->
<g id="node12" class="node">
<title>Node12</title>
<g id="a_node12"><a xlink:href="mtx__vec_8h.html" target="_top" xlink:title=" ">
<polygon fill="white" stroke="black" points="0,-168.5 0,-187.5 61,-187.5 61,-168.5 0,-168.5"/>
<text text-anchor="middle" x="30.5" y="-175.5" font-family="Helvetica,sans-Serif" font-size="10.00">mtx_vec.h</text>
</a>
</g>
</g>
<!-- Node3&#45;&gt;Node12 -->
<g id="edge16" class="edge">
<title>Node3&#45;&gt;Node12</title>
<path fill="none" stroke="midnightblue" d="M107.43,-280.46C88.28,-273.56 64.38,-261.98 49.5,-244 38.62,-230.85 33.97,-211.71 31.98,-197.6"/>
<polygon fill="midnightblue" stroke="midnightblue" points="35.45,-197.14 30.89,-187.58 28.49,-197.9 35.45,-197.14"/>
</g>
<!-- Node4&#45;&gt;Node5 -->
<g id="edge4" class="edge">
<title>Node4&#45;&gt;Node5</title>
<path fill="none" stroke="midnightblue" d="M130.48,-224.32C144.05,-215.9 164.88,-202.97 180.82,-193.07"/>
<polygon fill="midnightblue" stroke="midnightblue" points="182.91,-195.9 189.56,-187.65 179.21,-189.95 182.91,-195.9"/>
</g>
<!-- Node6 -->
<g id="node6" class="node">
<title>Node6</title>
<g id="a_node6"><a xlink:href="types_8h.html" target="_top" xlink:title=" ">
<polygon fill="white" stroke="black" points="179,-0.5 179,-19.5 260,-19.5 260,-0.5 179,-0.5"/>
<text text-anchor="middle" x="219.5" y="-7.5" font-family="Helvetica,sans-Serif" font-size="10.00">dolphin/types.h</text>
</a>
</g>
</g>
<!-- Node5&#45;&gt;Node6 -->
<g id="edge5" class="edge">
<title>Node5&#45;&gt;Node6</title>
<path fill="none" stroke="midnightblue" d="M213.06,-168.45C221.59,-160.12 233.49,-146.6 238.5,-132 250.58,-96.78 237.25,-53.14 227.62,-29.07"/>
<polygon fill="midnightblue" stroke="midnightblue" points="230.8,-27.6 223.67,-19.76 224.35,-30.33 230.8,-27.6"/>
</g>
<!-- Node7 -->
<g id="node7" class="node">
<title>Node7</title>
<g id="a_node7"><a xlink:href="AR_8h.html" target="_top" xlink:title=" ">
<polygon fill="white" stroke="black" points="286,-56.5 286,-75.5 335,-75.5 335,-56.5 286,-56.5"/>
<text text-anchor="middle" x="310.5" y="-63.5" font-family="Helvetica,sans-Serif" font-size="10.00">ar/AR.h</text>
</a>
</g>
</g>
<!-- Node5&#45;&gt;Node7 -->
<g id="edge6" class="edge">
<title>Node5&#45;&gt;Node7</title>
<path fill="none" stroke="midnightblue" d="M220.68,-168.45C235.44,-160.5 256.62,-147.55 271.5,-132 284.82,-118.07 295.67,-98.81 302.51,-84.87"/>
<polygon fill="midnightblue" stroke="midnightblue" points="305.68,-86.36 306.76,-75.82 299.34,-83.38 305.68,-86.36"/>
</g>
<!-- Node8 -->
<g id="node8" class="node">
<title>Node8</title>
<g id="a_node8"><a xlink:href="ARQ_8h.html" target="_top" xlink:title=" ">
<polygon fill="white" stroke="black" points="57.5,-56.5 57.5,-75.5 113.5,-75.5 113.5,-56.5 57.5,-56.5"/>
<text text-anchor="middle" x="85.5" y="-63.5" font-family="Helvetica,sans-Serif" font-size="10.00">ar/ARQ.h</text>
</a>
</g>
</g>
<!-- Node5&#45;&gt;Node8 -->
<g id="edge8" class="edge">
<title>Node5&#45;&gt;Node8</title>
<path fill="none" stroke="midnightblue" d="M178.43,-172.69C154.81,-167.3 120.19,-155.72 100.5,-132 89.76,-119.06 86.38,-99.89 85.46,-85.72"/>
<polygon fill="midnightblue" stroke="midnightblue" points="88.96,-85.53 85.16,-75.64 81.96,-85.74 88.96,-85.53"/>
</g>
<!-- Node9 -->
<g id="node9" class="node">
<title>Node9</title>
<g id="a_node9"><a xlink:href="mwcc_8h.html" target="_top" xlink:title=" ">
<polygon fill="white" stroke="black" points="109.5,-112.5 109.5,-131.5 159.5,-131.5 159.5,-112.5 109.5,-112.5"/>
<text text-anchor="middle" x="134.5" y="-119.5" font-family="Helvetica,sans-Serif" font-size="10.00">mwcc.h</text>
</a>
</g>
</g>
<!-- Node5&#45;&gt;Node9 -->
<g id="edge10" class="edge">
<title>Node5&#45;&gt;Node9</title>
<path fill="none" stroke="midnightblue" d="M192.41,-168.32C182.01,-160.18 166.24,-147.84 153.78,-138.09"/>
<polygon fill="midnightblue" stroke="midnightblue" points="155.82,-135.24 145.79,-131.83 151.51,-140.75 155.82,-135.24"/>
</g>
<!-- Node10 -->
<g id="node10" class="node">
<title>Node10</title>
<g id="a_node10"><a xlink:href="OS_8h.html" target="_top" xlink:title=" ">
<polygon fill="white" stroke="black" points="177.5,-112.5 177.5,-131.5 229.5,-131.5 229.5,-112.5 177.5,-112.5"/>
<text text-anchor="middle" x="203.5" y="-119.5" font-family="Helvetica,sans-Serif" font-size="10.00">os/OS.h</text>
</a>
</g>
</g>
<!-- Node5&#45;&gt;Node10 -->
<g id="edge11" class="edge">
<title>Node5&#45;&gt;Node10</title>
<path fill="none" stroke="midnightblue" d="M203.5,-168.08C203.5,-161.01 203.5,-150.86 203.5,-141.99"/>
<polygon fill="midnightblue" stroke="midnightblue" points="207,-141.75 203.5,-131.75 200,-141.75 207,-141.75"/>
</g>
<!-- Node7&#45;&gt;Node6 -->
<g id="edge7" class="edge">
<title>Node7&#45;&gt;Node6</title>
<path fill="none" stroke="midnightblue" d="M295.88,-56.32C281.55,-47.82 259.49,-34.73 242.75,-24.8"/>
<polygon fill="midnightblue" stroke="midnightblue" points="244.47,-21.75 234.08,-19.65 240.9,-27.77 244.47,-21.75"/>
</g>
<!-- Node8&#45;&gt;Node6 -->
<g id="edge9" class="edge">
<title>Node8&#45;&gt;Node6</title>
<path fill="none" stroke="midnightblue" d="M106.73,-56.44C128.88,-47.52 163.82,-33.44 188.94,-23.32"/>
<polygon fill="midnightblue" stroke="midnightblue" points="190.4,-26.5 198.37,-19.52 187.78,-20.01 190.4,-26.5"/>
</g>
<!-- Node10&#45;&gt;Node6 -->
<g id="edge12" class="edge">
<title>Node10&#45;&gt;Node6</title>
<path fill="none" stroke="midnightblue" d="M204.76,-112.37C207.34,-94.62 213.29,-53.67 216.79,-29.6"/>
<polygon fill="midnightblue" stroke="midnightblue" points="220.27,-29.99 218.25,-19.59 213.35,-28.98 220.27,-29.99"/>
</g>
<!-- Node11 -->
<g id="node11" class="node">
<title>Node11</title>
<g id="a_node11"><a xlink:href="dvd_8h.html" target="_top" xlink:title=" ">
<polygon fill="white" stroke="black" points="132,-56.5 132,-75.5 191,-75.5 191,-56.5 132,-56.5"/>
<text text-anchor="middle" x="161.5" y="-63.5" font-family="Helvetica,sans-Serif" font-size="10.00">dvd/dvd.h</text>
</a>
</g>
</g>
<!-- Node10&#45;&gt;Node11 -->
<g id="edge13" class="edge">
<title>Node10&#45;&gt;Node11</title>
<path fill="none" stroke="midnightblue" d="M196.56,-112.08C190.57,-104.38 181.75,-93.03 174.45,-83.65"/>
<polygon fill="midnightblue" stroke="midnightblue" points="177.21,-81.5 168.31,-75.75 171.68,-85.79 177.21,-81.5"/>
</g>
<!-- Node11&#45;&gt;Node6 -->
<g id="edge14" class="edge">
<title>Node11&#45;&gt;Node6</title>
<path fill="none" stroke="midnightblue" d="M170.82,-56.32C179.39,-48.34 192.31,-36.31 202.69,-26.65"/>
<polygon fill="midnightblue" stroke="midnightblue" points="205.08,-29.21 210.01,-19.83 200.31,-24.09 205.08,-29.21"/>
</g>
<!-- Node12&#45;&gt;Node6 -->
<g id="edge17" class="edge">
<title>Node12&#45;&gt;Node6</title>
<path fill="none" stroke="midnightblue" d="M28.9,-168.37C25.38,-146.51 19.45,-88.43 48.5,-56 64.46,-38.18 124.37,-25.38 168.8,-18.09"/>
<polygon fill="midnightblue" stroke="midnightblue" points="169.55,-21.52 178.87,-16.49 168.45,-14.6 169.55,-21.52"/>
</g>
<!-- Node13&#45;&gt;Node6 -->
<g id="edge21" class="edge">
<title>Node13&#45;&gt;Node6</title>
<path fill="none" stroke="midnightblue" d="M359.15,-280.45C360.51,-261.95 363.5,-216.85 363.5,-179 363.5,-179 363.5,-179 363.5,-121 363.5,-90.9 365.12,-77.92 344.5,-56 325.11,-35.38 295.59,-24.19 270.1,-18.13"/>
<polygon fill="midnightblue" stroke="midnightblue" points="270.71,-14.68 260.2,-15.97 269.23,-21.52 270.71,-14.68"/>
</g>
</g>
</svg>
