<?xml version="1.0" encoding="UTF-8" standalone="no"?>
<!DOCTYPE svg PUBLIC "-//W3C//DTD SVG 1.1//EN"
 "http://www.w3.org/Graphics/SVG/1.1/DTD/svg11.dtd">
<!-- Generated by graphviz version 2.44.0 ()
 -->
<!-- Title: include/SComponent/c_angle.h Pages: 1 -->
<svg width="5379pt" height="307pt"
 viewBox="0.00 0.00 5379.00 307.00" xmlns="http://www.w3.org/2000/svg" xmlns:xlink="http://www.w3.org/1999/xlink">
<g id="graph0" class="graph" transform="scale(1 1) rotate(0) translate(4 303)">
<title>include/SComponent/c_angle.h</title>
<polygon fill="white" stroke="transparent" points="-4,4 -4,-303 5375,-303 5375,4 -4,4"/>
<!-- Node1 -->
<g id="node1" class="node">
<title>Node1</title>
<g id="a_node1"><a xlink:title=" ">
<polygon fill="#bfbfbf" stroke="black" points="3258,-268.5 3258,-298.5 3365,-298.5 3365,-268.5 3258,-268.5"/>
<text text-anchor="start" x="3266" y="-286.5" font-family="Helvetica,sans-Serif" font-size="10.00">include/SComponent</text>
<text text-anchor="middle" x="3311.5" y="-275.5" font-family="Helvetica,sans-Serif" font-size="10.00">/c_angle.h</text>
</a>
</g>
</g>
<!-- Node2 -->
<g id="node2" class="node">
<title>Node2</title>
<g id="a_node2"><a xlink:href="c__angle_8cpp.html" target="_top" xlink:title=" ">
<polygon fill="white" stroke="black" points="3175.5,-201.5 3175.5,-231.5 3309.5,-231.5 3309.5,-201.5 3175.5,-201.5"/>
<text text-anchor="start" x="3183.5" y="-219.5" font-family="Helvetica,sans-Serif" font-size="10.00">libs/SSystem/SComponent</text>
<text text-anchor="middle" x="3242.5" y="-208.5" font-family="Helvetica,sans-Serif" font-size="10.00">/c_angle.cpp</text>
</a>
</g>
</g>
<!-- Node1&#45;&gt;Node2 -->
<g id="edge1" class="edge">
<title>Node1&#45;&gt;Node2</title>
<path fill="none" stroke="midnightblue" d="M3289.01,-261.31C3278.66,-251.56 3266.66,-240.26 3257.44,-231.58"/>
<polygon fill="midnightblue" stroke="midnightblue" points="3286.85,-264.09 3296.53,-268.4 3291.65,-258.99 3286.85,-264.09"/>
</g>
<!-- Node3 -->
<g id="node3" class="node">
<title>Node3</title>
<g id="a_node3"><a xlink:href="d__attention_8h.html" target="_top" xlink:title=" ">
<polygon fill="white" stroke="black" points="3328,-201.5 3328,-231.5 3435,-231.5 3435,-201.5 3328,-201.5"/>
<text text-anchor="start" x="3336" y="-219.5" font-family="Helvetica,sans-Serif" font-size="10.00">include/d/d_attention</text>
<text text-anchor="middle" x="3381.5" y="-208.5" font-family="Helvetica,sans-Serif" font-size="10.00">/d_attention.h</text>
</a>
</g>
</g>
<!-- Node1&#45;&gt;Node3 -->
<g id="edge2" class="edge">
<title>Node1&#45;&gt;Node3</title>
<path fill="none" stroke="midnightblue" d="M3334.32,-261.31C3344.82,-251.56 3356.99,-240.26 3366.34,-231.58"/>
<polygon fill="midnightblue" stroke="midnightblue" points="3331.64,-259.03 3326.69,-268.4 3336.4,-264.16 3331.64,-259.03"/>
</g>
<!-- Node4 -->
<g id="node4" class="node">
<title>Node4</title>
<g id="a_node4"><a xlink:href="d__a__alink_8h.html" target="_top" xlink:title=" ">
<polygon fill="white" stroke="black" points="5242,-67.5 5242,-97.5 5361,-97.5 5361,-67.5 5242,-67.5"/>
<text text-anchor="start" x="5250" y="-85.5" font-family="Helvetica,sans-Serif" font-size="10.00">include/d/d_a/d_a_alink</text>
<text text-anchor="middle" x="5301.5" y="-74.5" font-family="Helvetica,sans-Serif" font-size="10.00">/d_a_alink.h</text>
</a>
</g>
</g>
<!-- Node3&#45;&gt;Node4 -->
<g id="edge3" class="edge">
<title>Node3&#45;&gt;Node4</title>
<path fill="none" stroke="midnightblue" d="M3445.52,-214.43C3682.67,-209.85 4533.17,-187.74 5227.5,-98 5232.17,-97.4 5237,-96.67 5241.83,-95.88"/>
<polygon fill="midnightblue" stroke="midnightblue" points="3445.29,-210.94 3435.36,-214.63 3445.42,-217.94 3445.29,-210.94"/>
</g>
<!-- Node7 -->
<g id="node7" class="node">
<title>Node7</title>
<g id="a_node7"><a xlink:href="d__com__inf__game_8h.html" target="_top" xlink:title=" ">
<polygon fill="white" stroke="black" points="2635.5,-134.5 2635.5,-164.5 2781.5,-164.5 2781.5,-134.5 2635.5,-134.5"/>
<text text-anchor="start" x="2643.5" y="-152.5" font-family="Helvetica,sans-Serif" font-size="10.00">include/d/d_com/d_com</text>
<text text-anchor="middle" x="2708.5" y="-141.5" font-family="Helvetica,sans-Serif" font-size="10.00">_inf_game/d_com_inf_game.h</text>
</a>
</g>
</g>
<!-- Node3&#45;&gt;Node7 -->
<g id="edge6" class="edge">
<title>Node3&#45;&gt;Node7</title>
<path fill="none" stroke="midnightblue" d="M3317.91,-201.08C3118.5,-170.62 2894.67,-158.02 2781.67,-153.16"/>
<polygon fill="midnightblue" stroke="midnightblue" points="3317.57,-204.56 3327.99,-202.63 3318.64,-197.65 3317.57,-204.56"/>
</g>
<!-- Node5 -->
<g id="node5" class="node">
<title>Node5</title>
<g id="a_node5"><a xlink:href="d__attention_8cpp.html" target="_top" xlink:title=" ">
<polygon fill="white" stroke="black" points="5264,-6 5264,-25 5371,-25 5371,-6 5264,-6"/>
<text text-anchor="middle" x="5317.5" y="-13" font-family="Helvetica,sans-Serif" font-size="10.00">src/d/d_attention.cpp</text>
</a>
</g>
</g>
<!-- Node4&#45;&gt;Node5 -->
<g id="edge4" class="edge">
<title>Node4&#45;&gt;Node5</title>
<path fill="none" stroke="midnightblue" d="M5307.38,-57.6C5310.17,-46.28 5313.32,-33.46 5315.36,-25.19"/>
<polygon fill="midnightblue" stroke="midnightblue" points="5303.96,-56.85 5304.97,-67.4 5310.76,-58.52 5303.96,-56.85"/>
</g>
<!-- Node6 -->
<g id="node6" class="node">
<title>Node6</title>
<g id="a_node6"><a xlink:href="d__a__alink_8cpp.html" target="_top" xlink:title=" ">
<polygon fill="white" stroke="black" points="5127,-6 5127,-25 5246,-25 5246,-6 5127,-6"/>
<text text-anchor="middle" x="5186.5" y="-13" font-family="Helvetica,sans-Serif" font-size="10.00">src/d/d_a/d_a_alink.cpp</text>
</a>
</g>
</g>
<!-- Node4&#45;&gt;Node6 -->
<g id="edge5" class="edge">
<title>Node4&#45;&gt;Node6</title>
<path fill="none" stroke="midnightblue" d="M5267.84,-62.47C5245.88,-50.06 5218.3,-34.47 5201.55,-25.01"/>
<polygon fill="midnightblue" stroke="midnightblue" points="5266.12,-65.52 5276.55,-67.4 5269.56,-59.43 5266.12,-65.52"/>
</g>
<!-- Node7&#45;&gt;Node4 -->
<g id="edge47" class="edge">
<title>Node7&#45;&gt;Node4</title>
<path fill="none" stroke="midnightblue" d="M2792.08,-147.69C3201.02,-143.59 4981.38,-124.38 5227.5,-98 5232.19,-97.5 5237.02,-96.85 5241.86,-96.11"/>
<polygon fill="midnightblue" stroke="midnightblue" points="2791.78,-144.19 2781.81,-147.79 2791.85,-151.19 2791.78,-144.19"/>
</g>
<!-- Node7&#45;&gt;Node5 -->
<g id="edge7" class="edge">
<title>Node7&#45;&gt;Node5</title>
<path fill="none" stroke="midnightblue" d="M2791.99,-148.3C3212.1,-147.12 5079.22,-139.55 5194.5,-98 5215.33,-90.49 5215.31,-79.62 5233.5,-67 5256.57,-51 5284.8,-34.64 5301.95,-25.04"/>
<polygon fill="midnightblue" stroke="midnightblue" points="2791.74,-144.8 2781.75,-148.33 2791.76,-151.8 2791.74,-144.8"/>
</g>
<!-- Node8 -->
<g id="node8" class="node">
<title>Node8</title>
<g id="a_node8"><a xlink:href="d__camera_8cpp.html" target="_top" xlink:title=" ">
<polygon fill="white" stroke="black" points="5083.5,-73 5083.5,-92 5185.5,-92 5185.5,-73 5083.5,-73"/>
<text text-anchor="middle" x="5134.5" y="-80" font-family="Helvetica,sans-Serif" font-size="10.00">src/d/d_camera.cpp</text>
</a>
</g>
</g>
<!-- Node7&#45;&gt;Node8 -->
<g id="edge8" class="edge">
<title>Node7&#45;&gt;Node8</title>
<path fill="none" stroke="midnightblue" d="M2791.93,-147.7C3184.71,-143.78 4840.17,-125.75 5069.5,-98 5080.29,-96.69 5091.92,-94.39 5102.32,-92"/>
<polygon fill="midnightblue" stroke="midnightblue" points="2791.74,-144.2 2781.78,-147.8 2791.81,-151.2 2791.74,-144.2"/>
</g>
<!-- Node9 -->
<g id="node9" class="node">
<title>Node9</title>
<g id="a_node9"><a xlink:href="d__com__inf__game_8cpp.html" target="_top" xlink:title=" ">
<polygon fill="white" stroke="black" points="130,-0.5 130,-30.5 249,-30.5 249,-0.5 130,-0.5"/>
<text text-anchor="start" x="138" y="-18.5" font-family="Helvetica,sans-Serif" font-size="10.00">src/d/d_com/d_com_inf</text>
<text text-anchor="middle" x="189.5" y="-7.5" font-family="Helvetica,sans-Serif" font-size="10.00">_game.cpp</text>
</a>
</g>
</g>
<!-- Node7&#45;&gt;Node9 -->
<g id="edge9" class="edge">
<title>Node7&#45;&gt;Node9</title>
<path fill="none" stroke="midnightblue" d="M2625.15,-148.1C2197.56,-145.9 268.39,-133.97 218.5,-98 196.94,-82.46 191.33,-49.45 189.92,-30.55"/>
<polygon fill="midnightblue" stroke="midnightblue" points="2625.25,-151.6 2635.26,-148.15 2625.28,-144.6 2625.25,-151.6"/>
</g>
<!-- Node10 -->
<g id="node10" class="node">
<title>Node10</title>
<g id="a_node10"><a xlink:href="d__file__sel__info_8cpp.html" target="_top" xlink:title=" ">
<polygon fill="white" stroke="black" points="228,-67.5 228,-97.5 317,-97.5 317,-67.5 228,-67.5"/>
<text text-anchor="start" x="236" y="-85.5" font-family="Helvetica,sans-Serif" font-size="10.00">src/d/d_file/d_file</text>
<text text-anchor="middle" x="272.5" y="-74.5" font-family="Helvetica,sans-Serif" font-size="10.00">_sel_info.cpp</text>
</a>
</g>
</g>
<!-- Node7&#45;&gt;Node10 -->
<g id="edge10" class="edge">
<title>Node7&#45;&gt;Node10</title>
<path fill="none" stroke="midnightblue" d="M2625.24,-147.95C2230.44,-145.17 556.43,-131.51 325.5,-98 322.76,-97.6 319.96,-97.11 317.16,-96.55"/>
<polygon fill="midnightblue" stroke="midnightblue" points="2625.42,-151.45 2635.44,-148.02 2625.47,-144.45 2625.42,-151.45"/>
</g>
<!-- Node11 -->
<g id="node11" class="node">
<title>Node11</title>
<g id="a_node11"><a xlink:href="d__item_8cpp.html" target="_top" xlink:title=" ">
<polygon fill="white" stroke="black" points="1896,-6 1896,-25 2017,-25 2017,-6 1896,-6"/>
<text text-anchor="middle" x="1956.5" y="-13" font-family="Helvetica,sans-Serif" font-size="10.00">src/d/d_item/d_item.cpp</text>
</a>
</g>
</g>
<!-- Node7&#45;&gt;Node11 -->
<g id="edge11" class="edge">
<title>Node7&#45;&gt;Node11</title>
<path fill="none" stroke="midnightblue" d="M2791.69,-132.43C2841.71,-119.24 2890.53,-97.7 2861.5,-67 2832.47,-36.31 2215.3,-21.57 2017.16,-17.62"/>
<polygon fill="midnightblue" stroke="midnightblue" points="2790.53,-129.11 2781.69,-134.96 2792.25,-135.9 2790.53,-129.11"/>
</g>
<!-- Node12 -->
<g id="node12" class="node">
<title>Node12</title>
<g id="a_node12"><a xlink:href="d__kankyo__rain_8cpp.html" target="_top" xlink:title=" ">
<polygon fill="white" stroke="black" points="335,-67.5 335,-97.5 462,-97.5 462,-67.5 335,-67.5"/>
<text text-anchor="start" x="343" y="-85.5" font-family="Helvetica,sans-Serif" font-size="10.00">src/d/d_kankyo/d_kankyo</text>
<text text-anchor="middle" x="398.5" y="-74.5" font-family="Helvetica,sans-Serif" font-size="10.00">_rain.cpp</text>
</a>
</g>
</g>
<!-- Node7&#45;&gt;Node12 -->
<g id="edge12" class="edge">
<title>Node7&#45;&gt;Node12</title>
<path fill="none" stroke="midnightblue" d="M2625.31,-148.58C2272.72,-148.64 900.09,-145.73 470.5,-98 467.71,-97.69 464.87,-97.33 462.01,-96.92"/>
<polygon fill="midnightblue" stroke="midnightblue" points="2625.44,-152.08 2635.44,-148.58 2625.44,-145.08 2625.44,-152.08"/>
</g>
<!-- Node13 -->
<g id="node13" class="node">
<title>Node13</title>
<g id="a_node13"><a xlink:href="d__kankyo__wether_8cpp.html" target="_top" xlink:title=" ">
<polygon fill="white" stroke="black" points="480,-67.5 480,-97.5 607,-97.5 607,-67.5 480,-67.5"/>
<text text-anchor="start" x="488" y="-85.5" font-family="Helvetica,sans-Serif" font-size="10.00">src/d/d_kankyo/d_kankyo</text>
<text text-anchor="middle" x="543.5" y="-74.5" font-family="Helvetica,sans-Serif" font-size="10.00">_wether.cpp</text>
</a>
</g>
</g>
<!-- Node7&#45;&gt;Node13 -->
<g id="edge13" class="edge">
<title>Node7&#45;&gt;Node13</title>
<path fill="none" stroke="midnightblue" d="M2625.17,-148.43C2286.85,-147.86 1015.02,-142.7 615.5,-98 612.71,-97.69 609.87,-97.32 607.01,-96.92"/>
<polygon fill="midnightblue" stroke="midnightblue" points="2625.38,-151.93 2635.38,-148.45 2625.39,-144.93 2625.38,-151.93"/>
</g>
<!-- Node14 -->
<g id="node14" class="node">
<title>Node14</title>
<g id="a_node14"><a xlink:href="d__kankyo_8cpp.html" target="_top" xlink:title=" ">
<polygon fill="white" stroke="black" points="625,-73 625,-92 726,-92 726,-73 625,-73"/>
<text text-anchor="middle" x="675.5" y="-80" font-family="Helvetica,sans-Serif" font-size="10.00">src/d/d_kankyo.cpp</text>
</a>
</g>
</g>
<!-- Node7&#45;&gt;Node14 -->
<g id="edge14" class="edge">
<title>Node7&#45;&gt;Node14</title>
<path fill="none" stroke="midnightblue" d="M2625.03,-148.76C2298.66,-149.39 1108.44,-148.14 734.5,-98 724.78,-96.7 714.33,-94.43 704.97,-92.06"/>
<polygon fill="midnightblue" stroke="midnightblue" points="2625.36,-152.26 2635.36,-148.74 2625.35,-145.26 2625.36,-152.26"/>
</g>
<!-- Node15 -->
<g id="node15" class="node">
<title>Node15</title>
<g id="a_node15"><a xlink:href="d__kantera__icon__meter_8cpp.html" target="_top" xlink:title=" ">
<polygon fill="white" stroke="black" points="744,-67.5 744,-97.5 851,-97.5 851,-67.5 744,-67.5"/>
<text text-anchor="start" x="752" y="-85.5" font-family="Helvetica,sans-Serif" font-size="10.00">src/d/d_kantera_icon</text>
<text text-anchor="middle" x="797.5" y="-74.5" font-family="Helvetica,sans-Serif" font-size="10.00">_meter.cpp</text>
</a>
</g>
</g>
<!-- Node7&#45;&gt;Node15 -->
<g id="edge15" class="edge">
<title>Node7&#45;&gt;Node15</title>
<path fill="none" stroke="midnightblue" d="M2624.91,-148.46C2311.71,-147.98 1207.96,-143.03 859.5,-98 856.76,-97.65 853.96,-97.22 851.15,-96.75"/>
<polygon fill="midnightblue" stroke="midnightblue" points="2625.26,-151.96 2635.27,-148.48 2625.27,-144.96 2625.26,-151.96"/>
</g>
<!-- Node16 -->
<g id="node16" class="node">
<title>Node16</title>
<g id="a_node16"><a xlink:href="d__kyeff_8cpp.html" target="_top" xlink:title=" ">
<polygon fill="white" stroke="black" points="869,-73 869,-92 982,-92 982,-73 869,-73"/>
<text text-anchor="middle" x="925.5" y="-80" font-family="Helvetica,sans-Serif" font-size="10.00">src/d/d_ky/d_kyeff.cpp</text>
</a>
</g>
</g>
<!-- Node7&#45;&gt;Node16 -->
<g id="edge16" class="edge">
<title>Node7&#45;&gt;Node16</title>
<path fill="none" stroke="midnightblue" d="M2625.14,-148.15C2326.73,-146.56 1312.38,-138.26 990.5,-98 979.83,-96.67 968.33,-94.39 958.02,-92.03"/>
<polygon fill="midnightblue" stroke="midnightblue" points="2625.44,-151.65 2635.46,-148.2 2625.47,-144.65 2625.44,-151.65"/>
</g>
<!-- Node17 -->
<g id="node17" class="node">
<title>Node17</title>
<g id="a_node17"><a xlink:href="d__meter__button_8cpp.html" target="_top" xlink:title=" ">
<polygon fill="white" stroke="black" points="1000,-67.5 1000,-97.5 1115,-97.5 1115,-67.5 1000,-67.5"/>
<text text-anchor="start" x="1008" y="-85.5" font-family="Helvetica,sans-Serif" font-size="10.00">src/d/d_meter/d_meter</text>
<text text-anchor="middle" x="1057.5" y="-74.5" font-family="Helvetica,sans-Serif" font-size="10.00">_button.cpp</text>
</a>
</g>
</g>
<!-- Node7&#45;&gt;Node17 -->
<g id="edge17" class="edge">
<title>Node7&#45;&gt;Node17</title>
<path fill="none" stroke="midnightblue" d="M2624.97,-147.87C2341.6,-145.42 1418.16,-134.74 1123.5,-98 1120.82,-97.67 1118.09,-97.28 1115.34,-96.84"/>
<polygon fill="midnightblue" stroke="midnightblue" points="2625.15,-151.37 2635.18,-147.96 2625.21,-144.37 2625.15,-151.37"/>
</g>
<!-- Node18 -->
<g id="node18" class="node">
<title>Node18</title>
<g id="a_node18"><a xlink:href="d__meter__haihai_8cpp.html" target="_top" xlink:title=" ">
<polygon fill="white" stroke="black" points="1133,-67.5 1133,-97.5 1248,-97.5 1248,-67.5 1133,-67.5"/>
<text text-anchor="start" x="1141" y="-85.5" font-family="Helvetica,sans-Serif" font-size="10.00">src/d/d_meter/d_meter</text>
<text text-anchor="middle" x="1190.5" y="-74.5" font-family="Helvetica,sans-Serif" font-size="10.00">_haihai.cpp</text>
</a>
</g>
</g>
<!-- Node7&#45;&gt;Node18 -->
<g id="edge18" class="edge">
<title>Node7&#45;&gt;Node18</title>
<path fill="none" stroke="midnightblue" d="M2625.23,-147.59C2358.03,-144.36 1524.11,-131.77 1256.5,-98 1253.82,-97.66 1251.09,-97.27 1248.34,-96.83"/>
<polygon fill="midnightblue" stroke="midnightblue" points="2625.21,-151.09 2635.25,-147.71 2625.3,-144.09 2625.21,-151.09"/>
</g>
<!-- Node19 -->
<g id="node19" class="node">
<title>Node19</title>
<g id="a_node19"><a xlink:href="d__meter__hakusha_8cpp.html" target="_top" xlink:title=" ">
<polygon fill="white" stroke="black" points="1266,-67.5 1266,-97.5 1381,-97.5 1381,-67.5 1266,-67.5"/>
<text text-anchor="start" x="1274" y="-85.5" font-family="Helvetica,sans-Serif" font-size="10.00">src/d/d_meter/d_meter</text>
<text text-anchor="middle" x="1323.5" y="-74.5" font-family="Helvetica,sans-Serif" font-size="10.00">_hakusha.cpp</text>
</a>
</g>
</g>
<!-- Node7&#45;&gt;Node19 -->
<g id="edge19" class="edge">
<title>Node7&#45;&gt;Node19</title>
<path fill="none" stroke="midnightblue" d="M2625.26,-147.25C2374.71,-143.19 1630.09,-128.79 1389.5,-98 1386.82,-97.66 1384.1,-97.26 1381.35,-96.82"/>
<polygon fill="midnightblue" stroke="midnightblue" points="2625.33,-150.75 2635.39,-147.41 2625.45,-143.75 2625.33,-150.75"/>
</g>
<!-- Node20 -->
<g id="node20" class="node">
<title>Node20</title>
<g id="a_node20"><a xlink:href="d__meter__map_8cpp.html" target="_top" xlink:title=" ">
<polygon fill="white" stroke="black" points="1399,-67.5 1399,-97.5 1514,-97.5 1514,-67.5 1399,-67.5"/>
<text text-anchor="start" x="1407" y="-85.5" font-family="Helvetica,sans-Serif" font-size="10.00">src/d/d_meter/d_meter</text>
<text text-anchor="middle" x="1456.5" y="-74.5" font-family="Helvetica,sans-Serif" font-size="10.00">_map.cpp</text>
</a>
</g>
</g>
<!-- Node7&#45;&gt;Node20 -->
<g id="edge20" class="edge">
<title>Node7&#45;&gt;Node20</title>
<path fill="none" stroke="midnightblue" d="M2625.32,-146.84C2392.29,-141.89 1736.21,-125.81 1522.5,-98 1519.82,-97.65 1517.1,-97.25 1514.35,-96.8"/>
<polygon fill="midnightblue" stroke="midnightblue" points="2625.35,-150.34 2635.43,-147.05 2625.5,-143.34 2625.35,-150.34"/>
</g>
<!-- Node21 -->
<g id="node21" class="node">
<title>Node21</title>
<g id="a_node21"><a xlink:href="d__meter__string_8cpp.html" target="_top" xlink:title=" ">
<polygon fill="white" stroke="black" points="1532,-67.5 1532,-97.5 1647,-97.5 1647,-67.5 1532,-67.5"/>
<text text-anchor="start" x="1540" y="-85.5" font-family="Helvetica,sans-Serif" font-size="10.00">src/d/d_meter/d_meter</text>
<text text-anchor="middle" x="1589.5" y="-74.5" font-family="Helvetica,sans-Serif" font-size="10.00">_string.cpp</text>
</a>
</g>
</g>
<!-- Node7&#45;&gt;Node21 -->
<g id="edge21" class="edge">
<title>Node7&#45;&gt;Node21</title>
<path fill="none" stroke="midnightblue" d="M2625.25,-149.25C2446.71,-149.82 2014.12,-145.65 1655.5,-98 1652.83,-97.64 1650.1,-97.24 1647.35,-96.79"/>
<polygon fill="midnightblue" stroke="midnightblue" points="2625.37,-152.75 2635.35,-149.21 2625.34,-145.75 2625.37,-152.75"/>
</g>
<!-- Node22 -->
<g id="node22" class="node">
<title>Node22</title>
<g id="a_node22"><a xlink:href="d__meter2__draw_8cpp.html" target="_top" xlink:title=" ">
<polygon fill="white" stroke="black" points="1665,-67.5 1665,-97.5 1790,-97.5 1790,-67.5 1665,-67.5"/>
<text text-anchor="start" x="1673" y="-85.5" font-family="Helvetica,sans-Serif" font-size="10.00">src/d/d_meter2/d_meter2</text>
<text text-anchor="middle" x="1727.5" y="-74.5" font-family="Helvetica,sans-Serif" font-size="10.00">_draw.cpp</text>
</a>
</g>
</g>
<!-- Node7&#45;&gt;Node22 -->
<g id="edge22" class="edge">
<title>Node7&#45;&gt;Node22</title>
<path fill="none" stroke="midnightblue" d="M2625.04,-147.93C2464.37,-145.95 2101.19,-137.1 1798.5,-98 1795.76,-97.65 1792.96,-97.24 1790.14,-96.81"/>
<polygon fill="midnightblue" stroke="midnightblue" points="2625.29,-151.44 2635.33,-148.06 2625.37,-144.44 2625.29,-151.44"/>
</g>
<!-- Node23 -->
<g id="node23" class="node">
<title>Node23</title>
<g id="a_node23"><a xlink:href="d__meter2__info_8cpp.html" target="_top" xlink:title=" ">
<polygon fill="white" stroke="black" points="1808,-67.5 1808,-97.5 1933,-97.5 1933,-67.5 1808,-67.5"/>
<text text-anchor="start" x="1816" y="-85.5" font-family="Helvetica,sans-Serif" font-size="10.00">src/d/d_meter2/d_meter2</text>
<text text-anchor="middle" x="1870.5" y="-74.5" font-family="Helvetica,sans-Serif" font-size="10.00">_info.cpp</text>
</a>
</g>
</g>
<!-- Node7&#45;&gt;Node23 -->
<g id="edge23" class="edge">
<title>Node7&#45;&gt;Node23</title>
<path fill="none" stroke="midnightblue" d="M2625,-146.62C2483.85,-142.64 2189.31,-130.84 1942.5,-98 1939.47,-97.6 1936.37,-97.14 1933.25,-96.65"/>
<polygon fill="midnightblue" stroke="midnightblue" points="2625.21,-150.13 2635.31,-146.91 2625.41,-143.13 2625.21,-150.13"/>
</g>
<!-- Node24 -->
<g id="node24" class="node">
<title>Node24</title>
<g id="a_node24"><a xlink:href="d__meter2_8cpp.html" target="_top" xlink:title=" ">
<polygon fill="white" stroke="black" points="1951.5,-73 1951.5,-92 2051.5,-92 2051.5,-73 1951.5,-73"/>
<text text-anchor="middle" x="2001.5" y="-80" font-family="Helvetica,sans-Serif" font-size="10.00">src/d/d_meter2.cpp</text>
</a>
</g>
</g>
<!-- Node7&#45;&gt;Node24 -->
<g id="edge24" class="edge">
<title>Node7&#45;&gt;Node24</title>
<path fill="none" stroke="midnightblue" d="M2624.98,-146.34C2501.07,-142.16 2261.52,-130.31 2060.5,-98 2051.23,-96.51 2041.28,-94.3 2032.23,-92.06"/>
<polygon fill="midnightblue" stroke="midnightblue" points="2625.05,-149.85 2635.16,-146.68 2625.28,-142.85 2625.05,-149.85"/>
</g>
<!-- Node25 -->
<g id="node25" class="node">
<title>Node25</title>
<g id="a_node25"><a xlink:href="d__model_8cpp.html" target="_top" xlink:title=" ">
<polygon fill="white" stroke="black" points="2069.5,-73 2069.5,-92 2165.5,-92 2165.5,-73 2069.5,-73"/>
<text text-anchor="middle" x="2117.5" y="-80" font-family="Helvetica,sans-Serif" font-size="10.00">src/d/d_model.cpp</text>
</a>
</g>
</g>
<!-- Node7&#45;&gt;Node25 -->
<g id="edge25" class="edge">
<title>Node7&#45;&gt;Node25</title>
<path fill="none" stroke="midnightblue" d="M2625.21,-144.62C2519.69,-138.8 2332.56,-125.41 2174.5,-98 2165.65,-96.46 2156.14,-94.27 2147.49,-92.05"/>
<polygon fill="midnightblue" stroke="midnightblue" points="2625.3,-148.13 2635.47,-145.18 2625.68,-141.14 2625.3,-148.13"/>
</g>
<!-- Node26 -->
<g id="node26" class="node">
<title>Node26</title>
<g id="a_node26"><a xlink:href="d__save_8cpp.html" target="_top" xlink:title=" ">
<polygon fill="white" stroke="black" points="2184,-73 2184,-92 2309,-92 2309,-73 2184,-73"/>
<text text-anchor="middle" x="2246.5" y="-80" font-family="Helvetica,sans-Serif" font-size="10.00">src/d/d_save/d_save.cpp</text>
</a>
</g>
</g>
<!-- Node7&#45;&gt;Node26 -->
<g id="edge26" class="edge">
<title>Node7&#45;&gt;Node26</title>
<path fill="none" stroke="midnightblue" d="M2625.06,-139.51C2545.72,-130.54 2423.15,-115.59 2317.5,-98 2307.2,-96.29 2296.12,-94.16 2285.84,-92.07"/>
<polygon fill="midnightblue" stroke="midnightblue" points="2625.15,-143.04 2635.48,-140.68 2625.94,-136.09 2625.15,-143.04"/>
</g>
<!-- Node27 -->
<g id="node27" class="node">
<title>Node27</title>
<g id="a_node27"><a xlink:href="d__save__HIO_8cpp.html" target="_top" xlink:title=" ">
<polygon fill="white" stroke="black" points="2327,-67.5 2327,-97.5 2434,-97.5 2434,-67.5 2327,-67.5"/>
<text text-anchor="start" x="2335" y="-85.5" font-family="Helvetica,sans-Serif" font-size="10.00">src/d/d_save/d_save</text>
<text text-anchor="middle" x="2380.5" y="-74.5" font-family="Helvetica,sans-Serif" font-size="10.00">_HIO.cpp</text>
</a>
</g>
</g>
<!-- Node7&#45;&gt;Node27 -->
<g id="edge27" class="edge">
<title>Node7&#45;&gt;Node27</title>
<path fill="none" stroke="midnightblue" d="M2625.34,-133.49C2573.04,-123.84 2504.21,-110.77 2443.5,-98 2440.42,-97.35 2437.27,-96.67 2434.09,-95.98"/>
<polygon fill="midnightblue" stroke="midnightblue" points="2624.77,-136.94 2635.24,-135.31 2626.04,-130.06 2624.77,-136.94"/>
</g>
<!-- Node28 -->
<g id="node28" class="node">
<title>Node28</title>
<g id="a_node28"><a xlink:href="d__stage_8cpp.html" target="_top" xlink:title=" ">
<polygon fill="white" stroke="black" points="2452.5,-73 2452.5,-92 2546.5,-92 2546.5,-73 2452.5,-73"/>
<text text-anchor="middle" x="2499.5" y="-80" font-family="Helvetica,sans-Serif" font-size="10.00">src/d/d_stage.cpp</text>
</a>
</g>
</g>
<!-- Node7&#45;&gt;Node28 -->
<g id="edge28" class="edge">
<title>Node7&#45;&gt;Node28</title>
<path fill="none" stroke="midnightblue" d="M2653.61,-131.43C2612.86,-118.75 2558.99,-102 2526.92,-92.03"/>
<polygon fill="midnightblue" stroke="midnightblue" points="2652.82,-134.85 2663.41,-134.48 2654.9,-128.16 2652.82,-134.85"/>
</g>
<!-- Node29 -->
<g id="node29" class="node">
<title>Node29</title>
<g id="a_node29"><a xlink:href="f__op__actor__mng_8cpp.html" target="_top" xlink:title=" ">
<polygon fill="white" stroke="black" points="0,-0.5 0,-30.5 107,-30.5 107,-0.5 0,-0.5"/>
<text text-anchor="start" x="8" y="-18.5" font-family="Helvetica,sans-Serif" font-size="10.00">src/f/f_op/f_op_actor</text>
<text text-anchor="middle" x="53.5" y="-7.5" font-family="Helvetica,sans-Serif" font-size="10.00">_mng.cpp</text>
</a>
</g>
</g>
<!-- Node7&#45;&gt;Node29 -->
<g id="edge29" class="edge">
<title>Node7&#45;&gt;Node29</title>
<path fill="none" stroke="midnightblue" d="M2625.02,-148.36C2181.11,-147.47 115.92,-140.99 66.5,-98 47.47,-81.45 48.46,-49.14 50.94,-30.55"/>
<polygon fill="midnightblue" stroke="midnightblue" points="2625.19,-151.87 2635.2,-148.39 2625.2,-144.87 2625.19,-151.87"/>
</g>
<!-- Node30 -->
<g id="node30" class="node">
<title>Node30</title>
<g id="a_node30"><a xlink:href="f__op__camera_8cpp.html" target="_top" xlink:title=" ">
<polygon fill="white" stroke="black" points="2565,-73 2565,-92 2700,-92 2700,-73 2565,-73"/>
<text text-anchor="middle" x="2632.5" y="-80" font-family="Helvetica,sans-Serif" font-size="10.00">src/f/f_op/f_op_camera.cpp</text>
</a>
</g>
</g>
<!-- Node7&#45;&gt;Node30 -->
<g id="edge30" class="edge">
<title>Node7&#45;&gt;Node30</title>
<path fill="none" stroke="midnightblue" d="M2684.15,-127.67C2670.11,-115.67 2653.22,-101.22 2642.67,-92.19"/>
<polygon fill="midnightblue" stroke="midnightblue" points="2682.13,-130.56 2692.01,-134.4 2686.68,-125.24 2682.13,-130.56"/>
</g>
<!-- Node31 -->
<g id="node31" class="node">
<title>Node31</title>
<g id="a_node31"><a xlink:href="f__op__kankyo_8cpp.html" target="_top" xlink:title=" ">
<polygon fill="white" stroke="black" points="2718.5,-73 2718.5,-92 2852.5,-92 2852.5,-73 2718.5,-73"/>
<text text-anchor="middle" x="2785.5" y="-80" font-family="Helvetica,sans-Serif" font-size="10.00">src/f/f_op/f_op_kankyo.cpp</text>
</a>
</g>
</g>
<!-- Node7&#45;&gt;Node31 -->
<g id="edge31" class="edge">
<title>Node7&#45;&gt;Node31</title>
<path fill="none" stroke="midnightblue" d="M2733.17,-127.67C2747.39,-115.67 2764.51,-101.22 2775.2,-92.19"/>
<polygon fill="midnightblue" stroke="midnightblue" points="2730.59,-125.27 2725.21,-134.4 2735.11,-130.62 2730.59,-125.27"/>
</g>
<!-- Node32 -->
<g id="node32" class="node">
<title>Node32</title>
<g id="a_node32"><a xlink:href="f__op__kankyo__mng_8cpp.html" target="_top" xlink:title=" ">
<polygon fill="white" stroke="black" points="3262.5,-0.5 3262.5,-30.5 3378.5,-30.5 3378.5,-0.5 3262.5,-0.5"/>
<text text-anchor="start" x="3270.5" y="-18.5" font-family="Helvetica,sans-Serif" font-size="10.00">src/f/f_op/f_op_kankyo</text>
<text text-anchor="middle" x="3320.5" y="-7.5" font-family="Helvetica,sans-Serif" font-size="10.00">_mng.cpp</text>
</a>
</g>
</g>
<!-- Node7&#45;&gt;Node32 -->
<g id="edge32" class="edge">
<title>Node7&#45;&gt;Node32</title>
<path fill="none" stroke="midnightblue" d="M2790.59,-131.99C2823.66,-123.87 2861.68,-112.63 2894.5,-98 2917.7,-87.66 2918.67,-75.78 2942.5,-67 3050.59,-27.16 3186.37,-18.15 3262.27,-16.46"/>
<polygon fill="midnightblue" stroke="midnightblue" points="2789.4,-128.68 2780.49,-134.41 2791.03,-135.49 2789.4,-128.68"/>
</g>
<!-- Node33 -->
<g id="node33" class="node">
<title>Node33</title>
<g id="a_node33"><a xlink:href="f__op__msg__mng_8cpp.html" target="_top" xlink:title=" ">
<polygon fill="white" stroke="black" points="3799.5,-0.5 3799.5,-30.5 3903.5,-30.5 3903.5,-0.5 3799.5,-0.5"/>
<text text-anchor="start" x="3807.5" y="-18.5" font-family="Helvetica,sans-Serif" font-size="10.00">src/f/f_op/f_op_msg</text>
<text text-anchor="middle" x="3851.5" y="-7.5" font-family="Helvetica,sans-Serif" font-size="10.00">_mng.cpp</text>
</a>
</g>
</g>
<!-- Node7&#45;&gt;Node33 -->
<g id="edge33" class="edge">
<title>Node7&#45;&gt;Node33</title>
<path fill="none" stroke="midnightblue" d="M2791.68,-137.94C2835,-130.42 2888.07,-118.01 2932.5,-98 2953.98,-88.32 2953.3,-74.88 2975.5,-67 3052.98,-39.5 3622.7,-22.47 3799.39,-17.81"/>
<polygon fill="midnightblue" stroke="midnightblue" points="2791.02,-134.5 2781.74,-139.6 2792.18,-141.4 2791.02,-134.5"/>
</g>
<!-- Node34 -->
<g id="node34" class="node">
<title>Node34</title>
<g id="a_node34"><a xlink:href="f__pc__manager_8cpp.html" target="_top" xlink:title=" ">
<polygon fill="white" stroke="black" points="4968.5,-6 4968.5,-25 5108.5,-25 5108.5,-6 4968.5,-6"/>
<text text-anchor="middle" x="5038.5" y="-13" font-family="Helvetica,sans-Serif" font-size="10.00">src/f/f_pc/f_pc_manager.cpp</text>
</a>
</g>
</g>
<!-- Node7&#45;&gt;Node34 -->
<g id="edge34" class="edge">
<title>Node7&#45;&gt;Node34</title>
<path fill="none" stroke="midnightblue" d="M2791.6,-148.26C3202.16,-146.86 4995.95,-138.44 5036.5,-98 5055.94,-78.61 5047.07,-41.81 5041.63,-25.11"/>
<polygon fill="midnightblue" stroke="midnightblue" points="2791.57,-144.76 2781.58,-148.29 2791.6,-151.76 2791.57,-144.76"/>
</g>
<!-- Node35 -->
<g id="node35" class="node">
<title>Node35</title>
<g id="a_node35"><a xlink:href="m__Do__audio_8cpp.html" target="_top" xlink:title=" ">
<polygon fill="white" stroke="black" points="2984.5,-73 2984.5,-92 3118.5,-92 3118.5,-73 2984.5,-73"/>
<text text-anchor="middle" x="3051.5" y="-80" font-family="Helvetica,sans-Serif" font-size="10.00">src/m_Do/m_Do_audio.cpp</text>
</a>
</g>
</g>
<!-- Node7&#45;&gt;Node35 -->
<g id="edge35" class="edge">
<title>Node7&#45;&gt;Node35</title>
<path fill="none" stroke="midnightblue" d="M2791.85,-132.71C2859.33,-119.92 2951.83,-102.39 3006.27,-92.07"/>
<polygon fill="midnightblue" stroke="midnightblue" points="2790.83,-129.33 2781.66,-134.64 2792.14,-136.21 2790.83,-129.33"/>
</g>
<!-- Node36 -->
<g id="node36" class="node">
<title>Node36</title>
<g id="a_node36"><a xlink:href="m__Do__graphic_8cpp.html" target="_top" xlink:title=" ">
<polygon fill="white" stroke="black" points="3136.5,-73 3136.5,-92 3278.5,-92 3278.5,-73 3136.5,-73"/>
<text text-anchor="middle" x="3207.5" y="-80" font-family="Helvetica,sans-Serif" font-size="10.00">src/m_Do/m_Do_graphic.cpp</text>
</a>
</g>
</g>
<!-- Node7&#45;&gt;Node36 -->
<g id="edge36" class="edge">
<title>Node7&#45;&gt;Node36</title>
<path fill="none" stroke="midnightblue" d="M2791.79,-139.93C2876.49,-130.88 3011.41,-115.5 3127.5,-98 3139.08,-96.25 3151.57,-94.12 3163.15,-92.02"/>
<polygon fill="midnightblue" stroke="midnightblue" points="2791.29,-136.47 2781.72,-141.01 2792.03,-143.43 2791.29,-136.47"/>
</g>
<!-- Node37 -->
<g id="node37" class="node">
<title>Node37</title>
<g id="a_node37"><a xlink:href="m__Do__lib_8cpp.html" target="_top" xlink:title=" ">
<polygon fill="white" stroke="black" points="3296.5,-73 3296.5,-92 3416.5,-92 3416.5,-73 3296.5,-73"/>
<text text-anchor="middle" x="3356.5" y="-80" font-family="Helvetica,sans-Serif" font-size="10.00">src/m_Do/m_Do_lib.cpp</text>
</a>
</g>
</g>
<!-- Node7&#45;&gt;Node37 -->
<g id="edge37" class="edge">
<title>Node7&#45;&gt;Node37</title>
<path fill="none" stroke="midnightblue" d="M2792.25,-144.36C2905.17,-138.06 3112.31,-123.95 3287.5,-98 3298.03,-96.44 3309.38,-94.26 3319.76,-92.07"/>
<polygon fill="midnightblue" stroke="midnightblue" points="2791.74,-140.88 2781.95,-144.93 2792.13,-147.87 2791.74,-140.88"/>
</g>
<!-- Node38 -->
<g id="node38" class="node">
<title>Node38</title>
<g id="a_node38"><a xlink:href="m__Do__machine__exception_8cpp.html" target="_top" xlink:title=" ">
<polygon fill="white" stroke="black" points="3435,-67.5 3435,-97.5 3564,-97.5 3564,-67.5 3435,-67.5"/>
<text text-anchor="start" x="3443" y="-85.5" font-family="Helvetica,sans-Serif" font-size="10.00">src/m_Do/m_Do_machine</text>
<text text-anchor="middle" x="3499.5" y="-74.5" font-family="Helvetica,sans-Serif" font-size="10.00">_exception.cpp</text>
</a>
</g>
</g>
<!-- Node7&#45;&gt;Node38 -->
<g id="edge38" class="edge">
<title>Node7&#45;&gt;Node38</title>
<path fill="none" stroke="midnightblue" d="M2791.76,-145.96C2925.75,-141.14 3197.34,-128.27 3425.5,-98 3428.48,-97.6 3431.53,-97.16 3434.6,-96.69"/>
<polygon fill="midnightblue" stroke="midnightblue" points="2791.44,-142.47 2781.57,-146.33 2791.69,-149.47 2791.44,-142.47"/>
</g>
<!-- Node39 -->
<g id="node39" class="node">
<title>Node39</title>
<g id="a_node39"><a xlink:href="m__Do__main_8cpp.html" target="_top" xlink:title=" ">
<polygon fill="white" stroke="black" points="3582,-73 3582,-92 3713,-92 3713,-73 3582,-73"/>
<text text-anchor="middle" x="3647.5" y="-80" font-family="Helvetica,sans-Serif" font-size="10.00">src/m_Do/m_Do_main.cpp</text>
</a>
</g>
</g>
<!-- Node7&#45;&gt;Node39 -->
<g id="edge39" class="edge">
<title>Node7&#45;&gt;Node39</title>
<path fill="none" stroke="midnightblue" d="M2791.98,-147.29C2946.56,-144.25 3287.58,-133.71 3572.5,-98 3584.34,-96.52 3597.13,-94.28 3608.73,-92.01"/>
<polygon fill="midnightblue" stroke="midnightblue" points="2791.55,-143.8 2781.62,-147.49 2791.69,-150.8 2791.55,-143.8"/>
</g>
<!-- Node40 -->
<g id="node40" class="node">
<title>Node40</title>
<g id="a_node40"><a xlink:href="m__Do__MemCardRWmng_8cpp.html" target="_top" xlink:title=" ">
<polygon fill="white" stroke="black" points="3731,-73 3731,-92 3918,-92 3918,-73 3731,-73"/>
<text text-anchor="middle" x="3824.5" y="-80" font-family="Helvetica,sans-Serif" font-size="10.00">src/m_Do/m_Do_MemCardRWmng.cpp</text>
</a>
</g>
</g>
<!-- Node7&#45;&gt;Node40 -->
<g id="edge40" class="edge">
<title>Node7&#45;&gt;Node40</title>
<path fill="none" stroke="midnightblue" d="M2791.83,-146.88C2965.22,-142.96 3377.33,-130.74 3721.5,-98 3737.5,-96.48 3754.82,-94.26 3770.62,-92.02"/>
<polygon fill="midnightblue" stroke="midnightblue" points="2791.68,-143.39 2781.76,-147.11 2791.83,-150.39 2791.68,-143.39"/>
</g>
<!-- Node41 -->
<g id="node41" class="node">
<title>Node41</title>
<g id="a_node41"><a xlink:href="m__Do__ext_8cpp.html" target="_top" xlink:title=" ">
<polygon fill="white" stroke="black" points="3936,-73 3936,-92 4059,-92 4059,-73 3936,-73"/>
<text text-anchor="middle" x="3997.5" y="-80" font-family="Helvetica,sans-Serif" font-size="10.00">src/m_Do/m_Do_ext.cpp</text>
</a>
</g>
</g>
<!-- Node7&#45;&gt;Node41 -->
<g id="edge41" class="edge">
<title>Node7&#45;&gt;Node41</title>
<path fill="none" stroke="midnightblue" d="M2791.8,-146.78C3029.19,-141.62 3706.17,-124.89 3926.5,-98 3937.99,-96.6 3950.39,-94.33 3961.56,-92"/>
<polygon fill="midnightblue" stroke="midnightblue" points="2791.43,-143.29 2781.51,-147.01 2791.58,-150.29 2791.43,-143.29"/>
</g>
<!-- Node42 -->
<g id="node42" class="node">
<title>Node42</title>
<g id="a_node42"><a xlink:href="Z2EnvSeMgr_8cpp.html" target="_top" xlink:title=" ">
<polygon fill="white" stroke="black" points="4077,-73 4077,-92 4238,-92 4238,-73 4077,-73"/>
<text text-anchor="middle" x="4157.5" y="-80" font-family="Helvetica,sans-Serif" font-size="10.00">libs/Z2AudioLib/Z2EnvSeMgr.cpp</text>
</a>
</g>
</g>
<!-- Node7&#45;&gt;Node42 -->
<g id="edge42" class="edge">
<title>Node7&#45;&gt;Node42</title>
<path fill="none" stroke="midnightblue" d="M2791.8,-148.95C3004.73,-149.33 3586.09,-145.54 4067.5,-98 4081.83,-96.58 4097.35,-94.34 4111.39,-92.04"/>
<polygon fill="midnightblue" stroke="midnightblue" points="2791.64,-145.45 2781.64,-148.93 2791.63,-152.45 2791.64,-145.45"/>
</g>
<!-- Node43 -->
<g id="node43" class="node">
<title>Node43</title>
<g id="a_node43"><a xlink:href="Z2LinkMgr_8cpp.html" target="_top" xlink:title=" ">
<polygon fill="white" stroke="black" points="4256.5,-73 4256.5,-92 4408.5,-92 4408.5,-73 4256.5,-73"/>
<text text-anchor="middle" x="4332.5" y="-80" font-family="Helvetica,sans-Serif" font-size="10.00">libs/Z2AudioLib/Z2LinkMgr.cpp</text>
</a>
</g>
</g>
<!-- Node7&#45;&gt;Node43 -->
<g id="edge43" class="edge">
<title>Node7&#45;&gt;Node43</title>
<path fill="none" stroke="midnightblue" d="M2791.87,-147.24C3069.4,-142.81 3960.62,-126.66 4246.5,-98 4260.36,-96.61 4275.37,-94.35 4288.9,-92.02"/>
<polygon fill="midnightblue" stroke="midnightblue" points="2791.81,-143.74 2781.86,-147.4 2791.92,-150.74 2791.81,-143.74"/>
</g>
<!-- Node44 -->
<g id="node44" class="node">
<title>Node44</title>
<g id="a_node44"><a xlink:href="Z2SceneMgr_8cpp.html" target="_top" xlink:title=" ">
<polygon fill="white" stroke="black" points="4427,-73 4427,-92 4588,-92 4588,-73 4427,-73"/>
<text text-anchor="middle" x="4507.5" y="-80" font-family="Helvetica,sans-Serif" font-size="10.00">libs/Z2AudioLib/Z2SceneMgr.cpp</text>
</a>
</g>
</g>
<!-- Node7&#45;&gt;Node44 -->
<g id="edge44" class="edge">
<title>Node7&#45;&gt;Node44</title>
<path fill="none" stroke="midnightblue" d="M2791.85,-147.48C3089.09,-143.6 4096.44,-128.48 4417.5,-98 4432,-96.62 4447.7,-94.36 4461.86,-92.03"/>
<polygon fill="midnightblue" stroke="midnightblue" points="2791.54,-143.98 2781.58,-147.61 2791.63,-150.98 2791.54,-143.98"/>
</g>
<!-- Node45 -->
<g id="node45" class="node">
<title>Node45</title>
<g id="a_node45"><a xlink:href="Z2SoundMgr_8cpp.html" target="_top" xlink:title=" ">
<polygon fill="white" stroke="black" points="4606,-73 4606,-92 4767,-92 4767,-73 4606,-73"/>
<text text-anchor="middle" x="4686.5" y="-80" font-family="Helvetica,sans-Serif" font-size="10.00">libs/Z2AudioLib/Z2SoundMgr.cpp</text>
</a>
</g>
</g>
<!-- Node7&#45;&gt;Node45 -->
<g id="edge45" class="edge">
<title>Node7&#45;&gt;Node45</title>
<path fill="none" stroke="midnightblue" d="M2791.68,-147.75C3108.32,-144.66 4238.51,-131.48 4596.5,-98 4611,-96.64 4626.7,-94.39 4640.87,-92.06"/>
<polygon fill="midnightblue" stroke="midnightblue" points="2791.62,-144.25 2781.66,-147.85 2791.69,-151.25 2791.62,-144.25"/>
</g>
<!-- Node46 -->
<g id="node46" class="node">
<title>Node46</title>
<g id="a_node46"><a xlink:href="Z2StatusMgr_8cpp.html" target="_top" xlink:title=" ">
<polygon fill="white" stroke="black" points="4785,-67.5 4785,-97.5 4912,-97.5 4912,-67.5 4785,-67.5"/>
<text text-anchor="start" x="4793" y="-85.5" font-family="Helvetica,sans-Serif" font-size="10.00">libs/Z2AudioLib/Z2Status</text>
<text text-anchor="middle" x="4848.5" y="-74.5" font-family="Helvetica,sans-Serif" font-size="10.00">Mgr.cpp</text>
</a>
</g>
</g>
<!-- Node7&#45;&gt;Node46 -->
<g id="edge46" class="edge">
<title>Node7&#45;&gt;Node46</title>
<path fill="none" stroke="midnightblue" d="M2791.68,-148.4C3127.22,-147.72 4382.08,-142.19 4776.5,-98 4779.29,-97.69 4782.13,-97.32 4784.99,-96.91"/>
<polygon fill="midnightblue" stroke="midnightblue" points="2791.54,-144.9 2781.55,-148.42 2791.55,-151.9 2791.54,-144.9"/>
</g>
<!-- Node47 -->
<g id="node47" class="node">
<title>Node47</title>
<g id="a_node47"><a xlink:href="d__item_8h.html" target="_top" xlink:title=" ">
<polygon fill="white" stroke="black" points="75.5,-67.5 75.5,-97.5 171.5,-97.5 171.5,-67.5 75.5,-67.5"/>
<text text-anchor="start" x="83.5" y="-85.5" font-family="Helvetica,sans-Serif" font-size="10.00">include/d/d_item/d</text>
<text text-anchor="middle" x="123.5" y="-74.5" font-family="Helvetica,sans-Serif" font-size="10.00">_item/d_item.h</text>
</a>
</g>
</g>
<!-- Node7&#45;&gt;Node47 -->
<g id="edge48" class="edge">
<title>Node7&#45;&gt;Node47</title>
<path fill="none" stroke="midnightblue" d="M2625.1,-147.87C2216.05,-144.64 431.56,-128.89 185.5,-98 181,-97.44 176.36,-96.68 171.72,-95.81"/>
<polygon fill="midnightblue" stroke="midnightblue" points="2625.35,-151.37 2635.37,-147.95 2625.4,-144.37 2625.35,-151.37"/>
</g>
<!-- Node48 -->
<g id="node48" class="node">
<title>Node48</title>
<g id="a_node48"><a xlink:href="f__pc__manager_8h.html" target="_top" xlink:title=" ">
<polygon fill="white" stroke="red" points="4930,-67.5 4930,-97.5 5027,-97.5 5027,-67.5 4930,-67.5"/>
<text text-anchor="start" x="4938" y="-85.5" font-family="Helvetica,sans-Serif" font-size="10.00">include/f/f_pc/f_pc</text>
<text text-anchor="middle" x="4978.5" y="-74.5" font-family="Helvetica,sans-Serif" font-size="10.00">_manager.h</text>
</a>
</g>
</g>
<!-- Node7&#45;&gt;Node48 -->
<g id="edge52" class="edge">
<title>Node7&#45;&gt;Node48</title>
<path fill="none" stroke="midnightblue" d="M2791.61,-147.72C3168.49,-144.02 4707.9,-127.22 4921.5,-98 4924.23,-97.63 4927.02,-97.17 4929.83,-96.65"/>
<polygon fill="midnightblue" stroke="midnightblue" points="2791.56,-144.22 2781.59,-147.81 2791.63,-151.22 2791.56,-144.22"/>
</g>
<!-- Node47&#45;&gt;Node9 -->
<g id="edge49" class="edge">
<title>Node47&#45;&gt;Node9</title>
<path fill="none" stroke="midnightblue" d="M145.01,-60.31C154.91,-50.56 166.39,-39.26 175.21,-30.58"/>
<polygon fill="midnightblue" stroke="midnightblue" points="142.49,-57.89 137.82,-67.4 147.4,-62.87 142.49,-57.89"/>
</g>
<!-- Node47&#45;&gt;Node11 -->
<g id="edge50" class="edge">
<title>Node47&#45;&gt;Node11</title>
<path fill="none" stroke="midnightblue" d="M181.71,-71.46C193.83,-69.7 206.56,-68.08 218.5,-67 554.46,-36.6 1628.52,-20.79 1895.82,-17.26"/>
<polygon fill="midnightblue" stroke="midnightblue" points="181.06,-68.02 171.69,-72.98 182.1,-74.94 181.06,-68.02"/>
</g>
<!-- Node47&#45;&gt;Node29 -->
<g id="edge51" class="edge">
<title>Node47&#45;&gt;Node29</title>
<path fill="none" stroke="midnightblue" d="M100.68,-60.31C90.18,-50.56 78.01,-39.26 68.66,-30.58"/>
<polygon fill="midnightblue" stroke="midnightblue" points="98.6,-63.16 108.31,-67.4 103.36,-58.03 98.6,-63.16"/>
</g>
<!-- Node48&#45;&gt;Node6 -->
<g id="edge54" class="edge">
<title>Node48&#45;&gt;Node6</title>
<path fill="none" stroke="midnightblue" d="M5033.12,-64.43C5073.69,-51.75 5127.3,-35 5159.21,-25.03"/>
<polygon fill="midnightblue" stroke="midnightblue" points="5031.88,-61.15 5023.38,-67.48 5033.97,-67.83 5031.88,-61.15"/>
</g>
<!-- Node48&#45;&gt;Node32 -->
<g id="edge55" class="edge">
<title>Node48&#45;&gt;Node32</title>
<path fill="none" stroke="midnightblue" d="M4919.78,-67.78C4799.29,-62.15 3651.47,-26.7 3378.52,-18.29"/>
<polygon fill="midnightblue" stroke="midnightblue" points="4919.63,-71.27 4929.82,-68.38 4920.05,-64.29 4919.63,-71.27"/>
</g>
<!-- Node48&#45;&gt;Node33 -->
<g id="edge56" class="edge">
<title>Node48&#45;&gt;Node33</title>
<path fill="none" stroke="midnightblue" d="M4919.75,-66.97C4701.95,-36.68 4086.79,-21.52 3903.57,-17.56"/>
<polygon fill="midnightblue" stroke="midnightblue" points="4919.42,-70.46 4929.81,-68.43 4920.42,-63.53 4919.42,-70.46"/>
</g>
<!-- Node48&#45;&gt;Node34 -->
<g id="edge58" class="edge">
<title>Node48&#45;&gt;Node34</title>
<path fill="none" stroke="midnightblue" d="M4998.35,-60C5009.3,-48.13 5022.3,-34.05 5030.47,-25.19"/>
<polygon fill="midnightblue" stroke="midnightblue" points="4995.73,-57.67 4991.52,-67.4 5000.87,-62.42 4995.73,-57.67"/>
</g>
<!-- Node49 -->
<g id="node49" class="node">
<title>Node49</title>
<g id="a_node49"><a xlink:href="f__ap__game_8cpp.html" target="_top" xlink:title=" ">
<polygon fill="white" stroke="black" points="4711,-6 4711,-25 4816,-25 4816,-6 4711,-6"/>
<text text-anchor="middle" x="4763.5" y="-13" font-family="Helvetica,sans-Serif" font-size="10.00">src/f/f_ap_game.cpp</text>
</a>
</g>
</g>
<!-- Node48&#45;&gt;Node49 -->
<g id="edge53" class="edge">
<title>Node48&#45;&gt;Node49</title>
<path fill="none" stroke="midnightblue" d="M4922.3,-64.51C4880.34,-51.83 4824.76,-35.02 4791.71,-25.03"/>
<polygon fill="midnightblue" stroke="midnightblue" points="4921.53,-67.93 4932.11,-67.48 4923.55,-61.23 4921.53,-67.93"/>
</g>
<!-- Node50 -->
<g id="node50" class="node">
<title>Node50</title>
<g id="a_node50"><a xlink:href="f__op__overlap__req_8cpp.html" target="_top" xlink:title=" ">
<polygon fill="white" stroke="black" points="4834.5,-0.5 4834.5,-30.5 4950.5,-30.5 4950.5,-0.5 4834.5,-0.5"/>
<text text-anchor="start" x="4842.5" y="-18.5" font-family="Helvetica,sans-Serif" font-size="10.00">src/f/f_op/f_op_overlap</text>
<text text-anchor="middle" x="4892.5" y="-7.5" font-family="Helvetica,sans-Serif" font-size="10.00">_req.cpp</text>
</a>
</g>
</g>
<!-- Node48&#45;&gt;Node50 -->
<g id="edge57" class="edge">
<title>Node48&#45;&gt;Node50</title>
<path fill="none" stroke="midnightblue" d="M4951.6,-61.17C4938.45,-51.23 4922.95,-39.51 4911.12,-30.58"/>
<polygon fill="midnightblue" stroke="midnightblue" points="4949.75,-64.16 4959.84,-67.4 4953.97,-58.57 4949.75,-64.16"/>
</g>
</g>
</svg>
