<?xml version="1.0" encoding="UTF-8" standalone="no"?>
<!DOCTYPE svg PUBLIC "-//W3C//DTD SVG 1.1//EN"
 "http://www.w3.org/Graphics/SVG/1.1/DTD/svg11.dtd">
<!-- Generated by graphviz version 2.44.0 ()
 -->
<!-- Title: include/SComponent/c_API_controller_pad.h Pages: 1 -->
<svg width="1635pt" height="173pt"
 viewBox="0.00 0.00 1635.00 173.00" xmlns="http://www.w3.org/2000/svg" xmlns:xlink="http://www.w3.org/1999/xlink">
<g id="graph0" class="graph" transform="scale(1 1) rotate(0) translate(4 169)">
<title>include/SComponent/c_API_controller_pad.h</title>
<polygon fill="white" stroke="transparent" points="-4,4 -4,-169 1631,-169 1631,4 -4,4"/>
<!-- Node1 -->
<g id="node1" class="node">
<title>Node1</title>
<g id="a_node1"><a xlink:title=" ">
<polygon fill="#bfbfbf" stroke="black" points="491.5,-134.5 491.5,-164.5 611.5,-164.5 611.5,-134.5 491.5,-134.5"/>
<text text-anchor="start" x="499.5" y="-152.5" font-family="Helvetica,sans-Serif" font-size="10.00">include/SComponent</text>
<text text-anchor="middle" x="551.5" y="-141.5" font-family="Helvetica,sans-Serif" font-size="10.00">/c_API_controller_pad.h</text>
</a>
</g>
</g>
<!-- Node2 -->
<g id="node2" class="node">
<title>Node2</title>
<g id="a_node2"><a xlink:href="m__Do__main_8cpp.html" target="_top" xlink:title=" ">
<polygon fill="white" stroke="black" points="0,-6 0,-25 131,-25 131,-6 0,-6"/>
<text text-anchor="middle" x="65.5" y="-13" font-family="Helvetica,sans-Serif" font-size="10.00">src/m_Do/m_Do_main.cpp</text>
</a>
</g>
</g>
<!-- Node1&#45;&gt;Node2 -->
<g id="edge1" class="edge">
<title>Node1&#45;&gt;Node2</title>
<path fill="none" stroke="midnightblue" d="M483.3,-132.07C444.07,-122.47 393.92,-109.92 349.5,-98 255.62,-72.8 145.11,-40.25 94.03,-25.04"/>
<polygon fill="midnightblue" stroke="midnightblue" points="482.48,-135.47 493.02,-134.45 484.14,-128.67 482.48,-135.47"/>
</g>
<!-- Node3 -->
<g id="node3" class="node">
<title>Node3</title>
<g id="a_node3"><a xlink:href="m__Do__Reset_8cpp.html" target="_top" xlink:title=" ">
<polygon fill="white" stroke="black" points="833.5,-73 833.5,-92 969.5,-92 969.5,-73 833.5,-73"/>
<text text-anchor="middle" x="901.5" y="-80" font-family="Helvetica,sans-Serif" font-size="10.00">src/m_Do/m_Do_Reset.cpp</text>
</a>
</g>
</g>
<!-- Node1&#45;&gt;Node3 -->
<g id="edge2" class="edge">
<title>Node1&#45;&gt;Node3</title>
<path fill="none" stroke="midnightblue" d="M621.71,-135.58C676.85,-125.41 755.58,-110.86 824.5,-98 834.8,-96.08 845.87,-94 856.31,-92.03"/>
<polygon fill="midnightblue" stroke="midnightblue" points="620.89,-132.17 611.69,-137.42 622.16,-139.05 620.89,-132.17"/>
</g>
<!-- Node4 -->
<g id="node4" class="node">
<title>Node4</title>
<g id="a_node4"><a xlink:href="c__API__controller__pad_8cpp.html" target="_top" xlink:title=" ">
<polygon fill="white" stroke="black" points="149.5,-0.5 149.5,-30.5 283.5,-30.5 283.5,-0.5 149.5,-0.5"/>
<text text-anchor="start" x="157.5" y="-18.5" font-family="Helvetica,sans-Serif" font-size="10.00">libs/SSystem/SComponent</text>
<text text-anchor="middle" x="216.5" y="-7.5" font-family="Helvetica,sans-Serif" font-size="10.00">/c_API_controller_pad.cpp</text>
</a>
</g>
</g>
<!-- Node1&#45;&gt;Node4 -->
<g id="edge3" class="edge">
<title>Node1&#45;&gt;Node4</title>
<path fill="none" stroke="midnightblue" d="M506.47,-130.76C439.14,-104.23 313.58,-54.75 252.17,-30.56"/>
<polygon fill="midnightblue" stroke="midnightblue" points="505.38,-134.09 515.97,-134.5 507.95,-127.58 505.38,-134.09"/>
</g>
<!-- Node5 -->
<g id="node5" class="node">
<title>Node5</title>
<g id="a_node5"><a xlink:href="m__Do__controller__pad_8h.html" target="_top" xlink:title=" ">
<polygon fill="white" stroke="black" points="666,-67.5 666,-97.5 815,-97.5 815,-67.5 666,-67.5"/>
<text text-anchor="start" x="674" y="-85.5" font-family="Helvetica,sans-Serif" font-size="10.00">include/m_Do/m_Do_controller</text>
<text text-anchor="middle" x="740.5" y="-74.5" font-family="Helvetica,sans-Serif" font-size="10.00">_pad/m_Do_controller_pad.h</text>
</a>
</g>
</g>
<!-- Node1&#45;&gt;Node5 -->
<g id="edge4" class="edge">
<title>Node1&#45;&gt;Node5</title>
<path fill="none" stroke="midnightblue" d="M602.12,-131.09C632.63,-120.6 670.98,-107.41 699.57,-97.58"/>
<polygon fill="midnightblue" stroke="midnightblue" points="600.83,-127.83 592.51,-134.4 603.1,-134.45 600.83,-127.83"/>
</g>
<!-- Node5&#45;&gt;Node2 -->
<g id="edge15" class="edge">
<title>Node5&#45;&gt;Node2</title>
<path fill="none" stroke="midnightblue" d="M655.58,-77.22C539.04,-70.7 323.19,-56.27 140.5,-31 129.07,-29.42 116.75,-27.24 105.46,-25.05"/>
<polygon fill="midnightblue" stroke="midnightblue" points="655.68,-80.73 665.85,-77.79 656.06,-73.74 655.68,-80.73"/>
</g>
<!-- Node5&#45;&gt;Node4 -->
<g id="edge16" class="edge">
<title>Node5&#45;&gt;Node4</title>
<path fill="none" stroke="midnightblue" d="M655.58,-73.87C565.28,-65.31 418.43,-50.08 292.5,-31 289.58,-30.56 286.6,-30.08 283.59,-29.59"/>
<polygon fill="midnightblue" stroke="midnightblue" points="655.47,-77.38 665.76,-74.83 656.13,-70.41 655.47,-77.38"/>
</g>
<!-- Node6 -->
<g id="node6" class="node">
<title>Node6</title>
<g id="a_node6"><a xlink:href="d__attention_8cpp.html" target="_top" xlink:title=" ">
<polygon fill="white" stroke="black" points="908,-6 908,-25 1015,-25 1015,-6 908,-6"/>
<text text-anchor="middle" x="961.5" y="-13" font-family="Helvetica,sans-Serif" font-size="10.00">src/d/d_attention.cpp</text>
</a>
</g>
</g>
<!-- Node5&#45;&gt;Node6 -->
<g id="edge5" class="edge">
<title>Node5&#45;&gt;Node6</title>
<path fill="none" stroke="midnightblue" d="M797.99,-64.59C841.15,-51.9 898.45,-35.04 932.5,-25.03"/>
<polygon fill="midnightblue" stroke="midnightblue" points="796.79,-61.3 788.18,-67.48 798.76,-68.01 796.79,-61.3"/>
</g>
<!-- Node7 -->
<g id="node7" class="node">
<title>Node7</title>
<g id="a_node7"><a xlink:href="d__camera_8cpp.html" target="_top" xlink:title=" ">
<polygon fill="white" stroke="black" points="1032.5,-6 1032.5,-25 1134.5,-25 1134.5,-6 1032.5,-6"/>
<text text-anchor="middle" x="1083.5" y="-13" font-family="Helvetica,sans-Serif" font-size="10.00">src/d/d_camera.cpp</text>
</a>
</g>
</g>
<!-- Node5&#45;&gt;Node7 -->
<g id="edge6" class="edge">
<title>Node5&#45;&gt;Node7</title>
<path fill="none" stroke="midnightblue" d="M825.46,-66.68C901.93,-53.3 1005.19,-35.09 1024.5,-31 1032.96,-29.21 1042.06,-27.08 1050.51,-25.01"/>
<polygon fill="midnightblue" stroke="midnightblue" points="824.58,-63.28 815.33,-68.45 825.79,-70.18 824.58,-63.28"/>
</g>
<!-- Node8 -->
<g id="node8" class="node">
<title>Node8</title>
<g id="a_node8"><a xlink:href="d__com__inf__game_8cpp.html" target="_top" xlink:title=" ">
<polygon fill="white" stroke="black" points="1153,-0.5 1153,-30.5 1272,-30.5 1272,-0.5 1153,-0.5"/>
<text text-anchor="start" x="1161" y="-18.5" font-family="Helvetica,sans-Serif" font-size="10.00">src/d/d_com/d_com_inf</text>
<text text-anchor="middle" x="1212.5" y="-7.5" font-family="Helvetica,sans-Serif" font-size="10.00">_game.cpp</text>
</a>
</g>
</g>
<!-- Node5&#45;&gt;Node8 -->
<g id="edge7" class="edge">
<title>Node5&#45;&gt;Node8</title>
<path fill="none" stroke="midnightblue" d="M825.1,-66.98C967.46,-47.15 1005.8,-53.19 1143.5,-31 1146.52,-30.51 1149.61,-29.98 1152.73,-29.42"/>
<polygon fill="midnightblue" stroke="midnightblue" points="824.53,-63.52 815.12,-68.39 825.51,-70.45 824.53,-63.52"/>
</g>
<!-- Node9 -->
<g id="node9" class="node">
<title>Node9</title>
<g id="a_node9"><a xlink:href="d__lib_8cpp.html" target="_top" xlink:title=" ">
<polygon fill="white" stroke="black" points="1290.5,-6 1290.5,-25 1370.5,-25 1370.5,-6 1290.5,-6"/>
<text text-anchor="middle" x="1330.5" y="-13" font-family="Helvetica,sans-Serif" font-size="10.00">src/d/d_lib.cpp</text>
</a>
</g>
</g>
<!-- Node5&#45;&gt;Node9 -->
<g id="edge8" class="edge">
<title>Node5&#45;&gt;Node9</title>
<path fill="none" stroke="midnightblue" d="M825.21,-67.01C1028.45,-42.48 1084.4,-67.51 1281.5,-31 1289.35,-29.55 1297.74,-27.32 1305.31,-25.05"/>
<polygon fill="midnightblue" stroke="midnightblue" points="824.6,-63.56 815.1,-68.25 825.45,-70.5 824.6,-63.56"/>
</g>
<!-- Node10 -->
<g id="node10" class="node">
<title>Node10</title>
<g id="a_node10"><a xlink:href="d__meter__map_8cpp.html" target="_top" xlink:title=" ">
<polygon fill="white" stroke="black" points="1389,-0.5 1389,-30.5 1504,-30.5 1504,-0.5 1389,-0.5"/>
<text text-anchor="start" x="1397" y="-18.5" font-family="Helvetica,sans-Serif" font-size="10.00">src/d/d_meter/d_meter</text>
<text text-anchor="middle" x="1446.5" y="-7.5" font-family="Helvetica,sans-Serif" font-size="10.00">_map.cpp</text>
</a>
</g>
</g>
<!-- Node5&#45;&gt;Node10 -->
<g id="edge9" class="edge">
<title>Node5&#45;&gt;Node10</title>
<path fill="none" stroke="midnightblue" d="M825.08,-67.03C1071.71,-38.64 1137.92,-64.79 1379.5,-31 1382.56,-30.57 1385.7,-30.08 1388.85,-29.54"/>
<polygon fill="midnightblue" stroke="midnightblue" points="824.62,-63.56 815.09,-68.2 825.43,-70.52 824.62,-63.56"/>
</g>
<!-- Node11 -->
<g id="node11" class="node">
<title>Node11</title>
<g id="a_node11"><a xlink:href="f__ap__game_8cpp.html" target="_top" xlink:title=" ">
<polygon fill="white" stroke="black" points="1522,-6 1522,-25 1627,-25 1627,-6 1522,-6"/>
<text text-anchor="middle" x="1574.5" y="-13" font-family="Helvetica,sans-Serif" font-size="10.00">src/f/f_ap_game.cpp</text>
</a>
</g>
</g>
<!-- Node5&#45;&gt;Node11 -->
<g id="edge10" class="edge">
<title>Node5&#45;&gt;Node11</title>
<path fill="none" stroke="midnightblue" d="M825.13,-67.04C1130.99,-33.75 1213.24,-74.17 1513.5,-31 1523.3,-29.59 1533.85,-27.35 1543.36,-25.05"/>
<polygon fill="midnightblue" stroke="midnightblue" points="824.64,-63.57 815.09,-68.15 825.41,-70.53 824.64,-63.57"/>
</g>
<!-- Node12 -->
<g id="node12" class="node">
<title>Node12</title>
<g id="a_node12"><a xlink:href="d__a__alink_8cpp.html" target="_top" xlink:title=" ">
<polygon fill="white" stroke="black" points="302,-6 302,-25 421,-25 421,-6 302,-6"/>
<text text-anchor="middle" x="361.5" y="-13" font-family="Helvetica,sans-Serif" font-size="10.00">src/d/d_a/d_a_alink.cpp</text>
</a>
</g>
</g>
<!-- Node5&#45;&gt;Node12 -->
<g id="edge11" class="edge">
<title>Node5&#45;&gt;Node12</title>
<path fill="none" stroke="midnightblue" d="M655.61,-68.74C593.2,-59.1 506.41,-45.15 430.5,-31 420.75,-29.18 410.27,-27.06 400.48,-25.02"/>
<polygon fill="midnightblue" stroke="midnightblue" points="655.38,-72.25 665.79,-70.31 656.44,-65.33 655.38,-72.25"/>
</g>
<!-- Node13 -->
<g id="node13" class="node">
<title>Node13</title>
<g id="a_node13"><a xlink:href="f__pc__manager_8cpp.html" target="_top" xlink:title=" ">
<polygon fill="white" stroke="black" points="439.5,-6 439.5,-25 579.5,-25 579.5,-6 439.5,-6"/>
<text text-anchor="middle" x="509.5" y="-13" font-family="Helvetica,sans-Serif" font-size="10.00">src/f/f_pc/f_pc_manager.cpp</text>
</a>
</g>
</g>
<!-- Node5&#45;&gt;Node13 -->
<g id="edge12" class="edge">
<title>Node5&#45;&gt;Node13</title>
<path fill="none" stroke="midnightblue" d="M680.97,-64.75C635.8,-52.04 575.55,-35.09 539.81,-25.03"/>
<polygon fill="midnightblue" stroke="midnightblue" points="680.09,-68.14 690.66,-67.48 681.98,-61.4 680.09,-68.14"/>
</g>
<!-- Node14 -->
<g id="node14" class="node">
<title>Node14</title>
<g id="a_node14"><a xlink:href="m__Do__controller__pad_8cpp.html" target="_top" xlink:title=" ">
<polygon fill="white" stroke="black" points="597.5,-0.5 597.5,-30.5 729.5,-30.5 729.5,-0.5 597.5,-0.5"/>
<text text-anchor="start" x="605.5" y="-18.5" font-family="Helvetica,sans-Serif" font-size="10.00">src/m_Do/m_Do_controller</text>
<text text-anchor="middle" x="663.5" y="-7.5" font-family="Helvetica,sans-Serif" font-size="10.00">_pad.cpp</text>
</a>
</g>
</g>
<!-- Node5&#45;&gt;Node14 -->
<g id="edge13" class="edge">
<title>Node5&#45;&gt;Node14</title>
<path fill="none" stroke="midnightblue" d="M716.08,-60.88C704.38,-51.01 690.66,-39.43 680.18,-30.58"/>
<polygon fill="midnightblue" stroke="midnightblue" points="713.89,-63.62 723.79,-67.4 718.41,-58.27 713.89,-63.62"/>
</g>
<!-- Node15 -->
<g id="node15" class="node">
<title>Node15</title>
<g id="a_node15"><a xlink:href="m__Do__graphic_8cpp.html" target="_top" xlink:title=" ">
<polygon fill="white" stroke="black" points="747.5,-6 747.5,-25 889.5,-25 889.5,-6 747.5,-6"/>
<text text-anchor="middle" x="818.5" y="-13" font-family="Helvetica,sans-Serif" font-size="10.00">src/m_Do/m_Do_graphic.cpp</text>
</a>
</g>
</g>
<!-- Node5&#45;&gt;Node15 -->
<g id="edge14" class="edge">
<title>Node5&#45;&gt;Node15</title>
<path fill="none" stroke="midnightblue" d="M765.49,-60.67C779.9,-48.67 797.24,-34.22 808.07,-25.19"/>
<polygon fill="midnightblue" stroke="midnightblue" points="762.87,-58.31 757.42,-67.4 767.35,-63.68 762.87,-58.31"/>
</g>
</g>
</svg>
