<?xml version="1.0" encoding="UTF-8" standalone="no"?>
<!DOCTYPE svg PUBLIC "-//W3C//DTD SVG 1.1//EN"
 "http://www.w3.org/Graphics/SVG/1.1/DTD/svg11.dtd">
<!-- Generated by graphviz version 2.44.0 ()
 -->
<!-- Title: include/SComponent/c_bg_s_chk.h Pages: 1 -->
<svg width="752pt" height="430pt"
 viewBox="0.00 0.00 751.50 430.00" xmlns="http://www.w3.org/2000/svg" xmlns:xlink="http://www.w3.org/1999/xlink">
<g id="graph0" class="graph" transform="scale(1 1) rotate(0) translate(4 426)">
<title>include/SComponent/c_bg_s_chk.h</title>
<polygon fill="white" stroke="transparent" points="-4,4 -4,-426 747.5,-426 747.5,4 -4,4"/>
<!-- Node1 -->
<g id="node1" class="node">
<title>Node1</title>
<g id="a_node1"><a xlink:title=" ">
<polygon fill="#bfbfbf" stroke="black" points="229.5,-391.5 229.5,-421.5 336.5,-421.5 336.5,-391.5 229.5,-391.5"/>
<text text-anchor="start" x="237.5" y="-409.5" font-family="Helvetica,sans-Serif" font-size="10.00">include/SComponent</text>
<text text-anchor="middle" x="283" y="-398.5" font-family="Helvetica,sans-Serif" font-size="10.00">/c_bg_s_chk.h</text>
</a>
</g>
</g>
<!-- Node2 -->
<g id="node2" class="node">
<title>Node2</title>
<g id="a_node2"><a xlink:href="c__bg__s__chk_8cpp.html" target="_top" xlink:title=" ">
<polygon fill="white" stroke="black" points="0,-324.5 0,-354.5 134,-354.5 134,-324.5 0,-324.5"/>
<text text-anchor="start" x="8" y="-342.5" font-family="Helvetica,sans-Serif" font-size="10.00">libs/SSystem/SComponent</text>
<text text-anchor="middle" x="67" y="-331.5" font-family="Helvetica,sans-Serif" font-size="10.00">/c_bg_s_chk.cpp</text>
</a>
</g>
</g>
<!-- Node1&#45;&gt;Node2 -->
<g id="edge1" class="edge">
<title>Node1&#45;&gt;Node2</title>
<path fill="none" stroke="midnightblue" d="M226.77,-388.58C191.69,-378.02 147.06,-364.59 113.89,-354.61"/>
<polygon fill="midnightblue" stroke="midnightblue" points="225.81,-391.95 236.4,-391.48 227.83,-385.24 225.81,-391.95"/>
</g>
<!-- Node3 -->
<g id="node3" class="node">
<title>Node3</title>
<g id="a_node3"><a xlink:href="d__bg__s__spl__grp__chk_8h.html" target="_top" xlink:title=" ">
<polygon fill="white" stroke="black" points="152.5,-324.5 152.5,-354.5 279.5,-354.5 279.5,-324.5 152.5,-324.5"/>
<text text-anchor="start" x="160.5" y="-342.5" font-family="Helvetica,sans-Serif" font-size="10.00">include/d/d_bg/d_bg</text>
<text text-anchor="middle" x="216" y="-331.5" font-family="Helvetica,sans-Serif" font-size="10.00">_s/d_bg_s_spl_grp_chk.h</text>
</a>
</g>
</g>
<!-- Node1&#45;&gt;Node3 -->
<g id="edge2" class="edge">
<title>Node1&#45;&gt;Node3</title>
<path fill="none" stroke="midnightblue" d="M261.16,-384.31C251.11,-374.56 239.46,-363.26 230.51,-354.58"/>
<polygon fill="midnightblue" stroke="midnightblue" points="258.85,-386.94 268.46,-391.4 263.72,-381.92 258.85,-386.94"/>
</g>
<!-- Node10 -->
<g id="node10" class="node">
<title>Node10</title>
<g id="a_node10"><a xlink:href="c__bg__s__gnd__chk_8h.html" target="_top" xlink:title=" ">
<polygon fill="white" stroke="black" points="297.5,-324.5 297.5,-354.5 404.5,-354.5 404.5,-324.5 297.5,-324.5"/>
<text text-anchor="start" x="305.5" y="-342.5" font-family="Helvetica,sans-Serif" font-size="10.00">include/SComponent</text>
<text text-anchor="middle" x="351" y="-331.5" font-family="Helvetica,sans-Serif" font-size="10.00">/c_bg_s_gnd_chk.h</text>
</a>
</g>
</g>
<!-- Node1&#45;&gt;Node10 -->
<g id="edge10" class="edge">
<title>Node1&#45;&gt;Node10</title>
<path fill="none" stroke="midnightblue" d="M305.17,-384.31C315.37,-374.56 327.19,-363.26 336.27,-354.58"/>
<polygon fill="midnightblue" stroke="midnightblue" points="302.57,-381.96 297.75,-391.4 307.4,-387.02 302.57,-381.96"/>
</g>
<!-- Node14 -->
<g id="node14" class="node">
<title>Node14</title>
<g id="a_node14"><a xlink:href="c__bg__s__lin__chk_8h.html" target="_top" xlink:title=" ">
<polygon fill="white" stroke="black" points="568.5,-324.5 568.5,-354.5 675.5,-354.5 675.5,-324.5 568.5,-324.5"/>
<text text-anchor="start" x="576.5" y="-342.5" font-family="Helvetica,sans-Serif" font-size="10.00">include/SComponent</text>
<text text-anchor="middle" x="622" y="-331.5" font-family="Helvetica,sans-Serif" font-size="10.00">/c_bg_s_lin_chk.h</text>
</a>
</g>
</g>
<!-- Node1&#45;&gt;Node14 -->
<g id="edge16" class="edge">
<title>Node1&#45;&gt;Node14</title>
<path fill="none" stroke="midnightblue" d="M346.68,-393.29C410.63,-381.03 508.08,-362.34 568.26,-350.8"/>
<polygon fill="midnightblue" stroke="midnightblue" points="345.88,-389.88 336.72,-395.2 347.2,-396.75 345.88,-389.88"/>
</g>
<!-- Node4 -->
<g id="node4" class="node">
<title>Node4</title>
<g id="a_node4"><a xlink:href="d__bg__s__wtr__chk_8h.html" target="_top" xlink:title=" ">
<polygon fill="white" stroke="black" points="15.5,-257.5 15.5,-287.5 124.5,-287.5 124.5,-257.5 15.5,-257.5"/>
<text text-anchor="start" x="23.5" y="-275.5" font-family="Helvetica,sans-Serif" font-size="10.00">include/d/d_bg/d_bg</text>
<text text-anchor="middle" x="70" y="-264.5" font-family="Helvetica,sans-Serif" font-size="10.00">_s/d_bg_s_wtr_chk.h</text>
</a>
</g>
</g>
<!-- Node3&#45;&gt;Node4 -->
<g id="edge3" class="edge">
<title>Node3&#45;&gt;Node4</title>
<path fill="none" stroke="midnightblue" d="M175.05,-320.27C151.8,-309.92 123.13,-297.15 101.62,-287.58"/>
<polygon fill="midnightblue" stroke="midnightblue" points="173.76,-323.53 184.32,-324.4 176.61,-317.13 173.76,-323.53"/>
</g>
<!-- Node5 -->
<g id="node5" class="node">
<title>Node5</title>
<g id="a_node5"><a xlink:href="d__bg__s__acch_8h.html" target="_top" xlink:title=" ">
<polygon fill="white" stroke="black" points="351,-190.5 351,-220.5 455,-220.5 455,-190.5 351,-190.5"/>
<text text-anchor="start" x="359" y="-208.5" font-family="Helvetica,sans-Serif" font-size="10.00">include/d/d_bg/d_bg</text>
<text text-anchor="middle" x="403" y="-197.5" font-family="Helvetica,sans-Serif" font-size="10.00">_s/d_bg_s_acch.h</text>
</a>
</g>
</g>
<!-- Node4&#45;&gt;Node5 -->
<g id="edge4" class="edge">
<title>Node4&#45;&gt;Node5</title>
<path fill="none" stroke="midnightblue" d="M134.68,-256.9C215.92,-240.2 298.66,-225.03 350.82,-215.7"/>
<polygon fill="midnightblue" stroke="midnightblue" points="133.87,-253.5 124.78,-258.95 135.28,-260.35 133.87,-253.5"/>
</g>
<!-- Node6 -->
<g id="node6" class="node">
<title>Node6</title>
<g id="a_node6"><a xlink:href="d__a__alink_8h.html" target="_top" xlink:title=" ">
<polygon fill="white" stroke="black" points="422.5,-56.5 422.5,-86.5 541.5,-86.5 541.5,-56.5 422.5,-56.5"/>
<text text-anchor="start" x="430.5" y="-74.5" font-family="Helvetica,sans-Serif" font-size="10.00">include/d/d_a/d_a_alink</text>
<text text-anchor="middle" x="482" y="-63.5" font-family="Helvetica,sans-Serif" font-size="10.00">/d_a_alink.h</text>
</a>
</g>
</g>
<!-- Node5&#45;&gt;Node6 -->
<g id="edge5" class="edge">
<title>Node5&#45;&gt;Node6</title>
<path fill="none" stroke="midnightblue" d="M404.64,-179.94C406.72,-162.91 411.41,-140.27 422,-123 431.11,-108.14 446.11,-95.52 458.83,-86.61"/>
<polygon fill="midnightblue" stroke="midnightblue" points="401.13,-179.92 403.62,-190.22 408.09,-180.61 401.13,-179.92"/>
</g>
<!-- Node9 -->
<g id="node9" class="node">
<title>Node9</title>
<g id="a_node9"><a xlink:href="d__particle__copoly_8h.html" target="_top" xlink:title=" ">
<polygon fill="white" stroke="black" points="431,-123.5 431,-153.5 533,-153.5 533,-123.5 431,-123.5"/>
<text text-anchor="start" x="439" y="-141.5" font-family="Helvetica,sans-Serif" font-size="10.00">include/d/d_particle</text>
<text text-anchor="middle" x="482" y="-130.5" font-family="Helvetica,sans-Serif" font-size="10.00">/d_particle_copoly.h</text>
</a>
</g>
</g>
<!-- Node5&#45;&gt;Node9 -->
<g id="edge8" class="edge">
<title>Node5&#45;&gt;Node9</title>
<path fill="none" stroke="midnightblue" d="M428.06,-183.88C440.06,-174.01 454.13,-162.43 464.89,-153.58"/>
<polygon fill="midnightblue" stroke="midnightblue" points="425.64,-181.34 420.14,-190.4 430.09,-186.75 425.64,-181.34"/>
</g>
<!-- Node7 -->
<g id="node7" class="node">
<title>Node7</title>
<g id="a_node7"><a xlink:href="d__attention_8cpp.html" target="_top" xlink:title=" ">
<polygon fill="white" stroke="black" points="363.5,-0.5 363.5,-19.5 470.5,-19.5 470.5,-0.5 363.5,-0.5"/>
<text text-anchor="middle" x="417" y="-7.5" font-family="Helvetica,sans-Serif" font-size="10.00">src/d/d_attention.cpp</text>
</a>
</g>
</g>
<!-- Node6&#45;&gt;Node7 -->
<g id="edge6" class="edge">
<title>Node6&#45;&gt;Node7</title>
<path fill="none" stroke="midnightblue" d="M459.17,-49.6C447.93,-39.32 435.01,-27.48 426.46,-19.66"/>
<polygon fill="midnightblue" stroke="midnightblue" points="456.86,-52.23 466.6,-56.4 461.58,-47.07 456.86,-52.23"/>
</g>
<!-- Node8 -->
<g id="node8" class="node">
<title>Node8</title>
<g id="a_node8"><a xlink:href="d__a__alink_8cpp.html" target="_top" xlink:title=" ">
<polygon fill="white" stroke="black" points="488.5,-0.5 488.5,-19.5 607.5,-19.5 607.5,-0.5 488.5,-0.5"/>
<text text-anchor="middle" x="548" y="-7.5" font-family="Helvetica,sans-Serif" font-size="10.00">src/d/d_a/d_a_alink.cpp</text>
</a>
</g>
</g>
<!-- Node6&#45;&gt;Node8 -->
<g id="edge7" class="edge">
<title>Node6&#45;&gt;Node8</title>
<path fill="none" stroke="midnightblue" d="M505.19,-49.6C516.59,-39.32 529.72,-27.48 538.4,-19.66"/>
<polygon fill="midnightblue" stroke="midnightblue" points="502.72,-47.1 497.64,-56.4 507.41,-52.3 502.72,-47.1"/>
</g>
<!-- Node9&#45;&gt;Node6 -->
<g id="edge9" class="edge">
<title>Node9&#45;&gt;Node6</title>
<path fill="none" stroke="midnightblue" d="M482,-113.11C482,-104.15 482,-94.32 482,-86.58"/>
<polygon fill="midnightblue" stroke="midnightblue" points="478.5,-113.4 482,-123.4 485.5,-113.4 478.5,-113.4"/>
</g>
<!-- Node11 -->
<g id="node11" class="node">
<title>Node11</title>
<g id="a_node11"><a xlink:href="c__bg__s__gnd__chk_8cpp.html" target="_top" xlink:title=" ">
<polygon fill="white" stroke="black" points="143,-257.5 143,-287.5 277,-287.5 277,-257.5 143,-257.5"/>
<text text-anchor="start" x="151" y="-275.5" font-family="Helvetica,sans-Serif" font-size="10.00">libs/SSystem/SComponent</text>
<text text-anchor="middle" x="210" y="-264.5" font-family="Helvetica,sans-Serif" font-size="10.00">/c_bg_s_gnd_chk.cpp</text>
</a>
</g>
</g>
<!-- Node10&#45;&gt;Node11 -->
<g id="edge11" class="edge">
<title>Node10&#45;&gt;Node11</title>
<path fill="none" stroke="midnightblue" d="M311.15,-320.13C288.75,-309.8 261.22,-297.11 240.54,-287.58"/>
<polygon fill="midnightblue" stroke="midnightblue" points="309.86,-323.39 320.41,-324.4 312.79,-317.03 309.86,-323.39"/>
</g>
<!-- Node12 -->
<g id="node12" class="node">
<title>Node12</title>
<g id="a_node12"><a xlink:href="d__bg__s__gnd__chk_8h.html" target="_top" xlink:title=" ">
<polygon fill="white" stroke="black" points="295.5,-257.5 295.5,-287.5 406.5,-287.5 406.5,-257.5 295.5,-257.5"/>
<text text-anchor="start" x="303.5" y="-275.5" font-family="Helvetica,sans-Serif" font-size="10.00">include/d/d_bg/d_bg</text>
<text text-anchor="middle" x="351" y="-264.5" font-family="Helvetica,sans-Serif" font-size="10.00">_s/d_bg_s_gnd_chk.h</text>
</a>
</g>
</g>
<!-- Node10&#45;&gt;Node12 -->
<g id="edge12" class="edge">
<title>Node10&#45;&gt;Node12</title>
<path fill="none" stroke="midnightblue" d="M351,-314.11C351,-305.15 351,-295.32 351,-287.58"/>
<polygon fill="midnightblue" stroke="midnightblue" points="347.5,-314.4 351,-324.4 354.5,-314.4 347.5,-314.4"/>
</g>
<!-- Node13 -->
<g id="node13" class="node">
<title>Node13</title>
<g id="a_node13"><a xlink:href="d__bg__s__roof__chk_8h.html" target="_top" xlink:title=" ">
<polygon fill="white" stroke="black" points="425,-257.5 425,-287.5 537,-287.5 537,-257.5 425,-257.5"/>
<text text-anchor="start" x="433" y="-275.5" font-family="Helvetica,sans-Serif" font-size="10.00">include/d/d_bg/d_bg</text>
<text text-anchor="middle" x="481" y="-264.5" font-family="Helvetica,sans-Serif" font-size="10.00">_s/d_bg_s_roof_chk.h</text>
</a>
</g>
</g>
<!-- Node10&#45;&gt;Node13 -->
<g id="edge14" class="edge">
<title>Node10&#45;&gt;Node13</title>
<path fill="none" stroke="midnightblue" d="M388.29,-319.85C408.85,-309.58 433.95,-297.03 452.85,-287.58"/>
<polygon fill="midnightblue" stroke="midnightblue" points="386.59,-316.79 379.21,-324.4 389.72,-323.05 386.59,-316.79"/>
</g>
<!-- Node12&#45;&gt;Node5 -->
<g id="edge13" class="edge">
<title>Node12&#45;&gt;Node5</title>
<path fill="none" stroke="midnightblue" d="M368.64,-249.45C376.28,-239.9 385,-229 391.74,-220.58"/>
<polygon fill="midnightblue" stroke="midnightblue" points="365.8,-247.4 362.28,-257.4 371.26,-251.77 365.8,-247.4"/>
</g>
<!-- Node13&#45;&gt;Node5 -->
<g id="edge15" class="edge">
<title>Node13&#45;&gt;Node5</title>
<path fill="none" stroke="midnightblue" d="M456.26,-250.88C444.41,-241.01 430.52,-229.43 419.89,-220.58"/>
<polygon fill="midnightblue" stroke="midnightblue" points="454.15,-253.68 464.08,-257.4 458.63,-248.31 454.15,-253.68"/>
</g>
<!-- Node15 -->
<g id="node15" class="node">
<title>Node15</title>
<g id="a_node15"><a xlink:href="c__bg__s__lin__chk_8cpp.html" target="_top" xlink:title=" ">
<polygon fill="white" stroke="black" points="555,-257.5 555,-287.5 689,-287.5 689,-257.5 555,-257.5"/>
<text text-anchor="start" x="563" y="-275.5" font-family="Helvetica,sans-Serif" font-size="10.00">libs/SSystem/SComponent</text>
<text text-anchor="middle" x="622" y="-264.5" font-family="Helvetica,sans-Serif" font-size="10.00">/c_bg_s_lin_chk.cpp</text>
</a>
</g>
</g>
<!-- Node14&#45;&gt;Node15 -->
<g id="edge17" class="edge">
<title>Node14&#45;&gt;Node15</title>
<path fill="none" stroke="midnightblue" d="M622,-314.11C622,-305.15 622,-295.32 622,-287.58"/>
<polygon fill="midnightblue" stroke="midnightblue" points="618.5,-314.4 622,-324.4 625.5,-314.4 618.5,-314.4"/>
</g>
<!-- Node16 -->
<g id="node16" class="node">
<title>Node16</title>
<g id="a_node16"><a xlink:href="d__bg__s__lin__chk_8h.html" target="_top" xlink:title=" ">
<polygon fill="white" stroke="black" points="638.5,-190.5 638.5,-220.5 743.5,-220.5 743.5,-190.5 638.5,-190.5"/>
<text text-anchor="start" x="646.5" y="-208.5" font-family="Helvetica,sans-Serif" font-size="10.00">include/d/d_bg/d_bg</text>
<text text-anchor="middle" x="691" y="-197.5" font-family="Helvetica,sans-Serif" font-size="10.00">_s/d_bg_s_lin_chk.h</text>
</a>
</g>
</g>
<!-- Node14&#45;&gt;Node16 -->
<g id="edge18" class="edge">
<title>Node14&#45;&gt;Node16</title>
<path fill="none" stroke="midnightblue" d="M665.91,-319.46C678.57,-311.65 690.88,-301.27 698,-288 709.41,-266.72 702.58,-237.76 696.7,-220.71"/>
<polygon fill="midnightblue" stroke="midnightblue" points="664.1,-316.46 657.14,-324.45 667.56,-322.54 664.1,-316.46"/>
</g>
<!-- Node16&#45;&gt;Node6 -->
<g id="edge19" class="edge">
<title>Node16&#45;&gt;Node6</title>
<path fill="none" stroke="midnightblue" d="M660.06,-184.96C617.43,-158.04 541.65,-110.17 504.21,-86.52"/>
<polygon fill="midnightblue" stroke="midnightblue" points="658.31,-187.99 668.63,-190.37 662.05,-182.07 658.31,-187.99"/>
</g>
</g>
</svg>
