<?xml version="1.0" encoding="UTF-8" standalone="no"?>
<!DOCTYPE svg PUBLIC "-//W3C//DTD SVG 1.1//EN"
 "http://www.w3.org/Graphics/SVG/1.1/DTD/svg11.dtd">
<!-- Generated by graphviz version 2.44.0 ()
 -->
<!-- Title: libs/SSystem/SComponent/c_bg_s_chk.cpp Pages: 1 -->
<svg width="438pt" height="341pt"
 viewBox="0.00 0.00 438.00 341.00" xmlns="http://www.w3.org/2000/svg" xmlns:xlink="http://www.w3.org/1999/xlink">
<g id="graph0" class="graph" transform="scale(1 1) rotate(0) translate(4 337)">
<title>libs/SSystem/SComponent/c_bg_s_chk.cpp</title>
<polygon fill="white" stroke="transparent" points="-4,4 -4,-337 434,-337 434,4 -4,4"/>
<!-- Node1 -->
<g id="node1" class="node">
<title>Node1</title>
<g id="a_node1"><a xlink:title=" ">
<polygon fill="#bfbfbf" stroke="black" points="65,-302.5 65,-332.5 199,-332.5 199,-302.5 65,-302.5"/>
<text text-anchor="start" x="73" y="-320.5" font-family="Helvetica,sans-Serif" font-size="10.00">libs/SSystem/SComponent</text>
<text text-anchor="middle" x="132" y="-309.5" font-family="Helvetica,sans-Serif" font-size="10.00">/c_bg_s_chk.cpp</text>
</a>
</g>
</g>
<!-- Node2 -->
<g id="node2" class="node">
<title>Node2</title>
<g id="a_node2"><a xlink:href="c__bg__s__chk_8h.html" target="_top" xlink:title=" ">
<polygon fill="white" stroke="black" points="64,-246.5 64,-265.5 200,-265.5 200,-246.5 64,-246.5"/>
<text text-anchor="middle" x="132" y="-253.5" font-family="Helvetica,sans-Serif" font-size="10.00">SComponent/c_bg_s_chk.h</text>
</a>
</g>
</g>
<!-- Node1&#45;&gt;Node2 -->
<g id="edge1" class="edge">
<title>Node1&#45;&gt;Node2</title>
<path fill="none" stroke="midnightblue" d="M132,-302.4C132,-294.47 132,-284.46 132,-275.86"/>
<polygon fill="midnightblue" stroke="midnightblue" points="135.5,-275.66 132,-265.66 128.5,-275.66 135.5,-275.66"/>
</g>
<!-- Node3 -->
<g id="node3" class="node">
<title>Node3</title>
<g id="a_node3"><a xlink:href="d__bg__s__grp__pass__chk_8h.html" target="_top" xlink:title=" ">
<polygon fill="white" stroke="black" points="0,-56.5 0,-86.5 104,-86.5 104,-56.5 0,-56.5"/>
<text text-anchor="start" x="8" y="-74.5" font-family="Helvetica,sans-Serif" font-size="10.00">d/d_bg/d_bg_s/d_bg</text>
<text text-anchor="middle" x="52" y="-63.5" font-family="Helvetica,sans-Serif" font-size="10.00">_s_grp_pass_chk.h</text>
</a>
</g>
</g>
<!-- Node2&#45;&gt;Node3 -->
<g id="edge2" class="edge">
<title>Node2&#45;&gt;Node3</title>
<path fill="none" stroke="midnightblue" d="M113.33,-246.36C99.28,-238.83 80.82,-226.52 71,-210 50.04,-174.73 48.55,-125.56 49.91,-96.58"/>
<polygon fill="midnightblue" stroke="midnightblue" points="53.41,-96.72 50.54,-86.53 46.42,-96.29 53.41,-96.72"/>
</g>
<!-- Node5 -->
<g id="node5" class="node">
<title>Node5</title>
<g id="a_node5"><a xlink:href="d__bg__s__poly__pass__chk_8h.html" target="_top" xlink:title=" ">
<polygon fill="white" stroke="black" points="80,-179.5 80,-209.5 184,-209.5 184,-179.5 80,-179.5"/>
<text text-anchor="start" x="88" y="-197.5" font-family="Helvetica,sans-Serif" font-size="10.00">d/d_bg/d_bg_s/d_bg</text>
<text text-anchor="middle" x="132" y="-186.5" font-family="Helvetica,sans-Serif" font-size="10.00">_s_poly_pass_chk.h</text>
</a>
</g>
</g>
<!-- Node2&#45;&gt;Node5 -->
<g id="edge4" class="edge">
<title>Node2&#45;&gt;Node5</title>
<path fill="none" stroke="midnightblue" d="M132,-246.48C132,-239.47 132,-229.19 132,-219.7"/>
<polygon fill="midnightblue" stroke="midnightblue" points="135.5,-219.52 132,-209.52 128.5,-219.52 135.5,-219.52"/>
</g>
<!-- Node6 -->
<g id="node6" class="node">
<title>Node6</title>
<g id="a_node6"><a xlink:href="global_8h.html" target="_top" xlink:title=" ">
<polygon fill="white" stroke="black" points="221,-185 221,-204 271,-204 271,-185 221,-185"/>
<text text-anchor="middle" x="246" y="-192" font-family="Helvetica,sans-Serif" font-size="10.00">global.h</text>
</a>
</g>
</g>
<!-- Node2&#45;&gt;Node6 -->
<g id="edge6" class="edge">
<title>Node2&#45;&gt;Node6</title>
<path fill="none" stroke="midnightblue" d="M148.33,-246.48C167.21,-236.62 198.51,-220.29 220.58,-208.77"/>
<polygon fill="midnightblue" stroke="midnightblue" points="222.45,-211.74 229.7,-204.01 219.21,-205.53 222.45,-211.74"/>
</g>
<!-- Node4 -->
<g id="node4" class="node">
<title>Node4</title>
<g id="a_node4"><a xlink:href="types_8h.html" target="_top" xlink:title=" ">
<polygon fill="white" stroke="black" points="182.5,-0.5 182.5,-19.5 263.5,-19.5 263.5,-0.5 182.5,-0.5"/>
<text text-anchor="middle" x="223" y="-7.5" font-family="Helvetica,sans-Serif" font-size="10.00">dolphin/types.h</text>
</a>
</g>
</g>
<!-- Node3&#45;&gt;Node4 -->
<g id="edge3" class="edge">
<title>Node3&#45;&gt;Node4</title>
<path fill="none" stroke="midnightblue" d="M92.52,-56.4C121.73,-46.24 160.72,-32.67 188.45,-23.02"/>
<polygon fill="midnightblue" stroke="midnightblue" points="189.82,-26.25 198.12,-19.66 187.52,-19.64 189.82,-26.25"/>
</g>
<!-- Node5&#45;&gt;Node4 -->
<g id="edge5" class="edge">
<title>Node5&#45;&gt;Node4</title>
<path fill="none" stroke="midnightblue" d="M135.35,-179.47C141.89,-153.71 157.96,-97.69 183,-56 189.38,-45.38 198.42,-34.95 206.3,-26.81"/>
<polygon fill="midnightblue" stroke="midnightblue" points="209.02,-29.04 213.64,-19.51 204.08,-24.08 209.02,-29.04"/>
</g>
<!-- Node6&#45;&gt;Node4 -->
<g id="edge7" class="edge">
<title>Node6&#45;&gt;Node4</title>
<path fill="none" stroke="midnightblue" d="M239.53,-185C226.81,-167.7 198.95,-126.67 189,-87 185.65,-73.64 184.62,-69.06 189,-56 192.6,-45.25 199.9,-35.02 206.82,-27.04"/>
<polygon fill="midnightblue" stroke="midnightblue" points="209.48,-29.32 213.71,-19.61 204.35,-24.56 209.48,-29.32"/>
</g>
<!-- Node7 -->
<g id="node7" class="node">
<title>Node7</title>
<g id="a_node7"><a xlink:href="AR_8h.html" target="_top" xlink:title=" ">
<polygon fill="white" stroke="black" points="198.5,-62 198.5,-81 247.5,-81 247.5,-62 198.5,-62"/>
<text text-anchor="middle" x="223" y="-69" font-family="Helvetica,sans-Serif" font-size="10.00">ar/AR.h</text>
</a>
</g>
</g>
<!-- Node6&#45;&gt;Node7 -->
<g id="edge8" class="edge">
<title>Node6&#45;&gt;Node7</title>
<path fill="none" stroke="midnightblue" d="M241.8,-184.8C237.25,-174.93 230.22,-158.21 227,-143 223.36,-125.77 222.54,-105.69 222.53,-91.37"/>
<polygon fill="midnightblue" stroke="midnightblue" points="226.03,-91.34 222.65,-81.29 219.03,-91.25 226.03,-91.34"/>
</g>
<!-- Node8 -->
<g id="node8" class="node">
<title>Node8</title>
<g id="a_node8"><a xlink:href="ARQ_8h.html" target="_top" xlink:title=" ">
<polygon fill="white" stroke="black" points="236,-123.5 236,-142.5 292,-142.5 292,-123.5 236,-123.5"/>
<text text-anchor="middle" x="264" y="-130.5" font-family="Helvetica,sans-Serif" font-size="10.00">ar/ARQ.h</text>
</a>
</g>
</g>
<!-- Node6&#45;&gt;Node8 -->
<g id="edge10" class="edge">
<title>Node6&#45;&gt;Node8</title>
<path fill="none" stroke="midnightblue" d="M248.58,-184.98C251.15,-176.49 255.17,-163.2 258.46,-152.32"/>
<polygon fill="midnightblue" stroke="midnightblue" points="261.88,-153.09 261.43,-142.51 255.18,-151.07 261.88,-153.09"/>
</g>
<!-- Node9 -->
<g id="node9" class="node">
<title>Node9</title>
<g id="a_node9"><a xlink:href="mwcc_8h.html" target="_top" xlink:title=" ">
<polygon fill="white" stroke="black" points="310,-123.5 310,-142.5 360,-142.5 360,-123.5 310,-123.5"/>
<text text-anchor="middle" x="335" y="-130.5" font-family="Helvetica,sans-Serif" font-size="10.00">mwcc.h</text>
</a>
</g>
</g>
<!-- Node6&#45;&gt;Node9 -->
<g id="edge12" class="edge">
<title>Node6&#45;&gt;Node9</title>
<path fill="none" stroke="midnightblue" d="M258.75,-184.98C273.03,-175.43 296.4,-159.81 313.51,-148.37"/>
<polygon fill="midnightblue" stroke="midnightblue" points="315.9,-150.98 322.27,-142.51 312.01,-145.16 315.9,-150.98"/>
</g>
<!-- Node10 -->
<g id="node10" class="node">
<title>Node10</title>
<g id="a_node10"><a xlink:href="OS_8h.html" target="_top" xlink:title=" ">
<polygon fill="white" stroke="black" points="378,-123.5 378,-142.5 430,-142.5 430,-123.5 378,-123.5"/>
<text text-anchor="middle" x="404" y="-130.5" font-family="Helvetica,sans-Serif" font-size="10.00">os/OS.h</text>
</a>
</g>
</g>
<!-- Node6&#45;&gt;Node10 -->
<g id="edge13" class="edge">
<title>Node6&#45;&gt;Node10</title>
<path fill="none" stroke="midnightblue" d="M268.64,-184.98C295.74,-174.77 341.31,-157.61 372,-146.05"/>
<polygon fill="midnightblue" stroke="midnightblue" points="373.28,-149.31 381.4,-142.51 370.81,-142.76 373.28,-149.31"/>
</g>
<!-- Node7&#45;&gt;Node4 -->
<g id="edge9" class="edge">
<title>Node7&#45;&gt;Node4</title>
<path fill="none" stroke="midnightblue" d="M223,-61.98C223,-53.58 223,-40.48 223,-29.66"/>
<polygon fill="midnightblue" stroke="midnightblue" points="226.5,-29.51 223,-19.51 219.5,-29.51 226.5,-29.51"/>
</g>
<!-- Node8&#45;&gt;Node4 -->
<g id="edge11" class="edge">
<title>Node8&#45;&gt;Node4</title>
<path fill="none" stroke="midnightblue" d="M264.53,-123.22C265.09,-108.71 264.9,-79.02 256,-56 252,-45.65 244.97,-35.55 238.42,-27.55"/>
<polygon fill="midnightblue" stroke="midnightblue" points="240.88,-25.04 231.68,-19.78 235.59,-29.63 240.88,-25.04"/>
</g>
<!-- Node10&#45;&gt;Node4 -->
<g id="edge14" class="edge">
<title>Node10&#45;&gt;Node4</title>
<path fill="none" stroke="midnightblue" d="M391.27,-123.49C360.71,-103.06 282.89,-51.04 244.75,-25.54"/>
<polygon fill="midnightblue" stroke="midnightblue" points="246.21,-22.31 235.96,-19.66 242.32,-28.13 246.21,-22.31"/>
</g>
<!-- Node11 -->
<g id="node11" class="node">
<title>Node11</title>
<g id="a_node11"><a xlink:href="dvd_8h.html" target="_top" xlink:title=" ">
<polygon fill="white" stroke="black" points="366.5,-62 366.5,-81 425.5,-81 425.5,-62 366.5,-62"/>
<text text-anchor="middle" x="396" y="-69" font-family="Helvetica,sans-Serif" font-size="10.00">dvd/dvd.h</text>
</a>
</g>
</g>
<!-- Node10&#45;&gt;Node11 -->
<g id="edge15" class="edge">
<title>Node10&#45;&gt;Node11</title>
<path fill="none" stroke="midnightblue" d="M402.85,-123.48C401.73,-115.08 399.96,-101.98 398.51,-91.16"/>
<polygon fill="midnightblue" stroke="midnightblue" points="401.95,-90.45 397.14,-81.01 395.01,-91.39 401.95,-90.45"/>
</g>
<!-- Node11&#45;&gt;Node4 -->
<g id="edge16" class="edge">
<title>Node11&#45;&gt;Node4</title>
<path fill="none" stroke="midnightblue" d="M371.21,-61.98C341.41,-51.72 291.21,-34.46 257.6,-22.9"/>
<polygon fill="midnightblue" stroke="midnightblue" points="258.34,-19.45 247.74,-19.51 256.06,-26.07 258.34,-19.45"/>
</g>
</g>
</svg>
