<?xml version="1.0" encoding="UTF-8" standalone="no"?>
<!DOCTYPE svg PUBLIC "-//W3C//DTD SVG 1.1//EN"
 "http://www.w3.org/Graphics/SVG/1.1/DTD/svg11.dtd">
<!-- Generated by graphviz version 2.44.0 ()
 -->
<!-- Title: include/SComponent/c_bg_s_lin_chk.h Pages: 1 -->
<svg width="339pt" height="229pt"
 viewBox="0.00 0.00 338.50 229.00" xmlns="http://www.w3.org/2000/svg" xmlns:xlink="http://www.w3.org/1999/xlink">
<g id="graph0" class="graph" transform="scale(1 1) rotate(0) translate(4 225)">
<title>include/SComponent/c_bg_s_lin_chk.h</title>
<polygon fill="white" stroke="transparent" points="-4,4 -4,-225 334.5,-225 334.5,4 -4,4"/>
<!-- Node1 -->
<g id="node1" class="node">
<title>Node1</title>
<g id="a_node1"><a xlink:title=" ">
<polygon fill="#bfbfbf" stroke="black" points="82.5,-190.5 82.5,-220.5 189.5,-220.5 189.5,-190.5 82.5,-190.5"/>
<text text-anchor="start" x="90.5" y="-208.5" font-family="Helvetica,sans-Serif" font-size="10.00">include/SComponent</text>
<text text-anchor="middle" x="136" y="-197.5" font-family="Helvetica,sans-Serif" font-size="10.00">/c_bg_s_lin_chk.h</text>
</a>
</g>
</g>
<!-- Node2 -->
<g id="node2" class="node">
<title>Node2</title>
<g id="a_node2"><a xlink:href="c__bg__s__lin__chk_8cpp.html" target="_top" xlink:title=" ">
<polygon fill="white" stroke="black" points="0,-123.5 0,-153.5 134,-153.5 134,-123.5 0,-123.5"/>
<text text-anchor="start" x="8" y="-141.5" font-family="Helvetica,sans-Serif" font-size="10.00">libs/SSystem/SComponent</text>
<text text-anchor="middle" x="67" y="-130.5" font-family="Helvetica,sans-Serif" font-size="10.00">/c_bg_s_lin_chk.cpp</text>
</a>
</g>
</g>
<!-- Node1&#45;&gt;Node2 -->
<g id="edge1" class="edge">
<title>Node1&#45;&gt;Node2</title>
<path fill="none" stroke="midnightblue" d="M113.51,-183.31C103.16,-173.56 91.16,-162.26 81.94,-153.58"/>
<polygon fill="midnightblue" stroke="midnightblue" points="111.35,-186.09 121.03,-190.4 116.15,-180.99 111.35,-186.09"/>
</g>
<!-- Node3 -->
<g id="node3" class="node">
<title>Node3</title>
<g id="a_node3"><a xlink:href="d__bg__s__lin__chk_8h.html" target="_top" xlink:title=" ">
<polygon fill="white" stroke="black" points="152.5,-123.5 152.5,-153.5 257.5,-153.5 257.5,-123.5 152.5,-123.5"/>
<text text-anchor="start" x="160.5" y="-141.5" font-family="Helvetica,sans-Serif" font-size="10.00">include/d/d_bg/d_bg</text>
<text text-anchor="middle" x="205" y="-130.5" font-family="Helvetica,sans-Serif" font-size="10.00">_s/d_bg_s_lin_chk.h</text>
</a>
</g>
</g>
<!-- Node1&#45;&gt;Node3 -->
<g id="edge2" class="edge">
<title>Node1&#45;&gt;Node3</title>
<path fill="none" stroke="midnightblue" d="M158.49,-183.31C168.84,-173.56 180.84,-162.26 190.06,-153.58"/>
<polygon fill="midnightblue" stroke="midnightblue" points="155.85,-180.99 150.97,-190.4 160.65,-186.09 155.85,-180.99"/>
</g>
<!-- Node4 -->
<g id="node4" class="node">
<title>Node4</title>
<g id="a_node4"><a xlink:href="d__a__alink_8h.html" target="_top" xlink:title=" ">
<polygon fill="white" stroke="black" points="145.5,-56.5 145.5,-86.5 264.5,-86.5 264.5,-56.5 145.5,-56.5"/>
<text text-anchor="start" x="153.5" y="-74.5" font-family="Helvetica,sans-Serif" font-size="10.00">include/d/d_a/d_a_alink</text>
<text text-anchor="middle" x="205" y="-63.5" font-family="Helvetica,sans-Serif" font-size="10.00">/d_a_alink.h</text>
</a>
</g>
</g>
<!-- Node3&#45;&gt;Node4 -->
<g id="edge3" class="edge">
<title>Node3&#45;&gt;Node4</title>
<path fill="none" stroke="midnightblue" d="M205,-113.11C205,-104.15 205,-94.32 205,-86.58"/>
<polygon fill="midnightblue" stroke="midnightblue" points="201.5,-113.4 205,-123.4 208.5,-113.4 201.5,-113.4"/>
</g>
<!-- Node5 -->
<g id="node5" class="node">
<title>Node5</title>
<g id="a_node5"><a xlink:href="d__attention_8cpp.html" target="_top" xlink:title=" ">
<polygon fill="white" stroke="black" points="86.5,-0.5 86.5,-19.5 193.5,-19.5 193.5,-0.5 86.5,-0.5"/>
<text text-anchor="middle" x="140" y="-7.5" font-family="Helvetica,sans-Serif" font-size="10.00">src/d/d_attention.cpp</text>
</a>
</g>
</g>
<!-- Node4&#45;&gt;Node5 -->
<g id="edge4" class="edge">
<title>Node4&#45;&gt;Node5</title>
<path fill="none" stroke="midnightblue" d="M182.17,-49.6C170.93,-39.32 158.01,-27.48 149.46,-19.66"/>
<polygon fill="midnightblue" stroke="midnightblue" points="179.86,-52.23 189.6,-56.4 184.58,-47.07 179.86,-52.23"/>
</g>
<!-- Node6 -->
<g id="node6" class="node">
<title>Node6</title>
<g id="a_node6"><a xlink:href="d__a__alink_8cpp.html" target="_top" xlink:title=" ">
<polygon fill="white" stroke="black" points="211.5,-0.5 211.5,-19.5 330.5,-19.5 330.5,-0.5 211.5,-0.5"/>
<text text-anchor="middle" x="271" y="-7.5" font-family="Helvetica,sans-Serif" font-size="10.00">src/d/d_a/d_a_alink.cpp</text>
</a>
</g>
</g>
<!-- Node4&#45;&gt;Node6 -->
<g id="edge5" class="edge">
<title>Node4&#45;&gt;Node6</title>
<path fill="none" stroke="midnightblue" d="M228.19,-49.6C239.59,-39.32 252.72,-27.48 261.4,-19.66"/>
<polygon fill="midnightblue" stroke="midnightblue" points="225.72,-47.1 220.64,-56.4 230.41,-52.3 225.72,-47.1"/>
</g>
</g>
</svg>
