<?xml version="1.0" encoding="UTF-8" standalone="no"?>
<!DOCTYPE svg PUBLIC "-//W3C//DTD SVG 1.1//EN"
 "http://www.w3.org/Graphics/SVG/1.1/DTD/svg11.dtd">
<!-- Generated by graphviz version 2.44.0 ()
 -->
<!-- Title: libs/SSystem/SComponent/c_cc_s.cpp Pages: 1 -->
<svg width="4114pt" height="274pt"
 viewBox="0.00 0.00 4113.62 274.00" xmlns="http://www.w3.org/2000/svg" xmlns:xlink="http://www.w3.org/1999/xlink">
<g id="graph0" class="graph" transform="scale(1 1) rotate(0) translate(4 270)">
<title>libs/SSystem/SComponent/c_cc_s.cpp</title>
<polygon fill="white" stroke="transparent" points="-4,4 -4,-270 4109.62,-270 4109.62,4 -4,4"/>
<!-- Node1 -->
<g id="node1" class="node">
<title>Node1</title>
<g id="a_node1"><a xlink:title=" ">
<polygon fill="#bfbfbf" stroke="black" points="1989.12,-235.5 1989.12,-265.5 2123.12,-265.5 2123.12,-235.5 1989.12,-235.5"/>
<text text-anchor="start" x="1997.12" y="-253.5" font-family="Helvetica,sans-Serif" font-size="10.00">libs/SSystem/SComponent</text>
<text text-anchor="middle" x="2056.12" y="-242.5" font-family="Helvetica,sans-Serif" font-size="10.00">/c_cc_s.cpp</text>
</a>
</g>
</g>
<!-- Node2 -->
<g id="node2" class="node">
<title>Node2</title>
<g id="a_node2"><a xlink:href="global_8h.html" target="_top" xlink:title=" ">
<polygon fill="white" stroke="black" points="90.12,-174 90.12,-193 140.12,-193 140.12,-174 90.12,-174"/>
<text text-anchor="middle" x="115.12" y="-181" font-family="Helvetica,sans-Serif" font-size="10.00">global.h</text>
</a>
</g>
</g>
<!-- Node1&#45;&gt;Node2 -->
<g id="edge1" class="edge">
<title>Node1&#45;&gt;Node2</title>
<path fill="none" stroke="midnightblue" d="M1988.73,-249.36C1751.5,-248.49 933.04,-242.34 259.12,-199 221.94,-196.61 179.51,-192.12 150.4,-188.77"/>
<polygon fill="midnightblue" stroke="midnightblue" points="150.65,-185.28 140.31,-187.59 149.83,-192.23 150.65,-185.28"/>
</g>
<!-- Node9 -->
<g id="node9" class="node">
<title>Node9</title>
<g id="a_node9"><a xlink:href="mtx__vec_8h.html" target="_top" xlink:title=" ">
<polygon fill="white" stroke="black" points="241.62,-56.5 241.62,-75.5 302.62,-75.5 302.62,-56.5 241.62,-56.5"/>
<text text-anchor="middle" x="272.12" y="-63.5" font-family="Helvetica,sans-Serif" font-size="10.00">mtx_vec.h</text>
</a>
</g>
</g>
<!-- Node1&#45;&gt;Node9 -->
<g id="edge12" class="edge">
<title>Node1&#45;&gt;Node9</title>
<path fill="none" stroke="midnightblue" d="M1988.88,-248.75C1670.03,-245.02 324.47,-227.63 292.12,-199 260.25,-170.79 263.81,-115.14 268.37,-85.92"/>
<polygon fill="midnightblue" stroke="midnightblue" points="271.86,-86.27 270.16,-75.81 264.97,-85.05 271.86,-86.27"/>
</g>
<!-- Node10 -->
<g id="node10" class="node">
<title>Node10</title>
<g id="a_node10"><a xlink:title=" ">
<polygon fill="white" stroke="#bfbfbf" points="301.62,-168.5 301.62,-198.5 430.62,-198.5 430.62,-168.5 301.62,-168.5"/>
<text text-anchor="start" x="309.62" y="-186.5" font-family="Helvetica,sans-Serif" font-size="10.00">SComponent/c_cc_s/asm</text>
<text text-anchor="middle" x="366.12" y="-175.5" font-family="Helvetica,sans-Serif" font-size="10.00">/func_80264A6C.s</text>
</a>
</g>
</g>
<!-- Node1&#45;&gt;Node10 -->
<g id="edge14" class="edge">
<title>Node1&#45;&gt;Node10</title>
<path fill="none" stroke="midnightblue" d="M1988.76,-248.88C1725.82,-246.22 767.5,-234.36 441.31,-199.1"/>
<polygon fill="midnightblue" stroke="midnightblue" points="441.24,-195.57 430.91,-197.95 440.46,-202.53 441.24,-195.57"/>
</g>
<!-- Node11 -->
<g id="node11" class="node">
<title>Node11</title>
<g id="a_node11"><a xlink:title=" ">
<polygon fill="white" stroke="#bfbfbf" points="448.62,-168.5 448.62,-198.5 577.62,-198.5 577.62,-168.5 448.62,-168.5"/>
<text text-anchor="start" x="456.62" y="-186.5" font-family="Helvetica,sans-Serif" font-size="10.00">SComponent/c_cc_s/asm</text>
<text text-anchor="middle" x="513.12" y="-175.5" font-family="Helvetica,sans-Serif" font-size="10.00">/func_80264A94.s</text>
</a>
</g>
</g>
<!-- Node1&#45;&gt;Node11 -->
<g id="edge15" class="edge">
<title>Node1&#45;&gt;Node11</title>
<path fill="none" stroke="midnightblue" d="M1989.05,-248.61C1742.34,-245.13 884.69,-231.05 588.31,-198.97"/>
<polygon fill="midnightblue" stroke="midnightblue" points="588.33,-195.45 578,-197.82 587.55,-202.41 588.33,-195.45"/>
</g>
<!-- Node12 -->
<g id="node12" class="node">
<title>Node12</title>
<g id="a_node12"><a xlink:title=" ">
<polygon fill="white" stroke="#bfbfbf" points="595.62,-168.5 595.62,-198.5 724.62,-198.5 724.62,-168.5 595.62,-168.5"/>
<text text-anchor="start" x="603.62" y="-186.5" font-family="Helvetica,sans-Serif" font-size="10.00">SComponent/c_cc_s/asm</text>
<text text-anchor="middle" x="660.12" y="-175.5" font-family="Helvetica,sans-Serif" font-size="10.00">/func_80264B60.s</text>
</a>
</g>
</g>
<!-- Node1&#45;&gt;Node12 -->
<g id="edge16" class="edge">
<title>Node1&#45;&gt;Node12</title>
<path fill="none" stroke="midnightblue" d="M1989.05,-248.32C1758.81,-244.04 1000.67,-228.15 735.01,-198.94"/>
<polygon fill="midnightblue" stroke="midnightblue" points="735.33,-195.45 725,-197.81 734.55,-202.41 735.33,-195.45"/>
</g>
<!-- Node13 -->
<g id="node13" class="node">
<title>Node13</title>
<g id="a_node13"><a xlink:title=" ">
<polygon fill="white" stroke="#bfbfbf" points="742.62,-168.5 742.62,-198.5 871.62,-198.5 871.62,-168.5 742.62,-168.5"/>
<text text-anchor="start" x="750.62" y="-186.5" font-family="Helvetica,sans-Serif" font-size="10.00">SComponent/c_cc_s/asm</text>
<text text-anchor="middle" x="807.12" y="-175.5" font-family="Helvetica,sans-Serif" font-size="10.00">/func_80264B80.s</text>
</a>
</g>
</g>
<!-- Node1&#45;&gt;Node13 -->
<g id="edge17" class="edge">
<title>Node1&#45;&gt;Node13</title>
<path fill="none" stroke="midnightblue" d="M1988.93,-250.14C1810.21,-251.09 1308.24,-248.83 882.06,-198.97"/>
<polygon fill="midnightblue" stroke="midnightblue" points="882.35,-195.48 872.01,-197.79 881.53,-202.44 882.35,-195.48"/>
</g>
<!-- Node14 -->
<g id="node14" class="node">
<title>Node14</title>
<g id="a_node14"><a xlink:title=" ">
<polygon fill="white" stroke="#bfbfbf" points="889.62,-168.5 889.62,-198.5 1018.62,-198.5 1018.62,-168.5 889.62,-168.5"/>
<text text-anchor="start" x="897.62" y="-186.5" font-family="Helvetica,sans-Serif" font-size="10.00">SComponent/c_cc_s/asm</text>
<text text-anchor="middle" x="954.12" y="-175.5" font-family="Helvetica,sans-Serif" font-size="10.00">/func_80264BA8.s</text>
</a>
</g>
</g>
<!-- Node1&#45;&gt;Node14 -->
<g id="edge18" class="edge">
<title>Node1&#45;&gt;Node14</title>
<path fill="none" stroke="midnightblue" d="M1989.09,-249.55C1826.18,-248.95 1396.49,-243.05 1029.04,-198.98"/>
<polygon fill="midnightblue" stroke="midnightblue" points="1029.36,-195.49 1019.01,-197.76 1028.52,-202.44 1029.36,-195.49"/>
</g>
<!-- Node15 -->
<g id="node15" class="node">
<title>Node15</title>
<g id="a_node15"><a xlink:title=" ">
<polygon fill="white" stroke="#bfbfbf" points="1036.62,-168.5 1036.62,-198.5 1165.62,-198.5 1165.62,-168.5 1036.62,-168.5"/>
<text text-anchor="start" x="1044.62" y="-186.5" font-family="Helvetica,sans-Serif" font-size="10.00">SComponent/c_cc_s/asm</text>
<text text-anchor="middle" x="1101.12" y="-175.5" font-family="Helvetica,sans-Serif" font-size="10.00">/func_80264C5C.s</text>
</a>
</g>
</g>
<!-- Node1&#45;&gt;Node15 -->
<g id="edge19" class="edge">
<title>Node1&#45;&gt;Node15</title>
<path fill="none" stroke="midnightblue" d="M1988.97,-248.77C1842.85,-246.49 1485.02,-237.28 1176.06,-198.99"/>
<polygon fill="midnightblue" stroke="midnightblue" points="1176.37,-195.5 1166.01,-197.73 1175.5,-202.45 1176.37,-195.5"/>
</g>
<!-- Node16 -->
<g id="node16" class="node">
<title>Node16</title>
<g id="a_node16"><a xlink:title=" ">
<polygon fill="white" stroke="#bfbfbf" points="1183.62,-168.5 1183.62,-198.5 1312.62,-198.5 1312.62,-168.5 1183.62,-168.5"/>
<text text-anchor="start" x="1191.62" y="-186.5" font-family="Helvetica,sans-Serif" font-size="10.00">SComponent/c_cc_s/asm</text>
<text text-anchor="middle" x="1248.12" y="-175.5" font-family="Helvetica,sans-Serif" font-size="10.00">/func_80264CF0.s</text>
</a>
</g>
</g>
<!-- Node1&#45;&gt;Node16 -->
<g id="edge20" class="edge">
<title>Node1&#45;&gt;Node16</title>
<path fill="none" stroke="midnightblue" d="M1989.05,-247.68C1861.31,-243.62 1574.23,-231.55 1323.06,-199.01"/>
<polygon fill="midnightblue" stroke="midnightblue" points="1323.39,-195.52 1313.02,-197.69 1322.48,-202.46 1323.39,-195.52"/>
</g>
<!-- Node17 -->
<g id="node17" class="node">
<title>Node17</title>
<g id="a_node17"><a xlink:title=" ">
<polygon fill="white" stroke="#bfbfbf" points="1330.62,-168.5 1330.62,-198.5 1459.62,-198.5 1459.62,-168.5 1330.62,-168.5"/>
<text text-anchor="start" x="1338.62" y="-186.5" font-family="Helvetica,sans-Serif" font-size="10.00">SComponent/c_cc_s/asm</text>
<text text-anchor="middle" x="1395.12" y="-175.5" font-family="Helvetica,sans-Serif" font-size="10.00">/func_80264D90.s</text>
</a>
</g>
</g>
<!-- Node1&#45;&gt;Node17 -->
<g id="edge21" class="edge">
<title>Node1&#45;&gt;Node17</title>
<path fill="none" stroke="midnightblue" d="M1988.95,-246.08C1881.48,-240.09 1664.1,-225.84 1469.74,-198.98"/>
<polygon fill="midnightblue" stroke="midnightblue" points="1470.01,-195.48 1459.63,-197.56 1469.05,-202.41 1470.01,-195.48"/>
</g>
<!-- Node18 -->
<g id="node18" class="node">
<title>Node18</title>
<g id="a_node18"><a xlink:title=" ">
<polygon fill="white" stroke="#bfbfbf" points="1477.62,-168.5 1477.62,-198.5 1606.62,-198.5 1606.62,-168.5 1477.62,-168.5"/>
<text text-anchor="start" x="1485.62" y="-186.5" font-family="Helvetica,sans-Serif" font-size="10.00">SComponent/c_cc_s/asm</text>
<text text-anchor="middle" x="1542.12" y="-175.5" font-family="Helvetica,sans-Serif" font-size="10.00">/func_80264E2C.s</text>
</a>
</g>
</g>
<!-- Node1&#45;&gt;Node18 -->
<g id="edge22" class="edge">
<title>Node1&#45;&gt;Node18</title>
<path fill="none" stroke="midnightblue" d="M1988.81,-243.45C1904.32,-235.47 1754.78,-220.13 1616.57,-198.99"/>
<polygon fill="midnightblue" stroke="midnightblue" points="1617.06,-195.52 1606.64,-197.45 1615.99,-202.44 1617.06,-195.52"/>
</g>
<!-- Node19 -->
<g id="node19" class="node">
<title>Node19</title>
<g id="a_node19"><a xlink:title=" ">
<polygon fill="white" stroke="#bfbfbf" points="1624.62,-168.5 1624.62,-198.5 1753.62,-198.5 1753.62,-168.5 1624.62,-168.5"/>
<text text-anchor="start" x="1632.62" y="-186.5" font-family="Helvetica,sans-Serif" font-size="10.00">SComponent/c_cc_s/asm</text>
<text text-anchor="middle" x="1689.12" y="-175.5" font-family="Helvetica,sans-Serif" font-size="10.00">/func_80264F40.s</text>
</a>
</g>
</g>
<!-- Node1&#45;&gt;Node19 -->
<g id="edge23" class="edge">
<title>Node1&#45;&gt;Node19</title>
<path fill="none" stroke="midnightblue" d="M1988.84,-238.35C1931.67,-228.78 1847.15,-214.38 1763.6,-199.06"/>
<polygon fill="midnightblue" stroke="midnightblue" points="1764.15,-195.61 1753.68,-197.24 1762.88,-202.49 1764.15,-195.61"/>
</g>
<!-- Node20 -->
<g id="node20" class="node">
<title>Node20</title>
<g id="a_node20"><a xlink:title=" ">
<polygon fill="white" stroke="#bfbfbf" points="1771.62,-168.5 1771.62,-198.5 1900.62,-198.5 1900.62,-168.5 1771.62,-168.5"/>
<text text-anchor="start" x="1779.62" y="-186.5" font-family="Helvetica,sans-Serif" font-size="10.00">SComponent/c_cc_s/asm</text>
<text text-anchor="middle" x="1836.12" y="-175.5" font-family="Helvetica,sans-Serif" font-size="10.00">/func_8026515C.s</text>
</a>
</g>
</g>
<!-- Node1&#45;&gt;Node20 -->
<g id="edge24" class="edge">
<title>Node1&#45;&gt;Node20</title>
<path fill="none" stroke="midnightblue" d="M2008.65,-235.48C1974.94,-225.51 1929.49,-212.09 1893.7,-201.51"/>
<polygon fill="midnightblue" stroke="midnightblue" points="1894.46,-198.09 1883.88,-198.61 1892.48,-204.8 1894.46,-198.09"/>
</g>
<!-- Node21 -->
<g id="node21" class="node">
<title>Node21</title>
<g id="a_node21"><a xlink:title=" ">
<polygon fill="white" stroke="#bfbfbf" points="1918.62,-168.5 1918.62,-198.5 2047.62,-198.5 2047.62,-168.5 1918.62,-168.5"/>
<text text-anchor="start" x="1926.62" y="-186.5" font-family="Helvetica,sans-Serif" font-size="10.00">SComponent/c_cc_s/asm</text>
<text text-anchor="middle" x="1983.12" y="-175.5" font-family="Helvetica,sans-Serif" font-size="10.00">/func_80265230.s</text>
</a>
</g>
</g>
<!-- Node1&#45;&gt;Node21 -->
<g id="edge25" class="edge">
<title>Node1&#45;&gt;Node21</title>
<path fill="none" stroke="midnightblue" d="M2040.28,-235.4C2030.43,-226.62 2017.58,-215.18 2006.56,-205.37"/>
<polygon fill="midnightblue" stroke="midnightblue" points="2008.73,-202.61 1998.93,-198.58 2004.07,-207.84 2008.73,-202.61"/>
</g>
<!-- Node22 -->
<g id="node22" class="node">
<title>Node22</title>
<g id="a_node22"><a xlink:title=" ">
<polygon fill="white" stroke="#bfbfbf" points="2065.62,-168.5 2065.62,-198.5 2194.62,-198.5 2194.62,-168.5 2065.62,-168.5"/>
<text text-anchor="start" x="2073.62" y="-186.5" font-family="Helvetica,sans-Serif" font-size="10.00">SComponent/c_cc_s/asm</text>
<text text-anchor="middle" x="2130.12" y="-175.5" font-family="Helvetica,sans-Serif" font-size="10.00">/func_802653A0.s</text>
</a>
</g>
</g>
<!-- Node1&#45;&gt;Node22 -->
<g id="edge26" class="edge">
<title>Node1&#45;&gt;Node22</title>
<path fill="none" stroke="midnightblue" d="M2072.18,-235.4C2082.17,-226.62 2095.19,-215.18 2106.36,-205.37"/>
<polygon fill="midnightblue" stroke="midnightblue" points="2108.89,-207.81 2114.1,-198.58 2104.27,-202.55 2108.89,-207.81"/>
</g>
<!-- Node23 -->
<g id="node23" class="node">
<title>Node23</title>
<g id="a_node23"><a xlink:title=" ">
<polygon fill="white" stroke="#bfbfbf" points="2212.62,-168.5 2212.62,-198.5 2341.62,-198.5 2341.62,-168.5 2212.62,-168.5"/>
<text text-anchor="start" x="2220.62" y="-186.5" font-family="Helvetica,sans-Serif" font-size="10.00">SComponent/c_cc_s/asm</text>
<text text-anchor="middle" x="2277.12" y="-175.5" font-family="Helvetica,sans-Serif" font-size="10.00">/func_802653C8.s</text>
</a>
</g>
</g>
<!-- Node1&#45;&gt;Node23 -->
<g id="edge27" class="edge">
<title>Node1&#45;&gt;Node23</title>
<path fill="none" stroke="midnightblue" d="M2103.8,-235.48C2137.67,-225.51 2183.33,-212.09 2219.28,-201.51"/>
<polygon fill="midnightblue" stroke="midnightblue" points="2220.54,-204.79 2229.14,-198.61 2218.56,-198.07 2220.54,-204.79"/>
</g>
<!-- Node24 -->
<g id="node24" class="node">
<title>Node24</title>
<g id="a_node24"><a xlink:title=" ">
<polygon fill="white" stroke="#bfbfbf" points="2359.62,-168.5 2359.62,-198.5 2488.62,-198.5 2488.62,-168.5 2359.62,-168.5"/>
<text text-anchor="start" x="2367.62" y="-186.5" font-family="Helvetica,sans-Serif" font-size="10.00">SComponent/c_cc_s/asm</text>
<text text-anchor="middle" x="2424.12" y="-175.5" font-family="Helvetica,sans-Serif" font-size="10.00">/func_802655E4.s</text>
</a>
</g>
</g>
<!-- Node1&#45;&gt;Node24 -->
<g id="edge28" class="edge">
<title>Node1&#45;&gt;Node24</title>
<path fill="none" stroke="midnightblue" d="M2123.29,-238.52C2180.86,-229 2266.27,-214.58 2349.4,-199.3"/>
<polygon fill="midnightblue" stroke="midnightblue" points="2350.06,-202.73 2359.26,-197.48 2348.79,-195.85 2350.06,-202.73"/>
</g>
<!-- Node25 -->
<g id="node25" class="node">
<title>Node25</title>
<g id="a_node25"><a xlink:title=" ">
<polygon fill="white" stroke="#bfbfbf" points="2506.62,-168.5 2506.62,-198.5 2635.62,-198.5 2635.62,-168.5 2506.62,-168.5"/>
<text text-anchor="start" x="2514.62" y="-186.5" font-family="Helvetica,sans-Serif" font-size="10.00">SComponent/c_cc_s/asm</text>
<text text-anchor="middle" x="2571.12" y="-175.5" font-family="Helvetica,sans-Serif" font-size="10.00">/func_80265750.s</text>
</a>
</g>
</g>
<!-- Node1&#45;&gt;Node25 -->
<g id="edge29" class="edge">
<title>Node1&#45;&gt;Node25</title>
<path fill="none" stroke="midnightblue" d="M2123.37,-243.55C2208.18,-235.67 2358.65,-220.38 2496.4,-199.2"/>
<polygon fill="midnightblue" stroke="midnightblue" points="2496.95,-202.66 2506.29,-197.66 2495.87,-195.74 2496.95,-202.66"/>
</g>
<!-- Node26 -->
<g id="node26" class="node">
<title>Node26</title>
<g id="a_node26"><a xlink:title=" ">
<polygon fill="white" stroke="#bfbfbf" points="2653.62,-168.5 2653.62,-198.5 2782.62,-198.5 2782.62,-168.5 2653.62,-168.5"/>
<text text-anchor="start" x="2661.62" y="-186.5" font-family="Helvetica,sans-Serif" font-size="10.00">SComponent/c_cc_s/asm</text>
<text text-anchor="middle" x="2718.12" y="-175.5" font-family="Helvetica,sans-Serif" font-size="10.00">/func_80265BB4.s</text>
</a>
</g>
</g>
<!-- Node1&#45;&gt;Node26 -->
<g id="edge30" class="edge">
<title>Node1&#45;&gt;Node26</title>
<path fill="none" stroke="midnightblue" d="M2123.53,-246.15C2231.38,-240.26 2449.51,-226.14 2643.22,-199.18"/>
<polygon fill="midnightblue" stroke="midnightblue" points="2643.89,-202.62 2653.31,-197.76 2642.92,-195.69 2643.89,-202.62"/>
</g>
<!-- Node27 -->
<g id="node27" class="node">
<title>Node27</title>
<g id="a_node27"><a xlink:title=" ">
<polygon fill="white" stroke="#bfbfbf" points="2800.62,-168.5 2800.62,-198.5 2929.62,-198.5 2929.62,-168.5 2800.62,-168.5"/>
<text text-anchor="start" x="2808.62" y="-186.5" font-family="Helvetica,sans-Serif" font-size="10.00">SComponent/c_cc_s/asm</text>
<text text-anchor="middle" x="2865.12" y="-175.5" font-family="Helvetica,sans-Serif" font-size="10.00">/func_80265CCC.s</text>
</a>
</g>
</g>
<!-- Node1&#45;&gt;Node27 -->
<g id="edge31" class="edge">
<title>Node1&#45;&gt;Node27</title>
<path fill="none" stroke="midnightblue" d="M2123.13,-247.76C2251.11,-243.82 2539.2,-231.95 2790.27,-199.14"/>
<polygon fill="midnightblue" stroke="midnightblue" points="2790.86,-202.6 2800.31,-197.82 2789.94,-195.66 2790.86,-202.6"/>
</g>
<!-- Node28 -->
<g id="node28" class="node">
<title>Node28</title>
<g id="a_node28"><a xlink:title=" ">
<polygon fill="white" stroke="#bfbfbf" points="2947.62,-168.5 2947.62,-198.5 3076.62,-198.5 3076.62,-168.5 2947.62,-168.5"/>
<text text-anchor="start" x="2955.62" y="-186.5" font-family="Helvetica,sans-Serif" font-size="10.00">SComponent/c_cc_s/asm</text>
<text text-anchor="middle" x="3012.12" y="-175.5" font-family="Helvetica,sans-Serif" font-size="10.00">/func_80265D30.s</text>
</a>
</g>
</g>
<!-- Node1&#45;&gt;Node28 -->
<g id="edge32" class="edge">
<title>Node1&#45;&gt;Node28</title>
<path fill="none" stroke="midnightblue" d="M2123.15,-248.84C2269.44,-246.71 2628.37,-237.75 2937.27,-199.13"/>
<polygon fill="midnightblue" stroke="midnightblue" points="2937.84,-202.58 2947.32,-197.86 2936.96,-195.64 2937.84,-202.58"/>
</g>
<!-- Node29 -->
<g id="node29" class="node">
<title>Node29</title>
<g id="a_node29"><a xlink:title=" ">
<polygon fill="white" stroke="#bfbfbf" points="3094.62,-168.5 3094.62,-198.5 3223.62,-198.5 3223.62,-168.5 3094.62,-168.5"/>
<text text-anchor="start" x="3102.62" y="-186.5" font-family="Helvetica,sans-Serif" font-size="10.00">SComponent/c_cc_s/asm</text>
<text text-anchor="middle" x="3159.12" y="-175.5" font-family="Helvetica,sans-Serif" font-size="10.00">/func_80265DF4.s</text>
</a>
</g>
</g>
<!-- Node1&#45;&gt;Node29 -->
<g id="edge33" class="edge">
<title>Node1&#45;&gt;Node29</title>
<path fill="none" stroke="midnightblue" d="M2123.29,-249.62C2286.54,-249.17 2717.09,-243.58 3084.3,-199.11"/>
<polygon fill="midnightblue" stroke="midnightblue" points="3084.82,-202.57 3094.32,-197.88 3083.97,-195.62 3084.82,-202.57"/>
</g>
<!-- Node30 -->
<g id="node30" class="node">
<title>Node30</title>
<g id="a_node30"><a xlink:title=" ">
<polygon fill="white" stroke="#bfbfbf" points="3241.62,-168.5 3241.62,-198.5 3370.62,-198.5 3370.62,-168.5 3241.62,-168.5"/>
<text text-anchor="start" x="3249.62" y="-186.5" font-family="Helvetica,sans-Serif" font-size="10.00">SComponent/c_cc_s/asm</text>
<text text-anchor="middle" x="3306.12" y="-175.5" font-family="Helvetica,sans-Serif" font-size="10.00">/func_80265DF8.s</text>
</a>
</g>
</g>
<!-- Node1&#45;&gt;Node30 -->
<g id="edge34" class="edge">
<title>Node1&#45;&gt;Node30</title>
<path fill="none" stroke="midnightblue" d="M2123.43,-250.21C2302.48,-251.32 2805.33,-249.43 3231.28,-199.1"/>
<polygon fill="midnightblue" stroke="midnightblue" points="3231.81,-202.57 3241.32,-197.91 3230.98,-195.61 3231.81,-202.57"/>
</g>
<!-- Node31 -->
<g id="node31" class="node">
<title>Node31</title>
<g id="a_node31"><a xlink:title=" ">
<polygon fill="white" stroke="#bfbfbf" points="3388.62,-168.5 3388.62,-198.5 3517.62,-198.5 3517.62,-168.5 3388.62,-168.5"/>
<text text-anchor="start" x="3396.62" y="-186.5" font-family="Helvetica,sans-Serif" font-size="10.00">SComponent/c_cc_s/asm</text>
<text text-anchor="middle" x="3453.12" y="-175.5" font-family="Helvetica,sans-Serif" font-size="10.00">/func_80265DFC.s</text>
</a>
</g>
</g>
<!-- Node1&#45;&gt;Node31 -->
<g id="edge35" class="edge">
<title>Node1&#45;&gt;Node31</title>
<path fill="none" stroke="midnightblue" d="M2123.29,-248.34C2353.9,-244.15 3113.21,-228.5 3378.35,-199.06"/>
<polygon fill="midnightblue" stroke="midnightblue" points="3378.79,-202.54 3388.33,-197.92 3377.99,-195.58 3378.79,-202.54"/>
</g>
<!-- Node32 -->
<g id="node32" class="node">
<title>Node32</title>
<g id="a_node32"><a xlink:title=" ">
<polygon fill="white" stroke="#bfbfbf" points="3535.62,-168.5 3535.62,-198.5 3664.62,-198.5 3664.62,-168.5 3535.62,-168.5"/>
<text text-anchor="start" x="3543.62" y="-186.5" font-family="Helvetica,sans-Serif" font-size="10.00">SComponent/c_cc_s/asm</text>
<text text-anchor="middle" x="3600.12" y="-175.5" font-family="Helvetica,sans-Serif" font-size="10.00">/func_80265E00.s</text>
</a>
</g>
</g>
<!-- Node1&#45;&gt;Node32 -->
<g id="edge36" class="edge">
<title>Node1&#45;&gt;Node32</title>
<path fill="none" stroke="midnightblue" d="M2123.28,-248.64C2370.34,-245.25 3229.19,-231.44 3525.04,-199.09"/>
<polygon fill="midnightblue" stroke="midnightblue" points="3525.78,-202.53 3535.33,-197.93 3525,-195.58 3525.78,-202.53"/>
</g>
<!-- Node33 -->
<g id="node33" class="node">
<title>Node33</title>
<g id="a_node33"><a xlink:title=" ">
<polygon fill="white" stroke="#bfbfbf" points="3682.62,-168.5 3682.62,-198.5 3811.62,-198.5 3811.62,-168.5 3682.62,-168.5"/>
<text text-anchor="start" x="3690.62" y="-186.5" font-family="Helvetica,sans-Serif" font-size="10.00">SComponent/c_cc_s/asm</text>
<text text-anchor="middle" x="3747.12" y="-175.5" font-family="Helvetica,sans-Serif" font-size="10.00">/func_80265E08.s</text>
</a>
</g>
</g>
<!-- Node1&#45;&gt;Node33 -->
<g id="edge37" class="edge">
<title>Node1&#45;&gt;Node33</title>
<path fill="none" stroke="midnightblue" d="M2123.53,-248.88C2386.62,-246.22 3345.54,-234.37 3671.92,-199.1"/>
<polygon fill="midnightblue" stroke="midnightblue" points="3672.78,-202.53 3682.33,-197.95 3672,-195.57 3672.78,-202.53"/>
</g>
<!-- Node34 -->
<g id="node34" class="node">
<title>Node34</title>
<g id="a_node34"><a xlink:title=" ">
<polygon fill="white" stroke="#bfbfbf" points="3829.62,-168.5 3829.62,-198.5 3958.62,-198.5 3958.62,-168.5 3829.62,-168.5"/>
<text text-anchor="start" x="3837.62" y="-186.5" font-family="Helvetica,sans-Serif" font-size="10.00">SComponent/c_cc_s/asm</text>
<text text-anchor="middle" x="3894.12" y="-175.5" font-family="Helvetica,sans-Serif" font-size="10.00">/func_80265E10.s</text>
</a>
</g>
</g>
<!-- Node1&#45;&gt;Node34 -->
<g id="edge38" class="edge">
<title>Node1&#45;&gt;Node34</title>
<path fill="none" stroke="midnightblue" d="M2123.36,-249.08C2401.33,-247.13 3462.52,-237.33 3819.24,-199.07"/>
<polygon fill="midnightblue" stroke="midnightblue" points="3819.77,-202.53 3829.33,-197.95 3819.01,-195.57 3819.77,-202.53"/>
</g>
<!-- Node35 -->
<g id="node35" class="node">
<title>Node35</title>
<g id="a_node35"><a xlink:title=" ">
<polygon fill="white" stroke="#bfbfbf" points="3976.62,-168.5 3976.62,-198.5 4105.62,-198.5 4105.62,-168.5 3976.62,-168.5"/>
<text text-anchor="start" x="3984.62" y="-186.5" font-family="Helvetica,sans-Serif" font-size="10.00">SComponent/c_cc_s/asm</text>
<text text-anchor="middle" x="4041.12" y="-175.5" font-family="Helvetica,sans-Serif" font-size="10.00">/func_80265E18.s</text>
</a>
</g>
</g>
<!-- Node1&#45;&gt;Node35 -->
<g id="edge39" class="edge">
<title>Node1&#45;&gt;Node35</title>
<path fill="none" stroke="midnightblue" d="M2123.41,-249.25C2415.87,-247.95 3578.85,-240.31 3966.21,-199.07"/>
<polygon fill="midnightblue" stroke="midnightblue" points="3966.77,-202.53 3976.33,-197.96 3966.01,-195.57 3966.77,-202.53"/>
</g>
<!-- Node3 -->
<g id="node3" class="node">
<title>Node3</title>
<g id="a_node3"><a xlink:href="types_8h.html" target="_top" xlink:title=" ">
<polygon fill="white" stroke="black" points="75.62,-0.5 75.62,-19.5 156.62,-19.5 156.62,-0.5 75.62,-0.5"/>
<text text-anchor="middle" x="116.12" y="-7.5" font-family="Helvetica,sans-Serif" font-size="10.00">dolphin/types.h</text>
</a>
</g>
</g>
<!-- Node2&#45;&gt;Node3 -->
<g id="edge2" class="edge">
<title>Node2&#45;&gt;Node3</title>
<path fill="none" stroke="midnightblue" d="M94.17,-173.9C75.97,-165.52 49.98,-151.24 33.12,-132 9.69,-105.25 -11.6,-85.59 8.12,-56 21.07,-36.58 44.15,-25.53 65.66,-19.24"/>
<polygon fill="midnightblue" stroke="midnightblue" points="66.61,-22.61 75.39,-16.68 64.83,-15.84 66.61,-22.61"/>
</g>
<!-- Node4 -->
<g id="node4" class="node">
<title>Node4</title>
<g id="a_node4"><a xlink:href="AR_8h.html" target="_top" xlink:title=" ">
<polygon fill="white" stroke="black" points="17.62,-56.5 17.62,-75.5 66.62,-75.5 66.62,-56.5 17.62,-56.5"/>
<text text-anchor="middle" x="42.12" y="-63.5" font-family="Helvetica,sans-Serif" font-size="10.00">ar/AR.h</text>
</a>
</g>
</g>
<!-- Node2&#45;&gt;Node4 -->
<g id="edge3" class="edge">
<title>Node2&#45;&gt;Node4</title>
<path fill="none" stroke="midnightblue" d="M92.76,-173.91C75.45,-165.92 52.71,-152.2 42.12,-132 34.67,-117.79 35.5,-99.31 37.7,-85.69"/>
<polygon fill="midnightblue" stroke="midnightblue" points="41.19,-86.09 39.73,-75.59 34.33,-84.71 41.19,-86.09"/>
</g>
<!-- Node5 -->
<g id="node5" class="node">
<title>Node5</title>
<g id="a_node5"><a xlink:href="ARQ_8h.html" target="_top" xlink:title=" ">
<polygon fill="white" stroke="black" points="51.12,-112.5 51.12,-131.5 107.12,-131.5 107.12,-112.5 51.12,-112.5"/>
<text text-anchor="middle" x="79.12" y="-119.5" font-family="Helvetica,sans-Serif" font-size="10.00">ar/ARQ.h</text>
</a>
</g>
</g>
<!-- Node2&#45;&gt;Node5 -->
<g id="edge5" class="edge">
<title>Node2&#45;&gt;Node5</title>
<path fill="none" stroke="midnightblue" d="M109.96,-173.98C104.67,-165.23 96.29,-151.37 89.59,-140.31"/>
<polygon fill="midnightblue" stroke="midnightblue" points="92.44,-138.25 84.27,-131.51 86.45,-141.88 92.44,-138.25"/>
</g>
<!-- Node6 -->
<g id="node6" class="node">
<title>Node6</title>
<g id="a_node6"><a xlink:href="mwcc_8h.html" target="_top" xlink:title=" ">
<polygon fill="white" stroke="black" points="125.12,-112.5 125.12,-131.5 175.12,-131.5 175.12,-112.5 125.12,-112.5"/>
<text text-anchor="middle" x="150.12" y="-119.5" font-family="Helvetica,sans-Serif" font-size="10.00">mwcc.h</text>
</a>
</g>
</g>
<!-- Node2&#45;&gt;Node6 -->
<g id="edge7" class="edge">
<title>Node2&#45;&gt;Node6</title>
<path fill="none" stroke="midnightblue" d="M120.14,-173.98C125.28,-165.23 133.43,-151.37 139.94,-140.31"/>
<polygon fill="midnightblue" stroke="midnightblue" points="143.06,-141.9 145.12,-131.51 137.03,-138.35 143.06,-141.9"/>
</g>
<!-- Node7 -->
<g id="node7" class="node">
<title>Node7</title>
<g id="a_node7"><a xlink:href="OS_8h.html" target="_top" xlink:title=" ">
<polygon fill="white" stroke="black" points="193.12,-112.5 193.12,-131.5 245.12,-131.5 245.12,-112.5 193.12,-112.5"/>
<text text-anchor="middle" x="219.12" y="-119.5" font-family="Helvetica,sans-Serif" font-size="10.00">os/OS.h</text>
</a>
</g>
</g>
<!-- Node2&#45;&gt;Node7 -->
<g id="edge8" class="edge">
<title>Node2&#45;&gt;Node7</title>
<path fill="none" stroke="midnightblue" d="M130.02,-173.98C147.09,-164.21 175.28,-148.08 195.38,-136.58"/>
<polygon fill="midnightblue" stroke="midnightblue" points="197.31,-139.51 204.25,-131.51 193.83,-133.44 197.31,-139.51"/>
</g>
<!-- Node4&#45;&gt;Node3 -->
<g id="edge4" class="edge">
<title>Node4&#45;&gt;Node3</title>
<path fill="none" stroke="midnightblue" d="M54.01,-56.32C65.27,-48.11 82.41,-35.6 95.83,-25.81"/>
<polygon fill="midnightblue" stroke="midnightblue" points="98,-28.56 104.02,-19.83 93.87,-22.9 98,-28.56"/>
</g>
<!-- Node5&#45;&gt;Node3 -->
<g id="edge6" class="edge">
<title>Node5&#45;&gt;Node3</title>
<path fill="none" stroke="midnightblue" d="M82.02,-112.37C88.02,-94.54 101.89,-53.3 109.97,-29.27"/>
<polygon fill="midnightblue" stroke="midnightblue" points="113.36,-30.19 113.23,-19.59 106.73,-27.95 113.36,-30.19"/>
</g>
<!-- Node7&#45;&gt;Node3 -->
<g id="edge9" class="edge">
<title>Node7&#45;&gt;Node3</title>
<path fill="none" stroke="midnightblue" d="M203.25,-112.4C189.37,-104.32 169.27,-91.22 155.12,-76 142.12,-62.02 131.33,-43.02 124.42,-29.17"/>
<polygon fill="midnightblue" stroke="midnightblue" points="127.39,-27.27 119.92,-19.76 121.08,-30.29 127.39,-27.27"/>
</g>
<!-- Node8 -->
<g id="node8" class="node">
<title>Node8</title>
<g id="a_node8"><a xlink:href="dvd_8h.html" target="_top" xlink:title=" ">
<polygon fill="white" stroke="black" points="164.62,-56.5 164.62,-75.5 223.62,-75.5 223.62,-56.5 164.62,-56.5"/>
<text text-anchor="middle" x="194.12" y="-63.5" font-family="Helvetica,sans-Serif" font-size="10.00">dvd/dvd.h</text>
</a>
</g>
</g>
<!-- Node7&#45;&gt;Node8 -->
<g id="edge10" class="edge">
<title>Node7&#45;&gt;Node8</title>
<path fill="none" stroke="midnightblue" d="M214.99,-112.08C211.61,-104.77 206.7,-94.18 202.5,-85.1"/>
<polygon fill="midnightblue" stroke="midnightblue" points="205.55,-83.36 198.17,-75.75 199.2,-86.3 205.55,-83.36"/>
</g>
<!-- Node8&#45;&gt;Node3 -->
<g id="edge11" class="edge">
<title>Node8&#45;&gt;Node3</title>
<path fill="none" stroke="midnightblue" d="M181.59,-56.32C169.53,-47.98 151.09,-35.21 136.85,-25.35"/>
<polygon fill="midnightblue" stroke="midnightblue" points="138.84,-22.47 128.62,-19.65 134.85,-28.22 138.84,-22.47"/>
</g>
<!-- Node9&#45;&gt;Node3 -->
<g id="edge13" class="edge">
<title>Node9&#45;&gt;Node3</title>
<path fill="none" stroke="midnightblue" d="M247.4,-56.44C221.27,-47.4 179.86,-33.06 150.54,-22.92"/>
<polygon fill="midnightblue" stroke="midnightblue" points="151.32,-19.48 140.72,-19.52 149.03,-26.1 151.32,-19.48"/>
</g>
</g>
</svg>
