<?xml version="1.0" encoding="UTF-8" standalone="no"?>
<!DOCTYPE svg PUBLIC "-//W3C//DTD SVG 1.1//EN"
 "http://www.w3.org/Graphics/SVG/1.1/DTD/svg11.dtd">
<!-- Generated by graphviz version 2.44.0 ()
 -->
<!-- Title: libs/SSystem/SComponent/c_m3d_g_sph.cpp Pages: 1 -->
<!--zoomable 509 -->
<svg id="main" version="1.1" xmlns="http://www.w3.org/2000/svg" xmlns:xlink="http://www.w3.org/1999/xlink" xml:space="preserve" onload="init(evt)">
<style type="text/css"><![CDATA[
.edge:hover path { stroke: red; }
.edge:hover polygon { stroke: red; fill: red; }
]]></style>
<script type="text/javascript"><![CDATA[
var edges = document.getElementsByTagName('g');
if (edges && edges.length) {
  for (var i=0;i<edges.length;i++) {
    if (edges[i].id.substr(0,4)=='edge') {
      edges[i].setAttribute('class','edge');
    }
  }
}
]]></script>
        <defs>
                <circle id="rim" cx="0" cy="0" r="7"/>
                <circle id="rim2" cx="0" cy="0" r="3.5"/>
                <g id="zoomPlus">
                        <use xlink:href="#rim" fill="#404040">
                                <set attributeName="fill" to="#808080" begin="zoomplus.mouseover" end="zoomplus.mouseout"/>
                        </use>
                        <path d="M-4,0h8M0,-4v8" fill="none" stroke="white" stroke-width="1.5" pointer-events="none"/>
                </g>
                <g id="zoomMin">
                        <use xlink:href="#rim" fill="#404040">
                                <set attributeName="fill" to="#808080" begin="zoomminus.mouseover" end="zoomminus.mouseout"/>
                        </use>
                        <path d="M-4,0h8" fill="none" stroke="white" stroke-width="1.5" pointer-events="none"/>
                </g>
                <g id="dirArrow">
                        <path fill="none" stroke="white" stroke-width="1.5" d="M0,-3.0v7 M-2.5,-0.5L0,-3.0L2.5,-0.5"/>
                </g>
               <g id="resetDef">
                       <use xlink:href="#rim2" fill="#404040">
                               <set attributeName="fill" to="#808080" begin="reset.mouseover" end="reset.mouseout"/>
                       </use>
               </g>
        </defs>

<script type="text/javascript">
var viewWidth = 413;
var viewHeight = 509;
var sectionId = 'dynsection-0';
</script>
<script xlink:href="svgpan.js"/>
<svg id="graph" class="graph">
<g id="viewport">
<title>libs/SSystem/SComponent/c_m3d_g_sph.cpp</title>
<polygon fill="white" stroke="transparent" points="-4,4 -4,-505 408.5,-505 408.5,4 -4,4"/>
<!-- Node1 -->
<g id="node1" class="node">
<title>Node1</title>
<g id="a_node1"><a xlink:title=" ">
<polygon fill="#bfbfbf" stroke="black" points="180,-470.5 180,-500.5 314,-500.5 314,-470.5 180,-470.5"/>
<text text-anchor="start" x="188" y="-488.5" font-family="Helvetica,sans-Serif" font-size="10.00">libs/SSystem/SComponent</text>
<text text-anchor="middle" x="247" y="-477.5" font-family="Helvetica,sans-Serif" font-size="10.00">/c_m3d_g_sph.cpp</text>
</a>
</g>
</g>
<!-- Node2 -->
<g id="node2" class="node">
<title>Node2</title>
<g id="a_node2"><a xlink:href="c__m3d__g__sph_8h.html" target="_top" xlink:title=" ">
<polygon fill="white" stroke="black" points="146,-403.5 146,-433.5 262,-433.5 262,-403.5 146,-403.5"/>
<text text-anchor="start" x="154" y="-421.5" font-family="Helvetica,sans-Serif" font-size="10.00">SComponent/c_m3d_g</text>
<text text-anchor="middle" x="204" y="-410.5" font-family="Helvetica,sans-Serif" font-size="10.00">_sph.h</text>
</a>
</g>
</g>
<!-- Node1&#45;&gt;Node2 -->
<g id="edge1" class="edge">
<title>Node1&#45;&gt;Node2</title>
<path fill="none" stroke="midnightblue" d="M237.67,-470.4C232.2,-462.13 225.17,-451.51 218.95,-442.1"/>
<polygon fill="midnightblue" stroke="midnightblue" points="221.75,-439.99 213.31,-433.58 215.91,-443.85 221.75,-439.99"/>
</g>
<!-- Node14 -->
<g id="node14" class="node">
<title>Node14</title>
<g id="a_node14"><a xlink:href="c__m3d_8h.html" target="_top" xlink:title=" ">
<polygon fill="white" stroke="black" points="291.5,-342 291.5,-361 404.5,-361 404.5,-342 291.5,-342"/>
<text text-anchor="middle" x="348" y="-349" font-family="Helvetica,sans-Serif" font-size="10.00">SComponent/c_m3d.h</text>
</a>
</g>
</g>
<!-- Node1&#45;&gt;Node14 -->
<g id="edge22" class="edge">
<title>Node1&#45;&gt;Node14</title>
<path fill="none" stroke="midnightblue" d="M257.81,-470.37C276.56,-445.86 315.05,-395.56 335.14,-369.3"/>
<polygon fill="midnightblue" stroke="midnightblue" points="338.12,-371.17 341.42,-361.1 332.57,-366.91 338.12,-371.17"/>
</g>
<!-- Node3 -->
<g id="node3" class="node">
<title>Node3</title>
<g id="a_node3"><a xlink:href="c__m3d__g__cyl_8h.html" target="_top" xlink:title=" ">
<polygon fill="white" stroke="black" points="103,-336.5 103,-366.5 219,-366.5 219,-336.5 103,-336.5"/>
<text text-anchor="start" x="111" y="-354.5" font-family="Helvetica,sans-Serif" font-size="10.00">SComponent/c_m3d_g</text>
<text text-anchor="middle" x="161" y="-343.5" font-family="Helvetica,sans-Serif" font-size="10.00">_cyl.h</text>
</a>
</g>
</g>
<!-- Node2&#45;&gt;Node3 -->
<g id="edge2" class="edge">
<title>Node2&#45;&gt;Node3</title>
<path fill="none" stroke="midnightblue" d="M194.67,-403.4C189.2,-395.13 182.17,-384.51 175.95,-375.1"/>
<polygon fill="midnightblue" stroke="midnightblue" points="178.75,-372.99 170.31,-366.58 172.91,-376.85 178.75,-372.99"/>
</g>
<!-- Node4 -->
<g id="node4" class="node">
<title>Node4</title>
<g id="a_node4"><a xlink:href="c__xyz_8h.html" target="_top" xlink:title=" ">
<polygon fill="white" stroke="black" points="183.5,-280.5 183.5,-299.5 290.5,-299.5 290.5,-280.5 183.5,-280.5"/>
<text text-anchor="middle" x="237" y="-287.5" font-family="Helvetica,sans-Serif" font-size="10.00">SComponent/c_xyz.h</text>
</a>
</g>
</g>
<!-- Node2&#45;&gt;Node4 -->
<g id="edge20" class="edge">
<title>Node2&#45;&gt;Node4</title>
<path fill="none" stroke="midnightblue" d="M212.23,-403.41C217.6,-393.54 224.29,-379.87 228,-367 233.46,-348.08 235.61,-325.59 236.46,-310.01"/>
<polygon fill="midnightblue" stroke="midnightblue" points="239.97,-309.75 236.89,-299.61 232.98,-309.46 239.97,-309.75"/>
</g>
<!-- Node6 -->
<g id="node6" class="node">
<title>Node6</title>
<g id="a_node6"><a xlink:href="global_8h.html" target="_top" xlink:title=" ">
<polygon fill="white" stroke="black" points="123,-168.5 123,-187.5 173,-187.5 173,-168.5 123,-168.5"/>
<text text-anchor="middle" x="148" y="-175.5" font-family="Helvetica,sans-Serif" font-size="10.00">global.h</text>
</a>
</g>
</g>
<!-- Node2&#45;&gt;Node6 -->
<g id="edge21" class="edge">
<title>Node2&#45;&gt;Node6</title>
<path fill="none" stroke="midnightblue" d="M145.9,-404.58C125.97,-397.07 105.74,-385.31 94,-367 57.99,-310.84 109.04,-230.17 134.75,-195.67"/>
<polygon fill="midnightblue" stroke="midnightblue" points="137.64,-197.65 140.95,-187.58 132.09,-193.39 137.64,-197.65"/>
</g>
<!-- Node3&#45;&gt;Node4 -->
<g id="edge3" class="edge">
<title>Node3&#45;&gt;Node4</title>
<path fill="none" stroke="midnightblue" d="M179.01,-336.4C190.74,-327.22 206.02,-315.26 217.94,-305.92"/>
<polygon fill="midnightblue" stroke="midnightblue" points="220.22,-308.58 225.94,-299.66 215.91,-303.07 220.22,-308.58"/>
</g>
<!-- Node3&#45;&gt;Node6 -->
<g id="edge19" class="edge">
<title>Node3&#45;&gt;Node6</title>
<path fill="none" stroke="midnightblue" d="M159.94,-336.47C157.6,-305.7 152.04,-232.33 149.42,-197.7"/>
<polygon fill="midnightblue" stroke="midnightblue" points="152.89,-197.27 148.65,-187.56 145.91,-197.8 152.89,-197.27"/>
</g>
<!-- Node5 -->
<g id="node5" class="node">
<title>Node5</title>
<g id="a_node5"><a xlink:href="c__math_8h.html" target="_top" xlink:title=" ">
<polygon fill="white" stroke="black" points="179,-224.5 179,-243.5 295,-243.5 295,-224.5 179,-224.5"/>
<text text-anchor="middle" x="237" y="-231.5" font-family="Helvetica,sans-Serif" font-size="10.00">SComponent/c_math.h</text>
</a>
</g>
</g>
<!-- Node4&#45;&gt;Node5 -->
<g id="edge4" class="edge">
<title>Node4&#45;&gt;Node5</title>
<path fill="none" stroke="midnightblue" d="M237,-280.08C237,-273.01 237,-262.86 237,-253.99"/>
<polygon fill="midnightblue" stroke="midnightblue" points="240.5,-253.75 237,-243.75 233.5,-253.75 240.5,-253.75"/>
</g>
<!-- Node4&#45;&gt;Node6 -->
<g id="edge16" class="edge">
<title>Node4&#45;&gt;Node6</title>
<path fill="none" stroke="midnightblue" d="M217.71,-280.37C202.75,-272.77 182.51,-260.36 170,-244 159.61,-230.41 153.95,-211.61 150.99,-197.73"/>
<polygon fill="midnightblue" stroke="midnightblue" points="154.42,-197.03 149.15,-187.84 147.54,-198.31 154.42,-197.03"/>
</g>
<!-- Node13 -->
<g id="node13" class="node">
<title>Node13</title>
<g id="a_node13"><a xlink:href="mtx__vec_8h.html" target="_top" xlink:title=" ">
<polygon fill="white" stroke="black" points="273.5,-168.5 273.5,-187.5 334.5,-187.5 334.5,-168.5 273.5,-168.5"/>
<text text-anchor="middle" x="304" y="-175.5" font-family="Helvetica,sans-Serif" font-size="10.00">mtx_vec.h</text>
</a>
</g>
</g>
<!-- Node4&#45;&gt;Node13 -->
<g id="edge17" class="edge">
<title>Node4&#45;&gt;Node13</title>
<path fill="none" stroke="midnightblue" d="M259.79,-280.47C275.33,-273.32 294.71,-261.44 304,-244 311.55,-229.84 310.71,-211.36 308.47,-197.72"/>
<polygon fill="midnightblue" stroke="midnightblue" points="311.84,-196.71 306.42,-187.61 304.98,-198.11 311.84,-196.71"/>
</g>
<!-- Node5&#45;&gt;Node6 -->
<g id="edge5" class="edge">
<title>Node5&#45;&gt;Node6</title>
<path fill="none" stroke="midnightblue" d="M222.7,-224.32C208.82,-215.9 187.51,-202.97 171.2,-193.07"/>
<polygon fill="midnightblue" stroke="midnightblue" points="172.63,-189.85 162.26,-187.65 169,-195.83 172.63,-189.85"/>
</g>
<!-- Node7 -->
<g id="node7" class="node">
<title>Node7</title>
<g id="a_node7"><a xlink:href="types_8h.html" target="_top" xlink:title=" ">
<polygon fill="white" stroke="black" points="161.5,-0.5 161.5,-19.5 242.5,-19.5 242.5,-0.5 161.5,-0.5"/>
<text text-anchor="middle" x="202" y="-7.5" font-family="Helvetica,sans-Serif" font-size="10.00">dolphin/types.h</text>
</a>
</g>
</g>
<!-- Node6&#45;&gt;Node7 -->
<g id="edge6" class="edge">
<title>Node6&#45;&gt;Node7</title>
<path fill="none" stroke="midnightblue" d="M157.04,-168.25C165.21,-159.78 176.87,-146.17 183,-132 197.73,-97.97 201.21,-54.15 201.93,-29.68"/>
<polygon fill="midnightblue" stroke="midnightblue" points="205.43,-29.68 202.1,-19.62 198.43,-29.56 205.43,-29.68"/>
</g>
<!-- Node8 -->
<g id="node8" class="node">
<title>Node8</title>
<g id="a_node8"><a xlink:href="AR_8h.html" target="_top" xlink:title=" ">
<polygon fill="white" stroke="black" points="230.5,-56.5 230.5,-75.5 279.5,-75.5 279.5,-56.5 230.5,-56.5"/>
<text text-anchor="middle" x="255" y="-63.5" font-family="Helvetica,sans-Serif" font-size="10.00">ar/AR.h</text>
</a>
</g>
</g>
<!-- Node6&#45;&gt;Node8 -->
<g id="edge7" class="edge">
<title>Node6&#45;&gt;Node8</title>
<path fill="none" stroke="midnightblue" d="M165.18,-168.45C179.94,-160.5 201.12,-147.55 216,-132 229.32,-118.07 240.17,-98.81 247.01,-84.87"/>
<polygon fill="midnightblue" stroke="midnightblue" points="250.18,-86.36 251.26,-75.82 243.84,-83.38 250.18,-86.36"/>
</g>
<!-- Node9 -->
<g id="node9" class="node">
<title>Node9</title>
<g id="a_node9"><a xlink:href="ARQ_8h.html" target="_top" xlink:title=" ">
<polygon fill="white" stroke="black" points="0,-56.5 0,-75.5 56,-75.5 56,-56.5 0,-56.5"/>
<text text-anchor="middle" x="28" y="-63.5" font-family="Helvetica,sans-Serif" font-size="10.00">ar/ARQ.h</text>
</a>
</g>
</g>
<!-- Node6&#45;&gt;Node9 -->
<g id="edge9" class="edge">
<title>Node6&#45;&gt;Node9</title>
<path fill="none" stroke="midnightblue" d="M122.63,-172.46C99.14,-166.94 64.91,-155.29 45,-132 34,-119.13 30,-99.95 28.61,-85.76"/>
<polygon fill="midnightblue" stroke="midnightblue" points="32.1,-85.42 27.97,-75.66 25.11,-85.86 32.1,-85.42"/>
</g>
<!-- Node10 -->
<g id="node10" class="node">
<title>Node10</title>
<g id="a_node10"><a xlink:href="mwcc_8h.html" target="_top" xlink:title=" ">
<polygon fill="white" stroke="black" points="54,-112.5 54,-131.5 104,-131.5 104,-112.5 54,-112.5"/>
<text text-anchor="middle" x="79" y="-119.5" font-family="Helvetica,sans-Serif" font-size="10.00">mwcc.h</text>
</a>
</g>
</g>
<!-- Node6&#45;&gt;Node10 -->
<g id="edge11" class="edge">
<title>Node6&#45;&gt;Node10</title>
<path fill="none" stroke="midnightblue" d="M136.91,-168.32C126.51,-160.18 110.74,-147.84 98.28,-138.09"/>
<polygon fill="midnightblue" stroke="midnightblue" points="100.32,-135.24 90.29,-131.83 96.01,-140.75 100.32,-135.24"/>
</g>
<!-- Node11 -->
<g id="node11" class="node">
<title>Node11</title>
<g id="a_node11"><a xlink:href="OS_8h.html" target="_top" xlink:title=" ">
<polygon fill="white" stroke="black" points="122,-112.5 122,-131.5 174,-131.5 174,-112.5 122,-112.5"/>
<text text-anchor="middle" x="148" y="-119.5" font-family="Helvetica,sans-Serif" font-size="10.00">os/OS.h</text>
</a>
</g>
</g>
<!-- Node6&#45;&gt;Node11 -->
<g id="edge12" class="edge">
<title>Node6&#45;&gt;Node11</title>
<path fill="none" stroke="midnightblue" d="M148,-168.08C148,-161.01 148,-150.86 148,-141.99"/>
<polygon fill="midnightblue" stroke="midnightblue" points="151.5,-141.75 148,-131.75 144.5,-141.75 151.5,-141.75"/>
</g>
<!-- Node8&#45;&gt;Node7 -->
<g id="edge8" class="edge">
<title>Node8&#45;&gt;Node7</title>
<path fill="none" stroke="midnightblue" d="M246.25,-56.08C238.53,-48.22 227.1,-36.57 217.78,-27.08"/>
<polygon fill="midnightblue" stroke="midnightblue" points="220.09,-24.44 210.59,-19.75 215.1,-29.34 220.09,-24.44"/>
</g>
<!-- Node9&#45;&gt;Node7 -->
<g id="edge10" class="edge">
<title>Node9&#45;&gt;Node7</title>
<path fill="none" stroke="midnightblue" d="M55.57,-56.44C85.1,-47.28 132.12,-32.69 164.88,-22.52"/>
<polygon fill="midnightblue" stroke="midnightblue" points="166.04,-25.82 174.56,-19.52 163.97,-19.14 166.04,-25.82"/>
</g>
<!-- Node11&#45;&gt;Node7 -->
<g id="edge13" class="edge">
<title>Node11&#45;&gt;Node7</title>
<path fill="none" stroke="midnightblue" d="M152.24,-112.37C161.07,-94.38 181.6,-52.55 193.35,-28.63"/>
<polygon fill="midnightblue" stroke="midnightblue" points="196.52,-30.11 197.78,-19.59 190.23,-27.03 196.52,-30.11"/>
</g>
<!-- Node12 -->
<g id="node12" class="node">
<title>Node12</title>
<g id="a_node12"><a xlink:href="dvd_8h.html" target="_top" xlink:title=" ">
<polygon fill="white" stroke="black" points="76.5,-56.5 76.5,-75.5 135.5,-75.5 135.5,-56.5 76.5,-56.5"/>
<text text-anchor="middle" x="106" y="-63.5" font-family="Helvetica,sans-Serif" font-size="10.00">dvd/dvd.h</text>
</a>
</g>
</g>
<!-- Node11&#45;&gt;Node12 -->
<g id="edge14" class="edge">
<title>Node11&#45;&gt;Node12</title>
<path fill="none" stroke="midnightblue" d="M141.06,-112.08C135.07,-104.38 126.25,-93.03 118.95,-83.65"/>
<polygon fill="midnightblue" stroke="midnightblue" points="121.71,-81.5 112.81,-75.75 116.18,-85.79 121.71,-81.5"/>
</g>
<!-- Node12&#45;&gt;Node7 -->
<g id="edge15" class="edge">
<title>Node12&#45;&gt;Node7</title>
<path fill="none" stroke="midnightblue" d="M121.42,-56.32C136.54,-47.82 159.82,-34.73 177.47,-24.8"/>
<polygon fill="midnightblue" stroke="midnightblue" points="179.61,-27.61 186.61,-19.65 176.18,-21.51 179.61,-27.61"/>
</g>
<!-- Node13&#45;&gt;Node7 -->
<g id="edge18" class="edge">
<title>Node13&#45;&gt;Node7</title>
<path fill="none" stroke="midnightblue" d="M305.45,-168.44C308.55,-147.23 313.68,-91.43 289,-56 278.36,-40.72 260.9,-30.28 244.41,-23.33"/>
<polygon fill="midnightblue" stroke="midnightblue" points="245.45,-19.98 234.86,-19.63 242.92,-26.51 245.45,-19.98"/>
</g>
<!-- Node14&#45;&gt;Node7 -->
<g id="edge23" class="edge">
<title>Node14&#45;&gt;Node7</title>
<path fill="none" stroke="midnightblue" d="M349.9,-341.86C353.94,-322.71 363,-275.24 363,-235 363,-235 363,-235 363,-121 363,-66.17 298.54,-36.68 251.2,-22.42"/>
<polygon fill="midnightblue" stroke="midnightblue" points="251.96,-19 241.39,-19.61 250.03,-25.73 251.96,-19"/>
</g>
</g>
</svg>
        <g id="navigator" transform="translate(0 0)" fill="#404254">
                <rect fill="#f2f5e9" fill-opacity="0.5" stroke="#606060" stroke-width=".5" x="0" y="0" width="60" height="60"/>
                <use id="zoomplus" xlink:href="#zoomPlus" x="17" y="9" onmousedown="handleZoom(evt,'in')"/>
                <use id="zoomminus" xlink:href="#zoomMin" x="42" y="9" onmousedown="handleZoom(evt,'out')"/>
                <use id="reset" xlink:href="#resetDef" x="30" y="36" onmousedown="handleReset()"/>
                <g id="arrowUp" xlink:href="#dirArrow" transform="translate(30 24)" onmousedown="handlePan(0,-1)">
                  <use xlink:href="#rim" fill="#404040">
                        <set attributeName="fill" to="#808080" begin="arrowUp.mouseover" end="arrowUp.mouseout"/>
                  </use>
                  <path fill="none" stroke="white" stroke-width="1.5" d="M0,-3.0v7 M-2.5,-0.5L0,-3.0L2.5,-0.5"/>
                </g>
                <g id="arrowRight" xlink:href="#dirArrow" transform="rotate(90) translate(36 -43)" onmousedown="handlePan(1,0)">
                  <use xlink:href="#rim" fill="#404040">
                        <set attributeName="fill" to="#808080" begin="arrowRight.mouseover" end="arrowRight.mouseout"/>
                  </use>
                  <path fill="none" stroke="white" stroke-width="1.5" d="M0,-3.0v7 M-2.5,-0.5L0,-3.0L2.5,-0.5"/>
                </g>
                <g id="arrowDown" xlink:href="#dirArrow" transform="rotate(180) translate(-30 -48)" onmousedown="handlePan(0,1)">
                  <use xlink:href="#rim" fill="#404040">
                        <set attributeName="fill" to="#808080" begin="arrowDown.mouseover" end="arrowDown.mouseout"/>
                  </use>
                  <path fill="none" stroke="white" stroke-width="1.5" d="M0,-3.0v7 M-2.5,-0.5L0,-3.0L2.5,-0.5"/>
                </g>
                <g id="arrowLeft" xlink:href="#dirArrow" transform="rotate(270) translate(-36 17)" onmousedown="handlePan(-1,0)">
                  <use xlink:href="#rim" fill="#404040">
                        <set attributeName="fill" to="#808080" begin="arrowLeft.mouseover" end="arrowLeft.mouseout"/>
                  </use>
                  <path fill="none" stroke="white" stroke-width="1.5" d="M0,-3.0v7 M-2.5,-0.5L0,-3.0L2.5,-0.5"/>
                </g>
        </g>
        <svg viewBox="0 0 15 15" width="100%" height="30px" preserveAspectRatio="xMaxYMin meet">
         <g id="arrow_out" transform="scale(0.3 0.3)">
          <a xlink:href="c__m3d__g__sph_8cpp__incl_org.svg" target="_base">
           <rect id="button" ry="5" rx="5" y="6" x="6" height="38" width="38"
                fill="#f2f5e9" fill-opacity="0.5" stroke="#606060" stroke-width="1.0"/>
           <path id="arrow"
             d="M 11.500037,31.436501 C 11.940474,20.09759 22.043105,11.32322 32.158766,21.979434 L 37.068811,17.246167 C 37.068811,17.246167 37.088388,32 37.088388,32 L 22.160133,31.978069 C 22.160133,31.978069 26.997745,27.140456 26.997745,27.140456 C 18.528582,18.264221 13.291696,25.230495 11.500037,31.436501 z"
             style="fill:#404040;"/>
          </a>
         </g>
        </svg>
</svg>
