<?xml version="1.0" encoding="UTF-8" standalone="no"?>
<!DOCTYPE svg PUBLIC "-//W3C//DTD SVG 1.1//EN"
 "http://www.w3.org/Graphics/SVG/1.1/DTD/svg11.dtd">
<!-- Generated by graphviz version 2.44.0 ()
 -->
<!-- Title: include/SComponent/c_m3d_g_lin.h Pages: 1 -->
<!--zoomable 497 -->
<svg id="main" version="1.1" xmlns="http://www.w3.org/2000/svg" xmlns:xlink="http://www.w3.org/1999/xlink" xml:space="preserve" onload="init(evt)">
<style type="text/css"><![CDATA[
.edge:hover path { stroke: red; }
.edge:hover polygon { stroke: red; fill: red; }
]]></style>
<script type="text/javascript"><![CDATA[
var edges = document.getElementsByTagName('g');
if (edges && edges.length) {
  for (var i=0;i<edges.length;i++) {
    if (edges[i].id.substr(0,4)=='edge') {
      edges[i].setAttribute('class','edge');
    }
  }
}
]]></script>
        <defs>
                <circle id="rim" cx="0" cy="0" r="7"/>
                <circle id="rim2" cx="0" cy="0" r="3.5"/>
                <g id="zoomPlus">
                        <use xlink:href="#rim" fill="#404040">
                                <set attributeName="fill" to="#808080" begin="zoomplus.mouseover" end="zoomplus.mouseout"/>
                        </use>
                        <path d="M-4,0h8M0,-4v8" fill="none" stroke="white" stroke-width="1.5" pointer-events="none"/>
                </g>
                <g id="zoomMin">
                        <use xlink:href="#rim" fill="#404040">
                                <set attributeName="fill" to="#808080" begin="zoomminus.mouseover" end="zoomminus.mouseout"/>
                        </use>
                        <path d="M-4,0h8" fill="none" stroke="white" stroke-width="1.5" pointer-events="none"/>
                </g>
                <g id="dirArrow">
                        <path fill="none" stroke="white" stroke-width="1.5" d="M0,-3.0v7 M-2.5,-0.5L0,-3.0L2.5,-0.5"/>
                </g>
               <g id="resetDef">
                       <use xlink:href="#rim2" fill="#404040">
                               <set attributeName="fill" to="#808080" begin="reset.mouseover" end="reset.mouseout"/>
                       </use>
               </g>
        </defs>

<script type="text/javascript">
var viewWidth = 4442;
var viewHeight = 497;
var sectionId = 'dynsection-1';
</script>
<script xlink:href="svgpan.js"/>
<svg id="graph" class="graph">
<g id="viewport">
<title>include/SComponent/c_m3d_g_lin.h</title>
<polygon fill="white" stroke="transparent" points="-4,4 -4,-493 4438.22,-493 4438.22,4 -4,4"/>
<!-- Node1 -->
<g id="node1" class="node">
<title>Node1</title>
<g id="a_node1"><a xlink:title=" ">
<polygon fill="#bfbfbf" stroke="black" points="240.5,-458.5 240.5,-488.5 347.5,-488.5 347.5,-458.5 240.5,-458.5"/>
<text text-anchor="start" x="248.5" y="-476.5" font-family="Helvetica,sans-Serif" font-size="10.00">include/SComponent</text>
<text text-anchor="middle" x="294" y="-465.5" font-family="Helvetica,sans-Serif" font-size="10.00">/c_m3d_g_lin.h</text>
</a>
</g>
</g>
<!-- Node2 -->
<g id="node2" class="node">
<title>Node2</title>
<g id="a_node2"><a xlink:href="c__m3d__g__lin_8cpp.html" target="_top" xlink:title=" ">
<polygon fill="white" stroke="black" points="0,-391.5 0,-421.5 134,-421.5 134,-391.5 0,-391.5"/>
<text text-anchor="start" x="8" y="-409.5" font-family="Helvetica,sans-Serif" font-size="10.00">libs/SSystem/SComponent</text>
<text text-anchor="middle" x="67" y="-398.5" font-family="Helvetica,sans-Serif" font-size="10.00">/c_m3d_g_lin.cpp</text>
</a>
</g>
</g>
<!-- Node1&#45;&gt;Node2 -->
<g id="edge1" class="edge">
<title>Node1&#45;&gt;Node2</title>
<path fill="none" stroke="midnightblue" d="M235.38,-455.71C198.44,-445.14 151.29,-431.63 116.28,-421.61"/>
<polygon fill="midnightblue" stroke="midnightblue" points="234.45,-459.09 245.02,-458.48 236.37,-452.36 234.45,-459.09"/>
</g>
<!-- Node3 -->
<g id="node3" class="node">
<title>Node3</title>
<g id="a_node3"><a xlink:href="c__m3d_8cpp.html" target="_top" xlink:title=" ">
<polygon fill="white" stroke="black" points="322,-324.5 322,-354.5 456,-354.5 456,-324.5 322,-324.5"/>
<text text-anchor="start" x="330" y="-342.5" font-family="Helvetica,sans-Serif" font-size="10.00">libs/SSystem/SComponent</text>
<text text-anchor="middle" x="389" y="-331.5" font-family="Helvetica,sans-Serif" font-size="10.00">/c_m3d.cpp</text>
</a>
</g>
</g>
<!-- Node1&#45;&gt;Node3 -->
<g id="edge2" class="edge">
<title>Node1&#45;&gt;Node3</title>
<path fill="none" stroke="midnightblue" d="M310.06,-450.19C329.73,-422.86 362.46,-377.38 378.91,-354.52"/>
<polygon fill="midnightblue" stroke="midnightblue" points="307.17,-448.21 304.17,-458.37 312.85,-452.3 307.17,-448.21"/>
</g>
<!-- Node4 -->
<g id="node4" class="node">
<title>Node4</title>
<g id="a_node4"><a xlink:href="d__bg__s__acch_8h.html" target="_top" xlink:title=" ">
<polygon fill="white" stroke="black" points="209,-190.5 209,-220.5 313,-220.5 313,-190.5 209,-190.5"/>
<text text-anchor="start" x="217" y="-208.5" font-family="Helvetica,sans-Serif" font-size="10.00">include/d/d_bg/d_bg</text>
<text text-anchor="middle" x="261" y="-197.5" font-family="Helvetica,sans-Serif" font-size="10.00">_s/d_bg_s_acch.h</text>
</a>
</g>
</g>
<!-- Node1&#45;&gt;Node4 -->
<g id="edge3" class="edge">
<title>Node1&#45;&gt;Node4</title>
<path fill="none" stroke="midnightblue" d="M290.97,-448.07C284.21,-393.57 268.07,-263.52 262.74,-220.55"/>
<polygon fill="midnightblue" stroke="midnightblue" points="287.52,-448.71 292.23,-458.2 294.47,-447.84 287.52,-448.71"/>
</g>
<!-- Node9 -->
<g id="node9" class="node">
<title>Node9</title>
<g id="a_node9"><a xlink:href="c__bg__s__lin__chk_8h.html" target="_top" xlink:title=" ">
<polygon fill="white" stroke="black" points="152.5,-391.5 152.5,-421.5 259.5,-421.5 259.5,-391.5 152.5,-391.5"/>
<text text-anchor="start" x="160.5" y="-409.5" font-family="Helvetica,sans-Serif" font-size="10.00">include/SComponent</text>
<text text-anchor="middle" x="206" y="-398.5" font-family="Helvetica,sans-Serif" font-size="10.00">/c_bg_s_lin_chk.h</text>
</a>
</g>
</g>
<!-- Node1&#45;&gt;Node9 -->
<g id="edge9" class="edge">
<title>Node1&#45;&gt;Node9</title>
<path fill="none" stroke="midnightblue" d="M266.86,-452.45C253.32,-442.45 237.27,-430.6 225.06,-421.58"/>
<polygon fill="midnightblue" stroke="midnightblue" points="264.78,-455.27 274.91,-458.4 268.94,-449.64 264.78,-455.27"/>
</g>
<!-- Node12 -->
<g id="node12" class="node">
<title>Node12</title>
<g id="a_node12"><a xlink:href="c__m3d__g__cps_8h.html" target="_top" xlink:title=" ">
<polygon fill="white" stroke="black" points="437.5,-391.5 437.5,-421.5 544.5,-421.5 544.5,-391.5 437.5,-391.5"/>
<text text-anchor="start" x="445.5" y="-409.5" font-family="Helvetica,sans-Serif" font-size="10.00">include/SComponent</text>
<text text-anchor="middle" x="491" y="-398.5" font-family="Helvetica,sans-Serif" font-size="10.00">/c_m3d_g_cps.h</text>
</a>
</g>
</g>
<!-- Node1&#45;&gt;Node12 -->
<g id="edge13" class="edge">
<title>Node1&#45;&gt;Node12</title>
<path fill="none" stroke="midnightblue" d="M346.35,-455.23C378.22,-444.71 418.41,-431.45 448.34,-421.58"/>
<polygon fill="midnightblue" stroke="midnightblue" points="345.15,-451.94 336.75,-458.4 347.34,-458.59 345.15,-451.94"/>
</g>
<!-- Node5 -->
<g id="node5" class="node">
<title>Node5</title>
<g id="a_node5"><a xlink:href="d__a__alink_8h.html" target="_top" xlink:title=" ">
<polygon fill="white" stroke="black" points="122.5,-56.5 122.5,-86.5 241.5,-86.5 241.5,-56.5 122.5,-56.5"/>
<text text-anchor="start" x="130.5" y="-74.5" font-family="Helvetica,sans-Serif" font-size="10.00">include/d/d_a/d_a_alink</text>
<text text-anchor="middle" x="182" y="-63.5" font-family="Helvetica,sans-Serif" font-size="10.00">/d_a_alink.h</text>
</a>
</g>
</g>
<!-- Node4&#45;&gt;Node5 -->
<g id="edge4" class="edge">
<title>Node4&#45;&gt;Node5</title>
<path fill="none" stroke="midnightblue" d="M229.55,-184.27C219.04,-176.06 208.19,-165.72 201,-154 188.09,-132.94 183.95,-103.91 182.62,-86.78"/>
<polygon fill="midnightblue" stroke="midnightblue" points="227.71,-187.26 237.83,-190.39 231.87,-181.63 227.71,-187.26"/>
</g>
<!-- Node8 -->
<g id="node8" class="node">
<title>Node8</title>
<g id="a_node8"><a xlink:href="d__particle__copoly_8h.html" target="_top" xlink:title=" ">
<polygon fill="white" stroke="black" points="210,-123.5 210,-153.5 312,-153.5 312,-123.5 210,-123.5"/>
<text text-anchor="start" x="218" y="-141.5" font-family="Helvetica,sans-Serif" font-size="10.00">include/d/d_particle</text>
<text text-anchor="middle" x="261" y="-130.5" font-family="Helvetica,sans-Serif" font-size="10.00">/d_particle_copoly.h</text>
</a>
</g>
</g>
<!-- Node4&#45;&gt;Node8 -->
<g id="edge7" class="edge">
<title>Node4&#45;&gt;Node8</title>
<path fill="none" stroke="midnightblue" d="M261,-180.11C261,-171.15 261,-161.32 261,-153.58"/>
<polygon fill="midnightblue" stroke="midnightblue" points="257.5,-180.4 261,-190.4 264.5,-180.4 257.5,-180.4"/>
</g>
<!-- Node6 -->
<g id="node6" class="node">
<title>Node6</title>
<g id="a_node6"><a xlink:href="d__attention_8cpp.html" target="_top" xlink:title=" ">
<polygon fill="white" stroke="black" points="2325.5,-0.5 2325.5,-19.5 2432.5,-19.5 2432.5,-0.5 2325.5,-0.5"/>
<text text-anchor="middle" x="2379" y="-7.5" font-family="Helvetica,sans-Serif" font-size="10.00">src/d/d_attention.cpp</text>
</a>
</g>
</g>
<!-- Node5&#45;&gt;Node6 -->
<g id="edge5" class="edge">
<title>Node5&#45;&gt;Node6</title>
<path fill="none" stroke="midnightblue" d="M251.95,-56.09C691.72,-7.95 2038.74,-9.83 2325.13,-10.78"/>
<polygon fill="midnightblue" stroke="midnightblue" points="251.28,-52.65 241.73,-57.24 252.06,-59.6 251.28,-52.65"/>
</g>
<!-- Node7 -->
<g id="node7" class="node">
<title>Node7</title>
<g id="a_node7"><a xlink:href="d__a__alink_8cpp.html" target="_top" xlink:title=" ">
<polygon fill="white" stroke="black" points="122.5,-0.5 122.5,-19.5 241.5,-19.5 241.5,-0.5 122.5,-0.5"/>
<text text-anchor="middle" x="182" y="-7.5" font-family="Helvetica,sans-Serif" font-size="10.00">src/d/d_a/d_a_alink.cpp</text>
</a>
</g>
</g>
<!-- Node5&#45;&gt;Node7 -->
<g id="edge6" class="edge">
<title>Node5&#45;&gt;Node7</title>
<path fill="none" stroke="midnightblue" d="M182,-46.29C182,-36.86 182,-26.65 182,-19.66"/>
<polygon fill="midnightblue" stroke="midnightblue" points="178.5,-46.4 182,-56.4 185.5,-46.4 178.5,-46.4"/>
</g>
<!-- Node8&#45;&gt;Node5 -->
<g id="edge8" class="edge">
<title>Node8&#45;&gt;Node5</title>
<path fill="none" stroke="midnightblue" d="M235.94,-116.88C223.94,-107.01 209.87,-95.43 199.11,-86.58"/>
<polygon fill="midnightblue" stroke="midnightblue" points="233.91,-119.75 243.86,-123.4 238.36,-114.34 233.91,-119.75"/>
</g>
<!-- Node10 -->
<g id="node10" class="node">
<title>Node10</title>
<g id="a_node10"><a xlink:href="c__bg__s__lin__chk_8cpp.html" target="_top" xlink:title=" ">
<polygon fill="white" stroke="black" points="132,-324.5 132,-354.5 266,-354.5 266,-324.5 132,-324.5"/>
<text text-anchor="start" x="140" y="-342.5" font-family="Helvetica,sans-Serif" font-size="10.00">libs/SSystem/SComponent</text>
<text text-anchor="middle" x="199" y="-331.5" font-family="Helvetica,sans-Serif" font-size="10.00">/c_bg_s_lin_chk.cpp</text>
</a>
</g>
</g>
<!-- Node9&#45;&gt;Node10 -->
<g id="edge10" class="edge">
<title>Node9&#45;&gt;Node10</title>
<path fill="none" stroke="midnightblue" d="M203.4,-381.4C202.43,-372.37 201.36,-362.41 200.52,-354.58"/>
<polygon fill="midnightblue" stroke="midnightblue" points="199.93,-381.83 204.48,-391.4 206.89,-381.08 199.93,-381.83"/>
</g>
<!-- Node11 -->
<g id="node11" class="node">
<title>Node11</title>
<g id="a_node11"><a xlink:href="d__bg__s__lin__chk_8h.html" target="_top" xlink:title=" ">
<polygon fill="white" stroke="black" points="68.5,-190.5 68.5,-220.5 173.5,-220.5 173.5,-190.5 68.5,-190.5"/>
<text text-anchor="start" x="76.5" y="-208.5" font-family="Helvetica,sans-Serif" font-size="10.00">include/d/d_bg/d_bg</text>
<text text-anchor="middle" x="121" y="-197.5" font-family="Helvetica,sans-Serif" font-size="10.00">_s/d_bg_s_lin_chk.h</text>
</a>
</g>
</g>
<!-- Node9&#45;&gt;Node11 -->
<g id="edge11" class="edge">
<title>Node9&#45;&gt;Node11</title>
<path fill="none" stroke="midnightblue" d="M157.23,-386.64C143.77,-378.94 130.75,-368.58 123,-355 98.2,-311.56 109.84,-248.68 116.93,-220.77"/>
<polygon fill="midnightblue" stroke="midnightblue" points="155.61,-389.75 166.09,-391.33 158.88,-383.56 155.61,-389.75"/>
</g>
<!-- Node11&#45;&gt;Node5 -->
<g id="edge12" class="edge">
<title>Node11&#45;&gt;Node5</title>
<path fill="none" stroke="midnightblue" d="M131.81,-181.12C144.48,-153.68 165.09,-109.09 175.52,-86.52"/>
<polygon fill="midnightblue" stroke="midnightblue" points="128.55,-179.83 127.53,-190.37 134.9,-182.76 128.55,-179.83"/>
</g>
<!-- Node12&#45;&gt;Node3 -->
<g id="edge15" class="edge">
<title>Node12&#45;&gt;Node3</title>
<path fill="none" stroke="midnightblue" d="M460.42,-386.02C444.55,-375.9 425.52,-363.77 411.09,-354.58"/>
<polygon fill="midnightblue" stroke="midnightblue" points="458.55,-388.97 468.87,-391.4 462.32,-383.07 458.55,-388.97"/>
</g>
<!-- Node13 -->
<g id="node13" class="node">
<title>Node13</title>
<g id="a_node13"><a xlink:href="c__m3d__g__cps_8cpp.html" target="_top" xlink:title=" ">
<polygon fill="white" stroke="black" points="474,-324.5 474,-354.5 608,-354.5 608,-324.5 474,-324.5"/>
<text text-anchor="start" x="482" y="-342.5" font-family="Helvetica,sans-Serif" font-size="10.00">libs/SSystem/SComponent</text>
<text text-anchor="middle" x="541" y="-331.5" font-family="Helvetica,sans-Serif" font-size="10.00">/c_m3d_g_cps.cpp</text>
</a>
</g>
</g>
<!-- Node12&#45;&gt;Node13 -->
<g id="edge14" class="edge">
<title>Node12&#45;&gt;Node13</title>
<path fill="none" stroke="midnightblue" d="M507.96,-383.45C515.31,-373.9 523.69,-363 530.17,-354.58"/>
<polygon fill="midnightblue" stroke="midnightblue" points="505.17,-381.34 501.85,-391.4 510.72,-385.6 505.17,-381.34"/>
</g>
<!-- Node14 -->
<g id="node14" class="node">
<title>Node14</title>
<g id="a_node14"><a xlink:href="c__cc__d_8h.html" target="_top" xlink:title=" ">
<polygon fill="white" stroke="black" points="626.5,-324.5 626.5,-354.5 733.5,-354.5 733.5,-324.5 626.5,-324.5"/>
<text text-anchor="start" x="634.5" y="-342.5" font-family="Helvetica,sans-Serif" font-size="10.00">include/SComponent</text>
<text text-anchor="middle" x="680" y="-331.5" font-family="Helvetica,sans-Serif" font-size="10.00">/c_cc_d/c_cc_d.h</text>
</a>
</g>
</g>
<!-- Node12&#45;&gt;Node14 -->
<g id="edge16" class="edge">
<title>Node12&#45;&gt;Node14</title>
<path fill="none" stroke="midnightblue" d="M541.62,-388.09C572.13,-377.6 610.48,-364.41 639.07,-354.58"/>
<polygon fill="midnightblue" stroke="midnightblue" points="540.33,-384.83 532.01,-391.4 542.6,-391.45 540.33,-384.83"/>
</g>
<!-- Node15 -->
<g id="node15" class="node">
<title>Node15</title>
<g id="a_node15"><a xlink:href="d__cc__d_8h.html" target="_top" xlink:title=" ">
<polygon fill="white" stroke="black" points="380,-129 380,-148 502,-148 502,-129 380,-129"/>
<text text-anchor="middle" x="441" y="-136" font-family="Helvetica,sans-Serif" font-size="10.00">include/d/d_cc/d_cc_d.h</text>
</a>
</g>
</g>
<!-- Node14&#45;&gt;Node15 -->
<g id="edge17" class="edge">
<title>Node14&#45;&gt;Node15</title>
<path fill="none" stroke="midnightblue" d="M649.7,-318.77C636.33,-309.76 620.6,-298.72 607,-288 544.14,-238.45 474.4,-171.94 450.01,-148.29"/>
<polygon fill="midnightblue" stroke="midnightblue" points="647.83,-321.74 658.09,-324.38 651.72,-315.92 647.83,-321.74"/>
</g>
<!-- Node16 -->
<g id="node16" class="node">
<title>Node16</title>
<g id="a_node16"><a xlink:href="d__cc__mass__s_8h.html" target="_top" xlink:title=" ">
<polygon fill="white" stroke="black" points="616,-257.5 616,-287.5 744,-287.5 744,-257.5 616,-257.5"/>
<text text-anchor="start" x="624" y="-275.5" font-family="Helvetica,sans-Serif" font-size="10.00">include/d/d_cc/d_cc</text>
<text text-anchor="middle" x="680" y="-264.5" font-family="Helvetica,sans-Serif" font-size="10.00">_mass_s/d_cc_mass_s.h</text>
</a>
</g>
</g>
<!-- Node14&#45;&gt;Node16 -->
<g id="edge19" class="edge">
<title>Node14&#45;&gt;Node16</title>
<path fill="none" stroke="midnightblue" d="M680,-314.11C680,-305.15 680,-295.32 680,-287.58"/>
<polygon fill="midnightblue" stroke="midnightblue" points="676.5,-314.4 680,-324.4 683.5,-314.4 676.5,-314.4"/>
</g>
<!-- Node65 -->
<g id="node50" class="node">
<title>Node65</title>
<g id="a_node50"><a xlink:href="c__cc__s_8h.html" target="_top" xlink:title=" ">
<polygon fill="white" stroke="black" points="762.5,-257.5 762.5,-287.5 869.5,-287.5 869.5,-257.5 762.5,-257.5"/>
<text text-anchor="start" x="770.5" y="-275.5" font-family="Helvetica,sans-Serif" font-size="10.00">include/SComponent</text>
<text text-anchor="middle" x="816" y="-264.5" font-family="Helvetica,sans-Serif" font-size="10.00">/c_cc_s/c_cc_s.h</text>
</a>
</g>
</g>
<!-- Node14&#45;&gt;Node65 -->
<g id="edge55" class="edge">
<title>Node14&#45;&gt;Node65</title>
<path fill="none" stroke="midnightblue" d="M718.72,-319.99C740.28,-309.69 766.69,-297.07 786.55,-287.58"/>
<polygon fill="midnightblue" stroke="midnightblue" points="717.02,-316.93 709.51,-324.4 720.04,-323.24 717.02,-316.93"/>
</g>
<!-- Node15&#45;&gt;Node5 -->
<g id="edge18" class="edge">
<title>Node15&#45;&gt;Node5</title>
<path fill="none" stroke="midnightblue" d="M397.08,-126.48C353.24,-115.47 285.7,-98.52 238.02,-86.56"/>
<polygon fill="midnightblue" stroke="midnightblue" points="396.32,-129.9 406.87,-128.94 398.03,-123.11 396.32,-129.9"/>
</g>
<!-- Node17 -->
<g id="node17" class="node">
<title>Node17</title>
<g id="a_node17"><a xlink:href="d__cc__s_8h.html" target="_top" xlink:title=" ">
<polygon fill="white" stroke="black" points="764,-190.5 764,-220.5 868,-220.5 868,-190.5 764,-190.5"/>
<text text-anchor="start" x="772" y="-208.5" font-family="Helvetica,sans-Serif" font-size="10.00">include/d/d_cc/d_cc</text>
<text text-anchor="middle" x="816" y="-197.5" font-family="Helvetica,sans-Serif" font-size="10.00">_s/d_cc_s.h</text>
</a>
</g>
</g>
<!-- Node16&#45;&gt;Node17 -->
<g id="edge20" class="edge">
<title>Node16&#45;&gt;Node17</title>
<path fill="none" stroke="midnightblue" d="M718.72,-252.99C740.28,-242.69 766.69,-230.07 786.55,-220.58"/>
<polygon fill="midnightblue" stroke="midnightblue" points="717.02,-249.93 709.51,-257.4 720.04,-256.24 717.02,-249.93"/>
</g>
<!-- Node18 -->
<g id="node18" class="node">
<title>Node18</title>
<g id="a_node18"><a xlink:href="d__com__inf__game_8h.html" target="_top" xlink:title=" ">
<polygon fill="white" stroke="red" points="2154,-123.5 2154,-153.5 2300,-153.5 2300,-123.5 2154,-123.5"/>
<text text-anchor="start" x="2162" y="-141.5" font-family="Helvetica,sans-Serif" font-size="10.00">include/d/d_com/d_com</text>
<text text-anchor="middle" x="2227" y="-130.5" font-family="Helvetica,sans-Serif" font-size="10.00">_inf_game/d_com_inf_game.h</text>
</a>
</g>
</g>
<!-- Node17&#45;&gt;Node18 -->
<g id="edge21" class="edge">
<title>Node17&#45;&gt;Node18</title>
<path fill="none" stroke="midnightblue" d="M878.51,-201.62C1108.44,-191.03 1906.71,-154.25 2153.63,-142.88"/>
<polygon fill="midnightblue" stroke="midnightblue" points="878.14,-198.13 868.31,-202.09 878.46,-205.13 878.14,-198.13"/>
</g>
<!-- Node18&#45;&gt;Node5 -->
<g id="edge54" class="edge">
<title>Node18&#45;&gt;Node5</title>
<path fill="none" stroke="midnightblue" d="M2143.49,-137.39C1816.96,-136.63 626.12,-130.84 251,-87 247.96,-86.64 244.86,-86.22 241.73,-85.74"/>
<polygon fill="midnightblue" stroke="midnightblue" points="2143.82,-140.89 2153.82,-137.41 2143.83,-133.89 2143.82,-140.89"/>
</g>
<!-- Node18&#45;&gt;Node6 -->
<g id="edge22" class="edge">
<title>Node18&#45;&gt;Node6</title>
<path fill="none" stroke="midnightblue" d="M2310.33,-137.17C2707.33,-135.38 4389.32,-125.55 4427,-87 4436.63,-77.15 4436.63,-65.85 4427,-56 4391.09,-19.3 2752.46,-12.19 2432.75,-11.15"/>
<polygon fill="midnightblue" stroke="midnightblue" points="2310.05,-133.67 2300.07,-137.21 2310.09,-140.67 2310.05,-133.67"/>
</g>
<!-- Node19 -->
<g id="node19" class="node">
<title>Node19</title>
<g id="a_node19"><a xlink:href="d__camera_8cpp.html" target="_top" xlink:title=" ">
<polygon fill="white" stroke="black" points="260,-62 260,-81 362,-81 362,-62 260,-62"/>
<text text-anchor="middle" x="311" y="-69" font-family="Helvetica,sans-Serif" font-size="10.00">src/d/d_camera.cpp</text>
</a>
</g>
</g>
<!-- Node18&#45;&gt;Node19 -->
<g id="edge23" class="edge">
<title>Node18&#45;&gt;Node19</title>
<path fill="none" stroke="midnightblue" d="M2143.39,-137.51C1829.52,-137.2 721.61,-132.81 372,-87 361.96,-85.68 351.17,-83.41 341.49,-81.05"/>
<polygon fill="midnightblue" stroke="midnightblue" points="2143.78,-141.01 2153.78,-137.52 2143.78,-134.01 2143.78,-141.01"/>
</g>
<!-- Node20 -->
<g id="node20" class="node">
<title>Node20</title>
<g id="a_node20"><a xlink:href="d__com__inf__game_8cpp.html" target="_top" xlink:title=" ">
<polygon fill="white" stroke="black" points="380.5,-56.5 380.5,-86.5 499.5,-86.5 499.5,-56.5 380.5,-56.5"/>
<text text-anchor="start" x="388.5" y="-74.5" font-family="Helvetica,sans-Serif" font-size="10.00">src/d/d_com/d_com_inf</text>
<text text-anchor="middle" x="440" y="-63.5" font-family="Helvetica,sans-Serif" font-size="10.00">_game.cpp</text>
</a>
</g>
</g>
<!-- Node18&#45;&gt;Node20 -->
<g id="edge24" class="edge">
<title>Node18&#45;&gt;Node20</title>
<path fill="none" stroke="midnightblue" d="M2143.66,-137.01C1845.31,-134.96 831.12,-125.27 509,-87 505.96,-86.64 502.86,-86.21 499.73,-85.73"/>
<polygon fill="midnightblue" stroke="midnightblue" points="2143.95,-140.51 2153.97,-137.08 2143.99,-133.51 2143.95,-140.51"/>
</g>
<!-- Node21 -->
<g id="node21" class="node">
<title>Node21</title>
<g id="a_node21"><a xlink:href="d__file__sel__info_8cpp.html" target="_top" xlink:title=" ">
<polygon fill="white" stroke="black" points="517.5,-56.5 517.5,-86.5 606.5,-86.5 606.5,-56.5 517.5,-56.5"/>
<text text-anchor="start" x="525.5" y="-74.5" font-family="Helvetica,sans-Serif" font-size="10.00">src/d/d_file/d_file</text>
<text text-anchor="middle" x="562" y="-63.5" font-family="Helvetica,sans-Serif" font-size="10.00">_sel_info.cpp</text>
</a>
</g>
</g>
<!-- Node18&#45;&gt;Node21 -->
<g id="edge25" class="edge">
<title>Node18&#45;&gt;Node21</title>
<path fill="none" stroke="midnightblue" d="M2143.51,-137.43C1857.01,-136.77 915.07,-131.23 616,-87 612.93,-86.55 609.78,-85.98 606.62,-85.33"/>
<polygon fill="midnightblue" stroke="midnightblue" points="2143.82,-140.93 2153.83,-137.45 2143.84,-133.93 2143.82,-140.93"/>
</g>
<!-- Node22 -->
<g id="node22" class="node">
<title>Node22</title>
<g id="a_node22"><a xlink:href="d__item_8cpp.html" target="_top" xlink:title=" ">
<polygon fill="white" stroke="black" points="624.5,-62 624.5,-81 745.5,-81 745.5,-62 624.5,-62"/>
<text text-anchor="middle" x="685" y="-69" font-family="Helvetica,sans-Serif" font-size="10.00">src/d/d_item/d_item.cpp</text>
</a>
</g>
</g>
<!-- Node18&#45;&gt;Node22 -->
<g id="edge26" class="edge">
<title>Node18&#45;&gt;Node22</title>
<path fill="none" stroke="midnightblue" d="M2143.53,-136.5C1873.72,-132.99 1026.82,-119.58 755,-87 743.66,-85.64 731.43,-83.39 720.42,-81.06"/>
<polygon fill="midnightblue" stroke="midnightblue" points="2143.61,-140 2153.65,-136.63 2143.7,-133 2143.61,-140"/>
</g>
<!-- Node23 -->
<g id="node23" class="node">
<title>Node23</title>
<g id="a_node23"><a xlink:href="d__kankyo__rain_8cpp.html" target="_top" xlink:title=" ">
<polygon fill="white" stroke="black" points="763.5,-56.5 763.5,-86.5 890.5,-86.5 890.5,-56.5 763.5,-56.5"/>
<text text-anchor="start" x="771.5" y="-74.5" font-family="Helvetica,sans-Serif" font-size="10.00">src/d/d_kankyo/d_kankyo</text>
<text text-anchor="middle" x="827" y="-63.5" font-family="Helvetica,sans-Serif" font-size="10.00">_rain.cpp</text>
</a>
</g>
</g>
<!-- Node18&#45;&gt;Node23 -->
<g id="edge27" class="edge">
<title>Node18&#45;&gt;Node23</title>
<path fill="none" stroke="midnightblue" d="M2143.72,-136.05C1892.16,-131.42 1142.5,-115.52 900,-87 896.92,-86.64 893.78,-86.22 890.61,-85.75"/>
<polygon fill="midnightblue" stroke="midnightblue" points="2143.83,-139.56 2153.89,-136.24 2143.96,-132.56 2143.83,-139.56"/>
</g>
<!-- Node24 -->
<g id="node24" class="node">
<title>Node24</title>
<g id="a_node24"><a xlink:href="d__kankyo__wether_8cpp.html" target="_top" xlink:title=" ">
<polygon fill="white" stroke="black" points="908.5,-56.5 908.5,-86.5 1035.5,-86.5 1035.5,-56.5 908.5,-56.5"/>
<text text-anchor="start" x="916.5" y="-74.5" font-family="Helvetica,sans-Serif" font-size="10.00">src/d/d_kankyo/d_kankyo</text>
<text text-anchor="middle" x="972" y="-63.5" font-family="Helvetica,sans-Serif" font-size="10.00">_wether.cpp</text>
</a>
</g>
</g>
<!-- Node18&#45;&gt;Node24 -->
<g id="edge28" class="edge">
<title>Node18&#45;&gt;Node24</title>
<path fill="none" stroke="midnightblue" d="M2143.61,-138.32C1949.94,-139.26 1454.96,-136.18 1045,-87 1041.92,-86.63 1038.78,-86.2 1035.61,-85.73"/>
<polygon fill="midnightblue" stroke="midnightblue" points="2143.73,-141.82 2153.71,-138.26 2143.7,-134.82 2143.73,-141.82"/>
</g>
<!-- Node25 -->
<g id="node25" class="node">
<title>Node25</title>
<g id="a_node25"><a xlink:href="d__kankyo_8cpp.html" target="_top" xlink:title=" ">
<polygon fill="white" stroke="black" points="1053.5,-62 1053.5,-81 1154.5,-81 1154.5,-62 1053.5,-62"/>
<text text-anchor="middle" x="1104" y="-69" font-family="Helvetica,sans-Serif" font-size="10.00">src/d/d_kankyo.cpp</text>
</a>
</g>
</g>
<!-- Node18&#45;&gt;Node25 -->
<g id="edge29" class="edge">
<title>Node18&#45;&gt;Node25</title>
<path fill="none" stroke="midnightblue" d="M2143.85,-135.59C1927.85,-130.3 1352.7,-114.03 1164,-87 1154.24,-85.6 1143.75,-83.34 1134.31,-81.01"/>
<polygon fill="midnightblue" stroke="midnightblue" points="2143.78,-139.09 2153.86,-135.83 2143.95,-132.09 2143.78,-139.09"/>
</g>
<!-- Node26 -->
<g id="node26" class="node">
<title>Node26</title>
<g id="a_node26"><a xlink:href="d__kantera__icon__meter_8cpp.html" target="_top" xlink:title=" ">
<polygon fill="white" stroke="black" points="1172.5,-56.5 1172.5,-86.5 1279.5,-86.5 1279.5,-56.5 1172.5,-56.5"/>
<text text-anchor="start" x="1180.5" y="-74.5" font-family="Helvetica,sans-Serif" font-size="10.00">src/d/d_kantera_icon</text>
<text text-anchor="middle" x="1226" y="-63.5" font-family="Helvetica,sans-Serif" font-size="10.00">_meter.cpp</text>
</a>
</g>
</g>
<!-- Node18&#45;&gt;Node26 -->
<g id="edge30" class="edge">
<title>Node18&#45;&gt;Node26</title>
<path fill="none" stroke="midnightblue" d="M2143.88,-137.82C1979.66,-137.39 1602.39,-131.16 1289,-87 1286,-86.58 1282.93,-86.08 1279.84,-85.54"/>
<polygon fill="midnightblue" stroke="midnightblue" points="2143.9,-141.32 2153.91,-137.84 2143.92,-134.32 2143.9,-141.32"/>
</g>
<!-- Node27 -->
<g id="node27" class="node">
<title>Node27</title>
<g id="a_node27"><a xlink:href="d__kyeff_8cpp.html" target="_top" xlink:title=" ">
<polygon fill="white" stroke="black" points="1297.5,-62 1297.5,-81 1410.5,-81 1410.5,-62 1297.5,-62"/>
<text text-anchor="middle" x="1354" y="-69" font-family="Helvetica,sans-Serif" font-size="10.00">src/d/d_ky/d_kyeff.cpp</text>
</a>
</g>
</g>
<!-- Node18&#45;&gt;Node27 -->
<g id="edge31" class="edge">
<title>Node18&#45;&gt;Node27</title>
<path fill="none" stroke="midnightblue" d="M2143.44,-136.5C1996.46,-133.79 1682.35,-123.81 1420,-87 1409.54,-85.53 1398.28,-83.31 1388.07,-81.03"/>
<polygon fill="midnightblue" stroke="midnightblue" points="2143.67,-140 2153.73,-136.68 2143.8,-133 2143.67,-140"/>
</g>
<!-- Node28 -->
<g id="node28" class="node">
<title>Node28</title>
<g id="a_node28"><a xlink:href="d__meter__button_8cpp.html" target="_top" xlink:title=" ">
<polygon fill="white" stroke="black" points="1428.5,-56.5 1428.5,-86.5 1543.5,-86.5 1543.5,-56.5 1428.5,-56.5"/>
<text text-anchor="start" x="1436.5" y="-74.5" font-family="Helvetica,sans-Serif" font-size="10.00">src/d/d_meter/d_meter</text>
<text text-anchor="middle" x="1486" y="-63.5" font-family="Helvetica,sans-Serif" font-size="10.00">_button.cpp</text>
</a>
</g>
</g>
<!-- Node18&#45;&gt;Node28 -->
<g id="edge32" class="edge">
<title>Node18&#45;&gt;Node28</title>
<path fill="none" stroke="midnightblue" d="M2143.73,-134.97C2016.04,-130.25 1764.43,-117.65 1553,-87 1549.94,-86.56 1546.81,-86.05 1543.65,-85.51"/>
<polygon fill="midnightblue" stroke="midnightblue" points="2143.71,-138.47 2153.83,-135.33 2143.96,-131.47 2143.71,-138.47"/>
</g>
<!-- Node29 -->
<g id="node29" class="node">
<title>Node29</title>
<g id="a_node29"><a xlink:href="d__meter__haihai_8cpp.html" target="_top" xlink:title=" ">
<polygon fill="white" stroke="black" points="1561.5,-56.5 1561.5,-86.5 1676.5,-86.5 1676.5,-56.5 1561.5,-56.5"/>
<text text-anchor="start" x="1569.5" y="-74.5" font-family="Helvetica,sans-Serif" font-size="10.00">src/d/d_meter/d_meter</text>
<text text-anchor="middle" x="1619" y="-63.5" font-family="Helvetica,sans-Serif" font-size="10.00">_haihai.cpp</text>
</a>
</g>
</g>
<!-- Node18&#45;&gt;Node29 -->
<g id="edge33" class="edge">
<title>Node18&#45;&gt;Node29</title>
<path fill="none" stroke="midnightblue" d="M2143.54,-132.83C2036.94,-126.15 1846.99,-111.84 1686,-87 1682.94,-86.53 1679.81,-86 1676.66,-85.44"/>
<polygon fill="midnightblue" stroke="midnightblue" points="2143.39,-136.33 2153.59,-133.45 2143.83,-129.34 2143.39,-136.33"/>
</g>
<!-- Node30 -->
<g id="node30" class="node">
<title>Node30</title>
<g id="a_node30"><a xlink:href="d__meter__hakusha_8cpp.html" target="_top" xlink:title=" ">
<polygon fill="white" stroke="black" points="1694.5,-56.5 1694.5,-86.5 1809.5,-86.5 1809.5,-56.5 1694.5,-56.5"/>
<text text-anchor="start" x="1702.5" y="-74.5" font-family="Helvetica,sans-Serif" font-size="10.00">src/d/d_meter/d_meter</text>
<text text-anchor="middle" x="1752" y="-63.5" font-family="Helvetica,sans-Serif" font-size="10.00">_hakusha.cpp</text>
</a>
</g>
</g>
<!-- Node18&#45;&gt;Node30 -->
<g id="edge34" class="edge">
<title>Node18&#45;&gt;Node30</title>
<path fill="none" stroke="midnightblue" d="M2143.65,-129.4C2060.97,-120.85 1930.8,-105.98 1819,-87 1815.95,-86.48 1812.83,-85.92 1809.68,-85.33"/>
<polygon fill="midnightblue" stroke="midnightblue" points="2143.44,-132.9 2153.75,-130.44 2144.16,-125.94 2143.44,-132.9"/>
</g>
<!-- Node31 -->
<g id="node31" class="node">
<title>Node31</title>
<g id="a_node31"><a xlink:href="d__meter__map_8cpp.html" target="_top" xlink:title=" ">
<polygon fill="white" stroke="black" points="1827.5,-56.5 1827.5,-86.5 1942.5,-86.5 1942.5,-56.5 1827.5,-56.5"/>
<text text-anchor="start" x="1835.5" y="-74.5" font-family="Helvetica,sans-Serif" font-size="10.00">src/d/d_meter/d_meter</text>
<text text-anchor="middle" x="1885" y="-63.5" font-family="Helvetica,sans-Serif" font-size="10.00">_map.cpp</text>
</a>
</g>
</g>
<!-- Node18&#45;&gt;Node31 -->
<g id="edge35" class="edge">
<title>Node18&#45;&gt;Node31</title>
<path fill="none" stroke="midnightblue" d="M2143.95,-122.95C2089.32,-113.21 2016.3,-99.86 1952,-87 1948.97,-86.39 1945.86,-85.76 1942.72,-85.11"/>
<polygon fill="midnightblue" stroke="midnightblue" points="2143.47,-126.42 2153.93,-124.73 2144.69,-119.53 2143.47,-126.42"/>
</g>
<!-- Node32 -->
<g id="node32" class="node">
<title>Node32</title>
<g id="a_node32"><a xlink:href="d__meter__string_8cpp.html" target="_top" xlink:title=" ">
<polygon fill="white" stroke="black" points="1960.5,-56.5 1960.5,-86.5 2075.5,-86.5 2075.5,-56.5 1960.5,-56.5"/>
<text text-anchor="start" x="1968.5" y="-74.5" font-family="Helvetica,sans-Serif" font-size="10.00">src/d/d_meter/d_meter</text>
<text text-anchor="middle" x="2018" y="-63.5" font-family="Helvetica,sans-Serif" font-size="10.00">_string.cpp</text>
</a>
</g>
</g>
<!-- Node18&#45;&gt;Node32 -->
<g id="edge36" class="edge">
<title>Node18&#45;&gt;Node32</title>
<path fill="none" stroke="midnightblue" d="M2172.16,-120.44C2138.28,-109.91 2095.33,-96.55 2063.37,-86.61"/>
<polygon fill="midnightblue" stroke="midnightblue" points="2171.32,-123.85 2181.91,-123.48 2173.4,-117.16 2171.32,-123.85"/>
</g>
<!-- Node33 -->
<g id="node33" class="node">
<title>Node33</title>
<g id="a_node33"><a xlink:href="d__meter2__draw_8cpp.html" target="_top" xlink:title=" ">
<polygon fill="white" stroke="black" points="2093.5,-56.5 2093.5,-86.5 2218.5,-86.5 2218.5,-56.5 2093.5,-56.5"/>
<text text-anchor="start" x="2101.5" y="-74.5" font-family="Helvetica,sans-Serif" font-size="10.00">src/d/d_meter2/d_meter2</text>
<text text-anchor="middle" x="2156" y="-63.5" font-family="Helvetica,sans-Serif" font-size="10.00">_draw.cpp</text>
</a>
</g>
</g>
<!-- Node18&#45;&gt;Node33 -->
<g id="edge37" class="edge">
<title>Node18&#45;&gt;Node33</title>
<path fill="none" stroke="midnightblue" d="M2204.17,-116.6C2193.45,-106.78 2180.95,-95.34 2171.38,-86.58"/>
<polygon fill="midnightblue" stroke="midnightblue" points="2201.85,-119.22 2211.59,-123.4 2206.58,-114.06 2201.85,-119.22"/>
</g>
<!-- Node34 -->
<g id="node34" class="node">
<title>Node34</title>
<g id="a_node34"><a xlink:href="d__meter2__info_8cpp.html" target="_top" xlink:title=" ">
<polygon fill="white" stroke="black" points="2236.5,-56.5 2236.5,-86.5 2361.5,-86.5 2361.5,-56.5 2236.5,-56.5"/>
<text text-anchor="start" x="2244.5" y="-74.5" font-family="Helvetica,sans-Serif" font-size="10.00">src/d/d_meter2/d_meter2</text>
<text text-anchor="middle" x="2299" y="-63.5" font-family="Helvetica,sans-Serif" font-size="10.00">_info.cpp</text>
</a>
</g>
</g>
<!-- Node18&#45;&gt;Node34 -->
<g id="edge38" class="edge">
<title>Node18&#45;&gt;Node34</title>
<path fill="none" stroke="midnightblue" d="M2250.15,-116.6C2261.02,-106.78 2273.7,-95.34 2283.41,-86.58"/>
<polygon fill="midnightblue" stroke="midnightblue" points="2247.7,-114.1 2242.62,-123.4 2252.39,-119.29 2247.7,-114.1"/>
</g>
<!-- Node35 -->
<g id="node35" class="node">
<title>Node35</title>
<g id="a_node35"><a xlink:href="d__meter2_8cpp.html" target="_top" xlink:title=" ">
<polygon fill="white" stroke="black" points="2380,-62 2380,-81 2480,-81 2480,-62 2380,-62"/>
<text text-anchor="middle" x="2430" y="-69" font-family="Helvetica,sans-Serif" font-size="10.00">src/d/d_meter2.cpp</text>
</a>
</g>
</g>
<!-- Node18&#45;&gt;Node35 -->
<g id="edge39" class="edge">
<title>Node18&#45;&gt;Node35</title>
<path fill="none" stroke="midnightblue" d="M2280.81,-120.27C2320.37,-107.6 2372.43,-90.93 2403.43,-81.01"/>
<polygon fill="midnightblue" stroke="midnightblue" points="2279.5,-117.01 2271.05,-123.4 2281.64,-123.68 2279.5,-117.01"/>
</g>
<!-- Node36 -->
<g id="node36" class="node">
<title>Node36</title>
<g id="a_node36"><a xlink:href="d__model_8cpp.html" target="_top" xlink:title=" ">
<polygon fill="white" stroke="black" points="2498,-62 2498,-81 2594,-81 2594,-62 2498,-62"/>
<text text-anchor="middle" x="2546" y="-69" font-family="Helvetica,sans-Serif" font-size="10.00">src/d/d_model.cpp</text>
</a>
</g>
</g>
<!-- Node18&#45;&gt;Node36 -->
<g id="edge40" class="edge">
<title>Node18&#45;&gt;Node36</title>
<path fill="none" stroke="midnightblue" d="M2310.19,-122.75C2361.82,-113.28 2429.45,-100.3 2489,-87 2497.07,-85.2 2505.74,-83.08 2513.82,-81.04"/>
<polygon fill="midnightblue" stroke="midnightblue" points="2309.29,-119.36 2300.08,-124.6 2310.55,-126.25 2309.29,-119.36"/>
</g>
<!-- Node37 -->
<g id="node37" class="node">
<title>Node37</title>
<g id="a_node37"><a xlink:href="d__save_8cpp.html" target="_top" xlink:title=" ">
<polygon fill="white" stroke="black" points="2612.5,-62 2612.5,-81 2737.5,-81 2737.5,-62 2612.5,-62"/>
<text text-anchor="middle" x="2675" y="-69" font-family="Helvetica,sans-Serif" font-size="10.00">src/d/d_save/d_save.cpp</text>
</a>
</g>
</g>
<!-- Node18&#45;&gt;Node37 -->
<g id="edge41" class="edge">
<title>Node18&#45;&gt;Node37</title>
<path fill="none" stroke="midnightblue" d="M2310.39,-127.88C2386.74,-118.7 2502.76,-103.81 2603,-87 2613.44,-85.25 2624.68,-83.11 2635.1,-81.02"/>
<polygon fill="midnightblue" stroke="midnightblue" points="2309.86,-124.42 2300.35,-129.08 2310.69,-131.37 2309.86,-124.42"/>
</g>
<!-- Node38 -->
<g id="node38" class="node">
<title>Node38</title>
<g id="a_node38"><a xlink:href="d__save__HIO_8cpp.html" target="_top" xlink:title=" ">
<polygon fill="white" stroke="black" points="2755.5,-56.5 2755.5,-86.5 2862.5,-86.5 2862.5,-56.5 2755.5,-56.5"/>
<text text-anchor="start" x="2763.5" y="-74.5" font-family="Helvetica,sans-Serif" font-size="10.00">src/d/d_save/d_save</text>
<text text-anchor="middle" x="2809" y="-63.5" font-family="Helvetica,sans-Serif" font-size="10.00">_HIO.cpp</text>
</a>
</g>
</g>
<!-- Node18&#45;&gt;Node38 -->
<g id="edge42" class="edge">
<title>Node18&#45;&gt;Node38</title>
<path fill="none" stroke="midnightblue" d="M2310.2,-132.84C2413.24,-126.28 2593.91,-112.22 2747,-87 2749.73,-86.55 2752.51,-86.05 2755.32,-85.51"/>
<polygon fill="midnightblue" stroke="midnightblue" points="2309.93,-129.35 2300.17,-133.47 2310.37,-136.34 2309.93,-129.35"/>
</g>
<!-- Node39 -->
<g id="node39" class="node">
<title>Node39</title>
<g id="a_node39"><a xlink:href="d__stage_8cpp.html" target="_top" xlink:title=" ">
<polygon fill="white" stroke="black" points="2881,-62 2881,-81 2975,-81 2975,-62 2881,-62"/>
<text text-anchor="middle" x="2928" y="-69" font-family="Helvetica,sans-Serif" font-size="10.00">src/d/d_stage.cpp</text>
</a>
</g>
</g>
<!-- Node18&#45;&gt;Node39 -->
<g id="edge43" class="edge">
<title>Node18&#45;&gt;Node39</title>
<path fill="none" stroke="midnightblue" d="M2310.18,-135.64C2433.59,-131.83 2672.12,-120.44 2872,-87 2880.91,-85.51 2890.48,-83.27 2899.14,-81"/>
<polygon fill="midnightblue" stroke="midnightblue" points="2309.94,-132.14 2300.05,-135.94 2310.15,-139.14 2309.94,-132.14"/>
</g>
<!-- Node40 -->
<g id="node40" class="node">
<title>Node40</title>
<g id="a_node40"><a xlink:href="f__op__actor__mng_8cpp.html" target="_top" xlink:title=" ">
<polygon fill="white" stroke="black" points="2993.5,-56.5 2993.5,-86.5 3100.5,-86.5 3100.5,-56.5 2993.5,-56.5"/>
<text text-anchor="start" x="3001.5" y="-74.5" font-family="Helvetica,sans-Serif" font-size="10.00">src/f/f_op/f_op_actor</text>
<text text-anchor="middle" x="3047" y="-63.5" font-family="Helvetica,sans-Serif" font-size="10.00">_mng.cpp</text>
</a>
</g>
</g>
<!-- Node18&#45;&gt;Node40 -->
<g id="edge44" class="edge">
<title>Node18&#45;&gt;Node40</title>
<path fill="none" stroke="midnightblue" d="M2310.44,-136.28C2450.41,-133.26 2741.03,-122.83 2984,-87 2987.11,-86.54 2990.29,-86.01 2993.49,-85.43"/>
<polygon fill="midnightblue" stroke="midnightblue" points="2310.15,-132.78 2300.22,-136.49 2310.29,-139.78 2310.15,-132.78"/>
</g>
<!-- Node41 -->
<g id="node41" class="node">
<title>Node41</title>
<g id="a_node41"><a xlink:href="f__op__camera_8cpp.html" target="_top" xlink:title=" ">
<polygon fill="white" stroke="black" points="3118.5,-62 3118.5,-81 3253.5,-81 3253.5,-62 3118.5,-62"/>
<text text-anchor="middle" x="3186" y="-69" font-family="Helvetica,sans-Serif" font-size="10.00">src/f/f_op/f_op_camera.cpp</text>
</a>
</g>
</g>
<!-- Node18&#45;&gt;Node41 -->
<g id="edge45" class="edge">
<title>Node18&#45;&gt;Node41</title>
<path fill="none" stroke="midnightblue" d="M2310.32,-136.38C2467.34,-133.46 2817.54,-123.1 3110,-87 3122,-85.52 3134.95,-83.29 3146.71,-81.02"/>
<polygon fill="midnightblue" stroke="midnightblue" points="2310.2,-132.88 2300.26,-136.56 2310.33,-139.88 2310.2,-132.88"/>
</g>
<!-- Node42 -->
<g id="node42" class="node">
<title>Node42</title>
<g id="a_node42"><a xlink:href="f__op__kankyo_8cpp.html" target="_top" xlink:title=" ">
<polygon fill="white" stroke="black" points="3272,-62 3272,-81 3406,-81 3406,-62 3272,-62"/>
<text text-anchor="middle" x="3339" y="-69" font-family="Helvetica,sans-Serif" font-size="10.00">src/f/f_op/f_op_kankyo.cpp</text>
</a>
</g>
</g>
<!-- Node18&#45;&gt;Node42 -->
<g id="edge46" class="edge">
<title>Node18&#45;&gt;Node42</title>
<path fill="none" stroke="midnightblue" d="M2310.39,-137.38C2486.82,-136.26 2910.61,-129 3263,-87 3275.14,-85.55 3288.25,-83.3 3300.11,-81"/>
<polygon fill="midnightblue" stroke="midnightblue" points="2310.12,-133.88 2300.14,-137.44 2310.16,-140.88 2310.12,-133.88"/>
</g>
<!-- Node43 -->
<g id="node43" class="node">
<title>Node43</title>
<g id="a_node43"><a xlink:href="f__op__kankyo__mng_8cpp.html" target="_top" xlink:title=" ">
<polygon fill="white" stroke="black" points="3424,-56.5 3424,-86.5 3540,-86.5 3540,-56.5 3424,-56.5"/>
<text text-anchor="start" x="3432" y="-74.5" font-family="Helvetica,sans-Serif" font-size="10.00">src/f/f_op/f_op_kankyo</text>
<text text-anchor="middle" x="3482" y="-63.5" font-family="Helvetica,sans-Serif" font-size="10.00">_mng.cpp</text>
</a>
</g>
</g>
<!-- Node18&#45;&gt;Node43 -->
<g id="edge47" class="edge">
<title>Node18&#45;&gt;Node43</title>
<path fill="none" stroke="midnightblue" d="M2310.32,-135.81C2543.72,-130.78 3200.89,-114.51 3415,-87 3417.83,-86.64 3420.72,-86.21 3423.64,-85.74"/>
<polygon fill="midnightblue" stroke="midnightblue" points="2310.12,-132.31 2300.19,-136.03 2310.27,-139.31 2310.12,-132.31"/>
</g>
<!-- Node44 -->
<g id="node44" class="node">
<title>Node44</title>
<g id="a_node44"><a xlink:href="f__op__msg__mng_8cpp.html" target="_top" xlink:title=" ">
<polygon fill="white" stroke="black" points="3558,-56.5 3558,-86.5 3662,-86.5 3662,-56.5 3558,-56.5"/>
<text text-anchor="start" x="3566" y="-74.5" font-family="Helvetica,sans-Serif" font-size="10.00">src/f/f_op/f_op_msg</text>
<text text-anchor="middle" x="3610" y="-63.5" font-family="Helvetica,sans-Serif" font-size="10.00">_mng.cpp</text>
</a>
</g>
</g>
<!-- Node18&#45;&gt;Node44 -->
<g id="edge48" class="edge">
<title>Node18&#45;&gt;Node44</title>
<path fill="none" stroke="midnightblue" d="M2310.46,-136.44C2561.65,-132.92 3308.13,-119.91 3549,-87 3551.91,-86.6 3554.89,-86.13 3557.88,-85.6"/>
<polygon fill="midnightblue" stroke="midnightblue" points="2310.25,-132.95 2300.3,-136.58 2310.35,-139.94 2310.25,-132.95"/>
</g>
<!-- Node45 -->
<g id="node45" class="node">
<title>Node45</title>
<g id="a_node45"><a xlink:href="f__pc__manager_8cpp.html" target="_top" xlink:title=" ">
<polygon fill="white" stroke="black" points="3680,-62 3680,-81 3820,-81 3820,-62 3680,-62"/>
<text text-anchor="middle" x="3750" y="-69" font-family="Helvetica,sans-Serif" font-size="10.00">src/f/f_pc/f_pc_manager.cpp</text>
</a>
</g>
</g>
<!-- Node18&#45;&gt;Node45 -->
<g id="edge49" class="edge">
<title>Node18&#45;&gt;Node45</title>
<path fill="none" stroke="midnightblue" d="M2310.62,-136.19C2577.14,-131.75 3404.61,-115.95 3671,-87 3683.75,-85.61 3697.54,-83.35 3709.98,-81.02"/>
<polygon fill="midnightblue" stroke="midnightblue" points="2310.19,-132.69 2300.24,-136.36 2310.3,-139.69 2310.19,-132.69"/>
</g>
<!-- Node46 -->
<g id="node46" class="node">
<title>Node46</title>
<g id="a_node46"><a xlink:href="m__Do__audio_8cpp.html" target="_top" xlink:title=" ">
<polygon fill="white" stroke="black" points="3838,-62 3838,-81 3972,-81 3972,-62 3838,-62"/>
<text text-anchor="middle" x="3905" y="-69" font-family="Helvetica,sans-Serif" font-size="10.00">src/m_Do/m_Do_audio.cpp</text>
</a>
</g>
</g>
<!-- Node18&#45;&gt;Node46 -->
<g id="edge50" class="edge">
<title>Node18&#45;&gt;Node46</title>
<path fill="none" stroke="midnightblue" d="M2310.41,-136.6C2595.55,-133.26 3530.35,-119.99 3829,-87 3841.28,-85.64 3854.55,-83.39 3866.51,-81.06"/>
<polygon fill="midnightblue" stroke="midnightblue" points="2310.09,-133.1 2300.14,-136.72 2310.18,-140.1 2310.09,-133.1"/>
</g>
<!-- Node47 -->
<g id="node47" class="node">
<title>Node47</title>
<g id="a_node47"><a xlink:href="m__Do__graphic_8cpp.html" target="_top" xlink:title=" ">
<polygon fill="white" stroke="black" points="3990,-62 3990,-81 4132,-81 4132,-62 3990,-62"/>
<text text-anchor="middle" x="4061" y="-69" font-family="Helvetica,sans-Serif" font-size="10.00">src/m_Do/m_Do_graphic.cpp</text>
</a>
</g>
</g>
<!-- Node18&#45;&gt;Node47 -->
<g id="edge51" class="edge">
<title>Node18&#45;&gt;Node47</title>
<path fill="none" stroke="midnightblue" d="M2310.05,-136.77C2611.98,-133.85 3650.89,-121.47 3981,-87 3993.92,-85.65 4007.88,-83.4 4020.47,-81.07"/>
<polygon fill="midnightblue" stroke="midnightblue" points="2310.02,-133.27 2300.05,-136.86 2310.08,-140.27 2310.02,-133.27"/>
</g>
<!-- Node48 -->
<g id="node48" class="node">
<title>Node48</title>
<g id="a_node48"><a xlink:href="m__Do__lib_8cpp.html" target="_top" xlink:title=" ">
<polygon fill="white" stroke="black" points="4150,-62 4150,-81 4270,-81 4270,-62 4150,-62"/>
<text text-anchor="middle" x="4210" y="-69" font-family="Helvetica,sans-Serif" font-size="10.00">src/m_Do/m_Do_lib.cpp</text>
</a>
</g>
</g>
<!-- Node18&#45;&gt;Node48 -->
<g id="edge52" class="edge">
<title>Node18&#45;&gt;Node48</title>
<path fill="none" stroke="midnightblue" d="M2310.3,-137.31C2630,-136.25 3778.58,-129.51 4141,-87 4152.31,-85.67 4164.5,-83.4 4175.45,-81.04"/>
<polygon fill="midnightblue" stroke="midnightblue" points="2310.17,-133.81 2300.18,-137.34 2310.19,-140.81 2310.17,-133.81"/>
</g>
<!-- Node49 -->
<g id="node49" class="node">
<title>Node49</title>
<g id="a_node49"><a xlink:href="m__Do__machine__exception_8cpp.html" target="_top" xlink:title=" ">
<polygon fill="white" stroke="black" points="4288.5,-56.5 4288.5,-86.5 4417.5,-86.5 4417.5,-56.5 4288.5,-56.5"/>
<text text-anchor="start" x="4296.5" y="-74.5" font-family="Helvetica,sans-Serif" font-size="10.00">src/m_Do/m_Do_machine</text>
<text text-anchor="middle" x="4353" y="-63.5" font-family="Helvetica,sans-Serif" font-size="10.00">_exception.cpp</text>
</a>
</g>
</g>
<!-- Node18&#45;&gt;Node49 -->
<g id="edge53" class="edge">
<title>Node18&#45;&gt;Node49</title>
<path fill="none" stroke="midnightblue" d="M2310.09,-137.33C2643.84,-136.35 3887.74,-129.84 4279,-87 4281.99,-86.67 4285.05,-86.29 4288.12,-85.86"/>
<polygon fill="midnightblue" stroke="midnightblue" points="2310,-133.83 2300.01,-137.36 2310.02,-140.83 2310,-133.83"/>
</g>
<!-- Node65&#45;&gt;Node17 -->
<g id="edge56" class="edge">
<title>Node65&#45;&gt;Node17</title>
<path fill="none" stroke="midnightblue" d="M816,-247.11C816,-238.15 816,-228.32 816,-220.58"/>
<polygon fill="midnightblue" stroke="midnightblue" points="812.5,-247.4 816,-257.4 819.5,-247.4 812.5,-247.4"/>
</g>
</g>
</svg>
        <g id="navigator" transform="translate(0 0)" fill="#404254">
                <rect fill="#f2f5e9" fill-opacity="0.5" stroke="#606060" stroke-width=".5" x="0" y="0" width="60" height="60"/>
                <use id="zoomplus" xlink:href="#zoomPlus" x="17" y="9" onmousedown="handleZoom(evt,'in')"/>
                <use id="zoomminus" xlink:href="#zoomMin" x="42" y="9" onmousedown="handleZoom(evt,'out')"/>
                <use id="reset" xlink:href="#resetDef" x="30" y="36" onmousedown="handleReset()"/>
                <g id="arrowUp" xlink:href="#dirArrow" transform="translate(30 24)" onmousedown="handlePan(0,-1)">
                  <use xlink:href="#rim" fill="#404040">
                        <set attributeName="fill" to="#808080" begin="arrowUp.mouseover" end="arrowUp.mouseout"/>
                  </use>
                  <path fill="none" stroke="white" stroke-width="1.5" d="M0,-3.0v7 M-2.5,-0.5L0,-3.0L2.5,-0.5"/>
                </g>
                <g id="arrowRight" xlink:href="#dirArrow" transform="rotate(90) translate(36 -43)" onmousedown="handlePan(1,0)">
                  <use xlink:href="#rim" fill="#404040">
                        <set attributeName="fill" to="#808080" begin="arrowRight.mouseover" end="arrowRight.mouseout"/>
                  </use>
                  <path fill="none" stroke="white" stroke-width="1.5" d="M0,-3.0v7 M-2.5,-0.5L0,-3.0L2.5,-0.5"/>
                </g>
                <g id="arrowDown" xlink:href="#dirArrow" transform="rotate(180) translate(-30 -48)" onmousedown="handlePan(0,1)">
                  <use xlink:href="#rim" fill="#404040">
                        <set attributeName="fill" to="#808080" begin="arrowDown.mouseover" end="arrowDown.mouseout"/>
                  </use>
                  <path fill="none" stroke="white" stroke-width="1.5" d="M0,-3.0v7 M-2.5,-0.5L0,-3.0L2.5,-0.5"/>
                </g>
                <g id="arrowLeft" xlink:href="#dirArrow" transform="rotate(270) translate(-36 17)" onmousedown="handlePan(-1,0)">
                  <use xlink:href="#rim" fill="#404040">
                        <set attributeName="fill" to="#808080" begin="arrowLeft.mouseover" end="arrowLeft.mouseout"/>
                  </use>
                  <path fill="none" stroke="white" stroke-width="1.5" d="M0,-3.0v7 M-2.5,-0.5L0,-3.0L2.5,-0.5"/>
                </g>
        </g>
        <svg viewBox="0 0 15 15" width="100%" height="30px" preserveAspectRatio="xMaxYMin meet">
         <g id="arrow_out" transform="scale(0.3 0.3)">
          <a xlink:href="c__m3d__g__lin_8h__dep__incl_org.svg" target="_base">
           <rect id="button" ry="5" rx="5" y="6" x="6" height="38" width="38"
                fill="#f2f5e9" fill-opacity="0.5" stroke="#606060" stroke-width="1.0"/>
           <path id="arrow"
             d="M 11.500037,31.436501 C 11.940474,20.09759 22.043105,11.32322 32.158766,21.979434 L 37.068811,17.246167 C 37.068811,17.246167 37.088388,32 37.088388,32 L 22.160133,31.978069 C 22.160133,31.978069 26.997745,27.140456 26.997745,27.140456 C 18.528582,18.264221 13.291696,25.230495 11.500037,31.436501 z"
             style="fill:#404040;"/>
          </a>
         </g>
        </svg>
</svg>
