<?xml version="1.0" encoding="UTF-8" standalone="no"?>
<!DOCTYPE svg PUBLIC "-//W3C//DTD SVG 1.1//EN"
 "http://www.w3.org/Graphics/SVG/1.1/DTD/svg11.dtd">
<!-- Generated by graphviz version 2.44.0 ()
 -->
<!-- Title: include/SComponent/c_m3d_g_sph.h Pages: 1 -->
<svg width="5588pt" height="430pt"
 viewBox="0.00 0.00 5587.50 430.00" xmlns="http://www.w3.org/2000/svg" xmlns:xlink="http://www.w3.org/1999/xlink">
<g id="graph0" class="graph" transform="scale(1 1) rotate(0) translate(4 426)">
<title>include/SComponent/c_m3d_g_sph.h</title>
<polygon fill="white" stroke="transparent" points="-4,4 -4,-426 5583.5,-426 5583.5,4 -4,4"/>
<!-- Node1 -->
<g id="node1" class="node">
<title>Node1</title>
<g id="a_node1"><a xlink:title=" ">
<polygon fill="#bfbfbf" stroke="black" points="1771.5,-391.5 1771.5,-421.5 1878.5,-421.5 1878.5,-391.5 1771.5,-391.5"/>
<text text-anchor="start" x="1779.5" y="-409.5" font-family="Helvetica,sans-Serif" font-size="10.00">include/SComponent</text>
<text text-anchor="middle" x="1825" y="-398.5" font-family="Helvetica,sans-Serif" font-size="10.00">/c_m3d_g_sph.h</text>
</a>
</g>
</g>
<!-- Node2 -->
<g id="node2" class="node">
<title>Node2</title>
<g id="a_node2"><a xlink:href="d__camera_8cpp.html" target="_top" xlink:title=" ">
<polygon fill="white" stroke="black" points="0,-62 0,-81 102,-81 102,-62 0,-62"/>
<text text-anchor="middle" x="51" y="-69" font-family="Helvetica,sans-Serif" font-size="10.00">src/d/d_camera.cpp</text>
</a>
</g>
</g>
<!-- Node1&#45;&gt;Node2 -->
<g id="edge1" class="edge">
<title>Node1&#45;&gt;Node2</title>
<path fill="none" stroke="midnightblue" d="M1761.03,-405.54C1505.79,-404.86 574,-394.13 574,-273.5 574,-273.5 574,-273.5 574,-204.5 574,-201.34 202.53,-109.75 85.72,-81.03"/>
<polygon fill="midnightblue" stroke="midnightblue" points="1761.24,-409.04 1771.25,-405.56 1761.25,-402.04 1761.24,-409.04"/>
</g>
<!-- Node3 -->
<g id="node3" class="node">
<title>Node3</title>
<g id="a_node3"><a xlink:href="c__m3d__g__sph_8cpp.html" target="_top" xlink:title=" ">
<polygon fill="white" stroke="black" points="1682,-324.5 1682,-354.5 1816,-354.5 1816,-324.5 1682,-324.5"/>
<text text-anchor="start" x="1690" y="-342.5" font-family="Helvetica,sans-Serif" font-size="10.00">libs/SSystem/SComponent</text>
<text text-anchor="middle" x="1749" y="-331.5" font-family="Helvetica,sans-Serif" font-size="10.00">/c_m3d_g_sph.cpp</text>
</a>
</g>
</g>
<!-- Node1&#45;&gt;Node3 -->
<g id="edge2" class="edge">
<title>Node1&#45;&gt;Node3</title>
<path fill="none" stroke="midnightblue" d="M1800.89,-384.88C1789.34,-375.01 1775.81,-363.43 1765.46,-354.58"/>
<polygon fill="midnightblue" stroke="midnightblue" points="1798.63,-387.56 1808.51,-391.4 1803.18,-382.24 1798.63,-387.56"/>
</g>
<!-- Node4 -->
<g id="node4" class="node">
<title>Node4</title>
<g id="a_node4"><a xlink:href="c__m3d_8cpp.html" target="_top" xlink:title=" ">
<polygon fill="white" stroke="black" points="1834,-324.5 1834,-354.5 1968,-354.5 1968,-324.5 1834,-324.5"/>
<text text-anchor="start" x="1842" y="-342.5" font-family="Helvetica,sans-Serif" font-size="10.00">libs/SSystem/SComponent</text>
<text text-anchor="middle" x="1901" y="-331.5" font-family="Helvetica,sans-Serif" font-size="10.00">/c_m3d.cpp</text>
</a>
</g>
</g>
<!-- Node1&#45;&gt;Node4 -->
<g id="edge3" class="edge">
<title>Node1&#45;&gt;Node4</title>
<path fill="none" stroke="midnightblue" d="M1849.11,-384.88C1860.66,-375.01 1874.19,-363.43 1884.54,-354.58"/>
<polygon fill="midnightblue" stroke="midnightblue" points="1846.82,-382.24 1841.49,-391.4 1851.37,-387.56 1846.82,-382.24"/>
</g>
<!-- Node5 -->
<g id="node5" class="node">
<title>Node5</title>
<g id="a_node5"><a xlink:href="c__cc__d_8h.html" target="_top" xlink:title=" ">
<polygon fill="white" stroke="black" points="2526.5,-324.5 2526.5,-354.5 2633.5,-354.5 2633.5,-324.5 2526.5,-324.5"/>
<text text-anchor="start" x="2534.5" y="-342.5" font-family="Helvetica,sans-Serif" font-size="10.00">include/SComponent</text>
<text text-anchor="middle" x="2580" y="-331.5" font-family="Helvetica,sans-Serif" font-size="10.00">/c_cc_d/c_cc_d.h</text>
</a>
</g>
</g>
<!-- Node1&#45;&gt;Node5 -->
<g id="edge4" class="edge">
<title>Node1&#45;&gt;Node5</title>
<path fill="none" stroke="midnightblue" d="M1888.83,-400C2034.79,-387.44 2390.73,-356.8 2526.33,-345.12"/>
<polygon fill="midnightblue" stroke="midnightblue" points="1888.36,-396.53 1878.69,-400.88 1888.96,-403.51 1888.36,-396.53"/>
</g>
<!-- Node6 -->
<g id="node6" class="node">
<title>Node6</title>
<g id="a_node6"><a xlink:href="d__cc__d_8h.html" target="_top" xlink:title=" ">
<polygon fill="white" stroke="black" points="2733,-196 2733,-215 2855,-215 2855,-196 2733,-196"/>
<text text-anchor="middle" x="2794" y="-203" font-family="Helvetica,sans-Serif" font-size="10.00">include/d/d_cc/d_cc_d.h</text>
</a>
</g>
</g>
<!-- Node5&#45;&gt;Node6 -->
<g id="edge5" class="edge">
<title>Node5&#45;&gt;Node6</title>
<path fill="none" stroke="midnightblue" d="M2640.22,-321.08C2663.36,-312.93 2689.39,-301.91 2711,-288 2743.6,-267.01 2773.99,-231.66 2787.14,-215.3"/>
<polygon fill="midnightblue" stroke="midnightblue" points="2638.83,-317.86 2630.5,-324.4 2641.09,-324.48 2638.83,-317.86"/>
</g>
<!-- Node10 -->
<g id="node10" class="node">
<title>Node10</title>
<g id="a_node10"><a xlink:href="d__cc__mass__s_8h.html" target="_top" xlink:title=" ">
<polygon fill="white" stroke="black" points="2448,-257.5 2448,-287.5 2576,-287.5 2576,-257.5 2448,-257.5"/>
<text text-anchor="start" x="2456" y="-275.5" font-family="Helvetica,sans-Serif" font-size="10.00">include/d/d_cc/d_cc</text>
<text text-anchor="middle" x="2512" y="-264.5" font-family="Helvetica,sans-Serif" font-size="10.00">_mass_s/d_cc_mass_s.h</text>
</a>
</g>
</g>
<!-- Node5&#45;&gt;Node10 -->
<g id="edge9" class="edge">
<title>Node5&#45;&gt;Node10</title>
<path fill="none" stroke="midnightblue" d="M2557.83,-317.31C2547.63,-307.56 2535.81,-296.26 2526.73,-287.58"/>
<polygon fill="midnightblue" stroke="midnightblue" points="2555.6,-320.02 2565.25,-324.4 2560.43,-314.96 2555.6,-320.02"/>
</g>
<!-- Node58 -->
<g id="node50" class="node">
<title>Node58</title>
<g id="a_node50"><a xlink:href="c__cc__s_8h.html" target="_top" xlink:title=" ">
<polygon fill="white" stroke="black" points="2594.5,-257.5 2594.5,-287.5 2701.5,-287.5 2701.5,-257.5 2594.5,-257.5"/>
<text text-anchor="start" x="2602.5" y="-275.5" font-family="Helvetica,sans-Serif" font-size="10.00">include/SComponent</text>
<text text-anchor="middle" x="2648" y="-264.5" font-family="Helvetica,sans-Serif" font-size="10.00">/c_cc_s/c_cc_s.h</text>
</a>
</g>
</g>
<!-- Node5&#45;&gt;Node58 -->
<g id="edge52" class="edge">
<title>Node5&#45;&gt;Node58</title>
<path fill="none" stroke="midnightblue" d="M2602.17,-317.31C2612.37,-307.56 2624.19,-296.26 2633.27,-287.58"/>
<polygon fill="midnightblue" stroke="midnightblue" points="2599.57,-314.96 2594.75,-324.4 2604.4,-320.02 2599.57,-314.96"/>
</g>
<!-- Node7 -->
<g id="node7" class="node">
<title>Node7</title>
<g id="a_node7"><a xlink:href="d__a__alink_8h.html" target="_top" xlink:title=" ">
<polygon fill="white" stroke="black" points="5417.5,-56.5 5417.5,-86.5 5536.5,-86.5 5536.5,-56.5 5417.5,-56.5"/>
<text text-anchor="start" x="5425.5" y="-74.5" font-family="Helvetica,sans-Serif" font-size="10.00">include/d/d_a/d_a_alink</text>
<text text-anchor="middle" x="5477" y="-63.5" font-family="Helvetica,sans-Serif" font-size="10.00">/d_a_alink.h</text>
</a>
</g>
</g>
<!-- Node6&#45;&gt;Node7 -->
<g id="edge6" class="edge">
<title>Node6&#45;&gt;Node7</title>
<path fill="none" stroke="midnightblue" d="M2865.36,-202.72C3230.36,-193.41 4891.19,-148.32 5403,-87 5407.68,-86.44 5412.51,-85.75 5417.35,-84.98"/>
<polygon fill="midnightblue" stroke="midnightblue" points="2865.1,-199.23 2855.19,-202.98 2865.28,-206.22 2865.1,-199.23"/>
</g>
<!-- Node8 -->
<g id="node8" class="node">
<title>Node8</title>
<g id="a_node8"><a xlink:href="d__attention_8cpp.html" target="_top" xlink:title=" ">
<polygon fill="white" stroke="black" points="5335.5,-0.5 5335.5,-19.5 5442.5,-19.5 5442.5,-0.5 5335.5,-0.5"/>
<text text-anchor="middle" x="5389" y="-7.5" font-family="Helvetica,sans-Serif" font-size="10.00">src/d/d_attention.cpp</text>
</a>
</g>
</g>
<!-- Node7&#45;&gt;Node8 -->
<g id="edge7" class="edge">
<title>Node7&#45;&gt;Node8</title>
<path fill="none" stroke="midnightblue" d="M5447.83,-50.78C5432.23,-40.23 5413.82,-27.78 5401.8,-19.66"/>
<polygon fill="midnightblue" stroke="midnightblue" points="5445.9,-53.7 5456.15,-56.4 5449.82,-47.9 5445.9,-53.7"/>
</g>
<!-- Node9 -->
<g id="node9" class="node">
<title>Node9</title>
<g id="a_node9"><a xlink:href="d__a__alink_8cpp.html" target="_top" xlink:title=" ">
<polygon fill="white" stroke="black" points="5460.5,-0.5 5460.5,-19.5 5579.5,-19.5 5579.5,-0.5 5460.5,-0.5"/>
<text text-anchor="middle" x="5520" y="-7.5" font-family="Helvetica,sans-Serif" font-size="10.00">src/d/d_a/d_a_alink.cpp</text>
</a>
</g>
</g>
<!-- Node7&#45;&gt;Node9 -->
<g id="edge8" class="edge">
<title>Node7&#45;&gt;Node9</title>
<path fill="none" stroke="midnightblue" d="M5493.19,-48.1C5500.35,-38.19 5508.36,-27.11 5513.74,-19.66"/>
<polygon fill="midnightblue" stroke="midnightblue" points="5490.21,-46.24 5487.19,-56.4 5495.88,-50.34 5490.21,-46.24"/>
</g>
<!-- Node11 -->
<g id="node11" class="node">
<title>Node11</title>
<g id="a_node11"><a xlink:href="d__cc__s_8h.html" target="_top" xlink:title=" ">
<polygon fill="white" stroke="black" points="2556,-190.5 2556,-220.5 2660,-220.5 2660,-190.5 2556,-190.5"/>
<text text-anchor="start" x="2564" y="-208.5" font-family="Helvetica,sans-Serif" font-size="10.00">include/d/d_cc/d_cc</text>
<text text-anchor="middle" x="2608" y="-197.5" font-family="Helvetica,sans-Serif" font-size="10.00">_s/d_cc_s.h</text>
</a>
</g>
</g>
<!-- Node10&#45;&gt;Node11 -->
<g id="edge10" class="edge">
<title>Node10&#45;&gt;Node11</title>
<path fill="none" stroke="midnightblue" d="M2541.19,-251.73C2556.05,-241.68 2573.76,-229.68 2587.21,-220.58"/>
<polygon fill="midnightblue" stroke="midnightblue" points="2539.15,-248.89 2532.83,-257.4 2543.07,-254.69 2539.15,-248.89"/>
</g>
<!-- Node12 -->
<g id="node12" class="node">
<title>Node12</title>
<g id="a_node12"><a xlink:href="d__com__inf__game_8h.html" target="_top" xlink:title=" ">
<polygon fill="white" stroke="red" points="2535,-123.5 2535,-153.5 2681,-153.5 2681,-123.5 2535,-123.5"/>
<text text-anchor="start" x="2543" y="-141.5" font-family="Helvetica,sans-Serif" font-size="10.00">include/d/d_com/d_com</text>
<text text-anchor="middle" x="2608" y="-130.5" font-family="Helvetica,sans-Serif" font-size="10.00">_inf_game/d_com_inf_game.h</text>
</a>
</g>
</g>
<!-- Node11&#45;&gt;Node12 -->
<g id="edge11" class="edge">
<title>Node11&#45;&gt;Node12</title>
<path fill="none" stroke="midnightblue" d="M2608,-180.11C2608,-171.15 2608,-161.32 2608,-153.58"/>
<polygon fill="midnightblue" stroke="midnightblue" points="2604.5,-180.4 2608,-190.4 2611.5,-180.4 2604.5,-180.4"/>
</g>
<!-- Node12&#45;&gt;Node2 -->
<g id="edge13" class="edge">
<title>Node12&#45;&gt;Node2</title>
<path fill="none" stroke="midnightblue" d="M2524.79,-136.89C2118.67,-133.77 354.28,-118.48 111,-87 101.01,-85.71 90.27,-83.41 80.67,-81.02"/>
<polygon fill="midnightblue" stroke="midnightblue" points="2524.96,-140.39 2534.99,-136.97 2525.02,-133.39 2524.96,-140.39"/>
</g>
<!-- Node12&#45;&gt;Node7 -->
<g id="edge51" class="edge">
<title>Node12&#45;&gt;Node7</title>
<path fill="none" stroke="midnightblue" d="M2691.35,-136.87C3126.48,-133.44 5127.96,-116.2 5403,-87 5407.69,-86.5 5412.52,-85.86 5417.36,-85.12"/>
<polygon fill="midnightblue" stroke="midnightblue" points="2691.03,-133.37 2681.05,-136.95 2691.08,-140.37 2691.03,-133.37"/>
</g>
<!-- Node12&#45;&gt;Node8 -->
<g id="edge12" class="edge">
<title>Node12&#45;&gt;Node8</title>
<path fill="none" stroke="midnightblue" d="M2691.28,-136.66C3149.41,-131.97 5343.11,-108.39 5370,-87 5390.43,-70.74 5390.9,-36.12 5389.86,-19.83"/>
<polygon fill="midnightblue" stroke="midnightblue" points="2691.07,-133.16 2681.1,-136.77 2691.14,-140.16 2691.07,-133.16"/>
</g>
<!-- Node13 -->
<g id="node13" class="node">
<title>Node13</title>
<g id="a_node13"><a xlink:href="d__com__inf__game_8cpp.html" target="_top" xlink:title=" ">
<polygon fill="white" stroke="black" points="120.5,-56.5 120.5,-86.5 239.5,-86.5 239.5,-56.5 120.5,-56.5"/>
<text text-anchor="start" x="128.5" y="-74.5" font-family="Helvetica,sans-Serif" font-size="10.00">src/d/d_com/d_com_inf</text>
<text text-anchor="middle" x="180" y="-63.5" font-family="Helvetica,sans-Serif" font-size="10.00">_game.cpp</text>
</a>
</g>
</g>
<!-- Node12&#45;&gt;Node13 -->
<g id="edge14" class="edge">
<title>Node12&#45;&gt;Node13</title>
<path fill="none" stroke="midnightblue" d="M2524.52,-137.83C2159.59,-138.92 702.48,-139.84 248,-87 245.24,-86.68 242.43,-86.3 239.6,-85.87"/>
<polygon fill="midnightblue" stroke="midnightblue" points="2524.75,-141.32 2534.74,-137.79 2524.73,-134.32 2524.75,-141.32"/>
</g>
<!-- Node14 -->
<g id="node14" class="node">
<title>Node14</title>
<g id="a_node14"><a xlink:href="d__file__sel__info_8cpp.html" target="_top" xlink:title=" ">
<polygon fill="white" stroke="black" points="257.5,-56.5 257.5,-86.5 346.5,-86.5 346.5,-56.5 257.5,-56.5"/>
<text text-anchor="start" x="265.5" y="-74.5" font-family="Helvetica,sans-Serif" font-size="10.00">src/d/d_file/d_file</text>
<text text-anchor="middle" x="302" y="-63.5" font-family="Helvetica,sans-Serif" font-size="10.00">_sel_info.cpp</text>
</a>
</g>
</g>
<!-- Node12&#45;&gt;Node14 -->
<g id="edge15" class="edge">
<title>Node12&#45;&gt;Node14</title>
<path fill="none" stroke="midnightblue" d="M2524.64,-136.84C2143.09,-133.65 572.43,-118.69 355,-87 352.26,-86.6 349.47,-86.11 346.66,-85.54"/>
<polygon fill="midnightblue" stroke="midnightblue" points="2524.75,-140.34 2534.78,-136.92 2524.81,-133.34 2524.75,-140.34"/>
</g>
<!-- Node15 -->
<g id="node15" class="node">
<title>Node15</title>
<g id="a_node15"><a xlink:href="d__item_8cpp.html" target="_top" xlink:title=" ">
<polygon fill="white" stroke="black" points="364.5,-62 364.5,-81 485.5,-81 485.5,-62 364.5,-62"/>
<text text-anchor="middle" x="425" y="-69" font-family="Helvetica,sans-Serif" font-size="10.00">src/d/d_item/d_item.cpp</text>
</a>
</g>
</g>
<!-- Node12&#45;&gt;Node15 -->
<g id="edge16" class="edge">
<title>Node12&#45;&gt;Node15</title>
<path fill="none" stroke="midnightblue" d="M2524.93,-137.55C2184.86,-137.43 897.78,-133.85 494,-87 482.69,-85.69 470.49,-83.42 459.54,-81.05"/>
<polygon fill="midnightblue" stroke="midnightblue" points="2524.96,-141.05 2534.96,-137.55 2524.96,-134.05 2524.96,-141.05"/>
</g>
<!-- Node16 -->
<g id="node16" class="node">
<title>Node16</title>
<g id="a_node16"><a xlink:href="d__kankyo__rain_8cpp.html" target="_top" xlink:title=" ">
<polygon fill="white" stroke="black" points="503.5,-56.5 503.5,-86.5 630.5,-86.5 630.5,-56.5 503.5,-56.5"/>
<text text-anchor="start" x="511.5" y="-74.5" font-family="Helvetica,sans-Serif" font-size="10.00">src/d/d_kankyo/d_kankyo</text>
<text text-anchor="middle" x="567" y="-63.5" font-family="Helvetica,sans-Serif" font-size="10.00">_rain.cpp</text>
</a>
</g>
</g>
<!-- Node12&#45;&gt;Node16 -->
<g id="edge17" class="edge">
<title>Node12&#45;&gt;Node16</title>
<path fill="none" stroke="midnightblue" d="M2524.53,-137.28C2198.8,-136.14 1012.86,-129.12 639,-87 636.21,-86.69 633.37,-86.32 630.51,-85.91"/>
<polygon fill="midnightblue" stroke="midnightblue" points="2524.82,-140.78 2534.83,-137.32 2524.84,-133.78 2524.82,-140.78"/>
</g>
<!-- Node17 -->
<g id="node17" class="node">
<title>Node17</title>
<g id="a_node17"><a xlink:href="d__kankyo__wether_8cpp.html" target="_top" xlink:title=" ">
<polygon fill="white" stroke="black" points="648.5,-56.5 648.5,-86.5 775.5,-86.5 775.5,-56.5 648.5,-56.5"/>
<text text-anchor="start" x="656.5" y="-74.5" font-family="Helvetica,sans-Serif" font-size="10.00">src/d/d_kankyo/d_kankyo</text>
<text text-anchor="middle" x="712" y="-63.5" font-family="Helvetica,sans-Serif" font-size="10.00">_wether.cpp</text>
</a>
</g>
</g>
<!-- Node12&#45;&gt;Node17 -->
<g id="edge18" class="edge">
<title>Node12&#45;&gt;Node17</title>
<path fill="none" stroke="midnightblue" d="M2524.53,-137.09C2214.3,-135.25 1128,-126.11 784,-87 781.21,-86.68 778.37,-86.31 775.51,-85.9"/>
<polygon fill="midnightblue" stroke="midnightblue" points="2524.77,-140.59 2534.79,-137.15 2524.82,-133.59 2524.77,-140.59"/>
</g>
<!-- Node18 -->
<g id="node18" class="node">
<title>Node18</title>
<g id="a_node18"><a xlink:href="d__kankyo_8cpp.html" target="_top" xlink:title=" ">
<polygon fill="white" stroke="black" points="793.5,-62 793.5,-81 894.5,-81 894.5,-62 793.5,-62"/>
<text text-anchor="middle" x="844" y="-69" font-family="Helvetica,sans-Serif" font-size="10.00">src/d/d_kankyo.cpp</text>
</a>
</g>
</g>
<!-- Node12&#45;&gt;Node18 -->
<g id="edge19" class="edge">
<title>Node12&#45;&gt;Node18</title>
<path fill="none" stroke="midnightblue" d="M2524.74,-137.36C2227.84,-136.51 1221.81,-130.4 903,-87 893.28,-85.68 882.84,-83.4 873.48,-81.04"/>
<polygon fill="midnightblue" stroke="midnightblue" points="2524.99,-140.86 2535,-137.39 2525.01,-133.86 2524.99,-140.86"/>
</g>
<!-- Node19 -->
<g id="node19" class="node">
<title>Node19</title>
<g id="a_node19"><a xlink:href="d__kantera__icon__meter_8cpp.html" target="_top" xlink:title=" ">
<polygon fill="white" stroke="black" points="912.5,-56.5 912.5,-86.5 1019.5,-86.5 1019.5,-56.5 912.5,-56.5"/>
<text text-anchor="start" x="920.5" y="-74.5" font-family="Helvetica,sans-Serif" font-size="10.00">src/d/d_kantera_icon</text>
<text text-anchor="middle" x="966" y="-63.5" font-family="Helvetica,sans-Serif" font-size="10.00">_meter.cpp</text>
</a>
</g>
</g>
<!-- Node12&#45;&gt;Node19 -->
<g id="edge20" class="edge">
<title>Node12&#45;&gt;Node19</title>
<path fill="none" stroke="midnightblue" d="M2524.72,-137.01C2242.18,-135.01 1321.47,-125.62 1028,-87 1025.26,-86.64 1022.46,-86.21 1019.65,-85.73"/>
<polygon fill="midnightblue" stroke="midnightblue" points="2524.87,-140.51 2534.9,-137.08 2524.92,-133.51 2524.87,-140.51"/>
</g>
<!-- Node20 -->
<g id="node20" class="node">
<title>Node20</title>
<g id="a_node20"><a xlink:href="d__kyeff_8cpp.html" target="_top" xlink:title=" ">
<polygon fill="white" stroke="black" points="1037.5,-62 1037.5,-81 1150.5,-81 1150.5,-62 1037.5,-62"/>
<text text-anchor="middle" x="1094" y="-69" font-family="Helvetica,sans-Serif" font-size="10.00">src/d/d_ky/d_kyeff.cpp</text>
</a>
</g>
</g>
<!-- Node12&#45;&gt;Node20 -->
<g id="edge21" class="edge">
<title>Node12&#45;&gt;Node20</title>
<path fill="none" stroke="midnightblue" d="M2524.9,-136.62C2258.24,-133.48 1426,-121.14 1159,-87 1148.45,-85.65 1137.09,-83.4 1126.86,-81.07"/>
<polygon fill="midnightblue" stroke="midnightblue" points="2524.86,-140.12 2534.9,-136.74 2524.94,-133.12 2524.86,-140.12"/>
</g>
<!-- Node21 -->
<g id="node21" class="node">
<title>Node21</title>
<g id="a_node21"><a xlink:href="d__meter__button_8cpp.html" target="_top" xlink:title=" ">
<polygon fill="white" stroke="black" points="1168.5,-56.5 1168.5,-86.5 1283.5,-86.5 1283.5,-56.5 1168.5,-56.5"/>
<text text-anchor="start" x="1176.5" y="-74.5" font-family="Helvetica,sans-Serif" font-size="10.00">src/d/d_meter/d_meter</text>
<text text-anchor="middle" x="1226" y="-63.5" font-family="Helvetica,sans-Serif" font-size="10.00">_button.cpp</text>
</a>
</g>
</g>
<!-- Node12&#45;&gt;Node21 -->
<g id="edge22" class="edge">
<title>Node12&#45;&gt;Node21</title>
<path fill="none" stroke="midnightblue" d="M2524.51,-136.24C2274.1,-132.15 1531.91,-117.71 1292,-87 1289.32,-86.66 1286.6,-86.26 1283.85,-85.82"/>
<polygon fill="midnightblue" stroke="midnightblue" points="2524.58,-139.74 2534.64,-136.4 2524.7,-132.74 2524.58,-139.74"/>
</g>
<!-- Node22 -->
<g id="node22" class="node">
<title>Node22</title>
<g id="a_node22"><a xlink:href="d__meter__haihai_8cpp.html" target="_top" xlink:title=" ">
<polygon fill="white" stroke="black" points="1301.5,-56.5 1301.5,-86.5 1416.5,-86.5 1416.5,-56.5 1301.5,-56.5"/>
<text text-anchor="start" x="1309.5" y="-74.5" font-family="Helvetica,sans-Serif" font-size="10.00">src/d/d_meter/d_meter</text>
<text text-anchor="middle" x="1359" y="-63.5" font-family="Helvetica,sans-Serif" font-size="10.00">_haihai.cpp</text>
</a>
</g>
</g>
<!-- Node12&#45;&gt;Node22 -->
<g id="edge23" class="edge">
<title>Node12&#45;&gt;Node22</title>
<path fill="none" stroke="midnightblue" d="M2524.62,-135.82C2291.82,-130.85 1638.04,-114.74 1425,-87 1422.32,-86.65 1419.6,-86.25 1416.85,-85.8"/>
<polygon fill="midnightblue" stroke="midnightblue" points="2524.64,-139.33 2534.72,-136.04 2524.79,-132.33 2524.64,-139.33"/>
</g>
<!-- Node23 -->
<g id="node23" class="node">
<title>Node23</title>
<g id="a_node23"><a xlink:href="d__meter__hakusha_8cpp.html" target="_top" xlink:title=" ">
<polygon fill="white" stroke="black" points="1434.5,-56.5 1434.5,-86.5 1549.5,-86.5 1549.5,-56.5 1434.5,-56.5"/>
<text text-anchor="start" x="1442.5" y="-74.5" font-family="Helvetica,sans-Serif" font-size="10.00">src/d/d_meter/d_meter</text>
<text text-anchor="middle" x="1492" y="-63.5" font-family="Helvetica,sans-Serif" font-size="10.00">_hakusha.cpp</text>
</a>
</g>
</g>
<!-- Node12&#45;&gt;Node23 -->
<g id="edge24" class="edge">
<title>Node12&#45;&gt;Node23</title>
<path fill="none" stroke="midnightblue" d="M2524.65,-138.23C2346.42,-138.77 1915.37,-134.51 1558,-87 1555.33,-86.64 1552.6,-86.24 1549.85,-85.79"/>
<polygon fill="midnightblue" stroke="midnightblue" points="2524.76,-141.73 2534.74,-138.2 2524.73,-134.73 2524.76,-141.73"/>
</g>
<!-- Node24 -->
<g id="node24" class="node">
<title>Node24</title>
<g id="a_node24"><a xlink:href="d__meter__map_8cpp.html" target="_top" xlink:title=" ">
<polygon fill="white" stroke="black" points="1567.5,-56.5 1567.5,-86.5 1682.5,-86.5 1682.5,-56.5 1567.5,-56.5"/>
<text text-anchor="start" x="1575.5" y="-74.5" font-family="Helvetica,sans-Serif" font-size="10.00">src/d/d_meter/d_meter</text>
<text text-anchor="middle" x="1625" y="-63.5" font-family="Helvetica,sans-Serif" font-size="10.00">_map.cpp</text>
</a>
</g>
</g>
<!-- Node12&#45;&gt;Node24 -->
<g id="edge25" class="edge">
<title>Node12&#45;&gt;Node24</title>
<path fill="none" stroke="midnightblue" d="M2524.46,-137.39C2362.78,-136.19 1996.11,-128.64 1691,-87 1688.33,-86.64 1685.6,-86.22 1682.85,-85.76"/>
<polygon fill="midnightblue" stroke="midnightblue" points="2524.79,-140.9 2534.81,-137.46 2524.84,-133.9 2524.79,-140.9"/>
</g>
<!-- Node25 -->
<g id="node25" class="node">
<title>Node25</title>
<g id="a_node25"><a xlink:href="d__meter__string_8cpp.html" target="_top" xlink:title=" ">
<polygon fill="white" stroke="black" points="1700.5,-56.5 1700.5,-86.5 1815.5,-86.5 1815.5,-56.5 1700.5,-56.5"/>
<text text-anchor="start" x="1708.5" y="-74.5" font-family="Helvetica,sans-Serif" font-size="10.00">src/d/d_meter/d_meter</text>
<text text-anchor="middle" x="1758" y="-63.5" font-family="Helvetica,sans-Serif" font-size="10.00">_string.cpp</text>
</a>
</g>
</g>
<!-- Node12&#45;&gt;Node25 -->
<g id="edge26" class="edge">
<title>Node12&#45;&gt;Node25</title>
<path fill="none" stroke="midnightblue" d="M2524.87,-136.29C2381.27,-133.27 2077.72,-122.83 1824,-87 1821.33,-86.62 1818.6,-86.2 1815.86,-85.73"/>
<polygon fill="midnightblue" stroke="midnightblue" points="2524.87,-139.79 2534.93,-136.49 2525.01,-132.79 2524.87,-139.79"/>
</g>
<!-- Node26 -->
<g id="node26" class="node">
<title>Node26</title>
<g id="a_node26"><a xlink:href="d__meter2__draw_8cpp.html" target="_top" xlink:title=" ">
<polygon fill="white" stroke="black" points="1833.5,-56.5 1833.5,-86.5 1958.5,-86.5 1958.5,-56.5 1833.5,-56.5"/>
<text text-anchor="start" x="1841.5" y="-74.5" font-family="Helvetica,sans-Serif" font-size="10.00">src/d/d_meter2/d_meter2</text>
<text text-anchor="middle" x="1896" y="-63.5" font-family="Helvetica,sans-Serif" font-size="10.00">_draw.cpp</text>
</a>
</g>
</g>
<!-- Node12&#45;&gt;Node26 -->
<g id="edge27" class="edge">
<title>Node12&#45;&gt;Node26</title>
<path fill="none" stroke="midnightblue" d="M2524.55,-134.2C2401.88,-128.61 2165.9,-115.04 1967,-87 1964.26,-86.61 1961.47,-86.19 1958.65,-85.73"/>
<polygon fill="midnightblue" stroke="midnightblue" points="2524.47,-137.7 2534.62,-134.65 2524.79,-130.71 2524.47,-137.7"/>
</g>
<!-- Node27 -->
<g id="node27" class="node">
<title>Node27</title>
<g id="a_node27"><a xlink:href="d__meter2__info_8cpp.html" target="_top" xlink:title=" ">
<polygon fill="white" stroke="black" points="1976.5,-56.5 1976.5,-86.5 2101.5,-86.5 2101.5,-56.5 1976.5,-56.5"/>
<text text-anchor="start" x="1984.5" y="-74.5" font-family="Helvetica,sans-Serif" font-size="10.00">src/d/d_meter2/d_meter2</text>
<text text-anchor="middle" x="2039" y="-63.5" font-family="Helvetica,sans-Serif" font-size="10.00">_info.cpp</text>
</a>
</g>
</g>
<!-- Node12&#45;&gt;Node27 -->
<g id="edge28" class="edge">
<title>Node12&#45;&gt;Node27</title>
<path fill="none" stroke="midnightblue" d="M2524.64,-131.53C2425.65,-123.86 2255.74,-108.87 2111,-87 2107.97,-86.54 2104.88,-86.04 2101.76,-85.51"/>
<polygon fill="midnightblue" stroke="midnightblue" points="2524.63,-135.04 2534.87,-132.31 2525.17,-128.06 2524.63,-135.04"/>
</g>
<!-- Node28 -->
<g id="node28" class="node">
<title>Node28</title>
<g id="a_node28"><a xlink:href="d__meter2_8cpp.html" target="_top" xlink:title=" ">
<polygon fill="white" stroke="black" points="2120,-62 2120,-81 2220,-81 2220,-62 2120,-62"/>
<text text-anchor="middle" x="2170" y="-69" font-family="Helvetica,sans-Serif" font-size="10.00">src/d/d_meter2.cpp</text>
</a>
</g>
</g>
<!-- Node12&#45;&gt;Node28 -->
<g id="edge29" class="edge">
<title>Node12&#45;&gt;Node28</title>
<path fill="none" stroke="midnightblue" d="M2524.84,-129.05C2447.77,-120.59 2330.13,-106.11 2229,-87 2220.19,-85.34 2210.73,-83.18 2202.01,-81.04"/>
<polygon fill="midnightblue" stroke="midnightblue" points="2524.65,-132.55 2534.97,-130.15 2525.41,-125.59 2524.65,-132.55"/>
</g>
<!-- Node29 -->
<g id="node29" class="node">
<title>Node29</title>
<g id="a_node29"><a xlink:href="d__model_8cpp.html" target="_top" xlink:title=" ">
<polygon fill="white" stroke="black" points="2238,-62 2238,-81 2334,-81 2334,-62 2238,-62"/>
<text text-anchor="middle" x="2286" y="-69" font-family="Helvetica,sans-Serif" font-size="10.00">src/d/d_model.cpp</text>
</a>
</g>
</g>
<!-- Node12&#45;&gt;Node29 -->
<g id="edge30" class="edge">
<title>Node12&#45;&gt;Node29</title>
<path fill="none" stroke="midnightblue" d="M2525.01,-123.02C2472.64,-113.56 2403.67,-100.48 2343,-87 2334.93,-85.21 2326.26,-83.09 2318.17,-81.05"/>
<polygon fill="midnightblue" stroke="midnightblue" points="2524.46,-126.48 2534.93,-124.81 2525.7,-119.59 2524.46,-126.48"/>
</g>
<!-- Node30 -->
<g id="node30" class="node">
<title>Node30</title>
<g id="a_node30"><a xlink:href="d__save_8cpp.html" target="_top" xlink:title=" ">
<polygon fill="white" stroke="black" points="2352.5,-62 2352.5,-81 2477.5,-81 2477.5,-62 2352.5,-62"/>
<text text-anchor="middle" x="2415" y="-69" font-family="Helvetica,sans-Serif" font-size="10.00">src/d/d_save/d_save.cpp</text>
</a>
</g>
</g>
<!-- Node12&#45;&gt;Node30 -->
<g id="edge31" class="edge">
<title>Node12&#45;&gt;Node30</title>
<path fill="none" stroke="midnightblue" d="M2556.36,-120.11C2518.81,-107.46 2469.61,-90.89 2440.26,-81.01"/>
<polygon fill="midnightblue" stroke="midnightblue" points="2555.53,-123.52 2566.12,-123.4 2557.76,-116.89 2555.53,-123.52"/>
</g>
<!-- Node31 -->
<g id="node31" class="node">
<title>Node31</title>
<g id="a_node31"><a xlink:href="d__save__HIO_8cpp.html" target="_top" xlink:title=" ">
<polygon fill="white" stroke="black" points="2495.5,-56.5 2495.5,-86.5 2602.5,-86.5 2602.5,-56.5 2495.5,-56.5"/>
<text text-anchor="start" x="2503.5" y="-74.5" font-family="Helvetica,sans-Serif" font-size="10.00">src/d/d_save/d_save</text>
<text text-anchor="middle" x="2549" y="-63.5" font-family="Helvetica,sans-Serif" font-size="10.00">_HIO.cpp</text>
</a>
</g>
</g>
<!-- Node12&#45;&gt;Node31 -->
<g id="edge32" class="edge">
<title>Node12&#45;&gt;Node31</title>
<path fill="none" stroke="midnightblue" d="M2588.25,-115.74C2579.52,-106.12 2569.5,-95.09 2561.78,-86.58"/>
<polygon fill="midnightblue" stroke="midnightblue" points="2585.89,-118.34 2595.2,-123.4 2591.07,-113.64 2585.89,-118.34"/>
</g>
<!-- Node32 -->
<g id="node32" class="node">
<title>Node32</title>
<g id="a_node32"><a xlink:href="d__stage_8cpp.html" target="_top" xlink:title=" ">
<polygon fill="white" stroke="black" points="2621,-62 2621,-81 2715,-81 2715,-62 2621,-62"/>
<text text-anchor="middle" x="2668" y="-69" font-family="Helvetica,sans-Serif" font-size="10.00">src/d/d_stage.cpp</text>
</a>
</g>
</g>
<!-- Node12&#45;&gt;Node32 -->
<g id="edge33" class="edge">
<title>Node12&#45;&gt;Node32</title>
<path fill="none" stroke="midnightblue" d="M2627.85,-116C2638.8,-104.13 2651.8,-90.05 2659.97,-81.19"/>
<polygon fill="midnightblue" stroke="midnightblue" points="2625.23,-113.67 2621.02,-123.4 2630.37,-118.42 2625.23,-113.67"/>
</g>
<!-- Node33 -->
<g id="node33" class="node">
<title>Node33</title>
<g id="a_node33"><a xlink:href="f__op__actor__mng_8cpp.html" target="_top" xlink:title=" ">
<polygon fill="white" stroke="black" points="2733.5,-56.5 2733.5,-86.5 2840.5,-86.5 2840.5,-56.5 2733.5,-56.5"/>
<text text-anchor="start" x="2741.5" y="-74.5" font-family="Helvetica,sans-Serif" font-size="10.00">src/f/f_op/f_op_actor</text>
<text text-anchor="middle" x="2787" y="-63.5" font-family="Helvetica,sans-Serif" font-size="10.00">_mng.cpp</text>
</a>
</g>
</g>
<!-- Node12&#45;&gt;Node33 -->
<g id="edge34" class="edge">
<title>Node12&#45;&gt;Node33</title>
<path fill="none" stroke="midnightblue" d="M2656.32,-119.96C2685.15,-109.48 2721.28,-96.37 2748.24,-86.58"/>
<polygon fill="midnightblue" stroke="midnightblue" points="2655.05,-116.69 2646.84,-123.4 2657.43,-123.27 2655.05,-116.69"/>
</g>
<!-- Node34 -->
<g id="node34" class="node">
<title>Node34</title>
<g id="a_node34"><a xlink:href="f__op__camera_8cpp.html" target="_top" xlink:title=" ">
<polygon fill="white" stroke="black" points="2858.5,-62 2858.5,-81 2993.5,-81 2993.5,-62 2858.5,-62"/>
<text text-anchor="middle" x="2926" y="-69" font-family="Helvetica,sans-Serif" font-size="10.00">src/f/f_op/f_op_camera.cpp</text>
</a>
</g>
</g>
<!-- Node12&#45;&gt;Node34 -->
<g id="edge35" class="edge">
<title>Node12&#45;&gt;Node34</title>
<path fill="none" stroke="midnightblue" d="M2686.45,-121.47C2749,-108.68 2834.15,-91.27 2884.28,-81.03"/>
<polygon fill="midnightblue" stroke="midnightblue" points="2685.71,-118.04 2676.61,-123.48 2687.11,-124.9 2685.71,-118.04"/>
</g>
<!-- Node35 -->
<g id="node35" class="node">
<title>Node35</title>
<g id="a_node35"><a xlink:href="f__op__kankyo_8cpp.html" target="_top" xlink:title=" ">
<polygon fill="white" stroke="black" points="3012,-62 3012,-81 3146,-81 3146,-62 3012,-62"/>
<text text-anchor="middle" x="3079" y="-69" font-family="Helvetica,sans-Serif" font-size="10.00">src/f/f_op/f_op_kankyo.cpp</text>
</a>
</g>
</g>
<!-- Node12&#45;&gt;Node35 -->
<g id="edge36" class="edge">
<title>Node12&#45;&gt;Node35</title>
<path fill="none" stroke="midnightblue" d="M2691.39,-128.34C2771.48,-119.2 2895.79,-104.06 3003,-87 3014.01,-85.25 3025.87,-83.11 3036.87,-81.01"/>
<polygon fill="midnightblue" stroke="midnightblue" points="2690.9,-124.88 2681.36,-129.49 2691.69,-131.83 2690.9,-124.88"/>
</g>
<!-- Node36 -->
<g id="node36" class="node">
<title>Node36</title>
<g id="a_node36"><a xlink:href="f__op__kankyo__mng_8cpp.html" target="_top" xlink:title=" ">
<polygon fill="white" stroke="black" points="3164,-56.5 3164,-86.5 3280,-86.5 3280,-56.5 3164,-56.5"/>
<text text-anchor="start" x="3172" y="-74.5" font-family="Helvetica,sans-Serif" font-size="10.00">src/f/f_op/f_op_kankyo</text>
<text text-anchor="middle" x="3222" y="-63.5" font-family="Helvetica,sans-Serif" font-size="10.00">_mng.cpp</text>
</a>
</g>
</g>
<!-- Node12&#45;&gt;Node36 -->
<g id="edge37" class="edge">
<title>Node12&#45;&gt;Node36</title>
<path fill="none" stroke="midnightblue" d="M2691.48,-132.94C2799.09,-126.35 2991.77,-112.1 3155,-87 3157.94,-86.55 3160.95,-86.05 3163.98,-85.51"/>
<polygon fill="midnightblue" stroke="midnightblue" points="2691.11,-129.46 2681.34,-133.56 2691.53,-136.45 2691.11,-129.46"/>
</g>
<!-- Node37 -->
<g id="node37" class="node">
<title>Node37</title>
<g id="a_node37"><a xlink:href="f__op__msg__mng_8cpp.html" target="_top" xlink:title=" ">
<polygon fill="white" stroke="black" points="3298,-56.5 3298,-86.5 3402,-86.5 3402,-56.5 3298,-56.5"/>
<text text-anchor="start" x="3306" y="-74.5" font-family="Helvetica,sans-Serif" font-size="10.00">src/f/f_op/f_op_msg</text>
<text text-anchor="middle" x="3350" y="-63.5" font-family="Helvetica,sans-Serif" font-size="10.00">_mng.cpp</text>
</a>
</g>
</g>
<!-- Node12&#45;&gt;Node37 -->
<g id="edge38" class="edge">
<title>Node12&#45;&gt;Node37</title>
<path fill="none" stroke="midnightblue" d="M2691.44,-135.59C2820.32,-131.68 3075.27,-120.11 3289,-87 3291.9,-86.55 3294.87,-86.03 3297.86,-85.47"/>
<polygon fill="midnightblue" stroke="midnightblue" points="2691.14,-132.1 2681.25,-135.89 2691.35,-139.09 2691.14,-132.1"/>
</g>
<!-- Node38 -->
<g id="node38" class="node">
<title>Node38</title>
<g id="a_node38"><a xlink:href="f__pc__manager_8cpp.html" target="_top" xlink:title=" ">
<polygon fill="white" stroke="black" points="3420,-62 3420,-81 3560,-81 3560,-62 3420,-62"/>
<text text-anchor="middle" x="3490" y="-69" font-family="Helvetica,sans-Serif" font-size="10.00">src/f/f_pc/f_pc_manager.cpp</text>
</a>
</g>
</g>
<!-- Node12&#45;&gt;Node38 -->
<g id="edge39" class="edge">
<title>Node12&#45;&gt;Node38</title>
<path fill="none" stroke="midnightblue" d="M2691.3,-135.52C2837.49,-131.31 3149.52,-119.1 3411,-87 3423.32,-85.49 3436.62,-83.27 3448.73,-81.03"/>
<polygon fill="midnightblue" stroke="midnightblue" points="2690.96,-132.03 2681.07,-135.81 2691.16,-139.02 2690.96,-132.03"/>
</g>
<!-- Node39 -->
<g id="node39" class="node">
<title>Node39</title>
<g id="a_node39"><a xlink:href="m__Do__audio_8cpp.html" target="_top" xlink:title=" ">
<polygon fill="white" stroke="black" points="3578,-62 3578,-81 3712,-81 3712,-62 3578,-62"/>
<text text-anchor="middle" x="3645" y="-69" font-family="Helvetica,sans-Serif" font-size="10.00">src/m_Do/m_Do_audio.cpp</text>
</a>
</g>
</g>
<!-- Node12&#45;&gt;Node39 -->
<g id="edge40" class="edge">
<title>Node12&#45;&gt;Node39</title>
<path fill="none" stroke="midnightblue" d="M2691.44,-136.93C2858.58,-134.94 3246.12,-126.1 3569,-87 3581,-85.55 3593.96,-83.32 3605.71,-81.05"/>
<polygon fill="midnightblue" stroke="midnightblue" points="2691.19,-133.43 2681.23,-137.04 2691.27,-140.43 2691.19,-133.43"/>
</g>
<!-- Node40 -->
<g id="node40" class="node">
<title>Node40</title>
<g id="a_node40"><a xlink:href="m__Do__graphic_8cpp.html" target="_top" xlink:title=" ">
<polygon fill="white" stroke="black" points="3730,-62 3730,-81 3872,-81 3872,-62 3730,-62"/>
<text text-anchor="middle" x="3801" y="-69" font-family="Helvetica,sans-Serif" font-size="10.00">src/m_Do/m_Do_graphic.cpp</text>
</a>
</g>
</g>
<!-- Node12&#45;&gt;Node40 -->
<g id="edge41" class="edge">
<title>Node12&#45;&gt;Node40</title>
<path fill="none" stroke="midnightblue" d="M2691.42,-137.52C2877.04,-136.74 3338.06,-130.2 3721,-87 3733.76,-85.56 3747.56,-83.31 3760.05,-81.01"/>
<polygon fill="midnightblue" stroke="midnightblue" points="2691.18,-134.02 2681.19,-137.56 2691.2,-141.02 2691.18,-134.02"/>
</g>
<!-- Node41 -->
<g id="node41" class="node">
<title>Node41</title>
<g id="a_node41"><a xlink:href="m__Do__lib_8cpp.html" target="_top" xlink:title=" ">
<polygon fill="white" stroke="black" points="3890,-62 3890,-81 4010,-81 4010,-62 3890,-62"/>
<text text-anchor="middle" x="3950" y="-69" font-family="Helvetica,sans-Serif" font-size="10.00">src/m_Do/m_Do_lib.cpp</text>
</a>
</g>
</g>
<!-- Node12&#45;&gt;Node41 -->
<g id="edge42" class="edge">
<title>Node12&#45;&gt;Node41</title>
<path fill="none" stroke="midnightblue" d="M2691.67,-136.01C2936.67,-131.36 3649.73,-115.68 3881,-87 3892.18,-85.61 3904.23,-83.35 3915.09,-81.02"/>
<polygon fill="midnightblue" stroke="midnightblue" points="2691.34,-132.52 2681.41,-136.2 2691.47,-139.52 2691.34,-132.52"/>
</g>
<!-- Node42 -->
<g id="node42" class="node">
<title>Node42</title>
<g id="a_node42"><a xlink:href="m__Do__machine__exception_8cpp.html" target="_top" xlink:title=" ">
<polygon fill="white" stroke="black" points="4028.5,-56.5 4028.5,-86.5 4157.5,-86.5 4157.5,-56.5 4028.5,-56.5"/>
<text text-anchor="start" x="4036.5" y="-74.5" font-family="Helvetica,sans-Serif" font-size="10.00">src/m_Do/m_Do_machine</text>
<text text-anchor="middle" x="4093" y="-63.5" font-family="Helvetica,sans-Serif" font-size="10.00">_exception.cpp</text>
</a>
</g>
</g>
<!-- Node12&#45;&gt;Node42 -->
<g id="edge43" class="edge">
<title>Node12&#45;&gt;Node42</title>
<path fill="none" stroke="midnightblue" d="M2691.54,-136.24C2953.92,-132.01 3759.47,-116.88 4019,-87 4021.99,-86.66 4025.04,-86.26 4028.12,-85.81"/>
<polygon fill="midnightblue" stroke="midnightblue" points="2691.26,-132.74 2681.32,-136.4 2691.37,-139.74 2691.26,-132.74"/>
</g>
<!-- Node43 -->
<g id="node43" class="node">
<title>Node43</title>
<g id="a_node43"><a xlink:href="m__Do__main_8cpp.html" target="_top" xlink:title=" ">
<polygon fill="white" stroke="black" points="4175.5,-62 4175.5,-81 4306.5,-81 4306.5,-62 4175.5,-62"/>
<text text-anchor="middle" x="4241" y="-69" font-family="Helvetica,sans-Serif" font-size="10.00">src/m_Do/m_Do_main.cpp</text>
</a>
</g>
</g>
<!-- Node12&#45;&gt;Node43 -->
<g id="edge44" class="edge">
<title>Node12&#45;&gt;Node43</title>
<path fill="none" stroke="midnightblue" d="M2691.09,-136.58C2970.84,-133.19 3877.12,-119.88 4167,-87 4178.97,-85.64 4191.89,-83.39 4203.54,-81.06"/>
<polygon fill="midnightblue" stroke="midnightblue" points="2690.96,-133.08 2681.01,-136.7 2691.05,-140.08 2690.96,-133.08"/>
</g>
<!-- Node44 -->
<g id="node44" class="node">
<title>Node44</title>
<g id="a_node44"><a xlink:href="m__Do__MemCardRWmng_8cpp.html" target="_top" xlink:title=" ">
<polygon fill="white" stroke="black" points="4324.5,-62 4324.5,-81 4511.5,-81 4511.5,-62 4324.5,-62"/>
<text text-anchor="middle" x="4418" y="-69" font-family="Helvetica,sans-Serif" font-size="10.00">src/m_Do/m_Do_MemCardRWmng.cpp</text>
</a>
</g>
</g>
<!-- Node12&#45;&gt;Node44 -->
<g id="edge45" class="edge">
<title>Node12&#45;&gt;Node44</title>
<path fill="none" stroke="midnightblue" d="M2691.29,-136.27C2988.29,-131.7 3994.86,-114.49 4316,-87 4332.4,-85.6 4350.18,-83.33 4366.24,-81"/>
<polygon fill="midnightblue" stroke="midnightblue" points="2690.97,-132.78 2681.02,-136.43 2691.08,-139.77 2690.97,-132.78"/>
</g>
<!-- Node45 -->
<g id="node45" class="node">
<title>Node45</title>
<g id="a_node45"><a xlink:href="m__Do__ext_8cpp.html" target="_top" xlink:title=" ">
<polygon fill="white" stroke="black" points="4529.5,-62 4529.5,-81 4652.5,-81 4652.5,-62 4529.5,-62"/>
<text text-anchor="middle" x="4591" y="-69" font-family="Helvetica,sans-Serif" font-size="10.00">src/m_Do/m_Do_ext.cpp</text>
</a>
</g>
</g>
<!-- Node12&#45;&gt;Node45 -->
<g id="edge46" class="edge">
<title>Node12&#45;&gt;Node45</title>
<path fill="none" stroke="midnightblue" d="M2691.25,-137.27C3010.77,-136.09 4158.71,-128.97 4521,-87 4532.47,-85.67 4544.84,-83.4 4555.95,-81.03"/>
<polygon fill="midnightblue" stroke="midnightblue" points="2691.13,-133.77 2681.14,-137.31 2691.15,-140.77 2691.13,-133.77"/>
</g>
<!-- Node46 -->
<g id="node46" class="node">
<title>Node46</title>
<g id="a_node46"><a xlink:href="Z2EnvSeMgr_8cpp.html" target="_top" xlink:title=" ">
<polygon fill="white" stroke="black" points="4670.5,-62 4670.5,-81 4831.5,-81 4831.5,-62 4670.5,-62"/>
<text text-anchor="middle" x="4751" y="-69" font-family="Helvetica,sans-Serif" font-size="10.00">libs/Z2AudioLib/Z2EnvSeMgr.cpp</text>
</a>
</g>
</g>
<!-- Node12&#45;&gt;Node46 -->
<g id="edge47" class="edge">
<title>Node12&#45;&gt;Node46</title>
<path fill="none" stroke="midnightblue" d="M2691.13,-136.98C3025.07,-134.64 4269.73,-123.6 4662,-87 4676.5,-85.65 4692.21,-83.36 4706.33,-81"/>
<polygon fill="midnightblue" stroke="midnightblue" points="2691.02,-133.48 2681.05,-137.05 2691.07,-140.48 2691.02,-133.48"/>
</g>
<!-- Node47 -->
<g id="node47" class="node">
<title>Node47</title>
<g id="a_node47"><a xlink:href="Z2LinkMgr_8cpp.html" target="_top" xlink:title=" ">
<polygon fill="white" stroke="black" points="4850,-62 4850,-81 5002,-81 5002,-62 4850,-62"/>
<text text-anchor="middle" x="4926" y="-69" font-family="Helvetica,sans-Serif" font-size="10.00">libs/Z2AudioLib/Z2LinkMgr.cpp</text>
</a>
</g>
</g>
<!-- Node12&#45;&gt;Node47 -->
<g id="edge48" class="edge">
<title>Node12&#45;&gt;Node47</title>
<path fill="none" stroke="midnightblue" d="M2691.27,-137.25C3043.4,-135.94 4411.83,-128.23 4841,-87 4854.86,-85.67 4869.87,-83.39 4883.36,-81.03"/>
<polygon fill="midnightblue" stroke="midnightblue" points="2691.13,-133.75 2681.15,-137.29 2691.16,-140.75 2691.13,-133.75"/>
</g>
<!-- Node48 -->
<g id="node48" class="node">
<title>Node48</title>
<g id="a_node48"><a xlink:href="Z2SceneMgr_8cpp.html" target="_top" xlink:title=" ">
<polygon fill="white" stroke="black" points="5020.5,-62 5020.5,-81 5181.5,-81 5181.5,-62 5020.5,-62"/>
<text text-anchor="middle" x="5101" y="-69" font-family="Helvetica,sans-Serif" font-size="10.00">libs/Z2AudioLib/Z2SceneMgr.cpp</text>
</a>
</g>
</g>
<!-- Node12&#45;&gt;Node48 -->
<g id="edge49" class="edge">
<title>Node12&#45;&gt;Node48</title>
<path fill="none" stroke="midnightblue" d="M2691.13,-137.3C3059.42,-136.19 4546.27,-129.11 5011,-87 5025.66,-85.67 5041.54,-83.39 5055.83,-81.03"/>
<polygon fill="midnightblue" stroke="midnightblue" points="2691.07,-133.8 2681.08,-137.33 2691.09,-140.8 2691.07,-133.8"/>
</g>
<!-- Node49 -->
<g id="node49" class="node">
<title>Node49</title>
<g id="a_node49"><a xlink:href="Z2SoundMgr_8cpp.html" target="_top" xlink:title=" ">
<polygon fill="white" stroke="black" points="5199.5,-62 5199.5,-81 5360.5,-81 5360.5,-62 5199.5,-62"/>
<text text-anchor="middle" x="5280" y="-69" font-family="Helvetica,sans-Serif" font-size="10.00">libs/Z2AudioLib/Z2SoundMgr.cpp</text>
</a>
</g>
</g>
<!-- Node12&#45;&gt;Node49 -->
<g id="edge50" class="edge">
<title>Node12&#45;&gt;Node49</title>
<path fill="none" stroke="midnightblue" d="M2691.32,-136.58C3106.04,-131.88 4937.74,-109.99 5191,-87 5205.5,-85.68 5221.21,-83.41 5235.34,-81.05"/>
<polygon fill="midnightblue" stroke="midnightblue" points="2691.17,-133.08 2681.21,-136.69 2691.25,-140.08 2691.17,-133.08"/>
</g>
<!-- Node58&#45;&gt;Node11 -->
<g id="edge53" class="edge">
<title>Node58&#45;&gt;Node11</title>
<path fill="none" stroke="midnightblue" d="M2634.07,-248.87C2628.28,-239.46 2621.74,-228.83 2616.66,-220.58"/>
<polygon fill="midnightblue" stroke="midnightblue" points="2631.1,-250.71 2639.32,-257.4 2637.06,-247.05 2631.1,-250.71"/>
</g>
</g>
</svg>
