<?xml version="1.0" encoding="UTF-8" standalone="no"?>
<!DOCTYPE svg PUBLIC "-//W3C//DTD SVG 1.1//EN"
 "http://www.w3.org/Graphics/SVG/1.1/DTD/svg11.dtd">
<!-- Generated by graphviz version 2.44.0 ()
 -->
<!-- Title: libs/SSystem/SComponent/c_m3d_g_cyl.cpp Pages: 1 -->
<svg width="419pt" height="442pt"
 viewBox="0.00 0.00 419.00 442.00" xmlns="http://www.w3.org/2000/svg" xmlns:xlink="http://www.w3.org/1999/xlink">
<g id="graph0" class="graph" transform="scale(1 1) rotate(0) translate(4 438)">
<title>libs/SSystem/SComponent/c_m3d_g_cyl.cpp</title>
<polygon fill="white" stroke="transparent" points="-4,4 -4,-438 415,-438 415,4 -4,4"/>
<!-- Node1 -->
<g id="node1" class="node">
<title>Node1</title>
<g id="a_node1"><a xlink:title=" ">
<polygon fill="#bfbfbf" stroke="black" points="244.5,-403.5 244.5,-433.5 378.5,-433.5 378.5,-403.5 244.5,-403.5"/>
<text text-anchor="start" x="252.5" y="-421.5" font-family="Helvetica,sans-Serif" font-size="10.00">libs/SSystem/SComponent</text>
<text text-anchor="middle" x="311.5" y="-410.5" font-family="Helvetica,sans-Serif" font-size="10.00">/c_m3d_g_cyl.cpp</text>
</a>
</g>
</g>
<!-- Node2 -->
<g id="node2" class="node">
<title>Node2</title>
<g id="a_node2"><a xlink:href="c__m3d__g__cyl_8h.html" target="_top" xlink:title=" ">
<polygon fill="white" stroke="black" points="210.5,-336.5 210.5,-366.5 326.5,-366.5 326.5,-336.5 210.5,-336.5"/>
<text text-anchor="start" x="218.5" y="-354.5" font-family="Helvetica,sans-Serif" font-size="10.00">SComponent/c_m3d_g</text>
<text text-anchor="middle" x="268.5" y="-343.5" font-family="Helvetica,sans-Serif" font-size="10.00">_cyl.h</text>
</a>
</g>
</g>
<!-- Node1&#45;&gt;Node2 -->
<g id="edge1" class="edge">
<title>Node1&#45;&gt;Node2</title>
<path fill="none" stroke="midnightblue" d="M302.17,-403.4C296.7,-395.13 289.67,-384.51 283.45,-375.1"/>
<polygon fill="midnightblue" stroke="midnightblue" points="286.25,-372.99 277.81,-366.58 280.41,-376.85 286.25,-372.99"/>
</g>
<!-- Node13 -->
<g id="node13" class="node">
<title>Node13</title>
<g id="a_node13"><a xlink:href="c__m3d_8h.html" target="_top" xlink:title=" ">
<polygon fill="white" stroke="black" points="298,-280.5 298,-299.5 411,-299.5 411,-280.5 298,-280.5"/>
<text text-anchor="middle" x="354.5" y="-287.5" font-family="Helvetica,sans-Serif" font-size="10.00">SComponent/c_m3d.h</text>
</a>
</g>
</g>
<!-- Node1&#45;&gt;Node13 -->
<g id="edge19" class="edge">
<title>Node1&#45;&gt;Node13</title>
<path fill="none" stroke="midnightblue" d="M319.21,-403.24C324.36,-393.3 330.98,-379.61 335.5,-367 342.37,-347.84 347.7,-325.1 350.95,-309.52"/>
<polygon fill="midnightblue" stroke="midnightblue" points="354.4,-310.09 352.93,-299.6 347.54,-308.72 354.4,-310.09"/>
</g>
<!-- Node3 -->
<g id="node3" class="node">
<title>Node3</title>
<g id="a_node3"><a xlink:href="c__xyz_8h.html" target="_top" xlink:title=" ">
<polygon fill="white" stroke="black" points="87,-280.5 87,-299.5 194,-299.5 194,-280.5 87,-280.5"/>
<text text-anchor="middle" x="140.5" y="-287.5" font-family="Helvetica,sans-Serif" font-size="10.00">SComponent/c_xyz.h</text>
</a>
</g>
</g>
<!-- Node2&#45;&gt;Node3 -->
<g id="edge2" class="edge">
<title>Node2&#45;&gt;Node3</title>
<path fill="none" stroke="midnightblue" d="M238.17,-336.4C216.98,-326.55 188.91,-313.5 168.3,-303.92"/>
<polygon fill="midnightblue" stroke="midnightblue" points="169.67,-300.7 159.13,-299.66 166.72,-307.05 169.67,-300.7"/>
</g>
<!-- Node5 -->
<g id="node5" class="node">
<title>Node5</title>
<g id="a_node5"><a xlink:href="global_8h.html" target="_top" xlink:title=" ">
<polygon fill="white" stroke="black" points="163.5,-168.5 163.5,-187.5 213.5,-187.5 213.5,-168.5 163.5,-168.5"/>
<text text-anchor="middle" x="188.5" y="-175.5" font-family="Helvetica,sans-Serif" font-size="10.00">global.h</text>
</a>
</g>
</g>
<!-- Node2&#45;&gt;Node5 -->
<g id="edge18" class="edge">
<title>Node2&#45;&gt;Node5</title>
<path fill="none" stroke="midnightblue" d="M269.89,-336.42C271.63,-311.75 272.13,-259.91 250.5,-224 242.44,-210.62 228.72,-200.04 216.23,-192.51"/>
<polygon fill="midnightblue" stroke="midnightblue" points="217.89,-189.43 207.45,-187.57 214.45,-195.53 217.89,-189.43"/>
</g>
<!-- Node4 -->
<g id="node4" class="node">
<title>Node4</title>
<g id="a_node4"><a xlink:href="c__math_8h.html" target="_top" xlink:title=" ">
<polygon fill="white" stroke="black" points="125.5,-224.5 125.5,-243.5 241.5,-243.5 241.5,-224.5 125.5,-224.5"/>
<text text-anchor="middle" x="183.5" y="-231.5" font-family="Helvetica,sans-Serif" font-size="10.00">SComponent/c_math.h</text>
</a>
</g>
</g>
<!-- Node3&#45;&gt;Node4 -->
<g id="edge3" class="edge">
<title>Node3&#45;&gt;Node4</title>
<path fill="none" stroke="midnightblue" d="M147.6,-280.08C153.74,-272.38 162.77,-261.03 170.24,-251.65"/>
<polygon fill="midnightblue" stroke="midnightblue" points="173.04,-253.75 176.53,-243.75 167.56,-249.39 173.04,-253.75"/>
</g>
<!-- Node3&#45;&gt;Node5 -->
<g id="edge15" class="edge">
<title>Node3&#45;&gt;Node5</title>
<path fill="none" stroke="midnightblue" d="M132.63,-280.22C122.13,-267.38 106,-242.94 116.5,-224 124.65,-209.3 139.82,-198.77 154.15,-191.61"/>
<polygon fill="midnightblue" stroke="midnightblue" points="155.73,-194.73 163.35,-187.38 152.81,-188.37 155.73,-194.73"/>
</g>
<!-- Node12 -->
<g id="node12" class="node">
<title>Node12</title>
<g id="a_node12"><a xlink:href="mtx__vec_8h.html" target="_top" xlink:title=" ">
<polygon fill="white" stroke="black" points="0,-168.5 0,-187.5 61,-187.5 61,-168.5 0,-168.5"/>
<text text-anchor="middle" x="30.5" y="-175.5" font-family="Helvetica,sans-Serif" font-size="10.00">mtx_vec.h</text>
</a>
</g>
</g>
<!-- Node3&#45;&gt;Node12 -->
<g id="edge16" class="edge">
<title>Node3&#45;&gt;Node12</title>
<path fill="none" stroke="midnightblue" d="M131.87,-280.37C113.39,-261.89 69.79,-218.29 46.24,-194.74"/>
<polygon fill="midnightblue" stroke="midnightblue" points="48.64,-192.19 39.09,-187.59 43.69,-197.14 48.64,-192.19"/>
</g>
<!-- Node4&#45;&gt;Node5 -->
<g id="edge4" class="edge">
<title>Node4&#45;&gt;Node5</title>
<path fill="none" stroke="midnightblue" d="M184.33,-224.08C184.98,-217.01 185.92,-206.86 186.74,-197.99"/>
<polygon fill="midnightblue" stroke="midnightblue" points="190.25,-198.03 187.69,-187.75 183.28,-197.39 190.25,-198.03"/>
</g>
<!-- Node6 -->
<g id="node6" class="node">
<title>Node6</title>
<g id="a_node6"><a xlink:href="types_8h.html" target="_top" xlink:title=" ">
<polygon fill="white" stroke="black" points="170,-0.5 170,-19.5 251,-19.5 251,-0.5 170,-0.5"/>
<text text-anchor="middle" x="210.5" y="-7.5" font-family="Helvetica,sans-Serif" font-size="10.00">dolphin/types.h</text>
</a>
</g>
</g>
<!-- Node5&#45;&gt;Node6 -->
<g id="edge5" class="edge">
<title>Node5&#45;&gt;Node6</title>
<path fill="none" stroke="midnightblue" d="M200.04,-168.49C209.98,-160.38 223.62,-147.18 229.5,-132 243.01,-97.11 228.97,-53.02 218.87,-28.86"/>
<polygon fill="midnightblue" stroke="midnightblue" points="222,-27.26 214.75,-19.53 215.59,-30.09 222,-27.26"/>
</g>
<!-- Node7 -->
<g id="node7" class="node">
<title>Node7</title>
<g id="a_node7"><a xlink:href="AR_8h.html" target="_top" xlink:title=" ">
<polygon fill="white" stroke="black" points="277,-56.5 277,-75.5 326,-75.5 326,-56.5 277,-56.5"/>
<text text-anchor="middle" x="301.5" y="-63.5" font-family="Helvetica,sans-Serif" font-size="10.00">ar/AR.h</text>
</a>
</g>
</g>
<!-- Node5&#45;&gt;Node7 -->
<g id="edge6" class="edge">
<title>Node5&#45;&gt;Node7</title>
<path fill="none" stroke="midnightblue" d="M207.88,-168.47C223.93,-160.7 246.6,-148 262.5,-132 276.09,-118.33 286.89,-99.03 293.65,-85.01"/>
<polygon fill="midnightblue" stroke="midnightblue" points="296.85,-86.44 297.84,-75.9 290.49,-83.52 296.85,-86.44"/>
</g>
<!-- Node8 -->
<g id="node8" class="node">
<title>Node8</title>
<g id="a_node8"><a xlink:href="ARQ_8h.html" target="_top" xlink:title=" ">
<polygon fill="white" stroke="black" points="48.5,-56.5 48.5,-75.5 104.5,-75.5 104.5,-56.5 48.5,-56.5"/>
<text text-anchor="middle" x="76.5" y="-63.5" font-family="Helvetica,sans-Serif" font-size="10.00">ar/ARQ.h</text>
</a>
</g>
</g>
<!-- Node5&#45;&gt;Node8 -->
<g id="edge8" class="edge">
<title>Node5&#45;&gt;Node8</title>
<path fill="none" stroke="midnightblue" d="M163.15,-171.83C140.96,-165.98 109.51,-154.2 91.5,-132 80.91,-118.94 77.5,-99.79 76.54,-85.65"/>
<polygon fill="midnightblue" stroke="midnightblue" points="80.04,-85.48 76.21,-75.61 73.04,-85.72 80.04,-85.48"/>
</g>
<!-- Node9 -->
<g id="node9" class="node">
<title>Node9</title>
<g id="a_node9"><a xlink:href="mwcc_8h.html" target="_top" xlink:title=" ">
<polygon fill="white" stroke="black" points="100.5,-112.5 100.5,-131.5 150.5,-131.5 150.5,-112.5 100.5,-112.5"/>
<text text-anchor="middle" x="125.5" y="-119.5" font-family="Helvetica,sans-Serif" font-size="10.00">mwcc.h</text>
</a>
</g>
</g>
<!-- Node5&#45;&gt;Node9 -->
<g id="edge10" class="edge">
<title>Node5&#45;&gt;Node9</title>
<path fill="none" stroke="midnightblue" d="M178.38,-168.32C168.97,-160.26 154.76,-148.08 143.43,-138.37"/>
<polygon fill="midnightblue" stroke="midnightblue" points="145.68,-135.68 135.81,-131.83 141.12,-141 145.68,-135.68"/>
</g>
<!-- Node10 -->
<g id="node10" class="node">
<title>Node10</title>
<g id="a_node10"><a xlink:href="OS_8h.html" target="_top" xlink:title=" ">
<polygon fill="white" stroke="black" points="168.5,-112.5 168.5,-131.5 220.5,-131.5 220.5,-112.5 168.5,-112.5"/>
<text text-anchor="middle" x="194.5" y="-119.5" font-family="Helvetica,sans-Serif" font-size="10.00">os/OS.h</text>
</a>
</g>
</g>
<!-- Node5&#45;&gt;Node10 -->
<g id="edge11" class="edge">
<title>Node5&#45;&gt;Node10</title>
<path fill="none" stroke="midnightblue" d="M189.49,-168.08C190.29,-160.93 191.43,-150.64 192.42,-141.69"/>
<polygon fill="midnightblue" stroke="midnightblue" points="195.9,-142.08 193.53,-131.75 188.94,-141.3 195.9,-142.08"/>
</g>
<!-- Node7&#45;&gt;Node6 -->
<g id="edge7" class="edge">
<title>Node7&#45;&gt;Node6</title>
<path fill="none" stroke="midnightblue" d="M286.88,-56.32C272.55,-47.82 250.49,-34.73 233.75,-24.8"/>
<polygon fill="midnightblue" stroke="midnightblue" points="235.47,-21.75 225.08,-19.65 231.9,-27.77 235.47,-21.75"/>
</g>
<!-- Node8&#45;&gt;Node6 -->
<g id="edge9" class="edge">
<title>Node8&#45;&gt;Node6</title>
<path fill="none" stroke="midnightblue" d="M97.73,-56.44C119.88,-47.52 154.82,-33.44 179.94,-23.32"/>
<polygon fill="midnightblue" stroke="midnightblue" points="181.4,-26.5 189.37,-19.52 178.78,-20.01 181.4,-26.5"/>
</g>
<!-- Node10&#45;&gt;Node6 -->
<g id="edge12" class="edge">
<title>Node10&#45;&gt;Node6</title>
<path fill="none" stroke="midnightblue" d="M195.76,-112.37C198.34,-94.62 204.29,-53.67 207.79,-29.6"/>
<polygon fill="midnightblue" stroke="midnightblue" points="211.27,-29.99 209.25,-19.59 204.35,-28.98 211.27,-29.99"/>
</g>
<!-- Node11 -->
<g id="node11" class="node">
<title>Node11</title>
<g id="a_node11"><a xlink:href="dvd_8h.html" target="_top" xlink:title=" ">
<polygon fill="white" stroke="black" points="123,-56.5 123,-75.5 182,-75.5 182,-56.5 123,-56.5"/>
<text text-anchor="middle" x="152.5" y="-63.5" font-family="Helvetica,sans-Serif" font-size="10.00">dvd/dvd.h</text>
</a>
</g>
</g>
<!-- Node10&#45;&gt;Node11 -->
<g id="edge13" class="edge">
<title>Node10&#45;&gt;Node11</title>
<path fill="none" stroke="midnightblue" d="M187.56,-112.08C181.57,-104.38 172.75,-93.03 165.45,-83.65"/>
<polygon fill="midnightblue" stroke="midnightblue" points="168.21,-81.5 159.31,-75.75 162.68,-85.79 168.21,-81.5"/>
</g>
<!-- Node11&#45;&gt;Node6 -->
<g id="edge14" class="edge">
<title>Node11&#45;&gt;Node6</title>
<path fill="none" stroke="midnightblue" d="M161.82,-56.32C170.39,-48.34 183.31,-36.31 193.69,-26.65"/>
<polygon fill="midnightblue" stroke="midnightblue" points="196.08,-29.21 201.01,-19.83 191.31,-24.09 196.08,-29.21"/>
</g>
<!-- Node12&#45;&gt;Node6 -->
<g id="edge17" class="edge">
<title>Node12&#45;&gt;Node6</title>
<path fill="none" stroke="midnightblue" d="M28.14,-168.46C22.73,-146.82 11.88,-89.2 39.5,-56 54.8,-37.61 114.85,-24.93 159.5,-17.83"/>
<polygon fill="midnightblue" stroke="midnightblue" points="160.27,-21.25 169.62,-16.27 159.2,-14.33 160.27,-21.25"/>
</g>
<!-- Node13&#45;&gt;Node6 -->
<g id="edge20" class="edge">
<title>Node13&#45;&gt;Node6</title>
<path fill="none" stroke="midnightblue" d="M354.5,-280.44C354.5,-261.94 354.5,-216.81 354.5,-179 354.5,-179 354.5,-179 354.5,-121 354.5,-90.9 356.12,-77.92 335.5,-56 316.11,-35.38 286.59,-24.19 261.1,-18.13"/>
<polygon fill="midnightblue" stroke="midnightblue" points="261.71,-14.68 251.2,-15.97 260.23,-21.52 261.71,-14.68"/>
</g>
</g>
</svg>
