<?xml version="1.0" encoding="UTF-8" standalone="no"?>
<!DOCTYPE svg PUBLIC "-//W3C//DTD SVG 1.1//EN"
 "http://www.w3.org/Graphics/SVG/1.1/DTD/svg11.dtd">
<!-- Generated by graphviz version 2.44.0 ()
 -->
<!-- Title: libs/SSystem/SComponent/c_m3d_g_aab.cpp Pages: 1 -->
<svg width="309pt" height="442pt"
 viewBox="0.00 0.00 309.31 442.00" xmlns="http://www.w3.org/2000/svg" xmlns:xlink="http://www.w3.org/1999/xlink">
<g id="graph0" class="graph" transform="scale(1 1) rotate(0) translate(4 438)">
<title>libs/SSystem/SComponent/c_m3d_g_aab.cpp</title>
<polygon fill="white" stroke="transparent" points="-4,4 -4,-438 305.31,-438 305.31,4 -4,4"/>
<!-- Node1 -->
<g id="node1" class="node">
<title>Node1</title>
<g id="a_node1"><a xlink:title=" ">
<polygon fill="#bfbfbf" stroke="black" points="123.5,-403.5 123.5,-433.5 257.5,-433.5 257.5,-403.5 123.5,-403.5"/>
<text text-anchor="start" x="131.5" y="-421.5" font-family="Helvetica,sans-Serif" font-size="10.00">libs/SSystem/SComponent</text>
<text text-anchor="middle" x="190.5" y="-410.5" font-family="Helvetica,sans-Serif" font-size="10.00">/c_m3d_g_aab.cpp</text>
</a>
</g>
</g>
<!-- Node2 -->
<g id="node2" class="node">
<title>Node2</title>
<g id="a_node2"><a xlink:href="c__m3d__g__aab_8h.html" target="_top" xlink:title=" ">
<polygon fill="white" stroke="black" points="132.5,-336.5 132.5,-366.5 248.5,-366.5 248.5,-336.5 132.5,-336.5"/>
<text text-anchor="start" x="140.5" y="-354.5" font-family="Helvetica,sans-Serif" font-size="10.00">SComponent/c_m3d_g</text>
<text text-anchor="middle" x="190.5" y="-343.5" font-family="Helvetica,sans-Serif" font-size="10.00">_aab.h</text>
</a>
</g>
</g>
<!-- Node1&#45;&gt;Node2 -->
<g id="edge1" class="edge">
<title>Node1&#45;&gt;Node2</title>
<path fill="none" stroke="midnightblue" d="M190.5,-403.4C190.5,-395.64 190.5,-385.81 190.5,-376.86"/>
<polygon fill="midnightblue" stroke="midnightblue" points="194,-376.58 190.5,-366.58 187,-376.58 194,-376.58"/>
</g>
<!-- Node3 -->
<g id="node3" class="node">
<title>Node3</title>
<g id="a_node3"><a xlink:href="c__xyz_8h.html" target="_top" xlink:title=" ">
<polygon fill="white" stroke="black" points="94,-280.5 94,-299.5 201,-299.5 201,-280.5 94,-280.5"/>
<text text-anchor="middle" x="147.5" y="-287.5" font-family="Helvetica,sans-Serif" font-size="10.00">SComponent/c_xyz.h</text>
</a>
</g>
</g>
<!-- Node2&#45;&gt;Node3 -->
<g id="edge2" class="edge">
<title>Node2&#45;&gt;Node3</title>
<path fill="none" stroke="midnightblue" d="M180.31,-336.4C174.13,-327.84 166.2,-316.87 159.68,-307.86"/>
<polygon fill="midnightblue" stroke="midnightblue" points="162.45,-305.71 153.76,-299.66 156.78,-309.81 162.45,-305.71"/>
</g>
<!-- Node5 -->
<g id="node5" class="node">
<title>Node5</title>
<g id="a_node5"><a xlink:href="global_8h.html" target="_top" xlink:title=" ">
<polygon fill="white" stroke="black" points="167.5,-168.5 167.5,-187.5 217.5,-187.5 217.5,-168.5 167.5,-168.5"/>
<text text-anchor="middle" x="192.5" y="-175.5" font-family="Helvetica,sans-Serif" font-size="10.00">global.h</text>
</a>
</g>
</g>
<!-- Node2&#45;&gt;Node5 -->
<g id="edge18" class="edge">
<title>Node2&#45;&gt;Node5</title>
<path fill="none" stroke="midnightblue" d="M203.2,-336.29C219.49,-317.01 246.91,-280.73 257.5,-244 259.96,-235.46 261.63,-231.87 257.5,-224 250.22,-210.11 236.49,-199.65 223.52,-192.33"/>
<polygon fill="midnightblue" stroke="midnightblue" points="224.8,-189.05 214.31,-187.55 221.57,-195.27 224.8,-189.05"/>
</g>
<!-- Node4 -->
<g id="node4" class="node">
<title>Node4</title>
<g id="a_node4"><a xlink:href="c__math_8h.html" target="_top" xlink:title=" ">
<polygon fill="white" stroke="black" points="132.5,-224.5 132.5,-243.5 248.5,-243.5 248.5,-224.5 132.5,-224.5"/>
<text text-anchor="middle" x="190.5" y="-231.5" font-family="Helvetica,sans-Serif" font-size="10.00">SComponent/c_math.h</text>
</a>
</g>
</g>
<!-- Node3&#45;&gt;Node4 -->
<g id="edge3" class="edge">
<title>Node3&#45;&gt;Node4</title>
<path fill="none" stroke="midnightblue" d="M154.6,-280.08C160.74,-272.38 169.77,-261.03 177.24,-251.65"/>
<polygon fill="midnightblue" stroke="midnightblue" points="180.04,-253.75 183.53,-243.75 174.56,-249.39 180.04,-253.75"/>
</g>
<!-- Node3&#45;&gt;Node5 -->
<g id="edge15" class="edge">
<title>Node3&#45;&gt;Node5</title>
<path fill="none" stroke="midnightblue" d="M139.68,-280.25C129.24,-267.44 113.19,-243.04 123.5,-224 131.25,-209.7 145.73,-199.22 159.44,-191.99"/>
<polygon fill="midnightblue" stroke="midnightblue" points="161.24,-195.01 168.71,-187.5 158.19,-188.71 161.24,-195.01"/>
</g>
<!-- Node12 -->
<g id="node12" class="node">
<title>Node12</title>
<g id="a_node12"><a xlink:href="mtx__vec_8h.html" target="_top" xlink:title=" ">
<polygon fill="white" stroke="black" points="0,-168.5 0,-187.5 61,-187.5 61,-168.5 0,-168.5"/>
<text text-anchor="middle" x="30.5" y="-175.5" font-family="Helvetica,sans-Serif" font-size="10.00">mtx_vec.h</text>
</a>
</g>
</g>
<!-- Node3&#45;&gt;Node12 -->
<g id="edge16" class="edge">
<title>Node3&#45;&gt;Node12</title>
<path fill="none" stroke="midnightblue" d="M138.32,-280.37C118.67,-261.89 72.29,-218.29 47.25,-194.74"/>
<polygon fill="midnightblue" stroke="midnightblue" points="49.32,-191.89 39.64,-187.59 44.53,-196.99 49.32,-191.89"/>
</g>
<!-- Node4&#45;&gt;Node5 -->
<g id="edge4" class="edge">
<title>Node4&#45;&gt;Node5</title>
<path fill="none" stroke="midnightblue" d="M190.83,-224.08C191.09,-217.01 191.47,-206.86 191.8,-197.99"/>
<polygon fill="midnightblue" stroke="midnightblue" points="195.3,-197.87 192.18,-187.75 188.31,-197.61 195.3,-197.87"/>
</g>
<!-- Node6 -->
<g id="node6" class="node">
<title>Node6</title>
<g id="a_node6"><a xlink:href="types_8h.html" target="_top" xlink:title=" ">
<polygon fill="white" stroke="black" points="146,-0.5 146,-19.5 227,-19.5 227,-0.5 146,-0.5"/>
<text text-anchor="middle" x="186.5" y="-7.5" font-family="Helvetica,sans-Serif" font-size="10.00">dolphin/types.h</text>
</a>
</g>
</g>
<!-- Node5&#45;&gt;Node6 -->
<g id="edge5" class="edge">
<title>Node5&#45;&gt;Node6</title>
<path fill="none" stroke="midnightblue" d="M217.65,-174.18C242.92,-169.85 280.62,-159.01 298.5,-132 303.41,-124.59 299.95,-120.77 298.5,-112 294.22,-86.07 296.9,-75.7 279.5,-56 266.07,-40.8 246.37,-30.25 228.54,-23.21"/>
<polygon fill="midnightblue" stroke="midnightblue" points="229.48,-19.82 218.89,-19.65 227.06,-26.39 229.48,-19.82"/>
</g>
<!-- Node7 -->
<g id="node7" class="node">
<title>Node7</title>
<g id="a_node7"><a xlink:href="AR_8h.html" target="_top" xlink:title=" ">
<polygon fill="white" stroke="black" points="53,-56.5 53,-75.5 102,-75.5 102,-56.5 53,-56.5"/>
<text text-anchor="middle" x="77.5" y="-63.5" font-family="Helvetica,sans-Serif" font-size="10.00">ar/AR.h</text>
</a>
</g>
</g>
<!-- Node5&#45;&gt;Node7 -->
<g id="edge6" class="edge">
<title>Node5&#45;&gt;Node7</title>
<path fill="none" stroke="midnightblue" d="M183.48,-168.37C164.16,-149.89 118.58,-106.29 93.96,-82.74"/>
<polygon fill="midnightblue" stroke="midnightblue" points="96.13,-79.97 86.48,-75.59 91.29,-85.03 96.13,-79.97"/>
</g>
<!-- Node8 -->
<g id="node8" class="node">
<title>Node8</title>
<g id="a_node8"><a xlink:href="ARQ_8h.html" target="_top" xlink:title=" ">
<polygon fill="white" stroke="black" points="120.5,-56.5 120.5,-75.5 176.5,-75.5 176.5,-56.5 120.5,-56.5"/>
<text text-anchor="middle" x="148.5" y="-63.5" font-family="Helvetica,sans-Serif" font-size="10.00">ar/ARQ.h</text>
</a>
</g>
</g>
<!-- Node5&#45;&gt;Node8 -->
<g id="edge8" class="edge">
<title>Node5&#45;&gt;Node8</title>
<path fill="none" stroke="midnightblue" d="M184.62,-168.4C177.21,-159.82 166.4,-145.95 160.5,-132 154.27,-117.29 151.27,-99.35 149.83,-86.05"/>
<polygon fill="midnightblue" stroke="midnightblue" points="153.28,-85.41 148.92,-75.76 146.31,-86.02 153.28,-85.41"/>
</g>
<!-- Node9 -->
<g id="node9" class="node">
<title>Node9</title>
<g id="a_node9"><a xlink:href="mwcc_8h.html" target="_top" xlink:title=" ">
<polygon fill="white" stroke="black" points="169.5,-112.5 169.5,-131.5 219.5,-131.5 219.5,-112.5 169.5,-112.5"/>
<text text-anchor="middle" x="194.5" y="-119.5" font-family="Helvetica,sans-Serif" font-size="10.00">mwcc.h</text>
</a>
</g>
</g>
<!-- Node5&#45;&gt;Node9 -->
<g id="edge10" class="edge">
<title>Node5&#45;&gt;Node9</title>
<path fill="none" stroke="midnightblue" d="M192.83,-168.08C193.09,-161.01 193.47,-150.86 193.8,-141.99"/>
<polygon fill="midnightblue" stroke="midnightblue" points="197.3,-141.87 194.18,-131.75 190.31,-141.61 197.3,-141.87"/>
</g>
<!-- Node10 -->
<g id="node10" class="node">
<title>Node10</title>
<g id="a_node10"><a xlink:href="OS_8h.html" target="_top" xlink:title=" ">
<polygon fill="white" stroke="black" points="237.5,-112.5 237.5,-131.5 289.5,-131.5 289.5,-112.5 237.5,-112.5"/>
<text text-anchor="middle" x="263.5" y="-119.5" font-family="Helvetica,sans-Serif" font-size="10.00">os/OS.h</text>
</a>
</g>
</g>
<!-- Node5&#45;&gt;Node10 -->
<g id="edge11" class="edge">
<title>Node5&#45;&gt;Node10</title>
<path fill="none" stroke="midnightblue" d="M203.91,-168.32C214.61,-160.18 230.84,-147.84 243.66,-138.09"/>
<polygon fill="midnightblue" stroke="midnightblue" points="246.04,-140.67 251.89,-131.83 241.81,-135.1 246.04,-140.67"/>
</g>
<!-- Node7&#45;&gt;Node6 -->
<g id="edge7" class="edge">
<title>Node7&#45;&gt;Node6</title>
<path fill="none" stroke="midnightblue" d="M95.01,-56.32C112.57,-47.62 139.83,-34.12 160.03,-24.11"/>
<polygon fill="midnightblue" stroke="midnightblue" points="161.62,-27.23 169.03,-19.65 158.52,-20.96 161.62,-27.23"/>
</g>
<!-- Node8&#45;&gt;Node6 -->
<g id="edge9" class="edge">
<title>Node8&#45;&gt;Node6</title>
<path fill="none" stroke="midnightblue" d="M154.77,-56.08C160.14,-48.46 168.02,-37.26 174.58,-27.94"/>
<polygon fill="midnightblue" stroke="midnightblue" points="177.45,-29.94 180.34,-19.75 171.72,-25.91 177.45,-29.94"/>
</g>
<!-- Node10&#45;&gt;Node6 -->
<g id="edge12" class="edge">
<title>Node10&#45;&gt;Node6</title>
<path fill="none" stroke="midnightblue" d="M266.06,-112.31C269.41,-99.15 273.72,-73.81 263.5,-56 254.88,-40.99 239.11,-30.5 224.07,-23.46"/>
<polygon fill="midnightblue" stroke="midnightblue" points="225.44,-20.24 214.87,-19.51 222.68,-26.67 225.44,-20.24"/>
</g>
<!-- Node11 -->
<g id="node11" class="node">
<title>Node11</title>
<g id="a_node11"><a xlink:href="dvd_8h.html" target="_top" xlink:title=" ">
<polygon fill="white" stroke="black" points="195,-56.5 195,-75.5 254,-75.5 254,-56.5 195,-56.5"/>
<text text-anchor="middle" x="224.5" y="-63.5" font-family="Helvetica,sans-Serif" font-size="10.00">dvd/dvd.h</text>
</a>
</g>
</g>
<!-- Node10&#45;&gt;Node11 -->
<g id="edge13" class="edge">
<title>Node10&#45;&gt;Node11</title>
<path fill="none" stroke="midnightblue" d="M257.06,-112.08C251.55,-104.46 243.47,-93.26 236.74,-83.94"/>
<polygon fill="midnightblue" stroke="midnightblue" points="239.51,-81.81 230.82,-75.75 233.84,-85.91 239.51,-81.81"/>
</g>
<!-- Node11&#45;&gt;Node6 -->
<g id="edge14" class="edge">
<title>Node11&#45;&gt;Node6</title>
<path fill="none" stroke="midnightblue" d="M218.23,-56.08C212.86,-48.46 204.98,-37.26 198.42,-27.94"/>
<polygon fill="midnightblue" stroke="midnightblue" points="201.28,-25.91 192.66,-19.75 195.55,-29.94 201.28,-25.91"/>
</g>
<!-- Node12&#45;&gt;Node6 -->
<g id="edge17" class="edge">
<title>Node12&#45;&gt;Node6</title>
<path fill="none" stroke="midnightblue" d="M28.57,-168.5C24.23,-146.94 16.05,-89.5 43.5,-56 65.83,-28.75 104.52,-17.74 136.03,-13.41"/>
<polygon fill="midnightblue" stroke="midnightblue" points="136.46,-16.88 145.98,-12.22 135.64,-9.93 136.46,-16.88"/>
</g>
</g>
</svg>
