<?xml version="1.0" encoding="UTF-8" standalone="no"?>
<!DOCTYPE svg PUBLIC "-//W3C//DTD SVG 1.1//EN"
 "http://www.w3.org/Graphics/SVG/1.1/DTD/svg11.dtd">
<!-- Generated by graphviz version 2.44.0 ()
 -->
<!-- Title: libs/SSystem/SComponent/c_m3d_g_tri.cpp Pages: 1 -->
<!--zoomable 509 -->
<svg id="main" version="1.1" xmlns="http://www.w3.org/2000/svg" xmlns:xlink="http://www.w3.org/1999/xlink" xml:space="preserve" onload="init(evt)">
<style type="text/css"><![CDATA[
.edge:hover path { stroke: red; }
.edge:hover polygon { stroke: red; fill: red; }
]]></style>
<script type="text/javascript"><![CDATA[
var edges = document.getElementsByTagName('g');
if (edges && edges.length) {
  for (var i=0;i<edges.length;i++) {
    if (edges[i].id.substr(0,4)=='edge') {
      edges[i].setAttribute('class','edge');
    }
  }
}
]]></script>
        <defs>
                <circle id="rim" cx="0" cy="0" r="7"/>
                <circle id="rim2" cx="0" cy="0" r="3.5"/>
                <g id="zoomPlus">
                        <use xlink:href="#rim" fill="#404040">
                                <set attributeName="fill" to="#808080" begin="zoomplus.mouseover" end="zoomplus.mouseout"/>
                        </use>
                        <path d="M-4,0h8M0,-4v8" fill="none" stroke="white" stroke-width="1.5" pointer-events="none"/>
                </g>
                <g id="zoomMin">
                        <use xlink:href="#rim" fill="#404040">
                                <set attributeName="fill" to="#808080" begin="zoomminus.mouseover" end="zoomminus.mouseout"/>
                        </use>
                        <path d="M-4,0h8" fill="none" stroke="white" stroke-width="1.5" pointer-events="none"/>
                </g>
                <g id="dirArrow">
                        <path fill="none" stroke="white" stroke-width="1.5" d="M0,-3.0v7 M-2.5,-0.5L0,-3.0L2.5,-0.5"/>
                </g>
               <g id="resetDef">
                       <use xlink:href="#rim2" fill="#404040">
                               <set attributeName="fill" to="#808080" begin="reset.mouseover" end="reset.mouseout"/>
                       </use>
               </g>
        </defs>

<script type="text/javascript">
var viewWidth = 509;
var viewHeight = 509;
var sectionId = 'dynsection-0';
</script>
<script xlink:href="svgpan.js"/>
<svg id="graph" class="graph">
<g id="viewport">
<title>libs/SSystem/SComponent/c_m3d_g_tri.cpp</title>
<polygon fill="white" stroke="transparent" points="-4,4 -4,-505 505,-505 505,4 -4,4"/>
<!-- Node1 -->
<g id="node1" class="node">
<title>Node1</title>
<g id="a_node1"><a xlink:title=" ">
<polygon fill="#bfbfbf" stroke="black" points="268.5,-470.5 268.5,-500.5 402.5,-500.5 402.5,-470.5 268.5,-470.5"/>
<text text-anchor="start" x="276.5" y="-488.5" font-family="Helvetica,sans-Serif" font-size="10.00">libs/SSystem/SComponent</text>
<text text-anchor="middle" x="335.5" y="-477.5" font-family="Helvetica,sans-Serif" font-size="10.00">/c_m3d_g_tri.cpp</text>
</a>
</g>
</g>
<!-- Node2 -->
<g id="node2" class="node">
<title>Node2</title>
<g id="a_node2"><a xlink:href="c__m3d__g__tri_8h.html" target="_top" xlink:title=" ">
<polygon fill="white" stroke="black" points="215.5,-403.5 215.5,-433.5 331.5,-433.5 331.5,-403.5 215.5,-403.5"/>
<text text-anchor="start" x="223.5" y="-421.5" font-family="Helvetica,sans-Serif" font-size="10.00">SComponent/c_m3d_g</text>
<text text-anchor="middle" x="273.5" y="-410.5" font-family="Helvetica,sans-Serif" font-size="10.00">_tri.h</text>
</a>
</g>
</g>
<!-- Node1&#45;&gt;Node2 -->
<g id="edge1" class="edge">
<title>Node1&#45;&gt;Node2</title>
<path fill="none" stroke="midnightblue" d="M322.05,-470.4C313.84,-461.79 303.19,-450.63 293.95,-440.94"/>
<polygon fill="midnightblue" stroke="midnightblue" points="296.36,-438.4 286.93,-433.58 291.3,-443.23 296.36,-438.4"/>
</g>
<!-- Node15 -->
<g id="node15" class="node">
<title>Node15</title>
<g id="a_node15"><a xlink:href="c__m3d_8h.html" target="_top" xlink:title=" ">
<polygon fill="white" stroke="black" points="388,-280.5 388,-299.5 501,-299.5 501,-280.5 388,-280.5"/>
<text text-anchor="middle" x="444.5" y="-287.5" font-family="Helvetica,sans-Serif" font-size="10.00">SComponent/c_m3d.h</text>
</a>
</g>
</g>
<!-- Node1&#45;&gt;Node15 -->
<g id="edge25" class="edge">
<title>Node1&#45;&gt;Node15</title>
<path fill="none" stroke="midnightblue" d="M343.52,-470.27C363.1,-435.5 413.35,-346.3 434.68,-308.42"/>
<polygon fill="midnightblue" stroke="midnightblue" points="437.81,-310.01 439.67,-299.58 431.71,-306.57 437.81,-310.01"/>
</g>
<!-- Node3 -->
<g id="node3" class="node">
<title>Node3</title>
<g id="a_node3"><a xlink:href="c__m3d__g__cyl_8h.html" target="_top" xlink:title=" ">
<polygon fill="white" stroke="black" points="215.5,-336.5 215.5,-366.5 331.5,-366.5 331.5,-336.5 215.5,-336.5"/>
<text text-anchor="start" x="223.5" y="-354.5" font-family="Helvetica,sans-Serif" font-size="10.00">SComponent/c_m3d_g</text>
<text text-anchor="middle" x="273.5" y="-343.5" font-family="Helvetica,sans-Serif" font-size="10.00">_cyl.h</text>
</a>
</g>
</g>
<!-- Node2&#45;&gt;Node3 -->
<g id="edge2" class="edge">
<title>Node2&#45;&gt;Node3</title>
<path fill="none" stroke="midnightblue" d="M273.5,-403.4C273.5,-395.64 273.5,-385.81 273.5,-376.86"/>
<polygon fill="midnightblue" stroke="midnightblue" points="277,-376.58 273.5,-366.58 270,-376.58 277,-376.58"/>
</g>
<!-- Node4 -->
<g id="node4" class="node">
<title>Node4</title>
<g id="a_node4"><a xlink:href="c__xyz_8h.html" target="_top" xlink:title=" ">
<polygon fill="white" stroke="black" points="50,-280.5 50,-299.5 157,-299.5 157,-280.5 50,-280.5"/>
<text text-anchor="middle" x="103.5" y="-287.5" font-family="Helvetica,sans-Serif" font-size="10.00">SComponent/c_xyz.h</text>
</a>
</g>
</g>
<!-- Node2&#45;&gt;Node4 -->
<g id="edge23" class="edge">
<title>Node2&#45;&gt;Node4</title>
<path fill="none" stroke="midnightblue" d="M215.37,-410.82C162.45,-403.4 89.98,-389.41 72.5,-367 58.47,-349.01 74.11,-323.8 87.8,-307.43"/>
<polygon fill="midnightblue" stroke="midnightblue" points="90.59,-309.57 94.61,-299.77 85.35,-304.92 90.59,-309.57"/>
</g>
<!-- Node6 -->
<g id="node6" class="node">
<title>Node6</title>
<g id="a_node6"><a xlink:href="global_8h.html" target="_top" xlink:title=" ">
<polygon fill="white" stroke="black" points="194.5,-168.5 194.5,-187.5 244.5,-187.5 244.5,-168.5 194.5,-168.5"/>
<text text-anchor="middle" x="219.5" y="-175.5" font-family="Helvetica,sans-Serif" font-size="10.00">global.h</text>
</a>
</g>
</g>
<!-- Node2&#45;&gt;Node6 -->
<g id="edge24" class="edge">
<title>Node2&#45;&gt;Node6</title>
<path fill="none" stroke="midnightblue" d="M303.19,-403.34C317.24,-394.92 332.64,-382.77 340.5,-367 346.65,-354.67 344.38,-349.22 340.5,-336 322.58,-275 267.5,-220.27 238.23,-194.53"/>
<polygon fill="midnightblue" stroke="midnightblue" points="240.24,-191.65 230.38,-187.78 235.68,-196.96 240.24,-191.65"/>
</g>
<!-- Node14 -->
<g id="node14" class="node">
<title>Node14</title>
<g id="a_node14"><a xlink:href="c__m3d__g__pla_8h.html" target="_top" xlink:title=" ">
<polygon fill="white" stroke="black" points="81.5,-336.5 81.5,-366.5 197.5,-366.5 197.5,-336.5 81.5,-336.5"/>
<text text-anchor="start" x="89.5" y="-354.5" font-family="Helvetica,sans-Serif" font-size="10.00">SComponent/c_m3d_g</text>
<text text-anchor="middle" x="139.5" y="-343.5" font-family="Helvetica,sans-Serif" font-size="10.00">_pla.h</text>
</a>
</g>
</g>
<!-- Node2&#45;&gt;Node14 -->
<g id="edge20" class="edge">
<title>Node2&#45;&gt;Node14</title>
<path fill="none" stroke="midnightblue" d="M244.42,-403.4C224.85,-393.9 198.82,-381.28 177.59,-370.98"/>
<polygon fill="midnightblue" stroke="midnightblue" points="179.04,-367.79 168.52,-366.58 175.99,-374.09 179.04,-367.79"/>
</g>
<!-- Node3&#45;&gt;Node4 -->
<g id="edge3" class="edge">
<title>Node3&#45;&gt;Node4</title>
<path fill="none" stroke="midnightblue" d="M233.21,-336.4C204.18,-326.24 165.42,-312.67 137.85,-303.02"/>
<polygon fill="midnightblue" stroke="midnightblue" points="138.83,-299.66 128.24,-299.66 136.52,-306.26 138.83,-299.66"/>
</g>
<!-- Node3&#45;&gt;Node6 -->
<g id="edge19" class="edge">
<title>Node3&#45;&gt;Node6</title>
<path fill="none" stroke="midnightblue" d="M273.06,-336.27C271.89,-312.24 267.55,-262.47 251.5,-224 247.22,-213.73 240.24,-203.53 233.9,-195.44"/>
<polygon fill="midnightblue" stroke="midnightblue" points="236.48,-193.07 227.41,-187.59 231.08,-197.53 236.48,-193.07"/>
</g>
<!-- Node5 -->
<g id="node5" class="node">
<title>Node5</title>
<g id="a_node5"><a xlink:href="c__math_8h.html" target="_top" xlink:title=" ">
<polygon fill="white" stroke="black" points="93.5,-224.5 93.5,-243.5 209.5,-243.5 209.5,-224.5 93.5,-224.5"/>
<text text-anchor="middle" x="151.5" y="-231.5" font-family="Helvetica,sans-Serif" font-size="10.00">SComponent/c_math.h</text>
</a>
</g>
</g>
<!-- Node4&#45;&gt;Node5 -->
<g id="edge4" class="edge">
<title>Node4&#45;&gt;Node5</title>
<path fill="none" stroke="midnightblue" d="M111.43,-280.08C118.35,-272.3 128.57,-260.8 136.95,-251.37"/>
<polygon fill="midnightblue" stroke="midnightblue" points="139.69,-253.55 143.72,-243.75 134.46,-248.9 139.69,-253.55"/>
</g>
<!-- Node4&#45;&gt;Node6 -->
<g id="edge16" class="edge">
<title>Node4&#45;&gt;Node6</title>
<path fill="none" stroke="midnightblue" d="M96.52,-280.2C86.87,-266.89 71.99,-241.36 84.5,-224 107.02,-192.76 152.17,-182.88 184.04,-179.93"/>
<polygon fill="midnightblue" stroke="midnightblue" points="184.57,-183.4 194.28,-179.17 184.05,-176.42 184.57,-183.4"/>
</g>
<!-- Node13 -->
<g id="node13" class="node">
<title>Node13</title>
<g id="a_node13"><a xlink:href="mtx__vec_8h.html" target="_top" xlink:title=" ">
<polygon fill="white" stroke="black" points="0,-168.5 0,-187.5 61,-187.5 61,-168.5 0,-168.5"/>
<text text-anchor="middle" x="30.5" y="-175.5" font-family="Helvetica,sans-Serif" font-size="10.00">mtx_vec.h</text>
</a>
</g>
</g>
<!-- Node4&#45;&gt;Node13 -->
<g id="edge17" class="edge">
<title>Node4&#45;&gt;Node13</title>
<path fill="none" stroke="midnightblue" d="M89.69,-280.24C77.97,-272.16 61.52,-259.13 51.5,-244 42.19,-229.94 36.74,-211.45 33.74,-197.78"/>
<polygon fill="midnightblue" stroke="midnightblue" points="37.11,-196.79 31.76,-187.64 30.24,-198.13 37.11,-196.79"/>
</g>
<!-- Node5&#45;&gt;Node6 -->
<g id="edge5" class="edge">
<title>Node5&#45;&gt;Node6</title>
<path fill="none" stroke="midnightblue" d="M162.43,-224.32C172.67,-216.18 188.22,-203.84 200.5,-194.09"/>
<polygon fill="midnightblue" stroke="midnightblue" points="202.72,-196.79 208.38,-187.83 198.37,-191.31 202.72,-196.79"/>
</g>
<!-- Node7 -->
<g id="node7" class="node">
<title>Node7</title>
<g id="a_node7"><a xlink:href="types_8h.html" target="_top" xlink:title=" ">
<polygon fill="white" stroke="black" points="232,-0.5 232,-19.5 313,-19.5 313,-0.5 232,-0.5"/>
<text text-anchor="middle" x="272.5" y="-7.5" font-family="Helvetica,sans-Serif" font-size="10.00">dolphin/types.h</text>
</a>
</g>
</g>
<!-- Node6&#45;&gt;Node7 -->
<g id="edge6" class="edge">
<title>Node6&#45;&gt;Node7</title>
<path fill="none" stroke="midnightblue" d="M210.27,-168.26C189.59,-147.57 143.22,-94.49 168.5,-56 180.57,-37.63 201.91,-26.72 222.13,-20.26"/>
<polygon fill="midnightblue" stroke="midnightblue" points="223.29,-23.57 231.92,-17.44 221.35,-16.85 223.29,-23.57"/>
</g>
<!-- Node8 -->
<g id="node8" class="node">
<title>Node8</title>
<g id="a_node8"><a xlink:href="AR_8h.html" target="_top" xlink:title=" ">
<polygon fill="white" stroke="black" points="177,-56.5 177,-75.5 226,-75.5 226,-56.5 177,-56.5"/>
<text text-anchor="middle" x="201.5" y="-63.5" font-family="Helvetica,sans-Serif" font-size="10.00">ar/AR.h</text>
</a>
</g>
</g>
<!-- Node6&#45;&gt;Node8 -->
<g id="edge7" class="edge">
<title>Node6&#45;&gt;Node8</title>
<path fill="none" stroke="midnightblue" d="M218.09,-168.37C215.18,-150.62 208.48,-109.67 204.54,-85.6"/>
<polygon fill="midnightblue" stroke="midnightblue" points="207.97,-84.89 202.91,-75.59 201.07,-86.03 207.97,-84.89"/>
</g>
<!-- Node9 -->
<g id="node9" class="node">
<title>Node9</title>
<g id="a_node9"><a xlink:href="ARQ_8h.html" target="_top" xlink:title=" ">
<polygon fill="white" stroke="black" points="244.5,-56.5 244.5,-75.5 300.5,-75.5 300.5,-56.5 244.5,-56.5"/>
<text text-anchor="middle" x="272.5" y="-63.5" font-family="Helvetica,sans-Serif" font-size="10.00">ar/ARQ.h</text>
</a>
</g>
</g>
<!-- Node6&#45;&gt;Node9 -->
<g id="edge9" class="edge">
<title>Node6&#45;&gt;Node9</title>
<path fill="none" stroke="midnightblue" d="M223.66,-168.37C232.33,-150.38 252.48,-108.55 264.01,-84.63"/>
<polygon fill="midnightblue" stroke="midnightblue" points="267.17,-86.12 268.36,-75.59 260.87,-83.08 267.17,-86.12"/>
</g>
<!-- Node10 -->
<g id="node10" class="node">
<title>Node10</title>
<g id="a_node10"><a xlink:href="mwcc_8h.html" target="_top" xlink:title=" ">
<polygon fill="white" stroke="black" points="70.5,-112.5 70.5,-131.5 120.5,-131.5 120.5,-112.5 70.5,-112.5"/>
<text text-anchor="middle" x="95.5" y="-119.5" font-family="Helvetica,sans-Serif" font-size="10.00">mwcc.h</text>
</a>
</g>
</g>
<!-- Node6&#45;&gt;Node10 -->
<g id="edge11" class="edge">
<title>Node6&#45;&gt;Node10</title>
<path fill="none" stroke="midnightblue" d="M199.85,-168.44C179.54,-159.6 147.6,-145.69 124.4,-135.59"/>
<polygon fill="midnightblue" stroke="midnightblue" points="125.62,-132.3 115.06,-131.52 122.83,-138.72 125.62,-132.3"/>
</g>
<!-- Node11 -->
<g id="node11" class="node">
<title>Node11</title>
<g id="a_node11"><a xlink:href="OS_8h.html" target="_top" xlink:title=" ">
<polygon fill="white" stroke="black" points="302.5,-112.5 302.5,-131.5 354.5,-131.5 354.5,-112.5 302.5,-112.5"/>
<text text-anchor="middle" x="328.5" y="-119.5" font-family="Helvetica,sans-Serif" font-size="10.00">os/OS.h</text>
</a>
</g>
</g>
<!-- Node6&#45;&gt;Node11 -->
<g id="edge12" class="edge">
<title>Node6&#45;&gt;Node11</title>
<path fill="none" stroke="midnightblue" d="M237.01,-168.32C254.57,-159.62 281.83,-146.12 302.03,-136.11"/>
<polygon fill="midnightblue" stroke="midnightblue" points="303.62,-139.23 311.03,-131.65 300.52,-132.96 303.62,-139.23"/>
</g>
<!-- Node8&#45;&gt;Node7 -->
<g id="edge8" class="edge">
<title>Node8&#45;&gt;Node7</title>
<path fill="none" stroke="midnightblue" d="M212.91,-56.32C223.61,-48.18 239.84,-35.84 252.66,-26.09"/>
<polygon fill="midnightblue" stroke="midnightblue" points="255.04,-28.67 260.89,-19.83 250.81,-23.1 255.04,-28.67"/>
</g>
<!-- Node9&#45;&gt;Node7 -->
<g id="edge10" class="edge">
<title>Node9&#45;&gt;Node7</title>
<path fill="none" stroke="midnightblue" d="M272.5,-56.08C272.5,-49.01 272.5,-38.86 272.5,-29.99"/>
<polygon fill="midnightblue" stroke="midnightblue" points="276,-29.75 272.5,-19.75 269,-29.75 276,-29.75"/>
</g>
<!-- Node11&#45;&gt;Node7 -->
<g id="edge13" class="edge">
<title>Node11&#45;&gt;Node7</title>
<path fill="none" stroke="midnightblue" d="M327.09,-112.16C324.77,-99.24 319.39,-74.71 309.5,-56 303.9,-45.4 295.56,-34.98 288.21,-26.83"/>
<polygon fill="midnightblue" stroke="midnightblue" points="290.73,-24.41 281.33,-19.52 285.64,-29.2 290.73,-24.41"/>
</g>
<!-- Node12 -->
<g id="node12" class="node">
<title>Node12</title>
<g id="a_node12"><a xlink:href="dvd_8h.html" target="_top" xlink:title=" ">
<polygon fill="white" stroke="black" points="357,-56.5 357,-75.5 416,-75.5 416,-56.5 357,-56.5"/>
<text text-anchor="middle" x="386.5" y="-63.5" font-family="Helvetica,sans-Serif" font-size="10.00">dvd/dvd.h</text>
</a>
</g>
</g>
<!-- Node11&#45;&gt;Node12 -->
<g id="edge14" class="edge">
<title>Node11&#45;&gt;Node12</title>
<path fill="none" stroke="midnightblue" d="M337.82,-112.32C346.39,-104.34 359.31,-92.31 369.69,-82.65"/>
<polygon fill="midnightblue" stroke="midnightblue" points="372.08,-85.21 377.01,-75.83 367.31,-80.09 372.08,-85.21"/>
</g>
<!-- Node12&#45;&gt;Node7 -->
<g id="edge15" class="edge">
<title>Node12&#45;&gt;Node7</title>
<path fill="none" stroke="midnightblue" d="M368.44,-56.44C349.93,-47.68 320.92,-33.94 299.64,-23.86"/>
<polygon fill="midnightblue" stroke="midnightblue" points="301.01,-20.63 290.48,-19.52 298.02,-26.96 301.01,-20.63"/>
</g>
<!-- Node13&#45;&gt;Node7 -->
<g id="edge18" class="edge">
<title>Node13&#45;&gt;Node7</title>
<path fill="none" stroke="midnightblue" d="M32.79,-168.49C36.74,-155.12 45.96,-128.96 61.5,-112 105.93,-63.49 178.61,-35.93 226,-22.23"/>
<polygon fill="midnightblue" stroke="midnightblue" points="227.02,-25.58 235.71,-19.52 225.14,-18.84 227.02,-25.58"/>
</g>
<!-- Node14&#45;&gt;Node4 -->
<g id="edge21" class="edge">
<title>Node14&#45;&gt;Node4</title>
<path fill="none" stroke="midnightblue" d="M130.97,-336.4C125.9,-328.02 119.43,-317.33 114.04,-308.42"/>
<polygon fill="midnightblue" stroke="midnightblue" points="116.91,-306.4 108.74,-299.66 110.92,-310.03 116.91,-306.4"/>
</g>
<!-- Node14&#45;&gt;Node6 -->
<g id="edge22" class="edge">
<title>Node14&#45;&gt;Node6</title>
<path fill="none" stroke="midnightblue" d="M154.67,-336.4C173.77,-317.5 205.64,-281.94 218.5,-244 223.54,-229.12 223.4,-211.2 222.21,-197.95"/>
<polygon fill="midnightblue" stroke="midnightblue" points="225.65,-197.22 221.01,-187.7 218.7,-198.04 225.65,-197.22"/>
</g>
<!-- Node15&#45;&gt;Node7 -->
<g id="edge26" class="edge">
<title>Node15&#45;&gt;Node7</title>
<path fill="none" stroke="midnightblue" d="M444.5,-280.44C444.5,-261.94 444.5,-216.81 444.5,-179 444.5,-179 444.5,-179 444.5,-121 444.5,-90.9 446.76,-77.3 425.5,-56 398.55,-29.01 356.31,-18.04 323.03,-13.66"/>
<polygon fill="midnightblue" stroke="midnightblue" points="323.35,-10.17 313.01,-12.5 322.55,-17.12 323.35,-10.17"/>
</g>
</g>
</svg>
        <g id="navigator" transform="translate(0 0)" fill="#404254">
                <rect fill="#f2f5e9" fill-opacity="0.5" stroke="#606060" stroke-width=".5" x="0" y="0" width="60" height="60"/>
                <use id="zoomplus" xlink:href="#zoomPlus" x="17" y="9" onmousedown="handleZoom(evt,'in')"/>
                <use id="zoomminus" xlink:href="#zoomMin" x="42" y="9" onmousedown="handleZoom(evt,'out')"/>
                <use id="reset" xlink:href="#resetDef" x="30" y="36" onmousedown="handleReset()"/>
                <g id="arrowUp" xlink:href="#dirArrow" transform="translate(30 24)" onmousedown="handlePan(0,-1)">
                  <use xlink:href="#rim" fill="#404040">
                        <set attributeName="fill" to="#808080" begin="arrowUp.mouseover" end="arrowUp.mouseout"/>
                  </use>
                  <path fill="none" stroke="white" stroke-width="1.5" d="M0,-3.0v7 M-2.5,-0.5L0,-3.0L2.5,-0.5"/>
                </g>
                <g id="arrowRight" xlink:href="#dirArrow" transform="rotate(90) translate(36 -43)" onmousedown="handlePan(1,0)">
                  <use xlink:href="#rim" fill="#404040">
                        <set attributeName="fill" to="#808080" begin="arrowRight.mouseover" end="arrowRight.mouseout"/>
                  </use>
                  <path fill="none" stroke="white" stroke-width="1.5" d="M0,-3.0v7 M-2.5,-0.5L0,-3.0L2.5,-0.5"/>
                </g>
                <g id="arrowDown" xlink:href="#dirArrow" transform="rotate(180) translate(-30 -48)" onmousedown="handlePan(0,1)">
                  <use xlink:href="#rim" fill="#404040">
                        <set attributeName="fill" to="#808080" begin="arrowDown.mouseover" end="arrowDown.mouseout"/>
                  </use>
                  <path fill="none" stroke="white" stroke-width="1.5" d="M0,-3.0v7 M-2.5,-0.5L0,-3.0L2.5,-0.5"/>
                </g>
                <g id="arrowLeft" xlink:href="#dirArrow" transform="rotate(270) translate(-36 17)" onmousedown="handlePan(-1,0)">
                  <use xlink:href="#rim" fill="#404040">
                        <set attributeName="fill" to="#808080" begin="arrowLeft.mouseover" end="arrowLeft.mouseout"/>
                  </use>
                  <path fill="none" stroke="white" stroke-width="1.5" d="M0,-3.0v7 M-2.5,-0.5L0,-3.0L2.5,-0.5"/>
                </g>
        </g>
        <svg viewBox="0 0 15 15" width="100%" height="30px" preserveAspectRatio="xMaxYMin meet">
         <g id="arrow_out" transform="scale(0.3 0.3)">
          <a xlink:href="c__m3d__g__tri_8cpp__incl_org.svg" target="_base">
           <rect id="button" ry="5" rx="5" y="6" x="6" height="38" width="38"
                fill="#f2f5e9" fill-opacity="0.5" stroke="#606060" stroke-width="1.0"/>
           <path id="arrow"
             d="M 11.500037,31.436501 C 11.940474,20.09759 22.043105,11.32322 32.158766,21.979434 L 37.068811,17.246167 C 37.068811,17.246167 37.088388,32 37.088388,32 L 22.160133,31.978069 C 22.160133,31.978069 26.997745,27.140456 26.997745,27.140456 C 18.528582,18.264221 13.291696,25.230495 11.500037,31.436501 z"
             style="fill:#404040;"/>
          </a>
         </g>
        </svg>
</svg>
