<?xml version="1.0" encoding="UTF-8" standalone="no"?>
<!DOCTYPE svg PUBLIC "-//W3C//DTD SVG 1.1//EN"
 "http://www.w3.org/Graphics/SVG/1.1/DTD/svg11.dtd">
<!-- Generated by graphviz version 2.44.0 ()
 -->
<!-- Title: libs/SSystem/SComponent/c_m3d_g_lin.cpp Pages: 1 -->
<svg width="342pt" height="442pt"
 viewBox="0.00 0.00 342.00 442.00" xmlns="http://www.w3.org/2000/svg" xmlns:xlink="http://www.w3.org/1999/xlink">
<g id="graph0" class="graph" transform="scale(1 1) rotate(0) translate(4 438)">
<title>libs/SSystem/SComponent/c_m3d_g_lin.cpp</title>
<polygon fill="white" stroke="transparent" points="-4,4 -4,-438 338,-438 338,4 -4,4"/>
<!-- Node1 -->
<g id="node1" class="node">
<title>Node1</title>
<g id="a_node1"><a xlink:title=" ">
<polygon fill="#bfbfbf" stroke="black" points="193.5,-403.5 193.5,-433.5 327.5,-433.5 327.5,-403.5 193.5,-403.5"/>
<text text-anchor="start" x="201.5" y="-421.5" font-family="Helvetica,sans-Serif" font-size="10.00">libs/SSystem/SComponent</text>
<text text-anchor="middle" x="260.5" y="-410.5" font-family="Helvetica,sans-Serif" font-size="10.00">/c_m3d_g_lin.cpp</text>
</a>
</g>
</g>
<!-- Node2 -->
<g id="node2" class="node">
<title>Node2</title>
<g id="a_node2"><a xlink:href="c__m3d__g__lin_8h.html" target="_top" xlink:title=" ">
<polygon fill="white" stroke="black" points="159.5,-336.5 159.5,-366.5 275.5,-366.5 275.5,-336.5 159.5,-336.5"/>
<text text-anchor="start" x="167.5" y="-354.5" font-family="Helvetica,sans-Serif" font-size="10.00">SComponent/c_m3d_g</text>
<text text-anchor="middle" x="217.5" y="-343.5" font-family="Helvetica,sans-Serif" font-size="10.00">_lin.h</text>
</a>
</g>
</g>
<!-- Node1&#45;&gt;Node2 -->
<g id="edge1" class="edge">
<title>Node1&#45;&gt;Node2</title>
<path fill="none" stroke="midnightblue" d="M251.17,-403.4C245.7,-395.13 238.67,-384.51 232.45,-375.1"/>
<polygon fill="midnightblue" stroke="midnightblue" points="235.25,-372.99 226.81,-366.58 229.41,-376.85 235.25,-372.99"/>
</g>
<!-- Node12 -->
<g id="node12" class="node">
<title>Node12</title>
<g id="a_node12"><a xlink:href="mtx__vec_8h.html" target="_top" xlink:title=" ">
<polygon fill="white" stroke="black" points="273,-224.5 273,-243.5 334,-243.5 334,-224.5 273,-224.5"/>
<text text-anchor="middle" x="303.5" y="-231.5" font-family="Helvetica,sans-Serif" font-size="10.00">mtx_vec.h</text>
</a>
</g>
</g>
<!-- Node1&#45;&gt;Node12 -->
<g id="edge19" class="edge">
<title>Node1&#45;&gt;Node12</title>
<path fill="none" stroke="midnightblue" d="M268.63,-403.38C273.96,-393.5 280.63,-379.82 284.5,-367 296.34,-327.79 300.89,-279.74 302.57,-253.79"/>
<polygon fill="midnightblue" stroke="midnightblue" points="306.08,-253.71 303.16,-243.53 299.09,-253.31 306.08,-253.71"/>
</g>
<!-- Node3 -->
<g id="node3" class="node">
<title>Node3</title>
<g id="a_node3"><a xlink:href="c__xyz_8h.html" target="_top" xlink:title=" ">
<polygon fill="white" stroke="black" points="166,-280.5 166,-299.5 273,-299.5 273,-280.5 166,-280.5"/>
<text text-anchor="middle" x="219.5" y="-287.5" font-family="Helvetica,sans-Serif" font-size="10.00">SComponent/c_xyz.h</text>
</a>
</g>
</g>
<!-- Node2&#45;&gt;Node3 -->
<g id="edge2" class="edge">
<title>Node2&#45;&gt;Node3</title>
<path fill="none" stroke="midnightblue" d="M217.97,-336.4C218.24,-328.47 218.58,-318.46 218.87,-309.86"/>
<polygon fill="midnightblue" stroke="midnightblue" points="222.37,-309.77 219.21,-299.66 215.37,-309.53 222.37,-309.77"/>
</g>
<!-- Node5 -->
<g id="node5" class="node">
<title>Node5</title>
<g id="a_node5"><a xlink:href="global_8h.html" target="_top" xlink:title=" ">
<polygon fill="white" stroke="black" points="127.5,-168.5 127.5,-187.5 177.5,-187.5 177.5,-168.5 127.5,-168.5"/>
<text text-anchor="middle" x="152.5" y="-175.5" font-family="Helvetica,sans-Serif" font-size="10.00">global.h</text>
</a>
</g>
</g>
<!-- Node2&#45;&gt;Node5 -->
<g id="edge18" class="edge">
<title>Node2&#45;&gt;Node5</title>
<path fill="none" stroke="midnightblue" d="M188.28,-336.5C156.73,-319.56 108.23,-287.77 87.5,-244 77.28,-222.42 101.21,-203.86 122.86,-192.16"/>
<polygon fill="midnightblue" stroke="midnightblue" points="124.56,-195.23 131.9,-187.58 121.4,-188.98 124.56,-195.23"/>
</g>
<!-- Node4 -->
<g id="node4" class="node">
<title>Node4</title>
<g id="a_node4"><a xlink:href="c__math_8h.html" target="_top" xlink:title=" ">
<polygon fill="white" stroke="black" points="96.5,-224.5 96.5,-243.5 212.5,-243.5 212.5,-224.5 96.5,-224.5"/>
<text text-anchor="middle" x="154.5" y="-231.5" font-family="Helvetica,sans-Serif" font-size="10.00">SComponent/c_math.h</text>
</a>
</g>
</g>
<!-- Node3&#45;&gt;Node4 -->
<g id="edge3" class="edge">
<title>Node3&#45;&gt;Node4</title>
<path fill="none" stroke="midnightblue" d="M209.06,-280.32C199.35,-272.26 184.68,-260.08 173,-250.37"/>
<polygon fill="midnightblue" stroke="midnightblue" points="175.06,-247.53 165.13,-243.83 170.59,-252.92 175.06,-247.53"/>
</g>
<!-- Node3&#45;&gt;Node5 -->
<g id="edge15" class="edge">
<title>Node3&#45;&gt;Node5</title>
<path fill="none" stroke="midnightblue" d="M222.36,-280.38C226.15,-267.3 231.29,-242.07 221.5,-224 213.75,-209.7 199.27,-199.22 185.56,-191.99"/>
<polygon fill="midnightblue" stroke="midnightblue" points="186.81,-188.71 176.29,-187.5 183.76,-195.01 186.81,-188.71"/>
</g>
<!-- Node3&#45;&gt;Node12 -->
<g id="edge16" class="edge">
<title>Node3&#45;&gt;Node12</title>
<path fill="none" stroke="midnightblue" d="M233,-280.32C246.1,-271.9 266.21,-258.97 281.61,-249.07"/>
<polygon fill="midnightblue" stroke="midnightblue" points="283.52,-252.01 290.04,-243.65 279.73,-246.12 283.52,-252.01"/>
</g>
<!-- Node4&#45;&gt;Node5 -->
<g id="edge4" class="edge">
<title>Node4&#45;&gt;Node5</title>
<path fill="none" stroke="midnightblue" d="M154.17,-224.08C153.91,-217.01 153.53,-206.86 153.2,-197.99"/>
<polygon fill="midnightblue" stroke="midnightblue" points="156.69,-197.61 152.82,-187.75 149.7,-197.87 156.69,-197.61"/>
</g>
<!-- Node6 -->
<g id="node6" class="node">
<title>Node6</title>
<g id="a_node6"><a xlink:href="types_8h.html" target="_top" xlink:title=" ">
<polygon fill="white" stroke="black" points="160,-0.5 160,-19.5 241,-19.5 241,-0.5 160,-0.5"/>
<text text-anchor="middle" x="200.5" y="-7.5" font-family="Helvetica,sans-Serif" font-size="10.00">dolphin/types.h</text>
</a>
</g>
</g>
<!-- Node5&#45;&gt;Node6 -->
<g id="edge5" class="edge">
<title>Node5&#45;&gt;Node6</title>
<path fill="none" stroke="midnightblue" d="M177.51,-172.96C200.4,-167.79 233,-156.39 248.5,-132 270.41,-97.54 237.47,-51.44 216.2,-27.3"/>
<polygon fill="midnightblue" stroke="midnightblue" points="218.61,-24.75 209.28,-19.74 213.45,-29.48 218.61,-24.75"/>
</g>
<!-- Node7 -->
<g id="node7" class="node">
<title>Node7</title>
<g id="a_node7"><a xlink:href="AR_8h.html" target="_top" xlink:title=" ">
<polygon fill="white" stroke="black" points="0,-56.5 0,-75.5 49,-75.5 49,-56.5 0,-56.5"/>
<text text-anchor="middle" x="24.5" y="-63.5" font-family="Helvetica,sans-Serif" font-size="10.00">ar/AR.h</text>
</a>
</g>
</g>
<!-- Node5&#45;&gt;Node7 -->
<g id="edge6" class="edge">
<title>Node5&#45;&gt;Node7</title>
<path fill="none" stroke="midnightblue" d="M142.31,-168.4C131.62,-159.37 114.34,-144.73 99.5,-132 79.86,-115.15 57.45,-95.7 42.28,-82.5"/>
<polygon fill="midnightblue" stroke="midnightblue" points="44.5,-79.79 34.66,-75.86 39.9,-85.07 44.5,-79.79"/>
</g>
<!-- Node8 -->
<g id="node8" class="node">
<title>Node8</title>
<g id="a_node8"><a xlink:href="ARQ_8h.html" target="_top" xlink:title=" ">
<polygon fill="white" stroke="black" points="67.5,-56.5 67.5,-75.5 123.5,-75.5 123.5,-56.5 67.5,-56.5"/>
<text text-anchor="middle" x="95.5" y="-63.5" font-family="Helvetica,sans-Serif" font-size="10.00">ar/ARQ.h</text>
</a>
</g>
</g>
<!-- Node5&#45;&gt;Node8 -->
<g id="edge8" class="edge">
<title>Node5&#45;&gt;Node8</title>
<path fill="none" stroke="midnightblue" d="M141.49,-168.18C131.86,-159.86 118.23,-146.53 110.5,-132 102.85,-117.62 99.08,-99.43 97.23,-85.95"/>
<polygon fill="midnightblue" stroke="midnightblue" points="100.7,-85.46 96.09,-75.92 93.75,-86.25 100.7,-85.46"/>
</g>
<!-- Node9 -->
<g id="node9" class="node">
<title>Node9</title>
<g id="a_node9"><a xlink:href="mwcc_8h.html" target="_top" xlink:title=" ">
<polygon fill="white" stroke="black" points="119.5,-112.5 119.5,-131.5 169.5,-131.5 169.5,-112.5 119.5,-112.5"/>
<text text-anchor="middle" x="144.5" y="-119.5" font-family="Helvetica,sans-Serif" font-size="10.00">mwcc.h</text>
</a>
</g>
</g>
<!-- Node5&#45;&gt;Node9 -->
<g id="edge10" class="edge">
<title>Node5&#45;&gt;Node9</title>
<path fill="none" stroke="midnightblue" d="M151.18,-168.08C150.12,-160.93 148.59,-150.64 147.27,-141.69"/>
<polygon fill="midnightblue" stroke="midnightblue" points="150.72,-141.13 145.8,-131.75 143.8,-142.16 150.72,-141.13"/>
</g>
<!-- Node10 -->
<g id="node10" class="node">
<title>Node10</title>
<g id="a_node10"><a xlink:href="OS_8h.html" target="_top" xlink:title=" ">
<polygon fill="white" stroke="black" points="187.5,-112.5 187.5,-131.5 239.5,-131.5 239.5,-112.5 187.5,-112.5"/>
<text text-anchor="middle" x="213.5" y="-119.5" font-family="Helvetica,sans-Serif" font-size="10.00">os/OS.h</text>
</a>
</g>
</g>
<!-- Node5&#45;&gt;Node10 -->
<g id="edge11" class="edge">
<title>Node5&#45;&gt;Node10</title>
<path fill="none" stroke="midnightblue" d="M162.3,-168.32C171.32,-160.34 184.91,-148.31 195.82,-138.65"/>
<polygon fill="midnightblue" stroke="midnightblue" points="198.35,-141.08 203.52,-131.83 193.71,-135.84 198.35,-141.08"/>
</g>
<!-- Node7&#45;&gt;Node6 -->
<g id="edge7" class="edge">
<title>Node7&#45;&gt;Node6</title>
<path fill="none" stroke="midnightblue" d="M49.34,-57.38C78.92,-48.3 128.63,-33.05 162.92,-22.53"/>
<polygon fill="midnightblue" stroke="midnightblue" points="164.06,-25.84 172.59,-19.56 162,-19.15 164.06,-25.84"/>
</g>
<!-- Node8&#45;&gt;Node6 -->
<g id="edge9" class="edge">
<title>Node8&#45;&gt;Node6</title>
<path fill="none" stroke="midnightblue" d="M112.37,-56.32C129.21,-47.66 155.31,-34.24 174.74,-24.25"/>
<polygon fill="midnightblue" stroke="midnightblue" points="176.38,-27.34 183.67,-19.65 173.18,-21.12 176.38,-27.34"/>
</g>
<!-- Node10&#45;&gt;Node6 -->
<g id="edge12" class="edge">
<title>Node10&#45;&gt;Node6</title>
<path fill="none" stroke="midnightblue" d="M213.34,-112.13C213.02,-99.59 212.1,-75.96 209.5,-56 208.35,-47.2 206.5,-37.54 204.78,-29.43"/>
<polygon fill="midnightblue" stroke="midnightblue" points="208.17,-28.57 202.58,-19.57 201.34,-30.09 208.17,-28.57"/>
</g>
<!-- Node11 -->
<g id="node11" class="node">
<title>Node11</title>
<g id="a_node11"><a xlink:href="dvd_8h.html" target="_top" xlink:title=" ">
<polygon fill="white" stroke="black" points="142,-56.5 142,-75.5 201,-75.5 201,-56.5 142,-56.5"/>
<text text-anchor="middle" x="171.5" y="-63.5" font-family="Helvetica,sans-Serif" font-size="10.00">dvd/dvd.h</text>
</a>
</g>
</g>
<!-- Node10&#45;&gt;Node11 -->
<g id="edge13" class="edge">
<title>Node10&#45;&gt;Node11</title>
<path fill="none" stroke="midnightblue" d="M206.56,-112.08C200.57,-104.38 191.75,-93.03 184.45,-83.65"/>
<polygon fill="midnightblue" stroke="midnightblue" points="187.21,-81.5 178.31,-75.75 181.68,-85.79 187.21,-81.5"/>
</g>
<!-- Node11&#45;&gt;Node6 -->
<g id="edge14" class="edge">
<title>Node11&#45;&gt;Node6</title>
<path fill="none" stroke="midnightblue" d="M176.29,-56.08C180.26,-48.69 186.03,-37.95 190.93,-28.81"/>
<polygon fill="midnightblue" stroke="midnightblue" points="194.15,-30.22 195.8,-19.75 187.99,-26.91 194.15,-30.22"/>
</g>
<!-- Node12&#45;&gt;Node6 -->
<g id="edge17" class="edge">
<title>Node12&#45;&gt;Node6</title>
<path fill="none" stroke="midnightblue" d="M303.17,-224.49C301.76,-197.56 294.47,-112.63 257.5,-56 249.34,-43.5 236.54,-32.94 225.14,-25.2"/>
<polygon fill="midnightblue" stroke="midnightblue" points="226.72,-22.05 216.41,-19.61 222.94,-27.95 226.72,-22.05"/>
</g>
</g>
</svg>
