<?xml version="1.0" encoding="UTF-8" standalone="no"?>
<!DOCTYPE svg PUBLIC "-//W3C//DTD SVG 1.1//EN"
 "http://www.w3.org/Graphics/SVG/1.1/DTD/svg11.dtd">
<!-- Generated by graphviz version 2.44.0 ()
 -->
<!-- Title: libs/SSystem/SComponent/c_m3d_g_pla.cpp Pages: 1 -->
<svg width="485pt" height="442pt"
 viewBox="0.00 0.00 484.50 442.00" xmlns="http://www.w3.org/2000/svg" xmlns:xlink="http://www.w3.org/1999/xlink">
<g id="graph0" class="graph" transform="scale(1 1) rotate(0) translate(4 438)">
<title>libs/SSystem/SComponent/c_m3d_g_pla.cpp</title>
<polygon fill="white" stroke="transparent" points="-4,4 -4,-438 480.5,-438 480.5,4 -4,4"/>
<!-- Node1 -->
<g id="node1" class="node">
<title>Node1</title>
<g id="a_node1"><a xlink:title=" ">
<polygon fill="#bfbfbf" stroke="black" points="289,-403.5 289,-433.5 423,-433.5 423,-403.5 289,-403.5"/>
<text text-anchor="start" x="297" y="-421.5" font-family="Helvetica,sans-Serif" font-size="10.00">libs/SSystem/SComponent</text>
<text text-anchor="middle" x="356" y="-410.5" font-family="Helvetica,sans-Serif" font-size="10.00">/c_m3d_g_pla.cpp</text>
</a>
</g>
</g>
<!-- Node2 -->
<g id="node2" class="node">
<title>Node2</title>
<g id="a_node2"><a xlink:href="c__m3d__g__pla_8h.html" target="_top" xlink:title=" ">
<polygon fill="white" stroke="black" points="170,-336.5 170,-366.5 286,-366.5 286,-336.5 170,-336.5"/>
<text text-anchor="start" x="178" y="-354.5" font-family="Helvetica,sans-Serif" font-size="10.00">SComponent/c_m3d_g</text>
<text text-anchor="middle" x="228" y="-343.5" font-family="Helvetica,sans-Serif" font-size="10.00">_pla.h</text>
</a>
</g>
</g>
<!-- Node1&#45;&gt;Node2 -->
<g id="edge1" class="edge">
<title>Node1&#45;&gt;Node2</title>
<path fill="none" stroke="midnightblue" d="M328.23,-403.4C309.61,-393.94 284.89,-381.39 264.66,-371.12"/>
<polygon fill="midnightblue" stroke="midnightblue" points="266.22,-367.98 255.72,-366.58 263.05,-374.23 266.22,-367.98"/>
</g>
<!-- Node13 -->
<g id="node13" class="node">
<title>Node13</title>
<g id="a_node13"><a xlink:href="c__m3d_8h.html" target="_top" xlink:title=" ">
<polygon fill="white" stroke="black" points="299.5,-280.5 299.5,-299.5 412.5,-299.5 412.5,-280.5 299.5,-280.5"/>
<text text-anchor="middle" x="356" y="-287.5" font-family="Helvetica,sans-Serif" font-size="10.00">SComponent/c_m3d.h</text>
</a>
</g>
</g>
<!-- Node1&#45;&gt;Node13 -->
<g id="edge19" class="edge">
<title>Node1&#45;&gt;Node13</title>
<path fill="none" stroke="midnightblue" d="M356,-403.48C356,-380.72 356,-335.7 356,-310.06"/>
<polygon fill="midnightblue" stroke="midnightblue" points="359.5,-309.79 356,-299.79 352.5,-309.79 359.5,-309.79"/>
</g>
<!-- Node14 -->
<g id="node14" class="node">
<title>Node14</title>
<g id="a_node14"><a xlink:href="math_8h.html" target="_top" xlink:title=" ">
<polygon fill="white" stroke="black" points="401.5,-168.5 401.5,-187.5 476.5,-187.5 476.5,-168.5 401.5,-168.5"/>
<text text-anchor="middle" x="439" y="-175.5" font-family="Helvetica,sans-Serif" font-size="10.00">msl_c/math.h</text>
</a>
</g>
</g>
<!-- Node1&#45;&gt;Node14 -->
<g id="edge21" class="edge">
<title>Node1&#45;&gt;Node14</title>
<path fill="none" stroke="midnightblue" d="M366.19,-403.49C381.07,-382.25 408.45,-340.12 422,-300 433.72,-265.28 437.37,-222.33 438.5,-198.06"/>
<polygon fill="midnightblue" stroke="midnightblue" points="442,-197.88 438.87,-187.76 435.01,-197.63 442,-197.88"/>
</g>
<!-- Node3 -->
<g id="node3" class="node">
<title>Node3</title>
<g id="a_node3"><a xlink:href="c__xyz_8h.html" target="_top" xlink:title=" ">
<polygon fill="white" stroke="black" points="174.5,-280.5 174.5,-299.5 281.5,-299.5 281.5,-280.5 174.5,-280.5"/>
<text text-anchor="middle" x="228" y="-287.5" font-family="Helvetica,sans-Serif" font-size="10.00">SComponent/c_xyz.h</text>
</a>
</g>
</g>
<!-- Node2&#45;&gt;Node3 -->
<g id="edge2" class="edge">
<title>Node2&#45;&gt;Node3</title>
<path fill="none" stroke="midnightblue" d="M228,-336.4C228,-328.47 228,-318.46 228,-309.86"/>
<polygon fill="midnightblue" stroke="midnightblue" points="231.5,-309.66 228,-299.66 224.5,-309.66 231.5,-309.66"/>
</g>
<!-- Node5 -->
<g id="node5" class="node">
<title>Node5</title>
<g id="a_node5"><a xlink:href="global_8h.html" target="_top" xlink:title=" ">
<polygon fill="white" stroke="black" points="121,-168.5 121,-187.5 171,-187.5 171,-168.5 121,-168.5"/>
<text text-anchor="middle" x="146" y="-175.5" font-family="Helvetica,sans-Serif" font-size="10.00">global.h</text>
</a>
</g>
</g>
<!-- Node2&#45;&gt;Node5 -->
<g id="edge18" class="edge">
<title>Node2&#45;&gt;Node5</title>
<path fill="none" stroke="midnightblue" d="M203.95,-336.46C190.68,-327.57 174.93,-314.94 165,-300 144.28,-268.83 143.07,-223.31 144.34,-197.92"/>
<polygon fill="midnightblue" stroke="midnightblue" points="147.84,-198.01 145.03,-187.79 140.86,-197.53 147.84,-198.01"/>
</g>
<!-- Node4 -->
<g id="node4" class="node">
<title>Node4</title>
<g id="a_node4"><a xlink:href="c__math_8h.html" target="_top" xlink:title=" ">
<polygon fill="white" stroke="black" points="171,-224.5 171,-243.5 287,-243.5 287,-224.5 171,-224.5"/>
<text text-anchor="middle" x="229" y="-231.5" font-family="Helvetica,sans-Serif" font-size="10.00">SComponent/c_math.h</text>
</a>
</g>
</g>
<!-- Node3&#45;&gt;Node4 -->
<g id="edge3" class="edge">
<title>Node3&#45;&gt;Node4</title>
<path fill="none" stroke="midnightblue" d="M228.17,-280.08C228.3,-273.01 228.48,-262.86 228.65,-253.99"/>
<polygon fill="midnightblue" stroke="midnightblue" points="232.15,-253.81 228.84,-243.75 225.15,-253.68 232.15,-253.81"/>
</g>
<!-- Node3&#45;&gt;Node5 -->
<g id="edge15" class="edge">
<title>Node3&#45;&gt;Node5</title>
<path fill="none" stroke="midnightblue" d="M208.31,-280.43C193.39,-272.93 173.55,-260.63 162,-244 152.58,-230.43 148.68,-211.88 147.09,-198.07"/>
<polygon fill="midnightblue" stroke="midnightblue" points="150.55,-197.47 146.21,-187.8 143.57,-198.06 150.55,-197.47"/>
</g>
<!-- Node12 -->
<g id="node12" class="node">
<title>Node12</title>
<g id="a_node12"><a xlink:href="mtx__vec_8h.html" target="_top" xlink:title=" ">
<polygon fill="white" stroke="black" points="282.5,-56.5 282.5,-75.5 343.5,-75.5 343.5,-56.5 282.5,-56.5"/>
<text text-anchor="middle" x="313" y="-63.5" font-family="Helvetica,sans-Serif" font-size="10.00">mtx_vec.h</text>
</a>
</g>
</g>
<!-- Node3&#45;&gt;Node12 -->
<g id="edge16" class="edge">
<title>Node3&#45;&gt;Node12</title>
<path fill="none" stroke="midnightblue" d="M250.29,-280.43C265.86,-273.19 285.65,-261.23 296,-244 326.42,-193.36 320.86,-119.52 316.11,-85.47"/>
<polygon fill="midnightblue" stroke="midnightblue" points="319.57,-84.89 314.59,-75.53 312.65,-85.95 319.57,-84.89"/>
</g>
<!-- Node4&#45;&gt;Node5 -->
<g id="edge4" class="edge">
<title>Node4&#45;&gt;Node5</title>
<path fill="none" stroke="midnightblue" d="M215.66,-224.32C202.84,-215.98 183.22,-203.21 168.06,-193.35"/>
<polygon fill="midnightblue" stroke="midnightblue" points="169.59,-190.17 159.3,-187.65 165.78,-196.04 169.59,-190.17"/>
</g>
<!-- Node6 -->
<g id="node6" class="node">
<title>Node6</title>
<g id="a_node6"><a xlink:href="types_8h.html" target="_top" xlink:title=" ">
<polygon fill="white" stroke="black" points="186.5,-0.5 186.5,-19.5 267.5,-19.5 267.5,-0.5 186.5,-0.5"/>
<text text-anchor="middle" x="227" y="-7.5" font-family="Helvetica,sans-Serif" font-size="10.00">dolphin/types.h</text>
</a>
</g>
</g>
<!-- Node5&#45;&gt;Node6 -->
<g id="edge5" class="edge">
<title>Node5&#45;&gt;Node6</title>
<path fill="none" stroke="midnightblue" d="M145.42,-168.33C144.43,-147.37 144.39,-92.91 167,-56 174.97,-42.99 188.21,-32.47 200.22,-24.88"/>
<polygon fill="midnightblue" stroke="midnightblue" points="202.24,-27.75 209.07,-19.65 198.68,-21.72 202.24,-27.75"/>
</g>
<!-- Node7 -->
<g id="node7" class="node">
<title>Node7</title>
<g id="a_node7"><a xlink:href="AR_8h.html" target="_top" xlink:title=" ">
<polygon fill="white" stroke="black" points="176.5,-56.5 176.5,-75.5 225.5,-75.5 225.5,-56.5 176.5,-56.5"/>
<text text-anchor="middle" x="201" y="-63.5" font-family="Helvetica,sans-Serif" font-size="10.00">ar/AR.h</text>
</a>
</g>
</g>
<!-- Node5&#45;&gt;Node7 -->
<g id="edge6" class="edge">
<title>Node5&#45;&gt;Node7</title>
<path fill="none" stroke="midnightblue" d="M150.32,-168.37C159.31,-150.38 180.22,-108.55 192.19,-84.63"/>
<polygon fill="midnightblue" stroke="midnightblue" points="195.36,-86.1 196.7,-75.59 189.1,-82.97 195.36,-86.1"/>
</g>
<!-- Node8 -->
<g id="node8" class="node">
<title>Node8</title>
<g id="a_node8"><a xlink:href="ARQ_8h.html" target="_top" xlink:title=" ">
<polygon fill="white" stroke="black" points="223,-112.5 223,-131.5 279,-131.5 279,-112.5 223,-112.5"/>
<text text-anchor="middle" x="251" y="-119.5" font-family="Helvetica,sans-Serif" font-size="10.00">ar/ARQ.h</text>
</a>
</g>
</g>
<!-- Node5&#45;&gt;Node8 -->
<g id="edge8" class="edge">
<title>Node5&#45;&gt;Node8</title>
<path fill="none" stroke="midnightblue" d="M162.87,-168.32C179.71,-159.66 205.81,-146.24 225.24,-136.25"/>
<polygon fill="midnightblue" stroke="midnightblue" points="226.88,-139.34 234.17,-131.65 223.68,-133.12 226.88,-139.34"/>
</g>
<!-- Node9 -->
<g id="node9" class="node">
<title>Node9</title>
<g id="a_node9"><a xlink:href="mwcc_8h.html" target="_top" xlink:title=" ">
<polygon fill="white" stroke="black" points="0,-112.5 0,-131.5 50,-131.5 50,-112.5 0,-112.5"/>
<text text-anchor="middle" x="25" y="-119.5" font-family="Helvetica,sans-Serif" font-size="10.00">mwcc.h</text>
</a>
</g>
</g>
<!-- Node5&#45;&gt;Node9 -->
<g id="edge10" class="edge">
<title>Node5&#45;&gt;Node9</title>
<path fill="none" stroke="midnightblue" d="M126.83,-168.44C107.09,-159.64 76.11,-145.81 53.51,-135.72"/>
<polygon fill="midnightblue" stroke="midnightblue" points="54.64,-132.4 44.08,-131.52 51.79,-138.79 54.64,-132.4"/>
</g>
<!-- Node10 -->
<g id="node10" class="node">
<title>Node10</title>
<g id="a_node10"><a xlink:href="OS_8h.html" target="_top" xlink:title=" ">
<polygon fill="white" stroke="black" points="68,-112.5 68,-131.5 120,-131.5 120,-112.5 68,-112.5"/>
<text text-anchor="middle" x="94" y="-119.5" font-family="Helvetica,sans-Serif" font-size="10.00">os/OS.h</text>
</a>
</g>
</g>
<!-- Node5&#45;&gt;Node10 -->
<g id="edge11" class="edge">
<title>Node5&#45;&gt;Node10</title>
<path fill="none" stroke="midnightblue" d="M137.41,-168.08C129.84,-160.22 118.62,-148.57 109.49,-139.08"/>
<polygon fill="midnightblue" stroke="midnightblue" points="111.88,-136.53 102.43,-131.75 106.84,-141.38 111.88,-136.53"/>
</g>
<!-- Node7&#45;&gt;Node6 -->
<g id="edge7" class="edge">
<title>Node7&#45;&gt;Node6</title>
<path fill="none" stroke="midnightblue" d="M205.29,-56.08C208.85,-48.69 214.02,-37.95 218.42,-28.81"/>
<polygon fill="midnightblue" stroke="midnightblue" points="221.6,-30.28 222.79,-19.75 215.29,-27.24 221.6,-30.28"/>
</g>
<!-- Node8&#45;&gt;Node6 -->
<g id="edge9" class="edge">
<title>Node8&#45;&gt;Node6</title>
<path fill="none" stroke="midnightblue" d="M249.12,-112.37C245.24,-94.62 236.31,-53.67 231.06,-29.6"/>
<polygon fill="midnightblue" stroke="midnightblue" points="234.43,-28.62 228.87,-19.59 227.59,-30.11 234.43,-28.62"/>
</g>
<!-- Node10&#45;&gt;Node6 -->
<g id="edge12" class="edge">
<title>Node10&#45;&gt;Node6</title>
<path fill="none" stroke="midnightblue" d="M97.42,-112.35C103.16,-98.77 115.91,-72.35 134,-56 150.13,-41.42 171.84,-30.56 190.22,-23.16"/>
<polygon fill="midnightblue" stroke="midnightblue" points="191.67,-26.36 199.76,-19.51 189.17,-19.82 191.67,-26.36"/>
</g>
<!-- Node11 -->
<g id="node11" class="node">
<title>Node11</title>
<g id="a_node11"><a xlink:href="dvd_8h.html" target="_top" xlink:title=" ">
<polygon fill="white" stroke="black" points="22.5,-56.5 22.5,-75.5 81.5,-75.5 81.5,-56.5 22.5,-56.5"/>
<text text-anchor="middle" x="52" y="-63.5" font-family="Helvetica,sans-Serif" font-size="10.00">dvd/dvd.h</text>
</a>
</g>
</g>
<!-- Node10&#45;&gt;Node11 -->
<g id="edge13" class="edge">
<title>Node10&#45;&gt;Node11</title>
<path fill="none" stroke="midnightblue" d="M87.06,-112.08C81.07,-104.38 72.25,-93.03 64.95,-83.65"/>
<polygon fill="midnightblue" stroke="midnightblue" points="67.71,-81.5 58.81,-75.75 62.18,-85.79 67.71,-81.5"/>
</g>
<!-- Node11&#45;&gt;Node6 -->
<g id="edge14" class="edge">
<title>Node11&#45;&gt;Node6</title>
<path fill="none" stroke="midnightblue" d="M79.73,-56.44C109.43,-47.28 156.72,-32.69 189.67,-22.52"/>
<polygon fill="midnightblue" stroke="midnightblue" points="190.88,-25.81 199.4,-19.52 188.81,-19.12 190.88,-25.81"/>
</g>
<!-- Node12&#45;&gt;Node6 -->
<g id="edge17" class="edge">
<title>Node12&#45;&gt;Node6</title>
<path fill="none" stroke="midnightblue" d="M299.18,-56.32C285.77,-47.9 265.18,-34.97 249.41,-25.07"/>
<polygon fill="midnightblue" stroke="midnightblue" points="251.11,-22.01 240.78,-19.65 247.39,-27.94 251.11,-22.01"/>
</g>
<!-- Node13&#45;&gt;Node6 -->
<g id="edge20" class="edge">
<title>Node13&#45;&gt;Node6</title>
<path fill="none" stroke="midnightblue" d="M358.16,-280.22C362.53,-261.66 372,-217.02 372,-179 372,-179 372,-179 372,-121 372,-90.9 373.65,-77.9 353,-56 333.37,-35.19 303.47,-23.99 277.72,-17.96"/>
<polygon fill="midnightblue" stroke="midnightblue" points="278.23,-14.49 267.72,-15.83 276.77,-21.34 278.23,-14.49"/>
</g>
<!-- Node14&#45;&gt;Node6 -->
<g id="edge22" class="edge">
<title>Node14&#45;&gt;Node6</title>
<path fill="none" stroke="midnightblue" d="M437.75,-168.18C434.11,-145.9 421.44,-86.89 386,-56 356.11,-29.95 312.15,-18.91 278.03,-14.27"/>
<polygon fill="midnightblue" stroke="midnightblue" points="278.13,-10.75 267.78,-13.02 277.29,-17.7 278.13,-10.75"/>
</g>
</g>
</svg>
