<?xml version="1.0" encoding="UTF-8" standalone="no"?>
<!DOCTYPE svg PUBLIC "-//W3C//DTD SVG 1.1//EN"
 "http://www.w3.org/Graphics/SVG/1.1/DTD/svg11.dtd">
<!-- Generated by graphviz version 2.44.0 ()
 -->
<!-- Title: libs/SSystem/SComponent/c_phase.cpp Pages: 1 -->
<svg width="348pt" height="274pt"
 viewBox="0.00 0.00 347.50 274.00" xmlns="http://www.w3.org/2000/svg" xmlns:xlink="http://www.w3.org/1999/xlink">
<g id="graph0" class="graph" transform="scale(1 1) rotate(0) translate(4 270)">
<title>libs/SSystem/SComponent/c_phase.cpp</title>
<polygon fill="white" stroke="transparent" points="-4,4 -4,-270 343.5,-270 343.5,4 -4,4"/>
<!-- Node1 -->
<g id="node1" class="node">
<title>Node1</title>
<g id="a_node1"><a xlink:title=" ">
<polygon fill="#bfbfbf" stroke="black" points="96,-235.5 96,-265.5 230,-265.5 230,-235.5 96,-235.5"/>
<text text-anchor="start" x="104" y="-253.5" font-family="Helvetica,sans-Serif" font-size="10.00">libs/SSystem/SComponent</text>
<text text-anchor="middle" x="163" y="-242.5" font-family="Helvetica,sans-Serif" font-size="10.00">/c_phase.cpp</text>
</a>
</g>
</g>
<!-- Node2 -->
<g id="node2" class="node">
<title>Node2</title>
<g id="a_node2"><a xlink:href="c__phase_8h.html" target="_top" xlink:title=" ">
<polygon fill="white" stroke="black" points="0,-174 0,-193 120,-193 120,-174 0,-174"/>
<text text-anchor="middle" x="60" y="-181" font-family="Helvetica,sans-Serif" font-size="10.00">SComponent/c_phase.h</text>
</a>
</g>
</g>
<!-- Node1&#45;&gt;Node2 -->
<g id="edge1" class="edge">
<title>Node1&#45;&gt;Node2</title>
<path fill="none" stroke="midnightblue" d="M140.65,-235.4C123.38,-224.5 99.58,-209.48 82.32,-198.58"/>
<polygon fill="midnightblue" stroke="midnightblue" points="83.81,-195.38 73.48,-193.01 80.07,-201.3 83.81,-195.38"/>
</g>
<!-- Node3 -->
<g id="node3" class="node">
<title>Node3</title>
<g id="a_node3"><a xlink:href="global_8h.html" target="_top" xlink:title=" ">
<polygon fill="white" stroke="black" points="138,-174 138,-193 188,-193 188,-174 138,-174"/>
<text text-anchor="middle" x="163" y="-181" font-family="Helvetica,sans-Serif" font-size="10.00">global.h</text>
</a>
</g>
</g>
<!-- Node1&#45;&gt;Node3 -->
<g id="edge2" class="edge">
<title>Node1&#45;&gt;Node3</title>
<path fill="none" stroke="midnightblue" d="M163,-235.4C163,-226.06 163,-213.71 163,-203.52"/>
<polygon fill="midnightblue" stroke="midnightblue" points="166.5,-203.19 163,-193.19 159.5,-203.19 166.5,-203.19"/>
</g>
<!-- Node10 -->
<g id="node10" class="node">
<title>Node10</title>
<g id="a_node10"><a xlink:title=" ">
<polygon fill="white" stroke="#bfbfbf" points="206,-168.5 206,-198.5 322,-198.5 322,-168.5 206,-168.5"/>
<text text-anchor="start" x="214" y="-186.5" font-family="Helvetica,sans-Serif" font-size="10.00">SComponent/c_phase</text>
<text text-anchor="middle" x="264" y="-175.5" font-family="Helvetica,sans-Serif" font-size="10.00">/asm/func_802666D8.s</text>
</a>
</g>
</g>
<!-- Node1&#45;&gt;Node10 -->
<g id="edge13" class="edge">
<title>Node1&#45;&gt;Node10</title>
<path fill="none" stroke="midnightblue" d="M184.92,-235.4C199.08,-226.28 217.71,-214.29 233.33,-204.24"/>
<polygon fill="midnightblue" stroke="midnightblue" points="235.61,-206.93 242.13,-198.58 231.82,-201.05 235.61,-206.93"/>
</g>
<!-- Node4 -->
<g id="node4" class="node">
<title>Node4</title>
<g id="a_node4"><a xlink:href="types_8h.html" target="_top" xlink:title=" ">
<polygon fill="white" stroke="black" points="155.5,-0.5 155.5,-19.5 236.5,-19.5 236.5,-0.5 155.5,-0.5"/>
<text text-anchor="middle" x="196" y="-7.5" font-family="Helvetica,sans-Serif" font-size="10.00">dolphin/types.h</text>
</a>
</g>
</g>
<!-- Node3&#45;&gt;Node4 -->
<g id="edge3" class="edge">
<title>Node3&#45;&gt;Node4</title>
<path fill="none" stroke="midnightblue" d="M151.39,-173.99C124.58,-153.28 62.76,-98.83 91,-56 103.3,-37.35 125.11,-26.4 145.68,-19.98"/>
<polygon fill="midnightblue" stroke="midnightblue" points="146.64,-23.35 155.31,-17.26 144.74,-16.61 146.64,-23.35"/>
</g>
<!-- Node5 -->
<g id="node5" class="node">
<title>Node5</title>
<g id="a_node5"><a xlink:href="AR_8h.html" target="_top" xlink:title=" ">
<polygon fill="white" stroke="black" points="100.5,-56.5 100.5,-75.5 149.5,-75.5 149.5,-56.5 100.5,-56.5"/>
<text text-anchor="middle" x="125" y="-63.5" font-family="Helvetica,sans-Serif" font-size="10.00">ar/AR.h</text>
</a>
</g>
</g>
<!-- Node3&#45;&gt;Node5 -->
<g id="edge4" class="edge">
<title>Node3&#45;&gt;Node5</title>
<path fill="none" stroke="midnightblue" d="M160.14,-173.82C153.98,-155.09 139.33,-110.55 131.02,-85.29"/>
<polygon fill="midnightblue" stroke="midnightblue" points="134.34,-84.19 127.89,-75.78 127.69,-86.37 134.34,-84.19"/>
</g>
<!-- Node6 -->
<g id="node6" class="node">
<title>Node6</title>
<g id="a_node6"><a xlink:href="ARQ_8h.html" target="_top" xlink:title=" ">
<polygon fill="white" stroke="black" points="168,-56.5 168,-75.5 224,-75.5 224,-56.5 168,-56.5"/>
<text text-anchor="middle" x="196" y="-63.5" font-family="Helvetica,sans-Serif" font-size="10.00">ar/ARQ.h</text>
</a>
</g>
</g>
<!-- Node3&#45;&gt;Node6 -->
<g id="edge6" class="edge">
<title>Node3&#45;&gt;Node6</title>
<path fill="none" stroke="midnightblue" d="M165.23,-173.79C168.68,-160.44 175.57,-134.16 182,-112 184.57,-103.15 187.59,-93.37 190.16,-85.2"/>
<polygon fill="midnightblue" stroke="midnightblue" points="193.52,-86.19 193.22,-75.6 186.85,-84.07 193.52,-86.19"/>
</g>
<!-- Node7 -->
<g id="node7" class="node">
<title>Node7</title>
<g id="a_node7"><a xlink:href="mwcc_8h.html" target="_top" xlink:title=" ">
<polygon fill="white" stroke="black" points="191,-112.5 191,-131.5 241,-131.5 241,-112.5 191,-112.5"/>
<text text-anchor="middle" x="216" y="-119.5" font-family="Helvetica,sans-Serif" font-size="10.00">mwcc.h</text>
</a>
</g>
</g>
<!-- Node3&#45;&gt;Node7 -->
<g id="edge8" class="edge">
<title>Node3&#45;&gt;Node7</title>
<path fill="none" stroke="midnightblue" d="M170.59,-173.98C178.7,-164.87 191.73,-150.24 201.76,-138.98"/>
<polygon fill="midnightblue" stroke="midnightblue" points="204.38,-141.3 208.42,-131.51 199.16,-136.65 204.38,-141.3"/>
</g>
<!-- Node8 -->
<g id="node8" class="node">
<title>Node8</title>
<g id="a_node8"><a xlink:href="OS_8h.html" target="_top" xlink:title=" ">
<polygon fill="white" stroke="black" points="259,-112.5 259,-131.5 311,-131.5 311,-112.5 259,-112.5"/>
<text text-anchor="middle" x="285" y="-119.5" font-family="Helvetica,sans-Serif" font-size="10.00">os/OS.h</text>
</a>
</g>
</g>
<!-- Node3&#45;&gt;Node8 -->
<g id="edge9" class="edge">
<title>Node3&#45;&gt;Node8</title>
<path fill="none" stroke="midnightblue" d="M180.48,-173.98C200.86,-164.03 234.78,-147.49 258.42,-135.96"/>
<polygon fill="midnightblue" stroke="midnightblue" points="260.1,-139.04 267.55,-131.51 257.03,-132.75 260.1,-139.04"/>
</g>
<!-- Node5&#45;&gt;Node4 -->
<g id="edge5" class="edge">
<title>Node5&#45;&gt;Node4</title>
<path fill="none" stroke="midnightblue" d="M136.41,-56.32C147.11,-48.18 163.34,-35.84 176.16,-26.09"/>
<polygon fill="midnightblue" stroke="midnightblue" points="178.54,-28.67 184.39,-19.83 174.31,-23.1 178.54,-28.67"/>
</g>
<!-- Node6&#45;&gt;Node4 -->
<g id="edge7" class="edge">
<title>Node6&#45;&gt;Node4</title>
<path fill="none" stroke="midnightblue" d="M196,-56.08C196,-49.01 196,-38.86 196,-29.99"/>
<polygon fill="midnightblue" stroke="midnightblue" points="199.5,-29.75 196,-19.75 192.5,-29.75 199.5,-29.75"/>
</g>
<!-- Node8&#45;&gt;Node4 -->
<g id="edge10" class="edge">
<title>Node8&#45;&gt;Node4</title>
<path fill="none" stroke="midnightblue" d="M277.97,-112.14C268.01,-99.6 249.2,-75.98 233,-56 225.26,-46.46 216.53,-35.83 209.5,-27.31"/>
<polygon fill="midnightblue" stroke="midnightblue" points="212.2,-25.08 203.13,-19.6 206.8,-29.54 212.2,-25.08"/>
</g>
<!-- Node9 -->
<g id="node9" class="node">
<title>Node9</title>
<g id="a_node9"><a xlink:href="dvd_8h.html" target="_top" xlink:title=" ">
<polygon fill="white" stroke="black" points="280.5,-56.5 280.5,-75.5 339.5,-75.5 339.5,-56.5 280.5,-56.5"/>
<text text-anchor="middle" x="310" y="-63.5" font-family="Helvetica,sans-Serif" font-size="10.00">dvd/dvd.h</text>
</a>
</g>
</g>
<!-- Node8&#45;&gt;Node9 -->
<g id="edge11" class="edge">
<title>Node8&#45;&gt;Node9</title>
<path fill="none" stroke="midnightblue" d="M289.13,-112.08C292.51,-104.77 297.42,-94.18 301.62,-85.1"/>
<polygon fill="midnightblue" stroke="midnightblue" points="304.92,-86.3 305.95,-75.75 298.57,-83.36 304.92,-86.3"/>
</g>
<!-- Node9&#45;&gt;Node4 -->
<g id="edge12" class="edge">
<title>Node9&#45;&gt;Node4</title>
<path fill="none" stroke="midnightblue" d="M291.94,-56.44C273.43,-47.68 244.42,-33.94 223.14,-23.86"/>
<polygon fill="midnightblue" stroke="midnightblue" points="224.51,-20.63 213.98,-19.52 221.52,-26.96 224.51,-20.63"/>
</g>
</g>
</svg>
