<?xml version="1.0" encoding="UTF-8" standalone="no"?>
<!DOCTYPE svg PUBLIC "-//W3C//DTD SVG 1.1//EN"
 "http://www.w3.org/Graphics/SVG/1.1/DTD/svg11.dtd">
<!-- Generated by graphviz version 2.44.0 ()
 -->
<!-- Title: include/SComponent/c_tag_iter.h Pages: 1 -->
<svg width="1833pt" height="363pt"
 viewBox="0.00 0.00 1832.50 363.00" xmlns="http://www.w3.org/2000/svg" xmlns:xlink="http://www.w3.org/1999/xlink">
<g id="graph0" class="graph" transform="scale(1 1) rotate(0) translate(4 359)">
<title>include/SComponent/c_tag_iter.h</title>
<polygon fill="white" stroke="transparent" points="-4,4 -4,-359 1828.5,-359 1828.5,4 -4,4"/>
<!-- Node1 -->
<g id="node1" class="node">
<title>Node1</title>
<g id="a_node1"><a xlink:title=" ">
<polygon fill="#bfbfbf" stroke="black" points="313,-324.5 313,-354.5 420,-354.5 420,-324.5 313,-324.5"/>
<text text-anchor="start" x="321" y="-342.5" font-family="Helvetica,sans-Serif" font-size="10.00">include/SComponent</text>
<text text-anchor="middle" x="366.5" y="-331.5" font-family="Helvetica,sans-Serif" font-size="10.00">/c_tag_iter.h</text>
</a>
</g>
</g>
<!-- Node2 -->
<g id="node2" class="node">
<title>Node2</title>
<g id="a_node2"><a xlink:href="f__op__actor__iter_8cpp.html" target="_top" xlink:title=" ">
<polygon fill="white" stroke="black" points="0,-257.5 0,-287.5 107,-287.5 107,-257.5 0,-257.5"/>
<text text-anchor="start" x="8" y="-275.5" font-family="Helvetica,sans-Serif" font-size="10.00">src/f/f_op/f_op_actor</text>
<text text-anchor="middle" x="53.5" y="-264.5" font-family="Helvetica,sans-Serif" font-size="10.00">_iter.cpp</text>
</a>
</g>
</g>
<!-- Node1&#45;&gt;Node2 -->
<g id="edge1" class="edge">
<title>Node1&#45;&gt;Node2</title>
<path fill="none" stroke="midnightblue" d="M302.68,-326.23C251.88,-316.33 179.02,-301.81 115.5,-288 112.8,-287.41 110.04,-286.8 107.25,-286.18"/>
<polygon fill="midnightblue" stroke="midnightblue" points="302.06,-329.67 312.54,-328.15 303.39,-322.8 302.06,-329.67"/>
</g>
<!-- Node3 -->
<g id="node3" class="node">
<title>Node3</title>
<g id="a_node3"><a xlink:href="f__op__scene__iter_8cpp.html" target="_top" xlink:title=" ">
<polygon fill="white" stroke="black" points="125,-257.5 125,-287.5 236,-287.5 236,-257.5 125,-257.5"/>
<text text-anchor="start" x="133" y="-275.5" font-family="Helvetica,sans-Serif" font-size="10.00">src/f/f_op/f_op_scene</text>
<text text-anchor="middle" x="180.5" y="-264.5" font-family="Helvetica,sans-Serif" font-size="10.00">_iter.cpp</text>
</a>
</g>
</g>
<!-- Node1&#45;&gt;Node3 -->
<g id="edge2" class="edge">
<title>Node1&#45;&gt;Node3</title>
<path fill="none" stroke="midnightblue" d="M316.69,-321.09C286.66,-310.6 248.91,-297.41 220.78,-287.58"/>
<polygon fill="midnightblue" stroke="midnightblue" points="315.55,-324.4 326.14,-324.4 317.86,-317.79 315.55,-324.4"/>
</g>
<!-- Node4 -->
<g id="node4" class="node">
<title>Node4</title>
<g id="a_node4"><a xlink:href="f__pc__layer__iter_8cpp.html" target="_top" xlink:title=" ">
<polygon fill="white" stroke="black" points="254,-257.5 254,-287.5 359,-287.5 359,-257.5 254,-257.5"/>
<text text-anchor="start" x="262" y="-275.5" font-family="Helvetica,sans-Serif" font-size="10.00">src/f/f_pc/f_pc_layer</text>
<text text-anchor="middle" x="306.5" y="-264.5" font-family="Helvetica,sans-Serif" font-size="10.00">_iter.cpp</text>
</a>
</g>
</g>
<!-- Node1&#45;&gt;Node4 -->
<g id="edge3" class="edge">
<title>Node1&#45;&gt;Node4</title>
<path fill="none" stroke="midnightblue" d="M346.68,-317.02C337.74,-307.34 327.43,-296.17 319.49,-287.58"/>
<polygon fill="midnightblue" stroke="midnightblue" points="344.13,-319.42 353.48,-324.4 349.27,-314.67 344.13,-319.42"/>
</g>
<!-- Node5 -->
<g id="node5" class="node">
<title>Node5</title>
<g id="a_node5"><a xlink:href="f__pc__line__iter_8cpp.html" target="_top" xlink:title=" ">
<polygon fill="white" stroke="black" points="377.5,-257.5 377.5,-287.5 477.5,-287.5 477.5,-257.5 377.5,-257.5"/>
<text text-anchor="start" x="385.5" y="-275.5" font-family="Helvetica,sans-Serif" font-size="10.00">src/f/f_pc/f_pc_line</text>
<text text-anchor="middle" x="427.5" y="-264.5" font-family="Helvetica,sans-Serif" font-size="10.00">_iter.cpp</text>
</a>
</g>
</g>
<!-- Node1&#45;&gt;Node5 -->
<g id="edge4" class="edge">
<title>Node1&#45;&gt;Node5</title>
<path fill="none" stroke="midnightblue" d="M386.65,-317.02C395.74,-307.34 406.22,-296.17 414.29,-287.58"/>
<polygon fill="midnightblue" stroke="midnightblue" points="384.03,-314.71 379.74,-324.4 389.13,-319.5 384.03,-314.71"/>
</g>
<!-- Node6 -->
<g id="node6" class="node">
<title>Node6</title>
<g id="a_node6"><a xlink:href="c__tag__iter_8cpp.html" target="_top" xlink:title=" ">
<polygon fill="white" stroke="black" points="495.5,-257.5 495.5,-287.5 629.5,-287.5 629.5,-257.5 495.5,-257.5"/>
<text text-anchor="start" x="503.5" y="-275.5" font-family="Helvetica,sans-Serif" font-size="10.00">libs/SSystem/SComponent</text>
<text text-anchor="middle" x="562.5" y="-264.5" font-family="Helvetica,sans-Serif" font-size="10.00">/c_tag_iter.cpp</text>
</a>
</g>
</g>
<!-- Node1&#45;&gt;Node6 -->
<g id="edge5" class="edge">
<title>Node1&#45;&gt;Node6</title>
<path fill="none" stroke="midnightblue" d="M418.58,-321.23C450.29,-310.71 490.28,-297.45 520.05,-287.58"/>
<polygon fill="midnightblue" stroke="midnightblue" points="417.42,-317.93 409.03,-324.4 419.62,-324.57 417.42,-317.93"/>
</g>
<!-- Node7 -->
<g id="node7" class="node">
<title>Node7</title>
<g id="a_node7"><a xlink:href="f__pc__create__iter_8h.html" target="_top" xlink:title=" ">
<polygon fill="white" stroke="black" points="648,-257.5 648,-287.5 745,-287.5 745,-257.5 648,-257.5"/>
<text text-anchor="start" x="656" y="-275.5" font-family="Helvetica,sans-Serif" font-size="10.00">include/f/f_pc/f_pc</text>
<text text-anchor="middle" x="696.5" y="-264.5" font-family="Helvetica,sans-Serif" font-size="10.00">_create_iter.h</text>
</a>
</g>
</g>
<!-- Node1&#45;&gt;Node7 -->
<g id="edge6" class="edge">
<title>Node1&#45;&gt;Node7</title>
<path fill="none" stroke="midnightblue" d="M430.11,-327.83C485.38,-318.29 567.48,-303.46 638.5,-288 641.54,-287.34 644.67,-286.63 647.82,-285.9"/>
<polygon fill="midnightblue" stroke="midnightblue" points="429.37,-324.4 420.11,-329.55 430.56,-331.3 429.37,-324.4"/>
</g>
<!-- Node8 -->
<g id="node8" class="node">
<title>Node8</title>
<g id="a_node8"><a xlink:href="f__pc__create__iter_8cpp.html" target="_top" xlink:title=" ">
<polygon fill="white" stroke="black" points="468.5,-190.5 468.5,-220.5 580.5,-220.5 580.5,-190.5 468.5,-190.5"/>
<text text-anchor="start" x="476.5" y="-208.5" font-family="Helvetica,sans-Serif" font-size="10.00">src/f/f_pc/f_pc_create</text>
<text text-anchor="middle" x="524.5" y="-197.5" font-family="Helvetica,sans-Serif" font-size="10.00">_iter.cpp</text>
</a>
</g>
</g>
<!-- Node7&#45;&gt;Node8 -->
<g id="edge7" class="edge">
<title>Node7&#45;&gt;Node8</title>
<path fill="none" stroke="midnightblue" d="M649.71,-253.82C622.07,-243.37 587.54,-230.32 561.75,-220.58"/>
<polygon fill="midnightblue" stroke="midnightblue" points="648.59,-257.13 659.18,-257.4 651.06,-250.59 648.59,-257.13"/>
</g>
<!-- Node9 -->
<g id="node9" class="node">
<title>Node9</title>
<g id="a_node9"><a xlink:href="f__pc__create__req_8cpp.html" target="_top" xlink:title=" ">
<polygon fill="white" stroke="black" points="598.5,-190.5 598.5,-220.5 710.5,-220.5 710.5,-190.5 598.5,-190.5"/>
<text text-anchor="start" x="606.5" y="-208.5" font-family="Helvetica,sans-Serif" font-size="10.00">src/f/f_pc/f_pc_create</text>
<text text-anchor="middle" x="654.5" y="-197.5" font-family="Helvetica,sans-Serif" font-size="10.00">_req.cpp</text>
</a>
</g>
</g>
<!-- Node7&#45;&gt;Node9 -->
<g id="edge8" class="edge">
<title>Node7&#45;&gt;Node9</title>
<path fill="none" stroke="midnightblue" d="M681.88,-248.87C675.8,-239.46 668.93,-228.83 663.6,-220.58"/>
<polygon fill="midnightblue" stroke="midnightblue" points="679.02,-250.9 687.39,-257.4 684.9,-247.1 679.02,-250.9"/>
</g>
<!-- Node10 -->
<g id="node10" class="node">
<title>Node10</title>
<g id="a_node10"><a xlink:href="f__pc__manager_8cpp.html" target="_top" xlink:title=" ">
<polygon fill="white" stroke="black" points="552.5,-129 552.5,-148 692.5,-148 692.5,-129 552.5,-129"/>
<text text-anchor="middle" x="622.5" y="-136" font-family="Helvetica,sans-Serif" font-size="10.00">src/f/f_pc/f_pc_manager.cpp</text>
</a>
</g>
</g>
<!-- Node7&#45;&gt;Node10 -->
<g id="edge9" class="edge">
<title>Node7&#45;&gt;Node10</title>
<path fill="none" stroke="midnightblue" d="M712.27,-248.54C721.9,-231.44 730.44,-208.03 719.5,-190 706.3,-168.25 680.34,-155.43 658.6,-148.16"/>
<polygon fill="midnightblue" stroke="midnightblue" points="709.14,-246.96 706.93,-257.32 715.12,-250.6 709.14,-246.96"/>
</g>
<!-- Node11 -->
<g id="node11" class="node">
<title>Node11</title>
<g id="a_node11"><a xlink:href="f__pc__manager_8h.html" target="_top" xlink:title=" ">
<polygon fill="white" stroke="black" points="882,-190.5 882,-220.5 979,-220.5 979,-190.5 882,-190.5"/>
<text text-anchor="start" x="890" y="-208.5" font-family="Helvetica,sans-Serif" font-size="10.00">include/f/f_pc/f_pc</text>
<text text-anchor="middle" x="930.5" y="-197.5" font-family="Helvetica,sans-Serif" font-size="10.00">_manager.h</text>
</a>
</g>
</g>
<!-- Node7&#45;&gt;Node11 -->
<g id="edge10" class="edge">
<title>Node7&#45;&gt;Node11</title>
<path fill="none" stroke="midnightblue" d="M754.94,-255.27C794.04,-244.41 844.89,-230.28 881.79,-220.03"/>
<polygon fill="midnightblue" stroke="midnightblue" points="753.97,-251.9 745.27,-257.95 755.84,-258.65 753.97,-251.9"/>
</g>
<!-- Node11&#45;&gt;Node10 -->
<g id="edge17" class="edge">
<title>Node11&#45;&gt;Node10</title>
<path fill="none" stroke="midnightblue" d="M871.81,-192.11C810.71,-179.22 716.61,-159.36 663.21,-148.09"/>
<polygon fill="midnightblue" stroke="midnightblue" points="871.19,-195.56 881.7,-194.2 872.63,-188.71 871.19,-195.56"/>
</g>
<!-- Node12 -->
<g id="node12" class="node">
<title>Node12</title>
<g id="a_node12"><a xlink:href="f__ap__game_8cpp.html" target="_top" xlink:title=" ">
<polygon fill="white" stroke="black" points="711,-129 711,-148 816,-148 816,-129 711,-129"/>
<text text-anchor="middle" x="763.5" y="-136" font-family="Helvetica,sans-Serif" font-size="10.00">src/f/f_ap_game.cpp</text>
</a>
</g>
</g>
<!-- Node11&#45;&gt;Node12 -->
<g id="edge11" class="edge">
<title>Node11&#45;&gt;Node12</title>
<path fill="none" stroke="midnightblue" d="M884.57,-186.62C852.24,-174.04 810.43,-157.77 785.36,-148.01"/>
<polygon fill="midnightblue" stroke="midnightblue" points="883.67,-190.03 894.26,-190.4 886.21,-183.51 883.67,-190.03"/>
</g>
<!-- Node13 -->
<g id="node13" class="node">
<title>Node13</title>
<g id="a_node13"><a xlink:href="d__a__alink_8cpp.html" target="_top" xlink:title=" ">
<polygon fill="white" stroke="black" points="898,-62 898,-81 1017,-81 1017,-62 898,-62"/>
<text text-anchor="middle" x="957.5" y="-69" font-family="Helvetica,sans-Serif" font-size="10.00">src/d/d_a/d_a_alink.cpp</text>
</a>
</g>
</g>
<!-- Node11&#45;&gt;Node13 -->
<g id="edge12" class="edge">
<title>Node11&#45;&gt;Node13</title>
<path fill="none" stroke="midnightblue" d="M892.16,-184.75C880.82,-176.83 869.77,-166.57 863.5,-154 857.35,-141.67 856.43,-134.83 863.5,-123 876.43,-101.38 902.15,-88.48 923.42,-81.13"/>
<polygon fill="midnightblue" stroke="midnightblue" points="890.52,-187.85 900.81,-190.34 894.31,-181.97 890.52,-187.85"/>
</g>
<!-- Node14 -->
<g id="node14" class="node">
<title>Node14</title>
<g id="a_node14"><a xlink:href="f__op__kankyo__mng_8cpp.html" target="_top" xlink:title=" ">
<polygon fill="white" stroke="black" points="872.5,-123.5 872.5,-153.5 988.5,-153.5 988.5,-123.5 872.5,-123.5"/>
<text text-anchor="start" x="880.5" y="-141.5" font-family="Helvetica,sans-Serif" font-size="10.00">src/f/f_op/f_op_kankyo</text>
<text text-anchor="middle" x="930.5" y="-130.5" font-family="Helvetica,sans-Serif" font-size="10.00">_mng.cpp</text>
</a>
</g>
</g>
<!-- Node11&#45;&gt;Node14 -->
<g id="edge13" class="edge">
<title>Node11&#45;&gt;Node14</title>
<path fill="none" stroke="midnightblue" d="M930.5,-180.11C930.5,-171.15 930.5,-161.32 930.5,-153.58"/>
<polygon fill="midnightblue" stroke="midnightblue" points="927,-180.4 930.5,-190.4 934,-180.4 927,-180.4"/>
</g>
<!-- Node15 -->
<g id="node15" class="node">
<title>Node15</title>
<g id="a_node15"><a xlink:href="f__op__msg__mng_8cpp.html" target="_top" xlink:title=" ">
<polygon fill="white" stroke="black" points="1006.5,-123.5 1006.5,-153.5 1110.5,-153.5 1110.5,-123.5 1006.5,-123.5"/>
<text text-anchor="start" x="1014.5" y="-141.5" font-family="Helvetica,sans-Serif" font-size="10.00">src/f/f_op/f_op_msg</text>
<text text-anchor="middle" x="1058.5" y="-130.5" font-family="Helvetica,sans-Serif" font-size="10.00">_mng.cpp</text>
</a>
</g>
</g>
<!-- Node11&#45;&gt;Node15 -->
<g id="edge14" class="edge">
<title>Node11&#45;&gt;Node15</title>
<path fill="none" stroke="midnightblue" d="M967.22,-185.85C987.46,-175.58 1012.17,-163.03 1030.78,-153.58"/>
<polygon fill="midnightblue" stroke="midnightblue" points="965.61,-182.75 958.27,-190.4 968.78,-188.99 965.61,-182.75"/>
</g>
<!-- Node16 -->
<g id="node16" class="node">
<title>Node16</title>
<g id="a_node16"><a xlink:href="f__op__overlap__req_8cpp.html" target="_top" xlink:title=" ">
<polygon fill="white" stroke="black" points="1128.5,-123.5 1128.5,-153.5 1244.5,-153.5 1244.5,-123.5 1128.5,-123.5"/>
<text text-anchor="start" x="1136.5" y="-141.5" font-family="Helvetica,sans-Serif" font-size="10.00">src/f/f_op/f_op_overlap</text>
<text text-anchor="middle" x="1186.5" y="-130.5" font-family="Helvetica,sans-Serif" font-size="10.00">_req.cpp</text>
</a>
</g>
</g>
<!-- Node11&#45;&gt;Node16 -->
<g id="edge15" class="edge">
<title>Node11&#45;&gt;Node16</title>
<path fill="none" stroke="midnightblue" d="M988.96,-189.66C1031.7,-178.81 1089.29,-164.18 1131.26,-153.53"/>
<polygon fill="midnightblue" stroke="midnightblue" points="988.09,-186.27 979.25,-192.12 989.81,-193.05 988.09,-186.27"/>
</g>
<!-- Node17 -->
<g id="node17" class="node">
<title>Node17</title>
<g id="a_node17"><a xlink:href="f__op__scene__pause_8cpp.html" target="_top" xlink:title=" ">
<polygon fill="white" stroke="black" points="1263,-123.5 1263,-153.5 1374,-153.5 1374,-123.5 1263,-123.5"/>
<text text-anchor="start" x="1271" y="-141.5" font-family="Helvetica,sans-Serif" font-size="10.00">src/f/f_op/f_op_scene</text>
<text text-anchor="middle" x="1318.5" y="-130.5" font-family="Helvetica,sans-Serif" font-size="10.00">_pause.cpp</text>
</a>
</g>
</g>
<!-- Node11&#45;&gt;Node17 -->
<g id="edge16" class="edge">
<title>Node11&#45;&gt;Node17</title>
<path fill="none" stroke="midnightblue" d="M989.13,-196.49C1054,-187.36 1161.53,-171.43 1253.5,-154 1256.57,-153.42 1259.71,-152.8 1262.88,-152.15"/>
<polygon fill="midnightblue" stroke="midnightblue" points="988.51,-193.04 979.1,-197.9 989.49,-199.98 988.51,-193.04"/>
</g>
<!-- Node18 -->
<g id="node18" class="node">
<title>Node18</title>
<g id="a_node18"><a xlink:href="f__op__actor__mng_8h.html" target="_top" xlink:title=" ">
<polygon fill="white" stroke="black" points="1392,-123.5 1392,-153.5 1489,-153.5 1489,-123.5 1392,-123.5"/>
<text text-anchor="start" x="1400" y="-141.5" font-family="Helvetica,sans-Serif" font-size="10.00">include/f/f_op/f_op</text>
<text text-anchor="middle" x="1440.5" y="-130.5" font-family="Helvetica,sans-Serif" font-size="10.00">_actor_mng.h</text>
</a>
</g>
</g>
<!-- Node11&#45;&gt;Node18 -->
<g id="edge18" class="edge">
<title>Node11&#45;&gt;Node18</title>
<path fill="none" stroke="midnightblue" d="M989.47,-200.44C1076.1,-193.91 1242.67,-179.17 1382.5,-154 1385.56,-153.45 1388.71,-152.83 1391.87,-152.16"/>
<polygon fill="midnightblue" stroke="midnightblue" points="989.02,-196.97 979.3,-201.2 989.54,-203.95 989.02,-196.97"/>
</g>
<!-- Node18&#45;&gt;Node13 -->
<g id="edge23" class="edge">
<title>Node18&#45;&gt;Node13</title>
<path fill="none" stroke="midnightblue" d="M1382,-123.06C1247.42,-98.7 1211.01,-102.63 1079.5,-87 1059.17,-84.58 1036.93,-81.94 1017.07,-79.58"/>
<polygon fill="midnightblue" stroke="midnightblue" points="1381.4,-126.51 1391.86,-124.87 1382.66,-119.62 1381.4,-126.51"/>
</g>
<!-- Node19 -->
<g id="node19" class="node">
<title>Node19</title>
<g id="a_node19"><a xlink:href="d__attention_8cpp.html" target="_top" xlink:title=" ">
<polygon fill="white" stroke="black" points="1089,-62 1089,-81 1196,-81 1196,-62 1089,-62"/>
<text text-anchor="middle" x="1142.5" y="-69" font-family="Helvetica,sans-Serif" font-size="10.00">src/d/d_attention.cpp</text>
</a>
</g>
</g>
<!-- Node18&#45;&gt;Node19 -->
<g id="edge19" class="edge">
<title>Node18&#45;&gt;Node19</title>
<path fill="none" stroke="midnightblue" d="M1381.79,-122.9C1302.09,-105.1 1280.28,-103.52 1204.5,-87 1195.97,-85.14 1186.8,-83.05 1178.19,-81.04"/>
<polygon fill="midnightblue" stroke="midnightblue" points="1381.28,-126.38 1391.8,-125.16 1382.82,-119.55 1381.28,-126.38"/>
</g>
<!-- Node20 -->
<g id="node20" class="node">
<title>Node20</title>
<g id="a_node20"><a xlink:href="d__camera_8cpp.html" target="_top" xlink:title=" ">
<polygon fill="white" stroke="black" points="1213.5,-62 1213.5,-81 1315.5,-81 1315.5,-62 1213.5,-62"/>
<text text-anchor="middle" x="1264.5" y="-69" font-family="Helvetica,sans-Serif" font-size="10.00">src/d/d_camera.cpp</text>
</a>
</g>
</g>
<!-- Node18&#45;&gt;Node20 -->
<g id="edge20" class="edge">
<title>Node18&#45;&gt;Node20</title>
<path fill="none" stroke="midnightblue" d="M1392.53,-119.78C1358.4,-107.18 1314.07,-90.81 1287.53,-81.01"/>
<polygon fill="midnightblue" stroke="midnightblue" points="1391.72,-123.21 1402.31,-123.4 1394.14,-116.65 1391.72,-123.21"/>
</g>
<!-- Node21 -->
<g id="node21" class="node">
<title>Node21</title>
<g id="a_node21"><a xlink:href="d__stage_8cpp.html" target="_top" xlink:title=" ">
<polygon fill="white" stroke="black" points="1333.5,-62 1333.5,-81 1427.5,-81 1427.5,-62 1333.5,-62"/>
<text text-anchor="middle" x="1380.5" y="-69" font-family="Helvetica,sans-Serif" font-size="10.00">src/d/d_stage.cpp</text>
</a>
</g>
</g>
<!-- Node18&#45;&gt;Node21 -->
<g id="edge21" class="edge">
<title>Node18&#45;&gt;Node21</title>
<path fill="none" stroke="midnightblue" d="M1420.65,-116C1409.7,-104.13 1396.7,-90.05 1388.53,-81.19"/>
<polygon fill="midnightblue" stroke="midnightblue" points="1418.13,-118.42 1427.48,-123.4 1423.27,-113.67 1418.13,-118.42"/>
</g>
<!-- Node22 -->
<g id="node22" class="node">
<title>Node22</title>
<g id="a_node22"><a xlink:href="f__op__actor__mng_8cpp.html" target="_top" xlink:title=" ">
<polygon fill="white" stroke="black" points="1446,-56.5 1446,-86.5 1553,-86.5 1553,-56.5 1446,-56.5"/>
<text text-anchor="start" x="1454" y="-74.5" font-family="Helvetica,sans-Serif" font-size="10.00">src/f/f_op/f_op_actor</text>
<text text-anchor="middle" x="1499.5" y="-63.5" font-family="Helvetica,sans-Serif" font-size="10.00">_mng.cpp</text>
</a>
</g>
</g>
<!-- Node18&#45;&gt;Node22 -->
<g id="edge22" class="edge">
<title>Node18&#45;&gt;Node22</title>
<path fill="none" stroke="midnightblue" d="M1460.25,-115.74C1468.98,-106.12 1479,-95.09 1486.72,-86.58"/>
<polygon fill="midnightblue" stroke="midnightblue" points="1457.43,-113.64 1453.3,-123.4 1462.61,-118.34 1457.43,-113.64"/>
</g>
<!-- Node23 -->
<g id="node23" class="node">
<title>Node23</title>
<g id="a_node23"><a xlink:href="m__Do__main_8cpp.html" target="_top" xlink:title=" ">
<polygon fill="white" stroke="black" points="1571,-62 1571,-81 1702,-81 1702,-62 1571,-62"/>
<text text-anchor="middle" x="1636.5" y="-69" font-family="Helvetica,sans-Serif" font-size="10.00">src/m_Do/m_Do_main.cpp</text>
</a>
</g>
</g>
<!-- Node18&#45;&gt;Node23 -->
<g id="edge24" class="edge">
<title>Node18&#45;&gt;Node23</title>
<path fill="none" stroke="midnightblue" d="M1492.94,-120.11C1531.08,-107.46 1581.04,-90.89 1610.85,-81.01"/>
<polygon fill="midnightblue" stroke="midnightblue" points="1491.42,-116.93 1483.03,-123.4 1493.62,-123.57 1491.42,-116.93"/>
</g>
<!-- Node24 -->
<g id="node24" class="node">
<title>Node24</title>
<g id="a_node24"><a xlink:href="d__model_8h.html" target="_top" xlink:title=" ">
<polygon fill="white" stroke="black" points="1720.5,-56.5 1720.5,-86.5 1824.5,-86.5 1824.5,-56.5 1720.5,-56.5"/>
<text text-anchor="start" x="1728.5" y="-74.5" font-family="Helvetica,sans-Serif" font-size="10.00">include/d/d_model/d</text>
<text text-anchor="middle" x="1772.5" y="-63.5" font-family="Helvetica,sans-Serif" font-size="10.00">_model.h</text>
</a>
</g>
</g>
<!-- Node18&#45;&gt;Node24 -->
<g id="edge25" class="edge">
<title>Node18&#45;&gt;Node24</title>
<path fill="none" stroke="midnightblue" d="M1499.02,-127.45C1554.02,-117.8 1638.55,-102.46 1711.5,-87 1714.38,-86.39 1717.32,-85.75 1720.29,-85.09"/>
<polygon fill="midnightblue" stroke="midnightblue" points="1498.35,-124.01 1489.11,-129.18 1499.56,-130.91 1498.35,-124.01"/>
</g>
<!-- Node25 -->
<g id="node25" class="node">
<title>Node25</title>
<g id="a_node25"><a xlink:href="d__model_8cpp.html" target="_top" xlink:title=" ">
<polygon fill="white" stroke="black" points="1724.5,-0.5 1724.5,-19.5 1820.5,-19.5 1820.5,-0.5 1724.5,-0.5"/>
<text text-anchor="middle" x="1772.5" y="-7.5" font-family="Helvetica,sans-Serif" font-size="10.00">src/d/d_model.cpp</text>
</a>
</g>
</g>
<!-- Node24&#45;&gt;Node25 -->
<g id="edge26" class="edge">
<title>Node24&#45;&gt;Node25</title>
<path fill="none" stroke="midnightblue" d="M1772.5,-46.29C1772.5,-36.86 1772.5,-26.65 1772.5,-19.66"/>
<polygon fill="midnightblue" stroke="midnightblue" points="1769,-46.4 1772.5,-56.4 1776,-46.4 1769,-46.4"/>
</g>
</g>
</svg>
