<?xml version="1.0" encoding="UTF-8" standalone="no"?>
<!DOCTYPE svg PUBLIC "-//W3C//DTD SVG 1.1//EN"
 "http://www.w3.org/Graphics/SVG/1.1/DTD/svg11.dtd">
<!-- Generated by graphviz version 2.44.0 ()
 -->
<!-- Title: libs/SSystem/SComponent/c_tree.cpp Pages: 1 -->
<svg width="337pt" height="431pt"
 viewBox="0.00 0.00 337.00 431.00" xmlns="http://www.w3.org/2000/svg" xmlns:xlink="http://www.w3.org/1999/xlink">
<g id="graph0" class="graph" transform="scale(1 1) rotate(0) translate(4 427)">
<title>libs/SSystem/SComponent/c_tree.cpp</title>
<polygon fill="white" stroke="transparent" points="-4,4 -4,-427 333,-427 333,4 -4,4"/>
<!-- Node1 -->
<g id="node1" class="node">
<title>Node1</title>
<g id="a_node1"><a xlink:title=" ">
<polygon fill="#bfbfbf" stroke="black" points="86.5,-392.5 86.5,-422.5 220.5,-422.5 220.5,-392.5 86.5,-392.5"/>
<text text-anchor="start" x="94.5" y="-410.5" font-family="Helvetica,sans-Serif" font-size="10.00">libs/SSystem/SComponent</text>
<text text-anchor="middle" x="153.5" y="-399.5" font-family="Helvetica,sans-Serif" font-size="10.00">/c_tree.cpp</text>
</a>
</g>
</g>
<!-- Node2 -->
<g id="node2" class="node">
<title>Node2</title>
<g id="a_node2"><a xlink:href="c__tree_8h.html" target="_top" xlink:title=" ">
<polygon fill="white" stroke="black" points="57.5,-336.5 57.5,-355.5 167.5,-355.5 167.5,-336.5 57.5,-336.5"/>
<text text-anchor="middle" x="112.5" y="-343.5" font-family="Helvetica,sans-Serif" font-size="10.00">SComponent/c_tree.h</text>
</a>
</g>
</g>
<!-- Node1&#45;&gt;Node2 -->
<g id="edge1" class="edge">
<title>Node1&#45;&gt;Node2</title>
<path fill="none" stroke="midnightblue" d="M143.78,-392.4C137.95,-383.93 130.48,-373.1 124.31,-364.14"/>
<polygon fill="midnightblue" stroke="midnightblue" points="127.02,-361.91 118.47,-355.66 121.26,-365.88 127.02,-361.91"/>
</g>
<!-- Node5 -->
<g id="node5" class="node">
<title>Node5</title>
<g id="a_node5"><a xlink:href="global_8h.html" target="_top" xlink:title=" ">
<polygon fill="white" stroke="black" points="127.5,-168.5 127.5,-187.5 177.5,-187.5 177.5,-168.5 127.5,-168.5"/>
<text text-anchor="middle" x="152.5" y="-175.5" font-family="Helvetica,sans-Serif" font-size="10.00">global.h</text>
</a>
</g>
</g>
<!-- Node1&#45;&gt;Node5 -->
<g id="edge16" class="edge">
<title>Node1&#45;&gt;Node5</title>
<path fill="none" stroke="midnightblue" d="M161.86,-392.48C167.22,-382.65 173.68,-368.99 176.5,-356 182.17,-329.87 205.84,-347.58 175.5,-224 173.15,-214.43 168.43,-204.59 163.88,-196.57"/>
<polygon fill="midnightblue" stroke="midnightblue" points="166.75,-194.55 158.58,-187.82 160.77,-198.18 166.75,-194.55"/>
</g>
<!-- Node3 -->
<g id="node3" class="node">
<title>Node3</title>
<g id="a_node3"><a xlink:href="c__list_8h.html" target="_top" xlink:title=" ">
<polygon fill="white" stroke="black" points="0,-280.5 0,-299.5 107,-299.5 107,-280.5 0,-280.5"/>
<text text-anchor="middle" x="53.5" y="-287.5" font-family="Helvetica,sans-Serif" font-size="10.00">SComponent/c_list.h</text>
</a>
</g>
</g>
<!-- Node2&#45;&gt;Node3 -->
<g id="edge2" class="edge">
<title>Node2&#45;&gt;Node3</title>
<path fill="none" stroke="midnightblue" d="M103.02,-336.32C94.3,-328.34 81.16,-316.31 70.6,-306.65"/>
<polygon fill="midnightblue" stroke="midnightblue" points="72.89,-304 63.15,-299.83 68.17,-309.17 72.89,-304"/>
</g>
<!-- Node4 -->
<g id="node4" class="node">
<title>Node4</title>
<g id="a_node4"><a xlink:href="c__node_8h.html" target="_top" xlink:title=" ">
<polygon fill="white" stroke="black" points="52,-224.5 52,-243.5 167,-243.5 167,-224.5 52,-224.5"/>
<text text-anchor="middle" x="109.5" y="-231.5" font-family="Helvetica,sans-Serif" font-size="10.00">SComponent/c_node.h</text>
</a>
</g>
</g>
<!-- Node2&#45;&gt;Node4 -->
<g id="edge15" class="edge">
<title>Node2&#45;&gt;Node4</title>
<path fill="none" stroke="midnightblue" d="M113.54,-336.16C114.86,-323.65 116.83,-300.06 115.5,-280 114.93,-271.34 113.73,-261.81 112.56,-253.75"/>
<polygon fill="midnightblue" stroke="midnightblue" points="115.98,-252.94 110.99,-243.59 109.06,-254.01 115.98,-252.94"/>
</g>
<!-- Node3&#45;&gt;Node4 -->
<g id="edge3" class="edge">
<title>Node3&#45;&gt;Node4</title>
<path fill="none" stroke="midnightblue" d="M62.5,-280.32C70.69,-272.42 83.01,-260.55 92.97,-250.94"/>
<polygon fill="midnightblue" stroke="midnightblue" points="95.57,-253.29 100.34,-243.83 90.71,-248.26 95.57,-253.29"/>
</g>
<!-- Node4&#45;&gt;Node5 -->
<g id="edge4" class="edge">
<title>Node4&#45;&gt;Node5</title>
<path fill="none" stroke="midnightblue" d="M116.6,-224.08C122.74,-216.38 131.77,-205.03 139.24,-195.65"/>
<polygon fill="midnightblue" stroke="midnightblue" points="142.04,-197.75 145.53,-187.75 136.56,-193.39 142.04,-197.75"/>
</g>
<!-- Node6 -->
<g id="node6" class="node">
<title>Node6</title>
<g id="a_node6"><a xlink:href="types_8h.html" target="_top" xlink:title=" ">
<polygon fill="white" stroke="black" points="145,-0.5 145,-19.5 226,-19.5 226,-0.5 145,-0.5"/>
<text text-anchor="middle" x="185.5" y="-7.5" font-family="Helvetica,sans-Serif" font-size="10.00">dolphin/types.h</text>
</a>
</g>
</g>
<!-- Node5&#45;&gt;Node6 -->
<g id="edge5" class="edge">
<title>Node5&#45;&gt;Node6</title>
<path fill="none" stroke="midnightblue" d="M140.21,-168.32C113.26,-148.22 53.45,-97.02 80.5,-56 92.8,-37.35 114.61,-26.4 135.18,-19.98"/>
<polygon fill="midnightblue" stroke="midnightblue" points="136.14,-23.35 144.81,-17.26 134.24,-16.61 136.14,-23.35"/>
</g>
<!-- Node7 -->
<g id="node7" class="node">
<title>Node7</title>
<g id="a_node7"><a xlink:href="AR_8h.html" target="_top" xlink:title=" ">
<polygon fill="white" stroke="black" points="90,-56.5 90,-75.5 139,-75.5 139,-56.5 90,-56.5"/>
<text text-anchor="middle" x="114.5" y="-63.5" font-family="Helvetica,sans-Serif" font-size="10.00">ar/AR.h</text>
</a>
</g>
</g>
<!-- Node5&#45;&gt;Node7 -->
<g id="edge6" class="edge">
<title>Node5&#45;&gt;Node7</title>
<path fill="none" stroke="midnightblue" d="M149.52,-168.37C143.36,-150.54 129.11,-109.3 120.81,-85.27"/>
<polygon fill="midnightblue" stroke="midnightblue" points="124.04,-83.9 117.47,-75.59 117.43,-86.19 124.04,-83.9"/>
</g>
<!-- Node8 -->
<g id="node8" class="node">
<title>Node8</title>
<g id="a_node8"><a xlink:href="ARQ_8h.html" target="_top" xlink:title=" ">
<polygon fill="white" stroke="black" points="157.5,-56.5 157.5,-75.5 213.5,-75.5 213.5,-56.5 157.5,-56.5"/>
<text text-anchor="middle" x="185.5" y="-63.5" font-family="Helvetica,sans-Serif" font-size="10.00">ar/ARQ.h</text>
</a>
</g>
</g>
<!-- Node5&#45;&gt;Node8 -->
<g id="edge8" class="edge">
<title>Node5&#45;&gt;Node8</title>
<path fill="none" stroke="midnightblue" d="M155.03,-168.15C158.63,-155.63 165.46,-132.04 171.5,-112 174.16,-103.18 177.19,-93.41 179.75,-85.23"/>
<polygon fill="midnightblue" stroke="midnightblue" points="183.11,-86.2 182.77,-75.61 176.44,-84.1 183.11,-86.2"/>
</g>
<!-- Node9 -->
<g id="node9" class="node">
<title>Node9</title>
<g id="a_node9"><a xlink:href="mwcc_8h.html" target="_top" xlink:title=" ">
<polygon fill="white" stroke="black" points="180.5,-112.5 180.5,-131.5 230.5,-131.5 230.5,-112.5 180.5,-112.5"/>
<text text-anchor="middle" x="205.5" y="-119.5" font-family="Helvetica,sans-Serif" font-size="10.00">mwcc.h</text>
</a>
</g>
</g>
<!-- Node5&#45;&gt;Node9 -->
<g id="edge10" class="edge">
<title>Node5&#45;&gt;Node9</title>
<path fill="none" stroke="midnightblue" d="M161.25,-168.08C168.97,-160.22 180.4,-148.57 189.72,-139.08"/>
<polygon fill="midnightblue" stroke="midnightblue" points="192.4,-141.34 196.91,-131.75 187.41,-136.44 192.4,-141.34"/>
</g>
<!-- Node10 -->
<g id="node10" class="node">
<title>Node10</title>
<g id="a_node10"><a xlink:href="OS_8h.html" target="_top" xlink:title=" ">
<polygon fill="white" stroke="black" points="248.5,-112.5 248.5,-131.5 300.5,-131.5 300.5,-112.5 248.5,-112.5"/>
<text text-anchor="middle" x="274.5" y="-119.5" font-family="Helvetica,sans-Serif" font-size="10.00">os/OS.h</text>
</a>
</g>
</g>
<!-- Node5&#45;&gt;Node10 -->
<g id="edge11" class="edge">
<title>Node5&#45;&gt;Node10</title>
<path fill="none" stroke="midnightblue" d="M171.83,-168.44C191.82,-159.6 223.24,-145.69 246.06,-135.59"/>
<polygon fill="midnightblue" stroke="midnightblue" points="247.53,-138.76 255.26,-131.52 244.7,-132.36 247.53,-138.76"/>
</g>
<!-- Node7&#45;&gt;Node6 -->
<g id="edge7" class="edge">
<title>Node7&#45;&gt;Node6</title>
<path fill="none" stroke="midnightblue" d="M125.91,-56.32C136.61,-48.18 152.84,-35.84 165.66,-26.09"/>
<polygon fill="midnightblue" stroke="midnightblue" points="168.04,-28.67 173.89,-19.83 163.81,-23.1 168.04,-28.67"/>
</g>
<!-- Node8&#45;&gt;Node6 -->
<g id="edge9" class="edge">
<title>Node8&#45;&gt;Node6</title>
<path fill="none" stroke="midnightblue" d="M185.5,-56.08C185.5,-49.01 185.5,-38.86 185.5,-29.99"/>
<polygon fill="midnightblue" stroke="midnightblue" points="189,-29.75 185.5,-19.75 182,-29.75 189,-29.75"/>
</g>
<!-- Node10&#45;&gt;Node6 -->
<g id="edge12" class="edge">
<title>Node10&#45;&gt;Node6</title>
<path fill="none" stroke="midnightblue" d="M267.47,-112.14C257.51,-99.6 238.7,-75.98 222.5,-56 214.76,-46.46 206.03,-35.83 199,-27.31"/>
<polygon fill="midnightblue" stroke="midnightblue" points="201.7,-25.08 192.63,-19.6 196.3,-29.54 201.7,-25.08"/>
</g>
<!-- Node11 -->
<g id="node11" class="node">
<title>Node11</title>
<g id="a_node11"><a xlink:href="dvd_8h.html" target="_top" xlink:title=" ">
<polygon fill="white" stroke="black" points="270,-56.5 270,-75.5 329,-75.5 329,-56.5 270,-56.5"/>
<text text-anchor="middle" x="299.5" y="-63.5" font-family="Helvetica,sans-Serif" font-size="10.00">dvd/dvd.h</text>
</a>
</g>
</g>
<!-- Node10&#45;&gt;Node11 -->
<g id="edge13" class="edge">
<title>Node10&#45;&gt;Node11</title>
<path fill="none" stroke="midnightblue" d="M278.63,-112.08C282.01,-104.77 286.92,-94.18 291.12,-85.1"/>
<polygon fill="midnightblue" stroke="midnightblue" points="294.42,-86.3 295.45,-75.75 288.07,-83.36 294.42,-86.3"/>
</g>
<!-- Node11&#45;&gt;Node6 -->
<g id="edge14" class="edge">
<title>Node11&#45;&gt;Node6</title>
<path fill="none" stroke="midnightblue" d="M281.44,-56.44C262.93,-47.68 233.92,-33.94 212.64,-23.86"/>
<polygon fill="midnightblue" stroke="midnightblue" points="214.01,-20.63 203.48,-19.52 211.02,-26.96 214.01,-20.63"/>
</g>
</g>
</svg>
