<?xml version="1.0" encoding="UTF-8" standalone="no"?>
<!DOCTYPE svg PUBLIC "-//W3C//DTD SVG 1.1//EN"
 "http://www.w3.org/Graphics/SVG/1.1/DTD/svg11.dtd">
<!-- Generated by graphviz version 2.44.0 ()
 -->
<!-- Title: cCcD_Obj Pages: 1 -->
<svg width="229pt" height="252pt"
 viewBox="0.00 0.00 229.00 252.00" xmlns="http://www.w3.org/2000/svg" xmlns:xlink="http://www.w3.org/1999/xlink">
<g id="graph0" class="graph" transform="scale(1 1) rotate(0) translate(4 248)">
<title>cCcD_Obj</title>
<polygon fill="white" stroke="transparent" points="-4,4 -4,-248 225,-248 225,4 -4,4"/>
<!-- Node1 -->
<g id="node1" class="node">
<title>Node1</title>
<g id="a_node1"><a xlink:title=" ">
<polygon fill="#bfbfbf" stroke="black" points="80,-168.5 80,-187.5 141,-187.5 141,-168.5 80,-168.5"/>
<text text-anchor="middle" x="110.5" y="-175.5" font-family="Helvetica,sans-Serif" font-size="10.00">cCcD_Obj</text>
</a>
</g>
</g>
<!-- Node3 -->
<g id="node3" class="node">
<title>Node3</title>
<g id="a_node3"><a xlink:href="classcCcD__GObjInf.html" target="_top" xlink:title=" ">
<polygon fill="white" stroke="black" points="70.5,-112.5 70.5,-131.5 150.5,-131.5 150.5,-112.5 70.5,-112.5"/>
<text text-anchor="middle" x="110.5" y="-119.5" font-family="Helvetica,sans-Serif" font-size="10.00">cCcD_GObjInf</text>
</a>
</g>
</g>
<!-- Node1&#45;&gt;Node3 -->
<g id="edge2" class="edge">
<title>Node1&#45;&gt;Node3</title>
<path fill="none" stroke="#8b1a1a" d="M110.5,-157.8C110.5,-148.91 110.5,-138.78 110.5,-131.75"/>
<polygon fill="#8b1a1a" stroke="#8b1a1a" points="107,-158.08 110.5,-168.08 114,-158.08 107,-158.08"/>
</g>
<!-- Node2 -->
<g id="node2" class="node">
<title>Node2</title>
<g id="a_node2"><a xlink:href="classcCcD__ObjHitInf.html" target="_top" xlink:title=" ">
<polygon fill="white" stroke="black" points="68,-224.5 68,-243.5 153,-243.5 153,-224.5 68,-224.5"/>
<text text-anchor="middle" x="110.5" y="-231.5" font-family="Helvetica,sans-Serif" font-size="10.00">cCcD_ObjHitInf</text>
</a>
</g>
</g>
<!-- Node2&#45;&gt;Node1 -->
<g id="edge1" class="edge">
<title>Node2&#45;&gt;Node1</title>
<path fill="none" stroke="#8b1a1a" d="M110.5,-213.8C110.5,-204.91 110.5,-194.78 110.5,-187.75"/>
<polygon fill="#8b1a1a" stroke="#8b1a1a" points="107,-214.08 110.5,-224.08 114,-214.08 107,-214.08"/>
</g>
<!-- Node4 -->
<g id="node4" class="node">
<title>Node4</title>
<g id="a_node4"><a xlink:href="classdCcD__GObjInf.html" target="_top" xlink:title=" ">
<polygon fill="white" stroke="black" points="70.5,-56.5 70.5,-75.5 150.5,-75.5 150.5,-56.5 70.5,-56.5"/>
<text text-anchor="middle" x="110.5" y="-63.5" font-family="Helvetica,sans-Serif" font-size="10.00">dCcD_GObjInf</text>
</a>
</g>
</g>
<!-- Node3&#45;&gt;Node4 -->
<g id="edge3" class="edge">
<title>Node3&#45;&gt;Node4</title>
<path fill="none" stroke="#8b1a1a" d="M110.5,-101.8C110.5,-92.91 110.5,-82.78 110.5,-75.75"/>
<polygon fill="#8b1a1a" stroke="#8b1a1a" points="107,-102.08 110.5,-112.08 114,-102.08 107,-102.08"/>
</g>
<!-- Node5 -->
<g id="node5" class="node">
<title>Node5</title>
<g id="a_node5"><a xlink:href="classdCcD__Cps.html" target="_top" xlink:title=" ">
<polygon fill="white" stroke="black" points="0,-0.5 0,-19.5 63,-19.5 63,-0.5 0,-0.5"/>
<text text-anchor="middle" x="31.5" y="-7.5" font-family="Helvetica,sans-Serif" font-size="10.00">dCcD_Cps</text>
</a>
</g>
</g>
<!-- Node4&#45;&gt;Node5 -->
<g id="edge4" class="edge">
<title>Node4&#45;&gt;Node5</title>
<path fill="none" stroke="#8b1a1a" d="M89.47,-50.62C75.03,-40.76 56.36,-27.99 44.16,-19.65"/>
<polygon fill="#8b1a1a" stroke="#8b1a1a" points="87.58,-53.57 97.81,-56.32 91.53,-47.79 87.58,-53.57"/>
</g>
<!-- Node6 -->
<g id="node6" class="node">
<title>Node6</title>
<g id="a_node6"><a xlink:href="classdCcD__Cyl.html" target="_top" xlink:title=" ">
<polygon fill="white" stroke="black" points="81,-0.5 81,-19.5 140,-19.5 140,-0.5 81,-0.5"/>
<text text-anchor="middle" x="110.5" y="-7.5" font-family="Helvetica,sans-Serif" font-size="10.00">dCcD_Cyl</text>
</a>
</g>
</g>
<!-- Node4&#45;&gt;Node6 -->
<g id="edge5" class="edge">
<title>Node4&#45;&gt;Node6</title>
<path fill="none" stroke="#8b1a1a" d="M110.5,-45.8C110.5,-36.91 110.5,-26.78 110.5,-19.75"/>
<polygon fill="#8b1a1a" stroke="#8b1a1a" points="107,-46.08 110.5,-56.08 114,-46.08 107,-46.08"/>
</g>
<!-- Node7 -->
<g id="node7" class="node">
<title>Node7</title>
<g id="a_node7"><a xlink:href="classdCcD__Sph.html" target="_top" xlink:title=" ">
<polygon fill="white" stroke="black" points="158,-0.5 158,-19.5 221,-19.5 221,-0.5 158,-0.5"/>
<text text-anchor="middle" x="189.5" y="-7.5" font-family="Helvetica,sans-Serif" font-size="10.00">dCcD_Sph</text>
</a>
</g>
</g>
<!-- Node4&#45;&gt;Node7 -->
<g id="edge6" class="edge">
<title>Node4&#45;&gt;Node7</title>
<path fill="none" stroke="#8b1a1a" d="M131.53,-50.62C145.97,-40.76 164.64,-27.99 176.84,-19.65"/>
<polygon fill="#8b1a1a" stroke="#8b1a1a" points="129.47,-47.79 123.19,-56.32 133.42,-53.57 129.47,-47.79"/>
</g>
</g>
</svg>
