<?xml version="1.0" encoding="UTF-8" standalone="no"?>
<!DOCTYPE svg PUBLIC "-//W3C//DTD SVG 1.1//EN"
 "http://www.w3.org/Graphics/SVG/1.1/DTD/svg11.dtd">
<!-- Generated by graphviz version 2.44.0 ()
 -->
<!-- Title: scene_request_class Pages: 1 -->
<svg width="1851pt" height="700pt"
 viewBox="0.00 0.00 1851.00 700.27" xmlns="http://www.w3.org/2000/svg" xmlns:xlink="http://www.w3.org/1999/xlink">
<g id="graph0" class="graph" transform="scale(1 1) rotate(0) translate(4 696.27)">
<title>scene_request_class</title>
<polygon fill="white" stroke="transparent" points="-4,4 -4,-696.27 1847,-696.27 1847,4 -4,4"/>
<!-- Node1 -->
<g id="node1" class="node">
<title>Node1</title>
<g id="a_node1"><a xlink:title=" ">
<polygon fill="#bfbfbf" stroke="black" points="1734,-621.27 1734,-640.27 1843,-640.27 1843,-621.27 1734,-621.27"/>
<text text-anchor="middle" x="1788.5" y="-628.27" font-family="Helvetica,sans-Serif" font-size="10.00">scene_request_class</text>
</a>
</g>
</g>
<!-- Node2 -->
<g id="node2" class="node">
<title>Node2</title>
<g id="a_node2"><a xlink:href="structnode__create__request.html" target="_top" xlink:title=" ">
<polygon fill="white" stroke="black" points="1545,-574.27 1545,-593.27 1652,-593.27 1652,-574.27 1545,-574.27"/>
<text text-anchor="middle" x="1598.5" y="-581.27" font-family="Helvetica,sans-Serif" font-size="10.00">node_create_request</text>
</a>
</g>
</g>
<!-- Node2&#45;&gt;Node1 -->
<g id="edge1" class="edge">
<title>Node2&#45;&gt;Node1</title>
<path fill="none" stroke="#9a32cd" stroke-dasharray="5,2" d="M1647.44,-595.75C1679.01,-603.65 1719.79,-613.84 1749.19,-621.19"/>
<polygon fill="#9a32cd" stroke="#9a32cd" points="1648.09,-592.31 1637.54,-593.28 1646.4,-599.1 1648.09,-592.31"/>
<text text-anchor="middle" x="1695.5" y="-615.77" font-family="Helvetica,sans-Serif" font-size="10.00"> mCrtReq</text>
</g>
<!-- Node3 -->
<g id="node3" class="node">
<title>Node3</title>
<g id="a_node3"><a xlink:href="structrequest__of__phase__process__class.html" target="_top" xlink:title=" ">
<polygon fill="white" stroke="black" points="1273,-661.77 1273,-691.77 1407,-691.77 1407,-661.77 1273,-661.77"/>
<text text-anchor="start" x="1281" y="-679.77" font-family="Helvetica,sans-Serif" font-size="10.00">request_of_phase_process</text>
<text text-anchor="middle" x="1340" y="-668.77" font-family="Helvetica,sans-Serif" font-size="10.00">_class</text>
</a>
</g>
</g>
<!-- Node3&#45;&gt;Node1 -->
<g id="edge45" class="edge">
<title>Node3&#45;&gt;Node1</title>
<path fill="none" stroke="#9a32cd" stroke-dasharray="5,2" d="M1417.52,-671.58C1449.8,-669.2 1487.76,-666.16 1522,-662.77 1595.58,-655.49 1680.35,-644.89 1733.93,-637.91"/>
<polygon fill="#9a32cd" stroke="#9a32cd" points="1416.97,-668.11 1407.25,-672.33 1417.48,-675.09 1416.97,-668.11"/>
<text text-anchor="middle" x="1598.5" y="-662.77" font-family="Helvetica,sans-Serif" font-size="10.00"> mReqPhsProcCls</text>
</g>
<!-- Node3&#45;&gt;Node2 -->
<g id="edge2" class="edge">
<title>Node3&#45;&gt;Node2</title>
<path fill="none" stroke="#9a32cd" stroke-dasharray="5,2" d="M1400.29,-658.82C1408.58,-656.4 1416.99,-653.99 1425,-651.77 1467.9,-639.86 1480.74,-643.49 1522,-626.77 1544.51,-617.65 1568.57,-602.99 1583.32,-593.37"/>
<polygon fill="#9a32cd" stroke="#9a32cd" points="1399.27,-655.48 1390.66,-661.66 1401.24,-662.19 1399.27,-655.48"/>
<text text-anchor="middle" x="1473.5" y="-654.77" font-family="Helvetica,sans-Serif" font-size="10.00"> mReqPhsProc</text>
</g>
<!-- Node4 -->
<g id="node4" class="node">
<title>Node4</title>
<g id="a_node4"><a xlink:href="structcreate__tag__class.html" target="_top" xlink:title=" ">
<polygon fill="white" stroke="black" points="142,-237.27 142,-256.27 233,-256.27 233,-237.27 142,-237.27"/>
<text text-anchor="middle" x="187.5" y="-244.27" font-family="Helvetica,sans-Serif" font-size="10.00">create_tag_class</text>
</a>
</g>
</g>
<!-- Node4&#45;&gt;Node2 -->
<g id="edge3" class="edge">
<title>Node4&#45;&gt;Node2</title>
<path fill="none" stroke="#9a32cd" stroke-dasharray="5,2" d="M200.4,-264.99C212.12,-282.21 231.11,-308.24 251,-327.77 280.24,-356.48 290.19,-361.15 325,-382.77 589.81,-547.27 685.26,-583.77 997,-583.77 997,-583.77 997,-583.77 1341,-583.77 1411.58,-583.77 1493.09,-583.77 1544.94,-583.77"/>
<polygon fill="#9a32cd" stroke="#9a32cd" points="203.14,-262.8 194.68,-256.43 197.32,-266.69 203.14,-262.8"/>
<text text-anchor="middle" x="887" y="-585.77" font-family="Helvetica,sans-Serif" font-size="10.00"> mCreateTag</text>
</g>
<!-- Node7 -->
<g id="node7" class="node">
<title>Node7</title>
<g id="a_node7"><a xlink:href="structprocess__method__tag__class.html" target="_top" xlink:title=" ">
<polygon fill="white" stroke="black" points="340,-205.77 340,-235.77 447,-235.77 447,-205.77 340,-205.77"/>
<text text-anchor="start" x="348" y="-223.77" font-family="Helvetica,sans-Serif" font-size="10.00">process_method_tag</text>
<text text-anchor="middle" x="393.5" y="-212.77" font-family="Helvetica,sans-Serif" font-size="10.00">_class</text>
</a>
</g>
</g>
<!-- Node4&#45;&gt;Node7 -->
<g id="edge8" class="edge">
<title>Node4&#45;&gt;Node7</title>
<path fill="none" stroke="#9a32cd" stroke-dasharray="5,2" d="M243.3,-239.78C273.24,-235.97 310.15,-231.26 339.77,-227.49"/>
<polygon fill="#9a32cd" stroke="#9a32cd" points="242.49,-236.36 233.02,-241.09 243.38,-243.3 242.49,-236.36"/>
<text text-anchor="middle" x="279" y="-241.77" font-family="Helvetica,sans-Serif" font-size="10.00"> mCreateTag</text>
</g>
<!-- Node11 -->
<g id="node11" class="node">
<title>Node11</title>
<g id="a_node11"><a xlink:href="structprocess__priority__class.html" target="_top" xlink:title=" ">
<polygon fill="white" stroke="black" points="554,-224.27 554,-243.27 667,-243.27 667,-224.27 554,-224.27"/>
<text text-anchor="middle" x="610.5" y="-231.27" font-family="Helvetica,sans-Serif" font-size="10.00">process_priority_class</text>
</a>
</g>
</g>
<!-- Node4&#45;&gt;Node11 -->
<g id="edge14" class="edge">
<title>Node4&#45;&gt;Node11</title>
<path fill="none" stroke="#9a32cd" stroke-dasharray="5,2" d="M243.28,-253.26C245.89,-253.45 248.47,-253.63 251,-253.77 330.7,-258.22 476.95,-249.5 530,-244.77 537.77,-244.08 545.95,-243.16 553.98,-242.15"/>
<polygon fill="#9a32cd" stroke="#9a32cd" points="243.44,-249.76 233.17,-252.38 242.84,-256.73 243.44,-249.76"/>
<text text-anchor="middle" x="393.5" y="-258.77" font-family="Helvetica,sans-Serif" font-size="10.00"> mBase</text>
</g>
<!-- Node13 -->
<g id="node13" class="node">
<title>Node13</title>
<g id="a_node13"><a xlink:href="structline__tag.html" target="_top" xlink:title=" ">
<polygon fill="white" stroke="black" points="480,-116.27 480,-135.27 530,-135.27 530,-116.27 480,-116.27"/>
<text text-anchor="middle" x="505" y="-123.27" font-family="Helvetica,sans-Serif" font-size="10.00">line_tag</text>
</a>
</g>
</g>
<!-- Node4&#45;&gt;Node13 -->
<g id="edge17" class="edge">
<title>Node4&#45;&gt;Node13</title>
<path fill="none" stroke="#9a32cd" stroke-dasharray="5,2" d="M207.66,-230.65C232.87,-210.32 279.36,-175.86 325,-157.77 377.68,-136.89 444.49,-129.56 479.71,-127.04"/>
<polygon fill="#9a32cd" stroke="#9a32cd" points="205.18,-228.15 199.66,-237.19 209.62,-233.56 205.18,-228.15"/>
<text text-anchor="middle" x="279" y="-200.77" font-family="Helvetica,sans-Serif" font-size="10.00"> mBase</text>
</g>
<!-- Node16 -->
<g id="node16" class="node">
<title>Node16</title>
<g id="a_node16"><a xlink:href="structlayer__management__tag__class.html" target="_top" xlink:title=" ">
<polygon fill="white" stroke="black" points="1540,-237.77 1540,-267.77 1657,-267.77 1657,-237.77 1540,-237.77"/>
<text text-anchor="start" x="1548" y="-255.77" font-family="Helvetica,sans-Serif" font-size="10.00">layer_management_tag</text>
<text text-anchor="middle" x="1598.5" y="-244.77" font-family="Helvetica,sans-Serif" font-size="10.00">_class</text>
</a>
</g>
</g>
<!-- Node4&#45;&gt;Node16 -->
<g id="edge21" class="edge">
<title>Node4&#45;&gt;Node16</title>
<path fill="none" stroke="#9a32cd" stroke-dasharray="5,2" d="M198.87,-228.19C209.89,-209.75 228.78,-181.59 251,-162.77 303.39,-118.39 323.84,-100.77 392.5,-100.77 392.5,-100.77 392.5,-100.77 999,-100.77 1054.21,-100.77 1408.11,-199.19 1544.24,-237.64"/>
<polygon fill="#9a32cd" stroke="#9a32cd" points="195.7,-226.68 193.72,-237.08 201.76,-230.19 195.7,-226.68"/>
<text text-anchor="middle" x="887" y="-103.77" font-family="Helvetica,sans-Serif" font-size="10.00"> mCreateTag</text>
</g>
<!-- Node19 -->
<g id="node19" class="node">
<title>Node19</title>
<g id="a_node19"><a xlink:href="structcreate__tag.html" target="_top" xlink:title=" ">
<polygon fill="white" stroke="black" points="722.5,-9.27 722.5,-28.27 784.5,-28.27 784.5,-9.27 722.5,-9.27"/>
<text text-anchor="middle" x="753.5" y="-16.27" font-family="Helvetica,sans-Serif" font-size="10.00">create_tag</text>
</a>
</g>
</g>
<!-- Node4&#45;&gt;Node19 -->
<g id="edge30" class="edge">
<title>Node4&#45;&gt;Node19</title>
<path fill="none" stroke="#9a32cd" stroke-dasharray="5,2" d="M190.07,-226.67C193.91,-192.12 207,-121.84 251,-86.77 394.42,27.56 637.4,0.65 722.21,-13.18"/>
<polygon fill="#9a32cd" stroke="#9a32cd" points="186.55,-226.62 189.09,-236.91 193.52,-227.29 186.55,-226.62"/>
<text text-anchor="middle" x="393.5" y="-43.77" font-family="Helvetica,sans-Serif" font-size="10.00"> mBase</text>
</g>
<!-- Node20 -->
<g id="node20" class="node">
<title>Node20</title>
<g id="a_node20"><a xlink:href="structdelete__tag__class.html" target="_top" xlink:title=" ">
<polygon fill="white" stroke="black" points="1553.5,-382.27 1553.5,-401.27 1643.5,-401.27 1643.5,-382.27 1553.5,-382.27"/>
<text text-anchor="middle" x="1598.5" y="-389.27" font-family="Helvetica,sans-Serif" font-size="10.00">delete_tag_class</text>
</a>
</g>
</g>
<!-- Node4&#45;&gt;Node20 -->
<g id="edge32" class="edge">
<title>Node4&#45;&gt;Node20</title>
<path fill="none" stroke="#9a32cd" stroke-dasharray="5,2" d="M207.71,-262.62C233.26,-283.15 280.4,-319.08 325,-342.77 390.1,-377.35 409.81,-379.26 480,-401.77 634.9,-451.44 675.97,-456.18 834,-494.77 888.89,-508.17 901.85,-516.51 958,-522.77 1143.3,-543.43 1372.48,-571.03 1522,-490.77 1559.9,-470.42 1584.5,-421.89 1593.57,-401.28"/>
<polygon fill="#9a32cd" stroke="#9a32cd" points="209.88,-259.88 199.91,-256.29 205.47,-265.31 209.88,-259.88"/>
<text text-anchor="middle" x="887" y="-522.77" font-family="Helvetica,sans-Serif" font-size="10.00"> mBase</text>
</g>
<!-- Node5 -->
<g id="node5" class="node">
<title>Node5</title>
<g id="a_node5"><a xlink:href="structnode__class.html" target="_top" xlink:title=" ">
<polygon fill="white" stroke="black" points="0,-474.27 0,-493.27 66,-493.27 66,-474.27 0,-474.27"/>
<text text-anchor="middle" x="33" y="-481.27" font-family="Helvetica,sans-Serif" font-size="10.00">node_class</text>
</a>
</g>
</g>
<!-- Node5&#45;&gt;Node4 -->
<g id="edge4" class="edge">
<title>Node5&#45;&gt;Node4</title>
<path fill="none" stroke="#9a32cd" stroke-dasharray="5,2" d="M45.71,-465.57C76.17,-418.23 157.14,-292.4 180.26,-256.47"/>
<polygon fill="#9a32cd" stroke="#9a32cd" points="42.63,-463.88 40.17,-474.18 48.52,-467.67 42.63,-463.88"/>
<text text-anchor="middle" x="104" y="-402.77" font-family="Helvetica,sans-Serif" font-size="10.00"> mpNode</text>
</g>
<!-- Node5&#45;&gt;Node5 -->
<g id="edge5" class="edge">
<title>Node5&#45;&gt;Node5</title>
<path fill="none" stroke="#9a32cd" stroke-dasharray="5,2" d="M20.11,-503.53C21.12,-508.27 25.42,-511.77 33,-511.77 45.44,-511.77 49.04,-502.33 43.79,-493.53"/>
<polygon fill="#9a32cd" stroke="#9a32cd" points="23.58,-504.03 22.21,-493.53 16.73,-502.59 23.58,-504.03"/>
<text text-anchor="middle" x="33" y="-525.77" font-family="Helvetica,sans-Serif" font-size="10.00"> mpNextNode</text>
<text text-anchor="middle" x="33" y="-514.77" font-family="Helvetica,sans-Serif" font-size="10.00">mpPrevNode</text>
</g>
<!-- Node8 -->
<g id="node8" class="node">
<title>Node8</title>
<g id="a_node8"><a xlink:href="structlayer__class.html" target="_top" xlink:title=" ">
<polygon fill="white" stroke="black" points="1307.5,-375.27 1307.5,-394.27 1372.5,-394.27 1372.5,-375.27 1307.5,-375.27"/>
<text text-anchor="middle" x="1340" y="-382.27" font-family="Helvetica,sans-Serif" font-size="10.00">layer_class</text>
</a>
</g>
</g>
<!-- Node5&#45;&gt;Node8 -->
<g id="edge42" class="edge">
<title>Node5&#45;&gt;Node8</title>
<path fill="none" stroke="#9a32cd" stroke-dasharray="5,2" d="M76.44,-483.77C107.03,-483.77 149.32,-483.77 186.5,-483.77 186.5,-483.77 186.5,-483.77 506,-483.77 653.67,-483.77 687.79,-451.46 834,-430.77 932.41,-416.84 957.05,-413.1 1056,-403.77 1146.94,-395.19 1254.68,-389.07 1307.12,-386.35"/>
<polygon fill="#9a32cd" stroke="#9a32cd" points="76.13,-480.27 66.13,-483.77 76.13,-487.27 76.13,-480.27"/>
<text text-anchor="middle" x="610.5" y="-484.77" font-family="Helvetica,sans-Serif" font-size="10.00"> mNode</text>
</g>
<!-- Node21 -->
<g id="node21" class="node">
<title>Node21</title>
<g id="a_node21"><a xlink:href="structnode__list__class.html" target="_top" xlink:title=" ">
<polygon fill="white" stroke="black" points="845,-440.27 845,-459.27 929,-459.27 929,-440.27 845,-440.27"/>
<text text-anchor="middle" x="887" y="-447.27" font-family="Helvetica,sans-Serif" font-size="10.00">node_list_class</text>
</a>
</g>
</g>
<!-- Node5&#45;&gt;Node21 -->
<g id="edge36" class="edge">
<title>Node5&#45;&gt;Node21</title>
<path fill="none" stroke="#9a32cd" stroke-dasharray="5,2" d="M72.84,-495.74C76.59,-496.56 80.35,-497.26 84,-497.77 343.3,-533.67 412.62,-525.79 673,-498.77 739.05,-491.91 814.33,-471.53 855.36,-459.32"/>
<polygon fill="#9a32cd" stroke="#9a32cd" points="73.61,-492.32 63.07,-493.33 71.94,-499.12 73.61,-492.32"/>
<text text-anchor="middle" x="393.5" y="-535.77" font-family="Helvetica,sans-Serif" font-size="10.00"> mpHead</text>
<text text-anchor="middle" x="393.5" y="-524.77" font-family="Helvetica,sans-Serif" font-size="10.00">mpTail</text>
</g>
<!-- Node6 -->
<g id="node6" class="node">
<title>Node6</title>
<g id="a_node6"><a xlink:href="structnode__create__request__method__class.html" target="_top" xlink:title=" ">
<polygon fill="white" stroke="black" points="1286.5,-612.77 1286.5,-642.77 1393.5,-642.77 1393.5,-612.77 1286.5,-612.77"/>
<text text-anchor="start" x="1294.5" y="-630.77" font-family="Helvetica,sans-Serif" font-size="10.00">node_create_request</text>
<text text-anchor="middle" x="1340" y="-619.77" font-family="Helvetica,sans-Serif" font-size="10.00">_method_class</text>
</a>
</g>
</g>
<!-- Node6&#45;&gt;Node2 -->
<g id="edge6" class="edge">
<title>Node6&#45;&gt;Node2</title>
<path fill="none" stroke="#9a32cd" stroke-dasharray="5,2" d="M1403.64,-617.02C1446.85,-609.61 1503.67,-599.86 1544.6,-592.84"/>
<polygon fill="#9a32cd" stroke="#9a32cd" points="1402.79,-613.62 1393.53,-618.76 1403.97,-620.52 1402.79,-613.62"/>
<text text-anchor="middle" x="1473.5" y="-614.77" font-family="Helvetica,sans-Serif" font-size="10.00"> mpNodeCrReqMthCls</text>
</g>
<!-- Node7&#45;&gt;Node2 -->
<g id="edge7" class="edge">
<title>Node7&#45;&gt;Node2</title>
<path fill="none" stroke="#9a32cd" stroke-dasharray="5,2" d="M455.58,-239.54C457.91,-241.42 460.07,-243.49 462,-245.77 489.24,-277.87 449.21,-310.06 480,-338.77 590.02,-441.37 705.55,-277.63 816,-379.77 845.63,-407.17 804.71,-441.01 834,-468.77 862.04,-495.34 1483.89,-563.44 1522,-569.77 1530.29,-571.14 1539.06,-572.69 1547.59,-574.24"/>
<polygon fill="#9a32cd" stroke="#9a32cd" points="457.35,-236.51 447.1,-233.84 453.45,-242.32 457.35,-236.51"/>
<text text-anchor="middle" x="998" y="-510.77" font-family="Helvetica,sans-Serif" font-size="10.00"> mProcMthCls</text>
</g>
<!-- Node7&#45;&gt;Node11 -->
<g id="edge15" class="edge">
<title>Node7&#45;&gt;Node11</title>
<path fill="none" stroke="#9a32cd" stroke-dasharray="5,2" d="M457.2,-224.56C487.73,-226.41 524.13,-228.61 553.69,-230.39"/>
<polygon fill="#9a32cd" stroke="#9a32cd" points="457.29,-221.06 447.09,-223.95 456.87,-228.05 457.29,-221.06"/>
<text text-anchor="middle" x="505" y="-232.77" font-family="Helvetica,sans-Serif" font-size="10.00"> mMtdTag</text>
</g>
<!-- Node17 -->
<g id="node17" class="node">
<title>Node17</title>
<g id="a_node17"><a xlink:href="structcreate__request.html" target="_top" xlink:title=" ">
<polygon fill="white" stroke="black" points="1558,-107.27 1558,-126.27 1639,-126.27 1639,-107.27 1558,-107.27"/>
<text text-anchor="middle" x="1598.5" y="-114.27" font-family="Helvetica,sans-Serif" font-size="10.00">create_request</text>
</a>
</g>
</g>
<!-- Node7&#45;&gt;Node17 -->
<g id="edge27" class="edge">
<title>Node7&#45;&gt;Node17</title>
<path fill="none" stroke="#9a32cd" stroke-dasharray="5,2" d="M449.37,-201.76C453.7,-199.87 457.96,-197.86 462,-195.77 503.16,-174.45 505.32,-154.85 548,-136.77 845.96,-10.55 949.42,-72.85 1273,-69.77 1332.55,-69.2 1347.88,-62.58 1407,-69.77 1465.16,-76.84 1531.16,-95.62 1568.22,-107.19"/>
<polygon fill="#9a32cd" stroke="#9a32cd" points="447.71,-198.66 439.83,-205.74 450.41,-205.12 447.71,-198.66"/>
<text text-anchor="middle" x="998" y="-65.77" font-family="Helvetica,sans-Serif" font-size="10.00"> mMtdTg</text>
</g>
<!-- Node8&#45;&gt;Node2 -->
<g id="edge9" class="edge">
<title>Node8&#45;&gt;Node2</title>
<path fill="none" stroke="#9a32cd" stroke-dasharray="5,2" d="M1382.57,-393.14C1422.11,-402.84 1481.42,-422.13 1522,-456.77 1561.61,-490.57 1585.87,-550.62 1594.22,-574.04"/>
<polygon fill="#9a32cd" stroke="#9a32cd" points="1383.26,-389.7 1372.72,-390.82 1381.65,-396.52 1383.26,-389.7"/>
<text text-anchor="middle" x="1473.5" y="-459.77" font-family="Helvetica,sans-Serif" font-size="10.00"> mpLayerClass</text>
</g>
<!-- Node9 -->
<g id="node9" class="node">
<title>Node9</title>
<g id="a_node9"><a xlink:href="structprocess__node__class.html" target="_top" xlink:title=" ">
<polygon fill="white" stroke="black" points="1058.5,-337.27 1058.5,-356.27 1164.5,-356.27 1164.5,-337.27 1058.5,-337.27"/>
<text text-anchor="middle" x="1111.5" y="-344.27" font-family="Helvetica,sans-Serif" font-size="10.00">process_node_class</text>
</a>
</g>
</g>
<!-- Node8&#45;&gt;Node9 -->
<g id="edge34" class="edge">
<title>Node8&#45;&gt;Node9</title>
<path fill="none" stroke="#9a32cd" stroke-dasharray="5,2" d="M1319.3,-368.85C1303.12,-356.85 1279.02,-341.38 1255,-334.77 1219.09,-324.89 1176.34,-330.71 1147.09,-337.22"/>
<polygon fill="#9a32cd" stroke="#9a32cd" points="1317.36,-371.77 1327.43,-375.08 1321.62,-366.21 1317.36,-371.77"/>
<text text-anchor="middle" x="1220" y="-337.77" font-family="Helvetica,sans-Serif" font-size="10.00"> mLayer</text>
</g>
<!-- Node8&#45;&gt;Node16 -->
<g id="edge22" class="edge">
<title>Node8&#45;&gt;Node16</title>
<path fill="none" stroke="#9a32cd" stroke-dasharray="5,2" d="M1382.73,-376.32C1428.56,-366.54 1498.76,-349.97 1522,-335.77 1550.59,-318.3 1574.84,-286.84 1587.68,-268.07"/>
<polygon fill="#9a32cd" stroke="#9a32cd" points="1381.84,-372.93 1372.78,-378.42 1383.28,-379.78 1381.84,-372.93"/>
<text text-anchor="middle" x="1473.5" y="-368.77" font-family="Helvetica,sans-Serif" font-size="10.00"> mpLayer</text>
</g>
<!-- Node8&#45;&gt;Node17 -->
<g id="edge28" class="edge">
<title>Node8&#45;&gt;Node17</title>
<path fill="none" stroke="#9a32cd" stroke-dasharray="5,2" d="M1357.08,-367.97C1405.69,-317.18 1550.13,-166.26 1588.21,-126.47"/>
<polygon fill="#9a32cd" stroke="#9a32cd" points="1354.51,-365.59 1350.13,-375.23 1359.57,-370.43 1354.51,-365.59"/>
<text text-anchor="middle" x="1473.5" y="-292.77" font-family="Helvetica,sans-Serif" font-size="10.00"> mpLayer</text>
</g>
<!-- Node8&#45;&gt;Node20 -->
<g id="edge33" class="edge">
<title>Node8&#45;&gt;Node20</title>
<path fill="none" stroke="#9a32cd" stroke-dasharray="5,2" d="M1382.84,-385.91C1429.77,-387.19 1505.58,-389.26 1553.41,-390.57"/>
<polygon fill="#9a32cd" stroke="#9a32cd" points="1382.8,-382.41 1372.71,-385.63 1382.61,-389.41 1382.8,-382.41"/>
<text text-anchor="middle" x="1473.5" y="-391.77" font-family="Helvetica,sans-Serif" font-size="10.00"> mpLayer</text>
</g>
<!-- Node9&#45;&gt;Node8 -->
<g id="edge10" class="edge">
<title>Node9&#45;&gt;Node8</title>
<path fill="none" stroke="#9a32cd" stroke-dasharray="5,2" d="M1174.75,-349.76C1199.84,-351.66 1228.95,-354.76 1255,-359.77 1274.27,-363.48 1295.45,-369.8 1311.72,-375.15"/>
<polygon fill="#9a32cd" stroke="#9a32cd" points="1174.85,-346.26 1164.63,-349.04 1174.35,-353.24 1174.85,-346.26"/>
<text text-anchor="middle" x="1220" y="-362.77" font-family="Helvetica,sans-Serif" font-size="10.00"> mpPcNode</text>
</g>
<!-- Node24 -->
<g id="node24" class="node">
<title>Node24</title>
<g id="a_node24"><a xlink:href="structunk__process__node__class.html" target="_top" xlink:title=" ">
<polygon fill="white" stroke="black" points="1276.5,-434.27 1276.5,-453.27 1403.5,-453.27 1403.5,-434.27 1276.5,-434.27"/>
<text text-anchor="middle" x="1340" y="-441.27" font-family="Helvetica,sans-Serif" font-size="10.00">unk_process_node_class</text>
</a>
</g>
</g>
<!-- Node9&#45;&gt;Node24 -->
<g id="edge44" class="edge">
<title>Node9&#45;&gt;Node24</title>
<path fill="none" stroke="#9a32cd" stroke-dasharray="5,2" d="M1144.34,-360.41C1190.82,-380.31 1276.08,-416.82 1316.55,-434.15"/>
<polygon fill="#9a32cd" stroke="#9a32cd" points="1145.62,-357.14 1135.05,-356.42 1142.86,-363.58 1145.62,-357.14"/>
<text text-anchor="middle" x="1220" y="-409.77" font-family="Helvetica,sans-Serif" font-size="10.00"> mpNodeProc</text>
</g>
<!-- Node10 -->
<g id="node10" class="node">
<title>Node10</title>
<g id="a_node10"><a xlink:href="structbase__process__class.html" target="_top" xlink:title=" ">
<polygon fill="white" stroke="black" points="834,-243.27 834,-262.27 940,-262.27 940,-243.27 834,-243.27"/>
<text text-anchor="middle" x="887" y="-250.27" font-family="Helvetica,sans-Serif" font-size="10.00">base_process_class</text>
</a>
</g>
</g>
<!-- Node10&#45;&gt;Node9 -->
<g id="edge11" class="edge">
<title>Node10&#45;&gt;Node9</title>
<path fill="none" stroke="#9a32cd" stroke-dasharray="5,2" d="M907.13,-269.17C920.6,-280.01 939.47,-293.81 958,-302.77 991.31,-318.86 1002.45,-315.51 1038,-325.77 1050.97,-329.51 1065.24,-333.64 1077.66,-337.24"/>
<polygon fill="#9a32cd" stroke="#9a32cd" points="909.06,-266.23 899.12,-262.56 904.61,-271.63 909.06,-266.23"/>
<text text-anchor="middle" x="998" y="-328.77" font-family="Helvetica,sans-Serif" font-size="10.00"> mBase</text>
</g>
<!-- Node10&#45;&gt;Node17 -->
<g id="edge26" class="edge">
<title>Node10&#45;&gt;Node17</title>
<path fill="none" stroke="#9a32cd" stroke-dasharray="5,2" d="M950.29,-244.95C1064.65,-229.91 1315.3,-193.79 1522,-141.77 1538.87,-137.52 1557.42,-131.4 1571.92,-126.28"/>
<polygon fill="#9a32cd" stroke="#9a32cd" points="949.78,-241.49 940.32,-246.25 950.69,-248.43 949.78,-241.49"/>
<text text-anchor="middle" x="1220" y="-213.77" font-family="Helvetica,sans-Serif" font-size="10.00"> mpRes</text>
</g>
<!-- Node11&#45;&gt;Node10 -->
<g id="edge12" class="edge">
<title>Node11&#45;&gt;Node10</title>
<path fill="none" stroke="#9a32cd" stroke-dasharray="5,2" d="M677.03,-238.3C725.01,-241.63 789.25,-246.07 833.79,-249.15"/>
<polygon fill="#9a32cd" stroke="#9a32cd" points="677.27,-234.81 667.05,-237.61 676.78,-241.8 677.27,-234.81"/>
<text text-anchor="middle" x="753.5" y="-250.77" font-family="Helvetica,sans-Serif" font-size="10.00"> mPi</text>
</g>
<!-- Node12 -->
<g id="node12" class="node">
<title>Node12</title>
<g id="a_node12"><a xlink:href="structprocess__priority__queue__info.html" target="_top" xlink:title=" ">
<polygon fill="white" stroke="black" points="325,-167.27 325,-186.27 462,-186.27 462,-167.27 325,-167.27"/>
<text text-anchor="middle" x="393.5" y="-174.27" font-family="Helvetica,sans-Serif" font-size="10.00">process_priority_queue_info</text>
</a>
</g>
</g>
<!-- Node12&#45;&gt;Node11 -->
<g id="edge13" class="edge">
<title>Node12&#45;&gt;Node11</title>
<path fill="none" stroke="#9a32cd" stroke-dasharray="5,2" d="M471.92,-187.48C491.09,-190.95 511.45,-195.35 530,-200.77 551.09,-206.93 574.17,-216.9 590,-224.27"/>
<polygon fill="#9a32cd" stroke="#9a32cd" points="472.47,-184.03 462.02,-185.75 471.27,-190.92 472.47,-184.03"/>
<text text-anchor="middle" x="505" y="-214.77" font-family="Helvetica,sans-Serif" font-size="10.00"> mInfoCurr</text>
<text text-anchor="middle" x="505" y="-203.77" font-family="Helvetica,sans-Serif" font-size="10.00">mInfoQ</text>
</g>
<!-- Node13&#45;&gt;Node10 -->
<g id="edge16" class="edge">
<title>Node13&#45;&gt;Node10</title>
<path fill="none" stroke="#9a32cd" stroke-dasharray="5,2" d="M539.8,-137.06C613.72,-161.77 788.65,-220.23 857.48,-243.24"/>
<polygon fill="#9a32cd" stroke="#9a32cd" points="540.65,-133.66 530.06,-133.81 538.43,-140.3 540.65,-133.66"/>
<text text-anchor="middle" x="610.5" y="-184.77" font-family="Helvetica,sans-Serif" font-size="10.00"> mLnTg</text>
</g>
<!-- Node14 -->
<g id="node14" class="node">
<title>Node14</title>
<g id="a_node14"><a xlink:href="structprocess__profile__definition.html" target="_top" xlink:title=" ">
<polygon fill="white" stroke="black" points="548,-314.27 548,-333.27 673,-333.27 673,-314.27 548,-314.27"/>
<text text-anchor="middle" x="610.5" y="-321.27" font-family="Helvetica,sans-Serif" font-size="10.00">process_profile_definition</text>
</a>
</g>
</g>
<!-- Node14&#45;&gt;Node10 -->
<g id="edge18" class="edge">
<title>Node14&#45;&gt;Node10</title>
<path fill="none" stroke="#9a32cd" stroke-dasharray="5,2" d="M683.39,-322.98C723.46,-320.59 773.68,-314.29 816,-298.77 838.94,-290.36 861.92,-273.17 875,-262.36"/>
<polygon fill="#9a32cd" stroke="#9a32cd" points="682.96,-319.5 673.16,-323.52 683.33,-326.49 682.96,-319.5"/>
<text text-anchor="middle" x="753.5" y="-324.77" font-family="Helvetica,sans-Serif" font-size="10.00"> mpProf</text>
</g>
<!-- Node15 -->
<g id="node15" class="node">
<title>Node15</title>
<g id="a_node15"><a xlink:href="structprocess__method__class.html" target="_top" xlink:title=" ">
<polygon fill="white" stroke="black" points="335,-314.27 335,-333.27 452,-333.27 452,-314.27 335,-314.27"/>
<text text-anchor="middle" x="393.5" y="-321.27" font-family="Helvetica,sans-Serif" font-size="10.00">process_method_class</text>
</a>
</g>
</g>
<!-- Node15&#45;&gt;Node10 -->
<g id="edge23" class="edge">
<title>Node15&#45;&gt;Node10</title>
<path fill="none" stroke="#9a32cd" stroke-dasharray="5,2" d="M448.39,-312.17C477.74,-306.12 514.76,-298.93 548,-293.77 666.48,-275.37 697.08,-278.14 816,-262.77 821.72,-262.03 827.7,-261.22 833.65,-260.4"/>
<polygon fill="#9a32cd" stroke="#9a32cd" points="447.42,-308.8 438.34,-314.26 448.84,-315.65 447.42,-308.8"/>
<text text-anchor="middle" x="610.5" y="-296.77" font-family="Helvetica,sans-Serif" font-size="10.00"> mpPcMtd</text>
</g>
<!-- Node15&#45;&gt;Node14 -->
<g id="edge19" class="edge">
<title>Node15&#45;&gt;Node14</title>
<path fill="none" stroke="#9a32cd" stroke-dasharray="5,2" d="M462.41,-323.77C489.82,-323.77 521.22,-323.77 547.96,-323.77"/>
<polygon fill="#9a32cd" stroke="#9a32cd" points="462.12,-320.27 452.12,-323.77 462.12,-327.27 462.12,-320.27"/>
<text text-anchor="middle" x="505" y="-326.77" font-family="Helvetica,sans-Serif" font-size="10.00"> mpPcMtd</text>
</g>
<!-- Node22 -->
<g id="node22" class="node">
<title>Node22</title>
<g id="a_node22"><a xlink:href="structnodedraw__method__class.html" target="_top" xlink:title=" ">
<polygon fill="white" stroke="black" points="691,-387.27 691,-406.27 816,-406.27 816,-387.27 691,-387.27"/>
<text text-anchor="middle" x="753.5" y="-394.27" font-family="Helvetica,sans-Serif" font-size="10.00">nodedraw_method_class</text>
</a>
</g>
</g>
<!-- Node15&#45;&gt;Node22 -->
<g id="edge38" class="edge">
<title>Node15&#45;&gt;Node22</title>
<path fill="none" stroke="#9a32cd" stroke-dasharray="5,2" d="M414.36,-339.6C430.89,-351.81 455.58,-367.9 480,-375.77 549.78,-398.25 634.58,-401.24 690.86,-400.08"/>
<polygon fill="#9a32cd" stroke="#9a32cd" points="416.15,-336.56 406.07,-333.29 411.91,-342.13 416.15,-336.56"/>
<text text-anchor="middle" x="505" y="-389.77" font-family="Helvetica,sans-Serif" font-size="10.00"> mBase</text>
</g>
<!-- Node16&#45;&gt;Node10 -->
<g id="edge20" class="edge">
<title>Node16&#45;&gt;Node10</title>
<path fill="none" stroke="#9a32cd" stroke-dasharray="5,2" d="M1529.61,-252.77C1388.56,-252.77 1066.46,-252.77 940.17,-252.77"/>
<polygon fill="#9a32cd" stroke="#9a32cd" points="1529.86,-256.27 1539.86,-252.77 1529.86,-249.27 1529.86,-256.27"/>
<text text-anchor="middle" x="1220" y="-255.77" font-family="Helvetica,sans-Serif" font-size="10.00"> mLyTg</text>
</g>
<!-- Node17&#45;&gt;Node10 -->
<g id="edge24" class="edge">
<title>Node17&#45;&gt;Node10</title>
<path fill="none" stroke="#9a32cd" stroke-dasharray="5,2" d="M1547.94,-122.03C1539.29,-122.94 1530.39,-123.89 1522,-124.77 1271.35,-151.16 1185.9,-76.14 958,-183.77 929.3,-197.32 905.35,-227.61 894.4,-243.15"/>
<polygon fill="#9a32cd" stroke="#9a32cd" points="1548.35,-125.51 1557.93,-120.97 1547.61,-118.54 1548.35,-125.51"/>
<text text-anchor="middle" x="1220" y="-127.77" font-family="Helvetica,sans-Serif" font-size="10.00"> mpCtRq</text>
</g>
<!-- Node18 -->
<g id="node18" class="node">
<title>Node18</title>
<g id="a_node18"><a xlink:href="structcreate__request__method__class.html" target="_top" xlink:title=" ">
<polygon fill="white" stroke="black" points="1280.5,-79.77 1280.5,-109.77 1399.5,-109.77 1399.5,-79.77 1280.5,-79.77"/>
<text text-anchor="start" x="1288.5" y="-97.77" font-family="Helvetica,sans-Serif" font-size="10.00">create_request_method</text>
<text text-anchor="middle" x="1340" y="-86.77" font-family="Helvetica,sans-Serif" font-size="10.00">_class</text>
</a>
</g>
</g>
<!-- Node18&#45;&gt;Node17 -->
<g id="edge25" class="edge">
<title>Node18&#45;&gt;Node17</title>
<path fill="none" stroke="#9a32cd" stroke-dasharray="5,2" d="M1409.72,-100.66C1457.15,-104.73 1518.53,-109.99 1557.96,-113.38"/>
<polygon fill="#9a32cd" stroke="#9a32cd" points="1409.79,-97.16 1399.52,-99.79 1409.19,-104.13 1409.79,-97.16"/>
<text text-anchor="middle" x="1473.5" y="-113.77" font-family="Helvetica,sans-Serif" font-size="10.00"> mpCtRqMtd</text>
</g>
<!-- Node19&#45;&gt;Node17 -->
<g id="edge29" class="edge">
<title>Node19&#45;&gt;Node17</title>
<path fill="none" stroke="#9a32cd" stroke-dasharray="5,2" d="M794.75,-17.16C842.85,-15.39 925.79,-12.77 997,-12.77 997,-12.77 997,-12.77 1341,-12.77 1422.15,-12.77 1449.76,0.21 1522,-36.77 1554.47,-53.39 1580.52,-89.74 1591.65,-107.13"/>
<polygon fill="#9a32cd" stroke="#9a32cd" points="794.6,-13.67 784.74,-17.54 794.86,-20.66 794.6,-13.67"/>
<text text-anchor="middle" x="1111.5" y="-15.77" font-family="Helvetica,sans-Serif" font-size="10.00"> mBase</text>
</g>
<!-- Node20&#45;&gt;Node10 -->
<g id="edge31" class="edge">
<title>Node20&#45;&gt;Node10</title>
<path fill="none" stroke="#9a32cd" stroke-dasharray="5,2" d="M1587.61,-373.43C1575.29,-352.66 1552.14,-319.76 1522,-304.77 1409.53,-248.81 1082.52,-283.34 958,-266.77 949.28,-265.61 940.01,-264.01 931.17,-262.32"/>
<polygon fill="#9a32cd" stroke="#9a32cd" points="1584.65,-375.3 1592.63,-382.26 1590.73,-371.84 1584.65,-375.3"/>
<text text-anchor="middle" x="1220" y="-274.77" font-family="Helvetica,sans-Serif" font-size="10.00"> mDtTg</text>
</g>
<!-- Node21&#45;&gt;Node8 -->
<g id="edge41" class="edge">
<title>Node21&#45;&gt;Node8</title>
<path fill="none" stroke="#9a32cd" stroke-dasharray="5,2" d="M939.29,-455.53C1027.05,-464.46 1201.73,-477.84 1255,-449.77 1267.11,-443.39 1262.94,-434.06 1273,-424.77 1286.68,-412.13 1304.96,-401.42 1318.82,-394.28"/>
<polygon fill="#9a32cd" stroke="#9a32cd" points="939.59,-452.05 929.28,-454.5 938.87,-459.01 939.59,-452.05"/>
<text text-anchor="middle" x="1111.5" y="-468.77" font-family="Helvetica,sans-Serif" font-size="10.00"> mCancelList</text>
</g>
<!-- Node21&#45;&gt;Node9 -->
<g id="edge35" class="edge">
<title>Node21&#45;&gt;Node9</title>
<path fill="none" stroke="#9a32cd" stroke-dasharray="5,2" d="M917.27,-435.89C929.8,-429.97 944.6,-423 958,-416.77 1004.75,-395.02 1059.76,-369.88 1089.25,-356.44"/>
<polygon fill="#9a32cd" stroke="#9a32cd" points="915.73,-432.74 908.19,-440.18 918.73,-439.07 915.73,-432.74"/>
<text text-anchor="middle" x="998" y="-419.77" font-family="Helvetica,sans-Serif" font-size="10.00"> mLayerNodeLists</text>
</g>
<!-- Node23 -->
<g id="node23" class="node">
<title>Node23</title>
<g id="a_node23"><a xlink:href="structnode__lists__tree__class.html" target="_top" xlink:title=" ">
<polygon fill="white" stroke="black" points="1056,-413.27 1056,-432.27 1167,-432.27 1167,-413.27 1056,-413.27"/>
<text text-anchor="middle" x="1111.5" y="-420.27" font-family="Helvetica,sans-Serif" font-size="10.00">node_lists_tree_class</text>
</a>
</g>
</g>
<!-- Node21&#45;&gt;Node23 -->
<g id="edge40" class="edge">
<title>Node21&#45;&gt;Node23</title>
<path fill="none" stroke="#9a32cd" stroke-dasharray="5,2" d="M939.05,-443.57C973.96,-439.34 1020.17,-433.73 1055.82,-429.4"/>
<polygon fill="#9a32cd" stroke="#9a32cd" points="938.57,-440.11 929.07,-444.78 939.42,-447.05 938.57,-440.11"/>
<text text-anchor="middle" x="998" y="-443.77" font-family="Helvetica,sans-Serif" font-size="10.00"> mpLists</text>
</g>
<!-- Node22&#45;&gt;Node9 -->
<g id="edge37" class="edge">
<title>Node22&#45;&gt;Node9</title>
<path fill="none" stroke="#9a32cd" stroke-dasharray="5,2" d="M826.41,-386.67C895.14,-377.02 997.07,-362.7 1058.32,-354.1"/>
<polygon fill="#9a32cd" stroke="#9a32cd" points="825.52,-383.26 816.1,-388.12 826.49,-390.19 825.52,-383.26"/>
<text text-anchor="middle" x="887" y="-387.77" font-family="Helvetica,sans-Serif" font-size="10.00"> mpNodeMtd</text>
</g>
<!-- Node23&#45;&gt;Node8 -->
<g id="edge39" class="edge">
<title>Node23&#45;&gt;Node8</title>
<path fill="none" stroke="#9a32cd" stroke-dasharray="5,2" d="M1172.34,-433.42C1198.11,-436.04 1228.38,-436.45 1255,-429.77 1282.28,-422.92 1310.37,-405.32 1326.17,-394.27"/>
<polygon fill="#9a32cd" stroke="#9a32cd" points="1172.67,-429.93 1162.33,-432.27 1171.87,-436.89 1172.67,-429.93"/>
<text text-anchor="middle" x="1220" y="-437.77" font-family="Helvetica,sans-Serif" font-size="10.00"> mNodeListTree</text>
</g>
<!-- Node24&#45;&gt;Node2 -->
<g id="edge43" class="edge">
<title>Node24&#45;&gt;Node2</title>
<path fill="none" stroke="#9a32cd" stroke-dasharray="5,2" d="M1382.96,-456.51C1420.89,-469.04 1477.45,-490.26 1522,-517.77 1548.66,-534.23 1575.16,-560.17 1588.54,-574.13"/>
<polygon fill="#9a32cd" stroke="#9a32cd" points="1383.85,-453.12 1373.26,-453.37 1381.69,-459.78 1383.85,-453.12"/>
<text text-anchor="middle" x="1473.5" y="-520.77" font-family="Helvetica,sans-Serif" font-size="10.00"> mNodeProc</text>
</g>
</g>
</svg>
