<?xml version="1.0" encoding="UTF-8" standalone="no"?>
<!DOCTYPE svg PUBLIC "-//W3C//DTD SVG 1.1//EN"
 "http://www.w3.org/Graphics/SVG/1.1/DTD/svg11.dtd">
<!-- Generated by graphviz version 2.44.0 ()
 -->
<!-- Title: daPy_demo_c Pages: 1 -->
<svg width="106pt" height="152pt"
 viewBox="0.00 0.00 106.00 152.00" xmlns="http://www.w3.org/2000/svg" xmlns:xlink="http://www.w3.org/1999/xlink">
<g id="graph0" class="graph" transform="scale(1 1) rotate(0) translate(4 148)">
<title>daPy_demo_c</title>
<polygon fill="white" stroke="transparent" points="-4,4 -4,-148 102,-148 102,4 -4,4"/>
<!-- Node1 -->
<g id="node1" class="node">
<title>Node1</title>
<g id="a_node1"><a xlink:title=" ">
<polygon fill="#bfbfbf" stroke="black" points="0,-0.5 0,-19.5 78,-19.5 78,-0.5 0,-0.5"/>
<text text-anchor="middle" x="39" y="-7.5" font-family="Helvetica,sans-Serif" font-size="10.00">daPy_demo_c</text>
</a>
</g>
</g>
<!-- Node2 -->
<g id="node2" class="node">
<title>Node2</title>
<g id="a_node2"><a xlink:href="classcXyz.html" target="_top" xlink:title=" ">
<polygon fill="white" stroke="black" points="20,-67.5 20,-86.5 58,-86.5 58,-67.5 20,-67.5"/>
<text text-anchor="middle" x="39" y="-74.5" font-family="Helvetica,sans-Serif" font-size="10.00">cXyz</text>
</a>
</g>
</g>
<!-- Node2&#45;&gt;Node1 -->
<g id="edge1" class="edge">
<title>Node2&#45;&gt;Node1</title>
<path fill="none" stroke="#9a32cd" stroke-dasharray="5,2" d="M39,-57.04C39,-44.67 39,-29.12 39,-19.63"/>
<polygon fill="#9a32cd" stroke="#9a32cd" points="35.5,-57.23 39,-67.23 42.5,-57.23 35.5,-57.23"/>
<text text-anchor="middle" x="68.5" y="-41" font-family="Helvetica,sans-Serif" font-size="10.00"> mDemoPos0</text>
</g>
<!-- Node3 -->
<g id="node3" class="node">
<title>Node3</title>
<g id="a_node3"><a xlink:href="structVec.html" target="_top" xlink:title=" ">
<polygon fill="white" stroke="black" points="22,-124.5 22,-143.5 56,-143.5 56,-124.5 22,-124.5"/>
<text text-anchor="middle" x="39" y="-131.5" font-family="Helvetica,sans-Serif" font-size="10.00">Vec</text>
</a>
</g>
</g>
<!-- Node3&#45;&gt;Node2 -->
<g id="edge2" class="edge">
<title>Node3&#45;&gt;Node2</title>
<path fill="none" stroke="midnightblue" d="M39,-114.12C39,-104.82 39,-94.06 39,-86.71"/>
<polygon fill="midnightblue" stroke="midnightblue" points="35.5,-114.41 39,-124.41 42.5,-114.41 35.5,-114.41"/>
</g>
</g>
</svg>
