<?xml version="1.0" encoding="UTF-8" standalone="no"?>
<!DOCTYPE svg PUBLIC "-//W3C//DTD SVG 1.1//EN"
 "http://www.w3.org/Graphics/SVG/1.1/DTD/svg11.dtd">
<!-- Generated by graphviz version 2.44.0 ()
 -->
<!-- Title: dBgS_WtrChk Pages: 1 -->
<svg width="365pt" height="296pt"
 viewBox="0.00 0.00 364.50 296.00" xmlns="http://www.w3.org/2000/svg" xmlns:xlink="http://www.w3.org/1999/xlink">
<g id="graph0" class="graph" transform="scale(1 1) rotate(0) translate(4 292)">
<title>dBgS_WtrChk</title>
<polygon fill="white" stroke="transparent" points="-4,4 -4,-292 360.5,-292 360.5,4 -4,4"/>
<!-- Node1 -->
<g id="node1" class="node">
<title>Node1</title>
<g id="a_node1"><a xlink:title=" ">
<polygon fill="#bfbfbf" stroke="black" points="171.5,-0.5 171.5,-19.5 249.5,-19.5 249.5,-0.5 171.5,-0.5"/>
<text text-anchor="middle" x="210.5" y="-7.5" font-family="Helvetica,sans-Serif" font-size="10.00">dBgS_WtrChk</text>
</a>
</g>
</g>
<!-- Node2 -->
<g id="node2" class="node">
<title>Node2</title>
<g id="a_node2"><a xlink:href="classdBgS__SplGrpChk.html" target="_top" xlink:title=" ">
<polygon fill="white" stroke="black" points="164,-67.5 164,-86.5 257,-86.5 257,-67.5 164,-67.5"/>
<text text-anchor="middle" x="210.5" y="-74.5" font-family="Helvetica,sans-Serif" font-size="10.00">dBgS_SplGrpChk</text>
</a>
</g>
</g>
<!-- Node2&#45;&gt;Node1 -->
<g id="edge1" class="edge">
<title>Node2&#45;&gt;Node1</title>
<path fill="none" stroke="#9a32cd" stroke-dasharray="5,2" d="M210.5,-57.04C210.5,-44.67 210.5,-29.12 210.5,-19.63"/>
<polygon fill="#9a32cd" stroke="#9a32cd" points="207,-57.23 210.5,-67.23 214,-57.23 207,-57.23"/>
<text text-anchor="middle" x="231" y="-41" font-family="Helvetica,sans-Serif" font-size="10.00"> mSplGrp</text>
</g>
<!-- Node3 -->
<g id="node3" class="node">
<title>Node3</title>
<g id="a_node3"><a xlink:href="classcBgS__Chk.html" target="_top" xlink:title=" ">
<polygon fill="white" stroke="black" points="0,-201.5 0,-220.5 63,-220.5 63,-201.5 0,-201.5"/>
<text text-anchor="middle" x="31.5" y="-208.5" font-family="Helvetica,sans-Serif" font-size="10.00">cBgS_Chk</text>
</a>
</g>
</g>
<!-- Node3&#45;&gt;Node2 -->
<g id="edge2" class="edge">
<title>Node3&#45;&gt;Node2</title>
<path fill="none" stroke="#9a32cd" stroke-dasharray="5,2" d="M36.35,-191.34C41.65,-174.32 51.71,-149.54 68.5,-134 95.73,-108.8 135.65,-94.42 166.23,-86.55"/>
<polygon fill="#9a32cd" stroke="#9a32cd" points="32.91,-190.65 33.53,-201.23 39.64,-192.57 32.91,-190.65"/>
<text text-anchor="middle" x="91.5" y="-141.5" font-family="Helvetica,sans-Serif" font-size="10.00"> field_0x10</text>
</g>
<!-- Node4 -->
<g id="node4" class="node">
<title>Node4</title>
<g id="a_node4"><a xlink:href="classcBgS__GrpPassChk.html" target="_top" xlink:title=" ">
<polygon fill="white" stroke="black" points="29,-268.5 29,-287.5 130,-287.5 130,-268.5 29,-268.5"/>
<text text-anchor="middle" x="79.5" y="-275.5" font-family="Helvetica,sans-Serif" font-size="10.00">cBgS_GrpPassChk</text>
</a>
</g>
</g>
<!-- Node4&#45;&gt;Node3 -->
<g id="edge3" class="edge">
<title>Node4&#45;&gt;Node3</title>
<path fill="none" stroke="#9a32cd" stroke-dasharray="5,2" d="M57.18,-262.19C52.89,-258.58 48.73,-254.47 45.5,-250 39.07,-241.11 35.28,-228.95 33.3,-220.8"/>
<polygon fill="#9a32cd" stroke="#9a32cd" points="55.32,-265.17 65.4,-268.44 59.56,-259.6 55.32,-265.17"/>
<text text-anchor="middle" x="79" y="-242" font-family="Helvetica,sans-Serif" font-size="10.00"> mGrpPassChk</text>
</g>
<!-- Node7 -->
<g id="node7" class="node">
<title>Node7</title>
<g id="a_node7"><a xlink:href="classdBgS__GrpPassChk.html" target="_top" xlink:title=" ">
<polygon fill="white" stroke="black" points="81,-201.5 81,-220.5 182,-220.5 182,-201.5 81,-201.5"/>
<text text-anchor="middle" x="131.5" y="-208.5" font-family="Helvetica,sans-Serif" font-size="10.00">dBgS_GrpPassChk</text>
</a>
</g>
</g>
<!-- Node4&#45;&gt;Node7 -->
<g id="edge7" class="edge">
<title>Node4&#45;&gt;Node7</title>
<path fill="none" stroke="midnightblue" d="M100.58,-262C104.84,-258.38 109.06,-254.3 112.5,-250 119.68,-241.01 125.17,-228.87 128.36,-220.75"/>
<polygon fill="midnightblue" stroke="midnightblue" points="98.21,-259.41 92.52,-268.35 102.54,-264.91 98.21,-259.41"/>
</g>
<!-- Node5 -->
<g id="node5" class="node">
<title>Node5</title>
<g id="a_node5"><a xlink:href="classcBgS__PolyPassChk.html" target="_top" xlink:title=" ">
<polygon fill="white" stroke="black" points="168.5,-268.5 168.5,-287.5 272.5,-287.5 272.5,-268.5 168.5,-268.5"/>
<text text-anchor="middle" x="220.5" y="-275.5" font-family="Helvetica,sans-Serif" font-size="10.00">cBgS_PolyPassChk</text>
</a>
</g>
</g>
<!-- Node5&#45;&gt;Node3 -->
<g id="edge4" class="edge">
<title>Node5&#45;&gt;Node3</title>
<path fill="none" stroke="#9a32cd" stroke-dasharray="5,2" d="M188.4,-264.87C167.9,-257.22 140.73,-247.27 116.5,-239 97.6,-232.55 76.16,-225.74 59.55,-220.58"/>
<polygon fill="#9a32cd" stroke="#9a32cd" points="187.28,-268.19 197.88,-268.42 189.74,-261.63 187.28,-268.19"/>
<text text-anchor="middle" x="180.5" y="-242" font-family="Helvetica,sans-Serif" font-size="10.00"> mPolyPassChk</text>
</g>
<!-- Node8 -->
<g id="node8" class="node">
<title>Node8</title>
<g id="a_node8"><a xlink:href="classdBgS__PolyPassChk.html" target="_top" xlink:title=" ">
<polygon fill="white" stroke="black" points="200.5,-201.5 200.5,-220.5 304.5,-220.5 304.5,-201.5 200.5,-201.5"/>
<text text-anchor="middle" x="252.5" y="-208.5" font-family="Helvetica,sans-Serif" font-size="10.00">dBgS_PolyPassChk</text>
</a>
</g>
</g>
<!-- Node5&#45;&gt;Node8 -->
<g id="edge9" class="edge">
<title>Node5&#45;&gt;Node8</title>
<path fill="none" stroke="midnightblue" d="M231.35,-259.47C233.15,-256.36 234.93,-253.11 236.5,-250 241.46,-240.16 246.24,-228.4 249.27,-220.6"/>
<polygon fill="midnightblue" stroke="midnightblue" points="228.28,-257.79 226.15,-268.17 234.29,-261.39 228.28,-257.79"/>
</g>
<!-- Node6 -->
<g id="node6" class="node">
<title>Node6</title>
<g id="a_node6"><a xlink:href="classdBgS__Chk.html" target="_top" xlink:title=" ">
<polygon fill="white" stroke="black" points="124,-134.5 124,-153.5 187,-153.5 187,-134.5 124,-134.5"/>
<text text-anchor="middle" x="155.5" y="-141.5" font-family="Helvetica,sans-Serif" font-size="10.00">dBgS_Chk</text>
</a>
</g>
</g>
<!-- Node6&#45;&gt;Node2 -->
<g id="edge5" class="edge">
<title>Node6&#45;&gt;Node2</title>
<path fill="none" stroke="#9a32cd" stroke-dasharray="5,2" d="M163.48,-125.2C166.95,-118.49 171.4,-111.03 176.5,-105 182.44,-97.98 190.44,-91.52 197.19,-86.68"/>
<polygon fill="#9a32cd" stroke="#9a32cd" points="160.31,-123.72 159.13,-134.24 166.62,-126.75 160.31,-123.72"/>
<text text-anchor="middle" x="199.5" y="-108" font-family="Helvetica,sans-Serif" font-size="10.00"> field_0x24</text>
</g>
<!-- Node7&#45;&gt;Node6 -->
<g id="edge6" class="edge">
<title>Node7&#45;&gt;Node6</title>
<path fill="none" stroke="#9a32cd" stroke-dasharray="5,2" d="M130.19,-191.01C130.36,-184.78 131.21,-177.93 133.5,-172 136.2,-165 141.44,-158.45 146.14,-153.55"/>
<polygon fill="#9a32cd" stroke="#9a32cd" points="126.7,-191.32 130.46,-201.23 133.7,-191.14 126.7,-191.32"/>
<text text-anchor="middle" x="175" y="-175" font-family="Helvetica,sans-Serif" font-size="10.00"> mGrpPassChkInfo</text>
</g>
<!-- Node8&#45;&gt;Node6 -->
<g id="edge8" class="edge">
<title>Node8&#45;&gt;Node6</title>
<path fill="none" stroke="#9a32cd" stroke-dasharray="5,2" d="M239.3,-193.33C232.97,-186.1 224.93,-177.95 216.5,-172 205.62,-164.32 192.2,-158.09 180.73,-153.56"/>
<polygon fill="#9a32cd" stroke="#9a32cd" points="236.77,-195.76 245.87,-201.2 242.15,-191.28 236.77,-195.76"/>
<text text-anchor="middle" x="272.5" y="-175" font-family="Helvetica,sans-Serif" font-size="10.00"> mPolyPassChkInfo</text>
</g>
<!-- Node9 -->
<g id="node9" class="node">
<title>Node9</title>
<g id="a_node9"><a xlink:href="classcBgS__PolyInfo.html" target="_top" xlink:title=" ">
<polygon fill="white" stroke="black" points="205,-134.5 205,-153.5 286,-153.5 286,-134.5 205,-134.5"/>
<text text-anchor="middle" x="245.5" y="-141.5" font-family="Helvetica,sans-Serif" font-size="10.00">cBgS_PolyInfo</text>
</a>
</g>
</g>
<!-- Node9&#45;&gt;Node2 -->
<g id="edge10" class="edge">
<title>Node9&#45;&gt;Node2</title>
<path fill="none" stroke="#9a32cd" stroke-dasharray="5,2" d="M235.9,-125.16C229.15,-112.63 220.41,-96.41 215.15,-86.63"/>
<polygon fill="#9a32cd" stroke="#9a32cd" points="232.96,-127.09 240.78,-134.23 239.12,-123.77 232.96,-127.09"/>
<text text-anchor="middle" x="253.5" y="-108" font-family="Helvetica,sans-Serif" font-size="10.00"> field_0x00</text>
</g>
<!-- Node10 -->
<g id="node10" class="node">
<title>Node10</title>
<g id="a_node10"><a xlink:href="classcXyz.html" target="_top" xlink:title=" ">
<polygon fill="white" stroke="black" points="315.5,-134.5 315.5,-153.5 353.5,-153.5 353.5,-134.5 315.5,-134.5"/>
<text text-anchor="middle" x="334.5" y="-141.5" font-family="Helvetica,sans-Serif" font-size="10.00">cXyz</text>
</a>
</g>
</g>
<!-- Node10&#45;&gt;Node2 -->
<g id="edge11" class="edge">
<title>Node10&#45;&gt;Node2</title>
<path fill="none" stroke="#9a32cd" stroke-dasharray="5,2" d="M315.79,-128.12C305.72,-120.56 292.86,-111.6 280.5,-105 266.71,-97.63 250.47,-91.24 237.1,-86.53"/>
<polygon fill="#9a32cd" stroke="#9a32cd" points="313.78,-130.99 323.84,-134.31 318.05,-125.44 313.78,-130.99"/>
<text text-anchor="middle" x="321.5" y="-108" font-family="Helvetica,sans-Serif" font-size="10.00"> m_ground</text>
</g>
<!-- Node11 -->
<g id="node11" class="node">
<title>Node11</title>
<g id="a_node11"><a xlink:href="structVec.html" target="_top" xlink:title=" ">
<polygon fill="white" stroke="black" points="322.5,-201.5 322.5,-220.5 356.5,-220.5 356.5,-201.5 322.5,-201.5"/>
<text text-anchor="middle" x="339.5" y="-208.5" font-family="Helvetica,sans-Serif" font-size="10.00">Vec</text>
</a>
</g>
</g>
<!-- Node11&#45;&gt;Node10 -->
<g id="edge12" class="edge">
<title>Node11&#45;&gt;Node10</title>
<path fill="none" stroke="midnightblue" d="M338.04,-191.04C337.09,-178.67 335.89,-163.12 335.16,-153.63"/>
<polygon fill="midnightblue" stroke="midnightblue" points="334.57,-191.53 338.83,-201.23 341.55,-190.99 334.57,-191.53"/>
</g>
</g>
</svg>
