<?xml version="1.0" encoding="UTF-8" standalone="no"?>
<!DOCTYPE svg PUBLIC "-//W3C//DTD SVG 1.1//EN"
 "http://www.w3.org/Graphics/SVG/1.1/DTD/svg11.dtd">
<!-- Generated by graphviz version 2.44.0 ()
 -->
<!-- Title: overlap_request_class Pages: 1 -->
<svg width="1380pt" height="587pt"
 viewBox="0.00 0.00 1380.00 587.00" xmlns="http://www.w3.org/2000/svg" xmlns:xlink="http://www.w3.org/1999/xlink">
<g id="graph0" class="graph" transform="scale(1 1) rotate(0) translate(4 583)">
<title>overlap_request_class</title>
<polygon fill="white" stroke="transparent" points="-4,4 -4,-583 1376,-583 1376,4 -4,4"/>
<!-- Node1 -->
<g id="node1" class="node">
<title>Node1</title>
<g id="a_node1"><a xlink:title=" ">
<polygon fill="#bfbfbf" stroke="black" points="775.5,-37.5 775.5,-56.5 889.5,-56.5 889.5,-37.5 775.5,-37.5"/>
<text text-anchor="middle" x="832.5" y="-44.5" font-family="Helvetica,sans-Serif" font-size="10.00">overlap_request_class</text>
</a>
</g>
</g>
<!-- Node2 -->
<g id="node2" class="node">
<title>Node2</title>
<g id="a_node2"><a xlink:href="structrequest__of__phase__process__class.html" target="_top" xlink:title=" ">
<polygon fill="white" stroke="black" points="518.5,-29 518.5,-59 652.5,-59 652.5,-29 518.5,-29"/>
<text text-anchor="start" x="526.5" y="-47" font-family="Helvetica,sans-Serif" font-size="10.00">request_of_phase_process</text>
<text text-anchor="middle" x="585.5" y="-36" font-family="Helvetica,sans-Serif" font-size="10.00">_class</text>
</a>
</g>
</g>
<!-- Node2&#45;&gt;Node1 -->
<g id="edge1" class="edge">
<title>Node2&#45;&gt;Node1</title>
<path fill="none" stroke="#9a32cd" stroke-dasharray="5,2" d="M662.71,-39.99C690.79,-39.08 722.85,-38.72 752,-40 759.47,-40.33 767.33,-40.83 775.08,-41.42"/>
<polygon fill="#9a32cd" stroke="#9a32cd" points="662.43,-36.5 652.56,-40.35 662.67,-43.49 662.43,-36.5"/>
<text text-anchor="middle" x="712" y="-43" font-family="Helvetica,sans-Serif" font-size="10.00"> field_0x18</text>
</g>
<!-- Node3 -->
<g id="node3" class="node">
<title>Node3</title>
<g id="a_node3"><a xlink:href="structlayer__class.html" target="_top" xlink:title=" ">
<polygon fill="white" stroke="black" points="553,-132.5 553,-151.5 618,-151.5 618,-132.5 553,-132.5"/>
<text text-anchor="middle" x="585.5" y="-139.5" font-family="Helvetica,sans-Serif" font-size="10.00">layer_class</text>
</a>
</g>
</g>
<!-- Node3&#45;&gt;Node1 -->
<g id="edge2" class="edge">
<title>Node3&#45;&gt;Node1</title>
<path fill="none" stroke="#9a32cd" stroke-dasharray="5,2" d="M602.87,-124.71C618.92,-108.87 644.86,-86.11 672,-74 704.44,-59.52 743.77,-52.76 775.25,-49.62"/>
<polygon fill="#9a32cd" stroke="#9a32cd" points="599.95,-122.68 595.42,-132.26 604.93,-127.6 599.95,-122.68"/>
<text text-anchor="middle" x="712" y="-77" font-family="Helvetica,sans-Serif" font-size="10.00"> pCurrentLayer</text>
</g>
<!-- Node4 -->
<g id="node4" class="node">
<title>Node4</title>
<g id="a_node4"><a xlink:href="structprocess__node__class.html" target="_top" xlink:title=" ">
<polygon fill="white" stroke="black" points="1266,-120.5 1266,-139.5 1372,-139.5 1372,-120.5 1266,-120.5"/>
<text text-anchor="middle" x="1319" y="-127.5" font-family="Helvetica,sans-Serif" font-size="10.00">process_node_class</text>
</a>
</g>
</g>
<!-- Node3&#45;&gt;Node4 -->
<g id="edge30" class="edge">
<title>Node3&#45;&gt;Node4</title>
<path fill="none" stroke="#9a32cd" stroke-dasharray="5,2" d="M628.41,-139.03C642.28,-138.05 657.8,-136.97 672,-136 779.1,-128.69 805.71,-123.56 913,-120 968.53,-118.16 982.45,-119.01 1038,-120 1117.52,-121.42 1209.68,-125.1 1265.89,-127.58"/>
<polygon fill="#9a32cd" stroke="#9a32cd" points="627.9,-135.55 618.17,-139.75 628.39,-142.54 627.9,-135.55"/>
<text text-anchor="middle" x="975.5" y="-123" font-family="Helvetica,sans-Serif" font-size="10.00"> mLayer</text>
</g>
<!-- Node14 -->
<g id="node14" class="node">
<title>Node14</title>
<g id="a_node14"><a xlink:href="structlayer__management__tag__class.html" target="_top" xlink:title=" ">
<polygon fill="white" stroke="black" points="774,-197 774,-227 891,-227 891,-197 774,-197"/>
<text text-anchor="start" x="782" y="-215" font-family="Helvetica,sans-Serif" font-size="10.00">layer_management_tag</text>
<text text-anchor="middle" x="832.5" y="-204" font-family="Helvetica,sans-Serif" font-size="10.00">_class</text>
</a>
</g>
</g>
<!-- Node3&#45;&gt;Node14 -->
<g id="edge18" class="edge">
<title>Node3&#45;&gt;Node14</title>
<path fill="none" stroke="#9a32cd" stroke-dasharray="5,2" d="M624.31,-154.91C639.12,-159.83 656.3,-165.37 672,-170 705.51,-179.89 743.3,-189.89 773.69,-197.65"/>
<polygon fill="#9a32cd" stroke="#9a32cd" points="625.07,-151.48 614.48,-151.63 622.85,-158.12 625.07,-151.48"/>
<text text-anchor="middle" x="712" y="-195" font-family="Helvetica,sans-Serif" font-size="10.00"> mpLayer</text>
</g>
<!-- Node15 -->
<g id="node15" class="node">
<title>Node15</title>
<g id="a_node15"><a xlink:href="structcreate__request.html" target="_top" xlink:title=" ">
<polygon fill="white" stroke="black" points="1278.5,-445.5 1278.5,-464.5 1359.5,-464.5 1359.5,-445.5 1278.5,-445.5"/>
<text text-anchor="middle" x="1319" y="-452.5" font-family="Helvetica,sans-Serif" font-size="10.00">create_request</text>
</a>
</g>
</g>
<!-- Node3&#45;&gt;Node15 -->
<g id="edge24" class="edge">
<title>Node3&#45;&gt;Node15</title>
<path fill="none" stroke="#9a32cd" stroke-dasharray="5,2" d="M628.36,-144.51C738.69,-151.2 1029.54,-169.33 1038,-175 1052.86,-184.95 1045.17,-196.76 1056,-211 1125.56,-302.4 1164.98,-304.62 1248,-384 1270.27,-405.29 1295.41,-431.3 1308.67,-445.17"/>
<polygon fill="#9a32cd" stroke="#9a32cd" points="628.46,-141.01 618.27,-143.9 628.04,-148 628.46,-141.01"/>
<text text-anchor="middle" x="975.5" y="-178" font-family="Helvetica,sans-Serif" font-size="10.00"> mpLayer</text>
</g>
<!-- Node18 -->
<g id="node18" class="node">
<title>Node18</title>
<g id="a_node18"><a xlink:href="structdelete__tag__class.html" target="_top" xlink:title=" ">
<polygon fill="white" stroke="black" points="787.5,-369.5 787.5,-388.5 877.5,-388.5 877.5,-369.5 787.5,-369.5"/>
<text text-anchor="middle" x="832.5" y="-376.5" font-family="Helvetica,sans-Serif" font-size="10.00">delete_tag_class</text>
</a>
</g>
</g>
<!-- Node3&#45;&gt;Node18 -->
<g id="edge29" class="edge">
<title>Node3&#45;&gt;Node18</title>
<path fill="none" stroke="#9a32cd" stroke-dasharray="5,2" d="M612.42,-157.29C626.53,-166.81 643.25,-180.24 654,-196 669.21,-218.3 652.72,-235.12 672,-254 698.43,-279.88 726.72,-249.99 752,-277 777.79,-304.56 744.48,-332.19 770,-360 774.76,-365.19 780.9,-368.97 787.46,-371.73"/>
<polygon fill="#9a32cd" stroke="#9a32cd" points="613.91,-154.09 603.61,-151.61 610.12,-159.97 613.91,-154.09"/>
<text text-anchor="middle" x="712" y="-280" font-family="Helvetica,sans-Serif" font-size="10.00"> mpLayer</text>
</g>
<!-- Node4&#45;&gt;Node3 -->
<g id="edge3" class="edge">
<title>Node4&#45;&gt;Node3</title>
<path fill="none" stroke="#9a32cd" stroke-dasharray="5,2" d="M1255.36,-131.03C1105.45,-133.49 730.18,-139.64 618.4,-141.48"/>
<polygon fill="#9a32cd" stroke="#9a32cd" points="1255.82,-134.52 1265.76,-130.86 1255.7,-127.52 1255.82,-134.52"/>
<text text-anchor="middle" x="975.5" y="-140" font-family="Helvetica,sans-Serif" font-size="10.00"> mpPcNode</text>
</g>
<!-- Node5 -->
<g id="node5" class="node">
<title>Node5</title>
<g id="a_node5"><a xlink:href="structbase__process__class.html" target="_top" xlink:title=" ">
<polygon fill="white" stroke="black" points="1062.5,-369.5 1062.5,-388.5 1168.5,-388.5 1168.5,-369.5 1062.5,-369.5"/>
<text text-anchor="middle" x="1115.5" y="-376.5" font-family="Helvetica,sans-Serif" font-size="10.00">base_process_class</text>
</a>
</g>
</g>
<!-- Node5&#45;&gt;Node4 -->
<g id="edge4" class="edge">
<title>Node5&#45;&gt;Node4</title>
<path fill="none" stroke="#9a32cd" stroke-dasharray="5,2" d="M1130.7,-361.45C1170.1,-312.77 1279.84,-177.15 1310.16,-139.69"/>
<polygon fill="#9a32cd" stroke="#9a32cd" points="1127.97,-359.26 1124.4,-369.24 1133.41,-363.67 1127.97,-359.26"/>
<text text-anchor="middle" x="1220.5" y="-287" font-family="Helvetica,sans-Serif" font-size="10.00"> mBase</text>
</g>
<!-- Node5&#45;&gt;Node15 -->
<g id="edge22" class="edge">
<title>Node5&#45;&gt;Node15</title>
<path fill="none" stroke="#9a32cd" stroke-dasharray="5,2" d="M1143.31,-393.17C1157.79,-400.52 1176.12,-409.33 1193,-416 1222.6,-427.7 1257.21,-438.27 1282.49,-445.44"/>
<polygon fill="#9a32cd" stroke="#9a32cd" points="1144.89,-390.05 1134.4,-388.59 1141.69,-396.28 1144.89,-390.05"/>
<text text-anchor="middle" x="1220.5" y="-437" font-family="Helvetica,sans-Serif" font-size="10.00"> mpRes</text>
</g>
<!-- Node6 -->
<g id="node6" class="node">
<title>Node6</title>
<g id="a_node6"><a xlink:href="structprocess__priority__class.html" target="_top" xlink:title=" ">
<polygon fill="white" stroke="black" points="776,-454.5 776,-473.5 889,-473.5 889,-454.5 776,-454.5"/>
<text text-anchor="middle" x="832.5" y="-461.5" font-family="Helvetica,sans-Serif" font-size="10.00">process_priority_class</text>
</a>
</g>
</g>
<!-- Node6&#45;&gt;Node5 -->
<g id="edge5" class="edge">
<title>Node6&#45;&gt;Node5</title>
<path fill="none" stroke="#9a32cd" stroke-dasharray="5,2" d="M899.57,-464.85C940.78,-463.25 994.14,-457.2 1038,-439 1066.06,-427.35 1092.48,-402.42 1105.7,-388.65"/>
<polygon fill="#9a32cd" stroke="#9a32cd" points="899.25,-461.36 889.36,-465.17 899.47,-468.36 899.25,-461.36"/>
<text text-anchor="middle" x="975.5" y="-467" font-family="Helvetica,sans-Serif" font-size="10.00"> mPi</text>
</g>
<!-- Node7 -->
<g id="node7" class="node">
<title>Node7</title>
<g id="a_node7"><a xlink:href="structprocess__priority__queue__info.html" target="_top" xlink:title=" ">
<polygon fill="white" stroke="black" points="517,-453.5 517,-472.5 654,-472.5 654,-453.5 517,-453.5"/>
<text text-anchor="middle" x="585.5" y="-460.5" font-family="Helvetica,sans-Serif" font-size="10.00">process_priority_queue_info</text>
</a>
</g>
</g>
<!-- Node7&#45;&gt;Node6 -->
<g id="edge6" class="edge">
<title>Node7&#45;&gt;Node6</title>
<path fill="none" stroke="#9a32cd" stroke-dasharray="5,2" d="M664.29,-460.15C666.89,-460.1 669.47,-460.04 672,-460 707.55,-459.38 716.46,-459.11 752,-460 759.74,-460.19 767.89,-460.5 775.91,-460.85"/>
<polygon fill="#9a32cd" stroke="#9a32cd" points="664.08,-456.66 654.17,-460.41 664.25,-463.66 664.08,-456.66"/>
<text text-anchor="middle" x="712" y="-474" font-family="Helvetica,sans-Serif" font-size="10.00"> mInfoCurr</text>
<text text-anchor="middle" x="712" y="-463" font-family="Helvetica,sans-Serif" font-size="10.00">mInfoQ</text>
</g>
<!-- Node8 -->
<g id="node8" class="node">
<title>Node8</title>
<g id="a_node8"><a xlink:href="structcreate__tag__class.html" target="_top" xlink:title=" ">
<polygon fill="white" stroke="black" points="310,-366.5 310,-385.5 401,-385.5 401,-366.5 310,-366.5"/>
<text text-anchor="middle" x="355.5" y="-373.5" font-family="Helvetica,sans-Serif" font-size="10.00">create_tag_class</text>
</a>
</g>
</g>
<!-- Node8&#45;&gt;Node6 -->
<g id="edge7" class="edge">
<title>Node8&#45;&gt;Node6</title>
<path fill="none" stroke="#9a32cd" stroke-dasharray="5,2" d="M411.32,-386.64C417.29,-387.78 423.27,-388.92 429,-390 554.33,-413.62 701.79,-440.5 778.73,-454.45"/>
<polygon fill="#9a32cd" stroke="#9a32cd" points="411.83,-383.17 401.35,-384.73 410.51,-390.05 411.83,-383.17"/>
<text text-anchor="middle" x="585.5" y="-434" font-family="Helvetica,sans-Serif" font-size="10.00"> mBase</text>
</g>
<!-- Node10 -->
<g id="node10" class="node">
<title>Node10</title>
<g id="a_node10"><a xlink:href="structprocess__method__tag__class.html" target="_top" xlink:title=" ">
<polygon fill="white" stroke="black" points="532,-492 532,-522 639,-522 639,-492 532,-492"/>
<text text-anchor="start" x="540" y="-510" font-family="Helvetica,sans-Serif" font-size="10.00">process_method_tag</text>
<text text-anchor="middle" x="585.5" y="-499" font-family="Helvetica,sans-Serif" font-size="10.00">_class</text>
</a>
</g>
</g>
<!-- Node8&#45;&gt;Node10 -->
<g id="edge11" class="edge">
<title>Node8&#45;&gt;Node10</title>
<path fill="none" stroke="#9a32cd" stroke-dasharray="5,2" d="M373.67,-392.8C387.78,-406.07 408.69,-424.53 429,-438 465.44,-462.17 476.88,-464.6 517,-482 524.91,-485.43 533.46,-488.83 541.73,-491.96"/>
<polygon fill="#9a32cd" stroke="#9a32cd" points="375.85,-390.04 366.2,-385.66 371.01,-395.1 375.85,-390.04"/>
<text text-anchor="middle" x="464" y="-476" font-family="Helvetica,sans-Serif" font-size="10.00"> mCreateTag</text>
</g>
<!-- Node11 -->
<g id="node11" class="node">
<title>Node11</title>
<g id="a_node11"><a xlink:href="structline__tag.html" target="_top" xlink:title=" ">
<polygon fill="white" stroke="black" points="687,-233.5 687,-252.5 737,-252.5 737,-233.5 687,-233.5"/>
<text text-anchor="middle" x="712" y="-240.5" font-family="Helvetica,sans-Serif" font-size="10.00">line_tag</text>
</a>
</g>
</g>
<!-- Node8&#45;&gt;Node11 -->
<g id="edge13" class="edge">
<title>Node8&#45;&gt;Node11</title>
<path fill="none" stroke="#9a32cd" stroke-dasharray="5,2" d="M388.6,-362.47C420.88,-349 472.14,-327.93 517,-311 577.77,-288.06 650.19,-263.37 686.97,-251.01"/>
<polygon fill="#9a32cd" stroke="#9a32cd" points="387.1,-359.31 379.22,-366.4 389.8,-365.77 387.1,-359.31"/>
<text text-anchor="middle" x="464" y="-348" font-family="Helvetica,sans-Serif" font-size="10.00"> mBase</text>
</g>
<!-- Node8&#45;&gt;Node14 -->
<g id="edge17" class="edge">
<title>Node8&#45;&gt;Node14</title>
<path fill="none" stroke="#9a32cd" stroke-dasharray="5,2" d="M371.46,-358.58C397.6,-329.53 454.77,-271.91 517,-247 601.79,-213.06 709.09,-208.44 773.9,-209.37"/>
<polygon fill="#9a32cd" stroke="#9a32cd" points="368.65,-356.48 364.65,-366.29 373.9,-361.11 368.65,-356.48"/>
<text text-anchor="middle" x="585.5" y="-250" font-family="Helvetica,sans-Serif" font-size="10.00"> mCreateTag</text>
</g>
<!-- Node17 -->
<g id="node17" class="node">
<title>Node17</title>
<g id="a_node17"><a xlink:href="structcreate__tag.html" target="_top" xlink:title=" ">
<polygon fill="white" stroke="black" points="681,-551.5 681,-570.5 743,-570.5 743,-551.5 681,-551.5"/>
<text text-anchor="middle" x="712" y="-558.5" font-family="Helvetica,sans-Serif" font-size="10.00">create_tag</text>
</a>
</g>
</g>
<!-- Node8&#45;&gt;Node17 -->
<g id="edge26" class="edge">
<title>Node8&#45;&gt;Node17</title>
<path fill="none" stroke="#9a32cd" stroke-dasharray="5,2" d="M364.78,-394.79C376.23,-418.98 398.94,-461.1 429,-488 501.55,-552.92 624.44,-561.48 680.95,-561.74"/>
<polygon fill="#9a32cd" stroke="#9a32cd" points="367.92,-393.24 360.57,-385.61 361.56,-396.16 367.92,-393.24"/>
<text text-anchor="middle" x="464" y="-531" font-family="Helvetica,sans-Serif" font-size="10.00"> mBase</text>
</g>
<!-- Node8&#45;&gt;Node18 -->
<g id="edge28" class="edge">
<title>Node8&#45;&gt;Node18</title>
<path fill="none" stroke="#9a32cd" stroke-dasharray="5,2" d="M411.46,-376.35C506.61,-376.95 700.17,-378.17 787.28,-378.72"/>
<polygon fill="#9a32cd" stroke="#9a32cd" points="411.21,-372.85 401.19,-376.28 411.16,-379.85 411.21,-372.85"/>
<text text-anchor="middle" x="585.5" y="-380" font-family="Helvetica,sans-Serif" font-size="10.00"> mBase</text>
</g>
<!-- Node9 -->
<g id="node9" class="node">
<title>Node9</title>
<g id="a_node9"><a xlink:href="structnode__class.html" target="_top" xlink:title=" ">
<polygon fill="white" stroke="black" points="0,-170.5 0,-189.5 66,-189.5 66,-170.5 0,-170.5"/>
<text text-anchor="middle" x="33" y="-177.5" font-family="Helvetica,sans-Serif" font-size="10.00">node_class</text>
</a>
</g>
</g>
<!-- Node9&#45;&gt;Node3 -->
<g id="edge38" class="edge">
<title>Node9&#45;&gt;Node3</title>
<path fill="none" stroke="#9a32cd" stroke-dasharray="5,2" d="M76.41,-179.66C158.33,-178.62 343.94,-174.37 499,-157 516.97,-154.99 536.88,-151.57 552.96,-148.5"/>
<polygon fill="#9a32cd" stroke="#9a32cd" points="76.2,-176.16 66.24,-179.78 76.28,-183.16 76.2,-176.16"/>
<text text-anchor="middle" x="263" y="-179" font-family="Helvetica,sans-Serif" font-size="10.00"> mNode</text>
</g>
<!-- Node9&#45;&gt;Node8 -->
<g id="edge8" class="edge">
<title>Node9&#45;&gt;Node8</title>
<path fill="none" stroke="#9a32cd" stroke-dasharray="5,2" d="M58.77,-195.15C121.87,-233.74 287.28,-334.89 338.89,-366.45"/>
<polygon fill="#9a32cd" stroke="#9a32cd" points="60.25,-191.95 49.89,-189.72 56.6,-197.92 60.25,-191.95"/>
<text text-anchor="middle" x="184" y="-297" font-family="Helvetica,sans-Serif" font-size="10.00"> mpNode</text>
</g>
<!-- Node9&#45;&gt;Node9 -->
<g id="edge9" class="edge">
<title>Node9&#45;&gt;Node9</title>
<path fill="none" stroke="#9a32cd" stroke-dasharray="5,2" d="M20.11,-199.77C21.12,-204.5 25.42,-208 33,-208 45.44,-208 49.04,-198.57 43.79,-189.76"/>
<polygon fill="#9a32cd" stroke="#9a32cd" points="23.58,-200.26 22.21,-189.76 16.73,-198.82 23.58,-200.26"/>
<text text-anchor="middle" x="33" y="-222" font-family="Helvetica,sans-Serif" font-size="10.00"> mpNextNode</text>
<text text-anchor="middle" x="33" y="-211" font-family="Helvetica,sans-Serif" font-size="10.00">mpPrevNode</text>
</g>
<!-- Node19 -->
<g id="node19" class="node">
<title>Node19</title>
<g id="a_node19"><a xlink:href="structnode__list__class.html" target="_top" xlink:title=" ">
<polygon fill="white" stroke="black" points="142,-111.5 142,-130.5 226,-130.5 226,-111.5 142,-111.5"/>
<text text-anchor="middle" x="184" y="-118.5" font-family="Helvetica,sans-Serif" font-size="10.00">node_list_class</text>
</a>
</g>
</g>
<!-- Node9&#45;&gt;Node19 -->
<g id="edge32" class="edge">
<title>Node9&#45;&gt;Node19</title>
<path fill="none" stroke="#9a32cd" stroke-dasharray="5,2" d="M52.56,-163.93C61.54,-156.89 72.78,-149.09 84,-144 102.16,-135.76 123.57,-130.31 141.83,-126.8"/>
<polygon fill="#9a32cd" stroke="#9a32cd" points="50.25,-161.29 44.72,-170.33 54.68,-166.72 50.25,-161.29"/>
<text text-anchor="middle" x="104" y="-158" font-family="Helvetica,sans-Serif" font-size="10.00"> mpHead</text>
<text text-anchor="middle" x="104" y="-147" font-family="Helvetica,sans-Serif" font-size="10.00">mpTail</text>
</g>
<!-- Node10&#45;&gt;Node6 -->
<g id="edge10" class="edge">
<title>Node10&#45;&gt;Node6</title>
<path fill="none" stroke="#9a32cd" stroke-dasharray="5,2" d="M649.44,-498.59C680.42,-494.17 718.26,-488.36 752,-482 765.07,-479.54 779.26,-476.45 791.99,-473.54"/>
<polygon fill="#9a32cd" stroke="#9a32cd" points="648.63,-495.17 639.21,-500.03 649.6,-502.1 648.63,-495.17"/>
<text text-anchor="middle" x="712" y="-497" font-family="Helvetica,sans-Serif" font-size="10.00"> mMtdTag</text>
</g>
<!-- Node10&#45;&gt;Node15 -->
<g id="edge23" class="edge">
<title>Node10&#45;&gt;Node15</title>
<path fill="none" stroke="#9a32cd" stroke-dasharray="5,2" d="M649.29,-509.52C680.23,-510.31 718.09,-510.61 752,-509 950.18,-499.57 1186.08,-471.66 1278.29,-460.1"/>
<polygon fill="#9a32cd" stroke="#9a32cd" points="649.17,-506.01 639.08,-509.23 648.97,-513.01 649.17,-506.01"/>
<text text-anchor="middle" x="975.5" y="-501" font-family="Helvetica,sans-Serif" font-size="10.00"> mMtdTg</text>
</g>
<!-- Node11&#45;&gt;Node5 -->
<g id="edge12" class="edge">
<title>Node11&#45;&gt;Node5</title>
<path fill="none" stroke="#9a32cd" stroke-dasharray="5,2" d="M747.01,-252.02C806.7,-268.2 933.87,-304.19 1038,-344 1057.92,-351.62 1080,-361.93 1095.3,-369.39"/>
<polygon fill="#9a32cd" stroke="#9a32cd" points="747.57,-248.55 737.01,-249.33 745.75,-255.31 747.57,-248.55"/>
<text text-anchor="middle" x="832.5" y="-297" font-family="Helvetica,sans-Serif" font-size="10.00"> mLnTg</text>
</g>
<!-- Node12 -->
<g id="node12" class="node">
<title>Node12</title>
<g id="a_node12"><a xlink:href="structprocess__profile__definition.html" target="_top" xlink:title=" ">
<polygon fill="white" stroke="black" points="770,-331.5 770,-350.5 895,-350.5 895,-331.5 770,-331.5"/>
<text text-anchor="middle" x="832.5" y="-338.5" font-family="Helvetica,sans-Serif" font-size="10.00">process_profile_definition</text>
</a>
</g>
</g>
<!-- Node12&#45;&gt;Node5 -->
<g id="edge14" class="edge">
<title>Node12&#45;&gt;Node5</title>
<path fill="none" stroke="#9a32cd" stroke-dasharray="5,2" d="M905.44,-347.64C944.72,-351.63 994.15,-357.25 1038,-364 1048.03,-365.55 1058.75,-367.47 1068.9,-369.43"/>
<polygon fill="#9a32cd" stroke="#9a32cd" points="905.72,-344.15 895.42,-346.64 905.02,-351.12 905.72,-344.15"/>
<text text-anchor="middle" x="975.5" y="-367" font-family="Helvetica,sans-Serif" font-size="10.00"> mpProf</text>
</g>
<!-- Node13 -->
<g id="node13" class="node">
<title>Node13</title>
<g id="a_node13"><a xlink:href="structprocess__method__class.html" target="_top" xlink:title=" ">
<polygon fill="white" stroke="black" points="527,-320.5 527,-339.5 644,-339.5 644,-320.5 527,-320.5"/>
<text text-anchor="middle" x="585.5" y="-327.5" font-family="Helvetica,sans-Serif" font-size="10.00">process_method_class</text>
</a>
</g>
</g>
<!-- Node13&#45;&gt;Node5 -->
<g id="edge19" class="edge">
<title>Node13&#45;&gt;Node5</title>
<path fill="none" stroke="#9a32cd" stroke-dasharray="5,2" d="M614.6,-344.01C649.87,-360.73 712.69,-387.72 770,-398 887.25,-419.03 919.61,-407.17 1038,-394 1049.3,-392.74 1061.42,-390.7 1072.61,-388.51"/>
<polygon fill="#9a32cd" stroke="#9a32cd" points="615.94,-340.77 605.42,-339.59 612.91,-347.08 615.94,-340.77"/>
<text text-anchor="middle" x="832.5" y="-412" font-family="Helvetica,sans-Serif" font-size="10.00"> mpPcMtd</text>
</g>
<!-- Node13&#45;&gt;Node12 -->
<g id="edge15" class="edge">
<title>Node13&#45;&gt;Node12</title>
<path fill="none" stroke="#9a32cd" stroke-dasharray="5,2" d="M654.7,-333.06C690.8,-334.68 734.78,-336.66 769.85,-338.23"/>
<polygon fill="#9a32cd" stroke="#9a32cd" points="654.4,-329.55 644.25,-332.59 654.08,-336.54 654.4,-329.55"/>
<text text-anchor="middle" x="712" y="-340" font-family="Helvetica,sans-Serif" font-size="10.00"> mpPcMtd</text>
</g>
<!-- Node20 -->
<g id="node20" class="node">
<title>Node20</title>
<g id="a_node20"><a xlink:href="structnodedraw__method__class.html" target="_top" xlink:title=" ">
<polygon fill="white" stroke="black" points="913,-229.5 913,-248.5 1038,-248.5 1038,-229.5 913,-229.5"/>
<text text-anchor="middle" x="975.5" y="-236.5" font-family="Helvetica,sans-Serif" font-size="10.00">nodedraw_method_class</text>
</a>
</g>
</g>
<!-- Node13&#45;&gt;Node20 -->
<g id="edge34" class="edge">
<title>Node13&#45;&gt;Node20</title>
<path fill="none" stroke="#9a32cd" stroke-dasharray="5,2" d="M654.02,-319.94C737.83,-307.29 872.53,-286.32 895,-279 918.36,-271.39 943.37,-257.8 958.97,-248.6"/>
<polygon fill="#9a32cd" stroke="#9a32cd" points="653.43,-316.49 644.07,-321.44 654.48,-323.41 653.43,-316.49"/>
<text text-anchor="middle" x="712" y="-319" font-family="Helvetica,sans-Serif" font-size="10.00"> mBase</text>
</g>
<!-- Node14&#45;&gt;Node5 -->
<g id="edge16" class="edge">
<title>Node14&#45;&gt;Node5</title>
<path fill="none" stroke="#9a32cd" stroke-dasharray="5,2" d="M895.58,-195.02C938.89,-186.93 996.17,-184.09 1038,-211 1052.62,-220.41 1097.42,-334.58 1110.73,-369.15"/>
<polygon fill="#9a32cd" stroke="#9a32cd" points="894.85,-191.6 885.73,-196.99 896.23,-198.46 894.85,-191.6"/>
<text text-anchor="middle" x="975.5" y="-214" font-family="Helvetica,sans-Serif" font-size="10.00"> mLyTg</text>
</g>
<!-- Node15&#45;&gt;Node5 -->
<g id="edge20" class="edge">
<title>Node15&#45;&gt;Node5</title>
<path fill="none" stroke="#9a32cd" stroke-dasharray="5,2" d="M1299.57,-438.48C1286.18,-427.36 1267.12,-413.26 1248,-405 1223,-394.2 1193.39,-387.84 1168.6,-384.12"/>
<polygon fill="#9a32cd" stroke="#9a32cd" points="1297.63,-441.42 1307.5,-445.27 1302.18,-436.11 1297.63,-441.42"/>
<text text-anchor="middle" x="1220.5" y="-408" font-family="Helvetica,sans-Serif" font-size="10.00"> mpCtRq</text>
</g>
<!-- Node16 -->
<g id="node16" class="node">
<title>Node16</title>
<g id="a_node16"><a xlink:href="structcreate__request__method__class.html" target="_top" xlink:title=" ">
<polygon fill="white" stroke="black" points="1056,-510 1056,-540 1175,-540 1175,-510 1056,-510"/>
<text text-anchor="start" x="1064" y="-528" font-family="Helvetica,sans-Serif" font-size="10.00">create_request_method</text>
<text text-anchor="middle" x="1115.5" y="-517" font-family="Helvetica,sans-Serif" font-size="10.00">_class</text>
</a>
</g>
</g>
<!-- Node16&#45;&gt;Node15 -->
<g id="edge21" class="edge">
<title>Node16&#45;&gt;Node15</title>
<path fill="none" stroke="#9a32cd" stroke-dasharray="5,2" d="M1185.16,-513.34C1205.75,-508.78 1228.13,-502.75 1248,-495 1268.6,-486.97 1290.44,-473.61 1304.14,-464.57"/>
<polygon fill="#9a32cd" stroke="#9a32cd" points="1184.27,-509.95 1175.22,-515.46 1185.72,-516.79 1184.27,-509.95"/>
<text text-anchor="middle" x="1220.5" y="-514" font-family="Helvetica,sans-Serif" font-size="10.00"> mpCtRqMtd</text>
</g>
<!-- Node17&#45;&gt;Node15 -->
<g id="edge25" class="edge">
<title>Node17&#45;&gt;Node15</title>
<path fill="none" stroke="#9a32cd" stroke-dasharray="5,2" d="M753.23,-563.97C833.93,-569.07 1021.02,-576.55 1175,-550 1208.66,-544.2 1218.97,-544 1248,-526 1275.07,-509.22 1299.39,-479.88 1310.93,-464.71"/>
<polygon fill="#9a32cd" stroke="#9a32cd" points="753.23,-560.46 743.02,-563.3 752.77,-567.45 753.23,-560.46"/>
<text text-anchor="middle" x="975.5" y="-571" font-family="Helvetica,sans-Serif" font-size="10.00"> mBase</text>
</g>
<!-- Node18&#45;&gt;Node5 -->
<g id="edge27" class="edge">
<title>Node18&#45;&gt;Node5</title>
<path fill="none" stroke="#9a32cd" stroke-dasharray="5,2" d="M887.77,-379C938.18,-379 1012.73,-379 1062.43,-379"/>
<polygon fill="#9a32cd" stroke="#9a32cd" points="887.72,-375.5 877.72,-379 887.72,-382.5 887.72,-375.5"/>
<text text-anchor="middle" x="975.5" y="-382" font-family="Helvetica,sans-Serif" font-size="10.00"> mDtTg</text>
</g>
<!-- Node19&#45;&gt;Node3 -->
<g id="edge37" class="edge">
<title>Node19&#45;&gt;Node3</title>
<path fill="none" stroke="#9a32cd" stroke-dasharray="5,2" d="M236.29,-116.12C256.17,-114.46 279.13,-112.82 300,-112 349.3,-110.07 361.85,-107.78 411,-112 460.95,-116.29 518.11,-127.39 552.74,-134.82"/>
<polygon fill="#9a32cd" stroke="#9a32cd" points="235.87,-112.65 226.2,-116.99 236.47,-119.62 235.87,-112.65"/>
<text text-anchor="middle" x="355.5" y="-115" font-family="Helvetica,sans-Serif" font-size="10.00"> mCancelList</text>
</g>
<!-- Node19&#45;&gt;Node4 -->
<g id="edge31" class="edge">
<title>Node19&#45;&gt;Node4</title>
<path fill="none" stroke="#9a32cd" stroke-dasharray="5,2" d="M197.79,-102.99C223.38,-69.27 284.47,0 354.5,0 354.5,0 354.5,0 1116.5,0 1205.17,0 1285.78,-90 1310.36,-120.23"/>
<polygon fill="#9a32cd" stroke="#9a32cd" points="194.92,-100.97 191.8,-111.1 200.55,-105.13 194.92,-100.97"/>
<text text-anchor="middle" x="712" y="-3" font-family="Helvetica,sans-Serif" font-size="10.00"> mLayerNodeLists</text>
</g>
<!-- Node21 -->
<g id="node21" class="node">
<title>Node21</title>
<g id="a_node21"><a xlink:href="structnode__lists__tree__class.html" target="_top" xlink:title=" ">
<polygon fill="white" stroke="black" points="300,-132.5 300,-151.5 411,-151.5 411,-132.5 300,-132.5"/>
<text text-anchor="middle" x="355.5" y="-139.5" font-family="Helvetica,sans-Serif" font-size="10.00">node_lists_tree_class</text>
</a>
</g>
</g>
<!-- Node19&#45;&gt;Node21 -->
<g id="edge36" class="edge">
<title>Node19&#45;&gt;Node21</title>
<path fill="none" stroke="#9a32cd" stroke-dasharray="5,2" d="M236.22,-127.35C256.29,-129.83 279.36,-132.69 299.75,-135.22"/>
<polygon fill="#9a32cd" stroke="#9a32cd" points="236.39,-123.84 226.03,-126.08 235.52,-130.79 236.39,-123.84"/>
<text text-anchor="middle" x="263" y="-136" font-family="Helvetica,sans-Serif" font-size="10.00"> mpLists</text>
</g>
<!-- Node20&#45;&gt;Node4 -->
<g id="edge33" class="edge">
<title>Node20&#45;&gt;Node4</title>
<path fill="none" stroke="#9a32cd" stroke-dasharray="5,2" d="M1030.93,-226.93C1033.32,-226.3 1035.69,-225.65 1038,-225 1133.34,-198.05 1244.07,-157.74 1292.8,-139.53"/>
<polygon fill="#9a32cd" stroke="#9a32cd" points="1029.81,-223.6 1020.98,-229.45 1031.53,-230.39 1029.81,-223.6"/>
<text text-anchor="middle" x="1115.5" y="-221" font-family="Helvetica,sans-Serif" font-size="10.00"> mpNodeMtd</text>
</g>
<!-- Node21&#45;&gt;Node3 -->
<g id="edge35" class="edge">
<title>Node21&#45;&gt;Node3</title>
<path fill="none" stroke="#9a32cd" stroke-dasharray="5,2" d="M421.22,-142C464.27,-142 518.93,-142 552.81,-142"/>
<polygon fill="#9a32cd" stroke="#9a32cd" points="421.11,-138.5 411.11,-142 421.11,-145.5 421.11,-138.5"/>
<text text-anchor="middle" x="464" y="-145" font-family="Helvetica,sans-Serif" font-size="10.00"> mNodeListTree</text>
</g>
</g>
</svg>
