<?xml version="1.0" encoding="UTF-8" standalone="no"?>
<!DOCTYPE svg PUBLIC "-//W3C//DTD SVG 1.1//EN"
 "http://www.w3.org/Graphics/SVG/1.1/DTD/svg11.dtd">
<!-- Generated by graphviz version 2.44.0 ()
 -->
<!-- Title: dBgS_AcchCir Pages: 1 -->
<svg width="168pt" height="152pt"
 viewBox="0.00 0.00 167.50 152.00" xmlns="http://www.w3.org/2000/svg" xmlns:xlink="http://www.w3.org/1999/xlink">
<g id="graph0" class="graph" transform="scale(1 1) rotate(0) translate(4 148)">
<title>dBgS_AcchCir</title>
<polygon fill="white" stroke="transparent" points="-4,4 -4,-148 163.5,-148 163.5,4 -4,4"/>
<!-- Node1 -->
<g id="node1" class="node">
<title>Node1</title>
<g id="a_node1"><a xlink:title=" ">
<polygon fill="#bfbfbf" stroke="black" points="34.5,-0.5 34.5,-19.5 114.5,-19.5 114.5,-0.5 34.5,-0.5"/>
<text text-anchor="middle" x="74.5" y="-7.5" font-family="Helvetica,sans-Serif" font-size="10.00">dBgS_AcchCir</text>
</a>
</g>
</g>
<!-- Node2 -->
<g id="node2" class="node">
<title>Node2</title>
<g id="a_node2"><a xlink:href="classcBgS__PolyInfo.html" target="_top" xlink:title=" ">
<polygon fill="white" stroke="black" points="0,-67.5 0,-86.5 81,-86.5 81,-67.5 0,-67.5"/>
<text text-anchor="middle" x="40.5" y="-74.5" font-family="Helvetica,sans-Serif" font-size="10.00">cBgS_PolyInfo</text>
</a>
</g>
</g>
<!-- Node2&#45;&gt;Node1 -->
<g id="edge1" class="edge">
<title>Node2&#45;&gt;Node1</title>
<path fill="none" stroke="#9a32cd" stroke-dasharray="5,2" d="M44.15,-57.59C45.86,-51.16 48.25,-44.04 51.5,-38 55.12,-31.28 60.63,-24.73 65.35,-19.77"/>
<polygon fill="#9a32cd" stroke="#9a32cd" points="40.72,-56.93 41.9,-67.45 47.54,-58.48 40.72,-56.93"/>
<text text-anchor="middle" x="74.5" y="-41" font-family="Helvetica,sans-Serif" font-size="10.00"> mPolyInfo</text>
</g>
<!-- Node3 -->
<g id="node3" class="node">
<title>Node3</title>
<g id="a_node3"><a xlink:href="classcM3dGCir.html" target="_top" xlink:title=" ">
<polygon fill="white" stroke="black" points="99.5,-67.5 99.5,-86.5 159.5,-86.5 159.5,-67.5 99.5,-67.5"/>
<text text-anchor="middle" x="129.5" y="-74.5" font-family="Helvetica,sans-Serif" font-size="10.00">cM3dGCir</text>
</a>
</g>
</g>
<!-- Node3&#45;&gt;Node1 -->
<g id="edge2" class="edge">
<title>Node3&#45;&gt;Node1</title>
<path fill="none" stroke="#9a32cd" stroke-dasharray="5,2" d="M115.64,-59.5C110.02,-52.82 103.46,-45.03 97.5,-38 92.25,-31.8 86.3,-24.81 81.76,-19.5"/>
<polygon fill="#9a32cd" stroke="#9a32cd" points="113.03,-61.83 122.14,-67.23 118.39,-57.33 113.03,-61.83"/>
<text text-anchor="middle" x="128" y="-41" font-family="Helvetica,sans-Serif" font-size="10.00"> m3DGCir</text>
</g>
<!-- Node4 -->
<g id="node4" class="node">
<title>Node4</title>
<g id="a_node4"><a xlink:href="classcM2dGCir.html" target="_top" xlink:title=" ">
<polygon fill="white" stroke="black" points="99.5,-124.5 99.5,-143.5 159.5,-143.5 159.5,-124.5 99.5,-124.5"/>
<text text-anchor="middle" x="129.5" y="-131.5" font-family="Helvetica,sans-Serif" font-size="10.00">cM2dGCir</text>
</a>
</g>
</g>
<!-- Node4&#45;&gt;Node3 -->
<g id="edge3" class="edge">
<title>Node4&#45;&gt;Node3</title>
<path fill="none" stroke="midnightblue" d="M129.5,-114.12C129.5,-104.82 129.5,-94.06 129.5,-86.71"/>
<polygon fill="midnightblue" stroke="midnightblue" points="126,-114.41 129.5,-124.41 133,-114.41 126,-114.41"/>
</g>
</g>
</svg>
