<?xml version="1.0" encoding="UTF-8" standalone="no"?>
<!DOCTYPE svg PUBLIC "-//W3C//DTD SVG 1.1//EN"
 "http://www.w3.org/Graphics/SVG/1.1/DTD/svg11.dtd">
<!-- Generated by graphviz version 2.44.0 ()
 -->
<!-- Title: cBgS_LinChk Pages: 1 -->
<svg width="432pt" height="230pt"
 viewBox="0.00 0.00 431.50 230.00" xmlns="http://www.w3.org/2000/svg" xmlns:xlink="http://www.w3.org/1999/xlink">
<g id="graph0" class="graph" transform="scale(1 1) rotate(0) translate(4 226)">
<title>cBgS_LinChk</title>
<polygon fill="white" stroke="transparent" points="-4,4 -4,-226 427.5,-226 427.5,4 -4,4"/>
<!-- Node1 -->
<g id="node1" class="node">
<title>Node1</title>
<g id="a_node1"><a xlink:title=" ">
<polygon fill="#bfbfbf" stroke="black" points="220,-0.5 220,-19.5 297,-19.5 297,-0.5 220,-0.5"/>
<text text-anchor="middle" x="258.5" y="-7.5" font-family="Helvetica,sans-Serif" font-size="10.00">cBgS_LinChk</text>
</a>
</g>
</g>
<!-- Node2 -->
<g id="node2" class="node">
<title>Node2</title>
<g id="a_node2"><a xlink:href="classcBgS__Chk.html" target="_top" xlink:title=" ">
<polygon fill="white" stroke="black" points="99,-67.5 99,-86.5 162,-86.5 162,-67.5 99,-67.5"/>
<text text-anchor="middle" x="130.5" y="-74.5" font-family="Helvetica,sans-Serif" font-size="10.00">cBgS_Chk</text>
</a>
</g>
</g>
<!-- Node2&#45;&gt;Node1 -->
<g id="edge1" class="edge">
<title>Node2&#45;&gt;Node1</title>
<path fill="none" stroke="#8b1a1a" d="M156.55,-62.77C181.9,-49.9 219.69,-30.71 241.43,-19.67"/>
<polygon fill="#8b1a1a" stroke="#8b1a1a" points="154.83,-59.72 147.5,-67.37 158,-65.96 154.83,-59.72"/>
</g>
<!-- Node3 -->
<g id="node3" class="node">
<title>Node3</title>
<g id="a_node3"><a xlink:href="classcBgS__GrpPassChk.html" target="_top" xlink:title=" ">
<polygon fill="white" stroke="black" points="0,-145.5 0,-164.5 101,-164.5 101,-145.5 0,-145.5"/>
<text text-anchor="middle" x="50.5" y="-152.5" font-family="Helvetica,sans-Serif" font-size="10.00">cBgS_GrpPassChk</text>
</a>
</g>
</g>
<!-- Node3&#45;&gt;Node2 -->
<g id="edge2" class="edge">
<title>Node3&#45;&gt;Node2</title>
<path fill="none" stroke="#9a32cd" stroke-dasharray="5,2" d="M56.08,-135.83C59.93,-125.73 65.92,-113.52 74.5,-105 82.69,-96.86 93.82,-90.81 104,-86.52"/>
<polygon fill="#9a32cd" stroke="#9a32cd" points="52.75,-134.75 52.82,-145.34 59.37,-137.02 52.75,-134.75"/>
<text text-anchor="middle" x="108" y="-113.5" font-family="Helvetica,sans-Serif" font-size="10.00"> mGrpPassChk</text>
</g>
<!-- Node4 -->
<g id="node4" class="node">
<title>Node4</title>
<g id="a_node4"><a xlink:href="classcBgS__PolyPassChk.html" target="_top" xlink:title=" ">
<polygon fill="white" stroke="black" points="119.5,-145.5 119.5,-164.5 223.5,-164.5 223.5,-145.5 119.5,-145.5"/>
<text text-anchor="middle" x="171.5" y="-152.5" font-family="Helvetica,sans-Serif" font-size="10.00">cBgS_PolyPassChk</text>
</a>
</g>
</g>
<!-- Node4&#45;&gt;Node2 -->
<g id="edge3" class="edge">
<title>Node4&#45;&gt;Node2</title>
<path fill="none" stroke="#9a32cd" stroke-dasharray="5,2" d="M161.86,-136.12C153.44,-120.53 141.61,-98.59 135.15,-86.62"/>
<polygon fill="#9a32cd" stroke="#9a32cd" points="158.97,-138.14 166.8,-145.28 165.13,-134.82 158.97,-138.14"/>
<text text-anchor="middle" x="190.5" y="-113.5" font-family="Helvetica,sans-Serif" font-size="10.00"> mPolyPassChk</text>
</g>
<!-- Node5 -->
<g id="node5" class="node">
<title>Node5</title>
<g id="a_node5"><a xlink:href="classcBgS__PolyInfo.html" target="_top" xlink:title=" ">
<polygon fill="white" stroke="black" points="180,-67.5 180,-86.5 261,-86.5 261,-67.5 180,-67.5"/>
<text text-anchor="middle" x="220.5" y="-74.5" font-family="Helvetica,sans-Serif" font-size="10.00">cBgS_PolyInfo</text>
</a>
</g>
</g>
<!-- Node5&#45;&gt;Node1 -->
<g id="edge4" class="edge">
<title>Node5&#45;&gt;Node1</title>
<path fill="none" stroke="#9a32cd" stroke-dasharray="5,2" d="M227.51,-57.97C230.3,-51.5 233.74,-44.26 237.5,-38 241.41,-31.48 246.66,-24.73 250.94,-19.61"/>
<polygon fill="#9a32cd" stroke="#9a32cd" points="224.26,-56.67 223.72,-67.25 230.74,-59.32 224.26,-56.67"/>
<text text-anchor="middle" x="260.5" y="-41" font-family="Helvetica,sans-Serif" font-size="10.00"> mPolyInfo</text>
</g>
<!-- Node6 -->
<g id="node6" class="node">
<title>Node6</title>
<g id="a_node6"><a xlink:href="classcXyz.html" target="_top" xlink:title=" ">
<polygon fill="white" stroke="black" points="310.5,-145.5 310.5,-164.5 348.5,-164.5 348.5,-145.5 310.5,-145.5"/>
<text text-anchor="middle" x="329.5" y="-152.5" font-family="Helvetica,sans-Serif" font-size="10.00">cXyz</text>
</a>
</g>
</g>
<!-- Node6&#45;&gt;Node1 -->
<g id="edge5" class="edge">
<title>Node6&#45;&gt;Node1</title>
<path fill="none" stroke="#9a32cd" stroke-dasharray="5,2" d="M323.22,-135.84C313.33,-107.66 294.15,-54.9 283.5,-38 279.28,-31.3 273.28,-24.75 268.22,-19.79"/>
<polygon fill="#9a32cd" stroke="#9a32cd" points="319.93,-137.01 326.52,-145.31 326.54,-134.71 319.93,-137.01"/>
<text text-anchor="middle" x="327.5" y="-74.5" font-family="Helvetica,sans-Serif" font-size="10.00"> field_0x40</text>
</g>
<!-- Node8 -->
<g id="node8" class="node">
<title>Node8</title>
<g id="a_node8"><a xlink:href="classcM3dGLin.html" target="_top" xlink:title=" ">
<polygon fill="white" stroke="black" points="361.5,-67.5 361.5,-86.5 423.5,-86.5 423.5,-67.5 361.5,-67.5"/>
<text text-anchor="middle" x="392.5" y="-74.5" font-family="Helvetica,sans-Serif" font-size="10.00">cM3dGLin</text>
</a>
</g>
</g>
<!-- Node6&#45;&gt;Node8 -->
<g id="edge8" class="edge">
<title>Node6&#45;&gt;Node8</title>
<path fill="none" stroke="#9a32cd" stroke-dasharray="5,2" d="M343.23,-137.44C356.2,-121.79 375.15,-98.93 385.36,-86.62"/>
<polygon fill="#9a32cd" stroke="#9a32cd" points="340.41,-135.35 336.73,-145.28 345.8,-139.82 340.41,-135.35"/>
<text text-anchor="middle" x="382.5" y="-119" font-family="Helvetica,sans-Serif" font-size="10.00"> mEnd</text>
<text text-anchor="middle" x="382.5" y="-108" font-family="Helvetica,sans-Serif" font-size="10.00">mStart</text>
</g>
<!-- Node7 -->
<g id="node7" class="node">
<title>Node7</title>
<g id="a_node7"><a xlink:href="structVec.html" target="_top" xlink:title=" ">
<polygon fill="white" stroke="black" points="312.5,-202.5 312.5,-221.5 346.5,-221.5 346.5,-202.5 312.5,-202.5"/>
<text text-anchor="middle" x="329.5" y="-209.5" font-family="Helvetica,sans-Serif" font-size="10.00">Vec</text>
</a>
</g>
</g>
<!-- Node7&#45;&gt;Node6 -->
<g id="edge6" class="edge">
<title>Node7&#45;&gt;Node6</title>
<path fill="none" stroke="midnightblue" d="M329.5,-192.12C329.5,-182.82 329.5,-172.06 329.5,-164.71"/>
<polygon fill="midnightblue" stroke="midnightblue" points="326,-192.41 329.5,-202.41 333,-192.41 326,-192.41"/>
</g>
<!-- Node8&#45;&gt;Node1 -->
<g id="edge7" class="edge">
<title>Node8&#45;&gt;Node1</title>
<path fill="none" stroke="#9a32cd" stroke-dasharray="5,2" d="M365.58,-62.94C339.04,-50.07 299.23,-30.76 276.37,-19.67"/>
<polygon fill="#9a32cd" stroke="#9a32cd" points="364.18,-66.15 374.71,-67.37 367.24,-59.85 364.18,-66.15"/>
<text text-anchor="middle" x="346" y="-41" font-family="Helvetica,sans-Serif" font-size="10.00"> mLin</text>
</g>
</g>
</svg>
