<?xml version="1.0" encoding="UTF-8" standalone="no"?>
<!DOCTYPE svg PUBLIC "-//W3C//DTD SVG 1.1//EN"
 "http://www.w3.org/Graphics/SVG/1.1/DTD/svg11.dtd">
<!-- Generated by graphviz version 2.44.0 ()
 -->
<!-- Title: dBgS_LinkRoofChk Pages: 1 -->
<svg width="365pt" height="286pt"
 viewBox="0.00 0.00 364.50 286.00" xmlns="http://www.w3.org/2000/svg" xmlns:xlink="http://www.w3.org/1999/xlink">
<g id="graph0" class="graph" transform="scale(1 1) rotate(0) translate(4 282)">
<title>dBgS_LinkRoofChk</title>
<polygon fill="white" stroke="transparent" points="-4,4 -4,-282 360.5,-282 360.5,4 -4,4"/>
<!-- Node1 -->
<g id="node1" class="node">
<title>Node1</title>
<g id="a_node1"><a xlink:title=" ">
<polygon fill="#bfbfbf" stroke="black" points="159.5,-0.5 159.5,-19.5 261.5,-19.5 261.5,-0.5 159.5,-0.5"/>
<text text-anchor="middle" x="210.5" y="-7.5" font-family="Helvetica,sans-Serif" font-size="10.00">dBgS_LinkRoofChk</text>
</a>
</g>
</g>
<!-- Node2 -->
<g id="node2" class="node">
<title>Node2</title>
<g id="a_node2"><a xlink:href="classdBgS__RoofChk.html" target="_top" xlink:title=" ">
<polygon fill="white" stroke="black" points="169,-57.5 169,-76.5 252,-76.5 252,-57.5 169,-57.5"/>
<text text-anchor="middle" x="210.5" y="-64.5" font-family="Helvetica,sans-Serif" font-size="10.00">dBgS_RoofChk</text>
</a>
</g>
</g>
<!-- Node2&#45;&gt;Node1 -->
<g id="edge1" class="edge">
<title>Node2&#45;&gt;Node1</title>
<path fill="none" stroke="#8b1a1a" d="M210.5,-47.12C210.5,-37.82 210.5,-27.06 210.5,-19.71"/>
<polygon fill="#8b1a1a" stroke="#8b1a1a" points="207,-47.41 210.5,-57.41 214,-47.41 207,-47.41"/>
</g>
<!-- Node3 -->
<g id="node3" class="node">
<title>Node3</title>
<g id="a_node3"><a xlink:href="classcBgS__Chk.html" target="_top" xlink:title=" ">
<polygon fill="white" stroke="black" points="0,-191.5 0,-210.5 63,-210.5 63,-191.5 0,-191.5"/>
<text text-anchor="middle" x="31.5" y="-198.5" font-family="Helvetica,sans-Serif" font-size="10.00">cBgS_Chk</text>
</a>
</g>
</g>
<!-- Node3&#45;&gt;Node2 -->
<g id="edge2" class="edge">
<title>Node3&#45;&gt;Node2</title>
<path fill="none" stroke="#9a32cd" stroke-dasharray="5,2" d="M36.35,-181.34C41.65,-164.32 51.71,-139.54 68.5,-124 96.51,-98.08 137.94,-83.6 168.83,-75.89"/>
<polygon fill="#9a32cd" stroke="#9a32cd" points="32.91,-180.65 33.53,-191.23 39.64,-182.57 32.91,-180.65"/>
<text text-anchor="middle" x="91.5" y="-131.5" font-family="Helvetica,sans-Serif" font-size="10.00"> field_0x10</text>
</g>
<!-- Node4 -->
<g id="node4" class="node">
<title>Node4</title>
<g id="a_node4"><a xlink:href="classcBgS__GrpPassChk.html" target="_top" xlink:title=" ">
<polygon fill="white" stroke="black" points="29,-258.5 29,-277.5 130,-277.5 130,-258.5 29,-258.5"/>
<text text-anchor="middle" x="79.5" y="-265.5" font-family="Helvetica,sans-Serif" font-size="10.00">cBgS_GrpPassChk</text>
</a>
</g>
</g>
<!-- Node4&#45;&gt;Node3 -->
<g id="edge3" class="edge">
<title>Node4&#45;&gt;Node3</title>
<path fill="none" stroke="#9a32cd" stroke-dasharray="5,2" d="M57.18,-252.19C52.89,-248.58 48.73,-244.47 45.5,-240 39.07,-231.11 35.28,-218.95 33.3,-210.8"/>
<polygon fill="#9a32cd" stroke="#9a32cd" points="55.32,-255.17 65.4,-258.44 59.56,-249.6 55.32,-255.17"/>
<text text-anchor="middle" x="79" y="-232" font-family="Helvetica,sans-Serif" font-size="10.00"> mGrpPassChk</text>
</g>
<!-- Node7 -->
<g id="node7" class="node">
<title>Node7</title>
<g id="a_node7"><a xlink:href="classdBgS__GrpPassChk.html" target="_top" xlink:title=" ">
<polygon fill="white" stroke="black" points="81,-191.5 81,-210.5 182,-210.5 182,-191.5 81,-191.5"/>
<text text-anchor="middle" x="131.5" y="-198.5" font-family="Helvetica,sans-Serif" font-size="10.00">dBgS_GrpPassChk</text>
</a>
</g>
</g>
<!-- Node4&#45;&gt;Node7 -->
<g id="edge7" class="edge">
<title>Node4&#45;&gt;Node7</title>
<path fill="none" stroke="midnightblue" d="M100.58,-252C104.84,-248.38 109.06,-244.3 112.5,-240 119.68,-231.01 125.17,-218.87 128.36,-210.75"/>
<polygon fill="midnightblue" stroke="midnightblue" points="98.21,-249.41 92.52,-258.35 102.54,-254.91 98.21,-249.41"/>
</g>
<!-- Node5 -->
<g id="node5" class="node">
<title>Node5</title>
<g id="a_node5"><a xlink:href="classcBgS__PolyPassChk.html" target="_top" xlink:title=" ">
<polygon fill="white" stroke="black" points="168.5,-258.5 168.5,-277.5 272.5,-277.5 272.5,-258.5 168.5,-258.5"/>
<text text-anchor="middle" x="220.5" y="-265.5" font-family="Helvetica,sans-Serif" font-size="10.00">cBgS_PolyPassChk</text>
</a>
</g>
</g>
<!-- Node5&#45;&gt;Node3 -->
<g id="edge4" class="edge">
<title>Node5&#45;&gt;Node3</title>
<path fill="none" stroke="#9a32cd" stroke-dasharray="5,2" d="M188.4,-254.87C167.9,-247.22 140.73,-237.27 116.5,-229 97.6,-222.55 76.16,-215.74 59.55,-210.58"/>
<polygon fill="#9a32cd" stroke="#9a32cd" points="187.28,-258.19 197.88,-258.42 189.74,-251.63 187.28,-258.19"/>
<text text-anchor="middle" x="180.5" y="-232" font-family="Helvetica,sans-Serif" font-size="10.00"> mPolyPassChk</text>
</g>
<!-- Node8 -->
<g id="node8" class="node">
<title>Node8</title>
<g id="a_node8"><a xlink:href="classdBgS__PolyPassChk.html" target="_top" xlink:title=" ">
<polygon fill="white" stroke="black" points="200.5,-191.5 200.5,-210.5 304.5,-210.5 304.5,-191.5 200.5,-191.5"/>
<text text-anchor="middle" x="252.5" y="-198.5" font-family="Helvetica,sans-Serif" font-size="10.00">dBgS_PolyPassChk</text>
</a>
</g>
</g>
<!-- Node5&#45;&gt;Node8 -->
<g id="edge9" class="edge">
<title>Node5&#45;&gt;Node8</title>
<path fill="none" stroke="midnightblue" d="M231.35,-249.47C233.15,-246.36 234.93,-243.11 236.5,-240 241.46,-230.16 246.24,-218.4 249.27,-210.6"/>
<polygon fill="midnightblue" stroke="midnightblue" points="228.28,-247.79 226.15,-258.17 234.29,-251.39 228.28,-247.79"/>
</g>
<!-- Node6 -->
<g id="node6" class="node">
<title>Node6</title>
<g id="a_node6"><a xlink:href="classdBgS__Chk.html" target="_top" xlink:title=" ">
<polygon fill="white" stroke="black" points="124,-124.5 124,-143.5 187,-143.5 187,-124.5 124,-124.5"/>
<text text-anchor="middle" x="155.5" y="-131.5" font-family="Helvetica,sans-Serif" font-size="10.00">dBgS_Chk</text>
</a>
</g>
</g>
<!-- Node6&#45;&gt;Node2 -->
<g id="edge5" class="edge">
<title>Node6&#45;&gt;Node2</title>
<path fill="none" stroke="#9a32cd" stroke-dasharray="5,2" d="M163.48,-115.2C166.95,-108.49 171.4,-101.03 176.5,-95 182.44,-87.98 190.44,-81.52 197.19,-76.68"/>
<polygon fill="#9a32cd" stroke="#9a32cd" points="160.31,-113.72 159.13,-124.24 166.62,-116.75 160.31,-113.72"/>
<text text-anchor="middle" x="199.5" y="-98" font-family="Helvetica,sans-Serif" font-size="10.00"> field_0x24</text>
</g>
<!-- Node7&#45;&gt;Node6 -->
<g id="edge6" class="edge">
<title>Node7&#45;&gt;Node6</title>
<path fill="none" stroke="#9a32cd" stroke-dasharray="5,2" d="M130.19,-181.01C130.36,-174.78 131.21,-167.93 133.5,-162 136.2,-155 141.44,-148.45 146.14,-143.55"/>
<polygon fill="#9a32cd" stroke="#9a32cd" points="126.7,-181.32 130.46,-191.23 133.7,-181.14 126.7,-181.32"/>
<text text-anchor="middle" x="175" y="-165" font-family="Helvetica,sans-Serif" font-size="10.00"> mGrpPassChkInfo</text>
</g>
<!-- Node8&#45;&gt;Node6 -->
<g id="edge8" class="edge">
<title>Node8&#45;&gt;Node6</title>
<path fill="none" stroke="#9a32cd" stroke-dasharray="5,2" d="M239.3,-183.33C232.97,-176.1 224.93,-167.95 216.5,-162 205.62,-154.32 192.2,-148.09 180.73,-143.56"/>
<polygon fill="#9a32cd" stroke="#9a32cd" points="236.77,-185.76 245.87,-191.2 242.15,-181.28 236.77,-185.76"/>
<text text-anchor="middle" x="272.5" y="-165" font-family="Helvetica,sans-Serif" font-size="10.00"> mPolyPassChkInfo</text>
</g>
<!-- Node9 -->
<g id="node9" class="node">
<title>Node9</title>
<g id="a_node9"><a xlink:href="classcBgS__PolyInfo.html" target="_top" xlink:title=" ">
<polygon fill="white" stroke="black" points="205,-124.5 205,-143.5 286,-143.5 286,-124.5 205,-124.5"/>
<text text-anchor="middle" x="245.5" y="-131.5" font-family="Helvetica,sans-Serif" font-size="10.00">cBgS_PolyInfo</text>
</a>
</g>
</g>
<!-- Node9&#45;&gt;Node2 -->
<g id="edge10" class="edge">
<title>Node9&#45;&gt;Node2</title>
<path fill="none" stroke="#9a32cd" stroke-dasharray="5,2" d="M235.9,-115.16C229.15,-102.63 220.41,-86.41 215.15,-76.63"/>
<polygon fill="#9a32cd" stroke="#9a32cd" points="232.96,-117.09 240.78,-124.23 239.12,-113.77 232.96,-117.09"/>
<text text-anchor="middle" x="253.5" y="-98" font-family="Helvetica,sans-Serif" font-size="10.00"> field_0x00</text>
</g>
<!-- Node10 -->
<g id="node10" class="node">
<title>Node10</title>
<g id="a_node10"><a xlink:href="classcXyz.html" target="_top" xlink:title=" ">
<polygon fill="white" stroke="black" points="315.5,-124.5 315.5,-143.5 353.5,-143.5 353.5,-124.5 315.5,-124.5"/>
<text text-anchor="middle" x="334.5" y="-131.5" font-family="Helvetica,sans-Serif" font-size="10.00">cXyz</text>
</a>
</g>
</g>
<!-- Node10&#45;&gt;Node2 -->
<g id="edge11" class="edge">
<title>Node10&#45;&gt;Node2</title>
<path fill="none" stroke="#9a32cd" stroke-dasharray="5,2" d="M315.79,-118.12C305.72,-110.56 292.86,-101.6 280.5,-95 266.71,-87.63 250.47,-81.24 237.1,-76.53"/>
<polygon fill="#9a32cd" stroke="#9a32cd" points="313.78,-120.99 323.84,-124.31 318.05,-115.44 313.78,-120.99"/>
<text text-anchor="middle" x="314.5" y="-98" font-family="Helvetica,sans-Serif" font-size="10.00"> m_pos</text>
</g>
<!-- Node11 -->
<g id="node11" class="node">
<title>Node11</title>
<g id="a_node11"><a xlink:href="structVec.html" target="_top" xlink:title=" ">
<polygon fill="white" stroke="black" points="322.5,-191.5 322.5,-210.5 356.5,-210.5 356.5,-191.5 322.5,-191.5"/>
<text text-anchor="middle" x="339.5" y="-198.5" font-family="Helvetica,sans-Serif" font-size="10.00">Vec</text>
</a>
</g>
</g>
<!-- Node11&#45;&gt;Node10 -->
<g id="edge12" class="edge">
<title>Node11&#45;&gt;Node10</title>
<path fill="none" stroke="midnightblue" d="M338.04,-181.04C337.09,-168.67 335.89,-153.12 335.16,-143.63"/>
<polygon fill="midnightblue" stroke="midnightblue" points="334.57,-181.53 338.83,-191.23 341.55,-180.99 334.57,-181.53"/>
</g>
</g>
</svg>
