<?xml version="1.0" encoding="UTF-8" standalone="no"?>
<!DOCTYPE svg PUBLIC "-//W3C//DTD SVG 1.1//EN"
 "http://www.w3.org/Graphics/SVG/1.1/DTD/svg11.dtd">
<!-- Generated by graphviz version 2.44.0 ()
 -->
<!-- Title: dEyeHL_mng_c Pages: 1 -->
<svg width="158pt" height="97pt"
 viewBox="0.00 0.00 158.00 97.00" xmlns="http://www.w3.org/2000/svg" xmlns:xlink="http://www.w3.org/1999/xlink">
<g id="graph0" class="graph" transform="scale(1 1) rotate(0) translate(4 93)">
<title>dEyeHL_mng_c</title>
<polygon fill="white" stroke="transparent" points="-4,4 -4,-93 154,-93 154,4 -4,4"/>
<!-- Node1 -->
<g id="node1" class="node">
<title>Node1</title>
<g id="a_node1"><a xlink:title=" ">
<polygon fill="#bfbfbf" stroke="black" points="0,-1.5 0,-20.5 86,-20.5 86,-1.5 0,-1.5"/>
<text text-anchor="middle" x="43" y="-8.5" font-family="Helvetica,sans-Serif" font-size="10.00">dEyeHL_mng_c</text>
</a>
</g>
</g>
<!-- Node1&#45;&gt;Node1 -->
<g id="edge1" class="edge">
<title>Node1&#45;&gt;Node1</title>
<path fill="none" stroke="#9a32cd" stroke-dasharray="5,2" d="M96.25,-16.04C101.01,-14.98 104,-13.3 104,-11 104,-7.31 96.35,-5.23 86.04,-4.74"/>
<polygon fill="#9a32cd" stroke="#9a32cd" points="95.55,-12.6 86.04,-17.26 96.38,-19.55 95.55,-12.6"/>
<text text-anchor="middle" x="127" y="-14" font-family="Helvetica,sans-Serif" font-size="10.00"> field_0x0c</text>
<text text-anchor="middle" x="127" y="-3" font-family="Helvetica,sans-Serif" font-size="10.00">field_0x10</text>
</g>
<!-- Node2 -->
<g id="node2" class="node">
<title>Node2</title>
<g id="a_node2"><a xlink:href="structResTIMG.html" target="_top" xlink:title=" ">
<polygon fill="white" stroke="black" points="13.5,-69.5 13.5,-88.5 72.5,-88.5 72.5,-69.5 13.5,-69.5"/>
<text text-anchor="middle" x="43" y="-76.5" font-family="Helvetica,sans-Serif" font-size="10.00">ResTIMG</text>
</a>
</g>
</g>
<!-- Node2&#45;&gt;Node1 -->
<g id="edge2" class="edge">
<title>Node2&#45;&gt;Node1</title>
<path fill="none" stroke="#9a32cd" stroke-dasharray="5,2" d="M43,-59.04C43,-46.47 43,-30.56 43,-20.84"/>
<polygon fill="#9a32cd" stroke="#9a32cd" points="39.5,-59.37 43,-69.37 46.5,-59.37 39.5,-59.37"/>
<text text-anchor="middle" x="66" y="-43" font-family="Helvetica,sans-Serif" font-size="10.00"> field_0x04</text>
</g>
</g>
</svg>
