<?xml version="1.0" encoding="UTF-8" standalone="no"?>
<!DOCTYPE svg PUBLIC "-//W3C//DTD SVG 1.1//EN"
 "http://www.w3.org/Graphics/SVG/1.1/DTD/svg11.dtd">
<!-- Generated by graphviz version 2.44.0 ()
 -->
<!-- Title: daHorse_c Pages: 1 -->
<svg width="1725pt" height="812pt"
 viewBox="0.00 0.00 1725.00 812.19" xmlns="http://www.w3.org/2000/svg" xmlns:xlink="http://www.w3.org/1999/xlink">
<g id="graph0" class="graph" transform="scale(1 1) rotate(0) translate(4 808.19)">
<title>daHorse_c</title>
<polygon fill="white" stroke="transparent" points="-4,4 -4,-808.19 1721,-808.19 1721,4 -4,4"/>
<!-- Node1 -->
<g id="node1" class="node">
<title>Node1</title>
<g id="a_node1"><a xlink:title=" ">
<polygon fill="#bfbfbf" stroke="black" points="1626.5,-213.5 1626.5,-232.5 1690.5,-232.5 1690.5,-213.5 1626.5,-213.5"/>
<text text-anchor="middle" x="1658.5" y="-220.5" font-family="Helvetica,sans-Serif" font-size="10.00">daHorse_c</text>
</a>
</g>
</g>
<!-- Node2 -->
<g id="node2" class="node">
<title>Node2</title>
<g id="a_node2"><a xlink:href="classdaPy__actorKeep__c.html" target="_top" xlink:title=" ">
<polygon fill="white" stroke="black" points="1374.5,-213.5 1374.5,-232.5 1472.5,-232.5 1472.5,-213.5 1374.5,-213.5"/>
<text text-anchor="middle" x="1423.5" y="-220.5" font-family="Helvetica,sans-Serif" font-size="10.00">daPy_actorKeep_c</text>
</a>
</g>
</g>
<!-- Node2&#45;&gt;Node1 -->
<g id="edge1" class="edge">
<title>Node2&#45;&gt;Node1</title>
<path fill="none" stroke="#9a32cd" stroke-dasharray="5,2" d="M1482.82,-223C1528.34,-223 1589.81,-223 1626.38,-223"/>
<polygon fill="#9a32cd" stroke="#9a32cd" points="1482.78,-219.5 1472.78,-223 1482.78,-226.5 1482.78,-219.5"/>
<text text-anchor="middle" x="1541.5" y="-226" font-family="Helvetica,sans-Serif" font-size="10.00"> mZeldaActorKeep</text>
</g>
<!-- Node3 -->
<g id="node3" class="node">
<title>Node3</title>
<g id="a_node3"><a xlink:href="classfopAc__ac__c.html" target="_top" xlink:title=" ">
<polygon fill="white" stroke="black" points="1168.5,-213.5 1168.5,-232.5 1236.5,-232.5 1236.5,-213.5 1168.5,-213.5"/>
<text text-anchor="middle" x="1202.5" y="-220.5" font-family="Helvetica,sans-Serif" font-size="10.00">fopAc_ac_c</text>
</a>
</g>
</g>
<!-- Node3&#45;&gt;Node2 -->
<g id="edge2" class="edge">
<title>Node3&#45;&gt;Node2</title>
<path fill="none" stroke="#9a32cd" stroke-dasharray="5,2" d="M1247.15,-223C1283.87,-223 1336.32,-223 1374.27,-223"/>
<polygon fill="#9a32cd" stroke="#9a32cd" points="1246.76,-219.5 1236.76,-223 1246.76,-226.5 1246.76,-219.5"/>
<text text-anchor="middle" x="1311" y="-226" font-family="Helvetica,sans-Serif" font-size="10.00"> mActor</text>
</g>
<!-- Node4 -->
<g id="node4" class="node">
<title>Node4</title>
<g id="a_node4"><a xlink:href="structbase__process__class.html" target="_top" xlink:title=" ">
<polygon fill="white" stroke="black" points="925,-477.5 925,-496.5 1031,-496.5 1031,-477.5 925,-477.5"/>
<text text-anchor="middle" x="978" y="-484.5" font-family="Helvetica,sans-Serif" font-size="10.00">base_process_class</text>
</a>
</g>
</g>
<!-- Node4&#45;&gt;Node3 -->
<g id="edge3" class="edge">
<title>Node4&#45;&gt;Node3</title>
<path fill="none" stroke="midnightblue" d="M983.6,-467C991.95,-434.14 1012.27,-367.99 1049,-324 1069.1,-299.93 1148.95,-252.88 1184.4,-232.64"/>
<polygon fill="midnightblue" stroke="midnightblue" points="980.09,-466.6 981.13,-477.14 986.89,-468.25 980.09,-466.6"/>
</g>
<!-- Node15 -->
<g id="node15" class="node">
<title>Node15</title>
<g id="a_node15"><a xlink:href="structprocess__node__class.html" target="_top" xlink:title=" ">
<polygon fill="white" stroke="black" points="1149.5,-602.5 1149.5,-621.5 1255.5,-621.5 1255.5,-602.5 1149.5,-602.5"/>
<text text-anchor="middle" x="1202.5" y="-609.5" font-family="Helvetica,sans-Serif" font-size="10.00">process_node_class</text>
</a>
</g>
</g>
<!-- Node4&#45;&gt;Node15 -->
<g id="edge19" class="edge">
<title>Node4&#45;&gt;Node15</title>
<path fill="none" stroke="#9a32cd" stroke-dasharray="5,2" d="M1003.11,-501.81C1016.54,-509.97 1033.61,-520.2 1049,-529 1096.89,-556.38 1154.24,-587.03 1183.05,-602.28"/>
<polygon fill="#9a32cd" stroke="#9a32cd" points="1004.82,-498.75 994.46,-496.53 1001.17,-504.73 1004.82,-498.75"/>
<text text-anchor="middle" x="1089" y="-575" font-family="Helvetica,sans-Serif" font-size="10.00"> mBase</text>
</g>
<!-- Node19 -->
<g id="node19" class="node">
<title>Node19</title>
<g id="a_node19"><a xlink:href="structcreate__request.html" target="_top" xlink:title=" ">
<polygon fill="white" stroke="black" points="1618,-402.5 1618,-421.5 1699,-421.5 1699,-402.5 1618,-402.5"/>
<text text-anchor="middle" x="1658.5" y="-409.5" font-family="Helvetica,sans-Serif" font-size="10.00">create_request</text>
</a>
</g>
</g>
<!-- Node4&#45;&gt;Node19 -->
<g id="edge32" class="edge">
<title>Node4&#45;&gt;Node19</title>
<path fill="none" stroke="#9a32cd" stroke-dasharray="5,2" d="M1041.38,-479.86C1043.95,-479.57 1046.5,-479.28 1049,-479 1263.67,-454.92 1521.03,-426.84 1617.98,-416.29"/>
<polygon fill="#9a32cd" stroke="#9a32cd" points="1040.91,-476.39 1031.36,-480.99 1041.69,-483.34 1040.91,-476.39"/>
<text text-anchor="middle" x="1311" y="-456" font-family="Helvetica,sans-Serif" font-size="10.00"> mpRes</text>
</g>
<!-- Node5 -->
<g id="node5" class="node">
<title>Node5</title>
<g id="a_node5"><a xlink:href="structprocess__priority__class.html" target="_top" xlink:title=" ">
<polygon fill="white" stroke="black" points="644.5,-406.5 644.5,-425.5 757.5,-425.5 757.5,-406.5 644.5,-406.5"/>
<text text-anchor="middle" x="701" y="-413.5" font-family="Helvetica,sans-Serif" font-size="10.00">process_priority_class</text>
</a>
</g>
</g>
<!-- Node5&#45;&gt;Node4 -->
<g id="edge4" class="edge">
<title>Node5&#45;&gt;Node4</title>
<path fill="none" stroke="#9a32cd" stroke-dasharray="5,2" d="M767.77,-415.87C808.91,-417.67 862.38,-423.51 907,-440 930.07,-448.52 953.01,-466.1 966.05,-477.18"/>
<polygon fill="#9a32cd" stroke="#9a32cd" points="767.71,-412.36 757.59,-415.49 767.45,-419.36 767.71,-412.36"/>
<text text-anchor="middle" x="844.5" y="-443" font-family="Helvetica,sans-Serif" font-size="10.00"> mPi</text>
</g>
<!-- Node6 -->
<g id="node6" class="node">
<title>Node6</title>
<g id="a_node6"><a xlink:href="structprocess__priority__queue__info.html" target="_top" xlink:title=" ">
<polygon fill="white" stroke="black" points="399,-399.5 399,-418.5 536,-418.5 536,-399.5 399,-399.5"/>
<text text-anchor="middle" x="467.5" y="-406.5" font-family="Helvetica,sans-Serif" font-size="10.00">process_priority_queue_info</text>
</a>
</g>
</g>
<!-- Node6&#45;&gt;Node5 -->
<g id="edge5" class="edge">
<title>Node6&#45;&gt;Node5</title>
<path fill="none" stroke="#9a32cd" stroke-dasharray="5,2" d="M546.35,-411.35C578.51,-412.33 615.05,-413.43 644.42,-414.32"/>
<polygon fill="#9a32cd" stroke="#9a32cd" points="546.18,-407.85 536.08,-411.04 545.97,-414.84 546.18,-407.85"/>
<text text-anchor="middle" x="587" y="-427" font-family="Helvetica,sans-Serif" font-size="10.00"> mInfoCurr</text>
<text text-anchor="middle" x="587" y="-416" font-family="Helvetica,sans-Serif" font-size="10.00">mInfoQ</text>
</g>
<!-- Node7 -->
<g id="node7" class="node">
<title>Node7</title>
<g id="a_node7"><a xlink:href="structcreate__tag__class.html" target="_top" xlink:title=" ">
<polygon fill="white" stroke="black" points="144,-578.5 144,-597.5 235,-597.5 235,-578.5 144,-578.5"/>
<text text-anchor="middle" x="189.5" y="-585.5" font-family="Helvetica,sans-Serif" font-size="10.00">create_tag_class</text>
</a>
</g>
</g>
<!-- Node7&#45;&gt;Node5 -->
<g id="edge6" class="edge">
<title>Node7&#45;&gt;Node5</title>
<path fill="none" stroke="#9a32cd" stroke-dasharray="5,2" d="M213.61,-572.84C250.99,-549.01 327.78,-502.92 399,-478 493.37,-444.98 522.35,-457.47 620,-436 634.26,-432.86 649.86,-429.05 663.46,-425.6"/>
<polygon fill="#9a32cd" stroke="#9a32cd" points="211.49,-570.04 204.98,-578.39 215.28,-575.92 211.49,-570.04"/>
<text text-anchor="middle" x="467.5" y="-481" font-family="Helvetica,sans-Serif" font-size="10.00"> mBase</text>
</g>
<!-- Node9 -->
<g id="node9" class="node">
<title>Node9</title>
<g id="a_node9"><a xlink:href="structprocess__method__tag__class.html" target="_top" xlink:title=" ">
<polygon fill="white" stroke="black" points="414,-350 414,-380 521,-380 521,-350 414,-350"/>
<text text-anchor="start" x="422" y="-368" font-family="Helvetica,sans-Serif" font-size="10.00">process_method_tag</text>
<text text-anchor="middle" x="467.5" y="-357" font-family="Helvetica,sans-Serif" font-size="10.00">_class</text>
</a>
</g>
</g>
<!-- Node7&#45;&gt;Node9 -->
<g id="edge10" class="edge">
<title>Node7&#45;&gt;Node9</title>
<path fill="none" stroke="#9a32cd" stroke-dasharray="5,2" d="M192.84,-567.88C197.8,-534.43 212.45,-467.38 253,-430 297.15,-389.29 366.11,-374.05 413.64,-368.36"/>
<polygon fill="#9a32cd" stroke="#9a32cd" points="189.31,-567.83 191.46,-578.2 196.25,-568.75 189.31,-567.83"/>
<text text-anchor="middle" x="317" y="-433" font-family="Helvetica,sans-Serif" font-size="10.00"> mCreateTag</text>
</g>
<!-- Node10 -->
<g id="node10" class="node">
<title>Node10</title>
<g id="a_node10"><a xlink:href="structline__tag.html" target="_top" xlink:title=" ">
<polygon fill="white" stroke="black" points="562,-578.5 562,-597.5 612,-597.5 612,-578.5 562,-578.5"/>
<text text-anchor="middle" x="587" y="-585.5" font-family="Helvetica,sans-Serif" font-size="10.00">line_tag</text>
</a>
</g>
</g>
<!-- Node7&#45;&gt;Node10 -->
<g id="edge12" class="edge">
<title>Node7&#45;&gt;Node10</title>
<path fill="none" stroke="#9a32cd" stroke-dasharray="5,2" d="M245.32,-588C332.45,-588 499.08,-588 561.55,-588"/>
<polygon fill="#9a32cd" stroke="#9a32cd" points="245.1,-584.5 235.1,-588 245.1,-591.5 245.1,-584.5"/>
<text text-anchor="middle" x="317" y="-591" font-family="Helvetica,sans-Serif" font-size="10.00"> mBase</text>
</g>
<!-- Node13 -->
<g id="node13" class="node">
<title>Node13</title>
<g id="a_node13"><a xlink:href="structlayer__management__tag__class.html" target="_top" xlink:title=" ">
<polygon fill="white" stroke="black" points="1600,-639 1600,-669 1717,-669 1717,-639 1600,-639"/>
<text text-anchor="start" x="1608" y="-657" font-family="Helvetica,sans-Serif" font-size="10.00">layer_management_tag</text>
<text text-anchor="middle" x="1658.5" y="-646" font-family="Helvetica,sans-Serif" font-size="10.00">_class</text>
</a>
</g>
</g>
<!-- Node7&#45;&gt;Node13 -->
<g id="edge16" class="edge">
<title>Node7&#45;&gt;Node13</title>
<path fill="none" stroke="#9a32cd" stroke-dasharray="5,2" d="M212.74,-603.05C224.28,-610.18 238.89,-618.16 253,-623 443.07,-688.14 946.64,-742.96 1147,-758 1196.19,-761.69 1208.71,-759.96 1258,-758 1297.2,-756.44 1307.48,-758.43 1346,-751 1446.66,-731.57 1560.7,-691.13 1618.88,-669.1"/>
<polygon fill="#9a32cd" stroke="#9a32cd" points="214.52,-600.04 204.21,-597.6 210.75,-605.94 214.52,-600.04"/>
<text text-anchor="middle" x="978" y="-750" font-family="Helvetica,sans-Serif" font-size="10.00"> mCreateTag</text>
</g>
<!-- Node21 -->
<g id="node21" class="node">
<title>Node21</title>
<g id="a_node21"><a xlink:href="structcreate__tag.html" target="_top" xlink:title=" ">
<polygon fill="white" stroke="black" points="813.5,-298.5 813.5,-317.5 875.5,-317.5 875.5,-298.5 813.5,-298.5"/>
<text text-anchor="middle" x="844.5" y="-305.5" font-family="Helvetica,sans-Serif" font-size="10.00">create_tag</text>
</a>
</g>
</g>
<!-- Node7&#45;&gt;Node21 -->
<g id="edge36" class="edge">
<title>Node7&#45;&gt;Node21</title>
<path fill="none" stroke="#9a32cd" stroke-dasharray="5,2" d="M190.13,-567.85C190.5,-525.1 197.59,-424.76 253,-370 332.82,-291.11 704.08,-301.57 813.24,-306.46"/>
<polygon fill="#9a32cd" stroke="#9a32cd" points="186.63,-568.09 190.17,-578.07 193.63,-568.06 186.63,-568.09"/>
<text text-anchor="middle" x="467.5" y="-321" font-family="Helvetica,sans-Serif" font-size="10.00"> mBase</text>
</g>
<!-- Node22 -->
<g id="node22" class="node">
<title>Node22</title>
<g id="a_node22"><a xlink:href="structdelete__tag__class.html" target="_top" xlink:title=" ">
<polygon fill="white" stroke="black" points="1613.5,-543.5 1613.5,-562.5 1703.5,-562.5 1703.5,-543.5 1613.5,-543.5"/>
<text text-anchor="middle" x="1658.5" y="-550.5" font-family="Helvetica,sans-Serif" font-size="10.00">delete_tag_class</text>
</a>
</g>
</g>
<!-- Node7&#45;&gt;Node22 -->
<g id="edge38" class="edge">
<title>Node7&#45;&gt;Node22</title>
<path fill="none" stroke="#9a32cd" stroke-dasharray="5,2" d="M234.51,-599.82C240.68,-601.11 246.97,-602.23 253,-603 486.25,-632.84 546.86,-610.78 782,-613 837.55,-613.53 857.31,-637.85 907,-613 918.93,-607.04 913.64,-595.99 925,-589 972.68,-559.68 993.3,-572.55 1049,-567 1259.56,-546.02 1513.04,-549.3 1613.45,-551.72"/>
<polygon fill="#9a32cd" stroke="#9a32cd" points="234.84,-596.3 224.31,-597.53 233.3,-603.13 234.84,-596.3"/>
<text text-anchor="middle" x="978" y="-592" font-family="Helvetica,sans-Serif" font-size="10.00"> mBase</text>
</g>
<!-- Node8 -->
<g id="node8" class="node">
<title>Node8</title>
<g id="a_node8"><a xlink:href="structnode__class.html" target="_top" xlink:title=" ">
<polygon fill="white" stroke="black" points="1,-710.5 1,-729.5 67,-729.5 67,-710.5 1,-710.5"/>
<text text-anchor="middle" x="34" y="-717.5" font-family="Helvetica,sans-Serif" font-size="10.00">node_class</text>
</a>
</g>
</g>
<!-- Node8&#45;&gt;Node7 -->
<g id="edge7" class="edge">
<title>Node8&#45;&gt;Node7</title>
<path fill="none" stroke="#9a32cd" stroke-dasharray="5,2" d="M54.44,-703.29C86.93,-675.34 151.28,-620.01 177.25,-597.68"/>
<polygon fill="#9a32cd" stroke="#9a32cd" points="51.84,-700.9 46.54,-710.08 56.4,-706.21 51.84,-700.9"/>
<text text-anchor="middle" x="106" y="-676" font-family="Helvetica,sans-Serif" font-size="10.00"> mpNode</text>
</g>
<!-- Node8&#45;&gt;Node8 -->
<g id="edge8" class="edge">
<title>Node8&#45;&gt;Node8</title>
<path fill="none" stroke="#9a32cd" stroke-dasharray="5,2" d="M20.74,-739.77C21.78,-744.5 26.2,-748 34,-748 46.8,-748 50.5,-738.57 45.1,-729.76"/>
<polygon fill="#9a32cd" stroke="#9a32cd" points="24.21,-740.27 22.9,-729.76 17.37,-738.79 24.21,-740.27"/>
<text text-anchor="middle" x="34" y="-762" font-family="Helvetica,sans-Serif" font-size="10.00"> mpNextNode</text>
<text text-anchor="middle" x="34" y="-751" font-family="Helvetica,sans-Serif" font-size="10.00">mpPrevNode</text>
</g>
<!-- Node14 -->
<g id="node14" class="node">
<title>Node14</title>
<g id="a_node14"><a xlink:href="structlayer__class.html" target="_top" xlink:title=" ">
<polygon fill="white" stroke="black" points="1391,-606.5 1391,-625.5 1456,-625.5 1456,-606.5 1391,-606.5"/>
<text text-anchor="middle" x="1423.5" y="-613.5" font-family="Helvetica,sans-Serif" font-size="10.00">layer_class</text>
</a>
</g>
</g>
<!-- Node8&#45;&gt;Node14 -->
<g id="edge28" class="edge">
<title>Node8&#45;&gt;Node14</title>
<path fill="none" stroke="#9a32cd" stroke-dasharray="5,2" d="M56.62,-735.44C85.31,-754.38 138.22,-784 188.5,-784 188.5,-784 188.5,-784 979,-784 1142.77,-784 1212.6,-846 1346,-751 1361.88,-739.69 1354.87,-728.22 1364,-711 1381.05,-678.83 1404.61,-642.67 1415.92,-625.74"/>
<polygon fill="#9a32cd" stroke="#9a32cd" points="58.43,-732.44 48.19,-729.72 54.5,-738.23 58.43,-732.44"/>
<text text-anchor="middle" x="701" y="-787" font-family="Helvetica,sans-Serif" font-size="10.00"> mNode</text>
</g>
<!-- Node16 -->
<g id="node16" class="node">
<title>Node16</title>
<g id="a_node16"><a xlink:href="structnode__list__class.html" target="_top" xlink:title=" ">
<polygon fill="white" stroke="black" points="936,-689.5 936,-708.5 1020,-708.5 1020,-689.5 936,-689.5"/>
<text text-anchor="middle" x="978" y="-696.5" font-family="Helvetica,sans-Serif" font-size="10.00">node_list_class</text>
</a>
</g>
</g>
<!-- Node8&#45;&gt;Node16 -->
<g id="edge22" class="edge">
<title>Node8&#45;&gt;Node16</title>
<path fill="none" stroke="#9a32cd" stroke-dasharray="5,2" d="M77.42,-720C108.24,-720 150.95,-720 188.5,-720 188.5,-720 188.5,-720 702,-720 785.08,-720 881.86,-710.35 935.61,-704.14"/>
<polygon fill="#9a32cd" stroke="#9a32cd" points="77.05,-716.5 67.05,-720 77.05,-723.5 77.05,-716.5"/>
<text text-anchor="middle" x="467.5" y="-734" font-family="Helvetica,sans-Serif" font-size="10.00"> mpHead</text>
<text text-anchor="middle" x="467.5" y="-723" font-family="Helvetica,sans-Serif" font-size="10.00">mpTail</text>
</g>
<!-- Node9&#45;&gt;Node5 -->
<g id="edge9" class="edge">
<title>Node9&#45;&gt;Node5</title>
<path fill="none" stroke="#9a32cd" stroke-dasharray="5,2" d="M531.04,-377.17C558.41,-382.65 590.85,-389.38 620,-396 634.1,-399.2 649.53,-402.99 663.04,-406.41"/>
<polygon fill="#9a32cd" stroke="#9a32cd" points="531.7,-373.73 521.21,-375.2 530.33,-380.59 531.7,-373.73"/>
<text text-anchor="middle" x="587" y="-399" font-family="Helvetica,sans-Serif" font-size="10.00"> mMtdTag</text>
</g>
<!-- Node9&#45;&gt;Node19 -->
<g id="edge33" class="edge">
<title>Node9&#45;&gt;Node19</title>
<path fill="none" stroke="#9a32cd" stroke-dasharray="5,2" d="M531.49,-357.03C577.98,-351.83 642.83,-346 700,-346 700,-346 700,-346 1424.5,-346 1506.27,-346 1598.29,-384.1 1637.78,-402.4"/>
<polygon fill="#9a32cd" stroke="#9a32cd" points="530.81,-353.58 521.27,-358.19 531.6,-360.54 530.81,-353.58"/>
<text text-anchor="middle" x="1089" y="-349" font-family="Helvetica,sans-Serif" font-size="10.00"> mMtdTg</text>
</g>
<!-- Node10&#45;&gt;Node4 -->
<g id="edge11" class="edge">
<title>Node10&#45;&gt;Node4</title>
<path fill="none" stroke="#9a32cd" stroke-dasharray="5,2" d="M622.15,-581.43C680.92,-569.8 804.76,-543.88 907,-513 922.76,-508.24 940.11,-501.8 953.6,-496.53"/>
<polygon fill="#9a32cd" stroke="#9a32cd" points="621.42,-578.01 612.28,-583.37 622.77,-584.88 621.42,-578.01"/>
<text text-anchor="middle" x="701" y="-581" font-family="Helvetica,sans-Serif" font-size="10.00"> mLnTg</text>
</g>
<!-- Node11 -->
<g id="node11" class="node">
<title>Node11</title>
<g id="a_node11"><a xlink:href="structprocess__profile__definition.html" target="_top" xlink:title=" ">
<polygon fill="white" stroke="black" points="638.5,-494.5 638.5,-513.5 763.5,-513.5 763.5,-494.5 638.5,-494.5"/>
<text text-anchor="middle" x="701" y="-501.5" font-family="Helvetica,sans-Serif" font-size="10.00">process_profile_definition</text>
</a>
</g>
</g>
<!-- Node11&#45;&gt;Node4 -->
<g id="edge13" class="edge">
<title>Node11&#45;&gt;Node4</title>
<path fill="none" stroke="#9a32cd" stroke-dasharray="5,2" d="M773.9,-499.56C821.2,-496.63 882.03,-492.87 924.74,-490.23"/>
<polygon fill="#9a32cd" stroke="#9a32cd" points="773.48,-496.07 763.72,-500.18 773.91,-503.06 773.48,-496.07"/>
<text text-anchor="middle" x="844.5" y="-501" font-family="Helvetica,sans-Serif" font-size="10.00"> mpProf</text>
</g>
<!-- Node12 -->
<g id="node12" class="node">
<title>Node12</title>
<g id="a_node12"><a xlink:href="structprocess__method__class.html" target="_top" xlink:title=" ">
<polygon fill="white" stroke="black" points="409,-498.5 409,-517.5 526,-517.5 526,-498.5 409,-498.5"/>
<text text-anchor="middle" x="467.5" y="-505.5" font-family="Helvetica,sans-Serif" font-size="10.00">process_method_class</text>
</a>
</g>
</g>
<!-- Node12&#45;&gt;Node4 -->
<g id="edge29" class="edge">
<title>Node12&#45;&gt;Node4</title>
<path fill="none" stroke="#9a32cd" stroke-dasharray="5,2" d="M515.27,-496.02C549.1,-488 596.05,-478.17 638,-474 739.25,-463.95 858.22,-473.38 924.89,-480.58"/>
<polygon fill="#9a32cd" stroke="#9a32cd" points="514.12,-492.7 505.22,-498.45 515.76,-499.51 514.12,-492.7"/>
<text text-anchor="middle" x="701" y="-477" font-family="Helvetica,sans-Serif" font-size="10.00"> mpPcMtd</text>
</g>
<!-- Node12&#45;&gt;Node11 -->
<g id="edge14" class="edge">
<title>Node12&#45;&gt;Node11</title>
<path fill="none" stroke="#9a32cd" stroke-dasharray="5,2" d="M536.27,-506.83C568.54,-506.27 606.86,-505.61 638.31,-505.07"/>
<polygon fill="#9a32cd" stroke="#9a32cd" points="535.96,-503.33 526.02,-507.01 536.08,-510.33 535.96,-503.33"/>
<text text-anchor="middle" x="587" y="-509" font-family="Helvetica,sans-Serif" font-size="10.00"> mpPcMtd</text>
</g>
<!-- Node17 -->
<g id="node17" class="node">
<title>Node17</title>
<g id="a_node17"><a xlink:href="structnodedraw__method__class.html" target="_top" xlink:title=" ">
<polygon fill="white" stroke="black" points="782,-592.5 782,-611.5 907,-611.5 907,-592.5 782,-592.5"/>
<text text-anchor="middle" x="844.5" y="-599.5" font-family="Helvetica,sans-Serif" font-size="10.00">nodedraw_method_class</text>
</a>
</g>
</g>
<!-- Node12&#45;&gt;Node17 -->
<g id="edge24" class="edge">
<title>Node12&#45;&gt;Node17</title>
<path fill="none" stroke="#9a32cd" stroke-dasharray="5,2" d="M535.24,-519.25C608.83,-531.98 722.33,-552.67 764,-566 785.94,-573.01 809.85,-584.39 825.66,-592.48"/>
<polygon fill="#9a32cd" stroke="#9a32cd" points="535.58,-515.76 525.13,-517.51 534.39,-522.65 535.58,-515.76"/>
<text text-anchor="middle" x="587" y="-536" font-family="Helvetica,sans-Serif" font-size="10.00"> mBase</text>
</g>
<!-- Node13&#45;&gt;Node4 -->
<g id="edge15" class="edge">
<title>Node13&#45;&gt;Node4</title>
<path fill="none" stroke="#9a32cd" stroke-dasharray="5,2" d="M1589.8,-659.23C1439.72,-670.14 1089.13,-691.56 1049,-657 1008.14,-621.81 1055.76,-584.91 1031,-537 1022.26,-520.09 1005.57,-505.63 993.45,-496.68"/>
<polygon fill="#9a32cd" stroke="#9a32cd" points="1590.1,-662.72 1599.82,-658.5 1589.59,-655.74 1590.1,-662.72"/>
<text text-anchor="middle" x="1311" y="-678" font-family="Helvetica,sans-Serif" font-size="10.00"> mLyTg</text>
</g>
<!-- Node14&#45;&gt;Node13 -->
<g id="edge17" class="edge">
<title>Node14&#45;&gt;Node13</title>
<path fill="none" stroke="#9a32cd" stroke-dasharray="5,2" d="M1466.5,-616.76C1498.45,-617.99 1543.35,-621.12 1582,-629 1593.91,-631.43 1606.55,-635.14 1618.01,-638.97"/>
<polygon fill="#9a32cd" stroke="#9a32cd" points="1466.3,-613.25 1456.19,-616.41 1466.06,-620.25 1466.3,-613.25"/>
<text text-anchor="middle" x="1541.5" y="-632" font-family="Helvetica,sans-Serif" font-size="10.00"> mpLayer</text>
</g>
<!-- Node14&#45;&gt;Node15 -->
<g id="edge20" class="edge">
<title>Node14&#45;&gt;Node15</title>
<path fill="none" stroke="#9a32cd" stroke-dasharray="5,2" d="M1380.67,-615.24C1345.12,-614.59 1293.91,-613.65 1255.68,-612.95"/>
<polygon fill="#9a32cd" stroke="#9a32cd" points="1380.65,-618.74 1390.72,-615.42 1380.78,-611.74 1380.65,-618.74"/>
<text text-anchor="middle" x="1311" y="-617" font-family="Helvetica,sans-Serif" font-size="10.00"> mLayer</text>
</g>
<!-- Node14&#45;&gt;Node19 -->
<g id="edge34" class="edge">
<title>Node14&#45;&gt;Node19</title>
<path fill="none" stroke="#9a32cd" stroke-dasharray="5,2" d="M1443.23,-599.6C1489.82,-558.81 1609.79,-453.77 1646.6,-421.55"/>
<polygon fill="#9a32cd" stroke="#9a32cd" points="1440.64,-597.21 1435.43,-606.43 1445.25,-602.48 1440.64,-597.21"/>
<text text-anchor="middle" x="1541.5" y="-547" font-family="Helvetica,sans-Serif" font-size="10.00"> mpLayer</text>
</g>
<!-- Node14&#45;&gt;Node22 -->
<g id="edge39" class="edge">
<title>Node14&#45;&gt;Node22</title>
<path fill="none" stroke="#9a32cd" stroke-dasharray="5,2" d="M1466.32,-604.69C1510.79,-592.67 1580.35,-573.86 1622.17,-562.55"/>
<polygon fill="#9a32cd" stroke="#9a32cd" points="1465.15,-601.38 1456.41,-607.37 1466.98,-608.14 1465.15,-601.38"/>
<text text-anchor="middle" x="1541.5" y="-596" font-family="Helvetica,sans-Serif" font-size="10.00"> mpLayer</text>
</g>
<!-- Node15&#45;&gt;Node14 -->
<g id="edge18" class="edge">
<title>Node15&#45;&gt;Node14</title>
<path fill="none" stroke="#9a32cd" stroke-dasharray="5,2" d="M1234.76,-598.68C1247.33,-594 1262.12,-589.33 1276,-587 1306.68,-581.86 1315.4,-581.39 1346,-587 1366.26,-590.71 1388.11,-599.52 1403.25,-606.46"/>
<polygon fill="#9a32cd" stroke="#9a32cd" points="1233.27,-595.5 1225.21,-602.39 1235.8,-602.03 1233.27,-595.5"/>
<text text-anchor="middle" x="1311" y="-590" font-family="Helvetica,sans-Serif" font-size="10.00"> mpPcNode</text>
</g>
<!-- Node16&#45;&gt;Node14 -->
<g id="edge27" class="edge">
<title>Node16&#45;&gt;Node14</title>
<path fill="none" stroke="#9a32cd" stroke-dasharray="5,2" d="M1030.32,-703.01C1102.93,-706.87 1238.72,-707.4 1346,-669 1372.47,-659.53 1398.3,-638.45 1412.13,-625.91"/>
<polygon fill="#9a32cd" stroke="#9a32cd" points="1030.27,-699.5 1020.08,-702.42 1029.86,-706.49 1030.27,-699.5"/>
<text text-anchor="middle" x="1202.5" y="-706" font-family="Helvetica,sans-Serif" font-size="10.00"> mCancelList</text>
</g>
<!-- Node16&#45;&gt;Node15 -->
<g id="edge21" class="edge">
<title>Node16&#45;&gt;Node15</title>
<path fill="none" stroke="#9a32cd" stroke-dasharray="5,2" d="M1013.06,-685.68C1058.34,-667.98 1137.27,-637.12 1177.07,-621.55"/>
<polygon fill="#9a32cd" stroke="#9a32cd" points="1011.7,-682.46 1003.66,-689.36 1014.25,-688.98 1011.7,-682.46"/>
<text text-anchor="middle" x="1089" y="-673" font-family="Helvetica,sans-Serif" font-size="10.00"> mLayerNodeLists</text>
</g>
<!-- Node18 -->
<g id="node18" class="node">
<title>Node18</title>
<g id="a_node18"><a xlink:href="structnode__lists__tree__class.html" target="_top" xlink:title=" ">
<polygon fill="white" stroke="black" points="1147,-729.5 1147,-748.5 1258,-748.5 1258,-729.5 1147,-729.5"/>
<text text-anchor="middle" x="1202.5" y="-736.5" font-family="Helvetica,sans-Serif" font-size="10.00">node_lists_tree_class</text>
</a>
</g>
</g>
<!-- Node16&#45;&gt;Node18 -->
<g id="edge26" class="edge">
<title>Node16&#45;&gt;Node18</title>
<path fill="none" stroke="#9a32cd" stroke-dasharray="5,2" d="M1030.2,-708.2C1065.63,-714.57 1112.65,-723.03 1148.47,-729.47"/>
<polygon fill="#9a32cd" stroke="#9a32cd" points="1030.53,-704.71 1020.07,-706.38 1029.29,-711.6 1030.53,-704.71"/>
<text text-anchor="middle" x="1089" y="-727" font-family="Helvetica,sans-Serif" font-size="10.00"> mpLists</text>
</g>
<!-- Node17&#45;&gt;Node15 -->
<g id="edge23" class="edge">
<title>Node17&#45;&gt;Node15</title>
<path fill="none" stroke="#9a32cd" stroke-dasharray="5,2" d="M917.41,-604.02C986.14,-605.95 1088.07,-608.81 1149.32,-610.53"/>
<polygon fill="#9a32cd" stroke="#9a32cd" points="917.2,-600.51 907.1,-603.73 917,-607.51 917.2,-600.51"/>
<text text-anchor="middle" x="978" y="-610" font-family="Helvetica,sans-Serif" font-size="10.00"> mpNodeMtd</text>
</g>
<!-- Node18&#45;&gt;Node14 -->
<g id="edge25" class="edge">
<title>Node18&#45;&gt;Node14</title>
<path fill="none" stroke="#9a32cd" stroke-dasharray="5,2" d="M1268.21,-737.57C1293.91,-734.56 1322.81,-727.93 1346,-714 1382.45,-692.11 1408.1,-645.88 1417.99,-625.73"/>
<polygon fill="#9a32cd" stroke="#9a32cd" points="1267.76,-734.1 1258.16,-738.59 1268.46,-741.06 1267.76,-734.1"/>
<text text-anchor="middle" x="1311" y="-739" font-family="Helvetica,sans-Serif" font-size="10.00"> mNodeListTree</text>
</g>
<!-- Node19&#45;&gt;Node4 -->
<g id="edge30" class="edge">
<title>Node19&#45;&gt;Node4</title>
<path fill="none" stroke="#9a32cd" stroke-dasharray="5,2" d="M1632.21,-426.58C1617.94,-434.06 1599.51,-442.52 1582,-447 1478.44,-473.46 1157.75,-483.14 1031.16,-485.99"/>
<polygon fill="#9a32cd" stroke="#9a32cd" points="1634.24,-429.46 1641.36,-421.62 1630.9,-423.31 1634.24,-429.46"/>
<text text-anchor="middle" x="1311" y="-480" font-family="Helvetica,sans-Serif" font-size="10.00"> mpCtRq</text>
</g>
<!-- Node20 -->
<g id="node20" class="node">
<title>Node20</title>
<g id="a_node20"><a xlink:href="structcreate__request__method__class.html" target="_top" xlink:title=" ">
<polygon fill="white" stroke="black" points="1364,-375 1364,-405 1483,-405 1483,-375 1364,-375"/>
<text text-anchor="start" x="1372" y="-393" font-family="Helvetica,sans-Serif" font-size="10.00">create_request_method</text>
<text text-anchor="middle" x="1423.5" y="-382" font-family="Helvetica,sans-Serif" font-size="10.00">_class</text>
</a>
</g>
</g>
<!-- Node20&#45;&gt;Node19 -->
<g id="edge31" class="edge">
<title>Node20&#45;&gt;Node19</title>
<path fill="none" stroke="#9a32cd" stroke-dasharray="5,2" d="M1493.38,-396.5C1533.91,-400.33 1583.73,-405.03 1617.78,-408.25"/>
<polygon fill="#9a32cd" stroke="#9a32cd" points="1493.58,-393.01 1483.3,-395.55 1492.92,-399.98 1493.58,-393.01"/>
<text text-anchor="middle" x="1541.5" y="-407" font-family="Helvetica,sans-Serif" font-size="10.00"> mpCtRqMtd</text>
</g>
<!-- Node21&#45;&gt;Node19 -->
<g id="edge35" class="edge">
<title>Node21&#45;&gt;Node19</title>
<path fill="none" stroke="#9a32cd" stroke-dasharray="5,2" d="M885.75,-307.73C933.87,-307.44 1016.81,-307 1088,-307 1088,-307 1088,-307 1424.5,-307 1495.38,-307 1519.33,-298.9 1582,-332 1614.25,-349.03 1640.41,-385.18 1651.61,-402.44"/>
<polygon fill="#9a32cd" stroke="#9a32cd" points="885.72,-304.23 875.74,-307.8 885.77,-311.23 885.72,-304.23"/>
<text text-anchor="middle" x="1202.5" y="-310" font-family="Helvetica,sans-Serif" font-size="10.00"> mBase</text>
</g>
<!-- Node22&#45;&gt;Node4 -->
<g id="edge37" class="edge">
<title>Node22&#45;&gt;Node4</title>
<path fill="none" stroke="#9a32cd" stroke-dasharray="5,2" d="M1603.06,-542.25C1595.99,-541.05 1588.83,-539.93 1582,-539 1379.22,-511.52 1135.99,-495.76 1031.21,-489.79"/>
<polygon fill="#9a32cd" stroke="#9a32cd" points="1602.85,-545.77 1613.3,-544.06 1604.06,-538.88 1602.85,-545.77"/>
<text text-anchor="middle" x="1311" y="-515" font-family="Helvetica,sans-Serif" font-size="10.00"> mDtTg</text>
</g>
<!-- Node23 -->
<g id="node23" class="node">
<title>Node23</title>
<g id="a_node23"><a xlink:href="classcsXyz.html" target="_top" xlink:title=" ">
<polygon fill="white" stroke="black" points="956.5,-246.5 956.5,-265.5 999.5,-265.5 999.5,-246.5 956.5,-246.5"/>
<text text-anchor="middle" x="978" y="-253.5" font-family="Helvetica,sans-Serif" font-size="10.00">csXyz</text>
</a>
</g>
</g>
<!-- Node23&#45;&gt;Node3 -->
<g id="edge40" class="edge">
<title>Node23&#45;&gt;Node3</title>
<path fill="none" stroke="#9a32cd" stroke-dasharray="5,2" d="M1009.84,-251.52C1040.17,-247.11 1087.78,-240.15 1129,-234 1141.84,-232.08 1155.96,-229.95 1168.3,-228.07"/>
<polygon fill="#9a32cd" stroke="#9a32cd" points="1009.27,-248.07 999.87,-252.97 1010.27,-255 1009.27,-248.07"/>
<text text-anchor="middle" x="1089" y="-248" font-family="Helvetica,sans-Serif" font-size="10.00"> mAngle</text>
</g>
<!-- Node24 -->
<g id="node24" class="node">
<title>Node24</title>
<g id="a_node24"><a xlink:href="structSVec.html" target="_top" xlink:title=" ">
<polygon fill="white" stroke="black" points="680.5,-246.5 680.5,-265.5 721.5,-265.5 721.5,-246.5 680.5,-246.5"/>
<text text-anchor="middle" x="701" y="-253.5" font-family="Helvetica,sans-Serif" font-size="10.00">SVec</text>
</a>
</g>
</g>
<!-- Node24&#45;&gt;Node23 -->
<g id="edge41" class="edge">
<title>Node24&#45;&gt;Node23</title>
<path fill="none" stroke="midnightblue" d="M731.8,-256C787.93,-256 908.02,-256 956.28,-256"/>
<polygon fill="midnightblue" stroke="midnightblue" points="731.78,-252.5 721.78,-256 731.78,-259.5 731.78,-252.5"/>
</g>
<!-- Node25 -->
<g id="node25" class="node">
<title>Node25</title>
<g id="a_node25"><a xlink:href="classcXyz.html" target="_top" xlink:title=" ">
<polygon fill="white" stroke="black" points="959,-187.5 959,-206.5 997,-206.5 997,-187.5 959,-187.5"/>
<text text-anchor="middle" x="978" y="-194.5" font-family="Helvetica,sans-Serif" font-size="10.00">cXyz</text>
</a>
</g>
</g>
<!-- Node25&#45;&gt;Node3 -->
<g id="edge42" class="edge">
<title>Node25&#45;&gt;Node3</title>
<path fill="none" stroke="#9a32cd" stroke-dasharray="5,2" d="M1007.17,-191.4C1037.59,-186.34 1087.29,-180.95 1129,-190 1149.68,-194.48 1171.54,-205.4 1185.78,-213.45"/>
<polygon fill="#9a32cd" stroke="#9a32cd" points="1006.5,-187.96 997.26,-193.15 1007.72,-194.86 1006.5,-187.96"/>
<text text-anchor="middle" x="1089" y="-226" font-family="Helvetica,sans-Serif" font-size="10.00"> mCullMax</text>
<text text-anchor="middle" x="1089" y="-215" font-family="Helvetica,sans-Serif" font-size="10.00">mCullMin</text>
<text text-anchor="middle" x="1089" y="-204" font-family="Helvetica,sans-Serif" font-size="10.00">mPosition</text>
<text text-anchor="middle" x="1089" y="-193" font-family="Helvetica,sans-Serif" font-size="10.00">mSpeed</text>
</g>
<!-- Node26 -->
<g id="node26" class="node">
<title>Node26</title>
<g id="a_node26"><a xlink:href="structVec.html" target="_top" xlink:title=" ">
<polygon fill="white" stroke="black" points="684,-194.5 684,-213.5 718,-213.5 718,-194.5 684,-194.5"/>
<text text-anchor="middle" x="701" y="-201.5" font-family="Helvetica,sans-Serif" font-size="10.00">Vec</text>
</a>
</g>
</g>
<!-- Node26&#45;&gt;Node25 -->
<g id="edge43" class="edge">
<title>Node26&#45;&gt;Node25</title>
<path fill="none" stroke="midnightblue" d="M728.49,-203.33C784.08,-201.91 911.65,-198.66 958.94,-197.46"/>
<polygon fill="midnightblue" stroke="midnightblue" points="728.29,-199.83 718.38,-203.58 728.46,-206.83 728.29,-199.83"/>
</g>
<!-- Node27 -->
<g id="node27" class="node">
<title>Node27</title>
<g id="a_node27"><a xlink:href="classJKRSolidHeap.html" target="_top" xlink:title=" ">
<polygon fill="white" stroke="black" points="938,-57.5 938,-76.5 1018,-76.5 1018,-57.5 938,-57.5"/>
<text text-anchor="middle" x="978" y="-64.5" font-family="Helvetica,sans-Serif" font-size="10.00">JKRSolidHeap</text>
</a>
</g>
</g>
<!-- Node27&#45;&gt;Node3 -->
<g id="edge44" class="edge">
<title>Node27&#45;&gt;Node3</title>
<path fill="none" stroke="#9a32cd" stroke-dasharray="5,2" d="M1001.51,-82.15C1030.97,-102.06 1084.15,-138.22 1129,-170 1149.99,-184.87 1174.04,-202.59 1188.49,-213.31"/>
<polygon fill="#9a32cd" stroke="#9a32cd" points="1003.41,-79.21 993.16,-76.52 999.49,-85.01 1003.41,-79.21"/>
<text text-anchor="middle" x="1089" y="-173" font-family="Helvetica,sans-Serif" font-size="10.00"> unk_0x0F0</text>
</g>
<!-- Node28 -->
<g id="node28" class="node">
<title>Node28</title>
<g id="a_node28"><a xlink:href="classJKRHeap.html" target="_top" xlink:title=" ">
<polygon fill="white" stroke="black" points="671.5,-67.5 671.5,-86.5 730.5,-86.5 730.5,-67.5 671.5,-67.5"/>
<text text-anchor="middle" x="701" y="-74.5" font-family="Helvetica,sans-Serif" font-size="10.00">JKRHeap</text>
</a>
</g>
</g>
<!-- Node28&#45;&gt;Node27 -->
<g id="edge45" class="edge">
<title>Node28&#45;&gt;Node27</title>
<path fill="none" stroke="midnightblue" d="M740.85,-75.59C793.09,-73.69 885.46,-70.33 937.85,-68.42"/>
<polygon fill="midnightblue" stroke="midnightblue" points="740.52,-72.1 730.65,-75.96 740.77,-79.09 740.52,-72.1"/>
</g>
<!-- Node28&#45;&gt;Node28 -->
<g id="edge53" class="edge">
<title>Node28&#45;&gt;Node28</title>
<path fill="none" stroke="#9a32cd" stroke-dasharray="5,2" d="M679.89,-96.4C681.3,-101.31 688.34,-105 701,-105 721.26,-105 727.12,-95.57 718.57,-86.76"/>
<polygon fill="#9a32cd" stroke="#9a32cd" points="683.27,-97.35 683.43,-86.76 676.7,-94.94 683.27,-97.35"/>
<text text-anchor="middle" x="701" y="-130" font-family="Helvetica,sans-Serif" font-size="10.00"> sCurrentHeap</text>
<text text-anchor="middle" x="701" y="-119" font-family="Helvetica,sans-Serif" font-size="10.00">sRootHeap</text>
<text text-anchor="middle" x="701" y="-108" font-family="Helvetica,sans-Serif" font-size="10.00">sSystemHeap</text>
</g>
<!-- Node29 -->
<g id="node29" class="node">
<title>Node29</title>
<g id="a_node29"><a xlink:href="classJKRDisposer.html" target="_top" xlink:title=" ">
<polygon fill="white" stroke="black" points="941,-115.5 941,-134.5 1015,-134.5 1015,-115.5 941,-115.5"/>
<text text-anchor="middle" x="978" y="-122.5" font-family="Helvetica,sans-Serif" font-size="10.00">JKRDisposer</text>
</a>
</g>
</g>
<!-- Node28&#45;&gt;Node29 -->
<g id="edge47" class="edge">
<title>Node28&#45;&gt;Node29</title>
<path fill="none" stroke="#9a32cd" stroke-dasharray="5,2" d="M736.54,-89.91C750.49,-94.68 766.84,-99.72 782,-103 836.61,-114.83 901.28,-120.53 940.71,-123.1"/>
<polygon fill="#9a32cd" stroke="#9a32cd" points="737.46,-86.53 726.86,-86.52 735.14,-93.13 737.46,-86.53"/>
<text text-anchor="middle" x="844.5" y="-123" font-family="Helvetica,sans-Serif" font-size="10.00"> mHeap</text>
</g>
<!-- Node29&#45;&gt;Node28 -->
<g id="edge46" class="edge">
<title>Node29&#45;&gt;Node28</title>
<path fill="none" stroke="midnightblue" d="M935.34,-112.78C926.06,-110.31 916.24,-107.9 907,-106 844.68,-93.19 770.54,-84.23 730.71,-79.92"/>
<polygon fill="midnightblue" stroke="midnightblue" points="934.57,-116.2 945.14,-115.45 936.42,-109.44 934.57,-116.2"/>
</g>
<!-- Node30 -->
<g id="node30" class="node">
<title>Node30</title>
<g id="a_node30"><a xlink:href="classJSULink.html" target="_top" xlink:title=" ">
<polygon fill="white" stroke="black" points="253,-154.5 253,-173.5 381,-173.5 381,-154.5 253,-154.5"/>
<text text-anchor="middle" x="317" y="-161.5" font-family="Helvetica,sans-Serif" font-size="10.00">JSULink&lt; JKRDisposer &gt;</text>
</a>
</g>
</g>
<!-- Node30&#45;&gt;Node29 -->
<g id="edge48" class="edge">
<title>Node30&#45;&gt;Node29</title>
<path fill="none" stroke="#9a32cd" stroke-dasharray="5,2" d="M391.39,-162.23C479.82,-159.86 632.87,-155 764,-147 827.66,-143.12 843.63,-142.18 907,-135 917.98,-133.76 929.89,-132.15 940.72,-130.59"/>
<polygon fill="#9a32cd" stroke="#9a32cd" points="391.1,-158.74 381.19,-162.5 391.28,-165.73 391.1,-158.74"/>
<text text-anchor="middle" x="587" y="-159" font-family="Helvetica,sans-Serif" font-size="10.00"> mLink</text>
</g>
<!-- Node31 -->
<g id="node31" class="node">
<title>Node31</title>
<g id="a_node31"><a xlink:href="classJSUPtrLink.html" target="_top" xlink:title=" ">
<polygon fill="white" stroke="black" points="0,-112.5 0,-131.5 68,-131.5 68,-112.5 0,-112.5"/>
<text text-anchor="middle" x="34" y="-119.5" font-family="Helvetica,sans-Serif" font-size="10.00">JSUPtrLink</text>
</a>
</g>
</g>
<!-- Node31&#45;&gt;Node30 -->
<g id="edge49" class="edge">
<title>Node31&#45;&gt;Node30</title>
<path fill="none" stroke="midnightblue" d="M76.79,-134C79.9,-134.73 82.99,-135.41 86,-136 141.85,-147 206.22,-154.4 252.64,-158.81"/>
<polygon fill="midnightblue" stroke="midnightblue" points="77.48,-130.57 66.93,-131.54 75.78,-137.36 77.48,-130.57"/>
</g>
<!-- Node31&#45;&gt;Node31 -->
<g id="edge50" class="edge">
<title>Node31&#45;&gt;Node31</title>
<path fill="none" stroke="#9a32cd" stroke-dasharray="5,2" d="M20.74,-141.77C21.78,-146.5 26.2,-150 34,-150 46.8,-150 50.5,-140.57 45.1,-131.76"/>
<polygon fill="#9a32cd" stroke="#9a32cd" points="24.21,-142.27 22.9,-131.76 17.37,-140.79 24.21,-142.27"/>
<text text-anchor="middle" x="34" y="-164" font-family="Helvetica,sans-Serif" font-size="10.00"> mNext</text>
<text text-anchor="middle" x="34" y="-153" font-family="Helvetica,sans-Serif" font-size="10.00">mPrev</text>
</g>
<!-- Node32 -->
<g id="node32" class="node">
<title>Node32</title>
<g id="a_node32"><a xlink:href="classJSUPtrList.html" target="_top" xlink:title=" ">
<polygon fill="white" stroke="black" points="157,-78.5 157,-97.5 222,-97.5 222,-78.5 157,-78.5"/>
<text text-anchor="middle" x="189.5" y="-85.5" font-family="Helvetica,sans-Serif" font-size="10.00">JSUPtrList</text>
</a>
</g>
</g>
<!-- Node31&#45;&gt;Node32 -->
<g id="edge52" class="edge">
<title>Node31&#45;&gt;Node32</title>
<path fill="none" stroke="#9a32cd" stroke-dasharray="5,2" d="M78.26,-112.42C103.25,-106.88 134.12,-100.05 156.83,-95.01"/>
<polygon fill="#9a32cd" stroke="#9a32cd" points="77.31,-109.04 68.31,-114.62 78.83,-115.88 77.31,-109.04"/>
<text text-anchor="middle" x="106" y="-124" font-family="Helvetica,sans-Serif" font-size="10.00"> mHead</text>
<text text-anchor="middle" x="106" y="-113" font-family="Helvetica,sans-Serif" font-size="10.00">mTail</text>
</g>
<!-- Node32&#45;&gt;Node31 -->
<g id="edge51" class="edge">
<title>Node32&#45;&gt;Node31</title>
<path fill="none" stroke="#9a32cd" stroke-dasharray="5,2" d="M146.76,-83.19C127.84,-82.32 105.41,-83.16 86,-89 70.65,-93.61 55.55,-104.38 45.81,-112.37"/>
<polygon fill="#9a32cd" stroke="#9a32cd" points="146.67,-86.69 156.87,-83.82 147.11,-79.7 146.67,-86.69"/>
<text text-anchor="middle" x="106" y="-92" font-family="Helvetica,sans-Serif" font-size="10.00"> mList</text>
</g>
<!-- Node35 -->
<g id="node35" class="node">
<title>Node35</title>
<g id="a_node35"><a xlink:href="classJSUList.html" target="_top" xlink:title=" ">
<polygon fill="white" stroke="black" points="404.5,-69.5 404.5,-88.5 530.5,-88.5 530.5,-69.5 404.5,-69.5"/>
<text text-anchor="middle" x="467.5" y="-76.5" font-family="Helvetica,sans-Serif" font-size="10.00">JSUList&lt; JKRDisposer &gt;</text>
</a>
</g>
</g>
<!-- Node32&#45;&gt;Node35 -->
<g id="edge57" class="edge">
<title>Node32&#45;&gt;Node35</title>
<path fill="none" stroke="midnightblue" d="M232.31,-86.64C278.02,-85.15 351.76,-82.74 404.27,-81.03"/>
<polygon fill="midnightblue" stroke="midnightblue" points="232.04,-83.14 222.16,-86.97 232.27,-90.14 232.04,-83.14"/>
</g>
<!-- Node33 -->
<g id="node33" class="node">
<title>Node33</title>
<g id="a_node33"><a xlink:href="classJSUTree.html" target="_top" xlink:title=" ">
<polygon fill="white" stroke="black" points="410.5,-107.5 410.5,-126.5 524.5,-126.5 524.5,-107.5 410.5,-107.5"/>
<text text-anchor="middle" x="467.5" y="-114.5" font-family="Helvetica,sans-Serif" font-size="10.00">JSUTree&lt; JKRHeap &gt;</text>
</a>
</g>
</g>
<!-- Node33&#45;&gt;Node28 -->
<g id="edge54" class="edge">
<title>Node33&#45;&gt;Node28</title>
<path fill="none" stroke="#9a32cd" stroke-dasharray="5,2" d="M534.66,-107.11C561.23,-102.99 592.11,-98 620,-93 637.01,-89.95 655.98,-86.18 671.17,-83.06"/>
<polygon fill="#9a32cd" stroke="#9a32cd" points="534.06,-103.66 524.71,-108.65 535.13,-110.58 534.06,-103.66"/>
<text text-anchor="middle" x="587" y="-106" font-family="Helvetica,sans-Serif" font-size="10.00"> mChildTree</text>
</g>
<!-- Node34 -->
<g id="node34" class="node">
<title>Node34</title>
<g id="a_node34"><a xlink:href="structOSMutex.html" target="_top" xlink:title=" ">
<polygon fill="white" stroke="black" points="439,-31.5 439,-50.5 496,-50.5 496,-31.5 439,-31.5"/>
<text text-anchor="middle" x="467.5" y="-38.5" font-family="Helvetica,sans-Serif" font-size="10.00">OSMutex</text>
</a>
</g>
</g>
<!-- Node34&#45;&gt;Node28 -->
<g id="edge55" class="edge">
<title>Node34&#45;&gt;Node28</title>
<path fill="none" stroke="#9a32cd" stroke-dasharray="5,2" d="M506.46,-45.75C537.15,-49.72 581.44,-55.72 620,-62 637.02,-64.77 655.98,-68.31 671.18,-71.25"/>
<polygon fill="#9a32cd" stroke="#9a32cd" points="506.57,-42.24 496.2,-44.44 505.68,-49.18 506.57,-42.24"/>
<text text-anchor="middle" x="587" y="-65" font-family="Helvetica,sans-Serif" font-size="10.00"> mMutex</text>
</g>
<!-- Node35&#45;&gt;Node28 -->
<g id="edge56" class="edge">
<title>Node35&#45;&gt;Node28</title>
<path fill="none" stroke="#9a32cd" stroke-dasharray="5,2" d="M540.65,-78.38C584.75,-78 638.74,-77.53 671.2,-77.25"/>
<polygon fill="#9a32cd" stroke="#9a32cd" points="540.51,-74.88 530.54,-78.46 540.57,-81.88 540.51,-74.88"/>
<text text-anchor="middle" x="587" y="-81" font-family="Helvetica,sans-Serif" font-size="10.00"> mDisposerList</text>
</g>
<!-- Node36 -->
<g id="node36" class="node">
<title>Node36</title>
<g id="a_node36"><a xlink:href="structJKRSolidHeap_1_1Unknown.html" target="_top" xlink:title=" ">
<polygon fill="white" stroke="black" points="638,-0.5 638,-19.5 764,-19.5 764,-0.5 638,-0.5"/>
<text text-anchor="middle" x="701" y="-7.5" font-family="Helvetica,sans-Serif" font-size="10.00">JKRSolidHeap::Unknown</text>
</a>
</g>
</g>
<!-- Node36&#45;&gt;Node27 -->
<g id="edge58" class="edge">
<title>Node36&#45;&gt;Node27</title>
<path fill="none" stroke="#9a32cd" stroke-dasharray="5,2" d="M758.05,-21.62C811.6,-32.72 890.93,-49.16 937.95,-58.91"/>
<polygon fill="#9a32cd" stroke="#9a32cd" points="758.53,-18.14 748.03,-19.54 757.11,-25 758.53,-18.14"/>
<text text-anchor="middle" x="844.5" y="-54" font-family="Helvetica,sans-Serif" font-size="10.00"> field_0x78</text>
</g>
<!-- Node36&#45;&gt;Node36 -->
<g id="edge59" class="edge">
<title>Node36&#45;&gt;Node36</title>
<path fill="none" stroke="#9a32cd" stroke-dasharray="5,2" d="M679.89,-29.4C681.3,-34.31 688.34,-38 701,-38 721.26,-38 727.12,-28.57 718.57,-19.76"/>
<polygon fill="#9a32cd" stroke="#9a32cd" points="683.27,-30.35 683.43,-19.76 676.7,-27.94 683.27,-30.35"/>
<text text-anchor="middle" x="701" y="-41" font-family="Helvetica,sans-Serif" font-size="10.00"> mNext</text>
</g>
</g>
</svg>
