<?xml version="1.0" encoding="UTF-8" standalone="no"?>
<!DOCTYPE svg PUBLIC "-//W3C//DTD SVG 1.1//EN"
 "http://www.w3.org/Graphics/SVG/1.1/DTD/svg11.dtd">
<!-- Generated by graphviz version 2.44.0 ()
 -->
<!-- Title: Z2WolfHowlMgr Pages: 1 -->
<svg width="528pt" height="117pt"
 viewBox="0.00 0.00 528.00 117.00" xmlns="http://www.w3.org/2000/svg" xmlns:xlink="http://www.w3.org/1999/xlink">
<g id="graph0" class="graph" transform="scale(1 1) rotate(0) translate(4 113)">
<title>Z2WolfHowlMgr</title>
<polygon fill="white" stroke="transparent" points="-4,4 -4,-113 524,-113 524,4 -4,4"/>
<!-- Node1 -->
<g id="node1" class="node">
<title>Node1</title>
<g id="a_node1"><a xlink:title=" ">
<polygon fill="#bfbfbf" stroke="black" points="37,-0.5 37,-19.5 123,-19.5 123,-0.5 37,-0.5"/>
<text text-anchor="middle" x="80" y="-7.5" font-family="Helvetica,sans-Serif" font-size="10.00">Z2WolfHowlMgr</text>
</a>
</g>
</g>
<!-- Node2 -->
<g id="node2" class="node">
<title>Node2</title>
<g id="a_node2"><a xlink:href="structZ2WolfHowlData.html" target="_top" xlink:title=" ">
<polygon fill="white" stroke="black" points="0,-89.5 0,-108.5 90,-108.5 90,-89.5 0,-89.5"/>
<text text-anchor="middle" x="45" y="-96.5" font-family="Helvetica,sans-Serif" font-size="10.00">Z2WolfHowlData</text>
</a>
</g>
</g>
<!-- Node2&#45;&gt;Node1 -->
<g id="edge1" class="edge">
<title>Node2&#45;&gt;Node1</title>
<path fill="none" stroke="#9a32cd" stroke-dasharray="5,2" d="M41.33,-79.26C39.84,-66.91 39.72,-50.73 46,-38 49.8,-30.29 56.96,-24.1 63.73,-19.59"/>
<polygon fill="#9a32cd" stroke="#9a32cd" points="37.9,-79.99 42.94,-89.32 44.82,-78.89 37.9,-79.99"/>
<text text-anchor="middle" x="69" y="-52" font-family="Helvetica,sans-Serif" font-size="10.00"> field_0x0c</text>
</g>
<!-- Node3 -->
<g id="node3" class="node">
<title>Node3</title>
<g id="a_node3"><a xlink:href="classJAISoundHandle.html" target="_top" xlink:title=" ">
<polygon fill="white" stroke="black" points="138,-89.5 138,-108.5 228,-108.5 228,-89.5 138,-89.5"/>
<text text-anchor="middle" x="183" y="-96.5" font-family="Helvetica,sans-Serif" font-size="10.00">JAISoundHandle</text>
</a>
</g>
</g>
<!-- Node3&#45;&gt;Node1 -->
<g id="edge2" class="edge">
<title>Node3&#45;&gt;Node1</title>
<path fill="none" stroke="#9a32cd" stroke-dasharray="5,2" d="M139.63,-85.78C130.85,-81.99 122.14,-77.14 115,-71 106.41,-63.61 91.56,-34.71 84.28,-19.89"/>
<polygon fill="#9a32cd" stroke="#9a32cd" points="138.51,-89.11 149.1,-89.49 141.06,-82.59 138.51,-89.11"/>
<text text-anchor="middle" x="138" y="-63" font-family="Helvetica,sans-Serif" font-size="10.00"> field_0x00</text>
<text text-anchor="middle" x="138" y="-52" font-family="Helvetica,sans-Serif" font-size="10.00">field_0x04</text>
<text text-anchor="middle" x="138" y="-41" font-family="Helvetica,sans-Serif" font-size="10.00">field_0x08</text>
</g>
<!-- Node4 -->
<g id="node4" class="node">
<title>Node4</title>
<g id="a_node4"><a xlink:href="classJAISound.html" target="_top" xlink:title=" ">
<polygon fill="white" stroke="black" points="269.5,-0.5 269.5,-19.5 328.5,-19.5 328.5,-0.5 269.5,-0.5"/>
<text text-anchor="middle" x="299" y="-7.5" font-family="Helvetica,sans-Serif" font-size="10.00">JAISound</text>
</a>
</g>
</g>
<!-- Node3&#45;&gt;Node4 -->
<g id="edge7" class="edge">
<title>Node3&#45;&gt;Node4</title>
<path fill="none" stroke="#9a32cd" stroke-dasharray="5,2" d="M176.14,-79.41C172.66,-66.44 170.85,-49.46 180,-38 190.97,-24.26 237.75,-16.99 269.29,-13.57"/>
<polygon fill="#9a32cd" stroke="#9a32cd" points="172.88,-80.7 179.27,-89.15 179.55,-78.56 172.88,-80.7"/>
<text text-anchor="middle" x="195.5" y="-52" font-family="Helvetica,sans-Serif" font-size="10.00"> handle</text>
</g>
<!-- Node4&#45;&gt;Node3 -->
<g id="edge3" class="edge">
<title>Node4&#45;&gt;Node3</title>
<path fill="none" stroke="#9a32cd" stroke-dasharray="5,2" d="M273.79,-24.67C266.89,-28.72 259.51,-33.32 253,-38 234.83,-51.05 231.99,-56.45 215,-71 207.82,-77.15 199.68,-84.01 193.41,-89.28"/>
<polygon fill="#9a32cd" stroke="#9a32cd" points="275.83,-27.54 282.79,-19.55 272.37,-21.45 275.83,-27.54"/>
<text text-anchor="middle" x="272.5" y="-52" font-family="Helvetica,sans-Serif" font-size="10.00"> mSound</text>
</g>
<!-- Node5 -->
<g id="node5" class="node">
<title>Node5</title>
<g id="a_node5"><a xlink:href="structJAISoundParams.html" target="_top" xlink:title=" ">
<polygon fill="white" stroke="black" points="249.5,-89.5 249.5,-108.5 342.5,-108.5 342.5,-89.5 249.5,-89.5"/>
<text text-anchor="middle" x="296" y="-96.5" font-family="Helvetica,sans-Serif" font-size="10.00">JAISoundParams</text>
</a>
</g>
</g>
<!-- Node5&#45;&gt;Node4 -->
<g id="edge4" class="edge">
<title>Node5&#45;&gt;Node4</title>
<path fill="none" stroke="#9a32cd" stroke-dasharray="5,2" d="M296.65,-79.19C297.28,-60.74 298.23,-33.41 298.7,-19.62"/>
<polygon fill="#9a32cd" stroke="#9a32cd" points="293.15,-79.23 296.3,-89.34 300.14,-79.47 293.15,-79.23"/>
<text text-anchor="middle" x="315.5" y="-52" font-family="Helvetica,sans-Serif" font-size="10.00"> params</text>
</g>
<!-- Node6 -->
<g id="node6" class="node">
<title>Node6</title>
<g id="a_node6"><a xlink:href="classJAISoundID.html" target="_top" xlink:title=" ">
<polygon fill="white" stroke="black" points="360.5,-89.5 360.5,-108.5 429.5,-108.5 429.5,-89.5 360.5,-89.5"/>
<text text-anchor="middle" x="395" y="-96.5" font-family="Helvetica,sans-Serif" font-size="10.00">JAISoundID</text>
</a>
</g>
</g>
<!-- Node6&#45;&gt;Node4 -->
<g id="edge5" class="edge">
<title>Node6&#45;&gt;Node4</title>
<path fill="none" stroke="#9a32cd" stroke-dasharray="5,2" d="M380.64,-81.57C369.34,-69.03 352.89,-51.66 337,-38 329.27,-31.35 319.94,-24.71 312.46,-19.67"/>
<polygon fill="#9a32cd" stroke="#9a32cd" points="378.31,-84.22 387.57,-89.37 383.55,-79.57 378.31,-84.22"/>
<text text-anchor="middle" x="390" y="-52" font-family="Helvetica,sans-Serif" font-size="10.00"> sound_id</text>
</g>
<!-- Node7 -->
<g id="node7" class="node">
<title>Node7</title>
<g id="a_node7"><a xlink:href="structJAIAudience.html" target="_top" xlink:title=" ">
<polygon fill="white" stroke="black" points="448,-89.5 448,-108.5 520,-108.5 520,-89.5 448,-89.5"/>
<text text-anchor="middle" x="484" y="-96.5" font-family="Helvetica,sans-Serif" font-size="10.00">JAIAudience</text>
</a>
</g>
</g>
<!-- Node7&#45;&gt;Node4 -->
<g id="edge6" class="edge">
<title>Node7&#45;&gt;Node4</title>
<path fill="none" stroke="#9a32cd" stroke-dasharray="5,2" d="M469.4,-81.43C456.44,-67.75 436.31,-48.88 415,-38 387.75,-24.08 353.23,-17.23 328.97,-13.93"/>
<polygon fill="#9a32cd" stroke="#9a32cd" points="467.15,-84.15 476.49,-89.15 472.31,-79.42 467.15,-84.15"/>
<text text-anchor="middle" x="479" y="-52" font-family="Helvetica,sans-Serif" font-size="10.00"> audience</text>
</g>
</g>
</svg>
