<?xml version="1.0" encoding="UTF-8" standalone="no"?>
<!DOCTYPE svg PUBLIC "-//W3C//DTD SVG 1.1//EN"
 "http://www.w3.org/Graphics/SVG/1.1/DTD/svg11.dtd">
<!-- Generated by graphviz version 2.44.0 ()
 -->
<!-- Title: dMdl_c Pages: 1 -->
<svg width="263pt" height="95pt"
 viewBox="0.00 0.00 263.00 95.00" xmlns="http://www.w3.org/2000/svg" xmlns:xlink="http://www.w3.org/1999/xlink">
<g id="graph0" class="graph" transform="scale(1 1) rotate(0) translate(4 91)">
<title>dMdl_c</title>
<polygon fill="white" stroke="transparent" points="-4,4 -4,-91 259,-91 259,4 -4,4"/>
<!-- Node1 -->
<g id="node1" class="node">
<title>Node1</title>
<g id="a_node1"><a xlink:title=" ">
<polygon fill="#bfbfbf" stroke="black" points="142,-0.5 142,-19.5 190,-19.5 190,-0.5 142,-0.5"/>
<text text-anchor="middle" x="166" y="-7.5" font-family="Helvetica,sans-Serif" font-size="10.00">dMdl_c</text>
</a>
</g>
</g>
<!-- Node2 -->
<g id="node2" class="node">
<title>Node2</title>
<g id="a_node2"><a xlink:href="classdMdl__obj__c.html" target="_top" xlink:title=" ">
<polygon fill="white" stroke="black" points="0,-67.5 0,-86.5 66,-86.5 66,-67.5 0,-67.5"/>
<text text-anchor="middle" x="33" y="-74.5" font-family="Helvetica,sans-Serif" font-size="10.00">dMdl_obj_c</text>
</a>
</g>
</g>
<!-- Node2&#45;&gt;Node1 -->
<g id="edge1" class="edge">
<title>Node2&#45;&gt;Node1</title>
<path fill="none" stroke="#9a32cd" stroke-dasharray="5,2" d="M59.72,-62.94C86.06,-50.07 125.57,-30.76 148.27,-19.67"/>
<polygon fill="#9a32cd" stroke="#9a32cd" points="58.11,-59.83 50.66,-67.37 61.18,-66.12 58.11,-59.83"/>
<text text-anchor="middle" x="143.5" y="-41" font-family="Helvetica,sans-Serif" font-size="10.00"> mpModelObject</text>
</g>
<!-- Node2&#45;&gt;Node2 -->
<g id="edge2" class="edge">
<title>Node2&#45;&gt;Node2</title>
<path fill="none" stroke="#9a32cd" stroke-dasharray="5,2" d="M76.65,-81.95C81.13,-80.97 84,-79.32 84,-77 84,-73.19 76.28,-71.19 66.35,-71.01"/>
<polygon fill="#9a32cd" stroke="#9a32cd" points="75.95,-78.5 66.35,-82.99 76.66,-85.46 75.95,-78.5"/>
<text text-anchor="middle" x="119.5" y="-74.5" font-family="Helvetica,sans-Serif" font-size="10.00"> mpModelObject</text>
</g>
<!-- Node3 -->
<g id="node3" class="node">
<title>Node3</title>
<g id="a_node3"><a xlink:href="structJ3DModelData.html" target="_top" xlink:title=" ">
<polygon fill="white" stroke="black" points="173,-67.5 173,-86.5 253,-86.5 253,-67.5 173,-67.5"/>
<text text-anchor="middle" x="213" y="-74.5" font-family="Helvetica,sans-Serif" font-size="10.00">J3DModelData</text>
</a>
</g>
</g>
<!-- Node3&#45;&gt;Node1 -->
<g id="edge3" class="edge">
<title>Node3&#45;&gt;Node1</title>
<path fill="none" stroke="#9a32cd" stroke-dasharray="5,2" d="M200.64,-58.9C191.51,-46.27 179.45,-29.6 172.24,-19.63"/>
<polygon fill="#9a32cd" stroke="#9a32cd" points="197.97,-61.18 206.66,-67.23 203.64,-57.08 197.97,-61.18"/>
<text text-anchor="middle" x="223.5" y="-41" font-family="Helvetica,sans-Serif" font-size="10.00"> mpModelData</text>
</g>
</g>
</svg>
