<?xml version="1.0" encoding="UTF-8" standalone="no"?>
<!DOCTYPE svg PUBLIC "-//W3C//DTD SVG 1.1//EN"
 "http://www.w3.org/Graphics/SVG/1.1/DTD/svg11.dtd">
<!-- Generated by graphviz version 2.44.0 ()
 -->
<!-- Title: dBgS_RoofChk Pages: 1 -->
<svg width="365pt" height="229pt"
 viewBox="0.00 0.00 364.50 229.00" xmlns="http://www.w3.org/2000/svg" xmlns:xlink="http://www.w3.org/1999/xlink">
<g id="graph0" class="graph" transform="scale(1 1) rotate(0) translate(4 225)">
<title>dBgS_RoofChk</title>
<polygon fill="white" stroke="transparent" points="-4,4 -4,-225 360.5,-225 360.5,4 -4,4"/>
<!-- Node1 -->
<g id="node1" class="node">
<title>Node1</title>
<g id="a_node1"><a xlink:title=" ">
<polygon fill="#bfbfbf" stroke="black" points="169,-0.5 169,-19.5 252,-19.5 252,-0.5 169,-0.5"/>
<text text-anchor="middle" x="210.5" y="-7.5" font-family="Helvetica,sans-Serif" font-size="10.00">dBgS_RoofChk</text>
</a>
</g>
</g>
<!-- Node2 -->
<g id="node2" class="node">
<title>Node2</title>
<g id="a_node2"><a xlink:href="classcBgS__Chk.html" target="_top" xlink:title=" ">
<polygon fill="white" stroke="black" points="0,-134.5 0,-153.5 63,-153.5 63,-134.5 0,-134.5"/>
<text text-anchor="middle" x="31.5" y="-141.5" font-family="Helvetica,sans-Serif" font-size="10.00">cBgS_Chk</text>
</a>
</g>
</g>
<!-- Node2&#45;&gt;Node1 -->
<g id="edge1" class="edge">
<title>Node2&#45;&gt;Node1</title>
<path fill="none" stroke="#9a32cd" stroke-dasharray="5,2" d="M36.35,-124.34C41.65,-107.32 51.71,-82.54 68.5,-67 96.51,-41.08 137.94,-26.6 168.83,-18.89"/>
<polygon fill="#9a32cd" stroke="#9a32cd" points="32.91,-123.65 33.53,-134.23 39.64,-125.57 32.91,-123.65"/>
<text text-anchor="middle" x="91.5" y="-74.5" font-family="Helvetica,sans-Serif" font-size="10.00"> field_0x10</text>
</g>
<!-- Node3 -->
<g id="node3" class="node">
<title>Node3</title>
<g id="a_node3"><a xlink:href="classcBgS__GrpPassChk.html" target="_top" xlink:title=" ">
<polygon fill="white" stroke="black" points="29,-201.5 29,-220.5 130,-220.5 130,-201.5 29,-201.5"/>
<text text-anchor="middle" x="79.5" y="-208.5" font-family="Helvetica,sans-Serif" font-size="10.00">cBgS_GrpPassChk</text>
</a>
</g>
</g>
<!-- Node3&#45;&gt;Node2 -->
<g id="edge2" class="edge">
<title>Node3&#45;&gt;Node2</title>
<path fill="none" stroke="#9a32cd" stroke-dasharray="5,2" d="M57.18,-195.19C52.89,-191.58 48.73,-187.47 45.5,-183 39.07,-174.11 35.28,-161.95 33.3,-153.8"/>
<polygon fill="#9a32cd" stroke="#9a32cd" points="55.32,-198.17 65.4,-201.44 59.56,-192.6 55.32,-198.17"/>
<text text-anchor="middle" x="79" y="-175" font-family="Helvetica,sans-Serif" font-size="10.00"> mGrpPassChk</text>
</g>
<!-- Node6 -->
<g id="node6" class="node">
<title>Node6</title>
<g id="a_node6"><a xlink:href="classdBgS__GrpPassChk.html" target="_top" xlink:title=" ">
<polygon fill="white" stroke="black" points="81,-134.5 81,-153.5 182,-153.5 182,-134.5 81,-134.5"/>
<text text-anchor="middle" x="131.5" y="-141.5" font-family="Helvetica,sans-Serif" font-size="10.00">dBgS_GrpPassChk</text>
</a>
</g>
</g>
<!-- Node3&#45;&gt;Node6 -->
<g id="edge6" class="edge">
<title>Node3&#45;&gt;Node6</title>
<path fill="none" stroke="midnightblue" d="M100.58,-195C104.84,-191.38 109.06,-187.3 112.5,-183 119.68,-174.01 125.17,-161.87 128.36,-153.75"/>
<polygon fill="midnightblue" stroke="midnightblue" points="98.21,-192.41 92.52,-201.35 102.54,-197.91 98.21,-192.41"/>
</g>
<!-- Node4 -->
<g id="node4" class="node">
<title>Node4</title>
<g id="a_node4"><a xlink:href="classcBgS__PolyPassChk.html" target="_top" xlink:title=" ">
<polygon fill="white" stroke="black" points="168.5,-201.5 168.5,-220.5 272.5,-220.5 272.5,-201.5 168.5,-201.5"/>
<text text-anchor="middle" x="220.5" y="-208.5" font-family="Helvetica,sans-Serif" font-size="10.00">cBgS_PolyPassChk</text>
</a>
</g>
</g>
<!-- Node4&#45;&gt;Node2 -->
<g id="edge3" class="edge">
<title>Node4&#45;&gt;Node2</title>
<path fill="none" stroke="#9a32cd" stroke-dasharray="5,2" d="M188.4,-197.87C167.9,-190.22 140.73,-180.27 116.5,-172 97.6,-165.55 76.16,-158.74 59.55,-153.58"/>
<polygon fill="#9a32cd" stroke="#9a32cd" points="187.28,-201.19 197.88,-201.42 189.74,-194.63 187.28,-201.19"/>
<text text-anchor="middle" x="180.5" y="-175" font-family="Helvetica,sans-Serif" font-size="10.00"> mPolyPassChk</text>
</g>
<!-- Node7 -->
<g id="node7" class="node">
<title>Node7</title>
<g id="a_node7"><a xlink:href="classdBgS__PolyPassChk.html" target="_top" xlink:title=" ">
<polygon fill="white" stroke="black" points="200.5,-134.5 200.5,-153.5 304.5,-153.5 304.5,-134.5 200.5,-134.5"/>
<text text-anchor="middle" x="252.5" y="-141.5" font-family="Helvetica,sans-Serif" font-size="10.00">dBgS_PolyPassChk</text>
</a>
</g>
</g>
<!-- Node4&#45;&gt;Node7 -->
<g id="edge8" class="edge">
<title>Node4&#45;&gt;Node7</title>
<path fill="none" stroke="midnightblue" d="M231.35,-192.47C233.15,-189.36 234.93,-186.11 236.5,-183 241.46,-173.16 246.24,-161.4 249.27,-153.6"/>
<polygon fill="midnightblue" stroke="midnightblue" points="228.28,-190.79 226.15,-201.17 234.29,-194.39 228.28,-190.79"/>
</g>
<!-- Node5 -->
<g id="node5" class="node">
<title>Node5</title>
<g id="a_node5"><a xlink:href="classdBgS__Chk.html" target="_top" xlink:title=" ">
<polygon fill="white" stroke="black" points="124,-67.5 124,-86.5 187,-86.5 187,-67.5 124,-67.5"/>
<text text-anchor="middle" x="155.5" y="-74.5" font-family="Helvetica,sans-Serif" font-size="10.00">dBgS_Chk</text>
</a>
</g>
</g>
<!-- Node5&#45;&gt;Node1 -->
<g id="edge4" class="edge">
<title>Node5&#45;&gt;Node1</title>
<path fill="none" stroke="#9a32cd" stroke-dasharray="5,2" d="M163.48,-58.2C166.95,-51.49 171.4,-44.03 176.5,-38 182.44,-30.98 190.44,-24.52 197.19,-19.68"/>
<polygon fill="#9a32cd" stroke="#9a32cd" points="160.31,-56.72 159.13,-67.24 166.62,-59.75 160.31,-56.72"/>
<text text-anchor="middle" x="199.5" y="-41" font-family="Helvetica,sans-Serif" font-size="10.00"> field_0x24</text>
</g>
<!-- Node6&#45;&gt;Node5 -->
<g id="edge5" class="edge">
<title>Node6&#45;&gt;Node5</title>
<path fill="none" stroke="#9a32cd" stroke-dasharray="5,2" d="M130.19,-124.01C130.36,-117.78 131.21,-110.93 133.5,-105 136.2,-98 141.44,-91.45 146.14,-86.55"/>
<polygon fill="#9a32cd" stroke="#9a32cd" points="126.7,-124.32 130.46,-134.23 133.7,-124.14 126.7,-124.32"/>
<text text-anchor="middle" x="175" y="-108" font-family="Helvetica,sans-Serif" font-size="10.00"> mGrpPassChkInfo</text>
</g>
<!-- Node7&#45;&gt;Node5 -->
<g id="edge7" class="edge">
<title>Node7&#45;&gt;Node5</title>
<path fill="none" stroke="#9a32cd" stroke-dasharray="5,2" d="M239.3,-126.33C232.97,-119.1 224.93,-110.95 216.5,-105 205.62,-97.32 192.2,-91.09 180.73,-86.56"/>
<polygon fill="#9a32cd" stroke="#9a32cd" points="236.77,-128.76 245.87,-134.2 242.15,-124.28 236.77,-128.76"/>
<text text-anchor="middle" x="272.5" y="-108" font-family="Helvetica,sans-Serif" font-size="10.00"> mPolyPassChkInfo</text>
</g>
<!-- Node8 -->
<g id="node8" class="node">
<title>Node8</title>
<g id="a_node8"><a xlink:href="classcBgS__PolyInfo.html" target="_top" xlink:title=" ">
<polygon fill="white" stroke="black" points="205,-67.5 205,-86.5 286,-86.5 286,-67.5 205,-67.5"/>
<text text-anchor="middle" x="245.5" y="-74.5" font-family="Helvetica,sans-Serif" font-size="10.00">cBgS_PolyInfo</text>
</a>
</g>
</g>
<!-- Node8&#45;&gt;Node1 -->
<g id="edge9" class="edge">
<title>Node8&#45;&gt;Node1</title>
<path fill="none" stroke="#9a32cd" stroke-dasharray="5,2" d="M235.9,-58.16C229.15,-45.63 220.41,-29.41 215.15,-19.63"/>
<polygon fill="#9a32cd" stroke="#9a32cd" points="232.96,-60.09 240.78,-67.23 239.12,-56.77 232.96,-60.09"/>
<text text-anchor="middle" x="253.5" y="-41" font-family="Helvetica,sans-Serif" font-size="10.00"> field_0x00</text>
</g>
<!-- Node9 -->
<g id="node9" class="node">
<title>Node9</title>
<g id="a_node9"><a xlink:href="classcXyz.html" target="_top" xlink:title=" ">
<polygon fill="white" stroke="black" points="315.5,-67.5 315.5,-86.5 353.5,-86.5 353.5,-67.5 315.5,-67.5"/>
<text text-anchor="middle" x="334.5" y="-74.5" font-family="Helvetica,sans-Serif" font-size="10.00">cXyz</text>
</a>
</g>
</g>
<!-- Node9&#45;&gt;Node1 -->
<g id="edge10" class="edge">
<title>Node9&#45;&gt;Node1</title>
<path fill="none" stroke="#9a32cd" stroke-dasharray="5,2" d="M315.79,-61.12C305.72,-53.56 292.86,-44.6 280.5,-38 266.71,-30.63 250.47,-24.24 237.1,-19.53"/>
<polygon fill="#9a32cd" stroke="#9a32cd" points="313.78,-63.99 323.84,-67.31 318.05,-58.44 313.78,-63.99"/>
<text text-anchor="middle" x="314.5" y="-41" font-family="Helvetica,sans-Serif" font-size="10.00"> m_pos</text>
</g>
<!-- Node10 -->
<g id="node10" class="node">
<title>Node10</title>
<g id="a_node10"><a xlink:href="structVec.html" target="_top" xlink:title=" ">
<polygon fill="white" stroke="black" points="322.5,-134.5 322.5,-153.5 356.5,-153.5 356.5,-134.5 322.5,-134.5"/>
<text text-anchor="middle" x="339.5" y="-141.5" font-family="Helvetica,sans-Serif" font-size="10.00">Vec</text>
</a>
</g>
</g>
<!-- Node10&#45;&gt;Node9 -->
<g id="edge11" class="edge">
<title>Node10&#45;&gt;Node9</title>
<path fill="none" stroke="midnightblue" d="M338.04,-124.04C337.09,-111.67 335.89,-96.12 335.16,-86.63"/>
<polygon fill="midnightblue" stroke="midnightblue" points="334.57,-124.53 338.83,-134.23 341.55,-123.99 334.57,-124.53"/>
</g>
</g>
</svg>
