<?xml version="1.0" encoding="UTF-8" standalone="no"?>
<!DOCTYPE svg PUBLIC "-//W3C//DTD SVG 1.1//EN"
 "http://www.w3.org/Graphics/SVG/1.1/DTD/svg11.dtd">
<!-- Generated by graphviz version 2.44.0 ()
 -->
<!-- Title: dMsgFlow_c Pages: 1 -->
<svg width="1699pt" height="872pt"
 viewBox="0.00 0.00 1699.00 872.00" xmlns="http://www.w3.org/2000/svg" xmlns:xlink="http://www.w3.org/1999/xlink">
<g id="graph0" class="graph" transform="scale(1 1) rotate(0) translate(4 868)">
<title>dMsgFlow_c</title>
<polygon fill="white" stroke="transparent" points="-4,4 -4,-868 1695,-868 1695,4 -4,4"/>
<!-- Node1 -->
<g id="node1" class="node">
<title>Node1</title>
<g id="a_node1"><a xlink:title=" ">
<polygon fill="#bfbfbf" stroke="black" points="1387.5,-193.5 1387.5,-212.5 1459.5,-212.5 1459.5,-193.5 1387.5,-193.5"/>
<text text-anchor="middle" x="1423.5" y="-200.5" font-family="Helvetica,sans-Serif" font-size="10.00">dMsgFlow_c</text>
</a>
</g>
</g>
<!-- Node2 -->
<g id="node2" class="node">
<title>Node2</title>
<g id="a_node2"><a xlink:href="classfopAc__ac__c.html" target="_top" xlink:title=" ">
<polygon fill="white" stroke="black" points="1168.5,-193.5 1168.5,-212.5 1236.5,-212.5 1236.5,-193.5 1168.5,-193.5"/>
<text text-anchor="middle" x="1202.5" y="-200.5" font-family="Helvetica,sans-Serif" font-size="10.00">fopAc_ac_c</text>
</a>
</g>
</g>
<!-- Node2&#45;&gt;Node1 -->
<g id="edge1" class="edge">
<title>Node2&#45;&gt;Node1</title>
<path fill="none" stroke="#9a32cd" stroke-dasharray="5,2" d="M1246.78,-203C1287.99,-203 1349.24,-203 1387.47,-203"/>
<polygon fill="#9a32cd" stroke="#9a32cd" points="1246.76,-199.5 1236.76,-203 1246.76,-206.5 1246.76,-199.5"/>
<text text-anchor="middle" x="1311" y="-206" font-family="Helvetica,sans-Serif" font-size="10.00"> field_0x14</text>
</g>
<!-- Node3 -->
<g id="node3" class="node">
<title>Node3</title>
<g id="a_node3"><a xlink:href="structbase__process__class.html" target="_top" xlink:title=" ">
<polygon fill="white" stroke="black" points="925,-601.5 925,-620.5 1031,-620.5 1031,-601.5 925,-601.5"/>
<text text-anchor="middle" x="978" y="-608.5" font-family="Helvetica,sans-Serif" font-size="10.00">base_process_class</text>
</a>
</g>
</g>
<!-- Node3&#45;&gt;Node2 -->
<g id="edge2" class="edge">
<title>Node3&#45;&gt;Node2</title>
<path fill="none" stroke="midnightblue" d="M995.88,-594C1007.78,-580.93 1022.97,-561.8 1031,-542 1055.23,-482.23 1014.04,-452.2 1049,-398 1071.6,-362.96 1100.85,-379.76 1129,-349 1134.13,-343.39 1181.78,-244.22 1196.91,-212.6"/>
<polygon fill="midnightblue" stroke="midnightblue" points="993.3,-591.63 988.99,-601.31 998.4,-596.44 993.3,-591.63"/>
</g>
<!-- Node14 -->
<g id="node14" class="node">
<title>Node14</title>
<g id="a_node14"><a xlink:href="structprocess__node__class.html" target="_top" xlink:title=" ">
<polygon fill="white" stroke="black" points="1149.5,-433.5 1149.5,-452.5 1255.5,-452.5 1255.5,-433.5 1149.5,-433.5"/>
<text text-anchor="middle" x="1202.5" y="-440.5" font-family="Helvetica,sans-Serif" font-size="10.00">process_node_class</text>
</a>
</g>
</g>
<!-- Node3&#45;&gt;Node14 -->
<g id="edge18" class="edge">
<title>Node3&#45;&gt;Node14</title>
<path fill="none" stroke="#9a32cd" stroke-dasharray="5,2" d="M994.17,-593.52C1007.73,-578.43 1028.55,-556.52 1049,-540 1094.4,-503.32 1154.33,-468.74 1183.71,-452.56"/>
<polygon fill="#9a32cd" stroke="#9a32cd" points="991.45,-591.31 987.44,-601.12 996.69,-595.95 991.45,-591.31"/>
<text text-anchor="middle" x="1089" y="-543" font-family="Helvetica,sans-Serif" font-size="10.00"> mBase</text>
</g>
<!-- Node18 -->
<g id="node18" class="node">
<title>Node18</title>
<g id="a_node18"><a xlink:href="structcreate__request.html" target="_top" xlink:title=" ">
<polygon fill="white" stroke="black" points="1592,-694.5 1592,-713.5 1673,-713.5 1673,-694.5 1592,-694.5"/>
<text text-anchor="middle" x="1632.5" y="-701.5" font-family="Helvetica,sans-Serif" font-size="10.00">create_request</text>
</a>
</g>
</g>
<!-- Node3&#45;&gt;Node18 -->
<g id="edge31" class="edge">
<title>Node3&#45;&gt;Node18</title>
<path fill="none" stroke="#9a32cd" stroke-dasharray="5,2" d="M1041.37,-620.85C1043.95,-621.24 1046.5,-621.63 1049,-622 1253.04,-652.39 1497.76,-685.88 1591.92,-698.65"/>
<polygon fill="#9a32cd" stroke="#9a32cd" points="1041.77,-617.37 1031.35,-619.32 1040.71,-624.29 1041.77,-617.37"/>
<text text-anchor="middle" x="1311" y="-667" font-family="Helvetica,sans-Serif" font-size="10.00"> mpRes</text>
</g>
<!-- Node4 -->
<g id="node4" class="node">
<title>Node4</title>
<g id="a_node4"><a xlink:href="structprocess__priority__class.html" target="_top" xlink:title=" ">
<polygon fill="white" stroke="black" points="644.5,-698.5 644.5,-717.5 757.5,-717.5 757.5,-698.5 644.5,-698.5"/>
<text text-anchor="middle" x="701" y="-705.5" font-family="Helvetica,sans-Serif" font-size="10.00">process_priority_class</text>
</a>
</g>
</g>
<!-- Node4&#45;&gt;Node3 -->
<g id="edge3" class="edge">
<title>Node4&#45;&gt;Node3</title>
<path fill="none" stroke="#9a32cd" stroke-dasharray="5,2" d="M767.95,-709.94C809.75,-708.67 863.87,-702.27 907,-681 935.67,-666.86 959.63,-636.31 970.59,-620.67"/>
<polygon fill="#9a32cd" stroke="#9a32cd" points="767.79,-706.45 757.87,-710.16 767.94,-713.44 767.79,-706.45"/>
<text text-anchor="middle" x="844.5" y="-712" font-family="Helvetica,sans-Serif" font-size="10.00"> mPi</text>
</g>
<!-- Node5 -->
<g id="node5" class="node">
<title>Node5</title>
<g id="a_node5"><a xlink:href="structprocess__priority__queue__info.html" target="_top" xlink:title=" ">
<polygon fill="white" stroke="black" points="399,-655.5 399,-674.5 536,-674.5 536,-655.5 399,-655.5"/>
<text text-anchor="middle" x="467.5" y="-662.5" font-family="Helvetica,sans-Serif" font-size="10.00">process_priority_queue_info</text>
</a>
</g>
</g>
<!-- Node5&#45;&gt;Node4 -->
<g id="edge4" class="edge">
<title>Node5&#45;&gt;Node4</title>
<path fill="none" stroke="#9a32cd" stroke-dasharray="5,2" d="M546.38,-665.29C570.24,-666.68 596.41,-669.51 620,-675 622.98,-675.69 654.6,-688.88 677.18,-698.37"/>
<polygon fill="#9a32cd" stroke="#9a32cd" points="546.47,-661.79 536.31,-664.79 546.12,-668.79 546.47,-661.79"/>
<text text-anchor="middle" x="587" y="-689" font-family="Helvetica,sans-Serif" font-size="10.00"> mInfoCurr</text>
<text text-anchor="middle" x="587" y="-678" font-family="Helvetica,sans-Serif" font-size="10.00">mInfoQ</text>
</g>
<!-- Node6 -->
<g id="node6" class="node">
<title>Node6</title>
<g id="a_node6"><a xlink:href="structcreate__tag__class.html" target="_top" xlink:title=" ">
<polygon fill="white" stroke="black" points="144,-617.5 144,-636.5 235,-636.5 235,-617.5 144,-617.5"/>
<text text-anchor="middle" x="189.5" y="-624.5" font-family="Helvetica,sans-Serif" font-size="10.00">create_tag_class</text>
</a>
</g>
</g>
<!-- Node6&#45;&gt;Node4 -->
<g id="edge5" class="edge">
<title>Node6&#45;&gt;Node4</title>
<path fill="none" stroke="#9a32cd" stroke-dasharray="5,2" d="M227.06,-639.84C235.53,-642.67 244.55,-645.54 253,-648 317.17,-666.66 333.05,-673.17 399,-684 467.22,-695.2 485.09,-691.51 554,-697 583.77,-699.37 616.97,-701.88 644.18,-703.91"/>
<polygon fill="#9a32cd" stroke="#9a32cd" points="228.01,-636.47 217.42,-636.59 225.77,-643.1 228.01,-636.47"/>
<text text-anchor="middle" x="467.5" y="-698" font-family="Helvetica,sans-Serif" font-size="10.00"> mBase</text>
</g>
<!-- Node8 -->
<g id="node8" class="node">
<title>Node8</title>
<g id="a_node8"><a xlink:href="structprocess__method__tag__class.html" target="_top" xlink:title=" ">
<polygon fill="white" stroke="black" points="414,-741 414,-771 521,-771 521,-741 414,-741"/>
<text text-anchor="start" x="422" y="-759" font-family="Helvetica,sans-Serif" font-size="10.00">process_method_tag</text>
<text text-anchor="middle" x="467.5" y="-748" font-family="Helvetica,sans-Serif" font-size="10.00">_class</text>
</a>
</g>
</g>
<!-- Node6&#45;&gt;Node8 -->
<g id="edge9" class="edge">
<title>Node6&#45;&gt;Node8</title>
<path fill="none" stroke="#9a32cd" stroke-dasharray="5,2" d="M197.16,-646.42C206.07,-669.25 224.17,-706.38 253,-725 300.98,-756 367.56,-761.07 413.55,-760.1"/>
<polygon fill="#9a32cd" stroke="#9a32cd" points="200.35,-644.96 193.61,-636.78 193.78,-647.37 200.35,-644.96"/>
<text text-anchor="middle" x="317" y="-762" font-family="Helvetica,sans-Serif" font-size="10.00"> mCreateTag</text>
</g>
<!-- Node9 -->
<g id="node9" class="node">
<title>Node9</title>
<g id="a_node9"><a xlink:href="structline__tag.html" target="_top" xlink:title=" ">
<polygon fill="white" stroke="black" points="562,-631.5 562,-650.5 612,-650.5 612,-631.5 562,-631.5"/>
<text text-anchor="middle" x="587" y="-638.5" font-family="Helvetica,sans-Serif" font-size="10.00">line_tag</text>
</a>
</g>
</g>
<!-- Node6&#45;&gt;Node9 -->
<g id="edge11" class="edge">
<title>Node6&#45;&gt;Node9</title>
<path fill="none" stroke="#9a32cd" stroke-dasharray="5,2" d="M245.32,-628.94C332.45,-632.02 499.08,-637.92 561.55,-640.13"/>
<polygon fill="#9a32cd" stroke="#9a32cd" points="245.22,-625.43 235.1,-628.58 244.97,-632.43 245.22,-625.43"/>
<text text-anchor="middle" x="317" y="-636" font-family="Helvetica,sans-Serif" font-size="10.00"> mBase</text>
</g>
<!-- Node12 -->
<g id="node12" class="node">
<title>Node12</title>
<g id="a_node12"><a xlink:href="structlayer__management__tag__class.html" target="_top" xlink:title=" ">
<polygon fill="white" stroke="black" points="1574,-474 1574,-504 1691,-504 1691,-474 1574,-474"/>
<text text-anchor="start" x="1582" y="-492" font-family="Helvetica,sans-Serif" font-size="10.00">layer_management_tag</text>
<text text-anchor="middle" x="1632.5" y="-481" font-family="Helvetica,sans-Serif" font-size="10.00">_class</text>
</a>
</g>
</g>
<!-- Node6&#45;&gt;Node12 -->
<g id="edge15" class="edge">
<title>Node6&#45;&gt;Node12</title>
<path fill="none" stroke="#9a32cd" stroke-dasharray="5,2" d="M203.08,-609.16C238.52,-561.18 344.62,-433 466.5,-433 466.5,-433 466.5,-433 845.5,-433 928.42,-433 962.64,-406.07 1031,-453 1045.42,-462.9 1034.08,-478.88 1049,-488 1092.92,-514.85 1435.51,-499.62 1573.85,-492.26"/>
<polygon fill="#9a32cd" stroke="#9a32cd" points="200.15,-607.23 197.12,-617.38 205.82,-611.34 200.15,-607.23"/>
<text text-anchor="middle" x="978" y="-456" font-family="Helvetica,sans-Serif" font-size="10.00"> mCreateTag</text>
</g>
<!-- Node20 -->
<g id="node20" class="node">
<title>Node20</title>
<g id="a_node20"><a xlink:href="structcreate__tag.html" target="_top" xlink:title=" ">
<polygon fill="white" stroke="black" points="813.5,-804.5 813.5,-823.5 875.5,-823.5 875.5,-804.5 813.5,-804.5"/>
<text text-anchor="middle" x="844.5" y="-811.5" font-family="Helvetica,sans-Serif" font-size="10.00">create_tag</text>
</a>
</g>
</g>
<!-- Node6&#45;&gt;Node20 -->
<g id="edge35" class="edge">
<title>Node6&#45;&gt;Node20</title>
<path fill="none" stroke="#9a32cd" stroke-dasharray="5,2" d="M192.47,-646.75C196.88,-679.39 210.75,-743.95 253,-774 430.73,-900.4 719.66,-844.7 813.23,-821.97"/>
<polygon fill="#9a32cd" stroke="#9a32cd" points="195.92,-646.17 191.27,-636.65 188.97,-646.99 195.92,-646.17"/>
<text text-anchor="middle" x="467.5" y="-856" font-family="Helvetica,sans-Serif" font-size="10.00"> mBase</text>
</g>
<!-- Node21 -->
<g id="node21" class="node">
<title>Node21</title>
<g id="a_node21"><a xlink:href="structdelete__tag__class.html" target="_top" xlink:title=" ">
<polygon fill="white" stroke="black" points="1587.5,-563.5 1587.5,-582.5 1677.5,-582.5 1677.5,-563.5 1587.5,-563.5"/>
<text text-anchor="middle" x="1632.5" y="-570.5" font-family="Helvetica,sans-Serif" font-size="10.00">delete_tag_class</text>
</a>
</g>
</g>
<!-- Node6&#45;&gt;Node21 -->
<g id="edge37" class="edge">
<title>Node6&#45;&gt;Node21</title>
<path fill="none" stroke="#9a32cd" stroke-dasharray="5,2" d="M226.38,-614.06C267.55,-599.65 337.35,-576.63 399,-563 503.7,-539.86 531.55,-542.89 638,-530 701.88,-522.27 717.74,-518.34 782,-515 1001.75,-503.59 1056.65,-530.48 1276,-548 1388.09,-556.95 1520.21,-565.79 1587.42,-570.17"/>
<polygon fill="#9a32cd" stroke="#9a32cd" points="225.06,-610.81 216.79,-617.43 227.39,-617.41 225.06,-610.81"/>
<text text-anchor="middle" x="978" y="-523" font-family="Helvetica,sans-Serif" font-size="10.00"> mBase</text>
</g>
<!-- Node7 -->
<g id="node7" class="node">
<title>Node7</title>
<g id="a_node7"><a xlink:href="structnode__class.html" target="_top" xlink:title=" ">
<polygon fill="white" stroke="black" points="1,-349.5 1,-368.5 67,-368.5 67,-349.5 1,-349.5"/>
<text text-anchor="middle" x="34" y="-356.5" font-family="Helvetica,sans-Serif" font-size="10.00">node_class</text>
</a>
</g>
</g>
<!-- Node7&#45;&gt;Node6 -->
<g id="edge6" class="edge">
<title>Node7&#45;&gt;Node6</title>
<path fill="none" stroke="#9a32cd" stroke-dasharray="5,2" d="M45.54,-377.4C75.49,-429.68 160.39,-577.92 182.94,-617.3"/>
<polygon fill="#9a32cd" stroke="#9a32cd" points="48.47,-375.48 40.46,-368.54 42.4,-378.96 48.47,-375.48"/>
<text text-anchor="middle" x="106" y="-520" font-family="Helvetica,sans-Serif" font-size="10.00"> mpNode</text>
</g>
<!-- Node7&#45;&gt;Node7 -->
<g id="edge7" class="edge">
<title>Node7&#45;&gt;Node7</title>
<path fill="none" stroke="#9a32cd" stroke-dasharray="5,2" d="M20.74,-378.77C21.78,-383.5 26.2,-387 34,-387 46.8,-387 50.5,-377.57 45.1,-368.76"/>
<polygon fill="#9a32cd" stroke="#9a32cd" points="24.21,-379.27 22.9,-368.76 17.37,-377.79 24.21,-379.27"/>
<text text-anchor="middle" x="34" y="-401" font-family="Helvetica,sans-Serif" font-size="10.00"> mpNextNode</text>
<text text-anchor="middle" x="34" y="-390" font-family="Helvetica,sans-Serif" font-size="10.00">mpPrevNode</text>
</g>
<!-- Node13 -->
<g id="node13" class="node">
<title>Node13</title>
<g id="a_node13"><a xlink:href="structlayer__class.html" target="_top" xlink:title=" ">
<polygon fill="white" stroke="black" points="1391,-421.5 1391,-440.5 1456,-440.5 1456,-421.5 1391,-421.5"/>
<text text-anchor="middle" x="1423.5" y="-428.5" font-family="Helvetica,sans-Serif" font-size="10.00">layer_class</text>
</a>
</g>
</g>
<!-- Node7&#45;&gt;Node13 -->
<g id="edge27" class="edge">
<title>Node7&#45;&gt;Node13</title>
<path fill="none" stroke="#9a32cd" stroke-dasharray="5,2" d="M57.17,-344C86.08,-325.94 138.82,-298 188.5,-298 188.5,-298 188.5,-298 1203.5,-298 1268.82,-298 1291.19,-298.46 1346,-334 1381.27,-356.87 1407.38,-401.58 1417.68,-421.28"/>
<polygon fill="#9a32cd" stroke="#9a32cd" points="55.18,-341.12 48.66,-349.47 58.97,-347.01 55.18,-341.12"/>
<text text-anchor="middle" x="701" y="-301" font-family="Helvetica,sans-Serif" font-size="10.00"> mNode</text>
</g>
<!-- Node15 -->
<g id="node15" class="node">
<title>Node15</title>
<g id="a_node15"><a xlink:href="structnode__list__class.html" target="_top" xlink:title=" ">
<polygon fill="white" stroke="black" points="936,-349.5 936,-368.5 1020,-368.5 1020,-349.5 936,-349.5"/>
<text text-anchor="middle" x="978" y="-356.5" font-family="Helvetica,sans-Serif" font-size="10.00">node_list_class</text>
</a>
</g>
</g>
<!-- Node7&#45;&gt;Node15 -->
<g id="edge21" class="edge">
<title>Node7&#45;&gt;Node15</title>
<path fill="none" stroke="#9a32cd" stroke-dasharray="5,2" d="M77.42,-359C108.24,-359 150.95,-359 188.5,-359 188.5,-359 188.5,-359 702,-359 784.83,-359 881.7,-359 935.54,-359"/>
<polygon fill="#9a32cd" stroke="#9a32cd" points="77.05,-355.5 67.05,-359 77.05,-362.5 77.05,-355.5"/>
<text text-anchor="middle" x="467.5" y="-373" font-family="Helvetica,sans-Serif" font-size="10.00"> mpHead</text>
<text text-anchor="middle" x="467.5" y="-362" font-family="Helvetica,sans-Serif" font-size="10.00">mpTail</text>
</g>
<!-- Node8&#45;&gt;Node4 -->
<g id="edge8" class="edge">
<title>Node8&#45;&gt;Node4</title>
<path fill="none" stroke="#9a32cd" stroke-dasharray="5,2" d="M531.16,-743.01C569.89,-734.98 618.76,-724.84 653.94,-717.55"/>
<polygon fill="#9a32cd" stroke="#9a32cd" points="530.11,-739.65 521.03,-745.11 531.53,-746.5 530.11,-739.65"/>
<text text-anchor="middle" x="587" y="-740" font-family="Helvetica,sans-Serif" font-size="10.00"> mMtdTag</text>
</g>
<!-- Node8&#45;&gt;Node18 -->
<g id="edge32" class="edge">
<title>Node8&#45;&gt;Node18</title>
<path fill="none" stroke="#9a32cd" stroke-dasharray="5,2" d="M531.54,-761.87C578.05,-765.71 642.91,-770 700,-770 700,-770 700,-770 1424.5,-770 1497.87,-770 1579.24,-731.9 1614.1,-713.6"/>
<polygon fill="#9a32cd" stroke="#9a32cd" points="531.57,-758.36 521.31,-761.01 530.98,-765.34 531.57,-758.36"/>
<text text-anchor="middle" x="1089" y="-773" font-family="Helvetica,sans-Serif" font-size="10.00"> mMtdTg</text>
</g>
<!-- Node9&#45;&gt;Node3 -->
<g id="edge10" class="edge">
<title>Node9&#45;&gt;Node3</title>
<path fill="none" stroke="#9a32cd" stroke-dasharray="5,2" d="M622.48,-643.52C681.36,-647.07 804.83,-651.24 907,-633 922.3,-630.27 938.91,-625.14 952.12,-620.53"/>
<polygon fill="#9a32cd" stroke="#9a32cd" points="622.46,-640.01 612.26,-642.87 622.02,-647 622.46,-640.01"/>
<text text-anchor="middle" x="701" y="-649" font-family="Helvetica,sans-Serif" font-size="10.00"> mLnTg</text>
</g>
<!-- Node10 -->
<g id="node10" class="node">
<title>Node10</title>
<g id="a_node10"><a xlink:href="structprocess__profile__definition.html" target="_top" xlink:title=" ">
<polygon fill="white" stroke="black" points="638.5,-611.5 638.5,-630.5 763.5,-630.5 763.5,-611.5 638.5,-611.5"/>
<text text-anchor="middle" x="701" y="-618.5" font-family="Helvetica,sans-Serif" font-size="10.00">process_profile_definition</text>
</a>
</g>
</g>
<!-- Node10&#45;&gt;Node3 -->
<g id="edge12" class="edge">
<title>Node10&#45;&gt;Node3</title>
<path fill="none" stroke="#9a32cd" stroke-dasharray="5,2" d="M773.9,-618.39C821.2,-616.67 882.03,-614.45 924.74,-612.9"/>
<polygon fill="#9a32cd" stroke="#9a32cd" points="773.58,-614.89 763.72,-618.76 773.84,-621.89 773.58,-614.89"/>
<text text-anchor="middle" x="844.5" y="-621" font-family="Helvetica,sans-Serif" font-size="10.00"> mpProf</text>
</g>
<!-- Node11 -->
<g id="node11" class="node">
<title>Node11</title>
<g id="a_node11"><a xlink:href="structprocess__method__class.html" target="_top" xlink:title=" ">
<polygon fill="white" stroke="black" points="409,-572.5 409,-591.5 526,-591.5 526,-572.5 409,-572.5"/>
<text text-anchor="middle" x="467.5" y="-579.5" font-family="Helvetica,sans-Serif" font-size="10.00">process_method_class</text>
</a>
</g>
</g>
<!-- Node11&#45;&gt;Node3 -->
<g id="edge28" class="edge">
<title>Node11&#45;&gt;Node3</title>
<path fill="none" stroke="#9a32cd" stroke-dasharray="5,2" d="M536.12,-582.85C596.05,-583.88 685.91,-586.15 764,-591 819.05,-594.42 881.91,-600.6 924.99,-605.19"/>
<polygon fill="#9a32cd" stroke="#9a32cd" points="536.08,-579.34 526.03,-582.68 535.97,-586.34 536.08,-579.34"/>
<text text-anchor="middle" x="701" y="-594" font-family="Helvetica,sans-Serif" font-size="10.00"> mpPcMtd</text>
</g>
<!-- Node11&#45;&gt;Node10 -->
<g id="edge13" class="edge">
<title>Node11&#45;&gt;Node10</title>
<path fill="none" stroke="#9a32cd" stroke-dasharray="5,2" d="M535.07,-593.22C569.4,-599 610.81,-605.97 643.55,-611.49"/>
<polygon fill="#9a32cd" stroke="#9a32cd" points="535.57,-589.75 525.13,-591.54 534.41,-596.65 535.57,-589.75"/>
<text text-anchor="middle" x="587" y="-610" font-family="Helvetica,sans-Serif" font-size="10.00"> mpPcMtd</text>
</g>
<!-- Node16 -->
<g id="node16" class="node">
<title>Node16</title>
<g id="a_node16"><a xlink:href="structnodedraw__method__class.html" target="_top" xlink:title=" ">
<polygon fill="white" stroke="black" points="782,-522.5 782,-541.5 907,-541.5 907,-522.5 782,-522.5"/>
<text text-anchor="middle" x="844.5" y="-529.5" font-family="Helvetica,sans-Serif" font-size="10.00">nodedraw_method_class</text>
</a>
</g>
</g>
<!-- Node11&#45;&gt;Node16 -->
<g id="edge23" class="edge">
<title>Node11&#45;&gt;Node16</title>
<path fill="none" stroke="#9a32cd" stroke-dasharray="5,2" d="M505.73,-569.37C520.58,-564.79 537.94,-560.01 554,-557 631.72,-542.43 722.8,-536.33 781.75,-533.79"/>
<polygon fill="#9a32cd" stroke="#9a32cd" points="504.36,-566.13 495.89,-572.48 506.48,-572.8 504.36,-566.13"/>
<text text-anchor="middle" x="587" y="-560" font-family="Helvetica,sans-Serif" font-size="10.00"> mBase</text>
</g>
<!-- Node12&#45;&gt;Node3 -->
<g id="edge14" class="edge">
<title>Node12&#45;&gt;Node3</title>
<path fill="none" stroke="#9a32cd" stroke-dasharray="5,2" d="M1563.6,-501.7C1432.33,-526.24 1146.42,-579.7 1029.93,-601.48"/>
<polygon fill="#9a32cd" stroke="#9a32cd" points="1564.35,-505.12 1573.54,-499.84 1563.07,-498.23 1564.35,-505.12"/>
<text text-anchor="middle" x="1311" y="-557" font-family="Helvetica,sans-Serif" font-size="10.00"> mLyTg</text>
</g>
<!-- Node13&#45;&gt;Node12 -->
<g id="edge16" class="edge">
<title>Node13&#45;&gt;Node12</title>
<path fill="none" stroke="#9a32cd" stroke-dasharray="5,2" d="M1465.92,-440.56C1491.92,-446.77 1526.07,-455.3 1556,-464 1566.34,-467.01 1577.39,-470.5 1587.76,-473.91"/>
<polygon fill="#9a32cd" stroke="#9a32cd" points="1466.57,-437.12 1456.03,-438.22 1464.95,-443.93 1466.57,-437.12"/>
<text text-anchor="middle" x="1528.5" y="-467" font-family="Helvetica,sans-Serif" font-size="10.00"> mpLayer</text>
</g>
<!-- Node13&#45;&gt;Node14 -->
<g id="edge19" class="edge">
<title>Node13&#45;&gt;Node14</title>
<path fill="none" stroke="#9a32cd" stroke-dasharray="5,2" d="M1380.67,-433.29C1345.12,-435.24 1293.91,-438.05 1255.68,-440.14"/>
<polygon fill="#9a32cd" stroke="#9a32cd" points="1380.92,-436.78 1390.72,-432.74 1380.54,-429.79 1380.92,-436.78"/>
<text text-anchor="middle" x="1311" y="-441" font-family="Helvetica,sans-Serif" font-size="10.00"> mLayer</text>
</g>
<!-- Node13&#45;&gt;Node18 -->
<g id="edge33" class="edge">
<title>Node13&#45;&gt;Node18</title>
<path fill="none" stroke="#9a32cd" stroke-dasharray="5,2" d="M1437.65,-448.63C1452.86,-468.99 1478.66,-503.48 1501,-533 1547.64,-594.65 1604.18,-668.4 1624.11,-694.38"/>
<polygon fill="#9a32cd" stroke="#9a32cd" points="1440.43,-446.5 1431.65,-440.58 1434.82,-450.69 1440.43,-446.5"/>
<text text-anchor="middle" x="1528.5" y="-606" font-family="Helvetica,sans-Serif" font-size="10.00"> mpLayer</text>
</g>
<!-- Node13&#45;&gt;Node21 -->
<g id="edge38" class="edge">
<title>Node13&#45;&gt;Node21</title>
<path fill="none" stroke="#9a32cd" stroke-dasharray="5,2" d="M1446.73,-446.25C1489.48,-475.57 1582.03,-539.07 1617.38,-563.32"/>
<polygon fill="#9a32cd" stroke="#9a32cd" points="1448.63,-443.31 1438.4,-440.54 1444.67,-449.08 1448.63,-443.31"/>
<text text-anchor="middle" x="1528.5" y="-521" font-family="Helvetica,sans-Serif" font-size="10.00"> mpLayer</text>
</g>
<!-- Node14&#45;&gt;Node13 -->
<g id="edge17" class="edge">
<title>Node14&#45;&gt;Node13</title>
<path fill="none" stroke="#9a32cd" stroke-dasharray="5,2" d="M1239.36,-430.45C1250.9,-426.99 1263.86,-423.72 1276,-422 1315.36,-416.41 1361.15,-420.98 1390.92,-425.4"/>
<polygon fill="#9a32cd" stroke="#9a32cd" points="1238.12,-427.17 1229.62,-433.5 1240.21,-433.85 1238.12,-427.17"/>
<text text-anchor="middle" x="1311" y="-425" font-family="Helvetica,sans-Serif" font-size="10.00"> mpPcNode</text>
</g>
<!-- Node15&#45;&gt;Node13 -->
<g id="edge26" class="edge">
<title>Node15&#45;&gt;Node13</title>
<path fill="none" stroke="#9a32cd" stroke-dasharray="5,2" d="M1030.15,-365.9C1101.21,-375.7 1233.71,-394.71 1346,-415 1360.82,-417.68 1377.17,-421.04 1390.94,-423.99"/>
<polygon fill="#9a32cd" stroke="#9a32cd" points="1030.51,-362.42 1020.13,-364.53 1029.56,-369.35 1030.51,-362.42"/>
<text text-anchor="middle" x="1202.5" y="-402" font-family="Helvetica,sans-Serif" font-size="10.00"> mCancelList</text>
</g>
<!-- Node15&#45;&gt;Node14 -->
<g id="edge20" class="edge">
<title>Node15&#45;&gt;Node14</title>
<path fill="none" stroke="#9a32cd" stroke-dasharray="5,2" d="M1013.9,-372.18C1059.01,-389.21 1136.48,-418.45 1176.27,-433.48"/>
<polygon fill="#9a32cd" stroke="#9a32cd" points="1015.12,-368.89 1004.52,-368.64 1012.64,-375.44 1015.12,-368.89"/>
<text text-anchor="middle" x="1089" y="-416" font-family="Helvetica,sans-Serif" font-size="10.00"> mLayerNodeLists</text>
</g>
<!-- Node17 -->
<g id="node17" class="node">
<title>Node17</title>
<g id="a_node17"><a xlink:href="structnode__lists__tree__class.html" target="_top" xlink:title=" ">
<polygon fill="white" stroke="black" points="1147,-326.5 1147,-345.5 1258,-345.5 1258,-326.5 1147,-326.5"/>
<text text-anchor="middle" x="1202.5" y="-333.5" font-family="Helvetica,sans-Serif" font-size="10.00">node_lists_tree_class</text>
</a>
</g>
</g>
<!-- Node15&#45;&gt;Node17 -->
<g id="edge25" class="edge">
<title>Node15&#45;&gt;Node17</title>
<path fill="none" stroke="#9a32cd" stroke-dasharray="5,2" d="M1009.5,-345.54C1021.56,-340.91 1035.69,-336.31 1049,-334 1081.09,-328.44 1117.55,-328.69 1146.77,-330.44"/>
<polygon fill="#9a32cd" stroke="#9a32cd" points="1007.9,-342.41 999.93,-349.39 1010.52,-348.91 1007.9,-342.41"/>
<text text-anchor="middle" x="1089" y="-337" font-family="Helvetica,sans-Serif" font-size="10.00"> mpLists</text>
</g>
<!-- Node16&#45;&gt;Node14 -->
<g id="edge22" class="edge">
<title>Node16&#45;&gt;Node14</title>
<path fill="none" stroke="#9a32cd" stroke-dasharray="5,2" d="M871.15,-517.61C886.39,-509.6 906.32,-500.07 925,-494 1001.02,-469.3 1092.92,-455.33 1149.28,-448.47"/>
<polygon fill="#9a32cd" stroke="#9a32cd" points="869.48,-514.53 862.33,-522.34 872.79,-520.7 869.48,-514.53"/>
<text text-anchor="middle" x="978" y="-497" font-family="Helvetica,sans-Serif" font-size="10.00"> mpNodeMtd</text>
</g>
<!-- Node17&#45;&gt;Node13 -->
<g id="edge24" class="edge">
<title>Node17&#45;&gt;Node13</title>
<path fill="none" stroke="#9a32cd" stroke-dasharray="5,2" d="M1268.51,-337.13C1293.75,-339.69 1322.24,-345.3 1346,-357 1377.17,-372.35 1403.81,-405.06 1415.77,-421.36"/>
<polygon fill="#9a32cd" stroke="#9a32cd" points="1268.55,-333.62 1258.28,-336.23 1267.94,-340.59 1268.55,-333.62"/>
<text text-anchor="middle" x="1311" y="-360" font-family="Helvetica,sans-Serif" font-size="10.00"> mNodeListTree</text>
</g>
<!-- Node18&#45;&gt;Node3 -->
<g id="edge29" class="edge">
<title>Node18&#45;&gt;Node3</title>
<path fill="none" stroke="#9a32cd" stroke-dasharray="5,2" d="M1581.79,-703.3C1459.5,-701.06 1146.86,-692.07 1049,-658 1025.5,-649.82 1002.34,-631.78 989.44,-620.58"/>
<polygon fill="#9a32cd" stroke="#9a32cd" points="1581.93,-706.8 1591.99,-703.48 1582.05,-699.8 1581.93,-706.8"/>
<text text-anchor="middle" x="1311" y="-697" font-family="Helvetica,sans-Serif" font-size="10.00"> mpCtRq</text>
</g>
<!-- Node19 -->
<g id="node19" class="node">
<title>Node19</title>
<g id="a_node19"><a xlink:href="structcreate__request__method__class.html" target="_top" xlink:title=" ">
<polygon fill="white" stroke="black" points="1364,-711 1364,-741 1483,-741 1483,-711 1364,-711"/>
<text text-anchor="start" x="1372" y="-729" font-family="Helvetica,sans-Serif" font-size="10.00">create_request_method</text>
<text text-anchor="middle" x="1423.5" y="-718" font-family="Helvetica,sans-Serif" font-size="10.00">_class</text>
</a>
</g>
</g>
<!-- Node19&#45;&gt;Node18 -->
<g id="edge30" class="edge">
<title>Node19&#45;&gt;Node18</title>
<path fill="none" stroke="#9a32cd" stroke-dasharray="5,2" d="M1493.25,-718.69C1526.02,-715.21 1564.06,-711.17 1591.93,-708.21"/>
<polygon fill="#9a32cd" stroke="#9a32cd" points="1492.84,-715.22 1483.26,-719.75 1493.58,-722.18 1492.84,-715.22"/>
<text text-anchor="middle" x="1528.5" y="-720" font-family="Helvetica,sans-Serif" font-size="10.00"> mpCtRqMtd</text>
</g>
<!-- Node20&#45;&gt;Node18 -->
<g id="edge34" class="edge">
<title>Node20&#45;&gt;Node18</title>
<path fill="none" stroke="#9a32cd" stroke-dasharray="5,2" d="M885.75,-814.53C933.86,-815.13 1016.81,-816 1088,-816 1088,-816 1088,-816 1424.5,-816 1484.65,-816 1504,-814.23 1556,-784 1587.37,-765.77 1613.76,-730.53 1625.29,-713.57"/>
<polygon fill="#9a32cd" stroke="#9a32cd" points="885.79,-811.04 875.74,-814.41 885.7,-818.03 885.79,-811.04"/>
<text text-anchor="middle" x="1202.5" y="-819" font-family="Helvetica,sans-Serif" font-size="10.00"> mBase</text>
</g>
<!-- Node21&#45;&gt;Node3 -->
<g id="edge36" class="edge">
<title>Node21&#45;&gt;Node3</title>
<path fill="none" stroke="#9a32cd" stroke-dasharray="5,2" d="M1577.03,-581.58C1569.97,-582.51 1562.82,-583.35 1556,-584 1363.09,-602.52 1132.63,-608.47 1031.24,-610.27"/>
<polygon fill="#9a32cd" stroke="#9a32cd" points="1577.84,-585.01 1587.27,-580.18 1576.89,-578.07 1577.84,-585.01"/>
<text text-anchor="middle" x="1311" y="-605" font-family="Helvetica,sans-Serif" font-size="10.00"> mDtTg</text>
</g>
<!-- Node22 -->
<g id="node22" class="node">
<title>Node22</title>
<g id="a_node22"><a xlink:href="classcsXyz.html" target="_top" xlink:title=" ">
<polygon fill="white" stroke="black" points="956.5,-175.5 956.5,-194.5 999.5,-194.5 999.5,-175.5 956.5,-175.5"/>
<text text-anchor="middle" x="978" y="-182.5" font-family="Helvetica,sans-Serif" font-size="10.00">csXyz</text>
</a>
</g>
</g>
<!-- Node22&#45;&gt;Node2 -->
<g id="edge39" class="edge">
<title>Node22&#45;&gt;Node2</title>
<path fill="none" stroke="#9a32cd" stroke-dasharray="5,2" d="M1010.34,-183.96C1040.77,-183.34 1088.2,-183.41 1129,-188 1141.9,-189.45 1155.91,-192.09 1168.14,-194.76"/>
<polygon fill="#9a32cd" stroke="#9a32cd" points="1009.86,-180.47 999.95,-184.21 1010.03,-187.46 1009.86,-180.47"/>
<text text-anchor="middle" x="1089" y="-191" font-family="Helvetica,sans-Serif" font-size="10.00"> mAngle</text>
</g>
<!-- Node23 -->
<g id="node23" class="node">
<title>Node23</title>
<g id="a_node23"><a xlink:href="structSVec.html" target="_top" xlink:title=" ">
<polygon fill="white" stroke="black" points="680.5,-175.5 680.5,-194.5 721.5,-194.5 721.5,-175.5 680.5,-175.5"/>
<text text-anchor="middle" x="701" y="-182.5" font-family="Helvetica,sans-Serif" font-size="10.00">SVec</text>
</a>
</g>
</g>
<!-- Node23&#45;&gt;Node22 -->
<g id="edge40" class="edge">
<title>Node23&#45;&gt;Node22</title>
<path fill="none" stroke="midnightblue" d="M731.8,-185C787.93,-185 908.02,-185 956.28,-185"/>
<polygon fill="midnightblue" stroke="midnightblue" points="731.78,-181.5 721.78,-185 731.78,-188.5 731.78,-181.5"/>
</g>
<!-- Node24 -->
<g id="node24" class="node">
<title>Node24</title>
<g id="a_node24"><a xlink:href="classcXyz.html" target="_top" xlink:title=" ">
<polygon fill="white" stroke="black" points="959,-16.5 959,-35.5 997,-35.5 997,-16.5 959,-16.5"/>
<text text-anchor="middle" x="978" y="-23.5" font-family="Helvetica,sans-Serif" font-size="10.00">cXyz</text>
</a>
</g>
</g>
<!-- Node24&#45;&gt;Node2 -->
<g id="edge41" class="edge">
<title>Node24&#45;&gt;Node2</title>
<path fill="none" stroke="#9a32cd" stroke-dasharray="5,2" d="M1001.49,-41.32C1010.69,-47.65 1021.4,-55.11 1031,-62 1075.11,-93.68 1087.35,-100.14 1129,-135 1152.56,-154.71 1178.41,-179.89 1191.97,-193.4"/>
<polygon fill="#9a32cd" stroke="#9a32cd" points="1003.44,-38.42 993.22,-35.65 999.49,-44.19 1003.44,-38.42"/>
<text text-anchor="middle" x="1089" y="-171" font-family="Helvetica,sans-Serif" font-size="10.00"> mCullMax</text>
<text text-anchor="middle" x="1089" y="-160" font-family="Helvetica,sans-Serif" font-size="10.00">mCullMin</text>
<text text-anchor="middle" x="1089" y="-149" font-family="Helvetica,sans-Serif" font-size="10.00">mPosition</text>
<text text-anchor="middle" x="1089" y="-138" font-family="Helvetica,sans-Serif" font-size="10.00">mSpeed</text>
</g>
<!-- Node25 -->
<g id="node25" class="node">
<title>Node25</title>
<g id="a_node25"><a xlink:href="structVec.html" target="_top" xlink:title=" ">
<polygon fill="white" stroke="black" points="684,-0.5 684,-19.5 718,-19.5 718,-0.5 684,-0.5"/>
<text text-anchor="middle" x="701" y="-7.5" font-family="Helvetica,sans-Serif" font-size="10.00">Vec</text>
</a>
</g>
</g>
<!-- Node25&#45;&gt;Node24 -->
<g id="edge42" class="edge">
<title>Node25&#45;&gt;Node24</title>
<path fill="none" stroke="midnightblue" d="M728.49,-11.54C784.08,-14.78 911.65,-22.2 958.94,-24.95"/>
<polygon fill="midnightblue" stroke="midnightblue" points="728.57,-8.04 718.38,-10.95 728.16,-15.03 728.57,-8.04"/>
</g>
<!-- Node26 -->
<g id="node26" class="node">
<title>Node26</title>
<g id="a_node26"><a xlink:href="classJKRSolidHeap.html" target="_top" xlink:title=" ">
<polygon fill="white" stroke="black" points="938,-213.5 938,-232.5 1018,-232.5 1018,-213.5 938,-213.5"/>
<text text-anchor="middle" x="978" y="-220.5" font-family="Helvetica,sans-Serif" font-size="10.00">JKRSolidHeap</text>
</a>
</g>
</g>
<!-- Node26&#45;&gt;Node2 -->
<g id="edge43" class="edge">
<title>Node26&#45;&gt;Node2</title>
<path fill="none" stroke="#9a32cd" stroke-dasharray="5,2" d="M1028.16,-218.58C1070.77,-214.75 1131.24,-209.32 1168.34,-205.98"/>
<polygon fill="#9a32cd" stroke="#9a32cd" points="1027.66,-215.11 1018.01,-219.49 1028.28,-222.08 1027.66,-215.11"/>
<text text-anchor="middle" x="1089" y="-219" font-family="Helvetica,sans-Serif" font-size="10.00"> unk_0x0F0</text>
</g>
<!-- Node27 -->
<g id="node27" class="node">
<title>Node27</title>
<g id="a_node27"><a xlink:href="classJKRHeap.html" target="_top" xlink:title=" ">
<polygon fill="white" stroke="black" points="671.5,-86.5 671.5,-105.5 730.5,-105.5 730.5,-86.5 671.5,-86.5"/>
<text text-anchor="middle" x="701" y="-93.5" font-family="Helvetica,sans-Serif" font-size="10.00">JKRHeap</text>
</a>
</g>
</g>
<!-- Node27&#45;&gt;Node26 -->
<g id="edge44" class="edge">
<title>Node27&#45;&gt;Node26</title>
<path fill="none" stroke="midnightblue" d="M729.17,-110.26C770.76,-131.84 852.98,-173.49 925,-204 932.79,-207.3 941.37,-210.57 949.27,-213.45"/>
<polygon fill="midnightblue" stroke="midnightblue" points="730.7,-107.11 720.21,-105.6 727.47,-113.32 730.7,-107.11"/>
</g>
<!-- Node27&#45;&gt;Node27 -->
<g id="edge52" class="edge">
<title>Node27&#45;&gt;Node27</title>
<path fill="none" stroke="#9a32cd" stroke-dasharray="5,2" d="M679.89,-115.4C681.3,-120.31 688.34,-124 701,-124 721.26,-124 727.12,-114.57 718.57,-105.76"/>
<polygon fill="#9a32cd" stroke="#9a32cd" points="683.27,-116.35 683.43,-105.76 676.7,-113.94 683.27,-116.35"/>
<text text-anchor="middle" x="701" y="-149" font-family="Helvetica,sans-Serif" font-size="10.00"> sCurrentHeap</text>
<text text-anchor="middle" x="701" y="-138" font-family="Helvetica,sans-Serif" font-size="10.00">sRootHeap</text>
<text text-anchor="middle" x="701" y="-127" font-family="Helvetica,sans-Serif" font-size="10.00">sSystemHeap</text>
</g>
<!-- Node28 -->
<g id="node28" class="node">
<title>Node28</title>
<g id="a_node28"><a xlink:href="classJKRDisposer.html" target="_top" xlink:title=" ">
<polygon fill="white" stroke="black" points="941,-71.5 941,-90.5 1015,-90.5 1015,-71.5 941,-71.5"/>
<text text-anchor="middle" x="978" y="-78.5" font-family="Helvetica,sans-Serif" font-size="10.00">JKRDisposer</text>
</a>
</g>
</g>
<!-- Node27&#45;&gt;Node28 -->
<g id="edge46" class="edge">
<title>Node27&#45;&gt;Node28</title>
<path fill="none" stroke="#9a32cd" stroke-dasharray="5,2" d="M740.72,-86.66C753.76,-83.94 768.43,-81.34 782,-80 837.29,-74.53 851.45,-79.6 907,-80 917.94,-80.08 929.84,-80.22 940.67,-80.38"/>
<polygon fill="#9a32cd" stroke="#9a32cd" points="739.71,-83.29 730.68,-88.84 741.19,-90.13 739.71,-83.29"/>
<text text-anchor="middle" x="844.5" y="-83" font-family="Helvetica,sans-Serif" font-size="10.00"> mHeap</text>
</g>
<!-- Node28&#45;&gt;Node27 -->
<g id="edge45" class="edge">
<title>Node28&#45;&gt;Node27</title>
<path fill="none" stroke="midnightblue" d="M930.93,-89.94C922.98,-91.19 914.77,-92.28 907,-93 844.27,-98.8 770.28,-98.01 730.6,-96.98"/>
<polygon fill="midnightblue" stroke="midnightblue" points="931.52,-93.39 940.81,-88.3 930.37,-86.49 931.52,-93.39"/>
</g>
<!-- Node29 -->
<g id="node29" class="node">
<title>Node29</title>
<g id="a_node29"><a xlink:href="classJSULink.html" target="_top" xlink:title=" ">
<polygon fill="white" stroke="black" points="253,-42.5 253,-61.5 381,-61.5 381,-42.5 253,-42.5"/>
<text text-anchor="middle" x="317" y="-49.5" font-family="Helvetica,sans-Serif" font-size="10.00">JSULink&lt; JKRDisposer &gt;</text>
</a>
</g>
</g>
<!-- Node29&#45;&gt;Node28 -->
<g id="edge47" class="edge">
<title>Node29&#45;&gt;Node28</title>
<path fill="none" stroke="#9a32cd" stroke-dasharray="5,2" d="M391.39,-53.27C502.89,-55.54 721.63,-61.28 907,-74 917.97,-74.75 929.87,-75.84 940.7,-76.94"/>
<polygon fill="#9a32cd" stroke="#9a32cd" points="391.33,-49.77 381.26,-53.07 391.19,-56.77 391.33,-49.77"/>
<text text-anchor="middle" x="587" y="-63" font-family="Helvetica,sans-Serif" font-size="10.00"> mLink</text>
</g>
<!-- Node30 -->
<g id="node30" class="node">
<title>Node30</title>
<g id="a_node30"><a xlink:href="classJSUPtrLink.html" target="_top" xlink:title=" ">
<polygon fill="white" stroke="black" points="0,-77.5 0,-96.5 68,-96.5 68,-77.5 0,-77.5"/>
<text text-anchor="middle" x="34" y="-84.5" font-family="Helvetica,sans-Serif" font-size="10.00">JSUPtrLink</text>
</a>
</g>
</g>
<!-- Node30&#45;&gt;Node29 -->
<g id="edge48" class="edge">
<title>Node30&#45;&gt;Node29</title>
<path fill="none" stroke="midnightblue" d="M78.28,-81.01C80.89,-80.67 83.48,-80.33 86,-80 142.25,-72.72 206.31,-64.96 252.51,-59.47"/>
<polygon fill="midnightblue" stroke="midnightblue" points="77.63,-77.57 68.19,-82.37 78.56,-84.51 77.63,-77.57"/>
</g>
<!-- Node30&#45;&gt;Node30 -->
<g id="edge49" class="edge">
<title>Node30&#45;&gt;Node30</title>
<path fill="none" stroke="#9a32cd" stroke-dasharray="5,2" d="M20.74,-106.77C21.78,-111.5 26.2,-115 34,-115 46.8,-115 50.5,-105.57 45.1,-96.76"/>
<polygon fill="#9a32cd" stroke="#9a32cd" points="24.21,-107.27 22.9,-96.76 17.37,-105.79 24.21,-107.27"/>
<text text-anchor="middle" x="34" y="-129" font-family="Helvetica,sans-Serif" font-size="10.00"> mNext</text>
<text text-anchor="middle" x="34" y="-118" font-family="Helvetica,sans-Serif" font-size="10.00">mPrev</text>
</g>
<!-- Node31 -->
<g id="node31" class="node">
<title>Node31</title>
<g id="a_node31"><a xlink:href="classJSUPtrList.html" target="_top" xlink:title=" ">
<polygon fill="white" stroke="black" points="157,-111.5 157,-130.5 222,-130.5 222,-111.5 157,-111.5"/>
<text text-anchor="middle" x="189.5" y="-118.5" font-family="Helvetica,sans-Serif" font-size="10.00">JSUPtrList</text>
</a>
</g>
</g>
<!-- Node30&#45;&gt;Node31 -->
<g id="edge51" class="edge">
<title>Node30&#45;&gt;Node31</title>
<path fill="none" stroke="#9a32cd" stroke-dasharray="5,2" d="M77.99,-97.18C80.7,-97.8 83.39,-98.41 86,-99 109.62,-104.31 136.36,-110.04 156.61,-114.32"/>
<polygon fill="#9a32cd" stroke="#9a32cd" points="78.71,-93.75 68.17,-94.91 77.13,-100.57 78.71,-93.75"/>
<text text-anchor="middle" x="106" y="-122" font-family="Helvetica,sans-Serif" font-size="10.00"> mHead</text>
<text text-anchor="middle" x="106" y="-111" font-family="Helvetica,sans-Serif" font-size="10.00">mTail</text>
</g>
<!-- Node31&#45;&gt;Node30 -->
<g id="edge50" class="edge">
<title>Node31&#45;&gt;Node30</title>
<path fill="none" stroke="#9a32cd" stroke-dasharray="5,2" d="M166.39,-106.01C154.88,-99.09 140.27,-91.62 126,-88 107.32,-83.26 85.77,-82.81 68.34,-83.64"/>
<polygon fill="#9a32cd" stroke="#9a32cd" points="164.56,-108.99 174.89,-111.36 168.29,-103.07 164.56,-108.99"/>
<text text-anchor="middle" x="106" y="-91" font-family="Helvetica,sans-Serif" font-size="10.00"> mList</text>
</g>
<!-- Node34 -->
<g id="node34" class="node">
<title>Node34</title>
<g id="a_node34"><a xlink:href="classJSUList.html" target="_top" xlink:title=" ">
<polygon fill="white" stroke="black" points="404.5,-114.5 404.5,-133.5 530.5,-133.5 530.5,-114.5 404.5,-114.5"/>
<text text-anchor="middle" x="467.5" y="-121.5" font-family="Helvetica,sans-Serif" font-size="10.00">JSUList&lt; JKRDisposer &gt;</text>
</a>
</g>
</g>
<!-- Node31&#45;&gt;Node34 -->
<g id="edge56" class="edge">
<title>Node31&#45;&gt;Node34</title>
<path fill="none" stroke="midnightblue" d="M232.31,-121.45C278.02,-121.95 351.76,-122.75 404.27,-123.32"/>
<polygon fill="midnightblue" stroke="midnightblue" points="232.2,-117.95 222.16,-121.34 232.12,-124.95 232.2,-117.95"/>
</g>
<!-- Node32 -->
<g id="node32" class="node">
<title>Node32</title>
<g id="a_node32"><a xlink:href="classJSUTree.html" target="_top" xlink:title=" ">
<polygon fill="white" stroke="black" points="410.5,-76.5 410.5,-95.5 524.5,-95.5 524.5,-76.5 410.5,-76.5"/>
<text text-anchor="middle" x="467.5" y="-83.5" font-family="Helvetica,sans-Serif" font-size="10.00">JSUTree&lt; JKRHeap &gt;</text>
</a>
</g>
</g>
<!-- Node32&#45;&gt;Node27 -->
<g id="edge53" class="edge">
<title>Node32&#45;&gt;Node27</title>
<path fill="none" stroke="#9a32cd" stroke-dasharray="5,2" d="M534.95,-86.35C561.43,-86.74 592.17,-87.51 620,-89 636.98,-89.91 655.95,-91.54 671.15,-93"/>
<polygon fill="#9a32cd" stroke="#9a32cd" points="534.7,-82.84 524.65,-86.21 534.6,-89.84 534.7,-82.84"/>
<text text-anchor="middle" x="587" y="-92" font-family="Helvetica,sans-Serif" font-size="10.00"> mChildTree</text>
</g>
<!-- Node33 -->
<g id="node33" class="node">
<title>Node33</title>
<g id="a_node33"><a xlink:href="structOSMutex.html" target="_top" xlink:title=" ">
<polygon fill="white" stroke="black" points="439,-152.5 439,-171.5 496,-171.5 496,-152.5 439,-152.5"/>
<text text-anchor="middle" x="467.5" y="-159.5" font-family="Helvetica,sans-Serif" font-size="10.00">OSMutex</text>
</a>
</g>
</g>
<!-- Node33&#45;&gt;Node27 -->
<g id="edge54" class="edge">
<title>Node33&#45;&gt;Node27</title>
<path fill="none" stroke="#9a32cd" stroke-dasharray="5,2" d="M506.18,-155.71C537.13,-150.09 581.91,-140.9 620,-129 640.79,-122.5 663.7,-112.78 679.65,-105.57"/>
<polygon fill="#9a32cd" stroke="#9a32cd" points="505.48,-152.28 496.25,-157.48 506.71,-159.17 505.48,-152.28"/>
<text text-anchor="middle" x="587" y="-150" font-family="Helvetica,sans-Serif" font-size="10.00"> mMutex</text>
</g>
<!-- Node34&#45;&gt;Node27 -->
<g id="edge55" class="edge">
<title>Node34&#45;&gt;Node27</title>
<path fill="none" stroke="#9a32cd" stroke-dasharray="5,2" d="M540.65,-115.27C584.75,-109.94 638.74,-103.41 671.2,-99.48"/>
<polygon fill="#9a32cd" stroke="#9a32cd" points="540.05,-111.82 530.54,-116.5 540.89,-118.77 540.05,-111.82"/>
<text text-anchor="middle" x="587" y="-117" font-family="Helvetica,sans-Serif" font-size="10.00"> mDisposerList</text>
</g>
<!-- Node35 -->
<g id="node35" class="node">
<title>Node35</title>
<g id="a_node35"><a xlink:href="structJKRSolidHeap_1_1Unknown.html" target="_top" xlink:title=" ">
<polygon fill="white" stroke="black" points="638,-213.5 638,-232.5 764,-232.5 764,-213.5 638,-213.5"/>
<text text-anchor="middle" x="701" y="-220.5" font-family="Helvetica,sans-Serif" font-size="10.00">JKRSolidHeap::Unknown</text>
</a>
</g>
</g>
<!-- Node35&#45;&gt;Node26 -->
<g id="edge57" class="edge">
<title>Node35&#45;&gt;Node26</title>
<path fill="none" stroke="#9a32cd" stroke-dasharray="5,2" d="M774.28,-223C826.55,-223 895.19,-223 937.68,-223"/>
<polygon fill="#9a32cd" stroke="#9a32cd" points="774.06,-219.5 764.06,-223 774.06,-226.5 774.06,-219.5"/>
<text text-anchor="middle" x="844.5" y="-226" font-family="Helvetica,sans-Serif" font-size="10.00"> field_0x78</text>
</g>
<!-- Node35&#45;&gt;Node35 -->
<g id="edge58" class="edge">
<title>Node35&#45;&gt;Node35</title>
<path fill="none" stroke="#9a32cd" stroke-dasharray="5,2" d="M679.89,-242.4C681.3,-247.31 688.34,-251 701,-251 721.26,-251 727.12,-241.57 718.57,-232.76"/>
<polygon fill="#9a32cd" stroke="#9a32cd" points="683.27,-243.35 683.43,-232.76 676.7,-240.94 683.27,-243.35"/>
<text text-anchor="middle" x="701" y="-254" font-family="Helvetica,sans-Serif" font-size="10.00"> mNext</text>
</g>
</g>
</svg>
