<?xml version="1.0" encoding="UTF-8" standalone="no"?>
<!DOCTYPE svg PUBLIC "-//W3C//DTD SVG 1.1//EN"
 "http://www.w3.org/Graphics/SVG/1.1/DTD/svg11.dtd">
<!-- Generated by graphviz version 2.44.0 ()
 -->
<!-- Title: daAlink_blur_c Pages: 1 -->
<svg width="217pt" height="176pt"
 viewBox="0.00 0.00 216.50 176.00" xmlns="http://www.w3.org/2000/svg" xmlns:xlink="http://www.w3.org/1999/xlink">
<g id="graph0" class="graph" transform="scale(1 1) rotate(0) translate(4 172)">
<title>daAlink_blur_c</title>
<polygon fill="white" stroke="transparent" points="-4,4 -4,-172 212.5,-172 212.5,4 -4,4"/>
<!-- Node1 -->
<g id="node1" class="node">
<title>Node1</title>
<g id="a_node1"><a xlink:title=" ">
<polygon fill="#bfbfbf" stroke="black" points="67.5,-0.5 67.5,-19.5 147.5,-19.5 147.5,-0.5 67.5,-0.5"/>
<text text-anchor="middle" x="107.5" y="-7.5" font-family="Helvetica,sans-Serif" font-size="10.00">daAlink_blur_c</text>
</a>
</g>
</g>
<!-- Node2 -->
<g id="node2" class="node">
<title>Node2</title>
<g id="a_node2"><a xlink:href="classJ3DPacket.html" target="_top" xlink:title=" ">
<polygon fill="white" stroke="black" points="0,-90.5 0,-109.5 65,-109.5 65,-90.5 0,-90.5"/>
<text text-anchor="middle" x="32.5" y="-97.5" font-family="Helvetica,sans-Serif" font-size="10.00">J3DPacket</text>
</a>
</g>
</g>
<!-- Node2&#45;&gt;Node1 -->
<g id="edge1" class="edge">
<title>Node2&#45;&gt;Node1</title>
<path fill="none" stroke="#8b1a1a" d="M46.51,-82.56C62.37,-63.95 87.62,-34.33 100.06,-19.72"/>
<polygon fill="#8b1a1a" stroke="#8b1a1a" points="43.79,-80.36 39.97,-90.24 49.12,-84.9 43.79,-80.36"/>
</g>
<!-- Node2&#45;&gt;Node2 -->
<g id="edge2" class="edge">
<title>Node2&#45;&gt;Node2</title>
<path fill="none" stroke="#9a32cd" stroke-dasharray="5,2" d="M75.14,-104.43C79.91,-103.6 83,-102.12 83,-100 83,-96.61 75.1,-94.86 65.04,-94.76"/>
<polygon fill="#9a32cd" stroke="#9a32cd" points="74.73,-100.95 65.04,-105.24 75.29,-107.93 74.73,-100.95"/>
<text text-anchor="middle" x="115" y="-103" font-family="Helvetica,sans-Serif" font-size="10.00"> mChildPacket</text>
<text text-anchor="middle" x="115" y="-92" font-family="Helvetica,sans-Serif" font-size="10.00">mNextPacket</text>
</g>
<!-- Node3 -->
<g id="node3" class="node">
<title>Node3</title>
<g id="a_node3"><a xlink:href="classcXyz.html" target="_top" xlink:title=" ">
<polygon fill="white" stroke="black" points="165.5,-90.5 165.5,-109.5 203.5,-109.5 203.5,-90.5 165.5,-90.5"/>
<text text-anchor="middle" x="184.5" y="-97.5" font-family="Helvetica,sans-Serif" font-size="10.00">cXyz</text>
</a>
</g>
</g>
<!-- Node3&#45;&gt;Node1 -->
<g id="edge3" class="edge">
<title>Node3&#45;&gt;Node1</title>
<path fill="none" stroke="#9a32cd" stroke-dasharray="5,2" d="M170.11,-82.56C153.83,-63.95 127.91,-34.33 115.13,-19.72"/>
<polygon fill="#9a32cd" stroke="#9a32cd" points="167.62,-85.02 176.84,-90.24 172.88,-80.41 167.62,-85.02"/>
<text text-anchor="middle" x="184" y="-63" font-family="Helvetica,sans-Serif" font-size="10.00"> field_0x2c</text>
<text text-anchor="middle" x="184" y="-52" font-family="Helvetica,sans-Serif" font-size="10.00">field_0x308</text>
<text text-anchor="middle" x="184" y="-41" font-family="Helvetica,sans-Serif" font-size="10.00">field_0x38</text>
</g>
<!-- Node4 -->
<g id="node4" class="node">
<title>Node4</title>
<g id="a_node4"><a xlink:href="structVec.html" target="_top" xlink:title=" ">
<polygon fill="white" stroke="black" points="167.5,-148.5 167.5,-167.5 201.5,-167.5 201.5,-148.5 167.5,-148.5"/>
<text text-anchor="middle" x="184.5" y="-155.5" font-family="Helvetica,sans-Serif" font-size="10.00">Vec</text>
</a>
</g>
</g>
<!-- Node4&#45;&gt;Node3 -->
<g id="edge4" class="edge">
<title>Node4&#45;&gt;Node3</title>
<path fill="none" stroke="midnightblue" d="M184.5,-137.95C184.5,-128.29 184.5,-117.03 184.5,-109.51"/>
<polygon fill="midnightblue" stroke="midnightblue" points="181,-138.25 184.5,-148.25 188,-138.25 181,-138.25"/>
</g>
</g>
</svg>
