<?xml version="1.0" encoding="UTF-8" standalone="no"?>
<!DOCTYPE svg PUBLIC "-//W3C//DTD SVG 1.1//EN"
 "http://www.w3.org/Graphics/SVG/1.1/DTD/svg11.dtd">
<!-- Generated by graphviz version 2.44.0 ()
 -->
<!-- Title: JSUPtrList Pages: 1 -->
<svg width="694pt" height="363pt"
 viewBox="0.00 0.00 694.00 363.00" xmlns="http://www.w3.org/2000/svg" xmlns:xlink="http://www.w3.org/1999/xlink">
<g id="graph0" class="graph" transform="scale(1 1) rotate(0) translate(4 359)">
<title>JSUPtrList</title>
<polygon fill="white" stroke="transparent" points="-4,4 -4,-359 690,-359 690,4 -4,4"/>
<!-- Node1 -->
<g id="node1" class="node">
<title>Node1</title>
<g id="a_node1"><a xlink:title=" ">
<polygon fill="#bfbfbf" stroke="black" points="0,-164.5 0,-183.5 65,-183.5 65,-164.5 0,-164.5"/>
<text text-anchor="middle" x="32.5" y="-171.5" font-family="Helvetica,sans-Serif" font-size="10.00">JSUPtrList</text>
</a>
</g>
</g>
<!-- Node2 -->
<g id="node2" class="node">
<title>Node2</title>
<g id="a_node2"><a xlink:href="classJSUList.html" target="_top" xlink:title=" ">
<polygon fill="white" stroke="black" points="101,-316.5 101,-335.5 259,-335.5 259,-316.5 101,-316.5"/>
<text text-anchor="middle" x="180" y="-323.5" font-family="Helvetica,sans-Serif" font-size="10.00">JSUList&lt; Z2SoundHandlePool &gt;</text>
</a>
</g>
</g>
<!-- Node1&#45;&gt;Node2 -->
<g id="edge1" class="edge">
<title>Node1&#45;&gt;Node2</title>
<path fill="none" stroke="midnightblue" d="M37.93,-193.69C45.57,-222.99 64.11,-277.77 101,-307 105.92,-310.9 111.51,-314.01 117.4,-316.49"/>
<polygon fill="midnightblue" stroke="midnightblue" points="41.29,-192.69 35.52,-183.81 34.49,-194.35 41.29,-192.69"/>
</g>
<!-- Node8 -->
<g id="node8" class="node">
<title>Node8</title>
<g id="a_node8"><a xlink:href="classJSUList.html" target="_top" xlink:title=" ">
<polygon fill="white" stroke="black" points="106.5,-278.5 106.5,-297.5 253.5,-297.5 253.5,-278.5 106.5,-278.5"/>
<text text-anchor="middle" x="180" y="-285.5" font-family="Helvetica,sans-Serif" font-size="10.00">JSUList&lt; JKRAMCommand &gt;</text>
</a>
</g>
</g>
<!-- Node1&#45;&gt;Node8 -->
<g id="edge7" class="edge">
<title>Node1&#45;&gt;Node8</title>
<path fill="none" stroke="midnightblue" d="M41.75,-192.73C52.3,-214.47 72.67,-249.78 101,-269 106.77,-272.91 113.26,-276.02 119.97,-278.49"/>
<polygon fill="midnightblue" stroke="midnightblue" points="44.86,-191.14 37.48,-183.54 38.52,-194.08 44.86,-191.14"/>
</g>
<!-- Node9 -->
<g id="node9" class="node">
<title>Node9</title>
<g id="a_node9"><a xlink:href="classJSUList.html" target="_top" xlink:title=" ">
<polygon fill="white" stroke="black" points="117,-240.5 117,-259.5 243,-259.5 243,-240.5 117,-240.5"/>
<text text-anchor="middle" x="180" y="-247.5" font-family="Helvetica,sans-Serif" font-size="10.00">JSUList&lt; JKRDisposer &gt;</text>
</a>
</g>
</g>
<!-- Node1&#45;&gt;Node9 -->
<g id="edge8" class="edge">
<title>Node1&#45;&gt;Node9</title>
<path fill="none" stroke="midnightblue" d="M49.19,-190.98C61.95,-203.8 81.07,-220.87 101,-231 108.58,-234.85 116.98,-237.95 125.37,-240.43"/>
<polygon fill="midnightblue" stroke="midnightblue" points="51.57,-188.4 42.1,-183.64 46.53,-193.26 51.57,-188.4"/>
</g>
<!-- Node10 -->
<g id="node10" class="node">
<title>Node10</title>
<g id="a_node10"><a xlink:href="classJSUList.html" target="_top" xlink:title=" ">
<polygon fill="white" stroke="black" points="121,-202.5 121,-221.5 239,-221.5 239,-202.5 121,-202.5"/>
<text text-anchor="middle" x="180" y="-209.5" font-family="Helvetica,sans-Serif" font-size="10.00">JSUList&lt; JKRThread &gt;</text>
</a>
</g>
</g>
<!-- Node1&#45;&gt;Node10 -->
<g id="edge9" class="edge">
<title>Node1&#45;&gt;Node10</title>
<path fill="none" stroke="midnightblue" d="M74.89,-185.9C83.5,-188.31 92.54,-190.78 101,-193 113.13,-196.18 126.38,-199.48 138.45,-202.41"/>
<polygon fill="midnightblue" stroke="midnightblue" points="75.6,-182.47 65.03,-183.12 73.71,-189.2 75.6,-182.47"/>
</g>
<!-- Node11 -->
<g id="node11" class="node">
<title>Node11</title>
<g id="a_node11"><a xlink:href="classJSUList.html" target="_top" xlink:title=" ">
<polygon fill="white" stroke="black" points="113,-164.5 113,-183.5 247,-183.5 247,-164.5 113,-164.5"/>
<text text-anchor="middle" x="180" y="-171.5" font-family="Helvetica,sans-Serif" font-size="10.00">JSUList&lt; JKRFileLoader &gt;</text>
</a>
</g>
</g>
<!-- Node1&#45;&gt;Node11 -->
<g id="edge10" class="edge">
<title>Node1&#45;&gt;Node11</title>
<path fill="none" stroke="midnightblue" d="M75.4,-174C87.1,-174 100.1,-174 112.84,-174"/>
<polygon fill="midnightblue" stroke="midnightblue" points="75.07,-170.5 65.07,-174 75.07,-177.5 75.07,-170.5"/>
</g>
<!-- Node12 -->
<g id="node12" class="node">
<title>Node12</title>
<g id="a_node12"><a xlink:href="classJSUList.html" target="_top" xlink:title=" ">
<polygon fill="white" stroke="black" points="118.5,-115 118.5,-145 241.5,-145 241.5,-115 118.5,-115"/>
<text text-anchor="start" x="126.5" y="-133" font-family="Helvetica,sans-Serif" font-size="10.00">JSUList&lt; JKRFileCache</text>
<text text-anchor="middle" x="180" y="-122" font-family="Helvetica,sans-Serif" font-size="10.00">::CCacheBlock &gt;</text>
</a>
</g>
</g>
<!-- Node1&#45;&gt;Node12 -->
<g id="edge11" class="edge">
<title>Node1&#45;&gt;Node12</title>
<path fill="none" stroke="midnightblue" d="M74.69,-161.54C91.64,-156.42 111.42,-150.44 129.18,-145.07"/>
<polygon fill="midnightblue" stroke="midnightblue" points="73.63,-158.21 65.07,-164.45 75.66,-164.91 73.63,-158.21"/>
</g>
<!-- Node13 -->
<g id="node13" class="node">
<title>Node13</title>
<g id="a_node13"><a xlink:href="classJSUList.html" target="_top" xlink:title=" ">
<polygon fill="white" stroke="black" points="107,-76.5 107,-95.5 253,-95.5 253,-76.5 107,-76.5"/>
<text text-anchor="middle" x="180" y="-83.5" font-family="Helvetica,sans-Serif" font-size="10.00">JSUList&lt; Z2CreatureEnemy &gt;</text>
</a>
</g>
</g>
<!-- Node1&#45;&gt;Node13 -->
<g id="edge12" class="edge">
<title>Node1&#45;&gt;Node13</title>
<path fill="none" stroke="midnightblue" d="M46.57,-156.22C58.91,-140.7 78.8,-118.71 101,-106 108.52,-101.69 116.97,-98.3 125.47,-95.63"/>
<polygon fill="midnightblue" stroke="midnightblue" points="43.53,-154.44 40.21,-164.5 49.08,-158.7 43.53,-154.44"/>
</g>
<!-- Node15 -->
<g id="node15" class="node">
<title>Node15</title>
<g id="a_node15"><a xlink:href="classJSUList.html" target="_top" xlink:title=" ">
<polygon fill="white" stroke="black" points="119.5,-38.5 119.5,-57.5 240.5,-57.5 240.5,-38.5 119.5,-38.5"/>
<text text-anchor="middle" x="180" y="-45.5" font-family="Helvetica,sans-Serif" font-size="10.00">JSUList&lt; JKRDvdFile &gt;</text>
</a>
</g>
</g>
<!-- Node1&#45;&gt;Node15 -->
<g id="edge14" class="edge">
<title>Node1&#45;&gt;Node15</title>
<path fill="none" stroke="midnightblue" d="M40.4,-154.69C50.09,-130.42 70.09,-89.23 101,-67 106.54,-63.01 112.82,-59.86 119.35,-57.36"/>
<polygon fill="midnightblue" stroke="midnightblue" points="37.05,-153.65 36.77,-164.24 43.59,-156.14 37.05,-153.65"/>
</g>
<!-- Node16 -->
<g id="node16" class="node">
<title>Node16</title>
<g id="a_node16"><a xlink:href="classJSUList.html" target="_top" xlink:title=" ">
<polygon fill="white" stroke="black" points="142.5,-0.5 142.5,-19.5 217.5,-19.5 217.5,-0.5 142.5,-0.5"/>
<text text-anchor="middle" x="180" y="-7.5" font-family="Helvetica,sans-Serif" font-size="10.00">JSUList&lt; T &gt;</text>
</a>
</g>
</g>
<!-- Node1&#45;&gt;Node16 -->
<g id="edge15" class="edge">
<title>Node1&#45;&gt;Node16</title>
<path fill="none" stroke="midnightblue" d="M37,-154.37C43.67,-122.96 61.23,-61.62 101,-29 112.53,-19.54 128.05,-14.67 142.21,-12.2"/>
<polygon fill="midnightblue" stroke="midnightblue" points="33.51,-154 35.02,-164.48 40.38,-155.34 33.51,-154"/>
</g>
<!-- Node3 -->
<g id="node3" class="node">
<title>Node3</title>
<g id="a_node3"><a xlink:href="classZ2SoundHandles.html" target="_top" xlink:title=" ">
<polygon fill="white" stroke="black" points="295,-316.5 295,-335.5 387,-335.5 387,-316.5 295,-316.5"/>
<text text-anchor="middle" x="341" y="-323.5" font-family="Helvetica,sans-Serif" font-size="10.00">Z2SoundHandles</text>
</a>
</g>
</g>
<!-- Node2&#45;&gt;Node3 -->
<g id="edge2" class="edge">
<title>Node2&#45;&gt;Node3</title>
<path fill="none" stroke="darkgreen" d="M269.14,-326C277.99,-326 286.71,-326 294.83,-326"/>
<polygon fill="darkgreen" stroke="darkgreen" points="269.1,-322.5 259.1,-326 269.1,-329.5 269.1,-322.5"/>
</g>
<!-- Node4 -->
<g id="node4" class="node">
<title>Node4</title>
<g id="a_node4"><a xlink:href="classZ2DopplerSoundObjBase.html" target="_top" xlink:title=" ">
<polygon fill="white" stroke="black" points="423,-335.5 423,-354.5 549,-354.5 549,-335.5 423,-335.5"/>
<text text-anchor="middle" x="486" y="-342.5" font-family="Helvetica,sans-Serif" font-size="10.00">Z2DopplerSoundObjBase</text>
</a>
</g>
</g>
<!-- Node3&#45;&gt;Node4 -->
<g id="edge3" class="edge">
<title>Node3&#45;&gt;Node4</title>
<path fill="none" stroke="darkgreen" d="M397.26,-333.34C405.62,-334.45 414.3,-335.61 422.8,-336.74"/>
<polygon fill="darkgreen" stroke="darkgreen" points="397.62,-329.86 387.25,-332.01 396.7,-336.8 397.62,-329.86"/>
</g>
<!-- Node5 -->
<g id="node5" class="node">
<title>Node5</title>
<g id="a_node5"><a xlink:href="classZ2SoundObjBase.html" target="_top" xlink:title=" ">
<polygon fill="white" stroke="black" points="439.5,-297.5 439.5,-316.5 532.5,-316.5 532.5,-297.5 439.5,-297.5"/>
<text text-anchor="middle" x="486" y="-304.5" font-family="Helvetica,sans-Serif" font-size="10.00">Z2SoundObjBase</text>
</a>
</g>
</g>
<!-- Node3&#45;&gt;Node5 -->
<g id="edge4" class="edge">
<title>Node3&#45;&gt;Node5</title>
<path fill="none" stroke="darkgreen" d="M397.55,-318.62C411.29,-316.79 425.85,-314.86 439.07,-313.1"/>
<polygon fill="darkgreen" stroke="darkgreen" points="396.7,-315.2 387.25,-319.99 397.62,-322.14 396.7,-315.2"/>
</g>
<!-- Node6 -->
<g id="node6" class="node">
<title>Node6</title>
<g id="a_node6"><a xlink:href="classZ2SoundObjAnime.html" target="_top" xlink:title=" ">
<polygon fill="white" stroke="black" points="586.5,-316.5 586.5,-335.5 684.5,-335.5 684.5,-316.5 586.5,-316.5"/>
<text text-anchor="middle" x="635.5" y="-323.5" font-family="Helvetica,sans-Serif" font-size="10.00">Z2SoundObjAnime</text>
</a>
</g>
</g>
<!-- Node5&#45;&gt;Node6 -->
<g id="edge5" class="edge">
<title>Node5&#45;&gt;Node6</title>
<path fill="none" stroke="darkgreen" d="M543.05,-314.22C557.32,-316.06 572.53,-318.02 586.37,-319.8"/>
<polygon fill="darkgreen" stroke="darkgreen" points="543.23,-310.71 532.86,-312.91 542.33,-317.66 543.23,-310.71"/>
</g>
<!-- Node7 -->
<g id="node7" class="node">
<title>Node7</title>
<g id="a_node7"><a xlink:href="classZ2SoundObjSimple.html" target="_top" xlink:title=" ">
<polygon fill="white" stroke="black" points="585,-278.5 585,-297.5 686,-297.5 686,-278.5 585,-278.5"/>
<text text-anchor="middle" x="635.5" y="-285.5" font-family="Helvetica,sans-Serif" font-size="10.00">Z2SoundObjSimple</text>
</a>
</g>
</g>
<!-- Node5&#45;&gt;Node7 -->
<g id="edge6" class="edge">
<title>Node5&#45;&gt;Node7</title>
<path fill="none" stroke="darkgreen" d="M543.15,-299.77C556.86,-298 571.44,-296.12 584.83,-294.4"/>
<polygon fill="darkgreen" stroke="darkgreen" points="542.33,-296.34 532.86,-301.09 543.23,-303.29 542.33,-296.34"/>
</g>
<!-- Node14 -->
<g id="node14" class="node">
<title>Node14</title>
<g id="a_node14"><a xlink:href="classZ2SoundObjMgr.html" target="_top" xlink:title=" ">
<polygon fill="white" stroke="black" points="297.5,-76.5 297.5,-95.5 384.5,-95.5 384.5,-76.5 297.5,-76.5"/>
<text text-anchor="middle" x="341" y="-83.5" font-family="Helvetica,sans-Serif" font-size="10.00">Z2SoundObjMgr</text>
</a>
</g>
</g>
<!-- Node13&#45;&gt;Node14 -->
<g id="edge13" class="edge">
<title>Node13&#45;&gt;Node14</title>
<path fill="none" stroke="darkgreen" d="M263.36,-86C275.1,-86 286.74,-86 297.29,-86"/>
<polygon fill="darkgreen" stroke="darkgreen" points="263.06,-82.5 253.06,-86 263.06,-89.5 263.06,-82.5"/>
</g>
</g>
</svg>
