<?xml version="1.0" encoding="UTF-8" standalone="no"?>
<!DOCTYPE svg PUBLIC "-//W3C//DTD SVG 1.1//EN"
 "http://www.w3.org/Graphics/SVG/1.1/DTD/svg11.dtd">
<!-- Generated by graphviz version 2.44.0 ()
 -->
<!-- Title: daPy_sightPacket_c Pages: 1 -->
<svg width="218pt" height="163pt"
 viewBox="0.00 0.00 217.50 163.00" xmlns="http://www.w3.org/2000/svg" xmlns:xlink="http://www.w3.org/1999/xlink">
<g id="graph0" class="graph" transform="scale(1 1) rotate(0) translate(4 159)">
<title>daPy_sightPacket_c</title>
<polygon fill="white" stroke="transparent" points="-4,4 -4,-159 213.5,-159 213.5,4 -4,4"/>
<!-- Node1 -->
<g id="node1" class="node">
<title>Node1</title>
<g id="a_node1"><a xlink:title=" ">
<polygon fill="#bfbfbf" stroke="black" points="60,-0.5 60,-19.5 166,-19.5 166,-0.5 60,-0.5"/>
<text text-anchor="middle" x="113" y="-7.5" font-family="Helvetica,sans-Serif" font-size="10.00">daPy_sightPacket_c</text>
</a>
</g>
</g>
<!-- Node2 -->
<g id="node2" class="node">
<title>Node2</title>
<g id="a_node2"><a xlink:href="classdDlst__base__c.html" target="_top" xlink:title=" ">
<polygon fill="white" stroke="black" points="0,-78.5 0,-97.5 76,-97.5 76,-78.5 0,-78.5"/>
<text text-anchor="middle" x="38" y="-85.5" font-family="Helvetica,sans-Serif" font-size="10.00">dDlst_base_c</text>
</a>
</g>
</g>
<!-- Node2&#45;&gt;Node1 -->
<g id="edge1" class="edge">
<title>Node2&#45;&gt;Node1</title>
<path fill="none" stroke="#8b1a1a" d="M53.91,-70.88C69.37,-55.22 92.23,-32.04 104.5,-19.62"/>
<polygon fill="#8b1a1a" stroke="#8b1a1a" points="51.14,-68.71 46.6,-78.28 56.12,-73.62 51.14,-68.71"/>
</g>
<!-- Node3 -->
<g id="node3" class="node">
<title>Node3</title>
<g id="a_node3"><a xlink:href="classcXyz.html" target="_top" xlink:title=" ">
<polygon fill="white" stroke="black" points="94,-78.5 94,-97.5 132,-97.5 132,-78.5 94,-78.5"/>
<text text-anchor="middle" x="113" y="-85.5" font-family="Helvetica,sans-Serif" font-size="10.00">cXyz</text>
</a>
</g>
</g>
<!-- Node3&#45;&gt;Node1 -->
<g id="edge2" class="edge">
<title>Node3&#45;&gt;Node1</title>
<path fill="none" stroke="#9a32cd" stroke-dasharray="5,2" d="M113,-68.22C113,-52.7 113,-31.36 113,-19.62"/>
<polygon fill="#9a32cd" stroke="#9a32cd" points="109.5,-68.28 113,-78.28 116.5,-68.28 109.5,-68.28"/>
<text text-anchor="middle" x="127" y="-46.5" font-family="Helvetica,sans-Serif" font-size="10.00"> mPos</text>
</g>
<!-- Node4 -->
<g id="node4" class="node">
<title>Node4</title>
<g id="a_node4"><a xlink:href="structVec.html" target="_top" xlink:title=" ">
<polygon fill="white" stroke="black" points="96,-135.5 96,-154.5 130,-154.5 130,-135.5 96,-135.5"/>
<text text-anchor="middle" x="113" y="-142.5" font-family="Helvetica,sans-Serif" font-size="10.00">Vec</text>
</a>
</g>
</g>
<!-- Node4&#45;&gt;Node3 -->
<g id="edge3" class="edge">
<title>Node4&#45;&gt;Node3</title>
<path fill="none" stroke="midnightblue" d="M113,-125.12C113,-115.82 113,-105.06 113,-97.71"/>
<polygon fill="midnightblue" stroke="midnightblue" points="109.5,-125.41 113,-135.41 116.5,-125.41 109.5,-125.41"/>
</g>
<!-- Node5 -->
<g id="node5" class="node">
<title>Node5</title>
<g id="a_node5"><a xlink:href="structResTIMG.html" target="_top" xlink:title=" ">
<polygon fill="white" stroke="black" points="150.5,-78.5 150.5,-97.5 209.5,-97.5 209.5,-78.5 150.5,-78.5"/>
<text text-anchor="middle" x="180" y="-85.5" font-family="Helvetica,sans-Serif" font-size="10.00">ResTIMG</text>
</a>
</g>
</g>
<!-- Node5&#45;&gt;Node1 -->
<g id="edge4" class="edge">
<title>Node5&#45;&gt;Node1</title>
<path fill="none" stroke="#9a32cd" stroke-dasharray="5,2" d="M169.2,-69.72C162.73,-59.95 154.02,-47.78 145,-38 138.79,-31.27 130.94,-24.62 124.57,-19.61"/>
<polygon fill="#9a32cd" stroke="#9a32cd" points="166.3,-71.68 174.66,-78.19 172.18,-67.89 166.3,-71.68"/>
<text text-anchor="middle" x="185" y="-52" font-family="Helvetica,sans-Serif" font-size="10.00"> field_0x44</text>
<text text-anchor="middle" x="185" y="-41" font-family="Helvetica,sans-Serif" font-size="10.00">field_0x48</text>
</g>
</g>
</svg>
