<?xml version="1.0" encoding="UTF-8" standalone="no"?>
<!DOCTYPE svg PUBLIC "-//W3C//DTD SVG 1.1//EN"
 "http://www.w3.org/Graphics/SVG/1.1/DTD/svg11.dtd">
<!-- Generated by graphviz version 2.44.0 ()
 -->
<!-- Title: cCcD_ObjHitInf Pages: 1 -->
<svg width="261pt" height="152pt"
 viewBox="0.00 0.00 260.50 152.00" xmlns="http://www.w3.org/2000/svg" xmlns:xlink="http://www.w3.org/1999/xlink">
<g id="graph0" class="graph" transform="scale(1 1) rotate(0) translate(4 148)">
<title>cCcD_ObjHitInf</title>
<polygon fill="white" stroke="transparent" points="-4,4 -4,-148 256.5,-148 256.5,4 -4,4"/>
<!-- Node1 -->
<g id="node1" class="node">
<title>Node1</title>
<g id="a_node1"><a xlink:title=" ">
<polygon fill="#bfbfbf" stroke="black" points="84,-0.5 84,-19.5 169,-19.5 169,-0.5 84,-0.5"/>
<text text-anchor="middle" x="126.5" y="-7.5" font-family="Helvetica,sans-Serif" font-size="10.00">cCcD_ObjHitInf</text>
</a>
</g>
</g>
<!-- Node2 -->
<g id="node2" class="node">
<title>Node2</title>
<g id="a_node2"><a xlink:href="classcCcD__ObjCo.html" target="_top" xlink:title=" ">
<polygon fill="white" stroke="black" points="0,-67.5 0,-86.5 73,-86.5 73,-67.5 0,-67.5"/>
<text text-anchor="middle" x="36.5" y="-74.5" font-family="Helvetica,sans-Serif" font-size="10.00">cCcD_ObjCo</text>
</a>
</g>
</g>
<!-- Node2&#45;&gt;Node1 -->
<g id="edge1" class="edge">
<title>Node2&#45;&gt;Node1</title>
<path fill="none" stroke="#9a32cd" stroke-dasharray="5,2" d="M54.71,-60.9C63.54,-53.75 74.41,-45.21 84.5,-38 93.53,-31.55 104.03,-24.8 112.27,-19.66"/>
<polygon fill="#9a32cd" stroke="#9a32cd" points="52.47,-58.2 46.95,-67.24 56.9,-63.62 52.47,-58.2"/>
<text text-anchor="middle" x="103.5" y="-41" font-family="Helvetica,sans-Serif" font-size="10.00"> mObjCo</text>
</g>
<!-- Node3 -->
<g id="node3" class="node">
<title>Node3</title>
<g id="a_node3"><a xlink:href="classcCcD__ObjCommonBase.html" target="_top" xlink:title=" ">
<polygon fill="white" stroke="black" points="65.5,-124.5 65.5,-143.5 187.5,-143.5 187.5,-124.5 65.5,-124.5"/>
<text text-anchor="middle" x="126.5" y="-131.5" font-family="Helvetica,sans-Serif" font-size="10.00">cCcD_ObjCommonBase</text>
</a>
</g>
</g>
<!-- Node3&#45;&gt;Node2 -->
<g id="edge2" class="edge">
<title>Node3&#45;&gt;Node2</title>
<path fill="none" stroke="#8b1a1a" d="M103.77,-119.11C86.99,-108.86 64.69,-95.23 50.46,-86.53"/>
<polygon fill="#8b1a1a" stroke="#8b1a1a" points="102.08,-122.18 112.44,-124.41 105.73,-116.21 102.08,-122.18"/>
</g>
<!-- Node4 -->
<g id="node4" class="node">
<title>Node4</title>
<g id="a_node4"><a xlink:href="classcCcD__ObjAt.html" target="_top" xlink:title=" ">
<polygon fill="white" stroke="black" points="91,-67.5 91,-86.5 162,-86.5 162,-67.5 91,-67.5"/>
<text text-anchor="middle" x="126.5" y="-74.5" font-family="Helvetica,sans-Serif" font-size="10.00">cCcD_ObjAt</text>
</a>
</g>
</g>
<!-- Node3&#45;&gt;Node4 -->
<g id="edge4" class="edge">
<title>Node3&#45;&gt;Node4</title>
<path fill="none" stroke="#8b1a1a" d="M126.5,-114.12C126.5,-104.82 126.5,-94.06 126.5,-86.71"/>
<polygon fill="#8b1a1a" stroke="#8b1a1a" points="123,-114.41 126.5,-124.41 130,-114.41 123,-114.41"/>
</g>
<!-- Node5 -->
<g id="node5" class="node">
<title>Node5</title>
<g id="a_node5"><a xlink:href="classcCcD__ObjTg.html" target="_top" xlink:title=" ">
<polygon fill="white" stroke="black" points="180.5,-67.5 180.5,-86.5 252.5,-86.5 252.5,-67.5 180.5,-67.5"/>
<text text-anchor="middle" x="216.5" y="-74.5" font-family="Helvetica,sans-Serif" font-size="10.00">cCcD_ObjTg</text>
</a>
</g>
</g>
<!-- Node3&#45;&gt;Node5 -->
<g id="edge6" class="edge">
<title>Node3&#45;&gt;Node5</title>
<path fill="none" stroke="#8b1a1a" d="M149.23,-119.11C166.01,-108.86 188.31,-95.23 202.54,-86.53"/>
<polygon fill="#8b1a1a" stroke="#8b1a1a" points="147.27,-116.21 140.56,-124.41 150.92,-122.18 147.27,-116.21"/>
</g>
<!-- Node4&#45;&gt;Node1 -->
<g id="edge3" class="edge">
<title>Node4&#45;&gt;Node1</title>
<path fill="none" stroke="#9a32cd" stroke-dasharray="5,2" d="M126.5,-57.04C126.5,-44.67 126.5,-29.12 126.5,-19.63"/>
<polygon fill="#9a32cd" stroke="#9a32cd" points="123,-57.23 126.5,-67.23 130,-57.23 123,-57.23"/>
<text text-anchor="middle" x="144.5" y="-41" font-family="Helvetica,sans-Serif" font-size="10.00"> mObjAt</text>
</g>
<!-- Node5&#45;&gt;Node1 -->
<g id="edge5" class="edge">
<title>Node5&#45;&gt;Node1</title>
<path fill="none" stroke="#9a32cd" stroke-dasharray="5,2" d="M197.39,-61.07C188.15,-53.96 176.84,-45.41 166.5,-38 157.65,-31.66 147.47,-24.79 139.6,-19.57"/>
<polygon fill="#9a32cd" stroke="#9a32cd" points="195.46,-64.01 205.51,-67.37 199.75,-58.48 195.46,-64.01"/>
<text text-anchor="middle" x="199" y="-41" font-family="Helvetica,sans-Serif" font-size="10.00"> mObjTg</text>
</g>
</g>
</svg>
