<?xml version="1.0" encoding="UTF-8" standalone="no"?>
<!DOCTYPE svg PUBLIC "-//W3C//DTD SVG 1.1//EN"
 "http://www.w3.org/Graphics/SVG/1.1/DTD/svg11.dtd">
<!-- Generated by graphviz version 2.44.0 ()
 -->
<!-- Title: dBgS_ArrowLinChk Pages: 1 -->
<svg width="587pt" height="354pt"
 viewBox="0.00 0.00 587.00 354.00" xmlns="http://www.w3.org/2000/svg" xmlns:xlink="http://www.w3.org/1999/xlink">
<g id="graph0" class="graph" transform="scale(1 1) rotate(0) translate(4 350)">
<title>dBgS_ArrowLinChk</title>
<polygon fill="white" stroke="transparent" points="-4,4 -4,-350 583,-350 583,4 -4,4"/>
<!-- Node1 -->
<g id="node1" class="node">
<title>Node1</title>
<g id="a_node1"><a xlink:title=" ">
<polygon fill="#bfbfbf" stroke="black" points="242,-0.5 242,-19.5 344,-19.5 344,-0.5 242,-0.5"/>
<text text-anchor="middle" x="293" y="-7.5" font-family="Helvetica,sans-Serif" font-size="10.00">dBgS_ArrowLinChk</text>
</a>
</g>
</g>
<!-- Node2 -->
<g id="node2" class="node">
<title>Node2</title>
<g id="a_node2"><a xlink:href="classdBgS__LinChk.html" target="_top" xlink:title=" ">
<polygon fill="white" stroke="black" points="254.5,-57.5 254.5,-76.5 331.5,-76.5 331.5,-57.5 254.5,-57.5"/>
<text text-anchor="middle" x="293" y="-64.5" font-family="Helvetica,sans-Serif" font-size="10.00">dBgS_LinChk</text>
</a>
</g>
</g>
<!-- Node2&#45;&gt;Node1 -->
<g id="edge1" class="edge">
<title>Node2&#45;&gt;Node1</title>
<path fill="none" stroke="#8b1a1a" d="M293,-47.12C293,-37.82 293,-27.06 293,-19.71"/>
<polygon fill="#8b1a1a" stroke="#8b1a1a" points="289.5,-47.41 293,-57.41 296.5,-47.41 289.5,-47.41"/>
</g>
<!-- Node3 -->
<g id="node3" class="node">
<title>Node3</title>
<g id="a_node3"><a xlink:href="classdBgS__Chk.html" target="_top" xlink:title=" ">
<polygon fill="white" stroke="black" points="361.5,-124.5 361.5,-143.5 424.5,-143.5 424.5,-124.5 361.5,-124.5"/>
<text text-anchor="middle" x="393" y="-131.5" font-family="Helvetica,sans-Serif" font-size="10.00">dBgS_Chk</text>
</a>
</g>
</g>
<!-- Node3&#45;&gt;Node2 -->
<g id="edge2" class="edge">
<title>Node3&#45;&gt;Node2</title>
<path fill="none" stroke="#9a32cd" stroke-dasharray="5,2" d="M371.11,-118.77C351.31,-105.9 322.81,-87.38 306.27,-76.63"/>
<polygon fill="#9a32cd" stroke="#9a32cd" points="369.22,-121.72 379.51,-124.23 373.04,-115.85 369.22,-121.72"/>
<text text-anchor="middle" x="363" y="-98" font-family="Helvetica,sans-Serif" font-size="10.00"> mChk</text>
</g>
<!-- Node4 -->
<g id="node4" class="node">
<title>Node4</title>
<g id="a_node4"><a xlink:href="classdBgS__GrpPassChk.html" target="_top" xlink:title=" ">
<polygon fill="white" stroke="black" points="342.5,-191.5 342.5,-210.5 443.5,-210.5 443.5,-191.5 342.5,-191.5"/>
<text text-anchor="middle" x="393" y="-198.5" font-family="Helvetica,sans-Serif" font-size="10.00">dBgS_GrpPassChk</text>
</a>
</g>
</g>
<!-- Node4&#45;&gt;Node3 -->
<g id="edge3" class="edge">
<title>Node4&#45;&gt;Node3</title>
<path fill="none" stroke="#9a32cd" stroke-dasharray="5,2" d="M393,-181.04C393,-168.67 393,-153.12 393,-143.63"/>
<polygon fill="#9a32cd" stroke="#9a32cd" points="389.5,-181.23 393,-191.23 396.5,-181.23 389.5,-181.23"/>
<text text-anchor="middle" x="434.5" y="-165" font-family="Helvetica,sans-Serif" font-size="10.00"> mGrpPassChkInfo</text>
</g>
<!-- Node5 -->
<g id="node5" class="node">
<title>Node5</title>
<g id="a_node5"><a xlink:href="classcBgS__GrpPassChk.html" target="_top" xlink:title=" ">
<polygon fill="white" stroke="black" points="204.5,-269.5 204.5,-288.5 305.5,-288.5 305.5,-269.5 204.5,-269.5"/>
<text text-anchor="middle" x="255" y="-276.5" font-family="Helvetica,sans-Serif" font-size="10.00">cBgS_GrpPassChk</text>
</a>
</g>
</g>
<!-- Node5&#45;&gt;Node4 -->
<g id="edge4" class="edge">
<title>Node5&#45;&gt;Node4</title>
<path fill="none" stroke="midnightblue" d="M278.97,-264.53C286.65,-260.21 295.18,-255.4 303,-251 320.34,-241.23 324.54,-238.55 342,-229 353.43,-222.75 366.4,-215.89 376.4,-210.64"/>
<polygon fill="midnightblue" stroke="midnightblue" points="277.14,-261.54 270.14,-269.49 280.57,-267.64 277.14,-261.54"/>
</g>
<!-- Node9 -->
<g id="node9" class="node">
<title>Node9</title>
<g id="a_node9"><a xlink:href="classcBgS__Chk.html" target="_top" xlink:title=" ">
<polygon fill="white" stroke="black" points="162.5,-191.5 162.5,-210.5 225.5,-210.5 225.5,-191.5 162.5,-191.5"/>
<text text-anchor="middle" x="194" y="-198.5" font-family="Helvetica,sans-Serif" font-size="10.00">cBgS_Chk</text>
</a>
</g>
</g>
<!-- Node5&#45;&gt;Node9 -->
<g id="edge9" class="edge">
<title>Node5&#45;&gt;Node9</title>
<path fill="none" stroke="#9a32cd" stroke-dasharray="5,2" d="M241.71,-261.44C229.15,-245.79 210.8,-222.93 200.92,-210.62"/>
<polygon fill="#9a32cd" stroke="#9a32cd" points="239.01,-263.67 248,-269.28 244.47,-259.29 239.01,-263.67"/>
<text text-anchor="middle" x="265.5" y="-237.5" font-family="Helvetica,sans-Serif" font-size="10.00"> mGrpPassChk</text>
</g>
<!-- Node6 -->
<g id="node6" class="node">
<title>Node6</title>
<g id="a_node6"><a xlink:href="classdBgS__PolyPassChk.html" target="_top" xlink:title=" ">
<polygon fill="white" stroke="black" points="462,-191.5 462,-210.5 566,-210.5 566,-191.5 462,-191.5"/>
<text text-anchor="middle" x="514" y="-198.5" font-family="Helvetica,sans-Serif" font-size="10.00">dBgS_PolyPassChk</text>
</a>
</g>
</g>
<!-- Node6&#45;&gt;Node3 -->
<g id="edge5" class="edge">
<title>Node6&#45;&gt;Node3</title>
<path fill="none" stroke="#9a32cd" stroke-dasharray="5,2" d="M502.21,-183.12C496.3,-175.73 488.57,-167.5 480,-162 463.23,-151.23 441.9,-144.52 424.55,-140.49"/>
<polygon fill="#9a32cd" stroke="#9a32cd" points="499.47,-185.3 508.27,-191.21 505.08,-181.1 499.47,-185.3"/>
<text text-anchor="middle" x="536" y="-165" font-family="Helvetica,sans-Serif" font-size="10.00"> mPolyPassChkInfo</text>
</g>
<!-- Node7 -->
<g id="node7" class="node">
<title>Node7</title>
<g id="a_node7"><a xlink:href="classcBgS__PolyPassChk.html" target="_top" xlink:title=" ">
<polygon fill="white" stroke="black" points="382,-269.5 382,-288.5 486,-288.5 486,-269.5 382,-269.5"/>
<text text-anchor="middle" x="434" y="-276.5" font-family="Helvetica,sans-Serif" font-size="10.00">cBgS_PolyPassChk</text>
</a>
</g>
</g>
<!-- Node7&#45;&gt;Node6 -->
<g id="edge6" class="edge">
<title>Node7&#45;&gt;Node6</title>
<path fill="none" stroke="midnightblue" d="M450.52,-262.3C467.01,-246.64 491.73,-223.16 504.93,-210.62"/>
<polygon fill="midnightblue" stroke="midnightblue" points="448.02,-259.86 443.18,-269.28 452.84,-264.93 448.02,-259.86"/>
</g>
<!-- Node7&#45;&gt;Node9 -->
<g id="edge10" class="edge">
<title>Node7&#45;&gt;Node9</title>
<path fill="none" stroke="#9a32cd" stroke-dasharray="5,2" d="M403.97,-265.64C377.63,-255.07 338.17,-239.89 303,-229 288.71,-224.57 252.37,-215.75 225.56,-209.39"/>
<polygon fill="#9a32cd" stroke="#9a32cd" points="402.8,-268.94 413.38,-269.44 405.42,-262.45 402.8,-268.94"/>
<text text-anchor="middle" x="400" y="-237.5" font-family="Helvetica,sans-Serif" font-size="10.00"> mPolyPassChk</text>
</g>
<!-- Node8 -->
<g id="node8" class="node">
<title>Node8</title>
<g id="a_node8"><a xlink:href="classcBgS__LinChk.html" target="_top" xlink:title=" ">
<polygon fill="white" stroke="black" points="155.5,-124.5 155.5,-143.5 232.5,-143.5 232.5,-124.5 155.5,-124.5"/>
<text text-anchor="middle" x="194" y="-131.5" font-family="Helvetica,sans-Serif" font-size="10.00">cBgS_LinChk</text>
</a>
</g>
</g>
<!-- Node8&#45;&gt;Node2 -->
<g id="edge7" class="edge">
<title>Node8&#45;&gt;Node2</title>
<path fill="none" stroke="#9a32cd" stroke-dasharray="5,2" d="M215.94,-118.59C235.53,-105.74 263.56,-87.33 279.86,-76.63"/>
<polygon fill="#9a32cd" stroke="#9a32cd" points="213.79,-115.82 207.35,-124.23 217.63,-121.67 213.79,-115.82"/>
<text text-anchor="middle" x="271" y="-98" font-family="Helvetica,sans-Serif" font-size="10.00"> mLinChk</text>
</g>
<!-- Node9&#45;&gt;Node8 -->
<g id="edge8" class="edge">
<title>Node9&#45;&gt;Node8</title>
<path fill="none" stroke="#8b1a1a" d="M194,-181.04C194,-168.67 194,-153.12 194,-143.63"/>
<polygon fill="#8b1a1a" stroke="#8b1a1a" points="190.5,-181.23 194,-191.23 197.5,-181.23 190.5,-181.23"/>
</g>
<!-- Node10 -->
<g id="node10" class="node">
<title>Node10</title>
<g id="a_node10"><a xlink:href="classcBgS__PolyInfo.html" target="_top" xlink:title=" ">
<polygon fill="white" stroke="black" points="243.5,-191.5 243.5,-210.5 324.5,-210.5 324.5,-191.5 243.5,-191.5"/>
<text text-anchor="middle" x="284" y="-198.5" font-family="Helvetica,sans-Serif" font-size="10.00">cBgS_PolyInfo</text>
</a>
</g>
</g>
<!-- Node10&#45;&gt;Node8 -->
<g id="edge11" class="edge">
<title>Node10&#45;&gt;Node8</title>
<path fill="none" stroke="#9a32cd" stroke-dasharray="5,2" d="M263.32,-185.07C245.56,-172.24 220.56,-154.19 205.95,-143.63"/>
<polygon fill="#9a32cd" stroke="#9a32cd" points="261.71,-188.22 271.86,-191.23 265.8,-182.54 261.71,-188.22"/>
<text text-anchor="middle" x="268" y="-165" font-family="Helvetica,sans-Serif" font-size="10.00"> mPolyInfo</text>
</g>
<!-- Node11 -->
<g id="node11" class="node">
<title>Node11</title>
<g id="a_node11"><a xlink:href="classcXyz.html" target="_top" xlink:title=" ">
<polygon fill="white" stroke="black" points="57,-269.5 57,-288.5 95,-288.5 95,-269.5 57,-269.5"/>
<text text-anchor="middle" x="76" y="-276.5" font-family="Helvetica,sans-Serif" font-size="10.00">cXyz</text>
</a>
</g>
</g>
<!-- Node11&#45;&gt;Node8 -->
<g id="edge12" class="edge">
<title>Node11&#45;&gt;Node8</title>
<path fill="none" stroke="#9a32cd" stroke-dasharray="5,2" d="M81.79,-259.81C89.47,-235.98 102.59,-196.56 107,-191 124.64,-168.76 153.64,-152.64 173.27,-143.56"/>
<polygon fill="#9a32cd" stroke="#9a32cd" points="78.41,-258.89 78.69,-269.48 85.07,-261.03 78.41,-258.89"/>
<text text-anchor="middle" x="130" y="-198.5" font-family="Helvetica,sans-Serif" font-size="10.00"> field_0x40</text>
</g>
<!-- Node13 -->
<g id="node13" class="node">
<title>Node13</title>
<g id="a_node13"><a xlink:href="classcM3dGLin.html" target="_top" xlink:title=" ">
<polygon fill="white" stroke="black" points="0,-191.5 0,-210.5 62,-210.5 62,-191.5 0,-191.5"/>
<text text-anchor="middle" x="31" y="-198.5" font-family="Helvetica,sans-Serif" font-size="10.00">cM3dGLin</text>
</a>
</g>
</g>
<!-- Node11&#45;&gt;Node13 -->
<g id="edge15" class="edge">
<title>Node11&#45;&gt;Node13</title>
<path fill="none" stroke="#9a32cd" stroke-dasharray="5,2" d="M61.6,-261.63C58.92,-258.23 56.25,-254.58 54,-251 45.6,-237.63 38.32,-220.71 34.31,-210.65"/>
<polygon fill="#9a32cd" stroke="#9a32cd" points="59,-263.97 68.09,-269.41 64.38,-259.49 59,-263.97"/>
<text text-anchor="middle" x="69" y="-243" font-family="Helvetica,sans-Serif" font-size="10.00"> mEnd</text>
<text text-anchor="middle" x="69" y="-232" font-family="Helvetica,sans-Serif" font-size="10.00">mStart</text>
</g>
<!-- Node12 -->
<g id="node12" class="node">
<title>Node12</title>
<g id="a_node12"><a xlink:href="structVec.html" target="_top" xlink:title=" ">
<polygon fill="white" stroke="black" points="59,-326.5 59,-345.5 93,-345.5 93,-326.5 59,-326.5"/>
<text text-anchor="middle" x="76" y="-333.5" font-family="Helvetica,sans-Serif" font-size="10.00">Vec</text>
</a>
</g>
</g>
<!-- Node12&#45;&gt;Node11 -->
<g id="edge13" class="edge">
<title>Node12&#45;&gt;Node11</title>
<path fill="none" stroke="midnightblue" d="M76,-316.12C76,-306.82 76,-296.06 76,-288.71"/>
<polygon fill="midnightblue" stroke="midnightblue" points="72.5,-316.41 76,-326.41 79.5,-316.41 72.5,-316.41"/>
</g>
<!-- Node13&#45;&gt;Node8 -->
<g id="edge14" class="edge">
<title>Node13&#45;&gt;Node8</title>
<path fill="none" stroke="#9a32cd" stroke-dasharray="5,2" d="M40.02,-182.51C44.71,-175.09 51.12,-167.01 59,-162 87.94,-143.59 126.85,-137.34 155.47,-135.39"/>
<polygon fill="#9a32cd" stroke="#9a32cd" points="36.94,-180.85 35.02,-191.27 43.02,-184.32 36.94,-180.85"/>
<text text-anchor="middle" x="71.5" y="-165" font-family="Helvetica,sans-Serif" font-size="10.00"> mLin</text>
</g>
</g>
</svg>
