<?xml version="1.0" encoding="UTF-8" standalone="no"?>
<!DOCTYPE svg PUBLIC "-//W3C//DTD SVG 1.1//EN"
 "http://www.w3.org/Graphics/SVG/1.1/DTD/svg11.dtd">
<!-- Generated by graphviz version 2.44.0 ()
 -->
<!-- Title: dBgS_LinChk Pages: 1 -->
<!--zoomable 297 -->
<svg id="main" version="1.1" xmlns="http://www.w3.org/2000/svg" xmlns:xlink="http://www.w3.org/1999/xlink" xml:space="preserve" onload="init(evt)">
<style type="text/css"><![CDATA[
.edge:hover path { stroke: red; }
.edge:hover polygon { stroke: red; fill: red; }
]]></style>
<script type="text/javascript"><![CDATA[
var edges = document.getElementsByTagName('g');
if (edges && edges.length) {
  for (var i=0;i<edges.length;i++) {
    if (edges[i].id.substr(0,4)=='edge') {
      edges[i].setAttribute('class','edge');
    }
  }
}
]]></script>
        <defs>
                <circle id="rim" cx="0" cy="0" r="7"/>
                <circle id="rim2" cx="0" cy="0" r="3.5"/>
                <g id="zoomPlus">
                        <use xlink:href="#rim" fill="#404040">
                                <set attributeName="fill" to="#808080" begin="zoomplus.mouseover" end="zoomplus.mouseout"/>
                        </use>
                        <path d="M-4,0h8M0,-4v8" fill="none" stroke="white" stroke-width="1.5" pointer-events="none"/>
                </g>
                <g id="zoomMin">
                        <use xlink:href="#rim" fill="#404040">
                                <set attributeName="fill" to="#808080" begin="zoomminus.mouseover" end="zoomminus.mouseout"/>
                        </use>
                        <path d="M-4,0h8" fill="none" stroke="white" stroke-width="1.5" pointer-events="none"/>
                </g>
                <g id="dirArrow">
                        <path fill="none" stroke="white" stroke-width="1.5" d="M0,-3.0v7 M-2.5,-0.5L0,-3.0L2.5,-0.5"/>
                </g>
               <g id="resetDef">
                       <use xlink:href="#rim2" fill="#404040">
                               <set attributeName="fill" to="#808080" begin="reset.mouseover" end="reset.mouseout"/>
                       </use>
               </g>
        </defs>

<script type="text/javascript">
var viewWidth = 587;
var viewHeight = 297;
var sectionId = 'dynsection-1';
</script>
<script xlink:href="svgpan.js"/>
<svg id="graph" class="graph">
<g id="viewport">
<title>dBgS_LinChk</title>
<polygon fill="white" stroke="transparent" points="-4,4 -4,-293 583,-293 583,4 -4,4"/>
<!-- Node1 -->
<g id="node1" class="node">
<title>Node1</title>
<g id="a_node1"><a xlink:title=" ">
<polygon fill="#bfbfbf" stroke="black" points="254.5,-0.5 254.5,-19.5 331.5,-19.5 331.5,-0.5 254.5,-0.5"/>
<text text-anchor="middle" x="293" y="-7.5" font-family="Helvetica,sans-Serif" font-size="10.00">dBgS_LinChk</text>
</a>
</g>
</g>
<!-- Node2 -->
<g id="node2" class="node">
<title>Node2</title>
<g id="a_node2"><a xlink:href="classdBgS__Chk.html" target="_top" xlink:title=" ">
<polygon fill="white" stroke="black" points="361.5,-67.5 361.5,-86.5 424.5,-86.5 424.5,-67.5 361.5,-67.5"/>
<text text-anchor="middle" x="393" y="-74.5" font-family="Helvetica,sans-Serif" font-size="10.00">dBgS_Chk</text>
</a>
</g>
</g>
<!-- Node2&#45;&gt;Node1 -->
<g id="edge1" class="edge">
<title>Node2&#45;&gt;Node1</title>
<path fill="none" stroke="#9a32cd" stroke-dasharray="5,2" d="M371.11,-61.77C351.31,-48.9 322.81,-30.38 306.27,-19.63"/>
<polygon fill="#9a32cd" stroke="#9a32cd" points="369.22,-64.72 379.51,-67.23 373.04,-58.85 369.22,-64.72"/>
<text text-anchor="middle" x="363" y="-41" font-family="Helvetica,sans-Serif" font-size="10.00"> mChk</text>
</g>
<!-- Node3 -->
<g id="node3" class="node">
<title>Node3</title>
<g id="a_node3"><a xlink:href="classdBgS__GrpPassChk.html" target="_top" xlink:title=" ">
<polygon fill="white" stroke="black" points="342.5,-134.5 342.5,-153.5 443.5,-153.5 443.5,-134.5 342.5,-134.5"/>
<text text-anchor="middle" x="393" y="-141.5" font-family="Helvetica,sans-Serif" font-size="10.00">dBgS_GrpPassChk</text>
</a>
</g>
</g>
<!-- Node3&#45;&gt;Node2 -->
<g id="edge2" class="edge">
<title>Node3&#45;&gt;Node2</title>
<path fill="none" stroke="#9a32cd" stroke-dasharray="5,2" d="M393,-124.04C393,-111.67 393,-96.12 393,-86.63"/>
<polygon fill="#9a32cd" stroke="#9a32cd" points="389.5,-124.23 393,-134.23 396.5,-124.23 389.5,-124.23"/>
<text text-anchor="middle" x="434.5" y="-108" font-family="Helvetica,sans-Serif" font-size="10.00"> mGrpPassChkInfo</text>
</g>
<!-- Node4 -->
<g id="node4" class="node">
<title>Node4</title>
<g id="a_node4"><a xlink:href="classcBgS__GrpPassChk.html" target="_top" xlink:title=" ">
<polygon fill="white" stroke="black" points="204.5,-212.5 204.5,-231.5 305.5,-231.5 305.5,-212.5 204.5,-212.5"/>
<text text-anchor="middle" x="255" y="-219.5" font-family="Helvetica,sans-Serif" font-size="10.00">cBgS_GrpPassChk</text>
</a>
</g>
</g>
<!-- Node4&#45;&gt;Node3 -->
<g id="edge3" class="edge">
<title>Node4&#45;&gt;Node3</title>
<path fill="none" stroke="midnightblue" d="M278.97,-207.53C286.65,-203.21 295.18,-198.4 303,-194 320.34,-184.23 324.54,-181.55 342,-172 353.43,-165.75 366.4,-158.89 376.4,-153.64"/>
<polygon fill="midnightblue" stroke="midnightblue" points="277.14,-204.54 270.14,-212.49 280.57,-210.64 277.14,-204.54"/>
</g>
<!-- Node8 -->
<g id="node8" class="node">
<title>Node8</title>
<g id="a_node8"><a xlink:href="classcBgS__Chk.html" target="_top" xlink:title=" ">
<polygon fill="white" stroke="black" points="162.5,-134.5 162.5,-153.5 225.5,-153.5 225.5,-134.5 162.5,-134.5"/>
<text text-anchor="middle" x="194" y="-141.5" font-family="Helvetica,sans-Serif" font-size="10.00">cBgS_Chk</text>
</a>
</g>
</g>
<!-- Node4&#45;&gt;Node8 -->
<g id="edge8" class="edge">
<title>Node4&#45;&gt;Node8</title>
<path fill="none" stroke="#9a32cd" stroke-dasharray="5,2" d="M241.71,-204.44C229.15,-188.79 210.8,-165.93 200.92,-153.62"/>
<polygon fill="#9a32cd" stroke="#9a32cd" points="239.01,-206.67 248,-212.28 244.47,-202.29 239.01,-206.67"/>
<text text-anchor="middle" x="265.5" y="-180.5" font-family="Helvetica,sans-Serif" font-size="10.00"> mGrpPassChk</text>
</g>
<!-- Node5 -->
<g id="node5" class="node">
<title>Node5</title>
<g id="a_node5"><a xlink:href="classdBgS__PolyPassChk.html" target="_top" xlink:title=" ">
<polygon fill="white" stroke="black" points="462,-134.5 462,-153.5 566,-153.5 566,-134.5 462,-134.5"/>
<text text-anchor="middle" x="514" y="-141.5" font-family="Helvetica,sans-Serif" font-size="10.00">dBgS_PolyPassChk</text>
</a>
</g>
</g>
<!-- Node5&#45;&gt;Node2 -->
<g id="edge4" class="edge">
<title>Node5&#45;&gt;Node2</title>
<path fill="none" stroke="#9a32cd" stroke-dasharray="5,2" d="M502.21,-126.12C496.3,-118.73 488.57,-110.5 480,-105 463.23,-94.23 441.9,-87.52 424.55,-83.49"/>
<polygon fill="#9a32cd" stroke="#9a32cd" points="499.47,-128.3 508.27,-134.21 505.08,-124.1 499.47,-128.3"/>
<text text-anchor="middle" x="536" y="-108" font-family="Helvetica,sans-Serif" font-size="10.00"> mPolyPassChkInfo</text>
</g>
<!-- Node6 -->
<g id="node6" class="node">
<title>Node6</title>
<g id="a_node6"><a xlink:href="classcBgS__PolyPassChk.html" target="_top" xlink:title=" ">
<polygon fill="white" stroke="black" points="382,-212.5 382,-231.5 486,-231.5 486,-212.5 382,-212.5"/>
<text text-anchor="middle" x="434" y="-219.5" font-family="Helvetica,sans-Serif" font-size="10.00">cBgS_PolyPassChk</text>
</a>
</g>
</g>
<!-- Node6&#45;&gt;Node5 -->
<g id="edge5" class="edge">
<title>Node6&#45;&gt;Node5</title>
<path fill="none" stroke="midnightblue" d="M450.52,-205.3C467.01,-189.64 491.73,-166.16 504.93,-153.62"/>
<polygon fill="midnightblue" stroke="midnightblue" points="448.02,-202.86 443.18,-212.28 452.84,-207.93 448.02,-202.86"/>
</g>
<!-- Node6&#45;&gt;Node8 -->
<g id="edge9" class="edge">
<title>Node6&#45;&gt;Node8</title>
<path fill="none" stroke="#9a32cd" stroke-dasharray="5,2" d="M403.97,-208.64C377.63,-198.07 338.17,-182.89 303,-172 288.71,-167.57 252.37,-158.75 225.56,-152.39"/>
<polygon fill="#9a32cd" stroke="#9a32cd" points="402.8,-211.94 413.38,-212.44 405.42,-205.45 402.8,-211.94"/>
<text text-anchor="middle" x="400" y="-180.5" font-family="Helvetica,sans-Serif" font-size="10.00"> mPolyPassChk</text>
</g>
<!-- Node7 -->
<g id="node7" class="node">
<title>Node7</title>
<g id="a_node7"><a xlink:href="classcBgS__LinChk.html" target="_top" xlink:title=" ">
<polygon fill="white" stroke="black" points="155.5,-67.5 155.5,-86.5 232.5,-86.5 232.5,-67.5 155.5,-67.5"/>
<text text-anchor="middle" x="194" y="-74.5" font-family="Helvetica,sans-Serif" font-size="10.00">cBgS_LinChk</text>
</a>
</g>
</g>
<!-- Node7&#45;&gt;Node1 -->
<g id="edge6" class="edge">
<title>Node7&#45;&gt;Node1</title>
<path fill="none" stroke="#9a32cd" stroke-dasharray="5,2" d="M215.94,-61.59C235.53,-48.74 263.56,-30.33 279.86,-19.63"/>
<polygon fill="#9a32cd" stroke="#9a32cd" points="213.79,-58.82 207.35,-67.23 217.63,-64.67 213.79,-58.82"/>
<text text-anchor="middle" x="271" y="-41" font-family="Helvetica,sans-Serif" font-size="10.00"> mLinChk</text>
</g>
<!-- Node8&#45;&gt;Node7 -->
<g id="edge7" class="edge">
<title>Node8&#45;&gt;Node7</title>
<path fill="none" stroke="#8b1a1a" d="M194,-124.04C194,-111.67 194,-96.12 194,-86.63"/>
<polygon fill="#8b1a1a" stroke="#8b1a1a" points="190.5,-124.23 194,-134.23 197.5,-124.23 190.5,-124.23"/>
</g>
<!-- Node9 -->
<g id="node9" class="node">
<title>Node9</title>
<g id="a_node9"><a xlink:href="classcBgS__PolyInfo.html" target="_top" xlink:title=" ">
<polygon fill="white" stroke="black" points="243.5,-134.5 243.5,-153.5 324.5,-153.5 324.5,-134.5 243.5,-134.5"/>
<text text-anchor="middle" x="284" y="-141.5" font-family="Helvetica,sans-Serif" font-size="10.00">cBgS_PolyInfo</text>
</a>
</g>
</g>
<!-- Node9&#45;&gt;Node7 -->
<g id="edge10" class="edge">
<title>Node9&#45;&gt;Node7</title>
<path fill="none" stroke="#9a32cd" stroke-dasharray="5,2" d="M263.32,-128.07C245.56,-115.24 220.56,-97.19 205.95,-86.63"/>
<polygon fill="#9a32cd" stroke="#9a32cd" points="261.71,-131.22 271.86,-134.23 265.8,-125.54 261.71,-131.22"/>
<text text-anchor="middle" x="268" y="-108" font-family="Helvetica,sans-Serif" font-size="10.00"> mPolyInfo</text>
</g>
<!-- Node10 -->
<g id="node10" class="node">
<title>Node10</title>
<g id="a_node10"><a xlink:href="classcXyz.html" target="_top" xlink:title=" ">
<polygon fill="white" stroke="black" points="57,-212.5 57,-231.5 95,-231.5 95,-212.5 57,-212.5"/>
<text text-anchor="middle" x="76" y="-219.5" font-family="Helvetica,sans-Serif" font-size="10.00">cXyz</text>
</a>
</g>
</g>
<!-- Node10&#45;&gt;Node7 -->
<g id="edge11" class="edge">
<title>Node10&#45;&gt;Node7</title>
<path fill="none" stroke="#9a32cd" stroke-dasharray="5,2" d="M81.79,-202.81C89.47,-178.98 102.59,-139.56 107,-134 124.64,-111.76 153.64,-95.64 173.27,-86.56"/>
<polygon fill="#9a32cd" stroke="#9a32cd" points="78.41,-201.89 78.69,-212.48 85.07,-204.03 78.41,-201.89"/>
<text text-anchor="middle" x="130" y="-141.5" font-family="Helvetica,sans-Serif" font-size="10.00"> field_0x40</text>
</g>
<!-- Node12 -->
<g id="node12" class="node">
<title>Node12</title>
<g id="a_node12"><a xlink:href="classcM3dGLin.html" target="_top" xlink:title=" ">
<polygon fill="white" stroke="black" points="0,-134.5 0,-153.5 62,-153.5 62,-134.5 0,-134.5"/>
<text text-anchor="middle" x="31" y="-141.5" font-family="Helvetica,sans-Serif" font-size="10.00">cM3dGLin</text>
</a>
</g>
</g>
<!-- Node10&#45;&gt;Node12 -->
<g id="edge14" class="edge">
<title>Node10&#45;&gt;Node12</title>
<path fill="none" stroke="#9a32cd" stroke-dasharray="5,2" d="M61.6,-204.63C58.92,-201.23 56.25,-197.58 54,-194 45.6,-180.63 38.32,-163.71 34.31,-153.65"/>
<polygon fill="#9a32cd" stroke="#9a32cd" points="59,-206.97 68.09,-212.41 64.38,-202.49 59,-206.97"/>
<text text-anchor="middle" x="69" y="-186" font-family="Helvetica,sans-Serif" font-size="10.00"> mEnd</text>
<text text-anchor="middle" x="69" y="-175" font-family="Helvetica,sans-Serif" font-size="10.00">mStart</text>
</g>
<!-- Node11 -->
<g id="node11" class="node">
<title>Node11</title>
<g id="a_node11"><a xlink:href="structVec.html" target="_top" xlink:title=" ">
<polygon fill="white" stroke="black" points="59,-269.5 59,-288.5 93,-288.5 93,-269.5 59,-269.5"/>
<text text-anchor="middle" x="76" y="-276.5" font-family="Helvetica,sans-Serif" font-size="10.00">Vec</text>
</a>
</g>
</g>
<!-- Node11&#45;&gt;Node10 -->
<g id="edge12" class="edge">
<title>Node11&#45;&gt;Node10</title>
<path fill="none" stroke="midnightblue" d="M76,-259.12C76,-249.82 76,-239.06 76,-231.71"/>
<polygon fill="midnightblue" stroke="midnightblue" points="72.5,-259.41 76,-269.41 79.5,-259.41 72.5,-259.41"/>
</g>
<!-- Node12&#45;&gt;Node7 -->
<g id="edge13" class="edge">
<title>Node12&#45;&gt;Node7</title>
<path fill="none" stroke="#9a32cd" stroke-dasharray="5,2" d="M40.02,-125.51C44.71,-118.09 51.12,-110.01 59,-105 87.94,-86.59 126.85,-80.34 155.47,-78.39"/>
<polygon fill="#9a32cd" stroke="#9a32cd" points="36.94,-123.85 35.02,-134.27 43.02,-127.32 36.94,-123.85"/>
<text text-anchor="middle" x="71.5" y="-108" font-family="Helvetica,sans-Serif" font-size="10.00"> mLin</text>
</g>
</g>
</svg>
        <g id="navigator" transform="translate(0 0)" fill="#404254">
                <rect fill="#f2f5e9" fill-opacity="0.5" stroke="#606060" stroke-width=".5" x="0" y="0" width="60" height="60"/>
                <use id="zoomplus" xlink:href="#zoomPlus" x="17" y="9" onmousedown="handleZoom(evt,'in')"/>
                <use id="zoomminus" xlink:href="#zoomMin" x="42" y="9" onmousedown="handleZoom(evt,'out')"/>
                <use id="reset" xlink:href="#resetDef" x="30" y="36" onmousedown="handleReset()"/>
                <g id="arrowUp" xlink:href="#dirArrow" transform="translate(30 24)" onmousedown="handlePan(0,-1)">
                  <use xlink:href="#rim" fill="#404040">
                        <set attributeName="fill" to="#808080" begin="arrowUp.mouseover" end="arrowUp.mouseout"/>
                  </use>
                  <path fill="none" stroke="white" stroke-width="1.5" d="M0,-3.0v7 M-2.5,-0.5L0,-3.0L2.5,-0.5"/>
                </g>
                <g id="arrowRight" xlink:href="#dirArrow" transform="rotate(90) translate(36 -43)" onmousedown="handlePan(1,0)">
                  <use xlink:href="#rim" fill="#404040">
                        <set attributeName="fill" to="#808080" begin="arrowRight.mouseover" end="arrowRight.mouseout"/>
                  </use>
                  <path fill="none" stroke="white" stroke-width="1.5" d="M0,-3.0v7 M-2.5,-0.5L0,-3.0L2.5,-0.5"/>
                </g>
                <g id="arrowDown" xlink:href="#dirArrow" transform="rotate(180) translate(-30 -48)" onmousedown="handlePan(0,1)">
                  <use xlink:href="#rim" fill="#404040">
                        <set attributeName="fill" to="#808080" begin="arrowDown.mouseover" end="arrowDown.mouseout"/>
                  </use>
                  <path fill="none" stroke="white" stroke-width="1.5" d="M0,-3.0v7 M-2.5,-0.5L0,-3.0L2.5,-0.5"/>
                </g>
                <g id="arrowLeft" xlink:href="#dirArrow" transform="rotate(270) translate(-36 17)" onmousedown="handlePan(-1,0)">
                  <use xlink:href="#rim" fill="#404040">
                        <set attributeName="fill" to="#808080" begin="arrowLeft.mouseover" end="arrowLeft.mouseout"/>
                  </use>
                  <path fill="none" stroke="white" stroke-width="1.5" d="M0,-3.0v7 M-2.5,-0.5L0,-3.0L2.5,-0.5"/>
                </g>
        </g>
        <svg viewBox="0 0 15 15" width="100%" height="30px" preserveAspectRatio="xMaxYMin meet">
         <g id="arrow_out" transform="scale(0.3 0.3)">
          <a xlink:href="classdBgS__LinChk__coll__graph_org.svg" target="_base">
           <rect id="button" ry="5" rx="5" y="6" x="6" height="38" width="38"
                fill="#f2f5e9" fill-opacity="0.5" stroke="#606060" stroke-width="1.0"/>
           <path id="arrow"
             d="M 11.500037,31.436501 C 11.940474,20.09759 22.043105,11.32322 32.158766,21.979434 L 37.068811,17.246167 C 37.068811,17.246167 37.088388,32 37.088388,32 L 22.160133,31.978069 C 22.160133,31.978069 26.997745,27.140456 26.997745,27.140456 C 18.528582,18.264221 13.291696,25.230495 11.500037,31.436501 z"
             style="fill:#404040;"/>
          </a>
         </g>
        </svg>
</svg>
