<?xml version="1.0" encoding="UTF-8" standalone="no"?>
<!DOCTYPE svg PUBLIC "-//W3C//DTD SVG 1.1//EN"
 "http://www.w3.org/Graphics/SVG/1.1/DTD/svg11.dtd">
<!-- Generated by graphviz version 2.44.0 ()
 -->
<!-- Title: src/d/d_a/d_a_horse_static.cpp Pages: 1 -->
<!--zoomable 609 -->
<svg id="main" version="1.1" xmlns="http://www.w3.org/2000/svg" xmlns:xlink="http://www.w3.org/1999/xlink" xml:space="preserve" onload="init(evt)">
<style type="text/css"><![CDATA[
.edge:hover path { stroke: red; }
.edge:hover polygon { stroke: red; fill: red; }
]]></style>
<script type="text/javascript"><![CDATA[
var edges = document.getElementsByTagName('g');
if (edges && edges.length) {
  for (var i=0;i<edges.length;i++) {
    if (edges[i].id.substr(0,4)=='edge') {
      edges[i].setAttribute('class','edge');
    }
  }
}
]]></script>
        <defs>
                <circle id="rim" cx="0" cy="0" r="7"/>
                <circle id="rim2" cx="0" cy="0" r="3.5"/>
                <g id="zoomPlus">
                        <use xlink:href="#rim" fill="#404040">
                                <set attributeName="fill" to="#808080" begin="zoomplus.mouseover" end="zoomplus.mouseout"/>
                        </use>
                        <path d="M-4,0h8M0,-4v8" fill="none" stroke="white" stroke-width="1.5" pointer-events="none"/>
                </g>
                <g id="zoomMin">
                        <use xlink:href="#rim" fill="#404040">
                                <set attributeName="fill" to="#808080" begin="zoomminus.mouseover" end="zoomminus.mouseout"/>
                        </use>
                        <path d="M-4,0h8" fill="none" stroke="white" stroke-width="1.5" pointer-events="none"/>
                </g>
                <g id="dirArrow">
                        <path fill="none" stroke="white" stroke-width="1.5" d="M0,-3.0v7 M-2.5,-0.5L0,-3.0L2.5,-0.5"/>
                </g>
               <g id="resetDef">
                       <use xlink:href="#rim2" fill="#404040">
                               <set attributeName="fill" to="#808080" begin="reset.mouseover" end="reset.mouseout"/>
                       </use>
               </g>
        </defs>

<script type="text/javascript">
var viewWidth = 625;
var viewHeight = 609;
var sectionId = 'dynsection-0';
</script>
<script xlink:href="svgpan.js"/>
<svg id="graph" class="graph">
<g id="viewport">
<title>src/d/d_a/d_a_horse_static.cpp</title>
<polygon fill="white" stroke="transparent" points="-4,4 -4,-605 621,-605 621,4 -4,4"/>
<!-- Node1 -->
<g id="node1" class="node">
<title>Node1</title>
<g id="a_node1"><a xlink:title=" ">
<polygon fill="#bfbfbf" stroke="black" points="148.5,-570.5 148.5,-600.5 253.5,-600.5 253.5,-570.5 148.5,-570.5"/>
<text text-anchor="start" x="156.5" y="-588.5" font-family="Helvetica,sans-Serif" font-size="10.00">src/d/d_a/d_a_horse</text>
<text text-anchor="middle" x="201" y="-577.5" font-family="Helvetica,sans-Serif" font-size="10.00">_static.cpp</text>
</a>
</g>
</g>
<!-- Node2 -->
<g id="node2" class="node">
<title>Node2</title>
<g id="a_node2"><a xlink:href="d__a__horse__static_8h.html" target="_top" xlink:title=" ">
<polygon fill="white" stroke="black" points="55,-503.5 55,-533.5 173,-533.5 173,-503.5 55,-503.5"/>
<text text-anchor="start" x="63" y="-521.5" font-family="Helvetica,sans-Serif" font-size="10.00">d/d_a/d_a_horse_static</text>
<text text-anchor="middle" x="114" y="-510.5" font-family="Helvetica,sans-Serif" font-size="10.00">/d_a_horse_static.h</text>
</a>
</g>
</g>
<!-- Node1&#45;&gt;Node2 -->
<g id="edge1" class="edge">
<title>Node1&#45;&gt;Node2</title>
<path fill="none" stroke="midnightblue" d="M182.12,-570.4C170.15,-561.45 154.47,-549.74 141.17,-539.8"/>
<polygon fill="midnightblue" stroke="midnightblue" points="142.95,-536.76 132.84,-533.58 138.76,-542.37 142.95,-536.76"/>
</g>
<!-- Node3 -->
<g id="node3" class="node">
<title>Node3</title>
<g id="a_node3"><a xlink:href="Z2Creature_8h.html" target="_top" xlink:title=" ">
<polygon fill="white" stroke="black" points="55.5,-436.5 55.5,-466.5 172.5,-466.5 172.5,-436.5 55.5,-436.5"/>
<text text-anchor="start" x="63.5" y="-454.5" font-family="Helvetica,sans-Serif" font-size="10.00">Z2AudioLib/Z2Creature</text>
<text text-anchor="middle" x="114" y="-443.5" font-family="Helvetica,sans-Serif" font-size="10.00">/Z2Creature.h</text>
</a>
</g>
</g>
<!-- Node1&#45;&gt;Node3 -->
<g id="edge30" class="edge">
<title>Node1&#45;&gt;Node3</title>
<path fill="none" stroke="midnightblue" d="M200.61,-570.38C199.53,-553.16 195.63,-523.77 182,-503 173.89,-490.63 161.65,-480.19 149.79,-472.06"/>
<polygon fill="midnightblue" stroke="midnightblue" points="151.57,-469.05 141.28,-466.56 147.77,-474.93 151.57,-469.05"/>
</g>
<!-- Node9 -->
<g id="node9" class="node">
<title>Node9</title>
<g id="a_node9"><a xlink:href="global_8h.html" target="_top" xlink:title=" ">
<polygon fill="white" stroke="black" points="278,-179.5 278,-198.5 328,-198.5 328,-179.5 278,-179.5"/>
<text text-anchor="middle" x="303" y="-186.5" font-family="Helvetica,sans-Serif" font-size="10.00">global.h</text>
</a>
</g>
</g>
<!-- Node1&#45;&gt;Node9 -->
<g id="edge31" class="edge">
<title>Node1&#45;&gt;Node9</title>
<path fill="none" stroke="midnightblue" d="M253.7,-574.63C346.42,-555.75 529,-511.12 529,-452.5 529,-452.5 529,-452.5 529,-316.5 529,-230.04 401.48,-202.09 338.02,-193.54"/>
<polygon fill="midnightblue" stroke="midnightblue" points="338.41,-190.06 328.05,-192.28 337.53,-197.01 338.41,-190.06"/>
</g>
<!-- Node2&#45;&gt;Node3 -->
<g id="edge2" class="edge">
<title>Node2&#45;&gt;Node3</title>
<path fill="none" stroke="midnightblue" d="M114,-503.4C114,-495.64 114,-485.81 114,-476.86"/>
<polygon fill="midnightblue" stroke="midnightblue" points="117.5,-476.58 114,-466.58 110.5,-476.58 117.5,-476.58"/>
</g>
<!-- Node4 -->
<g id="node4" class="node">
<title>Node4</title>
<g id="a_node4"><a xlink:href="Z2SoundObject_8h.html" target="_top" xlink:title=" ">
<polygon fill="white" stroke="black" points="45.5,-369.5 45.5,-399.5 182.5,-399.5 182.5,-369.5 45.5,-369.5"/>
<text text-anchor="start" x="53.5" y="-387.5" font-family="Helvetica,sans-Serif" font-size="10.00">Z2AudioLib/Z2SoundObject</text>
<text text-anchor="middle" x="114" y="-376.5" font-family="Helvetica,sans-Serif" font-size="10.00">/Z2SoundObject.h</text>
</a>
</g>
</g>
<!-- Node3&#45;&gt;Node4 -->
<g id="edge3" class="edge">
<title>Node3&#45;&gt;Node4</title>
<path fill="none" stroke="midnightblue" d="M114,-436.4C114,-428.64 114,-418.81 114,-409.86"/>
<polygon fill="midnightblue" stroke="midnightblue" points="117.5,-409.58 114,-399.58 110.5,-409.58 117.5,-409.58"/>
</g>
<!-- Node6 -->
<g id="node6" class="node">
<title>Node6</title>
<g id="a_node6"><a xlink:href="types_8h.html" target="_top" xlink:title=" ">
<polygon fill="white" stroke="black" points="208.5,-0.5 208.5,-19.5 289.5,-19.5 289.5,-0.5 208.5,-0.5"/>
<text text-anchor="middle" x="249" y="-7.5" font-family="Helvetica,sans-Serif" font-size="10.00">dolphin/types.h</text>
</a>
</g>
</g>
<!-- Node3&#45;&gt;Node6 -->
<g id="edge29" class="edge">
<title>Node3&#45;&gt;Node6</title>
<path fill="none" stroke="midnightblue" d="M83.91,-436.42C67.99,-427.74 49.08,-415.34 36,-400 10.31,-369.87 0,-358.1 0,-318.5 0,-318.5 0,-318.5 0,-132 0,-44.73 125.26,-20.39 198.09,-13.61"/>
<polygon fill="midnightblue" stroke="midnightblue" points="198.77,-17.06 208.44,-12.73 198.18,-10.09 198.77,-17.06"/>
</g>
<!-- Node5 -->
<g id="node5" class="node">
<title>Node5</title>
<g id="a_node5"><a xlink:href="JGeometry_8h.html" target="_top" xlink:title=" ">
<polygon fill="white" stroke="black" points="104.5,-241 104.5,-260 267.5,-260 267.5,-241 104.5,-241"/>
<text text-anchor="middle" x="186" y="-248" font-family="Helvetica,sans-Serif" font-size="10.00">JSystem/JGeometry/JGeometry.h</text>
</a>
</g>
</g>
<!-- Node4&#45;&gt;Node5 -->
<g id="edge4" class="edge">
<title>Node4&#45;&gt;Node5</title>
<path fill="none" stroke="midnightblue" d="M114.84,-369.35C116.39,-352.35 120.74,-323.44 133,-302 141.04,-287.93 154.22,-275.35 165.42,-266.26"/>
<polygon fill="midnightblue" stroke="midnightblue" points="167.72,-268.92 173.49,-260.03 163.44,-263.38 167.72,-268.92"/>
</g>
<!-- Node7 -->
<g id="node7" class="node">
<title>Node7</title>
<g id="a_node7"><a xlink:href="Z2SoundHandles_8h.html" target="_top" xlink:title=" ">
<polygon fill="white" stroke="black" points="298,-302.5 298,-332.5 442,-332.5 442,-302.5 298,-302.5"/>
<text text-anchor="start" x="306" y="-320.5" font-family="Helvetica,sans-Serif" font-size="10.00">Z2AudioLib/Z2SoundHandles</text>
<text text-anchor="middle" x="370" y="-309.5" font-family="Helvetica,sans-Serif" font-size="10.00">/Z2SoundHandles.h</text>
</a>
</g>
</g>
<!-- Node4&#45;&gt;Node7 -->
<g id="edge6" class="edge">
<title>Node4&#45;&gt;Node7</title>
<path fill="none" stroke="midnightblue" d="M169.23,-369.48C208.97,-359.39 262.71,-345.74 304.59,-335.11"/>
<polygon fill="midnightblue" stroke="midnightblue" points="305.59,-338.46 314.42,-332.61 303.87,-331.68 305.59,-338.46"/>
</g>
<!-- Node4&#45;&gt;Node9 -->
<g id="edge26" class="edge">
<title>Node4&#45;&gt;Node9</title>
<path fill="none" stroke="midnightblue" d="M106.09,-369.39C91.14,-340.63 63.01,-274.65 95,-235 116.31,-208.58 214.19,-196.9 267.74,-192.42"/>
<polygon fill="midnightblue" stroke="midnightblue" points="268.13,-195.9 277.83,-191.61 267.58,-188.92 268.13,-195.9"/>
</g>
<!-- Node16 -->
<g id="node16" class="node">
<title>Node16</title>
<g id="a_node16"><a xlink:href="Z2SoundStarter_8h.html" target="_top" xlink:title=" ">
<polygon fill="white" stroke="black" points="142.5,-302.5 142.5,-332.5 279.5,-332.5 279.5,-302.5 142.5,-302.5"/>
<text text-anchor="start" x="150.5" y="-320.5" font-family="Helvetica,sans-Serif" font-size="10.00">Z2AudioLib/Z2SoundStarter</text>
<text text-anchor="middle" x="211" y="-309.5" font-family="Helvetica,sans-Serif" font-size="10.00">/Z2SoundStarter.h</text>
</a>
</g>
</g>
<!-- Node4&#45;&gt;Node16 -->
<g id="edge23" class="edge">
<title>Node4&#45;&gt;Node16</title>
<path fill="none" stroke="midnightblue" d="M135.05,-369.4C148.65,-360.28 166.54,-348.29 181.55,-338.24"/>
<polygon fill="midnightblue" stroke="midnightblue" points="183.63,-341.05 189.99,-332.58 179.74,-335.24 183.63,-341.05"/>
</g>
<!-- Node17 -->
<g id="node17" class="node">
<title>Node17</title>
<g id="a_node17"><a xlink:href="mtx__vec_8h.html" target="_top" xlink:title=" ">
<polygon fill="white" stroke="black" points="36.5,-179.5 36.5,-198.5 97.5,-198.5 97.5,-179.5 36.5,-179.5"/>
<text text-anchor="middle" x="67" y="-186.5" font-family="Helvetica,sans-Serif" font-size="10.00">mtx_vec.h</text>
</a>
</g>
</g>
<!-- Node4&#45;&gt;Node17 -->
<g id="edge27" class="edge">
<title>Node4&#45;&gt;Node17</title>
<path fill="none" stroke="midnightblue" d="M92.7,-369.38C81.27,-360.46 68.27,-347.84 62,-333 44.32,-291.19 54.43,-236.2 61.66,-208.16"/>
<polygon fill="midnightblue" stroke="midnightblue" points="65.04,-209.08 64.32,-198.51 58.29,-207.22 65.04,-209.08"/>
</g>
<!-- Node5&#45;&gt;Node6 -->
<g id="edge5" class="edge">
<title>Node5&#45;&gt;Node6</title>
<path fill="none" stroke="midnightblue" d="M183.03,-240.61C173.9,-211.64 149.05,-118.26 185,-56 192.87,-42.37 206.73,-31.86 219.54,-24.44"/>
<polygon fill="midnightblue" stroke="midnightblue" points="221.43,-27.39 228.58,-19.58 218.12,-21.23 221.43,-27.39"/>
</g>
<!-- Node7&#45;&gt;Node5 -->
<g id="edge19" class="edge">
<title>Node7&#45;&gt;Node5</title>
<path fill="none" stroke="midnightblue" d="M330.07,-302.4C297.08,-290.74 250.75,-274.37 219.62,-263.38"/>
<polygon fill="midnightblue" stroke="midnightblue" points="220.68,-260.04 210.08,-260.01 218.34,-266.64 220.68,-260.04"/>
</g>
<!-- Node7&#45;&gt;Node6 -->
<g id="edge22" class="edge">
<title>Node7&#45;&gt;Node6</title>
<path fill="none" stroke="midnightblue" d="M394.94,-302.45C408.41,-293.64 424.24,-281.1 434,-266 452.9,-236.76 453,-224.82 453,-190 453,-190 453,-190 453,-132 453,-97.07 457.91,-80.48 433,-56 414.32,-37.64 347.63,-24.7 299.92,-17.55"/>
<polygon fill="midnightblue" stroke="midnightblue" points="300.15,-14.05 289.75,-16.07 299.14,-20.98 300.15,-14.05"/>
</g>
<!-- Node8 -->
<g id="node8" class="node">
<title>Node8</title>
<g id="a_node8"><a xlink:href="JAISound_8h.html" target="_top" xlink:title=" ">
<polygon fill="white" stroke="black" points="285.5,-235.5 285.5,-265.5 424.5,-265.5 424.5,-235.5 285.5,-235.5"/>
<text text-anchor="start" x="293.5" y="-253.5" font-family="Helvetica,sans-Serif" font-size="10.00">JSystem/JAudio2/JAISound</text>
<text text-anchor="middle" x="355" y="-242.5" font-family="Helvetica,sans-Serif" font-size="10.00">/JAISound.h</text>
</a>
</g>
</g>
<!-- Node7&#45;&gt;Node8 -->
<g id="edge7" class="edge">
<title>Node7&#45;&gt;Node8</title>
<path fill="none" stroke="midnightblue" d="M366.75,-302.4C364.94,-294.56 362.64,-284.6 360.55,-275.57"/>
<polygon fill="midnightblue" stroke="midnightblue" points="363.91,-274.53 358.25,-265.58 357.09,-276.11 363.91,-274.53"/>
</g>
<!-- Node15 -->
<g id="node15" class="node">
<title>Node15</title>
<g id="a_node15"><a xlink:href="JSUList_8h.html" target="_top" xlink:title=" ">
<polygon fill="white" stroke="black" points="481,-56.5 481,-86.5 617,-86.5 617,-56.5 481,-56.5"/>
<text text-anchor="start" x="489" y="-74.5" font-family="Helvetica,sans-Serif" font-size="10.00">JSystem/JSupport/JSUList</text>
<text text-anchor="middle" x="549" y="-63.5" font-family="Helvetica,sans-Serif" font-size="10.00">/JSUList.h</text>
</a>
</g>
</g>
<!-- Node7&#45;&gt;Node15 -->
<g id="edge20" class="edge">
<title>Node7&#45;&gt;Node15</title>
<path fill="none" stroke="midnightblue" d="M411.41,-302.43C430.37,-294.27 451.93,-282.32 467,-266 513.15,-216.04 535.57,-136.24 544.35,-96.55"/>
<polygon fill="midnightblue" stroke="midnightblue" points="547.79,-97.2 546.43,-86.7 540.94,-95.76 547.79,-97.2"/>
</g>
<!-- Node8&#45;&gt;Node9 -->
<g id="edge8" class="edge">
<title>Node8&#45;&gt;Node9</title>
<path fill="none" stroke="midnightblue" d="M342.68,-235.4C335.04,-226.66 325.21,-215.41 317.24,-206.3"/>
<polygon fill="midnightblue" stroke="midnightblue" points="319.78,-203.88 310.57,-198.66 314.51,-208.49 319.78,-203.88"/>
</g>
<!-- Node9&#45;&gt;Node6 -->
<g id="edge9" class="edge">
<title>Node9&#45;&gt;Node6</title>
<path fill="none" stroke="midnightblue" d="M277.94,-185.84C251.29,-182.06 210.36,-171.65 191,-143 164.96,-104.47 207.26,-52.35 232.42,-26.65"/>
<polygon fill="midnightblue" stroke="midnightblue" points="234.94,-29.09 239.59,-19.57 230.02,-24.11 234.94,-29.09"/>
</g>
<!-- Node10 -->
<g id="node10" class="node">
<title>Node10</title>
<g id="a_node10"><a xlink:href="AR_8h.html" target="_top" xlink:title=" ">
<polygon fill="white" stroke="black" points="199.5,-123.5 199.5,-142.5 248.5,-142.5 248.5,-123.5 199.5,-123.5"/>
<text text-anchor="middle" x="224" y="-130.5" font-family="Helvetica,sans-Serif" font-size="10.00">ar/AR.h</text>
</a>
</g>
</g>
<!-- Node9&#45;&gt;Node10 -->
<g id="edge10" class="edge">
<title>Node9&#45;&gt;Node10</title>
<path fill="none" stroke="midnightblue" d="M290.31,-179.32C278.1,-170.98 259.42,-158.21 245,-148.35"/>
<polygon fill="midnightblue" stroke="midnightblue" points="246.89,-145.41 236.66,-142.65 242.94,-151.19 246.89,-145.41"/>
</g>
<!-- Node11 -->
<g id="node11" class="node">
<title>Node11</title>
<g id="a_node11"><a xlink:href="ARQ_8h.html" target="_top" xlink:title=" ">
<polygon fill="white" stroke="black" points="249,-62 249,-81 305,-81 305,-62 249,-62"/>
<text text-anchor="middle" x="277" y="-69" font-family="Helvetica,sans-Serif" font-size="10.00">ar/ARQ.h</text>
</a>
</g>
</g>
<!-- Node9&#45;&gt;Node11 -->
<g id="edge12" class="edge">
<title>Node9&#45;&gt;Node11</title>
<path fill="none" stroke="midnightblue" d="M301.05,-179.32C296.85,-160.67 286.89,-116.44 281.19,-91.13"/>
<polygon fill="midnightblue" stroke="midnightblue" points="284.59,-90.27 278.98,-81.28 277.76,-91.81 284.59,-90.27"/>
</g>
<!-- Node12 -->
<g id="node12" class="node">
<title>Node12</title>
<g id="a_node12"><a xlink:href="mwcc_8h.html" target="_top" xlink:title=" ">
<polygon fill="white" stroke="black" points="305,-123.5 305,-142.5 355,-142.5 355,-123.5 305,-123.5"/>
<text text-anchor="middle" x="330" y="-130.5" font-family="Helvetica,sans-Serif" font-size="10.00">mwcc.h</text>
</a>
</g>
</g>
<!-- Node9&#45;&gt;Node12 -->
<g id="edge14" class="edge">
<title>Node9&#45;&gt;Node12</title>
<path fill="none" stroke="midnightblue" d="M307.46,-179.08C311.15,-171.69 316.52,-160.95 321.09,-151.81"/>
<polygon fill="midnightblue" stroke="midnightblue" points="324.28,-153.26 325.62,-142.75 318.02,-150.13 324.28,-153.26"/>
</g>
<!-- Node13 -->
<g id="node13" class="node">
<title>Node13</title>
<g id="a_node13"><a xlink:href="OS_8h.html" target="_top" xlink:title=" ">
<polygon fill="white" stroke="black" points="373,-123.5 373,-142.5 425,-142.5 425,-123.5 373,-123.5"/>
<text text-anchor="middle" x="399" y="-130.5" font-family="Helvetica,sans-Serif" font-size="10.00">os/OS.h</text>
</a>
</g>
</g>
<!-- Node9&#45;&gt;Node13 -->
<g id="edge15" class="edge">
<title>Node9&#45;&gt;Node13</title>
<path fill="none" stroke="midnightblue" d="M318.42,-179.32C333.54,-170.82 356.82,-157.73 374.47,-147.8"/>
<polygon fill="midnightblue" stroke="midnightblue" points="376.61,-150.61 383.61,-142.65 373.18,-144.51 376.61,-150.61"/>
</g>
<!-- Node10&#45;&gt;Node6 -->
<g id="edge11" class="edge">
<title>Node10&#45;&gt;Node6</title>
<path fill="none" stroke="midnightblue" d="M225.8,-123.3C229.83,-103.76 239.69,-56.06 245.17,-29.55"/>
<polygon fill="midnightblue" stroke="midnightblue" points="248.62,-30.12 247.22,-19.62 241.77,-28.71 248.62,-30.12"/>
</g>
<!-- Node11&#45;&gt;Node6 -->
<g id="edge13" class="edge">
<title>Node11&#45;&gt;Node6</title>
<path fill="none" stroke="midnightblue" d="M272.99,-61.98C268.91,-53.32 262.48,-39.65 257.3,-28.65"/>
<polygon fill="midnightblue" stroke="midnightblue" points="260.43,-27.07 253,-19.51 254.1,-30.05 260.43,-27.07"/>
</g>
<!-- Node13&#45;&gt;Node6 -->
<g id="edge16" class="edge">
<title>Node13&#45;&gt;Node6</title>
<path fill="none" stroke="midnightblue" d="M389.9,-123.17C374.68,-108.59 342.92,-78.79 314,-56 300.12,-45.06 283.76,-33.74 270.93,-25.19"/>
<polygon fill="midnightblue" stroke="midnightblue" points="272.57,-22.08 262.29,-19.5 268.72,-27.93 272.57,-22.08"/>
</g>
<!-- Node14 -->
<g id="node14" class="node">
<title>Node14</title>
<g id="a_node14"><a xlink:href="dvd_8h.html" target="_top" xlink:title=" ">
<polygon fill="white" stroke="black" points="364.5,-62 364.5,-81 423.5,-81 423.5,-62 364.5,-62"/>
<text text-anchor="middle" x="394" y="-69" font-family="Helvetica,sans-Serif" font-size="10.00">dvd/dvd.h</text>
</a>
</g>
</g>
<!-- Node13&#45;&gt;Node14 -->
<g id="edge17" class="edge">
<title>Node13&#45;&gt;Node14</title>
<path fill="none" stroke="midnightblue" d="M398.28,-123.48C397.58,-115.08 396.48,-101.98 395.57,-91.16"/>
<polygon fill="midnightblue" stroke="midnightblue" points="399.04,-90.68 394.72,-81.01 392.06,-91.27 399.04,-90.68"/>
</g>
<!-- Node14&#45;&gt;Node6 -->
<g id="edge18" class="edge">
<title>Node14&#45;&gt;Node6</title>
<path fill="none" stroke="midnightblue" d="M373.23,-61.98C348.57,-51.86 307.25,-34.9 279.1,-23.35"/>
<polygon fill="midnightblue" stroke="midnightblue" points="280.32,-20.07 269.74,-19.51 277.66,-26.54 280.32,-20.07"/>
</g>
<!-- Node15&#45;&gt;Node6 -->
<g id="edge21" class="edge">
<title>Node15&#45;&gt;Node6</title>
<path fill="none" stroke="midnightblue" d="M480.93,-57C425.77,-46.06 349.31,-30.89 299.5,-21.02"/>
<polygon fill="midnightblue" stroke="midnightblue" points="300.09,-17.57 289.6,-19.05 298.73,-24.43 300.09,-17.57"/>
</g>
<!-- Node16&#45;&gt;Node5 -->
<g id="edge25" class="edge">
<title>Node16&#45;&gt;Node5</title>
<path fill="none" stroke="midnightblue" d="M205.58,-302.4C201.87,-292.76 196.93,-279.91 192.94,-269.54"/>
<polygon fill="midnightblue" stroke="midnightblue" points="196.2,-268.27 189.34,-260.19 189.67,-270.78 196.2,-268.27"/>
</g>
<!-- Node16&#45;&gt;Node8 -->
<g id="edge24" class="edge">
<title>Node16&#45;&gt;Node8</title>
<path fill="none" stroke="midnightblue" d="M242.25,-302.4C263.47,-292.81 291.75,-280.05 314.68,-269.7"/>
<polygon fill="midnightblue" stroke="midnightblue" points="316.14,-272.88 323.82,-265.58 313.26,-266.5 316.14,-272.88"/>
</g>
<!-- Node17&#45;&gt;Node6 -->
<g id="edge28" class="edge">
<title>Node17&#45;&gt;Node6</title>
<path fill="none" stroke="midnightblue" d="M67.94,-179.22C70.91,-155.81 82.2,-91.29 119,-56 140.48,-35.41 171.84,-24.2 198.38,-18.12"/>
<polygon fill="midnightblue" stroke="midnightblue" points="199.22,-21.52 208.28,-16.03 197.78,-14.67 199.22,-21.52"/>
</g>
</g>
</svg>
        <g id="navigator" transform="translate(0 0)" fill="#404254">
                <rect fill="#f2f5e9" fill-opacity="0.5" stroke="#606060" stroke-width=".5" x="0" y="0" width="60" height="60"/>
                <use id="zoomplus" xlink:href="#zoomPlus" x="17" y="9" onmousedown="handleZoom(evt,'in')"/>
                <use id="zoomminus" xlink:href="#zoomMin" x="42" y="9" onmousedown="handleZoom(evt,'out')"/>
                <use id="reset" xlink:href="#resetDef" x="30" y="36" onmousedown="handleReset()"/>
                <g id="arrowUp" xlink:href="#dirArrow" transform="translate(30 24)" onmousedown="handlePan(0,-1)">
                  <use xlink:href="#rim" fill="#404040">
                        <set attributeName="fill" to="#808080" begin="arrowUp.mouseover" end="arrowUp.mouseout"/>
                  </use>
                  <path fill="none" stroke="white" stroke-width="1.5" d="M0,-3.0v7 M-2.5,-0.5L0,-3.0L2.5,-0.5"/>
                </g>
                <g id="arrowRight" xlink:href="#dirArrow" transform="rotate(90) translate(36 -43)" onmousedown="handlePan(1,0)">
                  <use xlink:href="#rim" fill="#404040">
                        <set attributeName="fill" to="#808080" begin="arrowRight.mouseover" end="arrowRight.mouseout"/>
                  </use>
                  <path fill="none" stroke="white" stroke-width="1.5" d="M0,-3.0v7 M-2.5,-0.5L0,-3.0L2.5,-0.5"/>
                </g>
                <g id="arrowDown" xlink:href="#dirArrow" transform="rotate(180) translate(-30 -48)" onmousedown="handlePan(0,1)">
                  <use xlink:href="#rim" fill="#404040">
                        <set attributeName="fill" to="#808080" begin="arrowDown.mouseover" end="arrowDown.mouseout"/>
                  </use>
                  <path fill="none" stroke="white" stroke-width="1.5" d="M0,-3.0v7 M-2.5,-0.5L0,-3.0L2.5,-0.5"/>
                </g>
                <g id="arrowLeft" xlink:href="#dirArrow" transform="rotate(270) translate(-36 17)" onmousedown="handlePan(-1,0)">
                  <use xlink:href="#rim" fill="#404040">
                        <set attributeName="fill" to="#808080" begin="arrowLeft.mouseover" end="arrowLeft.mouseout"/>
                  </use>
                  <path fill="none" stroke="white" stroke-width="1.5" d="M0,-3.0v7 M-2.5,-0.5L0,-3.0L2.5,-0.5"/>
                </g>
        </g>
        <svg viewBox="0 0 15 15" width="100%" height="30px" preserveAspectRatio="xMaxYMin meet">
         <g id="arrow_out" transform="scale(0.3 0.3)">
          <a xlink:href="d__a__horse__static_8cpp__incl_org.svg" target="_base">
           <rect id="button" ry="5" rx="5" y="6" x="6" height="38" width="38"
                fill="#f2f5e9" fill-opacity="0.5" stroke="#606060" stroke-width="1.0"/>
           <path id="arrow"
             d="M 11.500037,31.436501 C 11.940474,20.09759 22.043105,11.32322 32.158766,21.979434 L 37.068811,17.246167 C 37.068811,17.246167 37.088388,32 37.088388,32 L 22.160133,31.978069 C 22.160133,31.978069 26.997745,27.140456 26.997745,27.140456 C 18.528582,18.264221 13.291696,25.230495 11.500037,31.436501 z"
             style="fill:#404040;"/>
          </a>
         </g>
        </svg>
</svg>
