<?xml version="1.0" encoding="UTF-8" standalone="no"?>
<!DOCTYPE svg PUBLIC "-//W3C//DTD SVG 1.1//EN"
 "http://www.w3.org/Graphics/SVG/1.1/DTD/svg11.dtd">
<!-- Generated by graphviz version 2.44.0 ()
 -->
<!-- Title: src/d/d_a/d_a_item_static.cpp Pages: 1 -->
<svg width="410pt" height="274pt"
 viewBox="0.00 0.00 409.50 274.00" xmlns="http://www.w3.org/2000/svg" xmlns:xlink="http://www.w3.org/1999/xlink">
<g id="graph0" class="graph" transform="scale(1 1) rotate(0) translate(4 270)">
<title>src/d/d_a/d_a_item_static.cpp</title>
<polygon fill="white" stroke="transparent" points="-4,4 -4,-270 405.5,-270 405.5,4 -4,4"/>
<!-- Node1 -->
<g id="node1" class="node">
<title>Node1</title>
<g id="a_node1"><a xlink:title=" ">
<polygon fill="#bfbfbf" stroke="black" points="68.5,-235.5 68.5,-265.5 168.5,-265.5 168.5,-235.5 68.5,-235.5"/>
<text text-anchor="start" x="76.5" y="-253.5" font-family="Helvetica,sans-Serif" font-size="10.00">src/d/d_a/d_a_item</text>
<text text-anchor="middle" x="118.5" y="-242.5" font-family="Helvetica,sans-Serif" font-size="10.00">_static.cpp</text>
</a>
</g>
</g>
<!-- Node2 -->
<g id="node2" class="node">
<title>Node2</title>
<g id="a_node2"><a xlink:href="d__a__item__static_8h.html" target="_top" xlink:title=" ">
<polygon fill="white" stroke="black" points="0,-56.5 0,-86.5 113,-86.5 113,-56.5 0,-56.5"/>
<text text-anchor="start" x="8" y="-74.5" font-family="Helvetica,sans-Serif" font-size="10.00">d/d_a/d_a_item_static</text>
<text text-anchor="middle" x="56.5" y="-63.5" font-family="Helvetica,sans-Serif" font-size="10.00">/d_a_item_static.h</text>
</a>
</g>
</g>
<!-- Node1&#45;&gt;Node2 -->
<g id="edge1" class="edge">
<title>Node1&#45;&gt;Node2</title>
<path fill="none" stroke="midnightblue" d="M113.53,-235.31C102.92,-205.02 77.95,-133.73 64.85,-96.34"/>
<polygon fill="midnightblue" stroke="midnightblue" points="68.1,-95.03 61.49,-86.75 61.5,-97.35 68.1,-95.03"/>
</g>
<!-- Node4 -->
<g id="node4" class="node">
<title>Node4</title>
<g id="a_node4"><a xlink:href="global_8h.html" target="_top" xlink:title=" ">
<polygon fill="white" stroke="black" points="182.5,-179.5 182.5,-198.5 232.5,-198.5 232.5,-179.5 182.5,-179.5"/>
<text text-anchor="middle" x="207.5" y="-186.5" font-family="Helvetica,sans-Serif" font-size="10.00">global.h</text>
</a>
</g>
</g>
<!-- Node1&#45;&gt;Node4 -->
<g id="edge3" class="edge">
<title>Node1&#45;&gt;Node4</title>
<path fill="none" stroke="midnightblue" d="M139.59,-235.4C153.59,-226.04 171.91,-213.79 185.99,-204.38"/>
<polygon fill="midnightblue" stroke="midnightblue" points="188.18,-207.13 194.55,-198.66 184.29,-201.31 188.18,-207.13"/>
</g>
<!-- Node3 -->
<g id="node3" class="node">
<title>Node3</title>
<g id="a_node3"><a xlink:href="types_8h.html" target="_top" xlink:title=" ">
<polygon fill="white" stroke="black" points="180,-0.5 180,-19.5 261,-19.5 261,-0.5 180,-0.5"/>
<text text-anchor="middle" x="220.5" y="-7.5" font-family="Helvetica,sans-Serif" font-size="10.00">dolphin/types.h</text>
</a>
</g>
</g>
<!-- Node2&#45;&gt;Node3 -->
<g id="edge2" class="edge">
<title>Node2&#45;&gt;Node3</title>
<path fill="none" stroke="midnightblue" d="M95.37,-56.4C123.25,-46.28 160.44,-32.79 187.01,-23.15"/>
<polygon fill="midnightblue" stroke="midnightblue" points="188.43,-26.36 196.64,-19.66 186.04,-19.78 188.43,-26.36"/>
</g>
<!-- Node4&#45;&gt;Node3 -->
<g id="edge4" class="edge">
<title>Node4&#45;&gt;Node3</title>
<path fill="none" stroke="midnightblue" d="M199.72,-179.37C181.33,-157.85 138.31,-100.39 160.5,-56 167.23,-42.54 180.11,-32.07 192.21,-24.62"/>
<polygon fill="midnightblue" stroke="midnightblue" points="194.23,-27.5 201.2,-19.52 190.78,-21.41 194.23,-27.5"/>
</g>
<!-- Node5 -->
<g id="node5" class="node">
<title>Node5</title>
<g id="a_node5"><a xlink:href="AR_8h.html" target="_top" xlink:title=" ">
<polygon fill="white" stroke="black" points="170,-62 170,-81 219,-81 219,-62 170,-62"/>
<text text-anchor="middle" x="194.5" y="-69" font-family="Helvetica,sans-Serif" font-size="10.00">ar/AR.h</text>
</a>
</g>
</g>
<!-- Node4&#45;&gt;Node5 -->
<g id="edge5" class="edge">
<title>Node4&#45;&gt;Node5</title>
<path fill="none" stroke="midnightblue" d="M205.41,-179.43C203.3,-170.42 200.14,-155.8 198.5,-143 196.27,-125.54 195.28,-105.48 194.85,-91.24"/>
<polygon fill="midnightblue" stroke="midnightblue" points="198.34,-91.13 194.6,-81.22 191.35,-91.3 198.34,-91.13"/>
</g>
<!-- Node6 -->
<g id="node6" class="node">
<title>Node6</title>
<g id="a_node6"><a xlink:href="ARQ_8h.html" target="_top" xlink:title=" ">
<polygon fill="white" stroke="black" points="207.5,-123.5 207.5,-142.5 263.5,-142.5 263.5,-123.5 207.5,-123.5"/>
<text text-anchor="middle" x="235.5" y="-130.5" font-family="Helvetica,sans-Serif" font-size="10.00">ar/ARQ.h</text>
</a>
</g>
</g>
<!-- Node4&#45;&gt;Node6 -->
<g id="edge7" class="edge">
<title>Node4&#45;&gt;Node6</title>
<path fill="none" stroke="midnightblue" d="M212.12,-179.08C215.96,-171.69 221.52,-160.95 226.26,-151.81"/>
<polygon fill="midnightblue" stroke="midnightblue" points="229.47,-153.24 230.96,-142.75 223.25,-150.02 229.47,-153.24"/>
</g>
<!-- Node7 -->
<g id="node7" class="node">
<title>Node7</title>
<g id="a_node7"><a xlink:href="mwcc_8h.html" target="_top" xlink:title=" ">
<polygon fill="white" stroke="black" points="281.5,-123.5 281.5,-142.5 331.5,-142.5 331.5,-123.5 281.5,-123.5"/>
<text text-anchor="middle" x="306.5" y="-130.5" font-family="Helvetica,sans-Serif" font-size="10.00">mwcc.h</text>
</a>
</g>
</g>
<!-- Node4&#45;&gt;Node7 -->
<g id="edge9" class="edge">
<title>Node4&#45;&gt;Node7</title>
<path fill="none" stroke="midnightblue" d="M223.41,-179.32C239.14,-170.74 263.44,-157.49 281.71,-147.52"/>
<polygon fill="midnightblue" stroke="midnightblue" points="283.53,-150.52 290.63,-142.65 280.18,-144.37 283.53,-150.52"/>
</g>
<!-- Node8 -->
<g id="node8" class="node">
<title>Node8</title>
<g id="a_node8"><a xlink:href="OS_8h.html" target="_top" xlink:title=" ">
<polygon fill="white" stroke="black" points="349.5,-123.5 349.5,-142.5 401.5,-142.5 401.5,-123.5 349.5,-123.5"/>
<text text-anchor="middle" x="375.5" y="-130.5" font-family="Helvetica,sans-Serif" font-size="10.00">os/OS.h</text>
</a>
</g>
</g>
<!-- Node4&#45;&gt;Node8 -->
<g id="edge10" class="edge">
<title>Node4&#45;&gt;Node8</title>
<path fill="none" stroke="midnightblue" d="M232.65,-179.92C260.98,-170.81 307.26,-155.93 339.44,-145.59"/>
<polygon fill="midnightblue" stroke="midnightblue" points="340.9,-148.8 349.35,-142.41 338.75,-142.13 340.9,-148.8"/>
</g>
<!-- Node5&#45;&gt;Node3 -->
<g id="edge6" class="edge">
<title>Node5&#45;&gt;Node3</title>
<path fill="none" stroke="midnightblue" d="M198.23,-61.98C201.97,-53.4 207.86,-39.93 212.64,-28.98"/>
<polygon fill="midnightblue" stroke="midnightblue" points="215.98,-30.07 216.78,-19.51 209.57,-27.27 215.98,-30.07"/>
</g>
<!-- Node6&#45;&gt;Node3 -->
<g id="edge8" class="edge">
<title>Node6&#45;&gt;Node3</title>
<path fill="none" stroke="midnightblue" d="M234.71,-123.09C233.41,-108.88 230.65,-80.21 227.5,-56 226.36,-47.27 224.89,-37.62 223.59,-29.5"/>
<polygon fill="midnightblue" stroke="midnightblue" points="227.04,-28.91 221.97,-19.61 220.13,-30.04 227.04,-28.91"/>
</g>
<!-- Node8&#45;&gt;Node3 -->
<g id="edge11" class="edge">
<title>Node8&#45;&gt;Node3</title>
<path fill="none" stroke="midnightblue" d="M364.35,-123.3C338.1,-102.8 272.14,-51.31 239.46,-25.8"/>
<polygon fill="midnightblue" stroke="midnightblue" points="241.58,-23.02 231.55,-19.62 237.28,-28.54 241.58,-23.02"/>
</g>
<!-- Node9 -->
<g id="node9" class="node">
<title>Node9</title>
<g id="a_node9"><a xlink:href="dvd_8h.html" target="_top" xlink:title=" ">
<polygon fill="white" stroke="black" points="338,-62 338,-81 397,-81 397,-62 338,-62"/>
<text text-anchor="middle" x="367.5" y="-69" font-family="Helvetica,sans-Serif" font-size="10.00">dvd/dvd.h</text>
</a>
</g>
</g>
<!-- Node8&#45;&gt;Node9 -->
<g id="edge12" class="edge">
<title>Node8&#45;&gt;Node9</title>
<path fill="none" stroke="midnightblue" d="M374.35,-123.48C373.23,-115.08 371.46,-101.98 370.01,-91.16"/>
<polygon fill="midnightblue" stroke="midnightblue" points="373.45,-90.45 368.64,-81.01 366.51,-91.39 373.45,-90.45"/>
</g>
<!-- Node9&#45;&gt;Node3 -->
<g id="edge13" class="edge">
<title>Node9&#45;&gt;Node3</title>
<path fill="none" stroke="midnightblue" d="M346.44,-61.98C321.44,-51.86 279.56,-34.9 251.01,-23.35"/>
<polygon fill="midnightblue" stroke="midnightblue" points="252.11,-20.02 241.52,-19.51 249.48,-26.51 252.11,-20.02"/>
</g>
</g>
</svg>
