<?xml version="1.0" encoding="UTF-8" standalone="no"?>
<!DOCTYPE svg PUBLIC "-//W3C//DTD SVG 1.1//EN"
 "http://www.w3.org/Graphics/SVG/1.1/DTD/svg11.dtd">
<!-- Generated by graphviz version 2.44.0 ()
 -->
<!-- Title: include/d/d_a/d_a_horse_static/d_a_horse_static.h Pages: 1 -->
<svg width="593pt" height="542pt"
 viewBox="0.00 0.00 592.50 542.00" xmlns="http://www.w3.org/2000/svg" xmlns:xlink="http://www.w3.org/1999/xlink">
<g id="graph0" class="graph" transform="scale(1 1) rotate(0) translate(4 538)">
<title>include/d/d_a/d_a_horse_static/d_a_horse_static.h</title>
<polygon fill="white" stroke="transparent" points="-4,4 -4,-538 588.5,-538 588.5,4 -4,4"/>
<!-- Node1 -->
<g id="node1" class="node">
<title>Node1</title>
<g id="a_node1"><a xlink:title=" ">
<polygon fill="#bfbfbf" stroke="black" points="34.5,-503.5 34.5,-533.5 165.5,-533.5 165.5,-503.5 34.5,-503.5"/>
<text text-anchor="start" x="42.5" y="-521.5" font-family="Helvetica,sans-Serif" font-size="10.00">include/d/d_a/d_a_horse</text>
<text text-anchor="middle" x="100" y="-510.5" font-family="Helvetica,sans-Serif" font-size="10.00">_static/d_a_horse_static.h</text>
</a>
</g>
</g>
<!-- Node2 -->
<g id="node2" class="node">
<title>Node2</title>
<g id="a_node2"><a xlink:href="Z2Creature_8h.html" target="_top" xlink:title=" ">
<polygon fill="white" stroke="black" points="41.5,-436.5 41.5,-466.5 158.5,-466.5 158.5,-436.5 41.5,-436.5"/>
<text text-anchor="start" x="49.5" y="-454.5" font-family="Helvetica,sans-Serif" font-size="10.00">Z2AudioLib/Z2Creature</text>
<text text-anchor="middle" x="100" y="-443.5" font-family="Helvetica,sans-Serif" font-size="10.00">/Z2Creature.h</text>
</a>
</g>
</g>
<!-- Node1&#45;&gt;Node2 -->
<g id="edge1" class="edge">
<title>Node1&#45;&gt;Node2</title>
<path fill="none" stroke="midnightblue" d="M100,-503.4C100,-495.64 100,-485.81 100,-476.86"/>
<polygon fill="midnightblue" stroke="midnightblue" points="103.5,-476.58 100,-466.58 96.5,-476.58 103.5,-476.58"/>
</g>
<!-- Node3 -->
<g id="node3" class="node">
<title>Node3</title>
<g id="a_node3"><a xlink:href="Z2SoundObject_8h.html" target="_top" xlink:title=" ">
<polygon fill="white" stroke="black" points="211.5,-369.5 211.5,-399.5 348.5,-399.5 348.5,-369.5 211.5,-369.5"/>
<text text-anchor="start" x="219.5" y="-387.5" font-family="Helvetica,sans-Serif" font-size="10.00">Z2AudioLib/Z2SoundObject</text>
<text text-anchor="middle" x="280" y="-376.5" font-family="Helvetica,sans-Serif" font-size="10.00">/Z2SoundObject.h</text>
</a>
</g>
</g>
<!-- Node2&#45;&gt;Node3 -->
<g id="edge2" class="edge">
<title>Node2&#45;&gt;Node3</title>
<path fill="none" stroke="midnightblue" d="M139.06,-436.4C166.18,-426.6 202.51,-413.48 231.5,-403.02"/>
<polygon fill="midnightblue" stroke="midnightblue" points="232.8,-406.26 241.02,-399.58 230.42,-399.68 232.8,-406.26"/>
</g>
<!-- Node5 -->
<g id="node5" class="node">
<title>Node5</title>
<g id="a_node5"><a xlink:href="types_8h.html" target="_top" xlink:title=" ">
<polygon fill="white" stroke="black" points="253.5,-0.5 253.5,-19.5 334.5,-19.5 334.5,-0.5 253.5,-0.5"/>
<text text-anchor="middle" x="294" y="-7.5" font-family="Helvetica,sans-Serif" font-size="10.00">dolphin/types.h</text>
</a>
</g>
</g>
<!-- Node2&#45;&gt;Node5 -->
<g id="edge28" class="edge">
<title>Node2&#45;&gt;Node5</title>
<path fill="none" stroke="midnightblue" d="M78.79,-436.19C49.44,-414.49 0,-370.25 0,-318.5 0,-318.5 0,-318.5 0,-132 0,-94.81 5.52,-78.67 35,-56 66.81,-31.54 177.12,-19.45 243.08,-14.28"/>
<polygon fill="midnightblue" stroke="midnightblue" points="243.56,-17.75 253.27,-13.51 243.03,-10.77 243.56,-17.75"/>
</g>
<!-- Node4 -->
<g id="node4" class="node">
<title>Node4</title>
<g id="a_node4"><a xlink:href="JGeometry_8h.html" target="_top" xlink:title=" ">
<polygon fill="white" stroke="black" points="131.5,-241 131.5,-260 294.5,-260 294.5,-241 131.5,-241"/>
<text text-anchor="middle" x="213" y="-248" font-family="Helvetica,sans-Serif" font-size="10.00">JSystem/JGeometry/JGeometry.h</text>
</a>
</g>
</g>
<!-- Node3&#45;&gt;Node4 -->
<g id="edge3" class="edge">
<title>Node3&#45;&gt;Node4</title>
<path fill="none" stroke="midnightblue" d="M271.29,-369.1C265.35,-359.09 257.43,-345.38 251,-333 239.91,-311.63 228.39,-286.43 220.98,-269.77"/>
<polygon fill="midnightblue" stroke="midnightblue" points="223.99,-267.92 216.76,-260.18 217.59,-270.74 223.99,-267.92"/>
</g>
<!-- Node6 -->
<g id="node6" class="node">
<title>Node6</title>
<g id="a_node6"><a xlink:href="Z2SoundHandles_8h.html" target="_top" xlink:title=" ">
<polygon fill="white" stroke="black" points="60,-302.5 60,-332.5 204,-332.5 204,-302.5 60,-302.5"/>
<text text-anchor="start" x="68" y="-320.5" font-family="Helvetica,sans-Serif" font-size="10.00">Z2AudioLib/Z2SoundHandles</text>
<text text-anchor="middle" x="132" y="-309.5" font-family="Helvetica,sans-Serif" font-size="10.00">/Z2SoundHandles.h</text>
</a>
</g>
</g>
<!-- Node3&#45;&gt;Node6 -->
<g id="edge5" class="edge">
<title>Node3&#45;&gt;Node6</title>
<path fill="none" stroke="midnightblue" d="M247.89,-369.4C226.07,-359.81 197.01,-347.05 173.44,-336.7"/>
<polygon fill="midnightblue" stroke="midnightblue" points="174.61,-333.39 164.05,-332.58 171.8,-339.8 174.61,-333.39"/>
</g>
<!-- Node8 -->
<g id="node8" class="node">
<title>Node8</title>
<g id="a_node8"><a xlink:href="global_8h.html" target="_top" xlink:title=" ">
<polygon fill="white" stroke="black" points="357,-179.5 357,-198.5 407,-198.5 407,-179.5 357,-179.5"/>
<text text-anchor="middle" x="382" y="-186.5" font-family="Helvetica,sans-Serif" font-size="10.00">global.h</text>
</a>
</g>
</g>
<!-- Node3&#45;&gt;Node8 -->
<g id="edge25" class="edge">
<title>Node3&#45;&gt;Node8</title>
<path fill="none" stroke="midnightblue" d="M332.22,-369.47C356.45,-361.34 384.75,-349.41 407,-333 437.78,-310.3 448.28,-302.07 461,-266 465.58,-253.01 467.92,-246.91 461,-235 451.39,-218.46 433.17,-207.49 416.64,-200.53"/>
<polygon fill="midnightblue" stroke="midnightblue" points="417.78,-197.22 407.19,-196.88 415.26,-203.75 417.78,-197.22"/>
</g>
<!-- Node15 -->
<g id="node15" class="node">
<title>Node15</title>
<g id="a_node15"><a xlink:href="Z2SoundStarter_8h.html" target="_top" xlink:title=" ">
<polygon fill="white" stroke="black" points="260.5,-302.5 260.5,-332.5 397.5,-332.5 397.5,-302.5 260.5,-302.5"/>
<text text-anchor="start" x="268.5" y="-320.5" font-family="Helvetica,sans-Serif" font-size="10.00">Z2AudioLib/Z2SoundStarter</text>
<text text-anchor="middle" x="329" y="-309.5" font-family="Helvetica,sans-Serif" font-size="10.00">/Z2SoundStarter.h</text>
</a>
</g>
</g>
<!-- Node3&#45;&gt;Node15 -->
<g id="edge22" class="edge">
<title>Node3&#45;&gt;Node15</title>
<path fill="none" stroke="midnightblue" d="M290.63,-369.4C296.92,-361.05 305.04,-350.29 312.18,-340.81"/>
<polygon fill="midnightblue" stroke="midnightblue" points="315.16,-342.67 318.39,-332.58 309.57,-338.45 315.16,-342.67"/>
</g>
<!-- Node16 -->
<g id="node16" class="node">
<title>Node16</title>
<g id="a_node16"><a xlink:href="mtx__vec_8h.html" target="_top" xlink:title=" ">
<polygon fill="white" stroke="black" points="523.5,-179.5 523.5,-198.5 584.5,-198.5 584.5,-179.5 523.5,-179.5"/>
<text text-anchor="middle" x="554" y="-186.5" font-family="Helvetica,sans-Serif" font-size="10.00">mtx_vec.h</text>
</a>
</g>
</g>
<!-- Node3&#45;&gt;Node16 -->
<g id="edge26" class="edge">
<title>Node3&#45;&gt;Node16</title>
<path fill="none" stroke="midnightblue" d="M348.85,-370.71C378.1,-363.03 411.49,-351.11 438,-333 487.8,-298.98 527.2,-237.43 544.48,-207.41"/>
<polygon fill="midnightblue" stroke="midnightblue" points="547.63,-208.96 549.48,-198.52 541.53,-205.53 547.63,-208.96"/>
</g>
<!-- Node4&#45;&gt;Node5 -->
<g id="edge4" class="edge">
<title>Node4&#45;&gt;Node5</title>
<path fill="none" stroke="midnightblue" d="M215.98,-240.73C227.79,-205.96 271.47,-77.35 287.79,-29.28"/>
<polygon fill="midnightblue" stroke="midnightblue" points="291.18,-30.19 291.08,-19.6 284.55,-27.94 291.18,-30.19"/>
</g>
<!-- Node6&#45;&gt;Node4 -->
<g id="edge18" class="edge">
<title>Node6&#45;&gt;Node4</title>
<path fill="none" stroke="midnightblue" d="M149.58,-302.4C162.71,-291.86 180.63,-277.48 194.07,-266.69"/>
<polygon fill="midnightblue" stroke="midnightblue" points="196.56,-269.18 202.17,-260.19 192.18,-263.72 196.56,-269.18"/>
</g>
<!-- Node6&#45;&gt;Node5 -->
<g id="edge21" class="edge">
<title>Node6&#45;&gt;Node5</title>
<path fill="none" stroke="midnightblue" d="M111.6,-302.34C83.96,-281.31 38,-238.98 38,-190 38,-190 38,-190 38,-132 38,-97.18 31.68,-79.9 57,-56 83.27,-31.2 181.76,-19.39 243.21,-14.32"/>
<polygon fill="midnightblue" stroke="midnightblue" points="243.79,-17.79 253.48,-13.51 243.24,-10.81 243.79,-17.79"/>
</g>
<!-- Node7 -->
<g id="node7" class="node">
<title>Node7</title>
<g id="a_node7"><a xlink:href="JAISound_8h.html" target="_top" xlink:title=" ">
<polygon fill="white" stroke="black" points="312.5,-235.5 312.5,-265.5 451.5,-265.5 451.5,-235.5 312.5,-235.5"/>
<text text-anchor="start" x="320.5" y="-253.5" font-family="Helvetica,sans-Serif" font-size="10.00">JSystem/JAudio2/JAISound</text>
<text text-anchor="middle" x="382" y="-242.5" font-family="Helvetica,sans-Serif" font-size="10.00">/JAISound.h</text>
</a>
</g>
</g>
<!-- Node6&#45;&gt;Node7 -->
<g id="edge6" class="edge">
<title>Node6&#45;&gt;Node7</title>
<path fill="none" stroke="midnightblue" d="M185.94,-302.48C224.66,-292.41 277,-278.8 317.87,-268.17"/>
<polygon fill="midnightblue" stroke="midnightblue" points="318.93,-271.51 327.73,-265.61 317.17,-264.74 318.93,-271.51"/>
</g>
<!-- Node14 -->
<g id="node14" class="node">
<title>Node14</title>
<g id="a_node14"><a xlink:href="JSUList_8h.html" target="_top" xlink:title=" ">
<polygon fill="white" stroke="black" points="66,-56.5 66,-86.5 202,-86.5 202,-56.5 66,-56.5"/>
<text text-anchor="start" x="74" y="-74.5" font-family="Helvetica,sans-Serif" font-size="10.00">JSystem/JSupport/JSUList</text>
<text text-anchor="middle" x="134" y="-63.5" font-family="Helvetica,sans-Serif" font-size="10.00">/JSUList.h</text>
</a>
</g>
</g>
<!-- Node6&#45;&gt;Node14 -->
<g id="edge19" class="edge">
<title>Node6&#45;&gt;Node14</title>
<path fill="none" stroke="midnightblue" d="M128.45,-302.46C126.1,-292.39 123.22,-278.45 122,-266 116.05,-205.29 124.54,-133.55 130.01,-96.83"/>
<polygon fill="midnightblue" stroke="midnightblue" points="133.52,-97.03 131.59,-86.61 126.6,-95.96 133.52,-97.03"/>
</g>
<!-- Node7&#45;&gt;Node8 -->
<g id="edge7" class="edge">
<title>Node7&#45;&gt;Node8</title>
<path fill="none" stroke="midnightblue" d="M382,-235.4C382,-227.47 382,-217.46 382,-208.86"/>
<polygon fill="midnightblue" stroke="midnightblue" points="385.5,-208.66 382,-198.66 378.5,-208.66 385.5,-208.66"/>
</g>
<!-- Node8&#45;&gt;Node5 -->
<g id="edge8" class="edge">
<title>Node8&#45;&gt;Node5</title>
<path fill="none" stroke="midnightblue" d="M366.88,-179.48C353.41,-171.36 333.78,-158.16 320,-143 300.57,-121.62 294.6,-114.87 287,-87 281.78,-67.87 285.06,-45.13 288.68,-29.54"/>
<polygon fill="midnightblue" stroke="midnightblue" points="292.13,-30.17 291.26,-19.61 285.36,-28.4 292.13,-30.17"/>
</g>
<!-- Node9 -->
<g id="node9" class="node">
<title>Node9</title>
<g id="a_node9"><a xlink:href="AR_8h.html" target="_top" xlink:title=" ">
<polygon fill="white" stroke="black" points="296.5,-62 296.5,-81 345.5,-81 345.5,-62 296.5,-62"/>
<text text-anchor="middle" x="321" y="-69" font-family="Helvetica,sans-Serif" font-size="10.00">ar/AR.h</text>
</a>
</g>
</g>
<!-- Node8&#45;&gt;Node9 -->
<g id="edge9" class="edge">
<title>Node8&#45;&gt;Node9</title>
<path fill="none" stroke="midnightblue" d="M367.33,-179.26C355.47,-171.36 339.4,-158.59 331,-143 322.4,-127.04 320.37,-106.24 320.21,-91.37"/>
<polygon fill="midnightblue" stroke="midnightblue" points="323.71,-91.4 320.37,-81.34 316.71,-91.28 323.71,-91.4"/>
</g>
<!-- Node10 -->
<g id="node10" class="node">
<title>Node10</title>
<g id="a_node10"><a xlink:href="ARQ_8h.html" target="_top" xlink:title=" ">
<polygon fill="white" stroke="black" points="340,-123.5 340,-142.5 396,-142.5 396,-123.5 340,-123.5"/>
<text text-anchor="middle" x="368" y="-130.5" font-family="Helvetica,sans-Serif" font-size="10.00">ar/ARQ.h</text>
</a>
</g>
</g>
<!-- Node8&#45;&gt;Node10 -->
<g id="edge11" class="edge">
<title>Node8&#45;&gt;Node10</title>
<path fill="none" stroke="midnightblue" d="M379.69,-179.08C377.83,-171.93 375.16,-161.64 372.85,-152.69"/>
<polygon fill="midnightblue" stroke="midnightblue" points="376.17,-151.55 370.27,-142.75 369.39,-153.31 376.17,-151.55"/>
</g>
<!-- Node11 -->
<g id="node11" class="node">
<title>Node11</title>
<g id="a_node11"><a xlink:href="mwcc_8h.html" target="_top" xlink:title=" ">
<polygon fill="white" stroke="black" points="484,-123.5 484,-142.5 534,-142.5 534,-123.5 484,-123.5"/>
<text text-anchor="middle" x="509" y="-130.5" font-family="Helvetica,sans-Serif" font-size="10.00">mwcc.h</text>
</a>
</g>
</g>
<!-- Node8&#45;&gt;Node11 -->
<g id="edge13" class="edge">
<title>Node8&#45;&gt;Node11</title>
<path fill="none" stroke="midnightblue" d="M402.12,-179.44C423.02,-170.56 455.93,-156.56 479.72,-146.45"/>
<polygon fill="midnightblue" stroke="midnightblue" points="481.14,-149.65 488.97,-142.52 478.4,-143.21 481.14,-149.65"/>
</g>
<!-- Node12 -->
<g id="node12" class="node">
<title>Node12</title>
<g id="a_node12"><a xlink:href="OS_8h.html" target="_top" xlink:title=" ">
<polygon fill="white" stroke="black" points="414,-123.5 414,-142.5 466,-142.5 466,-123.5 414,-123.5"/>
<text text-anchor="middle" x="440" y="-130.5" font-family="Helvetica,sans-Serif" font-size="10.00">os/OS.h</text>
</a>
</g>
</g>
<!-- Node8&#45;&gt;Node12 -->
<g id="edge14" class="edge">
<title>Node8&#45;&gt;Node12</title>
<path fill="none" stroke="midnightblue" d="M391.32,-179.32C399.89,-171.34 412.81,-159.31 423.19,-149.65"/>
<polygon fill="midnightblue" stroke="midnightblue" points="425.58,-152.21 430.51,-142.83 420.81,-147.09 425.58,-152.21"/>
</g>
<!-- Node9&#45;&gt;Node5 -->
<g id="edge10" class="edge">
<title>Node9&#45;&gt;Node5</title>
<path fill="none" stroke="midnightblue" d="M317.13,-61.98C313.2,-53.32 307,-39.65 302.01,-28.65"/>
<polygon fill="midnightblue" stroke="midnightblue" points="305.18,-27.17 297.86,-19.51 298.81,-30.06 305.18,-27.17"/>
</g>
<!-- Node10&#45;&gt;Node5 -->
<g id="edge12" class="edge">
<title>Node10&#45;&gt;Node5</title>
<path fill="none" stroke="midnightblue" d="M368.37,-123.3C368.61,-108.38 367.29,-77.44 354,-56 345.91,-42.95 332.54,-32.37 320.47,-24.76"/>
<polygon fill="midnightblue" stroke="midnightblue" points="322,-21.59 311.61,-19.52 318.44,-27.62 322,-21.59"/>
</g>
<!-- Node12&#45;&gt;Node5 -->
<g id="edge15" class="edge">
<title>Node12&#45;&gt;Node5</title>
<path fill="none" stroke="midnightblue" d="M433.76,-123.18C422.76,-108.07 398.65,-76.87 373,-56 357.49,-43.38 337.98,-32.23 322.23,-24.18"/>
<polygon fill="midnightblue" stroke="midnightblue" points="323.49,-20.9 312.98,-19.59 320.38,-27.17 323.49,-20.9"/>
</g>
<!-- Node13 -->
<g id="node13" class="node">
<title>Node13</title>
<g id="a_node13"><a xlink:href="dvd_8h.html" target="_top" xlink:title=" ">
<polygon fill="white" stroke="black" points="440.5,-62 440.5,-81 499.5,-81 499.5,-62 440.5,-62"/>
<text text-anchor="middle" x="470" y="-69" font-family="Helvetica,sans-Serif" font-size="10.00">dvd/dvd.h</text>
</a>
</g>
</g>
<!-- Node12&#45;&gt;Node13 -->
<g id="edge16" class="edge">
<title>Node12&#45;&gt;Node13</title>
<path fill="none" stroke="midnightblue" d="M444.3,-123.48C448.66,-114.82 455.56,-101.15 461.1,-90.15"/>
<polygon fill="midnightblue" stroke="midnightblue" points="464.33,-91.51 465.71,-81.01 458.08,-88.36 464.33,-91.51"/>
</g>
<!-- Node13&#45;&gt;Node5 -->
<g id="edge17" class="edge">
<title>Node13&#45;&gt;Node5</title>
<path fill="none" stroke="midnightblue" d="M444.78,-61.98C414.33,-51.68 362.95,-34.31 328.76,-22.75"/>
<polygon fill="midnightblue" stroke="midnightblue" points="329.76,-19.4 319.17,-19.51 327.52,-26.03 329.76,-19.4"/>
</g>
<!-- Node14&#45;&gt;Node5 -->
<g id="edge20" class="edge">
<title>Node14&#45;&gt;Node5</title>
<path fill="none" stroke="midnightblue" d="M171.92,-56.4C199.12,-46.28 235.4,-32.79 261.33,-23.15"/>
<polygon fill="midnightblue" stroke="midnightblue" points="262.57,-26.42 270.72,-19.66 260.13,-19.86 262.57,-26.42"/>
</g>
<!-- Node15&#45;&gt;Node4 -->
<g id="edge24" class="edge">
<title>Node15&#45;&gt;Node4</title>
<path fill="none" stroke="midnightblue" d="M303.83,-302.4C284.02,-291.29 256.58,-275.92 237.06,-264.98"/>
<polygon fill="midnightblue" stroke="midnightblue" points="238.62,-261.84 228.18,-260.01 235.19,-267.95 238.62,-261.84"/>
</g>
<!-- Node15&#45;&gt;Node7 -->
<g id="edge23" class="edge">
<title>Node15&#45;&gt;Node7</title>
<path fill="none" stroke="midnightblue" d="M340.5,-302.4C347.38,-293.96 356.26,-283.07 364.04,-273.52"/>
<polygon fill="midnightblue" stroke="midnightblue" points="366.92,-275.54 370.52,-265.58 361.49,-271.11 366.92,-275.54"/>
</g>
<!-- Node16&#45;&gt;Node5 -->
<g id="edge27" class="edge">
<title>Node16&#45;&gt;Node5</title>
<path fill="none" stroke="midnightblue" d="M554.07,-179.4C553.74,-155.28 549.17,-86.78 509,-56 483.71,-36.62 399.83,-23.37 344.63,-16.5"/>
<polygon fill="midnightblue" stroke="midnightblue" points="345.02,-13.02 334.67,-15.29 344.18,-19.97 345.02,-13.02"/>
</g>
</g>
</svg>
