<?xml version="1.0" encoding="UTF-8" standalone="no"?>
<!DOCTYPE svg PUBLIC "-//W3C//DTD SVG 1.1//EN"
 "http://www.w3.org/Graphics/SVG/1.1/DTD/svg11.dtd">
<!-- Generated by graphviz version 2.44.0 ()
 -->
<!-- Title: src/d/d_a/d_a_itembase_static.cpp Pages: 1 -->
<svg width="528pt" height="464pt"
 viewBox="0.00 0.00 528.00 464.00" xmlns="http://www.w3.org/2000/svg" xmlns:xlink="http://www.w3.org/1999/xlink">
<g id="graph0" class="graph" transform="scale(1 1) rotate(0) translate(4 460)">
<title>src/d/d_a/d_a_itembase_static.cpp</title>
<polygon fill="white" stroke="transparent" points="-4,4 -4,-460 524,-460 524,4 -4,4"/>
<!-- Node1 -->
<g id="node1" class="node">
<title>Node1</title>
<g id="a_node1"><a xlink:title=" ">
<polygon fill="#bfbfbf" stroke="black" points="149.5,-425.5 149.5,-455.5 270.5,-455.5 270.5,-425.5 149.5,-425.5"/>
<text text-anchor="start" x="157.5" y="-443.5" font-family="Helvetica,sans-Serif" font-size="10.00">src/d/d_a/d_a_itembase</text>
<text text-anchor="middle" x="210" y="-432.5" font-family="Helvetica,sans-Serif" font-size="10.00">_static.cpp</text>
</a>
</g>
</g>
<!-- Node2 -->
<g id="node2" class="node">
<title>Node2</title>
<g id="a_node2"><a xlink:href="d__a__itembase__static_8h.html" target="_top" xlink:title=" ">
<polygon fill="white" stroke="black" points="0,-280.5 0,-321.5 110,-321.5 110,-280.5 0,-280.5"/>
<text text-anchor="start" x="8" y="-309.5" font-family="Helvetica,sans-Serif" font-size="10.00">d/d_a/d_a_itembase</text>
<text text-anchor="start" x="8" y="-298.5" font-family="Helvetica,sans-Serif" font-size="10.00">_static/d_a_itembase</text>
<text text-anchor="middle" x="55" y="-287.5" font-family="Helvetica,sans-Serif" font-size="10.00">_static.h</text>
</a>
</g>
</g>
<!-- Node1&#45;&gt;Node2 -->
<g id="edge1" class="edge">
<title>Node1&#45;&gt;Node2</title>
<path fill="none" stroke="midnightblue" d="M149.24,-429.34C123.66,-422.12 95.57,-409.84 77,-389 63.07,-373.37 57.71,-350.18 55.75,-331.67"/>
<polygon fill="midnightblue" stroke="midnightblue" points="59.24,-331.37 54.97,-321.68 52.26,-331.92 59.24,-331.37"/>
</g>
<!-- Node10 -->
<g id="node10" class="node">
<title>Node10</title>
<g id="a_node10"><a xlink:href="c__lib_8h.html" target="_top" xlink:title=" ">
<polygon fill="white" stroke="black" points="86,-364 86,-383 190,-383 190,-364 86,-364"/>
<text text-anchor="middle" x="138" y="-371" font-family="Helvetica,sans-Serif" font-size="10.00">SComponent/c_lib.h</text>
</a>
</g>
</g>
<!-- Node1&#45;&gt;Node10 -->
<g id="edge13" class="edge">
<title>Node1&#45;&gt;Node10</title>
<path fill="none" stroke="midnightblue" d="M194.38,-425.4C182.82,-414.96 167.08,-400.75 155.17,-390"/>
<polygon fill="midnightblue" stroke="midnightblue" points="157.4,-387.3 147.63,-383.19 152.71,-392.49 157.4,-387.3"/>
</g>
<!-- Node14 -->
<g id="node14" class="node">
<title>Node14</title>
<g id="a_node14"><a xlink:title=" ">
<polygon fill="white" stroke="#bfbfbf" points="208.5,-358.5 208.5,-388.5 355.5,-388.5 355.5,-358.5 208.5,-358.5"/>
<text text-anchor="start" x="216.5" y="-376.5" font-family="Helvetica,sans-Serif" font-size="10.00">d/d_a/d_a_itembase</text>
<text text-anchor="middle" x="282" y="-365.5" font-family="Helvetica,sans-Serif" font-size="10.00">_static/asm/func_80037B0C.s</text>
</a>
</g>
</g>
<!-- Node1&#45;&gt;Node14 -->
<g id="edge21" class="edge">
<title>Node1&#45;&gt;Node14</title>
<path fill="none" stroke="midnightblue" d="M225.62,-425.4C235.34,-416.62 248.01,-405.18 258.88,-395.37"/>
<polygon fill="midnightblue" stroke="midnightblue" points="261.33,-397.88 266.41,-388.58 256.64,-392.68 261.33,-397.88"/>
</g>
<!-- Node15 -->
<g id="node15" class="node">
<title>Node15</title>
<g id="a_node15"><a xlink:title=" ">
<polygon fill="white" stroke="#bfbfbf" points="374,-358.5 374,-388.5 520,-388.5 520,-358.5 374,-358.5"/>
<text text-anchor="start" x="382" y="-376.5" font-family="Helvetica,sans-Serif" font-size="10.00">d/d_a/d_a_itembase</text>
<text text-anchor="middle" x="447" y="-365.5" font-family="Helvetica,sans-Serif" font-size="10.00">_static/asm/func_80037B78.s</text>
</a>
</g>
</g>
<!-- Node1&#45;&gt;Node15 -->
<g id="edge22" class="edge">
<title>Node1&#45;&gt;Node15</title>
<path fill="none" stroke="midnightblue" d="M261.13,-425.48C297.61,-415.47 346.84,-401.97 385.46,-391.38"/>
<polygon fill="midnightblue" stroke="midnightblue" points="386.83,-394.63 395.55,-388.61 384.98,-387.88 386.83,-394.63"/>
</g>
<!-- Node3 -->
<g id="node3" class="node">
<title>Node3</title>
<g id="a_node3"><a xlink:href="global_8h.html" target="_top" xlink:title=" ">
<polygon fill="white" stroke="black" points="118,-168.5 118,-187.5 168,-187.5 168,-168.5 118,-168.5"/>
<text text-anchor="middle" x="143" y="-175.5" font-family="Helvetica,sans-Serif" font-size="10.00">global.h</text>
</a>
</g>
</g>
<!-- Node2&#45;&gt;Node3 -->
<g id="edge2" class="edge">
<title>Node2&#45;&gt;Node3</title>
<path fill="none" stroke="midnightblue" d="M69.33,-280.29C86.46,-256.75 114.8,-217.78 130.88,-195.67"/>
<polygon fill="midnightblue" stroke="midnightblue" points="133.71,-197.72 136.76,-187.57 128.05,-193.6 133.71,-197.72"/>
</g>
<!-- Node4 -->
<g id="node4" class="node">
<title>Node4</title>
<g id="a_node4"><a xlink:href="types_8h.html" target="_top" xlink:title=" ">
<polygon fill="white" stroke="black" points="163.5,-0.5 163.5,-19.5 244.5,-19.5 244.5,-0.5 163.5,-0.5"/>
<text text-anchor="middle" x="204" y="-7.5" font-family="Helvetica,sans-Serif" font-size="10.00">dolphin/types.h</text>
</a>
</g>
</g>
<!-- Node3&#45;&gt;Node4 -->
<g id="edge3" class="edge">
<title>Node3&#45;&gt;Node4</title>
<path fill="none" stroke="midnightblue" d="M130.9,-168.48C103.69,-148.26 42.22,-96.12 71,-56 89.62,-30.04 124.03,-18.87 153.18,-14.14"/>
<polygon fill="midnightblue" stroke="midnightblue" points="153.83,-17.59 163.24,-12.73 152.85,-10.66 153.83,-17.59"/>
</g>
<!-- Node5 -->
<g id="node5" class="node">
<title>Node5</title>
<g id="a_node5"><a xlink:href="AR_8h.html" target="_top" xlink:title=" ">
<polygon fill="white" stroke="black" points="80.5,-56.5 80.5,-75.5 129.5,-75.5 129.5,-56.5 80.5,-56.5"/>
<text text-anchor="middle" x="105" y="-63.5" font-family="Helvetica,sans-Serif" font-size="10.00">ar/AR.h</text>
</a>
</g>
</g>
<!-- Node3&#45;&gt;Node5 -->
<g id="edge4" class="edge">
<title>Node3&#45;&gt;Node5</title>
<path fill="none" stroke="midnightblue" d="M140.02,-168.37C133.86,-150.54 119.61,-109.3 111.31,-85.27"/>
<polygon fill="midnightblue" stroke="midnightblue" points="114.54,-83.9 107.97,-75.59 107.93,-86.19 114.54,-83.9"/>
</g>
<!-- Node6 -->
<g id="node6" class="node">
<title>Node6</title>
<g id="a_node6"><a xlink:href="ARQ_8h.html" target="_top" xlink:title=" ">
<polygon fill="white" stroke="black" points="148,-56.5 148,-75.5 204,-75.5 204,-56.5 148,-56.5"/>
<text text-anchor="middle" x="176" y="-63.5" font-family="Helvetica,sans-Serif" font-size="10.00">ar/ARQ.h</text>
</a>
</g>
</g>
<!-- Node3&#45;&gt;Node6 -->
<g id="edge6" class="edge">
<title>Node3&#45;&gt;Node6</title>
<path fill="none" stroke="midnightblue" d="M145.53,-168.15C149.13,-155.63 155.96,-132.04 162,-112 164.66,-103.18 167.69,-93.41 170.25,-85.23"/>
<polygon fill="midnightblue" stroke="midnightblue" points="173.61,-86.2 173.27,-75.61 166.94,-84.1 173.61,-86.2"/>
</g>
<!-- Node7 -->
<g id="node7" class="node">
<title>Node7</title>
<g id="a_node7"><a xlink:href="mwcc_8h.html" target="_top" xlink:title=" ">
<polygon fill="white" stroke="black" points="171,-112.5 171,-131.5 221,-131.5 221,-112.5 171,-112.5"/>
<text text-anchor="middle" x="196" y="-119.5" font-family="Helvetica,sans-Serif" font-size="10.00">mwcc.h</text>
</a>
</g>
</g>
<!-- Node3&#45;&gt;Node7 -->
<g id="edge8" class="edge">
<title>Node3&#45;&gt;Node7</title>
<path fill="none" stroke="midnightblue" d="M151.75,-168.08C159.47,-160.22 170.9,-148.57 180.22,-139.08"/>
<polygon fill="midnightblue" stroke="midnightblue" points="182.9,-141.34 187.41,-131.75 177.91,-136.44 182.9,-141.34"/>
</g>
<!-- Node8 -->
<g id="node8" class="node">
<title>Node8</title>
<g id="a_node8"><a xlink:href="OS_8h.html" target="_top" xlink:title=" ">
<polygon fill="white" stroke="black" points="239,-112.5 239,-131.5 291,-131.5 291,-112.5 239,-112.5"/>
<text text-anchor="middle" x="265" y="-119.5" font-family="Helvetica,sans-Serif" font-size="10.00">os/OS.h</text>
</a>
</g>
</g>
<!-- Node3&#45;&gt;Node8 -->
<g id="edge9" class="edge">
<title>Node3&#45;&gt;Node8</title>
<path fill="none" stroke="midnightblue" d="M162.33,-168.44C182.32,-159.6 213.74,-145.69 236.56,-135.59"/>
<polygon fill="midnightblue" stroke="midnightblue" points="238.03,-138.76 245.76,-131.52 235.2,-132.36 238.03,-138.76"/>
</g>
<!-- Node5&#45;&gt;Node4 -->
<g id="edge5" class="edge">
<title>Node5&#45;&gt;Node4</title>
<path fill="none" stroke="midnightblue" d="M120.91,-56.32C136.64,-47.74 160.94,-34.49 179.21,-24.52"/>
<polygon fill="midnightblue" stroke="midnightblue" points="181.03,-27.52 188.13,-19.65 177.68,-21.37 181.03,-27.52"/>
</g>
<!-- Node6&#45;&gt;Node4 -->
<g id="edge7" class="edge">
<title>Node6&#45;&gt;Node4</title>
<path fill="none" stroke="midnightblue" d="M180.62,-56.08C184.46,-48.69 190.02,-37.95 194.76,-28.81"/>
<polygon fill="midnightblue" stroke="midnightblue" points="197.97,-30.24 199.46,-19.75 191.75,-27.02 197.97,-30.24"/>
</g>
<!-- Node8&#45;&gt;Node4 -->
<g id="edge10" class="edge">
<title>Node8&#45;&gt;Node4</title>
<path fill="none" stroke="midnightblue" d="M260.21,-112.37C250.24,-94.38 227.04,-52.55 213.77,-28.63"/>
<polygon fill="midnightblue" stroke="midnightblue" points="216.67,-26.64 208.76,-19.59 210.55,-30.03 216.67,-26.64"/>
</g>
<!-- Node9 -->
<g id="node9" class="node">
<title>Node9</title>
<g id="a_node9"><a xlink:href="dvd_8h.html" target="_top" xlink:title=" ">
<polygon fill="white" stroke="black" points="260.5,-56.5 260.5,-75.5 319.5,-75.5 319.5,-56.5 260.5,-56.5"/>
<text text-anchor="middle" x="290" y="-63.5" font-family="Helvetica,sans-Serif" font-size="10.00">dvd/dvd.h</text>
</a>
</g>
</g>
<!-- Node8&#45;&gt;Node9 -->
<g id="edge11" class="edge">
<title>Node8&#45;&gt;Node9</title>
<path fill="none" stroke="midnightblue" d="M269.13,-112.08C272.51,-104.77 277.42,-94.18 281.62,-85.1"/>
<polygon fill="midnightblue" stroke="midnightblue" points="284.92,-86.3 285.95,-75.75 278.57,-83.36 284.92,-86.3"/>
</g>
<!-- Node9&#45;&gt;Node4 -->
<g id="edge12" class="edge">
<title>Node9&#45;&gt;Node4</title>
<path fill="none" stroke="midnightblue" d="M276.18,-56.32C262.77,-47.9 242.18,-34.97 226.41,-25.07"/>
<polygon fill="midnightblue" stroke="midnightblue" points="228.11,-22.01 217.78,-19.65 224.39,-27.94 228.11,-22.01"/>
</g>
<!-- Node10&#45;&gt;Node3 -->
<g id="edge20" class="edge">
<title>Node10&#45;&gt;Node3</title>
<path fill="none" stroke="midnightblue" d="M138.22,-363.94C138.97,-334.79 141.45,-238.97 142.51,-197.93"/>
<polygon fill="midnightblue" stroke="midnightblue" points="146.01,-197.99 142.77,-187.91 139.01,-197.81 146.01,-197.99"/>
</g>
<!-- Node11 -->
<g id="node11" class="node">
<title>Node11</title>
<g id="a_node11"><a xlink:href="c__xyz_8h.html" target="_top" xlink:title=" ">
<polygon fill="white" stroke="black" points="187.5,-291.5 187.5,-310.5 294.5,-310.5 294.5,-291.5 187.5,-291.5"/>
<text text-anchor="middle" x="241" y="-298.5" font-family="Helvetica,sans-Serif" font-size="10.00">SComponent/c_xyz.h</text>
</a>
</g>
</g>
<!-- Node10&#45;&gt;Node11 -->
<g id="edge14" class="edge">
<title>Node10&#45;&gt;Node11</title>
<path fill="none" stroke="midnightblue" d="M150.63,-363.86C167.85,-352.07 198.93,-330.79 219.77,-316.53"/>
<polygon fill="midnightblue" stroke="midnightblue" points="221.99,-319.25 228.27,-310.72 218.04,-313.48 221.99,-319.25"/>
</g>
<!-- Node11&#45;&gt;Node3 -->
<g id="edge17" class="edge">
<title>Node11&#45;&gt;Node3</title>
<path fill="none" stroke="midnightblue" d="M233.79,-291.3C224.71,-280.31 208.63,-260.81 195,-244 181.84,-227.76 166.95,-209.13 156.49,-195.98"/>
<polygon fill="midnightblue" stroke="midnightblue" points="158.99,-193.51 150.03,-187.86 153.51,-197.87 158.99,-193.51"/>
</g>
<!-- Node12 -->
<g id="node12" class="node">
<title>Node12</title>
<g id="a_node12"><a xlink:href="c__math_8h.html" target="_top" xlink:title=" ">
<polygon fill="white" stroke="black" points="204,-224.5 204,-243.5 320,-243.5 320,-224.5 204,-224.5"/>
<text text-anchor="middle" x="262" y="-231.5" font-family="Helvetica,sans-Serif" font-size="10.00">SComponent/c_math.h</text>
</a>
</g>
</g>
<!-- Node11&#45;&gt;Node12 -->
<g id="edge15" class="edge">
<title>Node11&#45;&gt;Node12</title>
<path fill="none" stroke="midnightblue" d="M243.83,-291.23C246.95,-281.59 252.05,-265.8 256.05,-253.41"/>
<polygon fill="midnightblue" stroke="midnightblue" points="259.47,-254.22 259.21,-243.63 252.81,-252.07 259.47,-254.22"/>
</g>
<!-- Node13 -->
<g id="node13" class="node">
<title>Node13</title>
<g id="a_node13"><a xlink:href="mtx__vec_8h.html" target="_top" xlink:title=" ">
<polygon fill="white" stroke="black" points="317.5,-168.5 317.5,-187.5 378.5,-187.5 378.5,-168.5 317.5,-168.5"/>
<text text-anchor="middle" x="348" y="-175.5" font-family="Helvetica,sans-Serif" font-size="10.00">mtx_vec.h</text>
</a>
</g>
</g>
<!-- Node11&#45;&gt;Node13 -->
<g id="edge18" class="edge">
<title>Node11&#45;&gt;Node13</title>
<path fill="none" stroke="midnightblue" d="M263.03,-291.38C283.07,-282.44 312.03,-266.59 329,-244 339.04,-230.63 343.79,-212.06 346.03,-198.19"/>
<polygon fill="midnightblue" stroke="midnightblue" points="349.55,-198.23 347.38,-187.87 342.61,-197.33 349.55,-198.23"/>
</g>
<!-- Node12&#45;&gt;Node3 -->
<g id="edge16" class="edge">
<title>Node12&#45;&gt;Node3</title>
<path fill="none" stroke="midnightblue" d="M243.14,-224.44C223.73,-215.64 193.27,-201.81 171.04,-191.72"/>
<polygon fill="midnightblue" stroke="midnightblue" points="172.32,-188.46 161.77,-187.52 169.43,-194.84 172.32,-188.46"/>
</g>
<!-- Node13&#45;&gt;Node4 -->
<g id="edge19" class="edge">
<title>Node13&#45;&gt;Node4</title>
<path fill="none" stroke="midnightblue" d="M349.39,-168.19C352.29,-146.42 356.63,-89.44 329,-56 310.78,-33.94 280.87,-22.7 254.88,-16.96"/>
<polygon fill="midnightblue" stroke="midnightblue" points="255.26,-13.47 244.77,-14.96 253.9,-20.34 255.26,-13.47"/>
</g>
</g>
</svg>
