<?xml version="1.0" encoding="UTF-8" standalone="no"?>
<!DOCTYPE svg PUBLIC "-//W3C//DTD SVG 1.1//EN"
 "http://www.w3.org/Graphics/SVG/1.1/DTD/svg11.dtd">
<!-- Generated by graphviz version 2.44.0 ()
 -->
<!-- Title: include/d/d_bg/d_bg_s/d_bg_s.h Pages: 1 -->
<svg width="5783pt" height="307pt"
 viewBox="0.00 0.00 5782.79 307.00" xmlns="http://www.w3.org/2000/svg" xmlns:xlink="http://www.w3.org/1999/xlink">
<g id="graph0" class="graph" transform="scale(1 1) rotate(0) translate(4 303)">
<title>include/d/d_bg/d_bg_s/d_bg_s.h</title>
<polygon fill="white" stroke="transparent" points="-4,4 -4,-303 5778.79,-303 5778.79,4 -4,4"/>
<!-- Node1 -->
<g id="node1" class="node">
<title>Node1</title>
<g id="a_node1"><a xlink:title=" ">
<polygon fill="#bfbfbf" stroke="black" points="1817.6,-268.5 1817.6,-298.5 1921.6,-298.5 1921.6,-268.5 1817.6,-268.5"/>
<text text-anchor="start" x="1825.6" y="-286.5" font-family="Helvetica,sans-Serif" font-size="10.00">include/d/d_bg/d_bg</text>
<text text-anchor="middle" x="1869.6" y="-275.5" font-family="Helvetica,sans-Serif" font-size="10.00">_s/d_bg_s.h</text>
</a>
</g>
</g>
<!-- Node2 -->
<g id="node2" class="node">
<title>Node2</title>
<g id="a_node2"><a xlink:href="d__com__inf__game_8cpp.html" target="_top" xlink:title=" ">
<polygon fill="white" stroke="black" points="1222.1,-67.5 1222.1,-97.5 1341.1,-97.5 1341.1,-67.5 1222.1,-67.5"/>
<text text-anchor="start" x="1230.1" y="-85.5" font-family="Helvetica,sans-Serif" font-size="10.00">src/d/d_com/d_com_inf</text>
<text text-anchor="middle" x="1281.6" y="-74.5" font-family="Helvetica,sans-Serif" font-size="10.00">_game.cpp</text>
</a>
</g>
</g>
<!-- Node1&#45;&gt;Node2 -->
<g id="edge1" class="edge">
<title>Node1&#45;&gt;Node2</title>
<path fill="none" stroke="midnightblue" d="M1807.44,-279.9C1668.38,-272.65 1339.06,-247.01 1271.6,-165 1255.93,-145.95 1266.01,-115.43 1274.19,-97.64"/>
<polygon fill="midnightblue" stroke="midnightblue" points="1807.35,-283.4 1817.52,-280.41 1807.71,-276.41 1807.35,-283.4"/>
</g>
<!-- Node3 -->
<g id="node3" class="node">
<title>Node3</title>
<g id="a_node3"><a xlink:href="d__com__inf__game_8h.html" target="_top" xlink:title=" ">
<polygon fill="white" stroke="black" points="2538.6,-201.5 2538.6,-231.5 2684.6,-231.5 2684.6,-201.5 2538.6,-201.5"/>
<text text-anchor="start" x="2546.6" y="-219.5" font-family="Helvetica,sans-Serif" font-size="10.00">include/d/d_com/d_com</text>
<text text-anchor="middle" x="2611.6" y="-208.5" font-family="Helvetica,sans-Serif" font-size="10.00">_inf_game/d_com_inf_game.h</text>
</a>
</g>
</g>
<!-- Node1&#45;&gt;Node3 -->
<g id="edge2" class="edge">
<title>Node1&#45;&gt;Node3</title>
<path fill="none" stroke="midnightblue" d="M1932.05,-277.03C2068.51,-265.08 2392.69,-236.68 2538.42,-223.91"/>
<polygon fill="midnightblue" stroke="midnightblue" points="1931.43,-273.57 1921.77,-277.93 1932.04,-280.54 1931.43,-273.57"/>
</g>
<!-- Node3&#45;&gt;Node2 -->
<g id="edge5" class="edge">
<title>Node3&#45;&gt;Node2</title>
<path fill="none" stroke="midnightblue" d="M2527.91,-215.32C2244.13,-214.33 1333.5,-207.82 1288.6,-165 1270.61,-147.85 1273.95,-116.06 1277.86,-97.66"/>
<polygon fill="midnightblue" stroke="midnightblue" points="2528.13,-218.82 2538.14,-215.36 2528.15,-211.82 2528.13,-218.82"/>
</g>
<!-- Node4 -->
<g id="node4" class="node">
<title>Node4</title>
<g id="a_node4"><a xlink:href="d__attention_8cpp.html" target="_top" xlink:title=" ">
<polygon fill="white" stroke="black" points="21.1,-6 21.1,-25 128.1,-25 128.1,-6 21.1,-6"/>
<text text-anchor="middle" x="74.6" y="-13" font-family="Helvetica,sans-Serif" font-size="10.00">src/d/d_attention.cpp</text>
</a>
</g>
</g>
<!-- Node3&#45;&gt;Node4 -->
<g id="edge3" class="edge">
<title>Node3&#45;&gt;Node4</title>
<path fill="none" stroke="midnightblue" d="M2528.29,-215.21C2131.36,-213.63 441.58,-204.62 209.6,-165 115.53,-148.93 61.57,-175.29 5.6,-98 -2.48,-86.84 -0.63,-79.29 5.6,-67 15.67,-47.14 37.63,-33.22 54.09,-25.09"/>
<polygon fill="midnightblue" stroke="midnightblue" points="2528.53,-218.71 2538.55,-215.25 2528.56,-211.71 2528.53,-218.71"/>
</g>
<!-- Node5 -->
<g id="node5" class="node">
<title>Node5</title>
<g id="a_node5"><a xlink:href="d__camera_8cpp.html" target="_top" xlink:title=" ">
<polygon fill="white" stroke="black" points="850.6,-6 850.6,-25 952.6,-25 952.6,-6 850.6,-6"/>
<text text-anchor="middle" x="901.6" y="-13" font-family="Helvetica,sans-Serif" font-size="10.00">src/d/d_camera.cpp</text>
</a>
</g>
</g>
<!-- Node3&#45;&gt;Node5 -->
<g id="edge4" class="edge">
<title>Node3&#45;&gt;Node5</title>
<path fill="none" stroke="midnightblue" d="M2528.29,-214.37C2232.26,-210.13 1245.47,-193.88 1184.6,-165 1132.24,-140.16 1147.98,-97.33 1098.6,-67 1073.55,-51.62 997.75,-34.88 947.81,-25.06"/>
<polygon fill="midnightblue" stroke="midnightblue" points="2528.48,-217.88 2538.53,-214.52 2528.58,-210.88 2528.48,-217.88"/>
</g>
<!-- Node6 -->
<g id="node6" class="node">
<title>Node6</title>
<g id="a_node6"><a xlink:href="d__file__sel__info_8cpp.html" target="_top" xlink:title=" ">
<polygon fill="white" stroke="black" points="1450.1,-134.5 1450.1,-164.5 1539.1,-164.5 1539.1,-134.5 1450.1,-134.5"/>
<text text-anchor="start" x="1458.1" y="-152.5" font-family="Helvetica,sans-Serif" font-size="10.00">src/d/d_file/d_file</text>
<text text-anchor="middle" x="1494.6" y="-141.5" font-family="Helvetica,sans-Serif" font-size="10.00">_sel_info.cpp</text>
</a>
</g>
</g>
<!-- Node3&#45;&gt;Node6 -->
<g id="edge6" class="edge">
<title>Node3&#45;&gt;Node6</title>
<path fill="none" stroke="midnightblue" d="M2528.32,-213.91C2312,-209.4 1736.05,-194.88 1547.6,-165 1544.87,-164.57 1542.07,-164.05 1539.27,-163.46"/>
<polygon fill="midnightblue" stroke="midnightblue" points="2528.28,-217.41 2538.35,-214.12 2528.42,-210.41 2528.28,-217.41"/>
</g>
<!-- Node7 -->
<g id="node7" class="node">
<title>Node7</title>
<g id="a_node7"><a xlink:href="d__item_8cpp.html" target="_top" xlink:title=" ">
<polygon fill="white" stroke="black" points="1398.1,-73 1398.1,-92 1519.1,-92 1519.1,-73 1398.1,-73"/>
<text text-anchor="middle" x="1458.6" y="-80" font-family="Helvetica,sans-Serif" font-size="10.00">src/d/d_item/d_item.cpp</text>
</a>
</g>
</g>
<!-- Node3&#45;&gt;Node7 -->
<g id="edge7" class="edge">
<title>Node3&#45;&gt;Node7</title>
<path fill="none" stroke="midnightblue" d="M2528.23,-215.03C2266.79,-213.14 1478.14,-204.2 1440.6,-165 1421.25,-144.8 1441.31,-108.74 1452.35,-92.21"/>
<polygon fill="midnightblue" stroke="midnightblue" points="2528.4,-218.53 2538.42,-215.1 2528.45,-211.53 2528.4,-218.53"/>
</g>
<!-- Node8 -->
<g id="node8" class="node">
<title>Node8</title>
<g id="a_node8"><a xlink:href="d__kankyo__rain_8cpp.html" target="_top" xlink:title=" ">
<polygon fill="white" stroke="black" points="1557.1,-134.5 1557.1,-164.5 1684.1,-164.5 1684.1,-134.5 1557.1,-134.5"/>
<text text-anchor="start" x="1565.1" y="-152.5" font-family="Helvetica,sans-Serif" font-size="10.00">src/d/d_kankyo/d_kankyo</text>
<text text-anchor="middle" x="1620.6" y="-141.5" font-family="Helvetica,sans-Serif" font-size="10.00">_rain.cpp</text>
</a>
</g>
</g>
<!-- Node3&#45;&gt;Node8 -->
<g id="edge8" class="edge">
<title>Node3&#45;&gt;Node8</title>
<path fill="none" stroke="midnightblue" d="M2528.04,-214.84C2366.31,-212.7 1999.45,-203.59 1693.6,-165 1690.52,-164.61 1687.38,-164.17 1684.21,-163.69"/>
<polygon fill="midnightblue" stroke="midnightblue" points="2528.35,-218.35 2538.4,-214.97 2528.44,-211.35 2528.35,-218.35"/>
</g>
<!-- Node9 -->
<g id="node9" class="node">
<title>Node9</title>
<g id="a_node9"><a xlink:href="d__kankyo__wether_8cpp.html" target="_top" xlink:title=" ">
<polygon fill="white" stroke="black" points="1702.1,-134.5 1702.1,-164.5 1829.1,-164.5 1829.1,-134.5 1702.1,-134.5"/>
<text text-anchor="start" x="1710.1" y="-152.5" font-family="Helvetica,sans-Serif" font-size="10.00">src/d/d_kankyo/d_kankyo</text>
<text text-anchor="middle" x="1765.6" y="-141.5" font-family="Helvetica,sans-Serif" font-size="10.00">_wether.cpp</text>
</a>
</g>
</g>
<!-- Node3&#45;&gt;Node9 -->
<g id="edge9" class="edge">
<title>Node3&#45;&gt;Node9</title>
<path fill="none" stroke="midnightblue" d="M2528.18,-213.62C2386.08,-209.63 2088.2,-197.8 1838.6,-165 1835.52,-164.6 1832.38,-164.14 1829.22,-163.65"/>
<polygon fill="midnightblue" stroke="midnightblue" points="2528.46,-217.13 2538.55,-213.91 2528.65,-210.14 2528.46,-217.13"/>
</g>
<!-- Node10 -->
<g id="node10" class="node">
<title>Node10</title>
<g id="a_node10"><a xlink:href="d__kankyo_8cpp.html" target="_top" xlink:title=" ">
<polygon fill="white" stroke="black" points="1847.1,-140 1847.1,-159 1948.1,-159 1948.1,-140 1847.1,-140"/>
<text text-anchor="middle" x="1897.6" y="-147" font-family="Helvetica,sans-Serif" font-size="10.00">src/d/d_kankyo.cpp</text>
</a>
</g>
</g>
<!-- Node3&#45;&gt;Node10 -->
<g id="edge10" class="edge">
<title>Node3&#45;&gt;Node10</title>
<path fill="none" stroke="midnightblue" d="M2528.33,-213.33C2403.59,-209.13 2161.09,-197.23 1957.6,-165 1948.18,-163.51 1938.06,-161.3 1928.86,-159.06"/>
<polygon fill="midnightblue" stroke="midnightblue" points="2528.46,-216.84 2538.57,-213.67 2528.69,-209.84 2528.46,-216.84"/>
</g>
<!-- Node11 -->
<g id="node11" class="node">
<title>Node11</title>
<g id="a_node11"><a xlink:href="d__kantera__icon__meter_8cpp.html" target="_top" xlink:title=" ">
<polygon fill="white" stroke="black" points="1966.1,-134.5 1966.1,-164.5 2073.1,-164.5 2073.1,-134.5 1966.1,-134.5"/>
<text text-anchor="start" x="1974.1" y="-152.5" font-family="Helvetica,sans-Serif" font-size="10.00">src/d/d_kantera_icon</text>
<text text-anchor="middle" x="2019.6" y="-141.5" font-family="Helvetica,sans-Serif" font-size="10.00">_meter.cpp</text>
</a>
</g>
</g>
<!-- Node3&#45;&gt;Node11 -->
<g id="edge11" class="edge">
<title>Node3&#45;&gt;Node11</title>
<path fill="none" stroke="midnightblue" d="M2528.3,-210.93C2423.72,-204.42 2239.04,-190.36 2082.6,-165 2079.5,-164.5 2076.32,-163.93 2073.12,-163.32"/>
<polygon fill="midnightblue" stroke="midnightblue" points="2528.28,-214.44 2538.48,-211.56 2528.71,-207.45 2528.28,-214.44"/>
</g>
<!-- Node12 -->
<g id="node12" class="node">
<title>Node12</title>
<g id="a_node12"><a xlink:href="d__kyeff_8cpp.html" target="_top" xlink:title=" ">
<polygon fill="white" stroke="black" points="2091.1,-140 2091.1,-159 2204.1,-159 2204.1,-140 2091.1,-140"/>
<text text-anchor="middle" x="2147.6" y="-147" font-family="Helvetica,sans-Serif" font-size="10.00">src/d/d_ky/d_kyeff.cpp</text>
</a>
</g>
</g>
<!-- Node3&#45;&gt;Node12 -->
<g id="edge12" class="edge">
<title>Node3&#45;&gt;Node12</title>
<path fill="none" stroke="midnightblue" d="M2528.21,-207.13C2447.45,-198.5 2321.7,-183.69 2213.6,-165 2203.89,-163.32 2193.44,-161.18 2183.79,-159.07"/>
<polygon fill="midnightblue" stroke="midnightblue" points="2528,-210.63 2538.31,-208.2 2528.74,-203.67 2528,-210.63"/>
</g>
<!-- Node13 -->
<g id="node13" class="node">
<title>Node13</title>
<g id="a_node13"><a xlink:href="d__meter__button_8cpp.html" target="_top" xlink:title=" ">
<polygon fill="white" stroke="black" points="2222.1,-134.5 2222.1,-164.5 2337.1,-164.5 2337.1,-134.5 2222.1,-134.5"/>
<text text-anchor="start" x="2230.1" y="-152.5" font-family="Helvetica,sans-Serif" font-size="10.00">src/d/d_meter/d_meter</text>
<text text-anchor="middle" x="2279.6" y="-141.5" font-family="Helvetica,sans-Serif" font-size="10.00">_button.cpp</text>
</a>
</g>
</g>
<!-- Node3&#45;&gt;Node13 -->
<g id="edge13" class="edge">
<title>Node3&#45;&gt;Node13</title>
<path fill="none" stroke="midnightblue" d="M2528.5,-200.21C2476.22,-190.46 2407.39,-177.37 2346.6,-165 2343.57,-164.38 2340.46,-163.74 2337.32,-163.09"/>
<polygon fill="midnightblue" stroke="midnightblue" points="2527.92,-203.66 2538.39,-202.05 2529.2,-196.78 2527.92,-203.66"/>
</g>
<!-- Node14 -->
<g id="node14" class="node">
<title>Node14</title>
<g id="a_node14"><a xlink:href="d__meter__haihai_8cpp.html" target="_top" xlink:title=" ">
<polygon fill="white" stroke="black" points="2355.1,-134.5 2355.1,-164.5 2470.1,-164.5 2470.1,-134.5 2355.1,-134.5"/>
<text text-anchor="start" x="2363.1" y="-152.5" font-family="Helvetica,sans-Serif" font-size="10.00">src/d/d_meter/d_meter</text>
<text text-anchor="middle" x="2412.6" y="-141.5" font-family="Helvetica,sans-Serif" font-size="10.00">_haihai.cpp</text>
</a>
</g>
</g>
<!-- Node3&#45;&gt;Node14 -->
<g id="edge14" class="edge">
<title>Node3&#45;&gt;Node14</title>
<path fill="none" stroke="midnightblue" d="M2558.72,-198.23C2526.53,-187.71 2485.92,-174.45 2455.69,-164.58"/>
<polygon fill="midnightblue" stroke="midnightblue" points="2557.83,-201.62 2568.42,-201.4 2560,-194.96 2557.83,-201.62"/>
</g>
<!-- Node15 -->
<g id="node15" class="node">
<title>Node15</title>
<g id="a_node15"><a xlink:href="d__meter__hakusha_8cpp.html" target="_top" xlink:title=" ">
<polygon fill="white" stroke="black" points="2488.1,-134.5 2488.1,-164.5 2603.1,-164.5 2603.1,-134.5 2488.1,-134.5"/>
<text text-anchor="start" x="2496.1" y="-152.5" font-family="Helvetica,sans-Serif" font-size="10.00">src/d/d_meter/d_meter</text>
<text text-anchor="middle" x="2545.6" y="-141.5" font-family="Helvetica,sans-Serif" font-size="10.00">_hakusha.cpp</text>
</a>
</g>
</g>
<!-- Node3&#45;&gt;Node15 -->
<g id="edge15" class="edge">
<title>Node3&#45;&gt;Node15</title>
<path fill="none" stroke="midnightblue" d="M2590.08,-194.31C2580.18,-184.56 2568.71,-173.26 2559.89,-164.58"/>
<polygon fill="midnightblue" stroke="midnightblue" points="2587.7,-196.87 2597.28,-201.4 2592.61,-191.89 2587.7,-196.87"/>
</g>
<!-- Node16 -->
<g id="node16" class="node">
<title>Node16</title>
<g id="a_node16"><a xlink:href="d__meter__map_8cpp.html" target="_top" xlink:title=" ">
<polygon fill="white" stroke="black" points="2621.1,-134.5 2621.1,-164.5 2736.1,-164.5 2736.1,-134.5 2621.1,-134.5"/>
<text text-anchor="start" x="2629.1" y="-152.5" font-family="Helvetica,sans-Serif" font-size="10.00">src/d/d_meter/d_meter</text>
<text text-anchor="middle" x="2678.6" y="-141.5" font-family="Helvetica,sans-Serif" font-size="10.00">_map.cpp</text>
</a>
</g>
</g>
<!-- Node3&#45;&gt;Node16 -->
<g id="edge16" class="edge">
<title>Node3&#45;&gt;Node16</title>
<path fill="none" stroke="midnightblue" d="M2633.44,-194.31C2643.49,-184.56 2655.14,-173.26 2664.09,-164.58"/>
<polygon fill="midnightblue" stroke="midnightblue" points="2630.88,-191.92 2626.14,-201.4 2635.75,-196.94 2630.88,-191.92"/>
</g>
<!-- Node17 -->
<g id="node17" class="node">
<title>Node17</title>
<g id="a_node17"><a xlink:href="d__meter__string_8cpp.html" target="_top" xlink:title=" ">
<polygon fill="white" stroke="black" points="2754.1,-134.5 2754.1,-164.5 2869.1,-164.5 2869.1,-134.5 2754.1,-134.5"/>
<text text-anchor="start" x="2762.1" y="-152.5" font-family="Helvetica,sans-Serif" font-size="10.00">src/d/d_meter/d_meter</text>
<text text-anchor="middle" x="2811.6" y="-141.5" font-family="Helvetica,sans-Serif" font-size="10.00">_string.cpp</text>
</a>
</g>
</g>
<!-- Node3&#45;&gt;Node17 -->
<g id="edge17" class="edge">
<title>Node3&#45;&gt;Node17</title>
<path fill="none" stroke="midnightblue" d="M2664.74,-198.23C2697.1,-187.71 2737.9,-174.45 2768.29,-164.58"/>
<polygon fill="midnightblue" stroke="midnightblue" points="2663.42,-194.98 2655,-201.4 2665.59,-201.63 2663.42,-194.98"/>
</g>
<!-- Node18 -->
<g id="node18" class="node">
<title>Node18</title>
<g id="a_node18"><a xlink:href="d__meter2__draw_8cpp.html" target="_top" xlink:title=" ">
<polygon fill="white" stroke="black" points="2887.1,-134.5 2887.1,-164.5 3012.1,-164.5 3012.1,-134.5 2887.1,-134.5"/>
<text text-anchor="start" x="2895.1" y="-152.5" font-family="Helvetica,sans-Serif" font-size="10.00">src/d/d_meter2/d_meter2</text>
<text text-anchor="middle" x="2949.6" y="-141.5" font-family="Helvetica,sans-Serif" font-size="10.00">_draw.cpp</text>
</a>
</g>
</g>
<!-- Node3&#45;&gt;Node18 -->
<g id="edge18" class="edge">
<title>Node3&#45;&gt;Node18</title>
<path fill="none" stroke="midnightblue" d="M2694.72,-200.1C2747.44,-190.25 2817.07,-177.1 2878.6,-165 2881.31,-164.47 2884.09,-163.92 2886.89,-163.36"/>
<polygon fill="midnightblue" stroke="midnightblue" points="2693.94,-196.69 2684.75,-201.96 2695.22,-203.57 2693.94,-196.69"/>
</g>
<!-- Node19 -->
<g id="node19" class="node">
<title>Node19</title>
<g id="a_node19"><a xlink:href="d__meter2__info_8cpp.html" target="_top" xlink:title=" ">
<polygon fill="white" stroke="black" points="3030.1,-134.5 3030.1,-164.5 3155.1,-164.5 3155.1,-134.5 3030.1,-134.5"/>
<text text-anchor="start" x="3038.1" y="-152.5" font-family="Helvetica,sans-Serif" font-size="10.00">src/d/d_meter2/d_meter2</text>
<text text-anchor="middle" x="3092.6" y="-141.5" font-family="Helvetica,sans-Serif" font-size="10.00">_info.cpp</text>
</a>
</g>
</g>
<!-- Node3&#45;&gt;Node19 -->
<g id="edge19" class="edge">
<title>Node3&#45;&gt;Node19</title>
<path fill="none" stroke="midnightblue" d="M2694.93,-207.18C2777.97,-198.44 2908.98,-183.41 3021.6,-165 3024.33,-164.55 3027.12,-164.08 3029.93,-163.58"/>
<polygon fill="midnightblue" stroke="midnightblue" points="2694.38,-203.72 2684.8,-208.25 2695.11,-210.68 2694.38,-203.72"/>
</g>
<!-- Node20 -->
<g id="node20" class="node">
<title>Node20</title>
<g id="a_node20"><a xlink:href="d__meter2_8cpp.html" target="_top" xlink:title=" ">
<polygon fill="white" stroke="black" points="3173.6,-140 3173.6,-159 3273.6,-159 3273.6,-140 3173.6,-140"/>
<text text-anchor="middle" x="3223.6" y="-147" font-family="Helvetica,sans-Serif" font-size="10.00">src/d/d_meter2.cpp</text>
</a>
</g>
</g>
<!-- Node3&#45;&gt;Node20 -->
<g id="edge20" class="edge">
<title>Node3&#45;&gt;Node20</title>
<path fill="none" stroke="midnightblue" d="M2695.2,-211.77C2803.93,-206.04 2999.49,-192.67 3164.6,-165 3173.75,-163.47 3183.59,-161.27 3192.55,-159.06"/>
<polygon fill="midnightblue" stroke="midnightblue" points="2694.76,-208.29 2684.95,-212.31 2695.12,-215.28 2694.76,-208.29"/>
</g>
<!-- Node21 -->
<g id="node21" class="node">
<title>Node21</title>
<g id="a_node21"><a xlink:href="d__model_8cpp.html" target="_top" xlink:title=" ">
<polygon fill="white" stroke="black" points="3291.6,-140 3291.6,-159 3387.6,-159 3387.6,-140 3291.6,-140"/>
<text text-anchor="middle" x="3339.6" y="-147" font-family="Helvetica,sans-Serif" font-size="10.00">src/d/d_model.cpp</text>
</a>
</g>
</g>
<!-- Node3&#45;&gt;Node21 -->
<g id="edge21" class="edge">
<title>Node3&#45;&gt;Node21</title>
<path fill="none" stroke="midnightblue" d="M2695.15,-213.87C2822.63,-210.34 3072.97,-199.28 3282.6,-165 3291.67,-163.52 3301.41,-161.28 3310.22,-159.01"/>
<polygon fill="midnightblue" stroke="midnightblue" points="2694.97,-210.38 2685.07,-214.14 2695.16,-217.37 2694.97,-210.38"/>
</g>
<!-- Node22 -->
<g id="node22" class="node">
<title>Node22</title>
<g id="a_node22"><a xlink:href="d__save_8cpp.html" target="_top" xlink:title=" ">
<polygon fill="white" stroke="black" points="3406.1,-140 3406.1,-159 3531.1,-159 3531.1,-140 3406.1,-140"/>
<text text-anchor="middle" x="3468.6" y="-147" font-family="Helvetica,sans-Serif" font-size="10.00">src/d/d_save/d_save.cpp</text>
</a>
</g>
</g>
<!-- Node3&#45;&gt;Node22 -->
<g id="edge22" class="edge">
<title>Node3&#45;&gt;Node22</title>
<path fill="none" stroke="midnightblue" d="M2694.77,-213.82C2838.46,-210.1 3142.25,-198.64 3396.6,-165 3407.85,-163.51 3419.98,-161.31 3431.02,-159.06"/>
<polygon fill="midnightblue" stroke="midnightblue" points="2694.61,-210.32 2684.7,-214.08 2694.79,-217.32 2694.61,-210.32"/>
</g>
<!-- Node23 -->
<g id="node23" class="node">
<title>Node23</title>
<g id="a_node23"><a xlink:href="d__save__HIO_8cpp.html" target="_top" xlink:title=" ">
<polygon fill="white" stroke="black" points="3549.1,-134.5 3549.1,-164.5 3656.1,-164.5 3656.1,-134.5 3549.1,-134.5"/>
<text text-anchor="start" x="3557.1" y="-152.5" font-family="Helvetica,sans-Serif" font-size="10.00">src/d/d_save/d_save</text>
<text text-anchor="middle" x="3602.6" y="-141.5" font-family="Helvetica,sans-Serif" font-size="10.00">_HIO.cpp</text>
</a>
</g>
</g>
<!-- Node3&#45;&gt;Node23 -->
<g id="edge23" class="edge">
<title>Node3&#45;&gt;Node23</title>
<path fill="none" stroke="midnightblue" d="M2695.35,-215.85C2858.76,-215.45 3231.2,-209.24 3540.6,-165 3543.33,-164.61 3546.13,-164.16 3548.94,-163.66"/>
<polygon fill="midnightblue" stroke="midnightblue" points="2694.89,-212.35 2684.89,-215.87 2694.9,-219.35 2694.89,-212.35"/>
</g>
<!-- Node24 -->
<g id="node24" class="node">
<title>Node24</title>
<g id="a_node24"><a xlink:href="d__stage_8cpp.html" target="_top" xlink:title=" ">
<polygon fill="white" stroke="black" points="989.6,-6 989.6,-25 1083.6,-25 1083.6,-6 989.6,-6"/>
<text text-anchor="middle" x="1036.6" y="-13" font-family="Helvetica,sans-Serif" font-size="10.00">src/d/d_stage.cpp</text>
</a>
</g>
</g>
<!-- Node3&#45;&gt;Node24 -->
<g id="edge24" class="edge">
<title>Node3&#45;&gt;Node24</title>
<path fill="none" stroke="midnightblue" d="M2528.02,-215.99C2247.15,-217.14 1348.22,-216.69 1229.6,-165 1173.13,-140.39 1181.12,-103.64 1131.6,-67 1107.72,-49.34 1076.86,-34.13 1056.9,-25.15"/>
<polygon fill="midnightblue" stroke="midnightblue" points="2528.16,-219.49 2538.14,-215.94 2528.13,-212.49 2528.16,-219.49"/>
</g>
<!-- Node25 -->
<g id="node25" class="node">
<title>Node25</title>
<g id="a_node25"><a xlink:href="f__op__actor__mng_8cpp.html" target="_top" xlink:title=" ">
<polygon fill="white" stroke="black" points="1140.1,-0.5 1140.1,-30.5 1247.1,-30.5 1247.1,-0.5 1140.1,-0.5"/>
<text text-anchor="start" x="1148.1" y="-18.5" font-family="Helvetica,sans-Serif" font-size="10.00">src/f/f_op/f_op_actor</text>
<text text-anchor="middle" x="1193.6" y="-7.5" font-family="Helvetica,sans-Serif" font-size="10.00">_mng.cpp</text>
</a>
</g>
</g>
<!-- Node3&#45;&gt;Node25 -->
<g id="edge25" class="edge">
<title>Node3&#45;&gt;Node25</title>
<path fill="none" stroke="midnightblue" d="M2528.15,-214.17C2243.98,-209.39 1328.4,-191.97 1271.6,-165 1235.76,-147.98 1230.76,-133.28 1212.6,-98 1201.36,-76.17 1196.68,-47.64 1194.8,-30.78"/>
<polygon fill="midnightblue" stroke="midnightblue" points="2528.34,-217.67 2538.39,-214.34 2528.45,-210.67 2528.34,-217.67"/>
</g>
<!-- Node26 -->
<g id="node26" class="node">
<title>Node26</title>
<g id="a_node26"><a xlink:href="f__op__camera_8cpp.html" target="_top" xlink:title=" ">
<polygon fill="white" stroke="black" points="3674.1,-140 3674.1,-159 3809.1,-159 3809.1,-140 3674.1,-140"/>
<text text-anchor="middle" x="3741.6" y="-147" font-family="Helvetica,sans-Serif" font-size="10.00">src/f/f_op/f_op_camera.cpp</text>
</a>
</g>
</g>
<!-- Node3&#45;&gt;Node26 -->
<g id="edge26" class="edge">
<title>Node3&#45;&gt;Node26</title>
<path fill="none" stroke="midnightblue" d="M2694.83,-215.48C2873.35,-214.57 3306.01,-207.7 3665.6,-165 3677.74,-163.56 3690.85,-161.31 3702.71,-159.01"/>
<polygon fill="midnightblue" stroke="midnightblue" points="2694.71,-211.98 2684.73,-215.53 2694.74,-218.98 2694.71,-211.98"/>
</g>
<!-- Node27 -->
<g id="node27" class="node">
<title>Node27</title>
<g id="a_node27"><a xlink:href="f__op__kankyo_8cpp.html" target="_top" xlink:title=" ">
<polygon fill="white" stroke="black" points="3827.6,-140 3827.6,-159 3961.6,-159 3961.6,-140 3827.6,-140"/>
<text text-anchor="middle" x="3894.6" y="-147" font-family="Helvetica,sans-Serif" font-size="10.00">src/f/f_op/f_op_kankyo.cpp</text>
</a>
</g>
</g>
<!-- Node3&#45;&gt;Node27 -->
<g id="edge27" class="edge">
<title>Node3&#45;&gt;Node27</title>
<path fill="none" stroke="midnightblue" d="M2694.92,-216.21C2891.35,-216.97 3398.49,-213.6 3818.6,-165 3830.74,-163.6 3843.85,-161.36 3855.71,-159.06"/>
<polygon fill="midnightblue" stroke="midnightblue" points="2694.7,-212.71 2684.68,-216.17 2694.66,-219.71 2694.7,-212.71"/>
</g>
<!-- Node28 -->
<g id="node28" class="node">
<title>Node28</title>
<g id="a_node28"><a xlink:href="f__op__kankyo__mng_8cpp.html" target="_top" xlink:title=" ">
<polygon fill="white" stroke="black" points="152.6,-67.5 152.6,-97.5 268.6,-97.5 268.6,-67.5 152.6,-67.5"/>
<text text-anchor="start" x="160.6" y="-85.5" font-family="Helvetica,sans-Serif" font-size="10.00">src/f/f_op/f_op_kankyo</text>
<text text-anchor="middle" x="210.6" y="-74.5" font-family="Helvetica,sans-Serif" font-size="10.00">_mng.cpp</text>
</a>
</g>
</g>
<!-- Node3&#45;&gt;Node28 -->
<g id="edge28" class="edge">
<title>Node3&#45;&gt;Node28</title>
<path fill="none" stroke="midnightblue" d="M2528.24,-215C2157.07,-212.57 663.93,-200.65 457.6,-165 378.17,-151.28 289.42,-117.07 242.97,-97.61"/>
<polygon fill="midnightblue" stroke="midnightblue" points="2528.35,-218.5 2538.37,-215.06 2528.39,-211.5 2528.35,-218.5"/>
</g>
<!-- Node29 -->
<g id="node29" class="node">
<title>Node29</title>
<g id="a_node29"><a xlink:href="f__op__msg__mng_8cpp.html" target="_top" xlink:title=" ">
<polygon fill="white" stroke="black" points="286.6,-67.5 286.6,-97.5 390.6,-97.5 390.6,-67.5 286.6,-67.5"/>
<text text-anchor="start" x="294.6" y="-85.5" font-family="Helvetica,sans-Serif" font-size="10.00">src/f/f_op/f_op_msg</text>
<text text-anchor="middle" x="338.6" y="-74.5" font-family="Helvetica,sans-Serif" font-size="10.00">_mng.cpp</text>
</a>
</g>
</g>
<!-- Node3&#45;&gt;Node29 -->
<g id="edge29" class="edge">
<title>Node3&#45;&gt;Node29</title>
<path fill="none" stroke="midnightblue" d="M2528.5,-214.98C2169.98,-212.51 765,-200.63 570.6,-165 495.64,-151.26 412.42,-117.06 368.9,-97.61"/>
<polygon fill="midnightblue" stroke="midnightblue" points="2528.52,-218.48 2538.54,-215.04 2528.57,-211.48 2528.52,-218.48"/>
</g>
<!-- Node30 -->
<g id="node30" class="node">
<title>Node30</title>
<g id="a_node30"><a xlink:href="f__pc__manager_8cpp.html" target="_top" xlink:title=" ">
<polygon fill="white" stroke="black" points="949.6,-73 949.6,-92 1089.6,-92 1089.6,-73 949.6,-73"/>
<text text-anchor="middle" x="1019.6" y="-80" font-family="Helvetica,sans-Serif" font-size="10.00">src/f/f_pc/f_pc_manager.cpp</text>
</a>
</g>
</g>
<!-- Node3&#45;&gt;Node30 -->
<g id="edge30" class="edge">
<title>Node3&#45;&gt;Node30</title>
<path fill="none" stroke="midnightblue" d="M2528.32,-214.37C2221.62,-209.99 1169.45,-192.99 1103.6,-165 1066.95,-149.42 1037.18,-109.92 1025.24,-92.27"/>
<polygon fill="midnightblue" stroke="midnightblue" points="2528.43,-217.87 2538.48,-214.51 2528.53,-210.87 2528.43,-217.87"/>
</g>
<!-- Node31 -->
<g id="node31" class="node">
<title>Node31</title>
<g id="a_node31"><a xlink:href="m__Do__audio_8cpp.html" target="_top" xlink:title=" ">
<polygon fill="white" stroke="black" points="3979.6,-140 3979.6,-159 4113.6,-159 4113.6,-140 3979.6,-140"/>
<text text-anchor="middle" x="4046.6" y="-147" font-family="Helvetica,sans-Serif" font-size="10.00">src/m_Do/m_Do_audio.cpp</text>
</a>
</g>
</g>
<!-- Node3&#45;&gt;Node31 -->
<g id="edge31" class="edge">
<title>Node3&#45;&gt;Node31</title>
<path fill="none" stroke="midnightblue" d="M2695.09,-214.06C2950.9,-209.37 3721.56,-193.22 3970.6,-165 3982.88,-163.61 3996.15,-161.34 4008.11,-159.01"/>
<polygon fill="midnightblue" stroke="midnightblue" points="2694.68,-210.56 2684.75,-214.24 2694.81,-217.56 2694.68,-210.56"/>
</g>
<!-- Node32 -->
<g id="node32" class="node">
<title>Node32</title>
<g id="a_node32"><a xlink:href="m__Do__graphic_8cpp.html" target="_top" xlink:title=" ">
<polygon fill="white" stroke="black" points="4131.6,-140 4131.6,-159 4273.6,-159 4273.6,-140 4131.6,-140"/>
<text text-anchor="middle" x="4202.6" y="-147" font-family="Helvetica,sans-Serif" font-size="10.00">src/m_Do/m_Do_graphic.cpp</text>
</a>
</g>
</g>
<!-- Node3&#45;&gt;Node32 -->
<g id="edge32" class="edge">
<title>Node3&#45;&gt;Node32</title>
<path fill="none" stroke="midnightblue" d="M2695.34,-214.31C2970.09,-210.16 3842.54,-194.9 4122.6,-165 4135.51,-163.62 4149.48,-161.36 4162.07,-159.03"/>
<polygon fill="midnightblue" stroke="midnightblue" points="2694.98,-210.82 2685.04,-214.47 2695.09,-217.82 2694.98,-210.82"/>
</g>
<!-- Node33 -->
<g id="node33" class="node">
<title>Node33</title>
<g id="a_node33"><a xlink:href="m__Do__lib_8cpp.html" target="_top" xlink:title=" ">
<polygon fill="white" stroke="black" points="4291.6,-140 4291.6,-159 4411.6,-159 4411.6,-140 4291.6,-140"/>
<text text-anchor="middle" x="4351.6" y="-147" font-family="Helvetica,sans-Serif" font-size="10.00">src/m_Do/m_Do_lib.cpp</text>
</a>
</g>
</g>
<!-- Node3&#45;&gt;Node33 -->
<g id="edge33" class="edge">
<title>Node3&#45;&gt;Node33</title>
<path fill="none" stroke="midnightblue" d="M2695.15,-214.93C2988.45,-212.63 3970.19,-202.25 4282.6,-165 4293.9,-163.65 4306.1,-161.37 4317.05,-159.01"/>
<polygon fill="midnightblue" stroke="midnightblue" points="2694.98,-211.43 2685.01,-215.01 2695.03,-218.43 2694.98,-211.43"/>
</g>
<!-- Node34 -->
<g id="node34" class="node">
<title>Node34</title>
<g id="a_node34"><a xlink:href="m__Do__machine__exception_8cpp.html" target="_top" xlink:title=" ">
<polygon fill="white" stroke="black" points="4430.1,-134.5 4430.1,-164.5 4559.1,-164.5 4559.1,-134.5 4430.1,-134.5"/>
<text text-anchor="start" x="4438.1" y="-152.5" font-family="Helvetica,sans-Serif" font-size="10.00">src/m_Do/m_Do_machine</text>
<text text-anchor="middle" x="4494.6" y="-141.5" font-family="Helvetica,sans-Serif" font-size="10.00">_exception.cpp</text>
</a>
</g>
</g>
<!-- Node3&#45;&gt;Node34 -->
<g id="edge34" class="edge">
<title>Node3&#45;&gt;Node34</title>
<path fill="none" stroke="midnightblue" d="M2694.9,-215.01C3003.25,-212.89 4079.52,-202.91 4420.6,-165 4423.59,-164.67 4426.64,-164.28 4429.72,-163.84"/>
<polygon fill="midnightblue" stroke="midnightblue" points="2694.67,-211.51 2684.69,-215.08 2694.72,-218.51 2694.67,-211.51"/>
</g>
<!-- Node35 -->
<g id="node35" class="node">
<title>Node35</title>
<g id="a_node35"><a xlink:href="m__Do__main_8cpp.html" target="_top" xlink:title=" ">
<polygon fill="white" stroke="black" points="3493.1,-6 3493.1,-25 3624.1,-25 3624.1,-6 3493.1,-6"/>
<text text-anchor="middle" x="3558.6" y="-13" font-family="Helvetica,sans-Serif" font-size="10.00">src/m_Do/m_Do_main.cpp</text>
</a>
</g>
</g>
<!-- Node3&#45;&gt;Node35 -->
<g id="edge35" class="edge">
<title>Node3&#45;&gt;Node35</title>
<path fill="none" stroke="midnightblue" d="M2694.97,-215.76C3188.91,-217.13 5712.13,-221.37 5767.6,-165 5777.26,-155.18 5777.08,-144 5767.6,-134 5691.94,-54.21 3983.1,-23.13 3624.31,-17.48"/>
<polygon fill="midnightblue" stroke="midnightblue" points="2694.72,-212.26 2684.71,-215.74 2694.7,-219.26 2694.72,-212.26"/>
</g>
<!-- Node36 -->
<g id="node36" class="node">
<title>Node36</title>
<g id="a_node36"><a xlink:href="m__Do__MemCardRWmng_8cpp.html" target="_top" xlink:title=" ">
<polygon fill="white" stroke="black" points="4577.1,-140 4577.1,-159 4764.1,-159 4764.1,-140 4577.1,-140"/>
<text text-anchor="middle" x="4670.6" y="-147" font-family="Helvetica,sans-Serif" font-size="10.00">src/m_Do/m_Do_MemCardRWmng.cpp</text>
</a>
</g>
</g>
<!-- Node3&#45;&gt;Node36 -->
<g id="edge36" class="edge">
<title>Node3&#45;&gt;Node36</title>
<path fill="none" stroke="midnightblue" d="M2695.05,-214.63C3019.33,-211.06 4196.17,-196.17 4568.6,-165 4585.09,-163.62 4602.98,-161.34 4619.1,-159"/>
<polygon fill="midnightblue" stroke="midnightblue" points="2694.75,-211.13 2684.79,-214.74 2694.82,-218.13 2694.75,-211.13"/>
</g>
<!-- Node37 -->
<g id="node37" class="node">
<title>Node37</title>
<g id="a_node37"><a xlink:href="m__Do__ext_8cpp.html" target="_top" xlink:title=" ">
<polygon fill="white" stroke="black" points="4782.1,-140 4782.1,-159 4905.1,-159 4905.1,-140 4782.1,-140"/>
<text text-anchor="middle" x="4843.6" y="-147" font-family="Helvetica,sans-Serif" font-size="10.00">src/m_Do/m_Do_ext.cpp</text>
</a>
</g>
</g>
<!-- Node3&#45;&gt;Node37 -->
<g id="edge37" class="edge">
<title>Node3&#45;&gt;Node37</title>
<path fill="none" stroke="midnightblue" d="M2694.81,-215.57C3039.91,-215.54 4359.88,-212.29 4773.6,-165 4785.07,-163.69 4797.44,-161.42 4808.55,-159.06"/>
<polygon fill="midnightblue" stroke="midnightblue" points="2694.64,-212.07 2684.64,-215.57 2694.64,-219.07 2694.64,-212.07"/>
</g>
<!-- Node38 -->
<g id="node38" class="node">
<title>Node38</title>
<g id="a_node38"><a xlink:href="Z2EnvSeMgr_8cpp.html" target="_top" xlink:title=" ">
<polygon fill="white" stroke="black" points="4923.1,-140 4923.1,-159 5084.1,-159 5084.1,-140 4923.1,-140"/>
<text text-anchor="middle" x="5003.6" y="-147" font-family="Helvetica,sans-Serif" font-size="10.00">libs/Z2AudioLib/Z2EnvSeMgr.cpp</text>
</a>
</g>
</g>
<!-- Node3&#45;&gt;Node38 -->
<g id="edge38" class="edge">
<title>Node3&#45;&gt;Node38</title>
<path fill="none" stroke="midnightblue" d="M2694.79,-215.23C3053.62,-213.84 4470.72,-205.82 4914.6,-165 4929.1,-163.67 4944.81,-161.39 4958.93,-159.03"/>
<polygon fill="midnightblue" stroke="midnightblue" points="2694.72,-211.73 2684.74,-215.27 2694.75,-218.73 2694.72,-211.73"/>
</g>
<!-- Node39 -->
<g id="node39" class="node">
<title>Node39</title>
<g id="a_node39"><a xlink:href="Z2LinkMgr_8cpp.html" target="_top" xlink:title=" ">
<polygon fill="white" stroke="black" points="5102.6,-140 5102.6,-159 5254.6,-159 5254.6,-140 5102.6,-140"/>
<text text-anchor="middle" x="5178.6" y="-147" font-family="Helvetica,sans-Serif" font-size="10.00">libs/Z2AudioLib/Z2LinkMgr.cpp</text>
</a>
</g>
</g>
<!-- Node3&#45;&gt;Node39 -->
<g id="edge39" class="edge">
<title>Node3&#45;&gt;Node39</title>
<path fill="none" stroke="midnightblue" d="M2694.96,-215.47C3071.1,-215.08 4612.72,-210.65 5093.6,-165 5107.46,-163.68 5122.47,-161.41 5135.96,-159.05"/>
<polygon fill="midnightblue" stroke="midnightblue" points="2694.7,-211.97 2684.7,-215.48 2694.7,-218.97 2694.7,-211.97"/>
</g>
<!-- Node40 -->
<g id="node40" class="node">
<title>Node40</title>
<g id="a_node40"><a xlink:href="Z2SceneMgr_8cpp.html" target="_top" xlink:title=" ">
<polygon fill="white" stroke="black" points="5273.1,-140 5273.1,-159 5434.1,-159 5434.1,-140 5273.1,-140"/>
<text text-anchor="middle" x="5353.6" y="-147" font-family="Helvetica,sans-Serif" font-size="10.00">libs/Z2AudioLib/Z2SceneMgr.cpp</text>
</a>
</g>
</g>
<!-- Node3&#45;&gt;Node40 -->
<g id="edge40" class="edge">
<title>Node3&#45;&gt;Node40</title>
<path fill="none" stroke="midnightblue" d="M2694.82,-215.49C3086.3,-215.22 4747.02,-211.3 5263.6,-165 5278.26,-163.69 5294.14,-161.41 5308.43,-159.05"/>
<polygon fill="midnightblue" stroke="midnightblue" points="2694.71,-211.99 2684.71,-215.5 2694.71,-218.99 2694.71,-211.99"/>
</g>
<!-- Node41 -->
<g id="node41" class="node">
<title>Node41</title>
<g id="a_node41"><a xlink:href="Z2SoundMgr_8cpp.html" target="_top" xlink:title=" ">
<polygon fill="white" stroke="black" points="5452.1,-140 5452.1,-159 5613.1,-159 5613.1,-140 5452.1,-140"/>
<text text-anchor="middle" x="5532.6" y="-147" font-family="Helvetica,sans-Serif" font-size="10.00">libs/Z2AudioLib/Z2SoundMgr.cpp</text>
</a>
</g>
</g>
<!-- Node3&#45;&gt;Node41 -->
<g id="edge41" class="edge">
<title>Node3&#45;&gt;Node41</title>
<path fill="none" stroke="midnightblue" d="M2695.07,-215.63C3102.99,-216.02 4889.58,-214.81 5443.6,-165 5458.1,-163.7 5473.81,-161.43 5487.94,-159.06"/>
<polygon fill="midnightblue" stroke="midnightblue" points="2694.83,-212.13 2684.83,-215.62 2694.83,-219.13 2694.83,-212.13"/>
</g>
<!-- Node42 -->
<g id="node42" class="node">
<title>Node42</title>
<g id="a_node42"><a xlink:href="Z2StatusMgr_8cpp.html" target="_top" xlink:title=" ">
<polygon fill="white" stroke="black" points="5631.1,-134.5 5631.1,-164.5 5758.1,-164.5 5758.1,-134.5 5631.1,-134.5"/>
<text text-anchor="start" x="5639.1" y="-152.5" font-family="Helvetica,sans-Serif" font-size="10.00">libs/Z2AudioLib/Z2Status</text>
<text text-anchor="middle" x="5694.6" y="-141.5" font-family="Helvetica,sans-Serif" font-size="10.00">Mgr.cpp</text>
</a>
</g>
</g>
<!-- Node3&#45;&gt;Node42 -->
<g id="edge42" class="edge">
<title>Node3&#45;&gt;Node42</title>
<path fill="none" stroke="midnightblue" d="M2695.06,-215.01C3150.4,-212.2 5325.02,-197.19 5622.6,-165 5625.39,-164.7 5628.23,-164.34 5631.09,-163.94"/>
<polygon fill="midnightblue" stroke="midnightblue" points="2694.92,-211.51 2684.95,-215.07 2694.97,-218.51 2694.92,-211.51"/>
</g>
<!-- Node43 -->
<g id="node43" class="node">
<title>Node43</title>
<g id="a_node43"><a xlink:href="d__a__alink_8h.html" target="_top" xlink:title=" ">
<polygon fill="white" stroke="black" points="15.1,-67.5 15.1,-97.5 134.1,-97.5 134.1,-67.5 15.1,-67.5"/>
<text text-anchor="start" x="23.1" y="-85.5" font-family="Helvetica,sans-Serif" font-size="10.00">include/d/d_a/d_a_alink</text>
<text text-anchor="middle" x="74.6" y="-74.5" font-family="Helvetica,sans-Serif" font-size="10.00">/d_a_alink.h</text>
</a>
</g>
</g>
<!-- Node3&#45;&gt;Node43 -->
<g id="edge43" class="edge">
<title>Node3&#45;&gt;Node43</title>
<path fill="none" stroke="midnightblue" d="M2528.39,-215.02C2144.84,-212.63 556.67,-200.66 337.6,-165 253.38,-151.29 158.74,-117.08 109.16,-97.62"/>
<polygon fill="midnightblue" stroke="midnightblue" points="2528.56,-218.52 2538.58,-215.09 2528.6,-211.52 2528.56,-218.52"/>
</g>
<!-- Node45 -->
<g id="node45" class="node">
<title>Node45</title>
<g id="a_node45"><a xlink:href="d__item_8h.html" target="_top" xlink:title=" ">
<polygon fill="white" stroke="black" points="1297.6,-134.5 1297.6,-164.5 1393.6,-164.5 1393.6,-134.5 1297.6,-134.5"/>
<text text-anchor="start" x="1305.6" y="-152.5" font-family="Helvetica,sans-Serif" font-size="10.00">include/d/d_item/d</text>
<text text-anchor="middle" x="1345.6" y="-141.5" font-family="Helvetica,sans-Serif" font-size="10.00">_item/d_item.h</text>
</a>
</g>
</g>
<!-- Node3&#45;&gt;Node45 -->
<g id="edge46" class="edge">
<title>Node3&#45;&gt;Node45</title>
<path fill="none" stroke="midnightblue" d="M2528.38,-214.04C2292.88,-209.6 1624.74,-194.68 1407.6,-165 1403.11,-164.39 1398.47,-163.6 1393.84,-162.7"/>
<polygon fill="midnightblue" stroke="midnightblue" points="2528.53,-217.55 2538.6,-214.24 2528.67,-210.55 2528.53,-217.55"/>
</g>
<!-- Node46 -->
<g id="node46" class="node">
<title>Node46</title>
<g id="a_node46"><a xlink:href="f__pc__manager_8h.html" target="_top" xlink:title=" ">
<polygon fill="white" stroke="black" points="580.1,-134.5 580.1,-164.5 677.1,-164.5 677.1,-134.5 580.1,-134.5"/>
<text text-anchor="start" x="588.1" y="-152.5" font-family="Helvetica,sans-Serif" font-size="10.00">include/f/f_pc/f_pc</text>
<text text-anchor="middle" x="628.6" y="-141.5" font-family="Helvetica,sans-Serif" font-size="10.00">_manager.h</text>
</a>
</g>
</g>
<!-- Node3&#45;&gt;Node46 -->
<g id="edge50" class="edge">
<title>Node3&#45;&gt;Node46</title>
<path fill="none" stroke="midnightblue" d="M2528.38,-212.94C2293.68,-205.69 1606.45,-184.31 1035.6,-165 906.11,-160.62 753.45,-155.08 677.15,-152.29"/>
<polygon fill="midnightblue" stroke="midnightblue" points="2528.44,-216.44 2538.54,-213.25 2528.66,-209.45 2528.44,-216.44"/>
</g>
<!-- Node43&#45;&gt;Node4 -->
<g id="edge44" class="edge">
<title>Node43&#45;&gt;Node4</title>
<path fill="none" stroke="midnightblue" d="M74.6,-57.25C74.6,-46.02 74.6,-33.38 74.6,-25.19"/>
<polygon fill="midnightblue" stroke="midnightblue" points="71.1,-57.4 74.6,-67.4 78.1,-57.4 71.1,-57.4"/>
</g>
<!-- Node44 -->
<g id="node44" class="node">
<title>Node44</title>
<g id="a_node44"><a xlink:href="d__a__alink_8cpp.html" target="_top" xlink:title=" ">
<polygon fill="white" stroke="black" points="359.1,-6 359.1,-25 478.1,-25 478.1,-6 359.1,-6"/>
<text text-anchor="middle" x="418.6" y="-13" font-family="Helvetica,sans-Serif" font-size="10.00">src/d/d_a/d_a_alink.cpp</text>
</a>
</g>
</g>
<!-- Node43&#45;&gt;Node44 -->
<g id="edge45" class="edge">
<title>Node43&#45;&gt;Node44</title>
<path fill="none" stroke="midnightblue" d="M144.26,-66.9C229.45,-50.21 316.86,-34.46 369.85,-25.07"/>
<polygon fill="midnightblue" stroke="midnightblue" points="143.56,-63.47 134.42,-68.83 144.91,-70.34 143.56,-63.47"/>
</g>
<!-- Node45&#45;&gt;Node2 -->
<g id="edge47" class="edge">
<title>Node45&#45;&gt;Node2</title>
<path fill="none" stroke="midnightblue" d="M1324.45,-127.02C1314.92,-117.34 1303.92,-106.17 1295.46,-97.58"/>
<polygon fill="midnightblue" stroke="midnightblue" points="1322.2,-129.73 1331.71,-134.4 1327.19,-124.81 1322.2,-129.73"/>
</g>
<!-- Node45&#45;&gt;Node7 -->
<g id="edge48" class="edge">
<title>Node45&#45;&gt;Node7</title>
<path fill="none" stroke="midnightblue" d="M1378.96,-129.31C1400.49,-116.93 1427.43,-101.43 1443.81,-92.01"/>
<polygon fill="midnightblue" stroke="midnightblue" points="1377.04,-126.38 1370.12,-134.4 1380.53,-132.44 1377.04,-126.38"/>
</g>
<!-- Node45&#45;&gt;Node25 -->
<g id="edge49" class="edge">
<title>Node45&#45;&gt;Node25</title>
<path fill="none" stroke="midnightblue" d="M1354.27,-124.25C1358.89,-106.71 1361.47,-83.32 1349.6,-67 1326.41,-35.12 1282.65,-22.95 1247.37,-18.5"/>
<polygon fill="midnightblue" stroke="midnightblue" points="1350.77,-123.71 1351.24,-134.3 1357.48,-125.74 1350.77,-123.71"/>
</g>
<!-- Node46&#45;&gt;Node28 -->
<g id="edge53" class="edge">
<title>Node46&#45;&gt;Node28</title>
<path fill="none" stroke="midnightblue" d="M569.94,-141.34C500.08,-132.52 379.96,-116.42 277.6,-98 274.67,-97.47 271.68,-96.91 268.65,-96.33"/>
<polygon fill="midnightblue" stroke="midnightblue" points="569.52,-144.82 579.88,-142.59 570.39,-137.87 569.52,-144.82"/>
</g>
<!-- Node46&#45;&gt;Node29 -->
<g id="edge54" class="edge">
<title>Node46&#45;&gt;Node29</title>
<path fill="none" stroke="midnightblue" d="M570.22,-135.41C517.69,-123.64 441.23,-106.5 390.73,-95.18"/>
<polygon fill="midnightblue" stroke="midnightblue" points="569.54,-138.85 580.06,-137.62 571.07,-132.02 569.54,-138.85"/>
</g>
<!-- Node46&#45;&gt;Node30 -->
<g id="edge57" class="edge">
<title>Node46&#45;&gt;Node30</title>
<path fill="none" stroke="midnightblue" d="M687.2,-139.31C749.76,-129.43 851.76,-113.09 939.6,-98 950.59,-96.11 962.41,-94.01 973.51,-92"/>
<polygon fill="midnightblue" stroke="midnightblue" points="686.46,-135.89 677.13,-140.9 687.55,-142.8 686.46,-135.89"/>
</g>
<!-- Node46&#45;&gt;Node44 -->
<g id="edge52" class="edge">
<title>Node46&#45;&gt;Node44</title>
<path fill="none" stroke="midnightblue" d="M570.01,-139.77C520.89,-131.27 455.93,-116.88 437.6,-98 418.07,-77.88 417.19,-41.78 417.94,-25.22"/>
<polygon fill="midnightblue" stroke="midnightblue" points="569.47,-143.23 579.92,-141.44 570.64,-136.32 569.47,-143.23"/>
</g>
<!-- Node47 -->
<g id="node47" class="node">
<title>Node47</title>
<g id="a_node47"><a xlink:href="f__ap__game_8cpp.html" target="_top" xlink:title=" ">
<polygon fill="white" stroke="black" points="447.1,-73 447.1,-92 552.1,-92 552.1,-73 447.1,-73"/>
<text text-anchor="middle" x="499.6" y="-80" font-family="Helvetica,sans-Serif" font-size="10.00">src/f/f_ap_game.cpp</text>
</a>
</g>
</g>
<!-- Node46&#45;&gt;Node47 -->
<g id="edge51" class="edge">
<title>Node46&#45;&gt;Node47</title>
<path fill="none" stroke="midnightblue" d="M591.49,-129.8C566.76,-117.34 535.43,-101.56 516.48,-92.01"/>
<polygon fill="midnightblue" stroke="midnightblue" points="590.1,-133.02 600.61,-134.4 593.25,-126.77 590.1,-133.02"/>
</g>
<!-- Node48 -->
<g id="node48" class="node">
<title>Node48</title>
<g id="a_node48"><a xlink:href="f__op__overlap__req_8cpp.html" target="_top" xlink:title=" ">
<polygon fill="white" stroke="black" points="570.6,-67.5 570.6,-97.5 686.6,-97.5 686.6,-67.5 570.6,-67.5"/>
<text text-anchor="start" x="578.6" y="-85.5" font-family="Helvetica,sans-Serif" font-size="10.00">src/f/f_op/f_op_overlap</text>
<text text-anchor="middle" x="628.6" y="-74.5" font-family="Helvetica,sans-Serif" font-size="10.00">_req.cpp</text>
</a>
</g>
</g>
<!-- Node46&#45;&gt;Node48 -->
<g id="edge55" class="edge">
<title>Node46&#45;&gt;Node48</title>
<path fill="none" stroke="midnightblue" d="M628.6,-124.11C628.6,-115.15 628.6,-105.32 628.6,-97.58"/>
<polygon fill="midnightblue" stroke="midnightblue" points="625.1,-124.4 628.6,-134.4 632.1,-124.4 625.1,-124.4"/>
</g>
<!-- Node49 -->
<g id="node49" class="node">
<title>Node49</title>
<g id="a_node49"><a xlink:href="f__op__scene__pause_8cpp.html" target="_top" xlink:title=" ">
<polygon fill="white" stroke="black" points="705.1,-67.5 705.1,-97.5 816.1,-97.5 816.1,-67.5 705.1,-67.5"/>
<text text-anchor="start" x="713.1" y="-85.5" font-family="Helvetica,sans-Serif" font-size="10.00">src/f/f_op/f_op_scene</text>
<text text-anchor="middle" x="760.6" y="-74.5" font-family="Helvetica,sans-Serif" font-size="10.00">_pause.cpp</text>
</a>
</g>
</g>
<!-- Node46&#45;&gt;Node49 -->
<g id="edge56" class="edge">
<title>Node46&#45;&gt;Node49</title>
<path fill="none" stroke="midnightblue" d="M666.47,-129.85C687.34,-119.58 712.82,-107.03 732.01,-97.58"/>
<polygon fill="midnightblue" stroke="midnightblue" points="664.67,-126.84 657.24,-134.4 667.76,-133.12 664.67,-126.84"/>
</g>
<!-- Node50 -->
<g id="node50" class="node">
<title>Node50</title>
<g id="a_node50"><a xlink:href="f__op__actor__mng_8h.html" target="_top" xlink:title=" ">
<polygon fill="white" stroke="red" points="834.1,-67.5 834.1,-97.5 931.1,-97.5 931.1,-67.5 834.1,-67.5"/>
<text text-anchor="start" x="842.1" y="-85.5" font-family="Helvetica,sans-Serif" font-size="10.00">include/f/f_op/f_op</text>
<text text-anchor="middle" x="882.6" y="-74.5" font-family="Helvetica,sans-Serif" font-size="10.00">_actor_mng.h</text>
</a>
</g>
</g>
<!-- Node46&#45;&gt;Node50 -->
<g id="edge58" class="edge">
<title>Node46&#45;&gt;Node50</title>
<path fill="none" stroke="midnightblue" d="M687.09,-133.53C731.63,-122.13 792.22,-106.63 834.09,-95.91"/>
<polygon fill="midnightblue" stroke="midnightblue" points="686.09,-130.17 677.27,-136.04 687.83,-136.96 686.09,-130.17"/>
</g>
<!-- Node50&#45;&gt;Node4 -->
<g id="edge59" class="edge">
<title>Node50&#45;&gt;Node4</title>
<path fill="none" stroke="midnightblue" d="M824.09,-67.28C722.98,-54.3 282.64,-28.44 128.24,-19.56"/>
<polygon fill="midnightblue" stroke="midnightblue" points="823.6,-70.75 833.99,-68.68 824.58,-63.81 823.6,-70.75"/>
</g>
<!-- Node50&#45;&gt;Node5 -->
<g id="edge60" class="edge">
<title>Node50&#45;&gt;Node5</title>
<path fill="none" stroke="midnightblue" d="M889.59,-57.6C892.89,-46.28 896.64,-33.46 899.06,-25.19"/>
<polygon fill="midnightblue" stroke="midnightblue" points="886.17,-56.82 886.72,-67.4 892.89,-58.78 886.17,-56.82"/>
</g>
<!-- Node50&#45;&gt;Node24 -->
<g id="edge61" class="edge">
<title>Node50&#45;&gt;Node24</title>
<path fill="none" stroke="midnightblue" d="M925.34,-63.46C955.1,-50.9 993.42,-34.72 1016.44,-25.01"/>
<polygon fill="midnightblue" stroke="midnightblue" points="923.87,-60.28 916.01,-67.4 926.59,-66.73 923.87,-60.28"/>
</g>
<!-- Node50&#45;&gt;Node25 -->
<g id="edge62" class="edge">
<title>Node50&#45;&gt;Node25</title>
<path fill="none" stroke="midnightblue" d="M941.32,-66.9C1015.76,-50.32 1090.52,-35.77 1139.64,-26.49"/>
<polygon fill="midnightblue" stroke="midnightblue" points="940.29,-63.54 931.29,-69.15 941.82,-70.38 940.29,-63.54"/>
</g>
<!-- Node50&#45;&gt;Node35 -->
<g id="edge64" class="edge">
<title>Node50&#45;&gt;Node35</title>
<path fill="none" stroke="midnightblue" d="M941.31,-67.25C1244.75,-32.2 3117.13,-19.17 3492.96,-16.88"/>
<polygon fill="midnightblue" stroke="midnightblue" points="940.67,-63.81 931.18,-68.51 941.53,-70.75 940.67,-63.81"/>
</g>
<!-- Node50&#45;&gt;Node44 -->
<g id="edge63" class="edge">
<title>Node50&#45;&gt;Node44</title>
<path fill="none" stroke="midnightblue" d="M823.91,-67.02C695.09,-43.44 555.53,-28.79 478.12,-21.62"/>
<polygon fill="midnightblue" stroke="midnightblue" points="823.49,-70.5 833.96,-68.89 824.76,-63.62 823.49,-70.5"/>
</g>
</g>
</svg>
