<?xml version="1.0" encoding="UTF-8" standalone="no"?>
<!DOCTYPE svg PUBLIC "-//W3C//DTD SVG 1.1//EN"
 "http://www.w3.org/Graphics/SVG/1.1/DTD/svg11.dtd">
<!-- Generated by graphviz version 2.44.0 ()
 -->
<!-- Title: include/d/d_bg/d_bg_s/d_bg_s_wtr_chk.h Pages: 1 -->
<!--zoomable 475 -->
<svg id="main" version="1.1" xmlns="http://www.w3.org/2000/svg" xmlns:xlink="http://www.w3.org/1999/xlink" xml:space="preserve" onload="init(evt)">
<style type="text/css"><![CDATA[
.edge:hover path { stroke: red; }
.edge:hover polygon { stroke: red; fill: red; }
]]></style>
<script type="text/javascript"><![CDATA[
var edges = document.getElementsByTagName('g');
if (edges && edges.length) {
  for (var i=0;i<edges.length;i++) {
    if (edges[i].id.substr(0,4)=='edge') {
      edges[i].setAttribute('class','edge');
    }
  }
}
]]></script>
        <defs>
                <circle id="rim" cx="0" cy="0" r="7"/>
                <circle id="rim2" cx="0" cy="0" r="3.5"/>
                <g id="zoomPlus">
                        <use xlink:href="#rim" fill="#404040">
                                <set attributeName="fill" to="#808080" begin="zoomplus.mouseover" end="zoomplus.mouseout"/>
                        </use>
                        <path d="M-4,0h8M0,-4v8" fill="none" stroke="white" stroke-width="1.5" pointer-events="none"/>
                </g>
                <g id="zoomMin">
                        <use xlink:href="#rim" fill="#404040">
                                <set attributeName="fill" to="#808080" begin="zoomminus.mouseover" end="zoomminus.mouseout"/>
                        </use>
                        <path d="M-4,0h8" fill="none" stroke="white" stroke-width="1.5" pointer-events="none"/>
                </g>
                <g id="dirArrow">
                        <path fill="none" stroke="white" stroke-width="1.5" d="M0,-3.0v7 M-2.5,-0.5L0,-3.0L2.5,-0.5"/>
                </g>
               <g id="resetDef">
                       <use xlink:href="#rim2" fill="#404040">
                               <set attributeName="fill" to="#808080" begin="reset.mouseover" end="reset.mouseout"/>
                       </use>
               </g>
        </defs>

<script type="text/javascript">
var viewWidth = 552;
var viewHeight = 475;
var sectionId = 'dynsection-0';
</script>
<script xlink:href="svgpan.js"/>
<svg id="graph" class="graph">
<g id="viewport">
<title>include/d/d_bg/d_bg_s/d_bg_s_wtr_chk.h</title>
<polygon fill="white" stroke="transparent" points="-4,4 -4,-471 547.5,-471 547.5,4 -4,4"/>
<!-- Node1 -->
<g id="node1" class="node">
<title>Node1</title>
<g id="a_node1"><a xlink:title=" ">
<polygon fill="#bfbfbf" stroke="black" points="41,-436.5 41,-466.5 150,-466.5 150,-436.5 41,-436.5"/>
<text text-anchor="start" x="49" y="-454.5" font-family="Helvetica,sans-Serif" font-size="10.00">include/d/d_bg/d_bg</text>
<text text-anchor="middle" x="95.5" y="-443.5" font-family="Helvetica,sans-Serif" font-size="10.00">_s/d_bg_s_wtr_chk.h</text>
</a>
</g>
</g>
<!-- Node2 -->
<g id="node2" class="node">
<title>Node2</title>
<g id="a_node2"><a xlink:href="d__bg__s__spl__grp__chk_8h.html" target="_top" xlink:title=" ">
<polygon fill="white" stroke="black" points="213.5,-369.5 213.5,-399.5 317.5,-399.5 317.5,-369.5 213.5,-369.5"/>
<text text-anchor="start" x="221.5" y="-387.5" font-family="Helvetica,sans-Serif" font-size="10.00">d/d_bg/d_bg_s/d_bg</text>
<text text-anchor="middle" x="265.5" y="-376.5" font-family="Helvetica,sans-Serif" font-size="10.00">_s_spl_grp_chk.h</text>
</a>
</g>
</g>
<!-- Node1&#45;&gt;Node2 -->
<g id="edge1" class="edge">
<title>Node1&#45;&gt;Node2</title>
<path fill="none" stroke="midnightblue" d="M132.39,-436.4C157.89,-426.64 192.02,-413.59 219.33,-403.15"/>
<polygon fill="midnightblue" stroke="midnightblue" points="220.59,-406.42 228.68,-399.58 218.09,-399.88 220.59,-406.42"/>
</g>
<!-- Node7 -->
<g id="node7" class="node">
<title>Node7</title>
<g id="a_node7"><a xlink:href="global_8h.html" target="_top" xlink:title=" ">
<polygon fill="white" stroke="black" points="175.5,-174 175.5,-193 225.5,-193 225.5,-174 175.5,-174"/>
<text text-anchor="middle" x="200.5" y="-181" font-family="Helvetica,sans-Serif" font-size="10.00">global.h</text>
</a>
</g>
</g>
<!-- Node1&#45;&gt;Node7 -->
<g id="edge31" class="edge">
<title>Node1&#45;&gt;Node7</title>
<path fill="none" stroke="midnightblue" d="M83.3,-436.44C52.99,-399.78 -19.87,-299.61 28.5,-235 44.89,-213.1 119.89,-197.46 165.27,-189.81"/>
<polygon fill="midnightblue" stroke="midnightblue" points="165.99,-193.24 175.29,-188.17 164.85,-186.34 165.99,-193.24"/>
</g>
<!-- Node3 -->
<g id="node3" class="node">
<title>Node3</title>
<g id="a_node3"><a xlink:href="c__bg__s__chk_8h.html" target="_top" xlink:title=" ">
<polygon fill="white" stroke="black" points="407.5,-241 407.5,-260 543.5,-260 543.5,-241 407.5,-241"/>
<text text-anchor="middle" x="475.5" y="-248" font-family="Helvetica,sans-Serif" font-size="10.00">SComponent/c_bg_s_chk.h</text>
</a>
</g>
</g>
<!-- Node2&#45;&gt;Node3 -->
<g id="edge2" class="edge">
<title>Node2&#45;&gt;Node3</title>
<path fill="none" stroke="midnightblue" d="M317.79,-370.76C344.61,-362.66 376.92,-350.38 402.5,-333 428.19,-315.55 450.84,-287.14 463.86,-268.9"/>
<polygon fill="midnightblue" stroke="midnightblue" points="466.93,-270.6 469.75,-260.39 461.18,-266.62 466.93,-270.6"/>
</g>
<!-- Node2&#45;&gt;Node7 -->
<g id="edge30" class="edge">
<title>Node2&#45;&gt;Node7</title>
<path fill="none" stroke="midnightblue" d="M256.75,-369.35C250.93,-359.46 243.47,-345.79 238.5,-333 220.96,-287.87 209.16,-231.89 203.8,-203.27"/>
<polygon fill="midnightblue" stroke="midnightblue" points="207.18,-202.31 201.95,-193.1 200.29,-203.56 207.18,-202.31"/>
</g>
<!-- Node13 -->
<g id="node13" class="node">
<title>Node13</title>
<g id="a_node13"><a xlink:href="c__bg__s__poly__info_8h.html" target="_top" xlink:title=" ">
<polygon fill="white" stroke="black" points="247.5,-302.5 247.5,-332.5 377.5,-332.5 377.5,-302.5 247.5,-302.5"/>
<text text-anchor="start" x="255.5" y="-320.5" font-family="Helvetica,sans-Serif" font-size="10.00">SComponent/c_bg_s_poly</text>
<text text-anchor="middle" x="312.5" y="-309.5" font-family="Helvetica,sans-Serif" font-size="10.00">_info.h</text>
</a>
</g>
</g>
<!-- Node2&#45;&gt;Node13 -->
<g id="edge18" class="edge">
<title>Node2&#45;&gt;Node13</title>
<path fill="none" stroke="midnightblue" d="M275.7,-369.4C281.73,-361.05 289.52,-350.29 296.37,-340.81"/>
<polygon fill="midnightblue" stroke="midnightblue" points="299.3,-342.73 302.32,-332.58 293.63,-338.63 299.3,-342.73"/>
</g>
<!-- Node14 -->
<g id="node14" class="node">
<title>Node14</title>
<g id="a_node14"><a xlink:href="c__xyz_8h.html" target="_top" xlink:title=" ">
<polygon fill="white" stroke="black" points="63,-308 63,-327 170,-327 170,-308 63,-308"/>
<text text-anchor="middle" x="116.5" y="-315" font-family="Helvetica,sans-Serif" font-size="10.00">SComponent/c_xyz.h</text>
</a>
</g>
</g>
<!-- Node2&#45;&gt;Node14 -->
<g id="edge20" class="edge">
<title>Node2&#45;&gt;Node14</title>
<path fill="none" stroke="midnightblue" d="M233.17,-369.4C207.03,-357.99 170.55,-342.08 145.38,-331.1"/>
<polygon fill="midnightblue" stroke="midnightblue" points="146.57,-327.8 136,-327.01 143.77,-334.21 146.57,-327.8"/>
</g>
<!-- Node17 -->
<g id="node17" class="node">
<title>Node17</title>
<g id="a_node17"><a xlink:href="d__bg__s__chk_8h.html" target="_top" xlink:title=" ">
<polygon fill="white" stroke="black" points="285.5,-235.5 285.5,-265.5 389.5,-265.5 389.5,-235.5 285.5,-235.5"/>
<text text-anchor="start" x="293.5" y="-253.5" font-family="Helvetica,sans-Serif" font-size="10.00">d/d_bg/d_bg_s/d_bg</text>
<text text-anchor="middle" x="337.5" y="-242.5" font-family="Helvetica,sans-Serif" font-size="10.00">_s_chk.h</text>
</a>
</g>
</g>
<!-- Node2&#45;&gt;Node17 -->
<g id="edge26" class="edge">
<title>Node2&#45;&gt;Node17</title>
<path fill="none" stroke="midnightblue" d="M317.59,-375.47C342.9,-368.66 371.1,-356.11 386.5,-333 399.96,-312.8 381.8,-288.93 363.9,-272.26"/>
<polygon fill="midnightblue" stroke="midnightblue" points="366.16,-269.58 356.34,-265.59 361.52,-274.83 366.16,-269.58"/>
</g>
<!-- Node4 -->
<g id="node4" class="node">
<title>Node4</title>
<g id="a_node4"><a xlink:href="d__bg__s__grp__pass__chk_8h.html" target="_top" xlink:title=" ">
<polygon fill="white" stroke="black" points="293.5,-168.5 293.5,-198.5 397.5,-198.5 397.5,-168.5 293.5,-168.5"/>
<text text-anchor="start" x="301.5" y="-186.5" font-family="Helvetica,sans-Serif" font-size="10.00">d/d_bg/d_bg_s/d_bg</text>
<text text-anchor="middle" x="345.5" y="-175.5" font-family="Helvetica,sans-Serif" font-size="10.00">_s_grp_pass_chk.h</text>
</a>
</g>
</g>
<!-- Node3&#45;&gt;Node4 -->
<g id="edge3" class="edge">
<title>Node3&#45;&gt;Node4</title>
<path fill="none" stroke="midnightblue" d="M458.24,-240.87C439.13,-231.31 407.75,-215.63 382.95,-203.22"/>
<polygon fill="midnightblue" stroke="midnightblue" points="384.31,-199.99 373.8,-198.65 381.18,-206.25 384.31,-199.99"/>
</g>
<!-- Node6 -->
<g id="node6" class="node">
<title>Node6</title>
<g id="a_node6"><a xlink:href="d__bg__s__poly__pass__chk_8h.html" target="_top" xlink:title=" ">
<polygon fill="white" stroke="black" points="415.5,-168.5 415.5,-198.5 519.5,-198.5 519.5,-168.5 415.5,-168.5"/>
<text text-anchor="start" x="423.5" y="-186.5" font-family="Helvetica,sans-Serif" font-size="10.00">d/d_bg/d_bg_s/d_bg</text>
<text text-anchor="middle" x="467.5" y="-175.5" font-family="Helvetica,sans-Serif" font-size="10.00">_s_poly_pass_chk.h</text>
</a>
</g>
</g>
<!-- Node3&#45;&gt;Node6 -->
<g id="edge5" class="edge">
<title>Node3&#45;&gt;Node6</title>
<path fill="none" stroke="midnightblue" d="M474.42,-240.73C473.41,-232.54 471.86,-219.92 470.48,-208.71"/>
<polygon fill="midnightblue" stroke="midnightblue" points="473.93,-208.09 469.23,-198.59 466.98,-208.94 473.93,-208.09"/>
</g>
<!-- Node3&#45;&gt;Node7 -->
<g id="edge7" class="edge">
<title>Node3&#45;&gt;Node7</title>
<path fill="none" stroke="midnightblue" d="M439.27,-240.94C386.21,-228.4 288.03,-205.19 235.62,-192.8"/>
<polygon fill="midnightblue" stroke="midnightblue" points="236.31,-189.37 225.77,-190.47 234.7,-196.18 236.31,-189.37"/>
</g>
<!-- Node5 -->
<g id="node5" class="node">
<title>Node5</title>
<g id="a_node5"><a xlink:href="types_8h.html" target="_top" xlink:title=" ">
<polygon fill="white" stroke="black" points="190,-0.5 190,-19.5 271,-19.5 271,-0.5 190,-0.5"/>
<text text-anchor="middle" x="230.5" y="-7.5" font-family="Helvetica,sans-Serif" font-size="10.00">dolphin/types.h</text>
</a>
</g>
</g>
<!-- Node4&#45;&gt;Node5 -->
<g id="edge4" class="edge">
<title>Node4&#45;&gt;Node5</title>
<path fill="none" stroke="midnightblue" d="M350.86,-168.24C355.5,-153.85 360.7,-131.08 355.5,-112 347.9,-84.13 343.7,-75.62 322.5,-56 306.86,-41.53 285.71,-30.75 267.63,-23.37"/>
<polygon fill="midnightblue" stroke="midnightblue" points="268.55,-19.97 257.96,-19.62 266.02,-26.5 268.55,-19.97"/>
</g>
<!-- Node6&#45;&gt;Node5 -->
<g id="edge6" class="edge">
<title>Node6&#45;&gt;Node5</title>
<path fill="none" stroke="midnightblue" d="M457.28,-168.43C438.03,-142.84 393.98,-88.34 345.5,-56 323.2,-41.13 295.26,-30.05 272.51,-22.61"/>
<polygon fill="midnightblue" stroke="midnightblue" points="273.37,-19.21 262.78,-19.54 271.26,-25.89 273.37,-19.21"/>
</g>
<!-- Node7&#45;&gt;Node5 -->
<g id="edge8" class="edge">
<title>Node7&#45;&gt;Node5</title>
<path fill="none" stroke="midnightblue" d="M175.37,-175.74C154.43,-168.63 125.92,-155.17 112.5,-132 108.05,-124.31 110.34,-120.62 112.5,-112 119.37,-84.61 122.34,-75.77 142.5,-56 157.28,-41.5 177.68,-30.67 195.11,-23.28"/>
<polygon fill="midnightblue" stroke="midnightblue" points="196.47,-26.5 204.44,-19.52 193.85,-20.01 196.47,-26.5"/>
</g>
<!-- Node8 -->
<g id="node8" class="node">
<title>Node8</title>
<g id="a_node8"><a xlink:href="AR_8h.html" target="_top" xlink:title=" ">
<polygon fill="white" stroke="black" points="121,-112.5 121,-131.5 170,-131.5 170,-112.5 121,-112.5"/>
<text text-anchor="middle" x="145.5" y="-119.5" font-family="Helvetica,sans-Serif" font-size="10.00">ar/AR.h</text>
</a>
</g>
</g>
<!-- Node7&#45;&gt;Node8 -->
<g id="edge9" class="edge">
<title>Node7&#45;&gt;Node8</title>
<path fill="none" stroke="midnightblue" d="M192.62,-173.98C184.21,-164.87 170.68,-150.24 160.27,-138.98"/>
<polygon fill="midnightblue" stroke="midnightblue" points="162.72,-136.48 153.37,-131.51 157.58,-141.23 162.72,-136.48"/>
</g>
<!-- Node9 -->
<g id="node9" class="node">
<title>Node9</title>
<g id="a_node9"><a xlink:href="ARQ_8h.html" target="_top" xlink:title=" ">
<polygon fill="white" stroke="black" points="164.5,-56.5 164.5,-75.5 220.5,-75.5 220.5,-56.5 164.5,-56.5"/>
<text text-anchor="middle" x="192.5" y="-63.5" font-family="Helvetica,sans-Serif" font-size="10.00">ar/ARQ.h</text>
</a>
</g>
</g>
<!-- Node7&#45;&gt;Node9 -->
<g id="edge11" class="edge">
<title>Node7&#45;&gt;Node9</title>
<path fill="none" stroke="midnightblue" d="M199.9,-173.82C198.61,-155.26 195.57,-111.34 193.81,-85.97"/>
<polygon fill="midnightblue" stroke="midnightblue" points="197.29,-85.52 193.11,-75.78 190.31,-86 197.29,-85.52"/>
</g>
<!-- Node10 -->
<g id="node10" class="node">
<title>Node10</title>
<g id="a_node10"><a xlink:href="mwcc_8h.html" target="_top" xlink:title=" ">
<polygon fill="white" stroke="black" points="296.5,-112.5 296.5,-131.5 346.5,-131.5 346.5,-112.5 296.5,-112.5"/>
<text text-anchor="middle" x="321.5" y="-119.5" font-family="Helvetica,sans-Serif" font-size="10.00">mwcc.h</text>
</a>
</g>
</g>
<!-- Node7&#45;&gt;Node10 -->
<g id="edge13" class="edge">
<title>Node7&#45;&gt;Node10</title>
<path fill="none" stroke="midnightblue" d="M217.84,-173.98C238.05,-164.03 271.69,-147.49 295.14,-135.96"/>
<polygon fill="midnightblue" stroke="midnightblue" points="296.77,-139.06 304.2,-131.51 293.68,-132.78 296.77,-139.06"/>
</g>
<!-- Node11 -->
<g id="node11" class="node">
<title>Node11</title>
<g id="a_node11"><a xlink:href="OS_8h.html" target="_top" xlink:title=" ">
<polygon fill="white" stroke="black" points="226.5,-112.5 226.5,-131.5 278.5,-131.5 278.5,-112.5 226.5,-112.5"/>
<text text-anchor="middle" x="252.5" y="-119.5" font-family="Helvetica,sans-Serif" font-size="10.00">os/OS.h</text>
</a>
</g>
</g>
<!-- Node7&#45;&gt;Node11 -->
<g id="edge14" class="edge">
<title>Node7&#45;&gt;Node11</title>
<path fill="none" stroke="midnightblue" d="M207.95,-173.98C215.83,-164.96 228.44,-150.52 238.24,-139.31"/>
<polygon fill="midnightblue" stroke="midnightblue" points="241.12,-141.34 245.06,-131.51 235.85,-136.74 241.12,-141.34"/>
</g>
<!-- Node8&#45;&gt;Node5 -->
<g id="edge10" class="edge">
<title>Node8&#45;&gt;Node5</title>
<path fill="none" stroke="midnightblue" d="M144.62,-112.17C143.75,-98.83 143.91,-73.25 155.5,-56 165.15,-41.63 181.09,-31.13 195.79,-23.91"/>
<polygon fill="midnightblue" stroke="midnightblue" points="197.55,-26.96 205.2,-19.63 194.65,-20.58 197.55,-26.96"/>
</g>
<!-- Node9&#45;&gt;Node5 -->
<g id="edge12" class="edge">
<title>Node9&#45;&gt;Node5</title>
<path fill="none" stroke="midnightblue" d="M198.77,-56.08C204.14,-48.46 212.02,-37.26 218.58,-27.94"/>
<polygon fill="midnightblue" stroke="midnightblue" points="221.45,-29.94 224.34,-19.75 215.72,-25.91 221.45,-29.94"/>
</g>
<!-- Node11&#45;&gt;Node5 -->
<g id="edge15" class="edge">
<title>Node11&#45;&gt;Node5</title>
<path fill="none" stroke="midnightblue" d="M269.4,-112.33C289.95,-100.57 320.38,-78.44 307.5,-56 298.88,-40.99 283.11,-30.5 268.07,-23.46"/>
<polygon fill="midnightblue" stroke="midnightblue" points="269.44,-20.24 258.87,-19.51 266.68,-26.67 269.44,-20.24"/>
</g>
<!-- Node12 -->
<g id="node12" class="node">
<title>Node12</title>
<g id="a_node12"><a xlink:href="dvd_8h.html" target="_top" xlink:title=" ">
<polygon fill="white" stroke="black" points="239,-56.5 239,-75.5 298,-75.5 298,-56.5 239,-56.5"/>
<text text-anchor="middle" x="268.5" y="-63.5" font-family="Helvetica,sans-Serif" font-size="10.00">dvd/dvd.h</text>
</a>
</g>
</g>
<!-- Node11&#45;&gt;Node12 -->
<g id="edge16" class="edge">
<title>Node11&#45;&gt;Node12</title>
<path fill="none" stroke="midnightblue" d="M255.14,-112.08C257.29,-104.85 260.38,-94.41 263.05,-85.4"/>
<polygon fill="midnightblue" stroke="midnightblue" points="266.42,-86.33 265.91,-75.75 259.71,-84.34 266.42,-86.33"/>
</g>
<!-- Node12&#45;&gt;Node5 -->
<g id="edge17" class="edge">
<title>Node12&#45;&gt;Node5</title>
<path fill="none" stroke="midnightblue" d="M262.23,-56.08C256.86,-48.46 248.98,-37.26 242.42,-27.94"/>
<polygon fill="midnightblue" stroke="midnightblue" points="245.28,-25.91 236.66,-19.75 239.55,-29.94 245.28,-25.91"/>
</g>
<!-- Node13&#45;&gt;Node7 -->
<g id="edge19" class="edge">
<title>Node13&#45;&gt;Node7</title>
<path fill="none" stroke="midnightblue" d="M300.51,-302.37C279.63,-277.76 236.67,-227.12 214.47,-200.96"/>
<polygon fill="midnightblue" stroke="midnightblue" points="216.93,-198.46 207.79,-193.1 211.6,-202.99 216.93,-198.46"/>
</g>
<!-- Node14&#45;&gt;Node7 -->
<g id="edge23" class="edge">
<title>Node14&#45;&gt;Node7</title>
<path fill="none" stroke="midnightblue" d="M125.88,-307.89C135.87,-298.36 151.72,-282.19 162.5,-266 175.99,-245.75 187.14,-219.95 193.8,-202.86"/>
<polygon fill="midnightblue" stroke="midnightblue" points="197.25,-203.63 197.5,-193.04 190.7,-201.16 197.25,-203.63"/>
</g>
<!-- Node15 -->
<g id="node15" class="node">
<title>Node15</title>
<g id="a_node15"><a xlink:href="c__math_8h.html" target="_top" xlink:title=" ">
<polygon fill="white" stroke="black" points="37.5,-241 37.5,-260 153.5,-260 153.5,-241 37.5,-241"/>
<text text-anchor="middle" x="95.5" y="-248" font-family="Helvetica,sans-Serif" font-size="10.00">SComponent/c_math.h</text>
</a>
</g>
</g>
<!-- Node14&#45;&gt;Node15 -->
<g id="edge21" class="edge">
<title>Node14&#45;&gt;Node15</title>
<path fill="none" stroke="midnightblue" d="M113.67,-307.73C110.55,-298.09 105.45,-282.3 101.45,-269.91"/>
<polygon fill="midnightblue" stroke="midnightblue" points="104.69,-268.57 98.29,-260.13 98.03,-270.72 104.69,-268.57"/>
</g>
<!-- Node16 -->
<g id="node16" class="node">
<title>Node16</title>
<g id="a_node16"><a xlink:href="mtx__vec_8h.html" target="_top" xlink:title=" ">
<polygon fill="white" stroke="black" points="0,-56.5 0,-75.5 61,-75.5 61,-56.5 0,-56.5"/>
<text text-anchor="middle" x="30.5" y="-63.5" font-family="Helvetica,sans-Serif" font-size="10.00">mtx_vec.h</text>
</a>
</g>
</g>
<!-- Node14&#45;&gt;Node16 -->
<g id="edge24" class="edge">
<title>Node14&#45;&gt;Node16</title>
<path fill="none" stroke="midnightblue" d="M86.28,-307.94C66.02,-300.44 40.86,-287.34 28.5,-266 -5.24,-207.74 13.54,-122.89 24.44,-85.67"/>
<polygon fill="midnightblue" stroke="midnightblue" points="27.9,-86.32 27.5,-75.73 21.21,-84.26 27.9,-86.32"/>
</g>
<!-- Node15&#45;&gt;Node7 -->
<g id="edge22" class="edge">
<title>Node15&#45;&gt;Node7</title>
<path fill="none" stroke="midnightblue" d="M109.66,-240.73C127.21,-229.87 157.34,-211.22 178.06,-198.39"/>
<polygon fill="midnightblue" stroke="midnightblue" points="179.9,-201.37 186.56,-193.13 176.22,-195.41 179.9,-201.37"/>
</g>
<!-- Node16&#45;&gt;Node5 -->
<g id="edge25" class="edge">
<title>Node16&#45;&gt;Node5</title>
<path fill="none" stroke="midnightblue" d="M61.31,-56.68C95.61,-47.42 151.21,-32.41 189.25,-22.14"/>
<polygon fill="midnightblue" stroke="midnightblue" points="190.25,-25.49 198.99,-19.51 188.43,-18.73 190.25,-25.49"/>
</g>
<!-- Node17&#45;&gt;Node4 -->
<g id="edge27" class="edge">
<title>Node17&#45;&gt;Node4</title>
<path fill="none" stroke="midnightblue" d="M339.24,-235.4C340.2,-227.56 341.43,-217.6 342.54,-208.57"/>
<polygon fill="midnightblue" stroke="midnightblue" points="346.02,-208.93 343.77,-198.58 339.07,-208.07 346.02,-208.93"/>
</g>
<!-- Node17&#45;&gt;Node6 -->
<g id="edge28" class="edge">
<title>Node17&#45;&gt;Node6</title>
<path fill="none" stroke="midnightblue" d="M365.71,-235.4C384.62,-225.94 409.72,-213.39 430.27,-203.12"/>
<polygon fill="midnightblue" stroke="midnightblue" points="431.97,-206.18 439.35,-198.58 428.84,-199.92 431.97,-206.18"/>
</g>
<!-- Node17&#45;&gt;Node7 -->
<g id="edge29" class="edge">
<title>Node17&#45;&gt;Node7</title>
<path fill="none" stroke="midnightblue" d="M307.77,-235.4C283.95,-224.09 250.79,-208.36 227.67,-197.39"/>
<polygon fill="midnightblue" stroke="midnightblue" points="228.97,-194.13 218.43,-193.01 225.96,-200.46 228.97,-194.13"/>
</g>
</g>
</svg>
        <g id="navigator" transform="translate(0 0)" fill="#404254">
                <rect fill="#f2f5e9" fill-opacity="0.5" stroke="#606060" stroke-width=".5" x="0" y="0" width="60" height="60"/>
                <use id="zoomplus" xlink:href="#zoomPlus" x="17" y="9" onmousedown="handleZoom(evt,'in')"/>
                <use id="zoomminus" xlink:href="#zoomMin" x="42" y="9" onmousedown="handleZoom(evt,'out')"/>
                <use id="reset" xlink:href="#resetDef" x="30" y="36" onmousedown="handleReset()"/>
                <g id="arrowUp" xlink:href="#dirArrow" transform="translate(30 24)" onmousedown="handlePan(0,-1)">
                  <use xlink:href="#rim" fill="#404040">
                        <set attributeName="fill" to="#808080" begin="arrowUp.mouseover" end="arrowUp.mouseout"/>
                  </use>
                  <path fill="none" stroke="white" stroke-width="1.5" d="M0,-3.0v7 M-2.5,-0.5L0,-3.0L2.5,-0.5"/>
                </g>
                <g id="arrowRight" xlink:href="#dirArrow" transform="rotate(90) translate(36 -43)" onmousedown="handlePan(1,0)">
                  <use xlink:href="#rim" fill="#404040">
                        <set attributeName="fill" to="#808080" begin="arrowRight.mouseover" end="arrowRight.mouseout"/>
                  </use>
                  <path fill="none" stroke="white" stroke-width="1.5" d="M0,-3.0v7 M-2.5,-0.5L0,-3.0L2.5,-0.5"/>
                </g>
                <g id="arrowDown" xlink:href="#dirArrow" transform="rotate(180) translate(-30 -48)" onmousedown="handlePan(0,1)">
                  <use xlink:href="#rim" fill="#404040">
                        <set attributeName="fill" to="#808080" begin="arrowDown.mouseover" end="arrowDown.mouseout"/>
                  </use>
                  <path fill="none" stroke="white" stroke-width="1.5" d="M0,-3.0v7 M-2.5,-0.5L0,-3.0L2.5,-0.5"/>
                </g>
                <g id="arrowLeft" xlink:href="#dirArrow" transform="rotate(270) translate(-36 17)" onmousedown="handlePan(-1,0)">
                  <use xlink:href="#rim" fill="#404040">
                        <set attributeName="fill" to="#808080" begin="arrowLeft.mouseover" end="arrowLeft.mouseout"/>
                  </use>
                  <path fill="none" stroke="white" stroke-width="1.5" d="M0,-3.0v7 M-2.5,-0.5L0,-3.0L2.5,-0.5"/>
                </g>
        </g>
        <svg viewBox="0 0 15 15" width="100%" height="30px" preserveAspectRatio="xMaxYMin meet">
         <g id="arrow_out" transform="scale(0.3 0.3)">
          <a xlink:href="d__bg__s__wtr__chk_8h__incl_org.svg" target="_base">
           <rect id="button" ry="5" rx="5" y="6" x="6" height="38" width="38"
                fill="#f2f5e9" fill-opacity="0.5" stroke="#606060" stroke-width="1.0"/>
           <path id="arrow"
             d="M 11.500037,31.436501 C 11.940474,20.09759 22.043105,11.32322 32.158766,21.979434 L 37.068811,17.246167 C 37.068811,17.246167 37.088388,32 37.088388,32 L 22.160133,31.978069 C 22.160133,31.978069 26.997745,27.140456 26.997745,27.140456 C 18.528582,18.264221 13.291696,25.230495 11.500037,31.436501 z"
             style="fill:#404040;"/>
          </a>
         </g>
        </svg>
</svg>
