<?xml version="1.0" encoding="UTF-8" standalone="no"?>
<!DOCTYPE svg PUBLIC "-//W3C//DTD SVG 1.1//EN"
 "http://www.w3.org/Graphics/SVG/1.1/DTD/svg11.dtd">
<!-- Generated by graphviz version 2.44.0 ()
 -->
<!-- Title: include/d/d_bg/d_bg_s/d_bg_s_grp_pass_chk.h Pages: 1 -->
<svg width="806pt" height="497pt"
 viewBox="0.00 0.00 805.50 497.00" xmlns="http://www.w3.org/2000/svg" xmlns:xlink="http://www.w3.org/1999/xlink">
<g id="graph0" class="graph" transform="scale(1 1) rotate(0) translate(4 493)">
<title>include/d/d_bg/d_bg_s/d_bg_s_grp_pass_chk.h</title>
<polygon fill="white" stroke="transparent" points="-4,4 -4,-493 801.5,-493 801.5,4 -4,4"/>
<!-- Node1 -->
<g id="node1" class="node">
<title>Node1</title>
<g id="a_node1"><a xlink:title=" ">
<polygon fill="#bfbfbf" stroke="black" points="350,-458.5 350,-488.5 485,-488.5 485,-458.5 350,-458.5"/>
<text text-anchor="start" x="358" y="-476.5" font-family="Helvetica,sans-Serif" font-size="10.00">include/d/d_bg/d_bg</text>
<text text-anchor="middle" x="417.5" y="-465.5" font-family="Helvetica,sans-Serif" font-size="10.00">_s/d_bg_s_grp_pass_chk.h</text>
</a>
</g>
</g>
<!-- Node2 -->
<g id="node2" class="node">
<title>Node2</title>
<g id="a_node2"><a xlink:href="d__bg__s__chk_8h.html" target="_top" xlink:title=" ">
<polygon fill="white" stroke="black" points="303.5,-391.5 303.5,-421.5 407.5,-421.5 407.5,-391.5 303.5,-391.5"/>
<text text-anchor="start" x="311.5" y="-409.5" font-family="Helvetica,sans-Serif" font-size="10.00">include/d/d_bg/d_bg</text>
<text text-anchor="middle" x="355.5" y="-398.5" font-family="Helvetica,sans-Serif" font-size="10.00">_s/d_bg_s_chk.h</text>
</a>
</g>
</g>
<!-- Node1&#45;&gt;Node2 -->
<g id="edge1" class="edge">
<title>Node1&#45;&gt;Node2</title>
<path fill="none" stroke="midnightblue" d="M397.02,-451.02C387.78,-441.34 377.13,-430.17 368.93,-421.58"/>
<polygon fill="midnightblue" stroke="midnightblue" points="394.61,-453.58 404.05,-458.4 399.68,-448.74 394.61,-453.58"/>
</g>
<!-- Node13 -->
<g id="node13" class="node">
<title>Node13</title>
<g id="a_node13"><a xlink:href="c__bg__s__chk_8h.html" target="_top" xlink:title=" ">
<polygon fill="white" stroke="black" points="426,-391.5 426,-421.5 533,-421.5 533,-391.5 426,-391.5"/>
<text text-anchor="start" x="434" y="-409.5" font-family="Helvetica,sans-Serif" font-size="10.00">include/SComponent</text>
<text text-anchor="middle" x="479.5" y="-398.5" font-family="Helvetica,sans-Serif" font-size="10.00">/c_bg_s_chk.h</text>
</a>
</g>
</g>
<!-- Node1&#45;&gt;Node13 -->
<g id="edge16" class="edge">
<title>Node1&#45;&gt;Node13</title>
<path fill="none" stroke="midnightblue" d="M437.98,-451.02C447.22,-441.34 457.87,-430.17 466.07,-421.58"/>
<polygon fill="midnightblue" stroke="midnightblue" points="435.32,-448.74 430.95,-458.4 440.39,-453.58 435.32,-448.74"/>
</g>
<!-- Node3 -->
<g id="node3" class="node">
<title>Node3</title>
<g id="a_node3"><a xlink:href="d__bg__s__gnd__chk_8h.html" target="_top" xlink:title=" ">
<polygon fill="white" stroke="black" points="0,-257.5 0,-287.5 111,-287.5 111,-257.5 0,-257.5"/>
<text text-anchor="start" x="8" y="-275.5" font-family="Helvetica,sans-Serif" font-size="10.00">include/d/d_bg/d_bg</text>
<text text-anchor="middle" x="55.5" y="-264.5" font-family="Helvetica,sans-Serif" font-size="10.00">_s/d_bg_s_gnd_chk.h</text>
</a>
</g>
</g>
<!-- Node2&#45;&gt;Node3 -->
<g id="edge2" class="edge">
<title>Node2&#45;&gt;Node3</title>
<path fill="none" stroke="midnightblue" d="M293.48,-390.21C262.24,-381.56 224.16,-369.56 191.5,-355 148,-335.61 101.19,-305.21 75.4,-287.53"/>
<polygon fill="midnightblue" stroke="midnightblue" points="292.8,-393.65 303.37,-392.9 294.63,-386.9 292.8,-393.65"/>
</g>
<!-- Node9 -->
<g id="node9" class="node">
<title>Node9</title>
<g id="a_node9"><a xlink:href="d__bg__s__lin__chk_8h.html" target="_top" xlink:title=" ">
<polygon fill="white" stroke="black" points="539,-257.5 539,-287.5 644,-287.5 644,-257.5 539,-257.5"/>
<text text-anchor="start" x="547" y="-275.5" font-family="Helvetica,sans-Serif" font-size="10.00">include/d/d_bg/d_bg</text>
<text text-anchor="middle" x="591.5" y="-264.5" font-family="Helvetica,sans-Serif" font-size="10.00">_s/d_bg_s_lin_chk.h</text>
</a>
</g>
</g>
<!-- Node2&#45;&gt;Node9 -->
<g id="edge9" class="edge">
<title>Node2&#45;&gt;Node9</title>
<path fill="none" stroke="midnightblue" d="M413.88,-388.25C438.35,-379.86 466.61,-368.63 490.5,-355 492.79,-353.7 545.63,-310.81 573.94,-287.79"/>
<polygon fill="midnightblue" stroke="midnightblue" points="412.72,-384.94 404.35,-391.44 414.94,-391.58 412.72,-384.94"/>
</g>
<!-- Node10 -->
<g id="node10" class="node">
<title>Node10</title>
<g id="a_node10"><a xlink:href="d__bg__s__roof__chk_8h.html" target="_top" xlink:title=" ">
<polygon fill="white" stroke="black" points="129.5,-257.5 129.5,-287.5 241.5,-287.5 241.5,-257.5 129.5,-257.5"/>
<text text-anchor="start" x="137.5" y="-275.5" font-family="Helvetica,sans-Serif" font-size="10.00">include/d/d_bg/d_bg</text>
<text text-anchor="middle" x="185.5" y="-264.5" font-family="Helvetica,sans-Serif" font-size="10.00">_s/d_bg_s_roof_chk.h</text>
</a>
</g>
</g>
<!-- Node2&#45;&gt;Node10 -->
<g id="edge11" class="edge">
<title>Node2&#45;&gt;Node10</title>
<path fill="none" stroke="midnightblue" d="M293.22,-395.95C265.65,-388.83 234.72,-376.45 213.5,-355 195.19,-336.49 188.84,-305.49 186.64,-287.53"/>
<polygon fill="midnightblue" stroke="midnightblue" points="292.66,-399.41 303.2,-398.34 294.3,-392.6 292.66,-399.41"/>
</g>
<!-- Node11 -->
<g id="node11" class="node">
<title>Node11</title>
<g id="a_node11"><a xlink:href="d__bg__s__spl__grp__chk_8h.html" target="_top" xlink:title=" ">
<polygon fill="white" stroke="black" points="354,-324.5 354,-354.5 481,-354.5 481,-324.5 354,-324.5"/>
<text text-anchor="start" x="362" y="-342.5" font-family="Helvetica,sans-Serif" font-size="10.00">include/d/d_bg/d_bg</text>
<text text-anchor="middle" x="417.5" y="-331.5" font-family="Helvetica,sans-Serif" font-size="10.00">_s/d_bg_s_spl_grp_chk.h</text>
</a>
</g>
</g>
<!-- Node2&#45;&gt;Node11 -->
<g id="edge13" class="edge">
<title>Node2&#45;&gt;Node11</title>
<path fill="none" stroke="midnightblue" d="M375.98,-384.02C385.22,-374.34 395.87,-363.17 404.07,-354.58"/>
<polygon fill="midnightblue" stroke="midnightblue" points="373.32,-381.74 368.95,-391.4 378.39,-386.58 373.32,-381.74"/>
</g>
<!-- Node4 -->
<g id="node4" class="node">
<title>Node4</title>
<g id="a_node4"><a xlink:href="d__bg__s__acch_8h.html" target="_top" xlink:title=" ">
<polygon fill="white" stroke="black" points="257.5,-190.5 257.5,-220.5 361.5,-220.5 361.5,-190.5 257.5,-190.5"/>
<text text-anchor="start" x="265.5" y="-208.5" font-family="Helvetica,sans-Serif" font-size="10.00">include/d/d_bg/d_bg</text>
<text text-anchor="middle" x="309.5" y="-197.5" font-family="Helvetica,sans-Serif" font-size="10.00">_s/d_bg_s_acch.h</text>
</a>
</g>
</g>
<!-- Node3&#45;&gt;Node4 -->
<g id="edge3" class="edge">
<title>Node3&#45;&gt;Node4</title>
<path fill="none" stroke="midnightblue" d="M120.01,-254.99C162.57,-244.1 217.62,-230.01 257.4,-219.83"/>
<polygon fill="midnightblue" stroke="midnightblue" points="119.12,-251.61 110.3,-257.48 120.86,-258.39 119.12,-251.61"/>
</g>
<!-- Node5 -->
<g id="node5" class="node">
<title>Node5</title>
<g id="a_node5"><a xlink:href="d__a__alink_8h.html" target="_top" xlink:title=" ">
<polygon fill="white" stroke="black" points="329,-56.5 329,-86.5 448,-86.5 448,-56.5 329,-56.5"/>
<text text-anchor="start" x="337" y="-74.5" font-family="Helvetica,sans-Serif" font-size="10.00">include/d/d_a/d_a_alink</text>
<text text-anchor="middle" x="388.5" y="-63.5" font-family="Helvetica,sans-Serif" font-size="10.00">/d_a_alink.h</text>
</a>
</g>
</g>
<!-- Node4&#45;&gt;Node5 -->
<g id="edge4" class="edge">
<title>Node4&#45;&gt;Node5</title>
<path fill="none" stroke="midnightblue" d="M311.14,-179.94C313.22,-162.91 317.91,-140.27 328.5,-123 337.61,-108.14 352.61,-95.52 365.33,-86.61"/>
<polygon fill="midnightblue" stroke="midnightblue" points="307.63,-179.92 310.12,-190.22 314.59,-180.61 307.63,-179.92"/>
</g>
<!-- Node8 -->
<g id="node8" class="node">
<title>Node8</title>
<g id="a_node8"><a xlink:href="d__particle__copoly_8h.html" target="_top" xlink:title=" ">
<polygon fill="white" stroke="black" points="337.5,-123.5 337.5,-153.5 439.5,-153.5 439.5,-123.5 337.5,-123.5"/>
<text text-anchor="start" x="345.5" y="-141.5" font-family="Helvetica,sans-Serif" font-size="10.00">include/d/d_particle</text>
<text text-anchor="middle" x="388.5" y="-130.5" font-family="Helvetica,sans-Serif" font-size="10.00">/d_particle_copoly.h</text>
</a>
</g>
</g>
<!-- Node4&#45;&gt;Node8 -->
<g id="edge7" class="edge">
<title>Node4&#45;&gt;Node8</title>
<path fill="none" stroke="midnightblue" d="M334.56,-183.88C346.56,-174.01 360.63,-162.43 371.39,-153.58"/>
<polygon fill="midnightblue" stroke="midnightblue" points="332.14,-181.34 326.64,-190.4 336.59,-186.75 332.14,-181.34"/>
</g>
<!-- Node6 -->
<g id="node6" class="node">
<title>Node6</title>
<g id="a_node6"><a xlink:href="d__attention_8cpp.html" target="_top" xlink:title=" ">
<polygon fill="white" stroke="black" points="270,-0.5 270,-19.5 377,-19.5 377,-0.5 270,-0.5"/>
<text text-anchor="middle" x="323.5" y="-7.5" font-family="Helvetica,sans-Serif" font-size="10.00">src/d/d_attention.cpp</text>
</a>
</g>
</g>
<!-- Node5&#45;&gt;Node6 -->
<g id="edge5" class="edge">
<title>Node5&#45;&gt;Node6</title>
<path fill="none" stroke="midnightblue" d="M365.67,-49.6C354.43,-39.32 341.51,-27.48 332.96,-19.66"/>
<polygon fill="midnightblue" stroke="midnightblue" points="363.36,-52.23 373.1,-56.4 368.08,-47.07 363.36,-52.23"/>
</g>
<!-- Node7 -->
<g id="node7" class="node">
<title>Node7</title>
<g id="a_node7"><a xlink:href="d__a__alink_8cpp.html" target="_top" xlink:title=" ">
<polygon fill="white" stroke="black" points="395,-0.5 395,-19.5 514,-19.5 514,-0.5 395,-0.5"/>
<text text-anchor="middle" x="454.5" y="-7.5" font-family="Helvetica,sans-Serif" font-size="10.00">src/d/d_a/d_a_alink.cpp</text>
</a>
</g>
</g>
<!-- Node5&#45;&gt;Node7 -->
<g id="edge6" class="edge">
<title>Node5&#45;&gt;Node7</title>
<path fill="none" stroke="midnightblue" d="M411.69,-49.6C423.09,-39.32 436.22,-27.48 444.9,-19.66"/>
<polygon fill="midnightblue" stroke="midnightblue" points="409.22,-47.1 404.14,-56.4 413.91,-52.3 409.22,-47.1"/>
</g>
<!-- Node8&#45;&gt;Node5 -->
<g id="edge8" class="edge">
<title>Node8&#45;&gt;Node5</title>
<path fill="none" stroke="midnightblue" d="M388.5,-113.11C388.5,-104.15 388.5,-94.32 388.5,-86.58"/>
<polygon fill="midnightblue" stroke="midnightblue" points="385,-113.4 388.5,-123.4 392,-113.4 385,-113.4"/>
</g>
<!-- Node9&#45;&gt;Node5 -->
<g id="edge10" class="edge">
<title>Node9&#45;&gt;Node5</title>
<path fill="none" stroke="midnightblue" d="M571.58,-249.41C544.56,-219.78 494.38,-165.91 448.5,-123 434.78,-110.17 418.41,-96.49 406.24,-86.62"/>
<polygon fill="midnightblue" stroke="midnightblue" points="569.25,-252.05 578.57,-257.1 574.43,-247.34 569.25,-252.05"/>
</g>
<!-- Node10&#45;&gt;Node4 -->
<g id="edge12" class="edge">
<title>Node10&#45;&gt;Node4</title>
<path fill="none" stroke="midnightblue" d="M221.34,-252.71C240.89,-242.46 264.7,-229.98 282.65,-220.58"/>
<polygon fill="midnightblue" stroke="midnightblue" points="219.64,-249.65 212.41,-257.4 222.89,-255.85 219.64,-249.65"/>
</g>
<!-- Node12 -->
<g id="node12" class="node">
<title>Node12</title>
<g id="a_node12"><a xlink:href="d__bg__s__wtr__chk_8h.html" target="_top" xlink:title=" ">
<polygon fill="white" stroke="black" points="412,-257.5 412,-287.5 521,-287.5 521,-257.5 412,-257.5"/>
<text text-anchor="start" x="420" y="-275.5" font-family="Helvetica,sans-Serif" font-size="10.00">include/d/d_bg/d_bg</text>
<text text-anchor="middle" x="466.5" y="-264.5" font-family="Helvetica,sans-Serif" font-size="10.00">_s/d_bg_s_wtr_chk.h</text>
</a>
</g>
</g>
<!-- Node11&#45;&gt;Node12 -->
<g id="edge14" class="edge">
<title>Node11&#45;&gt;Node12</title>
<path fill="none" stroke="midnightblue" d="M434.34,-316.16C441.49,-306.68 449.6,-295.92 455.89,-287.58"/>
<polygon fill="midnightblue" stroke="midnightblue" points="431.36,-314.3 428.13,-324.4 436.95,-318.52 431.36,-314.3"/>
</g>
<!-- Node12&#45;&gt;Node4 -->
<g id="edge15" class="edge">
<title>Node12&#45;&gt;Node4</title>
<path fill="none" stroke="midnightblue" d="M423.13,-253.54C398.01,-243.14 366.84,-230.24 343.5,-220.58"/>
<polygon fill="midnightblue" stroke="midnightblue" points="421.86,-256.8 432.43,-257.4 424.53,-250.34 421.86,-256.8"/>
</g>
<!-- Node13&#45;&gt;Node11 -->
<g id="edge18" class="edge">
<title>Node13&#45;&gt;Node11</title>
<path fill="none" stroke="midnightblue" d="M459.02,-384.02C449.78,-374.34 439.13,-363.17 430.93,-354.58"/>
<polygon fill="midnightblue" stroke="midnightblue" points="456.61,-386.58 466.05,-391.4 461.68,-381.74 456.61,-386.58"/>
</g>
<!-- Node14 -->
<g id="node14" class="node">
<title>Node14</title>
<g id="a_node14"><a xlink:href="c__bg__s__chk_8cpp.html" target="_top" xlink:title=" ">
<polygon fill="white" stroke="black" points="663.5,-324.5 663.5,-354.5 797.5,-354.5 797.5,-324.5 663.5,-324.5"/>
<text text-anchor="start" x="671.5" y="-342.5" font-family="Helvetica,sans-Serif" font-size="10.00">libs/SSystem/SComponent</text>
<text text-anchor="middle" x="730.5" y="-331.5" font-family="Helvetica,sans-Serif" font-size="10.00">/c_bg_s_chk.cpp</text>
</a>
</g>
</g>
<!-- Node13&#45;&gt;Node14 -->
<g id="edge17" class="edge">
<title>Node13&#45;&gt;Node14</title>
<path fill="none" stroke="midnightblue" d="M542.95,-389.07C584.05,-378.42 637.02,-364.71 676.18,-354.57"/>
<polygon fill="midnightblue" stroke="midnightblue" points="541.84,-385.74 533.04,-391.64 543.6,-392.52 541.84,-385.74"/>
</g>
<!-- Node15 -->
<g id="node15" class="node">
<title>Node15</title>
<g id="a_node15"><a xlink:href="c__bg__s__gnd__chk_8h.html" target="_top" xlink:title=" ">
<polygon fill="white" stroke="black" points="222,-324.5 222,-354.5 329,-354.5 329,-324.5 222,-324.5"/>
<text text-anchor="start" x="230" y="-342.5" font-family="Helvetica,sans-Serif" font-size="10.00">include/SComponent</text>
<text text-anchor="middle" x="275.5" y="-331.5" font-family="Helvetica,sans-Serif" font-size="10.00">/c_bg_s_gnd_chk.h</text>
</a>
</g>
</g>
<!-- Node13&#45;&gt;Node15 -->
<g id="edge19" class="edge">
<title>Node13&#45;&gt;Node15</title>
<path fill="none" stroke="midnightblue" d="M425.54,-388.31C392.54,-377.79 350.84,-364.51 319.79,-354.61"/>
<polygon fill="midnightblue" stroke="midnightblue" points="424.9,-391.77 435.49,-391.48 427.02,-385.11 424.9,-391.77"/>
</g>
<!-- Node17 -->
<g id="node17" class="node">
<title>Node17</title>
<g id="a_node17"><a xlink:href="c__bg__s__lin__chk_8h.html" target="_top" xlink:title=" ">
<polygon fill="white" stroke="black" points="538,-324.5 538,-354.5 645,-354.5 645,-324.5 538,-324.5"/>
<text text-anchor="start" x="546" y="-342.5" font-family="Helvetica,sans-Serif" font-size="10.00">include/SComponent</text>
<text text-anchor="middle" x="591.5" y="-331.5" font-family="Helvetica,sans-Serif" font-size="10.00">/c_bg_s_lin_chk.h</text>
</a>
</g>
</g>
<!-- Node13&#45;&gt;Node17 -->
<g id="edge23" class="edge">
<title>Node13&#45;&gt;Node17</title>
<path fill="none" stroke="midnightblue" d="M512.59,-386.3C530.12,-376.12 551.26,-363.85 567.25,-354.58"/>
<polygon fill="midnightblue" stroke="midnightblue" points="510.69,-383.35 503.8,-391.4 514.21,-389.4 510.69,-383.35"/>
</g>
<!-- Node15&#45;&gt;Node3 -->
<g id="edge21" class="edge">
<title>Node15&#45;&gt;Node3</title>
<path fill="none" stroke="midnightblue" d="M218.23,-321.58C182.5,-311.02 137.04,-297.59 103.26,-287.61"/>
<polygon fill="midnightblue" stroke="midnightblue" points="217.45,-325 228.03,-324.48 219.44,-318.29 217.45,-325"/>
</g>
<!-- Node15&#45;&gt;Node10 -->
<g id="edge22" class="edge">
<title>Node15&#45;&gt;Node10</title>
<path fill="none" stroke="midnightblue" d="M247.74,-318.45C233.89,-308.45 217.48,-296.6 204.99,-287.58"/>
<polygon fill="midnightblue" stroke="midnightblue" points="245.82,-321.38 255.97,-324.4 249.91,-315.7 245.82,-321.38"/>
</g>
<!-- Node16 -->
<g id="node16" class="node">
<title>Node16</title>
<g id="a_node16"><a xlink:href="c__bg__s__gnd__chk_8cpp.html" target="_top" xlink:title=" ">
<polygon fill="white" stroke="black" points="259.5,-257.5 259.5,-287.5 393.5,-287.5 393.5,-257.5 259.5,-257.5"/>
<text text-anchor="start" x="267.5" y="-275.5" font-family="Helvetica,sans-Serif" font-size="10.00">libs/SSystem/SComponent</text>
<text text-anchor="middle" x="326.5" y="-264.5" font-family="Helvetica,sans-Serif" font-size="10.00">/c_bg_s_gnd_chk.cpp</text>
</a>
</g>
</g>
<!-- Node15&#45;&gt;Node16 -->
<g id="edge20" class="edge">
<title>Node15&#45;&gt;Node16</title>
<path fill="none" stroke="midnightblue" d="M292.8,-316.45C300.29,-306.9 308.84,-296 315.46,-287.58"/>
<polygon fill="midnightblue" stroke="midnightblue" points="289.99,-314.37 286.57,-324.4 295.49,-318.69 289.99,-314.37"/>
</g>
<!-- Node17&#45;&gt;Node9 -->
<g id="edge25" class="edge">
<title>Node17&#45;&gt;Node9</title>
<path fill="none" stroke="midnightblue" d="M591.5,-314.11C591.5,-305.15 591.5,-295.32 591.5,-287.58"/>
<polygon fill="midnightblue" stroke="midnightblue" points="588,-314.4 591.5,-324.4 595,-314.4 588,-314.4"/>
</g>
<!-- Node18 -->
<g id="node18" class="node">
<title>Node18</title>
<g id="a_node18"><a xlink:href="c__bg__s__lin__chk_8cpp.html" target="_top" xlink:title=" ">
<polygon fill="white" stroke="black" points="662.5,-257.5 662.5,-287.5 796.5,-287.5 796.5,-257.5 662.5,-257.5"/>
<text text-anchor="start" x="670.5" y="-275.5" font-family="Helvetica,sans-Serif" font-size="10.00">libs/SSystem/SComponent</text>
<text text-anchor="middle" x="729.5" y="-264.5" font-family="Helvetica,sans-Serif" font-size="10.00">/c_bg_s_lin_chk.cpp</text>
</a>
</g>
</g>
<!-- Node17&#45;&gt;Node18 -->
<g id="edge24" class="edge">
<title>Node17&#45;&gt;Node18</title>
<path fill="none" stroke="midnightblue" d="M630.5,-320.13C652.43,-309.8 679.37,-297.11 699.61,-287.58"/>
<polygon fill="midnightblue" stroke="midnightblue" points="629,-316.97 621.44,-324.4 631.98,-323.3 629,-316.97"/>
</g>
</g>
</svg>
