<?xml version="1.0" encoding="UTF-8" standalone="no"?>
<!DOCTYPE svg PUBLIC "-//W3C//DTD SVG 1.1//EN"
 "http://www.w3.org/Graphics/SVG/1.1/DTD/svg11.dtd">
<!-- Generated by graphviz version 2.44.0 ()
 -->
<!-- Title: include/d/d_bg/d_bg_s/d_bg_s_acch.h Pages: 1 -->
<!--zoomable 531 -->
<svg id="main" version="1.1" xmlns="http://www.w3.org/2000/svg" xmlns:xlink="http://www.w3.org/1999/xlink" xml:space="preserve" onload="init(evt)">
<style type="text/css"><![CDATA[
.edge:hover path { stroke: red; }
.edge:hover polygon { stroke: red; fill: red; }
]]></style>
<script type="text/javascript"><![CDATA[
var edges = document.getElementsByTagName('g');
if (edges && edges.length) {
  for (var i=0;i<edges.length;i++) {
    if (edges[i].id.substr(0,4)=='edge') {
      edges[i].setAttribute('class','edge');
    }
  }
}
]]></script>
        <defs>
                <circle id="rim" cx="0" cy="0" r="7"/>
                <circle id="rim2" cx="0" cy="0" r="3.5"/>
                <g id="zoomPlus">
                        <use xlink:href="#rim" fill="#404040">
                                <set attributeName="fill" to="#808080" begin="zoomplus.mouseover" end="zoomplus.mouseout"/>
                        </use>
                        <path d="M-4,0h8M0,-4v8" fill="none" stroke="white" stroke-width="1.5" pointer-events="none"/>
                </g>
                <g id="zoomMin">
                        <use xlink:href="#rim" fill="#404040">
                                <set attributeName="fill" to="#808080" begin="zoomminus.mouseover" end="zoomminus.mouseout"/>
                        </use>
                        <path d="M-4,0h8" fill="none" stroke="white" stroke-width="1.5" pointer-events="none"/>
                </g>
                <g id="dirArrow">
                        <path fill="none" stroke="white" stroke-width="1.5" d="M0,-3.0v7 M-2.5,-0.5L0,-3.0L2.5,-0.5"/>
                </g>
               <g id="resetDef">
                       <use xlink:href="#rim2" fill="#404040">
                               <set attributeName="fill" to="#808080" begin="reset.mouseover" end="reset.mouseout"/>
                       </use>
               </g>
        </defs>

<script type="text/javascript">
var viewWidth = 1122;
var viewHeight = 531;
var sectionId = 'dynsection-0';
</script>
<script xlink:href="svgpan.js"/>
<svg id="graph" class="graph">
<g id="viewport">
<title>include/d/d_bg/d_bg_s/d_bg_s_acch.h</title>
<polygon fill="white" stroke="transparent" points="-4,4 -4,-527 1118,-527 1118,4 -4,4"/>
<!-- Node1 -->
<g id="node1" class="node">
<title>Node1</title>
<g id="a_node1"><a xlink:title=" ">
<polygon fill="#bfbfbf" stroke="black" points="466,-492.5 466,-522.5 570,-522.5 570,-492.5 466,-492.5"/>
<text text-anchor="start" x="474" y="-510.5" font-family="Helvetica,sans-Serif" font-size="10.00">include/d/d_bg/d_bg</text>
<text text-anchor="middle" x="518" y="-499.5" font-family="Helvetica,sans-Serif" font-size="10.00">_s/d_bg_s_acch.h</text>
</a>
</g>
</g>
<!-- Node2 -->
<g id="node2" class="node">
<title>Node2</title>
<g id="a_node2"><a xlink:href="c__bg__s__poly__info_8h.html" target="_top" xlink:title=" ">
<polygon fill="white" stroke="black" points="490,-291.5 490,-321.5 620,-321.5 620,-291.5 490,-291.5"/>
<text text-anchor="start" x="498" y="-309.5" font-family="Helvetica,sans-Serif" font-size="10.00">SComponent/c_bg_s_poly</text>
<text text-anchor="middle" x="555" y="-298.5" font-family="Helvetica,sans-Serif" font-size="10.00">_info.h</text>
</a>
</g>
</g>
<!-- Node1&#45;&gt;Node2 -->
<g id="edge1" class="edge">
<title>Node1&#45;&gt;Node2</title>
<path fill="none" stroke="midnightblue" d="M518.79,-492.4C520.51,-465.8 525.39,-406.53 537,-358 539.12,-349.12 542.26,-339.63 545.33,-331.3"/>
<polygon fill="midnightblue" stroke="midnightblue" points="548.65,-332.43 548.96,-321.83 542.11,-329.92 548.65,-332.43"/>
</g>
<!-- Node3 -->
<g id="node3" class="node">
<title>Node3</title>
<g id="a_node3"><a xlink:href="global_8h.html" target="_top" xlink:title=" ">
<polygon fill="white" stroke="black" points="589,-168.5 589,-187.5 639,-187.5 639,-168.5 589,-168.5"/>
<text text-anchor="middle" x="614" y="-175.5" font-family="Helvetica,sans-Serif" font-size="10.00">global.h</text>
</a>
</g>
</g>
<!-- Node1&#45;&gt;Node3 -->
<g id="edge57" class="edge">
<title>Node1&#45;&gt;Node3</title>
<path fill="none" stroke="midnightblue" d="M570.11,-506C715.33,-503.21 1114,-485.45 1114,-374.5 1114,-374.5 1114,-374.5 1114,-305.5 1114,-261.3 1095.12,-246.38 1057,-224 988.14,-183.58 741.97,-179.09 649.47,-178.86"/>
<polygon fill="midnightblue" stroke="midnightblue" points="649.23,-175.36 639.22,-178.86 649.22,-182.36 649.23,-175.36"/>
</g>
<!-- Node10 -->
<g id="node10" class="node">
<title>Node10</title>
<g id="a_node10"><a xlink:href="c__m3d__g__cir_8h.html" target="_top" xlink:title=" ">
<polygon fill="white" stroke="black" points="0,-425.5 0,-455.5 116,-455.5 116,-425.5 0,-425.5"/>
<text text-anchor="start" x="8" y="-443.5" font-family="Helvetica,sans-Serif" font-size="10.00">SComponent/c_m3d_g</text>
<text text-anchor="middle" x="58" y="-432.5" font-family="Helvetica,sans-Serif" font-size="10.00">_cir.h</text>
</a>
</g>
</g>
<!-- Node1&#45;&gt;Node10 -->
<g id="edge13" class="edge">
<title>Node1&#45;&gt;Node10</title>
<path fill="none" stroke="midnightblue" d="M465.68,-499.11C382.15,-487.3 218.7,-464.21 126.14,-451.13"/>
<polygon fill="midnightblue" stroke="midnightblue" points="126.43,-447.64 116.04,-449.7 125.45,-454.57 126.43,-447.64"/>
</g>
<!-- Node11 -->
<g id="node11" class="node">
<title>Node11</title>
<g id="a_node11"><a xlink:href="c__m3d__g__cyl_8h.html" target="_top" xlink:title=" ">
<polygon fill="white" stroke="black" points="68,-358.5 68,-388.5 184,-388.5 184,-358.5 68,-358.5"/>
<text text-anchor="start" x="76" y="-376.5" font-family="Helvetica,sans-Serif" font-size="10.00">SComponent/c_m3d_g</text>
<text text-anchor="middle" x="126" y="-365.5" font-family="Helvetica,sans-Serif" font-size="10.00">_cyl.h</text>
</a>
</g>
</g>
<!-- Node1&#45;&gt;Node11 -->
<g id="edge15" class="edge">
<title>Node1&#45;&gt;Node11</title>
<path fill="none" stroke="midnightblue" d="M473.88,-492.47C442.6,-482.46 399.66,-468.6 362,-456 297.39,-434.39 223.16,-408.59 175.47,-391.9"/>
<polygon fill="midnightblue" stroke="midnightblue" points="176.6,-388.58 166.01,-388.58 174.29,-395.19 176.6,-388.58"/>
</g>
<!-- Node15 -->
<g id="node15" class="node">
<title>Node15</title>
<g id="a_node15"><a xlink:href="c__m3d__g__lin_8h.html" target="_top" xlink:title=" ">
<polygon fill="white" stroke="black" points="202,-358.5 202,-388.5 318,-388.5 318,-358.5 202,-358.5"/>
<text text-anchor="start" x="210" y="-376.5" font-family="Helvetica,sans-Serif" font-size="10.00">SComponent/c_m3d_g</text>
<text text-anchor="middle" x="260" y="-365.5" font-family="Helvetica,sans-Serif" font-size="10.00">_lin.h</text>
</a>
</g>
</g>
<!-- Node1&#45;&gt;Node15 -->
<g id="edge23" class="edge">
<title>Node1&#45;&gt;Node15</title>
<path fill="none" stroke="midnightblue" d="M490.39,-492.37C443.54,-468.41 348.51,-419.78 296.33,-393.09"/>
<polygon fill="midnightblue" stroke="midnightblue" points="297.91,-389.96 287.41,-388.52 294.72,-396.2 297.91,-389.96"/>
</g>
<!-- Node16 -->
<g id="node16" class="node">
<title>Node16</title>
<g id="a_node16"><a xlink:href="c__m3d__g__pla_8h.html" target="_top" xlink:title=" ">
<polygon fill="white" stroke="black" points="374,-358.5 374,-388.5 490,-388.5 490,-358.5 374,-358.5"/>
<text text-anchor="start" x="382" y="-376.5" font-family="Helvetica,sans-Serif" font-size="10.00">SComponent/c_m3d_g</text>
<text text-anchor="middle" x="432" y="-365.5" font-family="Helvetica,sans-Serif" font-size="10.00">_pla.h</text>
</a>
</g>
</g>
<!-- Node1&#45;&gt;Node16 -->
<g id="edge26" class="edge">
<title>Node1&#45;&gt;Node16</title>
<path fill="none" stroke="midnightblue" d="M508.8,-492.37C493.93,-469.55 464.48,-424.36 446.69,-397.04"/>
<polygon fill="midnightblue" stroke="midnightblue" points="449.53,-394.99 441.14,-388.52 443.66,-398.81 449.53,-394.99"/>
</g>
<!-- Node17 -->
<g id="node17" class="node">
<title>Node17</title>
<g id="a_node17"><a xlink:href="d__bg__s__gnd__chk_8h.html" target="_top" xlink:title=" ">
<polygon fill="white" stroke="black" points="546,-425.5 546,-455.5 650,-455.5 650,-425.5 546,-425.5"/>
<text text-anchor="start" x="554" y="-443.5" font-family="Helvetica,sans-Serif" font-size="10.00">d/d_bg/d_bg_s/d_bg</text>
<text text-anchor="middle" x="598" y="-432.5" font-family="Helvetica,sans-Serif" font-size="10.00">_s_gnd_chk.h</text>
</a>
</g>
</g>
<!-- Node1&#45;&gt;Node17 -->
<g id="edge29" class="edge">
<title>Node1&#45;&gt;Node17</title>
<path fill="none" stroke="midnightblue" d="M535.36,-492.4C546.26,-483.54 560.51,-471.96 572.66,-462.09"/>
<polygon fill="midnightblue" stroke="midnightblue" points="575.12,-464.6 580.68,-455.58 570.71,-459.17 575.12,-464.6"/>
</g>
<!-- Node23 -->
<g id="node23" class="node">
<title>Node23</title>
<g id="a_node23"><a xlink:href="d__bg__s__roof__chk_8h.html" target="_top" xlink:title=" ">
<polygon fill="white" stroke="black" points="668,-425.5 668,-455.5 772,-455.5 772,-425.5 668,-425.5"/>
<text text-anchor="start" x="676" y="-443.5" font-family="Helvetica,sans-Serif" font-size="10.00">d/d_bg/d_bg_s/d_bg</text>
<text text-anchor="middle" x="720" y="-432.5" font-family="Helvetica,sans-Serif" font-size="10.00">_s_roof_chk.h</text>
</a>
</g>
</g>
<!-- Node1&#45;&gt;Node23 -->
<g id="edge45" class="edge">
<title>Node1&#45;&gt;Node23</title>
<path fill="none" stroke="midnightblue" d="M561.83,-492.4C592.54,-482.52 633.75,-469.25 666.41,-458.74"/>
<polygon fill="midnightblue" stroke="midnightblue" points="667.81,-461.97 676.25,-455.58 665.66,-455.31 667.81,-461.97"/>
</g>
<!-- Node24 -->
<g id="node24" class="node">
<title>Node24</title>
<g id="a_node24"><a xlink:href="d__bg__s__wtr__chk_8h.html" target="_top" xlink:title=" ">
<polygon fill="white" stroke="black" points="790,-425.5 790,-455.5 894,-455.5 894,-425.5 790,-425.5"/>
<text text-anchor="start" x="798" y="-443.5" font-family="Helvetica,sans-Serif" font-size="10.00">d/d_bg/d_bg_s/d_bg</text>
<text text-anchor="middle" x="842" y="-432.5" font-family="Helvetica,sans-Serif" font-size="10.00">_s_wtr_chk.h</text>
</a>
</g>
</g>
<!-- Node1&#45;&gt;Node24 -->
<g id="edge49" class="edge">
<title>Node1&#45;&gt;Node24</title>
<path fill="none" stroke="midnightblue" d="M570.03,-497.2C621.01,-487.94 701.13,-472.96 779.72,-456.23"/>
<polygon fill="midnightblue" stroke="midnightblue" points="780.74,-459.58 789.79,-454.07 779.28,-452.74 780.74,-459.58"/>
</g>
<!-- Node2&#45;&gt;Node3 -->
<g id="edge2" class="edge">
<title>Node2&#45;&gt;Node3</title>
<path fill="none" stroke="midnightblue" d="M561.54,-291.48C572.3,-268.41 593.72,-222.48 605.59,-197.03"/>
<polygon fill="midnightblue" stroke="midnightblue" points="608.85,-198.33 609.9,-187.79 602.5,-195.37 608.85,-198.33"/>
</g>
<!-- Node4 -->
<g id="node4" class="node">
<title>Node4</title>
<g id="a_node4"><a xlink:href="types_8h.html" target="_top" xlink:title=" ">
<polygon fill="white" stroke="black" points="636.5,-0.5 636.5,-19.5 717.5,-19.5 717.5,-0.5 636.5,-0.5"/>
<text text-anchor="middle" x="677" y="-7.5" font-family="Helvetica,sans-Serif" font-size="10.00">dolphin/types.h</text>
</a>
</g>
</g>
<!-- Node3&#45;&gt;Node4 -->
<g id="edge3" class="edge">
<title>Node3&#45;&gt;Node4</title>
<path fill="none" stroke="midnightblue" d="M639.27,-174.92C666.15,-171.19 707.44,-160.84 727,-132 750.27,-97.69 715,-50.85 692.8,-26.75"/>
<polygon fill="midnightblue" stroke="midnightblue" points="695.31,-24.31 685.87,-19.5 690.25,-29.15 695.31,-24.31"/>
</g>
<!-- Node5 -->
<g id="node5" class="node">
<title>Node5</title>
<g id="a_node5"><a xlink:href="AR_8h.html" target="_top" xlink:title=" ">
<polygon fill="white" stroke="black" points="476.5,-56.5 476.5,-75.5 525.5,-75.5 525.5,-56.5 476.5,-56.5"/>
<text text-anchor="middle" x="501" y="-63.5" font-family="Helvetica,sans-Serif" font-size="10.00">ar/AR.h</text>
</a>
</g>
</g>
<!-- Node3&#45;&gt;Node5 -->
<g id="edge4" class="edge">
<title>Node3&#45;&gt;Node5</title>
<path fill="none" stroke="midnightblue" d="M605.13,-168.37C586.15,-149.89 541.36,-106.29 517.17,-82.74"/>
<polygon fill="midnightblue" stroke="midnightblue" points="519.43,-80.06 509.83,-75.59 514.55,-85.07 519.43,-80.06"/>
</g>
<!-- Node6 -->
<g id="node6" class="node">
<title>Node6</title>
<g id="a_node6"><a xlink:href="ARQ_8h.html" target="_top" xlink:title=" ">
<polygon fill="white" stroke="black" points="544,-56.5 544,-75.5 600,-75.5 600,-56.5 544,-56.5"/>
<text text-anchor="middle" x="572" y="-63.5" font-family="Helvetica,sans-Serif" font-size="10.00">ar/ARQ.h</text>
</a>
</g>
</g>
<!-- Node3&#45;&gt;Node6 -->
<g id="edge6" class="edge">
<title>Node3&#45;&gt;Node6</title>
<path fill="none" stroke="midnightblue" d="M608.34,-168.36C602.76,-159.53 594.32,-145.27 589,-132 582.95,-116.93 578.46,-99.03 575.61,-85.83"/>
<polygon fill="midnightblue" stroke="midnightblue" points="578.96,-84.73 573.54,-75.63 572.1,-86.13 578.96,-84.73"/>
</g>
<!-- Node7 -->
<g id="node7" class="node">
<title>Node7</title>
<g id="a_node7"><a xlink:href="mwcc_8h.html" target="_top" xlink:title=" ">
<polygon fill="white" stroke="black" points="668,-112.5 668,-131.5 718,-131.5 718,-112.5 668,-112.5"/>
<text text-anchor="middle" x="693" y="-119.5" font-family="Helvetica,sans-Serif" font-size="10.00">mwcc.h</text>
</a>
</g>
</g>
<!-- Node3&#45;&gt;Node7 -->
<g id="edge8" class="edge">
<title>Node3&#45;&gt;Node7</title>
<path fill="none" stroke="midnightblue" d="M626.69,-168.32C638.9,-159.98 657.58,-147.21 672,-137.35"/>
<polygon fill="midnightblue" stroke="midnightblue" points="674.06,-140.19 680.34,-131.65 670.11,-134.41 674.06,-140.19"/>
</g>
<!-- Node8 -->
<g id="node8" class="node">
<title>Node8</title>
<g id="a_node8"><a xlink:href="OS_8h.html" target="_top" xlink:title=" ">
<polygon fill="white" stroke="black" points="598,-112.5 598,-131.5 650,-131.5 650,-112.5 598,-112.5"/>
<text text-anchor="middle" x="624" y="-119.5" font-family="Helvetica,sans-Serif" font-size="10.00">os/OS.h</text>
</a>
</g>
</g>
<!-- Node3&#45;&gt;Node8 -->
<g id="edge9" class="edge">
<title>Node3&#45;&gt;Node8</title>
<path fill="none" stroke="midnightblue" d="M615.65,-168.08C616.98,-160.93 618.88,-150.64 620.54,-141.69"/>
<polygon fill="midnightblue" stroke="midnightblue" points="624,-142.22 622.38,-131.75 617.12,-140.95 624,-142.22"/>
</g>
<!-- Node5&#45;&gt;Node4 -->
<g id="edge5" class="edge">
<title>Node5&#45;&gt;Node4</title>
<path fill="none" stroke="midnightblue" d="M525.84,-57.38C555.42,-48.3 605.13,-33.05 639.42,-22.53"/>
<polygon fill="midnightblue" stroke="midnightblue" points="640.56,-25.84 649.09,-19.56 638.5,-19.15 640.56,-25.84"/>
</g>
<!-- Node6&#45;&gt;Node4 -->
<g id="edge7" class="edge">
<title>Node6&#45;&gt;Node4</title>
<path fill="none" stroke="midnightblue" d="M588.87,-56.32C605.71,-47.66 631.81,-34.24 651.24,-24.25"/>
<polygon fill="midnightblue" stroke="midnightblue" points="652.88,-27.34 660.17,-19.65 649.68,-21.12 652.88,-27.34"/>
</g>
<!-- Node8&#45;&gt;Node4 -->
<g id="edge10" class="edge">
<title>Node8&#45;&gt;Node4</title>
<path fill="none" stroke="midnightblue" d="M644.85,-112.43C659.58,-105.13 678.2,-93.09 687,-76 694.58,-61.28 690.36,-42.37 685.28,-28.75"/>
<polygon fill="midnightblue" stroke="midnightblue" points="688.5,-27.39 681.41,-19.52 682.05,-30.1 688.5,-27.39"/>
</g>
<!-- Node9 -->
<g id="node9" class="node">
<title>Node9</title>
<g id="a_node9"><a xlink:href="dvd_8h.html" target="_top" xlink:title=" ">
<polygon fill="white" stroke="black" points="618.5,-56.5 618.5,-75.5 677.5,-75.5 677.5,-56.5 618.5,-56.5"/>
<text text-anchor="middle" x="648" y="-63.5" font-family="Helvetica,sans-Serif" font-size="10.00">dvd/dvd.h</text>
</a>
</g>
</g>
<!-- Node8&#45;&gt;Node9 -->
<g id="edge11" class="edge">
<title>Node8&#45;&gt;Node9</title>
<path fill="none" stroke="midnightblue" d="M627.96,-112.08C631.21,-104.77 635.92,-94.18 639.95,-85.1"/>
<polygon fill="midnightblue" stroke="midnightblue" points="643.25,-86.31 644.11,-75.75 636.85,-83.47 643.25,-86.31"/>
</g>
<!-- Node9&#45;&gt;Node4 -->
<g id="edge12" class="edge">
<title>Node9&#45;&gt;Node4</title>
<path fill="none" stroke="midnightblue" d="M652.79,-56.08C656.76,-48.69 662.53,-37.95 667.43,-28.81"/>
<polygon fill="midnightblue" stroke="midnightblue" points="670.65,-30.22 672.3,-19.75 664.49,-26.91 670.65,-30.22"/>
</g>
<!-- Node10&#45;&gt;Node3 -->
<g id="edge14" class="edge">
<title>Node10&#45;&gt;Node3</title>
<path fill="none" stroke="midnightblue" d="M54.81,-425.46C51.7,-408.57 48.79,-379.78 59,-358 97.93,-274.93 131.85,-260.53 216,-224 280.84,-195.85 493.71,-184.03 578.59,-180.36"/>
<polygon fill="midnightblue" stroke="midnightblue" points="578.92,-183.85 588.76,-179.93 578.62,-176.85 578.92,-183.85"/>
</g>
<!-- Node11&#45;&gt;Node3 -->
<g id="edge22" class="edge">
<title>Node11&#45;&gt;Node3</title>
<path fill="none" stroke="midnightblue" d="M133.95,-358.45C152.04,-327.99 199.5,-256.01 261,-224 315.83,-195.46 500.59,-184.05 578.69,-180.42"/>
<polygon fill="midnightblue" stroke="midnightblue" points="579.14,-183.9 588.97,-179.96 578.83,-176.91 579.14,-183.9"/>
</g>
<!-- Node12 -->
<g id="node12" class="node">
<title>Node12</title>
<g id="a_node12"><a xlink:href="c__xyz_8h.html" target="_top" xlink:title=" ">
<polygon fill="white" stroke="black" points="326.5,-297 326.5,-316 433.5,-316 433.5,-297 326.5,-297"/>
<text text-anchor="middle" x="380" y="-304" font-family="Helvetica,sans-Serif" font-size="10.00">SComponent/c_xyz.h</text>
</a>
</g>
</g>
<!-- Node11&#45;&gt;Node12 -->
<g id="edge16" class="edge">
<title>Node11&#45;&gt;Node12</title>
<path fill="none" stroke="midnightblue" d="M180.8,-358.48C227.52,-346.52 293.75,-329.57 336.79,-318.56"/>
<polygon fill="midnightblue" stroke="midnightblue" points="337.85,-321.9 346.67,-316.03 336.12,-315.12 337.85,-321.9"/>
</g>
<!-- Node12&#45;&gt;Node3 -->
<g id="edge19" class="edge">
<title>Node12&#45;&gt;Node3</title>
<path fill="none" stroke="midnightblue" d="M401.5,-296.97C423.93,-287.75 459.84,-272.06 489,-255 509.34,-243.11 512.08,-236.58 532,-224 550.25,-212.48 571.65,-200.79 588.02,-192.21"/>
<polygon fill="midnightblue" stroke="midnightblue" points="589.74,-195.26 597.01,-187.55 586.52,-189.05 589.74,-195.26"/>
</g>
<!-- Node13 -->
<g id="node13" class="node">
<title>Node13</title>
<g id="a_node13"><a xlink:href="c__math_8h.html" target="_top" xlink:title=" ">
<polygon fill="white" stroke="black" points="364,-230 364,-249 480,-249 480,-230 364,-230"/>
<text text-anchor="middle" x="422" y="-237" font-family="Helvetica,sans-Serif" font-size="10.00">SComponent/c_math.h</text>
</a>
</g>
</g>
<!-- Node12&#45;&gt;Node13 -->
<g id="edge17" class="edge">
<title>Node12&#45;&gt;Node13</title>
<path fill="none" stroke="midnightblue" d="M385.66,-296.73C392.09,-286.79 402.72,-270.34 410.83,-257.79"/>
<polygon fill="midnightblue" stroke="midnightblue" points="413.94,-259.43 416.43,-249.13 408.06,-255.63 413.94,-259.43"/>
</g>
<!-- Node14 -->
<g id="node14" class="node">
<title>Node14</title>
<g id="a_node14"><a xlink:href="mtx__vec_8h.html" target="_top" xlink:title=" ">
<polygon fill="white" stroke="black" points="345.5,-168.5 345.5,-187.5 406.5,-187.5 406.5,-168.5 345.5,-168.5"/>
<text text-anchor="middle" x="376" y="-175.5" font-family="Helvetica,sans-Serif" font-size="10.00">mtx_vec.h</text>
</a>
</g>
</g>
<!-- Node12&#45;&gt;Node14 -->
<g id="edge20" class="edge">
<title>Node12&#45;&gt;Node14</title>
<path fill="none" stroke="midnightblue" d="M374.05,-296.67C367.89,-286.95 358.66,-270.62 355,-255 351.86,-241.58 352.02,-237.45 355,-224 357.12,-214.43 361.51,-204.48 365.72,-196.37"/>
<polygon fill="midnightblue" stroke="midnightblue" points="368.82,-198 370.62,-187.56 362.7,-194.6 368.82,-198"/>
</g>
<!-- Node13&#45;&gt;Node3 -->
<g id="edge18" class="edge">
<title>Node13&#45;&gt;Node3</title>
<path fill="none" stroke="midnightblue" d="M449.51,-229.98C483.63,-219.4 541.84,-201.36 579.08,-189.82"/>
<polygon fill="midnightblue" stroke="midnightblue" points="580.47,-193.06 588.99,-186.75 578.4,-186.37 580.47,-193.06"/>
</g>
<!-- Node14&#45;&gt;Node4 -->
<g id="edge21" class="edge">
<title>Node14&#45;&gt;Node4</title>
<path fill="none" stroke="midnightblue" d="M379.84,-168.29C390.25,-145.74 421.37,-85.15 467,-56 515.24,-25.18 581.16,-15.14 626.19,-12.04"/>
<polygon fill="midnightblue" stroke="midnightblue" points="626.54,-15.53 636.32,-11.44 626.13,-8.54 626.54,-15.53"/>
</g>
<!-- Node15&#45;&gt;Node3 -->
<g id="edge25" class="edge">
<title>Node15&#45;&gt;Node3</title>
<path fill="none" stroke="midnightblue" d="M257.37,-358.2C252.81,-328.5 247.17,-259.93 284,-224 304.87,-203.64 497.7,-187.43 578.57,-181.47"/>
<polygon fill="midnightblue" stroke="midnightblue" points="579.04,-184.94 588.76,-180.73 578.53,-177.96 579.04,-184.94"/>
</g>
<!-- Node15&#45;&gt;Node12 -->
<g id="edge24" class="edge">
<title>Node15&#45;&gt;Node12</title>
<path fill="none" stroke="midnightblue" d="M286.04,-358.4C306.63,-347.24 335.17,-331.78 355.38,-320.83"/>
<polygon fill="midnightblue" stroke="midnightblue" points="357.17,-323.85 364.29,-316.01 353.83,-317.69 357.17,-323.85"/>
</g>
<!-- Node16&#45;&gt;Node3 -->
<g id="edge28" class="edge">
<title>Node16&#45;&gt;Node3</title>
<path fill="none" stroke="midnightblue" d="M438.66,-358.27C447.05,-341.2 462.64,-312.23 481,-291 497.53,-271.89 505.61,-271.2 525,-255 549.92,-234.17 578.42,-209.72 596.31,-194.3"/>
<polygon fill="midnightblue" stroke="midnightblue" points="598.9,-196.69 604.18,-187.5 594.32,-191.39 598.9,-196.69"/>
</g>
<!-- Node16&#45;&gt;Node12 -->
<g id="edge27" class="edge">
<title>Node16&#45;&gt;Node12</title>
<path fill="none" stroke="midnightblue" d="M420.72,-358.4C412.69,-348.36 401.87,-334.84 393.4,-324.25"/>
<polygon fill="midnightblue" stroke="midnightblue" points="395.94,-321.82 386.96,-316.19 390.47,-326.19 395.94,-321.82"/>
</g>
<!-- Node17&#45;&gt;Node3 -->
<g id="edge44" class="edge">
<title>Node17&#45;&gt;Node3</title>
<path fill="none" stroke="midnightblue" d="M545.74,-438.75C495.6,-435.73 419.66,-424.91 365,-389 324.47,-362.37 304.63,-337.89 317,-291 325.73,-257.9 327.01,-243.71 355,-224 390.54,-198.98 516.58,-186.28 578.77,-181.42"/>
<polygon fill="midnightblue" stroke="midnightblue" points="579.19,-184.9 588.89,-180.65 578.66,-177.92 579.19,-184.9"/>
</g>
<!-- Node18 -->
<g id="node18" class="node">
<title>Node18</title>
<g id="a_node18"><a xlink:href="c__bg__s__gnd__chk_8h.html" target="_top" xlink:title=" ">
<polygon fill="white" stroke="black" points="546,-358.5 546,-388.5 674,-388.5 674,-358.5 546,-358.5"/>
<text text-anchor="start" x="554" y="-376.5" font-family="Helvetica,sans-Serif" font-size="10.00">SComponent/c_bg_s_gnd</text>
<text text-anchor="middle" x="610" y="-365.5" font-family="Helvetica,sans-Serif" font-size="10.00">_chk.h</text>
</a>
</g>
</g>
<!-- Node17&#45;&gt;Node18 -->
<g id="edge30" class="edge">
<title>Node17&#45;&gt;Node18</title>
<path fill="none" stroke="midnightblue" d="M600.6,-425.4C602.05,-417.56 603.89,-407.6 605.56,-398.57"/>
<polygon fill="midnightblue" stroke="midnightblue" points="609.03,-399.05 607.4,-388.58 602.14,-397.77 609.03,-399.05"/>
</g>
<!-- Node22 -->
<g id="node22" class="node">
<title>Node22</title>
<g id="a_node22"><a xlink:href="d__bg__s__chk_8h.html" target="_top" xlink:title=" ">
<polygon fill="white" stroke="black" points="906,-291.5 906,-321.5 1010,-321.5 1010,-291.5 906,-291.5"/>
<text text-anchor="start" x="914" y="-309.5" font-family="Helvetica,sans-Serif" font-size="10.00">d/d_bg/d_bg_s/d_bg</text>
<text text-anchor="middle" x="958" y="-298.5" font-family="Helvetica,sans-Serif" font-size="10.00">_s_chk.h</text>
</a>
</g>
</g>
<!-- Node17&#45;&gt;Node22 -->
<g id="edge40" class="edge">
<title>Node17&#45;&gt;Node22</title>
<path fill="none" stroke="midnightblue" d="M650.2,-426.88C653.17,-426.23 656.12,-425.6 659,-425 748.72,-406.4 779.09,-428 862,-389 878.26,-381.35 913.23,-349.91 936.17,-328.39"/>
<polygon fill="midnightblue" stroke="midnightblue" points="938.58,-330.93 943.45,-321.52 933.78,-325.84 938.58,-330.93"/>
</g>
<!-- Node18&#45;&gt;Node2 -->
<g id="edge37" class="edge">
<title>Node18&#45;&gt;Node2</title>
<path fill="none" stroke="midnightblue" d="M598.07,-358.4C590.86,-349.88 581.52,-338.85 573.39,-329.23"/>
<polygon fill="midnightblue" stroke="midnightblue" points="576.04,-326.95 566.91,-321.58 570.7,-331.47 576.04,-326.95"/>
</g>
<!-- Node18&#45;&gt;Node3 -->
<g id="edge39" class="edge">
<title>Node18&#45;&gt;Node3</title>
<path fill="none" stroke="midnightblue" d="M616.91,-358.31C621.35,-348.4 626.69,-334.72 629,-322 637.05,-277.75 626.34,-224.95 619.29,-197.56"/>
<polygon fill="midnightblue" stroke="midnightblue" points="622.63,-196.51 616.64,-187.77 615.87,-198.34 622.63,-196.51"/>
</g>
<!-- Node18&#45;&gt;Node12 -->
<g id="edge38" class="edge">
<title>Node18&#45;&gt;Node12</title>
<path fill="none" stroke="midnightblue" d="M560.38,-358.48C518.43,-346.62 459.11,-329.86 420.12,-318.84"/>
<polygon fill="midnightblue" stroke="midnightblue" points="420.75,-315.38 410.18,-316.03 418.85,-322.12 420.75,-315.38"/>
</g>
<!-- Node19 -->
<g id="node19" class="node">
<title>Node19</title>
<g id="a_node19"><a xlink:href="c__bg__s__chk_8h.html" target="_top" xlink:title=" ">
<polygon fill="white" stroke="black" points="752,-297 752,-316 888,-316 888,-297 752,-297"/>
<text text-anchor="middle" x="820" y="-304" font-family="Helvetica,sans-Serif" font-size="10.00">SComponent/c_bg_s_chk.h</text>
</a>
</g>
</g>
<!-- Node18&#45;&gt;Node19 -->
<g id="edge31" class="edge">
<title>Node18&#45;&gt;Node19</title>
<path fill="none" stroke="midnightblue" d="M655.31,-358.48C693.28,-346.72 746.84,-330.14 782.46,-319.12"/>
<polygon fill="midnightblue" stroke="midnightblue" points="783.93,-322.33 792.45,-316.03 781.86,-315.64 783.93,-322.33"/>
</g>
<!-- Node19&#45;&gt;Node3 -->
<g id="edge36" class="edge">
<title>Node19&#45;&gt;Node3</title>
<path fill="none" stroke="midnightblue" d="M812.62,-296.72C798.48,-280.39 765.97,-245.09 732,-224 706.09,-207.91 673.49,-196.02 649.12,-188.51"/>
<polygon fill="midnightblue" stroke="midnightblue" points="649.81,-185.07 639.23,-185.56 647.81,-191.77 649.81,-185.07"/>
</g>
<!-- Node20 -->
<g id="node20" class="node">
<title>Node20</title>
<g id="a_node20"><a xlink:href="d__bg__s__grp__pass__chk_8h.html" target="_top" xlink:title=" ">
<polygon fill="white" stroke="black" points="784,-224.5 784,-254.5 888,-254.5 888,-224.5 784,-224.5"/>
<text text-anchor="start" x="792" y="-242.5" font-family="Helvetica,sans-Serif" font-size="10.00">d/d_bg/d_bg_s/d_bg</text>
<text text-anchor="middle" x="836" y="-231.5" font-family="Helvetica,sans-Serif" font-size="10.00">_s_grp_pass_chk.h</text>
</a>
</g>
</g>
<!-- Node19&#45;&gt;Node20 -->
<g id="edge32" class="edge">
<title>Node19&#45;&gt;Node20</title>
<path fill="none" stroke="midnightblue" d="M822.16,-296.73C824.2,-288.46 827.34,-275.66 830.12,-264.37"/>
<polygon fill="midnightblue" stroke="midnightblue" points="833.54,-265.14 832.53,-254.59 826.74,-263.46 833.54,-265.14"/>
</g>
<!-- Node21 -->
<g id="node21" class="node">
<title>Node21</title>
<g id="a_node21"><a xlink:href="d__bg__s__poly__pass__chk_8h.html" target="_top" xlink:title=" ">
<polygon fill="white" stroke="black" points="906,-224.5 906,-254.5 1010,-254.5 1010,-224.5 906,-224.5"/>
<text text-anchor="start" x="914" y="-242.5" font-family="Helvetica,sans-Serif" font-size="10.00">d/d_bg/d_bg_s/d_bg</text>
<text text-anchor="middle" x="958" y="-231.5" font-family="Helvetica,sans-Serif" font-size="10.00">_s_poly_pass_chk.h</text>
</a>
</g>
</g>
<!-- Node19&#45;&gt;Node21 -->
<g id="edge34" class="edge">
<title>Node19&#45;&gt;Node21</title>
<path fill="none" stroke="midnightblue" d="M838.33,-296.87C858.76,-287.24 892.42,-271.39 918.85,-258.94"/>
<polygon fill="midnightblue" stroke="midnightblue" points="920.66,-261.96 928.22,-254.53 917.68,-255.62 920.66,-261.96"/>
</g>
<!-- Node20&#45;&gt;Node4 -->
<g id="edge33" class="edge">
<title>Node20&#45;&gt;Node4</title>
<path fill="none" stroke="midnightblue" d="M830.38,-224.02C817.26,-191.46 782.11,-111.01 735,-56 724.83,-44.12 711.08,-33.29 699.52,-25.23"/>
<polygon fill="midnightblue" stroke="midnightblue" points="701.46,-22.32 691.21,-19.64 697.55,-28.12 701.46,-22.32"/>
</g>
<!-- Node21&#45;&gt;Node4 -->
<g id="edge35" class="edge">
<title>Node21&#45;&gt;Node4</title>
<path fill="none" stroke="midnightblue" d="M944.23,-224.08C912.8,-191.63 832.59,-111.4 756,-56 739.48,-44.05 719.51,-32.7 703.79,-24.39"/>
<polygon fill="midnightblue" stroke="midnightblue" points="705.1,-21.13 694.61,-19.63 701.88,-27.34 705.1,-21.13"/>
</g>
<!-- Node22&#45;&gt;Node3 -->
<g id="edge43" class="edge">
<title>Node22&#45;&gt;Node3</title>
<path fill="none" stroke="midnightblue" d="M981.25,-291.37C1005.96,-274.65 1038.92,-246.26 1019,-224 994.52,-196.65 743.64,-184.07 649.46,-180.29"/>
<polygon fill="midnightblue" stroke="midnightblue" points="649.42,-176.78 639.29,-179.89 649.15,-183.78 649.42,-176.78"/>
</g>
<!-- Node22&#45;&gt;Node20 -->
<g id="edge41" class="edge">
<title>Node22&#45;&gt;Node20</title>
<path fill="none" stroke="midnightblue" d="M931.53,-291.4C913.94,-282.03 890.65,-269.62 871.46,-259.39"/>
<polygon fill="midnightblue" stroke="midnightblue" points="872.89,-256.19 862.42,-254.58 869.6,-262.37 872.89,-256.19"/>
</g>
<!-- Node22&#45;&gt;Node21 -->
<g id="edge42" class="edge">
<title>Node22&#45;&gt;Node21</title>
<path fill="none" stroke="midnightblue" d="M958,-291.4C958,-283.64 958,-273.81 958,-264.86"/>
<polygon fill="midnightblue" stroke="midnightblue" points="961.5,-264.58 958,-254.58 954.5,-264.58 961.5,-264.58"/>
</g>
<!-- Node23&#45;&gt;Node3 -->
<g id="edge48" class="edge">
<title>Node23&#45;&gt;Node3</title>
<path fill="none" stroke="midnightblue" d="M716.04,-425.48C705.93,-390.51 677.45,-297.02 642,-224 637.33,-214.38 631.13,-204.21 625.75,-195.99"/>
<polygon fill="midnightblue" stroke="midnightblue" points="628.63,-194 620.15,-187.65 622.82,-197.9 628.63,-194"/>
</g>
<!-- Node23&#45;&gt;Node18 -->
<g id="edge46" class="edge">
<title>Node23&#45;&gt;Node18</title>
<path fill="none" stroke="midnightblue" d="M696.13,-425.4C680.42,-416.11 659.65,-403.84 642.45,-393.67"/>
<polygon fill="midnightblue" stroke="midnightblue" points="644.21,-390.65 633.82,-388.58 640.65,-396.68 644.21,-390.65"/>
</g>
<!-- Node23&#45;&gt;Node22 -->
<g id="edge47" class="edge">
<title>Node23&#45;&gt;Node22</title>
<path fill="none" stroke="midnightblue" d="M772.37,-426.18C825.11,-412.62 899.49,-393.02 905,-389 925.23,-374.24 939.81,-349.22 948.49,-330.79"/>
<polygon fill="midnightblue" stroke="midnightblue" points="951.72,-332.14 952.61,-321.59 945.33,-329.29 951.72,-332.14"/>
</g>
<!-- Node24&#45;&gt;Node3 -->
<g id="edge56" class="edge">
<title>Node24&#45;&gt;Node3</title>
<path fill="none" stroke="midnightblue" d="M872.29,-425.39C942.3,-390.97 1104.32,-299.99 1036,-224 1010.3,-195.42 746.1,-183.53 649.29,-180.11"/>
<polygon fill="midnightblue" stroke="midnightblue" points="649.25,-176.61 639.14,-179.77 649.01,-183.61 649.25,-176.61"/>
</g>
<!-- Node25 -->
<g id="node25" class="node">
<title>Node25</title>
<g id="a_node25"><a xlink:href="d__bg__s__spl__grp__chk_8h.html" target="_top" xlink:title=" ">
<polygon fill="white" stroke="black" points="749,-358.5 749,-388.5 853,-388.5 853,-358.5 749,-358.5"/>
<text text-anchor="start" x="757" y="-376.5" font-family="Helvetica,sans-Serif" font-size="10.00">d/d_bg/d_bg_s/d_bg</text>
<text text-anchor="middle" x="801" y="-365.5" font-family="Helvetica,sans-Serif" font-size="10.00">_s_spl_grp_chk.h</text>
</a>
</g>
</g>
<!-- Node24&#45;&gt;Node25 -->
<g id="edge50" class="edge">
<title>Node24&#45;&gt;Node25</title>
<path fill="none" stroke="midnightblue" d="M833.1,-425.4C827.89,-417.13 821.19,-406.51 815.26,-397.1"/>
<polygon fill="midnightblue" stroke="midnightblue" points="818.17,-395.17 809.88,-388.58 812.25,-398.9 818.17,-395.17"/>
</g>
<!-- Node25&#45;&gt;Node2 -->
<g id="edge52" class="edge">
<title>Node25&#45;&gt;Node2</title>
<path fill="none" stroke="midnightblue" d="M748.83,-358.72C710.65,-348.63 658.67,-334.89 618.14,-324.18"/>
<polygon fill="midnightblue" stroke="midnightblue" points="618.93,-320.77 608.37,-321.6 617.14,-327.54 618.93,-320.77"/>
</g>
<!-- Node25&#45;&gt;Node3 -->
<g id="edge55" class="edge">
<title>Node25&#45;&gt;Node3</title>
<path fill="none" stroke="midnightblue" d="M781.23,-358.45C769.1,-349.12 753.87,-336.04 743,-322 713.18,-283.5 727.58,-259.26 694,-224 680.8,-210.14 662.39,-199.39 646.55,-191.87"/>
<polygon fill="midnightblue" stroke="midnightblue" points="647.65,-188.52 637.09,-187.61 644.77,-194.91 647.65,-188.52"/>
</g>
<!-- Node25&#45;&gt;Node12 -->
<g id="edge53" class="edge">
<title>Node25&#45;&gt;Node12</title>
<path fill="none" stroke="midnightblue" d="M748.95,-364.46C671.77,-352.55 527.1,-330.21 443.69,-317.33"/>
<polygon fill="midnightblue" stroke="midnightblue" points="444,-313.84 433.58,-315.77 442.93,-320.76 444,-313.84"/>
</g>
<!-- Node25&#45;&gt;Node19 -->
<g id="edge51" class="edge">
<title>Node25&#45;&gt;Node19</title>
<path fill="none" stroke="midnightblue" d="M805.12,-358.4C807.91,-348.86 811.62,-336.18 814.63,-325.86"/>
<polygon fill="midnightblue" stroke="midnightblue" points="818.01,-326.77 817.46,-316.19 811.29,-324.81 818.01,-326.77"/>
</g>
<!-- Node25&#45;&gt;Node22 -->
<g id="edge54" class="edge">
<title>Node25&#45;&gt;Node22</title>
<path fill="none" stroke="midnightblue" d="M835.07,-358.4C858.42,-348.73 889.59,-335.82 914.7,-325.43"/>
<polygon fill="midnightblue" stroke="midnightblue" points="916.1,-328.64 924,-321.58 913.42,-322.17 916.1,-328.64"/>
</g>
</g>
</svg>
        <g id="navigator" transform="translate(0 0)" fill="#404254">
                <rect fill="#f2f5e9" fill-opacity="0.5" stroke="#606060" stroke-width=".5" x="0" y="0" width="60" height="60"/>
                <use id="zoomplus" xlink:href="#zoomPlus" x="17" y="9" onmousedown="handleZoom(evt,'in')"/>
                <use id="zoomminus" xlink:href="#zoomMin" x="42" y="9" onmousedown="handleZoom(evt,'out')"/>
                <use id="reset" xlink:href="#resetDef" x="30" y="36" onmousedown="handleReset()"/>
                <g id="arrowUp" xlink:href="#dirArrow" transform="translate(30 24)" onmousedown="handlePan(0,-1)">
                  <use xlink:href="#rim" fill="#404040">
                        <set attributeName="fill" to="#808080" begin="arrowUp.mouseover" end="arrowUp.mouseout"/>
                  </use>
                  <path fill="none" stroke="white" stroke-width="1.5" d="M0,-3.0v7 M-2.5,-0.5L0,-3.0L2.5,-0.5"/>
                </g>
                <g id="arrowRight" xlink:href="#dirArrow" transform="rotate(90) translate(36 -43)" onmousedown="handlePan(1,0)">
                  <use xlink:href="#rim" fill="#404040">
                        <set attributeName="fill" to="#808080" begin="arrowRight.mouseover" end="arrowRight.mouseout"/>
                  </use>
                  <path fill="none" stroke="white" stroke-width="1.5" d="M0,-3.0v7 M-2.5,-0.5L0,-3.0L2.5,-0.5"/>
                </g>
                <g id="arrowDown" xlink:href="#dirArrow" transform="rotate(180) translate(-30 -48)" onmousedown="handlePan(0,1)">
                  <use xlink:href="#rim" fill="#404040">
                        <set attributeName="fill" to="#808080" begin="arrowDown.mouseover" end="arrowDown.mouseout"/>
                  </use>
                  <path fill="none" stroke="white" stroke-width="1.5" d="M0,-3.0v7 M-2.5,-0.5L0,-3.0L2.5,-0.5"/>
                </g>
                <g id="arrowLeft" xlink:href="#dirArrow" transform="rotate(270) translate(-36 17)" onmousedown="handlePan(-1,0)">
                  <use xlink:href="#rim" fill="#404040">
                        <set attributeName="fill" to="#808080" begin="arrowLeft.mouseover" end="arrowLeft.mouseout"/>
                  </use>
                  <path fill="none" stroke="white" stroke-width="1.5" d="M0,-3.0v7 M-2.5,-0.5L0,-3.0L2.5,-0.5"/>
                </g>
        </g>
        <svg viewBox="0 0 15 15" width="100%" height="30px" preserveAspectRatio="xMaxYMin meet">
         <g id="arrow_out" transform="scale(0.3 0.3)">
          <a xlink:href="d__bg__s__acch_8h__incl_org.svg" target="_base">
           <rect id="button" ry="5" rx="5" y="6" x="6" height="38" width="38"
                fill="#f2f5e9" fill-opacity="0.5" stroke="#606060" stroke-width="1.0"/>
           <path id="arrow"
             d="M 11.500037,31.436501 C 11.940474,20.09759 22.043105,11.32322 32.158766,21.979434 L 37.068811,17.246167 C 37.068811,17.246167 37.088388,32 37.088388,32 L 22.160133,31.978069 C 22.160133,31.978069 26.997745,27.140456 26.997745,27.140456 C 18.528582,18.264221 13.291696,25.230495 11.500037,31.436501 z"
             style="fill:#404040;"/>
          </a>
         </g>
        </svg>
</svg>
