<?xml version="1.0" encoding="UTF-8" standalone="no"?>
<!DOCTYPE svg PUBLIC "-//W3C//DTD SVG 1.1//EN"
 "http://www.w3.org/Graphics/SVG/1.1/DTD/svg11.dtd">
<!-- Generated by graphviz version 2.44.0 ()
 -->
<!-- Title: include/d/d_bg/d_bg_s/d_bg_s_gnd_chk.h Pages: 1 -->
<svg width="252pt" height="296pt"
 viewBox="0.00 0.00 252.00 296.00" xmlns="http://www.w3.org/2000/svg" xmlns:xlink="http://www.w3.org/1999/xlink">
<g id="graph0" class="graph" transform="scale(1 1) rotate(0) translate(4 292)">
<title>include/d/d_bg/d_bg_s/d_bg_s_gnd_chk.h</title>
<polygon fill="white" stroke="transparent" points="-4,4 -4,-292 248,-292 248,4 -4,4"/>
<!-- Node1 -->
<g id="node1" class="node">
<title>Node1</title>
<g id="a_node1"><a xlink:title=" ">
<polygon fill="#bfbfbf" stroke="black" points="63,-257.5 63,-287.5 174,-287.5 174,-257.5 63,-257.5"/>
<text text-anchor="start" x="71" y="-275.5" font-family="Helvetica,sans-Serif" font-size="10.00">include/d/d_bg/d_bg</text>
<text text-anchor="middle" x="118.5" y="-264.5" font-family="Helvetica,sans-Serif" font-size="10.00">_s/d_bg_s_gnd_chk.h</text>
</a>
</g>
</g>
<!-- Node2 -->
<g id="node2" class="node">
<title>Node2</title>
<g id="a_node2"><a xlink:href="d__bg__s__acch_8h.html" target="_top" xlink:title=" ">
<polygon fill="white" stroke="black" points="66.5,-190.5 66.5,-220.5 170.5,-220.5 170.5,-190.5 66.5,-190.5"/>
<text text-anchor="start" x="74.5" y="-208.5" font-family="Helvetica,sans-Serif" font-size="10.00">include/d/d_bg/d_bg</text>
<text text-anchor="middle" x="118.5" y="-197.5" font-family="Helvetica,sans-Serif" font-size="10.00">_s/d_bg_s_acch.h</text>
</a>
</g>
</g>
<!-- Node1&#45;&gt;Node2 -->
<g id="edge1" class="edge">
<title>Node1&#45;&gt;Node2</title>
<path fill="none" stroke="midnightblue" d="M118.5,-247.11C118.5,-238.15 118.5,-228.32 118.5,-220.58"/>
<polygon fill="midnightblue" stroke="midnightblue" points="115,-247.4 118.5,-257.4 122,-247.4 115,-247.4"/>
</g>
<!-- Node3 -->
<g id="node3" class="node">
<title>Node3</title>
<g id="a_node3"><a xlink:href="d__a__alink_8h.html" target="_top" xlink:title=" ">
<polygon fill="white" stroke="black" points="59,-56.5 59,-86.5 178,-86.5 178,-56.5 59,-56.5"/>
<text text-anchor="start" x="67" y="-74.5" font-family="Helvetica,sans-Serif" font-size="10.00">include/d/d_a/d_a_alink</text>
<text text-anchor="middle" x="118.5" y="-63.5" font-family="Helvetica,sans-Serif" font-size="10.00">/d_a_alink.h</text>
</a>
</g>
</g>
<!-- Node2&#45;&gt;Node3 -->
<g id="edge2" class="edge">
<title>Node2&#45;&gt;Node3</title>
<path fill="none" stroke="midnightblue" d="M107.15,-181.21C103.65,-172.84 100.25,-163.19 98.5,-154 95.92,-140.47 95.92,-136.53 98.5,-123 100.94,-110.22 106.56,-96.54 111.22,-86.65"/>
<polygon fill="midnightblue" stroke="midnightblue" points="103.96,-182.64 111.22,-190.35 110.35,-179.79 103.96,-182.64"/>
</g>
<!-- Node6 -->
<g id="node6" class="node">
<title>Node6</title>
<g id="a_node6"><a xlink:href="d__particle__copoly_8h.html" target="_top" xlink:title=" ">
<polygon fill="white" stroke="black" points="107.5,-123.5 107.5,-153.5 209.5,-153.5 209.5,-123.5 107.5,-123.5"/>
<text text-anchor="start" x="115.5" y="-141.5" font-family="Helvetica,sans-Serif" font-size="10.00">include/d/d_particle</text>
<text text-anchor="middle" x="158.5" y="-130.5" font-family="Helvetica,sans-Serif" font-size="10.00">/d_particle_copoly.h</text>
</a>
</g>
</g>
<!-- Node2&#45;&gt;Node6 -->
<g id="edge5" class="edge">
<title>Node2&#45;&gt;Node6</title>
<path fill="none" stroke="midnightblue" d="M132.43,-181.87C138.22,-172.46 144.76,-161.83 149.84,-153.58"/>
<polygon fill="midnightblue" stroke="midnightblue" points="129.44,-180.05 127.18,-190.4 135.4,-183.71 129.44,-180.05"/>
</g>
<!-- Node4 -->
<g id="node4" class="node">
<title>Node4</title>
<g id="a_node4"><a xlink:href="d__attention_8cpp.html" target="_top" xlink:title=" ">
<polygon fill="white" stroke="black" points="0,-0.5 0,-19.5 107,-19.5 107,-0.5 0,-0.5"/>
<text text-anchor="middle" x="53.5" y="-7.5" font-family="Helvetica,sans-Serif" font-size="10.00">src/d/d_attention.cpp</text>
</a>
</g>
</g>
<!-- Node3&#45;&gt;Node4 -->
<g id="edge3" class="edge">
<title>Node3&#45;&gt;Node4</title>
<path fill="none" stroke="midnightblue" d="M95.67,-49.6C84.43,-39.32 71.51,-27.48 62.96,-19.66"/>
<polygon fill="midnightblue" stroke="midnightblue" points="93.36,-52.23 103.1,-56.4 98.08,-47.07 93.36,-52.23"/>
</g>
<!-- Node5 -->
<g id="node5" class="node">
<title>Node5</title>
<g id="a_node5"><a xlink:href="d__a__alink_8cpp.html" target="_top" xlink:title=" ">
<polygon fill="white" stroke="black" points="125,-0.5 125,-19.5 244,-19.5 244,-0.5 125,-0.5"/>
<text text-anchor="middle" x="184.5" y="-7.5" font-family="Helvetica,sans-Serif" font-size="10.00">src/d/d_a/d_a_alink.cpp</text>
</a>
</g>
</g>
<!-- Node3&#45;&gt;Node5 -->
<g id="edge4" class="edge">
<title>Node3&#45;&gt;Node5</title>
<path fill="none" stroke="midnightblue" d="M141.69,-49.6C153.09,-39.32 166.22,-27.48 174.9,-19.66"/>
<polygon fill="midnightblue" stroke="midnightblue" points="139.22,-47.1 134.14,-56.4 143.91,-52.3 139.22,-47.1"/>
</g>
<!-- Node6&#45;&gt;Node3 -->
<g id="edge6" class="edge">
<title>Node6&#45;&gt;Node3</title>
<path fill="none" stroke="midnightblue" d="M144.57,-114.87C138.78,-105.46 132.24,-94.83 127.16,-86.58"/>
<polygon fill="midnightblue" stroke="midnightblue" points="141.6,-116.71 149.82,-123.4 147.56,-113.05 141.6,-116.71"/>
</g>
</g>
</svg>
