<?xml version="1.0" encoding="UTF-8" standalone="no"?>
<!DOCTYPE svg PUBLIC "-//W3C//DTD SVG 1.1//EN"
 "http://www.w3.org/Graphics/SVG/1.1/DTD/svg11.dtd">
<!-- Generated by graphviz version 2.44.0 ()
 -->
<!-- Title: include/d/d_bg/d_bg_s/d_bg_s_poly_pass_chk.h Pages: 1 -->
<!--zoomable 497 -->
<svg id="main" version="1.1" xmlns="http://www.w3.org/2000/svg" xmlns:xlink="http://www.w3.org/1999/xlink" xml:space="preserve" onload="init(evt)">
<style type="text/css"><![CDATA[
.edge:hover path { stroke: red; }
.edge:hover polygon { stroke: red; fill: red; }
]]></style>
<script type="text/javascript"><![CDATA[
var edges = document.getElementsByTagName('g');
if (edges && edges.length) {
  for (var i=0;i<edges.length;i++) {
    if (edges[i].id.substr(0,4)=='edge') {
      edges[i].setAttribute('class','edge');
    }
  }
}
]]></script>
        <defs>
                <circle id="rim" cx="0" cy="0" r="7"/>
                <circle id="rim2" cx="0" cy="0" r="3.5"/>
                <g id="zoomPlus">
                        <use xlink:href="#rim" fill="#404040">
                                <set attributeName="fill" to="#808080" begin="zoomplus.mouseover" end="zoomplus.mouseout"/>
                        </use>
                        <path d="M-4,0h8M0,-4v8" fill="none" stroke="white" stroke-width="1.5" pointer-events="none"/>
                </g>
                <g id="zoomMin">
                        <use xlink:href="#rim" fill="#404040">
                                <set attributeName="fill" to="#808080" begin="zoomminus.mouseover" end="zoomminus.mouseout"/>
                        </use>
                        <path d="M-4,0h8" fill="none" stroke="white" stroke-width="1.5" pointer-events="none"/>
                </g>
                <g id="dirArrow">
                        <path fill="none" stroke="white" stroke-width="1.5" d="M0,-3.0v7 M-2.5,-0.5L0,-3.0L2.5,-0.5"/>
                </g>
               <g id="resetDef">
                       <use xlink:href="#rim2" fill="#404040">
                               <set attributeName="fill" to="#808080" begin="reset.mouseover" end="reset.mouseout"/>
                       </use>
               </g>
        </defs>

<script type="text/javascript">
var viewWidth = 1247;
var viewHeight = 497;
var sectionId = 'dynsection-1';
</script>
<script xlink:href="svgpan.js"/>
<svg id="graph" class="graph">
<g id="viewport">
<title>include/d/d_bg/d_bg_s/d_bg_s_poly_pass_chk.h</title>
<polygon fill="white" stroke="transparent" points="-4,4 -4,-493 1242.5,-493 1242.5,4 -4,4"/>
<!-- Node1 -->
<g id="node1" class="node">
<title>Node1</title>
<g id="a_node1"><a xlink:title=" ">
<polygon fill="#bfbfbf" stroke="black" points="298,-458.5 298,-488.5 437,-488.5 437,-458.5 298,-458.5"/>
<text text-anchor="start" x="306" y="-476.5" font-family="Helvetica,sans-Serif" font-size="10.00">include/d/d_bg/d_bg</text>
<text text-anchor="middle" x="367.5" y="-465.5" font-family="Helvetica,sans-Serif" font-size="10.00">_s/d_bg_s_poly_pass_chk.h</text>
</a>
</g>
</g>
<!-- Node2 -->
<g id="node2" class="node">
<title>Node2</title>
<g id="a_node2"><a xlink:href="d__bg__s__poly__pass__chk_8cpp.html" target="_top" xlink:title=" ">
<polygon fill="white" stroke="black" points="0,-391.5 0,-421.5 119,-421.5 119,-391.5 0,-391.5"/>
<text text-anchor="start" x="8" y="-409.5" font-family="Helvetica,sans-Serif" font-size="10.00">src/d/d_bg/d_bg_s_poly</text>
<text text-anchor="middle" x="59.5" y="-398.5" font-family="Helvetica,sans-Serif" font-size="10.00">_pass_chk.cpp</text>
</a>
</g>
</g>
<!-- Node1&#45;&gt;Node2 -->
<g id="edge1" class="edge">
<title>Node1&#45;&gt;Node2</title>
<path fill="none" stroke="midnightblue" d="M290.99,-456.35C237.85,-445.14 168.07,-430.41 119.06,-420.07"/>
<polygon fill="midnightblue" stroke="midnightblue" points="290.54,-459.84 301.05,-458.48 291.99,-452.99 290.54,-459.84"/>
</g>
<!-- Node3 -->
<g id="node3" class="node">
<title>Node3</title>
<g id="a_node3"><a xlink:href="d__camera_8cpp.html" target="_top" xlink:title=" ">
<polygon fill="white" stroke="black" points="137.5,-397 137.5,-416 239.5,-416 239.5,-397 137.5,-397"/>
<text text-anchor="middle" x="188.5" y="-404" font-family="Helvetica,sans-Serif" font-size="10.00">src/d/d_camera.cpp</text>
</a>
</g>
</g>
<!-- Node1&#45;&gt;Node3 -->
<g id="edge2" class="edge">
<title>Node1&#45;&gt;Node3</title>
<path fill="none" stroke="midnightblue" d="M319.16,-454.95C284.39,-442.32 239.03,-425.85 211.93,-416.01"/>
<polygon fill="midnightblue" stroke="midnightblue" points="318.07,-458.27 328.66,-458.4 320.45,-451.69 318.07,-458.27"/>
</g>
<!-- Node4 -->
<g id="node4" class="node">
<title>Node4</title>
<g id="a_node4"><a xlink:href="d__kankyo__rain_8cpp.html" target="_top" xlink:title=" ">
<polygon fill="white" stroke="black" points="258,-391.5 258,-421.5 385,-421.5 385,-391.5 258,-391.5"/>
<text text-anchor="start" x="266" y="-409.5" font-family="Helvetica,sans-Serif" font-size="10.00">src/d/d_kankyo/d_kankyo</text>
<text text-anchor="middle" x="321.5" y="-398.5" font-family="Helvetica,sans-Serif" font-size="10.00">_rain.cpp</text>
</a>
</g>
</g>
<!-- Node1&#45;&gt;Node4 -->
<g id="edge3" class="edge">
<title>Node1&#45;&gt;Node4</title>
<path fill="none" stroke="midnightblue" d="M351.69,-450.16C344.98,-440.68 337.37,-429.92 331.46,-421.58"/>
<polygon fill="midnightblue" stroke="midnightblue" points="348.88,-452.26 357.52,-458.4 354.6,-448.21 348.88,-452.26"/>
</g>
<!-- Node5 -->
<g id="node5" class="node">
<title>Node5</title>
<g id="a_node5"><a xlink:href="d__a__alink_8cpp.html" target="_top" xlink:title=" ">
<polygon fill="white" stroke="black" points="386,-0.5 386,-19.5 505,-19.5 505,-0.5 386,-0.5"/>
<text text-anchor="middle" x="445.5" y="-7.5" font-family="Helvetica,sans-Serif" font-size="10.00">src/d/d_a/d_a_alink.cpp</text>
</a>
</g>
</g>
<!-- Node1&#45;&gt;Node5 -->
<g id="edge4" class="edge">
<title>Node1&#45;&gt;Node5</title>
<path fill="none" stroke="midnightblue" d="M380.82,-449.47C394.41,-423.77 413.5,-380.53 413.5,-340.5 413.5,-340.5 413.5,-340.5 413.5,-137.5 413.5,-91.97 433.23,-39.95 441.7,-19.7"/>
<polygon fill="midnightblue" stroke="midnightblue" points="377.66,-447.96 375.94,-458.41 383.8,-451.31 377.66,-447.96"/>
</g>
<!-- Node6 -->
<g id="node6" class="node">
<title>Node6</title>
<g id="a_node6"><a xlink:href="d__bg__s__chk_8h.html" target="_top" xlink:title=" ">
<polygon fill="white" stroke="black" points="575.5,-391.5 575.5,-421.5 679.5,-421.5 679.5,-391.5 575.5,-391.5"/>
<text text-anchor="start" x="583.5" y="-409.5" font-family="Helvetica,sans-Serif" font-size="10.00">include/d/d_bg/d_bg</text>
<text text-anchor="middle" x="627.5" y="-398.5" font-family="Helvetica,sans-Serif" font-size="10.00">_s/d_bg_s_chk.h</text>
</a>
</g>
</g>
<!-- Node1&#45;&gt;Node6 -->
<g id="edge5" class="edge">
<title>Node1&#45;&gt;Node6</title>
<path fill="none" stroke="midnightblue" d="M433.36,-456.04C477.42,-445.02 534.61,-430.72 575.48,-420.5"/>
<polygon fill="midnightblue" stroke="midnightblue" points="432.45,-452.66 423.6,-458.48 434.15,-459.45 432.45,-452.66"/>
</g>
<!-- Node16 -->
<g id="node16" class="node">
<title>Node16</title>
<g id="a_node16"><a xlink:href="c__bg__s__chk_8h.html" target="_top" xlink:title=" ">
<polygon fill="white" stroke="black" points="802,-391.5 802,-421.5 909,-421.5 909,-391.5 802,-391.5"/>
<text text-anchor="start" x="810" y="-409.5" font-family="Helvetica,sans-Serif" font-size="10.00">include/SComponent</text>
<text text-anchor="middle" x="855.5" y="-398.5" font-family="Helvetica,sans-Serif" font-size="10.00">/c_bg_s_chk.h</text>
</a>
</g>
</g>
<!-- Node1&#45;&gt;Node16 -->
<g id="edge20" class="edge">
<title>Node1&#45;&gt;Node16</title>
<path fill="none" stroke="midnightblue" d="M447.21,-461.88C547.21,-448.56 715.95,-426.09 801.82,-414.65"/>
<polygon fill="midnightblue" stroke="midnightblue" points="446.61,-458.43 437.16,-463.22 447.53,-465.37 446.61,-458.43"/>
</g>
<!-- Node7 -->
<g id="node7" class="node">
<title>Node7</title>
<g id="a_node7"><a xlink:href="d__bg__s__gnd__chk_8h.html" target="_top" xlink:title=" ">
<polygon fill="white" stroke="black" points="442,-257.5 442,-287.5 553,-287.5 553,-257.5 442,-257.5"/>
<text text-anchor="start" x="450" y="-275.5" font-family="Helvetica,sans-Serif" font-size="10.00">include/d/d_bg/d_bg</text>
<text text-anchor="middle" x="497.5" y="-264.5" font-family="Helvetica,sans-Serif" font-size="10.00">_s/d_bg_s_gnd_chk.h</text>
</a>
</g>
</g>
<!-- Node6&#45;&gt;Node7 -->
<g id="edge6" class="edge">
<title>Node6&#45;&gt;Node7</title>
<path fill="none" stroke="midnightblue" d="M606.57,-384.25C579.78,-357.04 534.12,-310.68 511.31,-287.52"/>
<polygon fill="midnightblue" stroke="midnightblue" points="604.08,-386.7 613.59,-391.37 609.06,-381.79 604.08,-386.7"/>
</g>
<!-- Node12 -->
<g id="node12" class="node">
<title>Node12</title>
<g id="a_node12"><a xlink:href="d__bg__s__lin__chk_8h.html" target="_top" xlink:title=" ">
<polygon fill="white" stroke="black" points="981,-257.5 981,-287.5 1086,-287.5 1086,-257.5 981,-257.5"/>
<text text-anchor="start" x="989" y="-275.5" font-family="Helvetica,sans-Serif" font-size="10.00">include/d/d_bg/d_bg</text>
<text text-anchor="middle" x="1033.5" y="-264.5" font-family="Helvetica,sans-Serif" font-size="10.00">_s/d_bg_s_lin_chk.h</text>
</a>
</g>
</g>
<!-- Node6&#45;&gt;Node12 -->
<g id="edge13" class="edge">
<title>Node6&#45;&gt;Node12</title>
<path fill="none" stroke="midnightblue" d="M690.09,-398.65C765.36,-389.79 886.79,-373.29 928.5,-355 933.44,-352.83 987.19,-310.35 1015.8,-287.6"/>
<polygon fill="midnightblue" stroke="midnightblue" points="689.31,-395.22 679.79,-399.85 690.12,-402.17 689.31,-395.22"/>
</g>
<!-- Node13 -->
<g id="node13" class="node">
<title>Node13</title>
<g id="a_node13"><a xlink:href="d__bg__s__roof__chk_8h.html" target="_top" xlink:title=" ">
<polygon fill="white" stroke="black" points="571.5,-257.5 571.5,-287.5 683.5,-287.5 683.5,-257.5 571.5,-257.5"/>
<text text-anchor="start" x="579.5" y="-275.5" font-family="Helvetica,sans-Serif" font-size="10.00">include/d/d_bg/d_bg</text>
<text text-anchor="middle" x="627.5" y="-264.5" font-family="Helvetica,sans-Serif" font-size="10.00">_s/d_bg_s_roof_chk.h</text>
</a>
</g>
</g>
<!-- Node6&#45;&gt;Node13 -->
<g id="edge15" class="edge">
<title>Node6&#45;&gt;Node13</title>
<path fill="none" stroke="midnightblue" d="M627.5,-381.02C627.5,-353.51 627.5,-309.79 627.5,-287.52"/>
<polygon fill="midnightblue" stroke="midnightblue" points="624,-381.37 627.5,-391.37 631,-381.37 624,-381.37"/>
</g>
<!-- Node14 -->
<g id="node14" class="node">
<title>Node14</title>
<g id="a_node14"><a xlink:href="d__bg__s__spl__grp__chk_8h.html" target="_top" xlink:title=" ">
<polygon fill="white" stroke="black" points="792,-324.5 792,-354.5 919,-354.5 919,-324.5 792,-324.5"/>
<text text-anchor="start" x="800" y="-342.5" font-family="Helvetica,sans-Serif" font-size="10.00">include/d/d_bg/d_bg</text>
<text text-anchor="middle" x="855.5" y="-331.5" font-family="Helvetica,sans-Serif" font-size="10.00">_s/d_bg_s_spl_grp_chk.h</text>
</a>
</g>
</g>
<!-- Node6&#45;&gt;Node14 -->
<g id="edge17" class="edge">
<title>Node6&#45;&gt;Node14</title>
<path fill="none" stroke="midnightblue" d="M686.38,-388.71C723.48,-378.14 770.84,-364.63 806,-354.61"/>
<polygon fill="midnightblue" stroke="midnightblue" points="685.35,-385.37 676.69,-391.48 687.27,-392.1 685.35,-385.37"/>
</g>
<!-- Node8 -->
<g id="node8" class="node">
<title>Node8</title>
<g id="a_node8"><a xlink:href="d__bg__s__acch_8h.html" target="_top" xlink:title=" ">
<polygon fill="white" stroke="black" points="575.5,-190.5 575.5,-220.5 679.5,-220.5 679.5,-190.5 575.5,-190.5"/>
<text text-anchor="start" x="583.5" y="-208.5" font-family="Helvetica,sans-Serif" font-size="10.00">include/d/d_bg/d_bg</text>
<text text-anchor="middle" x="627.5" y="-197.5" font-family="Helvetica,sans-Serif" font-size="10.00">_s/d_bg_s_acch.h</text>
</a>
</g>
</g>
<!-- Node7&#45;&gt;Node8 -->
<g id="edge7" class="edge">
<title>Node7&#45;&gt;Node8</title>
<path fill="none" stroke="midnightblue" d="M534.79,-252.85C555.35,-242.58 580.45,-230.03 599.35,-220.58"/>
<polygon fill="midnightblue" stroke="midnightblue" points="533.09,-249.79 525.71,-257.4 536.22,-256.05 533.09,-249.79"/>
</g>
<!-- Node9 -->
<g id="node9" class="node">
<title>Node9</title>
<g id="a_node9"><a xlink:href="d__a__alink_8h.html" target="_top" xlink:title=" ">
<polygon fill="white" stroke="black" points="548,-56.5 548,-86.5 667,-86.5 667,-56.5 548,-56.5"/>
<text text-anchor="start" x="556" y="-74.5" font-family="Helvetica,sans-Serif" font-size="10.00">include/d/d_a/d_a_alink</text>
<text text-anchor="middle" x="607.5" y="-63.5" font-family="Helvetica,sans-Serif" font-size="10.00">/d_a_alink.h</text>
</a>
</g>
</g>
<!-- Node8&#45;&gt;Node9 -->
<g id="edge8" class="edge">
<title>Node8&#45;&gt;Node9</title>
<path fill="none" stroke="midnightblue" d="M604.93,-182.62C597.95,-174.38 591.14,-164.46 587.5,-154 579.45,-130.88 590.58,-103.01 599.18,-86.58"/>
<polygon fill="midnightblue" stroke="midnightblue" points="602.54,-185.19 611.85,-190.25 607.72,-180.49 602.54,-185.19"/>
</g>
<!-- Node11 -->
<g id="node11" class="node">
<title>Node11</title>
<g id="a_node11"><a xlink:href="d__particle__copoly_8h.html" target="_top" xlink:title=" ">
<polygon fill="white" stroke="black" points="596.5,-123.5 596.5,-153.5 698.5,-153.5 698.5,-123.5 596.5,-123.5"/>
<text text-anchor="start" x="604.5" y="-141.5" font-family="Helvetica,sans-Serif" font-size="10.00">include/d/d_particle</text>
<text text-anchor="middle" x="647.5" y="-130.5" font-family="Helvetica,sans-Serif" font-size="10.00">/d_particle_copoly.h</text>
</a>
</g>
</g>
<!-- Node8&#45;&gt;Node11 -->
<g id="edge11" class="edge">
<title>Node8&#45;&gt;Node11</title>
<path fill="none" stroke="midnightblue" d="M634.82,-180.7C637.63,-171.59 640.73,-161.49 643.17,-153.58"/>
<polygon fill="midnightblue" stroke="midnightblue" points="631.44,-179.81 631.84,-190.4 638.13,-181.87 631.44,-179.81"/>
</g>
<!-- Node9&#45;&gt;Node5 -->
<g id="edge10" class="edge">
<title>Node9&#45;&gt;Node5</title>
<path fill="none" stroke="midnightblue" d="M559.7,-52.94C529.85,-41.98 492.73,-28.35 469.07,-19.66"/>
<polygon fill="midnightblue" stroke="midnightblue" points="558.51,-56.24 569.11,-56.4 560.93,-49.67 558.51,-56.24"/>
</g>
<!-- Node10 -->
<g id="node10" class="node">
<title>Node10</title>
<g id="a_node10"><a xlink:href="d__attention_8cpp.html" target="_top" xlink:title=" ">
<polygon fill="white" stroke="black" points="554,-0.5 554,-19.5 661,-19.5 661,-0.5 554,-0.5"/>
<text text-anchor="middle" x="607.5" y="-7.5" font-family="Helvetica,sans-Serif" font-size="10.00">src/d/d_attention.cpp</text>
</a>
</g>
</g>
<!-- Node9&#45;&gt;Node10 -->
<g id="edge9" class="edge">
<title>Node9&#45;&gt;Node10</title>
<path fill="none" stroke="midnightblue" d="M607.5,-46.29C607.5,-36.86 607.5,-26.65 607.5,-19.66"/>
<polygon fill="midnightblue" stroke="midnightblue" points="604,-46.4 607.5,-56.4 611,-46.4 604,-46.4"/>
</g>
<!-- Node11&#45;&gt;Node9 -->
<g id="edge12" class="edge">
<title>Node11&#45;&gt;Node9</title>
<path fill="none" stroke="midnightblue" d="M633.57,-114.87C627.78,-105.46 621.24,-94.83 616.16,-86.58"/>
<polygon fill="midnightblue" stroke="midnightblue" points="630.6,-116.71 638.82,-123.4 636.56,-113.05 630.6,-116.71"/>
</g>
<!-- Node12&#45;&gt;Node9 -->
<g id="edge14" class="edge">
<title>Node12&#45;&gt;Node9</title>
<path fill="none" stroke="midnightblue" d="M993.95,-253.02C909.47,-213.56 712.98,-121.77 637.64,-86.58"/>
<polygon fill="midnightblue" stroke="midnightblue" points="992.66,-256.29 1003.2,-257.35 995.63,-249.94 992.66,-256.29"/>
</g>
<!-- Node13&#45;&gt;Node8 -->
<g id="edge16" class="edge">
<title>Node13&#45;&gt;Node8</title>
<path fill="none" stroke="midnightblue" d="M627.5,-247.11C627.5,-238.15 627.5,-228.32 627.5,-220.58"/>
<polygon fill="midnightblue" stroke="midnightblue" points="624,-247.4 627.5,-257.4 631,-247.4 624,-247.4"/>
</g>
<!-- Node15 -->
<g id="node15" class="node">
<title>Node15</title>
<g id="a_node15"><a xlink:href="d__bg__s__wtr__chk_8h.html" target="_top" xlink:title=" ">
<polygon fill="white" stroke="black" points="854,-257.5 854,-287.5 963,-287.5 963,-257.5 854,-257.5"/>
<text text-anchor="start" x="862" y="-275.5" font-family="Helvetica,sans-Serif" font-size="10.00">include/d/d_bg/d_bg</text>
<text text-anchor="middle" x="908.5" y="-264.5" font-family="Helvetica,sans-Serif" font-size="10.00">_s/d_bg_s_wtr_chk.h</text>
</a>
</g>
</g>
<!-- Node14&#45;&gt;Node15 -->
<g id="edge18" class="edge">
<title>Node14&#45;&gt;Node15</title>
<path fill="none" stroke="midnightblue" d="M873.48,-316.45C881.27,-306.9 890.15,-296 897.02,-287.58"/>
<polygon fill="midnightblue" stroke="midnightblue" points="870.61,-314.43 867,-324.4 876.03,-318.86 870.61,-314.43"/>
</g>
<!-- Node15&#45;&gt;Node8 -->
<g id="edge19" class="edge">
<title>Node15&#45;&gt;Node8</title>
<path fill="none" stroke="midnightblue" d="M843.98,-256.58C794.26,-245.07 726.37,-229.37 679.96,-218.63"/>
<polygon fill="midnightblue" stroke="midnightblue" points="843.46,-260.05 853.99,-258.89 845.03,-253.23 843.46,-260.05"/>
</g>
<!-- Node16&#45;&gt;Node14 -->
<g id="edge22" class="edge">
<title>Node16&#45;&gt;Node14</title>
<path fill="none" stroke="midnightblue" d="M855.5,-381.11C855.5,-372.15 855.5,-362.32 855.5,-354.58"/>
<polygon fill="midnightblue" stroke="midnightblue" points="852,-381.4 855.5,-391.4 859,-381.4 852,-381.4"/>
</g>
<!-- Node17 -->
<g id="node17" class="node">
<title>Node17</title>
<g id="a_node17"><a xlink:href="c__bg__s__chk_8cpp.html" target="_top" xlink:title=" ">
<polygon fill="white" stroke="black" points="1104.5,-324.5 1104.5,-354.5 1238.5,-354.5 1238.5,-324.5 1104.5,-324.5"/>
<text text-anchor="start" x="1112.5" y="-342.5" font-family="Helvetica,sans-Serif" font-size="10.00">libs/SSystem/SComponent</text>
<text text-anchor="middle" x="1171.5" y="-331.5" font-family="Helvetica,sans-Serif" font-size="10.00">/c_bg_s_chk.cpp</text>
</a>
</g>
</g>
<!-- Node16&#45;&gt;Node17 -->
<g id="edge21" class="edge">
<title>Node16&#45;&gt;Node17</title>
<path fill="none" stroke="midnightblue" d="M919.2,-392.4C972.97,-381.34 1049.71,-365.55 1104.42,-354.3"/>
<polygon fill="midnightblue" stroke="midnightblue" points="918.19,-389.03 909.11,-394.47 919.61,-395.89 918.19,-389.03"/>
</g>
<!-- Node18 -->
<g id="node18" class="node">
<title>Node18</title>
<g id="a_node18"><a xlink:href="c__bg__s__gnd__chk_8h.html" target="_top" xlink:title=" ">
<polygon fill="white" stroke="black" points="663,-324.5 663,-354.5 770,-354.5 770,-324.5 663,-324.5"/>
<text text-anchor="start" x="671" y="-342.5" font-family="Helvetica,sans-Serif" font-size="10.00">include/SComponent</text>
<text text-anchor="middle" x="716.5" y="-331.5" font-family="Helvetica,sans-Serif" font-size="10.00">/c_bg_s_gnd_chk.h</text>
</a>
</g>
</g>
<!-- Node16&#45;&gt;Node18 -->
<g id="edge23" class="edge">
<title>Node16&#45;&gt;Node18</title>
<path fill="none" stroke="midnightblue" d="M816.22,-387.13C794.13,-376.8 766.99,-364.11 746.6,-354.58"/>
<polygon fill="midnightblue" stroke="midnightblue" points="814.8,-390.33 825.34,-391.4 817.76,-383.99 814.8,-390.33"/>
</g>
<!-- Node20 -->
<g id="node20" class="node">
<title>Node20</title>
<g id="a_node20"><a xlink:href="c__bg__s__lin__chk_8h.html" target="_top" xlink:title=" ">
<polygon fill="white" stroke="black" points="979,-324.5 979,-354.5 1086,-354.5 1086,-324.5 979,-324.5"/>
<text text-anchor="start" x="987" y="-342.5" font-family="Helvetica,sans-Serif" font-size="10.00">include/SComponent</text>
<text text-anchor="middle" x="1032.5" y="-331.5" font-family="Helvetica,sans-Serif" font-size="10.00">/c_bg_s_lin_chk.h</text>
</a>
</g>
</g>
<!-- Node16&#45;&gt;Node20 -->
<g id="edge27" class="edge">
<title>Node16&#45;&gt;Node20</title>
<path fill="none" stroke="midnightblue" d="M903.65,-387.82C932.1,-377.37 967.63,-364.32 994.17,-354.58"/>
<polygon fill="midnightblue" stroke="midnightblue" points="902.09,-384.66 893.91,-391.4 904.5,-391.23 902.09,-384.66"/>
</g>
<!-- Node18&#45;&gt;Node7 -->
<g id="edge25" class="edge">
<title>Node18&#45;&gt;Node7</title>
<path fill="none" stroke="midnightblue" d="M659.49,-321.58C623.92,-311.02 578.67,-297.59 545.04,-287.61"/>
<polygon fill="midnightblue" stroke="midnightblue" points="658.67,-324.99 669.25,-324.48 660.66,-318.28 658.67,-324.99"/>
</g>
<!-- Node18&#45;&gt;Node13 -->
<g id="edge26" class="edge">
<title>Node18&#45;&gt;Node13</title>
<path fill="none" stroke="midnightblue" d="M689.05,-318.45C675.36,-308.45 659.13,-296.6 646.77,-287.58"/>
<polygon fill="midnightblue" stroke="midnightblue" points="687.05,-321.32 697.19,-324.4 691.18,-315.67 687.05,-321.32"/>
</g>
<!-- Node19 -->
<g id="node19" class="node">
<title>Node19</title>
<g id="a_node19"><a xlink:href="c__bg__s__gnd__chk_8cpp.html" target="_top" xlink:title=" ">
<polygon fill="white" stroke="black" points="701.5,-257.5 701.5,-287.5 835.5,-287.5 835.5,-257.5 701.5,-257.5"/>
<text text-anchor="start" x="709.5" y="-275.5" font-family="Helvetica,sans-Serif" font-size="10.00">libs/SSystem/SComponent</text>
<text text-anchor="middle" x="768.5" y="-264.5" font-family="Helvetica,sans-Serif" font-size="10.00">/c_bg_s_gnd_chk.cpp</text>
</a>
</g>
</g>
<!-- Node18&#45;&gt;Node19 -->
<g id="edge24" class="edge">
<title>Node18&#45;&gt;Node19</title>
<path fill="none" stroke="midnightblue" d="M734.14,-316.45C741.78,-306.9 750.5,-296 757.24,-287.58"/>
<polygon fill="midnightblue" stroke="midnightblue" points="731.3,-314.4 727.78,-324.4 736.76,-318.77 731.3,-314.4"/>
</g>
<!-- Node20&#45;&gt;Node12 -->
<g id="edge29" class="edge">
<title>Node20&#45;&gt;Node12</title>
<path fill="none" stroke="midnightblue" d="M1032.88,-314.11C1033.01,-305.15 1033.16,-295.32 1033.28,-287.58"/>
<polygon fill="midnightblue" stroke="midnightblue" points="1029.37,-314.34 1032.72,-324.4 1036.37,-314.45 1029.37,-314.34"/>
</g>
<!-- Node21 -->
<g id="node21" class="node">
<title>Node21</title>
<g id="a_node21"><a xlink:href="c__bg__s__lin__chk_8cpp.html" target="_top" xlink:title=" ">
<polygon fill="white" stroke="black" points="1104.5,-257.5 1104.5,-287.5 1238.5,-287.5 1238.5,-257.5 1104.5,-257.5"/>
<text text-anchor="start" x="1112.5" y="-275.5" font-family="Helvetica,sans-Serif" font-size="10.00">libs/SSystem/SComponent</text>
<text text-anchor="middle" x="1171.5" y="-264.5" font-family="Helvetica,sans-Serif" font-size="10.00">/c_bg_s_lin_chk.cpp</text>
</a>
</g>
</g>
<!-- Node20&#45;&gt;Node21 -->
<g id="edge28" class="edge">
<title>Node20&#45;&gt;Node21</title>
<path fill="none" stroke="midnightblue" d="M1071.78,-320.13C1093.87,-309.8 1121.01,-297.11 1141.4,-287.58"/>
<polygon fill="midnightblue" stroke="midnightblue" points="1070.24,-316.99 1062.66,-324.4 1073.2,-323.33 1070.24,-316.99"/>
</g>
</g>
</svg>
        <g id="navigator" transform="translate(0 0)" fill="#404254">
                <rect fill="#f2f5e9" fill-opacity="0.5" stroke="#606060" stroke-width=".5" x="0" y="0" width="60" height="60"/>
                <use id="zoomplus" xlink:href="#zoomPlus" x="17" y="9" onmousedown="handleZoom(evt,'in')"/>
                <use id="zoomminus" xlink:href="#zoomMin" x="42" y="9" onmousedown="handleZoom(evt,'out')"/>
                <use id="reset" xlink:href="#resetDef" x="30" y="36" onmousedown="handleReset()"/>
                <g id="arrowUp" xlink:href="#dirArrow" transform="translate(30 24)" onmousedown="handlePan(0,-1)">
                  <use xlink:href="#rim" fill="#404040">
                        <set attributeName="fill" to="#808080" begin="arrowUp.mouseover" end="arrowUp.mouseout"/>
                  </use>
                  <path fill="none" stroke="white" stroke-width="1.5" d="M0,-3.0v7 M-2.5,-0.5L0,-3.0L2.5,-0.5"/>
                </g>
                <g id="arrowRight" xlink:href="#dirArrow" transform="rotate(90) translate(36 -43)" onmousedown="handlePan(1,0)">
                  <use xlink:href="#rim" fill="#404040">
                        <set attributeName="fill" to="#808080" begin="arrowRight.mouseover" end="arrowRight.mouseout"/>
                  </use>
                  <path fill="none" stroke="white" stroke-width="1.5" d="M0,-3.0v7 M-2.5,-0.5L0,-3.0L2.5,-0.5"/>
                </g>
                <g id="arrowDown" xlink:href="#dirArrow" transform="rotate(180) translate(-30 -48)" onmousedown="handlePan(0,1)">
                  <use xlink:href="#rim" fill="#404040">
                        <set attributeName="fill" to="#808080" begin="arrowDown.mouseover" end="arrowDown.mouseout"/>
                  </use>
                  <path fill="none" stroke="white" stroke-width="1.5" d="M0,-3.0v7 M-2.5,-0.5L0,-3.0L2.5,-0.5"/>
                </g>
                <g id="arrowLeft" xlink:href="#dirArrow" transform="rotate(270) translate(-36 17)" onmousedown="handlePan(-1,0)">
                  <use xlink:href="#rim" fill="#404040">
                        <set attributeName="fill" to="#808080" begin="arrowLeft.mouseover" end="arrowLeft.mouseout"/>
                  </use>
                  <path fill="none" stroke="white" stroke-width="1.5" d="M0,-3.0v7 M-2.5,-0.5L0,-3.0L2.5,-0.5"/>
                </g>
        </g>
        <svg viewBox="0 0 15 15" width="100%" height="30px" preserveAspectRatio="xMaxYMin meet">
         <g id="arrow_out" transform="scale(0.3 0.3)">
          <a xlink:href="d__bg__s__poly__pass__chk_8h__dep__incl_org.svg" target="_base">
           <rect id="button" ry="5" rx="5" y="6" x="6" height="38" width="38"
                fill="#f2f5e9" fill-opacity="0.5" stroke="#606060" stroke-width="1.0"/>
           <path id="arrow"
             d="M 11.500037,31.436501 C 11.940474,20.09759 22.043105,11.32322 32.158766,21.979434 L 37.068811,17.246167 C 37.068811,17.246167 37.088388,32 37.088388,32 L 22.160133,31.978069 C 22.160133,31.978069 26.997745,27.140456 26.997745,27.140456 C 18.528582,18.264221 13.291696,25.230495 11.500037,31.436501 z"
             style="fill:#404040;"/>
          </a>
         </g>
        </svg>
</svg>
