<?xml version="1.0" encoding="UTF-8" standalone="no"?>
<!DOCTYPE svg PUBLIC "-//W3C//DTD SVG 1.1//EN"
 "http://www.w3.org/Graphics/SVG/1.1/DTD/svg11.dtd">
<!-- Generated by graphviz version 2.44.0 ()
 -->
<!-- Title: include/d/d_bomb/d_bomb.h Pages: 1 -->
<!--zoomable 777 -->
<svg id="main" version="1.1" xmlns="http://www.w3.org/2000/svg" xmlns:xlink="http://www.w3.org/1999/xlink" xml:space="preserve" onload="init(evt)">
<style type="text/css"><![CDATA[
.edge:hover path { stroke: red; }
.edge:hover polygon { stroke: red; fill: red; }
]]></style>
<script type="text/javascript"><![CDATA[
var edges = document.getElementsByTagName('g');
if (edges && edges.length) {
  for (var i=0;i<edges.length;i++) {
    if (edges[i].id.substr(0,4)=='edge') {
      edges[i].setAttribute('class','edge');
    }
  }
}
]]></script>
        <defs>
                <circle id="rim" cx="0" cy="0" r="7"/>
                <circle id="rim2" cx="0" cy="0" r="3.5"/>
                <g id="zoomPlus">
                        <use xlink:href="#rim" fill="#404040">
                                <set attributeName="fill" to="#808080" begin="zoomplus.mouseover" end="zoomplus.mouseout"/>
                        </use>
                        <path d="M-4,0h8M0,-4v8" fill="none" stroke="white" stroke-width="1.5" pointer-events="none"/>
                </g>
                <g id="zoomMin">
                        <use xlink:href="#rim" fill="#404040">
                                <set attributeName="fill" to="#808080" begin="zoomminus.mouseover" end="zoomminus.mouseout"/>
                        </use>
                        <path d="M-4,0h8" fill="none" stroke="white" stroke-width="1.5" pointer-events="none"/>
                </g>
                <g id="dirArrow">
                        <path fill="none" stroke="white" stroke-width="1.5" d="M0,-3.0v7 M-2.5,-0.5L0,-3.0L2.5,-0.5"/>
                </g>
               <g id="resetDef">
                       <use xlink:href="#rim2" fill="#404040">
                               <set attributeName="fill" to="#808080" begin="reset.mouseover" end="reset.mouseout"/>
                       </use>
               </g>
        </defs>

<script type="text/javascript">
var viewWidth = 1122;
var viewHeight = 777;
var sectionId = 'dynsection-0';
</script>
<script xlink:href="svgpan.js"/>
<svg id="graph" class="graph">
<g id="viewport">
<title>include/d/d_bomb/d_bomb.h</title>
<polygon fill="white" stroke="transparent" points="-4,4 -4,-773 1118.29,-773 1118.29,4 -4,4"/>
<!-- Node1 -->
<g id="node1" class="node">
<title>Node1</title>
<g id="a_node1"><a xlink:title=" ">
<polygon fill="#bfbfbf" stroke="black" points="323.5,-738.5 323.5,-768.5 424.5,-768.5 424.5,-738.5 323.5,-738.5"/>
<text text-anchor="start" x="331.5" y="-756.5" font-family="Helvetica,sans-Serif" font-size="10.00">include/d/d_bomb/d</text>
<text text-anchor="middle" x="374" y="-745.5" font-family="Helvetica,sans-Serif" font-size="10.00">_bomb.h</text>
</a>
</g>
</g>
<!-- Node2 -->
<g id="node2" class="node">
<title>Node2</title>
<g id="a_node2"><a xlink:href="f__op__actor_8h.html" target="_top" xlink:title=" ">
<polygon fill="white" stroke="black" points="701,-682.5 701,-701.5 799,-701.5 799,-682.5 701,-682.5"/>
<text text-anchor="middle" x="750" y="-689.5" font-family="Helvetica,sans-Serif" font-size="10.00">f/f_op/f_op_actor.h</text>
</a>
</g>
</g>
<!-- Node1&#45;&gt;Node2 -->
<g id="edge1" class="edge">
<title>Node1&#45;&gt;Node2</title>
<path fill="none" stroke="midnightblue" d="M424.71,-744.48C493.92,-733.52 617.71,-713.93 690.99,-702.34"/>
<polygon fill="midnightblue" stroke="midnightblue" points="691.66,-705.78 700.99,-700.76 690.56,-698.86 691.66,-705.78"/>
</g>
<!-- Node8 -->
<g id="node8" class="node">
<title>Node8</title>
<g id="a_node8"><a xlink:href="global_8h.html" target="_top" xlink:title=" ">
<polygon fill="white" stroke="black" points="503,-190.5 503,-209.5 553,-209.5 553,-190.5 503,-190.5"/>
<text text-anchor="middle" x="528" y="-197.5" font-family="Helvetica,sans-Serif" font-size="10.00">global.h</text>
</a>
</g>
</g>
<!-- Node1&#45;&gt;Node8 -->
<g id="edge64" class="edge">
<title>Node1&#45;&gt;Node8</title>
<path fill="none" stroke="midnightblue" d="M323.17,-747.55C220.91,-736.17 0,-703.85 0,-637 0,-637 0,-637 0,-327.5 0,-284.77 14.64,-268.44 51,-246 124.86,-200.43 395.26,-199.25 492.7,-200.37"/>
<polygon fill="midnightblue" stroke="midnightblue" points="492.86,-203.87 502.91,-200.51 492.96,-196.88 492.86,-203.87"/>
</g>
<!-- Node3 -->
<g id="node3" class="node">
<title>Node3</title>
<g id="a_node3"><a xlink:href="JKRSolidHeap_8h.html" target="_top" xlink:title=" ">
<polygon fill="white" stroke="black" points="950,-313.5 950,-343.5 1084,-343.5 1084,-313.5 950,-313.5"/>
<text text-anchor="start" x="958" y="-331.5" font-family="Helvetica,sans-Serif" font-size="10.00">JSystem/JKernel/JKRSolid</text>
<text text-anchor="middle" x="1017" y="-320.5" font-family="Helvetica,sans-Serif" font-size="10.00">Heap/JKRSolidHeap.h</text>
</a>
</g>
</g>
<!-- Node2&#45;&gt;Node3 -->
<g id="edge2" class="edge">
<title>Node2&#45;&gt;Node3</title>
<path fill="none" stroke="midnightblue" d="M799.21,-683.71C856.97,-672.05 945,-643.18 945,-575.5 945,-575.5 945,-575.5 945,-445 945,-407.75 972.3,-372.58 993.28,-351.05"/>
<polygon fill="midnightblue" stroke="midnightblue" points="996.01,-353.28 1000.66,-343.76 991.09,-348.3 996.01,-353.28"/>
</g>
<!-- Node14 -->
<g id="node14" class="node">
<title>Node14</title>
<g id="a_node14"><a xlink:href="c__sxyz_8h.html" target="_top" xlink:title=" ">
<polygon fill="white" stroke="black" points="693.5,-436.5 693.5,-455.5 806.5,-455.5 806.5,-436.5 693.5,-436.5"/>
<text text-anchor="middle" x="750" y="-443.5" font-family="Helvetica,sans-Serif" font-size="10.00">SComponent/c_sxyz.h</text>
</a>
</g>
</g>
<!-- Node2&#45;&gt;Node14 -->
<g id="edge21" class="edge">
<title>Node2&#45;&gt;Node14</title>
<path fill="none" stroke="midnightblue" d="M750,-682.32C750,-647.18 750,-515.12 750,-465.76"/>
<polygon fill="midnightblue" stroke="midnightblue" points="753.5,-465.58 750,-455.58 746.5,-465.58 753.5,-465.58"/>
</g>
<!-- Node15 -->
<g id="node15" class="node">
<title>Node15</title>
<g id="a_node15"><a xlink:href="c__xyz_8h.html" target="_top" xlink:title=" ">
<polygon fill="white" stroke="black" points="781.5,-319 781.5,-338 888.5,-338 888.5,-319 781.5,-319"/>
<text text-anchor="middle" x="835" y="-326" font-family="Helvetica,sans-Serif" font-size="10.00">SComponent/c_xyz.h</text>
</a>
</g>
</g>
<!-- Node2&#45;&gt;Node15 -->
<g id="edge23" class="edge">
<title>Node2&#45;&gt;Node15</title>
<path fill="none" stroke="midnightblue" d="M762.54,-682.46C786.19,-665.22 835,-623.8 835,-575.5 835,-575.5 835,-575.5 835,-445 835,-410.86 835,-371.05 835,-348.21"/>
<polygon fill="midnightblue" stroke="midnightblue" points="838.5,-348.19 835,-338.19 831.5,-348.19 838.5,-348.19"/>
</g>
<!-- Node18 -->
<g id="node18" class="node">
<title>Node18</title>
<g id="a_node18"><a xlink:href="f__pc__base_8h.html" target="_top" xlink:title=" ">
<polygon fill="white" stroke="black" points="434.5,-626.5 434.5,-645.5 531.5,-645.5 531.5,-626.5 434.5,-626.5"/>
<text text-anchor="middle" x="483" y="-633.5" font-family="Helvetica,sans-Serif" font-size="10.00">f/f_pc/f_pc_base.h</text>
</a>
</g>
</g>
<!-- Node2&#45;&gt;Node18 -->
<g id="edge29" class="edge">
<title>Node2&#45;&gt;Node18</title>
<path fill="none" stroke="midnightblue" d="M707.69,-682.44C660.92,-672.98 585.54,-657.74 535.15,-647.55"/>
<polygon fill="midnightblue" stroke="midnightblue" points="535.6,-644.07 525.11,-645.52 534.22,-650.93 535.6,-644.07"/>
</g>
<!-- Node4 -->
<g id="node4" class="node">
<title>Node4</title>
<g id="a_node4"><a xlink:href="JKRHeap_8h.html" target="_top" xlink:title=" ">
<polygon fill="white" stroke="black" points="949,-246.5 949,-276.5 1085,-276.5 1085,-246.5 949,-246.5"/>
<text text-anchor="start" x="957" y="-264.5" font-family="Helvetica,sans-Serif" font-size="10.00">JSystem/JKernel/JKRHeap</text>
<text text-anchor="middle" x="1017" y="-253.5" font-family="Helvetica,sans-Serif" font-size="10.00">/JKRHeap.h</text>
</a>
</g>
</g>
<!-- Node3&#45;&gt;Node4 -->
<g id="edge3" class="edge">
<title>Node3&#45;&gt;Node4</title>
<path fill="none" stroke="midnightblue" d="M1017,-313.4C1017,-305.64 1017,-295.81 1017,-286.86"/>
<polygon fill="midnightblue" stroke="midnightblue" points="1020.5,-286.58 1017,-276.58 1013.5,-286.58 1020.5,-286.58"/>
</g>
<!-- Node7 -->
<g id="node7" class="node">
<title>Node7</title>
<g id="a_node7"><a xlink:href="types_8h.html" target="_top" xlink:title=" ">
<polygon fill="white" stroke="black" points="761.5,-0.5 761.5,-19.5 842.5,-19.5 842.5,-0.5 761.5,-0.5"/>
<text text-anchor="middle" x="802" y="-7.5" font-family="Helvetica,sans-Serif" font-size="10.00">dolphin/types.h</text>
</a>
</g>
</g>
<!-- Node3&#45;&gt;Node7 -->
<g id="edge20" class="edge">
<title>Node3&#45;&gt;Node7</title>
<path fill="none" stroke="midnightblue" d="M1049.31,-313.34C1064.98,-304.91 1082.8,-292.77 1094,-277 1114.16,-248.62 1113,-235.82 1113,-201 1113,-201 1113,-201 1113,-137.5 1113,-99.86 1118.16,-80.97 1090,-56 1055.76,-25.64 926.16,-15.72 853.02,-12.51"/>
<polygon fill="midnightblue" stroke="midnightblue" points="852.8,-9 842.66,-12.08 852.51,-15.99 852.8,-9"/>
</g>
<!-- Node5 -->
<g id="node5" class="node">
<title>Node5</title>
<g id="a_node5"><a xlink:href="JKRDisposer_8h.html" target="_top" xlink:title=" ">
<polygon fill="white" stroke="black" points="933.5,-123.5 933.5,-153.5 1084.5,-153.5 1084.5,-123.5 933.5,-123.5"/>
<text text-anchor="start" x="941.5" y="-141.5" font-family="Helvetica,sans-Serif" font-size="10.00">JSystem/JKernel/JKRDisposer</text>
<text text-anchor="middle" x="1009" y="-130.5" font-family="Helvetica,sans-Serif" font-size="10.00">/JKRDisposer.h</text>
</a>
</g>
</g>
<!-- Node4&#45;&gt;Node5 -->
<g id="edge4" class="edge">
<title>Node4&#45;&gt;Node5</title>
<path fill="none" stroke="midnightblue" d="M1016.05,-246.14C1014.71,-225.86 1012.24,-188.53 1010.61,-163.86"/>
<polygon fill="midnightblue" stroke="midnightblue" points="1014.1,-163.58 1009.95,-153.84 1007.12,-164.05 1014.1,-163.58"/>
</g>
<!-- Node4&#45;&gt;Node7 -->
<g id="edge8" class="edge">
<title>Node4&#45;&gt;Node7</title>
<path fill="none" stroke="midnightblue" d="M1004.61,-246.42C986.74,-226.08 952.71,-187.26 924,-154 884.73,-108.5 838.82,-54.45 816.15,-27.71"/>
<polygon fill="midnightblue" stroke="midnightblue" points="818.53,-25.1 809.39,-19.74 813.19,-29.63 818.53,-25.1"/>
</g>
<!-- Node4&#45;&gt;Node8 -->
<g id="edge9" class="edge">
<title>Node4&#45;&gt;Node8</title>
<path fill="none" stroke="midnightblue" d="M948.9,-251.85C933.48,-249.91 917.18,-247.87 902,-246 777.54,-230.67 629.71,-213.06 563.34,-205.18"/>
<polygon fill="midnightblue" stroke="midnightblue" points="563.74,-201.71 553.4,-204.01 562.92,-208.66 563.74,-201.71"/>
</g>
<!-- Node6 -->
<g id="node6" class="node">
<title>Node6</title>
<g id="a_node6"><a xlink:href="JSUList_8h.html" target="_top" xlink:title=" ">
<polygon fill="white" stroke="black" points="945,-56.5 945,-86.5 1081,-86.5 1081,-56.5 945,-56.5"/>
<text text-anchor="start" x="953" y="-74.5" font-family="Helvetica,sans-Serif" font-size="10.00">JSystem/JSupport/JSUList</text>
<text text-anchor="middle" x="1013" y="-63.5" font-family="Helvetica,sans-Serif" font-size="10.00">/JSUList.h</text>
</a>
</g>
</g>
<!-- Node5&#45;&gt;Node6 -->
<g id="edge5" class="edge">
<title>Node5&#45;&gt;Node6</title>
<path fill="none" stroke="midnightblue" d="M1009.87,-123.4C1010.35,-115.56 1010.96,-105.6 1011.52,-96.57"/>
<polygon fill="midnightblue" stroke="midnightblue" points="1015.01,-96.77 1012.13,-86.58 1008.03,-96.34 1015.01,-96.77"/>
</g>
<!-- Node5&#45;&gt;Node7 -->
<g id="edge7" class="edge">
<title>Node5&#45;&gt;Node7</title>
<path fill="none" stroke="midnightblue" d="M988.47,-123.46C973.8,-113.38 953.62,-99.45 936,-87 916.76,-73.41 913.18,-68.15 893,-56 872.91,-43.9 849.11,-32.22 830.89,-23.79"/>
<polygon fill="midnightblue" stroke="midnightblue" points="832.22,-20.55 821.67,-19.58 829.31,-26.92 832.22,-20.55"/>
</g>
<!-- Node6&#45;&gt;Node7 -->
<g id="edge6" class="edge">
<title>Node6&#45;&gt;Node7</title>
<path fill="none" stroke="midnightblue" d="M963.26,-56.47C926.23,-46.03 876.32,-31.96 841.88,-22.25"/>
<polygon fill="midnightblue" stroke="midnightblue" points="842.74,-18.85 832.17,-19.51 840.84,-25.59 842.74,-18.85"/>
</g>
<!-- Node8&#45;&gt;Node7 -->
<g id="edge10" class="edge">
<title>Node8&#45;&gt;Node7</title>
<path fill="none" stroke="midnightblue" d="M526.59,-190.44C523.04,-165.69 516.52,-93.46 554,-56 581.04,-28.97 686.75,-17.87 751.11,-13.55"/>
<polygon fill="midnightblue" stroke="midnightblue" points="751.69,-17.02 761.45,-12.89 751.25,-10.04 751.69,-17.02"/>
</g>
<!-- Node9 -->
<g id="node9" class="node">
<title>Node9</title>
<g id="a_node9"><a xlink:href="AR_8h.html" target="_top" xlink:title=" ">
<polygon fill="white" stroke="black" points="563.5,-62 563.5,-81 612.5,-81 612.5,-62 563.5,-62"/>
<text text-anchor="middle" x="588" y="-69" font-family="Helvetica,sans-Serif" font-size="10.00">ar/AR.h</text>
</a>
</g>
</g>
<!-- Node8&#45;&gt;Node9 -->
<g id="edge11" class="edge">
<title>Node8&#45;&gt;Node9</title>
<path fill="none" stroke="midnightblue" d="M532.12,-190.31C541.84,-169.81 566.35,-118.15 579.44,-90.54"/>
<polygon fill="midnightblue" stroke="midnightblue" points="582.72,-91.79 583.85,-81.26 576.4,-88.79 582.72,-91.79"/>
</g>
<!-- Node10 -->
<g id="node10" class="node">
<title>Node10</title>
<g id="a_node10"><a xlink:href="ARQ_8h.html" target="_top" xlink:title=" ">
<polygon fill="white" stroke="black" points="631,-62 631,-81 687,-81 687,-62 631,-62"/>
<text text-anchor="middle" x="659" y="-69" font-family="Helvetica,sans-Serif" font-size="10.00">ar/ARQ.h</text>
</a>
</g>
</g>
<!-- Node8&#45;&gt;Node10 -->
<g id="edge13" class="edge">
<title>Node8&#45;&gt;Node10</title>
<path fill="none" stroke="midnightblue" d="M537,-190.31C558.79,-169.27 614.58,-115.39 642.53,-88.4"/>
<polygon fill="midnightblue" stroke="midnightblue" points="645.17,-90.72 649.93,-81.26 640.31,-85.68 645.17,-90.72"/>
</g>
<!-- Node11 -->
<g id="node11" class="node">
<title>Node11</title>
<g id="a_node11"><a xlink:href="mwcc_8h.html" target="_top" xlink:title=" ">
<polygon fill="white" stroke="black" points="457,-129 457,-148 507,-148 507,-129 457,-129"/>
<text text-anchor="middle" x="482" y="-136" font-family="Helvetica,sans-Serif" font-size="10.00">mwcc.h</text>
</a>
</g>
</g>
<!-- Node8&#45;&gt;Node11 -->
<g id="edge15" class="edge">
<title>Node8&#45;&gt;Node11</title>
<path fill="none" stroke="midnightblue" d="M521.41,-190.48C514.51,-181.55 503.5,-167.31 494.87,-156.14"/>
<polygon fill="midnightblue" stroke="midnightblue" points="497.46,-153.78 488.58,-148.01 491.93,-158.06 497.46,-153.78"/>
</g>
<!-- Node12 -->
<g id="node12" class="node">
<title>Node12</title>
<g id="a_node12"><a xlink:href="OS_8h.html" target="_top" xlink:title=" ">
<polygon fill="white" stroke="black" points="689,-129 689,-148 741,-148 741,-129 689,-129"/>
<text text-anchor="middle" x="715" y="-136" font-family="Helvetica,sans-Serif" font-size="10.00">os/OS.h</text>
</a>
</g>
</g>
<!-- Node8&#45;&gt;Node12 -->
<g id="edge16" class="edge">
<title>Node8&#45;&gt;Node12</title>
<path fill="none" stroke="midnightblue" d="M553.22,-190.98C585.66,-180.65 642.21,-162.66 679.13,-150.91"/>
<polygon fill="midnightblue" stroke="midnightblue" points="680.51,-154.15 688.98,-147.78 678.39,-147.48 680.51,-154.15"/>
</g>
<!-- Node9&#45;&gt;Node7 -->
<g id="edge12" class="edge">
<title>Node9&#45;&gt;Node7</title>
<path fill="none" stroke="midnightblue" d="M606.5,-61.98C611.47,-59.87 616.89,-57.72 622,-56 664.98,-41.56 715.12,-29.4 751.55,-21.37"/>
<polygon fill="midnightblue" stroke="midnightblue" points="752.41,-24.76 761.44,-19.22 750.92,-17.92 752.41,-24.76"/>
</g>
<!-- Node10&#45;&gt;Node7 -->
<g id="edge14" class="edge">
<title>Node10&#45;&gt;Node7</title>
<path fill="none" stroke="midnightblue" d="M679.49,-61.98C703.81,-51.86 744.55,-34.9 772.32,-23.35"/>
<polygon fill="midnightblue" stroke="midnightblue" points="773.66,-26.58 781.55,-19.51 770.97,-20.12 773.66,-26.58"/>
</g>
<!-- Node12&#45;&gt;Node7 -->
<g id="edge17" class="edge">
<title>Node12&#45;&gt;Node7</title>
<path fill="none" stroke="midnightblue" d="M714.99,-128.81C715.38,-112.94 718.16,-78.78 734,-56 743.52,-42.31 758.68,-31.69 772.27,-24.21"/>
<polygon fill="midnightblue" stroke="midnightblue" points="774.06,-27.23 781.34,-19.54 770.85,-21.01 774.06,-27.23"/>
</g>
<!-- Node13 -->
<g id="node13" class="node">
<title>Node13</title>
<g id="a_node13"><a xlink:href="dvd_8h.html" target="_top" xlink:title=" ">
<polygon fill="white" stroke="black" points="743.5,-62 743.5,-81 802.5,-81 802.5,-62 743.5,-62"/>
<text text-anchor="middle" x="773" y="-69" font-family="Helvetica,sans-Serif" font-size="10.00">dvd/dvd.h</text>
</a>
</g>
</g>
<!-- Node12&#45;&gt;Node13 -->
<g id="edge18" class="edge">
<title>Node12&#45;&gt;Node13</title>
<path fill="none" stroke="midnightblue" d="M722.82,-128.73C731.95,-118.5 747.24,-101.36 758.55,-88.69"/>
<polygon fill="midnightblue" stroke="midnightblue" points="761.26,-90.92 765.3,-81.13 756.03,-86.26 761.26,-90.92"/>
</g>
<!-- Node13&#45;&gt;Node7 -->
<g id="edge19" class="edge">
<title>Node13&#45;&gt;Node7</title>
<path fill="none" stroke="midnightblue" d="M777.15,-61.98C781.38,-53.32 788.04,-39.65 793.4,-28.65"/>
<polygon fill="midnightblue" stroke="midnightblue" points="796.62,-30.03 797.85,-19.51 790.33,-26.96 796.62,-30.03"/>
</g>
<!-- Node14&#45;&gt;Node8 -->
<g id="edge22" class="edge">
<title>Node14&#45;&gt;Node8</title>
<path fill="none" stroke="midnightblue" d="M750.25,-436.37C750.63,-405.68 747.65,-300.78 692,-246 657.62,-212.16 600.33,-203.19 563.37,-201.12"/>
<polygon fill="midnightblue" stroke="midnightblue" points="563.2,-197.61 553.06,-200.69 562.91,-204.61 563.2,-197.61"/>
</g>
<!-- Node15&#45;&gt;Node8 -->
<g id="edge26" class="edge">
<title>Node15&#45;&gt;Node8</title>
<path fill="none" stroke="midnightblue" d="M823.51,-318.79C796.44,-298.29 730.48,-248.52 725,-246 671.6,-221.44 603.73,-209.75 563.19,-204.61"/>
<polygon fill="midnightblue" stroke="midnightblue" points="563.35,-201.1 553.01,-203.38 562.52,-208.05 563.35,-201.1"/>
</g>
<!-- Node16 -->
<g id="node16" class="node">
<title>Node16</title>
<g id="a_node16"><a xlink:href="c__math_8h.html" target="_top" xlink:title=" ">
<polygon fill="white" stroke="black" points="777,-252 777,-271 893,-271 893,-252 777,-252"/>
<text text-anchor="middle" x="835" y="-259" font-family="Helvetica,sans-Serif" font-size="10.00">SComponent/c_math.h</text>
</a>
</g>
</g>
<!-- Node15&#45;&gt;Node16 -->
<g id="edge24" class="edge">
<title>Node15&#45;&gt;Node16</title>
<path fill="none" stroke="midnightblue" d="M835,-318.73C835,-309.18 835,-293.62 835,-281.28"/>
<polygon fill="midnightblue" stroke="midnightblue" points="838.5,-281.13 835,-271.13 831.5,-281.13 838.5,-281.13"/>
</g>
<!-- Node17 -->
<g id="node17" class="node">
<title>Node17</title>
<g id="a_node17"><a xlink:href="mtx__vec_8h.html" target="_top" xlink:title=" ">
<polygon fill="white" stroke="black" points="789.5,-190.5 789.5,-209.5 850.5,-209.5 850.5,-190.5 789.5,-190.5"/>
<text text-anchor="middle" x="820" y="-197.5" font-family="Helvetica,sans-Serif" font-size="10.00">mtx_vec.h</text>
</a>
</g>
</g>
<!-- Node15&#45;&gt;Node17 -->
<g id="edge27" class="edge">
<title>Node15&#45;&gt;Node17</title>
<path fill="none" stroke="midnightblue" d="M854.62,-318.92C870.64,-310.72 892.19,-296.68 902,-277 908.15,-264.67 909.02,-257.86 902,-246 892.82,-230.49 876.19,-219.97 860.3,-213.03"/>
<polygon fill="midnightblue" stroke="midnightblue" points="861.15,-209.61 850.57,-209.16 858.56,-216.11 861.15,-209.61"/>
</g>
<!-- Node16&#45;&gt;Node8 -->
<g id="edge25" class="edge">
<title>Node16&#45;&gt;Node8</title>
<path fill="none" stroke="midnightblue" d="M793.13,-252C783.26,-250.01 772.76,-247.92 763,-246 692.1,-232.07 609.05,-216.3 563.1,-207.61"/>
<polygon fill="midnightblue" stroke="midnightblue" points="563.53,-204.13 553.06,-205.72 562.23,-211.01 563.53,-204.13"/>
</g>
<!-- Node17&#45;&gt;Node7 -->
<g id="edge28" class="edge">
<title>Node17&#45;&gt;Node7</title>
<path fill="none" stroke="midnightblue" d="M819.86,-190.26C819.41,-167.85 817.62,-106.56 811,-56 809.85,-47.2 808,-37.54 806.27,-29.43"/>
<polygon fill="midnightblue" stroke="midnightblue" points="809.66,-28.57 804.07,-19.57 802.83,-30.09 809.66,-28.57"/>
</g>
<!-- Node18&#45;&gt;Node8 -->
<g id="edge39" class="edge">
<title>Node18&#45;&gt;Node8</title>
<path fill="none" stroke="midnightblue" d="M499.72,-626.37C528.46,-610.46 586.34,-573.46 609,-523 633.23,-469.03 628.94,-608.9 544,-277 539.05,-257.66 534.47,-235.27 531.49,-219.82"/>
<polygon fill="midnightblue" stroke="midnightblue" points="534.92,-219.12 529.63,-209.95 528.05,-220.43 534.92,-219.12"/>
</g>
<!-- Node19 -->
<g id="node19" class="node">
<title>Node19</title>
<g id="a_node19"><a xlink:href="c__tag_8h.html" target="_top" xlink:title=" ">
<polygon fill="white" stroke="black" points="226.5,-436.5 226.5,-455.5 333.5,-455.5 333.5,-436.5 226.5,-436.5"/>
<text text-anchor="middle" x="280" y="-443.5" font-family="Helvetica,sans-Serif" font-size="10.00">SComponent/c_tag.h</text>
</a>
</g>
</g>
<!-- Node18&#45;&gt;Node19 -->
<g id="edge30" class="edge">
<title>Node18&#45;&gt;Node19</title>
<path fill="none" stroke="midnightblue" d="M434.32,-632.8C372.3,-628.85 270.3,-618.16 247,-590 216.37,-552.98 248.78,-492.9 267.97,-463.82"/>
<polygon fill="midnightblue" stroke="midnightblue" points="270.88,-465.77 273.64,-455.54 265.1,-461.82 270.88,-465.77"/>
</g>
<!-- Node23 -->
<g id="node23" class="node">
<title>Node23</title>
<g id="a_node23"><a xlink:href="f__pc__delete__tag_8h.html" target="_top" xlink:title=" ">
<polygon fill="white" stroke="black" points="256.5,-559.5 256.5,-589.5 351.5,-589.5 351.5,-559.5 256.5,-559.5"/>
<text text-anchor="start" x="264.5" y="-577.5" font-family="Helvetica,sans-Serif" font-size="10.00">f/f_pc/f_pc_delete</text>
<text text-anchor="middle" x="304" y="-566.5" font-family="Helvetica,sans-Serif" font-size="10.00">_tag.h</text>
</a>
</g>
</g>
<!-- Node18&#45;&gt;Node23 -->
<g id="edge40" class="edge">
<title>Node18&#45;&gt;Node23</title>
<path fill="none" stroke="midnightblue" d="M457.35,-626.48C430.96,-617.7 389.1,-603.79 355.78,-592.71"/>
<polygon fill="midnightblue" stroke="midnightblue" points="356.78,-589.36 346.19,-589.52 354.57,-596 356.78,-589.36"/>
</g>
<!-- Node25 -->
<g id="node25" class="node">
<title>Node25</title>
<g id="a_node25"><a xlink:href="f__pc__layer__tag_8h.html" target="_top" xlink:title=" ">
<polygon fill="white" stroke="black" points="70.5,-565 70.5,-584 185.5,-584 185.5,-565 70.5,-565"/>
<text text-anchor="middle" x="128" y="-572" font-family="Helvetica,sans-Serif" font-size="10.00">f/f_pc/f_pc_layer_tag.h</text>
</a>
</g>
</g>
<!-- Node18&#45;&gt;Node25 -->
<g id="edge48" class="edge">
<title>Node18&#45;&gt;Node25</title>
<path fill="none" stroke="midnightblue" d="M434.4,-626.89C380.53,-617.89 291.05,-602.94 214,-590 205.74,-588.61 197.03,-587.15 188.45,-585.7"/>
<polygon fill="midnightblue" stroke="midnightblue" points="188.92,-582.23 178.48,-584.02 187.75,-589.13 188.92,-582.23"/>
</g>
<!-- Node26 -->
<g id="node26" class="node">
<title>Node26</title>
<g id="a_node26"><a xlink:href="f__pc__line__tag_8h.html" target="_top" xlink:title=" ">
<polygon fill="white" stroke="black" points="490,-498 490,-517 600,-517 600,-498 490,-498"/>
<text text-anchor="middle" x="545" y="-505" font-family="Helvetica,sans-Serif" font-size="10.00">f/f_pc/f_pc_line_tag.h</text>
</a>
</g>
</g>
<!-- Node18&#45;&gt;Node26 -->
<g id="edge52" class="edge">
<title>Node18&#45;&gt;Node26</title>
<path fill="none" stroke="midnightblue" d="M487.26,-626.31C497.3,-605.81 522.63,-554.15 536.16,-526.54"/>
<polygon fill="midnightblue" stroke="midnightblue" points="539.45,-527.78 540.71,-517.26 533.16,-524.69 539.45,-527.78"/>
</g>
<!-- Node27 -->
<g id="node27" class="node">
<title>Node27</title>
<g id="a_node27"><a xlink:href="f__pc__priority_8h.html" target="_top" xlink:title=" ">
<polygon fill="white" stroke="black" points="370,-565 370,-584 474,-584 474,-565 370,-565"/>
<text text-anchor="middle" x="422" y="-572" font-family="Helvetica,sans-Serif" font-size="10.00">f/f_pc/f_pc_priority.h</text>
</a>
</g>
</g>
<!-- Node18&#45;&gt;Node27 -->
<g id="edge55" class="edge">
<title>Node18&#45;&gt;Node27</title>
<path fill="none" stroke="midnightblue" d="M474.26,-626.48C464.84,-617.28 449.64,-602.46 438.05,-591.16"/>
<polygon fill="midnightblue" stroke="midnightblue" points="440.33,-588.49 430.72,-584.01 435.44,-593.5 440.33,-588.49"/>
</g>
<!-- Node29 -->
<g id="node29" class="node">
<title>Node29</title>
<g id="a_node29"><a xlink:href="f__pc__profile_8h.html" target="_top" xlink:title=" ">
<polygon fill="white" stroke="black" points="578.5,-319 578.5,-338 679.5,-338 679.5,-319 578.5,-319"/>
<text text-anchor="middle" x="629" y="-326" font-family="Helvetica,sans-Serif" font-size="10.00">f/f_pc/f_pc_profile.h</text>
</a>
</g>
</g>
<!-- Node18&#45;&gt;Node29 -->
<g id="edge60" class="edge">
<title>Node18&#45;&gt;Node29</title>
<path fill="none" stroke="midnightblue" d="M531.86,-627.72C573.49,-620.41 628.63,-607.68 642,-590 698,-515.95 655.96,-393.42 637,-347.56"/>
<polygon fill="midnightblue" stroke="midnightblue" points="640.19,-346.12 633.05,-338.3 633.75,-348.87 640.19,-346.12"/>
</g>
<!-- Node19&#45;&gt;Node8 -->
<g id="edge38" class="edge">
<title>Node19&#45;&gt;Node8</title>
<path fill="none" stroke="midnightblue" d="M287.98,-436.2C295.61,-427.47 307.09,-413.49 315,-400 352.57,-335.91 324.8,-295.72 380,-246 411.33,-217.78 459.9,-207.25 492.78,-203.32"/>
<polygon fill="midnightblue" stroke="midnightblue" points="493.28,-206.79 502.86,-202.27 492.55,-199.83 493.28,-206.79"/>
</g>
<!-- Node20 -->
<g id="node20" class="node">
<title>Node20</title>
<g id="a_node20"><a xlink:href="c__list_8h.html" target="_top" xlink:title=" ">
<polygon fill="white" stroke="black" points="182.5,-319 182.5,-338 289.5,-338 289.5,-319 182.5,-319"/>
<text text-anchor="middle" x="236" y="-326" font-family="Helvetica,sans-Serif" font-size="10.00">SComponent/c_list.h</text>
</a>
</g>
</g>
<!-- Node19&#45;&gt;Node20 -->
<g id="edge31" class="edge">
<title>Node19&#45;&gt;Node20</title>
<path fill="none" stroke="midnightblue" d="M278,-436.43C274.96,-423.84 268.69,-399.71 261,-380 256.62,-368.77 250.66,-356.65 245.67,-347.1"/>
<polygon fill="midnightblue" stroke="midnightblue" points="248.72,-345.39 240.91,-338.23 242.55,-348.69 248.72,-345.39"/>
</g>
<!-- Node21 -->
<g id="node21" class="node">
<title>Node21</title>
<g id="a_node21"><a xlink:href="c__node_8h.html" target="_top" xlink:title=" ">
<polygon fill="white" stroke="black" points="178.5,-252 178.5,-271 293.5,-271 293.5,-252 178.5,-252"/>
<text text-anchor="middle" x="236" y="-259" font-family="Helvetica,sans-Serif" font-size="10.00">SComponent/c_node.h</text>
</a>
</g>
</g>
<!-- Node19&#45;&gt;Node21 -->
<g id="edge34" class="edge">
<title>Node19&#45;&gt;Node21</title>
<path fill="none" stroke="midnightblue" d="M284.28,-436.47C294.57,-414.71 318.35,-355.82 298,-313 290.59,-297.41 275.76,-285.06 262.46,-276.47"/>
<polygon fill="midnightblue" stroke="midnightblue" points="263.98,-273.3 253.61,-271.13 260.36,-279.29 263.98,-273.3"/>
</g>
<!-- Node22 -->
<g id="node22" class="node">
<title>Node22</title>
<g id="a_node22"><a xlink:href="c__tree_8h.html" target="_top" xlink:title=" ">
<polygon fill="white" stroke="black" points="142,-380.5 142,-399.5 252,-399.5 252,-380.5 142,-380.5"/>
<text text-anchor="middle" x="197" y="-387.5" font-family="Helvetica,sans-Serif" font-size="10.00">SComponent/c_tree.h</text>
</a>
</g>
</g>
<!-- Node19&#45;&gt;Node22 -->
<g id="edge35" class="edge">
<title>Node19&#45;&gt;Node22</title>
<path fill="none" stroke="midnightblue" d="M266.66,-436.32C253.84,-427.98 234.22,-415.21 219.06,-405.35"/>
<polygon fill="midnightblue" stroke="midnightblue" points="220.59,-402.17 210.3,-399.65 216.78,-408.04 220.59,-402.17"/>
</g>
<!-- Node20&#45;&gt;Node21 -->
<g id="edge32" class="edge">
<title>Node20&#45;&gt;Node21</title>
<path fill="none" stroke="midnightblue" d="M236,-318.73C236,-309.18 236,-293.62 236,-281.28"/>
<polygon fill="midnightblue" stroke="midnightblue" points="239.5,-281.13 236,-271.13 232.5,-281.13 239.5,-281.13"/>
</g>
<!-- Node21&#45;&gt;Node8 -->
<g id="edge33" class="edge">
<title>Node21&#45;&gt;Node8</title>
<path fill="none" stroke="midnightblue" d="M277.84,-251.98C335.61,-240.2 438.8,-219.18 492.83,-208.17"/>
<polygon fill="midnightblue" stroke="midnightblue" points="493.53,-211.6 502.63,-206.17 492.14,-204.74 493.53,-211.6"/>
</g>
<!-- Node22&#45;&gt;Node20 -->
<g id="edge36" class="edge">
<title>Node22&#45;&gt;Node20</title>
<path fill="none" stroke="midnightblue" d="M202.59,-380.48C208.38,-371.64 217.59,-357.59 224.87,-346.48"/>
<polygon fill="midnightblue" stroke="midnightblue" points="227.87,-348.29 230.42,-338.01 222.01,-344.45 227.87,-348.29"/>
</g>
<!-- Node22&#45;&gt;Node21 -->
<g id="edge37" class="edge">
<title>Node22&#45;&gt;Node21</title>
<path fill="none" stroke="midnightblue" d="M190.1,-380.26C179.58,-365.81 161.86,-336.2 173,-313 180.54,-297.29 195.61,-284.93 209.13,-276.37"/>
<polygon fill="midnightblue" stroke="midnightblue" points="211.29,-279.16 218.12,-271.06 207.73,-273.13 211.29,-279.16"/>
</g>
<!-- Node23&#45;&gt;Node8 -->
<g id="edge47" class="edge">
<title>Node23&#45;&gt;Node8</title>
<path fill="none" stroke="midnightblue" d="M308.73,-559.26C327.63,-502.94 398.97,-296.39 445,-246 458.12,-231.64 476.92,-220.92 493.31,-213.55"/>
<polygon fill="midnightblue" stroke="midnightblue" points="494.78,-216.73 502.62,-209.6 492.05,-210.29 494.78,-216.73"/>
</g>
<!-- Node23&#45;&gt;Node19 -->
<g id="edge41" class="edge">
<title>Node23&#45;&gt;Node19</title>
<path fill="none" stroke="midnightblue" d="M299.55,-559.48C296.49,-549.41 292.54,-535.48 290,-523 286.11,-503.88 283.4,-481.73 281.79,-466.29"/>
<polygon fill="midnightblue" stroke="midnightblue" points="285.23,-465.57 280.77,-455.96 278.27,-466.25 285.23,-465.57"/>
</g>
<!-- Node24 -->
<g id="node24" class="node">
<title>Node24</title>
<g id="a_node24"><a xlink:href="f__pc__layer_8h.html" target="_top" xlink:title=" ">
<polygon fill="white" stroke="black" points="66,-498 66,-517 162,-517 162,-498 66,-498"/>
<text text-anchor="middle" x="114" y="-505" font-family="Helvetica,sans-Serif" font-size="10.00">f/f_pc/f_pc_layer.h</text>
</a>
</g>
</g>
<!-- Node23&#45;&gt;Node24 -->
<g id="edge42" class="edge">
<title>Node23&#45;&gt;Node24</title>
<path fill="none" stroke="midnightblue" d="M262.77,-559.4C228.7,-547.74 180.86,-531.37 148.71,-520.38"/>
<polygon fill="midnightblue" stroke="midnightblue" points="149.46,-516.93 138.87,-517.01 147.2,-523.56 149.46,-516.93"/>
</g>
<!-- Node24&#45;&gt;Node8 -->
<g id="edge46" class="edge">
<title>Node24&#45;&gt;Node8</title>
<path fill="none" stroke="midnightblue" d="M109.03,-497.84C98.73,-479.03 76,-432.8 76,-391 76,-391 76,-391 76,-327.5 76,-272.54 118.87,-268.52 169,-246 226.39,-220.22 413.8,-207.23 492.59,-202.8"/>
<polygon fill="midnightblue" stroke="midnightblue" points="493.17,-206.28 502.97,-202.23 492.79,-199.29 493.17,-206.28"/>
</g>
<!-- Node24&#45;&gt;Node19 -->
<g id="edge44" class="edge">
<title>Node24&#45;&gt;Node19</title>
<path fill="none" stroke="midnightblue" d="M137.78,-497.98C166.38,-487.72 214.55,-470.46 246.8,-458.9"/>
<polygon fill="midnightblue" stroke="midnightblue" points="248.03,-462.18 256.26,-455.51 245.67,-455.59 248.03,-462.18"/>
</g>
<!-- Node24&#45;&gt;Node21 -->
<g id="edge43" class="edge">
<title>Node24&#45;&gt;Node21</title>
<path fill="none" stroke="midnightblue" d="M113.86,-497.6C113.86,-467.78 117.72,-370.12 166,-313 178.54,-298.17 196.32,-285.41 210.83,-276.43"/>
<polygon fill="midnightblue" stroke="midnightblue" points="213,-279.21 219.8,-271.09 209.42,-273.19 213,-279.21"/>
</g>
<!-- Node24&#45;&gt;Node22 -->
<g id="edge45" class="edge">
<title>Node24&#45;&gt;Node22</title>
<path fill="none" stroke="midnightblue" d="M120.24,-497.82C133.94,-478.76 166.86,-432.95 184.81,-407.96"/>
<polygon fill="midnightblue" stroke="midnightblue" points="187.7,-409.95 190.69,-399.78 182.01,-405.86 187.7,-409.95"/>
</g>
<!-- Node25&#45;&gt;Node8 -->
<g id="edge51" class="edge">
<title>Node25&#45;&gt;Node8</title>
<path fill="none" stroke="midnightblue" d="M109.1,-564.84C92.86,-556.42 70.04,-542.12 57,-523 37.38,-494.24 38,-481.82 38,-447 38,-447 38,-447 38,-327.5 38,-282.52 58.97,-268.36 98,-246 165.05,-207.59 402.36,-201.86 492.72,-201.08"/>
<polygon fill="midnightblue" stroke="midnightblue" points="493.01,-204.58 502.99,-201.01 492.96,-197.58 493.01,-204.58"/>
</g>
<!-- Node25&#45;&gt;Node19 -->
<g id="edge49" class="edge">
<title>Node25&#45;&gt;Node19</title>
<path fill="none" stroke="midnightblue" d="M136.13,-564.93C150.94,-549.54 183.57,-516.53 214,-492 227.81,-480.86 244.31,-469.62 257.35,-461.16"/>
<polygon fill="midnightblue" stroke="midnightblue" points="259.61,-463.86 266.15,-455.53 255.84,-457.97 259.61,-463.86"/>
</g>
<!-- Node25&#45;&gt;Node24 -->
<g id="edge50" class="edge">
<title>Node25&#45;&gt;Node24</title>
<path fill="none" stroke="midnightblue" d="M126.11,-564.73C124.03,-555.09 120.63,-539.3 117.96,-526.91"/>
<polygon fill="midnightblue" stroke="midnightblue" points="121.39,-526.17 115.86,-517.13 114.54,-527.64 121.39,-526.17"/>
</g>
<!-- Node26&#45;&gt;Node8 -->
<g id="edge54" class="edge">
<title>Node26&#45;&gt;Node8</title>
<path fill="none" stroke="midnightblue" d="M534.4,-497.86C513.94,-480.15 471,-437.44 471,-391 471,-391 471,-391 471,-327.5 471,-289.74 478.25,-279.84 495,-246 499.99,-235.93 507.23,-225.74 513.66,-217.61"/>
<polygon fill="midnightblue" stroke="midnightblue" points="516.52,-219.65 520.18,-209.7 511.12,-215.2 516.52,-219.65"/>
</g>
<!-- Node26&#45;&gt;Node19 -->
<g id="edge53" class="edge">
<title>Node26&#45;&gt;Node19</title>
<path fill="none" stroke="midnightblue" d="M507.03,-497.98C459.8,-487.37 379.14,-469.26 327.76,-457.72"/>
<polygon fill="midnightblue" stroke="midnightblue" points="328.42,-454.28 317.9,-455.51 326.89,-461.11 328.42,-454.28"/>
</g>
<!-- Node27&#45;&gt;Node19 -->
<g id="edge56" class="edge">
<title>Node27&#45;&gt;Node19</title>
<path fill="none" stroke="midnightblue" d="M411.03,-564.76C398.69,-554.85 378.12,-538.09 361,-523 338.09,-502.8 312.52,-478.5 296.35,-462.91"/>
<polygon fill="midnightblue" stroke="midnightblue" points="298.44,-460.06 288.82,-455.62 293.57,-465.09 298.44,-460.06"/>
</g>
<!-- Node28 -->
<g id="node28" class="node">
<title>Node28</title>
<g id="a_node28"><a xlink:href="f__pc__method__tag_8h.html" target="_top" xlink:title=" ">
<polygon fill="white" stroke="black" points="370.5,-492.5 370.5,-522.5 471.5,-522.5 471.5,-492.5 370.5,-492.5"/>
<text text-anchor="start" x="378.5" y="-510.5" font-family="Helvetica,sans-Serif" font-size="10.00">f/f_pc/f_pc_method</text>
<text text-anchor="middle" x="421" y="-499.5" font-family="Helvetica,sans-Serif" font-size="10.00">_tag.h</text>
</a>
</g>
</g>
<!-- Node27&#45;&gt;Node28 -->
<g id="edge57" class="edge">
<title>Node27&#45;&gt;Node28</title>
<path fill="none" stroke="midnightblue" d="M421.87,-564.73C421.74,-556.54 421.54,-543.92 421.37,-532.71"/>
<polygon fill="midnightblue" stroke="midnightblue" points="424.87,-532.53 421.22,-522.59 417.87,-532.64 424.87,-532.53"/>
</g>
<!-- Node28&#45;&gt;Node8 -->
<g id="edge59" class="edge">
<title>Node28&#45;&gt;Node8</title>
<path fill="none" stroke="midnightblue" d="M423.43,-492.32C426.93,-470.59 433,-427.69 433,-391 433,-391 433,-391 433,-327.5 433,-278.93 478.34,-237.09 506.38,-215.87"/>
<polygon fill="midnightblue" stroke="midnightblue" points="508.78,-218.44 514.79,-209.72 504.65,-212.79 508.78,-218.44"/>
</g>
<!-- Node28&#45;&gt;Node19 -->
<g id="edge58" class="edge">
<title>Node28&#45;&gt;Node19</title>
<path fill="none" stroke="midnightblue" d="M387.58,-492.4C364.03,-482.46 332.76,-469.26 310.01,-459.66"/>
<polygon fill="midnightblue" stroke="midnightblue" points="311.09,-456.32 300.52,-455.66 308.37,-462.77 311.09,-456.32"/>
</g>
<!-- Node29&#45;&gt;Node8 -->
<g id="edge63" class="edge">
<title>Node29&#45;&gt;Node8</title>
<path fill="none" stroke="midnightblue" d="M615.01,-318.88C601.18,-309.81 580.09,-294.45 566,-277 551.71,-259.3 540.84,-235.35 534.47,-219.09"/>
<polygon fill="midnightblue" stroke="midnightblue" points="537.72,-217.8 530.93,-209.67 531.17,-220.26 537.72,-217.8"/>
</g>
<!-- Node30 -->
<g id="node30" class="node">
<title>Node30</title>
<g id="a_node30"><a xlink:href="f__pc__method_8h.html" target="_top" xlink:title=" ">
<polygon fill="white" stroke="black" points="575,-252 575,-271 683,-271 683,-252 575,-252"/>
<text text-anchor="middle" x="629" y="-259" font-family="Helvetica,sans-Serif" font-size="10.00">f/f_pc/f_pc_method.h</text>
</a>
</g>
</g>
<!-- Node29&#45;&gt;Node30 -->
<g id="edge61" class="edge">
<title>Node29&#45;&gt;Node30</title>
<path fill="none" stroke="midnightblue" d="M629,-318.73C629,-309.18 629,-293.62 629,-281.28"/>
<polygon fill="midnightblue" stroke="midnightblue" points="632.5,-281.13 629,-271.13 625.5,-281.13 632.5,-281.13"/>
</g>
<!-- Node30&#45;&gt;Node8 -->
<g id="edge62" class="edge">
<title>Node30&#45;&gt;Node8</title>
<path fill="none" stroke="midnightblue" d="M614.53,-251.98C598.03,-242.25 570.82,-226.23 551.32,-214.74"/>
<polygon fill="midnightblue" stroke="midnightblue" points="552.84,-211.57 542.44,-209.51 549.28,-217.6 552.84,-211.57"/>
</g>
</g>
</svg>
        <g id="navigator" transform="translate(0 0)" fill="#404254">
                <rect fill="#f2f5e9" fill-opacity="0.5" stroke="#606060" stroke-width=".5" x="0" y="0" width="60" height="60"/>
                <use id="zoomplus" xlink:href="#zoomPlus" x="17" y="9" onmousedown="handleZoom(evt,'in')"/>
                <use id="zoomminus" xlink:href="#zoomMin" x="42" y="9" onmousedown="handleZoom(evt,'out')"/>
                <use id="reset" xlink:href="#resetDef" x="30" y="36" onmousedown="handleReset()"/>
                <g id="arrowUp" xlink:href="#dirArrow" transform="translate(30 24)" onmousedown="handlePan(0,-1)">
                  <use xlink:href="#rim" fill="#404040">
                        <set attributeName="fill" to="#808080" begin="arrowUp.mouseover" end="arrowUp.mouseout"/>
                  </use>
                  <path fill="none" stroke="white" stroke-width="1.5" d="M0,-3.0v7 M-2.5,-0.5L0,-3.0L2.5,-0.5"/>
                </g>
                <g id="arrowRight" xlink:href="#dirArrow" transform="rotate(90) translate(36 -43)" onmousedown="handlePan(1,0)">
                  <use xlink:href="#rim" fill="#404040">
                        <set attributeName="fill" to="#808080" begin="arrowRight.mouseover" end="arrowRight.mouseout"/>
                  </use>
                  <path fill="none" stroke="white" stroke-width="1.5" d="M0,-3.0v7 M-2.5,-0.5L0,-3.0L2.5,-0.5"/>
                </g>
                <g id="arrowDown" xlink:href="#dirArrow" transform="rotate(180) translate(-30 -48)" onmousedown="handlePan(0,1)">
                  <use xlink:href="#rim" fill="#404040">
                        <set attributeName="fill" to="#808080" begin="arrowDown.mouseover" end="arrowDown.mouseout"/>
                  </use>
                  <path fill="none" stroke="white" stroke-width="1.5" d="M0,-3.0v7 M-2.5,-0.5L0,-3.0L2.5,-0.5"/>
                </g>
                <g id="arrowLeft" xlink:href="#dirArrow" transform="rotate(270) translate(-36 17)" onmousedown="handlePan(-1,0)">
                  <use xlink:href="#rim" fill="#404040">
                        <set attributeName="fill" to="#808080" begin="arrowLeft.mouseover" end="arrowLeft.mouseout"/>
                  </use>
                  <path fill="none" stroke="white" stroke-width="1.5" d="M0,-3.0v7 M-2.5,-0.5L0,-3.0L2.5,-0.5"/>
                </g>
        </g>
        <svg viewBox="0 0 15 15" width="100%" height="30px" preserveAspectRatio="xMaxYMin meet">
         <g id="arrow_out" transform="scale(0.3 0.3)">
          <a xlink:href="d__bomb_8h__incl_org.svg" target="_base">
           <rect id="button" ry="5" rx="5" y="6" x="6" height="38" width="38"
                fill="#f2f5e9" fill-opacity="0.5" stroke="#606060" stroke-width="1.0"/>
           <path id="arrow"
             d="M 11.500037,31.436501 C 11.940474,20.09759 22.043105,11.32322 32.158766,21.979434 L 37.068811,17.246167 C 37.068811,17.246167 37.088388,32 37.088388,32 L 22.160133,31.978069 C 22.160133,31.978069 26.997745,27.140456 26.997745,27.140456 C 18.528582,18.264221 13.291696,25.230495 11.500037,31.436501 z"
             style="fill:#404040;"/>
          </a>
         </g>
        </svg>
</svg>
