<?xml version="1.0" encoding="UTF-8" standalone="no"?>
<!DOCTYPE svg PUBLIC "-//W3C//DTD SVG 1.1//EN"
 "http://www.w3.org/Graphics/SVG/1.1/DTD/svg11.dtd">
<!-- Generated by graphviz version 2.44.0 ()
 -->
<!-- Title: include/d/d_com/d_com_inf_game/d_com_inf_game.h Pages: 1 -->
<svg width="5749pt" height="296pt"
 viewBox="0.00 0.00 5749.10 296.00" xmlns="http://www.w3.org/2000/svg" xmlns:xlink="http://www.w3.org/1999/xlink">
<g id="graph0" class="graph" transform="scale(1 1) rotate(0) translate(4 292)">
<title>include/d/d_com/d_com_inf_game/d_com_inf_game.h</title>
<polygon fill="white" stroke="transparent" points="-4,4 -4,-292 5745.1,-292 5745.1,4 -4,4"/>
<!-- Node1 -->
<g id="node1" class="node">
<title>Node1</title>
<g id="a_node1"><a xlink:title=" ">
<polygon fill="#bfbfbf" stroke="black" points="2436.6,-257.5 2436.6,-287.5 2582.6,-287.5 2582.6,-257.5 2436.6,-257.5"/>
<text text-anchor="start" x="2444.6" y="-275.5" font-family="Helvetica,sans-Serif" font-size="10.00">include/d/d_com/d_com</text>
<text text-anchor="middle" x="2509.6" y="-264.5" font-family="Helvetica,sans-Serif" font-size="10.00">_inf_game/d_com_inf_game.h</text>
</a>
</g>
</g>
<!-- Node2 -->
<g id="node2" class="node">
<title>Node2</title>
<g id="a_node2"><a xlink:href="d__attention_8cpp.html" target="_top" xlink:title=" ">
<polygon fill="white" stroke="black" points="21.1,-62 21.1,-81 128.1,-81 128.1,-62 21.1,-62"/>
<text text-anchor="middle" x="74.6" y="-69" font-family="Helvetica,sans-Serif" font-size="10.00">src/d/d_attention.cpp</text>
</a>
</g>
</g>
<!-- Node1&#45;&gt;Node2 -->
<g id="edge1" class="edge">
<title>Node1&#45;&gt;Node2</title>
<path fill="none" stroke="midnightblue" d="M2426.07,-271.13C2039.2,-269.19 430.99,-258.92 209.6,-221 115.54,-204.89 61.57,-231.29 5.6,-154 -2.48,-142.84 -0.63,-135.29 5.6,-123 15.67,-103.14 37.63,-89.22 54.09,-81.09"/>
<polygon fill="midnightblue" stroke="midnightblue" points="2426.32,-274.63 2436.34,-271.18 2426.36,-267.63 2426.32,-274.63"/>
</g>
<!-- Node3 -->
<g id="node3" class="node">
<title>Node3</title>
<g id="a_node3"><a xlink:href="d__camera_8cpp.html" target="_top" xlink:title=" ">
<polygon fill="white" stroke="black" points="847.6,-62 847.6,-81 949.6,-81 949.6,-62 847.6,-62"/>
<text text-anchor="middle" x="898.6" y="-69" font-family="Helvetica,sans-Serif" font-size="10.00">src/d/d_camera.cpp</text>
</a>
</g>
</g>
<!-- Node1&#45;&gt;Node3 -->
<g id="edge2" class="edge">
<title>Node1&#45;&gt;Node3</title>
<path fill="none" stroke="midnightblue" d="M2426.2,-272.1C2153.19,-273.54 1297.25,-273.76 1185.6,-221 1132.94,-196.12 1148.37,-153.25 1098.6,-123 1073.12,-107.52 996.18,-90.81 945.5,-81.02"/>
<polygon fill="midnightblue" stroke="midnightblue" points="2426.46,-275.6 2436.44,-272.04 2426.42,-268.6 2426.46,-275.6"/>
</g>
<!-- Node4 -->
<g id="node4" class="node">
<title>Node4</title>
<g id="a_node4"><a xlink:href="d__com__inf__game_8cpp.html" target="_top" xlink:title=" ">
<polygon fill="white" stroke="black" points="1222.1,-123.5 1222.1,-153.5 1341.1,-153.5 1341.1,-123.5 1222.1,-123.5"/>
<text text-anchor="start" x="1230.1" y="-141.5" font-family="Helvetica,sans-Serif" font-size="10.00">src/d/d_com/d_com_inf</text>
<text text-anchor="middle" x="1281.6" y="-130.5" font-family="Helvetica,sans-Serif" font-size="10.00">_game.cpp</text>
</a>
</g>
</g>
<!-- Node1&#45;&gt;Node4 -->
<g id="edge3" class="edge">
<title>Node1&#45;&gt;Node4</title>
<path fill="none" stroke="midnightblue" d="M2426.05,-270.55C2161.07,-267.21 1354.26,-254.32 1309.6,-221 1288.49,-205.25 1283.17,-172.64 1281.91,-153.79"/>
<polygon fill="midnightblue" stroke="midnightblue" points="2426.33,-274.05 2436.38,-270.68 2426.42,-267.05 2426.33,-274.05"/>
</g>
<!-- Node5 -->
<g id="node5" class="node">
<title>Node5</title>
<g id="a_node5"><a xlink:href="d__file__sel__info_8cpp.html" target="_top" xlink:title=" ">
<polygon fill="white" stroke="black" points="1547.1,-190.5 1547.1,-220.5 1636.1,-220.5 1636.1,-190.5 1547.1,-190.5"/>
<text text-anchor="start" x="1555.1" y="-208.5" font-family="Helvetica,sans-Serif" font-size="10.00">src/d/d_file/d_file</text>
<text text-anchor="middle" x="1591.6" y="-197.5" font-family="Helvetica,sans-Serif" font-size="10.00">_sel_info.cpp</text>
</a>
</g>
</g>
<!-- Node1&#45;&gt;Node5 -->
<g id="edge4" class="edge">
<title>Node1&#45;&gt;Node5</title>
<path fill="none" stroke="midnightblue" d="M2426.14,-272.25C2271.24,-272.39 1929.25,-266.88 1645.6,-221 1642.53,-220.5 1639.39,-219.91 1636.24,-219.24"/>
<polygon fill="midnightblue" stroke="midnightblue" points="2426.52,-275.75 2436.52,-272.23 2426.51,-268.75 2426.52,-275.75"/>
</g>
<!-- Node6 -->
<g id="node6" class="node">
<title>Node6</title>
<g id="a_node6"><a xlink:href="d__item_8cpp.html" target="_top" xlink:title=" ">
<polygon fill="white" stroke="black" points="1398.1,-129 1398.1,-148 1519.1,-148 1519.1,-129 1398.1,-129"/>
<text text-anchor="middle" x="1458.6" y="-136" font-family="Helvetica,sans-Serif" font-size="10.00">src/d/d_item/d_item.cpp</text>
</a>
</g>
</g>
<!-- Node1&#45;&gt;Node6 -->
<g id="edge5" class="edge">
<title>Node1&#45;&gt;Node6</title>
<path fill="none" stroke="midnightblue" d="M2426.09,-270.4C2184.72,-266.85 1501.17,-253.9 1466.6,-221 1446.62,-201.99 1452.33,-164.99 1456.26,-148.18"/>
<polygon fill="midnightblue" stroke="midnightblue" points="2426.16,-273.9 2436.21,-270.55 2426.26,-266.9 2426.16,-273.9"/>
</g>
<!-- Node7 -->
<g id="node7" class="node">
<title>Node7</title>
<g id="a_node7"><a xlink:href="d__kankyo__rain_8cpp.html" target="_top" xlink:title=" ">
<polygon fill="white" stroke="black" points="1654.1,-190.5 1654.1,-220.5 1781.1,-220.5 1781.1,-190.5 1654.1,-190.5"/>
<text text-anchor="start" x="1662.1" y="-208.5" font-family="Helvetica,sans-Serif" font-size="10.00">src/d/d_kankyo/d_kankyo</text>
<text text-anchor="middle" x="1717.6" y="-197.5" font-family="Helvetica,sans-Serif" font-size="10.00">_rain.cpp</text>
</a>
</g>
</g>
<!-- Node1&#45;&gt;Node7 -->
<g id="edge6" class="edge">
<title>Node1&#45;&gt;Node7</title>
<path fill="none" stroke="midnightblue" d="M2426.36,-269.06C2292.08,-264.35 2019.51,-251.65 1790.6,-221 1787.53,-220.59 1784.39,-220.13 1781.22,-219.63"/>
<polygon fill="midnightblue" stroke="midnightblue" points="2426.46,-272.56 2436.58,-269.41 2426.7,-265.57 2426.46,-272.56"/>
</g>
<!-- Node8 -->
<g id="node8" class="node">
<title>Node8</title>
<g id="a_node8"><a xlink:href="d__kankyo__wether_8cpp.html" target="_top" xlink:title=" ">
<polygon fill="white" stroke="black" points="1799.1,-190.5 1799.1,-220.5 1926.1,-220.5 1926.1,-190.5 1799.1,-190.5"/>
<text text-anchor="start" x="1807.1" y="-208.5" font-family="Helvetica,sans-Serif" font-size="10.00">src/d/d_kankyo/d_kankyo</text>
<text text-anchor="middle" x="1862.6" y="-197.5" font-family="Helvetica,sans-Serif" font-size="10.00">_wether.cpp</text>
</a>
</g>
</g>
<!-- Node1&#45;&gt;Node8 -->
<g id="edge7" class="edge">
<title>Node1&#45;&gt;Node8</title>
<path fill="none" stroke="midnightblue" d="M2426.15,-267C2314.15,-260.31 2109.18,-245.8 1935.6,-221 1932.53,-220.56 1929.39,-220.08 1926.23,-219.56"/>
<polygon fill="midnightblue" stroke="midnightblue" points="2426.18,-270.51 2436.37,-267.6 2426.59,-263.52 2426.18,-270.51"/>
</g>
<!-- Node9 -->
<g id="node9" class="node">
<title>Node9</title>
<g id="a_node9"><a xlink:href="d__kankyo_8cpp.html" target="_top" xlink:title=" ">
<polygon fill="white" stroke="black" points="1944.1,-196 1944.1,-215 2045.1,-215 2045.1,-196 1944.1,-196"/>
<text text-anchor="middle" x="1994.6" y="-203" font-family="Helvetica,sans-Serif" font-size="10.00">src/d/d_kankyo.cpp</text>
</a>
</g>
</g>
<!-- Node1&#45;&gt;Node9 -->
<g id="edge8" class="edge">
<title>Node1&#45;&gt;Node9</title>
<path fill="none" stroke="midnightblue" d="M2426.26,-265.43C2334.67,-258.03 2183.43,-243.62 2054.6,-221 2045.42,-219.39 2035.54,-217.2 2026.51,-215.01"/>
<polygon fill="midnightblue" stroke="midnightblue" points="2426.05,-268.93 2436.3,-266.24 2426.61,-261.95 2426.05,-268.93"/>
</g>
<!-- Node10 -->
<g id="node10" class="node">
<title>Node10</title>
<g id="a_node10"><a xlink:href="d__kantera__icon__meter_8cpp.html" target="_top" xlink:title=" ">
<polygon fill="white" stroke="black" points="2063.1,-190.5 2063.1,-220.5 2170.1,-220.5 2170.1,-190.5 2063.1,-190.5"/>
<text text-anchor="start" x="2071.1" y="-208.5" font-family="Helvetica,sans-Serif" font-size="10.00">src/d/d_kantera_icon</text>
<text text-anchor="middle" x="2116.6" y="-197.5" font-family="Helvetica,sans-Serif" font-size="10.00">_meter.cpp</text>
</a>
</g>
</g>
<!-- Node1&#45;&gt;Node10 -->
<g id="edge9" class="edge">
<title>Node1&#45;&gt;Node10</title>
<path fill="none" stroke="midnightblue" d="M2426.52,-260.53C2359.61,-251.28 2263.26,-237.01 2179.6,-221 2176.51,-220.41 2173.35,-219.77 2170.16,-219.11"/>
<polygon fill="midnightblue" stroke="midnightblue" points="2426.2,-264.02 2436.58,-261.91 2427.15,-257.08 2426.2,-264.02"/>
</g>
<!-- Node11 -->
<g id="node11" class="node">
<title>Node11</title>
<g id="a_node11"><a xlink:href="d__kyeff_8cpp.html" target="_top" xlink:title=" ">
<polygon fill="white" stroke="black" points="2188.1,-196 2188.1,-215 2301.1,-215 2301.1,-196 2188.1,-196"/>
<text text-anchor="middle" x="2244.6" y="-203" font-family="Helvetica,sans-Serif" font-size="10.00">src/d/d_ky/d_kyeff.cpp</text>
</a>
</g>
</g>
<!-- Node1&#45;&gt;Node11 -->
<g id="edge10" class="edge">
<title>Node1&#45;&gt;Node11</title>
<path fill="none" stroke="midnightblue" d="M2442.61,-255.07C2390.65,-242.32 2320.71,-225.17 2279.37,-215.03"/>
<polygon fill="midnightblue" stroke="midnightblue" points="2441.88,-258.49 2452.42,-257.48 2443.55,-251.69 2441.88,-258.49"/>
</g>
<!-- Node12 -->
<g id="node12" class="node">
<title>Node12</title>
<g id="a_node12"><a xlink:href="d__meter__button_8cpp.html" target="_top" xlink:title=" ">
<polygon fill="white" stroke="black" points="2319.1,-190.5 2319.1,-220.5 2434.1,-220.5 2434.1,-190.5 2319.1,-190.5"/>
<text text-anchor="start" x="2327.1" y="-208.5" font-family="Helvetica,sans-Serif" font-size="10.00">src/d/d_meter/d_meter</text>
<text text-anchor="middle" x="2376.6" y="-197.5" font-family="Helvetica,sans-Serif" font-size="10.00">_button.cpp</text>
</a>
</g>
</g>
<!-- Node1&#45;&gt;Node12 -->
<g id="edge11" class="edge">
<title>Node1&#45;&gt;Node12</title>
<path fill="none" stroke="midnightblue" d="M2471.73,-252.99C2450.65,-242.69 2424.82,-230.07 2405.4,-220.58"/>
<polygon fill="midnightblue" stroke="midnightblue" points="2470.22,-256.15 2480.74,-257.4 2473.29,-249.86 2470.22,-256.15"/>
</g>
<!-- Node13 -->
<g id="node13" class="node">
<title>Node13</title>
<g id="a_node13"><a xlink:href="d__meter__haihai_8cpp.html" target="_top" xlink:title=" ">
<polygon fill="white" stroke="black" points="2452.1,-190.5 2452.1,-220.5 2567.1,-220.5 2567.1,-190.5 2452.1,-190.5"/>
<text text-anchor="start" x="2460.1" y="-208.5" font-family="Helvetica,sans-Serif" font-size="10.00">src/d/d_meter/d_meter</text>
<text text-anchor="middle" x="2509.6" y="-197.5" font-family="Helvetica,sans-Serif" font-size="10.00">_haihai.cpp</text>
</a>
</g>
</g>
<!-- Node1&#45;&gt;Node13 -->
<g id="edge12" class="edge">
<title>Node1&#45;&gt;Node13</title>
<path fill="none" stroke="midnightblue" d="M2509.6,-247.11C2509.6,-238.15 2509.6,-228.32 2509.6,-220.58"/>
<polygon fill="midnightblue" stroke="midnightblue" points="2506.1,-247.4 2509.6,-257.4 2513.1,-247.4 2506.1,-247.4"/>
</g>
<!-- Node14 -->
<g id="node14" class="node">
<title>Node14</title>
<g id="a_node14"><a xlink:href="d__meter__hakusha_8cpp.html" target="_top" xlink:title=" ">
<polygon fill="white" stroke="black" points="2585.1,-190.5 2585.1,-220.5 2700.1,-220.5 2700.1,-190.5 2585.1,-190.5"/>
<text text-anchor="start" x="2593.1" y="-208.5" font-family="Helvetica,sans-Serif" font-size="10.00">src/d/d_meter/d_meter</text>
<text text-anchor="middle" x="2642.6" y="-197.5" font-family="Helvetica,sans-Serif" font-size="10.00">_hakusha.cpp</text>
</a>
</g>
</g>
<!-- Node1&#45;&gt;Node14 -->
<g id="edge13" class="edge">
<title>Node1&#45;&gt;Node14</title>
<path fill="none" stroke="midnightblue" d="M2547.47,-252.99C2568.55,-242.69 2594.38,-230.07 2613.8,-220.58"/>
<polygon fill="midnightblue" stroke="midnightblue" points="2545.91,-249.86 2538.46,-257.4 2548.98,-256.15 2545.91,-249.86"/>
</g>
<!-- Node15 -->
<g id="node15" class="node">
<title>Node15</title>
<g id="a_node15"><a xlink:href="d__meter__map_8cpp.html" target="_top" xlink:title=" ">
<polygon fill="white" stroke="black" points="2718.1,-190.5 2718.1,-220.5 2833.1,-220.5 2833.1,-190.5 2718.1,-190.5"/>
<text text-anchor="start" x="2726.1" y="-208.5" font-family="Helvetica,sans-Serif" font-size="10.00">src/d/d_meter/d_meter</text>
<text text-anchor="middle" x="2775.6" y="-197.5" font-family="Helvetica,sans-Serif" font-size="10.00">_map.cpp</text>
</a>
</g>
</g>
<!-- Node1&#45;&gt;Node15 -->
<g id="edge14" class="edge">
<title>Node1&#45;&gt;Node15</title>
<path fill="none" stroke="midnightblue" d="M2576.91,-255.05C2620.4,-244.43 2676.4,-230.74 2717.85,-220.61"/>
<polygon fill="midnightblue" stroke="midnightblue" points="2575.87,-251.7 2566.99,-257.48 2577.53,-258.5 2575.87,-251.7"/>
</g>
<!-- Node16 -->
<g id="node16" class="node">
<title>Node16</title>
<g id="a_node16"><a xlink:href="d__meter__string_8cpp.html" target="_top" xlink:title=" ">
<polygon fill="white" stroke="black" points="2851.1,-190.5 2851.1,-220.5 2966.1,-220.5 2966.1,-190.5 2851.1,-190.5"/>
<text text-anchor="start" x="2859.1" y="-208.5" font-family="Helvetica,sans-Serif" font-size="10.00">src/d/d_meter/d_meter</text>
<text text-anchor="middle" x="2908.6" y="-197.5" font-family="Helvetica,sans-Serif" font-size="10.00">_string.cpp</text>
</a>
</g>
</g>
<!-- Node1&#45;&gt;Node16 -->
<g id="edge15" class="edge">
<title>Node1&#45;&gt;Node16</title>
<path fill="none" stroke="midnightblue" d="M2593.07,-260.39C2660.57,-251.04 2757.97,-236.7 2842.6,-221 2845.37,-220.49 2848.2,-219.94 2851.05,-219.38"/>
<polygon fill="midnightblue" stroke="midnightblue" points="2592.34,-256.96 2582.91,-261.79 2593.3,-263.89 2592.34,-256.96"/>
</g>
<!-- Node17 -->
<g id="node17" class="node">
<title>Node17</title>
<g id="a_node17"><a xlink:href="d__meter2__draw_8cpp.html" target="_top" xlink:title=" ">
<polygon fill="white" stroke="black" points="2984.1,-190.5 2984.1,-220.5 3109.1,-220.5 3109.1,-190.5 2984.1,-190.5"/>
<text text-anchor="start" x="2992.1" y="-208.5" font-family="Helvetica,sans-Serif" font-size="10.00">src/d/d_meter2/d_meter2</text>
<text text-anchor="middle" x="3046.6" y="-197.5" font-family="Helvetica,sans-Serif" font-size="10.00">_draw.cpp</text>
</a>
</g>
</g>
<!-- Node1&#45;&gt;Node17 -->
<g id="edge16" class="edge">
<title>Node1&#45;&gt;Node17</title>
<path fill="none" stroke="midnightblue" d="M2592.89,-264.84C2686.35,-256.82 2842.36,-241.78 2975.6,-221 2978.33,-220.57 2981.12,-220.11 2983.94,-219.63"/>
<polygon fill="midnightblue" stroke="midnightblue" points="2592.59,-261.35 2582.92,-265.69 2593.18,-268.33 2592.59,-261.35"/>
</g>
<!-- Node18 -->
<g id="node18" class="node">
<title>Node18</title>
<g id="a_node18"><a xlink:href="d__meter2__info_8cpp.html" target="_top" xlink:title=" ">
<polygon fill="white" stroke="black" points="3127.1,-190.5 3127.1,-220.5 3252.1,-220.5 3252.1,-190.5 3127.1,-190.5"/>
<text text-anchor="start" x="3135.1" y="-208.5" font-family="Helvetica,sans-Serif" font-size="10.00">src/d/d_meter2/d_meter2</text>
<text text-anchor="middle" x="3189.6" y="-197.5" font-family="Helvetica,sans-Serif" font-size="10.00">_info.cpp</text>
</a>
</g>
</g>
<!-- Node1&#45;&gt;Node18 -->
<g id="edge17" class="edge">
<title>Node1&#45;&gt;Node18</title>
<path fill="none" stroke="midnightblue" d="M2593.05,-267.72C2710.71,-261.68 2931.85,-247.72 3118.6,-221 3121.34,-220.61 3124.13,-220.18 3126.95,-219.71"/>
<polygon fill="midnightblue" stroke="midnightblue" points="2592.84,-264.23 2583.03,-268.23 2593.2,-271.22 2592.84,-264.23"/>
</g>
<!-- Node19 -->
<g id="node19" class="node">
<title>Node19</title>
<g id="a_node19"><a xlink:href="d__meter2_8cpp.html" target="_top" xlink:title=" ">
<polygon fill="white" stroke="black" points="3270.6,-196 3270.6,-215 3370.6,-215 3370.6,-196 3270.6,-196"/>
<text text-anchor="middle" x="3320.6" y="-203" font-family="Helvetica,sans-Serif" font-size="10.00">src/d/d_meter2.cpp</text>
</a>
</g>
</g>
<!-- Node1&#45;&gt;Node19 -->
<g id="edge18" class="edge">
<title>Node1&#45;&gt;Node19</title>
<path fill="none" stroke="midnightblue" d="M2592.83,-270.63C2732.06,-268.11 3020.66,-258.41 3261.6,-221 3270.98,-219.54 3281.06,-217.32 3290.18,-215.05"/>
<polygon fill="midnightblue" stroke="midnightblue" points="2592.59,-267.13 2582.66,-270.8 2592.72,-274.13 2592.59,-267.13"/>
</g>
<!-- Node20 -->
<g id="node20" class="node">
<title>Node20</title>
<g id="a_node20"><a xlink:href="d__model_8cpp.html" target="_top" xlink:title=" ">
<polygon fill="white" stroke="black" points="1024.6,-0.5 1024.6,-19.5 1120.6,-19.5 1120.6,-0.5 1024.6,-0.5"/>
<text text-anchor="middle" x="1072.6" y="-7.5" font-family="Helvetica,sans-Serif" font-size="10.00">src/d/d_model.cpp</text>
</a>
</g>
</g>
<!-- Node1&#45;&gt;Node20 -->
<g id="edge19" class="edge">
<title>Node1&#45;&gt;Node20</title>
<path fill="none" stroke="midnightblue" d="M2426.22,-270.25C2196.42,-266.39 1568.95,-252.97 1538.6,-221 1508.55,-189.35 1559.84,-163.89 1544.6,-123 1530.84,-86.09 1521.48,-74.28 1486.6,-56 1424.08,-23.23 1216.1,-14.27 1120.91,-11.86"/>
<polygon fill="midnightblue" stroke="midnightblue" points="2426.47,-273.75 2436.53,-270.42 2426.59,-266.75 2426.47,-273.75"/>
</g>
<!-- Node21 -->
<g id="node21" class="node">
<title>Node21</title>
<g id="a_node21"><a xlink:href="d__save_8cpp.html" target="_top" xlink:title=" ">
<polygon fill="white" stroke="black" points="3389.1,-196 3389.1,-215 3514.1,-215 3514.1,-196 3389.1,-196"/>
<text text-anchor="middle" x="3451.6" y="-203" font-family="Helvetica,sans-Serif" font-size="10.00">src/d/d_save/d_save.cpp</text>
</a>
</g>
</g>
<!-- Node1&#45;&gt;Node21 -->
<g id="edge20" class="edge">
<title>Node1&#45;&gt;Node21</title>
<path fill="none" stroke="midnightblue" d="M2593.09,-270.55C2748.5,-267.93 3092.47,-258.06 3379.6,-221 3390.98,-219.53 3403.26,-217.3 3414.4,-215.03"/>
<polygon fill="midnightblue" stroke="midnightblue" points="2592.62,-267.06 2582.68,-270.72 2592.73,-274.06 2592.62,-267.06"/>
</g>
<!-- Node22 -->
<g id="node22" class="node">
<title>Node22</title>
<g id="a_node22"><a xlink:href="d__save__HIO_8cpp.html" target="_top" xlink:title=" ">
<polygon fill="white" stroke="black" points="3532.1,-190.5 3532.1,-220.5 3639.1,-220.5 3639.1,-190.5 3532.1,-190.5"/>
<text text-anchor="start" x="3540.1" y="-208.5" font-family="Helvetica,sans-Serif" font-size="10.00">src/d/d_save/d_save</text>
<text text-anchor="middle" x="3585.6" y="-197.5" font-family="Helvetica,sans-Serif" font-size="10.00">_HIO.cpp</text>
</a>
</g>
</g>
<!-- Node1&#45;&gt;Node22 -->
<g id="edge21" class="edge">
<title>Node1&#45;&gt;Node22</title>
<path fill="none" stroke="midnightblue" d="M2592.99,-272.4C2766.91,-273.18 3180.69,-269.24 3523.6,-221 3526.34,-220.62 3529.13,-220.17 3531.94,-219.67"/>
<polygon fill="midnightblue" stroke="midnightblue" points="2592.9,-268.9 2582.88,-272.35 2592.86,-275.9 2592.9,-268.9"/>
</g>
<!-- Node23 -->
<g id="node23" class="node">
<title>Node23</title>
<g id="a_node23"><a xlink:href="d__stage_8cpp.html" target="_top" xlink:title=" ">
<polygon fill="white" stroke="black" points="1007.6,-62 1007.6,-81 1101.6,-81 1101.6,-62 1007.6,-62"/>
<text text-anchor="middle" x="1054.6" y="-69" font-family="Helvetica,sans-Serif" font-size="10.00">src/d/d_stage.cpp</text>
</a>
</g>
</g>
<!-- Node1&#45;&gt;Node23 -->
<g id="edge22" class="edge">
<title>Node1&#45;&gt;Node23</title>
<path fill="none" stroke="midnightblue" d="M2425.78,-271.62C2159.3,-271.52 1342.61,-267.41 1233.6,-221 1175.76,-196.38 1180.76,-162.18 1131.6,-123 1111.1,-106.66 1085.26,-90.53 1069.34,-81.05"/>
<polygon fill="midnightblue" stroke="midnightblue" points="2426.16,-275.12 2436.17,-271.62 2426.17,-268.12 2426.16,-275.12"/>
</g>
<!-- Node24 -->
<g id="node24" class="node">
<title>Node24</title>
<g id="a_node24"><a xlink:href="f__op__actor__mng_8cpp.html" target="_top" xlink:title=" ">
<polygon fill="white" stroke="black" points="1140.1,-56.5 1140.1,-86.5 1247.1,-86.5 1247.1,-56.5 1140.1,-56.5"/>
<text text-anchor="start" x="1148.1" y="-74.5" font-family="Helvetica,sans-Serif" font-size="10.00">src/f/f_op/f_op_actor</text>
<text text-anchor="middle" x="1193.6" y="-63.5" font-family="Helvetica,sans-Serif" font-size="10.00">_mng.cpp</text>
</a>
</g>
</g>
<!-- Node1&#45;&gt;Node24 -->
<g id="edge23" class="edge">
<title>Node1&#45;&gt;Node24</title>
<path fill="none" stroke="midnightblue" d="M2426.47,-271.43C2167.94,-270.75 1389.06,-265.02 1284.6,-221 1244.62,-204.15 1235.44,-191.49 1213.6,-154 1201.13,-132.6 1196.4,-103.68 1194.63,-86.67"/>
<polygon fill="midnightblue" stroke="midnightblue" points="2426.54,-274.93 2436.55,-271.45 2426.56,-267.93 2426.54,-274.93"/>
</g>
<!-- Node25 -->
<g id="node25" class="node">
<title>Node25</title>
<g id="a_node25"><a xlink:href="f__op__camera_8cpp.html" target="_top" xlink:title=" ">
<polygon fill="white" stroke="black" points="3657.1,-196 3657.1,-215 3792.1,-215 3792.1,-196 3657.1,-196"/>
<text text-anchor="middle" x="3724.6" y="-203" font-family="Helvetica,sans-Serif" font-size="10.00">src/f/f_op/f_op_camera.cpp</text>
</a>
</g>
</g>
<!-- Node1&#45;&gt;Node25 -->
<g id="edge24" class="edge">
<title>Node1&#45;&gt;Node25</title>
<path fill="none" stroke="midnightblue" d="M2592.97,-271.91C2781.64,-271.94 3255.51,-266.97 3648.6,-221 3660.74,-219.58 3673.85,-217.34 3685.71,-215.04"/>
<polygon fill="midnightblue" stroke="midnightblue" points="2592.85,-268.41 2582.85,-271.9 2592.85,-275.41 2592.85,-268.41"/>
</g>
<!-- Node26 -->
<g id="node26" class="node">
<title>Node26</title>
<g id="a_node26"><a xlink:href="f__op__kankyo_8cpp.html" target="_top" xlink:title=" ">
<polygon fill="white" stroke="black" points="3810.6,-196 3810.6,-215 3944.6,-215 3944.6,-196 3810.6,-196"/>
<text text-anchor="middle" x="3877.6" y="-203" font-family="Helvetica,sans-Serif" font-size="10.00">src/f/f_op/f_op_kankyo.cpp</text>
</a>
</g>
</g>
<!-- Node1&#45;&gt;Node26 -->
<g id="edge25" class="edge">
<title>Node1&#45;&gt;Node26</title>
<path fill="none" stroke="midnightblue" d="M2593.19,-269.87C2840.54,-264.78 3566.2,-247.9 3801.6,-221 3813.88,-219.6 3827.15,-217.33 3839.11,-215"/>
<polygon fill="midnightblue" stroke="midnightblue" points="2592.76,-266.37 2582.83,-270.08 2592.9,-273.37 2592.76,-266.37"/>
</g>
<!-- Node27 -->
<g id="node27" class="node">
<title>Node27</title>
<g id="a_node27"><a xlink:href="f__op__kankyo__mng_8cpp.html" target="_top" xlink:title=" ">
<polygon fill="white" stroke="black" points="152.6,-123.5 152.6,-153.5 268.6,-153.5 268.6,-123.5 152.6,-123.5"/>
<text text-anchor="start" x="160.6" y="-141.5" font-family="Helvetica,sans-Serif" font-size="10.00">src/f/f_op/f_op_kankyo</text>
<text text-anchor="middle" x="210.6" y="-130.5" font-family="Helvetica,sans-Serif" font-size="10.00">_mng.cpp</text>
</a>
</g>
</g>
<!-- Node1&#45;&gt;Node27 -->
<g id="edge26" class="edge">
<title>Node1&#45;&gt;Node27</title>
<path fill="none" stroke="midnightblue" d="M2426.28,-270.91C2066.02,-268.15 651.59,-255.22 455.6,-221 376.78,-207.24 288.76,-173.04 242.69,-153.6"/>
<polygon fill="midnightblue" stroke="midnightblue" points="2426.35,-274.41 2436.38,-270.98 2426.4,-267.41 2426.35,-274.41"/>
</g>
<!-- Node28 -->
<g id="node28" class="node">
<title>Node28</title>
<g id="a_node28"><a xlink:href="f__op__msg__mng_8cpp.html" target="_top" xlink:title=" ">
<polygon fill="white" stroke="black" points="286.6,-123.5 286.6,-153.5 390.6,-153.5 390.6,-123.5 286.6,-123.5"/>
<text text-anchor="start" x="294.6" y="-141.5" font-family="Helvetica,sans-Serif" font-size="10.00">src/f/f_op/f_op_msg</text>
<text text-anchor="middle" x="338.6" y="-130.5" font-family="Helvetica,sans-Serif" font-size="10.00">_mng.cpp</text>
</a>
</g>
</g>
<!-- Node1&#45;&gt;Node28 -->
<g id="edge27" class="edge">
<title>Node1&#45;&gt;Node28</title>
<path fill="none" stroke="midnightblue" d="M2426.28,-270.88C2078.43,-268.09 751.73,-255.26 567.6,-221 493.54,-207.22 411.43,-173.03 368.49,-153.6"/>
<polygon fill="midnightblue" stroke="midnightblue" points="2426.5,-274.38 2436.53,-270.96 2426.55,-267.38 2426.5,-274.38"/>
</g>
<!-- Node29 -->
<g id="node29" class="node">
<title>Node29</title>
<g id="a_node29"><a xlink:href="f__pc__manager_8cpp.html" target="_top" xlink:title=" ">
<polygon fill="white" stroke="black" points="949.6,-129 949.6,-148 1089.6,-148 1089.6,-129 949.6,-129"/>
<text text-anchor="middle" x="1019.6" y="-136" font-family="Helvetica,sans-Serif" font-size="10.00">src/f/f_pc/f_pc_manager.cpp</text>
</a>
</g>
</g>
<!-- Node1&#45;&gt;Node29 -->
<g id="edge28" class="edge">
<title>Node1&#45;&gt;Node29</title>
<path fill="none" stroke="midnightblue" d="M2426.06,-271.98C2142.09,-273.12 1224.9,-272.73 1103.6,-221 1066.96,-205.38 1037.19,-165.9 1025.24,-148.26"/>
<polygon fill="midnightblue" stroke="midnightblue" points="2426.31,-275.48 2436.3,-271.93 2426.28,-268.48 2426.31,-275.48"/>
</g>
<!-- Node30 -->
<g id="node30" class="node">
<title>Node30</title>
<g id="a_node30"><a xlink:href="m__Do__audio_8cpp.html" target="_top" xlink:title=" ">
<polygon fill="white" stroke="black" points="3962.6,-196 3962.6,-215 4096.6,-215 4096.6,-196 3962.6,-196"/>
<text text-anchor="middle" x="4029.6" y="-203" font-family="Helvetica,sans-Serif" font-size="10.00">src/m_Do/m_Do_audio.cpp</text>
</a>
</g>
</g>
<!-- Node1&#45;&gt;Node30 -->
<g id="edge29" class="edge">
<title>Node1&#45;&gt;Node30</title>
<path fill="none" stroke="midnightblue" d="M2593.23,-270.26C2859.77,-266.06 3687.31,-250.88 3953.6,-221 3965.88,-219.62 3979.15,-217.36 3991.11,-215.03"/>
<polygon fill="midnightblue" stroke="midnightblue" points="2592.79,-266.77 2582.85,-270.43 2592.9,-273.77 2592.79,-266.77"/>
</g>
<!-- Node31 -->
<g id="node31" class="node">
<title>Node31</title>
<g id="a_node31"><a xlink:href="m__Do__graphic_8cpp.html" target="_top" xlink:title=" ">
<polygon fill="white" stroke="black" points="4114.6,-196 4114.6,-215 4256.6,-215 4256.6,-196 4114.6,-196"/>
<text text-anchor="middle" x="4185.6" y="-203" font-family="Helvetica,sans-Serif" font-size="10.00">src/m_Do/m_Do_graphic.cpp</text>
</a>
</g>
</g>
<!-- Node1&#45;&gt;Node31 -->
<g id="edge30" class="edge">
<title>Node1&#45;&gt;Node31</title>
<path fill="none" stroke="midnightblue" d="M2593.17,-270.49C2877.78,-266.78 3808.09,-252.49 4105.6,-221 4118.51,-219.63 4132.48,-217.38 4145.07,-215.04"/>
<polygon fill="midnightblue" stroke="midnightblue" points="2592.87,-266.99 2582.92,-270.62 2592.96,-273.99 2592.87,-266.99"/>
</g>
<!-- Node32 -->
<g id="node32" class="node">
<title>Node32</title>
<g id="a_node32"><a xlink:href="m__Do__lib_8cpp.html" target="_top" xlink:title=" ">
<polygon fill="white" stroke="black" points="4274.6,-196 4274.6,-215 4394.6,-215 4394.6,-196 4274.6,-196"/>
<text text-anchor="middle" x="4334.6" y="-203" font-family="Helvetica,sans-Serif" font-size="10.00">src/m_Do/m_Do_lib.cpp</text>
</a>
</g>
</g>
<!-- Node1&#45;&gt;Node32 -->
<g id="edge31" class="edge">
<title>Node1&#45;&gt;Node32</title>
<path fill="none" stroke="midnightblue" d="M2592.78,-271.08C2895.17,-269.22 3935.62,-260.1 4265.6,-221 4276.9,-219.66 4289.1,-217.38 4300.05,-215.02"/>
<polygon fill="midnightblue" stroke="midnightblue" points="2592.74,-267.58 2582.76,-271.14 2592.78,-274.58 2592.74,-267.58"/>
</g>
<!-- Node33 -->
<g id="node33" class="node">
<title>Node33</title>
<g id="a_node33"><a xlink:href="m__Do__machine__exception_8cpp.html" target="_top" xlink:title=" ">
<polygon fill="white" stroke="black" points="4413.1,-190.5 4413.1,-220.5 4542.1,-220.5 4542.1,-190.5 4413.1,-190.5"/>
<text text-anchor="start" x="4421.1" y="-208.5" font-family="Helvetica,sans-Serif" font-size="10.00">src/m_Do/m_Do_machine</text>
<text text-anchor="middle" x="4477.6" y="-197.5" font-family="Helvetica,sans-Serif" font-size="10.00">_exception.cpp</text>
</a>
</g>
</g>
<!-- Node1&#45;&gt;Node33 -->
<g id="edge32" class="edge">
<title>Node1&#45;&gt;Node33</title>
<path fill="none" stroke="midnightblue" d="M2592.82,-271.13C2910.23,-269.42 4044.99,-260.63 4403.6,-221 4406.59,-220.67 4409.64,-220.28 4412.72,-219.85"/>
<polygon fill="midnightblue" stroke="midnightblue" points="2592.75,-267.63 2582.77,-271.18 2592.79,-274.63 2592.75,-267.63"/>
</g>
<!-- Node34 -->
<g id="node34" class="node">
<title>Node34</title>
<g id="a_node34"><a xlink:href="m__Do__main_8cpp.html" target="_top" xlink:title=" ">
<polygon fill="white" stroke="black" points="1346.1,-62 1346.1,-81 1477.1,-81 1477.1,-62 1346.1,-62"/>
<text text-anchor="middle" x="1411.6" y="-69" font-family="Helvetica,sans-Serif" font-size="10.00">src/m_Do/m_Do_main.cpp</text>
</a>
</g>
</g>
<!-- Node1&#45;&gt;Node34 -->
<g id="edge33" class="edge">
<title>Node1&#45;&gt;Node34</title>
<path fill="none" stroke="midnightblue" d="M2426.16,-270.4C2190.71,-266.89 1536.16,-254.19 1504.6,-221 1473.7,-188.51 1553.24,-160.47 1528.6,-123 1513.83,-100.54 1486.73,-88.02 1462.32,-81.07"/>
<polygon fill="midnightblue" stroke="midnightblue" points="2426.33,-273.9 2436.38,-270.55 2426.43,-266.9 2426.33,-273.9"/>
</g>
<!-- Node35 -->
<g id="node35" class="node">
<title>Node35</title>
<g id="a_node35"><a xlink:href="m__Do__MemCardRWmng_8cpp.html" target="_top" xlink:title=" ">
<polygon fill="white" stroke="black" points="4560.1,-196 4560.1,-215 4747.1,-215 4747.1,-196 4560.1,-196"/>
<text text-anchor="middle" x="4653.6" y="-203" font-family="Helvetica,sans-Serif" font-size="10.00">src/m_Do/m_Do_MemCardRWmng.cpp</text>
</a>
</g>
</g>
<!-- Node1&#45;&gt;Node35 -->
<g id="edge34" class="edge">
<title>Node1&#45;&gt;Node35</title>
<path fill="none" stroke="midnightblue" d="M2592.78,-270.74C2925.53,-267.49 4161.49,-253.44 4551.6,-221 4568.09,-219.63 4585.98,-217.36 4602.1,-215.01"/>
<polygon fill="midnightblue" stroke="midnightblue" points="2592.7,-267.24 2582.74,-270.83 2592.77,-274.24 2592.7,-267.24"/>
</g>
<!-- Node36 -->
<g id="node36" class="node">
<title>Node36</title>
<g id="a_node36"><a xlink:href="m__Do__ext_8cpp.html" target="_top" xlink:title=" ">
<polygon fill="white" stroke="black" points="4765.1,-196 4765.1,-215 4888.1,-215 4888.1,-196 4765.1,-196"/>
<text text-anchor="middle" x="4826.6" y="-203" font-family="Helvetica,sans-Serif" font-size="10.00">src/m_Do/m_Do_ext.cpp</text>
</a>
</g>
</g>
<!-- Node1&#45;&gt;Node36 -->
<g id="edge35" class="edge">
<title>Node1&#45;&gt;Node36</title>
<path fill="none" stroke="midnightblue" d="M2592.84,-271.65C2946.4,-272 4325.3,-270.1 4756.6,-221 4768.07,-219.69 4780.44,-217.42 4791.55,-215.06"/>
<polygon fill="midnightblue" stroke="midnightblue" points="2592.68,-268.15 2582.68,-271.64 2592.67,-275.15 2592.68,-268.15"/>
</g>
<!-- Node37 -->
<g id="node37" class="node">
<title>Node37</title>
<g id="a_node37"><a xlink:href="Z2EnvSeMgr_8cpp.html" target="_top" xlink:title=" ">
<polygon fill="white" stroke="black" points="4906.1,-196 4906.1,-215 5067.1,-215 5067.1,-196 4906.1,-196"/>
<text text-anchor="middle" x="4986.6" y="-203" font-family="Helvetica,sans-Serif" font-size="10.00">libs/Z2AudioLib/Z2EnvSeMgr.cpp</text>
</a>
</g>
</g>
<!-- Node1&#45;&gt;Node37 -->
<g id="edge36" class="edge">
<title>Node1&#45;&gt;Node37</title>
<path fill="none" stroke="midnightblue" d="M2592.82,-271.31C2959.85,-270.22 4436.06,-263.27 4897.6,-221 4912.1,-219.67 4927.81,-217.4 4941.94,-215.03"/>
<polygon fill="midnightblue" stroke="midnightblue" points="2592.79,-267.81 2582.8,-271.34 2592.81,-274.81 2592.79,-267.81"/>
</g>
<!-- Node38 -->
<g id="node38" class="node">
<title>Node38</title>
<g id="a_node38"><a xlink:href="Z2LinkMgr_8cpp.html" target="_top" xlink:title=" ">
<polygon fill="white" stroke="black" points="5085.6,-196 5085.6,-215 5237.6,-215 5237.6,-196 5085.6,-196"/>
<text text-anchor="middle" x="5161.6" y="-203" font-family="Helvetica,sans-Serif" font-size="10.00">libs/Z2AudioLib/Z2LinkMgr.cpp</text>
</a>
</g>
</g>
<!-- Node1&#45;&gt;Node38 -->
<g id="edge37" class="edge">
<title>Node1&#45;&gt;Node38</title>
<path fill="none" stroke="midnightblue" d="M2592.97,-271.53C2977,-271.44 4578.03,-268.16 5076.6,-221 5090.46,-219.69 5105.47,-217.42 5118.96,-215.05"/>
<polygon fill="midnightblue" stroke="midnightblue" points="2592.77,-268.03 2582.77,-271.54 2592.77,-275.03 2592.77,-268.03"/>
</g>
<!-- Node39 -->
<g id="node39" class="node">
<title>Node39</title>
<g id="a_node39"><a xlink:href="Z2SceneMgr_8cpp.html" target="_top" xlink:title=" ">
<polygon fill="white" stroke="black" points="5256.1,-196 5256.1,-215 5417.1,-215 5417.1,-196 5256.1,-196"/>
<text text-anchor="middle" x="5336.6" y="-203" font-family="Helvetica,sans-Serif" font-size="10.00">libs/Z2AudioLib/Z2SceneMgr.cpp</text>
</a>
</g>
</g>
<!-- Node1&#45;&gt;Node39 -->
<g id="edge38" class="edge">
<title>Node1&#45;&gt;Node39</title>
<path fill="none" stroke="midnightblue" d="M2592.88,-271.55C2992.06,-271.55 4712.3,-268.73 5246.6,-221 5261.26,-219.69 5277.15,-217.42 5291.43,-215.06"/>
<polygon fill="midnightblue" stroke="midnightblue" points="2592.85,-268.05 2582.85,-271.55 2592.85,-275.05 2592.85,-268.05"/>
</g>
<!-- Node40 -->
<g id="node40" class="node">
<title>Node40</title>
<g id="a_node40"><a xlink:href="Z2SoundMgr_8cpp.html" target="_top" xlink:title=" ">
<polygon fill="white" stroke="black" points="5435.1,-196 5435.1,-215 5596.1,-215 5596.1,-196 5435.1,-196"/>
<text text-anchor="middle" x="5515.6" y="-203" font-family="Helvetica,sans-Serif" font-size="10.00">libs/Z2AudioLib/Z2SoundMgr.cpp</text>
</a>
</g>
</g>
<!-- Node1&#45;&gt;Node40 -->
<g id="edge39" class="edge">
<title>Node1&#45;&gt;Node40</title>
<path fill="none" stroke="midnightblue" d="M2592.86,-271.68C3007.77,-272.34 4854.71,-272.27 5426.6,-221 5441.1,-219.7 5456.81,-217.43 5470.94,-215.07"/>
<polygon fill="midnightblue" stroke="midnightblue" points="2592.75,-268.18 2582.75,-271.66 2592.74,-275.18 2592.75,-268.18"/>
</g>
<!-- Node41 -->
<g id="node41" class="node">
<title>Node41</title>
<g id="a_node41"><a xlink:href="Z2StatusMgr_8cpp.html" target="_top" xlink:title=" ">
<polygon fill="white" stroke="black" points="5614.1,-190.5 5614.1,-220.5 5741.1,-220.5 5741.1,-190.5 5614.1,-190.5"/>
<text text-anchor="start" x="5622.1" y="-208.5" font-family="Helvetica,sans-Serif" font-size="10.00">libs/Z2AudioLib/Z2Status</text>
<text text-anchor="middle" x="5677.6" y="-197.5" font-family="Helvetica,sans-Serif" font-size="10.00">Mgr.cpp</text>
</a>
</g>
</g>
<!-- Node1&#45;&gt;Node41 -->
<g id="edge40" class="edge">
<title>Node1&#45;&gt;Node41</title>
<path fill="none" stroke="midnightblue" d="M2593.15,-271.05C3056.34,-268.42 5299.11,-254.08 5605.6,-221 5608.39,-220.7 5611.23,-220.34 5614.09,-219.94"/>
<polygon fill="midnightblue" stroke="midnightblue" points="2592.84,-267.55 2582.86,-271.11 2592.88,-274.55 2592.84,-267.55"/>
</g>
<!-- Node42 -->
<g id="node42" class="node">
<title>Node42</title>
<g id="a_node42"><a xlink:href="d__a__alink_8h.html" target="_top" xlink:title=" ">
<polygon fill="white" stroke="black" points="15.1,-123.5 15.1,-153.5 134.1,-153.5 134.1,-123.5 15.1,-123.5"/>
<text text-anchor="start" x="23.1" y="-141.5" font-family="Helvetica,sans-Serif" font-size="10.00">include/d/d_a/d_a_alink</text>
<text text-anchor="middle" x="74.6" y="-130.5" font-family="Helvetica,sans-Serif" font-size="10.00">/d_a_alink.h</text>
</a>
</g>
</g>
<!-- Node1&#45;&gt;Node42 -->
<g id="edge41" class="edge">
<title>Node1&#45;&gt;Node42</title>
<path fill="none" stroke="midnightblue" d="M2426.14,-270.93C2052.8,-268.21 545.16,-255.17 336.6,-221 252.69,-207.25 158.41,-173.05 109.02,-153.61"/>
<polygon fill="midnightblue" stroke="midnightblue" points="2426.3,-274.43 2436.33,-271.01 2426.35,-267.43 2426.3,-274.43"/>
</g>
<!-- Node44 -->
<g id="node44" class="node">
<title>Node44</title>
<g id="a_node44"><a xlink:href="d__item_8h.html" target="_top" xlink:title=" ">
<polygon fill="white" stroke="black" points="1318.6,-190.5 1318.6,-220.5 1414.6,-220.5 1414.6,-190.5 1318.6,-190.5"/>
<text text-anchor="start" x="1326.6" y="-208.5" font-family="Helvetica,sans-Serif" font-size="10.00">include/d/d_item/d</text>
<text text-anchor="middle" x="1366.6" y="-197.5" font-family="Helvetica,sans-Serif" font-size="10.00">_item/d_item.h</text>
</a>
</g>
</g>
<!-- Node1&#45;&gt;Node44 -->
<g id="edge44" class="edge">
<title>Node1&#45;&gt;Node44</title>
<path fill="none" stroke="midnightblue" d="M2426.23,-269.58C2207.52,-264.23 1620.94,-247.75 1428.6,-221 1424.11,-220.38 1419.47,-219.58 1414.84,-218.68"/>
<polygon fill="midnightblue" stroke="midnightblue" points="2426.28,-273.08 2436.36,-269.83 2426.45,-266.08 2426.28,-273.08"/>
</g>
<!-- Node45 -->
<g id="node45" class="node">
<title>Node45</title>
<g id="a_node45"><a xlink:href="f__pc__manager_8h.html" target="_top" xlink:title=" ">
<polygon fill="white" stroke="black" points="577.1,-190.5 577.1,-220.5 674.1,-220.5 674.1,-190.5 577.1,-190.5"/>
<text text-anchor="start" x="585.1" y="-208.5" font-family="Helvetica,sans-Serif" font-size="10.00">include/f/f_pc/f_pc</text>
<text text-anchor="middle" x="625.6" y="-197.5" font-family="Helvetica,sans-Serif" font-size="10.00">_manager.h</text>
</a>
</g>
</g>
<!-- Node1&#45;&gt;Node45 -->
<g id="edge48" class="edge">
<title>Node1&#45;&gt;Node45</title>
<path fill="none" stroke="midnightblue" d="M2426.3,-268.68C2201.77,-261.07 1565.17,-239.44 1035.6,-221 904.98,-216.45 750.96,-210.97 674.2,-208.24"/>
<polygon fill="midnightblue" stroke="midnightblue" points="2426.25,-272.18 2436.36,-269.02 2426.49,-265.18 2426.25,-272.18"/>
</g>
<!-- Node42&#45;&gt;Node2 -->
<g id="edge42" class="edge">
<title>Node42&#45;&gt;Node2</title>
<path fill="none" stroke="midnightblue" d="M74.6,-113.25C74.6,-102.02 74.6,-89.38 74.6,-81.19"/>
<polygon fill="midnightblue" stroke="midnightblue" points="71.1,-113.4 74.6,-123.4 78.1,-113.4 71.1,-113.4"/>
</g>
<!-- Node43 -->
<g id="node43" class="node">
<title>Node43</title>
<g id="a_node43"><a xlink:href="d__a__alink_8cpp.html" target="_top" xlink:title=" ">
<polygon fill="white" stroke="black" points="489.1,-62 489.1,-81 608.1,-81 608.1,-62 489.1,-62"/>
<text text-anchor="middle" x="548.6" y="-69" font-family="Helvetica,sans-Serif" font-size="10.00">src/d/d_a/d_a_alink.cpp</text>
</a>
</g>
</g>
<!-- Node42&#45;&gt;Node43 -->
<g id="edge43" class="edge">
<title>Node42&#45;&gt;Node43</title>
<path fill="none" stroke="midnightblue" d="M144.41,-122.95C273,-101.78 411.85,-86.31 489.01,-78.36"/>
<polygon fill="midnightblue" stroke="midnightblue" points="143.67,-119.53 134.38,-124.62 144.82,-126.43 143.67,-119.53"/>
</g>
<!-- Node44&#45;&gt;Node4 -->
<g id="edge45" class="edge">
<title>Node44&#45;&gt;Node4</title>
<path fill="none" stroke="midnightblue" d="M1340.01,-184.17C1327.01,-174.23 1311.69,-162.51 1300.01,-153.58"/>
<polygon fill="midnightblue" stroke="midnightblue" points="1338.09,-187.1 1348.15,-190.4 1342.34,-181.54 1338.09,-187.1"/>
</g>
<!-- Node44&#45;&gt;Node6 -->
<g id="edge46" class="edge">
<title>Node44&#45;&gt;Node6</title>
<path fill="none" stroke="midnightblue" d="M1395.18,-184.31C1412.46,-172.1 1433.58,-157.18 1446.56,-148.01"/>
<polygon fill="midnightblue" stroke="midnightblue" points="1392.71,-181.77 1386.56,-190.4 1396.75,-187.48 1392.71,-181.77"/>
</g>
<!-- Node44&#45;&gt;Node24 -->
<g id="edge47" class="edge">
<title>Node44&#45;&gt;Node24</title>
<path fill="none" stroke="midnightblue" d="M1368.01,-179.99C1367.7,-162.12 1364.32,-138.44 1350.6,-123 1324.63,-93.79 1281.72,-81.37 1247.32,-76.14"/>
<polygon fill="midnightblue" stroke="midnightblue" points="1364.51,-180.19 1367.87,-190.23 1371.5,-180.28 1364.51,-180.19"/>
</g>
<!-- Node45&#45;&gt;Node27 -->
<g id="edge51" class="edge">
<title>Node45&#45;&gt;Node27</title>
<path fill="none" stroke="midnightblue" d="M566.73,-197.22C497.36,-188.34 378.74,-172.26 277.6,-154 274.67,-153.47 271.68,-152.91 268.65,-152.32"/>
<polygon fill="midnightblue" stroke="midnightblue" points="566.65,-200.74 577.01,-198.53 567.53,-193.79 566.65,-200.74"/>
</g>
<!-- Node45&#45;&gt;Node28 -->
<g id="edge52" class="edge">
<title>Node45&#45;&gt;Node28</title>
<path fill="none" stroke="midnightblue" d="M567.05,-191.64C521.39,-181.57 456.42,-167.1 399.6,-154 396.73,-153.34 393.8,-152.66 390.83,-151.96"/>
<polygon fill="midnightblue" stroke="midnightblue" points="566.54,-195.12 577.06,-193.85 568.05,-188.28 566.54,-195.12"/>
</g>
<!-- Node45&#45;&gt;Node29 -->
<g id="edge55" class="edge">
<title>Node45&#45;&gt;Node29</title>
<path fill="none" stroke="midnightblue" d="M684.41,-195.48C747.74,-185.67 851.4,-169.33 940.6,-154 951.46,-152.13 963.13,-150.04 974.1,-148.03"/>
<polygon fill="midnightblue" stroke="midnightblue" points="683.57,-192.07 674.22,-197.05 684.64,-198.98 683.57,-192.07"/>
</g>
<!-- Node45&#45;&gt;Node43 -->
<g id="edge50" class="edge">
<title>Node45&#45;&gt;Node43</title>
<path fill="none" stroke="midnightblue" d="M595.44,-184.28C585.21,-176.01 574.61,-165.64 567.6,-154 553.37,-130.35 549.79,-96.91 548.9,-81.24"/>
<polygon fill="midnightblue" stroke="midnightblue" points="593.43,-187.14 603.5,-190.44 597.68,-181.58 593.43,-187.14"/>
</g>
<!-- Node46 -->
<g id="node46" class="node">
<title>Node46</title>
<g id="a_node46"><a xlink:href="f__ap__game_8cpp.html" target="_top" xlink:title=" ">
<polygon fill="white" stroke="black" points="692.1,-129 692.1,-148 797.1,-148 797.1,-129 692.1,-129"/>
<text text-anchor="middle" x="744.6" y="-136" font-family="Helvetica,sans-Serif" font-size="10.00">src/f/f_ap_game.cpp</text>
</a>
</g>
</g>
<!-- Node45&#45;&gt;Node46 -->
<g id="edge49" class="edge">
<title>Node45&#45;&gt;Node46</title>
<path fill="none" stroke="midnightblue" d="M660.43,-185.47C683.15,-173.06 711.7,-157.47 729.02,-148.01"/>
<polygon fill="midnightblue" stroke="midnightblue" points="658.52,-182.53 651.42,-190.4 661.87,-188.67 658.52,-182.53"/>
</g>
<!-- Node47 -->
<g id="node47" class="node">
<title>Node47</title>
<g id="a_node47"><a xlink:href="f__op__overlap__req_8cpp.html" target="_top" xlink:title=" ">
<polygon fill="white" stroke="black" points="815.6,-123.5 815.6,-153.5 931.6,-153.5 931.6,-123.5 815.6,-123.5"/>
<text text-anchor="start" x="823.6" y="-141.5" font-family="Helvetica,sans-Serif" font-size="10.00">src/f/f_op/f_op_overlap</text>
<text text-anchor="middle" x="873.6" y="-130.5" font-family="Helvetica,sans-Serif" font-size="10.00">_req.cpp</text>
</a>
</g>
</g>
<!-- Node45&#45;&gt;Node47 -->
<g id="edge53" class="edge">
<title>Node45&#45;&gt;Node47</title>
<path fill="none" stroke="midnightblue" d="M684.18,-189.15C725.29,-178.37 779.85,-164.07 819.85,-153.59"/>
<polygon fill="midnightblue" stroke="midnightblue" points="683.09,-185.81 674.3,-191.74 684.86,-192.59 683.09,-185.81"/>
</g>
<!-- Node48 -->
<g id="node48" class="node">
<title>Node48</title>
<g id="a_node48"><a xlink:href="f__op__scene__pause_8cpp.html" target="_top" xlink:title=" ">
<polygon fill="white" stroke="black" points="409.1,-123.5 409.1,-153.5 520.1,-153.5 520.1,-123.5 409.1,-123.5"/>
<text text-anchor="start" x="417.1" y="-141.5" font-family="Helvetica,sans-Serif" font-size="10.00">src/f/f_op/f_op_scene</text>
<text text-anchor="middle" x="464.6" y="-130.5" font-family="Helvetica,sans-Serif" font-size="10.00">_pause.cpp</text>
</a>
</g>
</g>
<!-- Node45&#45;&gt;Node48 -->
<g id="edge54" class="edge">
<title>Node45&#45;&gt;Node48</title>
<path fill="none" stroke="midnightblue" d="M581.12,-186.54C555.36,-176.14 523.4,-163.24 499.47,-153.58"/>
<polygon fill="midnightblue" stroke="midnightblue" points="580.08,-189.9 590.66,-190.4 582.7,-183.41 580.08,-189.9"/>
</g>
<!-- Node49 -->
<g id="node49" class="node">
<title>Node49</title>
<g id="a_node49"><a xlink:href="f__op__actor__mng_8h.html" target="_top" xlink:title=" ">
<polygon fill="white" stroke="black" points="577.1,-123.5 577.1,-153.5 674.1,-153.5 674.1,-123.5 577.1,-123.5"/>
<text text-anchor="start" x="585.1" y="-141.5" font-family="Helvetica,sans-Serif" font-size="10.00">include/f/f_op/f_op</text>
<text text-anchor="middle" x="625.6" y="-130.5" font-family="Helvetica,sans-Serif" font-size="10.00">_actor_mng.h</text>
</a>
</g>
</g>
<!-- Node45&#45;&gt;Node49 -->
<g id="edge56" class="edge">
<title>Node45&#45;&gt;Node49</title>
<path fill="none" stroke="midnightblue" d="M625.6,-180.11C625.6,-171.15 625.6,-161.32 625.6,-153.58"/>
<polygon fill="midnightblue" stroke="midnightblue" points="622.1,-180.4 625.6,-190.4 629.1,-180.4 622.1,-180.4"/>
</g>
<!-- Node49&#45;&gt;Node2 -->
<g id="edge57" class="edge">
<title>Node49&#45;&gt;Node2</title>
<path fill="none" stroke="midnightblue" d="M566.86,-128.36C554.25,-126.5 540.99,-124.61 528.6,-123 384.1,-104.17 213.13,-86.35 128.14,-77.8"/>
<polygon fill="midnightblue" stroke="midnightblue" points="566.39,-131.83 576.8,-129.84 567.43,-124.9 566.39,-131.83"/>
</g>
<!-- Node49&#45;&gt;Node3 -->
<g id="edge58" class="edge">
<title>Node49&#45;&gt;Node3</title>
<path fill="none" stroke="midnightblue" d="M684.35,-122.59C751.85,-106.19 819.98,-90.44 861.09,-81.04"/>
<polygon fill="midnightblue" stroke="midnightblue" points="683.29,-119.25 674.4,-125.02 684.95,-126.05 683.29,-119.25"/>
</g>
<!-- Node49&#45;&gt;Node23 -->
<g id="edge59" class="edge">
<title>Node49&#45;&gt;Node23</title>
<path fill="none" stroke="midnightblue" d="M684.39,-122.78C805.84,-99.93 839.33,-103.78 958.6,-87 974.46,-84.77 991.76,-82.2 1007.26,-79.84"/>
<polygon fill="midnightblue" stroke="midnightblue" points="683.5,-119.39 674.33,-124.7 684.81,-126.26 683.5,-119.39"/>
</g>
<!-- Node49&#45;&gt;Node24 -->
<g id="edge60" class="edge">
<title>Node49&#45;&gt;Node24</title>
<path fill="none" stroke="midnightblue" d="M684.25,-122.89C872.62,-92.03 924.51,-111.03 1110.6,-87 1120.03,-85.78 1130.02,-84.25 1139.68,-82.64"/>
<polygon fill="midnightblue" stroke="midnightblue" points="683.59,-119.45 674.3,-124.55 684.74,-126.36 683.59,-119.45"/>
</g>
<!-- Node49&#45;&gt;Node34 -->
<g id="edge62" class="edge">
<title>Node49&#45;&gt;Node34</title>
<path fill="none" stroke="midnightblue" d="M684.51,-122.88C936.9,-83.93 1005.12,-106.64 1256.6,-87 1285.97,-84.71 1318.43,-81.74 1346.02,-79.08"/>
<polygon fill="midnightblue" stroke="midnightblue" points="683.63,-119.48 674.29,-124.48 684.71,-126.39 683.63,-119.48"/>
</g>
<!-- Node49&#45;&gt;Node43 -->
<g id="edge61" class="edge">
<title>Node49&#45;&gt;Node43</title>
<path fill="none" stroke="midnightblue" d="M600.93,-116.67C586.71,-104.67 569.59,-90.22 558.9,-81.19"/>
<polygon fill="midnightblue" stroke="midnightblue" points="598.99,-119.62 608.89,-123.4 603.51,-114.27 598.99,-119.62"/>
</g>
<!-- Node50 -->
<g id="node50" class="node">
<title>Node50</title>
<g id="a_node50"><a xlink:href="d__model_8h.html" target="_top" xlink:title=" ">
<polygon fill="white" stroke="black" points="646.6,-56.5 646.6,-86.5 750.6,-86.5 750.6,-56.5 646.6,-56.5"/>
<text text-anchor="start" x="654.6" y="-74.5" font-family="Helvetica,sans-Serif" font-size="10.00">include/d/d_model/d</text>
<text text-anchor="middle" x="698.6" y="-63.5" font-family="Helvetica,sans-Serif" font-size="10.00">_model.h</text>
</a>
</g>
</g>
<!-- Node49&#45;&gt;Node50 -->
<g id="edge63" class="edge">
<title>Node49&#45;&gt;Node50</title>
<path fill="none" stroke="midnightblue" d="M649.07,-116.6C660.1,-106.78 672.94,-95.34 682.79,-86.58"/>
<polygon fill="midnightblue" stroke="midnightblue" points="646.58,-114.13 641.44,-123.4 651.23,-119.36 646.58,-114.13"/>
</g>
<!-- Node50&#45;&gt;Node20 -->
<g id="edge64" class="edge">
<title>Node50&#45;&gt;Node20</title>
<path fill="none" stroke="midnightblue" d="M760.74,-60.61C834.9,-48.82 957.3,-29.34 1024.59,-18.64"/>
<polygon fill="midnightblue" stroke="midnightblue" points="759.93,-57.2 750.6,-62.23 761.03,-64.11 759.93,-57.2"/>
</g>
</g>
</svg>
