<?xml version="1.0" encoding="UTF-8" standalone="no"?>
<!DOCTYPE svg PUBLIC "-//W3C//DTD SVG 1.1//EN"
 "http://www.w3.org/Graphics/SVG/1.1/DTD/svg11.dtd">
<!-- Generated by graphviz version 2.44.0 ()
 -->
<!-- Title: include/d/d_cc/d_cc_s/d_cc_s.h Pages: 1 -->
<svg width="1572pt" height="933pt"
 viewBox="0.00 0.00 1572.29 933.00" xmlns="http://www.w3.org/2000/svg" xmlns:xlink="http://www.w3.org/1999/xlink">
<g id="graph0" class="graph" transform="scale(1 1) rotate(0) translate(4 929)">
<title>include/d/d_cc/d_cc_s/d_cc_s.h</title>
<polygon fill="white" stroke="transparent" points="-4,4 -4,-929 1568.29,-929 1568.29,4 -4,4"/>
<!-- Node1 -->
<g id="node1" class="node">
<title>Node1</title>
<g id="a_node1"><a xlink:title=" ">
<polygon fill="#bfbfbf" stroke="black" points="1319.29,-894.5 1319.29,-924.5 1423.29,-924.5 1423.29,-894.5 1319.29,-894.5"/>
<text text-anchor="start" x="1327.29" y="-912.5" font-family="Helvetica,sans-Serif" font-size="10.00">include/d/d_cc/d_cc</text>
<text text-anchor="middle" x="1371.29" y="-901.5" font-family="Helvetica,sans-Serif" font-size="10.00">_s/d_cc_s.h</text>
</a>
</g>
</g>
<!-- Node2 -->
<g id="node2" class="node">
<title>Node2</title>
<g id="a_node2"><a xlink:href="c__cc__s_8h.html" target="_top" xlink:title=" ">
<polygon fill="white" stroke="black" points="1122.29,-827.5 1122.29,-857.5 1238.29,-857.5 1238.29,-827.5 1122.29,-827.5"/>
<text text-anchor="start" x="1130.29" y="-845.5" font-family="Helvetica,sans-Serif" font-size="10.00">SComponent/c_cc_s/c</text>
<text text-anchor="middle" x="1180.29" y="-834.5" font-family="Helvetica,sans-Serif" font-size="10.00">_cc_s.h</text>
</a>
</g>
</g>
<!-- Node1&#45;&gt;Node2 -->
<g id="edge1" class="edge">
<title>Node1&#45;&gt;Node2</title>
<path fill="none" stroke="midnightblue" d="M1329.85,-894.4C1300.94,-884.56 1262.18,-871.37 1231.36,-860.88"/>
<polygon fill="midnightblue" stroke="midnightblue" points="1232.25,-857.48 1221.65,-857.58 1229.99,-864.11 1232.25,-857.48"/>
</g>
<!-- Node7 -->
<g id="node7" class="node">
<title>Node7</title>
<g id="a_node7"><a xlink:href="global_8h.html" target="_top" xlink:title=" ">
<polygon fill="white" stroke="black" points="716.29,-190.5 716.29,-209.5 766.29,-209.5 766.29,-190.5 716.29,-190.5"/>
<text text-anchor="middle" x="741.29" y="-197.5" font-family="Helvetica,sans-Serif" font-size="10.00">global.h</text>
</a>
</g>
</g>
<!-- Node1&#45;&gt;Node7 -->
<g id="edge86" class="edge">
<title>Node1&#45;&gt;Node7</title>
<path fill="none" stroke="midnightblue" d="M1423.52,-896.75C1480.68,-880.45 1564.29,-844.9 1564.29,-776.5 1564.29,-776.5 1564.29,-776.5 1564.29,-327.5 1564.29,-258.55 1497.97,-266.97 1432.29,-246 1308.34,-206.42 899.95,-201.6 776.77,-201.06"/>
<polygon fill="midnightblue" stroke="midnightblue" points="776.42,-197.56 766.41,-201.02 776.4,-204.56 776.42,-197.56"/>
</g>
<!-- Node38 -->
<g id="node38" class="node">
<title>Node38</title>
<g id="a_node38"><a xlink:href="d__cc__mass__s_8h.html" target="_top" xlink:title=" ">
<polygon fill="white" stroke="black" points="1316.29,-827.5 1316.29,-857.5 1426.29,-857.5 1426.29,-827.5 1316.29,-827.5"/>
<text text-anchor="start" x="1324.29" y="-845.5" font-family="Helvetica,sans-Serif" font-size="10.00">d/d_cc/d_cc_mass_s</text>
<text text-anchor="middle" x="1371.29" y="-834.5" font-family="Helvetica,sans-Serif" font-size="10.00">/d_cc_mass_s.h</text>
</a>
</g>
</g>
<!-- Node1&#45;&gt;Node38 -->
<g id="edge83" class="edge">
<title>Node1&#45;&gt;Node38</title>
<path fill="none" stroke="midnightblue" d="M1371.29,-894.4C1371.29,-886.64 1371.29,-876.81 1371.29,-867.86"/>
<polygon fill="midnightblue" stroke="midnightblue" points="1374.79,-867.58 1371.29,-857.58 1367.79,-867.58 1374.79,-867.58"/>
</g>
<!-- Node3 -->
<g id="node3" class="node">
<title>Node3</title>
<g id="a_node3"><a xlink:href="c__cc__d_8h.html" target="_top" xlink:title=" ">
<polygon fill="white" stroke="black" points="1122.29,-760.5 1122.29,-790.5 1238.29,-790.5 1238.29,-760.5 1122.29,-760.5"/>
<text text-anchor="start" x="1130.29" y="-778.5" font-family="Helvetica,sans-Serif" font-size="10.00">SComponent/c_cc_d/c</text>
<text text-anchor="middle" x="1180.29" y="-767.5" font-family="Helvetica,sans-Serif" font-size="10.00">_cc_d.h</text>
</a>
</g>
</g>
<!-- Node2&#45;&gt;Node3 -->
<g id="edge2" class="edge">
<title>Node2&#45;&gt;Node3</title>
<path fill="none" stroke="midnightblue" d="M1180.29,-827.4C1180.29,-819.64 1180.29,-809.81 1180.29,-800.86"/>
<polygon fill="midnightblue" stroke="midnightblue" points="1183.79,-800.58 1180.29,-790.58 1176.79,-800.58 1183.79,-800.58"/>
</g>
<!-- Node2&#45;&gt;Node7 -->
<g id="edge82" class="edge">
<title>Node2&#45;&gt;Node7</title>
<path fill="none" stroke="midnightblue" d="M1122.19,-840.49C905.15,-835.98 154.29,-813.26 154.29,-715 154.29,-715 154.29,-715 154.29,-595.5 154.29,-505.46 192.29,-486.54 192.29,-396.5 192.29,-396.5 192.29,-396.5 192.29,-327.5 192.29,-285.69 204.06,-268.51 239.29,-246 278.45,-220.98 598.27,-206.5 706.01,-202.29"/>
<polygon fill="midnightblue" stroke="midnightblue" points="706.2,-205.79 716.05,-201.91 705.93,-198.79 706.2,-205.79"/>
</g>
<!-- Node4 -->
<g id="node4" class="node">
<title>Node4</title>
<g id="a_node4"><a xlink:href="c__m3d__g__aab_8h.html" target="_top" xlink:title=" ">
<polygon fill="white" stroke="black" points="1172.29,-380.5 1172.29,-410.5 1288.29,-410.5 1288.29,-380.5 1172.29,-380.5"/>
<text text-anchor="start" x="1180.29" y="-398.5" font-family="Helvetica,sans-Serif" font-size="10.00">SComponent/c_m3d_g</text>
<text text-anchor="middle" x="1230.29" y="-387.5" font-family="Helvetica,sans-Serif" font-size="10.00">_aab.h</text>
</a>
</g>
</g>
<!-- Node3&#45;&gt;Node4 -->
<g id="edge3" class="edge">
<title>Node3&#45;&gt;Node4</title>
<path fill="none" stroke="midnightblue" d="M1186.71,-760.24C1195.79,-738.76 1211.29,-696.58 1211.29,-659 1211.29,-659 1211.29,-659 1211.29,-528.5 1211.29,-490.45 1219.12,-446.85 1224.73,-420.51"/>
<polygon fill="midnightblue" stroke="midnightblue" points="1228.16,-421.18 1226.89,-410.66 1221.33,-419.68 1228.16,-421.18"/>
</g>
<!-- Node15 -->
<g id="node15" class="node">
<title>Node15</title>
<g id="a_node15"><a xlink:href="c__m3d__g__cps_8h.html" target="_top" xlink:title=" ">
<polygon fill="white" stroke="black" points="1301.29,-447.5 1301.29,-477.5 1417.29,-477.5 1417.29,-447.5 1301.29,-447.5"/>
<text text-anchor="start" x="1309.29" y="-465.5" font-family="Helvetica,sans-Serif" font-size="10.00">SComponent/c_m3d_g</text>
<text text-anchor="middle" x="1359.29" y="-454.5" font-family="Helvetica,sans-Serif" font-size="10.00">_cps.h</text>
</a>
</g>
</g>
<!-- Node3&#45;&gt;Node15 -->
<g id="edge21" class="edge">
<title>Node3&#45;&gt;Node15</title>
<path fill="none" stroke="midnightblue" d="M1214.17,-760.46C1250.89,-742.72 1304.29,-708.43 1304.29,-659 1304.29,-659 1304.29,-659 1304.29,-595.5 1304.29,-554.59 1327.07,-511.66 1343.31,-486.26"/>
<polygon fill="midnightblue" stroke="midnightblue" points="1346.36,-488 1348.95,-477.73 1340.51,-484.15 1346.36,-488"/>
</g>
<!-- Node17 -->
<g id="node17" class="node">
<title>Node17</title>
<g id="a_node17"><a xlink:href="c__m3d__g__cyl_8h.html" target="_top" xlink:title=" ">
<polygon fill="white" stroke="black" points="962.29,-380.5 962.29,-410.5 1078.29,-410.5 1078.29,-380.5 962.29,-380.5"/>
<text text-anchor="start" x="970.29" y="-398.5" font-family="Helvetica,sans-Serif" font-size="10.00">SComponent/c_m3d_g</text>
<text text-anchor="middle" x="1020.29" y="-387.5" font-family="Helvetica,sans-Serif" font-size="10.00">_cyl.h</text>
</a>
</g>
</g>
<!-- Node3&#45;&gt;Node17 -->
<g id="edge27" class="edge">
<title>Node3&#45;&gt;Node17</title>
<path fill="none" stroke="midnightblue" d="M1132.93,-760.39C1088.64,-743.92 1029.29,-711.97 1029.29,-659 1029.29,-659 1029.29,-659 1029.29,-528.5 1029.29,-490.92 1025.61,-447.45 1022.96,-420.98"/>
<polygon fill="midnightblue" stroke="midnightblue" points="1026.41,-420.32 1021.9,-410.74 1019.45,-421.05 1026.41,-420.32"/>
</g>
<!-- Node18 -->
<g id="node18" class="node">
<title>Node18</title>
<g id="a_node18"><a xlink:href="c__m3d__g__sph_8h.html" target="_top" xlink:title=" ">
<polygon fill="white" stroke="black" points="1057.29,-447.5 1057.29,-477.5 1173.29,-477.5 1173.29,-447.5 1057.29,-447.5"/>
<text text-anchor="start" x="1065.29" y="-465.5" font-family="Helvetica,sans-Serif" font-size="10.00">SComponent/c_m3d_g</text>
<text text-anchor="middle" x="1115.29" y="-454.5" font-family="Helvetica,sans-Serif" font-size="10.00">_sph.h</text>
</a>
</g>
</g>
<!-- Node3&#45;&gt;Node18 -->
<g id="edge30" class="edge">
<title>Node3&#45;&gt;Node18</title>
<path fill="none" stroke="midnightblue" d="M1175.84,-760.44C1169.41,-738.86 1158.29,-696.15 1158.29,-659 1158.29,-659 1158.29,-659 1158.29,-595.5 1158.29,-555.75 1140.44,-512.43 1127.74,-486.64"/>
<polygon fill="midnightblue" stroke="midnightblue" points="1130.83,-484.98 1123.18,-477.66 1124.59,-488.16 1130.83,-484.98"/>
</g>
<!-- Node19 -->
<g id="node19" class="node">
<title>Node19</title>
<g id="a_node19"><a xlink:href="f__op__actor_8h.html" target="_top" xlink:title=" ">
<polygon fill="white" stroke="black" points="800.29,-704.5 800.29,-723.5 898.29,-723.5 898.29,-704.5 800.29,-704.5"/>
<text text-anchor="middle" x="849.29" y="-711.5" font-family="Helvetica,sans-Serif" font-size="10.00">f/f_op/f_op_actor.h</text>
</a>
</g>
</g>
<!-- Node3&#45;&gt;Node19 -->
<g id="edge34" class="edge">
<title>Node3&#45;&gt;Node19</title>
<path fill="none" stroke="midnightblue" d="M1122.26,-764.07C1061.7,-753.18 967.33,-736.22 906.92,-725.36"/>
<polygon fill="midnightblue" stroke="midnightblue" points="907.25,-721.86 896.79,-723.54 906.02,-728.75 907.25,-721.86"/>
</g>
<!-- Node5 -->
<g id="node5" class="node">
<title>Node5</title>
<g id="a_node5"><a xlink:href="c__xyz_8h.html" target="_top" xlink:title=" ">
<polygon fill="white" stroke="black" points="1090.79,-319 1090.79,-338 1197.79,-338 1197.79,-319 1090.79,-319"/>
<text text-anchor="middle" x="1144.29" y="-326" font-family="Helvetica,sans-Serif" font-size="10.00">SComponent/c_xyz.h</text>
</a>
</g>
</g>
<!-- Node4&#45;&gt;Node5 -->
<g id="edge4" class="edge">
<title>Node4&#45;&gt;Node5</title>
<path fill="none" stroke="midnightblue" d="M1211.63,-380.4C1197.56,-369.76 1178.3,-355.2 1163.98,-344.38"/>
<polygon fill="midnightblue" stroke="midnightblue" points="1165.88,-341.43 1155.79,-338.19 1161.66,-347.02 1165.88,-341.43"/>
</g>
<!-- Node4&#45;&gt;Node7 -->
<g id="edge20" class="edge">
<title>Node4&#45;&gt;Node7</title>
<path fill="none" stroke="midnightblue" d="M1233.59,-380.15C1239.49,-350.36 1248.07,-281.63 1211.29,-246 1180.23,-215.91 880.99,-204.85 776.83,-201.89"/>
<polygon fill="midnightblue" stroke="midnightblue" points="776.61,-198.39 766.52,-201.61 776.42,-205.38 776.61,-198.39"/>
</g>
<!-- Node6 -->
<g id="node6" class="node">
<title>Node6</title>
<g id="a_node6"><a xlink:href="c__math_8h.html" target="_top" xlink:title=" ">
<polygon fill="white" stroke="black" points="1086.29,-252 1086.29,-271 1202.29,-271 1202.29,-252 1086.29,-252"/>
<text text-anchor="middle" x="1144.29" y="-259" font-family="Helvetica,sans-Serif" font-size="10.00">SComponent/c_math.h</text>
</a>
</g>
</g>
<!-- Node5&#45;&gt;Node6 -->
<g id="edge5" class="edge">
<title>Node5&#45;&gt;Node6</title>
<path fill="none" stroke="midnightblue" d="M1144.29,-318.73C1144.29,-309.18 1144.29,-293.62 1144.29,-281.28"/>
<polygon fill="midnightblue" stroke="midnightblue" points="1147.79,-281.13 1144.29,-271.13 1140.79,-281.13 1147.79,-281.13"/>
</g>
<!-- Node5&#45;&gt;Node7 -->
<g id="edge17" class="edge">
<title>Node5&#45;&gt;Node7</title>
<path fill="none" stroke="midnightblue" d="M1132.87,-318.92C1105.28,-298.23 1037.09,-247.17 1034.29,-246 946.83,-209.53 833.6,-202.24 776.92,-201.03"/>
<polygon fill="midnightblue" stroke="midnightblue" points="776.74,-197.52 766.69,-200.86 776.63,-204.52 776.74,-197.52"/>
</g>
<!-- Node14 -->
<g id="node14" class="node">
<title>Node14</title>
<g id="a_node14"><a xlink:href="mtx__vec_8h.html" target="_top" xlink:title=" ">
<polygon fill="white" stroke="black" points="1191.79,-190.5 1191.79,-209.5 1252.79,-209.5 1252.79,-190.5 1191.79,-190.5"/>
<text text-anchor="middle" x="1222.29" y="-197.5" font-family="Helvetica,sans-Serif" font-size="10.00">mtx_vec.h</text>
</a>
</g>
</g>
<!-- Node5&#45;&gt;Node14 -->
<g id="edge18" class="edge">
<title>Node5&#45;&gt;Node14</title>
<path fill="none" stroke="midnightblue" d="M1162.59,-318.87C1178.23,-310.47 1199.94,-296.18 1211.29,-277 1221.56,-259.64 1223.54,-236.26 1223.43,-220.03"/>
<polygon fill="midnightblue" stroke="midnightblue" points="1226.92,-219.55 1223.08,-209.67 1219.92,-219.79 1226.92,-219.55"/>
</g>
<!-- Node6&#45;&gt;Node7 -->
<g id="edge6" class="edge">
<title>Node6&#45;&gt;Node7</title>
<path fill="none" stroke="midnightblue" d="M1104.39,-251.99C1093.96,-249.9 1082.73,-247.76 1072.29,-246 965.2,-227.96 837.68,-212.23 776.91,-205.09"/>
<polygon fill="midnightblue" stroke="midnightblue" points="777.04,-201.58 766.71,-203.9 776.23,-208.53 777.04,-201.58"/>
</g>
<!-- Node8 -->
<g id="node8" class="node">
<title>Node8</title>
<g id="a_node8"><a xlink:href="types_8h.html" target="_top" xlink:title=" ">
<polygon fill="white" stroke="black" points="525.79,-0.5 525.79,-19.5 606.79,-19.5 606.79,-0.5 525.79,-0.5"/>
<text text-anchor="middle" x="566.29" y="-7.5" font-family="Helvetica,sans-Serif" font-size="10.00">dolphin/types.h</text>
</a>
</g>
</g>
<!-- Node7&#45;&gt;Node8 -->
<g id="edge7" class="edge">
<title>Node7&#45;&gt;Node8</title>
<path fill="none" stroke="midnightblue" d="M733.32,-190.43C706.21,-161.32 617.34,-65.84 581.49,-27.32"/>
<polygon fill="midnightblue" stroke="midnightblue" points="583.69,-24.55 574.31,-19.62 578.56,-29.32 583.69,-24.55"/>
</g>
<!-- Node9 -->
<g id="node9" class="node">
<title>Node9</title>
<g id="a_node9"><a xlink:href="AR_8h.html" target="_top" xlink:title=" ">
<polygon fill="white" stroke="black" points="661.79,-62 661.79,-81 710.79,-81 710.79,-62 661.79,-62"/>
<text text-anchor="middle" x="686.29" y="-69" font-family="Helvetica,sans-Serif" font-size="10.00">ar/AR.h</text>
</a>
</g>
</g>
<!-- Node7&#45;&gt;Node9 -->
<g id="edge8" class="edge">
<title>Node7&#45;&gt;Node9</title>
<path fill="none" stroke="midnightblue" d="M737.51,-190.31C728.6,-169.81 706.14,-118.15 694.14,-90.54"/>
<polygon fill="midnightblue" stroke="midnightblue" points="697.29,-89.03 690.1,-81.26 690.88,-91.82 697.29,-89.03"/>
</g>
<!-- Node10 -->
<g id="node10" class="node">
<title>Node10</title>
<g id="a_node10"><a xlink:href="ARQ_8h.html" target="_top" xlink:title=" ">
<polygon fill="white" stroke="black" points="729.29,-62 729.29,-81 785.29,-81 785.29,-62 729.29,-62"/>
<text text-anchor="middle" x="757.29" y="-69" font-family="Helvetica,sans-Serif" font-size="10.00">ar/ARQ.h</text>
</a>
</g>
</g>
<!-- Node7&#45;&gt;Node10 -->
<g id="edge10" class="edge">
<title>Node7&#45;&gt;Node10</title>
<path fill="none" stroke="midnightblue" d="M742.39,-190.31C744.96,-169.99 751.4,-119.05 754.92,-91.28"/>
<polygon fill="midnightblue" stroke="midnightblue" points="758.4,-91.62 756.18,-81.26 751.46,-90.74 758.4,-91.62"/>
</g>
<!-- Node11 -->
<g id="node11" class="node">
<title>Node11</title>
<g id="a_node11"><a xlink:href="mwcc_8h.html" target="_top" xlink:title=" ">
<polygon fill="white" stroke="black" points="769.29,-129 769.29,-148 819.29,-148 819.29,-129 769.29,-129"/>
<text text-anchor="middle" x="794.29" y="-136" font-family="Helvetica,sans-Serif" font-size="10.00">mwcc.h</text>
</a>
</g>
</g>
<!-- Node7&#45;&gt;Node11 -->
<g id="edge12" class="edge">
<title>Node7&#45;&gt;Node11</title>
<path fill="none" stroke="midnightblue" d="M748.88,-190.48C756.99,-181.37 770.03,-166.74 780.05,-155.48"/>
<polygon fill="midnightblue" stroke="midnightblue" points="782.67,-157.8 786.71,-148.01 777.45,-153.15 782.67,-157.8"/>
</g>
<!-- Node12 -->
<g id="node12" class="node">
<title>Node12</title>
<g id="a_node12"><a xlink:href="OS_8h.html" target="_top" xlink:title=" ">
<polygon fill="white" stroke="black" points="553.29,-129 553.29,-148 605.29,-148 605.29,-129 553.29,-129"/>
<text text-anchor="middle" x="579.29" y="-136" font-family="Helvetica,sans-Serif" font-size="10.00">os/OS.h</text>
</a>
</g>
</g>
<!-- Node7&#45;&gt;Node12 -->
<g id="edge13" class="edge">
<title>Node7&#45;&gt;Node12</title>
<path fill="none" stroke="midnightblue" d="M718.08,-190.48C690.29,-180.27 643.57,-163.11 612.1,-151.55"/>
<polygon fill="midnightblue" stroke="midnightblue" points="613.05,-148.17 602.46,-148.01 610.64,-154.74 613.05,-148.17"/>
</g>
<!-- Node9&#45;&gt;Node8 -->
<g id="edge9" class="edge">
<title>Node9&#45;&gt;Node8</title>
<path fill="none" stroke="midnightblue" d="M669.1,-61.98C649.05,-52.03 615.69,-35.49 592.43,-23.96"/>
<polygon fill="midnightblue" stroke="midnightblue" points="593.97,-20.82 583.45,-19.51 590.86,-27.09 593.97,-20.82"/>
</g>
<!-- Node10&#45;&gt;Node8 -->
<g id="edge11" class="edge">
<title>Node10&#45;&gt;Node8</title>
<path fill="none" stroke="midnightblue" d="M735.69,-61.92C730.36,-59.9 724.64,-57.81 719.29,-56 681.93,-43.4 638.79,-30.89 607.86,-22.28"/>
<polygon fill="midnightblue" stroke="midnightblue" points="608.44,-18.8 597.87,-19.51 606.57,-25.55 608.44,-18.8"/>
</g>
<!-- Node12&#45;&gt;Node8 -->
<g id="edge14" class="edge">
<title>Node12&#45;&gt;Node8</title>
<path fill="none" stroke="midnightblue" d="M579.29,-128.9C579.19,-113.99 578.56,-82.43 575.29,-56 574.2,-47.19 572.36,-37.53 570.62,-29.43"/>
<polygon fill="midnightblue" stroke="midnightblue" points="574.01,-28.55 568.4,-19.57 567.18,-30.09 574.01,-28.55"/>
</g>
<!-- Node13 -->
<g id="node13" class="node">
<title>Node13</title>
<g id="a_node13"><a xlink:href="dvd_8h.html" target="_top" xlink:title=" ">
<polygon fill="white" stroke="black" points="507.79,-62 507.79,-81 566.79,-81 566.79,-62 507.79,-62"/>
<text text-anchor="middle" x="537.29" y="-69" font-family="Helvetica,sans-Serif" font-size="10.00">dvd/dvd.h</text>
</a>
</g>
</g>
<!-- Node12&#45;&gt;Node13 -->
<g id="edge15" class="edge">
<title>Node12&#45;&gt;Node13</title>
<path fill="none" stroke="midnightblue" d="M573.63,-128.73C567.2,-118.79 556.57,-102.34 548.46,-89.79"/>
<polygon fill="midnightblue" stroke="midnightblue" points="551.23,-87.63 542.87,-81.13 545.35,-91.43 551.23,-87.63"/>
</g>
<!-- Node13&#45;&gt;Node8 -->
<g id="edge16" class="edge">
<title>Node13&#45;&gt;Node8</title>
<path fill="none" stroke="midnightblue" d="M541.45,-61.98C545.67,-53.32 552.33,-39.65 557.69,-28.65"/>
<polygon fill="midnightblue" stroke="midnightblue" points="560.91,-30.03 562.14,-19.51 554.62,-26.96 560.91,-30.03"/>
</g>
<!-- Node14&#45;&gt;Node8 -->
<g id="edge19" class="edge">
<title>Node14&#45;&gt;Node8</title>
<path fill="none" stroke="midnightblue" d="M1199.86,-190.37C1136.8,-166.36 952.2,-97.78 794.29,-56 734.1,-40.07 663.62,-27 617.13,-19.12"/>
<polygon fill="midnightblue" stroke="midnightblue" points="617.45,-15.62 607.01,-17.42 616.29,-22.53 617.45,-15.62"/>
</g>
<!-- Node15&#45;&gt;Node5 -->
<g id="edge25" class="edge">
<title>Node15&#45;&gt;Node5</title>
<path fill="none" stroke="midnightblue" d="M1352.03,-447.3C1342.07,-429.16 1322.47,-397.96 1297.29,-380 1269.77,-360.37 1234.14,-348.02 1204.19,-340.45"/>
<polygon fill="midnightblue" stroke="midnightblue" points="1204.81,-337 1194.27,-338.06 1203.17,-343.81 1204.81,-337"/>
</g>
<!-- Node15&#45;&gt;Node7 -->
<g id="edge26" class="edge">
<title>Node15&#45;&gt;Node7</title>
<path fill="none" stroke="midnightblue" d="M1417.39,-448.58C1437.32,-441.07 1457.55,-429.31 1469.29,-411 1476.73,-399.4 1475.68,-392.21 1469.29,-380 1420.89,-287.47 1374.55,-281.36 1276.29,-246 1183.85,-212.74 880.92,-203.74 776.81,-201.6"/>
<polygon fill="midnightblue" stroke="midnightblue" points="776.58,-198.1 766.52,-201.4 776.45,-205.1 776.58,-198.1"/>
</g>
<!-- Node16 -->
<g id="node16" class="node">
<title>Node16</title>
<g id="a_node16"><a xlink:href="c__m3d__g__lin_8h.html" target="_top" xlink:title=" ">
<polygon fill="white" stroke="black" points="1344.29,-380.5 1344.29,-410.5 1460.29,-410.5 1460.29,-380.5 1344.29,-380.5"/>
<text text-anchor="start" x="1352.29" y="-398.5" font-family="Helvetica,sans-Serif" font-size="10.00">SComponent/c_m3d_g</text>
<text text-anchor="middle" x="1402.29" y="-387.5" font-family="Helvetica,sans-Serif" font-size="10.00">_lin.h</text>
</a>
</g>
</g>
<!-- Node15&#45;&gt;Node16 -->
<g id="edge22" class="edge">
<title>Node15&#45;&gt;Node16</title>
<path fill="none" stroke="midnightblue" d="M1368.62,-447.4C1374.09,-439.13 1381.12,-428.51 1387.34,-419.1"/>
<polygon fill="midnightblue" stroke="midnightblue" points="1390.38,-420.85 1392.98,-410.58 1384.54,-416.99 1390.38,-420.85"/>
</g>
<!-- Node16&#45;&gt;Node5 -->
<g id="edge23" class="edge">
<title>Node16&#45;&gt;Node5</title>
<path fill="none" stroke="midnightblue" d="M1346.63,-380.48C1299.08,-368.5 1231.62,-351.5 1187.91,-340.49"/>
<polygon fill="midnightblue" stroke="midnightblue" points="1188.7,-337.08 1178.14,-338.03 1186.98,-343.87 1188.7,-337.08"/>
</g>
<!-- Node16&#45;&gt;Node7 -->
<g id="edge24" class="edge">
<title>Node16&#45;&gt;Node7</title>
<path fill="none" stroke="midnightblue" d="M1391.68,-380.26C1367.75,-349.4 1306.14,-276.69 1235.29,-246 1152.66,-210.2 875.36,-202.86 776.6,-201.37"/>
<polygon fill="midnightblue" stroke="midnightblue" points="776.58,-197.87 766.53,-201.23 776.48,-204.87 776.58,-197.87"/>
</g>
<!-- Node17&#45;&gt;Node5 -->
<g id="edge28" class="edge">
<title>Node17&#45;&gt;Node5</title>
<path fill="none" stroke="midnightblue" d="M1047.2,-380.4C1068.57,-369.19 1098.24,-353.64 1119.14,-342.69"/>
<polygon fill="midnightblue" stroke="midnightblue" points="1120.83,-345.75 1128.06,-338.01 1117.58,-339.55 1120.83,-345.75"/>
</g>
<!-- Node17&#45;&gt;Node7 -->
<g id="edge29" class="edge">
<title>Node17&#45;&gt;Node7</title>
<path fill="none" stroke="midnightblue" d="M1014.39,-380.1C1001.37,-350.21 967.26,-281.31 916.29,-246 873.98,-216.69 814.02,-206.47 776.41,-202.9"/>
<polygon fill="midnightblue" stroke="midnightblue" points="776.69,-199.41 766.43,-202.06 776.1,-206.39 776.69,-199.41"/>
</g>
<!-- Node18&#45;&gt;Node5 -->
<g id="edge32" class="edge">
<title>Node18&#45;&gt;Node5</title>
<path fill="none" stroke="midnightblue" d="M1118.39,-447.37C1123.66,-423.4 1134.35,-374.75 1140.21,-348.06"/>
<polygon fill="midnightblue" stroke="midnightblue" points="1143.67,-348.62 1142.4,-338.1 1136.84,-347.11 1143.67,-348.62"/>
</g>
<!-- Node18&#45;&gt;Node7 -->
<g id="edge33" class="edge">
<title>Node18&#45;&gt;Node7</title>
<path fill="none" stroke="midnightblue" d="M1112.57,-447.34C1108.85,-430.33 1101,-401.42 1087.29,-380 1040.88,-307.45 1023.32,-286.48 947.29,-246 892.33,-216.74 819.47,-206.49 776.75,-202.92"/>
<polygon fill="midnightblue" stroke="midnightblue" points="776.81,-199.41 766.57,-202.14 776.28,-206.39 776.81,-199.41"/>
</g>
<!-- Node18&#45;&gt;Node17 -->
<g id="edge31" class="edge">
<title>Node18&#45;&gt;Node17</title>
<path fill="none" stroke="midnightblue" d="M1094.68,-447.4C1081.36,-438.28 1063.83,-426.29 1049.14,-416.24"/>
<polygon fill="midnightblue" stroke="midnightblue" points="1051.09,-413.33 1040.86,-410.58 1047.14,-419.11 1051.09,-413.33"/>
</g>
<!-- Node19&#45;&gt;Node5 -->
<g id="edge46" class="edge">
<title>Node19&#45;&gt;Node5</title>
<path fill="none" stroke="midnightblue" d="M868.22,-704.4C882.86,-696.81 902.55,-684.41 914.29,-668 933.24,-641.51 934.29,-630.07 934.29,-597.5 934.29,-597.5 934.29,-597.5 934.29,-461.5 934.29,-424.31 927.38,-406.68 953.29,-380 970.97,-361.79 1032.03,-347.76 1080.41,-339.16"/>
<polygon fill="midnightblue" stroke="midnightblue" points="1081.26,-342.57 1090.52,-337.41 1080.07,-335.67 1081.26,-342.57"/>
</g>
<!-- Node20 -->
<g id="node20" class="node">
<title>Node20</title>
<g id="a_node20"><a xlink:href="JKRSolidHeap_8h.html" target="_top" xlink:title=" ">
<polygon fill="white" stroke="black" points="29.29,-313.5 29.29,-343.5 163.29,-343.5 163.29,-313.5 29.29,-313.5"/>
<text text-anchor="start" x="37.29" y="-331.5" font-family="Helvetica,sans-Serif" font-size="10.00">JSystem/JKernel/JKRSolid</text>
<text text-anchor="middle" x="96.29" y="-320.5" font-family="Helvetica,sans-Serif" font-size="10.00">Heap/JKRSolidHeap.h</text>
</a>
</g>
</g>
<!-- Node19&#45;&gt;Node20 -->
<g id="edge35" class="edge">
<title>Node19&#45;&gt;Node20</title>
<path fill="none" stroke="midnightblue" d="M799.91,-711.3C667.14,-705.81 306.41,-684.4 216.29,-612 132.76,-544.89 106.41,-408.9 98.96,-353.65"/>
<polygon fill="midnightblue" stroke="midnightblue" points="102.43,-353.2 97.7,-343.72 95.48,-354.08 102.43,-353.2"/>
</g>
<!-- Node24 -->
<g id="node24" class="node">
<title>Node24</title>
<g id="a_node24"><a xlink:href="c__sxyz_8h.html" target="_top" xlink:title=" ">
<polygon fill="white" stroke="black" points="792.79,-648.5 792.79,-667.5 905.79,-667.5 905.79,-648.5 792.79,-648.5"/>
<text text-anchor="middle" x="849.29" y="-655.5" font-family="Helvetica,sans-Serif" font-size="10.00">SComponent/c_sxyz.h</text>
</a>
</g>
</g>
<!-- Node19&#45;&gt;Node24 -->
<g id="edge44" class="edge">
<title>Node19&#45;&gt;Node24</title>
<path fill="none" stroke="midnightblue" d="M849.29,-704.08C849.29,-697.01 849.29,-686.86 849.29,-677.99"/>
<polygon fill="midnightblue" stroke="midnightblue" points="852.79,-677.75 849.29,-667.75 845.79,-677.75 852.79,-677.75"/>
</g>
<!-- Node25 -->
<g id="node25" class="node">
<title>Node25</title>
<g id="a_node25"><a xlink:href="f__pc__base_8h.html" target="_top" xlink:title=" ">
<polygon fill="white" stroke="black" points="525.79,-648.5 525.79,-667.5 622.79,-667.5 622.79,-648.5 525.79,-648.5"/>
<text text-anchor="middle" x="574.29" y="-655.5" font-family="Helvetica,sans-Serif" font-size="10.00">f/f_pc/f_pc_base.h</text>
</a>
</g>
</g>
<!-- Node19&#45;&gt;Node25 -->
<g id="edge47" class="edge">
<title>Node19&#45;&gt;Node25</title>
<path fill="none" stroke="midnightblue" d="M805.72,-704.44C757.44,-694.96 679.58,-679.67 627.68,-669.48"/>
<polygon fill="midnightblue" stroke="midnightblue" points="628.15,-666.01 617.66,-667.52 626.8,-672.88 628.15,-666.01"/>
</g>
<!-- Node20&#45;&gt;Node8 -->
<g id="edge43" class="edge">
<title>Node20&#45;&gt;Node8</title>
<path fill="none" stroke="midnightblue" d="M63.98,-313.34C48.31,-304.91 30.49,-292.77 19.29,-277 -0.87,-248.62 0.29,-235.82 0.29,-201 0.29,-201 0.29,-201 0.29,-137.5 0.29,-32.5 375.98,-14.62 515.2,-11.6"/>
<polygon fill="midnightblue" stroke="midnightblue" points="515.66,-15.1 525.59,-11.4 515.52,-8.1 515.66,-15.1"/>
</g>
<!-- Node21 -->
<g id="node21" class="node">
<title>Node21</title>
<g id="a_node21"><a xlink:href="JKRHeap_8h.html" target="_top" xlink:title=" ">
<polygon fill="white" stroke="black" points="28.29,-246.5 28.29,-276.5 164.29,-276.5 164.29,-246.5 28.29,-246.5"/>
<text text-anchor="start" x="36.29" y="-264.5" font-family="Helvetica,sans-Serif" font-size="10.00">JSystem/JKernel/JKRHeap</text>
<text text-anchor="middle" x="96.29" y="-253.5" font-family="Helvetica,sans-Serif" font-size="10.00">/JKRHeap.h</text>
</a>
</g>
</g>
<!-- Node20&#45;&gt;Node21 -->
<g id="edge36" class="edge">
<title>Node20&#45;&gt;Node21</title>
<path fill="none" stroke="midnightblue" d="M96.29,-313.4C96.29,-305.64 96.29,-295.81 96.29,-286.86"/>
<polygon fill="midnightblue" stroke="midnightblue" points="99.79,-286.58 96.29,-276.58 92.79,-286.58 99.79,-286.58"/>
</g>
<!-- Node21&#45;&gt;Node7 -->
<g id="edge42" class="edge">
<title>Node21&#45;&gt;Node7</title>
<path fill="none" stroke="midnightblue" d="M164.67,-247.91C169.27,-247.21 173.85,-246.57 178.29,-246 377.13,-220.53 617.44,-207.04 706.17,-202.64"/>
<polygon fill="midnightblue" stroke="midnightblue" points="706.41,-206.13 716.23,-202.15 706.07,-199.14 706.41,-206.13"/>
</g>
<!-- Node21&#45;&gt;Node8 -->
<g id="edge41" class="edge">
<title>Node21&#45;&gt;Node8</title>
<path fill="none" stroke="midnightblue" d="M155.27,-246.46C238.52,-225.85 385.26,-186.34 429.29,-154 472.23,-122.47 460.08,-93.12 498.29,-56 511,-43.66 527.53,-32.63 541.11,-24.58"/>
<polygon fill="midnightblue" stroke="midnightblue" points="543.02,-27.52 549.95,-19.5 539.54,-21.44 543.02,-27.52"/>
</g>
<!-- Node22 -->
<g id="node22" class="node">
<title>Node22</title>
<g id="a_node22"><a xlink:href="JKRDisposer_8h.html" target="_top" xlink:title=" ">
<polygon fill="white" stroke="black" points="269.79,-123.5 269.79,-153.5 420.79,-153.5 420.79,-123.5 269.79,-123.5"/>
<text text-anchor="start" x="277.79" y="-141.5" font-family="Helvetica,sans-Serif" font-size="10.00">JSystem/JKernel/JKRDisposer</text>
<text text-anchor="middle" x="345.29" y="-130.5" font-family="Helvetica,sans-Serif" font-size="10.00">/JKRDisposer.h</text>
</a>
</g>
</g>
<!-- Node21&#45;&gt;Node22 -->
<g id="edge37" class="edge">
<title>Node21&#45;&gt;Node22</title>
<path fill="none" stroke="midnightblue" d="M125.34,-246.38C170.42,-224.48 257.21,-182.3 307.23,-157.99"/>
<polygon fill="midnightblue" stroke="midnightblue" points="308.96,-161.05 316.43,-153.53 305.9,-154.75 308.96,-161.05"/>
</g>
<!-- Node22&#45;&gt;Node8 -->
<g id="edge40" class="edge">
<title>Node22&#45;&gt;Node8</title>
<path fill="none" stroke="midnightblue" d="M367.37,-123.39C382.86,-113.4 403.98,-99.59 422.29,-87 441.7,-73.65 444.87,-67.74 465.29,-56 487.46,-43.25 513.9,-31.59 534.17,-23.33"/>
<polygon fill="midnightblue" stroke="midnightblue" points="535.6,-26.53 543.58,-19.56 532.99,-20.03 535.6,-26.53"/>
</g>
<!-- Node23 -->
<g id="node23" class="node">
<title>Node23</title>
<g id="a_node23"><a xlink:href="JSUList_8h.html" target="_top" xlink:title=" ">
<polygon fill="white" stroke="black" points="277.29,-56.5 277.29,-86.5 413.29,-86.5 413.29,-56.5 277.29,-56.5"/>
<text text-anchor="start" x="285.29" y="-74.5" font-family="Helvetica,sans-Serif" font-size="10.00">JSystem/JSupport/JSUList</text>
<text text-anchor="middle" x="345.29" y="-63.5" font-family="Helvetica,sans-Serif" font-size="10.00">/JSUList.h</text>
</a>
</g>
</g>
<!-- Node22&#45;&gt;Node23 -->
<g id="edge38" class="edge">
<title>Node22&#45;&gt;Node23</title>
<path fill="none" stroke="midnightblue" d="M345.29,-123.4C345.29,-115.64 345.29,-105.81 345.29,-96.86"/>
<polygon fill="midnightblue" stroke="midnightblue" points="348.79,-96.58 345.29,-86.58 341.79,-96.58 348.79,-96.58"/>
</g>
<!-- Node23&#45;&gt;Node8 -->
<g id="edge39" class="edge">
<title>Node23&#45;&gt;Node8</title>
<path fill="none" stroke="midnightblue" d="M397.38,-56.47C436.34,-45.99 488.9,-31.84 524.98,-22.12"/>
<polygon fill="midnightblue" stroke="midnightblue" points="525.95,-25.49 534.7,-19.51 524.13,-18.73 525.95,-25.49"/>
</g>
<!-- Node24&#45;&gt;Node7 -->
<g id="edge45" class="edge">
<title>Node24&#45;&gt;Node7</title>
<path fill="none" stroke="midnightblue" d="M855.05,-648.22C867.6,-628.21 896.29,-577.36 896.29,-530.5 896.29,-530.5 896.29,-530.5 896.29,-461.5 896.29,-364.54 928.56,-316.79 862.29,-246 839.98,-222.17 803.88,-210.89 776.91,-205.59"/>
<polygon fill="midnightblue" stroke="midnightblue" points="777.17,-202.08 766.71,-203.78 775.94,-208.97 777.17,-202.08"/>
</g>
<!-- Node25&#45;&gt;Node7 -->
<g id="edge57" class="edge">
<title>Node25&#45;&gt;Node7</title>
<path fill="none" stroke="midnightblue" d="M525.62,-655.37C449.8,-651.93 308.07,-641.63 268.29,-612 236.24,-588.12 230.29,-570.47 230.29,-530.5 230.29,-530.5 230.29,-530.5 230.29,-327.5 230.29,-285.46 242.85,-268.6 278.29,-246 349.09,-200.85 610.38,-199.36 705.97,-200.39"/>
<polygon fill="midnightblue" stroke="midnightblue" points="705.96,-203.89 716,-200.51 706.05,-196.89 705.96,-203.89"/>
</g>
<!-- Node26 -->
<g id="node26" class="node">
<title>Node26</title>
<g id="a_node26"><a xlink:href="c__tag_8h.html" target="_top" xlink:title=" ">
<polygon fill="white" stroke="black" points="494.79,-453 494.79,-472 601.79,-472 601.79,-453 494.79,-453"/>
<text text-anchor="middle" x="548.29" y="-460" font-family="Helvetica,sans-Serif" font-size="10.00">SComponent/c_tag.h</text>
</a>
</g>
</g>
<!-- Node25&#45;&gt;Node26 -->
<g id="edge48" class="edge">
<title>Node25&#45;&gt;Node26</title>
<path fill="none" stroke="midnightblue" d="M569,-648.42C563.9,-639.64 556.5,-625.41 553.29,-612 542.36,-566.36 544.44,-510.59 546.56,-482.14"/>
<polygon fill="midnightblue" stroke="midnightblue" points="550.06,-482.29 547.4,-472.03 543.08,-481.71 550.06,-482.29"/>
</g>
<!-- Node30 -->
<g id="node30" class="node">
<title>Node30</title>
<g id="a_node30"><a xlink:href="f__pc__delete__tag_8h.html" target="_top" xlink:title=" ">
<polygon fill="white" stroke="black" points="277.79,-581.5 277.79,-611.5 372.79,-611.5 372.79,-581.5 277.79,-581.5"/>
<text text-anchor="start" x="285.79" y="-599.5" font-family="Helvetica,sans-Serif" font-size="10.00">f/f_pc/f_pc_delete</text>
<text text-anchor="middle" x="325.29" y="-588.5" font-family="Helvetica,sans-Serif" font-size="10.00">_tag.h</text>
</a>
</g>
</g>
<!-- Node25&#45;&gt;Node30 -->
<g id="edge58" class="edge">
<title>Node25&#45;&gt;Node30</title>
<path fill="none" stroke="midnightblue" d="M536.5,-648.48C499.6,-640.09 441.6,-626.73 382.76,-612.33"/>
<polygon fill="midnightblue" stroke="midnightblue" points="383.48,-608.9 372.93,-609.92 381.81,-615.7 383.48,-608.9"/>
</g>
<!-- Node32 -->
<g id="node32" class="node">
<title>Node32</title>
<g id="a_node32"><a xlink:href="f__pc__layer__tag_8h.html" target="_top" xlink:title=" ">
<polygon fill="white" stroke="black" points="390.79,-587 390.79,-606 505.79,-606 505.79,-587 390.79,-587"/>
<text text-anchor="middle" x="448.29" y="-594" font-family="Helvetica,sans-Serif" font-size="10.00">f/f_pc/f_pc_layer_tag.h</text>
</a>
</g>
</g>
<!-- Node25&#45;&gt;Node32 -->
<g id="edge66" class="edge">
<title>Node25&#45;&gt;Node32</title>
<path fill="none" stroke="midnightblue" d="M556.24,-648.48C535.09,-638.49 499.85,-621.85 475.41,-610.31"/>
<polygon fill="midnightblue" stroke="midnightblue" points="476.85,-607.11 466.31,-606.01 473.86,-613.44 476.85,-607.11"/>
</g>
<!-- Node33 -->
<g id="node33" class="node">
<title>Node33</title>
<g id="a_node33"><a xlink:href="f__pc__line__tag_8h.html" target="_top" xlink:title=" ">
<polygon fill="white" stroke="black" points="720.29,-520 720.29,-539 830.29,-539 830.29,-520 720.29,-520"/>
<text text-anchor="middle" x="775.29" y="-527" font-family="Helvetica,sans-Serif" font-size="10.00">f/f_pc/f_pc_line_tag.h</text>
</a>
</g>
</g>
<!-- Node25&#45;&gt;Node33 -->
<g id="edge70" class="edge">
<title>Node25&#45;&gt;Node33</title>
<path fill="none" stroke="midnightblue" d="M598.04,-648.48C619.08,-640.46 650.27,-627.39 675.29,-612 707.2,-592.37 740.1,-563.61 759.07,-546.02"/>
<polygon fill="midnightblue" stroke="midnightblue" points="761.64,-548.41 766.53,-539.01 756.85,-543.3 761.64,-548.41"/>
</g>
<!-- Node34 -->
<g id="node34" class="node">
<title>Node34</title>
<g id="a_node34"><a xlink:href="f__pc__priority_8h.html" target="_top" xlink:title=" ">
<polygon fill="white" stroke="black" points="562.29,-587 562.29,-606 666.29,-606 666.29,-587 562.29,-587"/>
<text text-anchor="middle" x="614.29" y="-594" font-family="Helvetica,sans-Serif" font-size="10.00">f/f_pc/f_pc_priority.h</text>
</a>
</g>
</g>
<!-- Node25&#45;&gt;Node34 -->
<g id="edge73" class="edge">
<title>Node25&#45;&gt;Node34</title>
<path fill="none" stroke="midnightblue" d="M580.02,-648.48C585.96,-639.64 595.41,-625.59 602.88,-614.48"/>
<polygon fill="midnightblue" stroke="midnightblue" points="605.9,-616.26 608.57,-606.01 600.09,-612.36 605.9,-616.26"/>
</g>
<!-- Node36 -->
<g id="node36" class="node">
<title>Node36</title>
<g id="a_node36"><a xlink:href="f__pc__profile_8h.html" target="_top" xlink:title=" ">
<polygon fill="white" stroke="black" points="772.79,-319 772.79,-338 873.79,-338 873.79,-319 772.79,-319"/>
<text text-anchor="middle" x="823.29" y="-326" font-family="Helvetica,sans-Serif" font-size="10.00">f/f_pc/f_pc_profile.h</text>
</a>
</g>
</g>
<!-- Node25&#45;&gt;Node36 -->
<g id="edge78" class="edge">
<title>Node25&#45;&gt;Node36</title>
<path fill="none" stroke="midnightblue" d="M623.11,-656.47C704.31,-652.74 858.29,-632.24 858.29,-530.5 858.29,-530.5 858.29,-530.5 858.29,-461.5 858.29,-419.6 841.61,-372.63 831.28,-347.57"/>
<polygon fill="midnightblue" stroke="midnightblue" points="834.45,-346.08 827.31,-338.25 828.01,-348.82 834.45,-346.08"/>
</g>
<!-- Node26&#45;&gt;Node7 -->
<g id="edge56" class="edge">
<title>Node26&#45;&gt;Node7</title>
<path fill="none" stroke="midnightblue" d="M555.89,-452.69C563.98,-442.98 576.77,-426.66 585.29,-411 622.82,-342.06 595.22,-303.84 648.29,-246 663.78,-229.12 686.97,-217.88 706.31,-210.86"/>
<polygon fill="midnightblue" stroke="midnightblue" points="707.67,-214.09 716.02,-207.56 705.42,-207.46 707.67,-214.09"/>
</g>
<!-- Node27 -->
<g id="node27" class="node">
<title>Node27</title>
<g id="a_node27"><a xlink:href="c__list_8h.html" target="_top" xlink:title=" ">
<polygon fill="white" stroke="black" points="450.79,-319 450.79,-338 557.79,-338 557.79,-319 450.79,-319"/>
<text text-anchor="middle" x="504.29" y="-326" font-family="Helvetica,sans-Serif" font-size="10.00">SComponent/c_list.h</text>
</a>
</g>
</g>
<!-- Node26&#45;&gt;Node27 -->
<g id="edge49" class="edge">
<title>Node26&#45;&gt;Node27</title>
<path fill="none" stroke="midnightblue" d="M546.93,-452.75C544.44,-437.61 538.51,-405.71 529.29,-380 525.22,-368.65 519.28,-356.53 514.21,-347.01"/>
<polygon fill="midnightblue" stroke="midnightblue" points="517.24,-345.25 509.36,-338.17 511.1,-348.62 517.24,-345.25"/>
</g>
<!-- Node28 -->
<g id="node28" class="node">
<title>Node28</title>
<g id="a_node28"><a xlink:href="c__node_8h.html" target="_top" xlink:title=" ">
<polygon fill="white" stroke="black" points="446.79,-252 446.79,-271 561.79,-271 561.79,-252 446.79,-252"/>
<text text-anchor="middle" x="504.29" y="-259" font-family="Helvetica,sans-Serif" font-size="10.00">SComponent/c_node.h</text>
</a>
</g>
</g>
<!-- Node26&#45;&gt;Node28 -->
<g id="edge52" class="edge">
<title>Node26&#45;&gt;Node28</title>
<path fill="none" stroke="midnightblue" d="M552.4,-452.94C563.1,-429.33 589.48,-361.79 566.29,-313 558.88,-297.41 544.05,-285.06 530.75,-276.47"/>
<polygon fill="midnightblue" stroke="midnightblue" points="532.27,-273.3 521.9,-271.13 528.65,-279.29 532.27,-273.3"/>
</g>
<!-- Node29 -->
<g id="node29" class="node">
<title>Node29</title>
<g id="a_node29"><a xlink:href="c__tree_8h.html" target="_top" xlink:title=" ">
<polygon fill="white" stroke="black" points="410.29,-386 410.29,-405 520.29,-405 520.29,-386 410.29,-386"/>
<text text-anchor="middle" x="465.29" y="-393" font-family="Helvetica,sans-Serif" font-size="10.00">SComponent/c_tree.h</text>
</a>
</g>
</g>
<!-- Node26&#45;&gt;Node29 -->
<g id="edge53" class="edge">
<title>Node26&#45;&gt;Node29</title>
<path fill="none" stroke="midnightblue" d="M537.1,-452.73C523.66,-442.21 500.89,-424.38 484.59,-411.62"/>
<polygon fill="midnightblue" stroke="midnightblue" points="486.34,-408.54 476.31,-405.13 482.02,-414.05 486.34,-408.54"/>
</g>
<!-- Node27&#45;&gt;Node28 -->
<g id="edge50" class="edge">
<title>Node27&#45;&gt;Node28</title>
<path fill="none" stroke="midnightblue" d="M504.29,-318.73C504.29,-309.18 504.29,-293.62 504.29,-281.28"/>
<polygon fill="midnightblue" stroke="midnightblue" points="507.79,-281.13 504.29,-271.13 500.79,-281.13 507.79,-281.13"/>
</g>
<!-- Node28&#45;&gt;Node7 -->
<g id="edge51" class="edge">
<title>Node28&#45;&gt;Node7</title>
<path fill="none" stroke="midnightblue" d="M538.25,-251.98C582.89,-240.77 660.95,-221.17 706.17,-209.82"/>
<polygon fill="midnightblue" stroke="midnightblue" points="707.26,-213.15 716.11,-207.32 705.56,-206.36 707.26,-213.15"/>
</g>
<!-- Node29&#45;&gt;Node27 -->
<g id="edge54" class="edge">
<title>Node29&#45;&gt;Node27</title>
<path fill="none" stroke="midnightblue" d="M470.55,-385.73C476.52,-375.79 486.39,-359.34 493.92,-346.79"/>
<polygon fill="midnightblue" stroke="midnightblue" points="496.97,-348.5 499.11,-338.13 490.97,-344.9 496.97,-348.5"/>
</g>
<!-- Node29&#45;&gt;Node28 -->
<g id="edge55" class="edge">
<title>Node29&#45;&gt;Node28</title>
<path fill="none" stroke="midnightblue" d="M458.57,-385.6C447.86,-370.23 429.29,-338 441.29,-313 448.83,-297.29 463.9,-284.93 477.42,-276.37"/>
<polygon fill="midnightblue" stroke="midnightblue" points="479.58,-279.16 486.41,-271.06 476.02,-273.13 479.58,-279.16"/>
</g>
<!-- Node30&#45;&gt;Node7 -->
<g id="edge65" class="edge">
<title>Node30&#45;&gt;Node7</title>
<path fill="none" stroke="midnightblue" d="M314.57,-581.33C298.06,-558.05 268.29,-509.68 268.29,-463.5 268.29,-463.5 268.29,-463.5 268.29,-327.5 268.29,-284.77 283.06,-268.66 319.29,-246 383.44,-205.87 616.32,-201.17 705.87,-200.88"/>
<polygon fill="midnightblue" stroke="midnightblue" points="706.06,-204.38 716.06,-200.86 706.05,-197.38 706.06,-204.38"/>
</g>
<!-- Node30&#45;&gt;Node26 -->
<g id="edge59" class="edge">
<title>Node30&#45;&gt;Node26</title>
<path fill="none" stroke="midnightblue" d="M362.52,-581.49C385.32,-572.31 414.72,-559.38 439.29,-545 473.52,-524.96 509.73,-496.16 530.6,-478.7"/>
<polygon fill="midnightblue" stroke="midnightblue" points="532.93,-481.31 538.31,-472.19 528.41,-475.97 532.93,-481.31"/>
</g>
<!-- Node31 -->
<g id="node31" class="node">
<title>Node31</title>
<g id="a_node31"><a xlink:href="f__pc__layer_8h.html" target="_top" xlink:title=" ">
<polygon fill="white" stroke="black" points="334.29,-520 334.29,-539 430.29,-539 430.29,-520 334.29,-520"/>
<text text-anchor="middle" x="382.29" y="-527" font-family="Helvetica,sans-Serif" font-size="10.00">f/f_pc/f_pc_layer.h</text>
</a>
</g>
</g>
<!-- Node30&#45;&gt;Node31 -->
<g id="edge60" class="edge">
<title>Node30&#45;&gt;Node31</title>
<path fill="none" stroke="midnightblue" d="M337.66,-581.4C346.55,-571.26 358.55,-557.57 367.88,-546.94"/>
<polygon fill="midnightblue" stroke="midnightblue" points="370.7,-549.02 374.67,-539.19 365.44,-544.41 370.7,-549.02"/>
</g>
<!-- Node31&#45;&gt;Node7 -->
<g id="edge64" class="edge">
<title>Node31&#45;&gt;Node7</title>
<path fill="none" stroke="midnightblue" d="M377.93,-519.79C367.95,-499.01 344.29,-444.67 344.29,-396.5 344.29,-396.5 344.29,-396.5 344.29,-327.5 344.29,-272.54 387.41,-269.07 437.29,-246 484.62,-224.11 636.9,-209.41 706.27,-203.69"/>
<polygon fill="midnightblue" stroke="midnightblue" points="706.59,-207.17 716.28,-202.88 706.03,-200.19 706.59,-207.17"/>
</g>
<!-- Node31&#45;&gt;Node26 -->
<g id="edge62" class="edge">
<title>Node31&#45;&gt;Node26</title>
<path fill="none" stroke="midnightblue" d="M404.33,-519.87C433.19,-508.57 483.94,-488.7 516.83,-475.82"/>
<polygon fill="midnightblue" stroke="midnightblue" points="518.39,-478.97 526.42,-472.06 515.83,-472.45 518.39,-478.97"/>
</g>
<!-- Node31&#45;&gt;Node28 -->
<g id="edge61" class="edge">
<title>Node31&#45;&gt;Node28</title>
<path fill="none" stroke="midnightblue" d="M381.81,-519.9C380.5,-488.29 380.13,-377.08 434.29,-313 446.83,-298.17 464.61,-285.41 479.12,-276.43"/>
<polygon fill="midnightblue" stroke="midnightblue" points="481.29,-279.21 488.09,-271.09 477.71,-273.19 481.29,-279.21"/>
</g>
<!-- Node31&#45;&gt;Node29 -->
<g id="edge63" class="edge">
<title>Node31&#45;&gt;Node29</title>
<path fill="none" stroke="midnightblue" d="M387.74,-519.84C401.28,-498.3 436.68,-442 454.59,-413.52"/>
<polygon fill="midnightblue" stroke="midnightblue" points="457.57,-415.35 459.93,-405.02 451.65,-411.62 457.57,-415.35"/>
</g>
<!-- Node32&#45;&gt;Node7 -->
<g id="edge69" class="edge">
<title>Node32&#45;&gt;Node7</title>
<path fill="none" stroke="midnightblue" d="M400.54,-586.96C374.71,-579.93 344.29,-567.33 325.29,-545 301.18,-516.68 306.29,-500.69 306.29,-463.5 306.29,-463.5 306.29,-463.5 306.29,-327.5 306.29,-282.52 327.43,-268.65 366.29,-246 423.54,-212.62 624.19,-203.9 706.08,-201.71"/>
<polygon fill="midnightblue" stroke="midnightblue" points="706.23,-205.2 716.14,-201.45 706.06,-198.2 706.23,-205.2"/>
</g>
<!-- Node32&#45;&gt;Node26 -->
<g id="edge67" class="edge">
<title>Node32&#45;&gt;Node26</title>
<path fill="none" stroke="midnightblue" d="M454.85,-586.84C471.24,-565.21 514.19,-508.51 535.68,-480.15"/>
<polygon fill="midnightblue" stroke="midnightblue" points="538.59,-482.11 541.84,-472.02 533.01,-477.88 538.59,-482.11"/>
</g>
<!-- Node32&#45;&gt;Node31 -->
<g id="edge68" class="edge">
<title>Node32&#45;&gt;Node31</title>
<path fill="none" stroke="midnightblue" d="M439.39,-586.73C428.9,-576.4 411.27,-559.04 398.37,-546.33"/>
<polygon fill="midnightblue" stroke="midnightblue" points="400.63,-543.65 391.05,-539.13 395.72,-548.64 400.63,-543.65"/>
</g>
<!-- Node33&#45;&gt;Node7 -->
<g id="edge72" class="edge">
<title>Node33&#45;&gt;Node7</title>
<path fill="none" stroke="midnightblue" d="M766.09,-519.88C746.07,-500.13 700.29,-449.21 700.29,-396.5 700.29,-396.5 700.29,-396.5 700.29,-327.5 700.29,-286.9 719.64,-242.38 731.76,-218.49"/>
<polygon fill="midnightblue" stroke="midnightblue" points="734.88,-220.06 736.43,-209.58 728.68,-216.81 734.88,-220.06"/>
</g>
<!-- Node33&#45;&gt;Node26 -->
<g id="edge71" class="edge">
<title>Node33&#45;&gt;Node26</title>
<path fill="none" stroke="midnightblue" d="M745.15,-519.87C704.67,-508.28 632.67,-487.66 587.87,-474.83"/>
<polygon fill="midnightblue" stroke="midnightblue" points="588.77,-471.45 578.2,-472.06 586.85,-478.18 588.77,-471.45"/>
</g>
<!-- Node34&#45;&gt;Node26 -->
<g id="edge74" class="edge">
<title>Node34&#45;&gt;Node26</title>
<path fill="none" stroke="midnightblue" d="M609.96,-586.84C599.28,-565.49 571.53,-509.98 557.18,-481.27"/>
<polygon fill="midnightblue" stroke="midnightblue" points="560.15,-479.4 552.55,-472.02 553.89,-482.53 560.15,-479.4"/>
</g>
<!-- Node35 -->
<g id="node35" class="node">
<title>Node35</title>
<g id="a_node35"><a xlink:href="f__pc__method__tag_8h.html" target="_top" xlink:title=" ">
<polygon fill="white" stroke="black" points="600.79,-514.5 600.79,-544.5 701.79,-544.5 701.79,-514.5 600.79,-514.5"/>
<text text-anchor="start" x="608.79" y="-532.5" font-family="Helvetica,sans-Serif" font-size="10.00">f/f_pc/f_pc_method</text>
<text text-anchor="middle" x="651.29" y="-521.5" font-family="Helvetica,sans-Serif" font-size="10.00">_tag.h</text>
</a>
</g>
</g>
<!-- Node34&#45;&gt;Node35 -->
<g id="edge75" class="edge">
<title>Node34&#45;&gt;Node35</title>
<path fill="none" stroke="midnightblue" d="M619.28,-586.73C624.14,-578.2 631.72,-564.87 638.29,-553.33"/>
<polygon fill="midnightblue" stroke="midnightblue" points="641.37,-555.01 643.27,-544.59 635.28,-551.55 641.37,-555.01"/>
</g>
<!-- Node35&#45;&gt;Node7 -->
<g id="edge77" class="edge">
<title>Node35&#45;&gt;Node7</title>
<path fill="none" stroke="midnightblue" d="M653.26,-514.27C656.42,-490.11 662.29,-439.5 662.29,-396.5 662.29,-396.5 662.29,-396.5 662.29,-327.5 662.29,-281.64 700.11,-238.69 723.41,-216.57"/>
<polygon fill="midnightblue" stroke="midnightblue" points="725.96,-218.98 730.96,-209.64 721.23,-213.82 725.96,-218.98"/>
</g>
<!-- Node35&#45;&gt;Node26 -->
<g id="edge76" class="edge">
<title>Node35&#45;&gt;Node26</title>
<path fill="none" stroke="midnightblue" d="M628.94,-514.4C611.67,-503.5 587.87,-488.48 570.61,-477.58"/>
<polygon fill="midnightblue" stroke="midnightblue" points="572.1,-474.38 561.77,-472.01 568.36,-480.3 572.1,-474.38"/>
</g>
<!-- Node36&#45;&gt;Node7 -->
<g id="edge81" class="edge">
<title>Node36&#45;&gt;Node7</title>
<path fill="none" stroke="midnightblue" d="M829.8,-318.93C840.85,-303.25 860.66,-269.4 845.29,-246 830.07,-222.84 800.11,-211.54 776.24,-206.06"/>
<polygon fill="midnightblue" stroke="midnightblue" points="776.94,-202.63 766.44,-204.05 775.54,-209.49 776.94,-202.63"/>
</g>
<!-- Node37 -->
<g id="node37" class="node">
<title>Node37</title>
<g id="a_node37"><a xlink:href="f__pc__method_8h.html" target="_top" xlink:title=" ">
<polygon fill="white" stroke="black" points="728.29,-252 728.29,-271 836.29,-271 836.29,-252 728.29,-252"/>
<text text-anchor="middle" x="782.29" y="-259" font-family="Helvetica,sans-Serif" font-size="10.00">f/f_pc/f_pc_method.h</text>
</a>
</g>
</g>
<!-- Node36&#45;&gt;Node37 -->
<g id="edge79" class="edge">
<title>Node36&#45;&gt;Node37</title>
<path fill="none" stroke="midnightblue" d="M817.76,-318.73C811.49,-308.79 801.11,-292.34 793.2,-279.79"/>
<polygon fill="midnightblue" stroke="midnightblue" points="796.03,-277.72 787.73,-271.13 790.11,-281.45 796.03,-277.72"/>
</g>
<!-- Node37&#45;&gt;Node7 -->
<g id="edge80" class="edge">
<title>Node37&#45;&gt;Node7</title>
<path fill="none" stroke="midnightblue" d="M776.42,-251.98C770.33,-243.14 760.65,-229.09 752.99,-217.98"/>
<polygon fill="midnightblue" stroke="midnightblue" points="755.71,-215.76 747.15,-209.51 749.95,-219.73 755.71,-215.76"/>
</g>
<!-- Node38&#45;&gt;Node3 -->
<g id="edge84" class="edge">
<title>Node38&#45;&gt;Node3</title>
<path fill="none" stroke="midnightblue" d="M1329.85,-827.4C1300.94,-817.56 1262.18,-804.37 1231.36,-793.88"/>
<polygon fill="midnightblue" stroke="midnightblue" points="1232.25,-790.48 1221.65,-790.58 1229.99,-797.11 1232.25,-790.48"/>
</g>
<!-- Node38&#45;&gt;Node7 -->
<g id="edge85" class="edge">
<title>Node38&#45;&gt;Node7</title>
<path fill="none" stroke="midnightblue" d="M1414.06,-827.46C1459.93,-809.38 1526.29,-773.18 1526.29,-715 1526.29,-715 1526.29,-715 1526.29,-327.5 1526.29,-234.39 1423.78,-267.93 1333.29,-246 1226.65,-220.16 887.91,-206.18 776.9,-202.2"/>
<polygon fill="midnightblue" stroke="midnightblue" points="776.7,-198.69 766.58,-201.84 776.45,-205.69 776.7,-198.69"/>
</g>
</g>
</svg>
