<?xml version="1.0" encoding="UTF-8" standalone="no"?>
<!DOCTYPE svg PUBLIC "-//W3C//DTD SVG 1.1//EN"
 "http://www.w3.org/Graphics/SVG/1.1/DTD/svg11.dtd">
<!-- Generated by graphviz version 2.44.0 ()
 -->
<!-- Title: include/d/d_cc/d_cc_mass_s/d_cc_mass_s.h Pages: 1 -->
<!--zoomable 307 -->
<svg id="main" version="1.1" xmlns="http://www.w3.org/2000/svg" xmlns:xlink="http://www.w3.org/1999/xlink" xml:space="preserve" onload="init(evt)">
<style type="text/css"><![CDATA[
.edge:hover path { stroke: red; }
.edge:hover polygon { stroke: red; fill: red; }
]]></style>
<script type="text/javascript"><![CDATA[
var edges = document.getElementsByTagName('g');
if (edges && edges.length) {
  for (var i=0;i<edges.length;i++) {
    if (edges[i].id.substr(0,4)=='edge') {
      edges[i].setAttribute('class','edge');
    }
  }
}
]]></script>
        <defs>
                <circle id="rim" cx="0" cy="0" r="7"/>
                <circle id="rim2" cx="0" cy="0" r="3.5"/>
                <g id="zoomPlus">
                        <use xlink:href="#rim" fill="#404040">
                                <set attributeName="fill" to="#808080" begin="zoomplus.mouseover" end="zoomplus.mouseout"/>
                        </use>
                        <path d="M-4,0h8M0,-4v8" fill="none" stroke="white" stroke-width="1.5" pointer-events="none"/>
                </g>
                <g id="zoomMin">
                        <use xlink:href="#rim" fill="#404040">
                                <set attributeName="fill" to="#808080" begin="zoomminus.mouseover" end="zoomminus.mouseout"/>
                        </use>
                        <path d="M-4,0h8" fill="none" stroke="white" stroke-width="1.5" pointer-events="none"/>
                </g>
                <g id="dirArrow">
                        <path fill="none" stroke="white" stroke-width="1.5" d="M0,-3.0v7 M-2.5,-0.5L0,-3.0L2.5,-0.5"/>
                </g>
               <g id="resetDef">
                       <use xlink:href="#rim2" fill="#404040">
                               <set attributeName="fill" to="#808080" begin="reset.mouseover" end="reset.mouseout"/>
                       </use>
               </g>
        </defs>

<script type="text/javascript">
var viewWidth = 5864;
var viewHeight = 307;
var sectionId = 'dynsection-1';
</script>
<script xlink:href="svgpan.js"/>
<svg id="graph" class="graph">
<g id="viewport">
<title>include/d/d_cc/d_cc_mass_s/d_cc_mass_s.h</title>
<polygon fill="white" stroke="transparent" points="-4,4 -4,-303 5860,-303 5860,4 -4,4"/>
<!-- Node1 -->
<g id="node1" class="node">
<title>Node1</title>
<g id="a_node1"><a xlink:title=" ">
<polygon fill="#bfbfbf" stroke="black" points="2583.5,-268.5 2583.5,-298.5 2711.5,-298.5 2711.5,-268.5 2583.5,-268.5"/>
<text text-anchor="start" x="2591.5" y="-286.5" font-family="Helvetica,sans-Serif" font-size="10.00">include/d/d_cc/d_cc</text>
<text text-anchor="middle" x="2647.5" y="-275.5" font-family="Helvetica,sans-Serif" font-size="10.00">_mass_s/d_cc_mass_s.h</text>
</a>
</g>
</g>
<!-- Node2 -->
<g id="node2" class="node">
<title>Node2</title>
<g id="a_node2"><a xlink:href="d__cc__s_8h.html" target="_top" xlink:title=" ">
<polygon fill="white" stroke="black" points="2595.5,-201.5 2595.5,-231.5 2699.5,-231.5 2699.5,-201.5 2595.5,-201.5"/>
<text text-anchor="start" x="2603.5" y="-219.5" font-family="Helvetica,sans-Serif" font-size="10.00">include/d/d_cc/d_cc</text>
<text text-anchor="middle" x="2647.5" y="-208.5" font-family="Helvetica,sans-Serif" font-size="10.00">_s/d_cc_s.h</text>
</a>
</g>
</g>
<!-- Node1&#45;&gt;Node2 -->
<g id="edge1" class="edge">
<title>Node1&#45;&gt;Node2</title>
<path fill="none" stroke="midnightblue" d="M2647.5,-258.11C2647.5,-249.15 2647.5,-239.32 2647.5,-231.58"/>
<polygon fill="midnightblue" stroke="midnightblue" points="2644,-258.4 2647.5,-268.4 2651,-258.4 2644,-258.4"/>
</g>
<!-- Node3 -->
<g id="node3" class="node">
<title>Node3</title>
<g id="a_node3"><a xlink:href="d__com__inf__game_8h.html" target="_top" xlink:title=" ">
<polygon fill="white" stroke="black" points="2574.5,-134.5 2574.5,-164.5 2720.5,-164.5 2720.5,-134.5 2574.5,-134.5"/>
<text text-anchor="start" x="2582.5" y="-152.5" font-family="Helvetica,sans-Serif" font-size="10.00">include/d/d_com/d_com</text>
<text text-anchor="middle" x="2647.5" y="-141.5" font-family="Helvetica,sans-Serif" font-size="10.00">_inf_game/d_com_inf_game.h</text>
</a>
</g>
</g>
<!-- Node2&#45;&gt;Node3 -->
<g id="edge2" class="edge">
<title>Node2&#45;&gt;Node3</title>
<path fill="none" stroke="midnightblue" d="M2647.5,-191.11C2647.5,-182.15 2647.5,-172.32 2647.5,-164.58"/>
<polygon fill="midnightblue" stroke="midnightblue" points="2644,-191.4 2647.5,-201.4 2651,-191.4 2644,-191.4"/>
</g>
<!-- Node4 -->
<g id="node4" class="node">
<title>Node4</title>
<g id="a_node4"><a xlink:href="d__attention_8cpp.html" target="_top" xlink:title=" ">
<polygon fill="white" stroke="black" points="0,-6 0,-25 107,-25 107,-6 0,-6"/>
<text text-anchor="middle" x="53.5" y="-13" font-family="Helvetica,sans-Serif" font-size="10.00">src/d/d_attention.cpp</text>
</a>
</g>
</g>
<!-- Node3&#45;&gt;Node4 -->
<g id="edge3" class="edge">
<title>Node3&#45;&gt;Node4</title>
<path fill="none" stroke="midnightblue" d="M2563.99,-147.83C2132.26,-144.23 171.3,-126.36 115.5,-98 84.44,-82.21 64.6,-42.83 57,-25.23"/>
<polygon fill="midnightblue" stroke="midnightblue" points="2564.17,-151.33 2574.2,-147.91 2564.23,-144.33 2564.17,-151.33"/>
</g>
<!-- Node5 -->
<g id="node5" class="node">
<title>Node5</title>
<g id="a_node5"><a xlink:href="d__camera_8cpp.html" target="_top" xlink:title=" ">
<polygon fill="white" stroke="black" points="937.5,-73 937.5,-92 1039.5,-92 1039.5,-73 937.5,-73"/>
<text text-anchor="middle" x="988.5" y="-80" font-family="Helvetica,sans-Serif" font-size="10.00">src/d/d_camera.cpp</text>
</a>
</g>
</g>
<!-- Node3&#45;&gt;Node5 -->
<g id="edge4" class="edge">
<title>Node3&#45;&gt;Node5</title>
<path fill="none" stroke="midnightblue" d="M2563.98,-147.92C2279.56,-145.64 1349.94,-135.42 1053.5,-98 1042.83,-96.65 1031.34,-94.37 1021.02,-92.01"/>
<polygon fill="midnightblue" stroke="midnightblue" points="2564.2,-151.43 2574.23,-148.01 2564.26,-144.43 2564.2,-151.43"/>
</g>
<!-- Node6 -->
<g id="node6" class="node">
<title>Node6</title>
<g id="a_node6"><a xlink:href="d__com__inf__game_8cpp.html" target="_top" xlink:title=" ">
<polygon fill="white" stroke="black" points="1065,-0.5 1065,-30.5 1184,-30.5 1184,-0.5 1065,-0.5"/>
<text text-anchor="start" x="1073" y="-18.5" font-family="Helvetica,sans-Serif" font-size="10.00">src/d/d_com/d_com_inf</text>
<text text-anchor="middle" x="1124.5" y="-7.5" font-family="Helvetica,sans-Serif" font-size="10.00">_game.cpp</text>
</a>
</g>
</g>
<!-- Node3&#45;&gt;Node6 -->
<g id="edge5" class="edge">
<title>Node3&#45;&gt;Node6</title>
<path fill="none" stroke="midnightblue" d="M2564.02,-148.93C2251.01,-150.13 1162.31,-150.51 1111.5,-98 1094.16,-80.08 1106.4,-48.87 1116.02,-30.71"/>
<polygon fill="midnightblue" stroke="midnightblue" points="2564.4,-152.43 2574.38,-148.89 2564.37,-145.43 2564.4,-152.43"/>
</g>
<!-- Node7 -->
<g id="node7" class="node">
<title>Node7</title>
<g id="a_node7"><a xlink:href="d__file__sel__info_8cpp.html" target="_top" xlink:title=" ">
<polygon fill="white" stroke="black" points="1286,-67.5 1286,-97.5 1375,-97.5 1375,-67.5 1286,-67.5"/>
<text text-anchor="start" x="1294" y="-85.5" font-family="Helvetica,sans-Serif" font-size="10.00">src/d/d_file/d_file</text>
<text text-anchor="middle" x="1330.5" y="-74.5" font-family="Helvetica,sans-Serif" font-size="10.00">_sel_info.cpp</text>
</a>
</g>
</g>
<!-- Node3&#45;&gt;Node7 -->
<g id="edge6" class="edge">
<title>Node3&#45;&gt;Node7</title>
<path fill="none" stroke="midnightblue" d="M2563.98,-147.58C2320.28,-144.52 1612.94,-132.79 1384.5,-98 1381.43,-97.53 1378.28,-96.95 1375.13,-96.3"/>
<polygon fill="midnightblue" stroke="midnightblue" points="2564.14,-151.08 2574.19,-147.71 2564.23,-144.08 2564.14,-151.08"/>
</g>
<!-- Node8 -->
<g id="node8" class="node">
<title>Node8</title>
<g id="a_node8"><a xlink:href="d__item_8cpp.html" target="_top" xlink:title=" ">
<polygon fill="white" stroke="black" points="1202,-6 1202,-25 1323,-25 1323,-6 1202,-6"/>
<text text-anchor="middle" x="1262.5" y="-13" font-family="Helvetica,sans-Serif" font-size="10.00">src/d/d_item/d_item.cpp</text>
</a>
</g>
</g>
<!-- Node3&#45;&gt;Node8 -->
<g id="edge7" class="edge">
<title>Node3&#45;&gt;Node8</title>
<path fill="none" stroke="midnightblue" d="M2564.2,-148.9C2253.14,-150 1174.84,-150.04 1124.5,-98 1090.45,-62.8 1168.45,-37.48 1220.52,-25.09"/>
<polygon fill="midnightblue" stroke="midnightblue" points="2564.51,-152.4 2574.5,-148.87 2564.49,-145.4 2564.51,-152.4"/>
</g>
<!-- Node9 -->
<g id="node9" class="node">
<title>Node9</title>
<g id="a_node9"><a xlink:href="d__kankyo__rain_8cpp.html" target="_top" xlink:title=" ">
<polygon fill="white" stroke="black" points="1393,-67.5 1393,-97.5 1520,-97.5 1520,-67.5 1393,-67.5"/>
<text text-anchor="start" x="1401" y="-85.5" font-family="Helvetica,sans-Serif" font-size="10.00">src/d/d_kankyo/d_kankyo</text>
<text text-anchor="middle" x="1456.5" y="-74.5" font-family="Helvetica,sans-Serif" font-size="10.00">_rain.cpp</text>
</a>
</g>
</g>
<!-- Node3&#45;&gt;Node9 -->
<g id="edge8" class="edge">
<title>Node3&#45;&gt;Node9</title>
<path fill="none" stroke="midnightblue" d="M2563.99,-149.02C2377.65,-149.25 1914.03,-144.6 1529.5,-98 1526.42,-97.63 1523.28,-97.2 1520.11,-96.72"/>
<polygon fill="midnightblue" stroke="midnightblue" points="2564.27,-152.52 2574.26,-149 2564.26,-145.52 2564.27,-152.52"/>
</g>
<!-- Node10 -->
<g id="node10" class="node">
<title>Node10</title>
<g id="a_node10"><a xlink:href="d__kankyo__wether_8cpp.html" target="_top" xlink:title=" ">
<polygon fill="white" stroke="black" points="1538,-67.5 1538,-97.5 1665,-97.5 1665,-67.5 1538,-67.5"/>
<text text-anchor="start" x="1546" y="-85.5" font-family="Helvetica,sans-Serif" font-size="10.00">src/d/d_kankyo/d_kankyo</text>
<text text-anchor="middle" x="1601.5" y="-74.5" font-family="Helvetica,sans-Serif" font-size="10.00">_wether.cpp</text>
</a>
</g>
</g>
<!-- Node3&#45;&gt;Node10 -->
<g id="edge9" class="edge">
<title>Node3&#45;&gt;Node10</title>
<path fill="none" stroke="midnightblue" d="M2564.2,-148.21C2395.59,-146.75 2002.05,-138.81 1674.5,-98 1671.42,-97.62 1668.28,-97.18 1665.11,-96.7"/>
<polygon fill="midnightblue" stroke="midnightblue" points="2564.23,-151.71 2574.25,-148.3 2564.28,-144.72 2564.23,-151.71"/>
</g>
<!-- Node11 -->
<g id="node11" class="node">
<title>Node11</title>
<g id="a_node11"><a xlink:href="d__kankyo_8cpp.html" target="_top" xlink:title=" ">
<polygon fill="white" stroke="black" points="1683,-73 1683,-92 1784,-92 1784,-73 1683,-73"/>
<text text-anchor="middle" x="1733.5" y="-80" font-family="Helvetica,sans-Serif" font-size="10.00">src/d/d_kankyo.cpp</text>
</a>
</g>
</g>
<!-- Node3&#45;&gt;Node11 -->
<g id="edge10" class="edge">
<title>Node3&#45;&gt;Node11</title>
<path fill="none" stroke="midnightblue" d="M2563.93,-148.48C2410.45,-147.35 2073.7,-139.8 1793.5,-98 1783.85,-96.56 1773.49,-94.31 1764.12,-92.01"/>
<polygon fill="midnightblue" stroke="midnightblue" points="2564.2,-151.98 2574.22,-148.55 2564.24,-144.98 2564.2,-151.98"/>
</g>
<!-- Node12 -->
<g id="node12" class="node">
<title>Node12</title>
<g id="a_node12"><a xlink:href="d__kantera__icon__meter_8cpp.html" target="_top" xlink:title=" ">
<polygon fill="white" stroke="black" points="1802,-67.5 1802,-97.5 1909,-97.5 1909,-67.5 1802,-67.5"/>
<text text-anchor="start" x="1810" y="-85.5" font-family="Helvetica,sans-Serif" font-size="10.00">src/d/d_kantera_icon</text>
<text text-anchor="middle" x="1855.5" y="-74.5" font-family="Helvetica,sans-Serif" font-size="10.00">_meter.cpp</text>
</a>
</g>
</g>
<!-- Node3&#45;&gt;Node12 -->
<g id="edge11" class="edge">
<title>Node3&#45;&gt;Node12</title>
<path fill="none" stroke="midnightblue" d="M2564.07,-146.97C2428.14,-143.54 2150.71,-132.55 1918.5,-98 1915.39,-97.54 1912.21,-97 1909.01,-96.42"/>
<polygon fill="midnightblue" stroke="midnightblue" points="2564.32,-150.48 2574.4,-147.23 2564.49,-143.48 2564.32,-150.48"/>
</g>
<!-- Node13 -->
<g id="node13" class="node">
<title>Node13</title>
<g id="a_node13"><a xlink:href="d__kyeff_8cpp.html" target="_top" xlink:title=" ">
<polygon fill="white" stroke="black" points="1927,-73 1927,-92 2040,-92 2040,-73 1927,-73"/>
<text text-anchor="middle" x="1983.5" y="-80" font-family="Helvetica,sans-Serif" font-size="10.00">src/d/d_ky/d_kyeff.cpp</text>
</a>
</g>
</g>
<!-- Node3&#45;&gt;Node13 -->
<g id="edge12" class="edge">
<title>Node3&#45;&gt;Node13</title>
<path fill="none" stroke="midnightblue" d="M2564.2,-144.94C2448.28,-139.2 2231.99,-125.63 2049.5,-98 2039.29,-96.45 2028.3,-94.26 2018.28,-92.04"/>
<polygon fill="midnightblue" stroke="midnightblue" points="2564.26,-148.45 2574.42,-145.44 2564.6,-141.46 2564.26,-148.45"/>
</g>
<!-- Node14 -->
<g id="node14" class="node">
<title>Node14</title>
<g id="a_node14"><a xlink:href="d__meter__button_8cpp.html" target="_top" xlink:title=" ">
<polygon fill="white" stroke="black" points="2058,-67.5 2058,-97.5 2173,-97.5 2173,-67.5 2058,-67.5"/>
<text text-anchor="start" x="2066" y="-85.5" font-family="Helvetica,sans-Serif" font-size="10.00">src/d/d_meter/d_meter</text>
<text text-anchor="middle" x="2115.5" y="-74.5" font-family="Helvetica,sans-Serif" font-size="10.00">_button.cpp</text>
</a>
</g>
</g>
<!-- Node3&#45;&gt;Node14 -->
<g id="edge13" class="edge">
<title>Node3&#45;&gt;Node14</title>
<path fill="none" stroke="midnightblue" d="M2564.06,-142.09C2470.72,-134.31 2315.2,-119.5 2182.5,-98 2179.45,-97.51 2176.32,-96.96 2173.17,-96.38"/>
<polygon fill="midnightblue" stroke="midnightblue" points="2564.04,-145.6 2574.29,-142.94 2564.61,-138.63 2564.04,-145.6"/>
</g>
<!-- Node15 -->
<g id="node15" class="node">
<title>Node15</title>
<g id="a_node15"><a xlink:href="d__meter__haihai_8cpp.html" target="_top" xlink:title=" ">
<polygon fill="white" stroke="black" points="2191,-67.5 2191,-97.5 2306,-97.5 2306,-67.5 2191,-67.5"/>
<text text-anchor="start" x="2199" y="-85.5" font-family="Helvetica,sans-Serif" font-size="10.00">src/d/d_meter/d_meter</text>
<text text-anchor="middle" x="2248.5" y="-74.5" font-family="Helvetica,sans-Serif" font-size="10.00">_haihai.cpp</text>
</a>
</g>
</g>
<!-- Node3&#45;&gt;Node15 -->
<g id="edge14" class="edge">
<title>Node3&#45;&gt;Node15</title>
<path fill="none" stroke="midnightblue" d="M2564.3,-137.31C2497,-127.9 2399.9,-113.54 2315.5,-98 2312.46,-97.44 2309.34,-96.84 2306.2,-96.23"/>
<polygon fill="midnightblue" stroke="midnightblue" points="2564.03,-140.8 2574.42,-138.72 2565,-133.87 2564.03,-140.8"/>
</g>
<!-- Node16 -->
<g id="node16" class="node">
<title>Node16</title>
<g id="a_node16"><a xlink:href="d__meter__hakusha_8cpp.html" target="_top" xlink:title=" ">
<polygon fill="white" stroke="black" points="2324,-67.5 2324,-97.5 2439,-97.5 2439,-67.5 2324,-67.5"/>
<text text-anchor="start" x="2332" y="-85.5" font-family="Helvetica,sans-Serif" font-size="10.00">src/d/d_meter/d_meter</text>
<text text-anchor="middle" x="2381.5" y="-74.5" font-family="Helvetica,sans-Serif" font-size="10.00">_hakusha.cpp</text>
</a>
</g>
</g>
<!-- Node3&#45;&gt;Node16 -->
<g id="edge15" class="edge">
<title>Node3&#45;&gt;Node16</title>
<path fill="none" stroke="midnightblue" d="M2580.19,-132.05C2536.7,-121.43 2480.7,-107.74 2439.25,-97.61"/>
<polygon fill="midnightblue" stroke="midnightblue" points="2579.56,-135.5 2590.11,-134.48 2581.23,-128.7 2579.56,-135.5"/>
</g>
<!-- Node17 -->
<g id="node17" class="node">
<title>Node17</title>
<g id="a_node17"><a xlink:href="d__meter__map_8cpp.html" target="_top" xlink:title=" ">
<polygon fill="white" stroke="black" points="2457,-67.5 2457,-97.5 2572,-97.5 2572,-67.5 2457,-67.5"/>
<text text-anchor="start" x="2465" y="-85.5" font-family="Helvetica,sans-Serif" font-size="10.00">src/d/d_meter/d_meter</text>
<text text-anchor="middle" x="2514.5" y="-74.5" font-family="Helvetica,sans-Serif" font-size="10.00">_map.cpp</text>
</a>
</g>
</g>
<!-- Node3&#45;&gt;Node17 -->
<g id="edge16" class="edge">
<title>Node3&#45;&gt;Node17</title>
<path fill="none" stroke="midnightblue" d="M2609.63,-129.99C2588.55,-119.69 2562.72,-107.07 2543.3,-97.58"/>
<polygon fill="midnightblue" stroke="midnightblue" points="2608.12,-133.15 2618.64,-134.4 2611.19,-126.86 2608.12,-133.15"/>
</g>
<!-- Node18 -->
<g id="node18" class="node">
<title>Node18</title>
<g id="a_node18"><a xlink:href="d__meter__string_8cpp.html" target="_top" xlink:title=" ">
<polygon fill="white" stroke="black" points="2590,-67.5 2590,-97.5 2705,-97.5 2705,-67.5 2590,-67.5"/>
<text text-anchor="start" x="2598" y="-85.5" font-family="Helvetica,sans-Serif" font-size="10.00">src/d/d_meter/d_meter</text>
<text text-anchor="middle" x="2647.5" y="-74.5" font-family="Helvetica,sans-Serif" font-size="10.00">_string.cpp</text>
</a>
</g>
</g>
<!-- Node3&#45;&gt;Node18 -->
<g id="edge17" class="edge">
<title>Node3&#45;&gt;Node18</title>
<path fill="none" stroke="midnightblue" d="M2647.5,-124.11C2647.5,-115.15 2647.5,-105.32 2647.5,-97.58"/>
<polygon fill="midnightblue" stroke="midnightblue" points="2644,-124.4 2647.5,-134.4 2651,-124.4 2644,-124.4"/>
</g>
<!-- Node19 -->
<g id="node19" class="node">
<title>Node19</title>
<g id="a_node19"><a xlink:href="d__meter2__draw_8cpp.html" target="_top" xlink:title=" ">
<polygon fill="white" stroke="black" points="2723,-67.5 2723,-97.5 2848,-97.5 2848,-67.5 2723,-67.5"/>
<text text-anchor="start" x="2731" y="-85.5" font-family="Helvetica,sans-Serif" font-size="10.00">src/d/d_meter2/d_meter2</text>
<text text-anchor="middle" x="2785.5" y="-74.5" font-family="Helvetica,sans-Serif" font-size="10.00">_draw.cpp</text>
</a>
</g>
</g>
<!-- Node3&#45;&gt;Node19 -->
<g id="edge18" class="edge">
<title>Node3&#45;&gt;Node19</title>
<path fill="none" stroke="midnightblue" d="M2686.5,-130.13C2708.43,-119.8 2735.37,-107.11 2755.61,-97.58"/>
<polygon fill="midnightblue" stroke="midnightblue" points="2685,-126.97 2677.44,-134.4 2687.98,-133.3 2685,-126.97"/>
</g>
<!-- Node20 -->
<g id="node20" class="node">
<title>Node20</title>
<g id="a_node20"><a xlink:href="d__meter2__info_8cpp.html" target="_top" xlink:title=" ">
<polygon fill="white" stroke="black" points="2866,-67.5 2866,-97.5 2991,-97.5 2991,-67.5 2866,-67.5"/>
<text text-anchor="start" x="2874" y="-85.5" font-family="Helvetica,sans-Serif" font-size="10.00">src/d/d_meter2/d_meter2</text>
<text text-anchor="middle" x="2928.5" y="-74.5" font-family="Helvetica,sans-Serif" font-size="10.00">_info.cpp</text>
</a>
</g>
</g>
<!-- Node3&#45;&gt;Node20 -->
<g id="edge19" class="edge">
<title>Node3&#45;&gt;Node20</title>
<path fill="none" stroke="midnightblue" d="M2718.03,-132.19C2764.05,-121.54 2823.52,-107.78 2867.5,-97.61"/>
<polygon fill="midnightblue" stroke="midnightblue" points="2717.08,-128.81 2708.13,-134.48 2718.66,-135.63 2717.08,-128.81"/>
</g>
<!-- Node21 -->
<g id="node21" class="node">
<title>Node21</title>
<g id="a_node21"><a xlink:href="d__meter2_8cpp.html" target="_top" xlink:title=" ">
<polygon fill="white" stroke="black" points="3009.5,-73 3009.5,-92 3109.5,-92 3109.5,-73 3009.5,-73"/>
<text text-anchor="middle" x="3059.5" y="-80" font-family="Helvetica,sans-Serif" font-size="10.00">src/d/d_meter2.cpp</text>
</a>
</g>
</g>
<!-- Node3&#45;&gt;Node21 -->
<g id="edge20" class="edge">
<title>Node3&#45;&gt;Node21</title>
<path fill="none" stroke="midnightblue" d="M2730.86,-138.93C2802.64,-130.14 2908.83,-115.78 3000.5,-98 3009.2,-96.31 3018.54,-94.17 3027.17,-92.06"/>
<polygon fill="midnightblue" stroke="midnightblue" points="2730.03,-135.51 2720.53,-140.19 2730.88,-142.46 2730.03,-135.51"/>
</g>
<!-- Node22 -->
<g id="node22" class="node">
<title>Node22</title>
<g id="a_node22"><a xlink:href="d__model_8cpp.html" target="_top" xlink:title=" ">
<polygon fill="white" stroke="black" points="3127.5,-73 3127.5,-92 3223.5,-92 3223.5,-73 3127.5,-73"/>
<text text-anchor="middle" x="3175.5" y="-80" font-family="Helvetica,sans-Serif" font-size="10.00">src/d/d_model.cpp</text>
</a>
</g>
</g>
<!-- Node3&#45;&gt;Node22 -->
<g id="edge21" class="edge">
<title>Node3&#45;&gt;Node22</title>
<path fill="none" stroke="midnightblue" d="M2730.65,-143.18C2825.15,-136.3 2983.79,-122.23 3118.5,-98 3127.24,-96.43 3136.63,-94.25 3145.21,-92.06"/>
<polygon fill="midnightblue" stroke="midnightblue" points="2730.3,-139.69 2720.58,-143.9 2730.8,-146.68 2730.3,-139.69"/>
</g>
<!-- Node23 -->
<g id="node23" class="node">
<title>Node23</title>
<g id="a_node23"><a xlink:href="d__save_8cpp.html" target="_top" xlink:title=" ">
<polygon fill="white" stroke="black" points="3242,-73 3242,-92 3367,-92 3367,-73 3242,-73"/>
<text text-anchor="middle" x="3304.5" y="-80" font-family="Helvetica,sans-Serif" font-size="10.00">src/d/d_save/d_save.cpp</text>
</a>
</g>
</g>
<!-- Node3&#45;&gt;Node23 -->
<g id="edge22" class="edge">
<title>Node3&#45;&gt;Node23</title>
<path fill="none" stroke="midnightblue" d="M2730.8,-144.27C2844.56,-137.82 3054.72,-123.49 3232.5,-98 3243.48,-96.43 3255.31,-94.25 3266.15,-92.06"/>
<polygon fill="midnightblue" stroke="midnightblue" points="2730.55,-140.78 2720.76,-144.83 2730.94,-147.77 2730.55,-140.78"/>
</g>
<!-- Node24 -->
<g id="node24" class="node">
<title>Node24</title>
<g id="a_node24"><a xlink:href="d__save__HIO_8cpp.html" target="_top" xlink:title=" ">
<polygon fill="white" stroke="black" points="3385,-67.5 3385,-97.5 3492,-97.5 3492,-67.5 3385,-67.5"/>
<text text-anchor="start" x="3393" y="-85.5" font-family="Helvetica,sans-Serif" font-size="10.00">src/d/d_save/d_save</text>
<text text-anchor="middle" x="3438.5" y="-74.5" font-family="Helvetica,sans-Serif" font-size="10.00">_HIO.cpp</text>
</a>
</g>
</g>
<!-- Node3&#45;&gt;Node24 -->
<g id="edge23" class="edge">
<title>Node3&#45;&gt;Node24</title>
<path fill="none" stroke="midnightblue" d="M2730.94,-147.07C2866.9,-143.76 3144.35,-132.96 3376.5,-98 3379.23,-97.59 3382.02,-97.12 3384.83,-96.61"/>
<polygon fill="midnightblue" stroke="midnightblue" points="2730.53,-143.58 2720.61,-147.31 2730.69,-150.58 2730.53,-143.58"/>
</g>
<!-- Node25 -->
<g id="node25" class="node">
<title>Node25</title>
<g id="a_node25"><a xlink:href="d__stage_8cpp.html" target="_top" xlink:title=" ">
<polygon fill="white" stroke="black" points="3510.5,-73 3510.5,-92 3604.5,-92 3604.5,-73 3510.5,-73"/>
<text text-anchor="middle" x="3557.5" y="-80" font-family="Helvetica,sans-Serif" font-size="10.00">src/d/d_stage.cpp</text>
</a>
</g>
</g>
<!-- Node3&#45;&gt;Node25 -->
<g id="edge24" class="edge">
<title>Node3&#45;&gt;Node25</title>
<path fill="none" stroke="midnightblue" d="M2730.84,-148.92C2884.29,-148.51 3221.47,-142.1 3501.5,-98 3510.53,-96.58 3520.21,-94.33 3528.95,-92.03"/>
<polygon fill="midnightblue" stroke="midnightblue" points="2730.55,-145.42 2720.56,-148.94 2730.56,-152.42 2730.55,-145.42"/>
</g>
<!-- Node26 -->
<g id="node26" class="node">
<title>Node26</title>
<g id="a_node26"><a xlink:href="f__op__actor__mng_8cpp.html" target="_top" xlink:title=" ">
<polygon fill="white" stroke="black" points="1341,-0.5 1341,-30.5 1448,-30.5 1448,-0.5 1341,-0.5"/>
<text text-anchor="start" x="1349" y="-18.5" font-family="Helvetica,sans-Serif" font-size="10.00">src/f/f_op/f_op_actor</text>
<text text-anchor="middle" x="1394.5" y="-7.5" font-family="Helvetica,sans-Serif" font-size="10.00">_mng.cpp</text>
</a>
</g>
</g>
<!-- Node3&#45;&gt;Node26 -->
<g id="edge25" class="edge">
<title>Node3&#45;&gt;Node26</title>
<path fill="none" stroke="midnightblue" d="M2564.13,-148.58C2273.81,-148.44 1322.26,-144.44 1277.5,-98 1250.19,-69.66 1301.93,-45.08 1345.07,-30.53"/>
<polygon fill="midnightblue" stroke="midnightblue" points="2564.18,-152.08 2574.18,-148.58 2564.18,-145.08 2564.18,-152.08"/>
</g>
<!-- Node27 -->
<g id="node27" class="node">
<title>Node27</title>
<g id="a_node27"><a xlink:href="f__op__camera_8cpp.html" target="_top" xlink:title=" ">
<polygon fill="white" stroke="black" points="3623,-73 3623,-92 3758,-92 3758,-73 3623,-73"/>
<text text-anchor="middle" x="3690.5" y="-80" font-family="Helvetica,sans-Serif" font-size="10.00">src/f/f_op/f_op_camera.cpp</text>
</a>
</g>
</g>
<!-- Node3&#45;&gt;Node27 -->
<g id="edge26" class="edge">
<title>Node3&#45;&gt;Node27</title>
<path fill="none" stroke="midnightblue" d="M2731.04,-147.89C2898.87,-145.84 3288.68,-136.9 3613.5,-98 3625.66,-96.54 3638.78,-94.32 3650.69,-92.05"/>
<polygon fill="midnightblue" stroke="midnightblue" points="2730.76,-144.39 2720.8,-148.01 2730.84,-151.39 2730.76,-144.39"/>
</g>
<!-- Node28 -->
<g id="node28" class="node">
<title>Node28</title>
<g id="a_node28"><a xlink:href="f__op__kankyo_8cpp.html" target="_top" xlink:title=" ">
<polygon fill="white" stroke="black" points="3776.5,-73 3776.5,-92 3910.5,-92 3910.5,-73 3776.5,-73"/>
<text text-anchor="middle" x="3843.5" y="-80" font-family="Helvetica,sans-Serif" font-size="10.00">src/f/f_op/f_op_kankyo.cpp</text>
</a>
</g>
</g>
<!-- Node3&#45;&gt;Node28 -->
<g id="edge27" class="edge">
<title>Node3&#45;&gt;Node28</title>
<path fill="none" stroke="midnightblue" d="M2730.79,-148.82C2917.18,-148.64 3381.88,-143.24 3767.5,-98 3779.64,-96.58 3792.75,-94.33 3804.61,-92.03"/>
<polygon fill="midnightblue" stroke="midnightblue" points="2730.51,-145.32 2720.52,-148.82 2730.52,-152.32 2730.51,-145.32"/>
</g>
<!-- Node29 -->
<g id="node29" class="node">
<title>Node29</title>
<g id="a_node29"><a xlink:href="f__op__kankyo__mng_8cpp.html" target="_top" xlink:title=" ">
<polygon fill="white" stroke="black" points="262.5,-0.5 262.5,-30.5 378.5,-30.5 378.5,-0.5 262.5,-0.5"/>
<text text-anchor="start" x="270.5" y="-18.5" font-family="Helvetica,sans-Serif" font-size="10.00">src/f/f_op/f_op_kankyo</text>
<text text-anchor="middle" x="320.5" y="-7.5" font-family="Helvetica,sans-Serif" font-size="10.00">_mng.cpp</text>
</a>
</g>
</g>
<!-- Node3&#45;&gt;Node29 -->
<g id="edge28" class="edge">
<title>Node3&#45;&gt;Node29</title>
<path fill="none" stroke="midnightblue" d="M2564.41,-148.4C2195.31,-147.71 713.42,-142.19 510.5,-98 447.9,-84.37 380.22,-50.12 344.98,-30.64"/>
<polygon fill="midnightblue" stroke="midnightblue" points="2564.48,-151.9 2574.49,-148.42 2564.49,-144.9 2564.48,-151.9"/>
</g>
<!-- Node30 -->
<g id="node30" class="node">
<title>Node30</title>
<g id="a_node30"><a xlink:href="f__op__msg__mng_8cpp.html" target="_top" xlink:title=" ">
<polygon fill="white" stroke="black" points="396.5,-0.5 396.5,-30.5 500.5,-30.5 500.5,-0.5 396.5,-0.5"/>
<text text-anchor="start" x="404.5" y="-18.5" font-family="Helvetica,sans-Serif" font-size="10.00">src/f/f_op/f_op_msg</text>
<text text-anchor="middle" x="448.5" y="-7.5" font-family="Helvetica,sans-Serif" font-size="10.00">_mng.cpp</text>
</a>
</g>
</g>
<!-- Node3&#45;&gt;Node30 -->
<g id="edge29" class="edge">
<title>Node3&#45;&gt;Node30</title>
<path fill="none" stroke="midnightblue" d="M2564.14,-147.71C2189.31,-143.99 673.93,-127.19 577.5,-98 532.37,-84.34 487.63,-50.27 464.56,-30.78"/>
<polygon fill="midnightblue" stroke="midnightblue" points="2564.34,-151.21 2574.37,-147.81 2564.4,-144.21 2564.34,-151.21"/>
</g>
<!-- Node31 -->
<g id="node31" class="node">
<title>Node31</title>
<g id="a_node31"><a xlink:href="f__pc__manager_8cpp.html" target="_top" xlink:title=" ">
<polygon fill="white" stroke="black" points="906.5,-6 906.5,-25 1046.5,-25 1046.5,-6 906.5,-6"/>
<text text-anchor="middle" x="976.5" y="-13" font-family="Helvetica,sans-Serif" font-size="10.00">src/f/f_pc/f_pc_manager.cpp</text>
</a>
</g>
</g>
<!-- Node3&#45;&gt;Node31 -->
<g id="edge30" class="edge">
<title>Node3&#45;&gt;Node31</title>
<path fill="none" stroke="midnightblue" d="M2564.44,-147.62C2224.69,-143.82 957.31,-127.67 928.5,-98 906.65,-75.5 944.12,-41.21 964.56,-25.24"/>
<polygon fill="midnightblue" stroke="midnightblue" points="2564.42,-151.12 2574.46,-147.73 2564.5,-144.12 2564.42,-151.12"/>
</g>
<!-- Node32 -->
<g id="node32" class="node">
<title>Node32</title>
<g id="a_node32"><a xlink:href="m__Do__audio_8cpp.html" target="_top" xlink:title=" ">
<polygon fill="white" stroke="black" points="3928.5,-73 3928.5,-92 4062.5,-92 4062.5,-73 3928.5,-73"/>
<text text-anchor="middle" x="3995.5" y="-80" font-family="Helvetica,sans-Serif" font-size="10.00">src/m_Do/m_Do_audio.cpp</text>
</a>
</g>
</g>
<!-- Node3&#45;&gt;Node32 -->
<g id="edge31" class="edge">
<title>Node3&#45;&gt;Node32</title>
<path fill="none" stroke="midnightblue" d="M2731.08,-146.81C2975.82,-141.59 3688.16,-124.51 3919.5,-98 3931.64,-96.61 3944.76,-94.37 3956.62,-92.07"/>
<polygon fill="midnightblue" stroke="midnightblue" points="2730.75,-143.31 2720.83,-147.02 2730.9,-150.31 2730.75,-143.31"/>
</g>
<!-- Node33 -->
<g id="node33" class="node">
<title>Node33</title>
<g id="a_node33"><a xlink:href="m__Do__graphic_8cpp.html" target="_top" xlink:title=" ">
<polygon fill="white" stroke="black" points="4080.5,-73 4080.5,-92 4222.5,-92 4222.5,-73 4080.5,-73"/>
<text text-anchor="middle" x="4151.5" y="-80" font-family="Helvetica,sans-Serif" font-size="10.00">src/m_Do/m_Do_graphic.cpp</text>
</a>
</g>
</g>
<!-- Node3&#45;&gt;Node33 -->
<g id="edge32" class="edge">
<title>Node3&#45;&gt;Node33</title>
<path fill="none" stroke="midnightblue" d="M2730.88,-147.12C2994.66,-142.51 3809.07,-126.29 4071.5,-98 4084.41,-96.61 4098.37,-94.34 4110.97,-92.01"/>
<polygon fill="midnightblue" stroke="midnightblue" points="2730.54,-143.63 2720.6,-147.3 2730.66,-150.62 2730.54,-143.63"/>
</g>
<!-- Node34 -->
<g id="node34" class="node">
<title>Node34</title>
<g id="a_node34"><a xlink:href="m__Do__lib_8cpp.html" target="_top" xlink:title=" ">
<polygon fill="white" stroke="black" points="4240.5,-73 4240.5,-92 4360.5,-92 4360.5,-73 4240.5,-73"/>
<text text-anchor="middle" x="4300.5" y="-80" font-family="Helvetica,sans-Serif" font-size="10.00">src/m_Do/m_Do_lib.cpp</text>
</a>
</g>
</g>
<!-- Node3&#45;&gt;Node34 -->
<g id="edge33" class="edge">
<title>Node3&#45;&gt;Node34</title>
<path fill="none" stroke="midnightblue" d="M2730.96,-147.77C3014.12,-144.99 3936.87,-133.38 4231.5,-98 4242.68,-96.66 4254.74,-94.41 4265.6,-92.07"/>
<polygon fill="midnightblue" stroke="midnightblue" points="2730.73,-144.27 2720.76,-147.87 2730.79,-151.27 2730.73,-144.27"/>
</g>
<!-- Node35 -->
<g id="node35" class="node">
<title>Node35</title>
<g id="a_node35"><a xlink:href="m__Do__machine__exception_8cpp.html" target="_top" xlink:title=" ">
<polygon fill="white" stroke="black" points="4379,-67.5 4379,-97.5 4508,-97.5 4508,-67.5 4379,-67.5"/>
<text text-anchor="start" x="4387" y="-85.5" font-family="Helvetica,sans-Serif" font-size="10.00">src/m_Do/m_Do_machine</text>
<text text-anchor="middle" x="4443.5" y="-74.5" font-family="Helvetica,sans-Serif" font-size="10.00">_exception.cpp</text>
</a>
</g>
</g>
<!-- Node3&#45;&gt;Node35 -->
<g id="edge34" class="edge">
<title>Node3&#45;&gt;Node35</title>
<path fill="none" stroke="midnightblue" d="M2731.02,-147.87C3030,-145.32 4046.38,-134.15 4369.5,-98 4372.49,-97.67 4375.54,-97.27 4378.62,-96.84"/>
<polygon fill="midnightblue" stroke="midnightblue" points="2730.66,-144.37 2720.69,-147.95 2730.71,-151.37 2730.66,-144.37"/>
</g>
<!-- Node36 -->
<g id="node36" class="node">
<title>Node36</title>
<g id="a_node36"><a xlink:href="m__Do__main_8cpp.html" target="_top" xlink:title=" ">
<polygon fill="white" stroke="black" points="4526,-73 4526,-92 4657,-92 4657,-73 4526,-73"/>
<text text-anchor="middle" x="4591.5" y="-80" font-family="Helvetica,sans-Serif" font-size="10.00">src/m_Do/m_Do_main.cpp</text>
</a>
</g>
</g>
<!-- Node3&#45;&gt;Node36 -->
<g id="edge35" class="edge">
<title>Node3&#45;&gt;Node36</title>
<path fill="none" stroke="midnightblue" d="M2730.93,-148.09C3046.05,-146.27 4163.91,-137.14 4517.5,-98 4529.6,-96.66 4542.68,-94.38 4554.42,-92.02"/>
<polygon fill="midnightblue" stroke="midnightblue" points="2730.48,-144.6 2720.5,-148.15 2730.52,-151.6 2730.48,-144.6"/>
</g>
<!-- Node37 -->
<g id="node37" class="node">
<title>Node37</title>
<g id="a_node37"><a xlink:href="m__Do__MemCardRWmng_8cpp.html" target="_top" xlink:title=" ">
<polygon fill="white" stroke="black" points="4675,-73 4675,-92 4862,-92 4862,-73 4675,-73"/>
<text text-anchor="middle" x="4768.5" y="-80" font-family="Helvetica,sans-Serif" font-size="10.00">src/m_Do/m_Do_MemCardRWmng.cpp</text>
</a>
</g>
</g>
<!-- Node3&#45;&gt;Node37 -->
<g id="edge36" class="edge">
<title>Node3&#45;&gt;Node37</title>
<path fill="none" stroke="midnightblue" d="M2731.07,-147.71C3062,-144.36 4281.3,-130.09 4666.5,-98 4682.99,-96.63 4700.88,-94.35 4717,-92.01"/>
<polygon fill="midnightblue" stroke="midnightblue" points="2730.57,-144.21 2720.61,-147.81 2730.64,-151.21 2730.57,-144.21"/>
</g>
<!-- Node38 -->
<g id="node38" class="node">
<title>Node38</title>
<g id="a_node38"><a xlink:href="m__Do__ext_8cpp.html" target="_top" xlink:title=" ">
<polygon fill="white" stroke="black" points="4880,-73 4880,-92 5003,-92 5003,-73 4880,-73"/>
<text text-anchor="middle" x="4941.5" y="-80" font-family="Helvetica,sans-Serif" font-size="10.00">src/m_Do/m_Do_ext.cpp</text>
</a>
</g>
</g>
<!-- Node3&#45;&gt;Node38 -->
<g id="edge37" class="edge">
<title>Node3&#45;&gt;Node38</title>
<path fill="none" stroke="midnightblue" d="M2730.76,-148.63C3082.11,-148.88 4444.97,-146.61 4871.5,-98 4882.97,-96.69 4895.34,-94.42 4906.45,-92.06"/>
<polygon fill="midnightblue" stroke="midnightblue" points="2730.67,-145.13 2720.67,-148.62 2730.66,-152.13 2730.67,-145.13"/>
</g>
<!-- Node39 -->
<g id="node39" class="node">
<title>Node39</title>
<g id="a_node39"><a xlink:href="Z2EnvSeMgr_8cpp.html" target="_top" xlink:title=" ">
<polygon fill="white" stroke="black" points="5021,-73 5021,-92 5182,-92 5182,-73 5021,-73"/>
<text text-anchor="middle" x="5101.5" y="-80" font-family="Helvetica,sans-Serif" font-size="10.00">libs/Z2AudioLib/Z2EnvSeMgr.cpp</text>
</a>
</g>
</g>
<!-- Node3&#45;&gt;Node39 -->
<g id="edge38" class="edge">
<title>Node3&#45;&gt;Node39</title>
<path fill="none" stroke="midnightblue" d="M2730.79,-148.29C3095.75,-147.12 4555.78,-139.87 5012.5,-98 5027,-96.67 5042.71,-94.39 5056.84,-92.03"/>
<polygon fill="midnightblue" stroke="midnightblue" points="2730.56,-144.79 2720.58,-148.32 2730.59,-151.79 2730.56,-144.79"/>
</g>
<!-- Node40 -->
<g id="node40" class="node">
<title>Node40</title>
<g id="a_node40"><a xlink:href="Z2LinkMgr_8cpp.html" target="_top" xlink:title=" ">
<polygon fill="white" stroke="black" points="5200.5,-73 5200.5,-92 5352.5,-92 5352.5,-73 5200.5,-73"/>
<text text-anchor="middle" x="5276.5" y="-80" font-family="Helvetica,sans-Serif" font-size="10.00">libs/Z2AudioLib/Z2LinkMgr.cpp</text>
</a>
</g>
</g>
<!-- Node3&#45;&gt;Node40 -->
<g id="edge39" class="edge">
<title>Node3&#45;&gt;Node40</title>
<path fill="none" stroke="midnightblue" d="M2730.75,-148.52C3112.46,-148.34 4697.67,-144.76 5191.5,-98 5205.36,-96.69 5220.37,-94.42 5233.86,-92.05"/>
<polygon fill="midnightblue" stroke="midnightblue" points="2730.62,-145.02 2720.62,-148.52 2730.62,-152.02 2730.62,-145.02"/>
</g>
<!-- Node41 -->
<g id="node41" class="node">
<title>Node41</title>
<g id="a_node41"><a xlink:href="Z2SceneMgr_8cpp.html" target="_top" xlink:title=" ">
<polygon fill="white" stroke="black" points="5371,-73 5371,-92 5532,-92 5532,-73 5371,-73"/>
<text text-anchor="middle" x="5451.5" y="-80" font-family="Helvetica,sans-Serif" font-size="10.00">libs/Z2AudioLib/Z2SceneMgr.cpp</text>
</a>
</g>
</g>
<!-- Node3&#45;&gt;Node41 -->
<g id="edge40" class="edge">
<title>Node3&#45;&gt;Node41</title>
<path fill="none" stroke="midnightblue" d="M2731.02,-148.54C3128.62,-148.46 4832.12,-145.33 5361.5,-98 5376.16,-96.69 5392.05,-94.42 5406.33,-92.06"/>
<polygon fill="midnightblue" stroke="midnightblue" points="2730.76,-145.04 2720.76,-148.54 2730.76,-152.04 2730.76,-145.04"/>
</g>
<!-- Node42 -->
<g id="node42" class="node">
<title>Node42</title>
<g id="a_node42"><a xlink:href="Z2SoundMgr_8cpp.html" target="_top" xlink:title=" ">
<polygon fill="white" stroke="black" points="5550,-73 5550,-92 5711,-92 5711,-73 5550,-73"/>
<text text-anchor="middle" x="5630.5" y="-80" font-family="Helvetica,sans-Serif" font-size="10.00">libs/Z2AudioLib/Z2SoundMgr.cpp</text>
</a>
</g>
</g>
<!-- Node3&#45;&gt;Node42 -->
<g id="edge41" class="edge">
<title>Node3&#45;&gt;Node42</title>
<path fill="none" stroke="midnightblue" d="M2730.79,-148.67C3143.75,-149.25 4974.43,-148.87 5541.5,-98 5556,-96.7 5571.71,-94.43 5585.84,-92.07"/>
<polygon fill="midnightblue" stroke="midnightblue" points="2730.72,-145.17 2720.72,-148.65 2730.71,-152.17 2730.72,-145.17"/>
</g>
<!-- Node43 -->
<g id="node43" class="node">
<title>Node43</title>
<g id="a_node43"><a xlink:href="Z2StatusMgr_8cpp.html" target="_top" xlink:title=" ">
<polygon fill="white" stroke="black" points="5729,-67.5 5729,-97.5 5856,-97.5 5856,-67.5 5729,-67.5"/>
<text text-anchor="start" x="5737" y="-85.5" font-family="Helvetica,sans-Serif" font-size="10.00">libs/Z2AudioLib/Z2Status</text>
<text text-anchor="middle" x="5792.5" y="-74.5" font-family="Helvetica,sans-Serif" font-size="10.00">Mgr.cpp</text>
</a>
</g>
</g>
<!-- Node3&#45;&gt;Node43 -->
<g id="edge42" class="edge">
<title>Node3&#45;&gt;Node43</title>
<path fill="none" stroke="midnightblue" d="M2730.8,-148.04C3191.38,-145.37 5416.38,-130.84 5720.5,-98 5723.29,-97.7 5726.13,-97.34 5728.99,-96.94"/>
<polygon fill="midnightblue" stroke="midnightblue" points="2730.56,-144.54 2720.58,-148.1 2730.6,-151.54 2730.56,-144.54"/>
</g>
<!-- Node44 -->
<g id="node44" class="node">
<title>Node44</title>
<g id="a_node44"><a xlink:href="d__a__alink_8h.html" target="_top" xlink:title=" ">
<polygon fill="white" stroke="black" points="125,-67.5 125,-97.5 244,-97.5 244,-67.5 125,-67.5"/>
<text text-anchor="start" x="133" y="-85.5" font-family="Helvetica,sans-Serif" font-size="10.00">include/d/d_a/d_a_alink</text>
<text text-anchor="middle" x="184.5" y="-74.5" font-family="Helvetica,sans-Serif" font-size="10.00">/d_a_alink.h</text>
</a>
</g>
</g>
<!-- Node3&#45;&gt;Node44 -->
<g id="edge43" class="edge">
<title>Node3&#45;&gt;Node44</title>
<path fill="none" stroke="midnightblue" d="M2563.73,-148.61C2263.75,-148.59 1215.13,-144.94 351.5,-98 315.9,-96.07 276.13,-92.66 244.34,-89.64"/>
<polygon fill="midnightblue" stroke="midnightblue" points="2564.08,-152.11 2574.08,-148.61 2564.08,-145.11 2564.08,-152.11"/>
</g>
<!-- Node46 -->
<g id="node46" class="node">
<title>Node46</title>
<g id="a_node46"><a xlink:href="d__item_8h.html" target="_top" xlink:title=" ">
<polygon fill="white" stroke="black" points="1133.5,-67.5 1133.5,-97.5 1229.5,-97.5 1229.5,-67.5 1133.5,-67.5"/>
<text text-anchor="start" x="1141.5" y="-85.5" font-family="Helvetica,sans-Serif" font-size="10.00">include/d/d_item/d</text>
<text text-anchor="middle" x="1181.5" y="-74.5" font-family="Helvetica,sans-Serif" font-size="10.00">_item/d_item.h</text>
</a>
</g>
</g>
<!-- Node3&#45;&gt;Node46 -->
<g id="edge46" class="edge">
<title>Node3&#45;&gt;Node46</title>
<path fill="none" stroke="midnightblue" d="M2563.87,-147.62C2302.17,-144.52 1501.01,-132.41 1243.5,-98 1239.01,-97.4 1234.36,-96.62 1229.73,-95.73"/>
<polygon fill="midnightblue" stroke="midnightblue" points="2564.03,-151.12 2574.07,-147.74 2564.11,-144.12 2564.03,-151.12"/>
</g>
<!-- Node47 -->
<g id="node47" class="node">
<title>Node47</title>
<g id="a_node47"><a xlink:href="f__pc__manager_8h.html" target="_top" xlink:title=" ">
<polygon fill="white" stroke="red" points="587,-67.5 587,-97.5 684,-97.5 684,-67.5 587,-67.5"/>
<text text-anchor="start" x="595" y="-85.5" font-family="Helvetica,sans-Serif" font-size="10.00">include/f/f_pc/f_pc</text>
<text text-anchor="middle" x="635.5" y="-74.5" font-family="Helvetica,sans-Serif" font-size="10.00">_manager.h</text>
</a>
</g>
</g>
<!-- Node3&#45;&gt;Node47 -->
<g id="edge50" class="edge">
<title>Node3&#45;&gt;Node47</title>
<path fill="none" stroke="midnightblue" d="M2564.3,-146.9C2312.67,-141.87 1537.59,-125.15 895.5,-98 821.88,-94.89 736.6,-89.86 684.36,-86.62"/>
<polygon fill="midnightblue" stroke="midnightblue" points="2564.39,-150.4 2574.46,-147.1 2564.53,-143.4 2564.39,-150.4"/>
</g>
<!-- Node44&#45;&gt;Node4 -->
<g id="edge44" class="edge">
<title>Node44&#45;&gt;Node4</title>
<path fill="none" stroke="midnightblue" d="M146.82,-62.8C121.7,-50.34 89.89,-34.56 70.64,-25.01"/>
<polygon fill="midnightblue" stroke="midnightblue" points="145.56,-66.09 156.07,-67.4 148.67,-59.82 145.56,-66.09"/>
</g>
<!-- Node45 -->
<g id="node45" class="node">
<title>Node45</title>
<g id="a_node45"><a xlink:href="d__a__alink_8cpp.html" target="_top" xlink:title=" ">
<polygon fill="white" stroke="black" points="125,-6 125,-25 244,-25 244,-6 125,-6"/>
<text text-anchor="middle" x="184.5" y="-13" font-family="Helvetica,sans-Serif" font-size="10.00">src/d/d_a/d_a_alink.cpp</text>
</a>
</g>
</g>
<!-- Node44&#45;&gt;Node45 -->
<g id="edge45" class="edge">
<title>Node44&#45;&gt;Node45</title>
<path fill="none" stroke="midnightblue" d="M184.5,-57.25C184.5,-46.02 184.5,-33.38 184.5,-25.19"/>
<polygon fill="midnightblue" stroke="midnightblue" points="181,-57.4 184.5,-67.4 188,-57.4 181,-57.4"/>
</g>
<!-- Node46&#45;&gt;Node6 -->
<g id="edge47" class="edge">
<title>Node46&#45;&gt;Node6</title>
<path fill="none" stroke="midnightblue" d="M1162.41,-59.74C1153.98,-50.12 1144.31,-39.09 1136.84,-30.58"/>
<polygon fill="midnightblue" stroke="midnightblue" points="1159.91,-62.18 1169.13,-67.4 1165.17,-57.57 1159.91,-62.18"/>
</g>
<!-- Node46&#45;&gt;Node8 -->
<g id="edge48" class="edge">
<title>Node46&#45;&gt;Node8</title>
<path fill="none" stroke="midnightblue" d="M1207.04,-61.01C1222.07,-48.94 1240.31,-34.3 1251.67,-25.19"/>
<polygon fill="midnightblue" stroke="midnightblue" points="1204.68,-58.41 1199.08,-67.4 1209.07,-63.87 1204.68,-58.41"/>
</g>
<!-- Node46&#45;&gt;Node26 -->
<g id="edge49" class="edge">
<title>Node46&#45;&gt;Node26</title>
<path fill="none" stroke="midnightblue" d="M1237.39,-64.44C1271.92,-53.91 1315.69,-40.55 1348.26,-30.61"/>
<polygon fill="midnightblue" stroke="midnightblue" points="1236,-61.21 1227.46,-67.48 1238.04,-67.9 1236,-61.21"/>
</g>
<!-- Node47&#45;&gt;Node29 -->
<g id="edge53" class="edge">
<title>Node47&#45;&gt;Node29</title>
<path fill="none" stroke="midnightblue" d="M576.96,-69.79C526.67,-59.68 452.27,-44.6 387.5,-31 384.59,-30.39 381.61,-29.76 378.6,-29.12"/>
<polygon fill="midnightblue" stroke="midnightblue" points="576.5,-73.27 586.99,-71.81 577.88,-66.4 576.5,-73.27"/>
</g>
<!-- Node47&#45;&gt;Node30 -->
<g id="edge54" class="edge">
<title>Node47&#45;&gt;Node30</title>
<path fill="none" stroke="midnightblue" d="M585.42,-64.09C555.23,-53.6 517.28,-40.41 489,-30.58"/>
<polygon fill="midnightblue" stroke="midnightblue" points="584.33,-67.42 594.92,-67.4 586.63,-60.81 584.33,-67.42"/>
</g>
<!-- Node47&#45;&gt;Node31 -->
<g id="edge57" class="edge">
<title>Node47&#45;&gt;Node31</title>
<path fill="none" stroke="midnightblue" d="M694.41,-70.27C761.89,-57.41 870.95,-36.62 931.81,-25.02"/>
<polygon fill="midnightblue" stroke="midnightblue" points="693.52,-66.88 684.36,-72.19 694.84,-73.75 693.52,-66.88"/>
</g>
<!-- Node47&#45;&gt;Node45 -->
<g id="edge52" class="edge">
<title>Node47&#45;&gt;Node45</title>
<path fill="none" stroke="midnightblue" d="M576.57,-75.11C501.35,-66.64 367.33,-50.46 253.5,-31 243.49,-29.29 232.71,-27.16 222.72,-25.07"/>
<polygon fill="midnightblue" stroke="midnightblue" points="576.45,-78.62 586.78,-76.26 577.23,-71.66 576.45,-78.62"/>
</g>
<!-- Node48 -->
<g id="node48" class="node">
<title>Node48</title>
<g id="a_node48"><a xlink:href="f__ap__game_8cpp.html" target="_top" xlink:title=" ">
<polygon fill="white" stroke="black" points="519,-6 519,-25 624,-25 624,-6 519,-6"/>
<text text-anchor="middle" x="571.5" y="-13" font-family="Helvetica,sans-Serif" font-size="10.00">src/f/f_ap_game.cpp</text>
</a>
</g>
</g>
<!-- Node47&#45;&gt;Node48 -->
<g id="edge51" class="edge">
<title>Node47&#45;&gt;Node48</title>
<path fill="none" stroke="midnightblue" d="M614.33,-60C602.65,-48.13 588.78,-34.05 580.06,-25.19"/>
<polygon fill="midnightblue" stroke="midnightblue" points="612.1,-62.73 621.61,-67.4 617.09,-57.81 612.1,-62.73"/>
</g>
<!-- Node49 -->
<g id="node49" class="node">
<title>Node49</title>
<g id="a_node49"><a xlink:href="f__op__overlap__req_8cpp.html" target="_top" xlink:title=" ">
<polygon fill="white" stroke="black" points="642.5,-0.5 642.5,-30.5 758.5,-30.5 758.5,-0.5 642.5,-0.5"/>
<text text-anchor="start" x="650.5" y="-18.5" font-family="Helvetica,sans-Serif" font-size="10.00">src/f/f_op/f_op_overlap</text>
<text text-anchor="middle" x="700.5" y="-7.5" font-family="Helvetica,sans-Serif" font-size="10.00">_req.cpp</text>
</a>
</g>
</g>
<!-- Node47&#45;&gt;Node49 -->
<g id="edge55" class="edge">
<title>Node47&#45;&gt;Node49</title>
<path fill="none" stroke="midnightblue" d="M656.69,-60.31C666.44,-50.56 677.74,-39.26 686.42,-30.58"/>
<polygon fill="midnightblue" stroke="midnightblue" points="654.2,-57.85 649.6,-67.4 659.15,-62.8 654.2,-57.85"/>
</g>
<!-- Node50 -->
<g id="node50" class="node">
<title>Node50</title>
<g id="a_node50"><a xlink:href="f__op__scene__pause_8cpp.html" target="_top" xlink:title=" ">
<polygon fill="white" stroke="black" points="777,-0.5 777,-30.5 888,-30.5 888,-0.5 777,-0.5"/>
<text text-anchor="start" x="785" y="-18.5" font-family="Helvetica,sans-Serif" font-size="10.00">src/f/f_op/f_op_scene</text>
<text text-anchor="middle" x="832.5" y="-7.5" font-family="Helvetica,sans-Serif" font-size="10.00">_pause.cpp</text>
</a>
</g>
</g>
<!-- Node47&#45;&gt;Node50 -->
<g id="edge56" class="edge">
<title>Node47&#45;&gt;Node50</title>
<path fill="none" stroke="midnightblue" d="M687.85,-64.23C719.72,-53.71 759.91,-40.45 789.84,-30.58"/>
<polygon fill="midnightblue" stroke="midnightblue" points="686.65,-60.94 678.25,-67.4 688.84,-67.59 686.65,-60.94"/>
</g>
</g>
</svg>
        <g id="navigator" transform="translate(0 0)" fill="#404254">
                <rect fill="#f2f5e9" fill-opacity="0.5" stroke="#606060" stroke-width=".5" x="0" y="0" width="60" height="60"/>
                <use id="zoomplus" xlink:href="#zoomPlus" x="17" y="9" onmousedown="handleZoom(evt,'in')"/>
                <use id="zoomminus" xlink:href="#zoomMin" x="42" y="9" onmousedown="handleZoom(evt,'out')"/>
                <use id="reset" xlink:href="#resetDef" x="30" y="36" onmousedown="handleReset()"/>
                <g id="arrowUp" xlink:href="#dirArrow" transform="translate(30 24)" onmousedown="handlePan(0,-1)">
                  <use xlink:href="#rim" fill="#404040">
                        <set attributeName="fill" to="#808080" begin="arrowUp.mouseover" end="arrowUp.mouseout"/>
                  </use>
                  <path fill="none" stroke="white" stroke-width="1.5" d="M0,-3.0v7 M-2.5,-0.5L0,-3.0L2.5,-0.5"/>
                </g>
                <g id="arrowRight" xlink:href="#dirArrow" transform="rotate(90) translate(36 -43)" onmousedown="handlePan(1,0)">
                  <use xlink:href="#rim" fill="#404040">
                        <set attributeName="fill" to="#808080" begin="arrowRight.mouseover" end="arrowRight.mouseout"/>
                  </use>
                  <path fill="none" stroke="white" stroke-width="1.5" d="M0,-3.0v7 M-2.5,-0.5L0,-3.0L2.5,-0.5"/>
                </g>
                <g id="arrowDown" xlink:href="#dirArrow" transform="rotate(180) translate(-30 -48)" onmousedown="handlePan(0,1)">
                  <use xlink:href="#rim" fill="#404040">
                        <set attributeName="fill" to="#808080" begin="arrowDown.mouseover" end="arrowDown.mouseout"/>
                  </use>
                  <path fill="none" stroke="white" stroke-width="1.5" d="M0,-3.0v7 M-2.5,-0.5L0,-3.0L2.5,-0.5"/>
                </g>
                <g id="arrowLeft" xlink:href="#dirArrow" transform="rotate(270) translate(-36 17)" onmousedown="handlePan(-1,0)">
                  <use xlink:href="#rim" fill="#404040">
                        <set attributeName="fill" to="#808080" begin="arrowLeft.mouseover" end="arrowLeft.mouseout"/>
                  </use>
                  <path fill="none" stroke="white" stroke-width="1.5" d="M0,-3.0v7 M-2.5,-0.5L0,-3.0L2.5,-0.5"/>
                </g>
        </g>
        <svg viewBox="0 0 15 15" width="100%" height="30px" preserveAspectRatio="xMaxYMin meet">
         <g id="arrow_out" transform="scale(0.3 0.3)">
          <a xlink:href="d__cc__mass__s_8h__dep__incl_org.svg" target="_base">
           <rect id="button" ry="5" rx="5" y="6" x="6" height="38" width="38"
                fill="#f2f5e9" fill-opacity="0.5" stroke="#606060" stroke-width="1.0"/>
           <path id="arrow"
             d="M 11.500037,31.436501 C 11.940474,20.09759 22.043105,11.32322 32.158766,21.979434 L 37.068811,17.246167 C 37.068811,17.246167 37.088388,32 37.088388,32 L 22.160133,31.978069 C 22.160133,31.978069 26.997745,27.140456 26.997745,27.140456 C 18.528582,18.264221 13.291696,25.230495 11.500037,31.436501 z"
             style="fill:#404040;"/>
          </a>
         </g>
        </svg>
</svg>
