<?xml version="1.0" encoding="UTF-8" standalone="no"?>
<!DOCTYPE svg PUBLIC "-//W3C//DTD SVG 1.1//EN"
 "http://www.w3.org/Graphics/SVG/1.1/DTD/svg11.dtd">
<!-- Generated by graphviz version 2.44.0 ()
 -->
<!-- Title: include/d/d_kankyo/d_kankyo_wether/d_kankyo_wether.h Pages: 1 -->
<svg width="2900pt" height="251pt"
 viewBox="0.00 0.00 2900.00 251.00" xmlns="http://www.w3.org/2000/svg" xmlns:xlink="http://www.w3.org/1999/xlink">
<g id="graph0" class="graph" transform="scale(1 1) rotate(0) translate(4 247)">
<title>include/d/d_kankyo/d_kankyo_wether/d_kankyo_wether.h</title>
<polygon fill="white" stroke="transparent" points="-4,4 -4,-247 2896,-247 2896,4 -4,4"/>
<!-- Node1 -->
<g id="node1" class="node">
<title>Node1</title>
<g id="a_node1"><a xlink:title=" ">
<polygon fill="#bfbfbf" stroke="black" points="565.5,-201.5 565.5,-242.5 705.5,-242.5 705.5,-201.5 565.5,-201.5"/>
<text text-anchor="start" x="573.5" y="-230.5" font-family="Helvetica,sans-Serif" font-size="10.00">include/d/d_kankyo</text>
<text text-anchor="start" x="573.5" y="-219.5" font-family="Helvetica,sans-Serif" font-size="10.00">/d_kankyo_wether/d_kankyo</text>
<text text-anchor="middle" x="635.5" y="-208.5" font-family="Helvetica,sans-Serif" font-size="10.00">_wether.h</text>
</a>
</g>
</g>
<!-- Node2 -->
<g id="node2" class="node">
<title>Node2</title>
<g id="a_node2"><a xlink:href="d__kankyo_8h.html" target="_top" xlink:title=" ">
<polygon fill="white" stroke="black" points="585.5,-134.5 585.5,-164.5 685.5,-164.5 685.5,-134.5 585.5,-134.5"/>
<text text-anchor="start" x="593.5" y="-152.5" font-family="Helvetica,sans-Serif" font-size="10.00">include/d/d_kankyo</text>
<text text-anchor="middle" x="635.5" y="-141.5" font-family="Helvetica,sans-Serif" font-size="10.00">/d_kankyo.h</text>
</a>
</g>
</g>
<!-- Node1&#45;&gt;Node2 -->
<g id="edge1" class="edge">
<title>Node1&#45;&gt;Node2</title>
<path fill="none" stroke="midnightblue" d="M635.5,-191.08C635.5,-182.01 635.5,-172.45 635.5,-164.89"/>
<polygon fill="midnightblue" stroke="midnightblue" points="632,-191.36 635.5,-201.36 639,-191.36 632,-191.36"/>
</g>
<!-- Node3 -->
<g id="node3" class="node">
<title>Node3</title>
<g id="a_node3"><a xlink:href="d__com__inf__game_8cpp.html" target="_top" xlink:title=" ">
<polygon fill="white" stroke="black" points="131,-0.5 131,-30.5 250,-30.5 250,-0.5 131,-0.5"/>
<text text-anchor="start" x="139" y="-18.5" font-family="Helvetica,sans-Serif" font-size="10.00">src/d/d_com/d_com_inf</text>
<text text-anchor="middle" x="190.5" y="-7.5" font-family="Helvetica,sans-Serif" font-size="10.00">_game.cpp</text>
</a>
</g>
</g>
<!-- Node2&#45;&gt;Node3 -->
<g id="edge2" class="edge">
<title>Node2&#45;&gt;Node3</title>
<path fill="none" stroke="midnightblue" d="M575.48,-132.46C539.69,-122.77 493.4,-110 452.5,-98 375.48,-75.4 286.34,-47.24 234.41,-30.63"/>
<polygon fill="midnightblue" stroke="midnightblue" points="574.71,-135.88 585.28,-135.11 576.54,-129.12 574.71,-135.88"/>
</g>
<!-- Node4 -->
<g id="node4" class="node">
<title>Node4</title>
<g id="a_node4"><a xlink:href="d__kankyo__data_8cpp.html" target="_top" xlink:title=" ">
<polygon fill="white" stroke="black" points="1074,-67.5 1074,-97.5 1201,-97.5 1201,-67.5 1074,-67.5"/>
<text text-anchor="start" x="1082" y="-85.5" font-family="Helvetica,sans-Serif" font-size="10.00">src/d/d_kankyo/d_kankyo</text>
<text text-anchor="middle" x="1137.5" y="-74.5" font-family="Helvetica,sans-Serif" font-size="10.00">_data.cpp</text>
</a>
</g>
</g>
<!-- Node2&#45;&gt;Node4 -->
<g id="edge3" class="edge">
<title>Node2&#45;&gt;Node4</title>
<path fill="none" stroke="midnightblue" d="M695.57,-142.94C778.72,-134.9 933.48,-118.69 1064.5,-98 1067.56,-97.52 1070.69,-97 1073.85,-96.45"/>
<polygon fill="midnightblue" stroke="midnightblue" points="695.16,-139.46 685.54,-143.9 695.83,-146.43 695.16,-139.46"/>
</g>
<!-- Node5 -->
<g id="node5" class="node">
<title>Node5</title>
<g id="a_node5"><a xlink:href="d__kankyo__rain_8cpp.html" target="_top" xlink:title=" ">
<polygon fill="white" stroke="black" points="1219,-67.5 1219,-97.5 1346,-97.5 1346,-67.5 1219,-67.5"/>
<text text-anchor="start" x="1227" y="-85.5" font-family="Helvetica,sans-Serif" font-size="10.00">src/d/d_kankyo/d_kankyo</text>
<text text-anchor="middle" x="1282.5" y="-74.5" font-family="Helvetica,sans-Serif" font-size="10.00">_rain.cpp</text>
</a>
</g>
</g>
<!-- Node2&#45;&gt;Node5 -->
<g id="edge4" class="edge">
<title>Node2&#45;&gt;Node5</title>
<path fill="none" stroke="midnightblue" d="M695.69,-145.36C800.48,-139.4 1023.09,-124.63 1209.5,-98 1212.57,-97.56 1215.71,-97.08 1218.87,-96.56"/>
<polygon fill="midnightblue" stroke="midnightblue" points="695.4,-141.87 685.62,-145.92 695.8,-148.86 695.4,-141.87"/>
</g>
<!-- Node6 -->
<g id="node6" class="node">
<title>Node6</title>
<g id="a_node6"><a xlink:href="d__kankyo__wether_8cpp.html" target="_top" xlink:title=" ">
<polygon fill="white" stroke="black" points="268,-0.5 268,-30.5 395,-30.5 395,-0.5 268,-0.5"/>
<text text-anchor="start" x="276" y="-18.5" font-family="Helvetica,sans-Serif" font-size="10.00">src/d/d_kankyo/d_kankyo</text>
<text text-anchor="middle" x="331.5" y="-7.5" font-family="Helvetica,sans-Serif" font-size="10.00">_wether.cpp</text>
</a>
</g>
</g>
<!-- Node2&#45;&gt;Node6 -->
<g id="edge5" class="edge">
<title>Node2&#45;&gt;Node6</title>
<path fill="none" stroke="midnightblue" d="M593.88,-130.43C532.6,-103.82 419.37,-54.65 363.87,-30.56"/>
<polygon fill="midnightblue" stroke="midnightblue" points="592.69,-133.73 603.25,-134.5 595.48,-127.31 592.69,-133.73"/>
</g>
<!-- Node7 -->
<g id="node7" class="node">
<title>Node7</title>
<g id="a_node7"><a xlink:href="d__kankyo_8cpp.html" target="_top" xlink:title=" ">
<polygon fill="white" stroke="black" points="413,-6 413,-25 514,-25 514,-6 413,-6"/>
<text text-anchor="middle" x="463.5" y="-13" font-family="Helvetica,sans-Serif" font-size="10.00">src/d/d_kankyo.cpp</text>
</a>
</g>
</g>
<!-- Node2&#45;&gt;Node7 -->
<g id="edge6" class="edge">
<title>Node2&#45;&gt;Node7</title>
<path fill="none" stroke="midnightblue" d="M608.97,-128.14C570.7,-98.77 501.65,-45.78 474.7,-25.1"/>
<polygon fill="midnightblue" stroke="midnightblue" points="607.03,-131.06 617.09,-134.37 611.29,-125.51 607.03,-131.06"/>
</g>
<!-- Node8 -->
<g id="node8" class="node">
<title>Node8</title>
<g id="a_node8"><a xlink:href="d__kyeff_8cpp.html" target="_top" xlink:title=" ">
<polygon fill="white" stroke="black" points="0,-6 0,-25 113,-25 113,-6 0,-6"/>
<text text-anchor="middle" x="56.5" y="-13" font-family="Helvetica,sans-Serif" font-size="10.00">src/d/d_ky/d_kyeff.cpp</text>
</a>
</g>
</g>
<!-- Node2&#45;&gt;Node8 -->
<g id="edge7" class="edge">
<title>Node2&#45;&gt;Node8</title>
<path fill="none" stroke="midnightblue" d="M575.12,-148.38C491.03,-146.66 334.78,-137.75 208.5,-98 152.81,-80.47 93.77,-42.36 68.79,-25.19"/>
<polygon fill="midnightblue" stroke="midnightblue" points="575.19,-151.89 585.25,-148.56 575.32,-144.89 575.19,-151.89"/>
</g>
<!-- Node9 -->
<g id="node9" class="node">
<title>Node9</title>
<g id="a_node9"><a xlink:href="d__a__alink_8cpp.html" target="_top" xlink:title=" ">
<polygon fill="white" stroke="black" points="532,-6 532,-25 651,-25 651,-6 532,-6"/>
<text text-anchor="middle" x="591.5" y="-13" font-family="Helvetica,sans-Serif" font-size="10.00">src/d/d_a/d_a_alink.cpp</text>
</a>
</g>
</g>
<!-- Node2&#45;&gt;Node9 -->
<g id="edge8" class="edge">
<title>Node2&#45;&gt;Node9</title>
<path fill="none" stroke="midnightblue" d="M622.68,-125.42C618.36,-116.98 613.81,-107.23 610.5,-98 601.28,-72.29 595.35,-40.39 592.86,-25.25"/>
<polygon fill="midnightblue" stroke="midnightblue" points="619.6,-127.09 627.37,-134.3 625.79,-123.83 619.6,-127.09"/>
</g>
<!-- Node10 -->
<g id="node10" class="node">
<title>Node10</title>
<g id="a_node10"><a xlink:href="m__Do__graphic_8cpp.html" target="_top" xlink:title=" ">
<polygon fill="white" stroke="black" points="1364.5,-73 1364.5,-92 1506.5,-92 1506.5,-73 1364.5,-73"/>
<text text-anchor="middle" x="1435.5" y="-80" font-family="Helvetica,sans-Serif" font-size="10.00">src/m_Do/m_Do_graphic.cpp</text>
</a>
</g>
</g>
<!-- Node2&#45;&gt;Node10 -->
<g id="edge9" class="edge">
<title>Node2&#45;&gt;Node10</title>
<path fill="none" stroke="midnightblue" d="M695.84,-146.44C819.7,-141.74 1111.42,-128.21 1354.5,-98 1366.98,-96.45 1380.45,-94.25 1392.75,-92.03"/>
<polygon fill="midnightblue" stroke="midnightblue" points="695.66,-142.95 685.8,-146.82 695.92,-149.94 695.66,-142.95"/>
</g>
<!-- Node11 -->
<g id="node11" class="node">
<title>Node11</title>
<g id="a_node11"><a xlink:href="d__a__alink_8h.html" target="_top" xlink:title=" ">
<polygon fill="white" stroke="black" points="620,-67.5 620,-97.5 739,-97.5 739,-67.5 620,-67.5"/>
<text text-anchor="start" x="628" y="-85.5" font-family="Helvetica,sans-Serif" font-size="10.00">include/d/d_a/d_a_alink</text>
<text text-anchor="middle" x="679.5" y="-74.5" font-family="Helvetica,sans-Serif" font-size="10.00">/d_a_alink.h</text>
</a>
</g>
</g>
<!-- Node2&#45;&gt;Node11 -->
<g id="edge10" class="edge">
<title>Node2&#45;&gt;Node11</title>
<path fill="none" stroke="midnightblue" d="M650.82,-125.87C657.19,-116.46 664.38,-105.83 669.97,-97.58"/>
<polygon fill="midnightblue" stroke="midnightblue" points="647.75,-124.15 645.05,-134.4 653.55,-128.08 647.75,-124.15"/>
</g>
<!-- Node13 -->
<g id="node13" class="node">
<title>Node13</title>
<g id="a_node13"><a xlink:href="d__kyeff_8h.html" target="_top" xlink:title=" ">
<polygon fill="white" stroke="black" points="218,-67.5 218,-97.5 331,-97.5 331,-67.5 218,-67.5"/>
<text text-anchor="start" x="226" y="-85.5" font-family="Helvetica,sans-Serif" font-size="10.00">include/d/d_ky/d_kyeff</text>
<text text-anchor="middle" x="274.5" y="-74.5" font-family="Helvetica,sans-Serif" font-size="10.00">/d_kyeff.h</text>
</a>
</g>
</g>
<!-- Node2&#45;&gt;Node13 -->
<g id="edge13" class="edge">
<title>Node2&#45;&gt;Node13</title>
<path fill="none" stroke="midnightblue" d="M575.18,-137.64C507.19,-125.4 397.52,-105.65 331.1,-93.69"/>
<polygon fill="midnightblue" stroke="midnightblue" points="574.84,-141.13 585.3,-139.46 576.08,-134.25 574.84,-141.13"/>
</g>
<!-- Node14 -->
<g id="node14" class="node">
<title>Node14</title>
<g id="a_node14"><a xlink:href="d__kyeff2_8h.html" target="_top" xlink:title=" ">
<polygon fill="white" stroke="black" points="2148.5,-67.5 2148.5,-97.5 2266.5,-97.5 2266.5,-67.5 2148.5,-67.5"/>
<text text-anchor="start" x="2156.5" y="-85.5" font-family="Helvetica,sans-Serif" font-size="10.00">include/d/d_ky/d_kyeff2</text>
<text text-anchor="middle" x="2207.5" y="-74.5" font-family="Helvetica,sans-Serif" font-size="10.00">/d_kyeff2.h</text>
</a>
</g>
</g>
<!-- Node2&#45;&gt;Node14 -->
<g id="edge15" class="edge">
<title>Node2&#45;&gt;Node14</title>
<path fill="none" stroke="midnightblue" d="M695.93,-146C946.18,-135.65 1899.81,-96.22 2148.11,-85.96"/>
<polygon fill="midnightblue" stroke="midnightblue" points="695.43,-142.52 685.58,-146.43 695.72,-149.51 695.43,-142.52"/>
</g>
<!-- Node16 -->
<g id="node16" class="node">
<title>Node16</title>
<g id="a_node16"><a xlink:href="m__Do__audio_8h.html" target="_top" xlink:title=" ">
<polygon fill="white" stroke="black" points="923,-67.5 923,-97.5 1056,-97.5 1056,-67.5 923,-67.5"/>
<text text-anchor="start" x="931" y="-85.5" font-family="Helvetica,sans-Serif" font-size="10.00">include/m_Do/m_Do_audio</text>
<text text-anchor="middle" x="989.5" y="-74.5" font-family="Helvetica,sans-Serif" font-size="10.00">/m_Do_audio.h</text>
</a>
</g>
</g>
<!-- Node2&#45;&gt;Node16 -->
<g id="edge17" class="edge">
<title>Node2&#45;&gt;Node16</title>
<path fill="none" stroke="midnightblue" d="M696.03,-137.39C759.04,-125.82 857.47,-107.74 922.71,-95.76"/>
<polygon fill="midnightblue" stroke="midnightblue" points="695.05,-134.01 685.84,-139.26 696.31,-140.89 695.05,-134.01"/>
</g>
<!-- Node11&#45;&gt;Node9 -->
<g id="edge12" class="edge">
<title>Node11&#45;&gt;Node9</title>
<path fill="none" stroke="midnightblue" d="M652.16,-61.31C635.64,-49.1 615.43,-34.18 603.02,-25.01"/>
<polygon fill="midnightblue" stroke="midnightblue" points="650.28,-64.27 660.41,-67.4 654.44,-58.64 650.28,-64.27"/>
</g>
<!-- Node12 -->
<g id="node12" class="node">
<title>Node12</title>
<g id="a_node12"><a xlink:href="d__attention_8cpp.html" target="_top" xlink:title=" ">
<polygon fill="white" stroke="black" points="669,-6 669,-25 776,-25 776,-6 669,-6"/>
<text text-anchor="middle" x="722.5" y="-13" font-family="Helvetica,sans-Serif" font-size="10.00">src/d/d_attention.cpp</text>
</a>
</g>
</g>
<!-- Node11&#45;&gt;Node12 -->
<g id="edge11" class="edge">
<title>Node11&#45;&gt;Node12</title>
<path fill="none" stroke="midnightblue" d="M694.4,-58.97C702.1,-47.33 711.06,-33.8 716.75,-25.19"/>
<polygon fill="midnightblue" stroke="midnightblue" points="691.43,-57.12 688.83,-67.4 697.27,-60.99 691.43,-57.12"/>
</g>
<!-- Node13&#45;&gt;Node8 -->
<g id="edge14" class="edge">
<title>Node13&#45;&gt;Node8</title>
<path fill="none" stroke="midnightblue" d="M217.79,-64.59C175.21,-51.9 118.69,-35.04 85.1,-25.03"/>
<polygon fill="midnightblue" stroke="midnightblue" points="216.88,-67.97 227.47,-67.48 218.88,-61.26 216.88,-67.97"/>
</g>
<!-- Node15 -->
<g id="node15" class="node">
<title>Node15</title>
<g id="a_node15"><a xlink:href="d__kyeff2_8cpp.html" target="_top" xlink:title=" ">
<polygon fill="white" stroke="black" points="2773,-6 2773,-25 2892,-25 2892,-6 2773,-6"/>
<text text-anchor="middle" x="2832.5" y="-13" font-family="Helvetica,sans-Serif" font-size="10.00">src/d/d_ky/d_kyeff2.cpp</text>
</a>
</g>
</g>
<!-- Node14&#45;&gt;Node15 -->
<g id="edge16" class="edge">
<title>Node14&#45;&gt;Node15</title>
<path fill="none" stroke="midnightblue" d="M2276.94,-77.88C2382.65,-71.77 2590.06,-57.41 2764.5,-31 2774.88,-29.43 2786.06,-27.25 2796.3,-25.06"/>
<polygon fill="midnightblue" stroke="midnightblue" points="2276.51,-74.4 2266.73,-78.46 2276.91,-81.39 2276.51,-74.4"/>
</g>
<!-- Node16&#45;&gt;Node3 -->
<g id="edge20" class="edge">
<title>Node16&#45;&gt;Node3</title>
<path fill="none" stroke="midnightblue" d="M912.81,-76.82C738.35,-66.08 321.96,-39.91 258.5,-31 255.75,-30.61 252.95,-30.18 250.12,-29.71"/>
<polygon fill="midnightblue" stroke="midnightblue" points="912.74,-80.32 922.94,-77.44 913.17,-73.33 912.74,-80.32"/>
</g>
<!-- Node16&#45;&gt;Node6 -->
<g id="edge21" class="edge">
<title>Node16&#45;&gt;Node6</title>
<path fill="none" stroke="midnightblue" d="M912.66,-77.65C800.38,-71.39 585.08,-57.02 403.5,-31 400.72,-30.6 397.89,-30.17 395.04,-29.7"/>
<polygon fill="midnightblue" stroke="midnightblue" points="912.69,-81.15 922.87,-78.21 913.08,-74.17 912.69,-81.15"/>
</g>
<!-- Node16&#45;&gt;Node7 -->
<g id="edge22" class="edge">
<title>Node16&#45;&gt;Node7</title>
<path fill="none" stroke="midnightblue" d="M912.83,-76.36C819.94,-69.41 658.94,-55.03 522.5,-31 513.46,-29.41 503.75,-27.22 494.87,-25.03"/>
<polygon fill="midnightblue" stroke="midnightblue" points="912.75,-79.86 922.99,-77.11 913.27,-72.88 912.75,-79.86"/>
</g>
<!-- Node16&#45;&gt;Node8 -->
<g id="edge23" class="edge">
<title>Node16&#45;&gt;Node8</title>
<path fill="none" stroke="midnightblue" d="M912.77,-76.86C865.18,-73.99 802.79,-70.25 747.5,-67 469.3,-50.67 397.51,-69.46 121.5,-31 111.19,-29.56 100.1,-27.35 90.05,-25.07"/>
<polygon fill="midnightblue" stroke="midnightblue" points="912.8,-80.36 922.99,-77.47 913.22,-73.38 912.8,-80.36"/>
</g>
<!-- Node16&#45;&gt;Node9 -->
<g id="edge28" class="edge">
<title>Node16&#45;&gt;Node9</title>
<path fill="none" stroke="midnightblue" d="M912.89,-71.07C845.87,-61.63 745.99,-46.83 659.5,-31 649.76,-29.22 639.29,-27.09 629.54,-25.02"/>
<polygon fill="midnightblue" stroke="midnightblue" points="912.55,-74.55 922.94,-72.48 913.53,-67.62 912.55,-74.55"/>
</g>
<!-- Node16&#45;&gt;Node12 -->
<g id="edge18" class="edge">
<title>Node16&#45;&gt;Node12</title>
<path fill="none" stroke="midnightblue" d="M922.01,-65.07C869.65,-52.32 799.19,-35.17 757.53,-25.03"/>
<polygon fill="midnightblue" stroke="midnightblue" points="921.35,-68.51 931.89,-67.48 923.01,-61.71 921.35,-68.51"/>
</g>
<!-- Node17 -->
<g id="node17" class="node">
<title>Node17</title>
<g id="a_node17"><a xlink:href="d__camera_8cpp.html" target="_top" xlink:title=" ">
<polygon fill="white" stroke="black" points="2520.5,-6 2520.5,-25 2622.5,-25 2622.5,-6 2520.5,-6"/>
<text text-anchor="middle" x="2571.5" y="-13" font-family="Helvetica,sans-Serif" font-size="10.00">src/d/d_camera.cpp</text>
</a>
</g>
</g>
<!-- Node16&#45;&gt;Node17 -->
<g id="edge19" class="edge">
<title>Node16&#45;&gt;Node17</title>
<path fill="none" stroke="midnightblue" d="M1066.47,-66.92C1705.9,1.04 1877.13,-114.58 2511.5,-31 2521.38,-29.7 2532,-27.43 2541.52,-25.07"/>
<polygon fill="midnightblue" stroke="midnightblue" points="1065.64,-63.49 1056.07,-68.04 1066.39,-70.45 1065.64,-63.49"/>
</g>
<!-- Node18 -->
<g id="node18" class="node">
<title>Node18</title>
<g id="a_node18"><a xlink:href="d__meter__button_8cpp.html" target="_top" xlink:title=" ">
<polygon fill="white" stroke="black" points="2640,-0.5 2640,-30.5 2755,-30.5 2755,-0.5 2640,-0.5"/>
<text text-anchor="start" x="2648" y="-18.5" font-family="Helvetica,sans-Serif" font-size="10.00">src/d/d_meter/d_meter</text>
<text text-anchor="middle" x="2697.5" y="-7.5" font-family="Helvetica,sans-Serif" font-size="10.00">_button.cpp</text>
</a>
</g>
</g>
<!-- Node16&#45;&gt;Node18 -->
<g id="edge24" class="edge">
<title>Node16&#45;&gt;Node18</title>
<path fill="none" stroke="midnightblue" d="M1066.05,-66.96C1758.9,6.23 1943.14,-113.73 2631.5,-31 2634.18,-30.68 2636.91,-30.3 2639.66,-29.87"/>
<polygon fill="midnightblue" stroke="midnightblue" points="1065.64,-63.49 1056.07,-68.03 1066.38,-70.45 1065.64,-63.49"/>
</g>
<!-- Node19 -->
<g id="node19" class="node">
<title>Node19</title>
<g id="a_node19"><a xlink:href="d__meter__map_8cpp.html" target="_top" xlink:title=" ">
<polygon fill="white" stroke="black" points="794,-0.5 794,-30.5 909,-30.5 909,-0.5 794,-0.5"/>
<text text-anchor="start" x="802" y="-18.5" font-family="Helvetica,sans-Serif" font-size="10.00">src/d/d_meter/d_meter</text>
<text text-anchor="middle" x="851.5" y="-7.5" font-family="Helvetica,sans-Serif" font-size="10.00">_map.cpp</text>
</a>
</g>
</g>
<!-- Node16&#45;&gt;Node19 -->
<g id="edge25" class="edge">
<title>Node16&#45;&gt;Node19</title>
<path fill="none" stroke="midnightblue" d="M950.5,-63.13C928.57,-52.8 901.63,-40.11 881.39,-30.58"/>
<polygon fill="midnightblue" stroke="midnightblue" points="949.02,-66.3 959.56,-67.4 952,-59.97 949.02,-66.3"/>
</g>
<!-- Node20 -->
<g id="node20" class="node">
<title>Node20</title>
<g id="a_node20"><a xlink:href="d__meter2__draw_8cpp.html" target="_top" xlink:title=" ">
<polygon fill="white" stroke="black" points="927,-0.5 927,-30.5 1052,-30.5 1052,-0.5 927,-0.5"/>
<text text-anchor="start" x="935" y="-18.5" font-family="Helvetica,sans-Serif" font-size="10.00">src/d/d_meter2/d_meter2</text>
<text text-anchor="middle" x="989.5" y="-7.5" font-family="Helvetica,sans-Serif" font-size="10.00">_draw.cpp</text>
</a>
</g>
</g>
<!-- Node16&#45;&gt;Node20 -->
<g id="edge26" class="edge">
<title>Node16&#45;&gt;Node20</title>
<path fill="none" stroke="midnightblue" d="M989.5,-57.11C989.5,-48.15 989.5,-38.32 989.5,-30.58"/>
<polygon fill="midnightblue" stroke="midnightblue" points="986,-57.4 989.5,-67.4 993,-57.4 986,-57.4"/>
</g>
<!-- Node21 -->
<g id="node21" class="node">
<title>Node21</title>
<g id="a_node21"><a xlink:href="d__meter2_8cpp.html" target="_top" xlink:title=" ">
<polygon fill="white" stroke="black" points="1070.5,-6 1070.5,-25 1170.5,-25 1170.5,-6 1070.5,-6"/>
<text text-anchor="middle" x="1120.5" y="-13" font-family="Helvetica,sans-Serif" font-size="10.00">src/d/d_meter2.cpp</text>
</a>
</g>
</g>
<!-- Node16&#45;&gt;Node21 -->
<g id="edge27" class="edge">
<title>Node16&#45;&gt;Node21</title>
<path fill="none" stroke="midnightblue" d="M1027.18,-62.8C1052.3,-50.34 1084.11,-34.56 1103.36,-25.01"/>
<polygon fill="midnightblue" stroke="midnightblue" points="1025.33,-59.82 1017.93,-67.4 1028.44,-66.09 1025.33,-59.82"/>
</g>
<!-- Node22 -->
<g id="node22" class="node">
<title>Node22</title>
<g id="a_node22"><a xlink:href="m__Do__audio_8cpp.html" target="_top" xlink:title=" ">
<polygon fill="white" stroke="black" points="1188.5,-6 1188.5,-25 1322.5,-25 1322.5,-6 1188.5,-6"/>
<text text-anchor="middle" x="1255.5" y="-13" font-family="Helvetica,sans-Serif" font-size="10.00">src/m_Do/m_Do_audio.cpp</text>
</a>
</g>
</g>
<!-- Node16&#45;&gt;Node22 -->
<g id="edge29" class="edge">
<title>Node16&#45;&gt;Node22</title>
<path fill="none" stroke="midnightblue" d="M1056.74,-65.07C1108.9,-52.32 1179.1,-35.17 1220.6,-25.03"/>
<polygon fill="midnightblue" stroke="midnightblue" points="1055.77,-61.7 1046.89,-67.48 1057.44,-68.5 1055.77,-61.7"/>
</g>
<!-- Node23 -->
<g id="node23" class="node">
<title>Node23</title>
<g id="a_node23"><a xlink:href="m__Do__main_8cpp.html" target="_top" xlink:title=" ">
<polygon fill="white" stroke="black" points="1341,-6 1341,-25 1472,-25 1472,-6 1341,-6"/>
<text text-anchor="middle" x="1406.5" y="-13" font-family="Helvetica,sans-Serif" font-size="10.00">src/m_Do/m_Do_main.cpp</text>
</a>
</g>
</g>
<!-- Node16&#45;&gt;Node23 -->
<g id="edge30" class="edge">
<title>Node16&#45;&gt;Node23</title>
<path fill="none" stroke="midnightblue" d="M1066.29,-66.76C1184.41,-47.76 1216.57,-49.84 1331.5,-31 1342.23,-29.24 1353.78,-27.12 1364.53,-25.05"/>
<polygon fill="midnightblue" stroke="midnightblue" points="1065.43,-63.36 1056.12,-68.42 1066.55,-70.27 1065.43,-63.36"/>
</g>
<!-- Node24 -->
<g id="node24" class="node">
<title>Node24</title>
<g id="a_node24"><a xlink:href="Z2AudioMgr_8cpp.html" target="_top" xlink:title=" ">
<polygon fill="white" stroke="black" points="1490.5,-6 1490.5,-25 1648.5,-25 1648.5,-6 1490.5,-6"/>
<text text-anchor="middle" x="1569.5" y="-13" font-family="Helvetica,sans-Serif" font-size="10.00">libs/Z2AudioLib/Z2AudioMgr.cpp</text>
</a>
</g>
</g>
<!-- Node16&#45;&gt;Node24 -->
<g id="edge31" class="edge">
<title>Node16&#45;&gt;Node24</title>
<path fill="none" stroke="midnightblue" d="M1066.12,-66.86C1250.48,-41.75 1300.17,-53.73 1481.5,-31 1494.56,-29.36 1508.65,-27.21 1521.64,-25.07"/>
<polygon fill="midnightblue" stroke="midnightblue" points="1065.52,-63.41 1056.1,-68.25 1066.48,-70.35 1065.52,-63.41"/>
</g>
<!-- Node25 -->
<g id="node25" class="node">
<title>Node25</title>
<g id="a_node25"><a xlink:href="Z2Creature_8cpp.html" target="_top" xlink:title=" ">
<polygon fill="white" stroke="black" points="1667,-6 1667,-25 1820,-25 1820,-6 1667,-6"/>
<text text-anchor="middle" x="1743.5" y="-13" font-family="Helvetica,sans-Serif" font-size="10.00">libs/Z2AudioLib/Z2Creature.cpp</text>
</a>
</g>
</g>
<!-- Node16&#45;&gt;Node25 -->
<g id="edge32" class="edge">
<title>Node16&#45;&gt;Node25</title>
<path fill="none" stroke="midnightblue" d="M1066.28,-66.88C1328.23,-34.55 1398.5,-60.61 1657.5,-31 1670.89,-29.47 1685.36,-27.25 1698.55,-25.01"/>
<polygon fill="midnightblue" stroke="midnightblue" points="1065.57,-63.45 1056.08,-68.16 1066.44,-70.39 1065.57,-63.45"/>
</g>
<!-- Node26 -->
<g id="node26" class="node">
<title>Node26</title>
<g id="a_node26"><a xlink:href="Z2SeMgr_8cpp.html" target="_top" xlink:title=" ">
<polygon fill="white" stroke="black" points="1838,-6 1838,-25 1983,-25 1983,-6 1838,-6"/>
<text text-anchor="middle" x="1910.5" y="-13" font-family="Helvetica,sans-Serif" font-size="10.00">libs/Z2AudioLib/Z2SeMgr.cpp</text>
</a>
</g>
</g>
<!-- Node16&#45;&gt;Node26 -->
<g id="edge33" class="edge">
<title>Node16&#45;&gt;Node26</title>
<path fill="none" stroke="midnightblue" d="M1066.15,-66.92C1404.23,-27.41 1494.56,-68.7 1829.5,-31 1842.28,-29.56 1856.08,-27.34 1868.61,-25.07"/>
<polygon fill="midnightblue" stroke="midnightblue" points="1065.6,-63.46 1056.08,-68.11 1066.42,-70.41 1065.6,-63.46"/>
</g>
<!-- Node27 -->
<g id="node27" class="node">
<title>Node27</title>
<g id="a_node27"><a xlink:href="Z2SoundMgr_8cpp.html" target="_top" xlink:title=" ">
<polygon fill="white" stroke="black" points="2001,-6 2001,-25 2162,-25 2162,-6 2001,-6"/>
<text text-anchor="middle" x="2081.5" y="-13" font-family="Helvetica,sans-Serif" font-size="10.00">libs/Z2AudioLib/Z2SoundMgr.cpp</text>
</a>
</g>
</g>
<!-- Node16&#45;&gt;Node27 -->
<g id="edge34" class="edge">
<title>Node16&#45;&gt;Node27</title>
<path fill="none" stroke="midnightblue" d="M1066.13,-66.93C1476.28,-20.53 1585.12,-71.93 1992.5,-31 2006.67,-29.58 2022.02,-27.33 2035.91,-25.03"/>
<polygon fill="midnightblue" stroke="midnightblue" points="1065.61,-63.47 1056.07,-68.08 1066.41,-70.42 1065.61,-63.47"/>
</g>
<!-- Node28 -->
<g id="node28" class="node">
<title>Node28</title>
<g id="a_node28"><a xlink:href="Z2SoundStarter_8cpp.html" target="_top" xlink:title=" ">
<polygon fill="white" stroke="black" points="2180,-6 2180,-25 2353,-25 2353,-6 2180,-6"/>
<text text-anchor="middle" x="2266.5" y="-13" font-family="Helvetica,sans-Serif" font-size="10.00">libs/Z2AudioLib/Z2SoundStarter.cpp</text>
</a>
</g>
</g>
<!-- Node16&#45;&gt;Node28 -->
<g id="edge35" class="edge">
<title>Node16&#45;&gt;Node28</title>
<path fill="none" stroke="midnightblue" d="M1066.23,-66.93C1555.45,-12.98 1684.67,-75.91 2171.5,-31 2186.62,-29.61 2202.99,-27.37 2217.82,-25.07"/>
<polygon fill="midnightblue" stroke="midnightblue" points="1065.62,-63.48 1056.07,-68.06 1066.4,-70.43 1065.62,-63.48"/>
</g>
<!-- Node29 -->
<g id="node29" class="node">
<title>Node29</title>
<g id="a_node29"><a xlink:href="Z2SpeechMgr2_8cpp.html" target="_top" xlink:title=" ">
<polygon fill="white" stroke="black" points="2371,-0.5 2371,-30.5 2502,-30.5 2502,-0.5 2371,-0.5"/>
<text text-anchor="start" x="2379" y="-18.5" font-family="Helvetica,sans-Serif" font-size="10.00">libs/Z2AudioLib/Z2Speech</text>
<text text-anchor="middle" x="2436.5" y="-7.5" font-family="Helvetica,sans-Serif" font-size="10.00">Mgr2.cpp</text>
</a>
</g>
</g>
<!-- Node16&#45;&gt;Node29 -->
<g id="edge36" class="edge">
<title>Node16&#45;&gt;Node29</title>
<path fill="none" stroke="midnightblue" d="M1066.26,-66.94C1639.94,-5.07 1792.28,-94.33 2362.5,-31 2365.23,-30.7 2368.01,-30.35 2370.82,-29.96"/>
<polygon fill="midnightblue" stroke="midnightblue" points="1065.63,-63.48 1056.07,-68.05 1066.39,-70.44 1065.63,-63.48"/>
</g>
</g>
</svg>
