<?xml version="1.0" encoding="UTF-8" standalone="no"?>
<!DOCTYPE svg PUBLIC "-//W3C//DTD SVG 1.1//EN"
 "http://www.w3.org/Graphics/SVG/1.1/DTD/svg11.dtd">
<!-- Generated by graphviz version 2.44.0 ()
 -->
<!-- Title: include/d/d_lib/d_lib.h Pages: 1 -->
<svg width="1820pt" height="788pt"
 viewBox="0.00 0.00 1819.50 788.00" xmlns="http://www.w3.org/2000/svg" xmlns:xlink="http://www.w3.org/1999/xlink">
<g id="graph0" class="graph" transform="scale(1 1) rotate(0) translate(4 784)">
<title>include/d/d_lib/d_lib.h</title>
<polygon fill="white" stroke="transparent" points="-4,4 -4,-784 1815.5,-784 1815.5,4 -4,4"/>
<!-- Node1 -->
<g id="node1" class="node">
<title>Node1</title>
<g id="a_node1"><a xlink:title=" ">
<polygon fill="#bfbfbf" stroke="black" points="844,-760.5 844,-779.5 954,-779.5 954,-760.5 844,-760.5"/>
<text text-anchor="middle" x="899" y="-767.5" font-family="Helvetica,sans-Serif" font-size="10.00">include/d/d_lib/d_lib.h</text>
</a>
</g>
</g>
<!-- Node2 -->
<g id="node2" class="node">
<title>Node2</title>
<g id="a_node2"><a xlink:href="JKRAramArchive_8h.html" target="_top" xlink:title=" ">
<polygon fill="white" stroke="black" points="317.5,-447.5 317.5,-477.5 486.5,-477.5 486.5,-447.5 317.5,-447.5"/>
<text text-anchor="start" x="325.5" y="-465.5" font-family="Helvetica,sans-Serif" font-size="10.00">JSystem/JKernel/JKRAramArchive</text>
<text text-anchor="middle" x="402" y="-454.5" font-family="Helvetica,sans-Serif" font-size="10.00">/JKRAramArchive.h</text>
</a>
</g>
</g>
<!-- Node1&#45;&gt;Node2 -->
<g id="edge1" class="edge">
<title>Node1&#45;&gt;Node2</title>
<path fill="none" stroke="midnightblue" d="M843.72,-763.87C741.89,-752.88 535,-722.71 535,-659 535,-659 535,-659 535,-595.5 535,-542.64 481.43,-503.71 442.28,-482.32"/>
<polygon fill="midnightblue" stroke="midnightblue" points="443.66,-479.09 433.18,-477.51 440.39,-485.28 443.66,-479.09"/>
</g>
<!-- Node11 -->
<g id="node11" class="node">
<title>Node11</title>
<g id="a_node11"><a xlink:href="global_8h.html" target="_top" xlink:title=" ">
<polygon fill="white" stroke="black" points="1091,-185 1091,-204 1141,-204 1141,-185 1091,-185"/>
<text text-anchor="middle" x="1116" y="-192" font-family="Helvetica,sans-Serif" font-size="10.00">global.h</text>
</a>
</g>
</g>
<!-- Node1&#45;&gt;Node11 -->
<g id="edge83" class="edge">
<title>Node1&#45;&gt;Node11</title>
<path fill="none" stroke="midnightblue" d="M890.26,-760.49C873.39,-743.12 838,-701.58 838,-659 838,-659 838,-659 838,-528.5 838,-463.66 864.89,-291.59 911,-246 934.78,-222.49 1028.77,-206.84 1080.83,-199.79"/>
<polygon fill="midnightblue" stroke="midnightblue" points="1081.5,-203.23 1090.96,-198.46 1080.59,-196.29 1081.5,-203.23"/>
</g>
<!-- Node18 -->
<g id="node18" class="node">
<title>Node18</title>
<g id="a_node18"><a xlink:href="c__xyz_8h.html" target="_top" xlink:title=" ">
<polygon fill="white" stroke="black" points="1704.5,-319 1704.5,-338 1811.5,-338 1811.5,-319 1704.5,-319"/>
<text text-anchor="middle" x="1758" y="-326" font-family="Helvetica,sans-Serif" font-size="10.00">SComponent/c_xyz.h</text>
</a>
</g>
</g>
<!-- Node1&#45;&gt;Node18 -->
<g id="edge32" class="edge">
<title>Node1&#45;&gt;Node18</title>
<path fill="none" stroke="midnightblue" d="M954.24,-767.95C1147.55,-763.57 1782,-742.81 1782,-659 1782,-659 1782,-659 1782,-461.5 1782,-420.31 1770.55,-373.04 1763.47,-347.75"/>
<polygon fill="midnightblue" stroke="midnightblue" points="1766.8,-346.68 1760.66,-338.05 1760.08,-348.63 1766.8,-346.68"/>
</g>
<!-- Node21 -->
<g id="node21" class="node">
<title>Node21</title>
<g id="a_node21"><a xlink:href="f__op__actor_8h.html" target="_top" xlink:title=" ">
<polygon fill="white" stroke="black" points="912,-704.5 912,-723.5 1010,-723.5 1010,-704.5 912,-704.5"/>
<text text-anchor="middle" x="961" y="-711.5" font-family="Helvetica,sans-Serif" font-size="10.00">f/f_op/f_op_actor.h</text>
</a>
</g>
</g>
<!-- Node1&#45;&gt;Node21 -->
<g id="edge38" class="edge">
<title>Node1&#45;&gt;Node21</title>
<path fill="none" stroke="midnightblue" d="M908.96,-760.32C918.13,-752.34 931.94,-740.31 943.03,-730.65"/>
<polygon fill="midnightblue" stroke="midnightblue" points="945.62,-733.04 950.86,-723.83 941.02,-727.76 945.62,-733.04"/>
</g>
<!-- Node3 -->
<g id="node3" class="node">
<title>Node3</title>
<g id="a_node3"><a xlink:href="JKRArchive_8h.html" target="_top" xlink:title=" ">
<polygon fill="white" stroke="black" points="329,-380.5 329,-410.5 475,-410.5 475,-380.5 329,-380.5"/>
<text text-anchor="start" x="337" y="-398.5" font-family="Helvetica,sans-Serif" font-size="10.00">JSystem/JKernel/JKRArchive</text>
<text text-anchor="middle" x="402" y="-387.5" font-family="Helvetica,sans-Serif" font-size="10.00">/JKRArchive.h</text>
</a>
</g>
</g>
<!-- Node2&#45;&gt;Node3 -->
<g id="edge2" class="edge">
<title>Node2&#45;&gt;Node3</title>
<path fill="none" stroke="midnightblue" d="M402,-447.4C402,-439.64 402,-429.81 402,-420.86"/>
<polygon fill="midnightblue" stroke="midnightblue" points="405.5,-420.58 402,-410.58 398.5,-420.58 405.5,-420.58"/>
</g>
<!-- Node7 -->
<g id="node7" class="node">
<title>Node7</title>
<g id="a_node7"><a xlink:href="types_8h.html" target="_top" xlink:title=" ">
<polygon fill="white" stroke="black" points="605.5,-0.5 605.5,-19.5 686.5,-19.5 686.5,-0.5 605.5,-0.5"/>
<text text-anchor="middle" x="646" y="-7.5" font-family="Helvetica,sans-Serif" font-size="10.00">dolphin/types.h</text>
</a>
</g>
</g>
<!-- Node2&#45;&gt;Node7 -->
<g id="edge31" class="edge">
<title>Node2&#45;&gt;Node7</title>
<path fill="none" stroke="midnightblue" d="M317.24,-451.06C199.3,-434.12 0,-395.7 0,-329.5 0,-329.5 0,-329.5 0,-132 0,-86.97 26.71,-76.11 67,-56 113.61,-32.74 462.27,-17.71 594.95,-12.78"/>
<polygon fill="midnightblue" stroke="midnightblue" points="595.38,-16.27 605.24,-12.4 595.12,-9.27 595.38,-16.27"/>
</g>
<!-- Node4 -->
<g id="node4" class="node">
<title>Node4</title>
<g id="a_node4"><a xlink:href="JKRDecomp_8h.html" target="_top" xlink:title=" ">
<polygon fill="white" stroke="black" points="86.5,-313.5 86.5,-343.5 235.5,-343.5 235.5,-313.5 86.5,-313.5"/>
<text text-anchor="start" x="94.5" y="-331.5" font-family="Helvetica,sans-Serif" font-size="10.00">JSystem/JKernel/JKRDecomp</text>
<text text-anchor="middle" x="161" y="-320.5" font-family="Helvetica,sans-Serif" font-size="10.00">/JKRDecomp.h</text>
</a>
</g>
</g>
<!-- Node3&#45;&gt;Node4 -->
<g id="edge3" class="edge">
<title>Node3&#45;&gt;Node4</title>
<path fill="none" stroke="midnightblue" d="M350,-380.48C312.75,-370.43 262.43,-356.86 223.07,-346.24"/>
<polygon fill="midnightblue" stroke="midnightblue" points="223.89,-342.84 213.32,-343.61 222.06,-349.59 223.89,-342.84"/>
</g>
<!-- Node6 -->
<g id="node6" class="node">
<title>Node6</title>
<g id="a_node6"><a xlink:href="SArc_8h.html" target="_top" xlink:title=" ">
<polygon fill="white" stroke="black" points="208.5,-185 208.5,-204 331.5,-204 331.5,-185 208.5,-185"/>
<text text-anchor="middle" x="270" y="-192" font-family="Helvetica,sans-Serif" font-size="10.00">JSystem/JKernel/SArc.h</text>
</a>
</g>
</g>
<!-- Node3&#45;&gt;Node6 -->
<g id="edge29" class="edge">
<title>Node3&#45;&gt;Node6</title>
<path fill="none" stroke="midnightblue" d="M383.43,-380.34C358.33,-360.17 313.96,-320.75 290,-277 279.2,-257.27 274.15,-231.7 271.85,-214.51"/>
<polygon fill="midnightblue" stroke="midnightblue" points="275.27,-213.65 270.65,-204.12 268.32,-214.45 275.27,-213.65"/>
</g>
<!-- Node3&#45;&gt;Node7 -->
<g id="edge30" class="edge">
<title>Node3&#45;&gt;Node7</title>
<path fill="none" stroke="midnightblue" d="M475.21,-385.98C547.08,-373.05 646,-341.01 646,-262.5 646,-262.5 646,-262.5 646,-132 646,-95.71 646,-53.31 646,-29.56"/>
<polygon fill="midnightblue" stroke="midnightblue" points="649.5,-29.51 646,-19.51 642.5,-29.51 649.5,-29.51"/>
</g>
<!-- Node17 -->
<g id="node17" class="node">
<title>Node17</title>
<g id="a_node17"><a xlink:href="JKRFileLoader_8h.html" target="_top" xlink:title=" ">
<polygon fill="white" stroke="black" points="460,-246.5 460,-276.5 618,-276.5 618,-246.5 460,-246.5"/>
<text text-anchor="start" x="468" y="-264.5" font-family="Helvetica,sans-Serif" font-size="10.00">JSystem/JKernel/JKRFileLoader</text>
<text text-anchor="middle" x="539" y="-253.5" font-family="Helvetica,sans-Serif" font-size="10.00">/JKRFileLoader.h</text>
</a>
</g>
</g>
<!-- Node3&#45;&gt;Node17 -->
<g id="edge26" class="edge">
<title>Node3&#45;&gt;Node17</title>
<path fill="none" stroke="midnightblue" d="M416.66,-380.37C440.76,-357.15 488.89,-310.78 517.06,-283.64"/>
<polygon fill="midnightblue" stroke="midnightblue" points="519.67,-285.98 524.44,-276.52 514.81,-280.94 519.67,-285.98"/>
</g>
<!-- Node5 -->
<g id="node5" class="node">
<title>Node5</title>
<g id="a_node5"><a xlink:href="JKRCompression_8h.html" target="_top" xlink:title=" ">
<polygon fill="white" stroke="black" points="65.5,-252 65.5,-271 242.5,-271 242.5,-252 65.5,-252"/>
<text text-anchor="middle" x="154" y="-259" font-family="Helvetica,sans-Serif" font-size="10.00">JSystem/JKernel/JKRCompression.h</text>
</a>
</g>
</g>
<!-- Node4&#45;&gt;Node5 -->
<g id="edge4" class="edge">
<title>Node4&#45;&gt;Node5</title>
<path fill="none" stroke="midnightblue" d="M159.48,-313.4C158.47,-303.96 157.12,-291.45 156.01,-281.19"/>
<polygon fill="midnightblue" stroke="midnightblue" points="159.49,-280.76 154.94,-271.19 152.53,-281.51 159.49,-280.76"/>
</g>
<!-- Node4&#45;&gt;Node7 -->
<g id="edge25" class="edge">
<title>Node4&#45;&gt;Node7</title>
<path fill="none" stroke="midnightblue" d="M109.63,-313.44C90.18,-305.68 69.5,-294.05 56,-277 32.97,-247.92 38,-232.6 38,-195.5 38,-195.5 38,-195.5 38,-132 38,-18.75 448.88,-9.93 595.1,-10.37"/>
<polygon fill="midnightblue" stroke="midnightblue" points="595.15,-13.87 605.16,-10.42 595.18,-6.87 595.15,-13.87"/>
</g>
<!-- Node8 -->
<g id="node8" class="node">
<title>Node8</title>
<g id="a_node8"><a xlink:href="JKRThread_8h.html" target="_top" xlink:title=" ">
<polygon fill="white" stroke="black" points="298.5,-246.5 298.5,-276.5 441.5,-276.5 441.5,-246.5 298.5,-246.5"/>
<text text-anchor="start" x="306.5" y="-264.5" font-family="Helvetica,sans-Serif" font-size="10.00">JSystem/JKernel/JKRThread</text>
<text text-anchor="middle" x="370" y="-253.5" font-family="Helvetica,sans-Serif" font-size="10.00">/JKRThread.h</text>
</a>
</g>
</g>
<!-- Node4&#45;&gt;Node8 -->
<g id="edge8" class="edge">
<title>Node4&#45;&gt;Node8</title>
<path fill="none" stroke="midnightblue" d="M206.09,-313.48C237.98,-303.56 280.93,-290.2 314.86,-279.65"/>
<polygon fill="midnightblue" stroke="midnightblue" points="316.12,-282.92 324.63,-276.61 314.04,-276.24 316.12,-282.92"/>
</g>
<!-- Node5&#45;&gt;Node6 -->
<g id="edge5" class="edge">
<title>Node5&#45;&gt;Node6</title>
<path fill="none" stroke="midnightblue" d="M169.64,-251.73C189.21,-240.77 222.92,-221.88 245.82,-209.05"/>
<polygon fill="midnightblue" stroke="midnightblue" points="247.59,-212.07 254.6,-204.13 244.17,-205.96 247.59,-212.07"/>
</g>
<!-- Node5&#45;&gt;Node7 -->
<g id="edge7" class="edge">
<title>Node5&#45;&gt;Node7</title>
<path fill="none" stroke="midnightblue" d="M157.91,-251.72C173.19,-218.6 232.61,-100.77 323,-56 369.73,-32.85 516.48,-19.72 595.09,-14.17"/>
<polygon fill="midnightblue" stroke="midnightblue" points="595.52,-17.65 605.25,-13.47 595.04,-10.67 595.52,-17.65"/>
</g>
<!-- Node6&#45;&gt;Node7 -->
<g id="edge6" class="edge">
<title>Node6&#45;&gt;Node7</title>
<path fill="none" stroke="midnightblue" d="M272.8,-184.93C281.35,-160.21 309.68,-88.52 360,-56 397.98,-31.46 523.82,-19.19 595.28,-14.06"/>
<polygon fill="midnightblue" stroke="midnightblue" points="595.68,-17.54 605.41,-13.36 595.19,-10.56 595.68,-17.54"/>
</g>
<!-- Node8&#45;&gt;Node7 -->
<g id="edge13" class="edge">
<title>Node8&#45;&gt;Node7</title>
<path fill="none" stroke="midnightblue" d="M368.85,-246.37C366.67,-209.23 366.33,-108.16 421,-56 445.47,-32.65 536.47,-20.48 594.98,-14.93"/>
<polygon fill="midnightblue" stroke="midnightblue" points="595.5,-18.4 605.14,-14 594.86,-11.42 595.5,-18.4"/>
</g>
<!-- Node9 -->
<g id="node9" class="node">
<title>Node9</title>
<g id="a_node9"><a xlink:href="JKRDisposer_8h.html" target="_top" xlink:title=" ">
<polygon fill="white" stroke="black" points="428.5,-179.5 428.5,-209.5 579.5,-209.5 579.5,-179.5 428.5,-179.5"/>
<text text-anchor="start" x="436.5" y="-197.5" font-family="Helvetica,sans-Serif" font-size="10.00">JSystem/JKernel/JKRDisposer</text>
<text text-anchor="middle" x="504" y="-186.5" font-family="Helvetica,sans-Serif" font-size="10.00">/JKRDisposer.h</text>
</a>
</g>
</g>
<!-- Node8&#45;&gt;Node9 -->
<g id="edge9" class="edge">
<title>Node8&#45;&gt;Node9</title>
<path fill="none" stroke="midnightblue" d="M399.08,-246.4C418.65,-236.9 444.68,-224.28 465.91,-213.98"/>
<polygon fill="midnightblue" stroke="midnightblue" points="467.51,-217.09 474.98,-209.58 464.46,-210.79 467.51,-217.09"/>
</g>
<!-- Node8&#45;&gt;Node11 -->
<g id="edge14" class="edge">
<title>Node8&#45;&gt;Node11</title>
<path fill="none" stroke="midnightblue" d="M441.93,-247.23C444.99,-246.79 448.02,-246.38 451,-246 690.65,-215.53 981.4,-201.18 1080.76,-196.92"/>
<polygon fill="midnightblue" stroke="midnightblue" points="1081,-200.41 1090.85,-196.49 1080.71,-193.42 1081,-200.41"/>
</g>
<!-- Node9&#45;&gt;Node7 -->
<g id="edge12" class="edge">
<title>Node9&#45;&gt;Node7</title>
<path fill="none" stroke="midnightblue" d="M487.17,-179.49C457.68,-153.28 402.74,-95.86 435,-56 454.8,-31.54 539.52,-19.8 595.4,-14.62"/>
<polygon fill="midnightblue" stroke="midnightblue" points="595.82,-18.1 605.48,-13.73 595.21,-11.13 595.82,-18.1"/>
</g>
<!-- Node10 -->
<g id="node10" class="node">
<title>Node10</title>
<g id="a_node10"><a xlink:href="JSUList_8h.html" target="_top" xlink:title=" ">
<polygon fill="white" stroke="black" points="444,-56.5 444,-86.5 580,-86.5 580,-56.5 444,-56.5"/>
<text text-anchor="start" x="452" y="-74.5" font-family="Helvetica,sans-Serif" font-size="10.00">JSystem/JSupport/JSUList</text>
<text text-anchor="middle" x="512" y="-63.5" font-family="Helvetica,sans-Serif" font-size="10.00">/JSUList.h</text>
</a>
</g>
</g>
<!-- Node9&#45;&gt;Node10 -->
<g id="edge10" class="edge">
<title>Node9&#45;&gt;Node10</title>
<path fill="none" stroke="midnightblue" d="M504.95,-179.14C506.29,-158.86 508.76,-121.53 510.39,-96.86"/>
<polygon fill="midnightblue" stroke="midnightblue" points="513.88,-97.05 511.05,-86.84 506.9,-96.58 513.88,-97.05"/>
</g>
<!-- Node10&#45;&gt;Node7 -->
<g id="edge11" class="edge">
<title>Node10&#45;&gt;Node7</title>
<path fill="none" stroke="midnightblue" d="M543.76,-56.4C566.04,-46.51 595.59,-33.38 617.19,-23.79"/>
<polygon fill="midnightblue" stroke="midnightblue" points="618.78,-26.91 626.5,-19.66 615.94,-20.52 618.78,-26.91"/>
</g>
<!-- Node11&#45;&gt;Node7 -->
<g id="edge15" class="edge">
<title>Node11&#45;&gt;Node7</title>
<path fill="none" stroke="midnightblue" d="M1108.53,-184.67C1083.82,-155.56 1005.44,-64.03 990,-56 940.1,-30.05 779.92,-18.01 696.93,-13.4"/>
<polygon fill="midnightblue" stroke="midnightblue" points="696.89,-9.89 686.72,-12.85 696.51,-16.88 696.89,-9.89"/>
</g>
<!-- Node12 -->
<g id="node12" class="node">
<title>Node12</title>
<g id="a_node12"><a xlink:href="AR_8h.html" target="_top" xlink:title=" ">
<polygon fill="white" stroke="black" points="1042.5,-62 1042.5,-81 1091.5,-81 1091.5,-62 1042.5,-62"/>
<text text-anchor="middle" x="1067" y="-69" font-family="Helvetica,sans-Serif" font-size="10.00">ar/AR.h</text>
</a>
</g>
</g>
<!-- Node11&#45;&gt;Node12 -->
<g id="edge16" class="edge">
<title>Node11&#45;&gt;Node12</title>
<path fill="none" stroke="midnightblue" d="M1109.67,-185C1102.71,-175.29 1091.65,-158.73 1085,-143 1077.85,-126.11 1073.02,-105.7 1070.18,-91.2"/>
<polygon fill="midnightblue" stroke="midnightblue" points="1073.56,-90.22 1068.32,-81.01 1066.67,-91.48 1073.56,-90.22"/>
</g>
<!-- Node13 -->
<g id="node13" class="node">
<title>Node13</title>
<g id="a_node13"><a xlink:href="ARQ_8h.html" target="_top" xlink:title=" ">
<polygon fill="white" stroke="black" points="1094,-123.5 1094,-142.5 1150,-142.5 1150,-123.5 1094,-123.5"/>
<text text-anchor="middle" x="1122" y="-130.5" font-family="Helvetica,sans-Serif" font-size="10.00">ar/ARQ.h</text>
</a>
</g>
</g>
<!-- Node11&#45;&gt;Node13 -->
<g id="edge18" class="edge">
<title>Node11&#45;&gt;Node13</title>
<path fill="none" stroke="midnightblue" d="M1116.86,-184.98C1117.71,-176.58 1119.03,-163.48 1120.12,-152.66"/>
<polygon fill="midnightblue" stroke="midnightblue" points="1123.62,-152.81 1121.14,-142.51 1116.66,-152.11 1123.62,-152.81"/>
</g>
<!-- Node14 -->
<g id="node14" class="node">
<title>Node14</title>
<g id="a_node14"><a xlink:href="mwcc_8h.html" target="_top" xlink:title=" ">
<polygon fill="white" stroke="black" points="866,-123.5 866,-142.5 916,-142.5 916,-123.5 866,-123.5"/>
<text text-anchor="middle" x="891" y="-130.5" font-family="Helvetica,sans-Serif" font-size="10.00">mwcc.h</text>
</a>
</g>
</g>
<!-- Node11&#45;&gt;Node14 -->
<g id="edge20" class="edge">
<title>Node11&#45;&gt;Node14</title>
<path fill="none" stroke="midnightblue" d="M1090.97,-186.88C1056.26,-177.71 991.27,-160.53 926.26,-143.33"/>
<polygon fill="midnightblue" stroke="midnightblue" points="926.81,-139.86 916.25,-140.68 925.02,-146.63 926.81,-139.86"/>
</g>
<!-- Node15 -->
<g id="node15" class="node">
<title>Node15</title>
<g id="a_node15"><a xlink:href="OS_8h.html" target="_top" xlink:title=" ">
<polygon fill="white" stroke="black" points="934,-123.5 934,-142.5 986,-142.5 986,-123.5 934,-123.5"/>
<text text-anchor="middle" x="960" y="-130.5" font-family="Helvetica,sans-Serif" font-size="10.00">os/OS.h</text>
</a>
</g>
</g>
<!-- Node11&#45;&gt;Node15 -->
<g id="edge21" class="edge">
<title>Node11&#45;&gt;Node15</title>
<path fill="none" stroke="midnightblue" d="M1093.65,-184.98C1067.01,-174.81 1022.29,-157.76 991.99,-146.2"/>
<polygon fill="midnightblue" stroke="midnightblue" points="992.9,-142.8 982.31,-142.51 990.41,-149.34 992.9,-142.8"/>
</g>
<!-- Node12&#45;&gt;Node7 -->
<g id="edge17" class="edge">
<title>Node12&#45;&gt;Node7</title>
<path fill="none" stroke="midnightblue" d="M1046.64,-61.89C1040.72,-59.67 1034.18,-57.49 1028,-56 911.68,-27.95 771.04,-17.12 697.12,-13.15"/>
<polygon fill="midnightblue" stroke="midnightblue" points="696.87,-9.63 686.71,-12.61 696.51,-16.62 696.87,-9.63"/>
</g>
<!-- Node13&#45;&gt;Node7 -->
<g id="edge19" class="edge">
<title>Node13&#45;&gt;Node7</title>
<path fill="none" stroke="midnightblue" d="M1122.49,-123.3C1122.86,-107.21 1121.1,-72.93 1101,-56 1070.57,-30.37 808.73,-17.29 696.61,-12.81"/>
<polygon fill="midnightblue" stroke="midnightblue" points="696.69,-9.32 686.56,-12.42 696.41,-16.31 696.69,-9.32"/>
</g>
<!-- Node15&#45;&gt;Node7 -->
<g id="edge22" class="edge">
<title>Node15&#45;&gt;Node7</title>
<path fill="none" stroke="midnightblue" d="M950.68,-123.45C932.9,-107.61 892.3,-73.71 852,-56 801.69,-33.89 739.55,-22.23 696.75,-16.38"/>
<polygon fill="midnightblue" stroke="midnightblue" points="696.94,-12.87 686.57,-15.04 696.03,-19.81 696.94,-12.87"/>
</g>
<!-- Node16 -->
<g id="node16" class="node">
<title>Node16</title>
<g id="a_node16"><a xlink:href="dvd_8h.html" target="_top" xlink:title=" ">
<polygon fill="white" stroke="black" points="921.5,-62 921.5,-81 980.5,-81 980.5,-62 921.5,-62"/>
<text text-anchor="middle" x="951" y="-69" font-family="Helvetica,sans-Serif" font-size="10.00">dvd/dvd.h</text>
</a>
</g>
</g>
<!-- Node15&#45;&gt;Node16 -->
<g id="edge23" class="edge">
<title>Node15&#45;&gt;Node16</title>
<path fill="none" stroke="midnightblue" d="M958.71,-123.48C957.44,-115.08 955.46,-101.98 953.82,-91.16"/>
<polygon fill="midnightblue" stroke="midnightblue" points="957.24,-90.37 952.29,-81.01 950.32,-91.42 957.24,-90.37"/>
</g>
<!-- Node16&#45;&gt;Node7 -->
<g id="edge24" class="edge">
<title>Node16&#45;&gt;Node7</title>
<path fill="none" stroke="midnightblue" d="M921.42,-62.24C913.22,-60.08 904.29,-57.84 896,-56 827.52,-40.84 747.64,-27.14 696.95,-18.95"/>
<polygon fill="midnightblue" stroke="midnightblue" points="697.33,-15.47 686.9,-17.34 696.22,-22.38 697.33,-15.47"/>
</g>
<!-- Node17&#45;&gt;Node7 -->
<g id="edge28" class="edge">
<title>Node17&#45;&gt;Node7</title>
<path fill="none" stroke="midnightblue" d="M557.07,-246.34C567.78,-237.07 580.82,-224.08 589,-210 624.7,-148.56 611.89,-124.16 632,-56 634.61,-47.16 637.63,-37.39 640.2,-29.21"/>
<polygon fill="midnightblue" stroke="midnightblue" points="643.56,-30.19 643.24,-19.6 636.89,-28.08 643.56,-30.19"/>
</g>
<!-- Node17&#45;&gt;Node9 -->
<g id="edge27" class="edge">
<title>Node17&#45;&gt;Node9</title>
<path fill="none" stroke="midnightblue" d="M531.41,-246.4C527,-238.22 521.35,-227.73 516.33,-218.39"/>
<polygon fill="midnightblue" stroke="midnightblue" points="519.4,-216.72 511.58,-209.58 513.24,-220.04 519.4,-216.72"/>
</g>
<!-- Node18&#45;&gt;Node11 -->
<g id="edge35" class="edge">
<title>Node18&#45;&gt;Node11</title>
<path fill="none" stroke="midnightblue" d="M1758.93,-318.97C1760.25,-302.1 1760.46,-264.5 1739,-246 1694.37,-207.54 1277.12,-197.99 1151.57,-195.98"/>
<polygon fill="midnightblue" stroke="midnightblue" points="1151.41,-192.48 1141.35,-195.82 1151.3,-199.47 1151.41,-192.48"/>
</g>
<!-- Node19 -->
<g id="node19" class="node">
<title>Node19</title>
<g id="a_node19"><a xlink:href="c__math_8h.html" target="_top" xlink:title=" ">
<polygon fill="white" stroke="black" points="1614,-252 1614,-271 1730,-271 1730,-252 1614,-252"/>
<text text-anchor="middle" x="1672" y="-259" font-family="Helvetica,sans-Serif" font-size="10.00">SComponent/c_math.h</text>
</a>
</g>
</g>
<!-- Node18&#45;&gt;Node19 -->
<g id="edge33" class="edge">
<title>Node18&#45;&gt;Node19</title>
<path fill="none" stroke="midnightblue" d="M1746.4,-318.73C1732.35,-308.11 1708.45,-290.05 1691.53,-277.26"/>
<polygon fill="midnightblue" stroke="midnightblue" points="1693.5,-274.36 1683.41,-271.13 1689.28,-279.95 1693.5,-274.36"/>
</g>
<!-- Node20 -->
<g id="node20" class="node">
<title>Node20</title>
<g id="a_node20"><a xlink:href="mtx__vec_8h.html" target="_top" xlink:title=" ">
<polygon fill="white" stroke="black" points="1457.5,-62 1457.5,-81 1518.5,-81 1518.5,-62 1457.5,-62"/>
<text text-anchor="middle" x="1488" y="-69" font-family="Helvetica,sans-Serif" font-size="10.00">mtx_vec.h</text>
</a>
</g>
</g>
<!-- Node18&#45;&gt;Node20 -->
<g id="edge36" class="edge">
<title>Node18&#45;&gt;Node20</title>
<path fill="none" stroke="midnightblue" d="M1761,-318.99C1765.94,-303.4 1774.02,-269.7 1761,-246 1710.95,-154.89 1590.56,-104.83 1527.71,-84.09"/>
<polygon fill="midnightblue" stroke="midnightblue" points="1528.72,-80.74 1518.13,-81.01 1526.58,-87.4 1528.72,-80.74"/>
</g>
<!-- Node19&#45;&gt;Node11 -->
<g id="edge34" class="edge">
<title>Node19&#45;&gt;Node11</title>
<path fill="none" stroke="midnightblue" d="M1633.26,-252C1622.52,-249.83 1610.84,-247.65 1600,-246 1432.75,-220.49 1230.99,-203.99 1151.06,-198.01"/>
<polygon fill="midnightblue" stroke="midnightblue" points="1151.27,-194.52 1141.04,-197.27 1150.76,-201.5 1151.27,-194.52"/>
</g>
<!-- Node20&#45;&gt;Node7 -->
<g id="edge37" class="edge">
<title>Node20&#45;&gt;Node7</title>
<path fill="none" stroke="midnightblue" d="M1457.29,-68.33C1331.45,-59.44 854.51,-25.73 696.9,-14.6"/>
<polygon fill="midnightblue" stroke="midnightblue" points="696.77,-11.08 686.55,-13.87 696.28,-18.06 696.77,-11.08"/>
</g>
<!-- Node21&#45;&gt;Node18 -->
<g id="edge47" class="edge">
<title>Node21&#45;&gt;Node18</title>
<path fill="none" stroke="midnightblue" d="M1010.28,-710.95C1182.05,-703.17 1744,-672 1744,-597.5 1744,-597.5 1744,-597.5 1744,-461.5 1744,-420.93 1750.62,-373.74 1754.76,-348.22"/>
<polygon fill="midnightblue" stroke="midnightblue" points="1758.25,-348.56 1756.45,-338.12 1751.34,-347.4 1758.25,-348.56"/>
</g>
<!-- Node22 -->
<g id="node22" class="node">
<title>Node22</title>
<g id="a_node22"><a xlink:href="JKRSolidHeap_8h.html" target="_top" xlink:title=" ">
<polygon fill="white" stroke="black" points="714,-313.5 714,-343.5 848,-343.5 848,-313.5 714,-313.5"/>
<text text-anchor="start" x="722" y="-331.5" font-family="Helvetica,sans-Serif" font-size="10.00">JSystem/JKernel/JKRSolid</text>
<text text-anchor="middle" x="781" y="-320.5" font-family="Helvetica,sans-Serif" font-size="10.00">Heap/JKRSolidHeap.h</text>
</a>
</g>
</g>
<!-- Node21&#45;&gt;Node22 -->
<g id="edge39" class="edge">
<title>Node21&#45;&gt;Node22</title>
<path fill="none" stroke="midnightblue" d="M942.07,-704.4C927.43,-696.81 907.74,-684.41 896,-668 877.05,-641.51 876,-630.07 876,-597.5 876,-597.5 876,-597.5 876,-528.5 876,-458.62 827.7,-387.22 799.98,-352"/>
<polygon fill="midnightblue" stroke="midnightblue" points="802.42,-349.44 793.42,-343.84 796.96,-353.83 802.42,-349.44"/>
</g>
<!-- Node24 -->
<g id="node24" class="node">
<title>Node24</title>
<g id="a_node24"><a xlink:href="c__sxyz_8h.html" target="_top" xlink:title=" ">
<polygon fill="white" stroke="black" points="904.5,-648.5 904.5,-667.5 1017.5,-667.5 1017.5,-648.5 904.5,-648.5"/>
<text text-anchor="middle" x="961" y="-655.5" font-family="Helvetica,sans-Serif" font-size="10.00">SComponent/c_sxyz.h</text>
</a>
</g>
</g>
<!-- Node21&#45;&gt;Node24 -->
<g id="edge45" class="edge">
<title>Node21&#45;&gt;Node24</title>
<path fill="none" stroke="midnightblue" d="M961,-704.08C961,-697.01 961,-686.86 961,-677.99"/>
<polygon fill="midnightblue" stroke="midnightblue" points="964.5,-677.75 961,-667.75 957.5,-677.75 964.5,-677.75"/>
</g>
<!-- Node25 -->
<g id="node25" class="node">
<title>Node25</title>
<g id="a_node25"><a xlink:href="f__pc__base_8h.html" target="_top" xlink:title=" ">
<polygon fill="white" stroke="black" points="1215.5,-648.5 1215.5,-667.5 1312.5,-667.5 1312.5,-648.5 1215.5,-648.5"/>
<text text-anchor="middle" x="1264" y="-655.5" font-family="Helvetica,sans-Serif" font-size="10.00">f/f_pc/f_pc_base.h</text>
</a>
</g>
</g>
<!-- Node21&#45;&gt;Node25 -->
<g id="edge48" class="edge">
<title>Node21&#45;&gt;Node25</title>
<path fill="none" stroke="midnightblue" d="M1009.01,-704.44C1062.53,-694.9 1149.07,-679.48 1206.24,-669.29"/>
<polygon fill="midnightblue" stroke="midnightblue" points="1206.98,-672.72 1216.21,-667.52 1205.75,-665.83 1206.98,-672.72"/>
</g>
<!-- Node22&#45;&gt;Node7 -->
<g id="edge44" class="edge">
<title>Node22&#45;&gt;Node7</title>
<path fill="none" stroke="midnightblue" d="M794.42,-313.1C802.66,-303.53 812.78,-290.32 819,-277 834.74,-243.3 838,-232.69 838,-195.5 838,-195.5 838,-195.5 838,-132 838,-65.1 753.53,-33.71 696.64,-20.16"/>
<polygon fill="midnightblue" stroke="midnightblue" points="697.24,-16.71 686.72,-17.91 695.7,-23.54 697.24,-16.71"/>
</g>
<!-- Node23 -->
<g id="node23" class="node">
<title>Node23</title>
<g id="a_node23"><a xlink:href="JKRHeap_8h.html" target="_top" xlink:title=" ">
<polygon fill="white" stroke="black" points="674,-246.5 674,-276.5 810,-276.5 810,-246.5 674,-246.5"/>
<text text-anchor="start" x="682" y="-264.5" font-family="Helvetica,sans-Serif" font-size="10.00">JSystem/JKernel/JKRHeap</text>
<text text-anchor="middle" x="742" y="-253.5" font-family="Helvetica,sans-Serif" font-size="10.00">/JKRHeap.h</text>
</a>
</g>
</g>
<!-- Node22&#45;&gt;Node23 -->
<g id="edge40" class="edge">
<title>Node22&#45;&gt;Node23</title>
<path fill="none" stroke="midnightblue" d="M772.54,-313.4C767.63,-305.22 761.34,-294.73 755.74,-285.39"/>
<polygon fill="midnightblue" stroke="midnightblue" points="758.59,-283.35 750.45,-276.58 752.59,-286.95 758.59,-283.35"/>
</g>
<!-- Node23&#45;&gt;Node7 -->
<g id="edge42" class="edge">
<title>Node23&#45;&gt;Node7</title>
<path fill="none" stroke="midnightblue" d="M736.56,-246.37C720.19,-203.82 671.35,-76.89 653.04,-29.3"/>
<polygon fill="midnightblue" stroke="midnightblue" points="656.29,-28.01 649.44,-19.93 649.76,-30.52 656.29,-28.01"/>
</g>
<!-- Node23&#45;&gt;Node9 -->
<g id="edge41" class="edge">
<title>Node23&#45;&gt;Node9</title>
<path fill="none" stroke="midnightblue" d="M690.65,-246.48C654.02,-236.47 604.59,-222.97 565.8,-212.38"/>
<polygon fill="midnightblue" stroke="midnightblue" points="566.24,-208.87 555.67,-209.61 564.39,-215.62 566.24,-208.87"/>
</g>
<!-- Node23&#45;&gt;Node11 -->
<g id="edge43" class="edge">
<title>Node23&#45;&gt;Node11</title>
<path fill="none" stroke="midnightblue" d="M810.16,-248.65C889.83,-234.81 1018.63,-212.42 1080.55,-201.66"/>
<polygon fill="midnightblue" stroke="midnightblue" points="1081.34,-205.08 1090.6,-199.92 1080.15,-198.18 1081.34,-205.08"/>
</g>
<!-- Node24&#45;&gt;Node11 -->
<g id="edge46" class="edge">
<title>Node24&#45;&gt;Node11</title>
<path fill="none" stroke="midnightblue" d="M955.24,-648.22C942.69,-628.21 914,-577.36 914,-530.5 914,-530.5 914,-530.5 914,-327.5 914,-290.31 907.23,-272.82 933,-246 971.65,-205.77 1039.19,-196.66 1080.52,-195.11"/>
<polygon fill="midnightblue" stroke="midnightblue" points="1080.77,-198.6 1090.69,-194.86 1080.6,-191.6 1080.77,-198.6"/>
</g>
<!-- Node25&#45;&gt;Node11 -->
<g id="edge58" class="edge">
<title>Node25&#45;&gt;Node11</title>
<path fill="none" stroke="midnightblue" d="M1216.02,-648.48C1192.26,-642.04 1164.73,-630.95 1146,-612 1118.87,-584.55 1116,-569.1 1116,-530.5 1116,-530.5 1116,-530.5 1116,-327.5 1116,-287.16 1116,-239.88 1116,-214.28"/>
<polygon fill="midnightblue" stroke="midnightblue" points="1119.5,-214.15 1116,-204.15 1112.5,-214.15 1119.5,-214.15"/>
</g>
<!-- Node26 -->
<g id="node26" class="node">
<title>Node26</title>
<g id="a_node26"><a xlink:href="c__tag_8h.html" target="_top" xlink:title=" ">
<polygon fill="white" stroke="black" points="1380.5,-453 1380.5,-472 1487.5,-472 1487.5,-453 1380.5,-453"/>
<text text-anchor="middle" x="1434" y="-460" font-family="Helvetica,sans-Serif" font-size="10.00">SComponent/c_tag.h</text>
</a>
</g>
</g>
<!-- Node25&#45;&gt;Node26 -->
<g id="edge49" class="edge">
<title>Node25&#45;&gt;Node26</title>
<path fill="none" stroke="midnightblue" d="M1312.52,-650.98C1339.36,-645.23 1371.36,-633.98 1392,-612 1426.16,-575.64 1432.85,-513.6 1433.95,-482.48"/>
<polygon fill="midnightblue" stroke="midnightblue" points="1437.46,-482.25 1434.15,-472.19 1430.46,-482.12 1437.46,-482.25"/>
</g>
<!-- Node30 -->
<g id="node30" class="node">
<title>Node30</title>
<g id="a_node30"><a xlink:href="f__pc__delete__tag_8h.html" target="_top" xlink:title=" ">
<polygon fill="white" stroke="black" points="1154.5,-581.5 1154.5,-611.5 1249.5,-611.5 1249.5,-581.5 1154.5,-581.5"/>
<text text-anchor="start" x="1162.5" y="-599.5" font-family="Helvetica,sans-Serif" font-size="10.00">f/f_pc/f_pc_delete</text>
<text text-anchor="middle" x="1202" y="-588.5" font-family="Helvetica,sans-Serif" font-size="10.00">_tag.h</text>
</a>
</g>
</g>
<!-- Node25&#45;&gt;Node30 -->
<g id="edge59" class="edge">
<title>Node25&#45;&gt;Node30</title>
<path fill="none" stroke="midnightblue" d="M1255.12,-648.48C1247.03,-640.72 1234.76,-628.94 1224.05,-618.66"/>
<polygon fill="midnightblue" stroke="midnightblue" points="1226.25,-615.92 1216.61,-611.52 1221.4,-620.97 1226.25,-615.92"/>
</g>
<!-- Node32 -->
<g id="node32" class="node">
<title>Node32</title>
<g id="a_node32"><a xlink:href="f__pc__layer__tag_8h.html" target="_top" xlink:title=" ">
<polygon fill="white" stroke="black" points="1267.5,-587 1267.5,-606 1382.5,-606 1382.5,-587 1267.5,-587"/>
<text text-anchor="middle" x="1325" y="-594" font-family="Helvetica,sans-Serif" font-size="10.00">f/f_pc/f_pc_layer_tag.h</text>
</a>
</g>
</g>
<!-- Node25&#45;&gt;Node32 -->
<g id="edge67" class="edge">
<title>Node25&#45;&gt;Node32</title>
<path fill="none" stroke="midnightblue" d="M1272.74,-648.48C1282.16,-639.28 1297.36,-624.46 1308.95,-613.16"/>
<polygon fill="midnightblue" stroke="midnightblue" points="1311.56,-615.5 1316.28,-606.01 1306.67,-610.49 1311.56,-615.5"/>
</g>
<!-- Node33 -->
<g id="node33" class="node">
<title>Node33</title>
<g id="a_node33"><a xlink:href="f__pc__line__tag_8h.html" target="_top" xlink:title=" ">
<polygon fill="white" stroke="black" points="1606,-520 1606,-539 1716,-539 1716,-520 1606,-520"/>
<text text-anchor="middle" x="1661" y="-527" font-family="Helvetica,sans-Serif" font-size="10.00">f/f_pc/f_pc_line_tag.h</text>
</a>
</g>
</g>
<!-- Node25&#45;&gt;Node33 -->
<g id="edge71" class="edge">
<title>Node25&#45;&gt;Node33</title>
<path fill="none" stroke="midnightblue" d="M1312.72,-657.38C1373.42,-656.14 1479.11,-648.29 1561,-612 1595.78,-596.59 1628.43,-565.75 1646.47,-546.74"/>
<polygon fill="midnightblue" stroke="midnightblue" points="1649.25,-548.88 1653.47,-539.16 1644.11,-544.13 1649.25,-548.88"/>
</g>
<!-- Node34 -->
<g id="node34" class="node">
<title>Node34</title>
<g id="a_node34"><a xlink:href="f__pc__priority_8h.html" target="_top" xlink:title=" ">
<polygon fill="white" stroke="black" points="1448,-587 1448,-606 1552,-606 1552,-587 1448,-587"/>
<text text-anchor="middle" x="1500" y="-594" font-family="Helvetica,sans-Serif" font-size="10.00">f/f_pc/f_pc_priority.h</text>
</a>
</g>
</g>
<!-- Node25&#45;&gt;Node34 -->
<g id="edge74" class="edge">
<title>Node25&#45;&gt;Node34</title>
<path fill="none" stroke="midnightblue" d="M1297.81,-648.48C1339.52,-637.96 1410.51,-620.06 1456.31,-608.51"/>
<polygon fill="midnightblue" stroke="midnightblue" points="1457.41,-611.85 1466.25,-606.01 1455.7,-605.06 1457.41,-611.85"/>
</g>
<!-- Node36 -->
<g id="node36" class="node">
<title>Node36</title>
<g id="a_node36"><a xlink:href="f__pc__profile_8h.html" target="_top" xlink:title=" ">
<polygon fill="white" stroke="black" points="986.5,-319 986.5,-338 1087.5,-338 1087.5,-319 986.5,-319"/>
<text text-anchor="middle" x="1037" y="-326" font-family="Helvetica,sans-Serif" font-size="10.00">f/f_pc/f_pc_profile.h</text>
</a>
</g>
</g>
<!-- Node25&#45;&gt;Node36 -->
<g id="edge79" class="edge">
<title>Node25&#45;&gt;Node36</title>
<path fill="none" stroke="midnightblue" d="M1215.14,-653.5C1180.38,-648.79 1134.29,-637.76 1102,-612 1069.82,-586.33 1058,-571.66 1058,-530.5 1058,-530.5 1058,-530.5 1058,-461.5 1058,-420.47 1047.98,-373.14 1041.78,-347.79"/>
<polygon fill="midnightblue" stroke="midnightblue" points="1045.17,-346.91 1039.33,-338.07 1038.38,-348.63 1045.17,-346.91"/>
</g>
<!-- Node26&#45;&gt;Node11 -->
<g id="edge57" class="edge">
<title>Node26&#45;&gt;Node11</title>
<path fill="none" stroke="midnightblue" d="M1443.81,-453C1453.61,-443.79 1468.04,-428.11 1474,-411 1479.45,-395.34 1480.71,-329.82 1472,-313 1449.24,-269.03 1428.29,-266.01 1383,-246 1304.89,-211.48 1203.73,-200.53 1151.19,-197.07"/>
<polygon fill="midnightblue" stroke="midnightblue" points="1151.24,-193.57 1141.04,-196.46 1150.81,-200.56 1151.24,-193.57"/>
</g>
<!-- Node27 -->
<g id="node27" class="node">
<title>Node27</title>
<g id="a_node27"><a xlink:href="c__list_8h.html" target="_top" xlink:title=" ">
<polygon fill="white" stroke="black" points="1336.5,-319 1336.5,-338 1443.5,-338 1443.5,-319 1336.5,-319"/>
<text text-anchor="middle" x="1390" y="-326" font-family="Helvetica,sans-Serif" font-size="10.00">SComponent/c_list.h</text>
</a>
</g>
</g>
<!-- Node26&#45;&gt;Node27 -->
<g id="edge50" class="edge">
<title>Node26&#45;&gt;Node27</title>
<path fill="none" stroke="midnightblue" d="M1432.64,-452.75C1430.15,-437.61 1424.22,-405.71 1415,-380 1410.93,-368.65 1404.99,-356.53 1399.92,-347.01"/>
<polygon fill="midnightblue" stroke="midnightblue" points="1402.94,-345.25 1395.06,-338.17 1396.81,-348.62 1402.94,-345.25"/>
</g>
<!-- Node28 -->
<g id="node28" class="node">
<title>Node28</title>
<g id="a_node28"><a xlink:href="c__node_8h.html" target="_top" xlink:title=" ">
<polygon fill="white" stroke="black" points="1258.5,-252 1258.5,-271 1373.5,-271 1373.5,-252 1258.5,-252"/>
<text text-anchor="middle" x="1316" y="-259" font-family="Helvetica,sans-Serif" font-size="10.00">SComponent/c_node.h</text>
</a>
</g>
</g>
<!-- Node26&#45;&gt;Node28 -->
<g id="edge53" class="edge">
<title>Node26&#45;&gt;Node28</title>
<path fill="none" stroke="midnightblue" d="M1438.83,-452.83C1451.74,-428.34 1484.07,-357.56 1453,-313 1437.12,-290.23 1409.76,-277.7 1383.64,-270.81"/>
<polygon fill="midnightblue" stroke="midnightblue" points="1384.26,-267.36 1373.72,-268.44 1382.63,-274.17 1384.26,-267.36"/>
</g>
<!-- Node29 -->
<g id="node29" class="node">
<title>Node29</title>
<g id="a_node29"><a xlink:href="c__tree_8h.html" target="_top" xlink:title=" ">
<polygon fill="white" stroke="black" points="1296,-386 1296,-405 1406,-405 1406,-386 1296,-386"/>
<text text-anchor="middle" x="1351" y="-393" font-family="Helvetica,sans-Serif" font-size="10.00">SComponent/c_tree.h</text>
</a>
</g>
</g>
<!-- Node26&#45;&gt;Node29 -->
<g id="edge54" class="edge">
<title>Node26&#45;&gt;Node29</title>
<path fill="none" stroke="midnightblue" d="M1422.81,-452.73C1409.37,-442.21 1386.6,-424.38 1370.3,-411.62"/>
<polygon fill="midnightblue" stroke="midnightblue" points="1372.05,-408.54 1362.02,-405.13 1367.73,-414.05 1372.05,-408.54"/>
</g>
<!-- Node27&#45;&gt;Node28 -->
<g id="edge51" class="edge">
<title>Node27&#45;&gt;Node28</title>
<path fill="none" stroke="midnightblue" d="M1380.02,-318.73C1368.15,-308.31 1348.11,-290.71 1333.62,-277.97"/>
<polygon fill="midnightblue" stroke="midnightblue" points="1335.64,-275.1 1325.82,-271.13 1331.03,-280.36 1335.64,-275.1"/>
</g>
<!-- Node28&#45;&gt;Node11 -->
<g id="edge52" class="edge">
<title>Node28&#45;&gt;Node11</title>
<path fill="none" stroke="midnightblue" d="M1289.44,-251.87C1253.76,-240.27 1190.29,-219.64 1150.82,-206.82"/>
<polygon fill="midnightblue" stroke="midnightblue" points="1151.68,-203.42 1141.09,-203.65 1149.52,-210.07 1151.68,-203.42"/>
</g>
<!-- Node29&#45;&gt;Node27 -->
<g id="edge55" class="edge">
<title>Node29&#45;&gt;Node27</title>
<path fill="none" stroke="midnightblue" d="M1356.26,-385.73C1362.22,-375.79 1372.1,-359.34 1379.63,-346.79"/>
<polygon fill="midnightblue" stroke="midnightblue" points="1382.68,-348.5 1384.82,-338.13 1376.68,-344.9 1382.68,-348.5"/>
</g>
<!-- Node29&#45;&gt;Node28 -->
<g id="edge56" class="edge">
<title>Node29&#45;&gt;Node28</title>
<path fill="none" stroke="midnightblue" d="M1346.15,-385.85C1340.85,-376.02 1332.52,-359.34 1328,-344 1321.82,-323.05 1318.74,-298.08 1317.27,-281.35"/>
<polygon fill="midnightblue" stroke="midnightblue" points="1320.74,-280.94 1316.48,-271.24 1313.77,-281.48 1320.74,-280.94"/>
</g>
<!-- Node30&#45;&gt;Node11 -->
<g id="edge66" class="edge">
<title>Node30&#45;&gt;Node11</title>
<path fill="none" stroke="midnightblue" d="M1193.2,-581.46C1179.34,-557.99 1154,-508.86 1154,-463.5 1154,-463.5 1154,-463.5 1154,-327.5 1154,-285.35 1135.89,-238.48 1124.67,-213.5"/>
<polygon fill="midnightblue" stroke="midnightblue" points="1127.74,-211.81 1120.36,-204.21 1121.39,-214.76 1127.74,-211.81"/>
</g>
<!-- Node30&#45;&gt;Node26 -->
<g id="edge60" class="edge">
<title>Node30&#45;&gt;Node26</title>
<path fill="none" stroke="midnightblue" d="M1244.03,-581.45C1268.43,-572.52 1299.32,-559.85 1325,-545 1344.47,-533.74 1347.03,-527.53 1365,-514 1381.24,-501.76 1399.86,-488.16 1413.66,-478.16"/>
<polygon fill="midnightblue" stroke="midnightblue" points="1415.91,-480.86 1421.96,-472.16 1411.81,-475.18 1415.91,-480.86"/>
</g>
<!-- Node31 -->
<g id="node31" class="node">
<title>Node31</title>
<g id="a_node31"><a xlink:href="f__pc__layer_8h.html" target="_top" xlink:title=" ">
<polygon fill="white" stroke="black" points="1220,-520 1220,-539 1316,-539 1316,-520 1220,-520"/>
<text text-anchor="middle" x="1268" y="-527" font-family="Helvetica,sans-Serif" font-size="10.00">f/f_pc/f_pc_layer.h</text>
</a>
</g>
</g>
<!-- Node30&#45;&gt;Node31 -->
<g id="edge61" class="edge">
<title>Node30&#45;&gt;Node31</title>
<path fill="none" stroke="midnightblue" d="M1216.32,-581.4C1226.82,-571.06 1241.07,-557.02 1251.95,-546.31"/>
<polygon fill="midnightblue" stroke="midnightblue" points="1254.5,-548.71 1259.17,-539.19 1249.59,-543.72 1254.5,-548.71"/>
</g>
<!-- Node31&#45;&gt;Node11 -->
<g id="edge65" class="edge">
<title>Node31&#45;&gt;Node11</title>
<path fill="none" stroke="midnightblue" d="M1263.64,-519.79C1253.66,-499.01 1230,-444.67 1230,-396.5 1230,-396.5 1230,-396.5 1230,-327.5 1230,-289.74 1229.53,-275.53 1206,-246 1191.83,-228.22 1169.6,-215.66 1150.78,-207.51"/>
<polygon fill="midnightblue" stroke="midnightblue" points="1151.89,-204.19 1141.3,-203.65 1149.24,-210.67 1151.89,-204.19"/>
</g>
<!-- Node31&#45;&gt;Node26 -->
<g id="edge63" class="edge">
<title>Node31&#45;&gt;Node26</title>
<path fill="none" stroke="midnightblue" d="M1290.04,-519.87C1318.9,-508.57 1369.65,-488.7 1402.54,-475.82"/>
<polygon fill="midnightblue" stroke="midnightblue" points="1404.09,-478.97 1412.13,-472.06 1401.54,-472.45 1404.09,-478.97"/>
</g>
<!-- Node31&#45;&gt;Node28 -->
<g id="edge62" class="edge">
<title>Node31&#45;&gt;Node28</title>
<path fill="none" stroke="midnightblue" d="M1268.77,-519.74C1270.86,-496.72 1277.17,-432.63 1287,-380 1293.6,-344.68 1304.32,-304.11 1310.71,-281.07"/>
<polygon fill="midnightblue" stroke="midnightblue" points="1314.13,-281.84 1313.47,-271.27 1307.39,-279.95 1314.13,-281.84"/>
</g>
<!-- Node31&#45;&gt;Node29 -->
<g id="edge64" class="edge">
<title>Node31&#45;&gt;Node29</title>
<path fill="none" stroke="midnightblue" d="M1273.45,-519.84C1286.99,-498.3 1322.39,-442 1340.3,-413.52"/>
<polygon fill="midnightblue" stroke="midnightblue" points="1343.28,-415.35 1345.64,-405.02 1337.36,-411.62 1343.28,-415.35"/>
</g>
<!-- Node32&#45;&gt;Node11 -->
<g id="edge70" class="edge">
<title>Node32&#45;&gt;Node11</title>
<path fill="none" stroke="midnightblue" d="M1283.49,-586.93C1258.96,-579.75 1229.22,-567.01 1211,-545 1187.28,-516.35 1192,-500.69 1192,-463.5 1192,-463.5 1192,-463.5 1192,-327.5 1192,-280.19 1154.88,-234.54 1132.53,-211.33"/>
<polygon fill="midnightblue" stroke="midnightblue" points="1134.86,-208.71 1125.32,-204.09 1129.89,-213.65 1134.86,-208.71"/>
</g>
<!-- Node32&#45;&gt;Node26 -->
<g id="edge68" class="edge">
<title>Node32&#45;&gt;Node26</title>
<path fill="none" stroke="midnightblue" d="M1332.15,-586.84C1350.09,-565.11 1397.24,-508.02 1420.55,-479.79"/>
<polygon fill="midnightblue" stroke="midnightblue" points="1423.3,-481.96 1426.96,-472.02 1417.9,-477.5 1423.3,-481.96"/>
</g>
<!-- Node32&#45;&gt;Node31 -->
<g id="edge69" class="edge">
<title>Node32&#45;&gt;Node31</title>
<path fill="none" stroke="midnightblue" d="M1317.31,-586.73C1308.34,-576.5 1293.31,-559.36 1282.2,-546.69"/>
<polygon fill="midnightblue" stroke="midnightblue" points="1284.79,-544.34 1275.57,-539.13 1279.53,-548.95 1284.79,-544.34"/>
</g>
<!-- Node33&#45;&gt;Node11 -->
<g id="edge73" class="edge">
<title>Node33&#45;&gt;Node11</title>
<path fill="none" stroke="midnightblue" d="M1651.8,-519.88C1631.78,-500.13 1586,-449.21 1586,-396.5 1586,-396.5 1586,-396.5 1586,-327.5 1586,-268.43 1535.44,-268.94 1481,-246 1421.76,-221.04 1230.58,-204.15 1151.13,-198.04"/>
<polygon fill="midnightblue" stroke="midnightblue" points="1151.36,-194.54 1141.12,-197.28 1150.83,-201.52 1151.36,-194.54"/>
</g>
<!-- Node33&#45;&gt;Node26 -->
<g id="edge72" class="edge">
<title>Node33&#45;&gt;Node26</title>
<path fill="none" stroke="midnightblue" d="M1630.86,-519.87C1590.38,-508.28 1518.38,-487.66 1473.58,-474.83"/>
<polygon fill="midnightblue" stroke="midnightblue" points="1474.48,-471.45 1463.91,-472.06 1472.56,-478.18 1474.48,-471.45"/>
</g>
<!-- Node34&#45;&gt;Node26 -->
<g id="edge75" class="edge">
<title>Node34&#45;&gt;Node26</title>
<path fill="none" stroke="midnightblue" d="M1495.67,-586.84C1484.99,-565.49 1457.24,-509.98 1442.89,-481.27"/>
<polygon fill="midnightblue" stroke="midnightblue" points="1445.86,-479.4 1438.26,-472.02 1439.6,-482.53 1445.86,-479.4"/>
</g>
<!-- Node35 -->
<g id="node35" class="node">
<title>Node35</title>
<g id="a_node35"><a xlink:href="f__pc__method__tag_8h.html" target="_top" xlink:title=" ">
<polygon fill="white" stroke="black" points="1486.5,-514.5 1486.5,-544.5 1587.5,-544.5 1587.5,-514.5 1486.5,-514.5"/>
<text text-anchor="start" x="1494.5" y="-532.5" font-family="Helvetica,sans-Serif" font-size="10.00">f/f_pc/f_pc_method</text>
<text text-anchor="middle" x="1537" y="-521.5" font-family="Helvetica,sans-Serif" font-size="10.00">_tag.h</text>
</a>
</g>
</g>
<!-- Node34&#45;&gt;Node35 -->
<g id="edge76" class="edge">
<title>Node34&#45;&gt;Node35</title>
<path fill="none" stroke="midnightblue" d="M1504.99,-586.73C1509.85,-578.2 1517.43,-564.87 1524,-553.33"/>
<polygon fill="midnightblue" stroke="midnightblue" points="1527.07,-555.01 1528.98,-544.59 1520.99,-551.55 1527.07,-555.01"/>
</g>
<!-- Node35&#45;&gt;Node11 -->
<g id="edge78" class="edge">
<title>Node35&#45;&gt;Node11</title>
<path fill="none" stroke="midnightblue" d="M1538.97,-514.27C1542.13,-490.11 1548,-439.5 1548,-396.5 1548,-396.5 1548,-396.5 1548,-327.5 1548,-244.75 1254.44,-208.73 1151.31,-198.63"/>
<polygon fill="midnightblue" stroke="midnightblue" points="1151.38,-195.12 1141.09,-197.65 1150.72,-202.09 1151.38,-195.12"/>
</g>
<!-- Node35&#45;&gt;Node26 -->
<g id="edge77" class="edge">
<title>Node35&#45;&gt;Node26</title>
<path fill="none" stroke="midnightblue" d="M1514.65,-514.4C1497.38,-503.5 1473.58,-488.48 1456.32,-477.58"/>
<polygon fill="midnightblue" stroke="midnightblue" points="1457.81,-474.38 1447.48,-472.01 1454.07,-480.3 1457.81,-474.38"/>
</g>
<!-- Node36&#45;&gt;Node11 -->
<g id="edge82" class="edge">
<title>Node36&#45;&gt;Node11</title>
<path fill="none" stroke="midnightblue" d="M1042.18,-318.84C1055.02,-297.39 1088.48,-241.49 1105.59,-212.9"/>
<polygon fill="midnightblue" stroke="midnightblue" points="1108.77,-214.4 1110.9,-204.02 1102.76,-210.8 1108.77,-214.4"/>
</g>
<!-- Node37 -->
<g id="node37" class="node">
<title>Node37</title>
<g id="a_node37"><a xlink:href="f__pc__method_8h.html" target="_top" xlink:title=" ">
<polygon fill="white" stroke="black" points="942,-252 942,-271 1050,-271 1050,-252 942,-252"/>
<text text-anchor="middle" x="996" y="-259" font-family="Helvetica,sans-Serif" font-size="10.00">f/f_pc/f_pc_method.h</text>
</a>
</g>
</g>
<!-- Node36&#45;&gt;Node37 -->
<g id="edge80" class="edge">
<title>Node36&#45;&gt;Node37</title>
<path fill="none" stroke="midnightblue" d="M1031.47,-318.73C1025.2,-308.79 1014.82,-292.34 1006.91,-279.79"/>
<polygon fill="midnightblue" stroke="midnightblue" points="1009.74,-277.72 1001.44,-271.13 1003.82,-281.45 1009.74,-277.72"/>
</g>
<!-- Node37&#45;&gt;Node11 -->
<g id="edge81" class="edge">
<title>Node37&#45;&gt;Node11</title>
<path fill="none" stroke="midnightblue" d="M1012.18,-251.73C1032.43,-240.77 1067.3,-221.88 1090.99,-209.05"/>
<polygon fill="midnightblue" stroke="midnightblue" points="1092.95,-211.97 1100.07,-204.13 1089.61,-205.81 1092.95,-211.97"/>
</g>
</g>
</svg>
