<?xml version="1.0" encoding="UTF-8" standalone="no"?>
<!DOCTYPE svg PUBLIC "-//W3C//DTD SVG 1.1//EN"
 "http://www.w3.org/Graphics/SVG/1.1/DTD/svg11.dtd">
<!-- Generated by graphviz version 2.44.0 ()
 -->
<!-- Title: include/d/d_particle/d_particle_copoly.h Pages: 1 -->
<svg width="1090pt" height="598pt"
 viewBox="0.00 0.00 1090.00 598.00" xmlns="http://www.w3.org/2000/svg" xmlns:xlink="http://www.w3.org/1999/xlink">
<g id="graph0" class="graph" transform="scale(1 1) rotate(0) translate(4 594)">
<title>include/d/d_particle/d_particle_copoly.h</title>
<polygon fill="white" stroke="transparent" points="-4,4 -4,-594 1086,-594 1086,4 -4,4"/>
<!-- Node1 -->
<g id="node1" class="node">
<title>Node1</title>
<g id="a_node1"><a xlink:title=" ">
<polygon fill="#bfbfbf" stroke="black" points="688,-559.5 688,-589.5 790,-589.5 790,-559.5 688,-559.5"/>
<text text-anchor="start" x="696" y="-577.5" font-family="Helvetica,sans-Serif" font-size="10.00">include/d/d_particle</text>
<text text-anchor="middle" x="739" y="-566.5" font-family="Helvetica,sans-Serif" font-size="10.00">/d_particle_copoly.h</text>
</a>
</g>
</g>
<!-- Node2 -->
<g id="node2" class="node">
<title>Node2</title>
<g id="a_node2"><a xlink:href="d__bg__s__acch_8h.html" target="_top" xlink:title=" ">
<polygon fill="white" stroke="black" points="400,-492.5 400,-522.5 504,-522.5 504,-492.5 400,-492.5"/>
<text text-anchor="start" x="408" y="-510.5" font-family="Helvetica,sans-Serif" font-size="10.00">d/d_bg/d_bg_s/d_bg</text>
<text text-anchor="middle" x="452" y="-499.5" font-family="Helvetica,sans-Serif" font-size="10.00">_s_acch.h</text>
</a>
</g>
</g>
<!-- Node1&#45;&gt;Node2 -->
<g id="edge1" class="edge">
<title>Node1&#45;&gt;Node2</title>
<path fill="none" stroke="midnightblue" d="M687.69,-561.88C639.07,-550.87 565.96,-534.31 514.07,-522.56"/>
<polygon fill="midnightblue" stroke="midnightblue" points="514.85,-519.14 504.32,-520.35 513.3,-525.97 514.85,-519.14"/>
</g>
<!-- Node5 -->
<g id="node5" class="node">
<title>Node5</title>
<g id="a_node5"><a xlink:href="types_8h.html" target="_top" xlink:title=" ">
<polygon fill="white" stroke="black" points="518.5,-0.5 518.5,-19.5 599.5,-19.5 599.5,-0.5 518.5,-0.5"/>
<text text-anchor="middle" x="559" y="-7.5" font-family="Helvetica,sans-Serif" font-size="10.00">dolphin/types.h</text>
</a>
</g>
</g>
<!-- Node1&#45;&gt;Node5 -->
<g id="edge59" class="edge">
<title>Node1&#45;&gt;Node5</title>
<path fill="none" stroke="midnightblue" d="M790.35,-564.78C886.04,-547.06 1082,-503.23 1082,-441.5 1082,-441.5 1082,-441.5 1082,-121 1082,-25.13 741.19,-12.36 609.81,-11"/>
<polygon fill="midnightblue" stroke="midnightblue" points="609.63,-7.5 599.6,-10.91 609.57,-14.5 609.63,-7.5"/>
</g>
<!-- Node3 -->
<g id="node3" class="node">
<title>Node3</title>
<g id="a_node3"><a xlink:href="c__bg__s__poly__info_8h.html" target="_top" xlink:title=" ">
<polygon fill="white" stroke="black" points="572,-291.5 572,-321.5 702,-321.5 702,-291.5 572,-291.5"/>
<text text-anchor="start" x="580" y="-309.5" font-family="Helvetica,sans-Serif" font-size="10.00">SComponent/c_bg_s_poly</text>
<text text-anchor="middle" x="637" y="-298.5" font-family="Helvetica,sans-Serif" font-size="10.00">_info.h</text>
</a>
</g>
</g>
<!-- Node2&#45;&gt;Node3 -->
<g id="edge2" class="edge">
<title>Node2&#45;&gt;Node3</title>
<path fill="none" stroke="midnightblue" d="M504.11,-502.32C564.2,-496.3 657.5,-482.81 679,-456 686.37,-446.81 687.33,-388.93 676,-358 672.23,-347.7 665.54,-337.82 658.76,-329.57"/>
<polygon fill="midnightblue" stroke="midnightblue" points="661.27,-327.12 652.05,-321.9 656,-331.73 661.27,-327.12"/>
</g>
<!-- Node4 -->
<g id="node4" class="node">
<title>Node4</title>
<g id="a_node4"><a xlink:href="global_8h.html" target="_top" xlink:title=" ">
<polygon fill="white" stroke="black" points="481,-168.5 481,-187.5 531,-187.5 531,-168.5 481,-168.5"/>
<text text-anchor="middle" x="506" y="-175.5" font-family="Helvetica,sans-Serif" font-size="10.00">global.h</text>
</a>
</g>
</g>
<!-- Node2&#45;&gt;Node4 -->
<g id="edge58" class="edge">
<title>Node2&#45;&gt;Node4</title>
<path fill="none" stroke="midnightblue" d="M399.71,-502.34C280.73,-491.43 0,-456.97 0,-374.5 0,-374.5 0,-374.5 0,-305.5 0,-208.25 356.22,-185.14 470.89,-180.22"/>
<polygon fill="midnightblue" stroke="midnightblue" points="471.06,-183.71 480.91,-179.81 470.77,-176.72 471.06,-183.71"/>
</g>
<!-- Node11 -->
<g id="node11" class="node">
<title>Node11</title>
<g id="a_node11"><a xlink:href="c__m3d__g__cir_8h.html" target="_top" xlink:title=" ">
<polygon fill="white" stroke="black" points="177,-425.5 177,-455.5 293,-455.5 293,-425.5 177,-425.5"/>
<text text-anchor="start" x="185" y="-443.5" font-family="Helvetica,sans-Serif" font-size="10.00">SComponent/c_m3d_g</text>
<text text-anchor="middle" x="235" y="-432.5" font-family="Helvetica,sans-Serif" font-size="10.00">_cir.h</text>
</a>
</g>
</g>
<!-- Node2&#45;&gt;Node11 -->
<g id="edge14" class="edge">
<title>Node2&#45;&gt;Node11</title>
<path fill="none" stroke="midnightblue" d="M405.18,-492.48C371.93,-482.51 327.1,-469.09 291.8,-458.51"/>
<polygon fill="midnightblue" stroke="midnightblue" points="292.69,-455.13 282.11,-455.61 290.68,-461.83 292.69,-455.13"/>
</g>
<!-- Node12 -->
<g id="node12" class="node">
<title>Node12</title>
<g id="a_node12"><a xlink:href="c__m3d__g__cyl_8h.html" target="_top" xlink:title=" ">
<polygon fill="white" stroke="black" points="200,-358.5 200,-388.5 316,-388.5 316,-358.5 200,-358.5"/>
<text text-anchor="start" x="208" y="-376.5" font-family="Helvetica,sans-Serif" font-size="10.00">SComponent/c_m3d_g</text>
<text text-anchor="middle" x="258" y="-365.5" font-family="Helvetica,sans-Serif" font-size="10.00">_cyl.h</text>
</a>
</g>
</g>
<!-- Node2&#45;&gt;Node12 -->
<g id="edge16" class="edge">
<title>Node2&#45;&gt;Node12</title>
<path fill="none" stroke="midnightblue" d="M431.24,-492.37C396.52,-468.75 326.62,-421.19 287.04,-394.26"/>
<polygon fill="midnightblue" stroke="midnightblue" points="288.85,-391.26 278.61,-388.52 284.91,-397.04 288.85,-391.26"/>
</g>
<!-- Node16 -->
<g id="node16" class="node">
<title>Node16</title>
<g id="a_node16"><a xlink:href="c__m3d__g__lin_8h.html" target="_top" xlink:title=" ">
<polygon fill="white" stroke="black" points="334,-358.5 334,-388.5 450,-388.5 450,-358.5 334,-358.5"/>
<text text-anchor="start" x="342" y="-376.5" font-family="Helvetica,sans-Serif" font-size="10.00">SComponent/c_m3d_g</text>
<text text-anchor="middle" x="392" y="-365.5" font-family="Helvetica,sans-Serif" font-size="10.00">_lin.h</text>
</a>
</g>
</g>
<!-- Node2&#45;&gt;Node16 -->
<g id="edge24" class="edge">
<title>Node2&#45;&gt;Node16</title>
<path fill="none" stroke="midnightblue" d="M445.58,-492.37C435.29,-469.75 415.02,-425.14 402.57,-397.76"/>
<polygon fill="midnightblue" stroke="midnightblue" points="405.7,-396.18 398.37,-388.52 399.33,-399.08 405.7,-396.18"/>
</g>
<!-- Node17 -->
<g id="node17" class="node">
<title>Node17</title>
<g id="a_node17"><a xlink:href="c__m3d__g__pla_8h.html" target="_top" xlink:title=" ">
<polygon fill="white" stroke="black" points="28,-358.5 28,-388.5 144,-388.5 144,-358.5 28,-358.5"/>
<text text-anchor="start" x="36" y="-376.5" font-family="Helvetica,sans-Serif" font-size="10.00">SComponent/c_m3d_g</text>
<text text-anchor="middle" x="86" y="-365.5" font-family="Helvetica,sans-Serif" font-size="10.00">_pla.h</text>
</a>
</g>
</g>
<!-- Node2&#45;&gt;Node17 -->
<g id="edge27" class="edge">
<title>Node2&#45;&gt;Node17</title>
<path fill="none" stroke="midnightblue" d="M399.8,-506.41C340.46,-504.3 242.21,-494.56 168,-456 140.82,-441.88 116.9,-415.62 102.02,-396.73"/>
<polygon fill="midnightblue" stroke="midnightblue" points="104.69,-394.45 95.83,-388.63 99.12,-398.7 104.69,-394.45"/>
</g>
<!-- Node18 -->
<g id="node18" class="node">
<title>Node18</title>
<g id="a_node18"><a xlink:href="d__bg__s__gnd__chk_8h.html" target="_top" xlink:title=" ">
<polygon fill="white" stroke="black" points="440,-425.5 440,-455.5 544,-455.5 544,-425.5 440,-425.5"/>
<text text-anchor="start" x="448" y="-443.5" font-family="Helvetica,sans-Serif" font-size="10.00">d/d_bg/d_bg_s/d_bg</text>
<text text-anchor="middle" x="492" y="-432.5" font-family="Helvetica,sans-Serif" font-size="10.00">_s_gnd_chk.h</text>
</a>
</g>
</g>
<!-- Node2&#45;&gt;Node18 -->
<g id="edge30" class="edge">
<title>Node2&#45;&gt;Node18</title>
<path fill="none" stroke="midnightblue" d="M460.68,-492.4C465.76,-484.13 472.3,-473.51 478.09,-464.1"/>
<polygon fill="midnightblue" stroke="midnightblue" points="481.08,-465.93 483.34,-455.58 475.12,-462.26 481.08,-465.93"/>
</g>
<!-- Node24 -->
<g id="node24" class="node">
<title>Node24</title>
<g id="a_node24"><a xlink:href="d__bg__s__roof__chk_8h.html" target="_top" xlink:title=" ">
<polygon fill="white" stroke="black" points="566,-425.5 566,-455.5 670,-455.5 670,-425.5 566,-425.5"/>
<text text-anchor="start" x="574" y="-443.5" font-family="Helvetica,sans-Serif" font-size="10.00">d/d_bg/d_bg_s/d_bg</text>
<text text-anchor="middle" x="618" y="-432.5" font-family="Helvetica,sans-Serif" font-size="10.00">_s_roof_chk.h</text>
</a>
</g>
</g>
<!-- Node2&#45;&gt;Node24 -->
<g id="edge46" class="edge">
<title>Node2&#45;&gt;Node24</title>
<path fill="none" stroke="midnightblue" d="M488.02,-492.4C512.82,-482.69 545.96,-469.71 572.57,-459.29"/>
<polygon fill="midnightblue" stroke="midnightblue" points="574.02,-462.48 582.05,-455.58 571.46,-455.96 574.02,-462.48"/>
</g>
<!-- Node25 -->
<g id="node25" class="node">
<title>Node25</title>
<g id="a_node25"><a xlink:href="d__bg__s__wtr__chk_8h.html" target="_top" xlink:title=" ">
<polygon fill="white" stroke="black" points="728,-425.5 728,-455.5 832,-455.5 832,-425.5 728,-425.5"/>
<text text-anchor="start" x="736" y="-443.5" font-family="Helvetica,sans-Serif" font-size="10.00">d/d_bg/d_bg_s/d_bg</text>
<text text-anchor="middle" x="780" y="-432.5" font-family="Helvetica,sans-Serif" font-size="10.00">_s_wtr_chk.h</text>
</a>
</g>
</g>
<!-- Node2&#45;&gt;Node25 -->
<g id="edge50" class="edge">
<title>Node2&#45;&gt;Node25</title>
<path fill="none" stroke="midnightblue" d="M504.27,-496.84C557.21,-486.95 641.41,-470.97 714,-456 715.26,-455.74 716.53,-455.48 717.82,-455.21"/>
<polygon fill="midnightblue" stroke="midnightblue" points="718.73,-458.59 727.79,-453.1 717.28,-451.74 718.73,-458.59"/>
</g>
<!-- Node3&#45;&gt;Node4 -->
<g id="edge3" class="edge">
<title>Node3&#45;&gt;Node4</title>
<path fill="none" stroke="midnightblue" d="M623.94,-291.29C608.56,-274.73 582.06,-246.74 558,-224 547.15,-213.75 534.5,-202.78 524.39,-194.24"/>
<polygon fill="midnightblue" stroke="midnightblue" points="526.51,-191.44 516.6,-187.7 522.01,-196.81 526.51,-191.44"/>
</g>
<!-- Node4&#45;&gt;Node5 -->
<g id="edge4" class="edge">
<title>Node4&#45;&gt;Node5</title>
<path fill="none" stroke="midnightblue" d="M506.07,-168.41C506.51,-148.06 509.32,-95.64 526,-56 530.36,-45.64 537.55,-35.43 544.1,-27.35"/>
<polygon fill="midnightblue" stroke="midnightblue" points="546.96,-29.4 550.8,-19.53 541.64,-24.85 546.96,-29.4"/>
</g>
<!-- Node6 -->
<g id="node6" class="node">
<title>Node6</title>
<g id="a_node6"><a xlink:href="AR_8h.html" target="_top" xlink:title=" ">
<polygon fill="white" stroke="black" points="534.5,-56.5 534.5,-75.5 583.5,-75.5 583.5,-56.5 534.5,-56.5"/>
<text text-anchor="middle" x="559" y="-63.5" font-family="Helvetica,sans-Serif" font-size="10.00">ar/AR.h</text>
</a>
</g>
</g>
<!-- Node4&#45;&gt;Node6 -->
<g id="edge5" class="edge">
<title>Node4&#45;&gt;Node6</title>
<path fill="none" stroke="midnightblue" d="M510.16,-168.37C518.83,-150.38 538.98,-108.55 550.51,-84.63"/>
<polygon fill="midnightblue" stroke="midnightblue" points="553.67,-86.12 554.86,-75.59 547.37,-83.08 553.67,-86.12"/>
</g>
<!-- Node7 -->
<g id="node7" class="node">
<title>Node7</title>
<g id="a_node7"><a xlink:href="ARQ_8h.html" target="_top" xlink:title=" ">
<polygon fill="white" stroke="black" points="602,-56.5 602,-75.5 658,-75.5 658,-56.5 602,-56.5"/>
<text text-anchor="middle" x="630" y="-63.5" font-family="Helvetica,sans-Serif" font-size="10.00">ar/ARQ.h</text>
</a>
</g>
</g>
<!-- Node4&#45;&gt;Node7 -->
<g id="edge7" class="edge">
<title>Node4&#45;&gt;Node7</title>
<path fill="none" stroke="midnightblue" d="M515.73,-168.37C536.65,-149.81 586.13,-105.91 612.6,-82.44"/>
<polygon fill="midnightblue" stroke="midnightblue" points="615.16,-84.85 620.32,-75.59 610.51,-79.61 615.16,-84.85"/>
</g>
<!-- Node8 -->
<g id="node8" class="node">
<title>Node8</title>
<g id="a_node8"><a xlink:href="mwcc_8h.html" target="_top" xlink:title=" ">
<polygon fill="white" stroke="black" points="610,-112.5 610,-131.5 660,-131.5 660,-112.5 610,-112.5"/>
<text text-anchor="middle" x="635" y="-119.5" font-family="Helvetica,sans-Serif" font-size="10.00">mwcc.h</text>
</a>
</g>
</g>
<!-- Node4&#45;&gt;Node8 -->
<g id="edge9" class="edge">
<title>Node4&#45;&gt;Node8</title>
<path fill="none" stroke="midnightblue" d="M526.44,-168.44C547.67,-159.56 581.1,-145.56 605.25,-135.45"/>
<polygon fill="midnightblue" stroke="midnightblue" points="606.78,-138.61 614.66,-131.52 604.08,-132.15 606.78,-138.61"/>
</g>
<!-- Node9 -->
<g id="node9" class="node">
<title>Node9</title>
<g id="a_node9"><a xlink:href="OS_8h.html" target="_top" xlink:title=" ">
<polygon fill="white" stroke="black" points="422,-112.5 422,-131.5 474,-131.5 474,-112.5 422,-112.5"/>
<text text-anchor="middle" x="448" y="-119.5" font-family="Helvetica,sans-Serif" font-size="10.00">os/OS.h</text>
</a>
</g>
</g>
<!-- Node4&#45;&gt;Node9 -->
<g id="edge10" class="edge">
<title>Node4&#45;&gt;Node9</title>
<path fill="none" stroke="midnightblue" d="M496.68,-168.32C488.11,-160.34 475.19,-148.31 464.81,-138.65"/>
<polygon fill="midnightblue" stroke="midnightblue" points="467.19,-136.09 457.49,-131.83 462.42,-141.21 467.19,-136.09"/>
</g>
<!-- Node6&#45;&gt;Node5 -->
<g id="edge6" class="edge">
<title>Node6&#45;&gt;Node5</title>
<path fill="none" stroke="midnightblue" d="M559,-56.08C559,-49.01 559,-38.86 559,-29.99"/>
<polygon fill="midnightblue" stroke="midnightblue" points="562.5,-29.75 559,-19.75 555.5,-29.75 562.5,-29.75"/>
</g>
<!-- Node7&#45;&gt;Node5 -->
<g id="edge8" class="edge">
<title>Node7&#45;&gt;Node5</title>
<path fill="none" stroke="midnightblue" d="M618.59,-56.32C607.89,-48.18 591.66,-35.84 578.84,-26.09"/>
<polygon fill="midnightblue" stroke="midnightblue" points="580.69,-23.1 570.61,-19.83 576.46,-28.67 580.69,-23.1"/>
</g>
<!-- Node9&#45;&gt;Node5 -->
<g id="edge11" class="edge">
<title>Node9&#45;&gt;Node5</title>
<path fill="none" stroke="midnightblue" d="M436.49,-112.42C420.73,-99.62 395.89,-75 410,-56 432.41,-25.82 474.46,-15.15 508.19,-11.7"/>
<polygon fill="midnightblue" stroke="midnightblue" points="508.69,-15.17 518.36,-10.85 508.1,-8.2 508.69,-15.17"/>
</g>
<!-- Node10 -->
<g id="node10" class="node">
<title>Node10</title>
<g id="a_node10"><a xlink:href="dvd_8h.html" target="_top" xlink:title=" ">
<polygon fill="white" stroke="black" points="418.5,-56.5 418.5,-75.5 477.5,-75.5 477.5,-56.5 418.5,-56.5"/>
<text text-anchor="middle" x="448" y="-63.5" font-family="Helvetica,sans-Serif" font-size="10.00">dvd/dvd.h</text>
</a>
</g>
</g>
<!-- Node9&#45;&gt;Node10 -->
<g id="edge12" class="edge">
<title>Node9&#45;&gt;Node10</title>
<path fill="none" stroke="midnightblue" d="M448,-112.08C448,-105.01 448,-94.86 448,-85.99"/>
<polygon fill="midnightblue" stroke="midnightblue" points="451.5,-85.75 448,-75.75 444.5,-85.75 451.5,-85.75"/>
</g>
<!-- Node10&#45;&gt;Node5 -->
<g id="edge13" class="edge">
<title>Node10&#45;&gt;Node5</title>
<path fill="none" stroke="midnightblue" d="M465.83,-56.32C483.72,-47.62 511.48,-34.12 532.05,-24.11"/>
<polygon fill="midnightblue" stroke="midnightblue" points="533.75,-27.18 541.21,-19.65 530.69,-20.88 533.75,-27.18"/>
</g>
<!-- Node11&#45;&gt;Node4 -->
<g id="edge15" class="edge">
<title>Node11&#45;&gt;Node4</title>
<path fill="none" stroke="midnightblue" d="M217.37,-425.13C207.57,-415.96 196.3,-403.16 191,-389 168.47,-328.84 219.29,-245.44 246,-224 280.11,-196.62 407.99,-185.05 470.78,-180.94"/>
<polygon fill="midnightblue" stroke="midnightblue" points="471.23,-184.42 480.99,-180.3 470.79,-177.43 471.23,-184.42"/>
</g>
<!-- Node12&#45;&gt;Node4 -->
<g id="edge23" class="edge">
<title>Node12&#45;&gt;Node4</title>
<path fill="none" stroke="midnightblue" d="M253.76,-358.48C245.91,-329.31 232.8,-261.68 267,-224 293.77,-194.51 410.9,-184.04 470.66,-180.58"/>
<polygon fill="midnightblue" stroke="midnightblue" points="470.97,-184.07 480.77,-180.03 470.59,-177.08 470.97,-184.07"/>
</g>
<!-- Node13 -->
<g id="node13" class="node">
<title>Node13</title>
<g id="a_node13"><a xlink:href="c__xyz_8h.html" target="_top" xlink:title=" ">
<polygon fill="white" stroke="black" points="269.5,-297 269.5,-316 376.5,-316 376.5,-297 269.5,-297"/>
<text text-anchor="middle" x="323" y="-304" font-family="Helvetica,sans-Serif" font-size="10.00">SComponent/c_xyz.h</text>
</a>
</g>
</g>
<!-- Node12&#45;&gt;Node13 -->
<g id="edge17" class="edge">
<title>Node12&#45;&gt;Node13</title>
<path fill="none" stroke="midnightblue" d="M272.1,-358.4C282.44,-348.06 296.48,-334.02 307.19,-323.31"/>
<polygon fill="midnightblue" stroke="midnightblue" points="309.71,-325.74 314.31,-316.19 304.76,-320.79 309.71,-325.74"/>
</g>
<!-- Node13&#45;&gt;Node4 -->
<g id="edge20" class="edge">
<title>Node13&#45;&gt;Node4</title>
<path fill="none" stroke="midnightblue" d="M311.49,-296.8C292.23,-281.19 257.39,-247.84 277,-224 301.11,-194.69 412.57,-184.18 470.62,-180.65"/>
<polygon fill="midnightblue" stroke="midnightblue" points="471.02,-184.13 480.81,-180.07 470.62,-177.14 471.02,-184.13"/>
</g>
<!-- Node14 -->
<g id="node14" class="node">
<title>Node14</title>
<g id="a_node14"><a xlink:href="c__math_8h.html" target="_top" xlink:title=" ">
<polygon fill="white" stroke="black" points="286,-230 286,-249 402,-249 402,-230 286,-230"/>
<text text-anchor="middle" x="344" y="-237" font-family="Helvetica,sans-Serif" font-size="10.00">SComponent/c_math.h</text>
</a>
</g>
</g>
<!-- Node13&#45;&gt;Node14 -->
<g id="edge18" class="edge">
<title>Node13&#45;&gt;Node14</title>
<path fill="none" stroke="midnightblue" d="M325.83,-296.73C328.95,-287.09 334.05,-271.3 338.05,-258.91"/>
<polygon fill="midnightblue" stroke="midnightblue" points="341.47,-259.72 341.21,-249.13 334.81,-257.57 341.47,-259.72"/>
</g>
<!-- Node15 -->
<g id="node15" class="node">
<title>Node15</title>
<g id="a_node15"><a xlink:href="mtx__vec_8h.html" target="_top" xlink:title=" ">
<polygon fill="white" stroke="black" points="129.5,-168.5 129.5,-187.5 190.5,-187.5 190.5,-168.5 129.5,-168.5"/>
<text text-anchor="middle" x="160" y="-175.5" font-family="Helvetica,sans-Serif" font-size="10.00">mtx_vec.h</text>
</a>
</g>
</g>
<!-- Node13&#45;&gt;Node15 -->
<g id="edge21" class="edge">
<title>Node13&#45;&gt;Node15</title>
<path fill="none" stroke="midnightblue" d="M307.95,-296.9C291.67,-287.37 265.22,-271.2 244,-255 219.01,-235.92 192.48,-211.04 176.08,-195.04"/>
<polygon fill="midnightblue" stroke="midnightblue" points="178.47,-192.48 168.89,-187.96 173.56,-197.47 178.47,-192.48"/>
</g>
<!-- Node14&#45;&gt;Node4 -->
<g id="edge19" class="edge">
<title>Node14&#45;&gt;Node4</title>
<path fill="none" stroke="midnightblue" d="M367.21,-229.98C395,-219.77 441.72,-202.61 473.19,-191.05"/>
<polygon fill="midnightblue" stroke="midnightblue" points="474.65,-194.24 482.83,-187.51 472.24,-187.67 474.65,-194.24"/>
</g>
<!-- Node15&#45;&gt;Node5 -->
<g id="edge22" class="edge">
<title>Node15&#45;&gt;Node5</title>
<path fill="none" stroke="midnightblue" d="M174.5,-168.5C211.32,-147.19 311.78,-90.75 401,-56 437.33,-41.85 479.92,-29.98 511.72,-21.99"/>
<polygon fill="midnightblue" stroke="midnightblue" points="512.77,-25.33 521.64,-19.53 511.09,-18.54 512.77,-25.33"/>
</g>
<!-- Node16&#45;&gt;Node4 -->
<g id="edge26" class="edge">
<title>Node16&#45;&gt;Node4</title>
<path fill="none" stroke="midnightblue" d="M395.56,-358.31C403,-330.55 422.22,-267.91 454,-224 462.42,-212.36 474.41,-201.73 484.76,-193.72"/>
<polygon fill="midnightblue" stroke="midnightblue" points="487,-196.41 492.95,-187.65 482.83,-190.79 487,-196.41"/>
</g>
<!-- Node16&#45;&gt;Node13 -->
<g id="edge25" class="edge">
<title>Node16&#45;&gt;Node13</title>
<path fill="none" stroke="midnightblue" d="M377.03,-358.4C366.06,-348.06 351.16,-334.02 339.78,-323.31"/>
<polygon fill="midnightblue" stroke="midnightblue" points="341.91,-320.5 332.23,-316.19 337.11,-325.6 341.91,-320.5"/>
</g>
<!-- Node17&#45;&gt;Node4 -->
<g id="edge29" class="edge">
<title>Node17&#45;&gt;Node4</title>
<path fill="none" stroke="midnightblue" d="M88.32,-358.19C94.07,-327.85 111.96,-257.15 158,-224 207.46,-188.39 392.2,-180.96 470.53,-179.41"/>
<polygon fill="midnightblue" stroke="midnightblue" points="470.92,-182.9 480.85,-179.22 470.79,-175.9 470.92,-182.9"/>
</g>
<!-- Node17&#45;&gt;Node13 -->
<g id="edge28" class="edge">
<title>Node17&#45;&gt;Node13</title>
<path fill="none" stroke="midnightblue" d="M137.13,-358.48C180.54,-346.57 242,-329.72 282.17,-318.7"/>
<polygon fill="midnightblue" stroke="midnightblue" points="283.19,-322.05 291.9,-316.03 281.33,-315.3 283.19,-322.05"/>
</g>
<!-- Node18&#45;&gt;Node4 -->
<g id="edge45" class="edge">
<title>Node18&#45;&gt;Node4</title>
<path fill="none" stroke="midnightblue" d="M492.64,-425.38C494.23,-390.94 498.53,-299.92 503,-224 503.51,-215.39 504.13,-205.87 504.68,-197.8"/>
<polygon fill="midnightblue" stroke="midnightblue" points="508.19,-197.84 505.39,-187.62 501.2,-197.36 508.19,-197.84"/>
</g>
<!-- Node19 -->
<g id="node19" class="node">
<title>Node19</title>
<g id="a_node19"><a xlink:href="c__bg__s__gnd__chk_8h.html" target="_top" xlink:title=" ">
<polygon fill="white" stroke="black" points="506,-358.5 506,-388.5 634,-388.5 634,-358.5 506,-358.5"/>
<text text-anchor="start" x="514" y="-376.5" font-family="Helvetica,sans-Serif" font-size="10.00">SComponent/c_bg_s_gnd</text>
<text text-anchor="middle" x="570" y="-365.5" font-family="Helvetica,sans-Serif" font-size="10.00">_chk.h</text>
</a>
</g>
</g>
<!-- Node18&#45;&gt;Node19 -->
<g id="edge31" class="edge">
<title>Node18&#45;&gt;Node19</title>
<path fill="none" stroke="midnightblue" d="M508.92,-425.4C519.55,-416.54 533.45,-404.96 545.3,-395.09"/>
<polygon fill="midnightblue" stroke="midnightblue" points="547.67,-397.67 553.11,-388.58 543.19,-392.29 547.67,-397.67"/>
</g>
<!-- Node23 -->
<g id="node23" class="node">
<title>Node23</title>
<g id="a_node23"><a xlink:href="d__bg__s__chk_8h.html" target="_top" xlink:title=" ">
<polygon fill="white" stroke="black" points="912,-291.5 912,-321.5 1016,-321.5 1016,-291.5 912,-291.5"/>
<text text-anchor="start" x="920" y="-309.5" font-family="Helvetica,sans-Serif" font-size="10.00">d/d_bg/d_bg_s/d_bg</text>
<text text-anchor="middle" x="964" y="-298.5" font-family="Helvetica,sans-Serif" font-size="10.00">_s_chk.h</text>
</a>
</g>
</g>
<!-- Node18&#45;&gt;Node23 -->
<g id="edge41" class="edge">
<title>Node18&#45;&gt;Node23</title>
<path fill="none" stroke="midnightblue" d="M544.07,-427.44C548.43,-426.56 552.79,-425.74 557,-425 682.34,-403.13 721.73,-433.3 841,-389 878.81,-374.96 916.63,-347.36 940.15,-328.2"/>
<polygon fill="midnightblue" stroke="midnightblue" points="942.4,-330.88 947.85,-321.8 937.92,-325.5 942.4,-330.88"/>
</g>
<!-- Node19&#45;&gt;Node3 -->
<g id="edge38" class="edge">
<title>Node19&#45;&gt;Node3</title>
<path fill="none" stroke="midnightblue" d="M584.54,-358.4C593.49,-349.71 605.14,-338.4 615.19,-328.66"/>
<polygon fill="midnightblue" stroke="midnightblue" points="617.75,-331.05 622.49,-321.58 612.88,-326.03 617.75,-331.05"/>
</g>
<!-- Node19&#45;&gt;Node4 -->
<g id="edge40" class="edge">
<title>Node19&#45;&gt;Node4</title>
<path fill="none" stroke="midnightblue" d="M555.55,-358.36C546.76,-348.89 536.08,-335.7 530,-322 511.49,-280.35 507.16,-226.08 506.21,-197.88"/>
<polygon fill="midnightblue" stroke="midnightblue" points="509.71,-197.73 505.98,-187.81 502.71,-197.89 509.71,-197.73"/>
</g>
<!-- Node19&#45;&gt;Node13 -->
<g id="edge39" class="edge">
<title>Node19&#45;&gt;Node13</title>
<path fill="none" stroke="midnightblue" d="M516.71,-358.48C471.38,-346.55 407.15,-329.64 365.28,-318.63"/>
<polygon fill="midnightblue" stroke="midnightblue" points="365.97,-315.19 355.41,-316.03 364.19,-321.96 365.97,-315.19"/>
</g>
<!-- Node20 -->
<g id="node20" class="node">
<title>Node20</title>
<g id="a_node20"><a xlink:href="c__bg__s__chk_8h.html" target="_top" xlink:title=" ">
<polygon fill="white" stroke="black" points="758,-297 758,-316 894,-316 894,-297 758,-297"/>
<text text-anchor="middle" x="826" y="-304" font-family="Helvetica,sans-Serif" font-size="10.00">SComponent/c_bg_s_chk.h</text>
</a>
</g>
</g>
<!-- Node19&#45;&gt;Node20 -->
<g id="edge32" class="edge">
<title>Node19&#45;&gt;Node20</title>
<path fill="none" stroke="midnightblue" d="M625.23,-358.48C672.32,-346.52 739.07,-329.57 782.45,-318.56"/>
<polygon fill="midnightblue" stroke="midnightblue" points="783.58,-321.88 792.41,-316.03 781.86,-315.1 783.58,-321.88"/>
</g>
<!-- Node20&#45;&gt;Node4 -->
<g id="edge37" class="edge">
<title>Node20&#45;&gt;Node4</title>
<path fill="none" stroke="midnightblue" d="M812.56,-296.8C780.17,-275.82 700.38,-224.16 700,-224 646.97,-201.51 580.79,-189.24 541.04,-183.4"/>
<polygon fill="midnightblue" stroke="midnightblue" points="541.44,-179.92 531.05,-181.99 540.46,-186.86 541.44,-179.92"/>
</g>
<!-- Node21 -->
<g id="node21" class="node">
<title>Node21</title>
<g id="a_node21"><a xlink:href="d__bg__s__grp__pass__chk_8h.html" target="_top" xlink:title=" ">
<polygon fill="white" stroke="black" points="912,-224.5 912,-254.5 1016,-254.5 1016,-224.5 912,-224.5"/>
<text text-anchor="start" x="920" y="-242.5" font-family="Helvetica,sans-Serif" font-size="10.00">d/d_bg/d_bg_s/d_bg</text>
<text text-anchor="middle" x="964" y="-231.5" font-family="Helvetica,sans-Serif" font-size="10.00">_s_grp_pass_chk.h</text>
</a>
</g>
</g>
<!-- Node20&#45;&gt;Node21 -->
<g id="edge33" class="edge">
<title>Node20&#45;&gt;Node21</title>
<path fill="none" stroke="midnightblue" d="M844.33,-296.87C864.76,-287.24 898.42,-271.39 924.85,-258.94"/>
<polygon fill="midnightblue" stroke="midnightblue" points="926.66,-261.96 934.22,-254.53 923.68,-255.62 926.66,-261.96"/>
</g>
<!-- Node22 -->
<g id="node22" class="node">
<title>Node22</title>
<g id="a_node22"><a xlink:href="d__bg__s__poly__pass__chk_8h.html" target="_top" xlink:title=" ">
<polygon fill="white" stroke="black" points="790,-224.5 790,-254.5 894,-254.5 894,-224.5 790,-224.5"/>
<text text-anchor="start" x="798" y="-242.5" font-family="Helvetica,sans-Serif" font-size="10.00">d/d_bg/d_bg_s/d_bg</text>
<text text-anchor="middle" x="842" y="-231.5" font-family="Helvetica,sans-Serif" font-size="10.00">_s_poly_pass_chk.h</text>
</a>
</g>
</g>
<!-- Node20&#45;&gt;Node22 -->
<g id="edge35" class="edge">
<title>Node20&#45;&gt;Node22</title>
<path fill="none" stroke="midnightblue" d="M828.16,-296.73C830.2,-288.46 833.34,-275.66 836.12,-264.37"/>
<polygon fill="midnightblue" stroke="midnightblue" points="839.54,-265.14 838.53,-254.59 832.74,-263.46 839.54,-265.14"/>
</g>
<!-- Node21&#45;&gt;Node5 -->
<g id="edge34" class="edge">
<title>Node21&#45;&gt;Node5</title>
<path fill="none" stroke="midnightblue" d="M946.63,-224.33C905.08,-191.02 795.75,-106.7 693,-56 663.92,-41.65 629.17,-30.13 602.34,-22.34"/>
<polygon fill="midnightblue" stroke="midnightblue" points="603.05,-18.9 592.47,-19.53 601.14,-25.63 603.05,-18.9"/>
</g>
<!-- Node22&#45;&gt;Node5 -->
<g id="edge36" class="edge">
<title>Node22&#45;&gt;Node5</title>
<path fill="none" stroke="midnightblue" d="M831.69,-224.25C806.82,-190.77 740.15,-106.11 667,-56 645.78,-41.47 619.14,-30.3 597.62,-22.73"/>
<polygon fill="midnightblue" stroke="midnightblue" points="598.73,-19.41 588.13,-19.5 596.47,-26.04 598.73,-19.41"/>
</g>
<!-- Node23&#45;&gt;Node4 -->
<g id="edge44" class="edge">
<title>Node23&#45;&gt;Node4</title>
<path fill="none" stroke="midnightblue" d="M911.83,-293.16C866.35,-282.03 804.15,-265.79 781,-255 758.99,-244.74 758.39,-233.42 736,-224 670.59,-196.48 587.55,-185.57 541.26,-181.41"/>
<polygon fill="midnightblue" stroke="midnightblue" points="541.4,-177.91 531.14,-180.56 540.81,-184.89 541.4,-177.91"/>
</g>
<!-- Node23&#45;&gt;Node21 -->
<g id="edge42" class="edge">
<title>Node23&#45;&gt;Node21</title>
<path fill="none" stroke="midnightblue" d="M964,-291.4C964,-283.64 964,-273.81 964,-264.86"/>
<polygon fill="midnightblue" stroke="midnightblue" points="967.5,-264.58 964,-254.58 960.5,-264.58 967.5,-264.58"/>
</g>
<!-- Node23&#45;&gt;Node22 -->
<g id="edge43" class="edge">
<title>Node23&#45;&gt;Node22</title>
<path fill="none" stroke="midnightblue" d="M937.53,-291.4C919.94,-282.03 896.65,-269.62 877.46,-259.39"/>
<polygon fill="midnightblue" stroke="midnightblue" points="878.89,-256.19 868.42,-254.58 875.6,-262.37 878.89,-256.19"/>
</g>
<!-- Node24&#45;&gt;Node4 -->
<g id="edge49" class="edge">
<title>Node24&#45;&gt;Node4</title>
<path fill="none" stroke="midnightblue" d="M629.19,-425.24C641.15,-408.14 656.66,-379.13 643,-358 621.83,-325.26 589.96,-350.16 563,-322 558.44,-317.23 526.99,-234.71 512.85,-197.24"/>
<polygon fill="midnightblue" stroke="midnightblue" points="516.02,-195.71 509.22,-187.58 509.46,-198.17 516.02,-195.71"/>
</g>
<!-- Node24&#45;&gt;Node19 -->
<g id="edge47" class="edge">
<title>Node24&#45;&gt;Node19</title>
<path fill="none" stroke="midnightblue" d="M607.58,-425.4C601.42,-417.05 593.47,-406.29 586.48,-396.81"/>
<polygon fill="midnightblue" stroke="midnightblue" points="589.15,-394.54 580.39,-388.58 583.52,-398.7 589.15,-394.54"/>
</g>
<!-- Node24&#45;&gt;Node23 -->
<g id="edge48" class="edge">
<title>Node24&#45;&gt;Node23</title>
<path fill="none" stroke="midnightblue" d="M670.07,-431.46C750.56,-418.88 897.06,-395.32 907,-389 928.83,-375.11 944.64,-349.55 953.99,-330.74"/>
<polygon fill="midnightblue" stroke="midnightblue" points="957.19,-332.16 958.29,-321.62 950.86,-329.17 957.19,-332.16"/>
</g>
<!-- Node25&#45;&gt;Node4 -->
<g id="edge57" class="edge">
<title>Node25&#45;&gt;Node4</title>
<path fill="none" stroke="midnightblue" d="M832.25,-432.92C892.91,-422.03 989.2,-393.76 1025,-322 1044.44,-283.03 1054.44,-256.1 1025,-224 992.36,-188.4 652.84,-180.88 541.29,-179.36"/>
<polygon fill="midnightblue" stroke="midnightblue" points="541.27,-175.86 531.23,-179.24 541.18,-182.86 541.27,-175.86"/>
</g>
<!-- Node26 -->
<g id="node26" class="node">
<title>Node26</title>
<g id="a_node26"><a xlink:href="d__bg__s__spl__grp__chk_8h.html" target="_top" xlink:title=" ">
<polygon fill="white" stroke="black" points="728,-358.5 728,-388.5 832,-388.5 832,-358.5 728,-358.5"/>
<text text-anchor="start" x="736" y="-376.5" font-family="Helvetica,sans-Serif" font-size="10.00">d/d_bg/d_bg_s/d_bg</text>
<text text-anchor="middle" x="780" y="-365.5" font-family="Helvetica,sans-Serif" font-size="10.00">_s_spl_grp_chk.h</text>
</a>
</g>
</g>
<!-- Node25&#45;&gt;Node26 -->
<g id="edge51" class="edge">
<title>Node25&#45;&gt;Node26</title>
<path fill="none" stroke="midnightblue" d="M780,-425.4C780,-417.64 780,-407.81 780,-398.86"/>
<polygon fill="midnightblue" stroke="midnightblue" points="783.5,-398.58 780,-388.58 776.5,-398.58 783.5,-398.58"/>
</g>
<!-- Node26&#45;&gt;Node3 -->
<g id="edge53" class="edge">
<title>Node26&#45;&gt;Node3</title>
<path fill="none" stroke="midnightblue" d="M748.97,-358.4C727.98,-348.86 700.06,-336.16 677.35,-325.84"/>
<polygon fill="midnightblue" stroke="midnightblue" points="678.52,-322.53 667.97,-321.58 675.62,-328.9 678.52,-322.53"/>
</g>
<!-- Node26&#45;&gt;Node4 -->
<g id="edge56" class="edge">
<title>Node26&#45;&gt;Node4</title>
<path fill="none" stroke="midnightblue" d="M770.57,-358.44C758.36,-341.02 735.71,-311.15 711,-291 655.43,-245.68 578.82,-209.53 536.75,-191.51"/>
<polygon fill="midnightblue" stroke="midnightblue" points="537.9,-188.19 527.33,-187.53 535.18,-194.64 537.9,-188.19"/>
</g>
<!-- Node26&#45;&gt;Node13 -->
<g id="edge54" class="edge">
<title>Node26&#45;&gt;Node13</title>
<path fill="none" stroke="midnightblue" d="M727.58,-365.04C643.17,-353.04 477.44,-329.47 386.48,-316.53"/>
<polygon fill="midnightblue" stroke="midnightblue" points="386.97,-313.06 376.57,-315.12 385.98,-319.99 386.97,-313.06"/>
</g>
<!-- Node26&#45;&gt;Node20 -->
<g id="edge52" class="edge">
<title>Node26&#45;&gt;Node20</title>
<path fill="none" stroke="midnightblue" d="M789.98,-358.4C797.01,-348.46 806.46,-335.11 813.92,-324.57"/>
<polygon fill="midnightblue" stroke="midnightblue" points="816.93,-326.38 819.85,-316.19 811.21,-322.34 816.93,-326.38"/>
</g>
<!-- Node26&#45;&gt;Node23 -->
<g id="edge55" class="edge">
<title>Node26&#45;&gt;Node23</title>
<path fill="none" stroke="midnightblue" d="M819.93,-358.4C847.65,-348.6 884.79,-335.48 914.42,-325.02"/>
<polygon fill="midnightblue" stroke="midnightblue" points="915.89,-328.21 924.15,-321.58 913.56,-321.61 915.89,-328.21"/>
</g>
</g>
</svg>
