<?xml version="1.0" encoding="UTF-8" standalone="no"?>
<!DOCTYPE svg PUBLIC "-//W3C//DTD SVG 1.1//EN"
 "http://www.w3.org/Graphics/SVG/1.1/DTD/svg11.dtd">
<!-- Generated by graphviz version 2.44.0 ()
 -->
<!-- Title: include/d/d_particle/d_particle.h Pages: 1 -->
<svg width="334pt" height="375pt"
 viewBox="0.00 0.00 334.18 375.00" xmlns="http://www.w3.org/2000/svg" xmlns:xlink="http://www.w3.org/1999/xlink">
<g id="graph0" class="graph" transform="scale(1 1) rotate(0) translate(4 371)">
<title>include/d/d_particle/d_particle.h</title>
<polygon fill="white" stroke="transparent" points="-4,4 -4,-371 330.18,-371 330.18,4 -4,4"/>
<!-- Node1 -->
<g id="node1" class="node">
<title>Node1</title>
<g id="a_node1"><a xlink:title=" ">
<polygon fill="#bfbfbf" stroke="black" points="225.18,-336.5 225.18,-366.5 326.18,-366.5 326.18,-336.5 225.18,-336.5"/>
<text text-anchor="start" x="233.18" y="-354.5" font-family="Helvetica,sans-Serif" font-size="10.00">include/d/d_particle</text>
<text text-anchor="middle" x="275.68" y="-343.5" font-family="Helvetica,sans-Serif" font-size="10.00">/d_particle.h</text>
</a>
</g>
</g>
<!-- Node2 -->
<g id="node2" class="node">
<title>Node2</title>
<g id="a_node2"><a xlink:href="c__xyz_8h.html" target="_top" xlink:title=" ">
<polygon fill="white" stroke="black" points="181.18,-280.5 181.18,-299.5 288.18,-299.5 288.18,-280.5 181.18,-280.5"/>
<text text-anchor="middle" x="234.68" y="-287.5" font-family="Helvetica,sans-Serif" font-size="10.00">SComponent/c_xyz.h</text>
</a>
</g>
</g>
<!-- Node1&#45;&gt;Node2 -->
<g id="edge1" class="edge">
<title>Node1&#45;&gt;Node2</title>
<path fill="none" stroke="midnightblue" d="M265.96,-336.4C260.13,-327.93 252.66,-317.1 246.49,-308.14"/>
<polygon fill="midnightblue" stroke="midnightblue" points="249.2,-305.91 240.64,-299.66 243.44,-309.88 249.2,-305.91"/>
</g>
<!-- Node5 -->
<g id="node5" class="node">
<title>Node5</title>
<g id="a_node5"><a xlink:href="types_8h.html" target="_top" xlink:title=" ">
<polygon fill="white" stroke="black" points="129.18,-0.5 129.18,-19.5 210.18,-19.5 210.18,-0.5 129.18,-0.5"/>
<text text-anchor="middle" x="169.68" y="-7.5" font-family="Helvetica,sans-Serif" font-size="10.00">dolphin/types.h</text>
</a>
</g>
</g>
<!-- Node1&#45;&gt;Node5 -->
<g id="edge17" class="edge">
<title>Node1&#45;&gt;Node5</title>
<path fill="none" stroke="midnightblue" d="M285.86,-336.34C299.95,-315.31 323.68,-274.09 323.68,-235 323.68,-235 323.68,-235 323.68,-121 323.68,-67.13 260.5,-37.14 215.08,-22.54"/>
<polygon fill="midnightblue" stroke="midnightblue" points="215.98,-19.16 205.4,-19.57 213.93,-25.85 215.98,-19.16"/>
</g>
<!-- Node3 -->
<g id="node3" class="node">
<title>Node3</title>
<g id="a_node3"><a xlink:href="c__math_8h.html" target="_top" xlink:title=" ">
<polygon fill="white" stroke="black" points="82.68,-224.5 82.68,-243.5 198.68,-243.5 198.68,-224.5 82.68,-224.5"/>
<text text-anchor="middle" x="140.68" y="-231.5" font-family="Helvetica,sans-Serif" font-size="10.00">SComponent/c_math.h</text>
</a>
</g>
</g>
<!-- Node2&#45;&gt;Node3 -->
<g id="edge2" class="edge">
<title>Node2&#45;&gt;Node3</title>
<path fill="none" stroke="midnightblue" d="M219.58,-280.32C204.78,-271.82 181.98,-258.73 164.7,-248.8"/>
<polygon fill="midnightblue" stroke="midnightblue" points="166.16,-245.6 155.74,-243.65 162.67,-251.67 166.16,-245.6"/>
</g>
<!-- Node4 -->
<g id="node4" class="node">
<title>Node4</title>
<g id="a_node4"><a xlink:href="global_8h.html" target="_top" xlink:title=" ">
<polygon fill="white" stroke="black" points="115.68,-168.5 115.68,-187.5 165.68,-187.5 165.68,-168.5 115.68,-168.5"/>
<text text-anchor="middle" x="140.68" y="-175.5" font-family="Helvetica,sans-Serif" font-size="10.00">global.h</text>
</a>
</g>
</g>
<!-- Node2&#45;&gt;Node4 -->
<g id="edge14" class="edge">
<title>Node2&#45;&gt;Node4</title>
<path fill="none" stroke="midnightblue" d="M232.75,-280.16C229.48,-266.8 221.78,-241.2 207.68,-224 196.93,-210.88 181.36,-200.11 167.94,-192.39"/>
<polygon fill="midnightblue" stroke="midnightblue" points="169.53,-189.27 159.07,-187.55 166.17,-195.41 169.53,-189.27"/>
</g>
<!-- Node11 -->
<g id="node11" class="node">
<title>Node11</title>
<g id="a_node11"><a xlink:href="mtx__vec_8h.html" target="_top" xlink:title=" ">
<polygon fill="white" stroke="black" points="234.18,-168.5 234.18,-187.5 295.18,-187.5 295.18,-168.5 234.18,-168.5"/>
<text text-anchor="middle" x="264.68" y="-175.5" font-family="Helvetica,sans-Serif" font-size="10.00">mtx_vec.h</text>
</a>
</g>
</g>
<!-- Node2&#45;&gt;Node11 -->
<g id="edge15" class="edge">
<title>Node2&#45;&gt;Node11</title>
<path fill="none" stroke="midnightblue" d="M237.03,-280.37C241.9,-262.54 253.14,-221.3 259.7,-197.27"/>
<polygon fill="midnightblue" stroke="midnightblue" points="263.08,-198.16 262.34,-187.59 256.33,-196.32 263.08,-198.16"/>
</g>
<!-- Node3&#45;&gt;Node4 -->
<g id="edge3" class="edge">
<title>Node3&#45;&gt;Node4</title>
<path fill="none" stroke="midnightblue" d="M140.68,-224.08C140.68,-217.01 140.68,-206.86 140.68,-197.99"/>
<polygon fill="midnightblue" stroke="midnightblue" points="144.18,-197.75 140.68,-187.75 137.18,-197.75 144.18,-197.75"/>
</g>
<!-- Node4&#45;&gt;Node5 -->
<g id="edge4" class="edge">
<title>Node4&#45;&gt;Node5</title>
<path fill="none" stroke="midnightblue" d="M116.98,-168.46C69.78,-150.14 -28.34,-104.79 8.68,-56 22.09,-38.33 76.91,-25.71 118.89,-18.42"/>
<polygon fill="midnightblue" stroke="midnightblue" points="119.7,-21.83 128.99,-16.72 118.54,-14.93 119.7,-21.83"/>
</g>
<!-- Node6 -->
<g id="node6" class="node">
<title>Node6</title>
<g id="a_node6"><a xlink:href="AR_8h.html" target="_top" xlink:title=" ">
<polygon fill="white" stroke="black" points="18.18,-56.5 18.18,-75.5 67.18,-75.5 67.18,-56.5 18.18,-56.5"/>
<text text-anchor="middle" x="42.68" y="-63.5" font-family="Helvetica,sans-Serif" font-size="10.00">ar/AR.h</text>
</a>
</g>
</g>
<!-- Node4&#45;&gt;Node6 -->
<g id="edge5" class="edge">
<title>Node4&#45;&gt;Node6</title>
<path fill="none" stroke="midnightblue" d="M132.99,-168.37C116.67,-150.05 78.36,-107.05 57.26,-83.36"/>
<polygon fill="midnightblue" stroke="midnightblue" points="59.6,-80.73 50.33,-75.59 54.37,-85.39 59.6,-80.73"/>
</g>
<!-- Node7 -->
<g id="node7" class="node">
<title>Node7</title>
<g id="a_node7"><a xlink:href="ARQ_8h.html" target="_top" xlink:title=" ">
<polygon fill="white" stroke="black" points="85.68,-56.5 85.68,-75.5 141.68,-75.5 141.68,-56.5 85.68,-56.5"/>
<text text-anchor="middle" x="113.68" y="-63.5" font-family="Helvetica,sans-Serif" font-size="10.00">ar/ARQ.h</text>
</a>
</g>
</g>
<!-- Node4&#45;&gt;Node7 -->
<g id="edge7" class="edge">
<title>Node4&#45;&gt;Node7</title>
<path fill="none" stroke="midnightblue" d="M135.26,-168.43C130.01,-159.65 122.33,-145.43 118.68,-132 114.54,-116.8 113.42,-98.91 113.27,-85.75"/>
<polygon fill="midnightblue" stroke="midnightblue" points="116.77,-85.61 113.32,-75.59 109.77,-85.57 116.77,-85.61"/>
</g>
<!-- Node8 -->
<g id="node8" class="node">
<title>Node8</title>
<g id="a_node8"><a xlink:href="mwcc_8h.html" target="_top" xlink:title=" ">
<polygon fill="white" stroke="black" points="127.68,-112.5 127.68,-131.5 177.68,-131.5 177.68,-112.5 127.68,-112.5"/>
<text text-anchor="middle" x="152.68" y="-119.5" font-family="Helvetica,sans-Serif" font-size="10.00">mwcc.h</text>
</a>
</g>
</g>
<!-- Node4&#45;&gt;Node8 -->
<g id="edge9" class="edge">
<title>Node4&#45;&gt;Node8</title>
<path fill="none" stroke="midnightblue" d="M142.66,-168.08C144.25,-160.93 146.54,-150.64 148.53,-141.69"/>
<polygon fill="midnightblue" stroke="midnightblue" points="151.98,-142.27 150.73,-131.75 145.15,-140.75 151.98,-142.27"/>
</g>
<!-- Node9 -->
<g id="node9" class="node">
<title>Node9</title>
<g id="a_node9"><a xlink:href="OS_8h.html" target="_top" xlink:title=" ">
<polygon fill="white" stroke="black" points="195.68,-112.5 195.68,-131.5 247.68,-131.5 247.68,-112.5 195.68,-112.5"/>
<text text-anchor="middle" x="221.68" y="-119.5" font-family="Helvetica,sans-Serif" font-size="10.00">os/OS.h</text>
</a>
</g>
</g>
<!-- Node4&#45;&gt;Node9 -->
<g id="edge10" class="edge">
<title>Node4&#45;&gt;Node9</title>
<path fill="none" stroke="midnightblue" d="M153.69,-168.32C166.21,-159.98 185.36,-147.21 200.15,-137.35"/>
<polygon fill="midnightblue" stroke="midnightblue" points="202.32,-140.11 208.7,-131.65 198.44,-134.29 202.32,-140.11"/>
</g>
<!-- Node6&#45;&gt;Node5 -->
<g id="edge6" class="edge">
<title>Node6&#45;&gt;Node5</title>
<path fill="none" stroke="midnightblue" d="M62.8,-56.44C83.7,-47.56 116.61,-33.56 140.4,-23.45"/>
<polygon fill="midnightblue" stroke="midnightblue" points="141.82,-26.65 149.65,-19.52 139.08,-20.21 141.82,-26.65"/>
</g>
<!-- Node7&#45;&gt;Node5 -->
<g id="edge8" class="edge">
<title>Node7&#45;&gt;Node5</title>
<path fill="none" stroke="midnightblue" d="M122.68,-56.32C130.87,-48.42 143.18,-36.55 153.15,-26.94"/>
<polygon fill="midnightblue" stroke="midnightblue" points="155.75,-29.29 160.52,-19.83 150.89,-24.26 155.75,-29.29"/>
</g>
<!-- Node9&#45;&gt;Node5 -->
<g id="edge11" class="edge">
<title>Node9&#45;&gt;Node5</title>
<path fill="none" stroke="midnightblue" d="M213.85,-112.3C206.44,-103.65 195.46,-89.73 188.68,-76 181.36,-61.17 176.35,-43.02 173.32,-29.67"/>
<polygon fill="midnightblue" stroke="midnightblue" points="176.72,-28.83 171.23,-19.77 169.87,-30.27 176.72,-28.83"/>
</g>
<!-- Node10 -->
<g id="node10" class="node">
<title>Node10</title>
<g id="a_node10"><a xlink:href="dvd_8h.html" target="_top" xlink:title=" ">
<polygon fill="white" stroke="black" points="198.18,-56.5 198.18,-75.5 257.18,-75.5 257.18,-56.5 198.18,-56.5"/>
<text text-anchor="middle" x="227.68" y="-63.5" font-family="Helvetica,sans-Serif" font-size="10.00">dvd/dvd.h</text>
</a>
</g>
</g>
<!-- Node9&#45;&gt;Node10 -->
<g id="edge12" class="edge">
<title>Node9&#45;&gt;Node10</title>
<path fill="none" stroke="midnightblue" d="M222.67,-112.08C223.46,-104.93 224.61,-94.64 225.6,-85.69"/>
<polygon fill="midnightblue" stroke="midnightblue" points="229.08,-86.08 226.71,-75.75 222.12,-85.3 229.08,-86.08"/>
</g>
<!-- Node10&#45;&gt;Node5 -->
<g id="edge13" class="edge">
<title>Node10&#45;&gt;Node5</title>
<path fill="none" stroke="midnightblue" d="M218.36,-56.32C209.79,-48.34 196.87,-36.31 186.49,-26.65"/>
<polygon fill="midnightblue" stroke="midnightblue" points="188.87,-24.09 179.17,-19.83 184.1,-29.21 188.87,-24.09"/>
</g>
<!-- Node11&#45;&gt;Node5 -->
<g id="edge16" class="edge">
<title>Node11&#45;&gt;Node5</title>
<path fill="none" stroke="midnightblue" d="M267.85,-168.21C274.92,-146.97 289.63,-91.95 266.68,-56 256.23,-39.63 238.12,-29.12 220.35,-22.42"/>
<polygon fill="midnightblue" stroke="midnightblue" points="221.17,-19 210.57,-19.08 218.9,-25.63 221.17,-19"/>
</g>
</g>
</svg>
