<?xml version="1.0" encoding="UTF-8" standalone="no"?>
<!DOCTYPE svg PUBLIC "-//W3C//DTD SVG 1.1//EN"
 "http://www.w3.org/Graphics/SVG/1.1/DTD/svg11.dtd">
<!-- Generated by graphviz version 2.44.0 ()
 -->
<!-- Title: include/Z2AudioLib/Z2LinkMgr Pages: 1 -->
<svg width="220pt" height="223pt"
 viewBox="0.00 0.00 219.50 223.00" xmlns="http://www.w3.org/2000/svg" xmlns:xlink="http://www.w3.org/1999/xlink">
<g id="graph0" class="graph" transform="scale(1 1) rotate(0) translate(4 219)">
<title>include/Z2AudioLib/Z2LinkMgr</title>
<polygon fill="white" stroke="transparent" points="-4,4 -4,-219 215.5,-219 215.5,4 -4,4"/>
<g id="clust1" class="cluster">
<title>clusterdir_81939fb769658ab66ba54ec390580a1a</title>
<g id="a_clust1"><a xlink:href="dir_81939fb769658ab66ba54ec390580a1a.html" target="_top" xlink:title="Z2AudioLib">
<polygon fill="#ddddee" stroke="black" points="8,-64 8,-207 90,-207 90,-64 8,-64"/>
<text text-anchor="middle" x="49" y="-195" font-family="Helvetica,sans-Serif" font-size="10.00">Z2AudioLib</text>
</a>
</g>
</g>
<!-- dir_2eb90578ec0f7a4ade42c9b5edcee0c8 -->
<g id="node1" class="node">
<title>dir_2eb90578ec0f7a4ade42c9b5edcee0c8</title>
<g id="a_node1"><a xlink:href="dir_2eb90578ec0f7a4ade42c9b5edcee0c8.html" target="_top" xlink:title="Z2Creature">
<polygon fill="none" stroke="black" points="81.5,-108 16.5,-108 16.5,-72 81.5,-72 81.5,-108"/>
<text text-anchor="middle" x="49" y="-87.5" font-family="Helvetica,sans-Serif" font-size="10.00">Z2Creature</text>
</a>
</g>
</g>
<!-- dir_54d234a24a71d44b5f2eb31a43853161 -->
<g id="node2" class="node">
<title>dir_54d234a24a71d44b5f2eb31a43853161</title>
<g id="a_node2"><a xlink:href="dir_54d234a24a71d44b5f2eb31a43853161.html" target="_top" xlink:title="Z2LinkMgr">
<polygon fill="#eeeeff" stroke="black" points="81.5,-180 18.5,-180 18.5,-144 81.5,-144 81.5,-180"/>
<text text-anchor="middle" x="50" y="-159.5" font-family="Helvetica,sans-Serif" font-size="10.00">Z2LinkMgr</text>
</a>
</g>
</g>
<!-- dir_54d234a24a71d44b5f2eb31a43853161&#45;&gt;dir_2eb90578ec0f7a4ade42c9b5edcee0c8 -->
<g id="edge1" class="edge">
<title>dir_54d234a24a71d44b5f2eb31a43853161&#45;&gt;dir_2eb90578ec0f7a4ade42c9b5edcee0c8</title>
<path fill="none" stroke="black" d="M49.75,-143.7C49.64,-135.98 49.51,-126.71 49.39,-118.11"/>
<polygon fill="black" stroke="black" points="52.89,-118.05 49.24,-108.1 45.89,-118.15 52.89,-118.05"/>
<g id="a_edge1&#45;headlabel"><a xlink:href="dir_000154_000151.html" target="_top" xlink:title="1">
<text text-anchor="middle" x="55.78" y="-119.11" font-family="Helvetica,sans-Serif" font-size="10.00">1</text>
</a>
</g>
</g>
<!-- dir_4f0979a7f5e3194619cde56505e372d8 -->
<g id="node3" class="node">
<title>dir_4f0979a7f5e3194619cde56505e372d8</title>
<g id="a_node3"><a xlink:href="dir_4f0979a7f5e3194619cde56505e372d8.html" target="_top" xlink:title="JSystem">
<polygon fill="white" stroke="red" points="169.5,-36 114.5,-36 114.5,0 169.5,0 169.5,-36"/>
<text text-anchor="middle" x="142" y="-15.5" font-family="Helvetica,sans-Serif" font-size="10.00">JSystem</text>
</a>
</g>
</g>
<!-- dir_54d234a24a71d44b5f2eb31a43853161&#45;&gt;dir_4f0979a7f5e3194619cde56505e372d8 -->
<g id="edge2" class="edge">
<title>dir_54d234a24a71d44b5f2eb31a43853161&#45;&gt;dir_4f0979a7f5e3194619cde56505e372d8</title>
<path fill="none" stroke="black" d="M63.86,-143.71C71.82,-133.53 81.82,-120.28 90,-108 103.77,-87.33 117.9,-62.91 127.94,-44.88"/>
<polygon fill="black" stroke="black" points="131.03,-46.54 132.8,-36.09 124.9,-43.15 131.03,-46.54"/>
<g id="a_edge2&#45;headlabel"><a xlink:href="dir_000154_000062.html" target="_top" xlink:title="2">
<text text-anchor="middle" x="131.77" y="-48.56" font-family="Helvetica,sans-Serif" font-size="10.00">2</text>
</a>
</g>
</g>
<!-- dir_76ec03b56887a0e8201bcb48abf48018 -->
<g id="node4" class="node">
<title>dir_76ec03b56887a0e8201bcb48abf48018</title>
<g id="a_node4"><a xlink:href="dir_76ec03b56887a0e8201bcb48abf48018.html" target="_top" xlink:title="SComponent">
<polygon fill="white" stroke="red" points="211.5,-108 138.5,-108 138.5,-72 211.5,-72 211.5,-108"/>
<text text-anchor="middle" x="175" y="-87.5" font-family="Helvetica,sans-Serif" font-size="10.00">SComponent</text>
</a>
</g>
</g>
<!-- dir_54d234a24a71d44b5f2eb31a43853161&#45;&gt;dir_76ec03b56887a0e8201bcb48abf48018 -->
<g id="edge3" class="edge">
<title>dir_54d234a24a71d44b5f2eb31a43853161&#45;&gt;dir_76ec03b56887a0e8201bcb48abf48018</title>
<path fill="none" stroke="black" d="M80.58,-143.88C97.07,-134.64 117.62,-123.13 135.34,-113.21"/>
<polygon fill="black" stroke="black" points="137.29,-116.13 144.3,-108.19 133.87,-110.02 137.29,-116.13"/>
<g id="a_edge3&#45;headlabel"><a xlink:href="dir_000154_000137.html" target="_top" xlink:title="1">
<text text-anchor="middle" x="135.54" y="-117.86" font-family="Helvetica,sans-Serif" font-size="10.00">1</text>
</a>
</g>
</g>
<!-- dir_76ec03b56887a0e8201bcb48abf48018&#45;&gt;dir_4f0979a7f5e3194619cde56505e372d8 -->
<g id="edge4" class="edge">
<title>dir_76ec03b56887a0e8201bcb48abf48018&#45;&gt;dir_4f0979a7f5e3194619cde56505e372d8</title>
<path fill="none" stroke="black" d="M166.84,-71.7C163.09,-63.73 158.55,-54.1 154.38,-45.26"/>
<polygon fill="black" stroke="black" points="157.49,-43.66 150.06,-36.1 151.16,-46.64 157.49,-43.66"/>
<g id="a_edge4&#45;headlabel"><a xlink:href="dir_000137_000062.html" target="_top" xlink:title="1">
<text text-anchor="middle" x="161.59" y="-43.2" font-family="Helvetica,sans-Serif" font-size="10.00">1</text>
</a>
</g>
</g>
</g>
</svg>
