<?xml version="1.0" encoding="UTF-8" standalone="no"?>
<!DOCTYPE svg PUBLIC "-//W3C//DTD SVG 1.1//EN"
 "http://www.w3.org/Graphics/SVG/1.1/DTD/svg11.dtd">
<!-- Generated by graphviz version 2.44.0 ()
 -->
<!-- Title: include/JSystem/J3DGraphBase/J3DMatBlock Pages: 1 -->
<svg width="116pt" height="223pt"
 viewBox="0.00 0.00 116.00 223.00" xmlns="http://www.w3.org/2000/svg" xmlns:xlink="http://www.w3.org/1999/xlink">
<g id="graph0" class="graph" transform="scale(1 1) rotate(0) translate(4 219)">
<title>include/JSystem/J3DGraphBase/J3DMatBlock</title>
<polygon fill="white" stroke="transparent" points="-4,4 -4,-219 112,-219 112,4 -4,4"/>
<g id="clust1" class="cluster">
<title>clusterdir_4a61573b4bce9188d102de1e22b28aee</title>
<g id="a_clust1"><a xlink:href="dir_4a61573b4bce9188d102de1e22b28aee.html" target="_top" xlink:title="J3DGraphBase">
<polygon fill="#ddddee" stroke="black" points="10,-136 10,-207 100,-207 100,-136 10,-136"/>
<text text-anchor="middle" x="55" y="-195" font-family="Helvetica,sans-Serif" font-size="10.00">J3DGraphBase</text>
</a>
</g>
</g>
<!-- dir_2831cd789200767fc4fe3b9e9d0aaef9 -->
<g id="node1" class="node">
<title>dir_2831cd789200767fc4fe3b9e9d0aaef9</title>
<g id="a_node1"><a xlink:href="dir_2831cd789200767fc4fe3b9e9d0aaef9.html" target="_top" xlink:title="J3DMatBlock">
<polygon fill="#eeeeff" stroke="black" points="92.5,-180 17.5,-180 17.5,-144 92.5,-144 92.5,-180"/>
<text text-anchor="middle" x="55" y="-159.5" font-family="Helvetica,sans-Serif" font-size="10.00">J3DMatBlock</text>
</a>
</g>
</g>
<!-- dir_a279ed5c4175293b5b2f0cc1c8e2c220 -->
<g id="node2" class="node">
<title>dir_a279ed5c4175293b5b2f0cc1c8e2c220</title>
<g id="a_node2"><a xlink:href="dir_a279ed5c4175293b5b2f0cc1c8e2c220.html" target="_top" xlink:title="gx">
<polygon fill="none" stroke="black" points="54,-108 0,-108 0,-72 54,-72 54,-108"/>
<text text-anchor="middle" x="27" y="-87.5" font-family="Helvetica,sans-Serif" font-size="10.00">gx</text>
</a>
</g>
</g>
<!-- dir_2831cd789200767fc4fe3b9e9d0aaef9&#45;&gt;dir_a279ed5c4175293b5b2f0cc1c8e2c220 -->
<g id="edge1" class="edge">
<title>dir_2831cd789200767fc4fe3b9e9d0aaef9&#45;&gt;dir_a279ed5c4175293b5b2f0cc1c8e2c220</title>
<path fill="none" stroke="black" d="M48.08,-143.7C44.93,-135.81 41.12,-126.3 37.62,-117.55"/>
<polygon fill="black" stroke="black" points="40.81,-116.09 33.84,-108.1 34.31,-118.69 40.81,-116.09"/>
<g id="a_edge1&#45;headlabel"><a xlink:href="dir_000069_000061.html" target="_top" xlink:title="1">
<text text-anchor="middle" x="44.78" y="-115.87" font-family="Helvetica,sans-Serif" font-size="10.00">1</text>
</a>
</g>
</g>
<!-- dir_b778c3f297ab88300258a2935792c8cc -->
<g id="node3" class="node">
<title>dir_b778c3f297ab88300258a2935792c8cc</title>
<g id="a_node3"><a xlink:href="dir_b778c3f297ab88300258a2935792c8cc.html" target="_top" xlink:title="dolphin">
<polygon fill="none" stroke="black" points="81,-36 27,-36 27,0 81,0 81,-36"/>
<text text-anchor="middle" x="54" y="-15.5" font-family="Helvetica,sans-Serif" font-size="10.00">dolphin</text>
</a>
</g>
</g>
<!-- dir_2831cd789200767fc4fe3b9e9d0aaef9&#45;&gt;dir_b778c3f297ab88300258a2935792c8cc -->
<g id="edge2" class="edge">
<title>dir_2831cd789200767fc4fe3b9e9d0aaef9&#45;&gt;dir_b778c3f297ab88300258a2935792c8cc</title>
<path fill="none" stroke="black" d="M58.25,-143.89C60.05,-133.54 62.09,-120.06 63,-108 64.2,-92.04 64.34,-87.94 63,-72 62.28,-63.5 60.93,-54.31 59.49,-46.01"/>
<polygon fill="black" stroke="black" points="62.91,-45.29 57.65,-36.09 56.03,-46.56 62.91,-45.29"/>
<g id="a_edge2&#45;headlabel"><a xlink:href="dir_000069_000055.html" target="_top" xlink:title="1">
<text text-anchor="middle" x="66.36" y="-45.81" font-family="Helvetica,sans-Serif" font-size="10.00">1</text>
</a>
</g>
</g>
<!-- dir_a279ed5c4175293b5b2f0cc1c8e2c220&#45;&gt;dir_b778c3f297ab88300258a2935792c8cc -->
<g id="edge3" class="edge">
<title>dir_a279ed5c4175293b5b2f0cc1c8e2c220&#45;&gt;dir_b778c3f297ab88300258a2935792c8cc</title>
<path fill="none" stroke="black" d="M33.67,-71.7C36.71,-63.81 40.38,-54.3 43.76,-45.55"/>
<polygon fill="black" stroke="black" points="47.07,-46.69 47.4,-36.1 40.54,-44.17 47.07,-46.69"/>
<g id="a_edge3&#45;headlabel"><a xlink:href="dir_000061_000055.html" target="_top" xlink:title="1">
<text text-anchor="middle" x="48.42" y="-48.57" font-family="Helvetica,sans-Serif" font-size="10.00">1</text>
</a>
</g>
</g>
</g>
</svg>
