<?xml version="1.0" encoding="UTF-8" standalone="no"?>
<!DOCTYPE svg PUBLIC "-//W3C//DTD SVG 1.1//EN"
 "http://www.w3.org/Graphics/SVG/1.1/DTD/svg11.dtd">
<!-- Generated by graphviz version 2.44.0 ()
 -->
<!-- Title: include Pages: 1 -->
<!--zoomable 580 -->
<svg id="main" version="1.1" xmlns="http://www.w3.org/2000/svg" xmlns:xlink="http://www.w3.org/1999/xlink" xml:space="preserve" onload="init(evt)">
<style type="text/css"><![CDATA[
.edge:hover path { stroke: red; }
.edge:hover polygon { stroke: red; fill: red; }
]]></style>
<script type="text/javascript"><![CDATA[
var edges = document.getElementsByTagName('g');
if (edges && edges.length) {
  for (var i=0;i<edges.length;i++) {
    if (edges[i].id.substr(0,4)=='edge') {
      edges[i].setAttribute('class','edge');
    }
  }
}
]]></script>
        <defs>
                <circle id="rim" cx="0" cy="0" r="7"/>
                <circle id="rim2" cx="0" cy="0" r="3.5"/>
                <g id="zoomPlus">
                        <use xlink:href="#rim" fill="#404040">
                                <set attributeName="fill" to="#808080" begin="zoomplus.mouseover" end="zoomplus.mouseout"/>
                        </use>
                        <path d="M-4,0h8M0,-4v8" fill="none" stroke="white" stroke-width="1.5" pointer-events="none"/>
                </g>
                <g id="zoomMin">
                        <use xlink:href="#rim" fill="#404040">
                                <set attributeName="fill" to="#808080" begin="zoomminus.mouseover" end="zoomminus.mouseout"/>
                        </use>
                        <path d="M-4,0h8" fill="none" stroke="white" stroke-width="1.5" pointer-events="none"/>
                </g>
                <g id="dirArrow">
                        <path fill="none" stroke="white" stroke-width="1.5" d="M0,-3.0v7 M-2.5,-0.5L0,-3.0L2.5,-0.5"/>
                </g>
               <g id="resetDef">
                       <use xlink:href="#rim2" fill="#404040">
                               <set attributeName="fill" to="#808080" begin="reset.mouseover" end="reset.mouseout"/>
                       </use>
               </g>
        </defs>

<script type="text/javascript">
var viewWidth = 470;
var viewHeight = 580;
var sectionId = 'dynsection-0';
</script>
<script xlink:href="svgpan.js"/>
<svg id="graph" class="graph">
<g id="viewport">
<title>include</title>
<polygon fill="white" stroke="transparent" points="-4,4 -4,-576 466,-576 466,4 -4,4"/>
<g id="clust1" class="cluster">
<title>clusterdir_d44c64559bbebec7f509842c48db8b23</title>
<g id="a_clust1"><a xlink:href="dir_d44c64559bbebec7f509842c48db8b23.html" target="_top">
<polygon fill="#eeeeff" stroke="black" points="8,-8 8,-564 454,-564 454,-8 8,-8"/>
</a>
</g>
</g>
<!-- dir_d44c64559bbebec7f509842c48db8b23 -->
<g id="node1" class="node">
<title>dir_d44c64559bbebec7f509842c48db8b23</title>
<text text-anchor="middle" x="332" y="-247.5" font-family="Helvetica,sans-Serif" font-size="10.00">include</text>
</g>
<!-- dir_65d600aab5b7177ee2dccfac7c04bb8a -->
<g id="node2" class="node">
<title>dir_65d600aab5b7177ee2dccfac7c04bb8a</title>
<g id="a_node2"><a xlink:href="dir_65d600aab5b7177ee2dccfac7c04bb8a.html" target="_top" xlink:title="ar">
<polygon fill="white" stroke="black" points="386,-196 332,-196 332,-160 386,-160 386,-196"/>
<text text-anchor="middle" x="359" y="-175.5" font-family="Helvetica,sans-Serif" font-size="10.00">ar</text>
</a>
</g>
</g>
<!-- dir_d44c64559bbebec7f509842c48db8b23&#45;&gt;dir_65d600aab5b7177ee2dccfac7c04bb8a -->
<g id="edge13" class="edge">
<title>dir_d44c64559bbebec7f509842c48db8b23&#45;&gt;dir_65d600aab5b7177ee2dccfac7c04bb8a</title>
<path fill="none" stroke="black" d="M338.67,-231.7C341.71,-223.81 345.38,-214.3 348.76,-205.55"/>
<polygon fill="black" stroke="black" points="352.07,-206.69 352.4,-196.1 345.54,-204.17 352.07,-206.69"/>
<g id="a_edge13&#45;headlabel"><a xlink:href="dir_000001_000002.html" target="_top" xlink:title="3">
<text text-anchor="middle" x="353.42" y="-208.57" font-family="Helvetica,sans-Serif" font-size="10.00">3</text>
</a>
</g>
</g>
<!-- dir_7b371d9fdb0359ac564866f88df60f77 -->
<g id="node11" class="node">
<title>dir_7b371d9fdb0359ac564866f88df60f77</title>
<g id="a_node11"><a xlink:href="dir_7b371d9fdb0359ac564866f88df60f77.html" target="_top" xlink:title="os">
<polygon fill="white" stroke="black" points="314,-196 260,-196 260,-160 314,-160 314,-196"/>
<text text-anchor="middle" x="287" y="-175.5" font-family="Helvetica,sans-Serif" font-size="10.00">os</text>
</a>
</g>
</g>
<!-- dir_d44c64559bbebec7f509842c48db8b23&#45;&gt;dir_7b371d9fdb0359ac564866f88df60f77 -->
<g id="edge14" class="edge">
<title>dir_d44c64559bbebec7f509842c48db8b23&#45;&gt;dir_7b371d9fdb0359ac564866f88df60f77</title>
<path fill="none" stroke="black" d="M320.88,-231.7C315.64,-223.56 309.3,-213.69 303.52,-204.7"/>
<polygon fill="black" stroke="black" points="306.35,-202.62 298,-196.1 300.46,-206.41 306.35,-202.62"/>
<g id="a_edge14&#45;headlabel"><a xlink:href="dir_000001_000135.html" target="_top" xlink:title="6">
<text text-anchor="middle" x="310.68" y="-201.61" font-family="Helvetica,sans-Serif" font-size="10.00">6</text>
</a>
</g>
</g>
<!-- dir_b778c3f297ab88300258a2935792c8cc -->
<g id="node4" class="node">
<title>dir_b778c3f297ab88300258a2935792c8cc</title>
<g id="a_node4"><a xlink:href="dir_b778c3f297ab88300258a2935792c8cc.html" target="_top" xlink:title="dolphin">
<polygon fill="white" stroke="black" points="271,-52 217,-52 217,-16 271,-16 271,-52"/>
<text text-anchor="middle" x="244" y="-31.5" font-family="Helvetica,sans-Serif" font-size="10.00">dolphin</text>
</a>
</g>
</g>
<!-- dir_65d600aab5b7177ee2dccfac7c04bb8a&#45;&gt;dir_b778c3f297ab88300258a2935792c8cc -->
<g id="edge8" class="edge">
<title>dir_65d600aab5b7177ee2dccfac7c04bb8a&#45;&gt;dir_b778c3f297ab88300258a2935792c8cc</title>
<path fill="none" stroke="black" d="M351.92,-159.7C343.66,-140.81 328.72,-110.28 310,-88 300.81,-77.06 289.08,-66.79 278.07,-58.25"/>
<polygon fill="black" stroke="black" points="279.94,-55.28 269.84,-52.08 275.74,-60.88 279.94,-55.28"/>
<g id="a_edge8&#45;headlabel"><a xlink:href="dir_000002_000055.html" target="_top" xlink:title="2">
<text text-anchor="middle" x="284.52" y="-52.66" font-family="Helvetica,sans-Serif" font-size="10.00">2</text>
</a>
</g>
</g>
<!-- dir_cc3ad1aed4be3f446fdd7af78322f5bf -->
<g id="node3" class="node">
<title>dir_cc3ad1aed4be3f446fdd7af78322f5bf</title>
<g id="a_node3"><a xlink:href="dir_cc3ad1aed4be3f446fdd7af78322f5bf.html" target="_top" xlink:title="d">
<polygon fill="white" stroke="red" points="270,-556 216,-556 216,-520 270,-520 270,-556"/>
<text text-anchor="middle" x="243" y="-535.5" font-family="Helvetica,sans-Serif" font-size="10.00">d</text>
</a>
</g>
</g>
<!-- dir_cc3ad1aed4be3f446fdd7af78322f5bf&#45;&gt;dir_b778c3f297ab88300258a2935792c8cc -->
<g id="edge30" class="edge">
<title>dir_cc3ad1aed4be3f446fdd7af78322f5bf&#45;&gt;dir_b778c3f297ab88300258a2935792c8cc</title>
<path fill="none" stroke="black" d="M215.74,-532.97C155.63,-522.39 17,-487.91 17,-395 17,-395 17,-395 17,-249 17,-209.2 6.58,-194.17 27,-160 41.42,-135.87 61.32,-145.86 79,-124 89.9,-110.52 81.41,-99.91 94,-88 124.95,-58.71 173.09,-45.47 206.45,-39.58"/>
<polygon fill="black" stroke="black" points="207.41,-42.97 216.72,-37.91 206.29,-36.06 207.41,-42.97"/>
<g id="a_edge30&#45;headlabel"><a xlink:href="dir_000003_000055.html" target="_top" xlink:title="15">
<text text-anchor="middle" x="204.31" y="-43.85" font-family="Helvetica,sans-Serif" font-size="10.00">15</text>
</a>
</g>
</g>
<!-- dir_33eed416d00e84841337708fc7e11b48 -->
<g id="node6" class="node">
<title>dir_33eed416d00e84841337708fc7e11b48</title>
<g id="a_node6"><a xlink:href="dir_33eed416d00e84841337708fc7e11b48.html" target="_top" xlink:title="f">
<polygon fill="white" stroke="red" points="242,-412 188,-412 188,-376 242,-376 242,-412"/>
<text text-anchor="middle" x="215" y="-391.5" font-family="Helvetica,sans-Serif" font-size="10.00">f</text>
</a>
</g>
</g>
<!-- dir_cc3ad1aed4be3f446fdd7af78322f5bf&#45;&gt;dir_33eed416d00e84841337708fc7e11b48 -->
<g id="edge28" class="edge">
<title>dir_cc3ad1aed4be3f446fdd7af78322f5bf&#45;&gt;dir_33eed416d00e84841337708fc7e11b48</title>
<path fill="none" stroke="black" d="M235.04,-519.87C227.71,-495.67 218.65,-451.21 214.94,-422.39"/>
<polygon fill="black" stroke="black" points="218.39,-421.74 213.8,-412.19 211.43,-422.52 218.39,-421.74"/>
<g id="a_edge28&#45;headlabel"><a xlink:href="dir_000003_000057.html" target="_top" xlink:title="8">
<text text-anchor="middle" x="221.61" y="-422.49" font-family="Helvetica,sans-Serif" font-size="10.00">8</text>
</a>
</g>
</g>
<!-- dir_a279ed5c4175293b5b2f0cc1c8e2c220 -->
<g id="node7" class="node">
<title>dir_a279ed5c4175293b5b2f0cc1c8e2c220</title>
<g id="a_node7"><a xlink:href="dir_a279ed5c4175293b5b2f0cc1c8e2c220.html" target="_top" xlink:title="gx">
<polygon fill="white" stroke="black" points="90,-196 36,-196 36,-160 90,-160 90,-196"/>
<text text-anchor="middle" x="63" y="-175.5" font-family="Helvetica,sans-Serif" font-size="10.00">gx</text>
</a>
</g>
</g>
<!-- dir_cc3ad1aed4be3f446fdd7af78322f5bf&#45;&gt;dir_a279ed5c4175293b5b2f0cc1c8e2c220 -->
<g id="edge31" class="edge">
<title>dir_cc3ad1aed4be3f446fdd7af78322f5bf&#45;&gt;dir_a279ed5c4175293b5b2f0cc1c8e2c220</title>
<path fill="none" stroke="black" d="M215.66,-529.39C165.31,-513.52 63,-471.82 63,-395 63,-395 63,-395 63,-321 63,-281 63,-234.65 63,-206.08"/>
<polygon fill="black" stroke="black" points="66.5,-206.05 63,-196.05 59.5,-206.05 66.5,-206.05"/>
<g id="a_edge31&#45;headlabel"><a xlink:href="dir_000003_000061.html" target="_top" xlink:title="1">
<text text-anchor="middle" x="69.34" y="-207.14" font-family="Helvetica,sans-Serif" font-size="10.00">1</text>
</a>
</g>
</g>
<!-- dir_4f0979a7f5e3194619cde56505e372d8 -->
<g id="node8" class="node">
<title>dir_4f0979a7f5e3194619cde56505e372d8</title>
<g id="a_node8"><a xlink:href="dir_4f0979a7f5e3194619cde56505e372d8.html" target="_top" xlink:title="JSystem">
<polygon fill="white" stroke="red" points="252.5,-268 197.5,-268 197.5,-232 252.5,-232 252.5,-268"/>
<text text-anchor="middle" x="225" y="-247.5" font-family="Helvetica,sans-Serif" font-size="10.00">JSystem</text>
</a>
</g>
</g>
<!-- dir_cc3ad1aed4be3f446fdd7af78322f5bf&#45;&gt;dir_4f0979a7f5e3194619cde56505e372d8 -->
<g id="edge25" class="edge">
<title>dir_cc3ad1aed4be3f446fdd7af78322f5bf&#45;&gt;dir_4f0979a7f5e3194619cde56505e372d8</title>
<path fill="none" stroke="black" d="M230.84,-519.83C215.24,-496.66 189,-453.48 179,-412 167.45,-364.11 191.35,-309.07 208.83,-277.33"/>
<polygon fill="black" stroke="black" points="212.09,-278.69 214,-268.27 206,-275.22 212.09,-278.69"/>
<g id="a_edge25&#45;headlabel"><a xlink:href="dir_000003_000062.html" target="_top" xlink:title="25">
<text text-anchor="middle" x="212.77" y="-280.72" font-family="Helvetica,sans-Serif" font-size="10.00">25</text>
</a>
</g>
</g>
<!-- dir_6bdfff2c28f90f381b6da5bee088878b -->
<g id="node9" class="node">
<title>dir_6bdfff2c28f90f381b6da5bee088878b</title>
<g id="a_node9"><a xlink:href="dir_6bdfff2c28f90f381b6da5bee088878b.html" target="_top" xlink:title="m_Do">
<polygon fill="white" stroke="red" points="303,-484 249,-484 249,-448 303,-448 303,-484"/>
<text text-anchor="middle" x="276" y="-463.5" font-family="Helvetica,sans-Serif" font-size="10.00">m_Do</text>
</a>
</g>
</g>
<!-- dir_cc3ad1aed4be3f446fdd7af78322f5bf&#45;&gt;dir_6bdfff2c28f90f381b6da5bee088878b -->
<g id="edge29" class="edge">
<title>dir_cc3ad1aed4be3f446fdd7af78322f5bf&#45;&gt;dir_6bdfff2c28f90f381b6da5bee088878b</title>
<path fill="none" stroke="black" d="M245.24,-519.7C248.21,-511.64 252.59,-501.89 257.2,-492.98"/>
<polygon fill="black" stroke="black" points="260.33,-494.56 262.04,-484.1 254.18,-491.21 260.33,-494.56"/>
<g id="a_edge29&#45;headlabel"><a xlink:href="dir_000003_000124.html" target="_top" xlink:title="4">
<text text-anchor="middle" x="261.1" y="-496.58" font-family="Helvetica,sans-Serif" font-size="10.00">4</text>
</a>
</g>
</g>
<!-- dir_76ec03b56887a0e8201bcb48abf48018 -->
<g id="node13" class="node">
<title>dir_76ec03b56887a0e8201bcb48abf48018</title>
<g id="a_node13"><a xlink:href="dir_76ec03b56887a0e8201bcb48abf48018.html" target="_top" xlink:title="SComponent">
<polygon fill="white" stroke="red" points="393.5,-340 320.5,-340 320.5,-304 393.5,-304 393.5,-340"/>
<text text-anchor="middle" x="357" y="-319.5" font-family="Helvetica,sans-Serif" font-size="10.00">SComponent</text>
</a>
</g>
</g>
<!-- dir_cc3ad1aed4be3f446fdd7af78322f5bf&#45;&gt;dir_76ec03b56887a0e8201bcb48abf48018 -->
<g id="edge26" class="edge">
<title>dir_cc3ad1aed4be3f446fdd7af78322f5bf&#45;&gt;dir_76ec03b56887a0e8201bcb48abf48018</title>
<path fill="none" stroke="black" d="M265.37,-519.81C278.1,-510.76 293.19,-498.52 303,-484 330.86,-442.77 341.58,-384.55 348.34,-350.6"/>
<polygon fill="black" stroke="black" points="351.83,-350.97 350.4,-340.47 344.97,-349.57 351.83,-350.97"/>
<g id="a_edge26&#45;headlabel"><a xlink:href="dir_000003_000137.html" target="_top" xlink:title="28">
<text text-anchor="middle" x="353.89" y="-352.56" font-family="Helvetica,sans-Serif" font-size="10.00">28</text>
</a>
</g>
</g>
<!-- dir_81939fb769658ab66ba54ec390580a1a -->
<g id="node16" class="node">
<title>dir_81939fb769658ab66ba54ec390580a1a</title>
<g id="a_node16"><a xlink:href="dir_81939fb769658ab66ba54ec390580a1a.html" target="_top" xlink:title="Z2AudioLib">
<polygon fill="white" stroke="red" points="426,-412 360,-412 360,-376 426,-376 426,-412"/>
<text text-anchor="middle" x="393" y="-391.5" font-family="Helvetica,sans-Serif" font-size="10.00">Z2AudioLib</text>
</a>
</g>
</g>
<!-- dir_cc3ad1aed4be3f446fdd7af78322f5bf&#45;&gt;dir_81939fb769658ab66ba54ec390580a1a -->
<g id="edge27" class="edge">
<title>dir_cc3ad1aed4be3f446fdd7af78322f5bf&#45;&gt;dir_81939fb769658ab66ba54ec390580a1a</title>
<path fill="none" stroke="black" d="M270.32,-528.18C292.88,-519.77 324.56,-505.22 346,-484 363.77,-466.42 376.36,-440.69 384,-421.42"/>
<polygon fill="black" stroke="black" points="387.3,-422.59 387.55,-412 380.75,-420.12 387.3,-422.59"/>
<g id="a_edge27&#45;headlabel"><a xlink:href="dir_000003_000142.html" target="_top" xlink:title="4">
<text text-anchor="middle" x="388.69" y="-424.46" font-family="Helvetica,sans-Serif" font-size="10.00">4</text>
</a>
</g>
</g>
<!-- dir_b2a98ef39d7a74ac1f5af67b89b07b4d -->
<g id="node5" class="node">
<title>dir_b2a98ef39d7a74ac1f5af67b89b07b4d</title>
<g id="a_node5"><a xlink:href="dir_b2a98ef39d7a74ac1f5af67b89b07b4d.html" target="_top" xlink:title="dvd">
<polygon fill="white" stroke="black" points="294,-124 240,-124 240,-88 294,-88 294,-124"/>
<text text-anchor="middle" x="267" y="-103.5" font-family="Helvetica,sans-Serif" font-size="10.00">dvd</text>
</a>
</g>
</g>
<!-- dir_b2a98ef39d7a74ac1f5af67b89b07b4d&#45;&gt;dir_b778c3f297ab88300258a2935792c8cc -->
<g id="edge16" class="edge">
<title>dir_b2a98ef39d7a74ac1f5af67b89b07b4d&#45;&gt;dir_b778c3f297ab88300258a2935792c8cc</title>
<path fill="none" stroke="black" d="M261.31,-87.7C258.75,-79.9 255.67,-70.51 252.82,-61.83"/>
<polygon fill="black" stroke="black" points="256.07,-60.51 249.62,-52.1 249.42,-62.7 256.07,-60.51"/>
<g id="a_edge16&#45;headlabel"><a xlink:href="dir_000056_000055.html" target="_top" xlink:title="1">
<text text-anchor="middle" x="259.89" y="-60.54" font-family="Helvetica,sans-Serif" font-size="10.00">1</text>
</a>
</g>
</g>
<!-- dir_33eed416d00e84841337708fc7e11b48&#45;&gt;dir_cc3ad1aed4be3f446fdd7af78322f5bf -->
<g id="edge12" class="edge">
<title>dir_33eed416d00e84841337708fc7e11b48&#45;&gt;dir_cc3ad1aed4be3f446fdd7af78322f5bf</title>
<path fill="none" stroke="black" d="M222.98,-412.19C230.31,-436.42 239.37,-480.89 243.07,-509.68"/>
<polygon fill="black" stroke="black" points="239.62,-510.32 244.21,-519.87 246.57,-509.54 239.62,-510.32"/>
<g id="a_edge12&#45;headlabel"><a xlink:href="dir_000057_000003.html" target="_top" xlink:title="1">
<text text-anchor="middle" x="236.4" y="-504.57" font-family="Helvetica,sans-Serif" font-size="10.00">1</text>
</a>
</g>
</g>
<!-- dir_33eed416d00e84841337708fc7e11b48&#45;&gt;dir_b778c3f297ab88300258a2935792c8cc -->
<g id="edge9" class="edge">
<title>dir_33eed416d00e84841337708fc7e11b48&#45;&gt;dir_b778c3f297ab88300258a2935792c8cc</title>
<path fill="none" stroke="black" d="M200.65,-375.76C171.13,-338.27 107.3,-245.83 119,-160 123.49,-127.09 117.93,-113.67 139,-88 156.38,-66.82 184.37,-53.29 207.09,-45.2"/>
<polygon fill="black" stroke="black" points="208.4,-48.45 216.78,-41.96 206.18,-41.81 208.4,-48.45"/>
<g id="a_edge9&#45;headlabel"><a xlink:href="dir_000057_000055.html" target="_top" xlink:title="13">
<text text-anchor="middle" x="205.89" y="-49.78" font-family="Helvetica,sans-Serif" font-size="10.00">13</text>
</a>
</g>
</g>
<!-- dir_33eed416d00e84841337708fc7e11b48&#45;&gt;dir_4f0979a7f5e3194619cde56505e372d8 -->
<g id="edge10" class="edge">
<title>dir_33eed416d00e84841337708fc7e11b48&#45;&gt;dir_4f0979a7f5e3194619cde56505e372d8</title>
<path fill="none" stroke="black" d="M216.21,-375.87C217.91,-351.67 221.04,-307.21 223.07,-278.39"/>
<polygon fill="black" stroke="black" points="226.58,-278.41 223.79,-268.19 219.6,-277.92 226.58,-278.41"/>
<g id="a_edge10&#45;headlabel"><a xlink:href="dir_000057_000062.html" target="_top" xlink:title="4">
<text text-anchor="middle" x="229.16" y="-279.7" font-family="Helvetica,sans-Serif" font-size="10.00">4</text>
</a>
</g>
</g>
<!-- dir_33eed416d00e84841337708fc7e11b48&#45;&gt;dir_76ec03b56887a0e8201bcb48abf48018 -->
<g id="edge11" class="edge">
<title>dir_33eed416d00e84841337708fc7e11b48&#45;&gt;dir_76ec03b56887a0e8201bcb48abf48018</title>
<path fill="none" stroke="black" d="M242.13,-376.76C261.66,-366.58 288.32,-353.38 311.09,-342.61"/>
<polygon fill="black" stroke="black" points="312.69,-345.72 320.25,-338.31 309.71,-339.39 312.69,-345.72"/>
<g id="a_edge11&#45;headlabel"><a xlink:href="dir_000057_000137.html" target="_top" xlink:title="35">
<text text-anchor="middle" x="310.64" y="-347.32" font-family="Helvetica,sans-Serif" font-size="10.00">35</text>
</a>
</g>
</g>
<!-- dir_a279ed5c4175293b5b2f0cc1c8e2c220&#45;&gt;dir_b778c3f297ab88300258a2935792c8cc -->
<g id="edge34" class="edge">
<title>dir_a279ed5c4175293b5b2f0cc1c8e2c220&#45;&gt;dir_b778c3f297ab88300258a2935792c8cc</title>
<path fill="none" stroke="black" d="M73.2,-159.83C86.97,-137.08 111.25,-98.59 124,-88 148.44,-67.71 181.87,-53.79 207.24,-45.33"/>
<polygon fill="black" stroke="black" points="208.42,-48.63 216.88,-42.25 206.29,-41.96 208.42,-48.63"/>
<g id="a_edge34&#45;headlabel"><a xlink:href="dir_000061_000055.html" target="_top" xlink:title="1">
<text text-anchor="middle" x="205.86" y="-49.93" font-family="Helvetica,sans-Serif" font-size="10.00">1</text>
</a>
</g>
</g>
<!-- dir_4f0979a7f5e3194619cde56505e372d8&#45;&gt;dir_65d600aab5b7177ee2dccfac7c04bb8a -->
<g id="edge35" class="edge">
<title>dir_4f0979a7f5e3194619cde56505e372d8&#45;&gt;dir_65d600aab5b7177ee2dccfac7c04bb8a</title>
<path fill="none" stroke="black" d="M252.76,-234.5C273.02,-223.91 300.67,-209.47 322.68,-197.97"/>
<polygon fill="black" stroke="black" points="324.49,-200.98 331.73,-193.25 321.25,-194.77 324.49,-200.98"/>
<g id="a_edge35&#45;headlabel"><a xlink:href="dir_000062_000002.html" target="_top" xlink:title="1">
<text text-anchor="middle" x="322.61" y="-202.66" font-family="Helvetica,sans-Serif" font-size="10.00">1</text>
</a>
</g>
</g>
<!-- dir_4f0979a7f5e3194619cde56505e372d8&#45;&gt;dir_b778c3f297ab88300258a2935792c8cc -->
<g id="edge39" class="edge">
<title>dir_4f0979a7f5e3194619cde56505e372d8&#45;&gt;dir_b778c3f297ab88300258a2935792c8cc</title>
<path fill="none" stroke="black" d="M224.5,-231.98C223.9,-202.5 223.72,-140.08 231,-88 232.2,-79.42 234.2,-70.21 236.28,-61.92"/>
<polygon fill="black" stroke="black" points="239.72,-62.58 238.89,-52.01 232.95,-60.79 239.72,-62.58"/>
<g id="a_edge39&#45;headlabel"><a xlink:href="dir_000062_000055.html" target="_top" xlink:title="55">
<text text-anchor="middle" x="241.55" y="-64.28" font-family="Helvetica,sans-Serif" font-size="10.00">55</text>
</a>
</g>
</g>
<!-- dir_4f0979a7f5e3194619cde56505e372d8&#45;&gt;dir_b2a98ef39d7a74ac1f5af67b89b07b4d -->
<g id="edge38" class="edge">
<title>dir_4f0979a7f5e3194619cde56505e372d8&#45;&gt;dir_b2a98ef39d7a74ac1f5af67b89b07b4d</title>
<path fill="none" stroke="black" d="M229.94,-231.92C235.14,-214 243.58,-185 251,-160 253.53,-151.48 256.32,-142.21 258.85,-133.83"/>
<polygon fill="black" stroke="black" points="262.22,-134.76 261.77,-124.17 255.53,-132.73 262.22,-134.76"/>
<g id="a_edge38&#45;headlabel"><a xlink:href="dir_000062_000056.html" target="_top" xlink:title="2">
<text text-anchor="middle" x="263.9" y="-136.52" font-family="Helvetica,sans-Serif" font-size="10.00">2</text>
</a>
</g>
</g>
<!-- dir_4f0979a7f5e3194619cde56505e372d8&#45;&gt;dir_a279ed5c4175293b5b2f0cc1c8e2c220 -->
<g id="edge37" class="edge">
<title>dir_4f0979a7f5e3194619cde56505e372d8&#45;&gt;dir_a279ed5c4175293b5b2f0cc1c8e2c220</title>
<path fill="none" stroke="black" d="M197.15,-236.97C170.25,-225.34 129.34,-207.67 99.77,-194.89"/>
<polygon fill="black" stroke="black" points="100.78,-191.51 90.22,-190.76 98.01,-197.94 100.78,-191.51"/>
<g id="a_edge37&#45;headlabel"><a xlink:href="dir_000062_000061.html" target="_top" xlink:title="5">
<text text-anchor="middle" x="105.21" y="-187.83" font-family="Helvetica,sans-Serif" font-size="10.00">5</text>
</a>
</g>
</g>
<!-- dir_4f0979a7f5e3194619cde56505e372d8&#45;&gt;dir_7b371d9fdb0359ac564866f88df60f77 -->
<g id="edge36" class="edge">
<title>dir_4f0979a7f5e3194619cde56505e372d8&#45;&gt;dir_7b371d9fdb0359ac564866f88df60f77</title>
<path fill="none" stroke="black" d="M240.33,-231.7C247.76,-223.3 256.82,-213.07 264.98,-203.86"/>
<polygon fill="black" stroke="black" points="267.84,-205.91 271.85,-196.1 262.6,-201.27 267.84,-205.91"/>
<g id="a_edge36&#45;headlabel"><a xlink:href="dir_000062_000135.html" target="_top" xlink:title="3">
<text text-anchor="middle" x="267.58" y="-207.98" font-family="Helvetica,sans-Serif" font-size="10.00">3</text>
</a>
</g>
</g>
<!-- dir_fbee22fe0c165caa3600c214f3fde6f6 -->
<g id="node12" class="node">
<title>dir_fbee22fe0c165caa3600c214f3fde6f6</title>
<g id="a_node12"><a xlink:href="dir_fbee22fe0c165caa3600c214f3fde6f6.html" target="_top" xlink:title="pad">
<polygon fill="white" stroke="black" points="182,-196 128,-196 128,-160 182,-160 182,-196"/>
<text text-anchor="middle" x="155" y="-175.5" font-family="Helvetica,sans-Serif" font-size="10.00">pad</text>
</a>
</g>
</g>
<!-- dir_4f0979a7f5e3194619cde56505e372d8&#45;&gt;dir_fbee22fe0c165caa3600c214f3fde6f6 -->
<g id="edge40" class="edge">
<title>dir_4f0979a7f5e3194619cde56505e372d8&#45;&gt;dir_fbee22fe0c165caa3600c214f3fde6f6</title>
<path fill="none" stroke="black" d="M207.7,-231.7C199.14,-223.14 188.66,-212.66 179.3,-203.3"/>
<polygon fill="black" stroke="black" points="181.65,-200.7 172.1,-196.1 176.7,-205.65 181.65,-200.7"/>
<g id="a_edge40&#45;headlabel"><a xlink:href="dir_000062_000136.html" target="_top" xlink:title="1">
<text text-anchor="middle" x="186.2" y="-198.73" font-family="Helvetica,sans-Serif" font-size="10.00">1</text>
</a>
</g>
</g>
<!-- dir_f31be668b848c94749c2480e14c4b615 -->
<g id="node15" class="node">
<title>dir_f31be668b848c94749c2480e14c4b615</title>
<g id="a_node15"><a xlink:href="dir_f31be668b848c94749c2480e14c4b615.html" target="_top" xlink:title="vi">
<polygon fill="white" stroke="black" points="202,-124 148,-124 148,-88 202,-88 202,-124"/>
<text text-anchor="middle" x="175" y="-103.5" font-family="Helvetica,sans-Serif" font-size="10.00">vi</text>
</a>
</g>
</g>
<!-- dir_4f0979a7f5e3194619cde56505e372d8&#45;&gt;dir_f31be668b848c94749c2480e14c4b615 -->
<g id="edge41" class="edge">
<title>dir_4f0979a7f5e3194619cde56505e372d8&#45;&gt;dir_f31be668b848c94749c2480e14c4b615</title>
<path fill="none" stroke="black" d="M218.97,-231.87C210.37,-207.46 194.52,-162.43 184.38,-133.64"/>
<polygon fill="black" stroke="black" points="187.68,-132.46 181.05,-124.19 181.07,-134.78 187.68,-132.46"/>
<g id="a_edge41&#45;headlabel"><a xlink:href="dir_000062_000141.html" target="_top" xlink:title="1">
<text text-anchor="middle" x="191.55" y="-132.41" font-family="Helvetica,sans-Serif" font-size="10.00">1</text>
</a>
</g>
</g>
<!-- dir_6bdfff2c28f90f381b6da5bee088878b&#45;&gt;dir_cc3ad1aed4be3f446fdd7af78322f5bf -->
<g id="edge19" class="edge">
<title>dir_6bdfff2c28f90f381b6da5bee088878b&#45;&gt;dir_cc3ad1aed4be3f446fdd7af78322f5bf</title>
<path fill="none" stroke="black" d="M273.83,-484.1C270.89,-492.13 266.52,-501.87 261.91,-510.8"/>
<polygon fill="black" stroke="black" points="258.77,-509.24 257.07,-519.7 264.92,-512.58 258.77,-509.24"/>
<g id="a_edge19&#45;headlabel"><a xlink:href="dir_000124_000003.html" target="_top" xlink:title="2">
<text text-anchor="middle" x="257.99" y="-502.22" font-family="Helvetica,sans-Serif" font-size="10.00">2</text>
</a>
</g>
</g>
<!-- dir_6bdfff2c28f90f381b6da5bee088878b&#45;&gt;dir_b778c3f297ab88300258a2935792c8cc -->
<g id="edge22" class="edge">
<title>dir_6bdfff2c28f90f381b6da5bee088878b&#45;&gt;dir_b778c3f297ab88300258a2935792c8cc</title>
<path fill="none" stroke="black" d="M278.17,-447.81C283.04,-411.27 295.72,-327.3 312,-304 328.94,-279.74 349.42,-291.02 368,-268 399.08,-229.5 413.45,-205.91 395,-160 374.18,-108.18 318.01,-71.43 280.36,-51.73"/>
<polygon fill="black" stroke="black" points="281.72,-48.49 271.22,-47.09 278.55,-54.74 281.72,-48.49"/>
<g id="a_edge22&#45;headlabel"><a xlink:href="dir_000124_000055.html" target="_top" xlink:title="3">
<text text-anchor="middle" x="286.21" y="-45.09" font-family="Helvetica,sans-Serif" font-size="10.00">3</text>
</a>
</g>
</g>
<!-- dir_6bdfff2c28f90f381b6da5bee088878b&#45;&gt;dir_a279ed5c4175293b5b2f0cc1c8e2c220 -->
<g id="edge24" class="edge">
<title>dir_6bdfff2c28f90f381b6da5bee088878b&#45;&gt;dir_a279ed5c4175293b5b2f0cc1c8e2c220</title>
<path fill="none" stroke="black" d="M248.84,-453.47C228.43,-444.05 200.42,-429.46 179,-412 146.49,-385.5 138.69,-376.48 118,-340 93.14,-296.19 77,-239.3 68.99,-206.2"/>
<polygon fill="black" stroke="black" points="72.36,-205.27 66.67,-196.33 65.55,-206.87 72.36,-205.27"/>
<g id="a_edge24&#45;headlabel"><a xlink:href="dir_000124_000061.html" target="_top" xlink:title="1">
<text text-anchor="middle" x="75.95" y="-205.62" font-family="Helvetica,sans-Serif" font-size="10.00">1</text>
</a>
</g>
</g>
<!-- dir_6bdfff2c28f90f381b6da5bee088878b&#45;&gt;dir_4f0979a7f5e3194619cde56505e372d8 -->
<g id="edge20" class="edge">
<title>dir_6bdfff2c28f90f381b6da5bee088878b&#45;&gt;dir_4f0979a7f5e3194619cde56505e372d8</title>
<path fill="none" stroke="black" d="M271.91,-447.85C263.07,-410.75 242.11,-322.81 231.46,-278.1"/>
<polygon fill="black" stroke="black" points="234.83,-277.15 229.11,-268.23 228.02,-278.77 234.83,-277.15"/>
<g id="a_edge20&#45;headlabel"><a xlink:href="dir_000124_000062.html" target="_top" xlink:title="10">
<text text-anchor="middle" x="238.42" y="-277.49" font-family="Helvetica,sans-Serif" font-size="10.00">10</text>
</a>
</g>
</g>
<!-- dir_6bdfff2c28f90f381b6da5bee088878b&#45;&gt;dir_7b371d9fdb0359ac564866f88df60f77 -->
<g id="edge23" class="edge">
<title>dir_6bdfff2c28f90f381b6da5bee088878b&#45;&gt;dir_7b371d9fdb0359ac564866f88df60f77</title>
<path fill="none" stroke="black" d="M276.66,-447.97C278.49,-400.29 283.69,-265.18 285.94,-206.63"/>
<polygon fill="black" stroke="black" points="289.45,-206.43 286.33,-196.31 282.45,-206.16 289.45,-206.43"/>
<g id="a_edge23&#45;headlabel"><a xlink:href="dir_000124_000135.html" target="_top" xlink:title="2">
<text text-anchor="middle" x="292.15" y="-207.63" font-family="Helvetica,sans-Serif" font-size="10.00">2</text>
</a>
</g>
</g>
<!-- dir_6bdfff2c28f90f381b6da5bee088878b&#45;&gt;dir_76ec03b56887a0e8201bcb48abf48018 -->
<g id="edge21" class="edge">
<title>dir_6bdfff2c28f90f381b6da5bee088878b&#45;&gt;dir_76ec03b56887a0e8201bcb48abf48018</title>
<path fill="none" stroke="black" d="M285.77,-447.87C299.82,-423.24 325.83,-377.64 342.23,-348.88"/>
<polygon fill="black" stroke="black" points="345.28,-350.61 347.19,-340.19 339.2,-347.14 345.28,-350.61"/>
<g id="a_edge21&#45;headlabel"><a xlink:href="dir_000124_000137.html" target="_top" xlink:title="1">
<text text-anchor="middle" x="345.97" y="-352.64" font-family="Helvetica,sans-Serif" font-size="10.00">1</text>
</a>
</g>
</g>
<!-- dir_6bdfff2c28f90f381b6da5bee088878b&#45;&gt;dir_81939fb769658ab66ba54ec390580a1a -->
<g id="edge18" class="edge">
<title>dir_6bdfff2c28f90f381b6da5bee088878b&#45;&gt;dir_81939fb769658ab66ba54ec390580a1a</title>
<path fill="none" stroke="black" d="M303.14,-448.76C318.77,-439.41 338.65,-427.52 355.74,-417.29"/>
<polygon fill="black" stroke="black" points="357.59,-420.26 364.38,-412.12 354,-414.25 357.59,-420.26"/>
<g id="a_edge18&#45;headlabel"><a xlink:href="dir_000124_000142.html" target="_top" xlink:title="2">
<text text-anchor="middle" x="355.97" y="-422.04" font-family="Helvetica,sans-Serif" font-size="10.00">2</text>
</a>
</g>
</g>
<!-- dir_b056c41af2f37e34bf043d25c5f2cbe4 -->
<g id="node10" class="node">
<title>dir_b056c41af2f37e34bf043d25c5f2cbe4</title>
<g id="a_node10"><a xlink:href="dir_b056c41af2f37e34bf043d25c5f2cbe4.html" target="_top" xlink:title="msl_c">
<polygon fill="white" stroke="black" points="70,-124 16,-124 16,-88 70,-88 70,-124"/>
<text text-anchor="middle" x="43" y="-103.5" font-family="Helvetica,sans-Serif" font-size="10.00">msl_c</text>
</a>
</g>
</g>
<!-- dir_b056c41af2f37e34bf043d25c5f2cbe4&#45;&gt;dir_b778c3f297ab88300258a2935792c8cc -->
<g id="edge15" class="edge">
<title>dir_b056c41af2f37e34bf043d25c5f2cbe4&#45;&gt;dir_b778c3f297ab88300258a2935792c8cc</title>
<path fill="none" stroke="black" d="M70.24,-93.38C74.81,-91.52 79.52,-89.67 84,-88 125.88,-72.41 174.72,-56.56 207.33,-46.31"/>
<polygon fill="black" stroke="black" points="208.4,-49.64 216.9,-43.31 206.31,-42.96 208.4,-49.64"/>
<g id="a_edge15&#45;headlabel"><a xlink:href="dir_000134_000055.html" target="_top" xlink:title="2">
<text text-anchor="middle" x="205.82" y="-50.92" font-family="Helvetica,sans-Serif" font-size="10.00">2</text>
</a>
</g>
</g>
<!-- dir_7b371d9fdb0359ac564866f88df60f77&#45;&gt;dir_b778c3f297ab88300258a2935792c8cc -->
<g id="edge33" class="edge">
<title>dir_7b371d9fdb0359ac564866f88df60f77&#45;&gt;dir_b778c3f297ab88300258a2935792c8cc</title>
<path fill="none" stroke="black" d="M295.78,-159.89C303.97,-141.43 313.49,-111.51 303,-88 297.83,-76.41 288.73,-66.29 279.21,-58.09"/>
<polygon fill="black" stroke="black" points="281.17,-55.18 271.18,-51.66 276.8,-60.65 281.17,-55.18"/>
<g id="a_edge33&#45;headlabel"><a xlink:href="dir_000135_000055.html" target="_top" xlink:title="1">
<text text-anchor="middle" x="285.76" y="-52.71" font-family="Helvetica,sans-Serif" font-size="10.00">1</text>
</a>
</g>
</g>
<!-- dir_7b371d9fdb0359ac564866f88df60f77&#45;&gt;dir_b2a98ef39d7a74ac1f5af67b89b07b4d -->
<g id="edge32" class="edge">
<title>dir_7b371d9fdb0359ac564866f88df60f77&#45;&gt;dir_b2a98ef39d7a74ac1f5af67b89b07b4d</title>
<path fill="none" stroke="black" d="M282.06,-159.7C279.83,-151.9 277.15,-142.51 274.67,-133.83"/>
<polygon fill="black" stroke="black" points="278,-132.76 271.89,-124.1 271.27,-134.68 278,-132.76"/>
<g id="a_edge32&#45;headlabel"><a xlink:href="dir_000135_000056.html" target="_top" xlink:title="1">
<text text-anchor="middle" x="281.72" y="-132.93" font-family="Helvetica,sans-Serif" font-size="10.00">1</text>
</a>
</g>
</g>
<!-- dir_76ec03b56887a0e8201bcb48abf48018&#45;&gt;dir_cc3ad1aed4be3f446fdd7af78322f5bf -->
<g id="edge7" class="edge">
<title>dir_76ec03b56887a0e8201bcb48abf48018&#45;&gt;dir_cc3ad1aed4be3f446fdd7af78322f5bf</title>
<path fill="none" stroke="black" d="M361.05,-340.47C361.71,-371.75 351.87,-438.31 321,-484 310.54,-499.49 294.07,-512.38 278.83,-521.57"/>
<polygon fill="black" stroke="black" points="277.03,-518.57 270.06,-526.55 280.48,-524.66 277.03,-518.57"/>
<g id="a_edge7&#45;headlabel"><a xlink:href="dir_000137_000003.html" target="_top" xlink:title="2">
<text text-anchor="middle" x="278.76" y="-511.83" font-family="Helvetica,sans-Serif" font-size="10.00">2</text>
</a>
</g>
</g>
<!-- dir_76ec03b56887a0e8201bcb48abf48018&#45;&gt;dir_b778c3f297ab88300258a2935792c8cc -->
<g id="edge6" class="edge">
<title>dir_76ec03b56887a0e8201bcb48abf48018&#45;&gt;dir_b778c3f297ab88300258a2935792c8cc</title>
<path fill="none" stroke="black" d="M375.78,-303.64C384.94,-294.05 395.2,-281.39 401,-268 432.83,-194.49 457.25,-152.68 410,-88 380.66,-47.83 320.53,-37.4 281.26,-35.07"/>
<polygon fill="black" stroke="black" points="281.17,-31.57 271.03,-34.62 280.87,-38.56 281.17,-31.57"/>
<g id="a_edge6&#45;headlabel"><a xlink:href="dir_000137_000055.html" target="_top" xlink:title="2">
<text text-anchor="middle" x="284.89" y="-26.39" font-family="Helvetica,sans-Serif" font-size="10.00">2</text>
</a>
</g>
</g>
<!-- dir_76ec03b56887a0e8201bcb48abf48018&#45;&gt;dir_33eed416d00e84841337708fc7e11b48 -->
<g id="edge4" class="edge">
<title>dir_76ec03b56887a0e8201bcb48abf48018&#45;&gt;dir_33eed416d00e84841337708fc7e11b48</title>
<path fill="none" stroke="black" d="M328.16,-340.12C305.95,-351.67 275.25,-366.76 251.37,-377.87"/>
<polygon fill="black" stroke="black" points="249.87,-374.7 242.25,-382.06 252.8,-381.06 249.87,-374.7"/>
<g id="a_edge4&#45;headlabel"><a xlink:href="dir_000137_000057.html" target="_top" xlink:title="2">
<text text-anchor="middle" x="251.95" y="-368.12" font-family="Helvetica,sans-Serif" font-size="10.00">2</text>
</a>
</g>
</g>
<!-- dir_76ec03b56887a0e8201bcb48abf48018&#45;&gt;dir_4f0979a7f5e3194619cde56505e372d8 -->
<g id="edge5" class="edge">
<title>dir_76ec03b56887a0e8201bcb48abf48018&#45;&gt;dir_4f0979a7f5e3194619cde56505e372d8</title>
<path fill="none" stroke="black" d="M324.71,-303.88C305.73,-293.81 281.67,-281.05 261.94,-270.59"/>
<polygon fill="black" stroke="black" points="263.41,-267.41 252.93,-265.81 260.13,-273.59 263.41,-267.41"/>
<g id="a_edge5&#45;headlabel"><a xlink:href="dir_000137_000062.html" target="_top" xlink:title="1">
<text text-anchor="middle" x="267.91" y="-264.08" font-family="Helvetica,sans-Serif" font-size="10.00">1</text>
</a>
</g>
</g>
<!-- dir_e15434bc39fd5742af3da48344882396 -->
<g id="node14" class="node">
<title>dir_e15434bc39fd5742af3da48344882396</title>
<g id="a_node14"><a xlink:href="dir_e15434bc39fd5742af3da48344882396.html" target="_top" xlink:title="SStandard">
<polygon fill="white" stroke="black" points="149,-556 87,-556 87,-520 149,-520 149,-556"/>
<text text-anchor="middle" x="118" y="-535.5" font-family="Helvetica,sans-Serif" font-size="10.00">SStandard</text>
</a>
</g>
</g>
<!-- dir_f31be668b848c94749c2480e14c4b615&#45;&gt;dir_b778c3f297ab88300258a2935792c8cc -->
<g id="edge17" class="edge">
<title>dir_f31be668b848c94749c2480e14c4b615&#45;&gt;dir_b778c3f297ab88300258a2935792c8cc</title>
<path fill="none" stroke="black" d="M192.06,-87.7C200.5,-79.14 210.82,-68.66 220.04,-59.3"/>
<polygon fill="black" stroke="black" points="222.61,-61.68 227.14,-52.1 217.63,-56.77 222.61,-61.68"/>
<g id="a_edge17&#45;headlabel"><a xlink:href="dir_000141_000055.html" target="_top" xlink:title="1">
<text text-anchor="middle" x="222.11" y="-63.74" font-family="Helvetica,sans-Serif" font-size="10.00">1</text>
</a>
</g>
</g>
<!-- dir_81939fb769658ab66ba54ec390580a1a&#45;&gt;dir_b778c3f297ab88300258a2935792c8cc -->
<g id="edge2" class="edge">
<title>dir_81939fb769658ab66ba54ec390580a1a&#45;&gt;dir_b778c3f297ab88300258a2935792c8cc</title>
<path fill="none" stroke="black" d="M403.77,-375.81C419.01,-349.83 445,-298.52 445,-251 445,-251 445,-251 445,-177 445,-136.36 451.94,-117.51 424,-88 386.81,-48.72 322.14,-38.1 281.28,-35.48"/>
<polygon fill="black" stroke="black" points="281.35,-31.98 271.18,-34.97 280.99,-38.97 281.35,-31.98"/>
<g id="a_edge2&#45;headlabel"><a xlink:href="dir_000142_000055.html" target="_top" xlink:title="7">
<text text-anchor="middle" x="285.08" y="-26.83" font-family="Helvetica,sans-Serif" font-size="10.00">7</text>
</a>
</g>
</g>
<!-- dir_81939fb769658ab66ba54ec390580a1a&#45;&gt;dir_4f0979a7f5e3194619cde56505e372d8 -->
<g id="edge1" class="edge">
<title>dir_81939fb769658ab66ba54ec390580a1a&#45;&gt;dir_4f0979a7f5e3194619cde56505e372d8</title>
<path fill="none" stroke="black" d="M401.41,-375.76C409.54,-356.35 418.52,-324.82 403,-304 398.69,-298.21 313.32,-274.59 262.4,-260.92"/>
<polygon fill="black" stroke="black" points="263.27,-257.53 252.71,-258.32 261.46,-264.29 263.27,-257.53"/>
<g id="a_edge1&#45;headlabel"><a xlink:href="dir_000142_000062.html" target="_top" xlink:title="22">
<text text-anchor="middle" x="267.48" y="-253.21" font-family="Helvetica,sans-Serif" font-size="10.00">22</text>
</a>
</g>
</g>
<!-- dir_81939fb769658ab66ba54ec390580a1a&#45;&gt;dir_76ec03b56887a0e8201bcb48abf48018 -->
<g id="edge3" class="edge">
<title>dir_81939fb769658ab66ba54ec390580a1a&#45;&gt;dir_76ec03b56887a0e8201bcb48abf48018</title>
<path fill="none" stroke="black" d="M384.1,-375.7C380,-367.73 375.05,-358.1 370.51,-349.26"/>
<polygon fill="black" stroke="black" points="373.48,-347.4 365.8,-340.1 367.26,-350.6 373.48,-347.4"/>
<g id="a_edge3&#45;headlabel"><a xlink:href="dir_000142_000137.html" target="_top" xlink:title="1">
<text text-anchor="middle" x="377.65" y="-346.79" font-family="Helvetica,sans-Serif" font-size="10.00">1</text>
</a>
</g>
</g>
</g>
</svg>
        <g id="navigator" transform="translate(0 0)" fill="#404254">
                <rect fill="#f2f5e9" fill-opacity="0.5" stroke="#606060" stroke-width=".5" x="0" y="0" width="60" height="60"/>
                <use id="zoomplus" xlink:href="#zoomPlus" x="17" y="9" onmousedown="handleZoom(evt,'in')"/>
                <use id="zoomminus" xlink:href="#zoomMin" x="42" y="9" onmousedown="handleZoom(evt,'out')"/>
                <use id="reset" xlink:href="#resetDef" x="30" y="36" onmousedown="handleReset()"/>
                <g id="arrowUp" xlink:href="#dirArrow" transform="translate(30 24)" onmousedown="handlePan(0,-1)">
                  <use xlink:href="#rim" fill="#404040">
                        <set attributeName="fill" to="#808080" begin="arrowUp.mouseover" end="arrowUp.mouseout"/>
                  </use>
                  <path fill="none" stroke="white" stroke-width="1.5" d="M0,-3.0v7 M-2.5,-0.5L0,-3.0L2.5,-0.5"/>
                </g>
                <g id="arrowRight" xlink:href="#dirArrow" transform="rotate(90) translate(36 -43)" onmousedown="handlePan(1,0)">
                  <use xlink:href="#rim" fill="#404040">
                        <set attributeName="fill" to="#808080" begin="arrowRight.mouseover" end="arrowRight.mouseout"/>
                  </use>
                  <path fill="none" stroke="white" stroke-width="1.5" d="M0,-3.0v7 M-2.5,-0.5L0,-3.0L2.5,-0.5"/>
                </g>
                <g id="arrowDown" xlink:href="#dirArrow" transform="rotate(180) translate(-30 -48)" onmousedown="handlePan(0,1)">
                  <use xlink:href="#rim" fill="#404040">
                        <set attributeName="fill" to="#808080" begin="arrowDown.mouseover" end="arrowDown.mouseout"/>
                  </use>
                  <path fill="none" stroke="white" stroke-width="1.5" d="M0,-3.0v7 M-2.5,-0.5L0,-3.0L2.5,-0.5"/>
                </g>
                <g id="arrowLeft" xlink:href="#dirArrow" transform="rotate(270) translate(-36 17)" onmousedown="handlePan(-1,0)">
                  <use xlink:href="#rim" fill="#404040">
                        <set attributeName="fill" to="#808080" begin="arrowLeft.mouseover" end="arrowLeft.mouseout"/>
                  </use>
                  <path fill="none" stroke="white" stroke-width="1.5" d="M0,-3.0v7 M-2.5,-0.5L0,-3.0L2.5,-0.5"/>
                </g>
        </g>
        <svg viewBox="0 0 15 15" width="100%" height="30px" preserveAspectRatio="xMaxYMin meet">
         <g id="arrow_out" transform="scale(0.3 0.3)">
          <a xlink:href="dir_d44c64559bbebec7f509842c48db8b23_dep_org.svg" target="_base">
           <rect id="button" ry="5" rx="5" y="6" x="6" height="38" width="38"
                fill="#f2f5e9" fill-opacity="0.5" stroke="#606060" stroke-width="1.0"/>
           <path id="arrow"
             d="M 11.500037,31.436501 C 11.940474,20.09759 22.043105,11.32322 32.158766,21.979434 L 37.068811,17.246167 C 37.068811,17.246167 37.088388,32 37.088388,32 L 22.160133,31.978069 C 22.160133,31.978069 26.997745,27.140456 26.997745,27.140456 C 18.528582,18.264221 13.291696,25.230495 11.500037,31.436501 z"
             style="fill:#404040;"/>
          </a>
         </g>
        </svg>
</svg>
