<?xml version="1.0" encoding="UTF-8" standalone="no"?>
<!DOCTYPE svg PUBLIC "-//W3C//DTD SVG 1.1//EN"
 "http://www.w3.org/Graphics/SVG/1.1/DTD/svg11.dtd">
<!-- Generated by graphviz version 2.44.0 ()
 -->
<!-- Title: include/d/d_msg Pages: 1 -->
<svg width="196pt" height="231pt"
 viewBox="0.00 0.00 196.00 231.00" xmlns="http://www.w3.org/2000/svg" xmlns:xlink="http://www.w3.org/1999/xlink">
<g id="graph0" class="graph" transform="scale(1 1) rotate(0) translate(4 227)">
<title>include/d/d_msg</title>
<polygon fill="white" stroke="transparent" points="-4,4 -4,-227 192,-227 192,4 -4,4"/>
<g id="clust1" class="cluster">
<title>clusterdir_cc3ad1aed4be3f446fdd7af78322f5bf</title>
<g id="a_clust1"><a xlink:href="dir_cc3ad1aed4be3f446fdd7af78322f5bf.html" target="_top" xlink:title="d">
<polygon fill="#ddddee" stroke="black" points="8,-128 8,-215 180,-215 180,-128 8,-128"/>
<text text-anchor="middle" x="94" y="-203" font-family="Helvetica,sans-Serif" font-size="10.00">d</text>
</a>
</g>
</g>
<g id="clust2" class="cluster">
<title>clusterdir_87b9d6d7f19449b8cca4e8bc65a2099c</title>
<g id="a_clust2"><a xlink:href="dir_87b9d6d7f19449b8cca4e8bc65a2099c.html" target="_top">
<polygon fill="#eeeeff" stroke="black" points="16,-136 16,-188 172,-188 172,-136 16,-136"/>
</a>
</g>
</g>
<!-- dir_87b9d6d7f19449b8cca4e8bc65a2099c -->
<g id="node1" class="node">
<title>dir_87b9d6d7f19449b8cca4e8bc65a2099c</title>
<text text-anchor="middle" x="137" y="-159.5" font-family="Helvetica,sans-Serif" font-size="10.00">d_msg</text>
</g>
<!-- dir_c2bdead068166137ed2d0388d7284f9b -->
<g id="node2" class="node">
<title>dir_c2bdead068166137ed2d0388d7284f9b</title>
<g id="a_node2"><a xlink:href="dir_c2bdead068166137ed2d0388d7284f9b.html" target="_top" xlink:title="d_msg_flow">
<polygon fill="white" stroke="black" points="92,-180 24,-180 24,-144 92,-144 92,-180"/>
<text text-anchor="middle" x="58" y="-159.5" font-family="Helvetica,sans-Serif" font-size="10.00">d_msg_flow</text>
</a>
</g>
</g>
<!-- dir_b778c3f297ab88300258a2935792c8cc -->
<g id="node3" class="node">
<title>dir_b778c3f297ab88300258a2935792c8cc</title>
<g id="a_node3"><a xlink:href="dir_b778c3f297ab88300258a2935792c8cc.html" target="_top" xlink:title="dolphin">
<polygon fill="none" stroke="black" points="84,-36 30,-36 30,0 84,0 84,-36"/>
<text text-anchor="middle" x="57" y="-15.5" font-family="Helvetica,sans-Serif" font-size="10.00">dolphin</text>
</a>
</g>
</g>
<!-- dir_c2bdead068166137ed2d0388d7284f9b&#45;&gt;dir_b778c3f297ab88300258a2935792c8cc -->
<g id="edge2" class="edge">
<title>dir_c2bdead068166137ed2d0388d7284f9b&#45;&gt;dir_b778c3f297ab88300258a2935792c8cc</title>
<path fill="none" stroke="black" d="M54.35,-143.91C52.32,-133.57 50.02,-120.09 49,-108 47.66,-92.06 47.8,-87.96 49,-72 49.64,-63.52 50.84,-54.34 52.12,-46.04"/>
<polygon fill="black" stroke="black" points="55.58,-46.55 53.75,-36.11 48.68,-45.41 55.58,-46.55"/>
<g id="a_edge2&#45;headlabel"><a xlink:href="dir_000042_000055.html" target="_top" xlink:title="1">
<text text-anchor="middle" x="57.8" y="-48.05" font-family="Helvetica,sans-Serif" font-size="10.00">1</text>
</a>
</g>
</g>
<!-- dir_33eed416d00e84841337708fc7e11b48 -->
<g id="node4" class="node">
<title>dir_33eed416d00e84841337708fc7e11b48</title>
<g id="a_node4"><a xlink:href="dir_33eed416d00e84841337708fc7e11b48.html" target="_top" xlink:title="f">
<polygon fill="white" stroke="red" points="112,-108 58,-108 58,-72 112,-72 112,-108"/>
<text text-anchor="middle" x="85" y="-87.5" font-family="Helvetica,sans-Serif" font-size="10.00">f</text>
</a>
</g>
</g>
<!-- dir_c2bdead068166137ed2d0388d7284f9b&#45;&gt;dir_33eed416d00e84841337708fc7e11b48 -->
<g id="edge1" class="edge">
<title>dir_c2bdead068166137ed2d0388d7284f9b&#45;&gt;dir_33eed416d00e84841337708fc7e11b48</title>
<path fill="none" stroke="black" d="M64.67,-143.7C67.71,-135.81 71.38,-126.3 74.76,-117.55"/>
<polygon fill="black" stroke="black" points="78.07,-118.69 78.4,-108.1 71.54,-116.17 78.07,-118.69"/>
<g id="a_edge1&#45;headlabel"><a xlink:href="dir_000042_000057.html" target="_top" xlink:title="1">
<text text-anchor="middle" x="79.42" y="-120.57" font-family="Helvetica,sans-Serif" font-size="10.00">1</text>
</a>
</g>
</g>
<!-- dir_33eed416d00e84841337708fc7e11b48&#45;&gt;dir_b778c3f297ab88300258a2935792c8cc -->
<g id="edge3" class="edge">
<title>dir_33eed416d00e84841337708fc7e11b48&#45;&gt;dir_b778c3f297ab88300258a2935792c8cc</title>
<path fill="none" stroke="black" d="M78.08,-71.7C74.93,-63.81 71.12,-54.3 67.62,-45.55"/>
<polygon fill="black" stroke="black" points="70.81,-44.09 63.84,-36.1 64.31,-46.69 70.81,-44.09"/>
<g id="a_edge3&#45;headlabel"><a xlink:href="dir_000057_000055.html" target="_top" xlink:title="13">
<text text-anchor="middle" x="74.78" y="-43.87" font-family="Helvetica,sans-Serif" font-size="10.00">13</text>
</a>
</g>
</g>
</g>
</svg>
