<?xml version="1.0" encoding="UTF-8" standalone="no"?>
<!DOCTYPE svg PUBLIC "-//W3C//DTD SVG 1.1//EN"
 "http://www.w3.org/Graphics/SVG/1.1/DTD/svg11.dtd">
<!-- Generated by graphviz version 2.44.0 ()
 -->
<!-- Title: include/m_Do Pages: 1 -->
<!--zoomable 455 -->
<svg id="main" version="1.1" xmlns="http://www.w3.org/2000/svg" xmlns:xlink="http://www.w3.org/1999/xlink" xml:space="preserve" onload="init(evt)">
<style type="text/css"><![CDATA[
.edge:hover path { stroke: red; }
.edge:hover polygon { stroke: red; fill: red; }
]]></style>
<script type="text/javascript"><![CDATA[
var edges = document.getElementsByTagName('g');
if (edges && edges.length) {
  for (var i=0;i<edges.length;i++) {
    if (edges[i].id.substr(0,4)=='edge') {
      edges[i].setAttribute('class','edge');
    }
  }
}
]]></script>
        <defs>
                <circle id="rim" cx="0" cy="0" r="7"/>
                <circle id="rim2" cx="0" cy="0" r="3.5"/>
                <g id="zoomPlus">
                        <use xlink:href="#rim" fill="#404040">
                                <set attributeName="fill" to="#808080" begin="zoomplus.mouseover" end="zoomplus.mouseout"/>
                        </use>
                        <path d="M-4,0h8M0,-4v8" fill="none" stroke="white" stroke-width="1.5" pointer-events="none"/>
                </g>
                <g id="zoomMin">
                        <use xlink:href="#rim" fill="#404040">
                                <set attributeName="fill" to="#808080" begin="zoomminus.mouseover" end="zoomminus.mouseout"/>
                        </use>
                        <path d="M-4,0h8" fill="none" stroke="white" stroke-width="1.5" pointer-events="none"/>
                </g>
                <g id="dirArrow">
                        <path fill="none" stroke="white" stroke-width="1.5" d="M0,-3.0v7 M-2.5,-0.5L0,-3.0L2.5,-0.5"/>
                </g>
               <g id="resetDef">
                       <use xlink:href="#rim2" fill="#404040">
                               <set attributeName="fill" to="#808080" begin="reset.mouseover" end="reset.mouseout"/>
                       </use>
               </g>
        </defs>

<script type="text/javascript">
var viewWidth = 1124;
var viewHeight = 455;
var sectionId = 'dynsection-0';
</script>
<script xlink:href="svgpan.js"/>
<svg id="graph" class="graph">
<g id="viewport">
<title>include/m_Do</title>
<polygon fill="white" stroke="transparent" points="-4,4 -4,-451 1120,-451 1120,4 -4,4"/>
<g id="clust1" class="cluster">
<title>clusterdir_d44c64559bbebec7f509842c48db8b23</title>
<g id="a_clust1"><a xlink:href="dir_d44c64559bbebec7f509842c48db8b23.html" target="_top" xlink:title="include">
<polygon fill="#ddddee" stroke="black" points="8,-8 8,-439 1108,-439 1108,-8 8,-8"/>
<text text-anchor="middle" x="558" y="-427" font-family="Helvetica,sans-Serif" font-size="10.00">include</text>
</a>
</g>
</g>
<g id="clust2" class="cluster">
<title>clusterdir_6bdfff2c28f90f381b6da5bee088878b</title>
<g id="a_clust2"><a xlink:href="dir_6bdfff2c28f90f381b6da5bee088878b.html" target="_top">
<polygon fill="#eeeeff" stroke="black" points="160,-224 160,-276 1100,-276 1100,-224 160,-224"/>
</a>
</g>
</g>
<!-- dir_81939fb769658ab66ba54ec390580a1a -->
<g id="node1" class="node">
<title>dir_81939fb769658ab66ba54ec390580a1a</title>
<g id="a_node1"><a xlink:href="dir_81939fb769658ab66ba54ec390580a1a.html" target="_top" xlink:title="Z2AudioLib">
<polygon fill="white" stroke="red" points="126,-412 60,-412 60,-376 126,-376 126,-412"/>
<text text-anchor="middle" x="93" y="-391.5" font-family="Helvetica,sans-Serif" font-size="10.00">Z2AudioLib</text>
</a>
</g>
</g>
<!-- dir_4f0979a7f5e3194619cde56505e372d8 -->
<g id="node3" class="node">
<title>dir_4f0979a7f5e3194619cde56505e372d8</title>
<g id="a_node3"><a xlink:href="dir_4f0979a7f5e3194619cde56505e372d8.html" target="_top" xlink:title="JSystem">
<polygon fill="white" stroke="red" points="324.5,-196 269.5,-196 269.5,-160 324.5,-160 324.5,-196"/>
<text text-anchor="middle" x="297" y="-175.5" font-family="Helvetica,sans-Serif" font-size="10.00">JSystem</text>
</a>
</g>
</g>
<!-- dir_81939fb769658ab66ba54ec390580a1a&#45;&gt;dir_4f0979a7f5e3194619cde56505e372d8 -->
<g id="edge8" class="edge">
<title>dir_81939fb769658ab66ba54ec390580a1a&#45;&gt;dir_4f0979a7f5e3194619cde56505e372d8</title>
<path fill="none" stroke="black" d="M112.52,-375.74C122.06,-366.18 132.8,-353.51 139,-340 160.73,-292.64 122.29,-263.73 156,-224 181.43,-194.03 226.8,-183.81 259.21,-180.44"/>
<polygon fill="black" stroke="black" points="259.58,-183.92 269.24,-179.57 258.97,-176.95 259.58,-183.92"/>
<g id="a_edge8&#45;headlabel"><a xlink:href="dir_000142_000062.html" target="_top" xlink:title="22">
<text text-anchor="middle" x="256.24" y="-184.56" font-family="Helvetica,sans-Serif" font-size="10.00">22</text>
</a>
</g>
</g>
<!-- dir_76ec03b56887a0e8201bcb48abf48018 -->
<g id="node4" class="node">
<title>dir_76ec03b56887a0e8201bcb48abf48018</title>
<g id="a_node4"><a xlink:href="dir_76ec03b56887a0e8201bcb48abf48018.html" target="_top" xlink:title="SComponent">
<polygon fill="white" stroke="red" points="129.5,-340 56.5,-340 56.5,-304 129.5,-304 129.5,-340"/>
<text text-anchor="middle" x="93" y="-319.5" font-family="Helvetica,sans-Serif" font-size="10.00">SComponent</text>
</a>
</g>
</g>
<!-- dir_81939fb769658ab66ba54ec390580a1a&#45;&gt;dir_76ec03b56887a0e8201bcb48abf48018 -->
<g id="edge10" class="edge">
<title>dir_81939fb769658ab66ba54ec390580a1a&#45;&gt;dir_76ec03b56887a0e8201bcb48abf48018</title>
<path fill="none" stroke="black" d="M93,-375.7C93,-367.98 93,-358.71 93,-350.11"/>
<polygon fill="black" stroke="black" points="96.5,-350.1 93,-340.1 89.5,-350.1 96.5,-350.1"/>
<g id="a_edge10&#45;headlabel"><a xlink:href="dir_000142_000137.html" target="_top" xlink:title="1">
<text text-anchor="middle" x="99.34" y="-351.2" font-family="Helvetica,sans-Serif" font-size="10.00">1</text>
</a>
</g>
</g>
<!-- dir_b778c3f297ab88300258a2935792c8cc -->
<g id="node5" class="node">
<title>dir_b778c3f297ab88300258a2935792c8cc</title>
<g id="a_node5"><a xlink:href="dir_b778c3f297ab88300258a2935792c8cc.html" target="_top" xlink:title="dolphin">
<polygon fill="none" stroke="black" points="324,-52 270,-52 270,-16 324,-16 324,-52"/>
<text text-anchor="middle" x="297" y="-31.5" font-family="Helvetica,sans-Serif" font-size="10.00">dolphin</text>
</a>
</g>
</g>
<!-- dir_81939fb769658ab66ba54ec390580a1a&#45;&gt;dir_b778c3f297ab88300258a2935792c8cc -->
<g id="edge9" class="edge">
<title>dir_81939fb769658ab66ba54ec390580a1a&#45;&gt;dir_b778c3f297ab88300258a2935792c8cc</title>
<path fill="none" stroke="black" d="M71.11,-375.97C60.28,-366.47 47.88,-353.78 40,-340 19.73,-304.53 17,-291.86 17,-251 17,-251 17,-251 17,-177 17,-69.37 183.59,-43.29 259.77,-37"/>
<polygon fill="black" stroke="black" points="260.19,-40.47 269.9,-36.23 259.66,-33.49 260.19,-40.47"/>
<g id="a_edge9&#45;headlabel"><a xlink:href="dir_000142_000055.html" target="_top" xlink:title="7">
<text text-anchor="middle" x="256.82" y="-41.08" font-family="Helvetica,sans-Serif" font-size="10.00">7</text>
</a>
</g>
</g>
<!-- dir_cc3ad1aed4be3f446fdd7af78322f5bf -->
<g id="node2" class="node">
<title>dir_cc3ad1aed4be3f446fdd7af78322f5bf</title>
<g id="a_node2"><a xlink:href="dir_cc3ad1aed4be3f446fdd7af78322f5bf.html" target="_top" xlink:title="d">
<polygon fill="white" stroke="red" points="110,-268 56,-268 56,-232 110,-232 110,-268"/>
<text text-anchor="middle" x="83" y="-247.5" font-family="Helvetica,sans-Serif" font-size="10.00">d</text>
</a>
</g>
</g>
<!-- dir_cc3ad1aed4be3f446fdd7af78322f5bf&#45;&gt;dir_81939fb769658ab66ba54ec390580a1a -->
<g id="edge21" class="edge">
<title>dir_cc3ad1aed4be3f446fdd7af78322f5bf&#45;&gt;dir_81939fb769658ab66ba54ec390580a1a</title>
<path fill="none" stroke="black" d="M67.39,-268.23C59.63,-277.97 51.05,-290.82 47,-304 42.3,-319.29 41.4,-325.01 47,-340 50.88,-350.38 57.8,-360.07 65.12,-368.26"/>
<polygon fill="black" stroke="black" points="62.73,-370.82 72.18,-375.62 67.78,-365.97 62.73,-370.82"/>
<g id="a_edge21&#45;headlabel"><a xlink:href="dir_000003_000142.html" target="_top" xlink:title="4">
<text text-anchor="middle" x="58.19" y="-367.69" font-family="Helvetica,sans-Serif" font-size="10.00">4</text>
</a>
</g>
</g>
<!-- dir_cc3ad1aed4be3f446fdd7af78322f5bf&#45;&gt;dir_4f0979a7f5e3194619cde56505e372d8 -->
<g id="edge19" class="edge">
<title>dir_cc3ad1aed4be3f446fdd7af78322f5bf&#45;&gt;dir_4f0979a7f5e3194619cde56505e372d8</title>
<path fill="none" stroke="black" d="M108.41,-231.94C113.44,-229.01 118.78,-226.21 124,-224 168.73,-205.04 223.45,-192.44 259.21,-185.51"/>
<polygon fill="black" stroke="black" points="260.04,-188.92 269.22,-183.63 258.74,-182.04 260.04,-188.92"/>
<g id="a_edge19&#45;headlabel"><a xlink:href="dir_000003_000062.html" target="_top" xlink:title="25">
<text text-anchor="middle" x="257.03" y="-189.87" font-family="Helvetica,sans-Serif" font-size="10.00">25</text>
</a>
</g>
</g>
<!-- dir_cc3ad1aed4be3f446fdd7af78322f5bf&#45;&gt;dir_76ec03b56887a0e8201bcb48abf48018 -->
<g id="edge20" class="edge">
<title>dir_cc3ad1aed4be3f446fdd7af78322f5bf&#45;&gt;dir_76ec03b56887a0e8201bcb48abf48018</title>
<path fill="none" stroke="black" d="M91.34,-268.1C93.24,-275.79 94.8,-285.05 95.7,-293.67"/>
<polygon fill="black" stroke="black" points="92.21,-293.98 96.44,-303.7 99.19,-293.46 92.21,-293.98"/>
<g id="a_edge20&#45;headlabel"><a xlink:href="dir_000003_000137.html" target="_top" xlink:title="28">
<text text-anchor="middle" x="89.12" y="-288.11" font-family="Helvetica,sans-Serif" font-size="10.00">28</text>
</a>
</g>
</g>
<!-- dir_cc3ad1aed4be3f446fdd7af78322f5bf&#45;&gt;dir_b778c3f297ab88300258a2935792c8cc -->
<g id="edge23" class="edge">
<title>dir_cc3ad1aed4be3f446fdd7af78322f5bf&#45;&gt;dir_b778c3f297ab88300258a2935792c8cc</title>
<path fill="none" stroke="black" d="M91.43,-231.58C107.91,-199.2 147.31,-129.28 199,-88 217.7,-73.06 241.23,-60.18 260.54,-50.86"/>
<polygon fill="black" stroke="black" points="262.08,-54 269.64,-46.58 259.1,-47.67 262.08,-54"/>
<g id="a_edge23&#45;headlabel"><a xlink:href="dir_000003_000055.html" target="_top" xlink:title="15">
<text text-anchor="middle" x="260.04" y="-55.6" font-family="Helvetica,sans-Serif" font-size="10.00">15</text>
</a>
</g>
</g>
<!-- dir_a279ed5c4175293b5b2f0cc1c8e2c220 -->
<g id="node7" class="node">
<title>dir_a279ed5c4175293b5b2f0cc1c8e2c220</title>
<g id="a_node7"><a xlink:href="dir_a279ed5c4175293b5b2f0cc1c8e2c220.html" target="_top" xlink:title="gx">
<polygon fill="none" stroke="black" points="262,-124 208,-124 208,-88 262,-88 262,-124"/>
<text text-anchor="middle" x="235" y="-103.5" font-family="Helvetica,sans-Serif" font-size="10.00">gx</text>
</a>
</g>
</g>
<!-- dir_cc3ad1aed4be3f446fdd7af78322f5bf&#45;&gt;dir_a279ed5c4175293b5b2f0cc1c8e2c220 -->
<g id="edge24" class="edge">
<title>dir_cc3ad1aed4be3f446fdd7af78322f5bf&#45;&gt;dir_a279ed5c4175293b5b2f0cc1c8e2c220</title>
<path fill="none" stroke="black" d="M101.33,-231.87C128.27,-206.71 178.64,-159.65 209.27,-131.04"/>
<polygon fill="black" stroke="black" points="211.68,-133.57 216.6,-124.19 206.9,-128.46 211.68,-133.57"/>
<g id="a_edge24&#45;headlabel"><a xlink:href="dir_000003_000061.html" target="_top" xlink:title="1">
<text text-anchor="middle" x="210.99" y="-135.6" font-family="Helvetica,sans-Serif" font-size="10.00">1</text>
</a>
</g>
</g>
<!-- dir_1f88545f8bfc61e63af91c875108eb58 -->
<g id="node11" class="node">
<title>dir_1f88545f8bfc61e63af91c875108eb58</title>
<g id="a_node11"><a xlink:href="dir_1f88545f8bfc61e63af91c875108eb58.html" target="_top" xlink:title="m_Do_dvd_thread">
<polygon fill="white" stroke="black" points="930.5,-268 835.5,-268 835.5,-232 930.5,-232 930.5,-268"/>
<text text-anchor="middle" x="883" y="-247.5" font-family="Helvetica,sans-Serif" font-size="10.00">m_Do_dvd_thread</text>
</a>
</g>
</g>
<!-- dir_cc3ad1aed4be3f446fdd7af78322f5bf&#45;&gt;dir_1f88545f8bfc61e63af91c875108eb58 -->
<g id="edge25" class="edge">
<title>dir_cc3ad1aed4be3f446fdd7af78322f5bf&#45;&gt;dir_1f88545f8bfc61e63af91c875108eb58</title>
<path fill="none" stroke="black" d="M110.29,-267.2C125.71,-275.9 145.71,-285.55 165,-290 235.7,-306.32 748.19,-309.76 818,-290 829.83,-286.65 841.63,-280.47 851.86,-273.96"/>
<polygon fill="black" stroke="black" points="854.07,-276.69 860.41,-268.21 850.16,-270.88 854.07,-276.69"/>
<g id="a_edge25&#45;headlabel"><a xlink:href="dir_000003_000127.html" target="_top" xlink:title="1">
<text text-anchor="middle" x="852.67" y="-278.55" font-family="Helvetica,sans-Serif" font-size="10.00">1</text>
</a>
</g>
</g>
<!-- dir_30ea13dec83035cec10245484eb25550 -->
<g id="node12" class="node">
<title>dir_30ea13dec83035cec10245484eb25550</title>
<g id="a_node12"><a xlink:href="dir_30ea13dec83035cec10245484eb25550.html" target="_top" xlink:title="m_Do_ext">
<polygon fill="white" stroke="black" points="451,-268 391,-268 391,-232 451,-232 451,-268"/>
<text text-anchor="middle" x="421" y="-247.5" font-family="Helvetica,sans-Serif" font-size="10.00">m_Do_ext</text>
</a>
</g>
</g>
<!-- dir_cc3ad1aed4be3f446fdd7af78322f5bf&#45;&gt;dir_30ea13dec83035cec10245484eb25550 -->
<g id="edge22" class="edge">
<title>dir_cc3ad1aed4be3f446fdd7af78322f5bf&#45;&gt;dir_30ea13dec83035cec10245484eb25550</title>
<path fill="none" stroke="black" d="M110.29,-267.2C125.71,-275.9 145.71,-285.55 165,-290 210.04,-300.4 329.54,-305.74 373,-290 381.8,-286.81 390.12,-281.24 397.28,-275.24"/>
<polygon fill="black" stroke="black" points="400.07,-277.43 405.12,-268.12 395.36,-272.25 400.07,-277.43"/>
<g id="a_edge22&#45;headlabel"><a xlink:href="dir_000003_000128.html" target="_top" xlink:title="2">
<text text-anchor="middle" x="399.31" y="-279.45" font-family="Helvetica,sans-Serif" font-size="10.00">2</text>
</a>
</g>
</g>
<!-- dir_f1909503c14a7f1908c4bf3633e4fb04 -->
<g id="node15" class="node">
<title>dir_f1909503c14a7f1908c4bf3633e4fb04</title>
<g id="a_node15"><a xlink:href="dir_f1909503c14a7f1908c4bf3633e4fb04.html" target="_top" xlink:title="m_Do_main">
<polygon fill="white" stroke="black" points="639,-268 571,-268 571,-232 639,-232 639,-268"/>
<text text-anchor="middle" x="605" y="-247.5" font-family="Helvetica,sans-Serif" font-size="10.00">m_Do_main</text>
</a>
</g>
</g>
<!-- dir_cc3ad1aed4be3f446fdd7af78322f5bf&#45;&gt;dir_f1909503c14a7f1908c4bf3633e4fb04 -->
<g id="edge26" class="edge">
<title>dir_cc3ad1aed4be3f446fdd7af78322f5bf&#45;&gt;dir_f1909503c14a7f1908c4bf3633e4fb04</title>
<path fill="none" stroke="black" d="M110.29,-267.2C125.71,-275.9 145.71,-285.55 165,-290 207.01,-299.7 512.19,-303.88 553,-290 562.6,-286.73 571.82,-280.9 579.75,-274.68"/>
<polygon fill="black" stroke="black" points="582.12,-277.26 587.52,-268.15 577.61,-271.9 582.12,-277.26"/>
<g id="a_edge26&#45;headlabel"><a xlink:href="dir_000003_000131.html" target="_top" xlink:title="1">
<text text-anchor="middle" x="581.2" y="-279.25" font-family="Helvetica,sans-Serif" font-size="10.00">1</text>
</a>
</g>
</g>
<!-- dir_4f0979a7f5e3194619cde56505e372d8&#45;&gt;dir_b778c3f297ab88300258a2935792c8cc -->
<g id="edge34" class="edge">
<title>dir_4f0979a7f5e3194619cde56505e372d8&#45;&gt;dir_b778c3f297ab88300258a2935792c8cc</title>
<path fill="none" stroke="black" d="M297,-159.87C297,-135.67 297,-91.21 297,-62.39"/>
<polygon fill="black" stroke="black" points="300.5,-62.19 297,-52.19 293.5,-62.19 300.5,-62.19"/>
<g id="a_edge34&#45;headlabel"><a xlink:href="dir_000062_000055.html" target="_top" xlink:title="55">
<text text-anchor="middle" x="303.34" y="-63.28" font-family="Helvetica,sans-Serif" font-size="10.00">55</text>
</a>
</g>
</g>
<!-- dir_7b371d9fdb0359ac564866f88df60f77 -->
<g id="node6" class="node">
<title>dir_7b371d9fdb0359ac564866f88df60f77</title>
<g id="a_node6"><a xlink:href="dir_7b371d9fdb0359ac564866f88df60f77.html" target="_top" xlink:title="os">
<polygon fill="none" stroke="black" points="413,-124 359,-124 359,-88 413,-88 413,-124"/>
<text text-anchor="middle" x="386" y="-103.5" font-family="Helvetica,sans-Serif" font-size="10.00">os</text>
</a>
</g>
</g>
<!-- dir_4f0979a7f5e3194619cde56505e372d8&#45;&gt;dir_7b371d9fdb0359ac564866f88df60f77 -->
<g id="edge32" class="edge">
<title>dir_4f0979a7f5e3194619cde56505e372d8&#45;&gt;dir_7b371d9fdb0359ac564866f88df60f77</title>
<path fill="none" stroke="black" d="M319,-159.7C330.21,-150.88 344,-140.03 356.15,-130.47"/>
<polygon fill="black" stroke="black" points="358.56,-133.04 364.25,-124.1 354.23,-127.54 358.56,-133.04"/>
<g id="a_edge32&#45;headlabel"><a xlink:href="dir_000062_000135.html" target="_top" xlink:title="3">
<text text-anchor="middle" x="357.49" y="-134.99" font-family="Helvetica,sans-Serif" font-size="10.00">3</text>
</a>
</g>
</g>
<!-- dir_4f0979a7f5e3194619cde56505e372d8&#45;&gt;dir_a279ed5c4175293b5b2f0cc1c8e2c220 -->
<g id="edge33" class="edge">
<title>dir_4f0979a7f5e3194619cde56505e372d8&#45;&gt;dir_a279ed5c4175293b5b2f0cc1c8e2c220</title>
<path fill="none" stroke="black" d="M281.67,-159.7C274.24,-151.3 265.18,-141.07 257.02,-131.86"/>
<polygon fill="black" stroke="black" points="259.4,-129.27 250.15,-124.1 254.16,-133.91 259.4,-129.27"/>
<g id="a_edge33&#45;headlabel"><a xlink:href="dir_000062_000061.html" target="_top" xlink:title="5">
<text text-anchor="middle" x="263.91" y="-127.58" font-family="Helvetica,sans-Serif" font-size="10.00">5</text>
</a>
</g>
</g>
<!-- dir_76ec03b56887a0e8201bcb48abf48018&#45;&gt;dir_cc3ad1aed4be3f446fdd7af78322f5bf -->
<g id="edge17" class="edge">
<title>dir_76ec03b56887a0e8201bcb48abf48018&#45;&gt;dir_cc3ad1aed4be3f446fdd7af78322f5bf</title>
<path fill="none" stroke="black" d="M84.61,-303.7C82.71,-295.98 81.16,-286.71 80.28,-278.11"/>
<polygon fill="black" stroke="black" points="83.77,-277.82 79.55,-268.1 76.78,-278.33 83.77,-277.82"/>
<g id="a_edge17&#45;headlabel"><a xlink:href="dir_000137_000003.html" target="_top" xlink:title="2">
<text text-anchor="middle" x="86.86" y="-278.7" font-family="Helvetica,sans-Serif" font-size="10.00">2</text>
</a>
</g>
</g>
<!-- dir_76ec03b56887a0e8201bcb48abf48018&#45;&gt;dir_4f0979a7f5e3194619cde56505e372d8 -->
<g id="edge15" class="edge">
<title>dir_76ec03b56887a0e8201bcb48abf48018&#45;&gt;dir_4f0979a7f5e3194619cde56505e372d8</title>
<path fill="none" stroke="black" d="M103.44,-303.65C108.31,-295.36 114.11,-285.25 119,-276 130.98,-253.33 124.46,-240.61 144,-224 176.46,-196.42 225.16,-185.73 258.86,-181.6"/>
<polygon fill="black" stroke="black" points="259.67,-185.03 269.24,-180.48 258.92,-178.07 259.67,-185.03"/>
<g id="a_edge15&#45;headlabel"><a xlink:href="dir_000137_000062.html" target="_top" xlink:title="1">
<text text-anchor="middle" x="256.41" y="-185.74" font-family="Helvetica,sans-Serif" font-size="10.00">1</text>
</a>
</g>
</g>
<!-- dir_76ec03b56887a0e8201bcb48abf48018&#45;&gt;dir_b778c3f297ab88300258a2935792c8cc -->
<g id="edge16" class="edge">
<title>dir_76ec03b56887a0e8201bcb48abf48018&#45;&gt;dir_b778c3f297ab88300258a2935792c8cc</title>
<path fill="none" stroke="black" d="M68.86,-304C60.27,-296.51 51.59,-286.92 47,-276 38.04,-254.7 37.57,-245.1 47,-224 88.34,-131.54 201.73,-73.62 260.54,-48.89"/>
<polygon fill="black" stroke="black" points="261.92,-52.11 269.84,-45.07 259.26,-45.63 261.92,-52.11"/>
<g id="a_edge16&#45;headlabel"><a xlink:href="dir_000137_000055.html" target="_top" xlink:title="2">
<text text-anchor="middle" x="259.67" y="-53.6" font-family="Helvetica,sans-Serif" font-size="10.00">2</text>
</a>
</g>
</g>
<!-- dir_7b371d9fdb0359ac564866f88df60f77&#45;&gt;dir_b778c3f297ab88300258a2935792c8cc -->
<g id="edge28" class="edge">
<title>dir_7b371d9fdb0359ac564866f88df60f77&#45;&gt;dir_b778c3f297ab88300258a2935792c8cc</title>
<path fill="none" stroke="black" d="M364,-87.7C352.79,-78.88 339,-68.03 326.85,-58.47"/>
<polygon fill="black" stroke="black" points="328.77,-55.54 318.75,-52.1 324.44,-61.04 328.77,-55.54"/>
<g id="a_edge28&#45;headlabel"><a xlink:href="dir_000135_000055.html" target="_top" xlink:title="1">
<text text-anchor="middle" x="333.35" y="-53.03" font-family="Helvetica,sans-Serif" font-size="10.00">1</text>
</a>
</g>
</g>
<!-- dir_a279ed5c4175293b5b2f0cc1c8e2c220&#45;&gt;dir_b778c3f297ab88300258a2935792c8cc -->
<g id="edge31" class="edge">
<title>dir_a279ed5c4175293b5b2f0cc1c8e2c220&#45;&gt;dir_b778c3f297ab88300258a2935792c8cc</title>
<path fill="none" stroke="black" d="M250.33,-87.7C257.76,-79.3 266.82,-69.07 274.98,-59.86"/>
<polygon fill="black" stroke="black" points="277.84,-61.91 281.85,-52.1 272.6,-57.27 277.84,-61.91"/>
<g id="a_edge31&#45;headlabel"><a xlink:href="dir_000061_000055.html" target="_top" xlink:title="1">
<text text-anchor="middle" x="277.58" y="-63.98" font-family="Helvetica,sans-Serif" font-size="10.00">1</text>
</a>
</g>
</g>
<!-- dir_6bdfff2c28f90f381b6da5bee088878b -->
<g id="node8" class="node">
<title>dir_6bdfff2c28f90f381b6da5bee088878b</title>
<text text-anchor="middle" x="1065" y="-247.5" font-family="Helvetica,sans-Serif" font-size="10.00">m_Do</text>
</g>
<!-- dir_db249ad017186daa0fccbf700440a0b9 -->
<g id="node9" class="node">
<title>dir_db249ad017186daa0fccbf700440a0b9</title>
<g id="a_node9"><a xlink:href="dir_db249ad017186daa0fccbf700440a0b9.html" target="_top" xlink:title="m_Do_audio">
<polygon fill="white" stroke="black" points="1019.5,-268 948.5,-268 948.5,-232 1019.5,-232 1019.5,-268"/>
<text text-anchor="middle" x="984" y="-247.5" font-family="Helvetica,sans-Serif" font-size="10.00">m_Do_audio</text>
</a>
</g>
</g>
<!-- dir_db249ad017186daa0fccbf700440a0b9&#45;&gt;dir_81939fb769658ab66ba54ec390580a1a -->
<g id="edge11" class="edge">
<title>dir_db249ad017186daa0fccbf700440a0b9&#45;&gt;dir_81939fb769658ab66ba54ec390580a1a</title>
<path fill="none" stroke="black" d="M957.77,-268.03C952.09,-271.1 945.99,-273.97 940,-276 644.65,-376.17 263.61,-390.73 136.45,-392.73"/>
<polygon fill="black" stroke="black" points="136.28,-389.23 126.33,-392.87 136.38,-396.23 136.28,-389.23"/>
<g id="a_edge11&#45;headlabel"><a xlink:href="dir_000125_000142.html" target="_top" xlink:title="2">
<text text-anchor="middle" x="139.84" y="-383.84" font-family="Helvetica,sans-Serif" font-size="10.00">2</text>
</a>
</g>
</g>
<!-- dir_db249ad017186daa0fccbf700440a0b9&#45;&gt;dir_cc3ad1aed4be3f446fdd7af78322f5bf -->
<g id="edge12" class="edge">
<title>dir_db249ad017186daa0fccbf700440a0b9&#45;&gt;dir_cc3ad1aed4be3f446fdd7af78322f5bf</title>
<path fill="none" stroke="black" d="M966.12,-268.15C956.58,-276.54 944.12,-285.61 931,-290 890.65,-303.52 206.46,-299.57 165,-290 149.33,-286.38 133.18,-279.34 119.41,-272.16"/>
<polygon fill="black" stroke="black" points="120.74,-268.9 110.29,-267.2 117.4,-275.05 120.74,-268.9"/>
<g id="a_edge12&#45;headlabel"><a xlink:href="dir_000125_000003.html" target="_top" xlink:title="1">
<text text-anchor="middle" x="125.26" y="-265.62" font-family="Helvetica,sans-Serif" font-size="10.00">1</text>
</a>
</g>
</g>
<!-- dir_c3ef1b8d315dc8c42100e759d48a5b55 -->
<g id="node10" class="node">
<title>dir_c3ef1b8d315dc8c42100e759d48a5b55</title>
<g id="a_node10"><a xlink:href="dir_c3ef1b8d315dc8c42100e759d48a5b55.html" target="_top" xlink:title="m_Do_controller_pad">
<polygon fill="white" stroke="black" points="373,-268 265,-268 265,-232 373,-232 373,-268"/>
<text text-anchor="middle" x="319" y="-247.5" font-family="Helvetica,sans-Serif" font-size="10.00">m_Do_controller_pad</text>
</a>
</g>
</g>
<!-- dir_c3ef1b8d315dc8c42100e759d48a5b55&#45;&gt;dir_4f0979a7f5e3194619cde56505e372d8 -->
<g id="edge13" class="edge">
<title>dir_c3ef1b8d315dc8c42100e759d48a5b55&#45;&gt;dir_4f0979a7f5e3194619cde56505e372d8</title>
<path fill="none" stroke="black" d="M313.56,-231.7C311.11,-223.9 308.16,-214.51 305.43,-205.83"/>
<polygon fill="black" stroke="black" points="308.71,-204.59 302.38,-196.1 302.04,-206.69 308.71,-204.59"/>
<g id="a_edge13&#45;headlabel"><a xlink:href="dir_000126_000062.html" target="_top" xlink:title="1">
<text text-anchor="middle" x="312.5" y="-204.67" font-family="Helvetica,sans-Serif" font-size="10.00">1</text>
</a>
</g>
</g>
<!-- dir_c3ef1b8d315dc8c42100e759d48a5b55&#45;&gt;dir_76ec03b56887a0e8201bcb48abf48018 -->
<g id="edge14" class="edge">
<title>dir_c3ef1b8d315dc8c42100e759d48a5b55&#45;&gt;dir_76ec03b56887a0e8201bcb48abf48018</title>
<path fill="none" stroke="black" d="M277.89,-268.05C270.65,-270.85 263.14,-273.61 256,-276 217.15,-289.03 172.22,-301.22 139.38,-309.63"/>
<polygon fill="black" stroke="black" points="138.43,-306.26 129.6,-312.11 140.15,-313.04 138.43,-306.26"/>
<g id="a_edge14&#45;headlabel"><a xlink:href="dir_000126_000137.html" target="_top" xlink:title="1">
<text text-anchor="middle" x="141.21" y="-300.12" font-family="Helvetica,sans-Serif" font-size="10.00">1</text>
</a>
</g>
</g>
<!-- dir_1f88545f8bfc61e63af91c875108eb58&#45;&gt;dir_b778c3f297ab88300258a2935792c8cc -->
<g id="edge18" class="edge">
<title>dir_1f88545f8bfc61e63af91c875108eb58&#45;&gt;dir_b778c3f297ab88300258a2935792c8cc</title>
<path fill="none" stroke="black" d="M846.93,-231.94C779.39,-200.46 628.77,-132.4 497,-88 441.1,-69.17 374.63,-52.69 334.14,-43.29"/>
<polygon fill="black" stroke="black" points="334.71,-39.83 324.18,-41 333.15,-46.65 334.71,-39.83"/>
<g id="a_edge18&#45;headlabel"><a xlink:href="dir_000127_000055.html" target="_top" xlink:title="1">
<text text-anchor="middle" x="338.85" y="-35.37" font-family="Helvetica,sans-Serif" font-size="10.00">1</text>
</a>
</g>
</g>
<!-- dir_30ea13dec83035cec10245484eb25550&#45;&gt;dir_cc3ad1aed4be3f446fdd7af78322f5bf -->
<g id="edge7" class="edge">
<title>dir_30ea13dec83035cec10245484eb25550&#45;&gt;dir_cc3ad1aed4be3f446fdd7af78322f5bf</title>
<path fill="none" stroke="black" d="M405.12,-268.12C396.55,-276.5 385.24,-285.57 373,-290 329.54,-305.74 210.04,-300.4 165,-290 149.33,-286.38 133.18,-279.34 119.41,-272.16"/>
<polygon fill="black" stroke="black" points="120.74,-268.9 110.29,-267.2 117.4,-275.05 120.74,-268.9"/>
<g id="a_edge7&#45;headlabel"><a xlink:href="dir_000128_000003.html" target="_top" xlink:title="1">
<text text-anchor="middle" x="125.26" y="-265.62" font-family="Helvetica,sans-Serif" font-size="10.00">1</text>
</a>
</g>
</g>
<!-- dir_30ea13dec83035cec10245484eb25550&#45;&gt;dir_4f0979a7f5e3194619cde56505e372d8 -->
<g id="edge5" class="edge">
<title>dir_30ea13dec83035cec10245484eb25550&#45;&gt;dir_4f0979a7f5e3194619cde56505e372d8</title>
<path fill="none" stroke="black" d="M394.75,-231.75C390.52,-229.1 386.17,-226.43 382,-224 366.48,-214.94 348.98,-205.54 333.91,-197.69"/>
<polygon fill="black" stroke="black" points="335.37,-194.5 324.88,-193.02 332.15,-200.72 335.37,-194.5"/>
<g id="a_edge5&#45;headlabel"><a xlink:href="dir_000128_000062.html" target="_top" xlink:title="3">
<text text-anchor="middle" x="339.87" y="-191.13" font-family="Helvetica,sans-Serif" font-size="10.00">3</text>
</a>
</g>
</g>
<!-- dir_30ea13dec83035cec10245484eb25550&#45;&gt;dir_7b371d9fdb0359ac564866f88df60f77 -->
<g id="edge6" class="edge">
<title>dir_30ea13dec83035cec10245484eb25550&#45;&gt;dir_7b371d9fdb0359ac564866f88df60f77</title>
<path fill="none" stroke="black" d="M416.78,-231.87C410.79,-207.56 399.76,-162.82 392.66,-134.01"/>
<polygon fill="black" stroke="black" points="396.03,-133.06 390.24,-124.19 389.23,-134.74 396.03,-133.06"/>
<g id="a_edge6&#45;headlabel"><a xlink:href="dir_000128_000135.html" target="_top" xlink:title="1">
<text text-anchor="middle" x="399.65" y="-133.37" font-family="Helvetica,sans-Serif" font-size="10.00">1</text>
</a>
</g>
</g>
<!-- dir_009a98fef92a043eb85c2692f0843544 -->
<g id="node13" class="node">
<title>dir_009a98fef92a043eb85c2692f0843544</title>
<g id="a_node13"><a xlink:href="dir_009a98fef92a043eb85c2692f0843544.html" target="_top" xlink:title="m_Do_graphic">
<polygon fill="white" stroke="black" points="246.5,-268 167.5,-268 167.5,-232 246.5,-232 246.5,-268"/>
<text text-anchor="middle" x="207" y="-247.5" font-family="Helvetica,sans-Serif" font-size="10.00">m_Do_graphic</text>
</a>
</g>
</g>
<!-- dir_009a98fef92a043eb85c2692f0843544&#45;&gt;dir_4f0979a7f5e3194619cde56505e372d8 -->
<g id="edge1" class="edge">
<title>dir_009a98fef92a043eb85c2692f0843544&#45;&gt;dir_4f0979a7f5e3194619cde56505e372d8</title>
<path fill="none" stroke="black" d="M229.25,-231.7C240.58,-222.88 254.53,-212.03 266.82,-202.47"/>
<polygon fill="black" stroke="black" points="269.26,-205.01 275.01,-196.1 264.97,-199.48 269.26,-205.01"/>
<g id="a_edge1&#45;headlabel"><a xlink:href="dir_000129_000062.html" target="_top" xlink:title="1">
<text text-anchor="middle" x="268.17" y="-206.95" font-family="Helvetica,sans-Serif" font-size="10.00">1</text>
</a>
</g>
</g>
<!-- dir_009a98fef92a043eb85c2692f0843544&#45;&gt;dir_a279ed5c4175293b5b2f0cc1c8e2c220 -->
<g id="edge2" class="edge">
<title>dir_009a98fef92a043eb85c2692f0843544&#45;&gt;dir_a279ed5c4175293b5b2f0cc1c8e2c220</title>
<path fill="none" stroke="black" d="M210.38,-231.87C215.17,-207.56 223.99,-162.82 229.67,-134.01"/>
<polygon fill="black" stroke="black" points="233.11,-134.68 231.61,-124.19 226.24,-133.32 233.11,-134.68"/>
<g id="a_edge2&#45;headlabel"><a xlink:href="dir_000129_000061.html" target="_top" xlink:title="1">
<text text-anchor="middle" x="235.2" y="-136.25" font-family="Helvetica,sans-Serif" font-size="10.00">1</text>
</a>
</g>
</g>
<!-- dir_0d97005bd843b139d284c8ef2f683db1 -->
<g id="node14" class="node">
<title>dir_0d97005bd843b139d284c8ef2f683db1</title>
<g id="a_node14"><a xlink:href="dir_0d97005bd843b139d284c8ef2f683db1.html" target="_top" xlink:title="m_Do_machine">
<polygon fill="white" stroke="black" points="553,-268 469,-268 469,-232 553,-232 553,-268"/>
<text text-anchor="middle" x="511" y="-247.5" font-family="Helvetica,sans-Serif" font-size="10.00">m_Do_machine</text>
</a>
</g>
</g>
<!-- dir_f1909503c14a7f1908c4bf3633e4fb04&#45;&gt;dir_4f0979a7f5e3194619cde56505e372d8 -->
<g id="edge3" class="edge">
<title>dir_f1909503c14a7f1908c4bf3633e4fb04&#45;&gt;dir_4f0979a7f5e3194619cde56505e372d8</title>
<path fill="none" stroke="black" d="M578.89,-231.84C573.47,-228.86 567.68,-226.06 562,-224 520.83,-209.09 397.64,-191.86 334.79,-183.72"/>
<polygon fill="black" stroke="black" points="334.87,-180.21 324.51,-182.4 333.98,-187.15 334.87,-180.21"/>
<g id="a_edge3&#45;headlabel"><a xlink:href="dir_000131_000062.html" target="_top" xlink:title="4">
<text text-anchor="middle" x="338.8" y="-175.35" font-family="Helvetica,sans-Serif" font-size="10.00">4</text>
</a>
</g>
</g>
<!-- dir_f1909503c14a7f1908c4bf3633e4fb04&#45;&gt;dir_b778c3f297ab88300258a2935792c8cc -->
<g id="edge4" class="edge">
<title>dir_f1909503c14a7f1908c4bf3633e4fb04&#45;&gt;dir_b778c3f297ab88300258a2935792c8cc</title>
<path fill="none" stroke="black" d="M587.12,-231.94C548.45,-195.27 457.64,-110.41 422,-88 394.17,-70.5 359.55,-56.34 333.81,-47.07"/>
<polygon fill="black" stroke="black" points="334.66,-43.66 324.07,-43.64 332.34,-50.26 334.66,-43.66"/>
<g id="a_edge4&#45;headlabel"><a xlink:href="dir_000131_000055.html" target="_top" xlink:title="1">
<text text-anchor="middle" x="339" y="-39.67" font-family="Helvetica,sans-Serif" font-size="10.00">1</text>
</a>
</g>
</g>
<!-- dir_09e0d40963dea681f51d1e1c46b76d0c -->
<g id="node16" class="node">
<title>dir_09e0d40963dea681f51d1e1c46b76d0c</title>
<g id="a_node16"><a xlink:href="dir_09e0d40963dea681f51d1e1c46b76d0c.html" target="_top" xlink:title="m_Do_printf">
<polygon fill="white" stroke="black" points="726.5,-268 657.5,-268 657.5,-232 726.5,-232 726.5,-268"/>
<text text-anchor="middle" x="692" y="-247.5" font-family="Helvetica,sans-Serif" font-size="10.00">m_Do_printf</text>
</a>
</g>
</g>
<!-- dir_09e0d40963dea681f51d1e1c46b76d0c&#45;&gt;dir_7b371d9fdb0359ac564866f88df60f77 -->
<g id="edge27" class="edge">
<title>dir_09e0d40963dea681f51d1e1c46b76d0c&#45;&gt;dir_7b371d9fdb0359ac564866f88df60f77</title>
<path fill="none" stroke="black" d="M664.09,-231.86C658.85,-229.02 653.34,-226.26 648,-224 607.07,-206.68 593.14,-212.81 552,-196 505.38,-176.95 454.77,-148.6 421.85,-129.05"/>
<polygon fill="black" stroke="black" points="423.42,-125.91 413.05,-123.78 419.83,-131.92 423.42,-125.91"/>
<g id="a_edge27&#45;headlabel"><a xlink:href="dir_000132_000135.html" target="_top" xlink:title="1">
<text text-anchor="middle" x="427.97" y="-122.82" font-family="Helvetica,sans-Serif" font-size="10.00">1</text>
</a>
</g>
</g>
<!-- dir_ee15fcc58d3c3dff5f297e80aacf41c1 -->
<g id="node17" class="node">
<title>dir_ee15fcc58d3c3dff5f297e80aacf41c1</title>
<g id="a_node17"><a xlink:href="dir_ee15fcc58d3c3dff5f297e80aacf41c1.html" target="_top" xlink:title="m_Do_Reset">
<polygon fill="white" stroke="black" points="817.5,-268 744.5,-268 744.5,-232 817.5,-232 817.5,-268"/>
<text text-anchor="middle" x="781" y="-247.5" font-family="Helvetica,sans-Serif" font-size="10.00">m_Do_Reset</text>
</a>
</g>
</g>
<!-- dir_ee15fcc58d3c3dff5f297e80aacf41c1&#45;&gt;dir_4f0979a7f5e3194619cde56505e372d8 -->
<g id="edge29" class="edge">
<title>dir_ee15fcc58d3c3dff5f297e80aacf41c1&#45;&gt;dir_4f0979a7f5e3194619cde56505e372d8</title>
<path fill="none" stroke="black" d="M754.19,-231.81C748.38,-228.75 742.14,-225.93 736,-224 661.4,-200.55 426.64,-185.88 334.57,-180.9"/>
<polygon fill="black" stroke="black" points="334.75,-177.41 324.58,-180.37 334.38,-184.4 334.75,-177.41"/>
<g id="a_edge29&#45;headlabel"><a xlink:href="dir_000133_000062.html" target="_top" xlink:title="1">
<text text-anchor="middle" x="338.49" y="-172.27" font-family="Helvetica,sans-Serif" font-size="10.00">1</text>
</a>
</g>
</g>
<!-- dir_ee15fcc58d3c3dff5f297e80aacf41c1&#45;&gt;dir_b778c3f297ab88300258a2935792c8cc -->
<g id="edge30" class="edge">
<title>dir_ee15fcc58d3c3dff5f297e80aacf41c1&#45;&gt;dir_b778c3f297ab88300258a2935792c8cc</title>
<path fill="none" stroke="black" d="M750.64,-231.79C745.77,-229.13 740.77,-226.45 736,-224 610.86,-159.57 580.25,-141.34 450,-88 410.92,-71.99 365.01,-56.52 333.75,-46.47"/>
<polygon fill="black" stroke="black" points="334.73,-43.11 324.14,-43.4 332.61,-49.78 334.73,-43.11"/>
<g id="a_edge30&#45;headlabel"><a xlink:href="dir_000133_000055.html" target="_top" xlink:title="1">
<text text-anchor="middle" x="339.02" y="-39" font-family="Helvetica,sans-Serif" font-size="10.00">1</text>
</a>
</g>
</g>
</g>
</svg>
        <g id="navigator" transform="translate(0 0)" fill="#404254">
                <rect fill="#f2f5e9" fill-opacity="0.5" stroke="#606060" stroke-width=".5" x="0" y="0" width="60" height="60"/>
                <use id="zoomplus" xlink:href="#zoomPlus" x="17" y="9" onmousedown="handleZoom(evt,'in')"/>
                <use id="zoomminus" xlink:href="#zoomMin" x="42" y="9" onmousedown="handleZoom(evt,'out')"/>
                <use id="reset" xlink:href="#resetDef" x="30" y="36" onmousedown="handleReset()"/>
                <g id="arrowUp" xlink:href="#dirArrow" transform="translate(30 24)" onmousedown="handlePan(0,-1)">
                  <use xlink:href="#rim" fill="#404040">
                        <set attributeName="fill" to="#808080" begin="arrowUp.mouseover" end="arrowUp.mouseout"/>
                  </use>
                  <path fill="none" stroke="white" stroke-width="1.5" d="M0,-3.0v7 M-2.5,-0.5L0,-3.0L2.5,-0.5"/>
                </g>
                <g id="arrowRight" xlink:href="#dirArrow" transform="rotate(90) translate(36 -43)" onmousedown="handlePan(1,0)">
                  <use xlink:href="#rim" fill="#404040">
                        <set attributeName="fill" to="#808080" begin="arrowRight.mouseover" end="arrowRight.mouseout"/>
                  </use>
                  <path fill="none" stroke="white" stroke-width="1.5" d="M0,-3.0v7 M-2.5,-0.5L0,-3.0L2.5,-0.5"/>
                </g>
                <g id="arrowDown" xlink:href="#dirArrow" transform="rotate(180) translate(-30 -48)" onmousedown="handlePan(0,1)">
                  <use xlink:href="#rim" fill="#404040">
                        <set attributeName="fill" to="#808080" begin="arrowDown.mouseover" end="arrowDown.mouseout"/>
                  </use>
                  <path fill="none" stroke="white" stroke-width="1.5" d="M0,-3.0v7 M-2.5,-0.5L0,-3.0L2.5,-0.5"/>
                </g>
                <g id="arrowLeft" xlink:href="#dirArrow" transform="rotate(270) translate(-36 17)" onmousedown="handlePan(-1,0)">
                  <use xlink:href="#rim" fill="#404040">
                        <set attributeName="fill" to="#808080" begin="arrowLeft.mouseover" end="arrowLeft.mouseout"/>
                  </use>
                  <path fill="none" stroke="white" stroke-width="1.5" d="M0,-3.0v7 M-2.5,-0.5L0,-3.0L2.5,-0.5"/>
                </g>
        </g>
        <svg viewBox="0 0 15 15" width="100%" height="30px" preserveAspectRatio="xMaxYMin meet">
         <g id="arrow_out" transform="scale(0.3 0.3)">
          <a xlink:href="dir_6bdfff2c28f90f381b6da5bee088878b_dep_org.svg" target="_base">
           <rect id="button" ry="5" rx="5" y="6" x="6" height="38" width="38"
                fill="#f2f5e9" fill-opacity="0.5" stroke="#606060" stroke-width="1.0"/>
           <path id="arrow"
             d="M 11.500037,31.436501 C 11.940474,20.09759 22.043105,11.32322 32.158766,21.979434 L 37.068811,17.246167 C 37.068811,17.246167 37.088388,32 37.088388,32 L 22.160133,31.978069 C 22.160133,31.978069 26.997745,27.140456 26.997745,27.140456 C 18.528582,18.264221 13.291696,25.230495 11.500037,31.436501 z"
             style="fill:#404040;"/>
          </a>
         </g>
        </svg>
</svg>
