<?xml version="1.0" encoding="UTF-8" standalone="no"?>
<!DOCTYPE svg PUBLIC "-//W3C//DTD SVG 1.1//EN"
 "http://www.w3.org/Graphics/SVG/1.1/DTD/svg11.dtd">
<!-- Generated by graphviz version 2.44.0 ()
 -->
<!-- Title: include/SComponent/c_cc_d Pages: 1 -->
<svg width="97pt" height="151pt"
 viewBox="0.00 0.00 97.00 151.00" xmlns="http://www.w3.org/2000/svg" xmlns:xlink="http://www.w3.org/1999/xlink">
<g id="graph0" class="graph" transform="scale(1 1) rotate(0) translate(4 147)">
<title>include/SComponent/c_cc_d</title>
<polygon fill="white" stroke="transparent" points="-4,4 -4,-147 93,-147 93,4 -4,4"/>
<g id="clust1" class="cluster">
<title>clusterdir_76ec03b56887a0e8201bcb48abf48018</title>
<g id="a_clust1"><a xlink:href="dir_76ec03b56887a0e8201bcb48abf48018.html" target="_top" xlink:title="SComponent">
<polygon fill="#ddddee" stroke="black" points="8,-64 8,-135 81,-135 81,-64 8,-64"/>
<text text-anchor="middle" x="44.5" y="-123" font-family="Helvetica,sans-Serif" font-size="10.00">SComponent</text>
</a>
</g>
</g>
<!-- dir_3486577814a4b6bd54a338a9428f09a3 -->
<g id="node1" class="node">
<title>dir_3486577814a4b6bd54a338a9428f09a3</title>
<g id="a_node1"><a xlink:href="dir_3486577814a4b6bd54a338a9428f09a3.html" target="_top" xlink:title="c_cc_d">
<polygon fill="#eeeeff" stroke="black" points="71,-108 17,-108 17,-72 71,-72 71,-108"/>
<text text-anchor="middle" x="44" y="-87.5" font-family="Helvetica,sans-Serif" font-size="10.00">c_cc_d</text>
</a>
</g>
</g>
<!-- dir_33eed416d00e84841337708fc7e11b48 -->
<g id="node2" class="node">
<title>dir_33eed416d00e84841337708fc7e11b48</title>
<g id="a_node2"><a xlink:href="dir_33eed416d00e84841337708fc7e11b48.html" target="_top" xlink:title="f">
<polygon fill="white" stroke="red" points="71,-36 17,-36 17,0 71,0 71,-36"/>
<text text-anchor="middle" x="44" y="-15.5" font-family="Helvetica,sans-Serif" font-size="10.00">f</text>
</a>
</g>
</g>
<!-- dir_3486577814a4b6bd54a338a9428f09a3&#45;&gt;dir_33eed416d00e84841337708fc7e11b48 -->
<g id="edge1" class="edge">
<title>dir_3486577814a4b6bd54a338a9428f09a3&#45;&gt;dir_33eed416d00e84841337708fc7e11b48</title>
<path fill="none" stroke="black" d="M44,-71.7C44,-63.98 44,-54.71 44,-46.11"/>
<polygon fill="black" stroke="black" points="47.5,-46.1 44,-36.1 40.5,-46.1 47.5,-46.1"/>
<g id="a_edge1&#45;headlabel"><a xlink:href="dir_000138_000057.html" target="_top" xlink:title="1">
<text text-anchor="middle" x="50.34" y="-47.2" font-family="Helvetica,sans-Serif" font-size="10.00">1</text>
</a>
</g>
</g>
</g>
</svg>
