<?xml version="1.0" encoding="UTF-8" standalone="no"?>
<!DOCTYPE svg PUBLIC "-//W3C//DTD SVG 1.1//EN"
 "http://www.w3.org/Graphics/SVG/1.1/DTD/svg11.dtd">
<!-- Generated by graphviz version 2.44.0 ()
 -->
<!-- Title: include/JSystem/JKernel/JKRAramHeap Pages: 1 -->
<svg width="216pt" height="223pt"
 viewBox="0.00 0.00 216.00 223.00" xmlns="http://www.w3.org/2000/svg" xmlns:xlink="http://www.w3.org/1999/xlink">
<g id="graph0" class="graph" transform="scale(1 1) rotate(0) translate(4 219)">
<title>include/JSystem/JKernel/JKRAramHeap</title>
<polygon fill="white" stroke="transparent" points="-4,4 -4,-219 212,-219 212,4 -4,4"/>
<g id="clust1" class="cluster">
<title>clusterdir_cd1009b6de6f257cf504091b6f95eba2</title>
<g id="a_clust1"><a xlink:href="dir_cd1009b6de6f257cf504091b6f95eba2.html" target="_top" xlink:title="JKernel">
<polygon fill="#ddddee" stroke="black" points="8,-64 8,-207 200,-207 200,-64 8,-64"/>
<text text-anchor="middle" x="104" y="-195" font-family="Helvetica,sans-Serif" font-size="10.00">JKernel</text>
</a>
</g>
</g>
<!-- dir_0f4ef650165da64ba052addc7b4d9be2 -->
<g id="node1" class="node">
<title>dir_0f4ef650165da64ba052addc7b4d9be2</title>
<g id="a_node1"><a xlink:href="dir_0f4ef650165da64ba052addc7b4d9be2.html" target="_top" xlink:title="JKRAramBlock">
<polygon fill="none" stroke="black" points="99.5,-108 16.5,-108 16.5,-72 99.5,-72 99.5,-108"/>
<text text-anchor="middle" x="58" y="-87.5" font-family="Helvetica,sans-Serif" font-size="10.00">JKRAramBlock</text>
</a>
</g>
</g>
<!-- dir_b778c3f297ab88300258a2935792c8cc -->
<g id="node4" class="node">
<title>dir_b778c3f297ab88300258a2935792c8cc</title>
<g id="a_node4"><a xlink:href="dir_b778c3f297ab88300258a2935792c8cc.html" target="_top" xlink:title="dolphin">
<polygon fill="none" stroke="black" points="182,-36 128,-36 128,0 182,0 182,-36"/>
<text text-anchor="middle" x="155" y="-15.5" font-family="Helvetica,sans-Serif" font-size="10.00">dolphin</text>
</a>
</g>
</g>
<!-- dir_0f4ef650165da64ba052addc7b4d9be2&#45;&gt;dir_b778c3f297ab88300258a2935792c8cc -->
<g id="edge5" class="edge">
<title>dir_0f4ef650165da64ba052addc7b4d9be2&#45;&gt;dir_b778c3f297ab88300258a2935792c8cc</title>
<path fill="none" stroke="black" d="M81.98,-71.7C94.31,-62.8 109.52,-51.82 122.85,-42.2"/>
<polygon fill="black" stroke="black" points="125.24,-44.79 131.3,-36.1 121.14,-39.12 125.24,-44.79"/>
<g id="a_edge5&#45;headlabel"><a xlink:href="dir_000086_000055.html" target="_top" xlink:title="1">
<text text-anchor="middle" x="123.98" y="-46.7" font-family="Helvetica,sans-Serif" font-size="10.00">1</text>
</a>
</g>
</g>
<!-- dir_d64f145ab4da6fc95eb957a725ec3ecf -->
<g id="node2" class="node">
<title>dir_d64f145ab4da6fc95eb957a725ec3ecf</title>
<g id="a_node2"><a xlink:href="dir_d64f145ab4da6fc95eb957a725ec3ecf.html" target="_top" xlink:title="JKRDisposer">
<polygon fill="none" stroke="black" points="192,-108 118,-108 118,-72 192,-72 192,-108"/>
<text text-anchor="middle" x="155" y="-87.5" font-family="Helvetica,sans-Serif" font-size="10.00">JKRDisposer</text>
</a>
</g>
</g>
<!-- dir_d64f145ab4da6fc95eb957a725ec3ecf&#45;&gt;dir_b778c3f297ab88300258a2935792c8cc -->
<g id="edge4" class="edge">
<title>dir_d64f145ab4da6fc95eb957a725ec3ecf&#45;&gt;dir_b778c3f297ab88300258a2935792c8cc</title>
<path fill="none" stroke="black" d="M155,-71.7C155,-63.98 155,-54.71 155,-46.11"/>
<polygon fill="black" stroke="black" points="158.5,-46.1 155,-36.1 151.5,-46.1 158.5,-46.1"/>
<g id="a_edge4&#45;headlabel"><a xlink:href="dir_000094_000055.html" target="_top" xlink:title="1">
<text text-anchor="middle" x="161.34" y="-47.2" font-family="Helvetica,sans-Serif" font-size="10.00">1</text>
</a>
</g>
</g>
<!-- dir_c8bf509663081a31bb414e5a6d50bc0c -->
<g id="node3" class="node">
<title>dir_c8bf509663081a31bb414e5a6d50bc0c</title>
<g id="a_node3"><a xlink:href="dir_c8bf509663081a31bb414e5a6d50bc0c.html" target="_top" xlink:title="JKRAramHeap">
<polygon fill="#eeeeff" stroke="black" points="192,-180 110,-180 110,-144 192,-144 192,-180"/>
<text text-anchor="middle" x="151" y="-159.5" font-family="Helvetica,sans-Serif" font-size="10.00">JKRAramHeap</text>
</a>
</g>
</g>
<!-- dir_c8bf509663081a31bb414e5a6d50bc0c&#45;&gt;dir_0f4ef650165da64ba052addc7b4d9be2 -->
<g id="edge1" class="edge">
<title>dir_c8bf509663081a31bb414e5a6d50bc0c&#45;&gt;dir_0f4ef650165da64ba052addc7b4d9be2</title>
<path fill="none" stroke="black" d="M128.01,-143.7C116.19,-134.8 101.61,-123.82 88.82,-114.2"/>
<polygon fill="black" stroke="black" points="90.82,-111.32 80.72,-108.1 86.61,-116.91 90.82,-111.32"/>
<g id="a_edge1&#45;headlabel"><a xlink:href="dir_000087_000086.html" target="_top" xlink:title="1">
<text text-anchor="middle" x="95.4" y="-108.71" font-family="Helvetica,sans-Serif" font-size="10.00">1</text>
</a>
</g>
</g>
<!-- dir_c8bf509663081a31bb414e5a6d50bc0c&#45;&gt;dir_d64f145ab4da6fc95eb957a725ec3ecf -->
<g id="edge3" class="edge">
<title>dir_c8bf509663081a31bb414e5a6d50bc0c&#45;&gt;dir_d64f145ab4da6fc95eb957a725ec3ecf</title>
<path fill="none" stroke="black" d="M151.99,-143.7C152.43,-135.98 152.96,-126.71 153.45,-118.11"/>
<polygon fill="black" stroke="black" points="156.95,-118.29 154.02,-108.1 149.96,-117.89 156.95,-118.29"/>
<g id="a_edge3&#45;headlabel"><a xlink:href="dir_000087_000094.html" target="_top" xlink:title="1">
<text text-anchor="middle" x="159.58" y="-119.54" font-family="Helvetica,sans-Serif" font-size="10.00">1</text>
</a>
</g>
</g>
<!-- dir_c8bf509663081a31bb414e5a6d50bc0c&#45;&gt;dir_b778c3f297ab88300258a2935792c8cc -->
<g id="edge2" class="edge">
<title>dir_c8bf509663081a31bb414e5a6d50bc0c&#45;&gt;dir_b778c3f297ab88300258a2935792c8cc</title>
<path fill="none" stroke="black" d="M173.6,-143.96C184.06,-134.63 195.4,-122.11 201,-108 208.22,-89.83 208.58,-82.03 201,-64 197.77,-56.32 192.52,-49.3 186.71,-43.21"/>
<polygon fill="black" stroke="black" points="188.8,-40.37 179.14,-36 183.97,-45.43 188.8,-40.37"/>
<g id="a_edge2&#45;headlabel"><a xlink:href="dir_000087_000055.html" target="_top" xlink:title="1">
<text text-anchor="middle" x="193.36" y="-38.29" font-family="Helvetica,sans-Serif" font-size="10.00">1</text>
</a>
</g>
</g>
</g>
</svg>
