<?xml version="1.0" encoding="UTF-8" standalone="no"?>
<!DOCTYPE svg PUBLIC "-//W3C//DTD SVG 1.1//EN"
 "http://www.w3.org/Graphics/SVG/1.1/DTD/svg11.dtd">
<!-- Generated by graphviz version 2.44.0 ()
 -->
<!-- Title: include/d/d_file Pages: 1 -->
<svg width="250pt" height="231pt"
 viewBox="0.00 0.00 250.15 231.00" xmlns="http://www.w3.org/2000/svg" xmlns:xlink="http://www.w3.org/1999/xlink">
<g id="graph0" class="graph" transform="scale(1 1) rotate(0) translate(4 227)">
<title>include/d/d_file</title>
<polygon fill="white" stroke="transparent" points="-4,4 -4,-227 246.15,-227 246.15,4 -4,4"/>
<g id="clust1" class="cluster">
<title>clusterdir_cc3ad1aed4be3f446fdd7af78322f5bf</title>
<g id="a_clust1"><a xlink:href="dir_cc3ad1aed4be3f446fdd7af78322f5bf.html" target="_top" xlink:title="d">
<polygon fill="#ddddee" stroke="black" points="8,-64 8,-215 230,-215 230,-64 8,-64"/>
<text text-anchor="middle" x="119" y="-203" font-family="Helvetica,sans-Serif" font-size="10.00">d</text>
</a>
</g>
</g>
<g id="clust2" class="cluster">
<title>clusterdir_7159d190278c470138421132a1583e6a</title>
<g id="a_clust2"><a xlink:href="dir_7159d190278c470138421132a1583e6a.html" target="_top">
<polygon fill="#eeeeff" stroke="black" points="56,-136 56,-188 222,-188 222,-136 56,-136"/>
</a>
</g>
</g>
<!-- dir_89d018f6522593b606270e65dcd55a5d -->
<g id="node1" class="node">
<title>dir_89d018f6522593b606270e65dcd55a5d</title>
<g id="a_node1"><a xlink:href="dir_89d018f6522593b606270e65dcd55a5d.html" target="_top" xlink:title="d_drawlist">
<polygon fill="none" stroke="black" points="77.5,-108 16.5,-108 16.5,-72 77.5,-72 77.5,-108"/>
<text text-anchor="middle" x="47" y="-87.5" font-family="Helvetica,sans-Serif" font-size="10.00">d_drawlist</text>
</a>
</g>
</g>
<!-- dir_4f0979a7f5e3194619cde56505e372d8 -->
<g id="node6" class="node">
<title>dir_4f0979a7f5e3194619cde56505e372d8</title>
<g id="a_node6"><a xlink:href="dir_4f0979a7f5e3194619cde56505e372d8.html" target="_top" xlink:title="JSystem">
<polygon fill="white" stroke="red" points="175.5,-36 120.5,-36 120.5,0 175.5,0 175.5,-36"/>
<text text-anchor="middle" x="148" y="-15.5" font-family="Helvetica,sans-Serif" font-size="10.00">JSystem</text>
</a>
</g>
</g>
<!-- dir_89d018f6522593b606270e65dcd55a5d&#45;&gt;dir_4f0979a7f5e3194619cde56505e372d8 -->
<g id="edge5" class="edge">
<title>dir_89d018f6522593b606270e65dcd55a5d&#45;&gt;dir_4f0979a7f5e3194619cde56505e372d8</title>
<path fill="none" stroke="black" d="M71.71,-71.88C84.67,-62.89 100.73,-51.76 114.77,-42.03"/>
<polygon fill="black" stroke="black" points="116.97,-44.76 123.2,-36.19 112.98,-39.01 116.97,-44.76"/>
<g id="a_edge5&#45;headlabel"><a xlink:href="dir_000021_000062.html" target="_top" xlink:title="1">
<text text-anchor="middle" x="115.64" y="-46.64" font-family="Helvetica,sans-Serif" font-size="10.00">1</text>
</a>
</g>
</g>
<!-- dir_36d288fdd243ef3949d81306475bb795 -->
<g id="node2" class="node">
<title>dir_36d288fdd243ef3949d81306475bb795</title>
<g id="a_node2"><a xlink:href="dir_36d288fdd243ef3949d81306475bb795.html" target="_top" xlink:title="d_pane">
<polygon fill="white" stroke="red" points="150,-108 96,-108 96,-72 150,-72 150,-108"/>
<text text-anchor="middle" x="123" y="-87.5" font-family="Helvetica,sans-Serif" font-size="10.00">d_pane</text>
</a>
</g>
</g>
<!-- dir_063c165614e438cbcf770f6656a50335 -->
<g id="node3" class="node">
<title>dir_063c165614e438cbcf770f6656a50335</title>
<g id="a_node3"><a xlink:href="dir_063c165614e438cbcf770f6656a50335.html" target="_top" xlink:title="d_save">
<polygon fill="white" stroke="red" points="222,-108 168,-108 168,-72 222,-72 222,-108"/>
<text text-anchor="middle" x="195" y="-87.5" font-family="Helvetica,sans-Serif" font-size="10.00">d_save</text>
</a>
</g>
</g>
<!-- dir_7159d190278c470138421132a1583e6a -->
<g id="node4" class="node">
<title>dir_7159d190278c470138421132a1583e6a</title>
<text text-anchor="middle" x="187" y="-159.5" font-family="Helvetica,sans-Serif" font-size="10.00">d_file</text>
</g>
<!-- dir_3cc4811a954a79f25aabe0cbc9a2419e -->
<g id="node5" class="node">
<title>dir_3cc4811a954a79f25aabe0cbc9a2419e</title>
<g id="a_node5"><a xlink:href="dir_3cc4811a954a79f25aabe0cbc9a2419e.html" target="_top" xlink:title="d_file_sel_info">
<polygon fill="white" stroke="black" points="142,-180 64,-180 64,-144 142,-144 142,-180"/>
<text text-anchor="middle" x="103" y="-159.5" font-family="Helvetica,sans-Serif" font-size="10.00">d_file_sel_info</text>
</a>
</g>
</g>
<!-- dir_3cc4811a954a79f25aabe0cbc9a2419e&#45;&gt;dir_89d018f6522593b606270e65dcd55a5d -->
<g id="edge4" class="edge">
<title>dir_3cc4811a954a79f25aabe0cbc9a2419e&#45;&gt;dir_89d018f6522593b606270e65dcd55a5d</title>
<path fill="none" stroke="black" d="M89.16,-143.7C82.51,-135.39 74.42,-125.28 67.11,-116.14"/>
<polygon fill="black" stroke="black" points="69.66,-113.73 60.68,-108.1 64.2,-118.1 69.66,-113.73"/>
<g id="a_edge4&#45;headlabel"><a xlink:href="dir_000028_000021.html" target="_top" xlink:title="1">
<text text-anchor="middle" x="74.13" y="-112.26" font-family="Helvetica,sans-Serif" font-size="10.00">1</text>
</a>
</g>
</g>
<!-- dir_3cc4811a954a79f25aabe0cbc9a2419e&#45;&gt;dir_36d288fdd243ef3949d81306475bb795 -->
<g id="edge2" class="edge">
<title>dir_3cc4811a954a79f25aabe0cbc9a2419e&#45;&gt;dir_36d288fdd243ef3949d81306475bb795</title>
<path fill="none" stroke="black" d="M107.94,-143.7C110.17,-135.9 112.85,-126.51 115.33,-117.83"/>
<polygon fill="black" stroke="black" points="118.73,-118.68 118.11,-108.1 112,-116.76 118.73,-118.68"/>
<g id="a_edge2&#45;headlabel"><a xlink:href="dir_000028_000044.html" target="_top" xlink:title="1">
<text text-anchor="middle" x="120.47" y="-120.42" font-family="Helvetica,sans-Serif" font-size="10.00">1</text>
</a>
</g>
</g>
<!-- dir_3cc4811a954a79f25aabe0cbc9a2419e&#45;&gt;dir_063c165614e438cbcf770f6656a50335 -->
<g id="edge1" class="edge">
<title>dir_3cc4811a954a79f25aabe0cbc9a2419e&#45;&gt;dir_063c165614e438cbcf770f6656a50335</title>
<path fill="none" stroke="black" d="M125.74,-143.7C137.44,-134.8 151.86,-123.82 164.51,-114.2"/>
<polygon fill="black" stroke="black" points="166.68,-116.94 172.52,-108.1 162.44,-111.37 166.68,-116.94"/>
<g id="a_edge1&#45;headlabel"><a xlink:href="dir_000028_000048.html" target="_top" xlink:title="1">
<text text-anchor="middle" x="165.54" y="-118.88" font-family="Helvetica,sans-Serif" font-size="10.00">1</text>
</a>
</g>
</g>
<!-- dir_3cc4811a954a79f25aabe0cbc9a2419e&#45;&gt;dir_4f0979a7f5e3194619cde56505e372d8 -->
<g id="edge3" class="edge">
<title>dir_3cc4811a954a79f25aabe0cbc9a2419e&#45;&gt;dir_4f0979a7f5e3194619cde56505e372d8</title>
<path fill="none" stroke="black" d="M134.16,-143.88C139.7,-141.1 145.47,-138.36 151,-136 186.82,-120.74 211.29,-139.62 234,-108 245.41,-92.12 244.13,-80.73 234,-64 223.4,-46.49 203.49,-35.46 185.49,-28.71"/>
<polygon fill="black" stroke="black" points="186.36,-25.31 175.76,-25.38 184.09,-31.93 186.36,-25.31"/>
<g id="a_edge3&#45;headlabel"><a xlink:href="dir_000028_000062.html" target="_top" xlink:title="3">
<text text-anchor="middle" x="190.68" y="-21.28" font-family="Helvetica,sans-Serif" font-size="10.00">3</text>
</a>
</g>
</g>
</g>
</svg>
