<?xml version="1.0" encoding="UTF-8" standalone="no"?>
<!DOCTYPE svg PUBLIC "-//W3C//DTD SVG 1.1//EN"
 "http://www.w3.org/Graphics/SVG/1.1/DTD/svg11.dtd">
<!-- Generated by graphviz version 2.44.0 ()
 -->
<!-- Title: include/d/d_cc Pages: 1 -->
<svg width="182pt" height="231pt"
 viewBox="0.00 0.00 182.00 231.00" xmlns="http://www.w3.org/2000/svg" xmlns:xlink="http://www.w3.org/1999/xlink">
<g id="graph0" class="graph" transform="scale(1 1) rotate(0) translate(4 227)">
<title>include/d/d_cc</title>
<polygon fill="white" stroke="transparent" points="-4,4 -4,-227 178,-227 178,4 -4,4"/>
<g id="clust1" class="cluster">
<title>clusterdir_cc3ad1aed4be3f446fdd7af78322f5bf</title>
<g id="a_clust1"><a xlink:href="dir_cc3ad1aed4be3f446fdd7af78322f5bf.html" target="_top" xlink:title="d">
<polygon fill="#ddddee" stroke="black" points="8,-56 8,-215 166,-215 166,-56 8,-56"/>
<text text-anchor="middle" x="87" y="-203" font-family="Helvetica,sans-Serif" font-size="10.00">d</text>
</a>
</g>
</g>
<g id="clust2" class="cluster">
<title>clusterdir_d8f68de767d13f502dffa2cd27f1ff82</title>
<g id="a_clust2"><a xlink:href="dir_d8f68de767d13f502dffa2cd27f1ff82.html" target="_top">
<polygon fill="#eeeeff" stroke="black" points="16,-64 16,-188 158,-188 158,-64 16,-64"/>
</a>
</g>
</g>
<!-- dir_d8f68de767d13f502dffa2cd27f1ff82 -->
<g id="node1" class="node">
<title>dir_d8f68de767d13f502dffa2cd27f1ff82</title>
<text text-anchor="middle" x="123" y="-159.5" font-family="Helvetica,sans-Serif" font-size="10.00">d_cc</text>
</g>
<!-- dir_76ec03b56887a0e8201bcb48abf48018 -->
<g id="node4" class="node">
<title>dir_76ec03b56887a0e8201bcb48abf48018</title>
<g id="a_node4"><a xlink:href="dir_76ec03b56887a0e8201bcb48abf48018.html" target="_top" xlink:title="SComponent">
<polygon fill="white" stroke="red" points="166.5,-36 93.5,-36 93.5,0 166.5,0 166.5,-36"/>
<text text-anchor="middle" x="130" y="-15.5" font-family="Helvetica,sans-Serif" font-size="10.00">SComponent</text>
</a>
</g>
</g>
<!-- dir_d8f68de767d13f502dffa2cd27f1ff82&#45;&gt;dir_76ec03b56887a0e8201bcb48abf48018 -->
<g id="edge4" class="edge">
<title>dir_d8f68de767d13f502dffa2cd27f1ff82&#45;&gt;dir_76ec03b56887a0e8201bcb48abf48018</title>
<path fill="none" stroke="black" d="M131.72,-143.83C136.37,-133.69 141.62,-120.44 144,-108 148.33,-85.3 148.16,-78.73 144,-56 143.39,-52.69 142.51,-49.29 141.47,-45.96"/>
<polygon fill="black" stroke="black" points="144.69,-44.56 138.03,-36.32 138.09,-46.91 144.69,-44.56"/>
<g id="a_edge4&#45;headlabel"><a xlink:href="dir_000016_000137.html" target="_top" xlink:title="3">
<text text-anchor="middle" x="148.57" y="-44.49" font-family="Helvetica,sans-Serif" font-size="10.00">3</text>
</a>
</g>
</g>
<!-- dir_9a1390ef2a13020b0a91b7000b12656a -->
<g id="node2" class="node">
<title>dir_9a1390ef2a13020b0a91b7000b12656a</title>
<g id="a_node2"><a xlink:href="dir_9a1390ef2a13020b0a91b7000b12656a.html" target="_top" xlink:title="d_cc_mass_s">
<polygon fill="white" stroke="black" points="101.5,-108 24.5,-108 24.5,-72 101.5,-72 101.5,-108"/>
<text text-anchor="middle" x="63" y="-87.5" font-family="Helvetica,sans-Serif" font-size="10.00">d_cc_mass_s</text>
</a>
</g>
</g>
<!-- dir_9a1390ef2a13020b0a91b7000b12656a&#45;&gt;dir_76ec03b56887a0e8201bcb48abf48018 -->
<g id="edge3" class="edge">
<title>dir_9a1390ef2a13020b0a91b7000b12656a&#45;&gt;dir_76ec03b56887a0e8201bcb48abf48018</title>
<path fill="none" stroke="black" d="M79.56,-71.7C87.68,-63.22 97.59,-52.86 106.47,-43.58"/>
<polygon fill="black" stroke="black" points="109.24,-45.75 113.63,-36.1 104.19,-40.91 109.24,-45.75"/>
<g id="a_edge3&#45;headlabel"><a xlink:href="dir_000017_000137.html" target="_top" xlink:title="1">
<text text-anchor="middle" x="108.81" y="-47.81" font-family="Helvetica,sans-Serif" font-size="10.00">1</text>
</a>
</g>
</g>
<!-- dir_488653da2da107845261aeb75f234e67 -->
<g id="node3" class="node">
<title>dir_488653da2da107845261aeb75f234e67</title>
<g id="a_node3"><a xlink:href="dir_488653da2da107845261aeb75f234e67.html" target="_top" xlink:title="d_cc_s">
<polygon fill="white" stroke="black" points="78,-180 24,-180 24,-144 78,-144 78,-180"/>
<text text-anchor="middle" x="51" y="-159.5" font-family="Helvetica,sans-Serif" font-size="10.00">d_cc_s</text>
</a>
</g>
</g>
<!-- dir_488653da2da107845261aeb75f234e67&#45;&gt;dir_9a1390ef2a13020b0a91b7000b12656a -->
<g id="edge2" class="edge">
<title>dir_488653da2da107845261aeb75f234e67&#45;&gt;dir_9a1390ef2a13020b0a91b7000b12656a</title>
<path fill="none" stroke="black" d="M53.97,-143.7C55.29,-135.98 56.88,-126.71 58.35,-118.11"/>
<polygon fill="black" stroke="black" points="61.83,-118.55 60.07,-108.1 54.93,-117.37 61.83,-118.55"/>
<g id="a_edge2&#45;headlabel"><a xlink:href="dir_000018_000017.html" target="_top" xlink:title="1">
<text text-anchor="middle" x="64.02" y="-120.07" font-family="Helvetica,sans-Serif" font-size="10.00">1</text>
</a>
</g>
</g>
<!-- dir_488653da2da107845261aeb75f234e67&#45;&gt;dir_76ec03b56887a0e8201bcb48abf48018 -->
<g id="edge1" class="edge">
<title>dir_488653da2da107845261aeb75f234e67&#45;&gt;dir_76ec03b56887a0e8201bcb48abf48018</title>
<path fill="none" stroke="black" d="M76.99,-143.98C89.1,-134.74 102.66,-122.28 111,-108 121.99,-89.18 126.66,-64.81 128.62,-46.32"/>
<polygon fill="black" stroke="black" points="132.12,-46.47 129.49,-36.21 125.14,-45.87 132.12,-46.47"/>
<g id="a_edge1&#45;headlabel"><a xlink:href="dir_000018_000137.html" target="_top" xlink:title="1">
<text text-anchor="middle" x="134.64" y="-47.8" font-family="Helvetica,sans-Serif" font-size="10.00">1</text>
</a>
</g>
</g>
</g>
</svg>
