<?xml version="1.0" encoding="UTF-8" standalone="no"?>
<!DOCTYPE svg PUBLIC "-//W3C//DTD SVG 1.1//EN"
 "http://www.w3.org/Graphics/SVG/1.1/DTD/svg11.dtd">
<!-- Generated by graphviz version 2.44.0 ()
 -->
<!-- Title: include/Z2AudioLib/Z2Creature Pages: 1 -->
<svg width="180pt" height="167pt"
 viewBox="0.00 0.00 180.00 167.00" xmlns="http://www.w3.org/2000/svg" xmlns:xlink="http://www.w3.org/1999/xlink">
<g id="graph0" class="graph" transform="scale(1 1) rotate(0) translate(4 163)">
<title>include/Z2AudioLib/Z2Creature</title>
<polygon fill="white" stroke="transparent" points="-4,4 -4,-163 176,-163 176,4 -4,4"/>
<g id="clust1" class="cluster">
<title>clusterdir_81939fb769658ab66ba54ec390580a1a</title>
<g id="a_clust1"><a xlink:href="dir_81939fb769658ab66ba54ec390580a1a.html" target="_top" xlink:title="Z2AudioLib">
<polygon fill="#ddddee" stroke="black" points="8,-8 8,-151 108,-151 108,-8 8,-8"/>
<text text-anchor="middle" x="58" y="-139" font-family="Helvetica,sans-Serif" font-size="10.00">Z2AudioLib</text>
</a>
</g>
</g>
<!-- dir_ae1246dc474cde6f2d6b9a824869d07e -->
<g id="node1" class="node">
<title>dir_ae1246dc474cde6f2d6b9a824869d07e</title>
<g id="a_node1"><a xlink:href="dir_ae1246dc474cde6f2d6b9a824869d07e.html" target="_top" xlink:title="Z2SoundObject">
<polygon fill="none" stroke="black" points="100,-52 16,-52 16,-16 100,-16 100,-52"/>
<text text-anchor="middle" x="58" y="-31.5" font-family="Helvetica,sans-Serif" font-size="10.00">Z2SoundObject</text>
</a>
</g>
</g>
<!-- dir_2eb90578ec0f7a4ade42c9b5edcee0c8 -->
<g id="node2" class="node">
<title>dir_2eb90578ec0f7a4ade42c9b5edcee0c8</title>
<g id="a_node2"><a xlink:href="dir_2eb90578ec0f7a4ade42c9b5edcee0c8.html" target="_top" xlink:title="Z2Creature">
<polygon fill="#eeeeff" stroke="black" points="94.5,-124 29.5,-124 29.5,-88 94.5,-88 94.5,-124"/>
<text text-anchor="middle" x="62" y="-103.5" font-family="Helvetica,sans-Serif" font-size="10.00">Z2Creature</text>
</a>
</g>
</g>
<!-- dir_2eb90578ec0f7a4ade42c9b5edcee0c8&#45;&gt;dir_ae1246dc474cde6f2d6b9a824869d07e -->
<g id="edge1" class="edge">
<title>dir_2eb90578ec0f7a4ade42c9b5edcee0c8&#45;&gt;dir_ae1246dc474cde6f2d6b9a824869d07e</title>
<path fill="none" stroke="black" d="M61.01,-87.7C60.57,-79.98 60.04,-70.71 59.55,-62.11"/>
<polygon fill="black" stroke="black" points="63.04,-61.89 58.98,-52.1 56.05,-62.29 63.04,-61.89"/>
<g id="a_edge1&#45;headlabel"><a xlink:href="dir_000151_000162.html" target="_top" xlink:title="1">
<text text-anchor="middle" x="66.08" y="-62.82" font-family="Helvetica,sans-Serif" font-size="10.00">1</text>
</a>
</g>
</g>
<!-- dir_b778c3f297ab88300258a2935792c8cc -->
<g id="node3" class="node">
<title>dir_b778c3f297ab88300258a2935792c8cc</title>
<g id="a_node3"><a xlink:href="dir_b778c3f297ab88300258a2935792c8cc.html" target="_top" xlink:title="dolphin">
<polygon fill="none" stroke="black" points="172,-52 118,-52 118,-16 172,-16 172,-52"/>
<text text-anchor="middle" x="145" y="-31.5" font-family="Helvetica,sans-Serif" font-size="10.00">dolphin</text>
</a>
</g>
</g>
<!-- dir_2eb90578ec0f7a4ade42c9b5edcee0c8&#45;&gt;dir_b778c3f297ab88300258a2935792c8cc -->
<g id="edge2" class="edge">
<title>dir_2eb90578ec0f7a4ade42c9b5edcee0c8&#45;&gt;dir_b778c3f297ab88300258a2935792c8cc</title>
<path fill="none" stroke="black" d="M82.52,-87.7C92.87,-78.97 105.59,-68.24 116.84,-58.75"/>
<polygon fill="black" stroke="black" points="119.33,-61.23 124.72,-52.1 114.82,-55.88 119.33,-61.23"/>
<g id="a_edge2&#45;headlabel"><a xlink:href="dir_000151_000055.html" target="_top" xlink:title="1">
<text text-anchor="middle" x="118.41" y="-63.21" font-family="Helvetica,sans-Serif" font-size="10.00">1</text>
</a>
</g>
</g>
</g>
</svg>
