<?xml version="1.0" encoding="UTF-8" standalone="no"?>
<!DOCTYPE svg PUBLIC "-//W3C//DTD SVG 1.1//EN"
 "http://www.w3.org/Graphics/SVG/1.1/DTD/svg11.dtd">
<!-- Generated by graphviz version 2.44.0 ()
 -->
<!-- Title: include/JSystem/J3DGraphBase/J3DDrawBuffer Pages: 1 -->
<svg width="122pt" height="223pt"
 viewBox="0.00 0.00 122.00 223.00" xmlns="http://www.w3.org/2000/svg" xmlns:xlink="http://www.w3.org/1999/xlink">
<g id="graph0" class="graph" transform="scale(1 1) rotate(0) translate(4 219)">
<title>include/JSystem/J3DGraphBase/J3DDrawBuffer</title>
<polygon fill="white" stroke="transparent" points="-4,4 -4,-219 118,-219 118,4 -4,4"/>
<g id="clust1" class="cluster">
<title>clusterdir_4a61573b4bce9188d102de1e22b28aee</title>
<g id="a_clust1"><a xlink:href="dir_4a61573b4bce9188d102de1e22b28aee.html" target="_top" xlink:title="J3DGraphBase">
<polygon fill="#ddddee" stroke="black" points="8,-64 8,-207 106,-207 106,-64 8,-64"/>
<text text-anchor="middle" x="57" y="-195" font-family="Helvetica,sans-Serif" font-size="10.00">J3DGraphBase</text>
</a>
</g>
</g>
<!-- dir_025e65f778f1c05c638a24d971c52844 -->
<g id="node1" class="node">
<title>dir_025e65f778f1c05c638a24d971c52844</title>
<g id="a_node1"><a xlink:href="dir_025e65f778f1c05c638a24d971c52844.html" target="_top" xlink:title="J3DPacket">
<polygon fill="none" stroke="black" points="85.5,-108 20.5,-108 20.5,-72 85.5,-72 85.5,-108"/>
<text text-anchor="middle" x="53" y="-87.5" font-family="Helvetica,sans-Serif" font-size="10.00">J3DPacket</text>
</a>
</g>
</g>
<!-- dir_b778c3f297ab88300258a2935792c8cc -->
<g id="node3" class="node">
<title>dir_b778c3f297ab88300258a2935792c8cc</title>
<g id="a_node3"><a xlink:href="dir_b778c3f297ab88300258a2935792c8cc.html" target="_top" xlink:title="dolphin">
<polygon fill="none" stroke="black" points="110,-36 56,-36 56,0 110,0 110,-36"/>
<text text-anchor="middle" x="83" y="-15.5" font-family="Helvetica,sans-Serif" font-size="10.00">dolphin</text>
</a>
</g>
</g>
<!-- dir_025e65f778f1c05c638a24d971c52844&#45;&gt;dir_b778c3f297ab88300258a2935792c8cc -->
<g id="edge3" class="edge">
<title>dir_025e65f778f1c05c638a24d971c52844&#45;&gt;dir_b778c3f297ab88300258a2935792c8cc</title>
<path fill="none" stroke="black" d="M60.42,-71.7C63.79,-63.81 67.87,-54.3 71.62,-45.55"/>
<polygon fill="black" stroke="black" points="74.95,-46.67 75.67,-36.1 68.51,-43.92 74.95,-46.67"/>
<g id="a_edge3&#45;headlabel"><a xlink:href="dir_000070_000055.html" target="_top" xlink:title="1">
<text text-anchor="middle" x="76.14" y="-48.6" font-family="Helvetica,sans-Serif" font-size="10.00">1</text>
</a>
</g>
</g>
<!-- dir_1d9ae152d653c1a56a792b1b37b504ec -->
<g id="node2" class="node">
<title>dir_1d9ae152d653c1a56a792b1b37b504ec</title>
<g id="a_node2"><a xlink:href="dir_1d9ae152d653c1a56a792b1b37b504ec.html" target="_top" xlink:title="J3DDrawBuffer">
<polygon fill="#eeeeff" stroke="black" points="98,-180 16,-180 16,-144 98,-144 98,-180"/>
<text text-anchor="middle" x="57" y="-159.5" font-family="Helvetica,sans-Serif" font-size="10.00">J3DDrawBuffer</text>
</a>
</g>
</g>
<!-- dir_1d9ae152d653c1a56a792b1b37b504ec&#45;&gt;dir_025e65f778f1c05c638a24d971c52844 -->
<g id="edge1" class="edge">
<title>dir_1d9ae152d653c1a56a792b1b37b504ec&#45;&gt;dir_025e65f778f1c05c638a24d971c52844</title>
<path fill="none" stroke="black" d="M56.01,-143.7C55.57,-135.98 55.04,-126.71 54.55,-118.11"/>
<polygon fill="black" stroke="black" points="58.04,-117.89 53.98,-108.1 51.05,-118.29 58.04,-117.89"/>
<g id="a_edge1&#45;headlabel"><a xlink:href="dir_000068_000070.html" target="_top" xlink:title="1">
<text text-anchor="middle" x="61.08" y="-118.82" font-family="Helvetica,sans-Serif" font-size="10.00">1</text>
</a>
</g>
</g>
<!-- dir_1d9ae152d653c1a56a792b1b37b504ec&#45;&gt;dir_b778c3f297ab88300258a2935792c8cc -->
<g id="edge2" class="edge">
<title>dir_1d9ae152d653c1a56a792b1b37b504ec&#45;&gt;dir_b778c3f297ab88300258a2935792c8cc</title>
<path fill="none" stroke="black" d="M73.46,-143.92C81.65,-134.22 90.7,-121.37 95,-108 101.5,-87.77 97.68,-63.87 92.69,-45.92"/>
<polygon fill="black" stroke="black" points="95.96,-44.66 89.68,-36.12 89.27,-46.71 95.96,-44.66"/>
<g id="a_edge2&#45;headlabel"><a xlink:href="dir_000068_000055.html" target="_top" xlink:title="1">
<text text-anchor="middle" x="99.73" y="-44.76" font-family="Helvetica,sans-Serif" font-size="10.00">1</text>
</a>
</g>
</g>
</g>
</svg>
