<?xml version="1.0" encoding="UTF-8" standalone="no"?>
<!DOCTYPE svg PUBLIC "-//W3C//DTD SVG 1.1//EN"
 "http://www.w3.org/Graphics/SVG/1.1/DTD/svg11.dtd">
<!-- Generated by graphviz version 2.44.0 ()
 -->
<!-- Title: include/m_Do/m_Do_ext Pages: 1 -->
<svg width="108pt" height="295pt"
 viewBox="0.00 0.00 108.00 295.00" xmlns="http://www.w3.org/2000/svg" xmlns:xlink="http://www.w3.org/1999/xlink">
<g id="graph0" class="graph" transform="scale(1 1) rotate(0) translate(4 291)">
<title>include/m_Do/m_Do_ext</title>
<polygon fill="white" stroke="transparent" points="-4,4 -4,-291 104,-291 104,4 -4,4"/>
<g id="clust1" class="cluster">
<title>clusterdir_6bdfff2c28f90f381b6da5bee088878b</title>
<g id="a_clust1"><a xlink:href="dir_6bdfff2c28f90f381b6da5bee088878b.html" target="_top" xlink:title="m_Do">
<polygon fill="#ddddee" stroke="black" points="8,-208 8,-279 84,-279 84,-208 8,-208"/>
<text text-anchor="middle" x="46" y="-267" font-family="Helvetica,sans-Serif" font-size="10.00">m_Do</text>
</a>
</g>
</g>
<!-- dir_30ea13dec83035cec10245484eb25550 -->
<g id="node1" class="node">
<title>dir_30ea13dec83035cec10245484eb25550</title>
<g id="a_node1"><a xlink:href="dir_30ea13dec83035cec10245484eb25550.html" target="_top" xlink:title="m_Do_ext">
<polygon fill="#eeeeff" stroke="black" points="76,-252 16,-252 16,-216 76,-216 76,-252"/>
<text text-anchor="middle" x="46" y="-231.5" font-family="Helvetica,sans-Serif" font-size="10.00">m_Do_ext</text>
</a>
</g>
</g>
<!-- dir_4f0979a7f5e3194619cde56505e372d8 -->
<g id="node2" class="node">
<title>dir_4f0979a7f5e3194619cde56505e372d8</title>
<g id="a_node2"><a xlink:href="dir_4f0979a7f5e3194619cde56505e372d8.html" target="_top" xlink:title="JSystem">
<polygon fill="white" stroke="red" points="72.5,-108 17.5,-108 17.5,-72 72.5,-72 72.5,-108"/>
<text text-anchor="middle" x="45" y="-87.5" font-family="Helvetica,sans-Serif" font-size="10.00">JSystem</text>
</a>
</g>
</g>
<!-- dir_30ea13dec83035cec10245484eb25550&#45;&gt;dir_4f0979a7f5e3194619cde56505e372d8 -->
<g id="edge1" class="edge">
<title>dir_30ea13dec83035cec10245484eb25550&#45;&gt;dir_4f0979a7f5e3194619cde56505e372d8</title>
<path fill="none" stroke="black" d="M30.39,-215.77C22.63,-206.03 14.05,-193.18 10,-180 5.3,-164.71 5.4,-159.32 10,-144 12.92,-134.28 18.26,-124.7 23.91,-116.41"/>
<polygon fill="black" stroke="black" points="26.76,-118.44 29.82,-108.3 21.1,-114.32 26.76,-118.44"/>
<g id="a_edge1&#45;headlabel"><a xlink:href="dir_000128_000062.html" target="_top" xlink:title="3">
<text text-anchor="middle" x="26.94" y="-120.52" font-family="Helvetica,sans-Serif" font-size="10.00">3</text>
</a>
</g>
</g>
<!-- dir_7b371d9fdb0359ac564866f88df60f77 -->
<g id="node3" class="node">
<title>dir_7b371d9fdb0359ac564866f88df60f77</title>
<g id="a_node3"><a xlink:href="dir_7b371d9fdb0359ac564866f88df60f77.html" target="_top" xlink:title="os">
<polygon fill="none" stroke="black" points="100,-36 46,-36 46,0 100,0 100,-36"/>
<text text-anchor="middle" x="73" y="-15.5" font-family="Helvetica,sans-Serif" font-size="10.00">os</text>
</a>
</g>
</g>
<!-- dir_30ea13dec83035cec10245484eb25550&#45;&gt;dir_7b371d9fdb0359ac564866f88df60f77 -->
<g id="edge2" class="edge">
<title>dir_30ea13dec83035cec10245484eb25550&#45;&gt;dir_7b371d9fdb0359ac564866f88df60f77</title>
<path fill="none" stroke="black" d="M61.61,-215.77C69.37,-206.03 77.95,-193.18 82,-180 95.9,-134.8 87.54,-79.16 80.24,-46.53"/>
<polygon fill="black" stroke="black" points="83.55,-45.32 77.84,-36.4 76.74,-46.93 83.55,-45.32"/>
<g id="a_edge2&#45;headlabel"><a xlink:href="dir_000128_000135.html" target="_top" xlink:title="1">
<text text-anchor="middle" x="87.14" y="-45.66" font-family="Helvetica,sans-Serif" font-size="10.00">1</text>
</a>
</g>
</g>
<!-- dir_cc3ad1aed4be3f446fdd7af78322f5bf -->
<g id="node4" class="node">
<title>dir_cc3ad1aed4be3f446fdd7af78322f5bf</title>
<g id="a_node4"><a xlink:href="dir_cc3ad1aed4be3f446fdd7af78322f5bf.html" target="_top" xlink:title="d">
<polygon fill="white" stroke="red" points="73,-180 19,-180 19,-144 73,-144 73,-180"/>
<text text-anchor="middle" x="46" y="-159.5" font-family="Helvetica,sans-Serif" font-size="10.00">d</text>
</a>
</g>
</g>
<!-- dir_30ea13dec83035cec10245484eb25550&#45;&gt;dir_cc3ad1aed4be3f446fdd7af78322f5bf -->
<g id="edge3" class="edge">
<title>dir_30ea13dec83035cec10245484eb25550&#45;&gt;dir_cc3ad1aed4be3f446fdd7af78322f5bf</title>
<path fill="none" stroke="black" d="M46,-215.7C46,-207.98 46,-198.71 46,-190.11"/>
<polygon fill="black" stroke="black" points="49.5,-190.1 46,-180.1 42.5,-190.1 49.5,-190.1"/>
<g id="a_edge3&#45;headlabel"><a xlink:href="dir_000128_000003.html" target="_top" xlink:title="1">
<text text-anchor="middle" x="52.34" y="-191.2" font-family="Helvetica,sans-Serif" font-size="10.00">1</text>
</a>
</g>
</g>
<!-- dir_4f0979a7f5e3194619cde56505e372d8&#45;&gt;dir_7b371d9fdb0359ac564866f88df60f77 -->
<g id="edge5" class="edge">
<title>dir_4f0979a7f5e3194619cde56505e372d8&#45;&gt;dir_7b371d9fdb0359ac564866f88df60f77</title>
<path fill="none" stroke="black" d="M51.92,-71.7C55.07,-63.81 58.88,-54.3 62.38,-45.55"/>
<polygon fill="black" stroke="black" points="65.69,-46.69 66.16,-36.1 59.19,-44.09 65.69,-46.69"/>
<g id="a_edge5&#45;headlabel"><a xlink:href="dir_000062_000135.html" target="_top" xlink:title="3">
<text text-anchor="middle" x="67" y="-48.58" font-family="Helvetica,sans-Serif" font-size="10.00">3</text>
</a>
</g>
</g>
<!-- dir_cc3ad1aed4be3f446fdd7af78322f5bf&#45;&gt;dir_4f0979a7f5e3194619cde56505e372d8 -->
<g id="edge4" class="edge">
<title>dir_cc3ad1aed4be3f446fdd7af78322f5bf&#45;&gt;dir_4f0979a7f5e3194619cde56505e372d8</title>
<path fill="none" stroke="black" d="M45.75,-143.7C45.64,-135.98 45.51,-126.71 45.39,-118.11"/>
<polygon fill="black" stroke="black" points="48.89,-118.05 45.24,-108.1 41.89,-118.15 48.89,-118.05"/>
<g id="a_edge4&#45;headlabel"><a xlink:href="dir_000003_000062.html" target="_top" xlink:title="25">
<text text-anchor="middle" x="51.78" y="-119.11" font-family="Helvetica,sans-Serif" font-size="10.00">25</text>
</a>
</g>
</g>
</g>
</svg>
