<?xml version="1.0" encoding="UTF-8" standalone="no"?>
<!DOCTYPE svg PUBLIC "-//W3C//DTD SVG 1.1//EN"
 "http://www.w3.org/Graphics/SVG/1.1/DTD/svg11.dtd">
<!-- Generated by graphviz version 2.44.0 ()
 -->
<!-- Title: include/JSystem/J2DGraph/J2DPicture Pages: 1 -->
<svg width="161pt" height="223pt"
 viewBox="0.00 0.00 161.00 223.00" xmlns="http://www.w3.org/2000/svg" xmlns:xlink="http://www.w3.org/1999/xlink">
<g id="graph0" class="graph" transform="scale(1 1) rotate(0) translate(4 219)">
<title>include/JSystem/J2DGraph/J2DPicture</title>
<polygon fill="white" stroke="transparent" points="-4,4 -4,-219 157,-219 157,4 -4,4"/>
<g id="clust1" class="cluster">
<title>clusterdir_a9517e75d808b51ad9f5947a3cea1d31</title>
<g id="a_clust1"><a xlink:href="dir_a9517e75d808b51ad9f5947a3cea1d31.html" target="_top" xlink:title="J2DGraph">
<polygon fill="#ddddee" stroke="black" points="63,-136 63,-207 145,-207 145,-136 63,-136"/>
<text text-anchor="middle" x="104" y="-195" font-family="Helvetica,sans-Serif" font-size="10.00">J2DGraph</text>
</a>
</g>
</g>
<!-- dir_191f6b39af93efb74e4bf57ddb4fdeaf -->
<g id="node1" class="node">
<title>dir_191f6b39af93efb74e4bf57ddb4fdeaf</title>
<g id="a_node1"><a xlink:href="dir_191f6b39af93efb74e4bf57ddb4fdeaf.html" target="_top" xlink:title="J2DPicture">
<polygon fill="#eeeeff" stroke="black" points="136.5,-180 71.5,-180 71.5,-144 136.5,-144 136.5,-180"/>
<text text-anchor="middle" x="104" y="-159.5" font-family="Helvetica,sans-Serif" font-size="10.00">J2DPicture</text>
</a>
</g>
</g>
<!-- dir_25682d7fe27d5da48e7af3ae8c2abb7f -->
<g id="node2" class="node">
<title>dir_25682d7fe27d5da48e7af3ae8c2abb7f</title>
<g id="a_node2"><a xlink:href="dir_25682d7fe27d5da48e7af3ae8c2abb7f.html" target="_top" xlink:title="JUtility">
<polygon fill="white" stroke="red" points="54,-108 0,-108 0,-72 54,-72 54,-108"/>
<text text-anchor="middle" x="27" y="-87.5" font-family="Helvetica,sans-Serif" font-size="10.00">JUtility</text>
</a>
</g>
</g>
<!-- dir_191f6b39af93efb74e4bf57ddb4fdeaf&#45;&gt;dir_25682d7fe27d5da48e7af3ae8c2abb7f -->
<g id="edge1" class="edge">
<title>dir_191f6b39af93efb74e4bf57ddb4fdeaf&#45;&gt;dir_25682d7fe27d5da48e7af3ae8c2abb7f</title>
<path fill="none" stroke="black" d="M84.97,-143.7C75.46,-135.05 63.79,-124.45 53.43,-115.03"/>
<polygon fill="black" stroke="black" points="55.57,-112.24 45.81,-108.1 50.86,-117.42 55.57,-112.24"/>
<g id="a_edge1&#45;headlabel"><a xlink:href="dir_000064_000116.html" target="_top" xlink:title="1">
<text text-anchor="middle" x="60.14" y="-110.06" font-family="Helvetica,sans-Serif" font-size="10.00">1</text>
</a>
</g>
</g>
<!-- dir_85a59ac5b5c6745914cd8bd3a6827926 -->
<g id="node3" class="node">
<title>dir_85a59ac5b5c6745914cd8bd3a6827926</title>
<g id="a_node3"><a xlink:href="dir_85a59ac5b5c6745914cd8bd3a6827926.html" target="_top" xlink:title="JGeometry">
<polygon fill="none" stroke="black" points="136,-108 72,-108 72,-72 136,-72 136,-108"/>
<text text-anchor="middle" x="104" y="-87.5" font-family="Helvetica,sans-Serif" font-size="10.00">JGeometry</text>
</a>
</g>
</g>
<!-- dir_191f6b39af93efb74e4bf57ddb4fdeaf&#45;&gt;dir_85a59ac5b5c6745914cd8bd3a6827926 -->
<g id="edge2" class="edge">
<title>dir_191f6b39af93efb74e4bf57ddb4fdeaf&#45;&gt;dir_85a59ac5b5c6745914cd8bd3a6827926</title>
<path fill="none" stroke="black" d="M104,-143.7C104,-135.98 104,-126.71 104,-118.11"/>
<polygon fill="black" stroke="black" points="107.5,-118.1 104,-108.1 100.5,-118.1 107.5,-118.1"/>
<g id="a_edge2&#45;headlabel"><a xlink:href="dir_000064_000082.html" target="_top" xlink:title="1">
<text text-anchor="middle" x="110.34" y="-119.2" font-family="Helvetica,sans-Serif" font-size="10.00">1</text>
</a>
</g>
</g>
<!-- dir_b778c3f297ab88300258a2935792c8cc -->
<g id="node4" class="node">
<title>dir_b778c3f297ab88300258a2935792c8cc</title>
<g id="a_node4"><a xlink:href="dir_b778c3f297ab88300258a2935792c8cc.html" target="_top" xlink:title="dolphin">
<polygon fill="none" stroke="black" points="131,-36 77,-36 77,0 131,0 131,-36"/>
<text text-anchor="middle" x="104" y="-15.5" font-family="Helvetica,sans-Serif" font-size="10.00">dolphin</text>
</a>
</g>
</g>
<!-- dir_191f6b39af93efb74e4bf57ddb4fdeaf&#45;&gt;dir_b778c3f297ab88300258a2935792c8cc -->
<g id="edge3" class="edge">
<title>dir_191f6b39af93efb74e4bf57ddb4fdeaf&#45;&gt;dir_b778c3f297ab88300258a2935792c8cc</title>
<path fill="none" stroke="black" d="M122.17,-143.68C130.88,-134.1 140.41,-121.43 145,-108 150.17,-92.86 150.17,-87.14 145,-72 141.56,-61.93 135.34,-52.28 128.77,-44.05"/>
<polygon fill="black" stroke="black" points="131.32,-41.65 122.17,-36.32 126,-46.2 131.32,-41.65"/>
<g id="a_edge3&#45;headlabel"><a xlink:href="dir_000064_000055.html" target="_top" xlink:title="1">
<text text-anchor="middle" x="135.82" y="-40.04" font-family="Helvetica,sans-Serif" font-size="10.00">1</text>
</a>
</g>
</g>
<!-- dir_25682d7fe27d5da48e7af3ae8c2abb7f&#45;&gt;dir_b778c3f297ab88300258a2935792c8cc -->
<g id="edge5" class="edge">
<title>dir_25682d7fe27d5da48e7af3ae8c2abb7f&#45;&gt;dir_b778c3f297ab88300258a2935792c8cc</title>
<path fill="none" stroke="black" d="M46.03,-71.7C55.54,-63.05 67.21,-52.45 77.57,-43.03"/>
<polygon fill="black" stroke="black" points="80.14,-45.42 85.19,-36.1 75.43,-40.24 80.14,-45.42"/>
<g id="a_edge5&#45;headlabel"><a xlink:href="dir_000116_000055.html" target="_top" xlink:title="4">
<text text-anchor="middle" x="79.39" y="-47.44" font-family="Helvetica,sans-Serif" font-size="10.00">4</text>
</a>
</g>
</g>
<!-- dir_85a59ac5b5c6745914cd8bd3a6827926&#45;&gt;dir_b778c3f297ab88300258a2935792c8cc -->
<g id="edge4" class="edge">
<title>dir_85a59ac5b5c6745914cd8bd3a6827926&#45;&gt;dir_b778c3f297ab88300258a2935792c8cc</title>
<path fill="none" stroke="black" d="M104,-71.7C104,-63.98 104,-54.71 104,-46.11"/>
<polygon fill="black" stroke="black" points="107.5,-46.1 104,-36.1 100.5,-46.1 107.5,-46.1"/>
<g id="a_edge4&#45;headlabel"><a xlink:href="dir_000082_000055.html" target="_top" xlink:title="1">
<text text-anchor="middle" x="110.34" y="-47.2" font-family="Helvetica,sans-Serif" font-size="10.00">1</text>
</a>
</g>
</g>
</g>
</svg>
