<?xml version="1.0" encoding="UTF-8" standalone="no"?>
<!DOCTYPE svg PUBLIC "-//W3C//DTD SVG 1.1//EN"
 "http://www.w3.org/Graphics/SVG/1.1/DTD/svg11.dtd">
<!-- Generated by graphviz version 2.44.0 ()
 -->
<!-- Title: src/f/f_op/f_op_overlap.cpp Pages: 1 -->
<!--zoomable 733 -->
<svg id="main" version="1.1" xmlns="http://www.w3.org/2000/svg" xmlns:xlink="http://www.w3.org/1999/xlink" xml:space="preserve" onload="init(evt)">
<style type="text/css"><![CDATA[
.edge:hover path { stroke: red; }
.edge:hover polygon { stroke: red; fill: red; }
]]></style>
<script type="text/javascript"><![CDATA[
var edges = document.getElementsByTagName('g');
if (edges && edges.length) {
  for (var i=0;i<edges.length;i++) {
    if (edges[i].id.substr(0,4)=='edge') {
      edges[i].setAttribute('class','edge');
    }
  }
}
]]></script>
        <defs>
                <circle id="rim" cx="0" cy="0" r="7"/>
                <circle id="rim2" cx="0" cy="0" r="3.5"/>
                <g id="zoomPlus">
                        <use xlink:href="#rim" fill="#404040">
                                <set attributeName="fill" to="#808080" begin="zoomplus.mouseover" end="zoomplus.mouseout"/>
                        </use>
                        <path d="M-4,0h8M0,-4v8" fill="none" stroke="white" stroke-width="1.5" pointer-events="none"/>
                </g>
                <g id="zoomMin">
                        <use xlink:href="#rim" fill="#404040">
                                <set attributeName="fill" to="#808080" begin="zoomminus.mouseover" end="zoomminus.mouseout"/>
                        </use>
                        <path d="M-4,0h8" fill="none" stroke="white" stroke-width="1.5" pointer-events="none"/>
                </g>
                <g id="dirArrow">
                        <path fill="none" stroke="white" stroke-width="1.5" d="M0,-3.0v7 M-2.5,-0.5L0,-3.0L2.5,-0.5"/>
                </g>
               <g id="resetDef">
                       <use xlink:href="#rim2" fill="#404040">
                               <set attributeName="fill" to="#808080" begin="reset.mouseover" end="reset.mouseout"/>
                       </use>
               </g>
        </defs>

<script type="text/javascript">
var viewWidth = 1195;
var viewHeight = 733;
var sectionId = 'dynsection-0';
</script>
<script xlink:href="svgpan.js"/>
<svg id="graph" class="graph">
<g id="viewport">
<title>src/f/f_op/f_op_overlap.cpp</title>
<polygon fill="white" stroke="transparent" points="-4,4 -4,-729 1191,-729 1191,4 -4,4"/>
<!-- Node1 -->
<g id="node1" class="node">
<title>Node1</title>
<g id="a_node1"><a xlink:title=" ">
<polygon fill="#bfbfbf" stroke="black" points="857.5,-705.5 857.5,-724.5 991.5,-724.5 991.5,-705.5 857.5,-705.5"/>
<text text-anchor="middle" x="924.5" y="-712.5" font-family="Helvetica,sans-Serif" font-size="10.00">src/f/f_op/f_op_overlap.cpp</text>
</a>
</g>
</g>
<!-- Node2 -->
<g id="node2" class="node">
<title>Node2</title>
<g id="a_node2"><a xlink:href="f__op__overlap_8h.html" target="_top" xlink:title=" ">
<polygon fill="white" stroke="black" points="0,-392.5 0,-411.5 107,-411.5 107,-392.5 0,-392.5"/>
<text text-anchor="middle" x="53.5" y="-399.5" font-family="Helvetica,sans-Serif" font-size="10.00">f/f_op/f_op_overlap.h</text>
</a>
</g>
</g>
<!-- Node1&#45;&gt;Node2 -->
<g id="edge1" class="edge">
<title>Node1&#45;&gt;Node2</title>
<path fill="none" stroke="midnightblue" d="M857.17,-711.47C656.36,-703.03 75.5,-671.82 75.5,-593 75.5,-593 75.5,-593 75.5,-529.5 75.5,-490.45 65.2,-445.61 58.69,-421.19"/>
<polygon fill="midnightblue" stroke="midnightblue" points="62.06,-420.21 56.02,-411.5 55.31,-422.07 62.06,-420.21"/>
</g>
<!-- Node4 -->
<g id="node4" class="node">
<title>Node4</title>
<g id="a_node4"><a xlink:href="c__request_8h.html" target="_top" xlink:title=" ">
<polygon fill="white" stroke="black" points="454.5,-644 454.5,-663 580.5,-663 580.5,-644 454.5,-644"/>
<text text-anchor="middle" x="517.5" y="-651" font-family="Helvetica,sans-Serif" font-size="10.00">SComponent/c_request.h</text>
</a>
</g>
</g>
<!-- Node1&#45;&gt;Node4 -->
<g id="edge3" class="edge">
<title>Node1&#45;&gt;Node4</title>
<path fill="none" stroke="midnightblue" d="M866.19,-705.48C792.14,-694.65 664.58,-676 585.99,-664.51"/>
<polygon fill="midnightblue" stroke="midnightblue" points="586.11,-660.99 575.71,-663.01 585.09,-667.92 586.11,-660.99"/>
</g>
<!-- Node9 -->
<g id="node9" class="node">
<title>Node9</title>
<g id="a_node9"><a xlink:href="global_8h.html" target="_top" xlink:title=" ">
<polygon fill="white" stroke="black" points="542.5,-168.5 542.5,-187.5 592.5,-187.5 592.5,-168.5 542.5,-168.5"/>
<text text-anchor="middle" x="567.5" y="-175.5" font-family="Helvetica,sans-Serif" font-size="10.00">global.h</text>
</a>
</g>
</g>
<!-- Node1&#45;&gt;Node9 -->
<g id="edge56" class="edge">
<title>Node1&#45;&gt;Node9</title>
<path fill="none" stroke="midnightblue" d="M943.04,-705.48C976.03,-688.91 1041.5,-648.96 1041.5,-593 1041.5,-593 1041.5,-593 1041.5,-289 1041.5,-198.97 712.89,-182.6 602.89,-179.65"/>
<polygon fill="midnightblue" stroke="midnightblue" points="602.73,-176.14 592.65,-179.39 602.56,-183.14 602.73,-176.14"/>
</g>
<!-- Node24 -->
<g id="node24" class="node">
<title>Node24</title>
<g id="a_node24"><a xlink:href="f__pc__leaf_8h.html" target="_top" xlink:title=" ">
<polygon fill="white" stroke="black" points="878.5,-644 878.5,-663 970.5,-663 970.5,-644 878.5,-644"/>
<text text-anchor="middle" x="924.5" y="-651" font-family="Helvetica,sans-Serif" font-size="10.00">f/f_pc/f_pc_leaf.h</text>
</a>
</g>
</g>
<!-- Node1&#45;&gt;Node24 -->
<g id="edge50" class="edge">
<title>Node1&#45;&gt;Node24</title>
<path fill="none" stroke="midnightblue" d="M924.5,-705.48C924.5,-697.08 924.5,-683.98 924.5,-673.16"/>
<polygon fill="midnightblue" stroke="midnightblue" points="928,-673.01 924.5,-663.01 921,-673.01 928,-673.01"/>
</g>
<!-- Node26 -->
<g id="node26" class="node">
<title>Node26</title>
<g id="a_node26"><a xlink:title=" ">
<polygon fill="white" stroke="#bfbfbf" points="1070,-638.5 1070,-668.5 1187,-668.5 1187,-638.5 1070,-638.5"/>
<text text-anchor="start" x="1078" y="-656.5" font-family="Helvetica,sans-Serif" font-size="10.00">f/f_op/f_op_overlap</text>
<text text-anchor="middle" x="1128.5" y="-645.5" font-family="Helvetica,sans-Serif" font-size="10.00">/asm/func_8001E41C.s</text>
</a>
</g>
</g>
<!-- Node1&#45;&gt;Node26 -->
<g id="edge57" class="edge">
<title>Node1&#45;&gt;Node26</title>
<path fill="none" stroke="midnightblue" d="M953.73,-705.48C984.07,-696.63 1032.33,-682.55 1070.46,-671.43"/>
<polygon fill="midnightblue" stroke="midnightblue" points="1071.8,-674.68 1080.42,-668.52 1069.84,-667.96 1071.8,-674.68"/>
</g>
<!-- Node3 -->
<g id="node3" class="node">
<title>Node3</title>
<g id="a_node3"><a xlink:href="types_8h.html" target="_top" xlink:title=" ">
<polygon fill="white" stroke="black" points="427,-0.5 427,-19.5 508,-19.5 508,-0.5 427,-0.5"/>
<text text-anchor="middle" x="467.5" y="-7.5" font-family="Helvetica,sans-Serif" font-size="10.00">dolphin/types.h</text>
</a>
</g>
</g>
<!-- Node2&#45;&gt;Node3 -->
<g id="edge2" class="edge">
<title>Node2&#45;&gt;Node3</title>
<path fill="none" stroke="midnightblue" d="M56.47,-392.28C62.47,-373.82 75.5,-329.37 75.5,-291 75.5,-291 75.5,-291 75.5,-121 75.5,-85.61 91.18,-74.26 121.5,-56 170.13,-26.71 333.02,-16.19 416.8,-12.65"/>
<polygon fill="midnightblue" stroke="midnightblue" points="417,-16.15 426.85,-12.24 416.72,-9.15 417,-16.15"/>
</g>
<!-- Node4&#45;&gt;Node3 -->
<g id="edge4" class="edge">
<title>Node4&#45;&gt;Node3</title>
<path fill="none" stroke="midnightblue" d="M454.42,-645.7C345.92,-632.23 135.5,-597.59 135.5,-531.5 135.5,-531.5 135.5,-531.5 135.5,-121 135.5,-62.47 323.76,-29.72 416.75,-17.11"/>
<polygon fill="midnightblue" stroke="midnightblue" points="417.34,-20.56 426.79,-15.77 416.42,-13.62 417.34,-20.56"/>
</g>
<!-- Node5 -->
<g id="node5" class="node">
<title>Node5</title>
<g id="a_node5"><a xlink:href="f__pc__base_8h.html" target="_top" xlink:title=" ">
<polygon fill="white" stroke="black" points="469,-582.5 469,-601.5 566,-601.5 566,-582.5 469,-582.5"/>
<text text-anchor="middle" x="517.5" y="-589.5" font-family="Helvetica,sans-Serif" font-size="10.00">f/f_pc/f_pc_base.h</text>
</a>
</g>
</g>
<!-- Node4&#45;&gt;Node5 -->
<g id="edge5" class="edge">
<title>Node4&#45;&gt;Node5</title>
<path fill="none" stroke="midnightblue" d="M517.5,-643.98C517.5,-635.58 517.5,-622.48 517.5,-611.66"/>
<polygon fill="midnightblue" stroke="midnightblue" points="521,-611.51 517.5,-601.51 514,-611.51 521,-611.51"/>
</g>
<!-- Node6 -->
<g id="node6" class="node">
<title>Node6</title>
<g id="a_node6"><a xlink:href="c__tag_8h.html" target="_top" xlink:title=" ">
<polygon fill="white" stroke="black" points="438,-392.5 438,-411.5 545,-411.5 545,-392.5 438,-392.5"/>
<text text-anchor="middle" x="491.5" y="-399.5" font-family="Helvetica,sans-Serif" font-size="10.00">SComponent/c_tag.h</text>
</a>
</g>
</g>
<!-- Node5&#45;&gt;Node6 -->
<g id="edge6" class="edge">
<title>Node5&#45;&gt;Node6</title>
<path fill="none" stroke="midnightblue" d="M512.21,-582.42C507.12,-573.64 499.72,-559.41 496.5,-546 486.04,-502.46 487.83,-449.34 489.81,-421.72"/>
<polygon fill="midnightblue" stroke="midnightblue" points="493.31,-421.79 490.63,-411.54 486.33,-421.23 493.31,-421.79"/>
</g>
<!-- Node5&#45;&gt;Node9 -->
<g id="edge25" class="edge">
<title>Node5&#45;&gt;Node9</title>
<path fill="none" stroke="midnightblue" d="M468.83,-589.37C393.01,-585.93 251.28,-575.63 211.5,-546 179.45,-522.12 173.5,-504.47 173.5,-464.5 173.5,-464.5 173.5,-464.5 173.5,-289 173.5,-249.38 199.28,-242.14 234.5,-224 285.91,-197.52 457.4,-185.06 532.16,-180.79"/>
<polygon fill="midnightblue" stroke="midnightblue" points="532.67,-184.27 542.46,-180.22 532.28,-177.28 532.67,-184.27"/>
</g>
<!-- Node16 -->
<g id="node16" class="node">
<title>Node16</title>
<g id="a_node16"><a xlink:href="f__pc__delete__tag_8h.html" target="_top" xlink:title=" ">
<polygon fill="white" stroke="black" points="221,-515.5 221,-545.5 316,-545.5 316,-515.5 221,-515.5"/>
<text text-anchor="start" x="229" y="-533.5" font-family="Helvetica,sans-Serif" font-size="10.00">f/f_pc/f_pc_delete</text>
<text text-anchor="middle" x="268.5" y="-522.5" font-family="Helvetica,sans-Serif" font-size="10.00">_tag.h</text>
</a>
</g>
</g>
<!-- Node5&#45;&gt;Node16 -->
<g id="edge26" class="edge">
<title>Node5&#45;&gt;Node16</title>
<path fill="none" stroke="midnightblue" d="M480.28,-582.5C443.61,-574.07 385.72,-560.64 326.05,-546.11"/>
<polygon fill="midnightblue" stroke="midnightblue" points="326.61,-542.64 316.07,-543.67 324.95,-549.44 326.61,-542.64"/>
</g>
<!-- Node18 -->
<g id="node18" class="node">
<title>Node18</title>
<g id="a_node18"><a xlink:href="f__pc__layer__tag_8h.html" target="_top" xlink:title=" ">
<polygon fill="white" stroke="black" points="334,-521 334,-540 449,-540 449,-521 334,-521"/>
<text text-anchor="middle" x="391.5" y="-528" font-family="Helvetica,sans-Serif" font-size="10.00">f/f_pc/f_pc_layer_tag.h</text>
</a>
</g>
</g>
<!-- Node5&#45;&gt;Node18 -->
<g id="edge34" class="edge">
<title>Node5&#45;&gt;Node18</title>
<path fill="none" stroke="midnightblue" d="M499.45,-582.48C478.3,-572.49 443.06,-555.85 418.62,-544.31"/>
<polygon fill="midnightblue" stroke="midnightblue" points="420.06,-541.11 409.52,-540.01 417.07,-547.44 420.06,-541.11"/>
</g>
<!-- Node19 -->
<g id="node19" class="node">
<title>Node19</title>
<g id="a_node19"><a xlink:href="f__pc__line__tag_8h.html" target="_top" xlink:title=" ">
<polygon fill="white" stroke="black" points="663.5,-454 663.5,-473 773.5,-473 773.5,-454 663.5,-454"/>
<text text-anchor="middle" x="718.5" y="-461" font-family="Helvetica,sans-Serif" font-size="10.00">f/f_pc/f_pc_line_tag.h</text>
</a>
</g>
</g>
<!-- Node5&#45;&gt;Node19 -->
<g id="edge38" class="edge">
<title>Node5&#45;&gt;Node19</title>
<path fill="none" stroke="midnightblue" d="M541.24,-582.48C562.29,-574.46 593.48,-561.39 618.5,-546 650.41,-526.37 683.3,-497.61 702.28,-480.02"/>
<polygon fill="midnightblue" stroke="midnightblue" points="704.85,-482.41 709.74,-473.01 700.06,-477.3 704.85,-482.41"/>
</g>
<!-- Node20 -->
<g id="node20" class="node">
<title>Node20</title>
<g id="a_node20"><a xlink:href="f__pc__priority_8h.html" target="_top" xlink:title=" ">
<polygon fill="white" stroke="black" points="505.5,-521 505.5,-540 609.5,-540 609.5,-521 505.5,-521"/>
<text text-anchor="middle" x="557.5" y="-528" font-family="Helvetica,sans-Serif" font-size="10.00">f/f_pc/f_pc_priority.h</text>
</a>
</g>
</g>
<!-- Node5&#45;&gt;Node20 -->
<g id="edge41" class="edge">
<title>Node5&#45;&gt;Node20</title>
<path fill="none" stroke="midnightblue" d="M523.23,-582.48C529.17,-573.64 538.62,-559.59 546.09,-548.48"/>
<polygon fill="midnightblue" stroke="midnightblue" points="549.11,-550.26 551.78,-540.01 543.3,-546.36 549.11,-550.26"/>
</g>
<!-- Node22 -->
<g id="node22" class="node">
<title>Node22</title>
<g id="a_node22"><a xlink:href="f__pc__profile_8h.html" target="_top" xlink:title=" ">
<polygon fill="white" stroke="black" points="751,-521 751,-540 852,-540 852,-521 751,-521"/>
<text text-anchor="middle" x="801.5" y="-528" font-family="Helvetica,sans-Serif" font-size="10.00">f/f_pc/f_pc_profile.h</text>
</a>
</g>
</g>
<!-- Node5&#45;&gt;Node22 -->
<g id="edge46" class="edge">
<title>Node5&#45;&gt;Node22</title>
<path fill="none" stroke="midnightblue" d="M558.19,-582.48C609.02,-571.83 695.97,-553.61 751,-542.08"/>
<polygon fill="midnightblue" stroke="midnightblue" points="751.82,-545.49 760.89,-540.01 750.38,-538.63 751.82,-545.49"/>
</g>
<!-- Node7 -->
<g id="node7" class="node">
<title>Node7</title>
<g id="a_node7"><a xlink:href="c__list_8h.html" target="_top" xlink:title=" ">
<polygon fill="white" stroke="black" points="394,-280.5 394,-299.5 501,-299.5 501,-280.5 394,-280.5"/>
<text text-anchor="middle" x="447.5" y="-287.5" font-family="Helvetica,sans-Serif" font-size="10.00">SComponent/c_list.h</text>
</a>
</g>
</g>
<!-- Node6&#45;&gt;Node7 -->
<g id="edge7" class="edge">
<title>Node6&#45;&gt;Node7</title>
<path fill="none" stroke="midnightblue" d="M489.63,-392.38C486.74,-379.73 480.66,-355.53 472.5,-336 468.54,-326.52 463.09,-316.47 458.29,-308.29"/>
<polygon fill="midnightblue" stroke="midnightblue" points="461.25,-306.42 453.08,-299.67 455.26,-310.04 461.25,-306.42"/>
</g>
<!-- Node8 -->
<g id="node8" class="node">
<title>Node8</title>
<g id="a_node8"><a xlink:href="c__node_8h.html" target="_top" xlink:title=" ">
<polygon fill="white" stroke="black" points="390,-224.5 390,-243.5 505,-243.5 505,-224.5 390,-224.5"/>
<text text-anchor="middle" x="447.5" y="-231.5" font-family="Helvetica,sans-Serif" font-size="10.00">SComponent/c_node.h</text>
</a>
</g>
</g>
<!-- Node6&#45;&gt;Node8 -->
<g id="edge20" class="edge">
<title>Node6&#45;&gt;Node8</title>
<path fill="none" stroke="midnightblue" d="M496.3,-392.22C506.96,-371.45 530.15,-318.19 510.5,-280 503.42,-266.25 489.98,-255.77 477.32,-248.39"/>
<polygon fill="midnightblue" stroke="midnightblue" points="478.81,-245.22 468.35,-243.57 475.5,-251.39 478.81,-245.22"/>
</g>
<!-- Node6&#45;&gt;Node9 -->
<g id="edge24" class="edge">
<title>Node6&#45;&gt;Node9</title>
<path fill="none" stroke="midnightblue" d="M500.59,-392.2C508.84,-383.7 520.73,-370.06 527.5,-356 553.41,-302.16 562.88,-230.96 566.05,-197.66"/>
<polygon fill="midnightblue" stroke="midnightblue" points="569.55,-197.82 566.93,-187.56 562.58,-197.22 569.55,-197.82"/>
</g>
<!-- Node15 -->
<g id="node15" class="node">
<title>Node15</title>
<g id="a_node15"><a xlink:href="c__tree_8h.html" target="_top" xlink:title=" ">
<polygon fill="white" stroke="black" points="353.5,-336.5 353.5,-355.5 463.5,-355.5 463.5,-336.5 353.5,-336.5"/>
<text text-anchor="middle" x="408.5" y="-343.5" font-family="Helvetica,sans-Serif" font-size="10.00">SComponent/c_tree.h</text>
</a>
</g>
</g>
<!-- Node6&#45;&gt;Node15 -->
<g id="edge21" class="edge">
<title>Node6&#45;&gt;Node15</title>
<path fill="none" stroke="midnightblue" d="M478.16,-392.32C465.34,-383.98 445.72,-371.21 430.56,-361.35"/>
<polygon fill="midnightblue" stroke="midnightblue" points="432.09,-358.17 421.8,-355.65 428.28,-364.04 432.09,-358.17"/>
</g>
<!-- Node7&#45;&gt;Node8 -->
<g id="edge8" class="edge">
<title>Node7&#45;&gt;Node8</title>
<path fill="none" stroke="midnightblue" d="M447.5,-280.08C447.5,-273.01 447.5,-262.86 447.5,-253.99"/>
<polygon fill="midnightblue" stroke="midnightblue" points="451,-253.75 447.5,-243.75 444,-253.75 451,-253.75"/>
</g>
<!-- Node8&#45;&gt;Node9 -->
<g id="edge9" class="edge">
<title>Node8&#45;&gt;Node9</title>
<path fill="none" stroke="midnightblue" d="M466.51,-224.44C486.09,-215.64 516.81,-201.81 539.23,-191.72"/>
<polygon fill="midnightblue" stroke="midnightblue" points="540.89,-194.81 548.57,-187.52 538.02,-188.43 540.89,-194.81"/>
</g>
<!-- Node9&#45;&gt;Node3 -->
<g id="edge10" class="edge">
<title>Node9&#45;&gt;Node3</title>
<path fill="none" stroke="midnightblue" d="M566.1,-168.21C562.34,-146.97 550.39,-91.95 522.5,-56 513.31,-44.16 500.45,-33.42 489.48,-25.4"/>
<polygon fill="midnightblue" stroke="midnightblue" points="491.39,-22.46 481.19,-19.59 487.37,-28.2 491.39,-22.46"/>
</g>
<!-- Node10 -->
<g id="node10" class="node">
<title>Node10</title>
<g id="a_node10"><a xlink:href="AR_8h.html" target="_top" xlink:title=" ">
<polygon fill="white" stroke="black" points="596,-56.5 596,-75.5 645,-75.5 645,-56.5 596,-56.5"/>
<text text-anchor="middle" x="620.5" y="-63.5" font-family="Helvetica,sans-Serif" font-size="10.00">ar/AR.h</text>
</a>
</g>
</g>
<!-- Node9&#45;&gt;Node10 -->
<g id="edge11" class="edge">
<title>Node9&#45;&gt;Node10</title>
<path fill="none" stroke="midnightblue" d="M571.66,-168.37C580.33,-150.38 600.48,-108.55 612.01,-84.63"/>
<polygon fill="midnightblue" stroke="midnightblue" points="615.17,-86.12 616.36,-75.59 608.87,-83.08 615.17,-86.12"/>
</g>
<!-- Node11 -->
<g id="node11" class="node">
<title>Node11</title>
<g id="a_node11"><a xlink:href="ARQ_8h.html" target="_top" xlink:title=" ">
<polygon fill="white" stroke="black" points="363.5,-56.5 363.5,-75.5 419.5,-75.5 419.5,-56.5 363.5,-56.5"/>
<text text-anchor="middle" x="391.5" y="-63.5" font-family="Helvetica,sans-Serif" font-size="10.00">ar/ARQ.h</text>
</a>
</g>
</g>
<!-- Node9&#45;&gt;Node11 -->
<g id="edge13" class="edge">
<title>Node9&#45;&gt;Node11</title>
<path fill="none" stroke="midnightblue" d="M542.33,-176.91C507.86,-175.4 446.18,-167.49 410.5,-132 398.4,-119.96 393.91,-100.67 392.3,-86.23"/>
<polygon fill="midnightblue" stroke="midnightblue" points="395.76,-85.62 391.52,-75.91 388.78,-86.15 395.76,-85.62"/>
</g>
<!-- Node12 -->
<g id="node12" class="node">
<title>Node12</title>
<g id="a_node12"><a xlink:href="mwcc_8h.html" target="_top" xlink:title=" ">
<polygon fill="white" stroke="black" points="419.5,-112.5 419.5,-131.5 469.5,-131.5 469.5,-112.5 419.5,-112.5"/>
<text text-anchor="middle" x="444.5" y="-119.5" font-family="Helvetica,sans-Serif" font-size="10.00">mwcc.h</text>
</a>
</g>
</g>
<!-- Node9&#45;&gt;Node12 -->
<g id="edge15" class="edge">
<title>Node9&#45;&gt;Node12</title>
<path fill="none" stroke="midnightblue" d="M548.01,-168.44C527.86,-159.6 496.18,-145.69 473.17,-135.59"/>
<polygon fill="midnightblue" stroke="midnightblue" points="474.46,-132.33 463.9,-131.52 471.65,-138.74 474.46,-132.33"/>
</g>
<!-- Node13 -->
<g id="node13" class="node">
<title>Node13</title>
<g id="a_node13"><a xlink:href="OS_8h.html" target="_top" xlink:title=" ">
<polygon fill="white" stroke="black" points="487.5,-112.5 487.5,-131.5 539.5,-131.5 539.5,-112.5 487.5,-112.5"/>
<text text-anchor="middle" x="513.5" y="-119.5" font-family="Helvetica,sans-Serif" font-size="10.00">os/OS.h</text>
</a>
</g>
</g>
<!-- Node9&#45;&gt;Node13 -->
<g id="edge16" class="edge">
<title>Node9&#45;&gt;Node13</title>
<path fill="none" stroke="midnightblue" d="M558.58,-168.08C550.72,-160.22 539.07,-148.57 529.58,-139.08"/>
<polygon fill="midnightblue" stroke="midnightblue" points="531.8,-136.35 522.25,-131.75 526.85,-141.3 531.8,-136.35"/>
</g>
<!-- Node10&#45;&gt;Node3 -->
<g id="edge12" class="edge">
<title>Node10&#45;&gt;Node3</title>
<path fill="none" stroke="midnightblue" d="M596.26,-56.44C570.63,-47.4 530.01,-33.06 501.26,-22.92"/>
<polygon fill="midnightblue" stroke="midnightblue" points="502.22,-19.54 491.63,-19.52 499.89,-26.15 502.22,-19.54"/>
</g>
<!-- Node11&#45;&gt;Node3 -->
<g id="edge14" class="edge">
<title>Node11&#45;&gt;Node3</title>
<path fill="none" stroke="midnightblue" d="M403.71,-56.32C415.28,-48.11 432.88,-35.6 446.66,-25.81"/>
<polygon fill="midnightblue" stroke="midnightblue" points="448.94,-28.48 455.07,-19.83 444.89,-22.77 448.94,-28.48"/>
</g>
<!-- Node13&#45;&gt;Node3 -->
<g id="edge17" class="edge">
<title>Node13&#45;&gt;Node3</title>
<path fill="none" stroke="midnightblue" d="M514.17,-112.17C514.8,-99.26 514.66,-74.73 506.5,-56 501.73,-45.05 493.33,-34.82 485.54,-26.89"/>
<polygon fill="midnightblue" stroke="midnightblue" points="487.76,-24.17 478.11,-19.79 482.92,-29.23 487.76,-24.17"/>
</g>
<!-- Node14 -->
<g id="node14" class="node">
<title>Node14</title>
<g id="a_node14"><a xlink:href="dvd_8h.html" target="_top" xlink:title=" ">
<polygon fill="white" stroke="black" points="438,-56.5 438,-75.5 497,-75.5 497,-56.5 438,-56.5"/>
<text text-anchor="middle" x="467.5" y="-63.5" font-family="Helvetica,sans-Serif" font-size="10.00">dvd/dvd.h</text>
</a>
</g>
</g>
<!-- Node13&#45;&gt;Node14 -->
<g id="edge18" class="edge">
<title>Node13&#45;&gt;Node14</title>
<path fill="none" stroke="midnightblue" d="M505.9,-112.08C499.27,-104.3 489.48,-92.8 481.44,-83.37"/>
<polygon fill="midnightblue" stroke="midnightblue" points="484.1,-81.09 474.95,-75.75 478.77,-85.63 484.1,-81.09"/>
</g>
<!-- Node14&#45;&gt;Node3 -->
<g id="edge19" class="edge">
<title>Node14&#45;&gt;Node3</title>
<path fill="none" stroke="midnightblue" d="M467.5,-56.08C467.5,-49.01 467.5,-38.86 467.5,-29.99"/>
<polygon fill="midnightblue" stroke="midnightblue" points="471,-29.75 467.5,-19.75 464,-29.75 471,-29.75"/>
</g>
<!-- Node15&#45;&gt;Node7 -->
<g id="edge22" class="edge">
<title>Node15&#45;&gt;Node7</title>
<path fill="none" stroke="midnightblue" d="M414.94,-336.08C420.45,-328.46 428.53,-317.26 435.26,-307.94"/>
<polygon fill="midnightblue" stroke="midnightblue" points="438.16,-309.91 441.18,-299.75 432.49,-305.81 438.16,-309.91"/>
</g>
<!-- Node15&#45;&gt;Node8 -->
<g id="edge23" class="edge">
<title>Node15&#45;&gt;Node8</title>
<path fill="none" stroke="midnightblue" d="M401.03,-336.29C391.06,-323.53 375.71,-299.2 385.5,-280 392.5,-266.27 405.87,-255.75 418.4,-248.35"/>
<polygon fill="midnightblue" stroke="midnightblue" points="420.17,-251.37 427.28,-243.51 416.82,-245.22 420.17,-251.37"/>
</g>
<!-- Node16&#45;&gt;Node6 -->
<g id="edge27" class="edge">
<title>Node16&#45;&gt;Node6</title>
<path fill="none" stroke="midnightblue" d="M305.05,-515.41C327.85,-506.11 357.51,-493.08 382.5,-479 391.61,-473.87 442.46,-437.91 471.38,-417.34"/>
<polygon fill="midnightblue" stroke="midnightblue" points="473.46,-420.16 479.58,-411.51 469.4,-414.45 473.46,-420.16"/>
</g>
<!-- Node16&#45;&gt;Node9 -->
<g id="edge33" class="edge">
<title>Node16&#45;&gt;Node9</title>
<path fill="none" stroke="midnightblue" d="M257.24,-515.26C240.63,-492.78 211.5,-447.08 211.5,-403 211.5,-403 211.5,-403 211.5,-289 211.5,-248.14 240.06,-242.48 276.5,-224 320.64,-201.61 464.5,-187.35 531.97,-181.72"/>
<polygon fill="midnightblue" stroke="midnightblue" points="532.43,-185.2 542.11,-180.9 531.86,-178.22 532.43,-185.2"/>
</g>
<!-- Node17 -->
<g id="node17" class="node">
<title>Node17</title>
<g id="a_node17"><a xlink:href="f__pc__layer_8h.html" target="_top" xlink:title=" ">
<polygon fill="white" stroke="black" points="277.5,-454 277.5,-473 373.5,-473 373.5,-454 277.5,-454"/>
<text text-anchor="middle" x="325.5" y="-461" font-family="Helvetica,sans-Serif" font-size="10.00">f/f_pc/f_pc_layer.h</text>
</a>
</g>
</g>
<!-- Node16&#45;&gt;Node17 -->
<g id="edge28" class="edge">
<title>Node16&#45;&gt;Node17</title>
<path fill="none" stroke="midnightblue" d="M280.87,-515.4C289.76,-505.26 301.76,-491.57 311.09,-480.94"/>
<polygon fill="midnightblue" stroke="midnightblue" points="313.91,-483.02 317.88,-473.19 308.65,-478.41 313.91,-483.02"/>
</g>
<!-- Node17&#45;&gt;Node6 -->
<g id="edge30" class="edge">
<title>Node17&#45;&gt;Node6</title>
<path fill="none" stroke="midnightblue" d="M349.28,-453.98C377.88,-443.72 426.05,-426.46 458.3,-414.9"/>
<polygon fill="midnightblue" stroke="midnightblue" points="459.53,-418.18 467.76,-411.51 457.17,-411.59 459.53,-418.18"/>
</g>
<!-- Node17&#45;&gt;Node8 -->
<g id="edge29" class="edge">
<title>Node17&#45;&gt;Node8</title>
<path fill="none" stroke="midnightblue" d="M325.3,-453.88C325.09,-425.08 328.4,-331.05 377.5,-280 389.79,-267.23 406.38,-256.36 420.32,-248.51"/>
<polygon fill="midnightblue" stroke="midnightblue" points="422.33,-251.4 429.46,-243.57 419,-245.24 422.33,-251.4"/>
</g>
<!-- Node17&#45;&gt;Node9 -->
<g id="edge32" class="edge">
<title>Node17&#45;&gt;Node9</title>
<path fill="none" stroke="midnightblue" d="M320.53,-453.84C310.23,-435.03 287.5,-388.8 287.5,-347 287.5,-347 287.5,-347 287.5,-289 287.5,-237 456.92,-199.34 532.19,-185.17"/>
<polygon fill="midnightblue" stroke="midnightblue" points="532.96,-188.59 542.16,-183.33 531.69,-181.71 532.96,-188.59"/>
</g>
<!-- Node17&#45;&gt;Node15 -->
<g id="edge31" class="edge">
<title>Node17&#45;&gt;Node15</title>
<path fill="none" stroke="midnightblue" d="M331.74,-453.82C345.44,-434.76 378.36,-388.95 396.31,-363.96"/>
<polygon fill="midnightblue" stroke="midnightblue" points="399.2,-365.95 402.19,-355.78 393.51,-361.86 399.2,-365.95"/>
</g>
<!-- Node18&#45;&gt;Node6 -->
<g id="edge35" class="edge">
<title>Node18&#45;&gt;Node6</title>
<path fill="none" stroke="midnightblue" d="M398.37,-520.81C414.86,-499.95 456.86,-446.81 478.37,-419.61"/>
<polygon fill="midnightblue" stroke="midnightblue" points="481.12,-421.77 484.58,-411.76 475.63,-417.43 481.12,-421.77"/>
</g>
<!-- Node18&#45;&gt;Node9 -->
<g id="edge37" class="edge">
<title>Node18&#45;&gt;Node9</title>
<path fill="none" stroke="midnightblue" d="M344.19,-520.93C318.34,-513.87 287.75,-501.26 268.5,-479 245.72,-452.67 249.5,-437.82 249.5,-403 249.5,-403 249.5,-403 249.5,-289 249.5,-242.84 288.58,-243.32 330.5,-224 397.51,-193.11 484.53,-183.42 532.29,-180.39"/>
<polygon fill="midnightblue" stroke="midnightblue" points="532.64,-183.87 542.42,-179.81 532.24,-176.88 532.64,-183.87"/>
</g>
<!-- Node18&#45;&gt;Node17 -->
<g id="edge36" class="edge">
<title>Node18&#45;&gt;Node17</title>
<path fill="none" stroke="midnightblue" d="M382.6,-520.73C372.11,-510.4 354.48,-493.04 341.58,-480.33"/>
<polygon fill="midnightblue" stroke="midnightblue" points="343.84,-477.65 334.26,-473.13 338.93,-482.64 343.84,-477.65"/>
</g>
<!-- Node19&#45;&gt;Node6 -->
<g id="edge39" class="edge">
<title>Node19&#45;&gt;Node6</title>
<path fill="none" stroke="midnightblue" d="M685.98,-453.98C645.94,-443.48 577.86,-425.64 533.8,-414.09"/>
<polygon fill="midnightblue" stroke="midnightblue" points="534.52,-410.66 523.96,-411.51 532.75,-417.43 534.52,-410.66"/>
</g>
<!-- Node19&#45;&gt;Node9 -->
<g id="edge40" class="edge">
<title>Node19&#45;&gt;Node9</title>
<path fill="none" stroke="midnightblue" d="M713.53,-453.84C703.23,-435.03 680.5,-388.8 680.5,-347 680.5,-347 680.5,-347 680.5,-289 680.5,-242.4 630.55,-209.14 597.07,-192.08"/>
<polygon fill="midnightblue" stroke="midnightblue" points="598.22,-188.75 587.7,-187.51 595.15,-195.04 598.22,-188.75"/>
</g>
<!-- Node20&#45;&gt;Node6 -->
<g id="edge42" class="edge">
<title>Node20&#45;&gt;Node6</title>
<path fill="none" stroke="midnightblue" d="M552.96,-520.81C542.23,-500.22 515.08,-448.19 500.72,-420.68"/>
<polygon fill="midnightblue" stroke="midnightblue" points="503.8,-419 496.07,-411.76 497.59,-422.24 503.8,-419"/>
</g>
<!-- Node21 -->
<g id="node21" class="node">
<title>Node21</title>
<g id="a_node21"><a xlink:href="f__pc__method__tag_8h.html" target="_top" xlink:title=" ">
<polygon fill="white" stroke="black" points="544,-448.5 544,-478.5 645,-478.5 645,-448.5 544,-448.5"/>
<text text-anchor="start" x="552" y="-466.5" font-family="Helvetica,sans-Serif" font-size="10.00">f/f_pc/f_pc_method</text>
<text text-anchor="middle" x="594.5" y="-455.5" font-family="Helvetica,sans-Serif" font-size="10.00">_tag.h</text>
</a>
</g>
</g>
<!-- Node20&#45;&gt;Node21 -->
<g id="edge43" class="edge">
<title>Node20&#45;&gt;Node21</title>
<path fill="none" stroke="midnightblue" d="M562.49,-520.73C567.35,-512.2 574.93,-498.87 581.5,-487.33"/>
<polygon fill="midnightblue" stroke="midnightblue" points="584.57,-489.01 586.48,-478.59 578.49,-485.55 584.57,-489.01"/>
</g>
<!-- Node21&#45;&gt;Node6 -->
<g id="edge44" class="edge">
<title>Node21&#45;&gt;Node6</title>
<path fill="none" stroke="midnightblue" d="M570.09,-448.4C553.58,-438.86 531.88,-426.32 515.46,-416.84"/>
<polygon fill="midnightblue" stroke="midnightblue" points="516.9,-413.63 506.49,-411.66 513.4,-419.69 516.9,-413.63"/>
</g>
<!-- Node21&#45;&gt;Node9 -->
<g id="edge45" class="edge">
<title>Node21&#45;&gt;Node9</title>
<path fill="none" stroke="midnightblue" d="M596.73,-448.32C599.94,-426.57 605.5,-383.66 605.5,-347 605.5,-347 605.5,-347 605.5,-289 605.5,-254.81 588.9,-217.76 577.64,-196.57"/>
<polygon fill="midnightblue" stroke="midnightblue" points="580.68,-194.83 572.78,-187.77 574.55,-198.22 580.68,-194.83"/>
</g>
<!-- Node22&#45;&gt;Node9 -->
<g id="edge49" class="edge">
<title>Node22&#45;&gt;Node9</title>
<path fill="none" stroke="midnightblue" d="M799.54,-520.82C793.8,-494.68 777.5,-414.43 777.5,-347 777.5,-347 777.5,-347 777.5,-289 777.5,-211.15 662.86,-188.29 602.99,-181.66"/>
<polygon fill="midnightblue" stroke="midnightblue" points="603.13,-178.16 592.83,-180.63 602.43,-185.12 603.13,-178.16"/>
</g>
<!-- Node23 -->
<g id="node23" class="node">
<title>Node23</title>
<g id="a_node23"><a xlink:href="f__pc__method_8h.html" target="_top" xlink:title=" ">
<polygon fill="white" stroke="black" points="829.5,-454 829.5,-473 937.5,-473 937.5,-454 829.5,-454"/>
<text text-anchor="middle" x="883.5" y="-461" font-family="Helvetica,sans-Serif" font-size="10.00">f/f_pc/f_pc_method.h</text>
</a>
</g>
</g>
<!-- Node22&#45;&gt;Node23 -->
<g id="edge47" class="edge">
<title>Node22&#45;&gt;Node23</title>
<path fill="none" stroke="midnightblue" d="M812.56,-520.73C825.84,-510.21 848.33,-492.38 864.43,-479.62"/>
<polygon fill="midnightblue" stroke="midnightblue" points="866.95,-482.08 872.62,-473.13 862.61,-476.6 866.95,-482.08"/>
</g>
<!-- Node23&#45;&gt;Node9 -->
<g id="edge48" class="edge">
<title>Node23&#45;&gt;Node9</title>
<path fill="none" stroke="midnightblue" d="M874.04,-453.96C855.36,-436.08 815.5,-392.61 815.5,-347 815.5,-347 815.5,-347 815.5,-289 815.5,-258.2 814.9,-244.02 791.5,-224 763.54,-200.08 658.44,-187.19 602.71,-181.91"/>
<polygon fill="midnightblue" stroke="midnightblue" points="602.86,-178.41 592.58,-180.99 602.22,-185.38 602.86,-178.41"/>
</g>
<!-- Node24&#45;&gt;Node5 -->
<g id="edge51" class="edge">
<title>Node24&#45;&gt;Node5</title>
<path fill="none" stroke="midnightblue" d="M878.21,-645.73C803.88,-634.87 658.02,-613.54 576.39,-601.61"/>
<polygon fill="midnightblue" stroke="midnightblue" points="576.68,-598.11 566.27,-600.13 575.66,-605.04 576.68,-598.11"/>
</g>
<!-- Node24&#45;&gt;Node9 -->
<g id="edge55" class="edge">
<title>Node24&#45;&gt;Node9</title>
<path fill="none" stroke="midnightblue" d="M935.48,-643.78C957.19,-625.48 1003.5,-580.67 1003.5,-531.5 1003.5,-531.5 1003.5,-531.5 1003.5,-289 1003.5,-206.53 706.54,-185.26 602.78,-180.35"/>
<polygon fill="midnightblue" stroke="midnightblue" points="602.65,-176.84 592.51,-179.89 602.34,-183.83 602.65,-176.84"/>
</g>
<!-- Node24&#45;&gt;Node23 -->
<g id="edge54" class="edge">
<title>Node24&#45;&gt;Node23</title>
<path fill="none" stroke="midnightblue" d="M922.63,-643.93C916.4,-615.37 896.24,-522.93 887.55,-483.07"/>
<polygon fill="midnightblue" stroke="midnightblue" points="890.93,-482.14 885.38,-473.12 884.09,-483.63 890.93,-482.14"/>
</g>
<!-- Node25 -->
<g id="node25" class="node">
<title>Node25</title>
<g id="a_node25"><a xlink:href="f__pc__draw__priority_8h.html" target="_top" xlink:title=" ">
<polygon fill="white" stroke="black" points="844,-336.5 844,-355.5 975,-355.5 975,-336.5 844,-336.5"/>
<text text-anchor="middle" x="909.5" y="-343.5" font-family="Helvetica,sans-Serif" font-size="10.00">f/f_pc/f_pc_draw_priority.h</text>
</a>
</g>
</g>
<!-- Node24&#45;&gt;Node25 -->
<g id="edge52" class="edge">
<title>Node24&#45;&gt;Node25</title>
<path fill="none" stroke="midnightblue" d="M929.69,-643.74C940.73,-624.27 965.5,-575.64 965.5,-531.5 965.5,-531.5 965.5,-531.5 965.5,-462.5 965.5,-424.09 940.11,-385.04 923.52,-363.63"/>
<polygon fill="midnightblue" stroke="midnightblue" points="926.05,-361.18 917.05,-355.58 920.59,-365.57 926.05,-361.18"/>
</g>
<!-- Node25&#45;&gt;Node9 -->
<g id="edge53" class="edge">
<title>Node25&#45;&gt;Node9</title>
<path fill="none" stroke="midnightblue" d="M906.51,-336.2C898.27,-313.43 872.94,-252.36 829.5,-224 792.69,-199.97 665.61,-186.79 602.97,-181.61"/>
<polygon fill="midnightblue" stroke="midnightblue" points="603.02,-178.11 592.77,-180.79 602.46,-185.08 603.02,-178.11"/>
</g>
</g>
</svg>
        <g id="navigator" transform="translate(0 0)" fill="#404254">
                <rect fill="#f2f5e9" fill-opacity="0.5" stroke="#606060" stroke-width=".5" x="0" y="0" width="60" height="60"/>
                <use id="zoomplus" xlink:href="#zoomPlus" x="17" y="9" onmousedown="handleZoom(evt,'in')"/>
                <use id="zoomminus" xlink:href="#zoomMin" x="42" y="9" onmousedown="handleZoom(evt,'out')"/>
                <use id="reset" xlink:href="#resetDef" x="30" y="36" onmousedown="handleReset()"/>
                <g id="arrowUp" xlink:href="#dirArrow" transform="translate(30 24)" onmousedown="handlePan(0,-1)">
                  <use xlink:href="#rim" fill="#404040">
                        <set attributeName="fill" to="#808080" begin="arrowUp.mouseover" end="arrowUp.mouseout"/>
                  </use>
                  <path fill="none" stroke="white" stroke-width="1.5" d="M0,-3.0v7 M-2.5,-0.5L0,-3.0L2.5,-0.5"/>
                </g>
                <g id="arrowRight" xlink:href="#dirArrow" transform="rotate(90) translate(36 -43)" onmousedown="handlePan(1,0)">
                  <use xlink:href="#rim" fill="#404040">
                        <set attributeName="fill" to="#808080" begin="arrowRight.mouseover" end="arrowRight.mouseout"/>
                  </use>
                  <path fill="none" stroke="white" stroke-width="1.5" d="M0,-3.0v7 M-2.5,-0.5L0,-3.0L2.5,-0.5"/>
                </g>
                <g id="arrowDown" xlink:href="#dirArrow" transform="rotate(180) translate(-30 -48)" onmousedown="handlePan(0,1)">
                  <use xlink:href="#rim" fill="#404040">
                        <set attributeName="fill" to="#808080" begin="arrowDown.mouseover" end="arrowDown.mouseout"/>
                  </use>
                  <path fill="none" stroke="white" stroke-width="1.5" d="M0,-3.0v7 M-2.5,-0.5L0,-3.0L2.5,-0.5"/>
                </g>
                <g id="arrowLeft" xlink:href="#dirArrow" transform="rotate(270) translate(-36 17)" onmousedown="handlePan(-1,0)">
                  <use xlink:href="#rim" fill="#404040">
                        <set attributeName="fill" to="#808080" begin="arrowLeft.mouseover" end="arrowLeft.mouseout"/>
                  </use>
                  <path fill="none" stroke="white" stroke-width="1.5" d="M0,-3.0v7 M-2.5,-0.5L0,-3.0L2.5,-0.5"/>
                </g>
        </g>
        <svg viewBox="0 0 15 15" width="100%" height="30px" preserveAspectRatio="xMaxYMin meet">
         <g id="arrow_out" transform="scale(0.3 0.3)">
          <a xlink:href="f__op__overlap_8cpp__incl_org.svg" target="_base">
           <rect id="button" ry="5" rx="5" y="6" x="6" height="38" width="38"
                fill="#f2f5e9" fill-opacity="0.5" stroke="#606060" stroke-width="1.0"/>
           <path id="arrow"
             d="M 11.500037,31.436501 C 11.940474,20.09759 22.043105,11.32322 32.158766,21.979434 L 37.068811,17.246167 C 37.068811,17.246167 37.088388,32 37.088388,32 L 22.160133,31.978069 C 22.160133,31.978069 26.997745,27.140456 26.997745,27.140456 C 18.528582,18.264221 13.291696,25.230495 11.500037,31.436501 z"
             style="fill:#404040;"/>
          </a>
         </g>
        </svg>
</svg>
