<?xml version="1.0" encoding="UTF-8" standalone="no"?>
<!DOCTYPE svg PUBLIC "-//W3C//DTD SVG 1.1//EN"
 "http://www.w3.org/Graphics/SVG/1.1/DTD/svg11.dtd">
<!-- Generated by graphviz version 2.44.0 ()
 -->
<!-- Title: include/f/f_op/f_op_draw_tag.h Pages: 1 -->
<svg width="726pt" height="229pt"
 viewBox="0.00 0.00 725.76 229.00" xmlns="http://www.w3.org/2000/svg" xmlns:xlink="http://www.w3.org/1999/xlink">
<g id="graph0" class="graph" transform="scale(1 1) rotate(0) translate(4 225)">
<title>include/f/f_op/f_op_draw_tag.h</title>
<polygon fill="white" stroke="transparent" points="-4,4 -4,-225 721.76,-225 721.76,4 -4,4"/>
<!-- Node1 -->
<g id="node1" class="node">
<title>Node1</title>
<g id="a_node1"><a xlink:title=" ">
<polygon fill="#bfbfbf" stroke="black" points="157.76,-190.5 157.76,-220.5 254.76,-220.5 254.76,-190.5 157.76,-190.5"/>
<text text-anchor="start" x="165.76" y="-208.5" font-family="Helvetica,sans-Serif" font-size="10.00">include/f/f_op/f_op</text>
<text text-anchor="middle" x="206.26" y="-197.5" font-family="Helvetica,sans-Serif" font-size="10.00">_draw_tag.h</text>
</a>
</g>
</g>
<!-- Node2 -->
<g id="node2" class="node">
<title>Node2</title>
<g id="a_node2"><a xlink:href="f__op__camera_8cpp.html" target="_top" xlink:title=" ">
<polygon fill="white" stroke="black" points="228.76,-0.5 228.76,-19.5 363.76,-19.5 363.76,-0.5 228.76,-0.5"/>
<text text-anchor="middle" x="296.26" y="-7.5" font-family="Helvetica,sans-Serif" font-size="10.00">src/f/f_op/f_op_camera.cpp</text>
</a>
</g>
</g>
<!-- Node1&#45;&gt;Node2 -->
<g id="edge1" class="edge">
<title>Node1&#45;&gt;Node2</title>
<path fill="none" stroke="midnightblue" d="M147.48,-202.15C77.47,-196.83 -26.2,-179.47 6.26,-123 50.5,-46.02 157.62,-21.73 228.55,-14.2"/>
<polygon fill="midnightblue" stroke="midnightblue" points="147.33,-205.65 157.55,-202.86 147.81,-198.67 147.33,-205.65"/>
</g>
<!-- Node3 -->
<g id="node3" class="node">
<title>Node3</title>
<g id="a_node3"><a xlink:href="f__op__draw__tag_8cpp.html" target="_top" xlink:title=" ">
<polygon fill="white" stroke="black" points="15.26,-123.5 15.26,-153.5 121.26,-153.5 121.26,-123.5 15.26,-123.5"/>
<text text-anchor="start" x="23.26" y="-141.5" font-family="Helvetica,sans-Serif" font-size="10.00">src/f/f_op/f_op_draw</text>
<text text-anchor="middle" x="68.26" y="-130.5" font-family="Helvetica,sans-Serif" font-size="10.00">_tag.cpp</text>
</a>
</g>
</g>
<!-- Node1&#45;&gt;Node3 -->
<g id="edge2" class="edge">
<title>Node1&#45;&gt;Node3</title>
<path fill="none" stroke="midnightblue" d="M167.26,-186.13C145.33,-175.8 118.38,-163.11 98.14,-153.58"/>
<polygon fill="midnightblue" stroke="midnightblue" points="165.77,-189.3 176.31,-190.4 168.76,-182.97 165.77,-189.3"/>
</g>
<!-- Node4 -->
<g id="node4" class="node">
<title>Node4</title>
<g id="a_node4"><a xlink:href="f__op__kankyo_8cpp.html" target="_top" xlink:title=" ">
<polygon fill="white" stroke="black" points="139.26,-129 139.26,-148 273.26,-148 273.26,-129 139.26,-129"/>
<text text-anchor="middle" x="206.26" y="-136" font-family="Helvetica,sans-Serif" font-size="10.00">src/f/f_op/f_op_kankyo.cpp</text>
</a>
</g>
</g>
<!-- Node1&#45;&gt;Node4 -->
<g id="edge3" class="edge">
<title>Node1&#45;&gt;Node4</title>
<path fill="none" stroke="midnightblue" d="M206.26,-180.25C206.26,-169.02 206.26,-156.38 206.26,-148.19"/>
<polygon fill="midnightblue" stroke="midnightblue" points="202.76,-180.4 206.26,-190.4 209.76,-180.4 202.76,-180.4"/>
</g>
<!-- Node5 -->
<g id="node5" class="node">
<title>Node5</title>
<g id="a_node5"><a xlink:href="f__op__msg_8cpp.html" target="_top" xlink:title=" ">
<polygon fill="white" stroke="black" points="291.26,-129 291.26,-148 413.26,-148 413.26,-129 291.26,-129"/>
<text text-anchor="middle" x="352.26" y="-136" font-family="Helvetica,sans-Serif" font-size="10.00">src/f/f_op/f_op_msg.cpp</text>
</a>
</g>
</g>
<!-- Node1&#45;&gt;Node5 -->
<g id="edge4" class="edge">
<title>Node1&#45;&gt;Node5</title>
<path fill="none" stroke="midnightblue" d="M247.15,-186.3C275.3,-173.76 311.42,-157.68 333.15,-148.01"/>
<polygon fill="midnightblue" stroke="midnightblue" points="245.65,-183.13 237.94,-190.4 248.49,-189.53 245.65,-183.13"/>
</g>
<!-- Node6 -->
<g id="node6" class="node">
<title>Node6</title>
<g id="a_node6"><a xlink:href="f__op__camera__mng_8h.html" target="_top" xlink:title=" ">
<polygon fill="white" stroke="black" points="431.76,-123.5 431.76,-153.5 528.76,-153.5 528.76,-123.5 431.76,-123.5"/>
<text text-anchor="start" x="439.76" y="-141.5" font-family="Helvetica,sans-Serif" font-size="10.00">include/f/f_op/f_op</text>
<text text-anchor="middle" x="480.26" y="-130.5" font-family="Helvetica,sans-Serif" font-size="10.00">_camera_mng.h</text>
</a>
</g>
</g>
<!-- Node1&#45;&gt;Node6 -->
<g id="edge5" class="edge">
<title>Node1&#45;&gt;Node6</title>
<path fill="none" stroke="midnightblue" d="M264.61,-191.11C308.11,-181.07 368.95,-166.89 422.26,-154 425.28,-153.27 428.4,-152.51 431.53,-151.74"/>
<polygon fill="midnightblue" stroke="midnightblue" points="263.73,-187.72 254.78,-193.38 265.31,-194.54 263.73,-187.72"/>
</g>
<!-- Node7 -->
<g id="node7" class="node">
<title>Node7</title>
<g id="a_node7"><a xlink:href="d__camera_8cpp.html" target="_top" xlink:title=" ">
<polygon fill="white" stroke="black" points="130.26,-62 130.26,-81 232.26,-81 232.26,-62 130.26,-62"/>
<text text-anchor="middle" x="181.26" y="-69" font-family="Helvetica,sans-Serif" font-size="10.00">src/d/d_camera.cpp</text>
</a>
</g>
</g>
<!-- Node6&#45;&gt;Node7 -->
<g id="edge6" class="edge">
<title>Node6&#45;&gt;Node7</title>
<path fill="none" stroke="midnightblue" d="M421.4,-122.88C340.5,-104.99 318.23,-103.95 241.26,-87 232.88,-85.16 223.88,-83.05 215.47,-81.02"/>
<polygon fill="midnightblue" stroke="midnightblue" points="421.04,-126.38 431.56,-125.14 422.56,-119.55 421.04,-126.38"/>
</g>
<!-- Node8 -->
<g id="node8" class="node">
<title>Node8</title>
<g id="a_node8"><a xlink:href="d__stage_8cpp.html" target="_top" xlink:title=" ">
<polygon fill="white" stroke="black" points="250.26,-62 250.26,-81 344.26,-81 344.26,-62 250.26,-62"/>
<text text-anchor="middle" x="297.26" y="-69" font-family="Helvetica,sans-Serif" font-size="10.00">src/d/d_stage.cpp</text>
</a>
</g>
</g>
<!-- Node6&#45;&gt;Node8 -->
<g id="edge7" class="edge">
<title>Node6&#45;&gt;Node8</title>
<path fill="none" stroke="midnightblue" d="M430.83,-119.95C395.29,-107.32 348.92,-90.85 321.21,-81.01"/>
<polygon fill="midnightblue" stroke="midnightblue" points="429.95,-123.35 440.55,-123.4 432.3,-116.75 429.95,-123.35"/>
</g>
<!-- Node9 -->
<g id="node9" class="node">
<title>Node9</title>
<g id="a_node9"><a xlink:href="f__ap__game_8cpp.html" target="_top" xlink:title=" ">
<polygon fill="white" stroke="black" points="362.76,-62 362.76,-81 467.76,-81 467.76,-62 362.76,-62"/>
<text text-anchor="middle" x="415.26" y="-69" font-family="Helvetica,sans-Serif" font-size="10.00">src/f/f_ap_game.cpp</text>
</a>
</g>
</g>
<!-- Node6&#45;&gt;Node9 -->
<g id="edge8" class="edge">
<title>Node6&#45;&gt;Node9</title>
<path fill="none" stroke="midnightblue" d="M458.75,-116C446.89,-104.13 432.81,-90.05 423.95,-81.19"/>
<polygon fill="midnightblue" stroke="midnightblue" points="456.61,-118.8 466.15,-123.4 461.56,-113.85 456.61,-118.8"/>
</g>
<!-- Node10 -->
<g id="node10" class="node">
<title>Node10</title>
<g id="a_node10"><a xlink:href="f__op__camera__mng_8cpp.html" target="_top" xlink:title=" ">
<polygon fill="white" stroke="black" points="485.76,-56.5 485.76,-86.5 602.76,-86.5 602.76,-56.5 485.76,-56.5"/>
<text text-anchor="start" x="493.76" y="-74.5" font-family="Helvetica,sans-Serif" font-size="10.00">src/f/f_op/f_op_camera</text>
<text text-anchor="middle" x="544.26" y="-63.5" font-family="Helvetica,sans-Serif" font-size="10.00">_mng.cpp</text>
</a>
</g>
</g>
<!-- Node6&#45;&gt;Node10 -->
<g id="edge9" class="edge">
<title>Node6&#45;&gt;Node10</title>
<path fill="none" stroke="midnightblue" d="M501.4,-116.02C510.94,-106.34 521.93,-95.17 530.4,-86.58"/>
<polygon fill="midnightblue" stroke="midnightblue" points="498.66,-113.81 494.14,-123.4 503.65,-118.73 498.66,-113.81"/>
</g>
<!-- Node11 -->
<g id="node11" class="node">
<title>Node11</title>
<g id="a_node11"><a xlink:href="f__op__camera_8h.html" target="_top" xlink:title=" ">
<polygon fill="white" stroke="black" points="620.76,-56.5 620.76,-86.5 717.76,-86.5 717.76,-56.5 620.76,-56.5"/>
<text text-anchor="start" x="628.76" y="-74.5" font-family="Helvetica,sans-Serif" font-size="10.00">include/f/f_op/f_op</text>
<text text-anchor="middle" x="669.26" y="-63.5" font-family="Helvetica,sans-Serif" font-size="10.00">_camera.h</text>
</a>
</g>
</g>
<!-- Node6&#45;&gt;Node11 -->
<g id="edge10" class="edge">
<title>Node6&#45;&gt;Node11</title>
<path fill="none" stroke="midnightblue" d="M530.87,-120.09C561.38,-109.6 599.74,-96.41 628.33,-86.58"/>
<polygon fill="midnightblue" stroke="midnightblue" points="529.58,-116.83 521.27,-123.4 531.86,-123.45 529.58,-116.83"/>
</g>
<!-- Node11&#45;&gt;Node2 -->
<g id="edge11" class="edge">
<title>Node11&#45;&gt;Node2</title>
<path fill="none" stroke="midnightblue" d="M610.65,-55.8C520.25,-38.26 425.77,-25.83 363.8,-18.48"/>
<polygon fill="midnightblue" stroke="midnightblue" points="610.03,-59.24 620.52,-57.73 611.38,-52.37 610.03,-59.24"/>
</g>
</g>
</svg>
