<?xml version="1.0" encoding="UTF-8" standalone="no"?>
<!DOCTYPE svg PUBLIC "-//W3C//DTD SVG 1.1//EN"
 "http://www.w3.org/Graphics/SVG/1.1/DTD/svg11.dtd">
<!-- Generated by graphviz version 2.44.0 ()
 -->
<!-- Title: src/f/f_op/f_op_overlap_mng.cpp Pages: 1 -->
<svg width="1257pt" height="912pt"
 viewBox="0.00 0.00 1257.00 912.00" xmlns="http://www.w3.org/2000/svg" xmlns:xlink="http://www.w3.org/1999/xlink">
<g id="graph0" class="graph" transform="scale(1 1) rotate(0) translate(4 908)">
<title>src/f/f_op/f_op_overlap_mng.cpp</title>
<polygon fill="white" stroke="transparent" points="-4,4 -4,-908 1253,-908 1253,4 -4,4"/>
<!-- Node1 -->
<g id="node1" class="node">
<title>Node1</title>
<g id="a_node1"><a xlink:title=" ">
<polygon fill="#bfbfbf" stroke="black" points="254,-873.5 254,-903.5 370,-903.5 370,-873.5 254,-873.5"/>
<text text-anchor="start" x="262" y="-891.5" font-family="Helvetica,sans-Serif" font-size="10.00">src/f/f_op/f_op_overlap</text>
<text text-anchor="middle" x="312" y="-880.5" font-family="Helvetica,sans-Serif" font-size="10.00">_mng.cpp</text>
</a>
</g>
</g>
<!-- Node2 -->
<g id="node2" class="node">
<title>Node2</title>
<g id="a_node2"><a xlink:href="f__op__overlap__mng_8h.html" target="_top" xlink:title=" ">
<polygon fill="white" stroke="black" points="127,-694.5 127,-724.5 227,-724.5 227,-694.5 127,-694.5"/>
<text text-anchor="start" x="135" y="-712.5" font-family="Helvetica,sans-Serif" font-size="10.00">f/f_op/f_op_overlap</text>
<text text-anchor="middle" x="177" y="-701.5" font-family="Helvetica,sans-Serif" font-size="10.00">_mng.h</text>
</a>
</g>
</g>
<!-- Node1&#45;&gt;Node2 -->
<g id="edge1" class="edge">
<title>Node1&#45;&gt;Node2</title>
<path fill="none" stroke="midnightblue" d="M286.31,-873.47C271.66,-864.5 253.73,-851.79 241,-837 214.1,-805.73 194.99,-761.19 185,-734.15"/>
<polygon fill="midnightblue" stroke="midnightblue" points="188.29,-732.95 181.62,-724.71 181.7,-735.31 188.29,-732.95"/>
</g>
<!-- Node3 -->
<g id="node3" class="node">
<title>Node3</title>
<g id="a_node3"><a xlink:href="c__request_8h.html" target="_top" xlink:title=" ">
<polygon fill="white" stroke="black" points="198,-638.5 198,-657.5 324,-657.5 324,-638.5 198,-638.5"/>
<text text-anchor="middle" x="261" y="-645.5" font-family="Helvetica,sans-Serif" font-size="10.00">SComponent/c_request.h</text>
</a>
</g>
</g>
<!-- Node1&#45;&gt;Node3 -->
<g id="edge50" class="edge">
<title>Node1&#45;&gt;Node3</title>
<path fill="none" stroke="midnightblue" d="M308.96,-873.29C300.21,-832.35 274.91,-714.05 265.03,-667.83"/>
<polygon fill="midnightblue" stroke="midnightblue" points="268.43,-666.99 262.91,-657.95 261.58,-668.46 268.43,-666.99"/>
</g>
<!-- Node9 -->
<g id="node9" class="node">
<title>Node9</title>
<g id="a_node9"><a xlink:href="global_8h.html" target="_top" xlink:title=" ">
<polygon fill="white" stroke="black" points="702,-168.5 702,-187.5 752,-187.5 752,-168.5 702,-168.5"/>
<text text-anchor="middle" x="727" y="-175.5" font-family="Helvetica,sans-Serif" font-size="10.00">global.h</text>
</a>
</g>
</g>
<!-- Node1&#45;&gt;Node9 -->
<g id="edge77" class="edge">
<title>Node1&#45;&gt;Node9</title>
<path fill="none" stroke="midnightblue" d="M370.11,-878.51C533.84,-851.97 993.41,-768.85 1091,-658 1166.85,-571.84 1132,-517.79 1132,-403 1132,-403 1132,-403 1132,-289 1132,-212.64 860.48,-187.58 762.07,-181"/>
<polygon fill="midnightblue" stroke="midnightblue" points="762.23,-177.51 752.03,-180.36 761.78,-184.49 762.23,-177.51"/>
</g>
<!-- Node24 -->
<g id="node24" class="node">
<title>Node24</title>
<g id="a_node24"><a xlink:href="f__op__overlap__req_8h.html" target="_top" xlink:title=" ">
<polygon fill="white" stroke="black" points="321,-694.5 321,-724.5 421,-724.5 421,-694.5 321,-694.5"/>
<text text-anchor="start" x="329" y="-712.5" font-family="Helvetica,sans-Serif" font-size="10.00">f/f_op/f_op_overlap</text>
<text text-anchor="middle" x="371" y="-701.5" font-family="Helvetica,sans-Serif" font-size="10.00">_req.h</text>
</a>
</g>
</g>
<!-- Node1&#45;&gt;Node24 -->
<g id="edge51" class="edge">
<title>Node1&#45;&gt;Node24</title>
<path fill="none" stroke="midnightblue" d="M316.73,-873.31C326.83,-843.02 350.59,-771.73 363.05,-734.34"/>
<polygon fill="midnightblue" stroke="midnightblue" points="366.41,-735.35 366.25,-724.75 359.77,-733.13 366.41,-735.35"/>
</g>
<!-- Node26 -->
<g id="node26" class="node">
<title>Node26</title>
<g id="a_node26"><a xlink:href="f__op__scene__pause_8h.html" target="_top" xlink:title=" ">
<polygon fill="white" stroke="black" points="1055,-817.5 1055,-836.5 1189,-836.5 1189,-817.5 1055,-817.5"/>
<text text-anchor="middle" x="1122" y="-824.5" font-family="Helvetica,sans-Serif" font-size="10.00">f/f_op/f_op_scene_pause.h</text>
</a>
</g>
</g>
<!-- Node1&#45;&gt;Node26 -->
<g id="edge56" class="edge">
<title>Node1&#45;&gt;Node26</title>
<path fill="none" stroke="midnightblue" d="M370.3,-883.42C490.01,-875 772.19,-855.01 1009,-837 1020.57,-836.12 1032.81,-835.17 1044.8,-834.22"/>
<polygon fill="midnightblue" stroke="midnightblue" points="1045.09,-837.71 1054.78,-833.43 1044.54,-830.73 1045.09,-837.71"/>
</g>
<!-- Node30 -->
<g id="node30" class="node">
<title>Node30</title>
<g id="a_node30"><a xlink:href="f__pc__executor_8h.html" target="_top" xlink:title=" ">
<polygon fill="white" stroke="black" points="66.5,-638.5 66.5,-657.5 179.5,-657.5 179.5,-638.5 66.5,-638.5"/>
<text text-anchor="middle" x="123" y="-645.5" font-family="Helvetica,sans-Serif" font-size="10.00">f/f_pc/f_pc_executor.h</text>
</a>
</g>
</g>
<!-- Node1&#45;&gt;Node30 -->
<g id="edge67" class="edge">
<title>Node1&#45;&gt;Node30</title>
<path fill="none" stroke="midnightblue" d="M306.57,-873.24C289.75,-829.1 239.39,-697.41 236,-694 219.86,-677.78 197.14,-667.23 176.31,-660.46"/>
<polygon fill="midnightblue" stroke="midnightblue" points="177.17,-657.06 166.58,-657.52 175.14,-663.76 177.17,-657.06"/>
</g>
<!-- Node2&#45;&gt;Node3 -->
<g id="edge2" class="edge">
<title>Node2&#45;&gt;Node3</title>
<path fill="none" stroke="midnightblue" d="M196.91,-694.4C209.99,-685.13 227.08,-673.03 240.32,-663.65"/>
<polygon fill="midnightblue" stroke="midnightblue" points="242.64,-666.29 248.78,-657.66 238.59,-660.58 242.64,-666.29"/>
</g>
<!-- Node4 -->
<g id="node4" class="node">
<title>Node4</title>
<g id="a_node4"><a xlink:href="types_8h.html" target="_top" xlink:title=" ">
<polygon fill="white" stroke="black" points="688.5,-0.5 688.5,-19.5 769.5,-19.5 769.5,-0.5 688.5,-0.5"/>
<text text-anchor="middle" x="729" y="-7.5" font-family="Helvetica,sans-Serif" font-size="10.00">dolphin/types.h</text>
</a>
</g>
</g>
<!-- Node2&#45;&gt;Node4 -->
<g id="edge49" class="edge">
<title>Node2&#45;&gt;Node4</title>
<path fill="none" stroke="midnightblue" d="M126.75,-698.3C74.42,-684.39 0,-653.91 0,-593 0,-593 0,-593 0,-121 0,-81.08 25.85,-72.94 62,-56 117.29,-30.09 532.43,-16.37 678.41,-12.31"/>
<polygon fill="midnightblue" stroke="midnightblue" points="678.55,-15.8 688.45,-12.03 678.36,-8.81 678.55,-15.8"/>
</g>
<!-- Node3&#45;&gt;Node4 -->
<g id="edge3" class="edge">
<title>Node3&#45;&gt;Node4</title>
<path fill="none" stroke="midnightblue" d="M212.39,-638.45C157.58,-625.68 76,-595.87 76,-531.5 76,-531.5 76,-531.5 76,-121 76,-60.03 524.35,-24.58 678.03,-14.21"/>
<polygon fill="midnightblue" stroke="midnightblue" points="678.41,-17.7 688.15,-13.54 677.94,-10.71 678.41,-17.7"/>
</g>
<!-- Node5 -->
<g id="node5" class="node">
<title>Node5</title>
<g id="a_node5"><a xlink:href="f__pc__base_8h.html" target="_top" xlink:title=" ">
<polygon fill="white" stroke="black" points="682.5,-582.5 682.5,-601.5 779.5,-601.5 779.5,-582.5 682.5,-582.5"/>
<text text-anchor="middle" x="731" y="-589.5" font-family="Helvetica,sans-Serif" font-size="10.00">f/f_pc/f_pc_base.h</text>
</a>
</g>
</g>
<!-- Node3&#45;&gt;Node5 -->
<g id="edge4" class="edge">
<title>Node3&#45;&gt;Node5</title>
<path fill="none" stroke="midnightblue" d="M324.21,-639.06C327.18,-638.7 330.12,-638.34 333,-638 453.44,-623.66 594.51,-607.97 672.2,-599.43"/>
<polygon fill="midnightblue" stroke="midnightblue" points="672.71,-602.89 682.27,-598.32 671.95,-595.94 672.71,-602.89"/>
</g>
<!-- Node6 -->
<g id="node6" class="node">
<title>Node6</title>
<g id="a_node6"><a xlink:href="c__tag_8h.html" target="_top" xlink:title=" ">
<polygon fill="white" stroke="black" points="578.5,-392.5 578.5,-411.5 685.5,-411.5 685.5,-392.5 578.5,-392.5"/>
<text text-anchor="middle" x="632" y="-399.5" font-family="Helvetica,sans-Serif" font-size="10.00">SComponent/c_tag.h</text>
</a>
</g>
</g>
<!-- Node5&#45;&gt;Node6 -->
<g id="edge5" class="edge">
<title>Node5&#45;&gt;Node6</title>
<path fill="none" stroke="midnightblue" d="M724.59,-582.45C713.9,-568.27 691.67,-539.05 672,-515 658.63,-498.66 649.5,-498.33 641,-479 632.99,-460.8 631.27,-437.9 631.22,-422.02"/>
<polygon fill="midnightblue" stroke="midnightblue" points="634.73,-421.93 631.42,-411.87 627.73,-421.8 634.73,-421.93"/>
</g>
<!-- Node5&#45;&gt;Node9 -->
<g id="edge24" class="edge">
<title>Node5&#45;&gt;Node9</title>
<path fill="none" stroke="midnightblue" d="M767.64,-582.46C792.86,-575.4 826.33,-563.65 852,-546 911.65,-504.98 930,-475.4 930,-403 930,-403 930,-403 930,-289 930,-213.72 820.74,-189.69 762.54,-182.23"/>
<polygon fill="midnightblue" stroke="midnightblue" points="762.64,-178.72 752.3,-181.02 761.82,-185.67 762.64,-178.72"/>
</g>
<!-- Node16 -->
<g id="node16" class="node">
<title>Node16</title>
<g id="a_node16"><a xlink:href="f__pc__delete__tag_8h.html" target="_top" xlink:title=" ">
<polygon fill="white" stroke="black" points="567.5,-515.5 567.5,-545.5 662.5,-545.5 662.5,-515.5 567.5,-515.5"/>
<text text-anchor="start" x="575.5" y="-533.5" font-family="Helvetica,sans-Serif" font-size="10.00">f/f_pc/f_pc_delete</text>
<text text-anchor="middle" x="615" y="-522.5" font-family="Helvetica,sans-Serif" font-size="10.00">_tag.h</text>
</a>
</g>
</g>
<!-- Node5&#45;&gt;Node16 -->
<g id="edge25" class="edge">
<title>Node5&#45;&gt;Node16</title>
<path fill="none" stroke="midnightblue" d="M714.38,-582.48C698.01,-574.08 672.46,-560.97 651.37,-550.15"/>
<polygon fill="midnightblue" stroke="midnightblue" points="652.83,-546.97 642.34,-545.52 649.64,-553.2 652.83,-546.97"/>
</g>
<!-- Node18 -->
<g id="node18" class="node">
<title>Node18</title>
<g id="a_node18"><a xlink:href="f__pc__layer__tag_8h.html" target="_top" xlink:title=" ">
<polygon fill="white" stroke="black" points="434.5,-521 434.5,-540 549.5,-540 549.5,-521 434.5,-521"/>
<text text-anchor="middle" x="492" y="-528" font-family="Helvetica,sans-Serif" font-size="10.00">f/f_pc/f_pc_layer_tag.h</text>
</a>
</g>
</g>
<!-- Node5&#45;&gt;Node18 -->
<g id="edge33" class="edge">
<title>Node5&#45;&gt;Node18</title>
<path fill="none" stroke="midnightblue" d="M696.76,-582.48C654.43,-571.94 582.32,-553.99 535.95,-542.44"/>
<polygon fill="midnightblue" stroke="midnightblue" points="536.73,-539.03 526.18,-540.01 535.04,-545.82 536.73,-539.03"/>
</g>
<!-- Node19 -->
<g id="node19" class="node">
<title>Node19</title>
<g id="a_node19"><a xlink:href="f__pc__line__tag_8h.html" target="_top" xlink:title=" ">
<polygon fill="white" stroke="black" points="792,-454 792,-473 902,-473 902,-454 792,-454"/>
<text text-anchor="middle" x="847" y="-461" font-family="Helvetica,sans-Serif" font-size="10.00">f/f_pc/f_pc_line_tag.h</text>
</a>
</g>
</g>
<!-- Node5&#45;&gt;Node19 -->
<g id="edge37" class="edge">
<title>Node5&#45;&gt;Node19</title>
<path fill="none" stroke="midnightblue" d="M771.87,-582.44C792.93,-575.94 817.22,-564.78 832,-546 846.08,-528.11 848.49,-501.19 848.27,-483.25"/>
<polygon fill="midnightblue" stroke="midnightblue" points="851.76,-483.01 847.86,-473.16 844.77,-483.3 851.76,-483.01"/>
</g>
<!-- Node20 -->
<g id="node20" class="node">
<title>Node20</title>
<g id="a_node20"><a xlink:href="f__pc__priority_8h.html" target="_top" xlink:title=" ">
<polygon fill="white" stroke="black" points="719,-521 719,-540 823,-540 823,-521 719,-521"/>
<text text-anchor="middle" x="771" y="-528" font-family="Helvetica,sans-Serif" font-size="10.00">f/f_pc/f_pc_priority.h</text>
</a>
</g>
</g>
<!-- Node5&#45;&gt;Node20 -->
<g id="edge40" class="edge">
<title>Node5&#45;&gt;Node20</title>
<path fill="none" stroke="midnightblue" d="M736.73,-582.48C742.67,-573.64 752.12,-559.59 759.59,-548.48"/>
<polygon fill="midnightblue" stroke="midnightblue" points="762.61,-550.26 765.28,-540.01 756.8,-546.36 762.61,-550.26"/>
</g>
<!-- Node22 -->
<g id="node22" class="node">
<title>Node22</title>
<g id="a_node22"><a xlink:href="f__pc__profile_8h.html" target="_top" xlink:title=" ">
<polygon fill="white" stroke="black" points="939.5,-521 939.5,-540 1040.5,-540 1040.5,-521 939.5,-521"/>
<text text-anchor="middle" x="990" y="-528" font-family="Helvetica,sans-Serif" font-size="10.00">f/f_pc/f_pc_profile.h</text>
</a>
</g>
</g>
<!-- Node5&#45;&gt;Node22 -->
<g id="edge45" class="edge">
<title>Node5&#45;&gt;Node22</title>
<path fill="none" stroke="midnightblue" d="M768.11,-582.48C814.17,-571.89 892.77,-553.84 943,-542.3"/>
<polygon fill="midnightblue" stroke="midnightblue" points="944,-545.66 952.96,-540.01 942.43,-538.84 944,-545.66"/>
</g>
<!-- Node7 -->
<g id="node7" class="node">
<title>Node7</title>
<g id="a_node7"><a xlink:href="c__list_8h.html" target="_top" xlink:title=" ">
<polygon fill="white" stroke="black" points="534.5,-280.5 534.5,-299.5 641.5,-299.5 641.5,-280.5 534.5,-280.5"/>
<text text-anchor="middle" x="588" y="-287.5" font-family="Helvetica,sans-Serif" font-size="10.00">SComponent/c_list.h</text>
</a>
</g>
</g>
<!-- Node6&#45;&gt;Node7 -->
<g id="edge6" class="edge">
<title>Node6&#45;&gt;Node7</title>
<path fill="none" stroke="midnightblue" d="M630.13,-392.38C627.24,-379.73 621.16,-355.53 613,-336 609.04,-326.52 603.59,-316.47 598.79,-308.29"/>
<polygon fill="midnightblue" stroke="midnightblue" points="601.75,-306.42 593.58,-299.67 595.76,-310.04 601.75,-306.42"/>
</g>
<!-- Node8 -->
<g id="node8" class="node">
<title>Node8</title>
<g id="a_node8"><a xlink:href="c__node_8h.html" target="_top" xlink:title=" ">
<polygon fill="white" stroke="black" points="493.5,-224.5 493.5,-243.5 608.5,-243.5 608.5,-224.5 493.5,-224.5"/>
<text text-anchor="middle" x="551" y="-231.5" font-family="Helvetica,sans-Serif" font-size="10.00">SComponent/c_node.h</text>
</a>
</g>
</g>
<!-- Node6&#45;&gt;Node8 -->
<g id="edge19" class="edge">
<title>Node6&#45;&gt;Node8</title>
<path fill="none" stroke="midnightblue" d="M637.12,-392.25C648.76,-371.09 674.44,-316.25 651,-280 640.62,-263.95 623,-253.57 605.42,-246.87"/>
<polygon fill="midnightblue" stroke="midnightblue" points="606.29,-243.47 595.7,-243.52 604.01,-250.09 606.29,-243.47"/>
</g>
<!-- Node6&#45;&gt;Node9 -->
<g id="edge23" class="edge">
<title>Node6&#45;&gt;Node9</title>
<path fill="none" stroke="midnightblue" d="M640.73,-392.42C649.01,-383.86 661.3,-370.01 669,-356 698.53,-302.25 716.14,-231.01 723.28,-197.68"/>
<polygon fill="midnightblue" stroke="midnightblue" points="726.78,-198.07 725.37,-187.56 719.92,-196.65 726.78,-198.07"/>
</g>
<!-- Node15 -->
<g id="node15" class="node">
<title>Node15</title>
<g id="a_node15"><a xlink:href="c__tree_8h.html" target="_top" xlink:title=" ">
<polygon fill="white" stroke="black" points="494,-336.5 494,-355.5 604,-355.5 604,-336.5 494,-336.5"/>
<text text-anchor="middle" x="549" y="-343.5" font-family="Helvetica,sans-Serif" font-size="10.00">SComponent/c_tree.h</text>
</a>
</g>
</g>
<!-- Node6&#45;&gt;Node15 -->
<g id="edge20" class="edge">
<title>Node6&#45;&gt;Node15</title>
<path fill="none" stroke="midnightblue" d="M618.66,-392.32C605.84,-383.98 586.22,-371.21 571.06,-361.35"/>
<polygon fill="midnightblue" stroke="midnightblue" points="572.59,-358.17 562.3,-355.65 568.78,-364.04 572.59,-358.17"/>
</g>
<!-- Node7&#45;&gt;Node8 -->
<g id="edge7" class="edge">
<title>Node7&#45;&gt;Node8</title>
<path fill="none" stroke="midnightblue" d="M581.89,-280.08C576.72,-272.53 569.15,-261.49 562.81,-252.23"/>
<polygon fill="midnightblue" stroke="midnightblue" points="565.54,-250.02 557,-243.75 559.76,-253.98 565.54,-250.02"/>
</g>
<!-- Node8&#45;&gt;Node9 -->
<g id="edge8" class="edge">
<title>Node8&#45;&gt;Node9</title>
<path fill="none" stroke="midnightblue" d="M578.89,-224.44C609.54,-215.04 658.84,-199.91 692.06,-189.72"/>
<polygon fill="midnightblue" stroke="midnightblue" points="693.28,-193.01 701.81,-186.73 691.22,-186.32 693.28,-193.01"/>
</g>
<!-- Node9&#45;&gt;Node4 -->
<g id="edge9" class="edge">
<title>Node9&#45;&gt;Node4</title>
<path fill="none" stroke="midnightblue" d="M752.38,-173.78C776.94,-169.17 812.9,-158.13 830,-132 838.38,-119.2 843.55,-81.44 826,-56 815.06,-40.14 797.05,-29.74 779.5,-22.99"/>
<polygon fill="midnightblue" stroke="midnightblue" points="780.44,-19.61 769.84,-19.6 778.12,-26.21 780.44,-19.61"/>
</g>
<!-- Node10 -->
<g id="node10" class="node">
<title>Node10</title>
<g id="a_node10"><a xlink:href="AR_8h.html" target="_top" xlink:title=" ">
<polygon fill="white" stroke="black" points="577.5,-56.5 577.5,-75.5 626.5,-75.5 626.5,-56.5 577.5,-56.5"/>
<text text-anchor="middle" x="602" y="-63.5" font-family="Helvetica,sans-Serif" font-size="10.00">ar/AR.h</text>
</a>
</g>
</g>
<!-- Node9&#45;&gt;Node10 -->
<g id="edge10" class="edge">
<title>Node9&#45;&gt;Node10</title>
<path fill="none" stroke="midnightblue" d="M717.19,-168.37C696.11,-149.81 646.22,-105.91 619.54,-82.44"/>
<polygon fill="midnightblue" stroke="midnightblue" points="621.58,-79.57 611.76,-75.59 616.96,-84.83 621.58,-79.57"/>
</g>
<!-- Node11 -->
<g id="node11" class="node">
<title>Node11</title>
<g id="a_node11"><a xlink:href="ARQ_8h.html" target="_top" xlink:title=" ">
<polygon fill="white" stroke="black" points="645,-56.5 645,-75.5 701,-75.5 701,-56.5 645,-56.5"/>
<text text-anchor="middle" x="673" y="-63.5" font-family="Helvetica,sans-Serif" font-size="10.00">ar/ARQ.h</text>
</a>
</g>
</g>
<!-- Node9&#45;&gt;Node11 -->
<g id="edge12" class="edge">
<title>Node9&#45;&gt;Node11</title>
<path fill="none" stroke="midnightblue" d="M718.67,-168.39C710.78,-159.8 699.12,-145.92 692,-132 684.47,-117.28 679.48,-99.12 676.51,-85.74"/>
<polygon fill="midnightblue" stroke="midnightblue" points="679.91,-84.9 674.48,-75.8 673.06,-86.3 679.91,-84.9"/>
</g>
<!-- Node12 -->
<g id="node12" class="node">
<title>Node12</title>
<g id="a_node12"><a xlink:href="mwcc_8h.html" target="_top" xlink:title=" ">
<polygon fill="white" stroke="black" points="771,-112.5 771,-131.5 821,-131.5 821,-112.5 771,-112.5"/>
<text text-anchor="middle" x="796" y="-119.5" font-family="Helvetica,sans-Serif" font-size="10.00">mwcc.h</text>
</a>
</g>
</g>
<!-- Node9&#45;&gt;Node12 -->
<g id="edge14" class="edge">
<title>Node9&#45;&gt;Node12</title>
<path fill="none" stroke="midnightblue" d="M738.09,-168.32C748.49,-160.18 764.26,-147.84 776.72,-138.09"/>
<polygon fill="midnightblue" stroke="midnightblue" points="778.99,-140.75 784.71,-131.83 774.68,-135.24 778.99,-140.75"/>
</g>
<!-- Node13 -->
<g id="node13" class="node">
<title>Node13</title>
<g id="a_node13"><a xlink:href="OS_8h.html" target="_top" xlink:title=" ">
<polygon fill="white" stroke="black" points="701,-112.5 701,-131.5 753,-131.5 753,-112.5 701,-112.5"/>
<text text-anchor="middle" x="727" y="-119.5" font-family="Helvetica,sans-Serif" font-size="10.00">os/OS.h</text>
</a>
</g>
</g>
<!-- Node9&#45;&gt;Node13 -->
<g id="edge15" class="edge">
<title>Node9&#45;&gt;Node13</title>
<path fill="none" stroke="midnightblue" d="M727,-168.08C727,-161.01 727,-150.86 727,-141.99"/>
<polygon fill="midnightblue" stroke="midnightblue" points="730.5,-141.75 727,-131.75 723.5,-141.75 730.5,-141.75"/>
</g>
<!-- Node10&#45;&gt;Node4 -->
<g id="edge11" class="edge">
<title>Node10&#45;&gt;Node4</title>
<path fill="none" stroke="midnightblue" d="M622.12,-56.44C643.02,-47.56 675.93,-33.56 699.72,-23.45"/>
<polygon fill="midnightblue" stroke="midnightblue" points="701.14,-26.65 708.97,-19.52 698.4,-20.21 701.14,-26.65"/>
</g>
<!-- Node11&#45;&gt;Node4 -->
<g id="edge13" class="edge">
<title>Node11&#45;&gt;Node4</title>
<path fill="none" stroke="midnightblue" d="M682,-56.32C690.19,-48.42 702.51,-36.55 712.47,-26.94"/>
<polygon fill="midnightblue" stroke="midnightblue" points="715.07,-29.29 719.84,-19.83 710.21,-24.26 715.07,-29.29"/>
</g>
<!-- Node13&#45;&gt;Node4 -->
<g id="edge16" class="edge">
<title>Node13&#45;&gt;Node4</title>
<path fill="none" stroke="midnightblue" d="M727.16,-112.37C727.48,-94.62 728.22,-53.67 728.66,-29.6"/>
<polygon fill="midnightblue" stroke="midnightblue" points="732.16,-29.65 728.84,-19.59 725.16,-29.53 732.16,-29.65"/>
</g>
<!-- Node14 -->
<g id="node14" class="node">
<title>Node14</title>
<g id="a_node14"><a xlink:href="dvd_8h.html" target="_top" xlink:title=" ">
<polygon fill="white" stroke="black" points="757.5,-56.5 757.5,-75.5 816.5,-75.5 816.5,-56.5 757.5,-56.5"/>
<text text-anchor="middle" x="787" y="-63.5" font-family="Helvetica,sans-Serif" font-size="10.00">dvd/dvd.h</text>
</a>
</g>
</g>
<!-- Node13&#45;&gt;Node14 -->
<g id="edge17" class="edge">
<title>Node13&#45;&gt;Node14</title>
<path fill="none" stroke="midnightblue" d="M736.64,-112.32C745.51,-104.34 758.87,-92.31 769.61,-82.65"/>
<polygon fill="midnightblue" stroke="midnightblue" points="772.09,-85.13 777.18,-75.83 767.41,-79.92 772.09,-85.13"/>
</g>
<!-- Node14&#45;&gt;Node4 -->
<g id="edge18" class="edge">
<title>Node14&#45;&gt;Node4</title>
<path fill="none" stroke="midnightblue" d="M777.68,-56.32C769.11,-48.34 756.19,-36.31 745.81,-26.65"/>
<polygon fill="midnightblue" stroke="midnightblue" points="748.19,-24.09 738.49,-19.83 743.42,-29.21 748.19,-24.09"/>
</g>
<!-- Node15&#45;&gt;Node7 -->
<g id="edge21" class="edge">
<title>Node15&#45;&gt;Node7</title>
<path fill="none" stroke="midnightblue" d="M555.44,-336.08C560.95,-328.46 569.03,-317.26 575.76,-307.94"/>
<polygon fill="midnightblue" stroke="midnightblue" points="578.66,-309.91 581.68,-299.75 572.99,-305.81 578.66,-309.91"/>
</g>
<!-- Node15&#45;&gt;Node8 -->
<g id="edge22" class="edge">
<title>Node15&#45;&gt;Node8</title>
<path fill="none" stroke="midnightblue" d="M542.41,-336.32C533.86,-323.99 520.66,-300.63 526,-280 528.55,-270.18 533.75,-260.21 538.76,-252.17"/>
<polygon fill="midnightblue" stroke="midnightblue" points="541.75,-253.99 544.37,-243.73 535.92,-250.11 541.75,-253.99"/>
</g>
<!-- Node16&#45;&gt;Node6 -->
<g id="edge26" class="edge">
<title>Node16&#45;&gt;Node6</title>
<path fill="none" stroke="midnightblue" d="M605.6,-515.41C595.87,-498.97 583.22,-471.09 592,-448 596.34,-436.6 605.03,-426.24 613.21,-418.34"/>
<polygon fill="midnightblue" stroke="midnightblue" points="615.64,-420.86 620.73,-411.57 610.96,-415.66 615.64,-420.86"/>
</g>
<!-- Node16&#45;&gt;Node9 -->
<g id="edge32" class="edge">
<title>Node16&#45;&gt;Node9</title>
<path fill="none" stroke="midnightblue" d="M599.28,-515.19C549.97,-468.61 406.15,-318.86 485,-224 510.83,-192.92 630.6,-183.2 691.39,-180.25"/>
<polygon fill="midnightblue" stroke="midnightblue" points="691.84,-183.73 701.67,-179.78 691.52,-176.74 691.84,-183.73"/>
</g>
<!-- Node17 -->
<g id="node17" class="node">
<title>Node17</title>
<g id="a_node17"><a xlink:href="f__pc__layer_8h.html" target="_top" xlink:title=" ">
<polygon fill="white" stroke="black" points="368,-454 368,-473 464,-473 464,-454 368,-454"/>
<text text-anchor="middle" x="416" y="-461" font-family="Helvetica,sans-Serif" font-size="10.00">f/f_pc/f_pc_layer.h</text>
</a>
</g>
</g>
<!-- Node16&#45;&gt;Node17 -->
<g id="edge27" class="edge">
<title>Node16&#45;&gt;Node17</title>
<path fill="none" stroke="midnightblue" d="M571.82,-515.4C535.98,-503.69 485.59,-487.23 451.92,-476.23"/>
<polygon fill="midnightblue" stroke="midnightblue" points="452.64,-472.78 442.04,-473.01 450.46,-479.44 452.64,-472.78"/>
</g>
<!-- Node17&#45;&gt;Node6 -->
<g id="edge29" class="edge">
<title>Node17&#45;&gt;Node6</title>
<path fill="none" stroke="midnightblue" d="M446.95,-453.98C484.88,-443.53 549.28,-425.79 591.22,-414.23"/>
<polygon fill="midnightblue" stroke="midnightblue" points="592.4,-417.54 601.11,-411.51 590.54,-410.79 592.4,-417.54"/>
</g>
<!-- Node17&#45;&gt;Node8 -->
<g id="edge28" class="edge">
<title>Node17&#45;&gt;Node8</title>
<path fill="none" stroke="midnightblue" d="M420.51,-453.81C431.28,-433.17 459.5,-379.63 485,-336 499.81,-310.66 503.89,-304.54 520,-280 526.19,-270.57 533.33,-260.18 539.19,-251.77"/>
<polygon fill="midnightblue" stroke="midnightblue" points="542.07,-253.75 544.94,-243.55 536.34,-249.73 542.07,-253.75"/>
</g>
<!-- Node17&#45;&gt;Node9 -->
<g id="edge31" class="edge">
<title>Node17&#45;&gt;Node9</title>
<path fill="none" stroke="midnightblue" d="M412.71,-453.96C405.71,-435.01 390,-387.9 390,-347 390,-347 390,-347 390,-289 390,-258.2 390.05,-243.36 414,-224 456.11,-189.95 619.22,-181.66 691.82,-179.64"/>
<polygon fill="midnightblue" stroke="midnightblue" points="691.94,-183.14 701.84,-179.39 691.76,-176.14 691.94,-183.14"/>
</g>
<!-- Node17&#45;&gt;Node15 -->
<g id="edge30" class="edge">
<title>Node17&#45;&gt;Node15</title>
<path fill="none" stroke="midnightblue" d="M426,-453.82C448.43,-434.34 503.03,-386.92 531.33,-362.34"/>
<polygon fill="midnightblue" stroke="midnightblue" points="533.63,-364.98 538.89,-355.78 529.04,-359.7 533.63,-364.98"/>
</g>
<!-- Node18&#45;&gt;Node6 -->
<g id="edge34" class="edge">
<title>Node18&#45;&gt;Node6</title>
<path fill="none" stroke="midnightblue" d="M501.62,-520.81C525,-499.68 585.04,-445.43 614.78,-418.56"/>
<polygon fill="midnightblue" stroke="midnightblue" points="617.24,-421.06 622.31,-411.76 612.54,-415.86 617.24,-421.06"/>
</g>
<!-- Node18&#45;&gt;Node9 -->
<g id="edge36" class="edge">
<title>Node18&#45;&gt;Node9</title>
<path fill="none" stroke="midnightblue" d="M437.28,-520.99C410.16,-514.05 379.01,-501.53 359,-479 335.87,-452.97 340,-437.82 340,-403 340,-403 340,-403 340,-289 340,-252 359.8,-242.22 392,-224 442.63,-195.36 615.75,-184.09 691.28,-180.46"/>
<polygon fill="midnightblue" stroke="midnightblue" points="691.86,-183.94 701.69,-179.98 691.54,-176.95 691.86,-183.94"/>
</g>
<!-- Node18&#45;&gt;Node17 -->
<g id="edge35" class="edge">
<title>Node18&#45;&gt;Node17</title>
<path fill="none" stroke="midnightblue" d="M481.75,-520.73C469.56,-510.31 448.98,-492.71 434.09,-479.97"/>
<polygon fill="midnightblue" stroke="midnightblue" points="435.96,-476.97 426.09,-473.13 431.41,-482.29 435.96,-476.97"/>
</g>
<!-- Node19&#45;&gt;Node6 -->
<g id="edge38" class="edge">
<title>Node19&#45;&gt;Node6</title>
<path fill="none" stroke="midnightblue" d="M816.2,-453.98C778.44,-443.53 714.34,-425.79 672.59,-414.23"/>
<polygon fill="midnightblue" stroke="midnightblue" points="673.32,-410.8 662.75,-411.51 671.45,-417.55 673.32,-410.8"/>
</g>
<!-- Node19&#45;&gt;Node9 -->
<g id="edge39" class="edge">
<title>Node19&#45;&gt;Node9</title>
<path fill="none" stroke="midnightblue" d="M842.82,-453.74C834.14,-434.76 815,-388.2 815,-347 815,-347 815,-347 815,-289 815,-247.03 775.46,-211.9 749.39,-193.3"/>
<polygon fill="midnightblue" stroke="midnightblue" points="751.36,-190.41 741.14,-187.64 747.4,-196.18 751.36,-190.41"/>
</g>
<!-- Node20&#45;&gt;Node6 -->
<g id="edge41" class="edge">
<title>Node20&#45;&gt;Node6</title>
<path fill="none" stroke="midnightblue" d="M738.25,-520.9C714.9,-513.29 684.18,-500.06 664,-479 648.56,-462.89 640.06,-438.23 635.77,-421.39"/>
<polygon fill="midnightblue" stroke="midnightblue" points="639.18,-420.6 633.53,-411.63 632.36,-422.16 639.18,-420.6"/>
</g>
<!-- Node21 -->
<g id="node21" class="node">
<title>Node21</title>
<g id="a_node21"><a xlink:href="f__pc__method__tag_8h.html" target="_top" xlink:title=" ">
<polygon fill="white" stroke="black" points="672.5,-448.5 672.5,-478.5 773.5,-478.5 773.5,-448.5 672.5,-448.5"/>
<text text-anchor="start" x="680.5" y="-466.5" font-family="Helvetica,sans-Serif" font-size="10.00">f/f_pc/f_pc_method</text>
<text text-anchor="middle" x="723" y="-455.5" font-family="Helvetica,sans-Serif" font-size="10.00">_tag.h</text>
</a>
</g>
</g>
<!-- Node20&#45;&gt;Node21 -->
<g id="edge42" class="edge">
<title>Node20&#45;&gt;Node21</title>
<path fill="none" stroke="midnightblue" d="M764.53,-520.73C758.1,-512.03 747.99,-498.34 739.36,-486.65"/>
<polygon fill="midnightblue" stroke="midnightblue" points="742.16,-484.55 733.4,-478.59 736.53,-488.71 742.16,-484.55"/>
</g>
<!-- Node21&#45;&gt;Node6 -->
<g id="edge43" class="edge">
<title>Node21&#45;&gt;Node6</title>
<path fill="none" stroke="midnightblue" d="M701.43,-448.4C687.12,-439.04 668.39,-426.79 653.99,-417.38"/>
<polygon fill="midnightblue" stroke="midnightblue" points="655.53,-414.2 645.24,-411.66 651.7,-420.06 655.53,-414.2"/>
</g>
<!-- Node21&#45;&gt;Node9 -->
<g id="edge44" class="edge">
<title>Node21&#45;&gt;Node9</title>
<path fill="none" stroke="midnightblue" d="M727.65,-448.45C734.38,-426.89 746,-384.21 746,-347 746,-347 746,-347 746,-289 746,-256.49 737.84,-219.35 732.22,-197.61"/>
<polygon fill="midnightblue" stroke="midnightblue" points="735.54,-196.5 729.56,-187.75 728.78,-198.32 735.54,-196.5"/>
</g>
<!-- Node22&#45;&gt;Node9 -->
<g id="edge48" class="edge">
<title>Node22&#45;&gt;Node9</title>
<path fill="none" stroke="midnightblue" d="M987.48,-521C981.7,-500.76 968,-448.03 968,-403 968,-403 968,-403 968,-289 968,-258.2 967.34,-244.09 944,-224 917.14,-200.88 816.57,-187.73 762.28,-182.18"/>
<polygon fill="midnightblue" stroke="midnightblue" points="762.37,-178.67 752.08,-181.17 761.68,-185.63 762.37,-178.67"/>
</g>
<!-- Node23 -->
<g id="node23" class="node">
<title>Node23</title>
<g id="a_node23"><a xlink:href="f__pc__method_8h.html" target="_top" xlink:title=" ">
<polygon fill="white" stroke="black" points="996,-454 996,-473 1104,-473 1104,-454 996,-454"/>
<text text-anchor="middle" x="1050" y="-461" font-family="Helvetica,sans-Serif" font-size="10.00">f/f_pc/f_pc_method.h</text>
</a>
</g>
</g>
<!-- Node22&#45;&gt;Node23 -->
<g id="edge46" class="edge">
<title>Node22&#45;&gt;Node23</title>
<path fill="none" stroke="midnightblue" d="M998.09,-520.73C1007.54,-510.5 1023.36,-493.36 1035.05,-480.69"/>
<polygon fill="midnightblue" stroke="midnightblue" points="1037.83,-482.85 1042.04,-473.13 1032.68,-478.1 1037.83,-482.85"/>
</g>
<!-- Node23&#45;&gt;Node9 -->
<g id="edge47" class="edge">
<title>Node23&#45;&gt;Node9</title>
<path fill="none" stroke="midnightblue" d="M1047.21,-453.91C1041.29,-434.88 1028,-387.62 1028,-347 1028,-347 1028,-347 1028,-289 1028,-253.61 1011.89,-242.94 982,-224 946.01,-201.2 823.54,-187.49 762.36,-181.91"/>
<polygon fill="midnightblue" stroke="midnightblue" points="762.66,-178.43 752.39,-181.03 762.04,-185.4 762.66,-178.43"/>
</g>
<!-- Node24&#45;&gt;Node3 -->
<g id="edge53" class="edge">
<title>Node24&#45;&gt;Node3</title>
<path fill="none" stroke="midnightblue" d="M344.93,-694.4C327.13,-684.77 303.69,-672.09 286.1,-662.58"/>
<polygon fill="midnightblue" stroke="midnightblue" points="287.47,-659.34 277.01,-657.66 284.14,-665.49 287.47,-659.34"/>
</g>
<!-- Node24&#45;&gt;Node4 -->
<g id="edge54" class="edge">
<title>Node24&#45;&gt;Node4</title>
<path fill="none" stroke="midnightblue" d="M320.76,-703.37C237.11,-694.41 76.49,-675.19 57,-658 34.43,-638.09 38,-623.1 38,-593 38,-593 38,-593 38,-121 38,-56.8 105.18,-73.33 167,-56 262.38,-29.26 558.21,-16.68 677.93,-12.58"/>
<polygon fill="midnightblue" stroke="midnightblue" points="678.41,-16.06 688.28,-12.23 678.17,-9.07 678.41,-16.06"/>
</g>
<!-- Node24&#45;&gt;Node17 -->
<g id="edge55" class="edge">
<title>Node24&#45;&gt;Node17</title>
<path fill="none" stroke="midnightblue" d="M421.06,-695.53C440.11,-687.89 459.89,-676.06 471,-658 492.28,-623.41 439.41,-645.54 409,-546 402.6,-525.05 406.45,-499.77 410.53,-482.97"/>
<polygon fill="midnightblue" stroke="midnightblue" points="413.91,-483.86 413.13,-473.29 407.15,-482.04 413.91,-483.86"/>
</g>
<!-- Node25 -->
<g id="node25" class="node">
<title>Node25</title>
<g id="a_node25"><a xlink:href="c__phase_8h.html" target="_top" xlink:title=" ">
<polygon fill="white" stroke="black" points="342,-638.5 342,-657.5 462,-657.5 462,-638.5 342,-638.5"/>
<text text-anchor="middle" x="402" y="-645.5" font-family="Helvetica,sans-Serif" font-size="10.00">SComponent/c_phase.h</text>
</a>
</g>
</g>
<!-- Node24&#45;&gt;Node25 -->
<g id="edge52" class="edge">
<title>Node24&#45;&gt;Node25</title>
<path fill="none" stroke="midnightblue" d="M378.35,-694.4C382.67,-686.11 388.17,-675.55 392.77,-666.71"/>
<polygon fill="midnightblue" stroke="midnightblue" points="395.97,-668.14 397.49,-657.66 389.76,-664.91 395.97,-668.14"/>
</g>
<!-- Node26&#45;&gt;Node4 -->
<g id="edge57" class="edge">
<title>Node26&#45;&gt;Node4</title>
<path fill="none" stroke="midnightblue" d="M1144.71,-817.5C1181.23,-802.17 1249,-766.23 1249,-710.5 1249,-710.5 1249,-710.5 1249,-121 1249,-25.77 910.95,-12.59 779.98,-11.06"/>
<polygon fill="midnightblue" stroke="midnightblue" points="779.84,-7.56 769.8,-10.96 779.77,-14.56 779.84,-7.56"/>
</g>
<!-- Node27 -->
<g id="node27" class="node">
<title>Node27</title>
<g id="a_node27"><a xlink:href="f__op__scene_8h.html" target="_top" xlink:title=" ">
<polygon fill="white" stroke="black" points="1071,-761.5 1071,-780.5 1173,-780.5 1173,-761.5 1071,-761.5"/>
<text text-anchor="middle" x="1122" y="-768.5" font-family="Helvetica,sans-Serif" font-size="10.00">f/f_op/f_op_scene.h</text>
</a>
</g>
</g>
<!-- Node26&#45;&gt;Node27 -->
<g id="edge58" class="edge">
<title>Node26&#45;&gt;Node27</title>
<path fill="none" stroke="midnightblue" d="M1122,-817.08C1122,-810.01 1122,-799.86 1122,-790.99"/>
<polygon fill="midnightblue" stroke="midnightblue" points="1125.5,-790.75 1122,-780.75 1118.5,-790.75 1125.5,-790.75"/>
</g>
<!-- Node27&#45;&gt;Node4 -->
<g id="edge59" class="edge">
<title>Node27&#45;&gt;Node4</title>
<path fill="none" stroke="midnightblue" d="M1143.51,-761.4C1159.24,-754.03 1179.87,-741.91 1192,-725 1212.29,-696.71 1211,-683.82 1211,-649 1211,-649 1211,-649 1211,-121 1211,-33.32 904.04,-15.53 780.04,-11.92"/>
<polygon fill="midnightblue" stroke="midnightblue" points="779.77,-8.41 769.68,-11.64 779.58,-15.41 779.77,-8.41"/>
</g>
<!-- Node28 -->
<g id="node28" class="node">
<title>Node28</title>
<g id="a_node28"><a xlink:href="f__op__scene__tag_8h.html" target="_top" xlink:title=" ">
<polygon fill="white" stroke="black" points="1061.5,-700 1061.5,-719 1182.5,-719 1182.5,-700 1061.5,-700"/>
<text text-anchor="middle" x="1122" y="-707" font-family="Helvetica,sans-Serif" font-size="10.00">f/f_op/f_op_scene_tag.h</text>
</a>
</g>
</g>
<!-- Node27&#45;&gt;Node28 -->
<g id="edge60" class="edge">
<title>Node27&#45;&gt;Node28</title>
<path fill="none" stroke="midnightblue" d="M1122,-761.48C1122,-753.08 1122,-739.98 1122,-729.16"/>
<polygon fill="midnightblue" stroke="midnightblue" points="1125.5,-729.01 1122,-719.01 1118.5,-729.01 1125.5,-729.01"/>
</g>
<!-- Node29 -->
<g id="node29" class="node">
<title>Node29</title>
<g id="a_node29"><a xlink:href="f__pc__node_8h.html" target="_top" xlink:title=" ">
<polygon fill="white" stroke="black" points="984.5,-638.5 984.5,-657.5 1081.5,-657.5 1081.5,-638.5 984.5,-638.5"/>
<text text-anchor="middle" x="1033" y="-645.5" font-family="Helvetica,sans-Serif" font-size="10.00">f/f_pc/f_pc_node.h</text>
</a>
</g>
</g>
<!-- Node27&#45;&gt;Node29 -->
<g id="edge66" class="edge">
<title>Node27&#45;&gt;Node29</title>
<path fill="none" stroke="midnightblue" d="M1101.18,-761.44C1085.66,-754.02 1065.14,-741.82 1053,-725 1040.8,-708.1 1036.04,-684.31 1034.18,-667.87"/>
<polygon fill="midnightblue" stroke="midnightblue" points="1037.66,-667.49 1033.31,-657.84 1030.69,-668.1 1037.66,-667.49"/>
</g>
<!-- Node28&#45;&gt;Node4 -->
<g id="edge61" class="edge">
<title>Node28&#45;&gt;Node4</title>
<path fill="none" stroke="midnightblue" d="M1128.47,-699.74C1141.58,-681.11 1170,-635.78 1170,-593 1170,-593 1170,-593 1170,-121 1170,-41.34 895.68,-18.91 779.75,-12.99"/>
<polygon fill="midnightblue" stroke="midnightblue" points="779.86,-9.49 769.7,-12.5 779.51,-16.48 779.86,-9.49"/>
</g>
<!-- Node28&#45;&gt;Node29 -->
<g id="edge62" class="edge">
<title>Node28&#45;&gt;Node29</title>
<path fill="none" stroke="midnightblue" d="M1109.25,-699.98C1094.97,-690.43 1071.6,-674.81 1054.49,-663.37"/>
<polygon fill="midnightblue" stroke="midnightblue" points="1055.99,-660.16 1045.73,-657.51 1052.1,-665.98 1055.99,-660.16"/>
</g>
<!-- Node29&#45;&gt;Node5 -->
<g id="edge63" class="edge">
<title>Node29&#45;&gt;Node5</title>
<path fill="none" stroke="midnightblue" d="M985.15,-638.44C931.8,-628.9 845.56,-613.48 788.56,-603.29"/>
<polygon fill="midnightblue" stroke="midnightblue" points="789.09,-599.83 778.63,-601.52 787.86,-606.72 789.09,-599.83"/>
</g>
<!-- Node29&#45;&gt;Node17 -->
<g id="edge64" class="edge">
<title>Node29&#45;&gt;Node17</title>
<path fill="none" stroke="midnightblue" d="M984.37,-646.36C853.82,-643.54 500.45,-628.29 426,-546 410.79,-529.19 410.62,-501.82 412.67,-483.5"/>
<polygon fill="midnightblue" stroke="midnightblue" points="416.16,-483.83 414.12,-473.43 409.23,-482.83 416.16,-483.83"/>
</g>
<!-- Node29&#45;&gt;Node23 -->
<g id="edge65" class="edge">
<title>Node29&#45;&gt;Node23</title>
<path fill="none" stroke="midnightblue" d="M1034.94,-638.41C1038.76,-621.07 1047.11,-580.55 1050,-546 1051.78,-524.67 1051.46,-500.09 1050.89,-483.55"/>
<polygon fill="midnightblue" stroke="midnightblue" points="1054.37,-482.93 1050.47,-473.09 1047.38,-483.22 1054.37,-482.93"/>
</g>
<!-- Node30&#45;&gt;Node5 -->
<g id="edge70" class="edge">
<title>Node30&#45;&gt;Node5</title>
<path fill="none" stroke="midnightblue" d="M179.5,-639.1C182.71,-638.71 185.9,-638.34 189,-638 364.41,-618.77 572.56,-603.64 672.17,-596.86"/>
<polygon fill="midnightblue" stroke="midnightblue" points="672.59,-600.34 682.33,-596.18 672.12,-593.36 672.59,-600.34"/>
</g>
<!-- Node31 -->
<g id="node31" class="node">
<title>Node31</title>
<g id="a_node31"><a xlink:href="c__node__iter_8h.html" target="_top" xlink:title=" ">
<polygon fill="white" stroke="black" points="130,-521 130,-540 264,-540 264,-521 130,-521"/>
<text text-anchor="middle" x="197" y="-528" font-family="Helvetica,sans-Serif" font-size="10.00">SComponent/c_node_iter.h</text>
</a>
</g>
</g>
<!-- Node30&#45;&gt;Node31 -->
<g id="edge68" class="edge">
<title>Node30&#45;&gt;Node31</title>
<path fill="none" stroke="midnightblue" d="M122.4,-638.35C121.9,-625.23 122.54,-599.95 133,-582 141.98,-566.6 157.61,-554.13 171.18,-545.44"/>
<polygon fill="midnightblue" stroke="midnightblue" points="173.38,-548.19 180.13,-540.03 169.76,-542.2 173.38,-548.19"/>
</g>
<!-- Node32 -->
<g id="node32" class="node">
<title>Node32</title>
<g id="a_node32"><a xlink:href="f__pc__layer__iter_8h.html" target="_top" xlink:title=" ">
<polygon fill="white" stroke="black" points="270.5,-582.5 270.5,-601.5 385.5,-601.5 385.5,-582.5 270.5,-582.5"/>
<text text-anchor="middle" x="328" y="-589.5" font-family="Helvetica,sans-Serif" font-size="10.00">f/f_pc/f_pc_layer_iter.h</text>
</a>
</g>
</g>
<!-- Node30&#45;&gt;Node32 -->
<g id="edge71" class="edge">
<title>Node30&#45;&gt;Node32</title>
<path fill="none" stroke="midnightblue" d="M155.48,-638.44C190.72,-629.16 247.1,-614.31 285.76,-604.13"/>
<polygon fill="midnightblue" stroke="midnightblue" points="286.89,-607.45 295.67,-601.52 285.11,-600.68 286.89,-607.45"/>
</g>
<!-- Node33 -->
<g id="node33" class="node">
<title>Node33</title>
<g id="a_node33"><a xlink:href="f__pc__line__iter_8h.html" target="_top" xlink:title=" ">
<polygon fill="white" stroke="black" points="142,-582.5 142,-601.5 252,-601.5 252,-582.5 142,-582.5"/>
<text text-anchor="middle" x="197" y="-589.5" font-family="Helvetica,sans-Serif" font-size="10.00">f/f_pc/f_pc_line_iter.h</text>
</a>
</g>
</g>
<!-- Node30&#45;&gt;Node33 -->
<g id="edge75" class="edge">
<title>Node30&#45;&gt;Node33</title>
<path fill="none" stroke="midnightblue" d="M134.89,-638.32C146.15,-630.11 163.29,-617.6 176.71,-607.81"/>
<polygon fill="midnightblue" stroke="midnightblue" points="178.88,-610.56 184.89,-601.83 174.75,-604.9 178.88,-610.56"/>
</g>
<!-- Node31&#45;&gt;Node8 -->
<g id="edge69" class="edge">
<title>Node31&#45;&gt;Node8</title>
<path fill="none" stroke="midnightblue" d="M204.01,-520.86C222.55,-498.27 275.01,-436.12 326,-392 394.65,-332.6 485.79,-274.63 527.88,-248.88"/>
<polygon fill="midnightblue" stroke="midnightblue" points="529.83,-251.79 536.56,-243.6 526.2,-245.81 529.83,-251.79"/>
</g>
<!-- Node32&#45;&gt;Node9 -->
<g id="edge74" class="edge">
<title>Node32&#45;&gt;Node9</title>
<path fill="none" stroke="midnightblue" d="M324,-582.35C309.99,-551.27 264,-442.03 264,-347 264,-347 264,-347 264,-289 264,-201.15 583.53,-183.35 691.7,-179.84"/>
<polygon fill="midnightblue" stroke="midnightblue" points="691.89,-183.33 701.78,-179.53 691.68,-176.34 691.89,-183.33"/>
</g>
<!-- Node32&#45;&gt;Node17 -->
<g id="edge73" class="edge">
<title>Node32&#45;&gt;Node17</title>
<path fill="none" stroke="midnightblue" d="M329.36,-582.32C332.02,-567.42 339.01,-536.51 354,-515 364.19,-500.38 379.75,-487.72 392.73,-478.74"/>
<polygon fill="midnightblue" stroke="midnightblue" points="394.8,-481.56 401.21,-473.12 390.94,-475.72 394.8,-481.56"/>
</g>
<!-- Node32&#45;&gt;Node31 -->
<g id="edge72" class="edge">
<title>Node32&#45;&gt;Node31</title>
<path fill="none" stroke="midnightblue" d="M309.23,-582.48C287.15,-572.45 250.28,-555.7 224.86,-544.15"/>
<polygon fill="midnightblue" stroke="midnightblue" points="226.29,-540.96 215.73,-540.01 223.39,-547.33 226.29,-540.96"/>
</g>
<!-- Node33&#45;&gt;Node31 -->
<g id="edge76" class="edge">
<title>Node33&#45;&gt;Node31</title>
<path fill="none" stroke="midnightblue" d="M197,-582.48C197,-574.08 197,-560.98 197,-550.16"/>
<polygon fill="midnightblue" stroke="midnightblue" points="200.5,-550.01 197,-540.01 193.5,-550.01 200.5,-550.01"/>
</g>
</g>
</svg>
