<?xml version="1.0" encoding="UTF-8" standalone="no"?>
<!DOCTYPE svg PUBLIC "-//W3C//DTD SVG 1.1//EN"
 "http://www.w3.org/Graphics/SVG/1.1/DTD/svg11.dtd">
<!-- Generated by graphviz version 2.44.0 ()
 -->
<!-- Title: include/f/f_op/f_op_camera_mng.h Pages: 1 -->
<svg width="615pt" height="162pt"
 viewBox="0.00 0.00 614.50 162.00" xmlns="http://www.w3.org/2000/svg" xmlns:xlink="http://www.w3.org/1999/xlink">
<g id="graph0" class="graph" transform="scale(1 1) rotate(0) translate(4 158)">
<title>include/f/f_op/f_op_camera_mng.h</title>
<polygon fill="white" stroke="transparent" points="-4,4 -4,-158 610.5,-158 610.5,4 -4,4"/>
<!-- Node1 -->
<g id="node1" class="node">
<title>Node1</title>
<g id="a_node1"><a xlink:title=" ">
<polygon fill="#bfbfbf" stroke="black" points="236.5,-123.5 236.5,-153.5 333.5,-153.5 333.5,-123.5 236.5,-123.5"/>
<text text-anchor="start" x="244.5" y="-141.5" font-family="Helvetica,sans-Serif" font-size="10.00">include/f/f_op/f_op</text>
<text text-anchor="middle" x="285" y="-130.5" font-family="Helvetica,sans-Serif" font-size="10.00">_camera_mng.h</text>
</a>
</g>
</g>
<!-- Node2 -->
<g id="node2" class="node">
<title>Node2</title>
<g id="a_node2"><a xlink:href="d__camera_8cpp.html" target="_top" xlink:title=" ">
<polygon fill="white" stroke="black" points="0,-62 0,-81 102,-81 102,-62 0,-62"/>
<text text-anchor="middle" x="51" y="-69" font-family="Helvetica,sans-Serif" font-size="10.00">src/d/d_camera.cpp</text>
</a>
</g>
</g>
<!-- Node1&#45;&gt;Node2 -->
<g id="edge1" class="edge">
<title>Node1&#45;&gt;Node2</title>
<path fill="none" stroke="midnightblue" d="M226.41,-121.22C180.52,-108.48 118.5,-91.25 81.83,-81.06"/>
<polygon fill="midnightblue" stroke="midnightblue" points="225.66,-124.65 236.23,-123.95 227.53,-117.9 225.66,-124.65"/>
</g>
<!-- Node3 -->
<g id="node3" class="node">
<title>Node3</title>
<g id="a_node3"><a xlink:href="d__stage_8cpp.html" target="_top" xlink:title=" ">
<polygon fill="white" stroke="black" points="120,-62 120,-81 214,-81 214,-62 120,-62"/>
<text text-anchor="middle" x="167" y="-69" font-family="Helvetica,sans-Serif" font-size="10.00">src/d/d_stage.cpp</text>
</a>
</g>
</g>
<!-- Node1&#45;&gt;Node3 -->
<g id="edge2" class="edge">
<title>Node1&#45;&gt;Node3</title>
<path fill="none" stroke="midnightblue" d="M250.46,-118.47C227.93,-106.06 199.63,-90.47 182.44,-81.01"/>
<polygon fill="midnightblue" stroke="midnightblue" points="248.95,-121.64 259.4,-123.4 252.33,-115.51 248.95,-121.64"/>
</g>
<!-- Node4 -->
<g id="node4" class="node">
<title>Node4</title>
<g id="a_node4"><a xlink:href="f__ap__game_8cpp.html" target="_top" xlink:title=" ">
<polygon fill="white" stroke="black" points="232.5,-62 232.5,-81 337.5,-81 337.5,-62 232.5,-62"/>
<text text-anchor="middle" x="285" y="-69" font-family="Helvetica,sans-Serif" font-size="10.00">src/f/f_ap_game.cpp</text>
</a>
</g>
</g>
<!-- Node1&#45;&gt;Node4 -->
<g id="edge3" class="edge">
<title>Node1&#45;&gt;Node4</title>
<path fill="none" stroke="midnightblue" d="M285,-113.25C285,-102.02 285,-89.38 285,-81.19"/>
<polygon fill="midnightblue" stroke="midnightblue" points="281.5,-113.4 285,-123.4 288.5,-113.4 281.5,-113.4"/>
</g>
<!-- Node5 -->
<g id="node5" class="node">
<title>Node5</title>
<g id="a_node5"><a xlink:href="f__op__camera__mng_8cpp.html" target="_top" xlink:title=" ">
<polygon fill="white" stroke="black" points="355.5,-56.5 355.5,-86.5 472.5,-86.5 472.5,-56.5 355.5,-56.5"/>
<text text-anchor="start" x="363.5" y="-74.5" font-family="Helvetica,sans-Serif" font-size="10.00">src/f/f_op/f_op_camera</text>
<text text-anchor="middle" x="414" y="-63.5" font-family="Helvetica,sans-Serif" font-size="10.00">_mng.cpp</text>
</a>
</g>
</g>
<!-- Node1&#45;&gt;Node5 -->
<g id="edge4" class="edge">
<title>Node1&#45;&gt;Node5</title>
<path fill="none" stroke="midnightblue" d="M322.01,-118.85C342.4,-108.58 367.31,-96.03 386.06,-86.58"/>
<polygon fill="midnightblue" stroke="midnightblue" points="320.35,-115.77 312.99,-123.4 323.5,-122.02 320.35,-115.77"/>
</g>
<!-- Node6 -->
<g id="node6" class="node">
<title>Node6</title>
<g id="a_node6"><a xlink:href="f__op__camera_8h.html" target="_top" xlink:title=" ">
<polygon fill="white" stroke="black" points="490.5,-56.5 490.5,-86.5 587.5,-86.5 587.5,-56.5 490.5,-56.5"/>
<text text-anchor="start" x="498.5" y="-74.5" font-family="Helvetica,sans-Serif" font-size="10.00">include/f/f_op/f_op</text>
<text text-anchor="middle" x="539" y="-63.5" font-family="Helvetica,sans-Serif" font-size="10.00">_camera.h</text>
</a>
</g>
</g>
<!-- Node1&#45;&gt;Node6 -->
<g id="edge5" class="edge">
<title>Node1&#45;&gt;Node6</title>
<path fill="none" stroke="midnightblue" d="M343.49,-122.53C388.03,-111.13 448.62,-95.63 490.49,-84.91"/>
<polygon fill="midnightblue" stroke="midnightblue" points="342.49,-119.17 333.67,-125.04 344.23,-125.96 342.49,-119.17"/>
</g>
<!-- Node7 -->
<g id="node7" class="node">
<title>Node7</title>
<g id="a_node7"><a xlink:href="f__op__camera_8cpp.html" target="_top" xlink:title=" ">
<polygon fill="white" stroke="black" points="471.5,-0.5 471.5,-19.5 606.5,-19.5 606.5,-0.5 471.5,-0.5"/>
<text text-anchor="middle" x="539" y="-7.5" font-family="Helvetica,sans-Serif" font-size="10.00">src/f/f_op/f_op_camera.cpp</text>
</a>
</g>
</g>
<!-- Node6&#45;&gt;Node7 -->
<g id="edge6" class="edge">
<title>Node6&#45;&gt;Node7</title>
<path fill="none" stroke="midnightblue" d="M539,-46.29C539,-36.86 539,-26.65 539,-19.66"/>
<polygon fill="midnightblue" stroke="midnightblue" points="535.5,-46.4 539,-56.4 542.5,-46.4 535.5,-46.4"/>
</g>
</g>
</svg>
