<?xml version="1.0" encoding="UTF-8" standalone="no"?>
<!DOCTYPE svg PUBLIC "-//W3C//DTD SVG 1.1//EN"
 "http://www.w3.org/Graphics/SVG/1.1/DTD/svg11.dtd">
<!-- Generated by graphviz version 2.44.0 ()
 -->
<!-- Title: include/f/f_op/f_op_scene_pause.h Pages: 1 -->
<svg width="839pt" height="173pt"
 viewBox="0.00 0.00 838.50 173.00" xmlns="http://www.w3.org/2000/svg" xmlns:xlink="http://www.w3.org/1999/xlink">
<g id="graph0" class="graph" transform="scale(1 1) rotate(0) translate(4 169)">
<title>include/f/f_op/f_op_scene_pause.h</title>
<polygon fill="white" stroke="transparent" points="-4,4 -4,-169 834.5,-169 834.5,4 -4,4"/>
<!-- Node1 -->
<g id="node1" class="node">
<title>Node1</title>
<g id="a_node1"><a xlink:title=" ">
<polygon fill="#bfbfbf" stroke="black" points="288.5,-134.5 288.5,-164.5 385.5,-164.5 385.5,-134.5 288.5,-134.5"/>
<text text-anchor="start" x="296.5" y="-152.5" font-family="Helvetica,sans-Serif" font-size="10.00">include/f/f_op/f_op</text>
<text text-anchor="middle" x="337" y="-141.5" font-family="Helvetica,sans-Serif" font-size="10.00">_scene_pause.h</text>
</a>
</g>
</g>
<!-- Node2 -->
<g id="node2" class="node">
<title>Node2</title>
<g id="a_node2"><a xlink:href="f__op__overlap__mng_8cpp.html" target="_top" xlink:title=" ">
<polygon fill="white" stroke="black" points="0,-67.5 0,-97.5 116,-97.5 116,-67.5 0,-67.5"/>
<text text-anchor="start" x="8" y="-85.5" font-family="Helvetica,sans-Serif" font-size="10.00">src/f/f_op/f_op_overlap</text>
<text text-anchor="middle" x="58" y="-74.5" font-family="Helvetica,sans-Serif" font-size="10.00">_mng.cpp</text>
</a>
</g>
</g>
<!-- Node1&#45;&gt;Node2 -->
<g id="edge1" class="edge">
<title>Node1&#45;&gt;Node2</title>
<path fill="none" stroke="midnightblue" d="M278.53,-134.88C230.84,-123.77 163.8,-108.15 116.18,-97.05"/>
<polygon fill="midnightblue" stroke="midnightblue" points="277.87,-138.32 288.4,-137.18 279.46,-131.5 277.87,-138.32"/>
</g>
<!-- Node3 -->
<g id="node3" class="node">
<title>Node3</title>
<g id="a_node3"><a xlink:href="f__op__scene_8cpp.html" target="_top" xlink:title=" ">
<polygon fill="white" stroke="black" points="134.5,-73 134.5,-92 263.5,-92 263.5,-73 134.5,-73"/>
<text text-anchor="middle" x="199" y="-80" font-family="Helvetica,sans-Serif" font-size="10.00">src/f/f_op/f_op_scene.cpp</text>
</a>
</g>
</g>
<!-- Node1&#45;&gt;Node3 -->
<g id="edge2" class="edge">
<title>Node1&#45;&gt;Node3</title>
<path fill="none" stroke="midnightblue" d="M298,-130.13C271.44,-117.62 237.51,-101.64 217.06,-92.01"/>
<polygon fill="midnightblue" stroke="midnightblue" points="296.52,-133.3 307.06,-134.4 299.5,-126.97 296.52,-133.3"/>
</g>
<!-- Node4 -->
<g id="node4" class="node">
<title>Node4</title>
<g id="a_node4"><a xlink:href="f__op__scene__pause_8cpp.html" target="_top" xlink:title=" ">
<polygon fill="white" stroke="black" points="281.5,-67.5 281.5,-97.5 392.5,-97.5 392.5,-67.5 281.5,-67.5"/>
<text text-anchor="start" x="289.5" y="-85.5" font-family="Helvetica,sans-Serif" font-size="10.00">src/f/f_op/f_op_scene</text>
<text text-anchor="middle" x="337" y="-74.5" font-family="Helvetica,sans-Serif" font-size="10.00">_pause.cpp</text>
</a>
</g>
</g>
<!-- Node1&#45;&gt;Node4 -->
<g id="edge3" class="edge">
<title>Node1&#45;&gt;Node4</title>
<path fill="none" stroke="midnightblue" d="M337,-124.11C337,-115.15 337,-105.32 337,-97.58"/>
<polygon fill="midnightblue" stroke="midnightblue" points="333.5,-124.4 337,-134.4 340.5,-124.4 333.5,-124.4"/>
</g>
<!-- Node5 -->
<g id="node5" class="node">
<title>Node5</title>
<g id="a_node5"><a xlink:href="f__op__scene__mng_8h.html" target="_top" xlink:title=" ">
<polygon fill="white" stroke="black" points="410.5,-67.5 410.5,-97.5 507.5,-97.5 507.5,-67.5 410.5,-67.5"/>
<text text-anchor="start" x="418.5" y="-85.5" font-family="Helvetica,sans-Serif" font-size="10.00">include/f/f_op/f_op</text>
<text text-anchor="middle" x="459" y="-74.5" font-family="Helvetica,sans-Serif" font-size="10.00">_scene_mng.h</text>
</a>
</g>
</g>
<!-- Node1&#45;&gt;Node5 -->
<g id="edge4" class="edge">
<title>Node1&#45;&gt;Node5</title>
<path fill="none" stroke="midnightblue" d="M372.52,-129.57C391.71,-119.35 415,-106.94 432.58,-97.58"/>
<polygon fill="midnightblue" stroke="midnightblue" points="370.65,-126.6 363.47,-134.4 373.94,-132.78 370.65,-126.6"/>
</g>
<!-- Node11 -->
<g id="node11" class="node">
<title>Node11</title>
<g id="a_node11"><a xlink:href="f__op__scene__req_8h.html" target="_top" xlink:title=" ">
<polygon fill="white" stroke="black" points="597.5,-67.5 597.5,-97.5 694.5,-97.5 694.5,-67.5 597.5,-67.5"/>
<text text-anchor="start" x="605.5" y="-85.5" font-family="Helvetica,sans-Serif" font-size="10.00">include/f/f_op/f_op</text>
<text text-anchor="middle" x="646" y="-74.5" font-family="Helvetica,sans-Serif" font-size="10.00">_scene_req.h</text>
</a>
</g>
</g>
<!-- Node1&#45;&gt;Node11 -->
<g id="edge10" class="edge">
<title>Node1&#45;&gt;Node11</title>
<path fill="none" stroke="midnightblue" d="M395.45,-136.21C453.88,-123.91 542.71,-105.23 597.41,-93.72"/>
<polygon fill="midnightblue" stroke="midnightblue" points="394.69,-132.79 385.62,-138.27 396.13,-139.64 394.69,-132.79"/>
</g>
<!-- Node6 -->
<g id="node6" class="node">
<title>Node6</title>
<g id="a_node6"><a xlink:href="d__com__inf__game_8cpp.html" target="_top" xlink:title=" ">
<polygon fill="white" stroke="black" points="94.5,-0.5 94.5,-30.5 213.5,-30.5 213.5,-0.5 94.5,-0.5"/>
<text text-anchor="start" x="102.5" y="-18.5" font-family="Helvetica,sans-Serif" font-size="10.00">src/d/d_com/d_com_inf</text>
<text text-anchor="middle" x="154" y="-7.5" font-family="Helvetica,sans-Serif" font-size="10.00">_game.cpp</text>
</a>
</g>
</g>
<!-- Node5&#45;&gt;Node6 -->
<g id="edge5" class="edge">
<title>Node5&#45;&gt;Node6</title>
<path fill="none" stroke="midnightblue" d="M400.29,-66.9C320.6,-49.04 298.96,-46.66 223,-31 220,-30.38 216.93,-29.75 213.83,-29.1"/>
<polygon fill="midnightblue" stroke="midnightblue" points="399.78,-70.37 410.3,-69.16 401.32,-63.54 399.78,-70.37"/>
</g>
<!-- Node7 -->
<g id="node7" class="node">
<title>Node7</title>
<g id="a_node7"><a xlink:href="d__stage_8cpp.html" target="_top" xlink:title=" ">
<polygon fill="white" stroke="black" points="232,-6 232,-25 326,-25 326,-6 232,-6"/>
<text text-anchor="middle" x="279" y="-13" font-family="Helvetica,sans-Serif" font-size="10.00">src/d/d_stage.cpp</text>
</a>
</g>
</g>
<!-- Node5&#45;&gt;Node7 -->
<g id="edge6" class="edge">
<title>Node5&#45;&gt;Node7</title>
<path fill="none" stroke="midnightblue" d="M410.39,-63.95C375.43,-51.32 329.82,-34.85 302.56,-25.01"/>
<polygon fill="midnightblue" stroke="midnightblue" points="409.35,-67.29 419.94,-67.4 411.73,-60.71 409.35,-67.29"/>
</g>
<!-- Node8 -->
<g id="node8" class="node">
<title>Node8</title>
<g id="a_node8"><a xlink:href="f__ap__game_8cpp.html" target="_top" xlink:title=" ">
<polygon fill="white" stroke="black" points="344.5,-6 344.5,-25 449.5,-25 449.5,-6 344.5,-6"/>
<text text-anchor="middle" x="397" y="-13" font-family="Helvetica,sans-Serif" font-size="10.00">src/f/f_ap_game.cpp</text>
</a>
</g>
</g>
<!-- Node5&#45;&gt;Node8 -->
<g id="edge7" class="edge">
<title>Node5&#45;&gt;Node8</title>
<path fill="none" stroke="midnightblue" d="M438.49,-60C427.17,-48.13 413.74,-34.05 405.29,-25.19"/>
<polygon fill="midnightblue" stroke="midnightblue" points="436.11,-62.58 445.55,-67.4 441.18,-57.74 436.11,-62.58"/>
</g>
<!-- Node9 -->
<g id="node9" class="node">
<title>Node9</title>
<g id="a_node9"><a xlink:href="f__op__msg__mng_8cpp.html" target="_top" xlink:title=" ">
<polygon fill="white" stroke="black" points="468,-0.5 468,-30.5 572,-30.5 572,-0.5 468,-0.5"/>
<text text-anchor="start" x="476" y="-18.5" font-family="Helvetica,sans-Serif" font-size="10.00">src/f/f_op/f_op_msg</text>
<text text-anchor="middle" x="520" y="-7.5" font-family="Helvetica,sans-Serif" font-size="10.00">_mng.cpp</text>
</a>
</g>
</g>
<!-- Node5&#45;&gt;Node9 -->
<g id="edge8" class="edge">
<title>Node5&#45;&gt;Node9</title>
<path fill="none" stroke="midnightblue" d="M479.15,-60.02C488.24,-50.34 498.72,-39.17 506.79,-30.58"/>
<polygon fill="midnightblue" stroke="midnightblue" points="476.53,-57.71 472.24,-67.4 481.63,-62.5 476.53,-57.71"/>
</g>
<!-- Node10 -->
<g id="node10" class="node">
<title>Node10</title>
<g id="a_node10"><a xlink:href="f__op__scene__mng_8cpp.html" target="_top" xlink:title=" ">
<polygon fill="white" stroke="black" points="590.5,-0.5 590.5,-30.5 701.5,-30.5 701.5,-0.5 590.5,-0.5"/>
<text text-anchor="start" x="598.5" y="-18.5" font-family="Helvetica,sans-Serif" font-size="10.00">src/f/f_op/f_op_scene</text>
<text text-anchor="middle" x="646" y="-7.5" font-family="Helvetica,sans-Serif" font-size="10.00">_mng.cpp</text>
</a>
</g>
</g>
<!-- Node5&#45;&gt;Node10 -->
<g id="edge9" class="edge">
<title>Node5&#45;&gt;Node10</title>
<path fill="none" stroke="midnightblue" d="M509.08,-64.09C539.27,-53.6 577.22,-40.41 605.5,-30.58"/>
<polygon fill="midnightblue" stroke="midnightblue" points="507.87,-60.81 499.58,-67.4 510.17,-67.42 507.87,-60.81"/>
</g>
<!-- Node11&#45;&gt;Node10 -->
<g id="edge11" class="edge">
<title>Node11&#45;&gt;Node10</title>
<path fill="none" stroke="midnightblue" d="M646,-57.11C646,-48.15 646,-38.32 646,-30.58"/>
<polygon fill="midnightblue" stroke="midnightblue" points="642.5,-57.4 646,-67.4 649.5,-57.4 642.5,-57.4"/>
</g>
<!-- Node12 -->
<g id="node12" class="node">
<title>Node12</title>
<g id="a_node12"><a xlink:href="f__op__scene__req_8cpp.html" target="_top" xlink:title=" ">
<polygon fill="white" stroke="black" points="719.5,-0.5 719.5,-30.5 830.5,-30.5 830.5,-0.5 719.5,-0.5"/>
<text text-anchor="start" x="727.5" y="-18.5" font-family="Helvetica,sans-Serif" font-size="10.00">src/f/f_op/f_op_scene</text>
<text text-anchor="middle" x="775" y="-7.5" font-family="Helvetica,sans-Serif" font-size="10.00">_req.cpp</text>
</a>
</g>
</g>
<!-- Node11&#45;&gt;Node12 -->
<g id="edge12" class="edge">
<title>Node11&#45;&gt;Node12</title>
<path fill="none" stroke="midnightblue" d="M683.01,-62.85C703.4,-52.58 728.31,-40.03 747.06,-30.58"/>
<polygon fill="midnightblue" stroke="midnightblue" points="681.35,-59.77 673.99,-67.4 684.5,-66.02 681.35,-59.77"/>
</g>
</g>
</svg>
