<?xml version="1.0" encoding="UTF-8" standalone="no"?>
<!DOCTYPE svg PUBLIC "-//W3C//DTD SVG 1.1//EN"
 "http://www.w3.org/Graphics/SVG/1.1/DTD/svg11.dtd">
<!-- Generated by graphviz version 2.44.0 ()
 -->
<!-- Title: include/f/f_op/f_op_overlap_req.h Pages: 1 -->
<svg width="930pt" height="733pt"
 viewBox="0.00 0.00 929.94 733.00" xmlns="http://www.w3.org/2000/svg" xmlns:xlink="http://www.w3.org/1999/xlink">
<g id="graph0" class="graph" transform="scale(1 1) rotate(0) translate(4 729)">
<title>include/f/f_op/f_op_overlap_req.h</title>
<polygon fill="white" stroke="transparent" points="-4,4 -4,-729 925.94,-729 925.94,4 -4,4"/>
<!-- Node1 -->
<g id="node1" class="node">
<title>Node1</title>
<g id="a_node1"><a xlink:title=" ">
<polygon fill="#bfbfbf" stroke="black" points="144.5,-694.5 144.5,-724.5 241.5,-724.5 241.5,-694.5 144.5,-694.5"/>
<text text-anchor="start" x="152.5" y="-712.5" font-family="Helvetica,sans-Serif" font-size="10.00">include/f/f_op/f_op</text>
<text text-anchor="middle" x="193" y="-701.5" font-family="Helvetica,sans-Serif" font-size="10.00">_overlap_req.h</text>
</a>
</g>
</g>
<!-- Node2 -->
<g id="node2" class="node">
<title>Node2</title>
<g id="a_node2"><a xlink:href="c__phase_8h.html" target="_top" xlink:title=" ">
<polygon fill="white" stroke="black" points="0,-638.5 0,-657.5 120,-657.5 120,-638.5 0,-638.5"/>
<text text-anchor="middle" x="60" y="-645.5" font-family="Helvetica,sans-Serif" font-size="10.00">SComponent/c_phase.h</text>
</a>
</g>
</g>
<!-- Node1&#45;&gt;Node2 -->
<g id="edge1" class="edge">
<title>Node1&#45;&gt;Node2</title>
<path fill="none" stroke="midnightblue" d="M161.48,-694.4C139.36,-684.51 110.03,-671.38 88.59,-661.79"/>
<polygon fill="midnightblue" stroke="midnightblue" points="89.91,-658.55 79.35,-657.66 87.05,-664.94 89.91,-658.55"/>
</g>
<!-- Node3 -->
<g id="node3" class="node">
<title>Node3</title>
<g id="a_node3"><a xlink:href="c__request_8h.html" target="_top" xlink:title=" ">
<polygon fill="white" stroke="black" points="176,-638.5 176,-657.5 302,-657.5 302,-638.5 176,-638.5"/>
<text text-anchor="middle" x="239" y="-645.5" font-family="Helvetica,sans-Serif" font-size="10.00">SComponent/c_request.h</text>
</a>
</g>
</g>
<!-- Node1&#45;&gt;Node3 -->
<g id="edge2" class="edge">
<title>Node1&#45;&gt;Node3</title>
<path fill="none" stroke="midnightblue" d="M203.9,-694.4C210.59,-685.75 219.18,-674.64 226.18,-665.58"/>
<polygon fill="midnightblue" stroke="midnightblue" points="228.96,-667.71 232.31,-657.66 223.42,-663.43 228.96,-667.71"/>
</g>
<!-- Node4 -->
<g id="node4" class="node">
<title>Node4</title>
<g id="a_node4"><a xlink:href="types_8h.html" target="_top" xlink:title=" ">
<polygon fill="white" stroke="black" points="418.5,-0.5 418.5,-19.5 499.5,-19.5 499.5,-0.5 418.5,-0.5"/>
<text text-anchor="middle" x="459" y="-7.5" font-family="Helvetica,sans-Serif" font-size="10.00">dolphin/types.h</text>
</a>
</g>
</g>
<!-- Node1&#45;&gt;Node4 -->
<g id="edge49" class="edge">
<title>Node1&#45;&gt;Node4</title>
<path fill="none" stroke="midnightblue" d="M183.46,-694.25C170.25,-673.1 148,-631.74 148,-593 148,-593 148,-593 148,-121 148,-75.19 186.5,-75.4 228,-56 286.1,-28.83 359.81,-18.06 408.13,-13.8"/>
<polygon fill="midnightblue" stroke="midnightblue" points="408.67,-17.26 418.35,-12.96 408.09,-10.29 408.67,-17.26"/>
</g>
<!-- Node17 -->
<g id="node17" class="node">
<title>Node17</title>
<g id="a_node17"><a xlink:href="f__pc__layer_8h.html" target="_top" xlink:title=" ">
<polygon fill="white" stroke="black" points="652,-454 652,-473 748,-473 748,-454 652,-454"/>
<text text-anchor="middle" x="700" y="-461" font-family="Helvetica,sans-Serif" font-size="10.00">f/f_pc/f_pc_layer.h</text>
</a>
</g>
</g>
<!-- Node1&#45;&gt;Node17 -->
<g id="edge50" class="edge">
<title>Node1&#45;&gt;Node17</title>
<path fill="none" stroke="midnightblue" d="M241.89,-702.6C370.39,-685.96 712.18,-634.06 776,-546 784.09,-534.84 782.51,-527.14 776,-515 766.8,-497.84 748.92,-485.52 732.82,-477.35"/>
<polygon fill="midnightblue" stroke="midnightblue" points="734.15,-474.11 723.62,-473.01 731.17,-480.44 734.15,-474.11"/>
</g>
<!-- Node3&#45;&gt;Node4 -->
<g id="edge3" class="edge">
<title>Node3&#45;&gt;Node4</title>
<path fill="none" stroke="midnightblue" d="M231.85,-638.35C217.39,-619.93 186,-574.96 186,-531.5 186,-531.5 186,-531.5 186,-121 186,-73.63 329.22,-37.17 408.19,-20.67"/>
<polygon fill="midnightblue" stroke="midnightblue" points="409.33,-24.01 418.42,-18.57 407.92,-17.15 409.33,-24.01"/>
</g>
<!-- Node5 -->
<g id="node5" class="node">
<title>Node5</title>
<g id="a_node5"><a xlink:href="f__pc__base_8h.html" target="_top" xlink:title=" ">
<polygon fill="white" stroke="black" points="499.5,-582.5 499.5,-601.5 596.5,-601.5 596.5,-582.5 499.5,-582.5"/>
<text text-anchor="middle" x="548" y="-589.5" font-family="Helvetica,sans-Serif" font-size="10.00">f/f_pc/f_pc_base.h</text>
</a>
</g>
</g>
<!-- Node3&#45;&gt;Node5 -->
<g id="edge4" class="edge">
<title>Node3&#45;&gt;Node5</title>
<path fill="none" stroke="midnightblue" d="M287.96,-638.44C342.54,-628.9 430.79,-613.48 489.1,-603.29"/>
<polygon fill="midnightblue" stroke="midnightblue" points="490.02,-606.69 499.27,-601.52 488.81,-599.79 490.02,-606.69"/>
</g>
<!-- Node6 -->
<g id="node6" class="node">
<title>Node6</title>
<g id="a_node6"><a xlink:href="c__tag_8h.html" target="_top" xlink:title=" ">
<polygon fill="white" stroke="black" points="418.5,-392.5 418.5,-411.5 525.5,-411.5 525.5,-392.5 418.5,-392.5"/>
<text text-anchor="middle" x="472" y="-399.5" font-family="Helvetica,sans-Serif" font-size="10.00">SComponent/c_tag.h</text>
</a>
</g>
</g>
<!-- Node5&#45;&gt;Node6 -->
<g id="edge5" class="edge">
<title>Node5&#45;&gt;Node6</title>
<path fill="none" stroke="midnightblue" d="M544.31,-582.39C540.44,-573.35 534.22,-558.71 529,-546 510.64,-501.25 489.75,-448.31 479.09,-421.12"/>
<polygon fill="midnightblue" stroke="midnightblue" points="482.32,-419.76 475.41,-411.73 475.8,-422.32 482.32,-419.76"/>
</g>
<!-- Node9 -->
<g id="node9" class="node">
<title>Node9</title>
<g id="a_node9"><a xlink:href="global_8h.html" target="_top" xlink:title=" ">
<polygon fill="white" stroke="black" points="556,-168.5 556,-187.5 606,-187.5 606,-168.5 556,-168.5"/>
<text text-anchor="middle" x="581" y="-175.5" font-family="Helvetica,sans-Serif" font-size="10.00">global.h</text>
</a>
</g>
</g>
<!-- Node5&#45;&gt;Node9 -->
<g id="edge24" class="edge">
<title>Node5&#45;&gt;Node9</title>
<path fill="none" stroke="midnightblue" d="M596.92,-588.68C649.76,-584.75 735.59,-574.22 804,-546 862.58,-521.84 921,-527.87 921,-464.5 921,-464.5 921,-464.5 921,-289 921,-258.9 924.77,-243.68 902,-224 859.9,-187.61 691.27,-180.59 616.73,-179.28"/>
<polygon fill="midnightblue" stroke="midnightblue" points="616.49,-175.77 606.44,-179.12 616.39,-182.77 616.49,-175.77"/>
</g>
<!-- Node16 -->
<g id="node16" class="node">
<title>Node16</title>
<g id="a_node16"><a xlink:href="f__pc__delete__tag_8h.html" target="_top" xlink:title=" ">
<polygon fill="white" stroke="black" points="538.5,-515.5 538.5,-545.5 633.5,-545.5 633.5,-515.5 538.5,-515.5"/>
<text text-anchor="start" x="546.5" y="-533.5" font-family="Helvetica,sans-Serif" font-size="10.00">f/f_pc/f_pc_delete</text>
<text text-anchor="middle" x="586" y="-522.5" font-family="Helvetica,sans-Serif" font-size="10.00">_tag.h</text>
</a>
</g>
</g>
<!-- Node5&#45;&gt;Node16 -->
<g id="edge25" class="edge">
<title>Node5&#45;&gt;Node16</title>
<path fill="none" stroke="midnightblue" d="M553.44,-582.48C558.16,-575.09 565.19,-564.08 571.52,-554.17"/>
<polygon fill="midnightblue" stroke="midnightblue" points="574.61,-555.83 577.04,-545.52 568.71,-552.07 574.61,-555.83"/>
</g>
<!-- Node18 -->
<g id="node18" class="node">
<title>Node18</title>
<g id="a_node18"><a xlink:href="f__pc__layer__tag_8h.html" target="_top" xlink:title=" ">
<polygon fill="white" stroke="black" points="651.5,-521 651.5,-540 766.5,-540 766.5,-521 651.5,-521"/>
<text text-anchor="middle" x="709" y="-528" font-family="Helvetica,sans-Serif" font-size="10.00">f/f_pc/f_pc_layer_tag.h</text>
</a>
</g>
</g>
<!-- Node5&#45;&gt;Node18 -->
<g id="edge33" class="edge">
<title>Node5&#45;&gt;Node18</title>
<path fill="none" stroke="midnightblue" d="M571.07,-582.48C598.68,-572.27 645.12,-555.11 676.4,-543.55"/>
<polygon fill="midnightblue" stroke="midnightblue" points="677.81,-546.76 685.98,-540.01 675.38,-540.19 677.81,-546.76"/>
</g>
<!-- Node19 -->
<g id="node19" class="node">
<title>Node19</title>
<g id="a_node19"><a xlink:href="f__pc__line__tag_8h.html" target="_top" xlink:title=" ">
<polygon fill="white" stroke="black" points="214,-454 214,-473 324,-473 324,-454 214,-454"/>
<text text-anchor="middle" x="269" y="-461" font-family="Helvetica,sans-Serif" font-size="10.00">f/f_pc/f_pc_line_tag.h</text>
</a>
</g>
</g>
<!-- Node5&#45;&gt;Node19 -->
<g id="edge37" class="edge">
<title>Node5&#45;&gt;Node19</title>
<path fill="none" stroke="midnightblue" d="M499.26,-584.64C462.08,-578.43 410.39,-566.77 369,-546 335.17,-529.03 302.43,-498.95 284.08,-480.46"/>
<polygon fill="midnightblue" stroke="midnightblue" points="286.4,-477.83 276.92,-473.1 281.38,-482.71 286.4,-477.83"/>
</g>
<!-- Node20 -->
<g id="node20" class="node">
<title>Node20</title>
<g id="a_node20"><a xlink:href="f__pc__priority_8h.html" target="_top" xlink:title=" ">
<polygon fill="white" stroke="black" points="378,-521 378,-540 482,-540 482,-521 378,-521"/>
<text text-anchor="middle" x="430" y="-528" font-family="Helvetica,sans-Serif" font-size="10.00">f/f_pc/f_pc_priority.h</text>
</a>
</g>
</g>
<!-- Node5&#45;&gt;Node20 -->
<g id="edge40" class="edge">
<title>Node5&#45;&gt;Node20</title>
<path fill="none" stroke="midnightblue" d="M531.09,-582.48C511.47,-572.58 478.87,-556.14 456.01,-544.62"/>
<polygon fill="midnightblue" stroke="midnightblue" points="457.38,-541.39 446.88,-540.01 454.23,-547.64 457.38,-541.39"/>
</g>
<!-- Node22 -->
<g id="node22" class="node">
<title>Node22</title>
<g id="a_node22"><a xlink:href="f__pc__profile_8h.html" target="_top" xlink:title=" ">
<polygon fill="white" stroke="black" points="766.5,-280.5 766.5,-299.5 867.5,-299.5 867.5,-280.5 766.5,-280.5"/>
<text text-anchor="middle" x="817" y="-287.5" font-family="Helvetica,sans-Serif" font-size="10.00">f/f_pc/f_pc_profile.h</text>
</a>
</g>
</g>
<!-- Node5&#45;&gt;Node22 -->
<g id="edge45" class="edge">
<title>Node5&#45;&gt;Node22</title>
<path fill="none" stroke="midnightblue" d="M596.68,-586.51C655.08,-580.27 748.58,-567.27 776,-546 807.73,-521.39 815,-504.66 815,-464.5 815,-464.5 815,-464.5 815,-401 815,-368.94 815.86,-331.64 816.45,-309.75"/>
<polygon fill="midnightblue" stroke="midnightblue" points="819.96,-309.65 816.74,-299.56 812.96,-309.45 819.96,-309.65"/>
</g>
<!-- Node7 -->
<g id="node7" class="node">
<title>Node7</title>
<g id="a_node7"><a xlink:href="c__list_8h.html" target="_top" xlink:title=" ">
<polygon fill="white" stroke="black" points="448.5,-280.5 448.5,-299.5 555.5,-299.5 555.5,-280.5 448.5,-280.5"/>
<text text-anchor="middle" x="502" y="-287.5" font-family="Helvetica,sans-Serif" font-size="10.00">SComponent/c_list.h</text>
</a>
</g>
</g>
<!-- Node6&#45;&gt;Node7 -->
<g id="edge6" class="edge">
<title>Node6&#45;&gt;Node7</title>
<path fill="none" stroke="midnightblue" d="M471.51,-392.37C471.05,-379.72 471.14,-355.51 477,-336 479.92,-326.28 485.17,-316.33 490.11,-308.26"/>
<polygon fill="midnightblue" stroke="midnightblue" points="493.1,-310.08 495.6,-299.79 487.22,-306.28 493.1,-310.08"/>
</g>
<!-- Node8 -->
<g id="node8" class="node">
<title>Node8</title>
<g id="a_node8"><a xlink:href="c__node_8h.html" target="_top" xlink:title=" ">
<polygon fill="white" stroke="black" points="480.5,-224.5 480.5,-243.5 595.5,-243.5 595.5,-224.5 480.5,-224.5"/>
<text text-anchor="middle" x="538" y="-231.5" font-family="Helvetica,sans-Serif" font-size="10.00">SComponent/c_node.h</text>
</a>
</g>
</g>
<!-- Node6&#45;&gt;Node8 -->
<g id="edge19" class="edge">
<title>Node6&#45;&gt;Node8</title>
<path fill="none" stroke="midnightblue" d="M465.27,-392.37C449.84,-371.47 415.07,-317.16 439,-280 449.31,-263.99 466.85,-253.62 484.33,-246.92"/>
<polygon fill="midnightblue" stroke="midnightblue" points="485.7,-250.15 493.99,-243.56 483.4,-243.54 485.7,-250.15"/>
</g>
<!-- Node6&#45;&gt;Node9 -->
<g id="edge23" class="edge">
<title>Node6&#45;&gt;Node9</title>
<path fill="none" stroke="midnightblue" d="M460.99,-392.33C451.46,-384.1 438.25,-370.83 432,-356 418.86,-324.83 417.12,-312.03 428,-280 438.09,-250.29 446.06,-243.04 471,-224 493.43,-206.87 523.29,-195.2 546.24,-188.05"/>
<polygon fill="midnightblue" stroke="midnightblue" points="547.34,-191.37 555.92,-185.16 545.34,-184.66 547.34,-191.37"/>
</g>
<!-- Node15 -->
<g id="node15" class="node">
<title>Node15</title>
<g id="a_node15"><a xlink:href="c__tree_8h.html" target="_top" xlink:title=" ">
<polygon fill="white" stroke="black" points="486,-336.5 486,-355.5 596,-355.5 596,-336.5 486,-336.5"/>
<text text-anchor="middle" x="541" y="-343.5" font-family="Helvetica,sans-Serif" font-size="10.00">SComponent/c_tree.h</text>
</a>
</g>
</g>
<!-- Node6&#45;&gt;Node15 -->
<g id="edge20" class="edge">
<title>Node6&#45;&gt;Node15</title>
<path fill="none" stroke="midnightblue" d="M483.09,-392.32C493.49,-384.18 509.26,-371.84 521.72,-362.09"/>
<polygon fill="midnightblue" stroke="midnightblue" points="523.99,-364.75 529.71,-355.83 519.68,-359.24 523.99,-364.75"/>
</g>
<!-- Node7&#45;&gt;Node8 -->
<g id="edge7" class="edge">
<title>Node7&#45;&gt;Node8</title>
<path fill="none" stroke="midnightblue" d="M507.94,-280.08C512.98,-272.53 520.34,-261.49 526.51,-252.23"/>
<polygon fill="midnightblue" stroke="midnightblue" points="529.53,-254.01 532.17,-243.75 523.71,-250.13 529.53,-254.01"/>
</g>
<!-- Node8&#45;&gt;Node9 -->
<g id="edge8" class="edge">
<title>Node8&#45;&gt;Node9</title>
<path fill="none" stroke="midnightblue" d="M545.1,-224.08C551.24,-216.38 560.27,-205.03 567.74,-195.65"/>
<polygon fill="midnightblue" stroke="midnightblue" points="570.54,-197.75 574.03,-187.75 565.06,-193.39 570.54,-197.75"/>
</g>
<!-- Node9&#45;&gt;Node4 -->
<g id="edge9" class="edge">
<title>Node9&#45;&gt;Node4</title>
<path fill="none" stroke="midnightblue" d="M579.69,-168.11C577.49,-155.12 572.27,-130.5 562,-112 541.63,-75.3 503.79,-43.37 480.08,-25.69"/>
<polygon fill="midnightblue" stroke="midnightblue" points="481.9,-22.68 471.75,-19.63 477.78,-28.34 481.9,-22.68"/>
</g>
<!-- Node10 -->
<g id="node10" class="node">
<title>Node10</title>
<g id="a_node10"><a xlink:href="AR_8h.html" target="_top" xlink:title=" ">
<polygon fill="white" stroke="black" points="609.5,-56.5 609.5,-75.5 658.5,-75.5 658.5,-56.5 609.5,-56.5"/>
<text text-anchor="middle" x="634" y="-63.5" font-family="Helvetica,sans-Serif" font-size="10.00">ar/AR.h</text>
</a>
</g>
</g>
<!-- Node9&#45;&gt;Node10 -->
<g id="edge10" class="edge">
<title>Node9&#45;&gt;Node10</title>
<path fill="none" stroke="midnightblue" d="M585.16,-168.37C593.83,-150.38 613.98,-108.55 625.51,-84.63"/>
<polygon fill="midnightblue" stroke="midnightblue" points="628.67,-86.12 629.86,-75.59 622.37,-83.08 628.67,-86.12"/>
</g>
<!-- Node11 -->
<g id="node11" class="node">
<title>Node11</title>
<g id="a_node11"><a xlink:href="ARQ_8h.html" target="_top" xlink:title=" ">
<polygon fill="white" stroke="black" points="355,-56.5 355,-75.5 411,-75.5 411,-56.5 355,-56.5"/>
<text text-anchor="middle" x="383" y="-63.5" font-family="Helvetica,sans-Serif" font-size="10.00">ar/ARQ.h</text>
</a>
</g>
</g>
<!-- Node9&#45;&gt;Node11 -->
<g id="edge12" class="edge">
<title>Node9&#45;&gt;Node11</title>
<path fill="none" stroke="midnightblue" d="M556,-175.31C522.82,-171.93 463.81,-161.86 424,-132 408.03,-120.02 396.72,-99.83 390.08,-85.12"/>
<polygon fill="midnightblue" stroke="midnightblue" points="393.17,-83.45 386.07,-75.58 386.71,-86.16 393.17,-83.45"/>
</g>
<!-- Node12 -->
<g id="node12" class="node">
<title>Node12</title>
<g id="a_node12"><a xlink:href="mwcc_8h.html" target="_top" xlink:title=" ">
<polygon fill="white" stroke="black" points="503,-112.5 503,-131.5 553,-131.5 553,-112.5 503,-112.5"/>
<text text-anchor="middle" x="528" y="-119.5" font-family="Helvetica,sans-Serif" font-size="10.00">mwcc.h</text>
</a>
</g>
</g>
<!-- Node9&#45;&gt;Node12 -->
<g id="edge14" class="edge">
<title>Node9&#45;&gt;Node12</title>
<path fill="none" stroke="midnightblue" d="M572.25,-168.08C564.53,-160.22 553.1,-148.57 543.78,-139.08"/>
<polygon fill="midnightblue" stroke="midnightblue" points="546.09,-136.44 536.59,-131.75 541.1,-141.34 546.09,-136.44"/>
</g>
<!-- Node13 -->
<g id="node13" class="node">
<title>Node13</title>
<g id="a_node13"><a xlink:href="OS_8h.html" target="_top" xlink:title=" ">
<polygon fill="white" stroke="black" points="433,-112.5 433,-131.5 485,-131.5 485,-112.5 433,-112.5"/>
<text text-anchor="middle" x="459" y="-119.5" font-family="Helvetica,sans-Serif" font-size="10.00">os/OS.h</text>
</a>
</g>
</g>
<!-- Node9&#45;&gt;Node13 -->
<g id="edge15" class="edge">
<title>Node9&#45;&gt;Node13</title>
<path fill="none" stroke="midnightblue" d="M561.67,-168.44C541.68,-159.6 510.26,-145.69 487.44,-135.59"/>
<polygon fill="midnightblue" stroke="midnightblue" points="488.8,-132.36 478.24,-131.52 485.97,-138.76 488.8,-132.36"/>
</g>
<!-- Node10&#45;&gt;Node4 -->
<g id="edge11" class="edge">
<title>Node10&#45;&gt;Node4</title>
<path fill="none" stroke="midnightblue" d="M609.3,-57.38C579.89,-48.3 530.46,-33.05 496.37,-22.53"/>
<polygon fill="midnightblue" stroke="midnightblue" points="497.34,-19.17 486.75,-19.56 495.28,-25.86 497.34,-19.17"/>
</g>
<!-- Node11&#45;&gt;Node4 -->
<g id="edge13" class="edge">
<title>Node11&#45;&gt;Node4</title>
<path fill="none" stroke="midnightblue" d="M395.21,-56.32C406.78,-48.11 424.38,-35.6 438.16,-25.81"/>
<polygon fill="midnightblue" stroke="midnightblue" points="440.44,-28.48 446.57,-19.83 436.39,-22.77 440.44,-28.48"/>
</g>
<!-- Node13&#45;&gt;Node4 -->
<g id="edge16" class="edge">
<title>Node13&#45;&gt;Node4</title>
<path fill="none" stroke="midnightblue" d="M470.13,-112.25C483.98,-100.23 504.9,-77.61 497,-56 492.94,-44.91 484.81,-34.67 477.11,-26.76"/>
<polygon fill="midnightblue" stroke="midnightblue" points="479.36,-24.07 469.71,-19.7 474.53,-29.14 479.36,-24.07"/>
</g>
<!-- Node14 -->
<g id="node14" class="node">
<title>Node14</title>
<g id="a_node14"><a xlink:href="dvd_8h.html" target="_top" xlink:title=" ">
<polygon fill="white" stroke="black" points="429.5,-56.5 429.5,-75.5 488.5,-75.5 488.5,-56.5 429.5,-56.5"/>
<text text-anchor="middle" x="459" y="-63.5" font-family="Helvetica,sans-Serif" font-size="10.00">dvd/dvd.h</text>
</a>
</g>
</g>
<!-- Node13&#45;&gt;Node14 -->
<g id="edge17" class="edge">
<title>Node13&#45;&gt;Node14</title>
<path fill="none" stroke="midnightblue" d="M459,-112.08C459,-105.01 459,-94.86 459,-85.99"/>
<polygon fill="midnightblue" stroke="midnightblue" points="462.5,-85.75 459,-75.75 455.5,-85.75 462.5,-85.75"/>
</g>
<!-- Node14&#45;&gt;Node4 -->
<g id="edge18" class="edge">
<title>Node14&#45;&gt;Node4</title>
<path fill="none" stroke="midnightblue" d="M459,-56.08C459,-49.01 459,-38.86 459,-29.99"/>
<polygon fill="midnightblue" stroke="midnightblue" points="462.5,-29.75 459,-19.75 455.5,-29.75 462.5,-29.75"/>
</g>
<!-- Node15&#45;&gt;Node7 -->
<g id="edge21" class="edge">
<title>Node15&#45;&gt;Node7</title>
<path fill="none" stroke="midnightblue" d="M534.56,-336.08C529.05,-328.46 520.97,-317.26 514.24,-307.94"/>
<polygon fill="midnightblue" stroke="midnightblue" points="517.01,-305.81 508.32,-299.75 511.34,-309.91 517.01,-305.81"/>
</g>
<!-- Node15&#45;&gt;Node8 -->
<g id="edge22" class="edge">
<title>Node15&#45;&gt;Node8</title>
<path fill="none" stroke="midnightblue" d="M547.64,-336.31C556.24,-323.97 569.52,-300.58 564,-280 561.35,-270.1 555.93,-260.13 550.73,-252.1"/>
<polygon fill="midnightblue" stroke="midnightblue" points="553.46,-249.91 544.89,-243.68 547.71,-253.89 553.46,-249.91"/>
</g>
<!-- Node16&#45;&gt;Node6 -->
<g id="edge26" class="edge">
<title>Node16&#45;&gt;Node6</title>
<path fill="none" stroke="midnightblue" d="M576.51,-515.25C565,-498.41 544.57,-469.9 524,-448 513.91,-437.26 501.46,-426.41 491.28,-418.06"/>
<polygon fill="midnightblue" stroke="midnightblue" points="493.34,-415.23 483.35,-411.69 488.95,-420.68 493.34,-415.23"/>
</g>
<!-- Node16&#45;&gt;Node9 -->
<g id="edge32" class="edge">
<title>Node16&#45;&gt;Node9</title>
<path fill="none" stroke="midnightblue" d="M593.15,-515.5C604.16,-492.59 624,-445.42 624,-403 624,-403 624,-403 624,-289 624,-254.31 605.22,-217.42 592.48,-196.4"/>
<polygon fill="midnightblue" stroke="midnightblue" points="595.27,-194.27 586.98,-187.67 589.35,-198 595.27,-194.27"/>
</g>
<!-- Node16&#45;&gt;Node17 -->
<g id="edge27" class="edge">
<title>Node16&#45;&gt;Node17</title>
<path fill="none" stroke="midnightblue" d="M610.74,-515.4C630.21,-504.29 657.17,-488.92 676.35,-477.98"/>
<polygon fill="midnightblue" stroke="midnightblue" points="678.13,-481 685.08,-473.01 674.66,-474.92 678.13,-481"/>
</g>
<!-- Node17&#45;&gt;Node6 -->
<g id="edge29" class="edge">
<title>Node17&#45;&gt;Node6</title>
<path fill="none" stroke="midnightblue" d="M667.33,-453.98C627.12,-443.48 558.74,-425.64 514.48,-414.09"/>
<polygon fill="midnightblue" stroke="midnightblue" points="515.17,-410.65 504.61,-411.51 513.4,-417.42 515.17,-410.65"/>
</g>
<!-- Node17&#45;&gt;Node8 -->
<g id="edge28" class="edge">
<title>Node17&#45;&gt;Node8</title>
<path fill="none" stroke="midnightblue" d="M694.9,-453.81C679.01,-427.01 628.55,-343.56 579,-280 571.12,-269.89 561.51,-259.27 553.57,-250.88"/>
<polygon fill="midnightblue" stroke="midnightblue" points="556.04,-248.4 546.59,-243.61 550.99,-253.25 556.04,-248.4"/>
</g>
<!-- Node17&#45;&gt;Node9 -->
<g id="edge31" class="edge">
<title>Node17&#45;&gt;Node9</title>
<path fill="none" stroke="midnightblue" d="M699.7,-453.91C698.18,-421.22 689.22,-302.45 638,-224 629.84,-211.5 617.04,-200.94 605.64,-193.2"/>
<polygon fill="midnightblue" stroke="midnightblue" points="607.22,-190.05 596.91,-187.61 603.44,-195.95 607.22,-190.05"/>
</g>
<!-- Node17&#45;&gt;Node15 -->
<g id="edge30" class="edge">
<title>Node17&#45;&gt;Node15</title>
<path fill="none" stroke="midnightblue" d="M688.05,-453.82C661,-434.17 594.84,-386.11 561.26,-361.72"/>
<polygon fill="midnightblue" stroke="midnightblue" points="563.24,-358.83 553.09,-355.78 559.12,-364.49 563.24,-358.83"/>
</g>
<!-- Node18&#45;&gt;Node6 -->
<g id="edge34" class="edge">
<title>Node18&#45;&gt;Node6</title>
<path fill="none" stroke="midnightblue" d="M692.71,-520.81C652.02,-499.09 545.73,-442.35 497.03,-416.36"/>
<polygon fill="midnightblue" stroke="midnightblue" points="498.56,-413.21 488.09,-411.59 495.26,-419.38 498.56,-413.21"/>
</g>
<!-- Node18&#45;&gt;Node9 -->
<g id="edge36" class="edge">
<title>Node18&#45;&gt;Node9</title>
<path fill="none" stroke="midnightblue" d="M721.6,-520.77C733.29,-511.82 749.91,-496.75 757,-479 762.11,-466.21 759.84,-461.48 757,-448 734.54,-341.31 730.15,-304.85 657,-224 644.56,-210.25 626.92,-199.45 611.76,-191.88"/>
<polygon fill="midnightblue" stroke="midnightblue" points="613.25,-188.72 602.72,-187.59 610.25,-195.04 613.25,-188.72"/>
</g>
<!-- Node18&#45;&gt;Node17 -->
<g id="edge35" class="edge">
<title>Node18&#45;&gt;Node17</title>
<path fill="none" stroke="midnightblue" d="M707.79,-520.73C706.46,-511.18 704.31,-495.62 702.6,-483.28"/>
<polygon fill="midnightblue" stroke="midnightblue" points="706.03,-482.55 701.19,-473.13 699.1,-483.51 706.03,-482.55"/>
</g>
<!-- Node19&#45;&gt;Node6 -->
<g id="edge38" class="edge">
<title>Node19&#45;&gt;Node6</title>
<path fill="none" stroke="midnightblue" d="M298.08,-453.98C333.58,-443.57 393.75,-425.94 433.17,-414.38"/>
<polygon fill="midnightblue" stroke="midnightblue" points="434.36,-417.68 442.97,-411.51 432.39,-410.96 434.36,-417.68"/>
</g>
<!-- Node19&#45;&gt;Node9 -->
<g id="edge39" class="edge">
<title>Node19&#45;&gt;Node9</title>
<path fill="none" stroke="midnightblue" d="M271.41,-453.89C276.52,-434.8 288,-387.44 288,-347 288,-347 288,-347 288,-289 288,-246.87 319.57,-243.34 357,-224 418.3,-192.33 499.72,-182.92 545.61,-180.14"/>
<polygon fill="midnightblue" stroke="midnightblue" points="545.86,-183.64 555.66,-179.61 545.49,-176.65 545.86,-183.64"/>
</g>
<!-- Node20&#45;&gt;Node6 -->
<g id="edge41" class="edge">
<title>Node20&#45;&gt;Node6</title>
<path fill="none" stroke="midnightblue" d="M434.32,-520.72C439.09,-510.78 446.79,-494 452,-479 458.7,-459.71 464.4,-437 467.98,-421.46"/>
<polygon fill="midnightblue" stroke="midnightblue" points="471.43,-422.09 470.2,-411.56 464.6,-420.55 471.43,-422.09"/>
</g>
<!-- Node21 -->
<g id="node21" class="node">
<title>Node21</title>
<g id="a_node21"><a xlink:href="f__pc__method__tag_8h.html" target="_top" xlink:title=" ">
<polygon fill="white" stroke="black" points="342.5,-448.5 342.5,-478.5 443.5,-478.5 443.5,-448.5 342.5,-448.5"/>
<text text-anchor="start" x="350.5" y="-466.5" font-family="Helvetica,sans-Serif" font-size="10.00">f/f_pc/f_pc_method</text>
<text text-anchor="middle" x="393" y="-455.5" font-family="Helvetica,sans-Serif" font-size="10.00">_tag.h</text>
</a>
</g>
</g>
<!-- Node20&#45;&gt;Node21 -->
<g id="edge42" class="edge">
<title>Node20&#45;&gt;Node21</title>
<path fill="none" stroke="midnightblue" d="M425.01,-520.73C420.15,-512.2 412.57,-498.87 406,-487.33"/>
<polygon fill="midnightblue" stroke="midnightblue" points="409.01,-485.55 401.02,-478.59 402.93,-489.01 409.01,-485.55"/>
</g>
<!-- Node21&#45;&gt;Node6 -->
<g id="edge43" class="edge">
<title>Node21&#45;&gt;Node6</title>
<path fill="none" stroke="midnightblue" d="M411.72,-448.4C423.91,-439.22 439.79,-427.26 452.19,-417.92"/>
<polygon fill="midnightblue" stroke="midnightblue" points="454.62,-420.47 460.5,-411.66 450.41,-414.88 454.62,-420.47"/>
</g>
<!-- Node21&#45;&gt;Node9 -->
<g id="edge44" class="edge">
<title>Node21&#45;&gt;Node9</title>
<path fill="none" stroke="midnightblue" d="M382.61,-448.37C368.22,-427.38 344,-386.21 344,-347 344,-347 344,-347 344,-289 344,-201.34 479.04,-183.34 545.25,-179.79"/>
<polygon fill="midnightblue" stroke="midnightblue" points="545.81,-183.27 555.64,-179.32 545.49,-176.27 545.81,-183.27"/>
</g>
<!-- Node22&#45;&gt;Node9 -->
<g id="edge48" class="edge">
<title>Node22&#45;&gt;Node9</title>
<path fill="none" stroke="midnightblue" d="M807.97,-280.14C793.38,-266.28 763.2,-239.46 733,-224 695.25,-204.67 647.88,-192.31 616.14,-185.53"/>
<polygon fill="midnightblue" stroke="midnightblue" points="616.52,-182.03 606.02,-183.44 615.1,-188.89 616.52,-182.03"/>
</g>
<!-- Node23 -->
<g id="node23" class="node">
<title>Node23</title>
<g id="a_node23"><a xlink:href="f__pc__method_8h.html" target="_top" xlink:title=" ">
<polygon fill="white" stroke="black" points="785,-224.5 785,-243.5 893,-243.5 893,-224.5 785,-224.5"/>
<text text-anchor="middle" x="839" y="-231.5" font-family="Helvetica,sans-Serif" font-size="10.00">f/f_pc/f_pc_method.h</text>
</a>
</g>
</g>
<!-- Node22&#45;&gt;Node23 -->
<g id="edge46" class="edge">
<title>Node22&#45;&gt;Node23</title>
<path fill="none" stroke="midnightblue" d="M820.63,-280.08C823.61,-272.77 827.93,-262.18 831.62,-253.1"/>
<polygon fill="midnightblue" stroke="midnightblue" points="834.9,-254.33 835.43,-243.75 828.42,-251.69 834.9,-254.33"/>
</g>
<!-- Node23&#45;&gt;Node9 -->
<g id="edge47" class="edge">
<title>Node23&#45;&gt;Node9</title>
<path fill="none" stroke="midnightblue" d="M798.12,-224.44C747.82,-213.92 663.27,-196.22 615.89,-186.3"/>
<polygon fill="midnightblue" stroke="midnightblue" points="616.59,-182.87 606.09,-184.25 615.16,-189.73 616.59,-182.87"/>
</g>
</g>
</svg>
