<?xml version="1.0" encoding="UTF-8" standalone="no"?>
<!DOCTYPE svg PUBLIC "-//W3C//DTD SVG 1.1//EN"
 "http://www.w3.org/Graphics/SVG/1.1/DTD/svg11.dtd">
<!-- Generated by graphviz version 2.44.0 ()
 -->
<!-- Title: include/f/f_op/f_op_scene_iter.h Pages: 1 -->
<svg width="801pt" height="677pt"
 viewBox="0.00 0.00 800.86 677.00" xmlns="http://www.w3.org/2000/svg" xmlns:xlink="http://www.w3.org/1999/xlink">
<g id="graph0" class="graph" transform="scale(1 1) rotate(0) translate(4 673)">
<title>include/f/f_op/f_op_scene_iter.h</title>
<polygon fill="white" stroke="transparent" points="-4,4 -4,-673 796.86,-673 796.86,4 -4,4"/>
<!-- Node1 -->
<g id="node1" class="node">
<title>Node1</title>
<g id="a_node1"><a xlink:title=" ">
<polygon fill="#bfbfbf" stroke="black" points="113.5,-638.5 113.5,-668.5 210.5,-668.5 210.5,-638.5 113.5,-638.5"/>
<text text-anchor="start" x="121.5" y="-656.5" font-family="Helvetica,sans-Serif" font-size="10.00">include/f/f_op/f_op</text>
<text text-anchor="middle" x="162" y="-645.5" font-family="Helvetica,sans-Serif" font-size="10.00">_scene_iter.h</text>
</a>
</g>
</g>
<!-- Node2 -->
<g id="node2" class="node">
<title>Node2</title>
<g id="a_node2"><a xlink:href="types_8h.html" target="_top" xlink:title=" ">
<polygon fill="white" stroke="black" points="408.5,-0.5 408.5,-19.5 489.5,-19.5 489.5,-0.5 408.5,-0.5"/>
<text text-anchor="middle" x="449" y="-7.5" font-family="Helvetica,sans-Serif" font-size="10.00">dolphin/types.h</text>
</a>
</g>
</g>
<!-- Node1&#45;&gt;Node2 -->
<g id="edge1" class="edge">
<title>Node1&#45;&gt;Node2</title>
<path fill="none" stroke="midnightblue" d="M113.39,-638.85C65.68,-622.13 0,-588.72 0,-531.5 0,-531.5 0,-531.5 0,-121 0,-39.78 280.64,-18.23 398.18,-12.77"/>
<polygon fill="midnightblue" stroke="midnightblue" points="398.53,-16.25 408.36,-12.31 398.22,-9.26 398.53,-16.25"/>
</g>
<!-- Node3 -->
<g id="node3" class="node">
<title>Node3</title>
<g id="a_node3"><a xlink:href="f__pc__base_8h.html" target="_top" xlink:title=" ">
<polygon fill="white" stroke="black" points="313.5,-582.5 313.5,-601.5 410.5,-601.5 410.5,-582.5 313.5,-582.5"/>
<text text-anchor="middle" x="362" y="-589.5" font-family="Helvetica,sans-Serif" font-size="10.00">f/f_pc/f_pc_base.h</text>
</a>
</g>
</g>
<!-- Node1&#45;&gt;Node3 -->
<g id="edge2" class="edge">
<title>Node1&#45;&gt;Node3</title>
<path fill="none" stroke="midnightblue" d="M209.14,-638.47C244.1,-628.08 291.15,-614.08 323.77,-604.37"/>
<polygon fill="midnightblue" stroke="midnightblue" points="324.82,-607.71 333.41,-601.51 322.82,-601 324.82,-607.71"/>
</g>
<!-- Node4 -->
<g id="node4" class="node">
<title>Node4</title>
<g id="a_node4"><a xlink:href="c__tag_8h.html" target="_top" xlink:title=" ">
<polygon fill="white" stroke="black" points="256.5,-392.5 256.5,-411.5 363.5,-411.5 363.5,-392.5 256.5,-392.5"/>
<text text-anchor="middle" x="310" y="-399.5" font-family="Helvetica,sans-Serif" font-size="10.00">SComponent/c_tag.h</text>
</a>
</g>
</g>
<!-- Node3&#45;&gt;Node4 -->
<g id="edge3" class="edge">
<title>Node3&#45;&gt;Node4</title>
<path fill="none" stroke="midnightblue" d="M357.75,-582.21C353.56,-573.26 347.18,-558.91 343,-546 328.85,-502.31 318.27,-449.25 313.24,-421.68"/>
<polygon fill="midnightblue" stroke="midnightblue" points="316.63,-420.75 311.43,-411.52 309.74,-421.98 316.63,-420.75"/>
</g>
<!-- Node7 -->
<g id="node7" class="node">
<title>Node7</title>
<g id="a_node7"><a xlink:href="global_8h.html" target="_top" xlink:title=" ">
<polygon fill="white" stroke="black" points="489,-168.5 489,-187.5 539,-187.5 539,-168.5 489,-168.5"/>
<text text-anchor="middle" x="514" y="-175.5" font-family="Helvetica,sans-Serif" font-size="10.00">global.h</text>
</a>
</g>
</g>
<!-- Node3&#45;&gt;Node7 -->
<g id="edge22" class="edge">
<title>Node3&#45;&gt;Node7</title>
<path fill="none" stroke="midnightblue" d="M410.91,-587.02C523.61,-576.5 792,-543.19 792,-464.5 792,-464.5 792,-464.5 792,-289 792,-258.9 795.44,-244.05 773,-224 740.51,-194.97 612.38,-184.21 549.37,-180.62"/>
<polygon fill="midnightblue" stroke="midnightblue" points="549.3,-177.11 539.12,-180.06 548.92,-184.1 549.3,-177.11"/>
</g>
<!-- Node14 -->
<g id="node14" class="node">
<title>Node14</title>
<g id="a_node14"><a xlink:href="f__pc__delete__tag_8h.html" target="_top" xlink:title=" ">
<polygon fill="white" stroke="black" points="352.5,-515.5 352.5,-545.5 447.5,-545.5 447.5,-515.5 352.5,-515.5"/>
<text text-anchor="start" x="360.5" y="-533.5" font-family="Helvetica,sans-Serif" font-size="10.00">f/f_pc/f_pc_delete</text>
<text text-anchor="middle" x="400" y="-522.5" font-family="Helvetica,sans-Serif" font-size="10.00">_tag.h</text>
</a>
</g>
</g>
<!-- Node3&#45;&gt;Node14 -->
<g id="edge23" class="edge">
<title>Node3&#45;&gt;Node14</title>
<path fill="none" stroke="midnightblue" d="M367.44,-582.48C372.16,-575.09 379.19,-564.08 385.52,-554.17"/>
<polygon fill="midnightblue" stroke="midnightblue" points="388.61,-555.83 391.04,-545.52 382.71,-552.07 388.61,-555.83"/>
</g>
<!-- Node16 -->
<g id="node16" class="node">
<title>Node16</title>
<g id="a_node16"><a xlink:href="f__pc__layer__tag_8h.html" target="_top" xlink:title=" ">
<polygon fill="white" stroke="black" points="465.5,-521 465.5,-540 580.5,-540 580.5,-521 465.5,-521"/>
<text text-anchor="middle" x="523" y="-528" font-family="Helvetica,sans-Serif" font-size="10.00">f/f_pc/f_pc_layer_tag.h</text>
</a>
</g>
</g>
<!-- Node3&#45;&gt;Node16 -->
<g id="edge31" class="edge">
<title>Node3&#45;&gt;Node16</title>
<path fill="none" stroke="midnightblue" d="M385.07,-582.48C412.68,-572.27 459.12,-555.11 490.4,-543.55"/>
<polygon fill="midnightblue" stroke="midnightblue" points="491.81,-546.76 499.98,-540.01 489.38,-540.19 491.81,-546.76"/>
</g>
<!-- Node17 -->
<g id="node17" class="node">
<title>Node17</title>
<g id="a_node17"><a xlink:href="f__pc__line__tag_8h.html" target="_top" xlink:title=" ">
<polygon fill="white" stroke="black" points="28,-454 28,-473 138,-473 138,-454 28,-454"/>
<text text-anchor="middle" x="83" y="-461" font-family="Helvetica,sans-Serif" font-size="10.00">f/f_pc/f_pc_line_tag.h</text>
</a>
</g>
</g>
<!-- Node3&#45;&gt;Node17 -->
<g id="edge35" class="edge">
<title>Node3&#45;&gt;Node17</title>
<path fill="none" stroke="midnightblue" d="M313.26,-584.64C276.08,-578.43 224.39,-566.77 183,-546 149.17,-529.03 116.43,-498.95 98.08,-480.46"/>
<polygon fill="midnightblue" stroke="midnightblue" points="100.4,-477.83 90.92,-473.1 95.38,-482.71 100.4,-477.83"/>
</g>
<!-- Node18 -->
<g id="node18" class="node">
<title>Node18</title>
<g id="a_node18"><a xlink:href="f__pc__priority_8h.html" target="_top" xlink:title=" ">
<polygon fill="white" stroke="black" points="192,-521 192,-540 296,-540 296,-521 192,-521"/>
<text text-anchor="middle" x="244" y="-528" font-family="Helvetica,sans-Serif" font-size="10.00">f/f_pc/f_pc_priority.h</text>
</a>
</g>
</g>
<!-- Node3&#45;&gt;Node18 -->
<g id="edge38" class="edge">
<title>Node3&#45;&gt;Node18</title>
<path fill="none" stroke="midnightblue" d="M345.09,-582.48C325.47,-572.58 292.87,-556.14 270.01,-544.62"/>
<polygon fill="midnightblue" stroke="midnightblue" points="271.38,-541.39 260.88,-540.01 268.23,-547.64 271.38,-541.39"/>
</g>
<!-- Node20 -->
<g id="node20" class="node">
<title>Node20</title>
<g id="a_node20"><a xlink:href="f__pc__profile_8h.html" target="_top" xlink:title=" ">
<polygon fill="white" stroke="black" points="618.5,-280.5 618.5,-299.5 719.5,-299.5 719.5,-280.5 618.5,-280.5"/>
<text text-anchor="middle" x="669" y="-287.5" font-family="Helvetica,sans-Serif" font-size="10.00">f/f_pc/f_pc_profile.h</text>
</a>
</g>
</g>
<!-- Node3&#45;&gt;Node20 -->
<g id="edge43" class="edge">
<title>Node3&#45;&gt;Node20</title>
<path fill="none" stroke="midnightblue" d="M410.69,-590.69C492.57,-587.32 649,-567.41 649,-464.5 649,-464.5 649,-464.5 649,-401 649,-368.44 657.59,-331.32 663.51,-309.59"/>
<polygon fill="midnightblue" stroke="midnightblue" points="666.94,-310.32 666.3,-299.74 660.21,-308.41 666.94,-310.32"/>
</g>
<!-- Node5 -->
<g id="node5" class="node">
<title>Node5</title>
<g id="a_node5"><a xlink:href="c__list_8h.html" target="_top" xlink:title=" ">
<polygon fill="white" stroke="black" points="300.5,-280.5 300.5,-299.5 407.5,-299.5 407.5,-280.5 300.5,-280.5"/>
<text text-anchor="middle" x="354" y="-287.5" font-family="Helvetica,sans-Serif" font-size="10.00">SComponent/c_list.h</text>
</a>
</g>
</g>
<!-- Node4&#45;&gt;Node5 -->
<g id="edge4" class="edge">
<title>Node4&#45;&gt;Node5</title>
<path fill="none" stroke="midnightblue" d="M311.87,-392.38C314.76,-379.73 320.84,-355.53 329,-336 332.96,-326.52 338.41,-316.47 343.21,-308.29"/>
<polygon fill="midnightblue" stroke="midnightblue" points="346.24,-310.04 348.42,-299.67 340.25,-306.42 346.24,-310.04"/>
</g>
<!-- Node6 -->
<g id="node6" class="node">
<title>Node6</title>
<g id="a_node6"><a xlink:href="c__node_8h.html" target="_top" xlink:title=" ">
<polygon fill="white" stroke="black" points="370.5,-224.5 370.5,-243.5 485.5,-243.5 485.5,-224.5 370.5,-224.5"/>
<text text-anchor="middle" x="428" y="-231.5" font-family="Helvetica,sans-Serif" font-size="10.00">SComponent/c_node.h</text>
</a>
</g>
</g>
<!-- Node4&#45;&gt;Node6 -->
<g id="edge17" class="edge">
<title>Node4&#45;&gt;Node6</title>
<path fill="none" stroke="midnightblue" d="M304.82,-392.4C292.73,-371.11 265.56,-315.14 291,-280 307.08,-257.79 334.47,-246.35 360.56,-240.53"/>
<polygon fill="midnightblue" stroke="midnightblue" points="361.34,-243.94 370.46,-238.56 359.97,-237.08 361.34,-243.94"/>
</g>
<!-- Node4&#45;&gt;Node7 -->
<g id="edge21" class="edge">
<title>Node4&#45;&gt;Node7</title>
<path fill="none" stroke="midnightblue" d="M301.52,-392.23C293.95,-383.75 283.4,-370.13 279,-356 268.97,-323.75 263.23,-309.87 279,-280 317.37,-207.32 423.08,-186.94 478.72,-181.23"/>
<polygon fill="midnightblue" stroke="midnightblue" points="479.18,-184.7 488.82,-180.29 478.54,-177.73 479.18,-184.7"/>
</g>
<!-- Node13 -->
<g id="node13" class="node">
<title>Node13</title>
<g id="a_node13"><a xlink:href="c__tree_8h.html" target="_top" xlink:title=" ">
<polygon fill="white" stroke="black" points="338,-336.5 338,-355.5 448,-355.5 448,-336.5 338,-336.5"/>
<text text-anchor="middle" x="393" y="-343.5" font-family="Helvetica,sans-Serif" font-size="10.00">SComponent/c_tree.h</text>
</a>
</g>
</g>
<!-- Node4&#45;&gt;Node13 -->
<g id="edge18" class="edge">
<title>Node4&#45;&gt;Node13</title>
<path fill="none" stroke="midnightblue" d="M323.34,-392.32C336.16,-383.98 355.78,-371.21 370.94,-361.35"/>
<polygon fill="midnightblue" stroke="midnightblue" points="373.22,-364.04 379.7,-355.65 369.41,-358.17 373.22,-364.04"/>
</g>
<!-- Node5&#45;&gt;Node6 -->
<g id="edge5" class="edge">
<title>Node5&#45;&gt;Node6</title>
<path fill="none" stroke="midnightblue" d="M365.89,-280.32C377.15,-272.11 394.29,-259.6 407.71,-249.81"/>
<polygon fill="midnightblue" stroke="midnightblue" points="409.88,-252.56 415.89,-243.83 405.75,-246.9 409.88,-252.56"/>
</g>
<!-- Node6&#45;&gt;Node7 -->
<g id="edge6" class="edge">
<title>Node6&#45;&gt;Node7</title>
<path fill="none" stroke="midnightblue" d="M441.82,-224.32C455.23,-215.9 475.82,-202.97 491.59,-193.07"/>
<polygon fill="midnightblue" stroke="midnightblue" points="493.61,-195.94 500.22,-187.65 489.89,-190.01 493.61,-195.94"/>
</g>
<!-- Node7&#45;&gt;Node2 -->
<g id="edge7" class="edge">
<title>Node7&#45;&gt;Node2</title>
<path fill="none" stroke="midnightblue" d="M517.14,-168.3C524.16,-147.26 538.84,-92.64 517,-56 508.64,-41.97 494,-31.45 480.44,-24.12"/>
<polygon fill="midnightblue" stroke="midnightblue" points="481.83,-20.9 471.32,-19.55 478.7,-27.16 481.83,-20.9"/>
</g>
<!-- Node8 -->
<g id="node8" class="node">
<title>Node8</title>
<g id="a_node8"><a xlink:href="AR_8h.html" target="_top" xlink:title=" ">
<polygon fill="white" stroke="black" points="569.5,-56.5 569.5,-75.5 618.5,-75.5 618.5,-56.5 569.5,-56.5"/>
<text text-anchor="middle" x="594" y="-63.5" font-family="Helvetica,sans-Serif" font-size="10.00">ar/AR.h</text>
</a>
</g>
</g>
<!-- Node7&#45;&gt;Node8 -->
<g id="edge8" class="edge">
<title>Node7&#45;&gt;Node8</title>
<path fill="none" stroke="midnightblue" d="M522.71,-168.49C531.41,-159.75 544.91,-145.57 555,-132 566.27,-116.86 577.15,-98.28 584.55,-84.87"/>
<polygon fill="midnightblue" stroke="midnightblue" points="587.79,-86.22 589.47,-75.76 581.63,-82.89 587.79,-86.22"/>
</g>
<!-- Node9 -->
<g id="node9" class="node">
<title>Node9</title>
<g id="a_node9"><a xlink:href="ARQ_8h.html" target="_top" xlink:title=" ">
<polygon fill="white" stroke="black" points="336,-56.5 336,-75.5 392,-75.5 392,-56.5 336,-56.5"/>
<text text-anchor="middle" x="364" y="-63.5" font-family="Helvetica,sans-Serif" font-size="10.00">ar/ARQ.h</text>
</a>
</g>
</g>
<!-- Node7&#45;&gt;Node9 -->
<g id="edge10" class="edge">
<title>Node7&#45;&gt;Node9</title>
<path fill="none" stroke="midnightblue" d="M488.88,-175C459.71,-171.34 412.04,-161.03 384,-132 372.09,-119.67 367.26,-100.42 365.3,-86.06"/>
<polygon fill="midnightblue" stroke="midnightblue" points="368.76,-85.42 364.27,-75.82 361.79,-86.12 368.76,-85.42"/>
</g>
<!-- Node10 -->
<g id="node10" class="node">
<title>Node10</title>
<g id="a_node10"><a xlink:href="mwcc_8h.html" target="_top" xlink:title=" ">
<polygon fill="white" stroke="black" points="463,-112.5 463,-131.5 513,-131.5 513,-112.5 463,-112.5"/>
<text text-anchor="middle" x="488" y="-119.5" font-family="Helvetica,sans-Serif" font-size="10.00">mwcc.h</text>
</a>
</g>
</g>
<!-- Node7&#45;&gt;Node10 -->
<g id="edge12" class="edge">
<title>Node7&#45;&gt;Node10</title>
<path fill="none" stroke="midnightblue" d="M509.71,-168.08C506.15,-160.69 500.98,-149.95 496.58,-140.81"/>
<polygon fill="midnightblue" stroke="midnightblue" points="499.71,-139.24 492.21,-131.75 493.4,-142.28 499.71,-139.24"/>
</g>
<!-- Node11 -->
<g id="node11" class="node">
<title>Node11</title>
<g id="a_node11"><a xlink:href="OS_8h.html" target="_top" xlink:title=" ">
<polygon fill="white" stroke="black" points="393,-112.5 393,-131.5 445,-131.5 445,-112.5 393,-112.5"/>
<text text-anchor="middle" x="419" y="-119.5" font-family="Helvetica,sans-Serif" font-size="10.00">os/OS.h</text>
</a>
</g>
</g>
<!-- Node7&#45;&gt;Node11 -->
<g id="edge13" class="edge">
<title>Node7&#45;&gt;Node11</title>
<path fill="none" stroke="midnightblue" d="M498.74,-168.32C483.78,-159.82 460.75,-146.73 443.27,-136.8"/>
<polygon fill="midnightblue" stroke="midnightblue" points="444.65,-133.55 434.23,-131.65 441.19,-139.64 444.65,-133.55"/>
</g>
<!-- Node8&#45;&gt;Node2 -->
<g id="edge9" class="edge">
<title>Node8&#45;&gt;Node2</title>
<path fill="none" stroke="midnightblue" d="M571.02,-56.44C546.84,-47.44 508.58,-33.19 481.35,-23.05"/>
<polygon fill="midnightblue" stroke="midnightblue" points="482.46,-19.73 471.87,-19.52 480.02,-26.29 482.46,-19.73"/>
</g>
<!-- Node9&#45;&gt;Node2 -->
<g id="edge11" class="edge">
<title>Node9&#45;&gt;Node2</title>
<path fill="none" stroke="midnightblue" d="M377.66,-56.32C390.92,-47.9 411.27,-34.97 426.85,-25.07"/>
<polygon fill="midnightblue" stroke="midnightblue" points="428.81,-27.97 435.38,-19.65 425.06,-22.06 428.81,-27.97"/>
</g>
<!-- Node11&#45;&gt;Node2 -->
<g id="edge14" class="edge">
<title>Node11&#45;&gt;Node2</title>
<path fill="none" stroke="midnightblue" d="M421.35,-112.37C426.22,-94.54 437.46,-53.3 444.02,-29.27"/>
<polygon fill="midnightblue" stroke="midnightblue" points="447.4,-30.16 446.66,-19.59 440.65,-28.32 447.4,-30.16"/>
</g>
<!-- Node12 -->
<g id="node12" class="node">
<title>Node12</title>
<g id="a_node12"><a xlink:href="dvd_8h.html" target="_top" xlink:title=" ">
<polygon fill="white" stroke="black" points="448.5,-56.5 448.5,-75.5 507.5,-75.5 507.5,-56.5 448.5,-56.5"/>
<text text-anchor="middle" x="478" y="-63.5" font-family="Helvetica,sans-Serif" font-size="10.00">dvd/dvd.h</text>
</a>
</g>
</g>
<!-- Node11&#45;&gt;Node12 -->
<g id="edge15" class="edge">
<title>Node11&#45;&gt;Node12</title>
<path fill="none" stroke="midnightblue" d="M428.48,-112.32C437.2,-104.34 450.34,-92.31 460.9,-82.65"/>
<polygon fill="midnightblue" stroke="midnightblue" points="463.33,-85.17 468.35,-75.83 458.61,-80 463.33,-85.17"/>
</g>
<!-- Node12&#45;&gt;Node2 -->
<g id="edge16" class="edge">
<title>Node12&#45;&gt;Node2</title>
<path fill="none" stroke="midnightblue" d="M473.21,-56.08C469.24,-48.69 463.47,-37.95 458.57,-28.81"/>
<polygon fill="midnightblue" stroke="midnightblue" points="461.51,-26.91 453.7,-19.75 455.35,-30.22 461.51,-26.91"/>
</g>
<!-- Node13&#45;&gt;Node5 -->
<g id="edge19" class="edge">
<title>Node13&#45;&gt;Node5</title>
<path fill="none" stroke="midnightblue" d="M386.56,-336.08C381.05,-328.46 372.97,-317.26 366.24,-307.94"/>
<polygon fill="midnightblue" stroke="midnightblue" points="369.01,-305.81 360.32,-299.75 363.34,-309.91 369.01,-305.81"/>
</g>
<!-- Node13&#45;&gt;Node6 -->
<g id="edge20" class="edge">
<title>Node13&#45;&gt;Node6</title>
<path fill="none" stroke="midnightblue" d="M398.37,-336.37C403.63,-327.55 411.48,-313.29 416,-300 421.14,-284.87 424.24,-266.98 426,-253.79"/>
<polygon fill="midnightblue" stroke="midnightblue" points="429.5,-253.96 427.21,-243.61 422.55,-253.13 429.5,-253.96"/>
</g>
<!-- Node14&#45;&gt;Node4 -->
<g id="edge24" class="edge">
<title>Node14&#45;&gt;Node4</title>
<path fill="none" stroke="midnightblue" d="M390.02,-515.48C373.39,-492.1 340.06,-445.25 322.11,-420.02"/>
<polygon fill="midnightblue" stroke="midnightblue" points="324.9,-417.91 316.25,-411.79 319.2,-421.97 324.9,-417.91"/>
</g>
<!-- Node14&#45;&gt;Node7 -->
<g id="edge30" class="edge">
<title>Node14&#45;&gt;Node7</title>
<path fill="none" stroke="midnightblue" d="M447.66,-516.49C480.86,-506.51 521.23,-492.25 533,-479 556.13,-452.97 552,-437.82 552,-403 552,-403 552,-403 552,-289 552,-254.81 535.4,-217.76 524.14,-196.57"/>
<polygon fill="midnightblue" stroke="midnightblue" points="527.18,-194.83 519.28,-187.77 521.05,-198.22 527.18,-194.83"/>
</g>
<!-- Node15 -->
<g id="node15" class="node">
<title>Node15</title>
<g id="a_node15"><a xlink:href="f__pc__layer_8h.html" target="_top" xlink:title=" ">
<polygon fill="white" stroke="black" points="428,-454 428,-473 524,-473 524,-454 428,-454"/>
<text text-anchor="middle" x="476" y="-461" font-family="Helvetica,sans-Serif" font-size="10.00">f/f_pc/f_pc_layer.h</text>
</a>
</g>
</g>
<!-- Node14&#45;&gt;Node15 -->
<g id="edge25" class="edge">
<title>Node14&#45;&gt;Node15</title>
<path fill="none" stroke="midnightblue" d="M416.49,-515.4C428.69,-504.96 445.31,-490.75 457.88,-480"/>
<polygon fill="midnightblue" stroke="midnightblue" points="460.51,-482.35 465.83,-473.19 455.96,-477.03 460.51,-482.35"/>
</g>
<!-- Node15&#45;&gt;Node4 -->
<g id="edge27" class="edge">
<title>Node15&#45;&gt;Node4</title>
<path fill="none" stroke="midnightblue" d="M452.22,-453.98C423.62,-443.72 375.45,-426.46 343.2,-414.9"/>
<polygon fill="midnightblue" stroke="midnightblue" points="344.33,-411.59 333.74,-411.51 341.97,-418.18 344.33,-411.59"/>
</g>
<!-- Node15&#45;&gt;Node6 -->
<g id="edge26" class="edge">
<title>Node15&#45;&gt;Node6</title>
<path fill="none" stroke="midnightblue" d="M475.09,-453.84C472.86,-433.25 466.54,-379.83 457,-336 450.62,-306.67 440.46,-273.32 434.02,-253.24"/>
<polygon fill="midnightblue" stroke="midnightblue" points="437.29,-251.98 430.87,-243.55 430.63,-254.14 437.29,-251.98"/>
</g>
<!-- Node15&#45;&gt;Node7 -->
<g id="edge29" class="edge">
<title>Node15&#45;&gt;Node7</title>
<path fill="none" stroke="midnightblue" d="M480.97,-453.84C491.27,-435.03 514,-388.8 514,-347 514,-347 514,-347 514,-289 514,-256.95 514,-219.64 514,-197.75"/>
<polygon fill="midnightblue" stroke="midnightblue" points="517.5,-197.56 514,-187.56 510.5,-197.56 517.5,-197.56"/>
</g>
<!-- Node15&#45;&gt;Node13 -->
<g id="edge28" class="edge">
<title>Node15&#45;&gt;Node13</title>
<path fill="none" stroke="midnightblue" d="M469.76,-453.82C456.06,-434.76 423.14,-388.95 405.19,-363.96"/>
<polygon fill="midnightblue" stroke="midnightblue" points="407.99,-361.86 399.31,-355.78 402.3,-365.95 407.99,-361.86"/>
</g>
<!-- Node16&#45;&gt;Node4 -->
<g id="edge32" class="edge">
<title>Node16&#45;&gt;Node4</title>
<path fill="none" stroke="midnightblue" d="M502.97,-520.9C481.67,-511.5 447.22,-495.55 419,-479 386.27,-459.8 350.59,-433.89 329.27,-417.83"/>
<polygon fill="midnightblue" stroke="midnightblue" points="331.15,-414.86 321.07,-411.59 326.91,-420.43 331.15,-414.86"/>
</g>
<!-- Node16&#45;&gt;Node7 -->
<g id="edge34" class="edge">
<title>Node16&#45;&gt;Node7</title>
<path fill="none" stroke="midnightblue" d="M532.48,-520.68C542.15,-511.21 556.96,-495.32 566,-479 583.16,-448.01 590,-438.42 590,-403 590,-403 590,-403 590,-289 590,-258.2 583.53,-249.32 566,-224 557.82,-212.19 545.85,-201.54 535.45,-193.57"/>
<polygon fill="midnightblue" stroke="midnightblue" points="537.34,-190.62 527.2,-187.54 533.21,-196.27 537.34,-190.62"/>
</g>
<!-- Node16&#45;&gt;Node15 -->
<g id="edge33" class="edge">
<title>Node16&#45;&gt;Node15</title>
<path fill="none" stroke="midnightblue" d="M516.66,-520.73C509.4,-510.7 497.34,-494.01 488.24,-481.42"/>
<polygon fill="midnightblue" stroke="midnightblue" points="490.93,-479.18 482.24,-473.13 485.26,-483.28 490.93,-479.18"/>
</g>
<!-- Node17&#45;&gt;Node4 -->
<g id="edge36" class="edge">
<title>Node17&#45;&gt;Node4</title>
<path fill="none" stroke="midnightblue" d="M115.52,-453.98C155.56,-443.48 223.64,-425.64 267.7,-414.09"/>
<polygon fill="midnightblue" stroke="midnightblue" points="268.75,-417.43 277.54,-411.51 266.98,-410.66 268.75,-417.43"/>
</g>
<!-- Node17&#45;&gt;Node7 -->
<g id="edge37" class="edge">
<title>Node17&#45;&gt;Node7</title>
<path fill="none" stroke="midnightblue" d="M87.97,-453.84C98.27,-435.03 121,-388.8 121,-347 121,-347 121,-347 121,-289 121,-215.07 382.13,-188.58 478.68,-181.31"/>
<polygon fill="midnightblue" stroke="midnightblue" points="479.1,-184.79 488.82,-180.57 478.59,-177.81 479.1,-184.79"/>
</g>
<!-- Node18&#45;&gt;Node4 -->
<g id="edge39" class="edge">
<title>Node18&#45;&gt;Node4</title>
<path fill="none" stroke="midnightblue" d="M248.54,-520.81C259.27,-500.22 286.42,-448.19 300.78,-420.68"/>
<polygon fill="midnightblue" stroke="midnightblue" points="303.91,-422.24 305.43,-411.76 297.7,-419 303.91,-422.24"/>
</g>
<!-- Node19 -->
<g id="node19" class="node">
<title>Node19</title>
<g id="a_node19"><a xlink:href="f__pc__method__tag_8h.html" target="_top" xlink:title=" ">
<polygon fill="white" stroke="black" points="156.5,-448.5 156.5,-478.5 257.5,-478.5 257.5,-448.5 156.5,-448.5"/>
<text text-anchor="start" x="164.5" y="-466.5" font-family="Helvetica,sans-Serif" font-size="10.00">f/f_pc/f_pc_method</text>
<text text-anchor="middle" x="207" y="-455.5" font-family="Helvetica,sans-Serif" font-size="10.00">_tag.h</text>
</a>
</g>
</g>
<!-- Node18&#45;&gt;Node19 -->
<g id="edge40" class="edge">
<title>Node18&#45;&gt;Node19</title>
<path fill="none" stroke="midnightblue" d="M239.01,-520.73C234.15,-512.2 226.57,-498.87 220,-487.33"/>
<polygon fill="midnightblue" stroke="midnightblue" points="223.01,-485.55 215.02,-478.59 216.93,-489.01 223.01,-485.55"/>
</g>
<!-- Node19&#45;&gt;Node4 -->
<g id="edge41" class="edge">
<title>Node19&#45;&gt;Node4</title>
<path fill="none" stroke="midnightblue" d="M231.41,-448.4C247.92,-438.86 269.62,-426.32 286.04,-416.84"/>
<polygon fill="midnightblue" stroke="midnightblue" points="288.1,-419.69 295.01,-411.66 284.6,-413.63 288.1,-419.69"/>
</g>
<!-- Node19&#45;&gt;Node7 -->
<g id="edge42" class="edge">
<title>Node19&#45;&gt;Node7</title>
<path fill="none" stroke="midnightblue" d="M204.77,-448.32C201.56,-426.57 196,-383.66 196,-347 196,-347 196,-347 196,-289 196,-229.69 396.09,-195.26 478.83,-183.56"/>
<polygon fill="midnightblue" stroke="midnightblue" points="479.36,-187.02 488.78,-182.18 478.4,-180.08 479.36,-187.02"/>
</g>
<!-- Node20&#45;&gt;Node7 -->
<g id="edge46" class="edge">
<title>Node20&#45;&gt;Node7</title>
<path fill="none" stroke="midnightblue" d="M661.75,-280.1C650.48,-266.67 627.56,-240.98 604,-224 585.82,-210.9 563.27,-199.63 545.29,-191.65"/>
<polygon fill="midnightblue" stroke="midnightblue" points="546.39,-188.31 535.83,-187.56 543.62,-194.74 546.39,-188.31"/>
</g>
<!-- Node21 -->
<g id="node21" class="node">
<title>Node21</title>
<g id="a_node21"><a xlink:href="f__pc__method_8h.html" target="_top" xlink:title=" ">
<polygon fill="white" stroke="black" points="656,-224.5 656,-243.5 764,-243.5 764,-224.5 656,-224.5"/>
<text text-anchor="middle" x="710" y="-231.5" font-family="Helvetica,sans-Serif" font-size="10.00">f/f_pc/f_pc_method.h</text>
</a>
</g>
</g>
<!-- Node20&#45;&gt;Node21 -->
<g id="edge44" class="edge">
<title>Node20&#45;&gt;Node21</title>
<path fill="none" stroke="midnightblue" d="M675.77,-280.08C681.56,-272.46 690.06,-261.26 697.14,-251.94"/>
<polygon fill="midnightblue" stroke="midnightblue" points="700.1,-253.83 703.36,-243.75 694.52,-249.6 700.1,-253.83"/>
</g>
<!-- Node21&#45;&gt;Node7 -->
<g id="edge45" class="edge">
<title>Node21&#45;&gt;Node7</title>
<path fill="none" stroke="midnightblue" d="M678.94,-224.44C643.52,-214.68 585.75,-198.77 548.83,-188.6"/>
<polygon fill="midnightblue" stroke="midnightblue" points="549.57,-185.17 539,-185.89 547.71,-191.92 549.57,-185.17"/>
</g>
</g>
</svg>
