<?xml version="1.0" encoding="UTF-8" standalone="no"?>
<!DOCTYPE svg PUBLIC "-//W3C//DTD SVG 1.1//EN"
 "http://www.w3.org/Graphics/SVG/1.1/DTD/svg11.dtd">
<!-- Generated by graphviz version 2.44.0 ()
 -->
<!-- Title: include/f/f_op/f_op_scene_tag.h Pages: 1 -->
<svg width="800pt" height="733pt"
 viewBox="0.00 0.00 800.00 733.00" xmlns="http://www.w3.org/2000/svg" xmlns:xlink="http://www.w3.org/1999/xlink">
<g id="graph0" class="graph" transform="scale(1 1) rotate(0) translate(4 729)">
<title>include/f/f_op/f_op_scene_tag.h</title>
<polygon fill="white" stroke="transparent" points="-4,4 -4,-729 796,-729 796,4 -4,4"/>
<!-- Node1 -->
<g id="node1" class="node">
<title>Node1</title>
<g id="a_node1"><a xlink:title=" ">
<polygon fill="#bfbfbf" stroke="black" points="42.5,-694.5 42.5,-724.5 139.5,-724.5 139.5,-694.5 42.5,-694.5"/>
<text text-anchor="start" x="50.5" y="-712.5" font-family="Helvetica,sans-Serif" font-size="10.00">include/f/f_op/f_op</text>
<text text-anchor="middle" x="91" y="-701.5" font-family="Helvetica,sans-Serif" font-size="10.00">_scene_tag.h</text>
</a>
</g>
</g>
<!-- Node2 -->
<g id="node2" class="node">
<title>Node2</title>
<g id="a_node2"><a xlink:href="types_8h.html" target="_top" xlink:title=" ">
<polygon fill="white" stroke="black" points="364.5,-0.5 364.5,-19.5 445.5,-19.5 445.5,-0.5 364.5,-0.5"/>
<text text-anchor="middle" x="405" y="-7.5" font-family="Helvetica,sans-Serif" font-size="10.00">dolphin/types.h</text>
</a>
</g>
</g>
<!-- Node1&#45;&gt;Node2 -->
<g id="edge1" class="edge">
<title>Node1&#45;&gt;Node2</title>
<path fill="none" stroke="midnightblue" d="M68.97,-694.21C42.04,-674.81 0,-637.42 0,-593 0,-593 0,-593 0,-121 0,-48.39 245.52,-22.16 354.23,-14.11"/>
<polygon fill="midnightblue" stroke="midnightblue" points="354.59,-17.59 364.31,-13.39 354.09,-10.61 354.59,-17.59"/>
</g>
<!-- Node3 -->
<g id="node3" class="node">
<title>Node3</title>
<g id="a_node3"><a xlink:href="f__pc__node_8h.html" target="_top" xlink:title=" ">
<polygon fill="white" stroke="black" points="258.5,-638.5 258.5,-657.5 355.5,-657.5 355.5,-638.5 258.5,-638.5"/>
<text text-anchor="middle" x="307" y="-645.5" font-family="Helvetica,sans-Serif" font-size="10.00">f/f_pc/f_pc_node.h</text>
</a>
</g>
</g>
<!-- Node1&#45;&gt;Node3 -->
<g id="edge2" class="edge">
<title>Node1&#45;&gt;Node3</title>
<path fill="none" stroke="midnightblue" d="M139.74,-695.07C177.96,-684.55 230.51,-670.07 266.45,-660.17"/>
<polygon fill="midnightblue" stroke="midnightblue" points="267.41,-663.54 276.12,-657.51 265.55,-656.79 267.41,-663.54"/>
</g>
<!-- Node4 -->
<g id="node4" class="node">
<title>Node4</title>
<g id="a_node4"><a xlink:href="f__pc__base_8h.html" target="_top" xlink:title=" ">
<polygon fill="white" stroke="black" points="344.5,-582.5 344.5,-601.5 441.5,-601.5 441.5,-582.5 344.5,-582.5"/>
<text text-anchor="middle" x="393" y="-589.5" font-family="Helvetica,sans-Serif" font-size="10.00">f/f_pc/f_pc_base.h</text>
</a>
</g>
</g>
<!-- Node3&#45;&gt;Node4 -->
<g id="edge3" class="edge">
<title>Node3&#45;&gt;Node4</title>
<path fill="none" stroke="midnightblue" d="M320.82,-638.32C334.23,-629.9 354.82,-616.97 370.59,-607.07"/>
<polygon fill="midnightblue" stroke="midnightblue" points="372.61,-609.94 379.22,-601.65 368.89,-604.01 372.61,-609.94"/>
</g>
<!-- Node16 -->
<g id="node16" class="node">
<title>Node16</title>
<g id="a_node16"><a xlink:href="f__pc__layer_8h.html" target="_top" xlink:title=" ">
<polygon fill="white" stroke="black" points="194,-454 194,-473 290,-473 290,-454 194,-454"/>
<text text-anchor="middle" x="242" y="-461" font-family="Helvetica,sans-Serif" font-size="10.00">f/f_pc/f_pc_layer.h</text>
</a>
</g>
</g>
<!-- Node3&#45;&gt;Node16 -->
<g id="edge48" class="edge">
<title>Node3&#45;&gt;Node16</title>
<path fill="none" stroke="midnightblue" d="M292.27,-638.43C268.01,-623.35 220.52,-589.52 202,-546 196.6,-533.32 197.47,-528.01 202,-515 206.61,-501.77 216.29,-489.39 224.97,-480.2"/>
<polygon fill="midnightblue" stroke="midnightblue" points="227.58,-482.54 232.19,-473 222.64,-477.58 227.58,-482.54"/>
</g>
<!-- Node22 -->
<g id="node22" class="node">
<title>Node22</title>
<g id="a_node22"><a xlink:href="f__pc__method_8h.html" target="_top" xlink:title=" ">
<polygon fill="white" stroke="black" points="656,-454 656,-473 764,-473 764,-454 656,-454"/>
<text text-anchor="middle" x="710" y="-461" font-family="Helvetica,sans-Serif" font-size="10.00">f/f_pc/f_pc_method.h</text>
</a>
</g>
</g>
<!-- Node3&#45;&gt;Node22 -->
<g id="edge49" class="edge">
<title>Node3&#45;&gt;Node22</title>
<path fill="none" stroke="midnightblue" d="M355.82,-642.74C456.77,-632.81 682.92,-604.4 729,-546 743.58,-527.52 732.1,-499.79 721.7,-481.92"/>
<polygon fill="midnightblue" stroke="midnightblue" points="724.47,-479.76 716.21,-473.13 718.54,-483.46 724.47,-479.76"/>
</g>
<!-- Node5 -->
<g id="node5" class="node">
<title>Node5</title>
<g id="a_node5"><a xlink:href="c__tag_8h.html" target="_top" xlink:title=" ">
<polygon fill="white" stroke="black" points="340.5,-392.5 340.5,-411.5 447.5,-411.5 447.5,-392.5 340.5,-392.5"/>
<text text-anchor="middle" x="394" y="-399.5" font-family="Helvetica,sans-Serif" font-size="10.00">SComponent/c_tag.h</text>
</a>
</g>
</g>
<!-- Node4&#45;&gt;Node5 -->
<g id="edge4" class="edge">
<title>Node4&#45;&gt;Node5</title>
<path fill="none" stroke="midnightblue" d="M388.12,-582.37C383.44,-573.55 376.69,-559.3 374,-546 365.04,-501.73 378.6,-448.94 387.42,-421.55"/>
<polygon fill="midnightblue" stroke="midnightblue" points="390.84,-422.36 390.72,-411.77 384.21,-420.12 390.84,-422.36"/>
</g>
<!-- Node8 -->
<g id="node8" class="node">
<title>Node8</title>
<g id="a_node8"><a xlink:href="global_8h.html" target="_top" xlink:title=" ">
<polygon fill="white" stroke="black" points="448,-168.5 448,-187.5 498,-187.5 498,-168.5 448,-168.5"/>
<text text-anchor="middle" x="473" y="-175.5" font-family="Helvetica,sans-Serif" font-size="10.00">global.h</text>
</a>
</g>
</g>
<!-- Node4&#45;&gt;Node8 -->
<g id="edge23" class="edge">
<title>Node4&#45;&gt;Node8</title>
<path fill="none" stroke="midnightblue" d="M441.7,-588.99C522.75,-584.92 681.13,-573.59 729,-546 768.66,-523.14 792,-510.28 792,-464.5 792,-464.5 792,-464.5 792,-289 792,-229.45 590.81,-195.11 507.98,-183.49"/>
<polygon fill="midnightblue" stroke="midnightblue" points="508.41,-180.02 498.03,-182.13 507.46,-186.96 508.41,-180.02"/>
</g>
<!-- Node15 -->
<g id="node15" class="node">
<title>Node15</title>
<g id="a_node15"><a xlink:href="f__pc__delete__tag_8h.html" target="_top" xlink:title=" ">
<polygon fill="white" stroke="black" points="383.5,-515.5 383.5,-545.5 478.5,-545.5 478.5,-515.5 383.5,-515.5"/>
<text text-anchor="start" x="391.5" y="-533.5" font-family="Helvetica,sans-Serif" font-size="10.00">f/f_pc/f_pc_delete</text>
<text text-anchor="middle" x="431" y="-522.5" font-family="Helvetica,sans-Serif" font-size="10.00">_tag.h</text>
</a>
</g>
</g>
<!-- Node4&#45;&gt;Node15 -->
<g id="edge24" class="edge">
<title>Node4&#45;&gt;Node15</title>
<path fill="none" stroke="midnightblue" d="M398.44,-582.48C403.16,-575.09 410.19,-564.08 416.52,-554.17"/>
<polygon fill="midnightblue" stroke="midnightblue" points="419.61,-555.83 422.04,-545.52 413.71,-552.07 419.61,-555.83"/>
</g>
<!-- Node17 -->
<g id="node17" class="node">
<title>Node17</title>
<g id="a_node17"><a xlink:href="f__pc__layer__tag_8h.html" target="_top" xlink:title=" ">
<polygon fill="white" stroke="black" points="211.5,-521 211.5,-540 326.5,-540 326.5,-521 211.5,-521"/>
<text text-anchor="middle" x="269" y="-528" font-family="Helvetica,sans-Serif" font-size="10.00">f/f_pc/f_pc_layer_tag.h</text>
</a>
</g>
</g>
<!-- Node4&#45;&gt;Node17 -->
<g id="edge32" class="edge">
<title>Node4&#45;&gt;Node17</title>
<path fill="none" stroke="midnightblue" d="M375.23,-582.48C354.52,-572.53 320.05,-555.99 296.01,-544.46"/>
<polygon fill="midnightblue" stroke="midnightblue" points="297.26,-541.18 286.73,-540.01 294.23,-547.49 297.26,-541.18"/>
</g>
<!-- Node18 -->
<g id="node18" class="node">
<title>Node18</title>
<g id="a_node18"><a xlink:href="f__pc__line__tag_8h.html" target="_top" xlink:title=" ">
<polygon fill="white" stroke="black" points="28,-454 28,-473 138,-473 138,-454 28,-454"/>
<text text-anchor="middle" x="83" y="-461" font-family="Helvetica,sans-Serif" font-size="10.00">f/f_pc/f_pc_line_tag.h</text>
</a>
</g>
</g>
<!-- Node4&#45;&gt;Node18 -->
<g id="edge36" class="edge">
<title>Node4&#45;&gt;Node18</title>
<path fill="none" stroke="midnightblue" d="M344.33,-584.61C304.75,-578.23 248.12,-566.37 202,-546 162.77,-528.67 122.77,-498.05 100.59,-479.68"/>
<polygon fill="midnightblue" stroke="midnightblue" points="102.64,-476.84 92.74,-473.07 98.13,-482.19 102.64,-476.84"/>
</g>
<!-- Node19 -->
<g id="node19" class="node">
<title>Node19</title>
<g id="a_node19"><a xlink:href="f__pc__priority_8h.html" target="_top" xlink:title=" ">
<polygon fill="white" stroke="black" points="497,-521 497,-540 601,-540 601,-521 497,-521"/>
<text text-anchor="middle" x="549" y="-528" font-family="Helvetica,sans-Serif" font-size="10.00">f/f_pc/f_pc_priority.h</text>
</a>
</g>
</g>
<!-- Node4&#45;&gt;Node19 -->
<g id="edge39" class="edge">
<title>Node4&#45;&gt;Node19</title>
<path fill="none" stroke="midnightblue" d="M415.35,-582.48C441.99,-572.31 486.71,-555.26 517.01,-543.7"/>
<polygon fill="midnightblue" stroke="midnightblue" points="518.59,-546.84 526.69,-540.01 516.1,-540.3 518.59,-546.84"/>
</g>
<!-- Node21 -->
<g id="node21" class="node">
<title>Node21</title>
<g id="a_node21"><a xlink:href="f__pc__profile_8h.html" target="_top" xlink:title=" ">
<polygon fill="white" stroke="black" points="619.5,-521 619.5,-540 720.5,-540 720.5,-521 619.5,-521"/>
<text text-anchor="middle" x="670" y="-528" font-family="Helvetica,sans-Serif" font-size="10.00">f/f_pc/f_pc_profile.h</text>
</a>
</g>
</g>
<!-- Node4&#45;&gt;Node21 -->
<g id="edge44" class="edge">
<title>Node4&#45;&gt;Node21</title>
<path fill="none" stroke="midnightblue" d="M436.32,-582.45C480.19,-573.69 549.93,-559.48 610,-546 615.03,-544.87 620.3,-543.65 625.52,-542.42"/>
<polygon fill="midnightblue" stroke="midnightblue" points="626.55,-545.77 635.46,-540.05 624.92,-538.97 626.55,-545.77"/>
</g>
<!-- Node6 -->
<g id="node6" class="node">
<title>Node6</title>
<g id="a_node6"><a xlink:href="c__list_8h.html" target="_top" xlink:title=" ">
<polygon fill="white" stroke="black" points="299.5,-280.5 299.5,-299.5 406.5,-299.5 406.5,-280.5 299.5,-280.5"/>
<text text-anchor="middle" x="353" y="-287.5" font-family="Helvetica,sans-Serif" font-size="10.00">SComponent/c_list.h</text>
</a>
</g>
</g>
<!-- Node5&#45;&gt;Node6 -->
<g id="edge5" class="edge">
<title>Node5&#45;&gt;Node6</title>
<path fill="none" stroke="midnightblue" d="M392.63,-392.36C390.45,-379.7 385.65,-355.47 378,-336 374.24,-326.43 368.82,-316.38 363.98,-308.21"/>
<polygon fill="midnightblue" stroke="midnightblue" points="366.92,-306.31 358.7,-299.62 360.96,-309.98 366.92,-306.31"/>
</g>
<!-- Node7 -->
<g id="node7" class="node">
<title>Node7</title>
<g id="a_node7"><a xlink:href="c__node_8h.html" target="_top" xlink:title=" ">
<polygon fill="white" stroke="black" points="295.5,-224.5 295.5,-243.5 410.5,-243.5 410.5,-224.5 295.5,-224.5"/>
<text text-anchor="middle" x="353" y="-231.5" font-family="Helvetica,sans-Serif" font-size="10.00">SComponent/c_node.h</text>
</a>
</g>
</g>
<!-- Node5&#45;&gt;Node7 -->
<g id="edge18" class="edge">
<title>Node5&#45;&gt;Node7</title>
<path fill="none" stroke="midnightblue" d="M399.02,-392.24C410.18,-371.52 434.56,-318.37 415,-280 408,-266.27 394.63,-255.75 382.1,-248.35"/>
<polygon fill="midnightblue" stroke="midnightblue" points="383.68,-245.22 373.22,-243.51 380.33,-251.37 383.68,-245.22"/>
</g>
<!-- Node5&#45;&gt;Node8 -->
<g id="edge22" class="edge">
<title>Node5&#45;&gt;Node8</title>
<path fill="none" stroke="midnightblue" d="M403.59,-392.29C412.31,-383.85 424.85,-370.26 432,-356 458.79,-302.52 468.39,-231.14 471.56,-197.73"/>
<polygon fill="midnightblue" stroke="midnightblue" points="475.07,-197.85 472.44,-187.59 468.09,-197.25 475.07,-197.85"/>
</g>
<!-- Node14 -->
<g id="node14" class="node">
<title>Node14</title>
<g id="a_node14"><a xlink:href="c__tree_8h.html" target="_top" xlink:title=" ">
<polygon fill="white" stroke="black" points="259,-336.5 259,-355.5 369,-355.5 369,-336.5 259,-336.5"/>
<text text-anchor="middle" x="314" y="-343.5" font-family="Helvetica,sans-Serif" font-size="10.00">SComponent/c_tree.h</text>
</a>
</g>
</g>
<!-- Node5&#45;&gt;Node14 -->
<g id="edge19" class="edge">
<title>Node5&#45;&gt;Node14</title>
<path fill="none" stroke="midnightblue" d="M381.15,-392.32C368.78,-383.98 349.87,-371.21 335.26,-361.35"/>
<polygon fill="midnightblue" stroke="midnightblue" points="337.07,-358.35 326.82,-355.65 333.15,-364.15 337.07,-358.35"/>
</g>
<!-- Node6&#45;&gt;Node7 -->
<g id="edge6" class="edge">
<title>Node6&#45;&gt;Node7</title>
<path fill="none" stroke="midnightblue" d="M353,-280.08C353,-273.01 353,-262.86 353,-253.99"/>
<polygon fill="midnightblue" stroke="midnightblue" points="356.5,-253.75 353,-243.75 349.5,-253.75 356.5,-253.75"/>
</g>
<!-- Node7&#45;&gt;Node8 -->
<g id="edge7" class="edge">
<title>Node7&#45;&gt;Node8</title>
<path fill="none" stroke="midnightblue" d="M372.01,-224.44C391.59,-215.64 422.31,-201.81 444.73,-191.72"/>
<polygon fill="midnightblue" stroke="midnightblue" points="446.39,-194.81 454.07,-187.52 443.52,-188.43 446.39,-194.81"/>
</g>
<!-- Node8&#45;&gt;Node2 -->
<g id="edge8" class="edge">
<title>Node8&#45;&gt;Node2</title>
<path fill="none" stroke="midnightblue" d="M496.45,-168.41C512.16,-161.28 531.62,-149.46 541,-132 545.21,-124.17 543.91,-120.4 541,-112 525.32,-66.65 474.38,-38.08 439.5,-23.32"/>
<polygon fill="midnightblue" stroke="midnightblue" points="440.71,-20.04 430.13,-19.52 438.08,-26.52 440.71,-20.04"/>
</g>
<!-- Node9 -->
<g id="node9" class="node">
<title>Node9</title>
<g id="a_node9"><a xlink:href="AR_8h.html" target="_top" xlink:title=" ">
<polygon fill="white" stroke="black" points="271.5,-56.5 271.5,-75.5 320.5,-75.5 320.5,-56.5 271.5,-56.5"/>
<text text-anchor="middle" x="296" y="-63.5" font-family="Helvetica,sans-Serif" font-size="10.00">ar/AR.h</text>
</a>
</g>
</g>
<!-- Node8&#45;&gt;Node9 -->
<g id="edge9" class="edge">
<title>Node8&#45;&gt;Node9</title>
<path fill="none" stroke="midnightblue" d="M453.99,-168.35C435.84,-159.85 407.94,-146.12 385,-132 359.75,-116.46 332.45,-95.91 314.84,-82.11"/>
<polygon fill="midnightblue" stroke="midnightblue" points="316.59,-79.04 306.58,-75.58 312.25,-84.53 316.59,-79.04"/>
</g>
<!-- Node10 -->
<g id="node10" class="node">
<title>Node10</title>
<g id="a_node10"><a xlink:href="ARQ_8h.html" target="_top" xlink:title=" ">
<polygon fill="white" stroke="black" points="339,-56.5 339,-75.5 395,-75.5 395,-56.5 339,-56.5"/>
<text text-anchor="middle" x="367" y="-63.5" font-family="Helvetica,sans-Serif" font-size="10.00">ar/ARQ.h</text>
</a>
</g>
</g>
<!-- Node8&#45;&gt;Node10 -->
<g id="edge11" class="edge">
<title>Node8&#45;&gt;Node10</title>
<path fill="none" stroke="midnightblue" d="M454.55,-168.38C439.3,-160.55 417.81,-147.82 403,-132 390.21,-118.34 380.36,-99.3 374.22,-85.35"/>
<polygon fill="midnightblue" stroke="midnightblue" points="377.34,-83.74 370.26,-75.86 370.88,-86.44 377.34,-83.74"/>
</g>
<!-- Node11 -->
<g id="node11" class="node">
<title>Node11</title>
<g id="a_node11"><a xlink:href="mwcc_8h.html" target="_top" xlink:title=" ">
<polygon fill="white" stroke="black" points="482,-112.5 482,-131.5 532,-131.5 532,-112.5 482,-112.5"/>
<text text-anchor="middle" x="507" y="-119.5" font-family="Helvetica,sans-Serif" font-size="10.00">mwcc.h</text>
</a>
</g>
</g>
<!-- Node8&#45;&gt;Node11 -->
<g id="edge13" class="edge">
<title>Node8&#45;&gt;Node11</title>
<path fill="none" stroke="midnightblue" d="M478.61,-168.08C483.37,-160.53 490.32,-149.49 496.15,-140.23"/>
<polygon fill="midnightblue" stroke="midnightblue" points="499.12,-142.08 501.49,-131.75 493.2,-138.35 499.12,-142.08"/>
</g>
<!-- Node12 -->
<g id="node12" class="node">
<title>Node12</title>
<g id="a_node12"><a xlink:href="OS_8h.html" target="_top" xlink:title=" ">
<polygon fill="white" stroke="black" points="412,-112.5 412,-131.5 464,-131.5 464,-112.5 412,-112.5"/>
<text text-anchor="middle" x="438" y="-119.5" font-family="Helvetica,sans-Serif" font-size="10.00">os/OS.h</text>
</a>
</g>
</g>
<!-- Node8&#45;&gt;Node12 -->
<g id="edge14" class="edge">
<title>Node8&#45;&gt;Node12</title>
<path fill="none" stroke="midnightblue" d="M467.22,-168.08C462.33,-160.53 455.17,-149.49 449.17,-140.23"/>
<polygon fill="midnightblue" stroke="midnightblue" points="452.05,-138.24 443.67,-131.75 446.17,-142.05 452.05,-138.24"/>
</g>
<!-- Node9&#45;&gt;Node2 -->
<g id="edge10" class="edge">
<title>Node9&#45;&gt;Node2</title>
<path fill="none" stroke="midnightblue" d="M313.51,-56.32C331.07,-47.62 358.33,-34.12 378.53,-24.11"/>
<polygon fill="midnightblue" stroke="midnightblue" points="380.12,-27.23 387.53,-19.65 377.02,-20.96 380.12,-27.23"/>
</g>
<!-- Node10&#45;&gt;Node2 -->
<g id="edge12" class="edge">
<title>Node10&#45;&gt;Node2</title>
<path fill="none" stroke="midnightblue" d="M373.27,-56.08C378.64,-48.46 386.52,-37.26 393.08,-27.94"/>
<polygon fill="midnightblue" stroke="midnightblue" points="395.95,-29.94 398.84,-19.75 390.22,-25.91 395.95,-29.94"/>
</g>
<!-- Node12&#45;&gt;Node2 -->
<g id="edge15" class="edge">
<title>Node12&#45;&gt;Node2</title>
<path fill="none" stroke="midnightblue" d="M450.86,-112.4C467.48,-100.18 492.93,-76.92 481,-56 472.59,-41.25 457.23,-30.84 442.52,-23.77"/>
<polygon fill="midnightblue" stroke="midnightblue" points="443.58,-20.42 433.02,-19.6 440.76,-26.83 443.58,-20.42"/>
</g>
<!-- Node13 -->
<g id="node13" class="node">
<title>Node13</title>
<g id="a_node13"><a xlink:href="dvd_8h.html" target="_top" xlink:title=" ">
<polygon fill="white" stroke="black" points="413.5,-56.5 413.5,-75.5 472.5,-75.5 472.5,-56.5 413.5,-56.5"/>
<text text-anchor="middle" x="443" y="-63.5" font-family="Helvetica,sans-Serif" font-size="10.00">dvd/dvd.h</text>
</a>
</g>
</g>
<!-- Node12&#45;&gt;Node13 -->
<g id="edge16" class="edge">
<title>Node12&#45;&gt;Node13</title>
<path fill="none" stroke="midnightblue" d="M438.83,-112.08C439.48,-105.01 440.42,-94.86 441.24,-85.99"/>
<polygon fill="midnightblue" stroke="midnightblue" points="444.75,-86.03 442.19,-75.75 437.78,-85.39 444.75,-86.03"/>
</g>
<!-- Node13&#45;&gt;Node2 -->
<g id="edge17" class="edge">
<title>Node13&#45;&gt;Node2</title>
<path fill="none" stroke="midnightblue" d="M436.73,-56.08C431.36,-48.46 423.48,-37.26 416.92,-27.94"/>
<polygon fill="midnightblue" stroke="midnightblue" points="419.78,-25.91 411.16,-19.75 414.05,-29.94 419.78,-25.91"/>
</g>
<!-- Node14&#45;&gt;Node6 -->
<g id="edge20" class="edge">
<title>Node14&#45;&gt;Node6</title>
<path fill="none" stroke="midnightblue" d="M320.44,-336.08C325.95,-328.46 334.03,-317.26 340.76,-307.94"/>
<polygon fill="midnightblue" stroke="midnightblue" points="343.66,-309.91 346.68,-299.75 337.99,-305.81 343.66,-309.91"/>
</g>
<!-- Node14&#45;&gt;Node7 -->
<g id="edge21" class="edge">
<title>Node14&#45;&gt;Node7</title>
<path fill="none" stroke="midnightblue" d="M306.29,-336.31C295.98,-323.57 280.09,-299.25 290,-280 297.08,-266.25 310.52,-255.77 323.18,-248.39"/>
<polygon fill="midnightblue" stroke="midnightblue" points="325,-251.39 332.15,-243.57 321.69,-245.22 325,-251.39"/>
</g>
<!-- Node15&#45;&gt;Node5 -->
<g id="edge25" class="edge">
<title>Node15&#45;&gt;Node5</title>
<path fill="none" stroke="midnightblue" d="M426.9,-515.48C420.21,-492.62 406.96,-447.3 399.47,-421.71"/>
<polygon fill="midnightblue" stroke="midnightblue" points="402.74,-420.4 396.57,-411.79 396.02,-422.37 402.74,-420.4"/>
</g>
<!-- Node15&#45;&gt;Node8 -->
<g id="edge31" class="edge">
<title>Node15&#45;&gt;Node8</title>
<path fill="none" stroke="midnightblue" d="M434.56,-515.37C444.77,-474 473.89,-349.42 482,-244 482.68,-235.14 482.88,-232.85 482,-224 481.13,-215.17 479.31,-205.51 477.53,-197.4"/>
<polygon fill="midnightblue" stroke="midnightblue" points="480.92,-196.49 475.23,-187.55 474.1,-198.08 480.92,-196.49"/>
</g>
<!-- Node15&#45;&gt;Node16 -->
<g id="edge26" class="edge">
<title>Node15&#45;&gt;Node16</title>
<path fill="none" stroke="midnightblue" d="M389.99,-515.4C356.09,-503.74 308.51,-487.37 276.53,-476.38"/>
<polygon fill="midnightblue" stroke="midnightblue" points="277.33,-472.95 266.74,-473.01 275.05,-479.57 277.33,-472.95"/>
</g>
<!-- Node16&#45;&gt;Node5 -->
<g id="edge28" class="edge">
<title>Node16&#45;&gt;Node5</title>
<path fill="none" stroke="midnightblue" d="M263.78,-453.98C289.74,-443.81 333.31,-426.76 362.83,-415.2"/>
<polygon fill="midnightblue" stroke="midnightblue" points="364.23,-418.41 372.26,-411.51 361.67,-411.9 364.23,-418.41"/>
</g>
<!-- Node16&#45;&gt;Node7 -->
<g id="edge27" class="edge">
<title>Node16&#45;&gt;Node7</title>
<path fill="none" stroke="midnightblue" d="M241.2,-453.97C239.54,-433.23 236.89,-378.7 250,-336 258.48,-308.38 262.97,-300.82 283,-280 295.29,-267.23 311.88,-256.36 325.82,-248.51"/>
<polygon fill="midnightblue" stroke="midnightblue" points="327.83,-251.4 334.96,-243.57 324.5,-245.24 327.83,-251.4"/>
</g>
<!-- Node16&#45;&gt;Node8 -->
<g id="edge30" class="edge">
<title>Node16&#45;&gt;Node8</title>
<path fill="none" stroke="midnightblue" d="M235.39,-453.76C222.02,-435.18 193,-389.91 193,-347 193,-347 193,-347 193,-289 193,-237 362.42,-199.34 437.69,-185.17"/>
<polygon fill="midnightblue" stroke="midnightblue" points="438.46,-188.59 447.66,-183.33 437.19,-181.71 438.46,-188.59"/>
</g>
<!-- Node16&#45;&gt;Node14 -->
<g id="edge29" class="edge">
<title>Node16&#45;&gt;Node14</title>
<path fill="none" stroke="midnightblue" d="M247.41,-453.82C259.24,-434.84 287.6,-389.35 303.22,-364.29"/>
<polygon fill="midnightblue" stroke="midnightblue" points="306.21,-366.12 308.53,-355.78 300.27,-362.42 306.21,-366.12"/>
</g>
<!-- Node17&#45;&gt;Node5 -->
<g id="edge33" class="edge">
<title>Node17&#45;&gt;Node5</title>
<path fill="none" stroke="midnightblue" d="M276.33,-520.6C289.1,-505.25 316.53,-473.04 342,-448 352.64,-437.54 365.29,-426.56 375.45,-418.07"/>
<polygon fill="midnightblue" stroke="midnightblue" points="377.81,-420.66 383.29,-411.59 373.36,-415.26 377.81,-420.66"/>
</g>
<!-- Node17&#45;&gt;Node8 -->
<g id="edge35" class="edge">
<title>Node17&#45;&gt;Node8</title>
<path fill="none" stroke="midnightblue" d="M244.26,-520.85C225.19,-512.91 199.67,-499.26 185,-479 149.73,-430.26 155,-407.16 155,-347 155,-347 155,-347 155,-289 155,-242.84 194.08,-243.32 236,-224 303.01,-193.11 390.03,-183.42 437.79,-180.39"/>
<polygon fill="midnightblue" stroke="midnightblue" points="438.14,-183.87 447.92,-179.81 437.74,-176.88 438.14,-183.87"/>
</g>
<!-- Node17&#45;&gt;Node16 -->
<g id="edge34" class="edge">
<title>Node17&#45;&gt;Node16</title>
<path fill="none" stroke="midnightblue" d="M265.36,-520.73C261.31,-510.99 254.66,-494.98 249.49,-482.53"/>
<polygon fill="midnightblue" stroke="midnightblue" points="252.65,-481.02 245.58,-473.13 246.19,-483.7 252.65,-481.02"/>
</g>
<!-- Node18&#45;&gt;Node5 -->
<g id="edge37" class="edge">
<title>Node18&#45;&gt;Node5</title>
<path fill="none" stroke="midnightblue" d="M127.56,-453.98C183.45,-443.28 279.23,-424.96 339.44,-413.44"/>
<polygon fill="midnightblue" stroke="midnightblue" points="340.36,-416.83 349.52,-411.51 339.04,-409.95 340.36,-416.83"/>
</g>
<!-- Node18&#45;&gt;Node8 -->
<g id="edge38" class="edge">
<title>Node18&#45;&gt;Node8</title>
<path fill="none" stroke="midnightblue" d="M85.15,-453.87C89.73,-434.75 100,-387.33 100,-347 100,-347 100,-347 100,-289 100,-254.84 112.27,-242.47 141,-224 189.5,-192.82 361.99,-182.94 437.34,-180.08"/>
<polygon fill="midnightblue" stroke="midnightblue" points="437.86,-183.56 447.73,-179.7 437.61,-176.56 437.86,-183.56"/>
</g>
<!-- Node19&#45;&gt;Node5 -->
<g id="edge40" class="edge">
<title>Node19&#45;&gt;Node5</title>
<path fill="none" stroke="midnightblue" d="M538.35,-520.81C512.35,-499.59 445.42,-444.96 412.64,-418.22"/>
<polygon fill="midnightblue" stroke="midnightblue" points="414.69,-415.37 404.73,-411.76 410.26,-420.79 414.69,-415.37"/>
</g>
<!-- Node20 -->
<g id="node20" class="node">
<title>Node20</title>
<g id="a_node20"><a xlink:href="f__pc__method__tag_8h.html" target="_top" xlink:title=" ">
<polygon fill="white" stroke="black" points="498.5,-448.5 498.5,-478.5 599.5,-478.5 599.5,-448.5 498.5,-448.5"/>
<text text-anchor="start" x="506.5" y="-466.5" font-family="Helvetica,sans-Serif" font-size="10.00">f/f_pc/f_pc_method</text>
<text text-anchor="middle" x="549" y="-455.5" font-family="Helvetica,sans-Serif" font-size="10.00">_tag.h</text>
</a>
</g>
</g>
<!-- Node19&#45;&gt;Node20 -->
<g id="edge41" class="edge">
<title>Node19&#45;&gt;Node20</title>
<path fill="none" stroke="midnightblue" d="M549,-520.73C549,-512.54 549,-499.92 549,-488.71"/>
<polygon fill="midnightblue" stroke="midnightblue" points="552.5,-488.59 549,-478.59 545.5,-488.59 552.5,-488.59"/>
</g>
<!-- Node20&#45;&gt;Node5 -->
<g id="edge42" class="edge">
<title>Node20&#45;&gt;Node5</title>
<path fill="none" stroke="midnightblue" d="M512.27,-448.4C486.03,-438.33 451.07,-424.91 425.98,-415.28"/>
<polygon fill="midnightblue" stroke="midnightblue" points="427.14,-411.97 416.55,-411.66 424.64,-418.51 427.14,-411.97"/>
</g>
<!-- Node20&#45;&gt;Node8 -->
<g id="edge43" class="edge">
<title>Node20&#45;&gt;Node8</title>
<path fill="none" stroke="midnightblue" d="M549,-448.28C549,-426.48 549,-383.49 549,-347 549,-347 549,-347 549,-289 549,-258.2 542.53,-249.32 525,-224 516.82,-212.19 504.85,-201.54 494.45,-193.57"/>
<polygon fill="midnightblue" stroke="midnightblue" points="496.34,-190.62 486.2,-187.54 492.21,-196.27 496.34,-190.62"/>
</g>
<!-- Node21&#45;&gt;Node8 -->
<g id="edge47" class="edge">
<title>Node21&#45;&gt;Node8</title>
<path fill="none" stroke="midnightblue" d="M665.02,-520.93C653.89,-500.97 628,-449.51 628,-403 628,-403 628,-403 628,-289 628,-230.56 553.82,-200.33 508.09,-187.25"/>
<polygon fill="midnightblue" stroke="midnightblue" points="508.82,-183.82 498.25,-184.57 506.98,-190.58 508.82,-183.82"/>
</g>
<!-- Node21&#45;&gt;Node22 -->
<g id="edge45" class="edge">
<title>Node21&#45;&gt;Node22</title>
<path fill="none" stroke="midnightblue" d="M675.39,-520.73C681.51,-510.79 691.64,-494.34 699.36,-481.79"/>
<polygon fill="midnightblue" stroke="midnightblue" points="702.43,-483.48 704.69,-473.13 696.47,-479.81 702.43,-483.48"/>
</g>
<!-- Node22&#45;&gt;Node8 -->
<g id="edge46" class="edge">
<title>Node22&#45;&gt;Node8</title>
<path fill="none" stroke="midnightblue" d="M707.21,-453.91C701.29,-434.88 688,-387.62 688,-347 688,-347 688,-347 688,-289 688,-209.3 569.46,-187.31 508.42,-181.27"/>
<polygon fill="midnightblue" stroke="midnightblue" points="508.36,-177.75 498.08,-180.35 507.73,-184.72 508.36,-177.75"/>
</g>
</g>
</svg>
