<?xml version="1.0" encoding="UTF-8" standalone="no"?>
<!DOCTYPE svg PUBLIC "-//W3C//DTD SVG 1.1//EN"
 "http://www.w3.org/Graphics/SVG/1.1/DTD/svg11.dtd">
<!-- Generated by graphviz version 2.44.0 ()
 -->
<!-- Title: include/f/f_op/f_op_scene.h Pages: 1 -->
<svg width="839pt" height="240pt"
 viewBox="0.00 0.00 839.00 240.00" xmlns="http://www.w3.org/2000/svg" xmlns:xlink="http://www.w3.org/1999/xlink">
<g id="graph0" class="graph" transform="scale(1 1) rotate(0) translate(4 236)">
<title>include/f/f_op/f_op_scene.h</title>
<polygon fill="white" stroke="transparent" points="-4,4 -4,-236 835,-236 835,4 -4,4"/>
<!-- Node1 -->
<g id="node1" class="node">
<title>Node1</title>
<g id="a_node1"><a xlink:title=" ">
<polygon fill="#bfbfbf" stroke="black" points="152,-201.5 152,-231.5 249,-231.5 249,-201.5 152,-201.5"/>
<text text-anchor="start" x="160" y="-219.5" font-family="Helvetica,sans-Serif" font-size="10.00">include/f/f_op/f_op</text>
<text text-anchor="middle" x="200.5" y="-208.5" font-family="Helvetica,sans-Serif" font-size="10.00">_scene.h</text>
</a>
</g>
</g>
<!-- Node2 -->
<g id="node2" class="node">
<title>Node2</title>
<g id="a_node2"><a xlink:href="f__op__scene_8cpp.html" target="_top" xlink:title=" ">
<polygon fill="white" stroke="black" points="0,-73 0,-92 129,-92 129,-73 0,-73"/>
<text text-anchor="middle" x="64.5" y="-80" font-family="Helvetica,sans-Serif" font-size="10.00">src/f/f_op/f_op_scene.cpp</text>
</a>
</g>
</g>
<!-- Node1&#45;&gt;Node2 -->
<g id="edge1" class="edge">
<title>Node1&#45;&gt;Node2</title>
<path fill="none" stroke="midnightblue" d="M178.76,-194.39C148.35,-164.88 94.49,-112.61 73.36,-92.1"/>
<polygon fill="midnightblue" stroke="midnightblue" points="176.33,-196.92 185.95,-201.37 181.21,-191.9 176.33,-196.92"/>
</g>
<!-- Node3 -->
<g id="node3" class="node">
<title>Node3</title>
<g id="a_node3"><a xlink:href="f__op__scene__pause_8h.html" target="_top" xlink:title=" ">
<polygon fill="white" stroke="black" points="223,-134.5 223,-164.5 320,-164.5 320,-134.5 223,-134.5"/>
<text text-anchor="start" x="231" y="-152.5" font-family="Helvetica,sans-Serif" font-size="10.00">include/f/f_op/f_op</text>
<text text-anchor="middle" x="271.5" y="-141.5" font-family="Helvetica,sans-Serif" font-size="10.00">_scene_pause.h</text>
</a>
</g>
</g>
<!-- Node1&#45;&gt;Node3 -->
<g id="edge2" class="edge">
<title>Node1&#45;&gt;Node3</title>
<path fill="none" stroke="midnightblue" d="M223.33,-194.6C234.05,-184.78 246.55,-173.34 256.12,-164.58"/>
<polygon fill="midnightblue" stroke="midnightblue" points="220.92,-192.06 215.91,-201.4 225.65,-197.22 220.92,-192.06"/>
</g>
<!-- Node3&#45;&gt;Node2 -->
<g id="edge4" class="edge">
<title>Node3&#45;&gt;Node2</title>
<path fill="none" stroke="midnightblue" d="M217.14,-131.43C176.77,-118.75 123.42,-102 91.66,-92.03"/>
<polygon fill="midnightblue" stroke="midnightblue" points="216.25,-134.82 226.84,-134.48 218.35,-128.14 216.25,-134.82"/>
</g>
<!-- Node4 -->
<g id="node4" class="node">
<title>Node4</title>
<g id="a_node4"><a xlink:href="f__op__overlap__mng_8cpp.html" target="_top" xlink:title=" ">
<polygon fill="white" stroke="black" points="147.5,-67.5 147.5,-97.5 263.5,-97.5 263.5,-67.5 147.5,-67.5"/>
<text text-anchor="start" x="155.5" y="-85.5" font-family="Helvetica,sans-Serif" font-size="10.00">src/f/f_op/f_op_overlap</text>
<text text-anchor="middle" x="205.5" y="-74.5" font-family="Helvetica,sans-Serif" font-size="10.00">_mng.cpp</text>
</a>
</g>
</g>
<!-- Node3&#45;&gt;Node4 -->
<g id="edge3" class="edge">
<title>Node3&#45;&gt;Node4</title>
<path fill="none" stroke="midnightblue" d="M249.99,-127.31C240.09,-117.56 228.61,-106.26 219.79,-97.58"/>
<polygon fill="midnightblue" stroke="midnightblue" points="247.6,-129.87 257.18,-134.4 252.51,-124.89 247.6,-129.87"/>
</g>
<!-- Node5 -->
<g id="node5" class="node">
<title>Node5</title>
<g id="a_node5"><a xlink:href="f__op__scene__pause_8cpp.html" target="_top" xlink:title=" ">
<polygon fill="white" stroke="black" points="282,-67.5 282,-97.5 393,-97.5 393,-67.5 282,-67.5"/>
<text text-anchor="start" x="290" y="-85.5" font-family="Helvetica,sans-Serif" font-size="10.00">src/f/f_op/f_op_scene</text>
<text text-anchor="middle" x="337.5" y="-74.5" font-family="Helvetica,sans-Serif" font-size="10.00">_pause.cpp</text>
</a>
</g>
</g>
<!-- Node3&#45;&gt;Node5 -->
<g id="edge5" class="edge">
<title>Node3&#45;&gt;Node5</title>
<path fill="none" stroke="midnightblue" d="M293.01,-127.31C302.91,-117.56 314.39,-106.26 323.21,-97.58"/>
<polygon fill="midnightblue" stroke="midnightblue" points="290.49,-124.89 285.82,-134.4 295.4,-129.87 290.49,-124.89"/>
</g>
<!-- Node6 -->
<g id="node6" class="node">
<title>Node6</title>
<g id="a_node6"><a xlink:href="f__op__scene__mng_8h.html" target="_top" xlink:title=" ">
<polygon fill="white" stroke="black" points="411,-67.5 411,-97.5 508,-97.5 508,-67.5 411,-67.5"/>
<text text-anchor="start" x="419" y="-85.5" font-family="Helvetica,sans-Serif" font-size="10.00">include/f/f_op/f_op</text>
<text text-anchor="middle" x="459.5" y="-74.5" font-family="Helvetica,sans-Serif" font-size="10.00">_scene_mng.h</text>
</a>
</g>
</g>
<!-- Node3&#45;&gt;Node6 -->
<g id="edge6" class="edge">
<title>Node3&#45;&gt;Node6</title>
<path fill="none" stroke="midnightblue" d="M321.85,-131.09C352.2,-120.6 390.35,-107.41 418.79,-97.58"/>
<polygon fill="midnightblue" stroke="midnightblue" points="320.6,-127.82 312.29,-134.4 322.89,-134.44 320.6,-127.82"/>
</g>
<!-- Node12 -->
<g id="node12" class="node">
<title>Node12</title>
<g id="a_node12"><a xlink:href="f__op__scene__req_8h.html" target="_top" xlink:title=" ">
<polygon fill="white" stroke="black" points="598,-67.5 598,-97.5 695,-97.5 695,-67.5 598,-67.5"/>
<text text-anchor="start" x="606" y="-85.5" font-family="Helvetica,sans-Serif" font-size="10.00">include/f/f_op/f_op</text>
<text text-anchor="middle" x="646.5" y="-74.5" font-family="Helvetica,sans-Serif" font-size="10.00">_scene_req.h</text>
</a>
</g>
</g>
<!-- Node3&#45;&gt;Node12 -->
<g id="edge12" class="edge">
<title>Node3&#45;&gt;Node12</title>
<path fill="none" stroke="midnightblue" d="M330.2,-138.33C403.99,-125.54 529.29,-103.82 597.95,-91.92"/>
<polygon fill="midnightblue" stroke="midnightblue" points="329.4,-134.91 320.14,-140.07 330.59,-141.81 329.4,-134.91"/>
</g>
<!-- Node7 -->
<g id="node7" class="node">
<title>Node7</title>
<g id="a_node7"><a xlink:href="d__com__inf__game_8cpp.html" target="_top" xlink:title=" ">
<polygon fill="white" stroke="black" points="95,-0.5 95,-30.5 214,-30.5 214,-0.5 95,-0.5"/>
<text text-anchor="start" x="103" y="-18.5" font-family="Helvetica,sans-Serif" font-size="10.00">src/d/d_com/d_com_inf</text>
<text text-anchor="middle" x="154.5" y="-7.5" font-family="Helvetica,sans-Serif" font-size="10.00">_game.cpp</text>
</a>
</g>
</g>
<!-- Node6&#45;&gt;Node7 -->
<g id="edge7" class="edge">
<title>Node6&#45;&gt;Node7</title>
<path fill="none" stroke="midnightblue" d="M400.79,-66.9C321.1,-49.04 299.46,-46.66 223.5,-31 220.5,-30.38 217.43,-29.75 214.33,-29.1"/>
<polygon fill="midnightblue" stroke="midnightblue" points="400.28,-70.37 410.8,-69.16 401.82,-63.54 400.28,-70.37"/>
</g>
<!-- Node8 -->
<g id="node8" class="node">
<title>Node8</title>
<g id="a_node8"><a xlink:href="d__stage_8cpp.html" target="_top" xlink:title=" ">
<polygon fill="white" stroke="black" points="232.5,-6 232.5,-25 326.5,-25 326.5,-6 232.5,-6"/>
<text text-anchor="middle" x="279.5" y="-13" font-family="Helvetica,sans-Serif" font-size="10.00">src/d/d_stage.cpp</text>
</a>
</g>
</g>
<!-- Node6&#45;&gt;Node8 -->
<g id="edge8" class="edge">
<title>Node6&#45;&gt;Node8</title>
<path fill="none" stroke="midnightblue" d="M410.89,-63.95C375.93,-51.32 330.32,-34.85 303.06,-25.01"/>
<polygon fill="midnightblue" stroke="midnightblue" points="409.85,-67.29 420.44,-67.4 412.23,-60.71 409.85,-67.29"/>
</g>
<!-- Node9 -->
<g id="node9" class="node">
<title>Node9</title>
<g id="a_node9"><a xlink:href="f__ap__game_8cpp.html" target="_top" xlink:title=" ">
<polygon fill="white" stroke="black" points="345,-6 345,-25 450,-25 450,-6 345,-6"/>
<text text-anchor="middle" x="397.5" y="-13" font-family="Helvetica,sans-Serif" font-size="10.00">src/f/f_ap_game.cpp</text>
</a>
</g>
</g>
<!-- Node6&#45;&gt;Node9 -->
<g id="edge9" class="edge">
<title>Node6&#45;&gt;Node9</title>
<path fill="none" stroke="midnightblue" d="M438.99,-60C427.67,-48.13 414.24,-34.05 405.79,-25.19"/>
<polygon fill="midnightblue" stroke="midnightblue" points="436.61,-62.58 446.05,-67.4 441.68,-57.74 436.61,-62.58"/>
</g>
<!-- Node10 -->
<g id="node10" class="node">
<title>Node10</title>
<g id="a_node10"><a xlink:href="f__op__msg__mng_8cpp.html" target="_top" xlink:title=" ">
<polygon fill="white" stroke="black" points="468.5,-0.5 468.5,-30.5 572.5,-30.5 572.5,-0.5 468.5,-0.5"/>
<text text-anchor="start" x="476.5" y="-18.5" font-family="Helvetica,sans-Serif" font-size="10.00">src/f/f_op/f_op_msg</text>
<text text-anchor="middle" x="520.5" y="-7.5" font-family="Helvetica,sans-Serif" font-size="10.00">_mng.cpp</text>
</a>
</g>
</g>
<!-- Node6&#45;&gt;Node10 -->
<g id="edge10" class="edge">
<title>Node6&#45;&gt;Node10</title>
<path fill="none" stroke="midnightblue" d="M479.65,-60.02C488.74,-50.34 499.22,-39.17 507.29,-30.58"/>
<polygon fill="midnightblue" stroke="midnightblue" points="477.03,-57.71 472.74,-67.4 482.13,-62.5 477.03,-57.71"/>
</g>
<!-- Node11 -->
<g id="node11" class="node">
<title>Node11</title>
<g id="a_node11"><a xlink:href="f__op__scene__mng_8cpp.html" target="_top" xlink:title=" ">
<polygon fill="white" stroke="black" points="591,-0.5 591,-30.5 702,-30.5 702,-0.5 591,-0.5"/>
<text text-anchor="start" x="599" y="-18.5" font-family="Helvetica,sans-Serif" font-size="10.00">src/f/f_op/f_op_scene</text>
<text text-anchor="middle" x="646.5" y="-7.5" font-family="Helvetica,sans-Serif" font-size="10.00">_mng.cpp</text>
</a>
</g>
</g>
<!-- Node6&#45;&gt;Node11 -->
<g id="edge11" class="edge">
<title>Node6&#45;&gt;Node11</title>
<path fill="none" stroke="midnightblue" d="M509.58,-64.09C539.77,-53.6 577.72,-40.41 606,-30.58"/>
<polygon fill="midnightblue" stroke="midnightblue" points="508.37,-60.81 500.08,-67.4 510.67,-67.42 508.37,-60.81"/>
</g>
<!-- Node12&#45;&gt;Node11 -->
<g id="edge13" class="edge">
<title>Node12&#45;&gt;Node11</title>
<path fill="none" stroke="midnightblue" d="M646.5,-57.11C646.5,-48.15 646.5,-38.32 646.5,-30.58"/>
<polygon fill="midnightblue" stroke="midnightblue" points="643,-57.4 646.5,-67.4 650,-57.4 643,-57.4"/>
</g>
<!-- Node13 -->
<g id="node13" class="node">
<title>Node13</title>
<g id="a_node13"><a xlink:href="f__op__scene__req_8cpp.html" target="_top" xlink:title=" ">
<polygon fill="white" stroke="black" points="720,-0.5 720,-30.5 831,-30.5 831,-0.5 720,-0.5"/>
<text text-anchor="start" x="728" y="-18.5" font-family="Helvetica,sans-Serif" font-size="10.00">src/f/f_op/f_op_scene</text>
<text text-anchor="middle" x="775.5" y="-7.5" font-family="Helvetica,sans-Serif" font-size="10.00">_req.cpp</text>
</a>
</g>
</g>
<!-- Node12&#45;&gt;Node13 -->
<g id="edge14" class="edge">
<title>Node12&#45;&gt;Node13</title>
<path fill="none" stroke="midnightblue" d="M683.51,-62.85C703.9,-52.58 728.81,-40.03 747.56,-30.58"/>
<polygon fill="midnightblue" stroke="midnightblue" points="681.85,-59.77 674.49,-67.4 685,-66.02 681.85,-59.77"/>
</g>
</g>
</svg>
