<?xml version="1.0" encoding="UTF-8" standalone="no"?>
<!DOCTYPE svg PUBLIC "-//W3C//DTD SVG 1.1//EN"
 "http://www.w3.org/Graphics/SVG/1.1/DTD/svg11.dtd">
<!-- Generated by graphviz version 2.44.0 ()
 -->
<!-- Title: include/f/f_op/f_op_view.h Pages: 1 -->
<svg width="932pt" height="733pt"
 viewBox="0.00 0.00 932.00 733.00" xmlns="http://www.w3.org/2000/svg" xmlns:xlink="http://www.w3.org/1999/xlink">
<g id="graph0" class="graph" transform="scale(1 1) rotate(0) translate(4 729)">
<title>include/f/f_op/f_op_view.h</title>
<polygon fill="white" stroke="transparent" points="-4,4 -4,-729 928,-729 928,4 -4,4"/>
<!-- Node1 -->
<g id="node1" class="node">
<title>Node1</title>
<g id="a_node1"><a xlink:title=" ">
<polygon fill="#bfbfbf" stroke="black" points="194.5,-694.5 194.5,-724.5 291.5,-724.5 291.5,-694.5 194.5,-694.5"/>
<text text-anchor="start" x="202.5" y="-712.5" font-family="Helvetica,sans-Serif" font-size="10.00">include/f/f_op/f_op</text>
<text text-anchor="middle" x="243" y="-701.5" font-family="Helvetica,sans-Serif" font-size="10.00">_view.h</text>
</a>
</g>
</g>
<!-- Node2 -->
<g id="node2" class="node">
<title>Node2</title>
<g id="a_node2"><a xlink:href="types_8h.html" target="_top" xlink:title=" ">
<polygon fill="white" stroke="black" points="305.5,-0.5 305.5,-19.5 386.5,-19.5 386.5,-0.5 305.5,-0.5"/>
<text text-anchor="middle" x="346" y="-7.5" font-family="Helvetica,sans-Serif" font-size="10.00">dolphin/types.h</text>
</a>
</g>
</g>
<!-- Node1&#45;&gt;Node2 -->
<g id="edge1" class="edge">
<title>Node1&#45;&gt;Node2</title>
<path fill="none" stroke="midnightblue" d="M194.41,-706.49C123.5,-700.65 0,-678.25 0,-593 0,-593 0,-593 0,-121 0,-59.8 199.06,-28.16 295.21,-16.44"/>
<polygon fill="midnightblue" stroke="midnightblue" points="295.78,-19.9 305.29,-15.24 294.95,-12.95 295.78,-19.9"/>
</g>
<!-- Node3 -->
<g id="node3" class="node">
<title>Node3</title>
<g id="a_node3"><a xlink:href="f__pc__leaf_8h.html" target="_top" xlink:title=" ">
<polygon fill="white" stroke="black" points="431,-638.5 431,-657.5 523,-657.5 523,-638.5 431,-638.5"/>
<text text-anchor="middle" x="477" y="-645.5" font-family="Helvetica,sans-Serif" font-size="10.00">f/f_pc/f_pc_leaf.h</text>
</a>
</g>
</g>
<!-- Node1&#45;&gt;Node3 -->
<g id="edge2" class="edge">
<title>Node1&#45;&gt;Node3</title>
<path fill="none" stroke="midnightblue" d="M291.77,-696.1C333.63,-685.46 393.4,-670.26 433.62,-660.03"/>
<polygon fill="midnightblue" stroke="midnightblue" points="434.57,-663.4 443.4,-657.54 432.85,-656.62 434.57,-663.4"/>
</g>
<!-- Node4 -->
<g id="node4" class="node">
<title>Node4</title>
<g id="a_node4"><a xlink:href="f__pc__base_8h.html" target="_top" xlink:title=" ">
<polygon fill="white" stroke="black" points="428.5,-582.5 428.5,-601.5 525.5,-601.5 525.5,-582.5 428.5,-582.5"/>
<text text-anchor="middle" x="477" y="-589.5" font-family="Helvetica,sans-Serif" font-size="10.00">f/f_pc/f_pc_base.h</text>
</a>
</g>
</g>
<!-- Node3&#45;&gt;Node4 -->
<g id="edge3" class="edge">
<title>Node3&#45;&gt;Node4</title>
<path fill="none" stroke="midnightblue" d="M477,-638.08C477,-631.01 477,-620.86 477,-611.99"/>
<polygon fill="midnightblue" stroke="midnightblue" points="480.5,-611.75 477,-601.75 473.5,-611.75 480.5,-611.75"/>
</g>
<!-- Node8 -->
<g id="node8" class="node">
<title>Node8</title>
<g id="a_node8"><a xlink:href="global_8h.html" target="_top" xlink:title=" ">
<polygon fill="white" stroke="black" points="376,-168.5 376,-187.5 426,-187.5 426,-168.5 376,-168.5"/>
<text text-anchor="middle" x="401" y="-175.5" font-family="Helvetica,sans-Serif" font-size="10.00">global.h</text>
</a>
</g>
</g>
<!-- Node3&#45;&gt;Node8 -->
<g id="edge51" class="edge">
<title>Node3&#45;&gt;Node8</title>
<path fill="none" stroke="midnightblue" d="M523.15,-644.86C637.36,-638.3 924,-613.66 924,-531.5 924,-531.5 924,-531.5 924,-289 924,-189.13 554.15,-179.44 436.49,-178.88"/>
<polygon fill="midnightblue" stroke="midnightblue" points="436.23,-175.38 426.23,-178.86 436.22,-182.38 436.23,-175.38"/>
</g>
<!-- Node22 -->
<g id="node22" class="node">
<title>Node22</title>
<g id="a_node22"><a xlink:href="f__pc__method_8h.html" target="_top" xlink:title=" ">
<polygon fill="white" stroke="black" points="28,-454 28,-473 136,-473 136,-454 28,-454"/>
<text text-anchor="middle" x="82" y="-461" font-family="Helvetica,sans-Serif" font-size="10.00">f/f_pc/f_pc_method.h</text>
</a>
</g>
</g>
<!-- Node3&#45;&gt;Node22 -->
<g id="edge50" class="edge">
<title>Node3&#45;&gt;Node22</title>
<path fill="none" stroke="midnightblue" d="M430.81,-641.36C338.57,-629.11 136.56,-596.99 92,-546 77.09,-528.93 76.84,-501.63 78.8,-483.38"/>
<polygon fill="midnightblue" stroke="midnightblue" points="82.28,-483.76 80.19,-473.37 75.34,-482.79 82.28,-483.76"/>
</g>
<!-- Node23 -->
<g id="node23" class="node">
<title>Node23</title>
<g id="a_node23"><a xlink:href="f__pc__draw__priority_8h.html" target="_top" xlink:title=" ">
<polygon fill="white" stroke="black" points="764.5,-392.5 764.5,-411.5 895.5,-411.5 895.5,-392.5 764.5,-392.5"/>
<text text-anchor="middle" x="830" y="-399.5" font-family="Helvetica,sans-Serif" font-size="10.00">f/f_pc/f_pc_draw_priority.h</text>
</a>
</g>
</g>
<!-- Node3&#45;&gt;Node23 -->
<g id="edge48" class="edge">
<title>Node3&#45;&gt;Node23</title>
<path fill="none" stroke="midnightblue" d="M523.24,-647.15C595.28,-644.68 733.54,-628.68 806,-546 836.75,-510.91 835.56,-451.69 832.55,-421.66"/>
<polygon fill="midnightblue" stroke="midnightblue" points="836.02,-421.21 831.38,-411.69 829.07,-422.03 836.02,-421.21"/>
</g>
<!-- Node5 -->
<g id="node5" class="node">
<title>Node5</title>
<g id="a_node5"><a xlink:href="c__tag_8h.html" target="_top" xlink:title=" ">
<polygon fill="white" stroke="black" points="428.5,-392.5 428.5,-411.5 535.5,-411.5 535.5,-392.5 428.5,-392.5"/>
<text text-anchor="middle" x="482" y="-399.5" font-family="Helvetica,sans-Serif" font-size="10.00">SComponent/c_tag.h</text>
</a>
</g>
</g>
<!-- Node4&#45;&gt;Node5 -->
<g id="edge4" class="edge">
<title>Node4&#45;&gt;Node5</title>
<path fill="none" stroke="midnightblue" d="M477.23,-582.43C477.99,-553.93 480.44,-461.82 481.5,-421.83"/>
<polygon fill="midnightblue" stroke="midnightblue" points="485,-421.71 481.77,-411.62 478.01,-421.52 485,-421.71"/>
</g>
<!-- Node4&#45;&gt;Node8 -->
<g id="edge23" class="edge">
<title>Node4&#45;&gt;Node8</title>
<path fill="none" stroke="midnightblue" d="M525.66,-589.86C595.88,-585.18 722.73,-564.65 773,-479 779.97,-467.12 776.17,-461.41 773,-448 768.89,-430.59 761.54,-428.65 755,-412 744,-383.98 736,-377.1 736,-347 736,-347 736,-347 736,-289 736,-243.53 698.31,-243.01 657,-224 583.52,-190.19 487.43,-181.66 436.42,-179.59"/>
<polygon fill="midnightblue" stroke="midnightblue" points="436.36,-176.09 426.24,-179.24 436.12,-183.08 436.36,-176.09"/>
</g>
<!-- Node15 -->
<g id="node15" class="node">
<title>Node15</title>
<g id="a_node15"><a xlink:href="f__pc__delete__tag_8h.html" target="_top" xlink:title=" ">
<polygon fill="white" stroke="black" points="220.5,-515.5 220.5,-545.5 315.5,-545.5 315.5,-515.5 220.5,-515.5"/>
<text text-anchor="start" x="228.5" y="-533.5" font-family="Helvetica,sans-Serif" font-size="10.00">f/f_pc/f_pc_delete</text>
<text text-anchor="middle" x="268" y="-522.5" font-family="Helvetica,sans-Serif" font-size="10.00">_tag.h</text>
</a>
</g>
</g>
<!-- Node4&#45;&gt;Node15 -->
<g id="edge24" class="edge">
<title>Node4&#45;&gt;Node15</title>
<path fill="none" stroke="midnightblue" d="M447.06,-582.48C415.42,-573.47 364.77,-559.05 325.4,-547.84"/>
<polygon fill="midnightblue" stroke="midnightblue" points="326.23,-544.44 315.65,-545.07 324.31,-551.17 326.23,-544.44"/>
</g>
<!-- Node17 -->
<g id="node17" class="node">
<title>Node17</title>
<g id="a_node17"><a xlink:href="f__pc__layer__tag_8h.html" target="_top" xlink:title=" ">
<polygon fill="white" stroke="black" points="333.5,-521 333.5,-540 448.5,-540 448.5,-521 333.5,-521"/>
<text text-anchor="middle" x="391" y="-528" font-family="Helvetica,sans-Serif" font-size="10.00">f/f_pc/f_pc_layer_tag.h</text>
</a>
</g>
</g>
<!-- Node4&#45;&gt;Node17 -->
<g id="edge32" class="edge">
<title>Node4&#45;&gt;Node17</title>
<path fill="none" stroke="midnightblue" d="M464.68,-582.48C450.88,-572.93 428.3,-557.31 411.77,-545.87"/>
<polygon fill="midnightblue" stroke="midnightblue" points="413.51,-542.82 403.3,-540.01 409.53,-548.58 413.51,-542.82"/>
</g>
<!-- Node18 -->
<g id="node18" class="node">
<title>Node18</title>
<g id="a_node18"><a xlink:href="f__pc__line__tag_8h.html" target="_top" xlink:title=" ">
<polygon fill="white" stroke="black" points="654,-454 654,-473 764,-473 764,-454 654,-454"/>
<text text-anchor="middle" x="709" y="-461" font-family="Helvetica,sans-Serif" font-size="10.00">f/f_pc/f_pc_line_tag.h</text>
</a>
</g>
</g>
<!-- Node4&#45;&gt;Node18 -->
<g id="edge36" class="edge">
<title>Node4&#45;&gt;Node18</title>
<path fill="none" stroke="midnightblue" d="M519.32,-582.43C548.37,-575.39 587.11,-563.67 618,-546 648.65,-528.46 677.93,-499.26 694.65,-480.99"/>
<polygon fill="midnightblue" stroke="midnightblue" points="697.34,-483.23 701.41,-473.44 692.13,-478.56 697.34,-483.23"/>
</g>
<!-- Node19 -->
<g id="node19" class="node">
<title>Node19</title>
<g id="a_node19"><a xlink:href="f__pc__priority_8h.html" target="_top" xlink:title=" ">
<polygon fill="white" stroke="black" points="505,-521 505,-540 609,-540 609,-521 505,-521"/>
<text text-anchor="middle" x="557" y="-528" font-family="Helvetica,sans-Serif" font-size="10.00">f/f_pc/f_pc_priority.h</text>
</a>
</g>
</g>
<!-- Node4&#45;&gt;Node19 -->
<g id="edge39" class="edge">
<title>Node4&#45;&gt;Node19</title>
<path fill="none" stroke="midnightblue" d="M488.46,-582.48C501.17,-573.02 521.91,-557.6 537.25,-546.19"/>
<polygon fill="midnightblue" stroke="midnightblue" points="539.62,-548.79 545.56,-540.01 535.45,-543.17 539.62,-548.79"/>
</g>
<!-- Node21 -->
<g id="node21" class="node">
<title>Node21</title>
<g id="a_node21"><a xlink:href="f__pc__profile_8h.html" target="_top" xlink:title=" ">
<polygon fill="white" stroke="black" points="101.5,-521 101.5,-540 202.5,-540 202.5,-521 101.5,-521"/>
<text text-anchor="middle" x="152" y="-528" font-family="Helvetica,sans-Serif" font-size="10.00">f/f_pc/f_pc_profile.h</text>
</a>
</g>
</g>
<!-- Node4&#45;&gt;Node21 -->
<g id="edge44" class="edge">
<title>Node4&#45;&gt;Node21</title>
<path fill="none" stroke="midnightblue" d="M428.26,-583.85C374.76,-575.75 286.44,-561.63 211,-546 205.84,-544.93 200.44,-543.73 195.11,-542.48"/>
<polygon fill="midnightblue" stroke="midnightblue" points="195.52,-538.98 184.98,-540.06 193.89,-545.79 195.52,-538.98"/>
</g>
<!-- Node6 -->
<g id="node6" class="node">
<title>Node6</title>
<g id="a_node6"><a xlink:href="c__list_8h.html" target="_top" xlink:title=" ">
<polygon fill="white" stroke="black" points="384.5,-280.5 384.5,-299.5 491.5,-299.5 491.5,-280.5 384.5,-280.5"/>
<text text-anchor="middle" x="438" y="-287.5" font-family="Helvetica,sans-Serif" font-size="10.00">SComponent/c_list.h</text>
</a>
</g>
</g>
<!-- Node5&#45;&gt;Node6 -->
<g id="edge5" class="edge">
<title>Node5&#45;&gt;Node6</title>
<path fill="none" stroke="midnightblue" d="M480.13,-392.38C477.24,-379.73 471.16,-355.53 463,-336 459.04,-326.52 453.59,-316.47 448.79,-308.29"/>
<polygon fill="midnightblue" stroke="midnightblue" points="451.75,-306.42 443.58,-299.67 445.76,-310.04 451.75,-306.42"/>
</g>
<!-- Node7 -->
<g id="node7" class="node">
<title>Node7</title>
<g id="a_node7"><a xlink:href="c__node_8h.html" target="_top" xlink:title=" ">
<polygon fill="white" stroke="black" points="343.5,-224.5 343.5,-243.5 458.5,-243.5 458.5,-224.5 343.5,-224.5"/>
<text text-anchor="middle" x="401" y="-231.5" font-family="Helvetica,sans-Serif" font-size="10.00">SComponent/c_node.h</text>
</a>
</g>
</g>
<!-- Node5&#45;&gt;Node7 -->
<g id="edge18" class="edge">
<title>Node5&#45;&gt;Node7</title>
<path fill="none" stroke="midnightblue" d="M487,-392.25C498.35,-371.09 523.34,-316.25 500,-280 489.69,-263.99 472.15,-253.62 454.67,-246.92"/>
<polygon fill="midnightblue" stroke="midnightblue" points="455.6,-243.54 445.01,-243.56 453.3,-250.15 455.6,-243.54"/>
</g>
<!-- Node5&#45;&gt;Node8 -->
<g id="edge22" class="edge">
<title>Node5&#45;&gt;Node8</title>
<path fill="none" stroke="midnightblue" d="M492.71,-392.3C501.94,-384.07 514.59,-370.79 520,-356 524.7,-343.16 528.18,-304.96 518,-280 501.18,-238.75 456.96,-208.52 427.96,-192.37"/>
<polygon fill="midnightblue" stroke="midnightblue" points="429.6,-189.28 419.13,-187.62 426.29,-195.44 429.6,-189.28"/>
</g>
<!-- Node14 -->
<g id="node14" class="node">
<title>Node14</title>
<g id="a_node14"><a xlink:href="c__tree_8h.html" target="_top" xlink:title=" ">
<polygon fill="white" stroke="black" points="344,-336.5 344,-355.5 454,-355.5 454,-336.5 344,-336.5"/>
<text text-anchor="middle" x="399" y="-343.5" font-family="Helvetica,sans-Serif" font-size="10.00">SComponent/c_tree.h</text>
</a>
</g>
</g>
<!-- Node5&#45;&gt;Node14 -->
<g id="edge19" class="edge">
<title>Node5&#45;&gt;Node14</title>
<path fill="none" stroke="midnightblue" d="M468.66,-392.32C455.84,-383.98 436.22,-371.21 421.06,-361.35"/>
<polygon fill="midnightblue" stroke="midnightblue" points="422.59,-358.17 412.3,-355.65 418.78,-364.04 422.59,-358.17"/>
</g>
<!-- Node6&#45;&gt;Node7 -->
<g id="edge6" class="edge">
<title>Node6&#45;&gt;Node7</title>
<path fill="none" stroke="midnightblue" d="M431.89,-280.08C426.72,-272.53 419.15,-261.49 412.81,-252.23"/>
<polygon fill="midnightblue" stroke="midnightblue" points="415.54,-250.02 407,-243.75 409.76,-253.98 415.54,-250.02"/>
</g>
<!-- Node7&#45;&gt;Node8 -->
<g id="edge7" class="edge">
<title>Node7&#45;&gt;Node8</title>
<path fill="none" stroke="midnightblue" d="M401,-224.08C401,-217.01 401,-206.86 401,-197.99"/>
<polygon fill="midnightblue" stroke="midnightblue" points="404.5,-197.75 401,-187.75 397.5,-197.75 404.5,-197.75"/>
</g>
<!-- Node8&#45;&gt;Node2 -->
<g id="edge8" class="edge">
<title>Node8&#45;&gt;Node2</title>
<path fill="none" stroke="midnightblue" d="M398.04,-168.08C389.35,-141.83 363.74,-64.55 352,-29.12"/>
<polygon fill="midnightblue" stroke="midnightblue" points="355.31,-27.96 348.84,-19.57 348.66,-30.16 355.31,-27.96"/>
</g>
<!-- Node9 -->
<g id="node9" class="node">
<title>Node9</title>
<g id="a_node9"><a xlink:href="AR_8h.html" target="_top" xlink:title=" ">
<polygon fill="white" stroke="black" points="395.5,-56.5 395.5,-75.5 444.5,-75.5 444.5,-56.5 395.5,-56.5"/>
<text text-anchor="middle" x="420" y="-63.5" font-family="Helvetica,sans-Serif" font-size="10.00">ar/AR.h</text>
</a>
</g>
</g>
<!-- Node8&#45;&gt;Node9 -->
<g id="edge9" class="edge">
<title>Node8&#45;&gt;Node9</title>
<path fill="none" stroke="midnightblue" d="M402.49,-168.37C405.56,-150.62 412.63,-109.67 416.79,-85.6"/>
<polygon fill="midnightblue" stroke="midnightblue" points="420.26,-86.04 418.52,-75.59 413.36,-84.85 420.26,-86.04"/>
</g>
<!-- Node10 -->
<g id="node10" class="node">
<title>Node10</title>
<g id="a_node10"><a xlink:href="ARQ_8h.html" target="_top" xlink:title=" ">
<polygon fill="white" stroke="black" points="463,-56.5 463,-75.5 519,-75.5 519,-56.5 463,-56.5"/>
<text text-anchor="middle" x="491" y="-63.5" font-family="Helvetica,sans-Serif" font-size="10.00">ar/ARQ.h</text>
</a>
</g>
</g>
<!-- Node8&#45;&gt;Node10 -->
<g id="edge11" class="edge">
<title>Node8&#45;&gt;Node10</title>
<path fill="none" stroke="midnightblue" d="M408.06,-168.37C423.05,-150.05 458.23,-107.05 477.61,-83.36"/>
<polygon fill="midnightblue" stroke="midnightblue" points="480.35,-85.55 483.97,-75.59 474.93,-81.11 480.35,-85.55"/>
</g>
<!-- Node11 -->
<g id="node11" class="node">
<title>Node11</title>
<g id="a_node11"><a xlink:href="mwcc_8h.html" target="_top" xlink:title=" ">
<polygon fill="white" stroke="black" points="304,-112.5 304,-131.5 354,-131.5 354,-112.5 304,-112.5"/>
<text text-anchor="middle" x="329" y="-119.5" font-family="Helvetica,sans-Serif" font-size="10.00">mwcc.h</text>
</a>
</g>
</g>
<!-- Node8&#45;&gt;Node11 -->
<g id="edge13" class="edge">
<title>Node8&#45;&gt;Node11</title>
<path fill="none" stroke="midnightblue" d="M389.43,-168.32C378.58,-160.18 362.12,-147.84 349.12,-138.09"/>
<polygon fill="midnightblue" stroke="midnightblue" points="350.88,-135.03 340.78,-131.83 346.68,-140.63 350.88,-135.03"/>
</g>
<!-- Node12 -->
<g id="node12" class="node">
<title>Node12</title>
<g id="a_node12"><a xlink:href="OS_8h.html" target="_top" xlink:title=" ">
<polygon fill="white" stroke="black" points="234,-112.5 234,-131.5 286,-131.5 286,-112.5 234,-112.5"/>
<text text-anchor="middle" x="260" y="-119.5" font-family="Helvetica,sans-Serif" font-size="10.00">os/OS.h</text>
</a>
</g>
</g>
<!-- Node8&#45;&gt;Node12 -->
<g id="edge14" class="edge">
<title>Node8&#45;&gt;Node12</title>
<path fill="none" stroke="midnightblue" d="M378.66,-168.44C355.25,-159.48 318.26,-145.31 291.81,-135.18"/>
<polygon fill="midnightblue" stroke="midnightblue" points="292.83,-131.82 282.24,-131.52 290.32,-138.36 292.83,-131.82"/>
</g>
<!-- Node9&#45;&gt;Node2 -->
<g id="edge10" class="edge">
<title>Node9&#45;&gt;Node2</title>
<path fill="none" stroke="midnightblue" d="M408.11,-56.32C396.85,-48.11 379.71,-35.6 366.29,-25.81"/>
<polygon fill="midnightblue" stroke="midnightblue" points="368.25,-22.9 358.11,-19.83 364.12,-28.56 368.25,-22.9"/>
</g>
<!-- Node10&#45;&gt;Node2 -->
<g id="edge12" class="edge">
<title>Node10&#45;&gt;Node2</title>
<path fill="none" stroke="midnightblue" d="M468.02,-56.44C443.84,-47.44 405.58,-33.19 378.35,-23.05"/>
<polygon fill="midnightblue" stroke="midnightblue" points="379.46,-19.73 368.87,-19.52 377.02,-26.29 379.46,-19.73"/>
</g>
<!-- Node12&#45;&gt;Node2 -->
<g id="edge15" class="edge">
<title>Node12&#45;&gt;Node2</title>
<path fill="none" stroke="midnightblue" d="M269.06,-112.46C278.11,-103.71 292.22,-89.51 303,-76 315.22,-60.68 327.38,-41.89 335.63,-28.46"/>
<polygon fill="midnightblue" stroke="midnightblue" points="338.72,-30.12 340.9,-19.75 332.73,-26.5 338.72,-30.12"/>
</g>
<!-- Node13 -->
<g id="node13" class="node">
<title>Node13</title>
<g id="a_node13"><a xlink:href="dvd_8h.html" target="_top" xlink:title=" ">
<polygon fill="white" stroke="black" points="235.5,-56.5 235.5,-75.5 294.5,-75.5 294.5,-56.5 235.5,-56.5"/>
<text text-anchor="middle" x="265" y="-63.5" font-family="Helvetica,sans-Serif" font-size="10.00">dvd/dvd.h</text>
</a>
</g>
</g>
<!-- Node12&#45;&gt;Node13 -->
<g id="edge16" class="edge">
<title>Node12&#45;&gt;Node13</title>
<path fill="none" stroke="midnightblue" d="M260.83,-112.08C261.48,-105.01 262.42,-94.86 263.24,-85.99"/>
<polygon fill="midnightblue" stroke="midnightblue" points="266.75,-86.03 264.19,-75.75 259.78,-85.39 266.75,-86.03"/>
</g>
<!-- Node13&#45;&gt;Node2 -->
<g id="edge17" class="edge">
<title>Node13&#45;&gt;Node2</title>
<path fill="none" stroke="midnightblue" d="M278.01,-56.32C290.53,-47.98 309.68,-35.21 324.47,-25.35"/>
<polygon fill="midnightblue" stroke="midnightblue" points="326.64,-28.11 333.02,-19.65 322.76,-22.29 326.64,-28.11"/>
</g>
<!-- Node14&#45;&gt;Node6 -->
<g id="edge20" class="edge">
<title>Node14&#45;&gt;Node6</title>
<path fill="none" stroke="midnightblue" d="M405.44,-336.08C410.95,-328.46 419.03,-317.26 425.76,-307.94"/>
<polygon fill="midnightblue" stroke="midnightblue" points="428.66,-309.91 431.68,-299.75 422.99,-305.81 428.66,-309.91"/>
</g>
<!-- Node14&#45;&gt;Node7 -->
<g id="edge21" class="edge">
<title>Node14&#45;&gt;Node7</title>
<path fill="none" stroke="midnightblue" d="M392.13,-336.33C383.22,-324.03 369.45,-300.68 375,-280 377.65,-270.1 383.07,-260.13 388.27,-252.1"/>
<polygon fill="midnightblue" stroke="midnightblue" points="391.29,-253.89 394.11,-243.68 385.54,-249.91 391.29,-253.89"/>
</g>
<!-- Node15&#45;&gt;Node5 -->
<g id="edge25" class="edge">
<title>Node15&#45;&gt;Node5</title>
<path fill="none" stroke="midnightblue" d="M300.86,-515.34C321.92,-505.87 349.59,-492.67 373,-479 405.77,-459.86 441.43,-433.94 462.74,-417.85"/>
<polygon fill="midnightblue" stroke="midnightblue" points="465.1,-420.45 470.94,-411.61 460.86,-414.88 465.1,-420.45"/>
</g>
<!-- Node15&#45;&gt;Node8 -->
<g id="edge31" class="edge">
<title>Node15&#45;&gt;Node8</title>
<path fill="none" stroke="midnightblue" d="M254.64,-515.2C235.36,-493 202,-448.08 202,-403 202,-403 202,-403 202,-289 202,-215.05 308.57,-190.42 365.73,-182.53"/>
<polygon fill="midnightblue" stroke="midnightblue" points="366.32,-185.99 375.8,-181.25 365.43,-179.04 366.32,-185.99"/>
</g>
<!-- Node16 -->
<g id="node16" class="node">
<title>Node16</title>
<g id="a_node16"><a xlink:href="f__pc__layer_8h.html" target="_top" xlink:title=" ">
<polygon fill="white" stroke="black" points="268,-454 268,-473 364,-473 364,-454 268,-454"/>
<text text-anchor="middle" x="316" y="-461" font-family="Helvetica,sans-Serif" font-size="10.00">f/f_pc/f_pc_layer.h</text>
</a>
</g>
</g>
<!-- Node15&#45;&gt;Node16 -->
<g id="edge26" class="edge">
<title>Node15&#45;&gt;Node16</title>
<path fill="none" stroke="midnightblue" d="M278.42,-515.4C285.83,-505.36 295.81,-491.84 303.63,-481.25"/>
<polygon fill="midnightblue" stroke="midnightblue" points="306.45,-483.32 309.58,-473.19 300.82,-479.16 306.45,-483.32"/>
</g>
<!-- Node16&#45;&gt;Node5 -->
<g id="edge28" class="edge">
<title>Node16&#45;&gt;Node5</title>
<path fill="none" stroke="midnightblue" d="M339.78,-453.98C368.38,-443.72 416.55,-426.46 448.8,-414.9"/>
<polygon fill="midnightblue" stroke="midnightblue" points="450.03,-418.18 458.26,-411.51 447.67,-411.59 450.03,-418.18"/>
</g>
<!-- Node16&#45;&gt;Node7 -->
<g id="edge27" class="edge">
<title>Node16&#45;&gt;Node7</title>
<path fill="none" stroke="midnightblue" d="M316.1,-453.92C316.58,-433.05 319.38,-378.29 335,-336 345.17,-308.47 353.89,-304.54 370,-280 376.19,-270.57 383.33,-260.18 389.19,-251.77"/>
<polygon fill="midnightblue" stroke="midnightblue" points="392.07,-253.75 394.94,-243.55 386.34,-249.73 392.07,-253.75"/>
</g>
<!-- Node16&#45;&gt;Node8 -->
<g id="edge30" class="edge">
<title>Node16&#45;&gt;Node8</title>
<path fill="none" stroke="midnightblue" d="M311.03,-453.84C300.73,-435.03 278,-388.8 278,-347 278,-347 278,-347 278,-289 278,-240.48 331.84,-208.01 368.27,-191.6"/>
<polygon fill="midnightblue" stroke="midnightblue" points="369.78,-194.76 377.58,-187.58 367.01,-188.33 369.78,-194.76"/>
</g>
<!-- Node16&#45;&gt;Node14 -->
<g id="edge29" class="edge">
<title>Node16&#45;&gt;Node14</title>
<path fill="none" stroke="midnightblue" d="M322.24,-453.82C335.94,-434.76 368.86,-388.95 386.81,-363.96"/>
<polygon fill="midnightblue" stroke="midnightblue" points="389.7,-365.95 392.69,-355.78 384.01,-361.86 389.7,-365.95"/>
</g>
<!-- Node17&#45;&gt;Node5 -->
<g id="edge33" class="edge">
<title>Node17&#45;&gt;Node5</title>
<path fill="none" stroke="midnightblue" d="M397.25,-520.81C412.19,-500.04 450.15,-447.27 469.8,-419.96"/>
<polygon fill="midnightblue" stroke="midnightblue" points="472.7,-421.92 475.7,-411.76 467.02,-417.83 472.7,-421.92"/>
</g>
<!-- Node17&#45;&gt;Node8 -->
<g id="edge35" class="edge">
<title>Node17&#45;&gt;Node8</title>
<path fill="none" stroke="midnightblue" d="M359.16,-520.99C324.62,-511.15 272.59,-494.33 259,-479 235.91,-452.94 240,-437.82 240,-403 240,-403 240,-403 240,-289 240,-228.45 318.6,-198.81 365.97,-186.45"/>
<polygon fill="midnightblue" stroke="midnightblue" points="366.98,-189.8 375.84,-184 365.3,-183.01 366.98,-189.8"/>
</g>
<!-- Node17&#45;&gt;Node16 -->
<g id="edge34" class="edge">
<title>Node17&#45;&gt;Node16</title>
<path fill="none" stroke="midnightblue" d="M380.89,-520.73C368.85,-510.31 348.55,-492.71 333.85,-479.97"/>
<polygon fill="midnightblue" stroke="midnightblue" points="335.8,-477.03 325.95,-473.13 331.22,-482.32 335.8,-477.03"/>
</g>
<!-- Node18&#45;&gt;Node5 -->
<g id="edge37" class="edge">
<title>Node18&#45;&gt;Node5</title>
<path fill="none" stroke="midnightblue" d="M676.48,-453.98C636.44,-443.48 568.36,-425.64 524.3,-414.09"/>
<polygon fill="midnightblue" stroke="midnightblue" points="525.02,-410.66 514.46,-411.51 523.25,-417.43 525.02,-410.66"/>
</g>
<!-- Node18&#45;&gt;Node8 -->
<g id="edge38" class="edge">
<title>Node18&#45;&gt;Node8</title>
<path fill="none" stroke="midnightblue" d="M703.38,-453.92C691.72,-435.29 666,-389.37 666,-347 666,-347 666,-347 666,-289 666,-190.72 508.6,-178.59 436.41,-178.2"/>
<polygon fill="midnightblue" stroke="midnightblue" points="436.4,-174.7 426.41,-178.21 436.42,-181.7 436.4,-174.7"/>
</g>
<!-- Node19&#45;&gt;Node5 -->
<g id="edge40" class="edge">
<title>Node19&#45;&gt;Node5</title>
<path fill="none" stroke="midnightblue" d="M551.2,-520.64C544.68,-510.63 533.86,-493.78 525,-479 513.11,-459.16 500.12,-435.97 491.56,-420.47"/>
<polygon fill="midnightblue" stroke="midnightblue" points="494.52,-418.59 486.64,-411.51 488.39,-421.96 494.52,-418.59"/>
</g>
<!-- Node20 -->
<g id="node20" class="node">
<title>Node20</title>
<g id="a_node20"><a xlink:href="f__pc__method__tag_8h.html" target="_top" xlink:title=" ">
<polygon fill="white" stroke="black" points="534.5,-448.5 534.5,-478.5 635.5,-478.5 635.5,-448.5 534.5,-448.5"/>
<text text-anchor="start" x="542.5" y="-466.5" font-family="Helvetica,sans-Serif" font-size="10.00">f/f_pc/f_pc_method</text>
<text text-anchor="middle" x="585" y="-455.5" font-family="Helvetica,sans-Serif" font-size="10.00">_tag.h</text>
</a>
</g>
</g>
<!-- Node19&#45;&gt;Node20 -->
<g id="edge41" class="edge">
<title>Node19&#45;&gt;Node20</title>
<path fill="none" stroke="midnightblue" d="M560.78,-520.73C564.38,-512.37 569.97,-499.4 574.87,-488.02"/>
<polygon fill="midnightblue" stroke="midnightblue" points="578.19,-489.16 578.93,-478.59 571.76,-486.39 578.19,-489.16"/>
</g>
<!-- Node20&#45;&gt;Node5 -->
<g id="edge42" class="edge">
<title>Node20&#45;&gt;Node5</title>
<path fill="none" stroke="midnightblue" d="M560.59,-448.4C544.08,-438.86 522.38,-426.32 505.96,-416.84"/>
<polygon fill="midnightblue" stroke="midnightblue" points="507.4,-413.63 496.99,-411.66 503.9,-419.69 507.4,-413.63"/>
</g>
<!-- Node20&#45;&gt;Node8 -->
<g id="edge43" class="edge">
<title>Node20&#45;&gt;Node8</title>
<path fill="none" stroke="midnightblue" d="M587.23,-448.32C590.44,-426.57 596,-383.66 596,-347 596,-347 596,-347 596,-289 596,-216.52 492.53,-191.26 436.33,-182.89"/>
<polygon fill="midnightblue" stroke="midnightblue" points="436.48,-179.38 426.09,-181.48 435.52,-186.32 436.48,-179.38"/>
</g>
<!-- Node21&#45;&gt;Node8 -->
<g id="edge47" class="edge">
<title>Node21&#45;&gt;Node8</title>
<path fill="none" stroke="midnightblue" d="M153.38,-520.94C156.53,-500.56 164,-447.56 164,-403 164,-403 164,-403 164,-289 164,-201.34 299.04,-183.34 365.25,-179.79"/>
<polygon fill="midnightblue" stroke="midnightblue" points="365.81,-183.27 375.64,-179.32 365.49,-176.27 365.81,-183.27"/>
</g>
<!-- Node21&#45;&gt;Node22 -->
<g id="edge45" class="edge">
<title>Node21&#45;&gt;Node22</title>
<path fill="none" stroke="midnightblue" d="M142.56,-520.73C131.33,-510.31 112.38,-492.71 98.66,-479.97"/>
<polygon fill="midnightblue" stroke="midnightblue" points="101,-477.37 91.29,-473.13 96.24,-482.5 101,-477.37"/>
</g>
<!-- Node22&#45;&gt;Node8 -->
<g id="edge46" class="edge">
<title>Node22&#45;&gt;Node8</title>
<path fill="none" stroke="midnightblue" d="M84.79,-453.91C90.71,-434.88 104,-387.62 104,-347 104,-347 104,-347 104,-289 104,-253.61 120.13,-242.98 150,-224 185.25,-201.6 304.88,-187.77 365.36,-182.05"/>
<polygon fill="midnightblue" stroke="midnightblue" points="365.95,-185.51 375.59,-181.11 365.31,-178.54 365.95,-185.51"/>
</g>
<!-- Node23&#45;&gt;Node8 -->
<g id="edge49" class="edge">
<title>Node23&#45;&gt;Node8</title>
<path fill="none" stroke="midnightblue" d="M828.99,-392.15C825.09,-362.66 808.27,-267.14 750,-224 700.82,-187.59 514.9,-180.61 436.36,-179.29"/>
<polygon fill="midnightblue" stroke="midnightblue" points="436.07,-175.79 426.02,-179.14 435.96,-182.79 436.07,-175.79"/>
</g>
</g>
</svg>
