<?xml version="1.0" encoding="UTF-8" standalone="no"?>
<!DOCTYPE svg PUBLIC "-//W3C//DTD SVG 1.1//EN"
 "http://www.w3.org/Graphics/SVG/1.1/DTD/svg11.dtd">
<!-- Generated by graphviz version 2.44.0 ()
 -->
<!-- Title: src/f/f_op/f_op_scene_mng.cpp Pages: 1 -->
<!--zoomable 957 -->
<svg id="main" version="1.1" xmlns="http://www.w3.org/2000/svg" xmlns:xlink="http://www.w3.org/1999/xlink" xml:space="preserve" onload="init(evt)">
<style type="text/css"><![CDATA[
.edge:hover path { stroke: red; }
.edge:hover polygon { stroke: red; fill: red; }
]]></style>
<script type="text/javascript"><![CDATA[
var edges = document.getElementsByTagName('g');
if (edges && edges.length) {
  for (var i=0;i<edges.length;i++) {
    if (edges[i].id.substr(0,4)=='edge') {
      edges[i].setAttribute('class','edge');
    }
  }
}
]]></script>
        <defs>
                <circle id="rim" cx="0" cy="0" r="7"/>
                <circle id="rim2" cx="0" cy="0" r="3.5"/>
                <g id="zoomPlus">
                        <use xlink:href="#rim" fill="#404040">
                                <set attributeName="fill" to="#808080" begin="zoomplus.mouseover" end="zoomplus.mouseout"/>
                        </use>
                        <path d="M-4,0h8M0,-4v8" fill="none" stroke="white" stroke-width="1.5" pointer-events="none"/>
                </g>
                <g id="zoomMin">
                        <use xlink:href="#rim" fill="#404040">
                                <set attributeName="fill" to="#808080" begin="zoomminus.mouseover" end="zoomminus.mouseout"/>
                        </use>
                        <path d="M-4,0h8" fill="none" stroke="white" stroke-width="1.5" pointer-events="none"/>
                </g>
                <g id="dirArrow">
                        <path fill="none" stroke="white" stroke-width="1.5" d="M0,-3.0v7 M-2.5,-0.5L0,-3.0L2.5,-0.5"/>
                </g>
               <g id="resetDef">
                       <use xlink:href="#rim2" fill="#404040">
                               <set attributeName="fill" to="#808080" begin="reset.mouseover" end="reset.mouseout"/>
                       </use>
               </g>
        </defs>

<script type="text/javascript">
var viewWidth = 1316;
var viewHeight = 957;
var sectionId = 'dynsection-0';
</script>
<script xlink:href="svgpan.js"/>
<svg id="graph" class="graph">
<g id="viewport">
<title>src/f/f_op/f_op_scene_mng.cpp</title>
<polygon fill="white" stroke="transparent" points="-4,4 -4,-953 1311.5,-953 1311.5,4 -4,4"/>
<!-- Node1 -->
<g id="node1" class="node">
<title>Node1</title>
<g id="a_node1"><a xlink:title=" ">
<polygon fill="#bfbfbf" stroke="black" points="665,-918.5 665,-948.5 776,-948.5 776,-918.5 665,-918.5"/>
<text text-anchor="start" x="673" y="-936.5" font-family="Helvetica,sans-Serif" font-size="10.00">src/f/f_op/f_op_scene</text>
<text text-anchor="middle" x="720.5" y="-925.5" font-family="Helvetica,sans-Serif" font-size="10.00">_mng.cpp</text>
</a>
</g>
</g>
<!-- Node2 -->
<g id="node2" class="node">
<title>Node2</title>
<g id="a_node2"><a xlink:href="f__op__scene__mng_8h.html" target="_top" xlink:title=" ">
<polygon fill="white" stroke="black" points="564.5,-862.5 564.5,-881.5 690.5,-881.5 690.5,-862.5 564.5,-862.5"/>
<text text-anchor="middle" x="627.5" y="-869.5" font-family="Helvetica,sans-Serif" font-size="10.00">f/f_op/f_op_scene_mng.h</text>
</a>
</g>
</g>
<!-- Node1&#45;&gt;Node2 -->
<g id="edge1" class="edge">
<title>Node1&#45;&gt;Node2</title>
<path fill="none" stroke="midnightblue" d="M698.46,-918.4C683.69,-908.95 664.32,-896.56 649.55,-887.11"/>
<polygon fill="midnightblue" stroke="midnightblue" points="651.34,-884.1 641.03,-881.66 647.57,-890 651.34,-884.1"/>
</g>
<!-- Node12 -->
<g id="node12" class="node">
<title>Node12</title>
<g id="a_node12"><a xlink:href="global_8h.html" target="_top" xlink:title=" ">
<polygon fill="white" stroke="black" points="662.5,-168.5 662.5,-187.5 712.5,-187.5 712.5,-168.5 662.5,-168.5"/>
<text text-anchor="middle" x="687.5" y="-175.5" font-family="Helvetica,sans-Serif" font-size="10.00">global.h</text>
</a>
</g>
</g>
<!-- Node1&#45;&gt;Node12 -->
<g id="edge73" class="edge">
<title>Node1&#45;&gt;Node12</title>
<path fill="none" stroke="midnightblue" d="M776.25,-933.24C922.78,-933.69 1307.5,-924.63 1307.5,-817 1307.5,-817 1307.5,-817 1307.5,-345 1307.5,-223.07 854.4,-188.29 722.88,-180.77"/>
<polygon fill="midnightblue" stroke="midnightblue" points="722.75,-177.26 712.57,-180.2 722.36,-184.25 722.75,-177.26"/>
</g>
<!-- Node27 -->
<g id="node27" class="node">
<title>Node27</title>
<g id="a_node27"><a xlink:href="f__op__scene__iter_8h.html" target="_top" xlink:title=" ">
<polygon fill="white" stroke="black" points="0,-638.5 0,-657.5 121,-657.5 121,-638.5 0,-638.5"/>
<text text-anchor="middle" x="60.5" y="-645.5" font-family="Helvetica,sans-Serif" font-size="10.00">f/f_op/f_op_scene_iter.h</text>
</a>
</g>
</g>
<!-- Node1&#45;&gt;Node27 -->
<g id="edge57" class="edge">
<title>Node1&#45;&gt;Node27</title>
<path fill="none" stroke="midnightblue" d="M664.79,-928.21C510.08,-915.54 86.5,-875.53 86.5,-817 86.5,-817 86.5,-817 86.5,-759 86.5,-725.93 75.23,-688.73 67.53,-667.17"/>
<polygon fill="midnightblue" stroke="midnightblue" points="70.77,-665.83 64.01,-657.68 64.21,-668.27 70.77,-665.83"/>
</g>
<!-- Node28 -->
<g id="node28" class="node">
<title>Node28</title>
<g id="a_node28"><a xlink:href="f__op__scene__req_8h.html" target="_top" xlink:title=" ">
<polygon fill="white" stroke="black" points="947,-862.5 947,-881.5 1068,-881.5 1068,-862.5 947,-862.5"/>
<text text-anchor="middle" x="1007.5" y="-869.5" font-family="Helvetica,sans-Serif" font-size="10.00">f/f_op/f_op_scene_req.h</text>
</a>
</g>
</g>
<!-- Node1&#45;&gt;Node28 -->
<g id="edge60" class="edge">
<title>Node1&#45;&gt;Node28</title>
<path fill="none" stroke="midnightblue" d="M776.18,-920.96C828.33,-910.14 905.64,-894.12 956.29,-883.62"/>
<polygon fill="midnightblue" stroke="midnightblue" points="957.29,-886.98 966.37,-881.53 955.86,-880.13 957.29,-886.98"/>
</g>
<!-- Node31 -->
<g id="node31" class="node">
<title>Node31</title>
<g id="a_node31"><a xlink:href="f__pc__searcher_8h.html" target="_top" xlink:title=" ">
<polygon fill="white" stroke="black" points="634,-638.5 634,-657.5 747,-657.5 747,-638.5 634,-638.5"/>
<text text-anchor="middle" x="690.5" y="-645.5" font-family="Helvetica,sans-Serif" font-size="10.00">f/f_pc/f_pc_searcher.h</text>
</a>
</g>
</g>
<!-- Node1&#45;&gt;Node31 -->
<g id="edge70" class="edge">
<title>Node1&#45;&gt;Node31</title>
<path fill="none" stroke="midnightblue" d="M720.5,-918.28C720.5,-896.48 720.5,-853.49 720.5,-817 720.5,-817 720.5,-817 720.5,-759 720.5,-725.64 707.5,-688.53 698.61,-667.07"/>
<polygon fill="midnightblue" stroke="midnightblue" points="701.72,-665.42 694.55,-657.62 695.29,-668.19 701.72,-665.42"/>
</g>
<!-- Node3 -->
<g id="node3" class="node">
<title>Node3</title>
<g id="a_node3"><a xlink:href="f__op__scene__pause_8h.html" target="_top" xlink:title=" ">
<polygon fill="white" stroke="black" points="558.5,-806.5 558.5,-825.5 692.5,-825.5 692.5,-806.5 558.5,-806.5"/>
<text text-anchor="middle" x="625.5" y="-813.5" font-family="Helvetica,sans-Serif" font-size="10.00">f/f_op/f_op_scene_pause.h</text>
</a>
</g>
</g>
<!-- Node2&#45;&gt;Node3 -->
<g id="edge2" class="edge">
<title>Node2&#45;&gt;Node3</title>
<path fill="none" stroke="midnightblue" d="M627.17,-862.08C626.91,-855.01 626.53,-844.86 626.2,-835.99"/>
<polygon fill="midnightblue" stroke="midnightblue" points="629.69,-835.61 625.82,-825.75 622.7,-835.87 629.69,-835.61"/>
</g>
<!-- Node4 -->
<g id="node4" class="node">
<title>Node4</title>
<g id="a_node4"><a xlink:href="types_8h.html" target="_top" xlink:title=" ">
<polygon fill="white" stroke="black" points="546,-0.5 546,-19.5 627,-19.5 627,-0.5 546,-0.5"/>
<text text-anchor="middle" x="586.5" y="-7.5" font-family="Helvetica,sans-Serif" font-size="10.00">dolphin/types.h</text>
</a>
</g>
</g>
<!-- Node3&#45;&gt;Node4 -->
<g id="edge3" class="edge">
<title>Node3&#45;&gt;Node4</title>
<path fill="none" stroke="midnightblue" d="M558.31,-813.36C427.1,-808.34 149.5,-787.91 149.5,-705 149.5,-705 149.5,-705 149.5,-121 149.5,-76.55 184.84,-73.95 225.5,-56 279.98,-31.95 450.09,-18.91 535.91,-13.71"/>
<polygon fill="midnightblue" stroke="midnightblue" points="536.17,-17.21 545.95,-13.12 535.76,-10.22 536.17,-17.21"/>
</g>
<!-- Node5 -->
<g id="node5" class="node">
<title>Node5</title>
<g id="a_node5"><a xlink:href="f__op__scene_8h.html" target="_top" xlink:title=" ">
<polygon fill="white" stroke="black" points="574.5,-750.5 574.5,-769.5 676.5,-769.5 676.5,-750.5 574.5,-750.5"/>
<text text-anchor="middle" x="625.5" y="-757.5" font-family="Helvetica,sans-Serif" font-size="10.00">f/f_op/f_op_scene.h</text>
</a>
</g>
</g>
<!-- Node3&#45;&gt;Node5 -->
<g id="edge4" class="edge">
<title>Node3&#45;&gt;Node5</title>
<path fill="none" stroke="midnightblue" d="M625.5,-806.08C625.5,-799.01 625.5,-788.86 625.5,-779.99"/>
<polygon fill="midnightblue" stroke="midnightblue" points="629,-779.75 625.5,-769.75 622,-779.75 629,-779.75"/>
</g>
<!-- Node5&#45;&gt;Node4 -->
<g id="edge5" class="edge">
<title>Node5&#45;&gt;Node4</title>
<path fill="none" stroke="midnightblue" d="M676.65,-757.06C787.91,-752.38 1044.41,-739 1074.5,-714 1097.65,-694.77 1093.5,-679.1 1093.5,-649 1093.5,-649 1093.5,-649 1093.5,-121 1093.5,-28.36 766.11,-13.57 637.5,-11.34"/>
<polygon fill="midnightblue" stroke="midnightblue" points="637.19,-7.84 627.13,-11.18 637.08,-14.84 637.19,-7.84"/>
</g>
<!-- Node6 -->
<g id="node6" class="node">
<title>Node6</title>
<g id="a_node6"><a xlink:href="f__op__scene__tag_8h.html" target="_top" xlink:title=" ">
<polygon fill="white" stroke="black" points="476,-694.5 476,-713.5 597,-713.5 597,-694.5 476,-694.5"/>
<text text-anchor="middle" x="536.5" y="-701.5" font-family="Helvetica,sans-Serif" font-size="10.00">f/f_op/f_op_scene_tag.h</text>
</a>
</g>
</g>
<!-- Node5&#45;&gt;Node6 -->
<g id="edge6" class="edge">
<title>Node5&#45;&gt;Node6</title>
<path fill="none" stroke="midnightblue" d="M611.2,-750.32C597.32,-741.9 576.01,-728.97 559.7,-719.07"/>
<polygon fill="midnightblue" stroke="midnightblue" points="561.13,-715.85 550.76,-713.65 557.5,-721.83 561.13,-715.85"/>
</g>
<!-- Node7 -->
<g id="node7" class="node">
<title>Node7</title>
<g id="a_node7"><a xlink:href="f__pc__node_8h.html" target="_top" xlink:title=" ">
<polygon fill="white" stroke="black" points="519,-638.5 519,-657.5 616,-657.5 616,-638.5 519,-638.5"/>
<text text-anchor="middle" x="567.5" y="-645.5" font-family="Helvetica,sans-Serif" font-size="10.00">f/f_pc/f_pc_node.h</text>
</a>
</g>
</g>
<!-- Node5&#45;&gt;Node7 -->
<g id="edge56" class="edge">
<title>Node5&#45;&gt;Node7</title>
<path fill="none" stroke="midnightblue" d="M624.15,-750.13C621.91,-737.17 616.63,-712.58 606.5,-694 600.71,-683.38 592.07,-673.07 584.39,-665"/>
<polygon fill="midnightblue" stroke="midnightblue" points="586.71,-662.37 577.17,-657.75 581.74,-667.31 586.71,-662.37"/>
</g>
<!-- Node6&#45;&gt;Node4 -->
<g id="edge7" class="edge">
<title>Node6&#45;&gt;Node4</title>
<path fill="none" stroke="midnightblue" d="M475.71,-696.48C375.72,-684.05 187.5,-652.72 187.5,-593 187.5,-593 187.5,-593 187.5,-121 187.5,-49.56 428.2,-22.74 535.7,-14.32"/>
<polygon fill="midnightblue" stroke="midnightblue" points="535.97,-17.81 545.68,-13.56 535.44,-10.83 535.97,-17.81"/>
</g>
<!-- Node6&#45;&gt;Node7 -->
<g id="edge8" class="edge">
<title>Node6&#45;&gt;Node7</title>
<path fill="none" stroke="midnightblue" d="M541.62,-694.08C545.91,-686.61 552.16,-675.72 557.44,-666.52"/>
<polygon fill="midnightblue" stroke="midnightblue" points="560.53,-668.17 562.48,-657.75 554.46,-664.68 560.53,-668.17"/>
</g>
<!-- Node8 -->
<g id="node8" class="node">
<title>Node8</title>
<g id="a_node8"><a xlink:href="f__pc__base_8h.html" target="_top" xlink:title=" ">
<polygon fill="white" stroke="black" points="531,-582.5 531,-601.5 628,-601.5 628,-582.5 531,-582.5"/>
<text text-anchor="middle" x="579.5" y="-589.5" font-family="Helvetica,sans-Serif" font-size="10.00">f/f_pc/f_pc_base.h</text>
</a>
</g>
</g>
<!-- Node7&#45;&gt;Node8 -->
<g id="edge9" class="edge">
<title>Node7&#45;&gt;Node8</title>
<path fill="none" stroke="midnightblue" d="M569.48,-638.08C571.07,-630.93 573.36,-620.64 575.35,-611.69"/>
<polygon fill="midnightblue" stroke="midnightblue" points="578.8,-612.27 577.56,-601.75 571.97,-610.75 578.8,-612.27"/>
</g>
<!-- Node20 -->
<g id="node20" class="node">
<title>Node20</title>
<g id="a_node20"><a xlink:href="f__pc__layer_8h.html" target="_top" xlink:title=" ">
<polygon fill="white" stroke="black" points="253.5,-454 253.5,-473 349.5,-473 349.5,-454 253.5,-454"/>
<text text-anchor="middle" x="301.5" y="-461" font-family="Helvetica,sans-Serif" font-size="10.00">f/f_pc/f_pc_layer.h</text>
</a>
</g>
</g>
<!-- Node7&#45;&gt;Node20 -->
<g id="edge54" class="edge">
<title>Node7&#45;&gt;Node20</title>
<path fill="none" stroke="midnightblue" d="M518.94,-645.95C452.37,-641.59 334.84,-622.73 280.5,-546 266.89,-526.78 278.74,-499.46 289.38,-481.86"/>
<polygon fill="midnightblue" stroke="midnightblue" points="292.5,-483.48 295.01,-473.19 286.63,-479.68 292.5,-483.48"/>
</g>
<!-- Node26 -->
<g id="node26" class="node">
<title>Node26</title>
<g id="a_node26"><a xlink:href="f__pc__method_8h.html" target="_top" xlink:title=" ">
<polygon fill="white" stroke="black" points="881.5,-454 881.5,-473 989.5,-473 989.5,-454 881.5,-454"/>
<text text-anchor="middle" x="935.5" y="-461" font-family="Helvetica,sans-Serif" font-size="10.00">f/f_pc/f_pc_method.h</text>
</a>
</g>
</g>
<!-- Node7&#45;&gt;Node26 -->
<g id="edge55" class="edge">
<title>Node7&#45;&gt;Node26</title>
<path fill="none" stroke="midnightblue" d="M606,-638.5C693.44,-618.85 901.07,-570.14 922.5,-546 937.62,-528.96 938.97,-501.65 937.83,-483.4"/>
<polygon fill="midnightblue" stroke="midnightblue" points="941.31,-483.01 936.89,-473.38 934.34,-483.66 941.31,-483.01"/>
</g>
<!-- Node9 -->
<g id="node9" class="node">
<title>Node9</title>
<g id="a_node9"><a xlink:href="c__tag_8h.html" target="_top" xlink:title=" ">
<polygon fill="white" stroke="black" points="414,-392.5 414,-411.5 521,-411.5 521,-392.5 414,-392.5"/>
<text text-anchor="middle" x="467.5" y="-399.5" font-family="Helvetica,sans-Serif" font-size="10.00">SComponent/c_tag.h</text>
</a>
</g>
</g>
<!-- Node8&#45;&gt;Node9 -->
<g id="edge10" class="edge">
<title>Node8&#45;&gt;Node9</title>
<path fill="none" stroke="midnightblue" d="M530.68,-590.09C497.45,-586.61 455.63,-575.98 433.5,-546 405.18,-507.63 436.32,-449.08 455.21,-420.26"/>
<polygon fill="midnightblue" stroke="midnightblue" points="458.3,-421.93 461.04,-411.69 452.52,-417.99 458.3,-421.93"/>
</g>
<!-- Node8&#45;&gt;Node12 -->
<g id="edge29" class="edge">
<title>Node8&#45;&gt;Node12</title>
<path fill="none" stroke="midnightblue" d="M626.48,-582.48C656.53,-575.66 695.53,-564.16 726.5,-546 791.08,-508.14 815.5,-477.86 815.5,-403 815.5,-403 815.5,-403 815.5,-289 815.5,-239.64 760.08,-207.61 722.17,-191.48"/>
<polygon fill="midnightblue" stroke="midnightblue" points="723.07,-188.06 712.48,-187.53 720.43,-194.55 723.07,-188.06"/>
</g>
<!-- Node19 -->
<g id="node19" class="node">
<title>Node19</title>
<g id="a_node19"><a xlink:href="f__pc__delete__tag_8h.html" target="_top" xlink:title=" ">
<polygon fill="white" stroke="black" points="290,-515.5 290,-545.5 385,-545.5 385,-515.5 290,-515.5"/>
<text text-anchor="start" x="298" y="-533.5" font-family="Helvetica,sans-Serif" font-size="10.00">f/f_pc/f_pc_delete</text>
<text text-anchor="middle" x="337.5" y="-522.5" font-family="Helvetica,sans-Serif" font-size="10.00">_tag.h</text>
</a>
</g>
</g>
<!-- Node8&#45;&gt;Node19 -->
<g id="edge30" class="edge">
<title>Node8&#45;&gt;Node19</title>
<path fill="none" stroke="midnightblue" d="M544.83,-582.48C505.74,-572.87 441.58,-557.09 394.98,-545.63"/>
<polygon fill="midnightblue" stroke="midnightblue" points="395.56,-542.17 385.02,-543.18 393.89,-548.97 395.56,-542.17"/>
</g>
<!-- Node21 -->
<g id="node21" class="node">
<title>Node21</title>
<g id="a_node21"><a xlink:href="f__pc__layer__tag_8h.html" target="_top" xlink:title=" ">
<polygon fill="white" stroke="black" points="442,-521 442,-540 557,-540 557,-521 442,-521"/>
<text text-anchor="middle" x="499.5" y="-528" font-family="Helvetica,sans-Serif" font-size="10.00">f/f_pc/f_pc_layer_tag.h</text>
</a>
</g>
</g>
<!-- Node8&#45;&gt;Node21 -->
<g id="edge38" class="edge">
<title>Node8&#45;&gt;Node21</title>
<path fill="none" stroke="midnightblue" d="M568.04,-582.48C555.33,-573.02 534.59,-557.6 519.25,-546.19"/>
<polygon fill="midnightblue" stroke="midnightblue" points="521.05,-543.17 510.94,-540.01 516.88,-548.79 521.05,-543.17"/>
</g>
<!-- Node22 -->
<g id="node22" class="node">
<title>Node22</title>
<g id="a_node22"><a xlink:href="f__pc__line__tag_8h.html" target="_top" xlink:title=" ">
<polygon fill="white" stroke="black" points="557.5,-454 557.5,-473 667.5,-473 667.5,-454 557.5,-454"/>
<text text-anchor="middle" x="612.5" y="-461" font-family="Helvetica,sans-Serif" font-size="10.00">f/f_pc/f_pc_line_tag.h</text>
</a>
</g>
</g>
<!-- Node8&#45;&gt;Node22 -->
<g id="edge42" class="edge">
<title>Node8&#45;&gt;Node22</title>
<path fill="none" stroke="midnightblue" d="M581.77,-582.31C587.07,-561.99 600.36,-511.05 607.6,-483.28"/>
<polygon fill="midnightblue" stroke="midnightblue" points="611.08,-483.82 610.22,-473.26 604.3,-482.05 611.08,-483.82"/>
</g>
<!-- Node23 -->
<g id="node23" class="node">
<title>Node23</title>
<g id="a_node23"><a xlink:href="f__pc__priority_8h.html" target="_top" xlink:title=" ">
<polygon fill="white" stroke="black" points="613.5,-521 613.5,-540 717.5,-540 717.5,-521 613.5,-521"/>
<text text-anchor="middle" x="665.5" y="-528" font-family="Helvetica,sans-Serif" font-size="10.00">f/f_pc/f_pc_priority.h</text>
</a>
</g>
</g>
<!-- Node8&#45;&gt;Node23 -->
<g id="edge45" class="edge">
<title>Node8&#45;&gt;Node23</title>
<path fill="none" stroke="midnightblue" d="M591.82,-582.48C605.62,-572.93 628.2,-557.31 644.73,-545.87"/>
<polygon fill="midnightblue" stroke="midnightblue" points="646.97,-548.58 653.2,-540.01 642.99,-542.82 646.97,-548.58"/>
</g>
<!-- Node25 -->
<g id="node25" class="node">
<title>Node25</title>
<g id="a_node25"><a xlink:href="f__pc__profile_8h.html" target="_top" xlink:title=" ">
<polygon fill="white" stroke="black" points="812,-521 812,-540 913,-540 913,-521 812,-521"/>
<text text-anchor="middle" x="862.5" y="-528" font-family="Helvetica,sans-Serif" font-size="10.00">f/f_pc/f_pc_profile.h</text>
</a>
</g>
</g>
<!-- Node8&#45;&gt;Node25 -->
<g id="edge50" class="edge">
<title>Node8&#45;&gt;Node25</title>
<path fill="none" stroke="midnightblue" d="M621.74,-582.49C665.69,-573.58 736.48,-559.1 797.5,-546 803.15,-544.79 809.07,-543.5 814.94,-542.2"/>
<polygon fill="midnightblue" stroke="midnightblue" points="815.71,-545.62 824.71,-540.04 814.19,-538.78 815.71,-545.62"/>
</g>
<!-- Node10 -->
<g id="node10" class="node">
<title>Node10</title>
<g id="a_node10"><a xlink:href="c__list_8h.html" target="_top" xlink:title=" ">
<polygon fill="white" stroke="black" points="370,-280.5 370,-299.5 477,-299.5 477,-280.5 370,-280.5"/>
<text text-anchor="middle" x="423.5" y="-287.5" font-family="Helvetica,sans-Serif" font-size="10.00">SComponent/c_list.h</text>
</a>
</g>
</g>
<!-- Node9&#45;&gt;Node10 -->
<g id="edge11" class="edge">
<title>Node9&#45;&gt;Node10</title>
<path fill="none" stroke="midnightblue" d="M465.63,-392.38C462.74,-379.73 456.66,-355.53 448.5,-336 444.54,-326.52 439.09,-316.47 434.29,-308.29"/>
<polygon fill="midnightblue" stroke="midnightblue" points="437.25,-306.42 429.08,-299.67 431.26,-310.04 437.25,-306.42"/>
</g>
<!-- Node11 -->
<g id="node11" class="node">
<title>Node11</title>
<g id="a_node11"><a xlink:href="c__node_8h.html" target="_top" xlink:title=" ">
<polygon fill="white" stroke="black" points="366,-224.5 366,-243.5 481,-243.5 481,-224.5 366,-224.5"/>
<text text-anchor="middle" x="423.5" y="-231.5" font-family="Helvetica,sans-Serif" font-size="10.00">SComponent/c_node.h</text>
</a>
</g>
</g>
<!-- Node9&#45;&gt;Node11 -->
<g id="edge24" class="edge">
<title>Node9&#45;&gt;Node11</title>
<path fill="none" stroke="midnightblue" d="M472.3,-392.22C482.96,-371.45 506.15,-318.19 486.5,-280 479.42,-266.25 465.98,-255.77 453.32,-248.39"/>
<polygon fill="midnightblue" stroke="midnightblue" points="454.81,-245.22 444.35,-243.57 451.5,-251.39 454.81,-245.22"/>
</g>
<!-- Node9&#45;&gt;Node12 -->
<g id="edge28" class="edge">
<title>Node9&#45;&gt;Node12</title>
<path fill="none" stroke="midnightblue" d="M475.29,-392.47C483.03,-383.73 494.95,-369.54 503.5,-356 538.3,-300.87 519.31,-267.92 567.5,-224 591.16,-202.43 626.14,-190.89 652.23,-184.92"/>
<polygon fill="midnightblue" stroke="midnightblue" points="653.05,-188.33 662.11,-182.83 651.6,-181.48 653.05,-188.33"/>
</g>
<!-- Node18 -->
<g id="node18" class="node">
<title>Node18</title>
<g id="a_node18"><a xlink:href="c__tree_8h.html" target="_top" xlink:title=" ">
<polygon fill="white" stroke="black" points="329.5,-336.5 329.5,-355.5 439.5,-355.5 439.5,-336.5 329.5,-336.5"/>
<text text-anchor="middle" x="384.5" y="-343.5" font-family="Helvetica,sans-Serif" font-size="10.00">SComponent/c_tree.h</text>
</a>
</g>
</g>
<!-- Node9&#45;&gt;Node18 -->
<g id="edge25" class="edge">
<title>Node9&#45;&gt;Node18</title>
<path fill="none" stroke="midnightblue" d="M454.16,-392.32C441.34,-383.98 421.72,-371.21 406.56,-361.35"/>
<polygon fill="midnightblue" stroke="midnightblue" points="408.09,-358.17 397.8,-355.65 404.28,-364.04 408.09,-358.17"/>
</g>
<!-- Node10&#45;&gt;Node11 -->
<g id="edge12" class="edge">
<title>Node10&#45;&gt;Node11</title>
<path fill="none" stroke="midnightblue" d="M423.5,-280.08C423.5,-273.01 423.5,-262.86 423.5,-253.99"/>
<polygon fill="midnightblue" stroke="midnightblue" points="427,-253.75 423.5,-243.75 420,-253.75 427,-253.75"/>
</g>
<!-- Node11&#45;&gt;Node12 -->
<g id="edge13" class="edge">
<title>Node11&#45;&gt;Node12</title>
<path fill="none" stroke="midnightblue" d="M465.33,-224.44C516.94,-213.89 603.77,-196.13 652.18,-186.22"/>
<polygon fill="midnightblue" stroke="midnightblue" points="653.09,-189.61 662.19,-184.18 651.69,-182.75 653.09,-189.61"/>
</g>
<!-- Node12&#45;&gt;Node4 -->
<g id="edge14" class="edge">
<title>Node12&#45;&gt;Node4</title>
<path fill="none" stroke="midnightblue" d="M682.07,-168.08C665.97,-141.61 618.27,-63.21 596.97,-28.21"/>
<polygon fill="midnightblue" stroke="midnightblue" points="599.9,-26.29 591.71,-19.57 593.92,-29.93 599.9,-26.29"/>
</g>
<!-- Node13 -->
<g id="node13" class="node">
<title>Node13</title>
<g id="a_node13"><a xlink:href="AR_8h.html" target="_top" xlink:title=" ">
<polygon fill="white" stroke="black" points="644,-56.5 644,-75.5 693,-75.5 693,-56.5 644,-56.5"/>
<text text-anchor="middle" x="668.5" y="-63.5" font-family="Helvetica,sans-Serif" font-size="10.00">ar/AR.h</text>
</a>
</g>
</g>
<!-- Node12&#45;&gt;Node13 -->
<g id="edge15" class="edge">
<title>Node12&#45;&gt;Node13</title>
<path fill="none" stroke="midnightblue" d="M686.01,-168.37C682.94,-150.62 675.87,-109.67 671.71,-85.6"/>
<polygon fill="midnightblue" stroke="midnightblue" points="675.14,-84.85 669.98,-75.59 668.24,-86.04 675.14,-84.85"/>
</g>
<!-- Node14 -->
<g id="node14" class="node">
<title>Node14</title>
<g id="a_node14"><a xlink:href="ARQ_8h.html" target="_top" xlink:title=" ">
<polygon fill="white" stroke="black" points="711.5,-56.5 711.5,-75.5 767.5,-75.5 767.5,-56.5 711.5,-56.5"/>
<text text-anchor="middle" x="739.5" y="-63.5" font-family="Helvetica,sans-Serif" font-size="10.00">ar/ARQ.h</text>
</a>
</g>
</g>
<!-- Node12&#45;&gt;Node14 -->
<g id="edge17" class="edge">
<title>Node12&#45;&gt;Node14</title>
<path fill="none" stroke="midnightblue" d="M691.58,-168.37C700.05,-150.46 719.68,-108.92 731.02,-84.95"/>
<polygon fill="midnightblue" stroke="midnightblue" points="734.33,-86.13 735.44,-75.59 728,-83.14 734.33,-86.13"/>
</g>
<!-- Node15 -->
<g id="node15" class="node">
<title>Node15</title>
<g id="a_node15"><a xlink:href="mwcc_8h.html" target="_top" xlink:title=" ">
<polygon fill="white" stroke="black" points="734.5,-112.5 734.5,-131.5 784.5,-131.5 784.5,-112.5 734.5,-112.5"/>
<text text-anchor="middle" x="759.5" y="-119.5" font-family="Helvetica,sans-Serif" font-size="10.00">mwcc.h</text>
</a>
</g>
</g>
<!-- Node12&#45;&gt;Node15 -->
<g id="edge19" class="edge">
<title>Node12&#45;&gt;Node15</title>
<path fill="none" stroke="midnightblue" d="M699.07,-168.32C709.92,-160.18 726.38,-147.84 739.38,-138.09"/>
<polygon fill="midnightblue" stroke="midnightblue" points="741.82,-140.63 747.72,-131.83 737.62,-135.03 741.82,-140.63"/>
</g>
<!-- Node16 -->
<g id="node16" class="node">
<title>Node16</title>
<g id="a_node16"><a xlink:href="OS_8h.html" target="_top" xlink:title=" ">
<polygon fill="white" stroke="black" points="531.5,-112.5 531.5,-131.5 583.5,-131.5 583.5,-112.5 531.5,-112.5"/>
<text text-anchor="middle" x="557.5" y="-119.5" font-family="Helvetica,sans-Serif" font-size="10.00">os/OS.h</text>
</a>
</g>
</g>
<!-- Node12&#45;&gt;Node16 -->
<g id="edge20" class="edge">
<title>Node12&#45;&gt;Node16</title>
<path fill="none" stroke="midnightblue" d="M666.9,-168.44C645.51,-159.56 611.82,-145.56 587.48,-135.45"/>
<polygon fill="midnightblue" stroke="midnightblue" points="588.58,-132.12 578,-131.52 585.89,-138.58 588.58,-132.12"/>
</g>
<!-- Node13&#45;&gt;Node4 -->
<g id="edge16" class="edge">
<title>Node13&#45;&gt;Node4</title>
<path fill="none" stroke="midnightblue" d="M655.33,-56.32C642.65,-47.98 623.27,-35.21 608.29,-25.35"/>
<polygon fill="midnightblue" stroke="midnightblue" points="609.92,-22.23 599.64,-19.65 606.07,-28.08 609.92,-22.23"/>
</g>
<!-- Node14&#45;&gt;Node4 -->
<g id="edge18" class="edge">
<title>Node14&#45;&gt;Node4</title>
<path fill="none" stroke="midnightblue" d="M715.26,-56.44C689.63,-47.4 649.01,-33.06 620.26,-22.92"/>
<polygon fill="midnightblue" stroke="midnightblue" points="621.22,-19.54 610.63,-19.52 618.89,-26.15 621.22,-19.54"/>
</g>
<!-- Node16&#45;&gt;Node4 -->
<g id="edge21" class="edge">
<title>Node16&#45;&gt;Node4</title>
<path fill="none" stroke="midnightblue" d="M546.02,-112.29C531.2,-99.94 508.56,-76.53 519.5,-56 527.05,-41.83 541.26,-31.33 554.66,-24.06"/>
<polygon fill="midnightblue" stroke="midnightblue" points="556.33,-27.13 563.71,-19.53 553.2,-20.87 556.33,-27.13"/>
</g>
<!-- Node17 -->
<g id="node17" class="node">
<title>Node17</title>
<g id="a_node17"><a xlink:href="dvd_8h.html" target="_top" xlink:title=" ">
<polygon fill="white" stroke="black" points="528,-56.5 528,-75.5 587,-75.5 587,-56.5 528,-56.5"/>
<text text-anchor="middle" x="557.5" y="-63.5" font-family="Helvetica,sans-Serif" font-size="10.00">dvd/dvd.h</text>
</a>
</g>
</g>
<!-- Node16&#45;&gt;Node17 -->
<g id="edge22" class="edge">
<title>Node16&#45;&gt;Node17</title>
<path fill="none" stroke="midnightblue" d="M557.5,-112.08C557.5,-105.01 557.5,-94.86 557.5,-85.99"/>
<polygon fill="midnightblue" stroke="midnightblue" points="561,-85.75 557.5,-75.75 554,-85.75 561,-85.75"/>
</g>
<!-- Node17&#45;&gt;Node4 -->
<g id="edge23" class="edge">
<title>Node17&#45;&gt;Node4</title>
<path fill="none" stroke="midnightblue" d="M562.29,-56.08C566.26,-48.69 572.03,-37.95 576.93,-28.81"/>
<polygon fill="midnightblue" stroke="midnightblue" points="580.15,-30.22 581.8,-19.75 573.99,-26.91 580.15,-30.22"/>
</g>
<!-- Node18&#45;&gt;Node10 -->
<g id="edge26" class="edge">
<title>Node18&#45;&gt;Node10</title>
<path fill="none" stroke="midnightblue" d="M390.94,-336.08C396.45,-328.46 404.53,-317.26 411.26,-307.94"/>
<polygon fill="midnightblue" stroke="midnightblue" points="414.16,-309.91 417.18,-299.75 408.49,-305.81 414.16,-309.91"/>
</g>
<!-- Node18&#45;&gt;Node11 -->
<g id="edge27" class="edge">
<title>Node18&#45;&gt;Node11</title>
<path fill="none" stroke="midnightblue" d="M377.03,-336.29C367.06,-323.53 351.71,-299.2 361.5,-280 368.5,-266.27 381.87,-255.75 394.4,-248.35"/>
<polygon fill="midnightblue" stroke="midnightblue" points="396.17,-251.37 403.28,-243.51 392.82,-245.22 396.17,-251.37"/>
</g>
<!-- Node19&#45;&gt;Node9 -->
<g id="edge31" class="edge">
<title>Node19&#45;&gt;Node9</title>
<path fill="none" stroke="midnightblue" d="M346.55,-515.46C358.02,-498.32 379.03,-469.01 401.5,-448 414.14,-436.19 430.13,-425.2 443.2,-417.04"/>
<polygon fill="midnightblue" stroke="midnightblue" points="445.39,-419.81 452.12,-411.63 441.75,-413.83 445.39,-419.81"/>
</g>
<!-- Node19&#45;&gt;Node12 -->
<g id="edge37" class="edge">
<title>Node19&#45;&gt;Node12</title>
<path fill="none" stroke="midnightblue" d="M295.24,-515.41C277.17,-507.38 257.33,-495.56 244.5,-479 223.18,-451.48 225.5,-437.82 225.5,-403 225.5,-403 225.5,-403 225.5,-289 225.5,-243.53 262.67,-241.82 304.5,-224 366.83,-197.45 569.97,-184.75 652.33,-180.6"/>
<polygon fill="midnightblue" stroke="midnightblue" points="652.63,-184.09 662.45,-180.1 652.29,-177.1 652.63,-184.09"/>
</g>
<!-- Node19&#45;&gt;Node20 -->
<g id="edge32" class="edge">
<title>Node19&#45;&gt;Node20</title>
<path fill="none" stroke="midnightblue" d="M329.69,-515.4C324.3,-505.66 317.09,-492.65 311.31,-482.21"/>
<polygon fill="midnightblue" stroke="midnightblue" points="314.22,-480.25 306.32,-473.19 308.1,-483.64 314.22,-480.25"/>
</g>
<!-- Node20&#45;&gt;Node9 -->
<g id="edge34" class="edge">
<title>Node20&#45;&gt;Node9</title>
<path fill="none" stroke="midnightblue" d="M325.28,-453.98C353.88,-443.72 402.05,-426.46 434.3,-414.9"/>
<polygon fill="midnightblue" stroke="midnightblue" points="435.53,-418.18 443.76,-411.51 433.17,-411.59 435.53,-418.18"/>
</g>
<!-- Node20&#45;&gt;Node11 -->
<g id="edge33" class="edge">
<title>Node20&#45;&gt;Node11</title>
<path fill="none" stroke="midnightblue" d="M301.63,-453.93C302.2,-433.1 305.15,-378.39 320.5,-336 330.41,-308.62 334.25,-300.92 354.5,-280 366.79,-267.31 383.28,-256.39 397.06,-248.49"/>
<polygon fill="midnightblue" stroke="midnightblue" points="399.01,-251.41 406.08,-243.51 395.63,-245.28 399.01,-251.41"/>
</g>
<!-- Node20&#45;&gt;Node12 -->
<g id="edge36" class="edge">
<title>Node20&#45;&gt;Node12</title>
<path fill="none" stroke="midnightblue" d="M296.53,-453.84C286.23,-435.03 263.5,-388.8 263.5,-347 263.5,-347 263.5,-347 263.5,-289 263.5,-208.94 550.31,-186.16 652.15,-180.6"/>
<polygon fill="midnightblue" stroke="midnightblue" points="652.44,-184.09 662.25,-180.07 652.08,-177.1 652.44,-184.09"/>
</g>
<!-- Node20&#45;&gt;Node18 -->
<g id="edge35" class="edge">
<title>Node20&#45;&gt;Node18</title>
<path fill="none" stroke="midnightblue" d="M307.74,-453.82C321.44,-434.76 354.36,-388.95 372.31,-363.96"/>
<polygon fill="midnightblue" stroke="midnightblue" points="375.2,-365.95 378.19,-355.78 369.51,-361.86 375.2,-365.95"/>
</g>
<!-- Node21&#45;&gt;Node9 -->
<g id="edge39" class="edge">
<title>Node21&#45;&gt;Node9</title>
<path fill="none" stroke="midnightblue" d="M494.83,-520.84C489.74,-510.99 481.75,-494.3 477.5,-479 472.22,-459.99 469.7,-437.52 468.52,-421.96"/>
<polygon fill="midnightblue" stroke="midnightblue" points="471.99,-421.34 467.85,-411.59 465,-421.79 471.99,-421.34"/>
</g>
<!-- Node21&#45;&gt;Node12 -->
<g id="edge41" class="edge">
<title>Node21&#45;&gt;Node12</title>
<path fill="none" stroke="midnightblue" d="M503.81,-520.9C522.08,-484.55 595.21,-339.98 660.5,-224 665.7,-214.76 671.76,-204.61 676.82,-196.3"/>
<polygon fill="midnightblue" stroke="midnightblue" points="679.94,-197.9 682.18,-187.54 673.97,-194.24 679.94,-197.9"/>
</g>
<!-- Node21&#45;&gt;Node20 -->
<g id="edge40" class="edge">
<title>Node21&#45;&gt;Node20</title>
<path fill="none" stroke="midnightblue" d="M473.21,-520.87C438.27,-509.4 376.42,-489.09 337.26,-476.24"/>
<polygon fill="midnightblue" stroke="midnightblue" points="338.18,-472.86 327.59,-473.06 336,-479.51 338.18,-472.86"/>
</g>
<!-- Node22&#45;&gt;Node9 -->
<g id="edge43" class="edge">
<title>Node22&#45;&gt;Node9</title>
<path fill="none" stroke="midnightblue" d="M591.73,-453.98C567.07,-443.86 525.75,-426.9 497.6,-415.35"/>
<polygon fill="midnightblue" stroke="midnightblue" points="498.82,-412.07 488.24,-411.51 496.16,-418.54 498.82,-412.07"/>
</g>
<!-- Node22&#45;&gt;Node12 -->
<g id="edge44" class="edge">
<title>Node22&#45;&gt;Node12</title>
<path fill="none" stroke="midnightblue" d="M618.51,-453.98C630.98,-435.46 658.5,-389.74 658.5,-347 658.5,-347 658.5,-347 658.5,-289 658.5,-255.72 671.07,-218.58 679.66,-197.09"/>
<polygon fill="midnightblue" stroke="midnightblue" points="682.98,-198.21 683.59,-187.64 676.52,-195.53 682.98,-198.21"/>
</g>
<!-- Node23&#45;&gt;Node9 -->
<g id="edge46" class="edge">
<title>Node23&#45;&gt;Node9</title>
<path fill="none" stroke="midnightblue" d="M638.63,-520.9C614.02,-512.35 577.17,-497.81 548.5,-479 522.41,-461.89 496.94,-436.05 481.73,-419.35"/>
<polygon fill="midnightblue" stroke="midnightblue" points="484.04,-416.67 474.77,-411.54 478.82,-421.33 484.04,-416.67"/>
</g>
<!-- Node24 -->
<g id="node24" class="node">
<title>Node24</title>
<g id="a_node24"><a xlink:href="f__pc__method__tag_8h.html" target="_top" xlink:title=" ">
<polygon fill="white" stroke="black" points="686,-448.5 686,-478.5 787,-478.5 787,-448.5 686,-448.5"/>
<text text-anchor="start" x="694" y="-466.5" font-family="Helvetica,sans-Serif" font-size="10.00">f/f_pc/f_pc_method</text>
<text text-anchor="middle" x="736.5" y="-455.5" font-family="Helvetica,sans-Serif" font-size="10.00">_tag.h</text>
</a>
</g>
</g>
<!-- Node23&#45;&gt;Node24 -->
<g id="edge47" class="edge">
<title>Node23&#45;&gt;Node24</title>
<path fill="none" stroke="midnightblue" d="M675.08,-520.73C684.86,-511.78 700.41,-497.54 713.41,-485.63"/>
<polygon fill="midnightblue" stroke="midnightblue" points="716.1,-487.92 721.11,-478.59 711.37,-482.76 716.1,-487.92"/>
</g>
<!-- Node24&#45;&gt;Node9 -->
<g id="edge48" class="edge">
<title>Node24&#45;&gt;Node9</title>
<path fill="none" stroke="midnightblue" d="M685.78,-450.15C682.64,-449.41 679.53,-448.69 676.5,-448 622.73,-435.72 560.97,-422.53 518.61,-413.63"/>
<polygon fill="midnightblue" stroke="midnightblue" points="519.32,-410.2 508.81,-411.58 517.88,-417.05 519.32,-410.2"/>
</g>
<!-- Node24&#45;&gt;Node12 -->
<g id="edge49" class="edge">
<title>Node24&#45;&gt;Node12</title>
<path fill="none" stroke="midnightblue" d="M732.45,-448.41C726.61,-426.79 716.5,-384.04 716.5,-347 716.5,-347 716.5,-347 716.5,-289 716.5,-255.72 703.93,-218.58 695.34,-197.09"/>
<polygon fill="midnightblue" stroke="midnightblue" points="698.48,-195.53 691.41,-187.64 692.02,-198.21 698.48,-195.53"/>
</g>
<!-- Node25&#45;&gt;Node12 -->
<g id="edge53" class="edge">
<title>Node25&#45;&gt;Node12</title>
<path fill="none" stroke="midnightblue" d="M861.47,-520.93C859.1,-500.52 853.5,-447.47 853.5,-403 853.5,-403 853.5,-403 853.5,-289 853.5,-258.2 851.78,-245.26 829.5,-224 800.5,-196.33 754.57,-185.67 722.84,-181.57"/>
<polygon fill="midnightblue" stroke="midnightblue" points="723,-178.06 712.67,-180.41 722.21,-185.02 723,-178.06"/>
</g>
<!-- Node25&#45;&gt;Node26 -->
<g id="edge51" class="edge">
<title>Node25&#45;&gt;Node26</title>
<path fill="none" stroke="midnightblue" d="M872.35,-520.73C884.06,-510.31 903.82,-492.71 918.12,-479.97"/>
<polygon fill="midnightblue" stroke="midnightblue" points="920.67,-482.39 925.81,-473.13 916.01,-477.16 920.67,-482.39"/>
</g>
<!-- Node26&#45;&gt;Node12 -->
<g id="edge52" class="edge">
<title>Node26&#45;&gt;Node12</title>
<path fill="none" stroke="midnightblue" d="M932.71,-453.91C926.79,-434.88 913.5,-387.62 913.5,-347 913.5,-347 913.5,-347 913.5,-289 913.5,-205.26 786.51,-185.25 722.91,-180.49"/>
<polygon fill="midnightblue" stroke="midnightblue" points="722.76,-176.97 712.55,-179.8 722.3,-183.95 722.76,-176.97"/>
</g>
<!-- Node27&#45;&gt;Node4 -->
<g id="edge58" class="edge">
<title>Node27&#45;&gt;Node4</title>
<path fill="none" stroke="midnightblue" d="M63.79,-638.46C70.79,-619.51 86.5,-572.4 86.5,-531.5 86.5,-531.5 86.5,-531.5 86.5,-121 86.5,-84.82 103.96,-73.73 135.5,-56 202.89,-18.11 432.55,-11.88 535.66,-11.02"/>
<polygon fill="midnightblue" stroke="midnightblue" points="535.85,-14.52 545.82,-10.95 535.8,-7.52 535.85,-14.52"/>
</g>
<!-- Node27&#45;&gt;Node8 -->
<g id="edge59" class="edge">
<title>Node27&#45;&gt;Node8</title>
<path fill="none" stroke="midnightblue" d="M121.05,-640.7C221.51,-630.25 421.39,-609.45 520.69,-599.12"/>
<polygon fill="midnightblue" stroke="midnightblue" points="521.26,-602.58 530.85,-598.06 520.54,-595.62 521.26,-602.58"/>
</g>
<!-- Node28&#45;&gt;Node3 -->
<g id="edge63" class="edge">
<title>Node28&#45;&gt;Node3</title>
<path fill="none" stroke="midnightblue" d="M946.97,-862.44C878.8,-852.81 768.14,-837.16 696.09,-826.98"/>
<polygon fill="midnightblue" stroke="midnightblue" points="696.14,-823.45 685.75,-825.52 695.16,-830.38 696.14,-823.45"/>
</g>
<!-- Node28&#45;&gt;Node4 -->
<g id="edge62" class="edge">
<title>Node28&#45;&gt;Node4</title>
<path fill="none" stroke="midnightblue" d="M1068.27,-870.92C1145.66,-867.26 1269.5,-847.83 1269.5,-761 1269.5,-761 1269.5,-761 1269.5,-121 1269.5,-57.01 796.22,-23.33 637.6,-13.84"/>
<polygon fill="midnightblue" stroke="midnightblue" points="637.37,-10.32 627.18,-13.22 636.96,-17.31 637.37,-10.32"/>
</g>
<!-- Node29 -->
<g id="node29" class="node">
<title>Node29</title>
<g id="a_node29"><a xlink:href="c__phase_8h.html" target="_top" xlink:title=" ">
<polygon fill="white" stroke="black" points="1121.5,-638.5 1121.5,-657.5 1241.5,-657.5 1241.5,-638.5 1121.5,-638.5"/>
<text text-anchor="middle" x="1181.5" y="-645.5" font-family="Helvetica,sans-Serif" font-size="10.00">SComponent/c_phase.h</text>
</a>
</g>
</g>
<!-- Node28&#45;&gt;Node29 -->
<g id="edge61" class="edge">
<title>Node28&#45;&gt;Node29</title>
<path fill="none" stroke="midnightblue" d="M1014.32,-862.3C1040.3,-829.15 1133.36,-710.41 1168.21,-665.96"/>
<polygon fill="midnightblue" stroke="midnightblue" points="1171.12,-667.91 1174.54,-657.88 1165.61,-663.6 1171.12,-667.91"/>
</g>
<!-- Node30 -->
<g id="node30" class="node">
<title>Node30</title>
<g id="a_node30"><a xlink:href="f__pc__node__req_8h.html" target="_top" xlink:title=" ">
<polygon fill="white" stroke="black" points="949.5,-694.5 949.5,-713.5 1065.5,-713.5 1065.5,-694.5 949.5,-694.5"/>
<text text-anchor="middle" x="1007.5" y="-701.5" font-family="Helvetica,sans-Serif" font-size="10.00">f/f_pc/f_pc_node_req.h</text>
</a>
</g>
</g>
<!-- Node28&#45;&gt;Node30 -->
<g id="edge64" class="edge">
<title>Node28&#45;&gt;Node30</title>
<path fill="none" stroke="midnightblue" d="M1007.5,-862.08C1007.5,-835.95 1007.5,-759.21 1007.5,-723.58"/>
<polygon fill="midnightblue" stroke="midnightblue" points="1011,-723.57 1007.5,-713.57 1004,-723.57 1011,-723.57"/>
</g>
<!-- Node30&#45;&gt;Node7 -->
<g id="edge68" class="edge">
<title>Node30&#45;&gt;Node7</title>
<path fill="none" stroke="midnightblue" d="M949.49,-696.84C876.61,-688.94 747.44,-674.46 626.4,-658.08"/>
<polygon fill="midnightblue" stroke="midnightblue" points="626.6,-654.57 616.22,-656.69 625.65,-661.51 626.6,-654.57"/>
</g>
<!-- Node30&#45;&gt;Node12 -->
<g id="edge69" class="edge">
<title>Node30&#45;&gt;Node12</title>
<path fill="none" stroke="midnightblue" d="M1014.17,-694.44C1027.36,-676.62 1055.5,-633.84 1055.5,-593 1055.5,-593 1055.5,-593 1055.5,-289 1055.5,-219.97 814.77,-190.64 722.72,-181.96"/>
<polygon fill="midnightblue" stroke="midnightblue" points="722.78,-178.45 712.5,-181.02 722.14,-185.42 722.78,-178.45"/>
</g>
<!-- Node30&#45;&gt;Node24 -->
<g id="edge67" class="edge">
<title>Node30&#45;&gt;Node24</title>
<path fill="none" stroke="midnightblue" d="M994.27,-694.38C960.54,-672.07 869.31,-609.73 803.5,-546 784.45,-527.55 765.52,-503.91 752.67,-486.84"/>
<polygon fill="midnightblue" stroke="midnightblue" points="755.3,-484.52 746.53,-478.58 749.68,-488.69 755.3,-484.52"/>
</g>
<!-- Node30&#45;&gt;Node26 -->
<g id="edge66" class="edge">
<title>Node30&#45;&gt;Node26</title>
<path fill="none" stroke="midnightblue" d="M1004.85,-694.23C994.35,-659.46 955.53,-530.85 941.02,-482.78"/>
<polygon fill="midnightblue" stroke="midnightblue" points="944.34,-481.66 938.1,-473.1 937.64,-483.68 944.34,-481.66"/>
</g>
<!-- Node30&#45;&gt;Node29 -->
<g id="edge65" class="edge">
<title>Node30&#45;&gt;Node29</title>
<path fill="none" stroke="midnightblue" d="M1035.07,-694.44C1064.6,-685.28 1111.62,-670.69 1144.38,-660.52"/>
<polygon fill="midnightblue" stroke="midnightblue" points="1145.54,-663.82 1154.06,-657.52 1143.47,-657.14 1145.54,-663.82"/>
</g>
<!-- Node31&#45;&gt;Node8 -->
<g id="edge71" class="edge">
<title>Node31&#45;&gt;Node8</title>
<path fill="none" stroke="midnightblue" d="M672.67,-638.32C654.78,-629.62 627.02,-616.12 606.45,-606.11"/>
<polygon fill="midnightblue" stroke="midnightblue" points="607.81,-602.88 597.29,-601.65 604.75,-609.18 607.81,-602.88"/>
</g>
<!-- Node31&#45;&gt;Node12 -->
<g id="edge72" class="edge">
<title>Node31&#45;&gt;Node12</title>
<path fill="none" stroke="midnightblue" d="M747.09,-641.14C840.68,-627.97 1017.5,-586.89 1017.5,-464.5 1017.5,-464.5 1017.5,-464.5 1017.5,-289 1017.5,-227.33 807.47,-194.05 722.53,-183.11"/>
<polygon fill="midnightblue" stroke="midnightblue" points="722.93,-179.63 712.57,-181.86 722.06,-186.58 722.93,-179.63"/>
</g>
</g>
</svg>
        <g id="navigator" transform="translate(0 0)" fill="#404254">
                <rect fill="#f2f5e9" fill-opacity="0.5" stroke="#606060" stroke-width=".5" x="0" y="0" width="60" height="60"/>
                <use id="zoomplus" xlink:href="#zoomPlus" x="17" y="9" onmousedown="handleZoom(evt,'in')"/>
                <use id="zoomminus" xlink:href="#zoomMin" x="42" y="9" onmousedown="handleZoom(evt,'out')"/>
                <use id="reset" xlink:href="#resetDef" x="30" y="36" onmousedown="handleReset()"/>
                <g id="arrowUp" xlink:href="#dirArrow" transform="translate(30 24)" onmousedown="handlePan(0,-1)">
                  <use xlink:href="#rim" fill="#404040">
                        <set attributeName="fill" to="#808080" begin="arrowUp.mouseover" end="arrowUp.mouseout"/>
                  </use>
                  <path fill="none" stroke="white" stroke-width="1.5" d="M0,-3.0v7 M-2.5,-0.5L0,-3.0L2.5,-0.5"/>
                </g>
                <g id="arrowRight" xlink:href="#dirArrow" transform="rotate(90) translate(36 -43)" onmousedown="handlePan(1,0)">
                  <use xlink:href="#rim" fill="#404040">
                        <set attributeName="fill" to="#808080" begin="arrowRight.mouseover" end="arrowRight.mouseout"/>
                  </use>
                  <path fill="none" stroke="white" stroke-width="1.5" d="M0,-3.0v7 M-2.5,-0.5L0,-3.0L2.5,-0.5"/>
                </g>
                <g id="arrowDown" xlink:href="#dirArrow" transform="rotate(180) translate(-30 -48)" onmousedown="handlePan(0,1)">
                  <use xlink:href="#rim" fill="#404040">
                        <set attributeName="fill" to="#808080" begin="arrowDown.mouseover" end="arrowDown.mouseout"/>
                  </use>
                  <path fill="none" stroke="white" stroke-width="1.5" d="M0,-3.0v7 M-2.5,-0.5L0,-3.0L2.5,-0.5"/>
                </g>
                <g id="arrowLeft" xlink:href="#dirArrow" transform="rotate(270) translate(-36 17)" onmousedown="handlePan(-1,0)">
                  <use xlink:href="#rim" fill="#404040">
                        <set attributeName="fill" to="#808080" begin="arrowLeft.mouseover" end="arrowLeft.mouseout"/>
                  </use>
                  <path fill="none" stroke="white" stroke-width="1.5" d="M0,-3.0v7 M-2.5,-0.5L0,-3.0L2.5,-0.5"/>
                </g>
        </g>
        <svg viewBox="0 0 15 15" width="100%" height="30px" preserveAspectRatio="xMaxYMin meet">
         <g id="arrow_out" transform="scale(0.3 0.3)">
          <a xlink:href="f__op__scene__mng_8cpp__incl_org.svg" target="_base">
           <rect id="button" ry="5" rx="5" y="6" x="6" height="38" width="38"
                fill="#f2f5e9" fill-opacity="0.5" stroke="#606060" stroke-width="1.0"/>
           <path id="arrow"
             d="M 11.500037,31.436501 C 11.940474,20.09759 22.043105,11.32322 32.158766,21.979434 L 37.068811,17.246167 C 37.068811,17.246167 37.088388,32 37.088388,32 L 22.160133,31.978069 C 22.160133,31.978069 26.997745,27.140456 26.997745,27.140456 C 18.528582,18.264221 13.291696,25.230495 11.500037,31.436501 z"
             style="fill:#404040;"/>
          </a>
         </g>
        </svg>
</svg>
