<?xml version="1.0" encoding="UTF-8" standalone="no"?>
<!DOCTYPE svg PUBLIC "-//W3C//DTD SVG 1.1//EN"
 "http://www.w3.org/Graphics/SVG/1.1/DTD/svg11.dtd">
<!-- Generated by graphviz version 2.44.0 ()
 -->
<!-- Title: src/f/f_op/f_op_scene_req.cpp Pages: 1 -->
<svg width="1487pt" height="979pt"
 viewBox="0.00 0.00 1487.00 979.00" xmlns="http://www.w3.org/2000/svg" xmlns:xlink="http://www.w3.org/1999/xlink">
<g id="graph0" class="graph" transform="scale(1 1) rotate(0) translate(4 975)">
<title>src/f/f_op/f_op_scene_req.cpp</title>
<polygon fill="white" stroke="transparent" points="-4,4 -4,-975 1483,-975 1483,4 -4,4"/>
<!-- Node1 -->
<g id="node1" class="node">
<title>Node1</title>
<g id="a_node1"><a xlink:title=" ">
<polygon fill="#bfbfbf" stroke="black" points="1241.5,-940.5 1241.5,-970.5 1352.5,-970.5 1352.5,-940.5 1241.5,-940.5"/>
<text text-anchor="start" x="1249.5" y="-958.5" font-family="Helvetica,sans-Serif" font-size="10.00">src/f/f_op/f_op_scene</text>
<text text-anchor="middle" x="1297" y="-947.5" font-family="Helvetica,sans-Serif" font-size="10.00">_req.cpp</text>
</a>
</g>
</g>
<!-- Node2 -->
<g id="node2" class="node">
<title>Node2</title>
<g id="a_node2"><a xlink:href="f__op__scene__req_8h.html" target="_top" xlink:title=" ">
<polygon fill="white" stroke="black" points="256.5,-879 256.5,-898 377.5,-898 377.5,-879 256.5,-879"/>
<text text-anchor="middle" x="317" y="-886" font-family="Helvetica,sans-Serif" font-size="10.00">f/f_op/f_op_scene_req.h</text>
</a>
</g>
</g>
<!-- Node1&#45;&gt;Node2 -->
<g id="edge1" class="edge">
<title>Node1&#45;&gt;Node2</title>
<path fill="none" stroke="midnightblue" d="M1241.15,-950.8C1073.37,-939.67 573.97,-906.54 387.91,-894.2"/>
<polygon fill="midnightblue" stroke="midnightblue" points="387.91,-890.7 377.7,-893.53 387.44,-897.68 387.91,-890.7"/>
</g>
<!-- Node13 -->
<g id="node13" class="node">
<title>Node13</title>
<g id="a_node13"><a xlink:href="global_8h.html" target="_top" xlink:title=" ">
<polygon fill="white" stroke="black" points="749,-168.5 749,-187.5 799,-187.5 799,-168.5 749,-168.5"/>
<text text-anchor="middle" x="774" y="-175.5" font-family="Helvetica,sans-Serif" font-size="10.00">global.h</text>
</a>
</g>
</g>
<!-- Node1&#45;&gt;Node13 -->
<g id="edge80" class="edge">
<title>Node1&#45;&gt;Node13</title>
<path fill="none" stroke="midnightblue" d="M1297,-940.46C1297,-917.12 1297,-868.85 1297,-828 1297,-828 1297,-828 1297,-708.5 1297,-626.38 1350,-613.62 1350,-531.5 1350,-531.5 1350,-531.5 1350,-289 1350,-214.3 1267.35,-242.61 1195,-224 1055.22,-188.04 882.21,-180.77 809.16,-179.33"/>
<polygon fill="midnightblue" stroke="midnightblue" points="809.18,-175.83 799.12,-179.16 809.06,-182.83 809.18,-175.83"/>
</g>
<!-- Node29 -->
<g id="node29" class="node">
<title>Node29</title>
<g id="a_node29"><a xlink:href="f__op__overlap__mng_8h.html" target="_top" xlink:title=" ">
<polygon fill="white" stroke="black" points="1338,-694.5 1338,-724.5 1438,-724.5 1438,-694.5 1338,-694.5"/>
<text text-anchor="start" x="1346" y="-712.5" font-family="Helvetica,sans-Serif" font-size="10.00">f/f_op/f_op_overlap</text>
<text text-anchor="middle" x="1388" y="-701.5" font-family="Helvetica,sans-Serif" font-size="10.00">_mng.h</text>
</a>
</g>
</g>
<!-- Node1&#45;&gt;Node29 -->
<g id="edge65" class="edge">
<title>Node1&#45;&gt;Node29</title>
<path fill="none" stroke="midnightblue" d="M1302.29,-940.33C1317.33,-899.98 1360.51,-784.2 1379.2,-734.09"/>
<polygon fill="midnightblue" stroke="midnightblue" points="1382.48,-735.3 1382.7,-724.71 1375.93,-732.86 1382.48,-735.3"/>
</g>
<!-- Node31 -->
<g id="node31" class="node">
<title>Node31</title>
<g id="a_node31"><a xlink:href="f__pc__executor_8h.html" target="_top" xlink:title=" ">
<polygon fill="white" stroke="black" points="1127.5,-638.5 1127.5,-657.5 1240.5,-657.5 1240.5,-638.5 1127.5,-638.5"/>
<text text-anchor="middle" x="1184" y="-645.5" font-family="Helvetica,sans-Serif" font-size="10.00">f/f_pc/f_pc_executor.h</text>
</a>
</g>
</g>
<!-- Node1&#45;&gt;Node31 -->
<g id="edge70" class="edge">
<title>Node1&#45;&gt;Node31</title>
<path fill="none" stroke="midnightblue" d="M1281.46,-940.19C1259.49,-918.31 1222,-874.21 1222,-828 1222,-828 1222,-828 1222,-770 1222,-731.81 1204.56,-689.83 1193.31,-666.72"/>
<polygon fill="midnightblue" stroke="midnightblue" points="1196.29,-664.86 1188.66,-657.52 1190.04,-668.02 1196.29,-664.86"/>
</g>
<!-- Node35 -->
<g id="node35" class="node">
<title>Node35</title>
<g id="a_node35"><a xlink:title=" ">
<polygon fill="white" stroke="#bfbfbf" points="1363,-873.5 1363,-903.5 1479,-903.5 1479,-873.5 1363,-873.5"/>
<text text-anchor="start" x="1371" y="-891.5" font-family="Helvetica,sans-Serif" font-size="10.00">f/f_op/f_op_scene_req</text>
<text text-anchor="middle" x="1421" y="-880.5" font-family="Helvetica,sans-Serif" font-size="10.00">/asm/func_8001F034.s</text>
</a>
</g>
</g>
<!-- Node1&#45;&gt;Node35 -->
<g id="edge81" class="edge">
<title>Node1&#45;&gt;Node35</title>
<path fill="none" stroke="midnightblue" d="M1323.91,-940.4C1341.86,-930.98 1365.67,-918.5 1385.22,-908.26"/>
<polygon fill="midnightblue" stroke="midnightblue" points="1386.91,-911.32 1394.15,-903.58 1383.66,-905.12 1386.91,-911.32"/>
</g>
<!-- Node3 -->
<g id="node3" class="node">
<title>Node3</title>
<g id="a_node3"><a xlink:href="c__phase_8h.html" target="_top" xlink:title=" ">
<polygon fill="white" stroke="black" points="257,-638.5 257,-657.5 377,-657.5 377,-638.5 257,-638.5"/>
<text text-anchor="middle" x="317" y="-645.5" font-family="Helvetica,sans-Serif" font-size="10.00">SComponent/c_phase.h</text>
</a>
</g>
</g>
<!-- Node2&#45;&gt;Node3 -->
<g id="edge2" class="edge">
<title>Node2&#45;&gt;Node3</title>
<path fill="none" stroke="midnightblue" d="M317,-878.73C317,-844.1 317,-716.43 317,-667.9"/>
<polygon fill="midnightblue" stroke="midnightblue" points="320.5,-667.6 317,-657.6 313.5,-667.6 320.5,-667.6"/>
</g>
<!-- Node4 -->
<g id="node4" class="node">
<title>Node4</title>
<g id="a_node4"><a xlink:href="types_8h.html" target="_top" xlink:title=" ">
<polygon fill="white" stroke="black" points="619.5,-0.5 619.5,-19.5 700.5,-19.5 700.5,-0.5 619.5,-0.5"/>
<text text-anchor="middle" x="660" y="-7.5" font-family="Helvetica,sans-Serif" font-size="10.00">dolphin/types.h</text>
</a>
</g>
</g>
<!-- Node2&#45;&gt;Node4 -->
<g id="edge3" class="edge">
<title>Node2&#45;&gt;Node4</title>
<path fill="none" stroke="midnightblue" d="M261.42,-878.97C170.51,-863.44 0,-826.99 0,-772 0,-772 0,-772 0,-121 0,-82.58 22.62,-73.15 57,-56 105.81,-31.65 472.81,-17.18 609.18,-12.59"/>
<polygon fill="midnightblue" stroke="midnightblue" points="609.48,-16.09 619.36,-12.26 609.25,-9.09 609.48,-16.09"/>
</g>
<!-- Node5 -->
<g id="node5" class="node">
<title>Node5</title>
<g id="a_node5"><a xlink:href="f__op__scene__pause_8h.html" target="_top" xlink:title=" ">
<polygon fill="white" stroke="black" points="98,-817.5 98,-836.5 232,-836.5 232,-817.5 98,-817.5"/>
<text text-anchor="middle" x="165" y="-824.5" font-family="Helvetica,sans-Serif" font-size="10.00">f/f_op/f_op_scene_pause.h</text>
</a>
</g>
</g>
<!-- Node2&#45;&gt;Node5 -->
<g id="edge4" class="edge">
<title>Node2&#45;&gt;Node5</title>
<path fill="none" stroke="midnightblue" d="M295.22,-878.98C269.26,-868.81 225.69,-851.76 196.17,-840.2"/>
<polygon fill="midnightblue" stroke="midnightblue" points="197.33,-836.9 186.74,-836.51 194.77,-843.41 197.33,-836.9"/>
</g>
<!-- Node28 -->
<g id="node28" class="node">
<title>Node28</title>
<g id="a_node28"><a xlink:href="f__pc__node__req_8h.html" target="_top" xlink:title=" ">
<polygon fill="white" stroke="black" points="346,-700 346,-719 462,-719 462,-700 346,-700"/>
<text text-anchor="middle" x="404" y="-707" font-family="Helvetica,sans-Serif" font-size="10.00">f/f_pc/f_pc_node_req.h</text>
</a>
</g>
</g>
<!-- Node2&#45;&gt;Node28 -->
<g id="edge59" class="edge">
<title>Node2&#45;&gt;Node28</title>
<path fill="none" stroke="midnightblue" d="M321.2,-878.96C334.6,-851.69 376.58,-766.28 395.09,-728.63"/>
<polygon fill="midnightblue" stroke="midnightblue" points="398.37,-729.89 399.64,-719.37 392.09,-726.8 398.37,-729.89"/>
</g>
<!-- Node5&#45;&gt;Node4 -->
<g id="edge5" class="edge">
<title>Node5&#45;&gt;Node4</title>
<path fill="none" stroke="midnightblue" d="M142.29,-817.5C105.77,-802.17 38,-766.23 38,-710.5 38,-710.5 38,-710.5 38,-121 38,-81.38 63.3,-73.18 99,-56 188.29,-13.02 488.28,-9.9 609.02,-10.46"/>
<polygon fill="midnightblue" stroke="midnightblue" points="609.09,-13.96 619.11,-10.51 609.13,-6.96 609.09,-13.96"/>
</g>
<!-- Node6 -->
<g id="node6" class="node">
<title>Node6</title>
<g id="a_node6"><a xlink:href="f__op__scene_8h.html" target="_top" xlink:title=" ">
<polygon fill="white" stroke="black" points="114,-761.5 114,-780.5 216,-780.5 216,-761.5 114,-761.5"/>
<text text-anchor="middle" x="165" y="-768.5" font-family="Helvetica,sans-Serif" font-size="10.00">f/f_op/f_op_scene.h</text>
</a>
</g>
</g>
<!-- Node5&#45;&gt;Node6 -->
<g id="edge6" class="edge">
<title>Node5&#45;&gt;Node6</title>
<path fill="none" stroke="midnightblue" d="M165,-817.08C165,-810.01 165,-799.86 165,-790.99"/>
<polygon fill="midnightblue" stroke="midnightblue" points="168.5,-790.75 165,-780.75 161.5,-790.75 168.5,-790.75"/>
</g>
<!-- Node6&#45;&gt;Node4 -->
<g id="edge7" class="edge">
<title>Node6&#45;&gt;Node4</title>
<path fill="none" stroke="midnightblue" d="M143.49,-761.4C127.76,-754.03 107.13,-741.91 95,-725 74.71,-696.71 76,-683.82 76,-649 76,-649 76,-649 76,-121 76,-77.89 108.48,-73.22 148,-56 229.9,-20.3 496.95,-12.92 609.38,-11.39"/>
<polygon fill="midnightblue" stroke="midnightblue" points="609.49,-14.89 619.45,-11.27 609.41,-7.89 609.49,-14.89"/>
</g>
<!-- Node7 -->
<g id="node7" class="node">
<title>Node7</title>
<g id="a_node7"><a xlink:href="f__op__scene__tag_8h.html" target="_top" xlink:title=" ">
<polygon fill="white" stroke="black" points="104.5,-700 104.5,-719 225.5,-719 225.5,-700 104.5,-700"/>
<text text-anchor="middle" x="165" y="-707" font-family="Helvetica,sans-Serif" font-size="10.00">f/f_op/f_op_scene_tag.h</text>
</a>
</g>
</g>
<!-- Node6&#45;&gt;Node7 -->
<g id="edge8" class="edge">
<title>Node6&#45;&gt;Node7</title>
<path fill="none" stroke="midnightblue" d="M165,-761.48C165,-753.08 165,-739.98 165,-729.16"/>
<polygon fill="midnightblue" stroke="midnightblue" points="168.5,-729.01 165,-719.01 161.5,-729.01 168.5,-729.01"/>
</g>
<!-- Node8 -->
<g id="node8" class="node">
<title>Node8</title>
<g id="a_node8"><a xlink:href="f__pc__node_8h.html" target="_top" xlink:title=" ">
<polygon fill="white" stroke="black" points="142.5,-638.5 142.5,-657.5 239.5,-657.5 239.5,-638.5 142.5,-638.5"/>
<text text-anchor="middle" x="191" y="-645.5" font-family="Helvetica,sans-Serif" font-size="10.00">f/f_pc/f_pc_node.h</text>
</a>
</g>
</g>
<!-- Node6&#45;&gt;Node8 -->
<g id="edge58" class="edge">
<title>Node6&#45;&gt;Node8</title>
<path fill="none" stroke="midnightblue" d="M188.79,-761.5C204.72,-754.41 224.46,-742.61 234,-725 240.56,-712.89 239.13,-706.79 234,-694 229.32,-682.33 220.01,-671.97 211.24,-664.14"/>
<polygon fill="midnightblue" stroke="midnightblue" points="213.42,-661.4 203.5,-657.7 208.95,-666.78 213.42,-661.4"/>
</g>
<!-- Node7&#45;&gt;Node4 -->
<g id="edge9" class="edge">
<title>Node7&#45;&gt;Node4</title>
<path fill="none" stroke="midnightblue" d="M158.12,-699.8C144.2,-681.3 114,-636.18 114,-593 114,-593 114,-593 114,-121 114,-20.52 473.88,-10.69 609.29,-10.55"/>
<polygon fill="midnightblue" stroke="midnightblue" points="609.4,-14.05 619.41,-10.55 609.41,-7.05 609.4,-14.05"/>
</g>
<!-- Node7&#45;&gt;Node8 -->
<g id="edge10" class="edge">
<title>Node7&#45;&gt;Node8</title>
<path fill="none" stroke="midnightblue" d="M168.73,-699.98C172.47,-691.4 178.36,-677.93 183.14,-666.98"/>
<polygon fill="midnightblue" stroke="midnightblue" points="186.48,-668.07 187.28,-657.51 180.07,-665.27 186.48,-668.07"/>
</g>
<!-- Node9 -->
<g id="node9" class="node">
<title>Node9</title>
<g id="a_node9"><a xlink:href="f__pc__base_8h.html" target="_top" xlink:title=" ">
<polygon fill="white" stroke="black" points="923.5,-582.5 923.5,-601.5 1020.5,-601.5 1020.5,-582.5 923.5,-582.5"/>
<text text-anchor="middle" x="972" y="-589.5" font-family="Helvetica,sans-Serif" font-size="10.00">f/f_pc/f_pc_base.h</text>
</a>
</g>
</g>
<!-- Node8&#45;&gt;Node9 -->
<g id="edge11" class="edge">
<title>Node8&#45;&gt;Node9</title>
<path fill="none" stroke="midnightblue" d="M239.78,-638.99C242.56,-638.63 245.31,-638.3 248,-638 494.26,-610.97 789.57,-598.91 913.13,-594.77"/>
<polygon fill="midnightblue" stroke="midnightblue" points="913.26,-598.27 923.14,-594.44 913.03,-591.27 913.26,-598.27"/>
</g>
<!-- Node21 -->
<g id="node21" class="node">
<title>Node21</title>
<g id="a_node21"><a xlink:href="f__pc__layer_8h.html" target="_top" xlink:title=" ">
<polygon fill="white" stroke="black" points="684,-454 684,-473 780,-473 780,-454 684,-454"/>
<text text-anchor="middle" x="732" y="-461" font-family="Helvetica,sans-Serif" font-size="10.00">f/f_pc/f_pc_layer.h</text>
</a>
</g>
</g>
<!-- Node8&#45;&gt;Node21 -->
<g id="edge56" class="edge">
<title>Node8&#45;&gt;Node21</title>
<path fill="none" stroke="midnightblue" d="M207.69,-638.49C253.44,-615.46 385.16,-551.25 501,-515 576.37,-491.41 598.05,-496.74 675,-479 679.73,-477.91 684.66,-476.73 689.56,-475.52"/>
<polygon fill="midnightblue" stroke="midnightblue" points="690.65,-478.85 699.51,-473.04 688.96,-472.06 690.65,-478.85"/>
</g>
<!-- Node27 -->
<g id="node27" class="node">
<title>Node27</title>
<g id="a_node27"><a xlink:href="f__pc__method_8h.html" target="_top" xlink:title=" ">
<polygon fill="white" stroke="black" points="400,-454 400,-473 508,-473 508,-454 400,-454"/>
<text text-anchor="middle" x="454" y="-461" font-family="Helvetica,sans-Serif" font-size="10.00">f/f_pc/f_pc_method.h</text>
</a>
</g>
</g>
<!-- Node8&#45;&gt;Node27 -->
<g id="edge57" class="edge">
<title>Node8&#45;&gt;Node27</title>
<path fill="none" stroke="midnightblue" d="M194.25,-638.39C203.57,-614.83 232.77,-548.84 279,-515 311.28,-491.37 354.4,-478.76 389.75,-472.05"/>
<polygon fill="midnightblue" stroke="midnightblue" points="390.74,-475.43 399.98,-470.23 389.52,-468.54 390.74,-475.43"/>
</g>
<!-- Node10 -->
<g id="node10" class="node">
<title>Node10</title>
<g id="a_node10"><a xlink:href="c__tag_8h.html" target="_top" xlink:title=" ">
<polygon fill="white" stroke="black" points="792.5,-392.5 792.5,-411.5 899.5,-411.5 899.5,-392.5 792.5,-392.5"/>
<text text-anchor="middle" x="846" y="-399.5" font-family="Helvetica,sans-Serif" font-size="10.00">SComponent/c_tag.h</text>
</a>
</g>
</g>
<!-- Node9&#45;&gt;Node10 -->
<g id="edge12" class="edge">
<title>Node9&#45;&gt;Node10</title>
<path fill="none" stroke="midnightblue" d="M989.2,-582.39C1002.25,-574.79 1019.23,-562.39 1027,-546 1032.9,-533.55 1033.71,-527.04 1027,-515 1018.25,-499.3 918.22,-442.75 870.74,-416.53"/>
<polygon fill="midnightblue" stroke="midnightblue" points="872.17,-413.32 861.72,-411.57 868.79,-419.45 872.17,-413.32"/>
</g>
<!-- Node9&#45;&gt;Node13 -->
<g id="edge31" class="edge">
<title>Node9&#45;&gt;Node13</title>
<path fill="none" stroke="midnightblue" d="M1001.13,-582.45C1063.02,-562.3 1202,-505.63 1202,-403 1202,-403 1202,-403 1202,-289 1202,-208.14 911.82,-185.86 809.33,-180.51"/>
<polygon fill="midnightblue" stroke="midnightblue" points="809.34,-177.01 799.18,-180.01 808.99,-184 809.34,-177.01"/>
</g>
<!-- Node20 -->
<g id="node20" class="node">
<title>Node20</title>
<g id="a_node20"><a xlink:href="f__pc__delete__tag_8h.html" target="_top" xlink:title=" ">
<polygon fill="white" stroke="black" points="922.5,-515.5 922.5,-545.5 1017.5,-545.5 1017.5,-515.5 922.5,-515.5"/>
<text text-anchor="start" x="930.5" y="-533.5" font-family="Helvetica,sans-Serif" font-size="10.00">f/f_pc/f_pc_delete</text>
<text text-anchor="middle" x="970" y="-522.5" font-family="Helvetica,sans-Serif" font-size="10.00">_tag.h</text>
</a>
</g>
</g>
<!-- Node9&#45;&gt;Node20 -->
<g id="edge32" class="edge">
<title>Node9&#45;&gt;Node20</title>
<path fill="none" stroke="midnightblue" d="M971.71,-582.48C971.48,-575.47 971.13,-565.19 970.81,-555.7"/>
<polygon fill="midnightblue" stroke="midnightblue" points="974.31,-555.4 970.47,-545.52 967.31,-555.63 974.31,-555.4"/>
</g>
<!-- Node22 -->
<g id="node22" class="node">
<title>Node22</title>
<g id="a_node22"><a xlink:href="f__pc__layer__tag_8h.html" target="_top" xlink:title=" ">
<polygon fill="white" stroke="black" points="628.5,-521 628.5,-540 743.5,-540 743.5,-521 628.5,-521"/>
<text text-anchor="middle" x="686" y="-528" font-family="Helvetica,sans-Serif" font-size="10.00">f/f_pc/f_pc_layer_tag.h</text>
</a>
</g>
</g>
<!-- Node9&#45;&gt;Node22 -->
<g id="edge40" class="edge">
<title>Node9&#45;&gt;Node22</title>
<path fill="none" stroke="midnightblue" d="M929.58,-582.42C885.44,-573.46 814.34,-558.94 753,-546 747.18,-544.77 741.08,-543.47 735.03,-542.17"/>
<polygon fill="midnightblue" stroke="midnightblue" points="735.47,-538.69 724.96,-540 734,-545.53 735.47,-538.69"/>
</g>
<!-- Node23 -->
<g id="node23" class="node">
<title>Node23</title>
<g id="a_node23"><a xlink:href="f__pc__line__tag_8h.html" target="_top" xlink:title=" ">
<polygon fill="white" stroke="black" points="988,-454 988,-473 1098,-473 1098,-454 988,-454"/>
<text text-anchor="middle" x="1043" y="-461" font-family="Helvetica,sans-Serif" font-size="10.00">f/f_pc/f_pc_line_tag.h</text>
</a>
</g>
</g>
<!-- Node9&#45;&gt;Node23 -->
<g id="edge44" class="edge">
<title>Node9&#45;&gt;Node23</title>
<path fill="none" stroke="midnightblue" d="M1007.85,-582.4C1026.88,-575.81 1048.63,-564.59 1060,-546 1072.04,-526.31 1062.45,-499.48 1053.53,-482.07"/>
<polygon fill="midnightblue" stroke="midnightblue" points="1056.43,-480.09 1048.52,-473.04 1050.31,-483.48 1056.43,-480.09"/>
</g>
<!-- Node24 -->
<g id="node24" class="node">
<title>Node24</title>
<g id="a_node24"><a xlink:href="f__pc__priority_8h.html" target="_top" xlink:title=" ">
<polygon fill="white" stroke="black" points="762,-521 762,-540 866,-540 866,-521 762,-521"/>
<text text-anchor="middle" x="814" y="-528" font-family="Helvetica,sans-Serif" font-size="10.00">f/f_pc/f_pc_priority.h</text>
</a>
</g>
</g>
<!-- Node9&#45;&gt;Node24 -->
<g id="edge47" class="edge">
<title>Node9&#45;&gt;Node24</title>
<path fill="none" stroke="midnightblue" d="M949.36,-582.48C922.26,-572.27 876.69,-555.11 846,-543.55"/>
<polygon fill="midnightblue" stroke="midnightblue" points="847.19,-540.26 836.6,-540.01 844.72,-546.81 847.19,-540.26"/>
</g>
<!-- Node26 -->
<g id="node26" class="node">
<title>Node26</title>
<g id="a_node26"><a xlink:href="f__pc__profile_8h.html" target="_top" xlink:title=" ">
<polygon fill="white" stroke="black" points="509.5,-521 509.5,-540 610.5,-540 610.5,-521 509.5,-521"/>
<text text-anchor="middle" x="560" y="-528" font-family="Helvetica,sans-Serif" font-size="10.00">f/f_pc/f_pc_profile.h</text>
</a>
</g>
</g>
<!-- Node9&#45;&gt;Node26 -->
<g id="edge52" class="edge">
<title>Node9&#45;&gt;Node26</title>
<path fill="none" stroke="midnightblue" d="M923.34,-586.49C855.18,-579.78 727.55,-565.81 620,-546 614.26,-544.94 608.25,-543.68 602.34,-542.35"/>
<polygon fill="midnightblue" stroke="midnightblue" points="603.09,-538.93 592.56,-540.06 601.5,-545.74 603.09,-538.93"/>
</g>
<!-- Node11 -->
<g id="node11" class="node">
<title>Node11</title>
<g id="a_node11"><a xlink:href="c__list_8h.html" target="_top" xlink:title=" ">
<polygon fill="white" stroke="black" points="720.5,-280.5 720.5,-299.5 827.5,-299.5 827.5,-280.5 720.5,-280.5"/>
<text text-anchor="middle" x="774" y="-287.5" font-family="Helvetica,sans-Serif" font-size="10.00">SComponent/c_list.h</text>
</a>
</g>
</g>
<!-- Node10&#45;&gt;Node11 -->
<g id="edge13" class="edge">
<title>Node10&#45;&gt;Node11</title>
<path fill="none" stroke="midnightblue" d="M840.35,-392.37C828.47,-374.22 800.71,-331.8 785.12,-307.99"/>
<polygon fill="midnightblue" stroke="midnightblue" points="788.03,-306.04 779.62,-299.59 782.17,-309.88 788.03,-306.04"/>
</g>
<!-- Node12 -->
<g id="node12" class="node">
<title>Node12</title>
<g id="a_node12"><a xlink:href="c__node_8h.html" target="_top" xlink:title=" ">
<polygon fill="white" stroke="black" points="716.5,-224.5 716.5,-243.5 831.5,-243.5 831.5,-224.5 716.5,-224.5"/>
<text text-anchor="middle" x="774" y="-231.5" font-family="Helvetica,sans-Serif" font-size="10.00">SComponent/c_node.h</text>
</a>
</g>
</g>
<!-- Node10&#45;&gt;Node12 -->
<g id="edge26" class="edge">
<title>Node10&#45;&gt;Node12</title>
<path fill="none" stroke="midnightblue" d="M847.7,-392.38C851.34,-371.52 857.96,-317.27 837,-280 829.36,-266.43 815.73,-255.92 803.1,-248.49"/>
<polygon fill="midnightblue" stroke="midnightblue" points="804.63,-245.33 794.18,-243.62 801.28,-251.48 804.63,-245.33"/>
</g>
<!-- Node10&#45;&gt;Node13 -->
<g id="edge30" class="edge">
<title>Node10&#45;&gt;Node13</title>
<path fill="none" stroke="midnightblue" d="M850.88,-392.37C855.56,-383.55 862.31,-369.3 865,-356 876.83,-297.56 875.27,-272.8 841,-224 831.45,-210.4 816.36,-199.74 802.92,-192.22"/>
<polygon fill="midnightblue" stroke="midnightblue" points="804.45,-189.06 793.97,-187.51 801.19,-195.26 804.45,-189.06"/>
</g>
<!-- Node19 -->
<g id="node19" class="node">
<title>Node19</title>
<g id="a_node19"><a xlink:href="c__tree_8h.html" target="_top" xlink:title=" ">
<polygon fill="white" stroke="black" points="682,-336.5 682,-355.5 792,-355.5 792,-336.5 682,-336.5"/>
<text text-anchor="middle" x="737" y="-343.5" font-family="Helvetica,sans-Serif" font-size="10.00">SComponent/c_tree.h</text>
</a>
</g>
</g>
<!-- Node10&#45;&gt;Node19 -->
<g id="edge27" class="edge">
<title>Node10&#45;&gt;Node19</title>
<path fill="none" stroke="midnightblue" d="M828.49,-392.32C810.93,-383.62 783.67,-370.12 763.47,-360.11"/>
<polygon fill="midnightblue" stroke="midnightblue" points="764.98,-356.96 754.47,-355.65 761.88,-363.23 764.98,-356.96"/>
</g>
<!-- Node11&#45;&gt;Node12 -->
<g id="edge14" class="edge">
<title>Node11&#45;&gt;Node12</title>
<path fill="none" stroke="midnightblue" d="M774,-280.08C774,-273.01 774,-262.86 774,-253.99"/>
<polygon fill="midnightblue" stroke="midnightblue" points="777.5,-253.75 774,-243.75 770.5,-253.75 777.5,-253.75"/>
</g>
<!-- Node12&#45;&gt;Node13 -->
<g id="edge15" class="edge">
<title>Node12&#45;&gt;Node13</title>
<path fill="none" stroke="midnightblue" d="M774,-224.08C774,-217.01 774,-206.86 774,-197.99"/>
<polygon fill="midnightblue" stroke="midnightblue" points="777.5,-197.75 774,-187.75 770.5,-197.75 777.5,-197.75"/>
</g>
<!-- Node13&#45;&gt;Node4 -->
<g id="edge16" class="edge">
<title>Node13&#45;&gt;Node4</title>
<path fill="none" stroke="midnightblue" d="M769.35,-168.49C758.18,-148.3 728.59,-96.21 699,-56 691.65,-46.01 682.62,-35.5 675.1,-27.15"/>
<polygon fill="midnightblue" stroke="midnightblue" points="677.54,-24.63 668.2,-19.62 672.38,-29.36 677.54,-24.63"/>
</g>
<!-- Node14 -->
<g id="node14" class="node">
<title>Node14</title>
<g id="a_node14"><a xlink:href="AR_8h.html" target="_top" xlink:title=" ">
<polygon fill="white" stroke="black" points="749.5,-56.5 749.5,-75.5 798.5,-75.5 798.5,-56.5 749.5,-56.5"/>
<text text-anchor="middle" x="774" y="-63.5" font-family="Helvetica,sans-Serif" font-size="10.00">ar/AR.h</text>
</a>
</g>
</g>
<!-- Node13&#45;&gt;Node14 -->
<g id="edge17" class="edge">
<title>Node13&#45;&gt;Node14</title>
<path fill="none" stroke="midnightblue" d="M774,-168.37C774,-150.62 774,-109.67 774,-85.6"/>
<polygon fill="midnightblue" stroke="midnightblue" points="777.5,-85.59 774,-75.59 770.5,-85.59 777.5,-85.59"/>
</g>
<!-- Node15 -->
<g id="node15" class="node">
<title>Node15</title>
<g id="a_node15"><a xlink:href="ARQ_8h.html" target="_top" xlink:title=" ">
<polygon fill="white" stroke="black" points="817,-56.5 817,-75.5 873,-75.5 873,-56.5 817,-56.5"/>
<text text-anchor="middle" x="845" y="-63.5" font-family="Helvetica,sans-Serif" font-size="10.00">ar/ARQ.h</text>
</a>
</g>
</g>
<!-- Node13&#45;&gt;Node15 -->
<g id="edge19" class="edge">
<title>Node13&#45;&gt;Node15</title>
<path fill="none" stroke="midnightblue" d="M779.57,-168.37C791.24,-150.3 818.42,-108.18 833.83,-84.31"/>
<polygon fill="midnightblue" stroke="midnightblue" points="836.97,-85.89 839.45,-75.59 831.09,-82.1 836.97,-85.89"/>
</g>
<!-- Node16 -->
<g id="node16" class="node">
<title>Node16</title>
<g id="a_node16"><a xlink:href="mwcc_8h.html" target="_top" xlink:title=" ">
<polygon fill="white" stroke="black" points="646,-112.5 646,-131.5 696,-131.5 696,-112.5 646,-112.5"/>
<text text-anchor="middle" x="671" y="-119.5" font-family="Helvetica,sans-Serif" font-size="10.00">mwcc.h</text>
</a>
</g>
</g>
<!-- Node13&#45;&gt;Node16 -->
<g id="edge21" class="edge">
<title>Node13&#45;&gt;Node16</title>
<path fill="none" stroke="midnightblue" d="M757.45,-168.32C741.01,-159.7 715.57,-146.36 696.53,-136.39"/>
<polygon fill="midnightblue" stroke="midnightblue" points="697.99,-133.2 687.51,-131.65 694.74,-139.4 697.99,-133.2"/>
</g>
<!-- Node17 -->
<g id="node17" class="node">
<title>Node17</title>
<g id="a_node17"><a xlink:href="OS_8h.html" target="_top" xlink:title=" ">
<polygon fill="white" stroke="black" points="576,-112.5 576,-131.5 628,-131.5 628,-112.5 576,-112.5"/>
<text text-anchor="middle" x="602" y="-119.5" font-family="Helvetica,sans-Serif" font-size="10.00">os/OS.h</text>
</a>
</g>
</g>
<!-- Node13&#45;&gt;Node17 -->
<g id="edge22" class="edge">
<title>Node13&#45;&gt;Node17</title>
<path fill="none" stroke="midnightblue" d="M748.99,-169.15C719.77,-159.98 671.21,-144.73 637.96,-134.29"/>
<polygon fill="midnightblue" stroke="midnightblue" points="638.76,-130.87 628.17,-131.22 636.66,-137.55 638.76,-130.87"/>
</g>
<!-- Node14&#45;&gt;Node4 -->
<g id="edge18" class="edge">
<title>Node14&#45;&gt;Node4</title>
<path fill="none" stroke="midnightblue" d="M755.94,-56.44C737.43,-47.68 708.42,-33.94 687.14,-23.86"/>
<polygon fill="midnightblue" stroke="midnightblue" points="688.51,-20.63 677.98,-19.52 685.52,-26.96 688.51,-20.63"/>
</g>
<!-- Node15&#45;&gt;Node4 -->
<g id="edge20" class="edge">
<title>Node15&#45;&gt;Node4</title>
<path fill="none" stroke="midnightblue" d="M816.9,-56.8C785.53,-47.64 734.54,-32.76 699.24,-22.45"/>
<polygon fill="midnightblue" stroke="midnightblue" points="699.86,-18.99 689.28,-19.55 697.9,-25.71 699.86,-18.99"/>
</g>
<!-- Node17&#45;&gt;Node4 -->
<g id="edge23" class="edge">
<title>Node17&#45;&gt;Node4</title>
<path fill="none" stroke="midnightblue" d="M603.55,-112.15C606.06,-99.21 611.81,-74.65 622,-56 627.81,-45.37 636.38,-34.93 643.92,-26.8"/>
<polygon fill="midnightblue" stroke="midnightblue" points="646.53,-29.13 650.96,-19.5 641.5,-24.26 646.53,-29.13"/>
</g>
<!-- Node18 -->
<g id="node18" class="node">
<title>Node18</title>
<g id="a_node18"><a xlink:href="dvd_8h.html" target="_top" xlink:title=" ">
<polygon fill="white" stroke="black" points="630.5,-56.5 630.5,-75.5 689.5,-75.5 689.5,-56.5 630.5,-56.5"/>
<text text-anchor="middle" x="660" y="-63.5" font-family="Helvetica,sans-Serif" font-size="10.00">dvd/dvd.h</text>
</a>
</g>
</g>
<!-- Node17&#45;&gt;Node18 -->
<g id="edge24" class="edge">
<title>Node17&#45;&gt;Node18</title>
<path fill="none" stroke="midnightblue" d="M611.32,-112.32C619.89,-104.34 632.81,-92.31 643.19,-82.65"/>
<polygon fill="midnightblue" stroke="midnightblue" points="645.58,-85.21 650.51,-75.83 640.81,-80.09 645.58,-85.21"/>
</g>
<!-- Node18&#45;&gt;Node4 -->
<g id="edge25" class="edge">
<title>Node18&#45;&gt;Node4</title>
<path fill="none" stroke="midnightblue" d="M660,-56.08C660,-49.01 660,-38.86 660,-29.99"/>
<polygon fill="midnightblue" stroke="midnightblue" points="663.5,-29.75 660,-19.75 656.5,-29.75 663.5,-29.75"/>
</g>
<!-- Node19&#45;&gt;Node11 -->
<g id="edge28" class="edge">
<title>Node19&#45;&gt;Node11</title>
<path fill="none" stroke="midnightblue" d="M743.11,-336.08C748.28,-328.53 755.85,-317.49 762.19,-308.23"/>
<polygon fill="midnightblue" stroke="midnightblue" points="765.24,-309.98 768,-299.75 759.46,-306.02 765.24,-309.98"/>
</g>
<!-- Node19&#45;&gt;Node12 -->
<g id="edge29" class="edge">
<title>Node19&#45;&gt;Node12</title>
<path fill="none" stroke="midnightblue" d="M729.08,-336.34C718.49,-323.65 702.12,-299.39 712,-280 719,-266.27 732.37,-255.75 744.9,-248.35"/>
<polygon fill="midnightblue" stroke="midnightblue" points="746.67,-251.37 753.78,-243.51 743.32,-245.22 746.67,-251.37"/>
</g>
<!-- Node20&#45;&gt;Node10 -->
<g id="edge33" class="edge">
<title>Node20&#45;&gt;Node10</title>
<path fill="none" stroke="midnightblue" d="M950.71,-515.41C938.02,-505.76 921.36,-492.35 908,-479 889.27,-460.29 870.42,-436.27 858.51,-420.29"/>
<polygon fill="midnightblue" stroke="midnightblue" points="861.09,-417.9 852.35,-411.92 855.45,-422.05 861.09,-417.9"/>
</g>
<!-- Node20&#45;&gt;Node13 -->
<g id="edge39" class="edge">
<title>Node20&#45;&gt;Node13</title>
<path fill="none" stroke="midnightblue" d="M968.8,-515.37C964.08,-468.08 942.78,-313.28 861,-224 846.85,-208.55 826.17,-197.55 808.53,-190.3"/>
<polygon fill="midnightblue" stroke="midnightblue" points="809.69,-186.99 799.1,-186.64 807.16,-193.52 809.69,-186.99"/>
</g>
<!-- Node20&#45;&gt;Node21 -->
<g id="edge34" class="edge">
<title>Node20&#45;&gt;Node21</title>
<path fill="none" stroke="midnightblue" d="M922.41,-516.5C878.67,-504.56 814.51,-487.04 773,-475.7"/>
<polygon fill="midnightblue" stroke="midnightblue" points="773.78,-472.28 763.21,-473.02 771.94,-479.04 773.78,-472.28"/>
</g>
<!-- Node21&#45;&gt;Node10 -->
<g id="edge36" class="edge">
<title>Node21&#45;&gt;Node10</title>
<path fill="none" stroke="midnightblue" d="M748.33,-453.98C767.21,-444.12 798.51,-427.79 820.58,-416.27"/>
<polygon fill="midnightblue" stroke="midnightblue" points="822.45,-419.24 829.7,-411.51 819.21,-413.03 822.45,-419.24"/>
</g>
<!-- Node21&#45;&gt;Node12 -->
<g id="edge35" class="edge">
<title>Node21&#45;&gt;Node12</title>
<path fill="none" stroke="midnightblue" d="M723.03,-453.73C703.71,-433.74 660.88,-382.93 673,-336 680.12,-308.46 684.56,-300.77 704,-280 716.03,-267.15 732.48,-256.33 746.4,-248.53"/>
<polygon fill="midnightblue" stroke="midnightblue" points="748.39,-251.43 755.55,-243.62 745.09,-245.26 748.39,-251.43"/>
</g>
<!-- Node21&#45;&gt;Node13 -->
<g id="edge38" class="edge">
<title>Node21&#45;&gt;Node13</title>
<path fill="none" stroke="midnightblue" d="M712.32,-453.94C679.23,-438.07 616,-400.71 616,-347 616,-347 616,-347 616,-289 616,-229.37 692.74,-199.43 739.26,-186.76"/>
<polygon fill="midnightblue" stroke="midnightblue" points="740.16,-190.14 748.96,-184.24 738.41,-183.36 740.16,-190.14"/>
</g>
<!-- Node21&#45;&gt;Node19 -->
<g id="edge37" class="edge">
<title>Node21&#45;&gt;Node19</title>
<path fill="none" stroke="midnightblue" d="M732.38,-453.82C733.18,-435.26 735.08,-391.34 736.18,-365.97"/>
<polygon fill="midnightblue" stroke="midnightblue" points="739.68,-365.92 736.62,-355.78 732.69,-365.62 739.68,-365.92"/>
</g>
<!-- Node22&#45;&gt;Node10 -->
<g id="edge41" class="edge">
<title>Node22&#45;&gt;Node10</title>
<path fill="none" stroke="midnightblue" d="M711.21,-520.99C733.32,-512.68 765.53,-498.43 789,-479 809.18,-462.29 826.26,-437.06 836.32,-420.32"/>
<polygon fill="midnightblue" stroke="midnightblue" points="839.41,-421.97 841.4,-411.56 833.35,-418.45 839.41,-421.97"/>
</g>
<!-- Node22&#45;&gt;Node13 -->
<g id="edge43" class="edge">
<title>Node22&#45;&gt;Node13</title>
<path fill="none" stroke="midnightblue" d="M654.97,-520.99C620.99,-511.08 569.5,-494.13 556,-479 532.74,-452.94 536,-437.93 536,-403 536,-403 536,-403 536,-289 536,-200.82 672.28,-183.11 738.59,-179.71"/>
<polygon fill="midnightblue" stroke="midnightblue" points="739.14,-183.19 748.98,-179.26 738.84,-176.19 739.14,-183.19"/>
</g>
<!-- Node22&#45;&gt;Node21 -->
<g id="edge42" class="edge">
<title>Node22&#45;&gt;Node21</title>
<path fill="none" stroke="midnightblue" d="M692.2,-520.73C699.31,-510.7 711.11,-494.01 720.02,-481.42"/>
<polygon fill="midnightblue" stroke="midnightblue" points="722.97,-483.31 725.89,-473.13 717.26,-479.27 722.97,-483.31"/>
</g>
<!-- Node23&#45;&gt;Node10 -->
<g id="edge45" class="edge">
<title>Node23&#45;&gt;Node10</title>
<path fill="none" stroke="midnightblue" d="M1014.77,-453.98C980.4,-443.59 922.19,-426.01 883.92,-414.45"/>
<polygon fill="midnightblue" stroke="midnightblue" points="884.76,-411.05 874.17,-411.51 882.73,-417.75 884.76,-411.05"/>
</g>
<!-- Node23&#45;&gt;Node13 -->
<g id="edge46" class="edge">
<title>Node23&#45;&gt;Node13</title>
<path fill="none" stroke="midnightblue" d="M1043.38,-453.81C1044.19,-434.57 1046,-386.92 1046,-347 1046,-347 1046,-347 1046,-289 1046,-249.08 1018.84,-243.49 984,-224 928.24,-192.8 853.03,-183.21 809.39,-180.27"/>
<polygon fill="midnightblue" stroke="midnightblue" points="809.46,-176.77 799.27,-179.68 809.05,-183.76 809.46,-176.77"/>
</g>
<!-- Node24&#45;&gt;Node10 -->
<g id="edge48" class="edge">
<title>Node24&#45;&gt;Node10</title>
<path fill="none" stroke="midnightblue" d="M816.2,-520.81C821.34,-500.49 834.22,-449.55 841.25,-421.78"/>
<polygon fill="midnightblue" stroke="midnightblue" points="844.73,-422.31 843.79,-411.76 837.94,-420.59 844.73,-422.31"/>
</g>
<!-- Node25 -->
<g id="node25" class="node">
<title>Node25</title>
<g id="a_node25"><a xlink:href="f__pc__method__tag_8h.html" target="_top" xlink:title=" ">
<polygon fill="white" stroke="black" points="564.5,-448.5 564.5,-478.5 665.5,-478.5 665.5,-448.5 564.5,-448.5"/>
<text text-anchor="start" x="572.5" y="-466.5" font-family="Helvetica,sans-Serif" font-size="10.00">f/f_pc/f_pc_method</text>
<text text-anchor="middle" x="615" y="-455.5" font-family="Helvetica,sans-Serif" font-size="10.00">_tag.h</text>
</a>
</g>
</g>
<!-- Node24&#45;&gt;Node25 -->
<g id="edge49" class="edge">
<title>Node24&#45;&gt;Node25</title>
<path fill="none" stroke="midnightblue" d="M787.57,-520.87C757.07,-510.9 706.13,-494.27 667.49,-481.64"/>
<polygon fill="midnightblue" stroke="midnightblue" points="668.54,-478.31 657.95,-478.53 666.37,-484.96 668.54,-478.31"/>
</g>
<!-- Node25&#45;&gt;Node10 -->
<g id="edge50" class="edge">
<title>Node25&#45;&gt;Node10</title>
<path fill="none" stroke="midnightblue" d="M665.69,-449.44C706.78,-438.86 764.04,-424.11 802.93,-414.09"/>
<polygon fill="midnightblue" stroke="midnightblue" points="804.08,-417.41 812.89,-411.53 802.34,-410.63 804.08,-417.41"/>
</g>
<!-- Node25&#45;&gt;Node13 -->
<g id="edge51" class="edge">
<title>Node25&#45;&gt;Node13</title>
<path fill="none" stroke="midnightblue" d="M607.33,-448.38C596.5,-427.07 578,-385.11 578,-347 578,-347 578,-347 578,-289 578,-216.08 682.44,-191.01 738.84,-182.78"/>
<polygon fill="midnightblue" stroke="midnightblue" points="739.34,-186.24 748.78,-181.43 738.4,-179.31 739.34,-186.24"/>
</g>
<!-- Node26&#45;&gt;Node13 -->
<g id="edge55" class="edge">
<title>Node26&#45;&gt;Node13</title>
<path fill="none" stroke="midnightblue" d="M591.26,-520.92C600.45,-518.68 610.58,-516.48 620,-515 673.6,-506.6 1065.49,-513.95 1107,-479 1133.63,-456.58 1126,-437.82 1126,-403 1126,-403 1126,-403 1126,-289 1126,-223.09 898.34,-192.05 809.19,-182.42"/>
<polygon fill="midnightblue" stroke="midnightblue" points="809.34,-178.92 799.03,-181.35 808.61,-185.88 809.34,-178.92"/>
</g>
<!-- Node26&#45;&gt;Node27 -->
<g id="edge53" class="edge">
<title>Node26&#45;&gt;Node27</title>
<path fill="none" stroke="midnightblue" d="M545.7,-520.73C527.98,-509.87 497.57,-491.22 476.66,-478.39"/>
<polygon fill="midnightblue" stroke="midnightblue" points="478.42,-475.37 468.07,-473.13 474.76,-481.34 478.42,-475.37"/>
</g>
<!-- Node27&#45;&gt;Node13 -->
<g id="edge54" class="edge">
<title>Node27&#45;&gt;Node13</title>
<path fill="none" stroke="midnightblue" d="M456.79,-453.91C462.71,-434.88 476,-387.62 476,-347 476,-347 476,-347 476,-289 476,-253.61 492.12,-242.97 522,-224 557.48,-201.47 678.1,-187.67 738.67,-181.99"/>
<polygon fill="midnightblue" stroke="midnightblue" points="739.27,-185.45 748.91,-181.06 738.63,-178.48 739.27,-185.45"/>
</g>
<!-- Node28&#45;&gt;Node3 -->
<g id="edge60" class="edge">
<title>Node28&#45;&gt;Node3</title>
<path fill="none" stroke="midnightblue" d="M391.54,-699.98C377.58,-690.43 354.74,-674.81 338.01,-663.37"/>
<polygon fill="midnightblue" stroke="midnightblue" points="339.67,-660.27 329.44,-657.51 335.72,-666.04 339.67,-660.27"/>
</g>
<!-- Node28&#45;&gt;Node8 -->
<g id="edge63" class="edge">
<title>Node28&#45;&gt;Node8</title>
<path fill="none" stroke="midnightblue" d="M373.48,-699.98C336.08,-689.53 272.57,-671.79 231.21,-660.23"/>
<polygon fill="midnightblue" stroke="midnightblue" points="232.03,-656.83 221.46,-657.51 230.15,-663.57 232.03,-656.83"/>
</g>
<!-- Node28&#45;&gt;Node13 -->
<g id="edge64" class="edge">
<title>Node28&#45;&gt;Node13</title>
<path fill="none" stroke="midnightblue" d="M402.37,-699.54C395.85,-662.9 372,-520.86 372,-403 372,-403 372,-403 372,-289 372,-213.25 640.89,-187.83 738.85,-181.08"/>
<polygon fill="midnightblue" stroke="midnightblue" points="739.11,-184.57 748.85,-180.41 738.64,-177.59 739.11,-184.57"/>
</g>
<!-- Node28&#45;&gt;Node25 -->
<g id="edge62" class="edge">
<title>Node28&#45;&gt;Node25</title>
<path fill="none" stroke="midnightblue" d="M409.58,-699.71C415.81,-689.75 426.08,-672.96 434,-658 466.85,-595.98 450.85,-564.1 501,-515 515.95,-500.36 535.87,-489.58 554.87,-481.82"/>
<polygon fill="midnightblue" stroke="midnightblue" points="556.32,-485.01 564.39,-478.15 553.8,-478.48 556.32,-485.01"/>
</g>
<!-- Node28&#45;&gt;Node27 -->
<g id="edge61" class="edge">
<title>Node28&#45;&gt;Node27</title>
<path fill="none" stroke="midnightblue" d="M406.84,-700C410.09,-690.02 415.44,-672.95 419,-658 434.14,-594.45 446.2,-517.78 451.33,-483.12"/>
<polygon fill="midnightblue" stroke="midnightblue" points="454.82,-483.46 452.8,-473.06 447.89,-482.45 454.82,-483.46"/>
</g>
<!-- Node29&#45;&gt;Node4 -->
<g id="edge69" class="edge">
<title>Node29&#45;&gt;Node4</title>
<path fill="none" stroke="midnightblue" d="M1416.89,-694.34C1431.74,-685.72 1448.97,-673.39 1460,-658 1477.53,-633.53 1479,-623.1 1479,-593 1479,-593 1479,-593 1479,-121 1479,-43.11 889.59,-18.21 710.8,-12.45"/>
<polygon fill="midnightblue" stroke="midnightblue" points="710.72,-8.94 700.61,-12.13 710.5,-15.94 710.72,-8.94"/>
</g>
<!-- Node30 -->
<g id="node30" class="node">
<title>Node30</title>
<g id="a_node30"><a xlink:href="c__request_8h.html" target="_top" xlink:title=" ">
<polygon fill="white" stroke="black" points="1325,-638.5 1325,-657.5 1451,-657.5 1451,-638.5 1325,-638.5"/>
<text text-anchor="middle" x="1388" y="-645.5" font-family="Helvetica,sans-Serif" font-size="10.00">SComponent/c_request.h</text>
</a>
</g>
</g>
<!-- Node29&#45;&gt;Node30 -->
<g id="edge66" class="edge">
<title>Node29&#45;&gt;Node30</title>
<path fill="none" stroke="midnightblue" d="M1388,-694.4C1388,-686.47 1388,-676.46 1388,-667.86"/>
<polygon fill="midnightblue" stroke="midnightblue" points="1391.5,-667.66 1388,-657.66 1384.5,-667.66 1391.5,-667.66"/>
</g>
<!-- Node30&#45;&gt;Node4 -->
<g id="edge67" class="edge">
<title>Node30&#45;&gt;Node4</title>
<path fill="none" stroke="midnightblue" d="M1388,-638.31C1388,-619.06 1388,-571.4 1388,-531.5 1388,-531.5 1388,-531.5 1388,-121 1388,-52.44 876.71,-21.54 711.1,-13.33"/>
<polygon fill="midnightblue" stroke="midnightblue" points="710.86,-9.81 700.7,-12.82 710.52,-16.8 710.86,-9.81"/>
</g>
<!-- Node30&#45;&gt;Node9 -->
<g id="edge68" class="edge">
<title>Node30&#45;&gt;Node9</title>
<path fill="none" stroke="midnightblue" d="M1324.92,-639.47C1253.72,-630.87 1134.44,-616.16 1032,-602 1031.66,-601.95 1031.31,-601.91 1030.97,-601.86"/>
<polygon fill="midnightblue" stroke="midnightblue" points="1031.17,-598.35 1020.78,-600.41 1030.19,-605.28 1031.17,-598.35"/>
</g>
<!-- Node31&#45;&gt;Node9 -->
<g id="edge73" class="edge">
<title>Node31&#45;&gt;Node9</title>
<path fill="none" stroke="midnightblue" d="M1150.41,-638.44C1113.81,-629.12 1055.16,-614.18 1015.17,-604"/>
<polygon fill="midnightblue" stroke="midnightblue" points="1015.99,-600.59 1005.43,-601.52 1014.26,-607.38 1015.99,-600.59"/>
</g>
<!-- Node32 -->
<g id="node32" class="node">
<title>Node32</title>
<g id="a_node32"><a xlink:href="c__node__iter_8h.html" target="_top" xlink:title=" ">
<polygon fill="white" stroke="black" points="1188,-521 1188,-540 1322,-540 1322,-521 1188,-521"/>
<text text-anchor="middle" x="1255" y="-528" font-family="Helvetica,sans-Serif" font-size="10.00">SComponent/c_node_iter.h</text>
</a>
</g>
</g>
<!-- Node31&#45;&gt;Node32 -->
<g id="edge71" class="edge">
<title>Node31&#45;&gt;Node32</title>
<path fill="none" stroke="midnightblue" d="M1185.08,-638.44C1187.01,-625.45 1191.96,-600.33 1203,-582 1211.28,-568.26 1224.21,-555.68 1235.11,-546.51"/>
<polygon fill="midnightblue" stroke="midnightblue" points="1237.34,-549.2 1242.93,-540.2 1232.95,-543.75 1237.34,-549.2"/>
</g>
<!-- Node33 -->
<g id="node33" class="node">
<title>Node33</title>
<g id="a_node33"><a xlink:href="f__pc__layer__iter_8h.html" target="_top" xlink:title=" ">
<polygon fill="white" stroke="black" points="1040.5,-582.5 1040.5,-601.5 1155.5,-601.5 1155.5,-582.5 1040.5,-582.5"/>
<text text-anchor="middle" x="1098" y="-589.5" font-family="Helvetica,sans-Serif" font-size="10.00">f/f_pc/f_pc_layer_iter.h</text>
</a>
</g>
</g>
<!-- Node31&#45;&gt;Node33 -->
<g id="edge74" class="edge">
<title>Node31&#45;&gt;Node33</title>
<path fill="none" stroke="midnightblue" d="M1170.18,-638.32C1156.77,-629.9 1136.18,-616.97 1120.41,-607.07"/>
<polygon fill="midnightblue" stroke="midnightblue" points="1122.11,-604.01 1111.78,-601.65 1118.39,-609.94 1122.11,-604.01"/>
</g>
<!-- Node34 -->
<g id="node34" class="node">
<title>Node34</title>
<g id="a_node34"><a xlink:href="f__pc__line__iter_8h.html" target="_top" xlink:title=" ">
<polygon fill="white" stroke="black" points="1212,-582.5 1212,-601.5 1322,-601.5 1322,-582.5 1212,-582.5"/>
<text text-anchor="middle" x="1267" y="-589.5" font-family="Helvetica,sans-Serif" font-size="10.00">f/f_pc/f_pc_line_iter.h</text>
</a>
</g>
</g>
<!-- Node31&#45;&gt;Node34 -->
<g id="edge78" class="edge">
<title>Node31&#45;&gt;Node34</title>
<path fill="none" stroke="midnightblue" d="M1197.34,-638.32C1210.16,-629.98 1229.78,-617.21 1244.94,-607.35"/>
<polygon fill="midnightblue" stroke="midnightblue" points="1247.22,-610.04 1253.7,-601.65 1243.41,-604.17 1247.22,-610.04"/>
</g>
<!-- Node32&#45;&gt;Node12 -->
<g id="edge72" class="edge">
<title>Node32&#45;&gt;Node12</title>
<path fill="none" stroke="midnightblue" d="M1241.68,-520.85C1191.54,-488.35 1009.08,-370.78 855,-280 836.35,-269.01 814.92,-257.14 798.79,-248.35"/>
<polygon fill="midnightblue" stroke="midnightblue" points="800.42,-245.25 789.97,-243.56 797.09,-251.41 800.42,-245.25"/>
</g>
<!-- Node33&#45;&gt;Node13 -->
<g id="edge77" class="edge">
<title>Node33&#45;&gt;Node13</title>
<path fill="none" stroke="midnightblue" d="M1106.88,-582.33C1137.97,-551.6 1240,-447.38 1240,-403 1240,-403 1240,-403 1240,-289 1240,-200.51 917.67,-183.12 809.16,-179.78"/>
<polygon fill="midnightblue" stroke="midnightblue" points="809.15,-176.28 799.05,-179.49 808.95,-183.27 809.15,-176.28"/>
</g>
<!-- Node33&#45;&gt;Node21 -->
<g id="edge76" class="edge">
<title>Node33&#45;&gt;Node21</title>
<path fill="none" stroke="midnightblue" d="M1040.26,-583.44C1002.85,-576.99 953.86,-565.54 914,-546 894.12,-536.25 894.37,-525.72 875,-515 843.58,-497.61 805.04,-484.41 775.89,-475.88"/>
<polygon fill="midnightblue" stroke="midnightblue" points="776.57,-472.43 766,-473.05 774.65,-479.16 776.57,-472.43"/>
</g>
<!-- Node33&#45;&gt;Node32 -->
<g id="edge75" class="edge">
<title>Node33&#45;&gt;Node32</title>
<path fill="none" stroke="midnightblue" d="M1120.49,-582.48C1147.31,-572.31 1192.32,-555.26 1222.81,-543.7"/>
<polygon fill="midnightblue" stroke="midnightblue" points="1224.44,-546.83 1232.55,-540.01 1221.96,-540.28 1224.44,-546.83"/>
</g>
<!-- Node34&#45;&gt;Node32 -->
<g id="edge79" class="edge">
<title>Node34&#45;&gt;Node32</title>
<path fill="none" stroke="midnightblue" d="M1265.28,-582.48C1263.57,-573.99 1260.89,-560.7 1258.7,-549.82"/>
<polygon fill="midnightblue" stroke="midnightblue" points="1262.12,-549.12 1256.72,-540.01 1255.26,-550.5 1262.12,-549.12"/>
</g>
</g>
</svg>
