<?xml version="1.0" encoding="UTF-8" standalone="no"?>
<!DOCTYPE svg PUBLIC "-//W3C//DTD SVG 1.1//EN"
 "http://www.w3.org/Graphics/SVG/1.1/DTD/svg11.dtd">
<!-- Generated by graphviz version 2.44.0 ()
 -->
<!-- Title: include/f/f_pc/f_pc_delete_tag.h Pages: 1 -->
<!--zoomable 543 -->
<svg id="main" version="1.1" xmlns="http://www.w3.org/2000/svg" xmlns:xlink="http://www.w3.org/1999/xlink" xml:space="preserve" onload="init(evt)">
<style type="text/css"><![CDATA[
.edge:hover path { stroke: red; }
.edge:hover polygon { stroke: red; fill: red; }
]]></style>
<script type="text/javascript"><![CDATA[
var edges = document.getElementsByTagName('g');
if (edges && edges.length) {
  for (var i=0;i<edges.length;i++) {
    if (edges[i].id.substr(0,4)=='edge') {
      edges[i].setAttribute('class','edge');
    }
  }
}
]]></script>
        <defs>
                <circle id="rim" cx="0" cy="0" r="7"/>
                <circle id="rim2" cx="0" cy="0" r="3.5"/>
                <g id="zoomPlus">
                        <use xlink:href="#rim" fill="#404040">
                                <set attributeName="fill" to="#808080" begin="zoomplus.mouseover" end="zoomplus.mouseout"/>
                        </use>
                        <path d="M-4,0h8M0,-4v8" fill="none" stroke="white" stroke-width="1.5" pointer-events="none"/>
                </g>
                <g id="zoomMin">
                        <use xlink:href="#rim" fill="#404040">
                                <set attributeName="fill" to="#808080" begin="zoomminus.mouseover" end="zoomminus.mouseout"/>
                        </use>
                        <path d="M-4,0h8" fill="none" stroke="white" stroke-width="1.5" pointer-events="none"/>
                </g>
                <g id="dirArrow">
                        <path fill="none" stroke="white" stroke-width="1.5" d="M0,-3.0v7 M-2.5,-0.5L0,-3.0L2.5,-0.5"/>
                </g>
               <g id="resetDef">
                       <use xlink:href="#rim2" fill="#404040">
                               <set attributeName="fill" to="#808080" begin="reset.mouseover" end="reset.mouseout"/>
                       </use>
               </g>
        </defs>

<script type="text/javascript">
var viewWidth = 340;
var viewHeight = 543;
var sectionId = 'dynsection-0';
</script>
<script xlink:href="svgpan.js"/>
<svg id="graph" class="graph">
<g id="viewport">
<title>include/f/f_pc/f_pc_delete_tag.h</title>
<polygon fill="white" stroke="transparent" points="-4,4 -4,-539 336.18,-539 336.18,4 -4,4"/>
<!-- Node1 -->
<g id="node1" class="node">
<title>Node1</title>
<g id="a_node1"><a xlink:title=" ">
<polygon fill="#bfbfbf" stroke="black" points="79.68,-504.5 79.68,-534.5 176.68,-534.5 176.68,-504.5 79.68,-504.5"/>
<text text-anchor="start" x="87.68" y="-522.5" font-family="Helvetica,sans-Serif" font-size="10.00">include/f/f_pc/f_pc</text>
<text text-anchor="middle" x="128.18" y="-511.5" font-family="Helvetica,sans-Serif" font-size="10.00">_delete_tag.h</text>
</a>
</g>
</g>
<!-- Node2 -->
<g id="node2" class="node">
<title>Node2</title>
<g id="a_node2"><a xlink:href="c__tag_8h.html" target="_top" xlink:title=" ">
<polygon fill="white" stroke="black" points="74.68,-392.5 74.68,-411.5 181.68,-411.5 181.68,-392.5 74.68,-392.5"/>
<text text-anchor="middle" x="128.18" y="-399.5" font-family="Helvetica,sans-Serif" font-size="10.00">SComponent/c_tag.h</text>
</a>
</g>
</g>
<!-- Node1&#45;&gt;Node2 -->
<g id="edge1" class="edge">
<title>Node1&#45;&gt;Node2</title>
<path fill="none" stroke="midnightblue" d="M128.18,-504.34C128.18,-483.62 128.18,-445.02 128.18,-421.9"/>
<polygon fill="midnightblue" stroke="midnightblue" points="131.68,-421.67 128.18,-411.67 124.68,-421.67 131.68,-421.67"/>
</g>
<!-- Node5 -->
<g id="node5" class="node">
<title>Node5</title>
<g id="a_node5"><a xlink:href="global_8h.html" target="_top" xlink:title=" ">
<polygon fill="white" stroke="black" points="87.18,-168.5 87.18,-187.5 137.18,-187.5 137.18,-168.5 87.18,-168.5"/>
<text text-anchor="middle" x="112.18" y="-175.5" font-family="Helvetica,sans-Serif" font-size="10.00">global.h</text>
</a>
</g>
</g>
<!-- Node1&#45;&gt;Node5 -->
<g id="edge25" class="edge">
<title>Node1&#45;&gt;Node5</title>
<path fill="none" stroke="midnightblue" d="M98.23,-504.37C64.45,-486.11 14.18,-450.9 14.18,-403 14.18,-403 14.18,-403 14.18,-289 14.18,-245.38 57.67,-211.06 86.71,-193.01"/>
<polygon fill="midnightblue" stroke="midnightblue" points="88.76,-195.86 95.55,-187.73 85.17,-189.85 88.76,-195.86"/>
</g>
<!-- Node13 -->
<g id="node13" class="node">
<title>Node13</title>
<g id="a_node13"><a xlink:href="f__pc__layer_8h.html" target="_top" xlink:title=" ">
<polygon fill="white" stroke="black" points="163.18,-448.5 163.18,-467.5 259.18,-467.5 259.18,-448.5 163.18,-448.5"/>
<text text-anchor="middle" x="211.18" y="-455.5" font-family="Helvetica,sans-Serif" font-size="10.00">f/f_pc/f_pc_layer.h</text>
</a>
</g>
</g>
<!-- Node1&#45;&gt;Node13 -->
<g id="edge20" class="edge">
<title>Node1&#45;&gt;Node13</title>
<path fill="none" stroke="midnightblue" d="M147.85,-504.4C160.78,-495.13 177.66,-483.03 190.75,-473.65"/>
<polygon fill="midnightblue" stroke="midnightblue" points="193.01,-476.33 199.1,-467.66 188.93,-470.64 193.01,-476.33"/>
</g>
<!-- Node3 -->
<g id="node3" class="node">
<title>Node3</title>
<g id="a_node3"><a xlink:href="c__list_8h.html" target="_top" xlink:title=" ">
<polygon fill="white" stroke="black" points="118.68,-280.5 118.68,-299.5 225.68,-299.5 225.68,-280.5 118.68,-280.5"/>
<text text-anchor="middle" x="172.18" y="-287.5" font-family="Helvetica,sans-Serif" font-size="10.00">SComponent/c_list.h</text>
</a>
</g>
</g>
<!-- Node2&#45;&gt;Node3 -->
<g id="edge2" class="edge">
<title>Node2&#45;&gt;Node3</title>
<path fill="none" stroke="midnightblue" d="M130.05,-392.38C132.94,-379.73 139.02,-355.53 147.18,-336 151.14,-326.52 156.59,-316.47 161.39,-308.29"/>
<polygon fill="midnightblue" stroke="midnightblue" points="164.42,-310.04 166.59,-299.67 158.43,-306.42 164.42,-310.04"/>
</g>
<!-- Node4 -->
<g id="node4" class="node">
<title>Node4</title>
<g id="a_node4"><a xlink:href="c__node_8h.html" target="_top" xlink:title=" ">
<polygon fill="white" stroke="black" points="114.68,-224.5 114.68,-243.5 229.68,-243.5 229.68,-224.5 114.68,-224.5"/>
<text text-anchor="middle" x="172.18" y="-231.5" font-family="Helvetica,sans-Serif" font-size="10.00">SComponent/c_node.h</text>
</a>
</g>
</g>
<!-- Node2&#45;&gt;Node4 -->
<g id="edge15" class="edge">
<title>Node2&#45;&gt;Node4</title>
<path fill="none" stroke="midnightblue" d="M123.51,-392.22C113.17,-371.46 90.69,-318.22 110.18,-280 117.18,-266.27 130.54,-255.75 143.08,-248.35"/>
<polygon fill="midnightblue" stroke="midnightblue" points="144.85,-251.37 151.96,-243.51 141.5,-245.22 144.85,-251.37"/>
</g>
<!-- Node2&#45;&gt;Node5 -->
<g id="edge19" class="edge">
<title>Node2&#45;&gt;Node5</title>
<path fill="none" stroke="midnightblue" d="M120.82,-392.39C114,-383.82 104.3,-369.94 100.18,-356 83.71,-300.25 98.05,-230.49 106.72,-197.69"/>
<polygon fill="midnightblue" stroke="midnightblue" points="110.19,-198.28 109.49,-187.71 103.44,-196.41 110.19,-198.28"/>
</g>
<!-- Node12 -->
<g id="node12" class="node">
<title>Node12</title>
<g id="a_node12"><a xlink:href="c__tree_8h.html" target="_top" xlink:title=" ">
<polygon fill="white" stroke="black" points="156.18,-336.5 156.18,-355.5 266.18,-355.5 266.18,-336.5 156.18,-336.5"/>
<text text-anchor="middle" x="211.18" y="-343.5" font-family="Helvetica,sans-Serif" font-size="10.00">SComponent/c_tree.h</text>
</a>
</g>
</g>
<!-- Node2&#45;&gt;Node12 -->
<g id="edge16" class="edge">
<title>Node2&#45;&gt;Node12</title>
<path fill="none" stroke="midnightblue" d="M141.51,-392.32C154.34,-383.98 173.96,-371.21 189.12,-361.35"/>
<polygon fill="midnightblue" stroke="midnightblue" points="191.4,-364.04 197.88,-355.65 187.59,-358.17 191.4,-364.04"/>
</g>
<!-- Node3&#45;&gt;Node4 -->
<g id="edge3" class="edge">
<title>Node3&#45;&gt;Node4</title>
<path fill="none" stroke="midnightblue" d="M172.18,-280.08C172.18,-273.01 172.18,-262.86 172.18,-253.99"/>
<polygon fill="midnightblue" stroke="midnightblue" points="175.68,-253.75 172.18,-243.75 168.68,-253.75 175.68,-253.75"/>
</g>
<!-- Node4&#45;&gt;Node5 -->
<g id="edge4" class="edge">
<title>Node4&#45;&gt;Node5</title>
<path fill="none" stroke="midnightblue" d="M162.54,-224.32C153.67,-216.34 140.3,-204.31 129.57,-194.65"/>
<polygon fill="midnightblue" stroke="midnightblue" points="131.77,-191.92 121.99,-187.83 127.09,-197.13 131.77,-191.92"/>
</g>
<!-- Node6 -->
<g id="node6" class="node">
<title>Node6</title>
<g id="a_node6"><a xlink:href="types_8h.html" target="_top" xlink:title=" ">
<polygon fill="white" stroke="black" points="71.68,-0.5 71.68,-19.5 152.68,-19.5 152.68,-0.5 71.68,-0.5"/>
<text text-anchor="middle" x="112.18" y="-7.5" font-family="Helvetica,sans-Serif" font-size="10.00">dolphin/types.h</text>
</a>
</g>
</g>
<!-- Node5&#45;&gt;Node6 -->
<g id="edge5" class="edge">
<title>Node5&#45;&gt;Node6</title>
<path fill="none" stroke="midnightblue" d="M94.07,-168.4C56.65,-149.45 -23.21,-102.09 7.18,-56 19.48,-37.35 41.29,-26.4 61.85,-19.98"/>
<polygon fill="midnightblue" stroke="midnightblue" points="62.82,-23.35 71.49,-17.26 60.91,-16.61 62.82,-23.35"/>
</g>
<!-- Node7 -->
<g id="node7" class="node">
<title>Node7</title>
<g id="a_node7"><a xlink:href="AR_8h.html" target="_top" xlink:title=" ">
<polygon fill="white" stroke="black" points="16.68,-56.5 16.68,-75.5 65.68,-75.5 65.68,-56.5 16.68,-56.5"/>
<text text-anchor="middle" x="41.18" y="-63.5" font-family="Helvetica,sans-Serif" font-size="10.00">ar/AR.h</text>
</a>
</g>
</g>
<!-- Node5&#45;&gt;Node7 -->
<g id="edge6" class="edge">
<title>Node5&#45;&gt;Node7</title>
<path fill="none" stroke="midnightblue" d="M106.61,-168.37C94.94,-150.3 67.76,-108.18 52.35,-84.31"/>
<polygon fill="midnightblue" stroke="midnightblue" points="55.09,-82.1 46.72,-75.59 49.21,-85.89 55.09,-82.1"/>
</g>
<!-- Node8 -->
<g id="node8" class="node">
<title>Node8</title>
<g id="a_node8"><a xlink:href="ARQ_8h.html" target="_top" xlink:title=" ">
<polygon fill="white" stroke="black" points="84.18,-56.5 84.18,-75.5 140.18,-75.5 140.18,-56.5 84.18,-56.5"/>
<text text-anchor="middle" x="112.18" y="-63.5" font-family="Helvetica,sans-Serif" font-size="10.00">ar/ARQ.h</text>
</a>
</g>
</g>
<!-- Node5&#45;&gt;Node8 -->
<g id="edge8" class="edge">
<title>Node5&#45;&gt;Node8</title>
<path fill="none" stroke="midnightblue" d="M112.18,-168.37C112.18,-150.62 112.18,-109.67 112.18,-85.6"/>
<polygon fill="midnightblue" stroke="midnightblue" points="115.68,-85.59 112.18,-75.59 108.68,-85.59 115.68,-85.59"/>
</g>
<!-- Node9 -->
<g id="node9" class="node">
<title>Node9</title>
<g id="a_node9"><a xlink:href="mwcc_8h.html" target="_top" xlink:title=" ">
<polygon fill="white" stroke="black" points="211.18,-112.5 211.18,-131.5 261.18,-131.5 261.18,-112.5 211.18,-112.5"/>
<text text-anchor="middle" x="236.18" y="-119.5" font-family="Helvetica,sans-Serif" font-size="10.00">mwcc.h</text>
</a>
</g>
</g>
<!-- Node5&#45;&gt;Node9 -->
<g id="edge10" class="edge">
<title>Node5&#45;&gt;Node9</title>
<path fill="none" stroke="midnightblue" d="M131.83,-168.44C152.14,-159.6 184.08,-145.69 207.28,-135.59"/>
<polygon fill="midnightblue" stroke="midnightblue" points="208.85,-138.72 216.62,-131.52 206.06,-132.3 208.85,-138.72"/>
</g>
<!-- Node10 -->
<g id="node10" class="node">
<title>Node10</title>
<g id="a_node10"><a xlink:href="OS_8h.html" target="_top" xlink:title=" ">
<polygon fill="white" stroke="black" points="141.18,-112.5 141.18,-131.5 193.18,-131.5 193.18,-112.5 141.18,-112.5"/>
<text text-anchor="middle" x="167.18" y="-119.5" font-family="Helvetica,sans-Serif" font-size="10.00">os/OS.h</text>
</a>
</g>
</g>
<!-- Node5&#45;&gt;Node10 -->
<g id="edge11" class="edge">
<title>Node5&#45;&gt;Node10</title>
<path fill="none" stroke="midnightblue" d="M121.26,-168.08C129.35,-160.14 141.37,-148.34 151.09,-138.8"/>
<polygon fill="midnightblue" stroke="midnightblue" points="153.58,-141.25 158.27,-131.75 148.68,-136.26 153.58,-141.25"/>
</g>
<!-- Node7&#45;&gt;Node6 -->
<g id="edge7" class="edge">
<title>Node7&#45;&gt;Node6</title>
<path fill="none" stroke="midnightblue" d="M52.59,-56.32C63.29,-48.18 79.52,-35.84 92.34,-26.09"/>
<polygon fill="midnightblue" stroke="midnightblue" points="94.72,-28.67 100.56,-19.83 90.49,-23.1 94.72,-28.67"/>
</g>
<!-- Node8&#45;&gt;Node6 -->
<g id="edge9" class="edge">
<title>Node8&#45;&gt;Node6</title>
<path fill="none" stroke="midnightblue" d="M112.18,-56.08C112.18,-49.01 112.18,-38.86 112.18,-29.99"/>
<polygon fill="midnightblue" stroke="midnightblue" points="115.68,-29.75 112.18,-19.75 108.68,-29.75 115.68,-29.75"/>
</g>
<!-- Node10&#45;&gt;Node6 -->
<g id="edge12" class="edge">
<title>Node10&#45;&gt;Node6</title>
<path fill="none" stroke="midnightblue" d="M165.93,-112.16C163.85,-99.24 158.9,-74.7 149.18,-56 143.65,-45.36 135.32,-34.93 127.95,-26.8"/>
<polygon fill="midnightblue" stroke="midnightblue" points="130.47,-24.36 121.05,-19.5 125.38,-29.17 130.47,-24.36"/>
</g>
<!-- Node11 -->
<g id="node11" class="node">
<title>Node11</title>
<g id="a_node11"><a xlink:href="dvd_8h.html" target="_top" xlink:title=" ">
<polygon fill="white" stroke="black" points="196.68,-56.5 196.68,-75.5 255.68,-75.5 255.68,-56.5 196.68,-56.5"/>
<text text-anchor="middle" x="226.18" y="-63.5" font-family="Helvetica,sans-Serif" font-size="10.00">dvd/dvd.h</text>
</a>
</g>
</g>
<!-- Node10&#45;&gt;Node11 -->
<g id="edge13" class="edge">
<title>Node10&#45;&gt;Node11</title>
<path fill="none" stroke="midnightblue" d="M176.66,-112.32C185.38,-104.34 198.52,-92.31 209.08,-82.65"/>
<polygon fill="midnightblue" stroke="midnightblue" points="211.51,-85.17 216.53,-75.83 206.79,-80 211.51,-85.17"/>
</g>
<!-- Node11&#45;&gt;Node6 -->
<g id="edge14" class="edge">
<title>Node11&#45;&gt;Node6</title>
<path fill="none" stroke="midnightblue" d="M208.12,-56.44C189.6,-47.68 160.6,-33.94 139.32,-23.86"/>
<polygon fill="midnightblue" stroke="midnightblue" points="140.69,-20.63 130.16,-19.52 137.7,-26.96 140.69,-20.63"/>
</g>
<!-- Node12&#45;&gt;Node3 -->
<g id="edge17" class="edge">
<title>Node12&#45;&gt;Node3</title>
<path fill="none" stroke="midnightblue" d="M204.74,-336.08C199.23,-328.46 191.15,-317.26 184.41,-307.94"/>
<polygon fill="midnightblue" stroke="midnightblue" points="187.19,-305.81 178.5,-299.75 181.52,-309.91 187.19,-305.81"/>
</g>
<!-- Node12&#45;&gt;Node4 -->
<g id="edge18" class="edge">
<title>Node12&#45;&gt;Node4</title>
<path fill="none" stroke="midnightblue" d="M218.89,-336.31C229.2,-323.57 245.09,-299.25 235.18,-280 228.1,-266.25 214.66,-255.77 202,-248.39"/>
<polygon fill="midnightblue" stroke="midnightblue" points="203.49,-245.22 193.03,-243.57 200.18,-251.39 203.49,-245.22"/>
</g>
<!-- Node13&#45;&gt;Node2 -->
<g id="edge22" class="edge">
<title>Node13&#45;&gt;Node2</title>
<path fill="none" stroke="midnightblue" d="M197.84,-448.32C185.02,-439.98 165.39,-427.21 150.24,-417.35"/>
<polygon fill="midnightblue" stroke="midnightblue" points="151.77,-414.17 141.48,-411.65 147.95,-420.04 151.77,-414.17"/>
</g>
<!-- Node13&#45;&gt;Node4 -->
<g id="edge21" class="edge">
<title>Node13&#45;&gt;Node4</title>
<path fill="none" stroke="midnightblue" d="M221.06,-448.27C241.34,-429.24 284.98,-382.02 275.18,-336 269.5,-309.34 268.43,-300.24 250.18,-280 237.61,-266.06 219.67,-255.29 204.16,-247.79"/>
<polygon fill="midnightblue" stroke="midnightblue" points="205.44,-244.53 194.89,-243.55 202.53,-250.9 205.44,-244.53"/>
</g>
<!-- Node13&#45;&gt;Node5 -->
<g id="edge24" class="edge">
<title>Node13&#45;&gt;Node5</title>
<path fill="none" stroke="midnightblue" d="M233.94,-448.43C268.99,-433.58 332.18,-399.52 332.18,-347 332.18,-347 332.18,-347 332.18,-289 332.18,-207.46 209.77,-186.36 147.57,-180.9"/>
<polygon fill="midnightblue" stroke="midnightblue" points="147.66,-177.4 137.42,-180.1 147.11,-184.38 147.66,-177.4"/>
</g>
<!-- Node13&#45;&gt;Node12 -->
<g id="edge23" class="edge">
<title>Node13&#45;&gt;Node12</title>
<path fill="none" stroke="midnightblue" d="M211.18,-448.37C211.18,-430.62 211.18,-389.67 211.18,-365.6"/>
<polygon fill="midnightblue" stroke="midnightblue" points="214.68,-365.59 211.18,-355.59 207.68,-365.59 214.68,-365.59"/>
</g>
</g>
</svg>
        <g id="navigator" transform="translate(0 0)" fill="#404254">
                <rect fill="#f2f5e9" fill-opacity="0.5" stroke="#606060" stroke-width=".5" x="0" y="0" width="60" height="60"/>
                <use id="zoomplus" xlink:href="#zoomPlus" x="17" y="9" onmousedown="handleZoom(evt,'in')"/>
                <use id="zoomminus" xlink:href="#zoomMin" x="42" y="9" onmousedown="handleZoom(evt,'out')"/>
                <use id="reset" xlink:href="#resetDef" x="30" y="36" onmousedown="handleReset()"/>
                <g id="arrowUp" xlink:href="#dirArrow" transform="translate(30 24)" onmousedown="handlePan(0,-1)">
                  <use xlink:href="#rim" fill="#404040">
                        <set attributeName="fill" to="#808080" begin="arrowUp.mouseover" end="arrowUp.mouseout"/>
                  </use>
                  <path fill="none" stroke="white" stroke-width="1.5" d="M0,-3.0v7 M-2.5,-0.5L0,-3.0L2.5,-0.5"/>
                </g>
                <g id="arrowRight" xlink:href="#dirArrow" transform="rotate(90) translate(36 -43)" onmousedown="handlePan(1,0)">
                  <use xlink:href="#rim" fill="#404040">
                        <set attributeName="fill" to="#808080" begin="arrowRight.mouseover" end="arrowRight.mouseout"/>
                  </use>
                  <path fill="none" stroke="white" stroke-width="1.5" d="M0,-3.0v7 M-2.5,-0.5L0,-3.0L2.5,-0.5"/>
                </g>
                <g id="arrowDown" xlink:href="#dirArrow" transform="rotate(180) translate(-30 -48)" onmousedown="handlePan(0,1)">
                  <use xlink:href="#rim" fill="#404040">
                        <set attributeName="fill" to="#808080" begin="arrowDown.mouseover" end="arrowDown.mouseout"/>
                  </use>
                  <path fill="none" stroke="white" stroke-width="1.5" d="M0,-3.0v7 M-2.5,-0.5L0,-3.0L2.5,-0.5"/>
                </g>
                <g id="arrowLeft" xlink:href="#dirArrow" transform="rotate(270) translate(-36 17)" onmousedown="handlePan(-1,0)">
                  <use xlink:href="#rim" fill="#404040">
                        <set attributeName="fill" to="#808080" begin="arrowLeft.mouseover" end="arrowLeft.mouseout"/>
                  </use>
                  <path fill="none" stroke="white" stroke-width="1.5" d="M0,-3.0v7 M-2.5,-0.5L0,-3.0L2.5,-0.5"/>
                </g>
        </g>
        <svg viewBox="0 0 15 15" width="100%" height="30px" preserveAspectRatio="xMaxYMin meet">
         <g id="arrow_out" transform="scale(0.3 0.3)">
          <a xlink:href="f__pc__delete__tag_8h__incl_org.svg" target="_base">
           <rect id="button" ry="5" rx="5" y="6" x="6" height="38" width="38"
                fill="#f2f5e9" fill-opacity="0.5" stroke="#606060" stroke-width="1.0"/>
           <path id="arrow"
             d="M 11.500037,31.436501 C 11.940474,20.09759 22.043105,11.32322 32.158766,21.979434 L 37.068811,17.246167 C 37.068811,17.246167 37.088388,32 37.088388,32 L 22.160133,31.978069 C 22.160133,31.978069 26.997745,27.140456 26.997745,27.140456 C 18.528582,18.264221 13.291696,25.230495 11.500037,31.436501 z"
             style="fill:#404040;"/>
          </a>
         </g>
        </svg>
</svg>
