<?xml version="1.0" encoding="UTF-8" standalone="no"?>
<!DOCTYPE svg PUBLIC "-//W3C//DTD SVG 1.1//EN"
 "http://www.w3.org/Graphics/SVG/1.1/DTD/svg11.dtd">
<!-- Generated by graphviz version 2.44.0 ()
 -->
<!-- Title: include/f/f_pc/f_pc_profile.h Pages: 1 -->
<svg width="280pt" height="319pt"
 viewBox="0.00 0.00 279.50 319.00" xmlns="http://www.w3.org/2000/svg" xmlns:xlink="http://www.w3.org/1999/xlink">
<g id="graph0" class="graph" transform="scale(1 1) rotate(0) translate(4 315)">
<title>include/f/f_pc/f_pc_profile.h</title>
<polygon fill="white" stroke="transparent" points="-4,4 -4,-315 275.5,-315 275.5,4 -4,4"/>
<!-- Node1 -->
<g id="node1" class="node">
<title>Node1</title>
<g id="a_node1"><a xlink:title=" ">
<polygon fill="#bfbfbf" stroke="black" points="46.5,-280.5 46.5,-310.5 143.5,-310.5 143.5,-280.5 46.5,-280.5"/>
<text text-anchor="start" x="54.5" y="-298.5" font-family="Helvetica,sans-Serif" font-size="10.00">include/f/f_pc/f_pc</text>
<text text-anchor="middle" x="95" y="-287.5" font-family="Helvetica,sans-Serif" font-size="10.00">_profile.h</text>
</a>
</g>
</g>
<!-- Node2 -->
<g id="node2" class="node">
<title>Node2</title>
<g id="a_node2"><a xlink:href="f__pc__method_8h.html" target="_top" xlink:title=" ">
<polygon fill="white" stroke="black" points="0,-224.5 0,-243.5 108,-243.5 108,-224.5 0,-224.5"/>
<text text-anchor="middle" x="54" y="-231.5" font-family="Helvetica,sans-Serif" font-size="10.00">f/f_pc/f_pc_method.h</text>
</a>
</g>
</g>
<!-- Node1&#45;&gt;Node2 -->
<g id="edge1" class="edge">
<title>Node1&#45;&gt;Node2</title>
<path fill="none" stroke="midnightblue" d="M85.28,-280.4C79.45,-271.93 71.98,-261.1 65.81,-252.14"/>
<polygon fill="midnightblue" stroke="midnightblue" points="68.52,-249.91 59.97,-243.66 62.76,-253.88 68.52,-249.91"/>
</g>
<!-- Node3 -->
<g id="node3" class="node">
<title>Node3</title>
<g id="a_node3"><a xlink:href="global_8h.html" target="_top" xlink:title=" ">
<polygon fill="white" stroke="black" points="70,-168.5 70,-187.5 120,-187.5 120,-168.5 70,-168.5"/>
<text text-anchor="middle" x="95" y="-175.5" font-family="Helvetica,sans-Serif" font-size="10.00">global.h</text>
</a>
</g>
</g>
<!-- Node1&#45;&gt;Node3 -->
<g id="edge13" class="edge">
<title>Node1&#45;&gt;Node3</title>
<path fill="none" stroke="midnightblue" d="M104.06,-280.36C112,-266.25 121.6,-243.86 117,-224 114.77,-214.36 110.18,-204.41 105.76,-196.31"/>
<polygon fill="midnightblue" stroke="midnightblue" points="108.7,-194.4 100.64,-187.52 102.65,-197.92 108.7,-194.4"/>
</g>
<!-- Node2&#45;&gt;Node3 -->
<g id="edge2" class="edge">
<title>Node2&#45;&gt;Node3</title>
<path fill="none" stroke="midnightblue" d="M60.77,-224.08C66.56,-216.46 75.06,-205.26 82.14,-195.94"/>
<polygon fill="midnightblue" stroke="midnightblue" points="85.1,-197.83 88.36,-187.75 79.52,-193.6 85.1,-197.83"/>
</g>
<!-- Node4 -->
<g id="node4" class="node">
<title>Node4</title>
<g id="a_node4"><a xlink:href="types_8h.html" target="_top" xlink:title=" ">
<polygon fill="white" stroke="black" points="87.5,-0.5 87.5,-19.5 168.5,-19.5 168.5,-0.5 87.5,-0.5"/>
<text text-anchor="middle" x="128" y="-7.5" font-family="Helvetica,sans-Serif" font-size="10.00">dolphin/types.h</text>
</a>
</g>
</g>
<!-- Node3&#45;&gt;Node4 -->
<g id="edge3" class="edge">
<title>Node3&#45;&gt;Node4</title>
<path fill="none" stroke="midnightblue" d="M82.71,-168.32C55.76,-148.22 -4.05,-97.02 23,-56 35.3,-37.35 57.11,-26.4 77.68,-19.98"/>
<polygon fill="midnightblue" stroke="midnightblue" points="78.64,-23.35 87.31,-17.26 76.74,-16.61 78.64,-23.35"/>
</g>
<!-- Node5 -->
<g id="node5" class="node">
<title>Node5</title>
<g id="a_node5"><a xlink:href="AR_8h.html" target="_top" xlink:title=" ">
<polygon fill="white" stroke="black" points="32.5,-56.5 32.5,-75.5 81.5,-75.5 81.5,-56.5 32.5,-56.5"/>
<text text-anchor="middle" x="57" y="-63.5" font-family="Helvetica,sans-Serif" font-size="10.00">ar/AR.h</text>
</a>
</g>
</g>
<!-- Node3&#45;&gt;Node5 -->
<g id="edge4" class="edge">
<title>Node3&#45;&gt;Node5</title>
<path fill="none" stroke="midnightblue" d="M92.02,-168.37C85.86,-150.54 71.61,-109.3 63.31,-85.27"/>
<polygon fill="midnightblue" stroke="midnightblue" points="66.54,-83.9 59.97,-75.59 59.93,-86.19 66.54,-83.9"/>
</g>
<!-- Node6 -->
<g id="node6" class="node">
<title>Node6</title>
<g id="a_node6"><a xlink:href="ARQ_8h.html" target="_top" xlink:title=" ">
<polygon fill="white" stroke="black" points="100,-56.5 100,-75.5 156,-75.5 156,-56.5 100,-56.5"/>
<text text-anchor="middle" x="128" y="-63.5" font-family="Helvetica,sans-Serif" font-size="10.00">ar/ARQ.h</text>
</a>
</g>
</g>
<!-- Node3&#45;&gt;Node6 -->
<g id="edge6" class="edge">
<title>Node3&#45;&gt;Node6</title>
<path fill="none" stroke="midnightblue" d="M97.53,-168.15C101.13,-155.63 107.96,-132.04 114,-112 116.66,-103.18 119.69,-93.41 122.25,-85.23"/>
<polygon fill="midnightblue" stroke="midnightblue" points="125.61,-86.2 125.27,-75.61 118.94,-84.1 125.61,-86.2"/>
</g>
<!-- Node7 -->
<g id="node7" class="node">
<title>Node7</title>
<g id="a_node7"><a xlink:href="mwcc_8h.html" target="_top" xlink:title=" ">
<polygon fill="white" stroke="black" points="123,-112.5 123,-131.5 173,-131.5 173,-112.5 123,-112.5"/>
<text text-anchor="middle" x="148" y="-119.5" font-family="Helvetica,sans-Serif" font-size="10.00">mwcc.h</text>
</a>
</g>
</g>
<!-- Node3&#45;&gt;Node7 -->
<g id="edge8" class="edge">
<title>Node3&#45;&gt;Node7</title>
<path fill="none" stroke="midnightblue" d="M103.75,-168.08C111.47,-160.22 122.9,-148.57 132.22,-139.08"/>
<polygon fill="midnightblue" stroke="midnightblue" points="134.9,-141.34 139.41,-131.75 129.91,-136.44 134.9,-141.34"/>
</g>
<!-- Node8 -->
<g id="node8" class="node">
<title>Node8</title>
<g id="a_node8"><a xlink:href="OS_8h.html" target="_top" xlink:title=" ">
<polygon fill="white" stroke="black" points="191,-112.5 191,-131.5 243,-131.5 243,-112.5 191,-112.5"/>
<text text-anchor="middle" x="217" y="-119.5" font-family="Helvetica,sans-Serif" font-size="10.00">os/OS.h</text>
</a>
</g>
</g>
<!-- Node3&#45;&gt;Node8 -->
<g id="edge9" class="edge">
<title>Node3&#45;&gt;Node8</title>
<path fill="none" stroke="midnightblue" d="M114.33,-168.44C134.32,-159.6 165.74,-145.69 188.56,-135.59"/>
<polygon fill="midnightblue" stroke="midnightblue" points="190.03,-138.76 197.76,-131.52 187.2,-132.36 190.03,-138.76"/>
</g>
<!-- Node5&#45;&gt;Node4 -->
<g id="edge5" class="edge">
<title>Node5&#45;&gt;Node4</title>
<path fill="none" stroke="midnightblue" d="M68.41,-56.32C79.11,-48.18 95.34,-35.84 108.16,-26.09"/>
<polygon fill="midnightblue" stroke="midnightblue" points="110.54,-28.67 116.39,-19.83 106.31,-23.1 110.54,-28.67"/>
</g>
<!-- Node6&#45;&gt;Node4 -->
<g id="edge7" class="edge">
<title>Node6&#45;&gt;Node4</title>
<path fill="none" stroke="midnightblue" d="M128,-56.08C128,-49.01 128,-38.86 128,-29.99"/>
<polygon fill="midnightblue" stroke="midnightblue" points="131.5,-29.75 128,-19.75 124.5,-29.75 131.5,-29.75"/>
</g>
<!-- Node8&#45;&gt;Node4 -->
<g id="edge10" class="edge">
<title>Node8&#45;&gt;Node4</title>
<path fill="none" stroke="midnightblue" d="M209.97,-112.14C200.01,-99.6 181.2,-75.98 165,-56 157.26,-46.46 148.53,-35.83 141.5,-27.31"/>
<polygon fill="midnightblue" stroke="midnightblue" points="144.2,-25.08 135.13,-19.6 138.8,-29.54 144.2,-25.08"/>
</g>
<!-- Node9 -->
<g id="node9" class="node">
<title>Node9</title>
<g id="a_node9"><a xlink:href="dvd_8h.html" target="_top" xlink:title=" ">
<polygon fill="white" stroke="black" points="212.5,-56.5 212.5,-75.5 271.5,-75.5 271.5,-56.5 212.5,-56.5"/>
<text text-anchor="middle" x="242" y="-63.5" font-family="Helvetica,sans-Serif" font-size="10.00">dvd/dvd.h</text>
</a>
</g>
</g>
<!-- Node8&#45;&gt;Node9 -->
<g id="edge11" class="edge">
<title>Node8&#45;&gt;Node9</title>
<path fill="none" stroke="midnightblue" d="M221.13,-112.08C224.51,-104.77 229.42,-94.18 233.62,-85.1"/>
<polygon fill="midnightblue" stroke="midnightblue" points="236.92,-86.3 237.95,-75.75 230.57,-83.36 236.92,-86.3"/>
</g>
<!-- Node9&#45;&gt;Node4 -->
<g id="edge12" class="edge">
<title>Node9&#45;&gt;Node4</title>
<path fill="none" stroke="midnightblue" d="M223.94,-56.44C205.43,-47.68 176.42,-33.94 155.14,-23.86"/>
<polygon fill="midnightblue" stroke="midnightblue" points="156.51,-20.63 145.98,-19.52 153.52,-26.96 156.51,-20.63"/>
</g>
</g>
</svg>
