<?xml version="1.0" encoding="UTF-8" standalone="no"?>
<!DOCTYPE svg PUBLIC "-//W3C//DTD SVG 1.1//EN"
 "http://www.w3.org/Graphics/SVG/1.1/DTD/svg11.dtd">
<!-- Generated by graphviz version 2.44.0 ()
 -->
<!-- Title: include/f/f_pc/f_pc_layer.h Pages: 1 -->
<svg width="316pt" height="487pt"
 viewBox="0.00 0.00 315.52 487.00" xmlns="http://www.w3.org/2000/svg" xmlns:xlink="http://www.w3.org/1999/xlink">
<g id="graph0" class="graph" transform="scale(1 1) rotate(0) translate(4 483)">
<title>include/f/f_pc/f_pc_layer.h</title>
<polygon fill="white" stroke="transparent" points="-4,4 -4,-483 311.52,-483 311.52,4 -4,4"/>
<!-- Node1 -->
<g id="node1" class="node">
<title>Node1</title>
<g id="a_node1"><a xlink:title=" ">
<polygon fill="#bfbfbf" stroke="black" points="147.71,-448.5 147.71,-478.5 244.71,-478.5 244.71,-448.5 147.71,-448.5"/>
<text text-anchor="start" x="155.71" y="-466.5" font-family="Helvetica,sans-Serif" font-size="10.00">include/f/f_pc/f_pc</text>
<text text-anchor="middle" x="196.21" y="-455.5" font-family="Helvetica,sans-Serif" font-size="10.00">_layer.h</text>
</a>
</g>
</g>
<!-- Node2 -->
<g id="node2" class="node">
<title>Node2</title>
<g id="a_node2"><a xlink:href="c__node_8h.html" target="_top" xlink:title=" ">
<polygon fill="white" stroke="black" points="141.71,-224.5 141.71,-243.5 256.71,-243.5 256.71,-224.5 141.71,-224.5"/>
<text text-anchor="middle" x="199.21" y="-231.5" font-family="Helvetica,sans-Serif" font-size="10.00">SComponent/c_node.h</text>
</a>
</g>
</g>
<!-- Node1&#45;&gt;Node2 -->
<g id="edge1" class="edge">
<title>Node1&#45;&gt;Node2</title>
<path fill="none" stroke="midnightblue" d="M218.33,-448.4C244.09,-430.51 285.28,-396.99 302.21,-356 315.77,-323.13 301.02,-306.41 277.21,-280 264.64,-266.06 246.7,-255.29 231.19,-247.79"/>
<polygon fill="midnightblue" stroke="midnightblue" points="232.47,-244.53 221.92,-243.55 229.55,-250.9 232.47,-244.53"/>
</g>
<!-- Node3 -->
<g id="node3" class="node">
<title>Node3</title>
<g id="a_node3"><a xlink:href="global_8h.html" target="_top" xlink:title=" ">
<polygon fill="white" stroke="black" points="54.21,-168.5 54.21,-187.5 104.21,-187.5 104.21,-168.5 54.21,-168.5"/>
<text text-anchor="middle" x="79.21" y="-175.5" font-family="Helvetica,sans-Serif" font-size="10.00">global.h</text>
</a>
</g>
</g>
<!-- Node1&#45;&gt;Node3 -->
<g id="edge22" class="edge">
<title>Node1&#45;&gt;Node3</title>
<path fill="none" stroke="midnightblue" d="M147.59,-448.76C102.13,-432.59 41.21,-400.86 41.21,-347 41.21,-347 41.21,-347 41.21,-289 41.21,-254.81 57.81,-217.76 69.06,-196.57"/>
<polygon fill="midnightblue" stroke="midnightblue" points="72.15,-198.22 73.92,-187.77 66.02,-194.83 72.15,-198.22"/>
</g>
<!-- Node10 -->
<g id="node10" class="node">
<title>Node10</title>
<g id="a_node10"><a xlink:href="c__tag_8h.html" target="_top" xlink:title=" ">
<polygon fill="white" stroke="black" points="101.71,-392.5 101.71,-411.5 208.71,-411.5 208.71,-392.5 101.71,-392.5"/>
<text text-anchor="middle" x="155.21" y="-399.5" font-family="Helvetica,sans-Serif" font-size="10.00">SComponent/c_tag.h</text>
</a>
</g>
</g>
<!-- Node1&#45;&gt;Node10 -->
<g id="edge13" class="edge">
<title>Node1&#45;&gt;Node10</title>
<path fill="none" stroke="midnightblue" d="M186.49,-448.4C180.65,-439.93 173.19,-429.1 167.02,-420.14"/>
<polygon fill="midnightblue" stroke="midnightblue" points="169.73,-417.91 161.17,-411.66 163.96,-421.88 169.73,-417.91"/>
</g>
<!-- Node12 -->
<g id="node12" class="node">
<title>Node12</title>
<g id="a_node12"><a xlink:href="c__tree_8h.html" target="_top" xlink:title=" ">
<polygon fill="white" stroke="black" points="183.21,-336.5 183.21,-355.5 293.21,-355.5 293.21,-336.5 183.21,-336.5"/>
<text text-anchor="middle" x="238.21" y="-343.5" font-family="Helvetica,sans-Serif" font-size="10.00">SComponent/c_tree.h</text>
</a>
</g>
</g>
<!-- Node1&#45;&gt;Node12 -->
<g id="edge21" class="edge">
<title>Node1&#45;&gt;Node12</title>
<path fill="none" stroke="midnightblue" d="M202.4,-448.47C206.76,-438.41 212.61,-424.47 217.21,-412 222.91,-396.53 228.62,-378.68 232.64,-365.61"/>
<polygon fill="midnightblue" stroke="midnightblue" points="236.02,-366.5 235.58,-355.91 229.33,-364.46 236.02,-366.5"/>
</g>
<!-- Node2&#45;&gt;Node3 -->
<g id="edge2" class="edge">
<title>Node2&#45;&gt;Node3</title>
<path fill="none" stroke="midnightblue" d="M180.19,-224.44C160.62,-215.64 129.9,-201.81 107.48,-191.72"/>
<polygon fill="midnightblue" stroke="midnightblue" points="108.69,-188.43 98.13,-187.52 105.81,-194.81 108.69,-188.43"/>
</g>
<!-- Node4 -->
<g id="node4" class="node">
<title>Node4</title>
<g id="a_node4"><a xlink:href="types_8h.html" target="_top" xlink:title=" ">
<polygon fill="white" stroke="black" points="71.71,-0.5 71.71,-19.5 152.71,-19.5 152.71,-0.5 71.71,-0.5"/>
<text text-anchor="middle" x="112.21" y="-7.5" font-family="Helvetica,sans-Serif" font-size="10.00">dolphin/types.h</text>
</a>
</g>
</g>
<!-- Node3&#45;&gt;Node4 -->
<g id="edge3" class="edge">
<title>Node3&#45;&gt;Node4</title>
<path fill="none" stroke="midnightblue" d="M66.92,-168.32C39.97,-148.22 -19.84,-97.02 7.21,-56 19.51,-37.35 41.31,-26.4 61.88,-19.98"/>
<polygon fill="midnightblue" stroke="midnightblue" points="62.84,-23.35 71.52,-17.26 60.94,-16.61 62.84,-23.35"/>
</g>
<!-- Node5 -->
<g id="node5" class="node">
<title>Node5</title>
<g id="a_node5"><a xlink:href="AR_8h.html" target="_top" xlink:title=" ">
<polygon fill="white" stroke="black" points="16.71,-56.5 16.71,-75.5 65.71,-75.5 65.71,-56.5 16.71,-56.5"/>
<text text-anchor="middle" x="41.21" y="-63.5" font-family="Helvetica,sans-Serif" font-size="10.00">ar/AR.h</text>
</a>
</g>
</g>
<!-- Node3&#45;&gt;Node5 -->
<g id="edge4" class="edge">
<title>Node3&#45;&gt;Node5</title>
<path fill="none" stroke="midnightblue" d="M76.22,-168.37C70.06,-150.54 55.82,-109.3 47.52,-85.27"/>
<polygon fill="midnightblue" stroke="midnightblue" points="50.75,-83.9 44.17,-75.59 44.13,-86.19 50.75,-83.9"/>
</g>
<!-- Node6 -->
<g id="node6" class="node">
<title>Node6</title>
<g id="a_node6"><a xlink:href="ARQ_8h.html" target="_top" xlink:title=" ">
<polygon fill="white" stroke="black" points="84.21,-56.5 84.21,-75.5 140.21,-75.5 140.21,-56.5 84.21,-56.5"/>
<text text-anchor="middle" x="112.21" y="-63.5" font-family="Helvetica,sans-Serif" font-size="10.00">ar/ARQ.h</text>
</a>
</g>
</g>
<!-- Node3&#45;&gt;Node6 -->
<g id="edge6" class="edge">
<title>Node3&#45;&gt;Node6</title>
<path fill="none" stroke="midnightblue" d="M81.74,-168.15C85.34,-155.63 92.16,-132.04 98.21,-112 100.87,-103.18 103.9,-93.41 106.46,-85.23"/>
<polygon fill="midnightblue" stroke="midnightblue" points="109.82,-86.2 109.48,-75.61 103.14,-84.1 109.82,-86.2"/>
</g>
<!-- Node7 -->
<g id="node7" class="node">
<title>Node7</title>
<g id="a_node7"><a xlink:href="mwcc_8h.html" target="_top" xlink:title=" ">
<polygon fill="white" stroke="black" points="107.21,-112.5 107.21,-131.5 157.21,-131.5 157.21,-112.5 107.21,-112.5"/>
<text text-anchor="middle" x="132.21" y="-119.5" font-family="Helvetica,sans-Serif" font-size="10.00">mwcc.h</text>
</a>
</g>
</g>
<!-- Node3&#45;&gt;Node7 -->
<g id="edge8" class="edge">
<title>Node3&#45;&gt;Node7</title>
<path fill="none" stroke="midnightblue" d="M87.96,-168.08C95.68,-160.22 107.11,-148.57 116.42,-139.08"/>
<polygon fill="midnightblue" stroke="midnightblue" points="119.11,-141.34 123.62,-131.75 114.11,-136.44 119.11,-141.34"/>
</g>
<!-- Node8 -->
<g id="node8" class="node">
<title>Node8</title>
<g id="a_node8"><a xlink:href="OS_8h.html" target="_top" xlink:title=" ">
<polygon fill="white" stroke="black" points="175.21,-112.5 175.21,-131.5 227.21,-131.5 227.21,-112.5 175.21,-112.5"/>
<text text-anchor="middle" x="201.21" y="-119.5" font-family="Helvetica,sans-Serif" font-size="10.00">os/OS.h</text>
</a>
</g>
</g>
<!-- Node3&#45;&gt;Node8 -->
<g id="edge9" class="edge">
<title>Node3&#45;&gt;Node8</title>
<path fill="none" stroke="midnightblue" d="M98.54,-168.44C118.53,-159.6 149.95,-145.69 172.77,-135.59"/>
<polygon fill="midnightblue" stroke="midnightblue" points="174.24,-138.76 181.96,-131.52 171.4,-132.36 174.24,-138.76"/>
</g>
<!-- Node5&#45;&gt;Node4 -->
<g id="edge5" class="edge">
<title>Node5&#45;&gt;Node4</title>
<path fill="none" stroke="midnightblue" d="M52.61,-56.32C63.31,-48.18 79.55,-35.84 92.37,-26.09"/>
<polygon fill="midnightblue" stroke="midnightblue" points="94.75,-28.67 100.59,-19.83 90.51,-23.1 94.75,-28.67"/>
</g>
<!-- Node6&#45;&gt;Node4 -->
<g id="edge7" class="edge">
<title>Node6&#45;&gt;Node4</title>
<path fill="none" stroke="midnightblue" d="M112.21,-56.08C112.21,-49.01 112.21,-38.86 112.21,-29.99"/>
<polygon fill="midnightblue" stroke="midnightblue" points="115.71,-29.75 112.21,-19.75 108.71,-29.75 115.71,-29.75"/>
</g>
<!-- Node8&#45;&gt;Node4 -->
<g id="edge10" class="edge">
<title>Node8&#45;&gt;Node4</title>
<path fill="none" stroke="midnightblue" d="M209.59,-112.43C221.27,-99.42 239.68,-74.27 227.21,-56 212.72,-34.77 186.58,-23.56 162.88,-17.63"/>
<polygon fill="midnightblue" stroke="midnightblue" points="163.44,-14.17 152.92,-15.4 161.91,-21 163.44,-14.17"/>
</g>
<!-- Node9 -->
<g id="node9" class="node">
<title>Node9</title>
<g id="a_node9"><a xlink:href="dvd_8h.html" target="_top" xlink:title=" ">
<polygon fill="white" stroke="black" points="158.71,-56.5 158.71,-75.5 217.71,-75.5 217.71,-56.5 158.71,-56.5"/>
<text text-anchor="middle" x="188.21" y="-63.5" font-family="Helvetica,sans-Serif" font-size="10.00">dvd/dvd.h</text>
</a>
</g>
</g>
<!-- Node8&#45;&gt;Node9 -->
<g id="edge11" class="edge">
<title>Node8&#45;&gt;Node9</title>
<path fill="none" stroke="midnightblue" d="M199.06,-112.08C197.34,-104.93 194.86,-94.64 192.71,-85.69"/>
<polygon fill="midnightblue" stroke="midnightblue" points="196.06,-84.65 190.31,-75.75 189.25,-86.29 196.06,-84.65"/>
</g>
<!-- Node9&#45;&gt;Node4 -->
<g id="edge12" class="edge">
<title>Node9&#45;&gt;Node4</title>
<path fill="none" stroke="midnightblue" d="M175.99,-56.32C164.43,-48.11 146.83,-35.6 133.04,-25.81"/>
<polygon fill="midnightblue" stroke="midnightblue" points="134.82,-22.77 124.64,-19.83 130.76,-28.48 134.82,-22.77"/>
</g>
<!-- Node10&#45;&gt;Node2 -->
<g id="edge16" class="edge">
<title>Node10&#45;&gt;Node2</title>
<path fill="none" stroke="midnightblue" d="M150.54,-392.22C140.19,-371.46 117.72,-318.22 137.21,-280 144.21,-266.27 157.57,-255.75 170.11,-248.35"/>
<polygon fill="midnightblue" stroke="midnightblue" points="171.88,-251.37 178.98,-243.51 168.53,-245.22 171.88,-251.37"/>
</g>
<!-- Node10&#45;&gt;Node3 -->
<g id="edge20" class="edge">
<title>Node10&#45;&gt;Node3</title>
<path fill="none" stroke="midnightblue" d="M149.09,-392.41C143.06,-383.63 133.95,-369.4 128.21,-356 104.48,-300.69 89.1,-230.72 82.66,-197.78"/>
<polygon fill="midnightblue" stroke="midnightblue" points="86.06,-196.92 80.76,-187.75 79.19,-198.23 86.06,-196.92"/>
</g>
<!-- Node11 -->
<g id="node11" class="node">
<title>Node11</title>
<g id="a_node11"><a xlink:href="c__list_8h.html" target="_top" xlink:title=" ">
<polygon fill="white" stroke="black" points="145.71,-280.5 145.71,-299.5 252.71,-299.5 252.71,-280.5 145.71,-280.5"/>
<text text-anchor="middle" x="199.21" y="-287.5" font-family="Helvetica,sans-Serif" font-size="10.00">SComponent/c_list.h</text>
</a>
</g>
</g>
<!-- Node10&#45;&gt;Node11 -->
<g id="edge14" class="edge">
<title>Node10&#45;&gt;Node11</title>
<path fill="none" stroke="midnightblue" d="M157.08,-392.38C159.97,-379.73 166.05,-355.53 174.21,-336 178.17,-326.52 183.61,-316.47 188.41,-308.29"/>
<polygon fill="midnightblue" stroke="midnightblue" points="191.44,-310.04 193.62,-299.67 185.45,-306.42 191.44,-310.04"/>
</g>
<!-- Node10&#45;&gt;Node12 -->
<g id="edge17" class="edge">
<title>Node10&#45;&gt;Node12</title>
<path fill="none" stroke="midnightblue" d="M168.54,-392.32C181.37,-383.98 200.99,-371.21 216.15,-361.35"/>
<polygon fill="midnightblue" stroke="midnightblue" points="218.43,-364.04 224.9,-355.65 214.61,-358.17 218.43,-364.04"/>
</g>
<!-- Node11&#45;&gt;Node2 -->
<g id="edge15" class="edge">
<title>Node11&#45;&gt;Node2</title>
<path fill="none" stroke="midnightblue" d="M199.21,-280.08C199.21,-273.01 199.21,-262.86 199.21,-253.99"/>
<polygon fill="midnightblue" stroke="midnightblue" points="202.71,-253.75 199.21,-243.75 195.71,-253.75 202.71,-253.75"/>
</g>
<!-- Node12&#45;&gt;Node2 -->
<g id="edge19" class="edge">
<title>Node12&#45;&gt;Node2</title>
<path fill="none" stroke="midnightblue" d="M245.92,-336.31C256.22,-323.57 272.11,-299.25 262.21,-280 255.13,-266.25 241.68,-255.77 229.03,-248.39"/>
<polygon fill="midnightblue" stroke="midnightblue" points="230.52,-245.22 220.05,-243.57 227.21,-251.39 230.52,-245.22"/>
</g>
<!-- Node12&#45;&gt;Node11 -->
<g id="edge18" class="edge">
<title>Node12&#45;&gt;Node11</title>
<path fill="none" stroke="midnightblue" d="M231.77,-336.08C226.26,-328.46 218.17,-317.26 211.44,-307.94"/>
<polygon fill="midnightblue" stroke="midnightblue" points="214.22,-305.81 205.53,-299.75 208.54,-309.91 214.22,-305.81"/>
</g>
</g>
</svg>
