<?xml version="1.0" encoding="UTF-8" standalone="no"?>
<!DOCTYPE svg PUBLIC "-//W3C//DTD SVG 1.1//EN"
 "http://www.w3.org/Graphics/SVG/1.1/DTD/svg11.dtd">
<!-- Generated by graphviz version 2.44.0 ()
 -->
<!-- Title: src/f/f_pc/f_pc_draw.cpp Pages: 1 -->
<svg width="1137pt" height="778pt"
 viewBox="0.00 0.00 1136.50 778.00" xmlns="http://www.w3.org/2000/svg" xmlns:xlink="http://www.w3.org/1999/xlink">
<g id="graph0" class="graph" transform="scale(1 1) rotate(0) translate(4 774)">
<title>src/f/f_pc/f_pc_draw.cpp</title>
<polygon fill="white" stroke="transparent" points="-4,4 -4,-774 1132.5,-774 1132.5,4 -4,4"/>
<!-- Node1 -->
<g id="node1" class="node">
<title>Node1</title>
<g id="a_node1"><a xlink:title=" ">
<polygon fill="#bfbfbf" stroke="black" points="319,-750.5 319,-769.5 443,-769.5 443,-750.5 319,-750.5"/>
<text text-anchor="middle" x="381" y="-757.5" font-family="Helvetica,sans-Serif" font-size="10.00">src/f/f_pc/f_pc_draw.cpp</text>
</a>
</g>
</g>
<!-- Node2 -->
<g id="node2" class="node">
<title>Node2</title>
<g id="a_node2"><a xlink:href="f__pc__draw_8h.html" target="_top" xlink:title=" ">
<polygon fill="white" stroke="black" points="199.5,-638.5 199.5,-657.5 296.5,-657.5 296.5,-638.5 199.5,-638.5"/>
<text text-anchor="middle" x="248" y="-645.5" font-family="Helvetica,sans-Serif" font-size="10.00">f/f_pc/f_pc_draw.h</text>
</a>
</g>
</g>
<!-- Node1&#45;&gt;Node2 -->
<g id="edge1" class="edge">
<title>Node1&#45;&gt;Node2</title>
<path fill="none" stroke="midnightblue" d="M365.56,-750.46C350.9,-742.04 328.55,-728.37 311,-714 292.67,-698.99 274.09,-679.13 261.9,-665.32"/>
<polygon fill="midnightblue" stroke="midnightblue" points="264.4,-662.86 255.2,-657.61 259.12,-667.46 264.4,-662.86"/>
</g>
<!-- Node17 -->
<g id="node17" class="node">
<title>Node17</title>
<g id="a_node17"><a xlink:href="f__pc__layer_8h.html" target="_top" xlink:title=" ">
<polygon fill="white" stroke="black" points="353,-454 353,-473 449,-473 449,-454 353,-454"/>
<text text-anchor="middle" x="401" y="-461" font-family="Helvetica,sans-Serif" font-size="10.00">f/f_pc/f_pc_layer.h</text>
</a>
</g>
</g>
<!-- Node1&#45;&gt;Node17 -->
<g id="edge52" class="edge">
<title>Node1&#45;&gt;Node17</title>
<path fill="none" stroke="midnightblue" d="M372.98,-750.36C357.49,-732.74 325,-690.79 325,-649 325,-649 325,-649 325,-591 325,-545.62 361.38,-502.48 383.8,-480.2"/>
<polygon fill="midnightblue" stroke="midnightblue" points="386.28,-482.68 391.06,-473.23 381.43,-477.63 386.28,-482.68"/>
</g>
<!-- Node24 -->
<g id="node24" class="node">
<title>Node24</title>
<g id="a_node24"><a xlink:href="c__API__graphic_8h.html" target="_top" xlink:title=" ">
<polygon fill="white" stroke="black" points="981.5,-392.5 981.5,-411.5 1128.5,-411.5 1128.5,-392.5 981.5,-392.5"/>
<text text-anchor="middle" x="1055" y="-399.5" font-family="Helvetica,sans-Serif" font-size="10.00">SComponent/c_API_graphic.h</text>
</a>
</g>
</g>
<!-- Node1&#45;&gt;Node24 -->
<g id="edge50" class="edge">
<title>Node1&#45;&gt;Node24</title>
<path fill="none" stroke="midnightblue" d="M443.14,-754.84C604.26,-743.24 1023,-707.45 1023,-649 1023,-649 1023,-649 1023,-529.5 1023,-489.84 1037.97,-445.25 1047.43,-421.03"/>
<polygon fill="midnightblue" stroke="midnightblue" points="1050.7,-422.29 1051.2,-411.7 1044.21,-419.66 1050.7,-422.29"/>
</g>
<!-- Node25 -->
<g id="node25" class="node">
<title>Node25</title>
<g id="a_node25"><a xlink:href="f__pc__pause_8h.html" target="_top" xlink:title=" ">
<polygon fill="white" stroke="black" points="399,-694.5 399,-713.5 501,-713.5 501,-694.5 399,-694.5"/>
<text text-anchor="middle" x="450" y="-701.5" font-family="Helvetica,sans-Serif" font-size="10.00">f/f_pc/f_pc_pause.h</text>
</a>
</g>
</g>
<!-- Node1&#45;&gt;Node25 -->
<g id="edge53" class="edge">
<title>Node1&#45;&gt;Node25</title>
<path fill="none" stroke="midnightblue" d="M392.09,-750.32C402.49,-742.18 418.26,-729.84 430.72,-720.09"/>
<polygon fill="midnightblue" stroke="midnightblue" points="432.99,-722.75 438.71,-713.83 428.68,-717.24 432.99,-722.75"/>
</g>
<!-- Node3 -->
<g id="node3" class="node">
<title>Node3</title>
<g id="a_node3"><a xlink:href="c__node__iter_8h.html" target="_top" xlink:title=" ">
<polygon fill="white" stroke="black" points="230,-336.5 230,-355.5 364,-355.5 364,-336.5 230,-336.5"/>
<text text-anchor="middle" x="297" y="-343.5" font-family="Helvetica,sans-Serif" font-size="10.00">SComponent/c_node_iter.h</text>
</a>
</g>
</g>
<!-- Node2&#45;&gt;Node3 -->
<g id="edge2" class="edge">
<title>Node2&#45;&gt;Node3</title>
<path fill="none" stroke="midnightblue" d="M248,-638.31C248,-619.06 248,-571.4 248,-531.5 248,-531.5 248,-531.5 248,-462.5 248,-425.12 270.02,-385.96 284.54,-364.19"/>
<polygon fill="midnightblue" stroke="midnightblue" points="287.57,-365.95 290.39,-355.74 281.82,-361.97 287.57,-365.95"/>
</g>
<!-- Node5 -->
<g id="node5" class="node">
<title>Node5</title>
<g id="a_node5"><a xlink:href="global_8h.html" target="_top" xlink:title=" ">
<polygon fill="white" stroke="black" points="647,-168.5 647,-187.5 697,-187.5 697,-168.5 647,-168.5"/>
<text text-anchor="middle" x="672" y="-175.5" font-family="Helvetica,sans-Serif" font-size="10.00">global.h</text>
</a>
</g>
</g>
<!-- Node2&#45;&gt;Node5 -->
<g id="edge49" class="edge">
<title>Node2&#45;&gt;Node5</title>
<path fill="none" stroke="midnightblue" d="M199.3,-645.41C127.07,-640.15 0,-618.54 0,-531.5 0,-531.5 0,-531.5 0,-289 0,-229.13 60.66,-241.25 118,-224 215.82,-194.57 530.79,-183.04 636.8,-179.93"/>
<polygon fill="midnightblue" stroke="midnightblue" points="637.07,-183.42 646.97,-179.64 636.87,-176.43 637.07,-183.42"/>
</g>
<!-- Node12 -->
<g id="node12" class="node">
<title>Node12</title>
<g id="a_node12"><a xlink:href="f__pc__base_8h.html" target="_top" xlink:title=" ">
<polygon fill="white" stroke="black" points="449.5,-582.5 449.5,-601.5 546.5,-601.5 546.5,-582.5 449.5,-582.5"/>
<text text-anchor="middle" x="498" y="-589.5" font-family="Helvetica,sans-Serif" font-size="10.00">f/f_pc/f_pc_base.h</text>
</a>
</g>
</g>
<!-- Node2&#45;&gt;Node12 -->
<g id="edge15" class="edge">
<title>Node2&#45;&gt;Node12</title>
<path fill="none" stroke="midnightblue" d="M287.61,-638.44C331.23,-629.02 401.4,-613.87 448.58,-603.68"/>
<polygon fill="midnightblue" stroke="midnightblue" points="449.54,-607.05 458.57,-601.52 448.06,-600.21 449.54,-607.05"/>
</g>
<!-- Node4 -->
<g id="node4" class="node">
<title>Node4</title>
<g id="a_node4"><a xlink:href="c__node_8h.html" target="_top" xlink:title=" ">
<polygon fill="white" stroke="black" points="453.5,-224.5 453.5,-243.5 568.5,-243.5 568.5,-224.5 453.5,-224.5"/>
<text text-anchor="middle" x="511" y="-231.5" font-family="Helvetica,sans-Serif" font-size="10.00">SComponent/c_node.h</text>
</a>
</g>
</g>
<!-- Node3&#45;&gt;Node4 -->
<g id="edge3" class="edge">
<title>Node3&#45;&gt;Node4</title>
<path fill="none" stroke="midnightblue" d="M312.55,-336.37C335.48,-323.72 379.77,-299.51 418,-280 439.9,-268.82 465.02,-256.71 483.63,-247.87"/>
<polygon fill="midnightblue" stroke="midnightblue" points="485.17,-251.01 492.71,-243.57 482.18,-244.69 485.17,-251.01"/>
</g>
<!-- Node4&#45;&gt;Node5 -->
<g id="edge4" class="edge">
<title>Node4&#45;&gt;Node5</title>
<path fill="none" stroke="midnightblue" d="M536.51,-224.44C563.68,-215.33 606.84,-200.85 637.14,-190.69"/>
<polygon fill="midnightblue" stroke="midnightblue" points="638.51,-193.93 646.87,-187.43 636.28,-187.29 638.51,-193.93"/>
</g>
<!-- Node6 -->
<g id="node6" class="node">
<title>Node6</title>
<g id="a_node6"><a xlink:href="types_8h.html" target="_top" xlink:title=" ">
<polygon fill="white" stroke="black" points="631.5,-0.5 631.5,-19.5 712.5,-19.5 712.5,-0.5 631.5,-0.5"/>
<text text-anchor="middle" x="672" y="-7.5" font-family="Helvetica,sans-Serif" font-size="10.00">dolphin/types.h</text>
</a>
</g>
</g>
<!-- Node5&#45;&gt;Node6 -->
<g id="edge5" class="edge">
<title>Node5&#45;&gt;Node6</title>
<path fill="none" stroke="midnightblue" d="M653.89,-168.4C616.48,-149.45 536.61,-102.09 567,-56 579.3,-37.35 601.11,-26.4 621.68,-19.98"/>
<polygon fill="midnightblue" stroke="midnightblue" points="622.64,-23.35 631.31,-17.26 620.74,-16.61 622.64,-23.35"/>
</g>
<!-- Node7 -->
<g id="node7" class="node">
<title>Node7</title>
<g id="a_node7"><a xlink:href="AR_8h.html" target="_top" xlink:title=" ">
<polygon fill="white" stroke="black" points="576.5,-56.5 576.5,-75.5 625.5,-75.5 625.5,-56.5 576.5,-56.5"/>
<text text-anchor="middle" x="601" y="-63.5" font-family="Helvetica,sans-Serif" font-size="10.00">ar/AR.h</text>
</a>
</g>
</g>
<!-- Node5&#45;&gt;Node7 -->
<g id="edge6" class="edge">
<title>Node5&#45;&gt;Node7</title>
<path fill="none" stroke="midnightblue" d="M666.43,-168.37C654.76,-150.3 627.58,-108.18 612.17,-84.31"/>
<polygon fill="midnightblue" stroke="midnightblue" points="614.91,-82.1 606.55,-75.59 609.03,-85.89 614.91,-82.1"/>
</g>
<!-- Node8 -->
<g id="node8" class="node">
<title>Node8</title>
<g id="a_node8"><a xlink:href="ARQ_8h.html" target="_top" xlink:title=" ">
<polygon fill="white" stroke="black" points="644,-56.5 644,-75.5 700,-75.5 700,-56.5 644,-56.5"/>
<text text-anchor="middle" x="672" y="-63.5" font-family="Helvetica,sans-Serif" font-size="10.00">ar/ARQ.h</text>
</a>
</g>
</g>
<!-- Node5&#45;&gt;Node8 -->
<g id="edge8" class="edge">
<title>Node5&#45;&gt;Node8</title>
<path fill="none" stroke="midnightblue" d="M672,-168.37C672,-150.62 672,-109.67 672,-85.6"/>
<polygon fill="midnightblue" stroke="midnightblue" points="675.5,-85.59 672,-75.59 668.5,-85.59 675.5,-85.59"/>
</g>
<!-- Node9 -->
<g id="node9" class="node">
<title>Node9</title>
<g id="a_node9"><a xlink:href="mwcc_8h.html" target="_top" xlink:title=" ">
<polygon fill="white" stroke="black" points="781,-112.5 781,-131.5 831,-131.5 831,-112.5 781,-112.5"/>
<text text-anchor="middle" x="806" y="-119.5" font-family="Helvetica,sans-Serif" font-size="10.00">mwcc.h</text>
</a>
</g>
</g>
<!-- Node5&#45;&gt;Node9 -->
<g id="edge10" class="edge">
<title>Node5&#45;&gt;Node9</title>
<path fill="none" stroke="midnightblue" d="M693.23,-168.44C715.38,-159.52 750.32,-145.44 775.44,-135.32"/>
<polygon fill="midnightblue" stroke="midnightblue" points="776.9,-138.5 784.87,-131.52 774.28,-132.01 776.9,-138.5"/>
</g>
<!-- Node10 -->
<g id="node10" class="node">
<title>Node10</title>
<g id="a_node10"><a xlink:href="OS_8h.html" target="_top" xlink:title=" ">
<polygon fill="white" stroke="black" points="711,-112.5 711,-131.5 763,-131.5 763,-112.5 711,-112.5"/>
<text text-anchor="middle" x="737" y="-119.5" font-family="Helvetica,sans-Serif" font-size="10.00">os/OS.h</text>
</a>
</g>
</g>
<!-- Node5&#45;&gt;Node10 -->
<g id="edge11" class="edge">
<title>Node5&#45;&gt;Node10</title>
<path fill="none" stroke="midnightblue" d="M682.44,-168.32C692.15,-160.26 706.82,-148.08 718.5,-138.37"/>
<polygon fill="midnightblue" stroke="midnightblue" points="720.91,-140.92 726.37,-131.83 716.44,-135.53 720.91,-140.92"/>
</g>
<!-- Node7&#45;&gt;Node6 -->
<g id="edge7" class="edge">
<title>Node7&#45;&gt;Node6</title>
<path fill="none" stroke="midnightblue" d="M612.41,-56.32C623.11,-48.18 639.34,-35.84 652.16,-26.09"/>
<polygon fill="midnightblue" stroke="midnightblue" points="654.54,-28.67 660.39,-19.83 650.31,-23.1 654.54,-28.67"/>
</g>
<!-- Node8&#45;&gt;Node6 -->
<g id="edge9" class="edge">
<title>Node8&#45;&gt;Node6</title>
<path fill="none" stroke="midnightblue" d="M672,-56.08C672,-49.01 672,-38.86 672,-29.99"/>
<polygon fill="midnightblue" stroke="midnightblue" points="675.5,-29.75 672,-19.75 668.5,-29.75 675.5,-29.75"/>
</g>
<!-- Node10&#45;&gt;Node6 -->
<g id="edge12" class="edge">
<title>Node10&#45;&gt;Node6</title>
<path fill="none" stroke="midnightblue" d="M751.82,-112.37C770.93,-100.1 800.15,-76.8 786,-56 771.7,-34.99 745.93,-23.79 722.51,-17.82"/>
<polygon fill="midnightblue" stroke="midnightblue" points="723.18,-14.38 712.65,-15.56 721.62,-21.2 723.18,-14.38"/>
</g>
<!-- Node11 -->
<g id="node11" class="node">
<title>Node11</title>
<g id="a_node11"><a xlink:href="dvd_8h.html" target="_top" xlink:title=" ">
<polygon fill="white" stroke="black" points="718.5,-56.5 718.5,-75.5 777.5,-75.5 777.5,-56.5 718.5,-56.5"/>
<text text-anchor="middle" x="748" y="-63.5" font-family="Helvetica,sans-Serif" font-size="10.00">dvd/dvd.h</text>
</a>
</g>
</g>
<!-- Node10&#45;&gt;Node11 -->
<g id="edge13" class="edge">
<title>Node10&#45;&gt;Node11</title>
<path fill="none" stroke="midnightblue" d="M738.82,-112.08C740.27,-104.93 742.37,-94.64 744.19,-85.69"/>
<polygon fill="midnightblue" stroke="midnightblue" points="747.65,-86.25 746.22,-75.75 740.79,-84.85 747.65,-86.25"/>
</g>
<!-- Node11&#45;&gt;Node6 -->
<g id="edge14" class="edge">
<title>Node11&#45;&gt;Node6</title>
<path fill="none" stroke="midnightblue" d="M735.79,-56.32C724.22,-48.11 706.62,-35.6 692.84,-25.81"/>
<polygon fill="midnightblue" stroke="midnightblue" points="694.61,-22.77 684.43,-19.83 690.56,-28.48 694.61,-22.77"/>
</g>
<!-- Node12&#45;&gt;Node5 -->
<g id="edge24" class="edge">
<title>Node12&#45;&gt;Node5</title>
<path fill="none" stroke="midnightblue" d="M546.77,-587.4C623.78,-581.16 769.63,-566.98 817,-546 868.8,-523.06 915,-521.15 915,-464.5 915,-464.5 915,-464.5 915,-289 915,-198.89 774.6,-182.21 707.24,-179.4"/>
<polygon fill="midnightblue" stroke="midnightblue" points="707.2,-175.89 697.09,-179.05 706.97,-182.89 707.2,-175.89"/>
</g>
<!-- Node13 -->
<g id="node13" class="node">
<title>Node13</title>
<g id="a_node13"><a xlink:href="c__tag_8h.html" target="_top" xlink:title=" ">
<polygon fill="white" stroke="black" points="537.5,-392.5 537.5,-411.5 644.5,-411.5 644.5,-392.5 537.5,-392.5"/>
<text text-anchor="middle" x="591" y="-399.5" font-family="Helvetica,sans-Serif" font-size="10.00">SComponent/c_tag.h</text>
</a>
</g>
</g>
<!-- Node12&#45;&gt;Node13 -->
<g id="edge16" class="edge">
<title>Node12&#45;&gt;Node13</title>
<path fill="none" stroke="midnightblue" d="M502.13,-582.07C508.74,-567.82 522.16,-539.11 534,-515 550.44,-481.53 570.34,-442.82 581.75,-420.79"/>
<polygon fill="midnightblue" stroke="midnightblue" points="584.98,-422.16 586.48,-411.67 578.77,-418.94 584.98,-422.16"/>
</g>
<!-- Node16 -->
<g id="node16" class="node">
<title>Node16</title>
<g id="a_node16"><a xlink:href="f__pc__delete__tag_8h.html" target="_top" xlink:title=" ">
<polygon fill="white" stroke="black" points="391.5,-515.5 391.5,-545.5 486.5,-545.5 486.5,-515.5 391.5,-515.5"/>
<text text-anchor="start" x="399.5" y="-533.5" font-family="Helvetica,sans-Serif" font-size="10.00">f/f_pc/f_pc_delete</text>
<text text-anchor="middle" x="439" y="-522.5" font-family="Helvetica,sans-Serif" font-size="10.00">_tag.h</text>
</a>
</g>
</g>
<!-- Node12&#45;&gt;Node16 -->
<g id="edge25" class="edge">
<title>Node12&#45;&gt;Node16</title>
<path fill="none" stroke="midnightblue" d="M489.55,-582.48C481.85,-574.72 470.18,-562.94 459.99,-552.66"/>
<polygon fill="midnightblue" stroke="midnightblue" points="462.43,-550.16 452.91,-545.52 457.46,-555.09 462.43,-550.16"/>
</g>
<!-- Node18 -->
<g id="node18" class="node">
<title>Node18</title>
<g id="a_node18"><a xlink:href="f__pc__layer__tag_8h.html" target="_top" xlink:title=" ">
<polygon fill="white" stroke="black" points="543.5,-521 543.5,-540 658.5,-540 658.5,-521 543.5,-521"/>
<text text-anchor="middle" x="601" y="-528" font-family="Helvetica,sans-Serif" font-size="10.00">f/f_pc/f_pc_layer_tag.h</text>
</a>
</g>
</g>
<!-- Node12&#45;&gt;Node18 -->
<g id="edge33" class="edge">
<title>Node12&#45;&gt;Node18</title>
<path fill="none" stroke="midnightblue" d="M512.76,-582.48C529.66,-572.71 557.58,-556.58 577.49,-545.08"/>
<polygon fill="midnightblue" stroke="midnightblue" points="579.36,-548.04 586.27,-540.01 575.86,-541.98 579.36,-548.04"/>
</g>
<!-- Node19 -->
<g id="node19" class="node">
<title>Node19</title>
<g id="a_node19"><a xlink:href="f__pc__line__tag_8h.html" target="_top" xlink:title=" ">
<polygon fill="white" stroke="black" points="777,-454 777,-473 887,-473 887,-454 777,-454"/>
<text text-anchor="middle" x="832" y="-461" font-family="Helvetica,sans-Serif" font-size="10.00">f/f_pc/f_pc_line_tag.h</text>
</a>
</g>
</g>
<!-- Node12&#45;&gt;Node19 -->
<g id="edge37" class="edge">
<title>Node12&#45;&gt;Node19</title>
<path fill="none" stroke="midnightblue" d="M546.7,-588.78C619.43,-584.6 751.96,-573.38 790,-546 811.06,-530.84 822.33,-501.94 827.74,-482.95"/>
<polygon fill="midnightblue" stroke="midnightblue" points="831.17,-483.64 830.27,-473.09 824.39,-481.9 831.17,-483.64"/>
</g>
<!-- Node20 -->
<g id="node20" class="node">
<title>Node20</title>
<g id="a_node20"><a xlink:href="f__pc__priority_8h.html" target="_top" xlink:title=" ">
<polygon fill="white" stroke="black" points="677,-521 677,-540 781,-540 781,-521 677,-521"/>
<text text-anchor="middle" x="729" y="-528" font-family="Helvetica,sans-Serif" font-size="10.00">f/f_pc/f_pc_priority.h</text>
</a>
</g>
</g>
<!-- Node12&#45;&gt;Node20 -->
<g id="edge40" class="edge">
<title>Node12&#45;&gt;Node20</title>
<path fill="none" stroke="midnightblue" d="M531.1,-582.48C571.92,-571.96 641.41,-554.06 686.24,-542.51"/>
<polygon fill="midnightblue" stroke="midnightblue" points="687.15,-545.89 695.96,-540.01 685.41,-539.11 687.15,-545.89"/>
</g>
<!-- Node22 -->
<g id="node22" class="node">
<title>Node22</title>
<g id="a_node22"><a xlink:href="f__pc__profile_8h.html" target="_top" xlink:title=" ">
<polygon fill="white" stroke="black" points="118.5,-521 118.5,-540 219.5,-540 219.5,-521 118.5,-521"/>
<text text-anchor="middle" x="169" y="-528" font-family="Helvetica,sans-Serif" font-size="10.00">f/f_pc/f_pc_profile.h</text>
</a>
</g>
</g>
<!-- Node12&#45;&gt;Node22 -->
<g id="edge45" class="edge">
<title>Node12&#45;&gt;Node22</title>
<path fill="none" stroke="midnightblue" d="M450.86,-582.48C391.5,-571.74 289.58,-553.31 225.92,-541.79"/>
<polygon fill="midnightblue" stroke="midnightblue" points="226.51,-538.34 216.05,-540.01 225.27,-545.23 226.51,-538.34"/>
</g>
<!-- Node13&#45;&gt;Node4 -->
<g id="edge19" class="edge">
<title>Node13&#45;&gt;Node4</title>
<path fill="none" stroke="midnightblue" d="M596.61,-392.26C609.38,-371.12 637.77,-316.32 614,-280 603.5,-263.95 585.87,-253.59 568.15,-246.92"/>
<polygon fill="midnightblue" stroke="midnightblue" points="568.93,-243.49 558.33,-243.58 566.67,-250.11 568.93,-243.49"/>
</g>
<!-- Node13&#45;&gt;Node5 -->
<g id="edge23" class="edge">
<title>Node13&#45;&gt;Node5</title>
<path fill="none" stroke="midnightblue" d="M601.39,-392.46C610.82,-384.13 624.38,-370.62 632,-356 659.62,-303.02 668.27,-231.4 670.9,-197.83"/>
<polygon fill="midnightblue" stroke="midnightblue" points="674.4,-197.86 671.6,-187.64 667.42,-197.38 674.4,-197.86"/>
</g>
<!-- Node14 -->
<g id="node14" class="node">
<title>Node14</title>
<g id="a_node14"><a xlink:href="c__list_8h.html" target="_top" xlink:title=" ">
<polygon fill="white" stroke="black" points="498.5,-280.5 498.5,-299.5 605.5,-299.5 605.5,-280.5 498.5,-280.5"/>
<text text-anchor="middle" x="552" y="-287.5" font-family="Helvetica,sans-Serif" font-size="10.00">SComponent/c_list.h</text>
</a>
</g>
</g>
<!-- Node13&#45;&gt;Node14 -->
<g id="edge17" class="edge">
<title>Node13&#45;&gt;Node14</title>
<path fill="none" stroke="midnightblue" d="M589.96,-392.36C588.26,-379.68 584.31,-355.45 577,-336 573.38,-326.38 567.97,-316.32 563.11,-308.16"/>
<polygon fill="midnightblue" stroke="midnightblue" points="566.03,-306.24 557.79,-299.59 560.09,-309.93 566.03,-306.24"/>
</g>
<!-- Node15 -->
<g id="node15" class="node">
<title>Node15</title>
<g id="a_node15"><a xlink:href="c__tree_8h.html" target="_top" xlink:title=" ">
<polygon fill="white" stroke="black" points="458,-336.5 458,-355.5 568,-355.5 568,-336.5 458,-336.5"/>
<text text-anchor="middle" x="513" y="-343.5" font-family="Helvetica,sans-Serif" font-size="10.00">SComponent/c_tree.h</text>
</a>
</g>
</g>
<!-- Node13&#45;&gt;Node15 -->
<g id="edge20" class="edge">
<title>Node13&#45;&gt;Node15</title>
<path fill="none" stroke="midnightblue" d="M578.47,-392.32C566.41,-383.98 547.97,-371.21 533.73,-361.35"/>
<polygon fill="midnightblue" stroke="midnightblue" points="535.72,-358.47 525.5,-355.65 531.73,-364.22 535.72,-358.47"/>
</g>
<!-- Node14&#45;&gt;Node4 -->
<g id="edge18" class="edge">
<title>Node14&#45;&gt;Node4</title>
<path fill="none" stroke="midnightblue" d="M545.23,-280.08C539.44,-272.46 530.94,-261.26 523.86,-251.94"/>
<polygon fill="midnightblue" stroke="midnightblue" points="526.48,-249.6 517.64,-243.75 520.9,-253.83 526.48,-249.6"/>
</g>
<!-- Node15&#45;&gt;Node4 -->
<g id="edge22" class="edge">
<title>Node15&#45;&gt;Node4</title>
<path fill="none" stroke="midnightblue" d="M506.63,-336.23C500.74,-327.53 492.39,-313.57 489,-300 484.9,-283.61 492.1,-265.42 499.33,-252.47"/>
<polygon fill="midnightblue" stroke="midnightblue" points="502.46,-254.06 504.69,-243.7 496.49,-250.41 502.46,-254.06"/>
</g>
<!-- Node15&#45;&gt;Node14 -->
<g id="edge21" class="edge">
<title>Node15&#45;&gt;Node14</title>
<path fill="none" stroke="midnightblue" d="M519.44,-336.08C524.95,-328.46 533.03,-317.26 539.76,-307.94"/>
<polygon fill="midnightblue" stroke="midnightblue" points="542.66,-309.91 545.68,-299.75 536.99,-305.81 542.66,-309.91"/>
</g>
<!-- Node16&#45;&gt;Node5 -->
<g id="edge32" class="edge">
<title>Node16&#45;&gt;Node5</title>
<path fill="none" stroke="midnightblue" d="M391.32,-525.22C322.12,-516.09 202,-488 202,-403 202,-403 202,-403 202,-289 202,-199.79 527.1,-182.88 636.54,-179.72"/>
<polygon fill="midnightblue" stroke="midnightblue" points="636.83,-183.21 646.73,-179.45 636.64,-176.21 636.83,-183.21"/>
</g>
<!-- Node16&#45;&gt;Node13 -->
<g id="edge26" class="edge">
<title>Node16&#45;&gt;Node13</title>
<path fill="none" stroke="midnightblue" d="M447.04,-515.24C457.56,-497.6 477.46,-467.51 501,-448 517.68,-434.17 539.33,-423.18 557.21,-415.52"/>
<polygon fill="midnightblue" stroke="midnightblue" points="558.79,-418.66 566.7,-411.61 556.12,-412.19 558.79,-418.66"/>
</g>
<!-- Node16&#45;&gt;Node17 -->
<g id="edge27" class="edge">
<title>Node16&#45;&gt;Node17</title>
<path fill="none" stroke="midnightblue" d="M430.75,-515.4C425.01,-505.56 417.3,-492.38 411.17,-481.89"/>
<polygon fill="midnightblue" stroke="midnightblue" points="414.15,-480.06 406.08,-473.19 408.11,-483.59 414.15,-480.06"/>
</g>
<!-- Node17&#45;&gt;Node4 -->
<g id="edge28" class="edge">
<title>Node17&#45;&gt;Node4</title>
<path fill="none" stroke="midnightblue" d="M403.62,-453.98C410.11,-433.26 427.98,-378.8 449,-336 464.12,-305.21 485.84,-271.69 499.16,-252.05"/>
<polygon fill="midnightblue" stroke="midnightblue" points="502.18,-253.83 504.95,-243.6 496.41,-249.87 502.18,-253.83"/>
</g>
<!-- Node17&#45;&gt;Node5 -->
<g id="edge31" class="edge">
<title>Node17&#45;&gt;Node5</title>
<path fill="none" stroke="midnightblue" d="M399.46,-453.59C393.99,-418.7 379.09,-289.99 444,-224 470.44,-197.12 579.76,-185.51 636.88,-181.19"/>
<polygon fill="midnightblue" stroke="midnightblue" points="637.19,-184.68 646.91,-180.47 636.68,-177.7 637.19,-184.68"/>
</g>
<!-- Node17&#45;&gt;Node13 -->
<g id="edge29" class="edge">
<title>Node17&#45;&gt;Node13</title>
<path fill="none" stroke="midnightblue" d="M428.22,-453.98C461.24,-443.64 517.04,-426.16 553.95,-414.6"/>
<polygon fill="midnightblue" stroke="midnightblue" points="555.33,-417.84 563.83,-411.51 553.24,-411.16 555.33,-417.84"/>
</g>
<!-- Node17&#45;&gt;Node15 -->
<g id="edge30" class="edge">
<title>Node17&#45;&gt;Node15</title>
<path fill="none" stroke="midnightblue" d="M409.42,-453.82C428.15,-434.5 473.5,-387.74 497.5,-362.98"/>
<polygon fill="midnightblue" stroke="midnightblue" points="500.04,-365.4 504.48,-355.78 495.01,-360.52 500.04,-365.4"/>
</g>
<!-- Node18&#45;&gt;Node5 -->
<g id="edge36" class="edge">
<title>Node18&#45;&gt;Node5</title>
<path fill="none" stroke="midnightblue" d="M605.69,-520.94C615.91,-501.94 640.27,-454.53 653,-412 674.71,-339.48 674.76,-319.44 681,-244 681.73,-235.14 681.88,-232.85 681,-224 680.13,-215.17 678.31,-205.51 676.53,-197.4"/>
<polygon fill="midnightblue" stroke="midnightblue" points="679.92,-196.49 674.23,-187.55 673.1,-198.08 679.92,-196.49"/>
</g>
<!-- Node18&#45;&gt;Node13 -->
<g id="edge34" class="edge">
<title>Node18&#45;&gt;Node13</title>
<path fill="none" stroke="midnightblue" d="M595.5,-520.99C589.58,-511.29 580.55,-494.72 577,-479 572.59,-459.43 578.1,-436.8 583.46,-421.36"/>
<polygon fill="midnightblue" stroke="midnightblue" points="586.75,-422.53 587.01,-411.94 580.21,-420.06 586.75,-422.53"/>
</g>
<!-- Node18&#45;&gt;Node17 -->
<g id="edge35" class="edge">
<title>Node18&#45;&gt;Node17</title>
<path fill="none" stroke="midnightblue" d="M574.44,-520.87C539.08,-509.38 476.41,-489.01 436.87,-476.16"/>
<polygon fill="midnightblue" stroke="midnightblue" points="437.94,-472.83 427.35,-473.06 435.78,-479.48 437.94,-472.83"/>
</g>
<!-- Node19&#45;&gt;Node5 -->
<g id="edge39" class="edge">
<title>Node19&#45;&gt;Node5</title>
<path fill="none" stroke="midnightblue" d="M829.47,-453.89C824.09,-434.83 812,-387.5 812,-347 812,-347 812,-347 812,-289 812,-235.49 747.98,-204.05 706.52,-189.3"/>
<polygon fill="midnightblue" stroke="midnightblue" points="707.62,-185.98 697.03,-186.07 705.37,-192.6 707.62,-185.98"/>
</g>
<!-- Node19&#45;&gt;Node13 -->
<g id="edge38" class="edge">
<title>Node19&#45;&gt;Node13</title>
<path fill="none" stroke="midnightblue" d="M797.47,-453.98C754.79,-443.44 682.08,-425.49 635.32,-413.94"/>
<polygon fill="midnightblue" stroke="midnightblue" points="636.01,-410.51 625.47,-411.51 634.33,-417.3 636.01,-410.51"/>
</g>
<!-- Node20&#45;&gt;Node13 -->
<g id="edge41" class="edge">
<title>Node20&#45;&gt;Node13</title>
<path fill="none" stroke="midnightblue" d="M711.29,-520.92C693.96,-511.98 667.42,-496.81 648,-479 628.9,-461.48 611.77,-436.83 601.39,-420.4"/>
<polygon fill="midnightblue" stroke="midnightblue" points="604.32,-418.48 596.09,-411.8 598.35,-422.15 604.32,-418.48"/>
</g>
<!-- Node21 -->
<g id="node21" class="node">
<title>Node21</title>
<g id="a_node21"><a xlink:href="f__pc__method__tag_8h.html" target="_top" xlink:title=" ">
<polygon fill="white" stroke="black" points="657.5,-448.5 657.5,-478.5 758.5,-478.5 758.5,-448.5 657.5,-448.5"/>
<text text-anchor="start" x="665.5" y="-466.5" font-family="Helvetica,sans-Serif" font-size="10.00">f/f_pc/f_pc_method</text>
<text text-anchor="middle" x="708" y="-455.5" font-family="Helvetica,sans-Serif" font-size="10.00">_tag.h</text>
</a>
</g>
</g>
<!-- Node20&#45;&gt;Node21 -->
<g id="edge42" class="edge">
<title>Node20&#45;&gt;Node21</title>
<path fill="none" stroke="midnightblue" d="M726.17,-520.73C723.49,-512.46 719.36,-499.66 715.71,-488.37"/>
<polygon fill="midnightblue" stroke="midnightblue" points="718.96,-487.03 712.55,-478.59 712.3,-489.18 718.96,-487.03"/>
</g>
<!-- Node21&#45;&gt;Node5 -->
<g id="edge44" class="edge">
<title>Node21&#45;&gt;Node5</title>
<path fill="none" stroke="midnightblue" d="M716.29,-448.46C728,-427.24 748,-385.41 748,-347 748,-347 748,-347 748,-289 748,-258.2 741.53,-249.32 724,-224 715.82,-212.19 703.85,-201.54 693.45,-193.57"/>
<polygon fill="midnightblue" stroke="midnightblue" points="695.34,-190.62 685.2,-187.54 691.21,-196.27 695.34,-190.62"/>
</g>
<!-- Node21&#45;&gt;Node13 -->
<g id="edge43" class="edge">
<title>Node21&#45;&gt;Node13</title>
<path fill="none" stroke="midnightblue" d="M680.27,-448.4C661.17,-438.68 635.94,-425.86 617.18,-416.31"/>
<polygon fill="midnightblue" stroke="midnightblue" points="618.52,-413.07 608.02,-411.66 615.35,-419.31 618.52,-413.07"/>
</g>
<!-- Node22&#45;&gt;Node5 -->
<g id="edge48" class="edge">
<title>Node22&#45;&gt;Node5</title>
<path fill="none" stroke="midnightblue" d="M168.43,-520.92C167.11,-500.49 164,-447.4 164,-403 164,-403 164,-403 164,-289 164,-244.89 198.53,-241.53 239,-224 310.31,-193.11 546.45,-182.81 636.6,-179.95"/>
<polygon fill="midnightblue" stroke="midnightblue" points="636.96,-183.44 646.85,-179.64 636.75,-176.45 636.96,-183.44"/>
</g>
<!-- Node23 -->
<g id="node23" class="node">
<title>Node23</title>
<g id="a_node23"><a xlink:href="f__pc__method_8h.html" target="_top" xlink:title=" ">
<polygon fill="white" stroke="black" points="28,-454 28,-473 136,-473 136,-454 28,-454"/>
<text text-anchor="middle" x="82" y="-461" font-family="Helvetica,sans-Serif" font-size="10.00">f/f_pc/f_pc_method.h</text>
</a>
</g>
</g>
<!-- Node22&#45;&gt;Node23 -->
<g id="edge46" class="edge">
<title>Node22&#45;&gt;Node23</title>
<path fill="none" stroke="midnightblue" d="M157.27,-520.73C143.05,-510.11 118.87,-492.05 101.76,-479.26"/>
<polygon fill="midnightblue" stroke="midnightblue" points="103.65,-476.31 93.55,-473.13 99.46,-481.92 103.65,-476.31"/>
</g>
<!-- Node23&#45;&gt;Node5 -->
<g id="edge47" class="edge">
<title>Node23&#45;&gt;Node5</title>
<path fill="none" stroke="midnightblue" d="M84.79,-453.91C90.71,-434.88 104,-387.62 104,-347 104,-347 104,-347 104,-289 104,-253.61 119.29,-241.6 150,-224 192.05,-199.9 525.96,-184.73 636.56,-180.33"/>
<polygon fill="midnightblue" stroke="midnightblue" points="636.99,-183.82 646.85,-179.93 636.72,-176.83 636.99,-183.82"/>
</g>
<!-- Node24&#45;&gt;Node5 -->
<g id="edge51" class="edge">
<title>Node24&#45;&gt;Node5</title>
<path fill="none" stroke="midnightblue" d="M1053.54,-392.18C1048.16,-362.78 1026.6,-267.49 967,-224 926.28,-194.29 777.02,-183.74 707.75,-180.4"/>
<polygon fill="midnightblue" stroke="midnightblue" points="707.5,-176.88 697.35,-179.92 707.18,-183.87 707.5,-176.88"/>
</g>
<!-- Node25&#45;&gt;Node5 -->
<g id="edge59" class="edge">
<title>Node25&#45;&gt;Node5</title>
<path fill="none" stroke="midnightblue" d="M501.47,-702.56C629.66,-700.08 953,-684.74 953,-593 953,-593 953,-593 953,-289 953,-253.35 936.06,-243.16 906,-224 873.49,-203.28 764.26,-188.88 707.28,-182.58"/>
<polygon fill="midnightblue" stroke="midnightblue" points="707.59,-179.09 697.27,-181.49 706.84,-186.05 707.59,-179.09"/>
</g>
<!-- Node25&#45;&gt;Node12 -->
<g id="edge54" class="edge">
<title>Node25&#45;&gt;Node12</title>
<path fill="none" stroke="midnightblue" d="M453.77,-694.37C461.58,-676.46 479.71,-634.92 490.17,-610.95"/>
<polygon fill="midnightblue" stroke="midnightblue" points="493.46,-612.16 494.25,-601.59 487.04,-609.36 493.46,-612.16"/>
</g>
<!-- Node26 -->
<g id="node26" class="node">
<title>Node26</title>
<g id="a_node26"><a xlink:href="f__pc__node_8h.html" target="_top" xlink:title=" ">
<polygon fill="white" stroke="black" points="359.5,-638.5 359.5,-657.5 456.5,-657.5 456.5,-638.5 359.5,-638.5"/>
<text text-anchor="middle" x="408" y="-645.5" font-family="Helvetica,sans-Serif" font-size="10.00">f/f_pc/f_pc_node.h</text>
</a>
</g>
</g>
<!-- Node25&#45;&gt;Node26 -->
<g id="edge55" class="edge">
<title>Node25&#45;&gt;Node26</title>
<path fill="none" stroke="midnightblue" d="M443.06,-694.08C437.07,-686.38 428.25,-675.03 420.95,-665.65"/>
<polygon fill="midnightblue" stroke="midnightblue" points="423.71,-663.5 414.81,-657.75 418.18,-667.79 423.71,-663.5"/>
</g>
<!-- Node26&#45;&gt;Node12 -->
<g id="edge56" class="edge">
<title>Node26&#45;&gt;Node12</title>
<path fill="none" stroke="midnightblue" d="M422.46,-638.32C436.5,-629.9 458.05,-616.97 474.54,-607.07"/>
<polygon fill="midnightblue" stroke="midnightblue" points="476.8,-609.8 483.58,-601.65 473.2,-603.8 476.8,-609.8"/>
</g>
<!-- Node26&#45;&gt;Node17 -->
<g id="edge57" class="edge">
<title>Node26&#45;&gt;Node17</title>
<path fill="none" stroke="midnightblue" d="M404.03,-638.37C394.84,-617.32 373.51,-561.65 382,-515 384.04,-503.76 388.45,-491.78 392.5,-482.3"/>
<polygon fill="midnightblue" stroke="midnightblue" points="395.71,-483.72 396.64,-473.16 389.33,-480.83 395.71,-483.72"/>
</g>
<!-- Node26&#45;&gt;Node23 -->
<g id="edge58" class="edge">
<title>Node26&#45;&gt;Node23</title>
<path fill="none" stroke="midnightblue" d="M359.41,-643.7C293.81,-636.67 177.28,-614.68 109,-546 92.29,-529.19 85.92,-501.82 83.49,-483.5"/>
<polygon fill="midnightblue" stroke="midnightblue" points="86.96,-483.01 82.44,-473.43 80,-483.74 86.96,-483.01"/>
</g>
</g>
</svg>
