<?xml version="1.0" encoding="UTF-8" standalone="no"?>
<!DOCTYPE svg PUBLIC "-//W3C//DTD SVG 1.1//EN"
 "http://www.w3.org/Graphics/SVG/1.1/DTD/svg11.dtd">
<!-- Generated by graphviz version 2.44.0 ()
 -->
<!-- Title: include/f/f_pc/f_pc_node.h Pages: 1 -->
<svg width="1573pt" height="430pt"
 viewBox="0.00 0.00 1572.70 430.00" xmlns="http://www.w3.org/2000/svg" xmlns:xlink="http://www.w3.org/1999/xlink">
<g id="graph0" class="graph" transform="scale(1 1) rotate(0) translate(4 426)">
<title>include/f/f_pc/f_pc_node.h</title>
<polygon fill="white" stroke="transparent" points="-4,4 -4,-426 1568.7,-426 1568.7,4 -4,4"/>
<!-- Node1 -->
<g id="node1" class="node">
<title>Node1</title>
<g id="a_node1"><a xlink:title=" ">
<polygon fill="#bfbfbf" stroke="black" points="818.2,-391.5 818.2,-421.5 915.2,-421.5 915.2,-391.5 818.2,-391.5"/>
<text text-anchor="start" x="826.2" y="-409.5" font-family="Helvetica,sans-Serif" font-size="10.00">include/f/f_pc/f_pc</text>
<text text-anchor="middle" x="866.7" y="-398.5" font-family="Helvetica,sans-Serif" font-size="10.00">_node.h</text>
</a>
</g>
</g>
<!-- Node2 -->
<g id="node2" class="node">
<title>Node2</title>
<g id="a_node2"><a xlink:href="f__op__msg__mng_8cpp.html" target="_top" xlink:title=" ">
<polygon fill="white" stroke="black" points="50.7,-56.5 50.7,-86.5 154.7,-86.5 154.7,-56.5 50.7,-56.5"/>
<text text-anchor="start" x="58.7" y="-74.5" font-family="Helvetica,sans-Serif" font-size="10.00">src/f/f_op/f_op_msg</text>
<text text-anchor="middle" x="102.7" y="-63.5" font-family="Helvetica,sans-Serif" font-size="10.00">_mng.cpp</text>
</a>
</g>
</g>
<!-- Node1&#45;&gt;Node2 -->
<g id="edge1" class="edge">
<title>Node1&#45;&gt;Node2</title>
<path fill="none" stroke="midnightblue" d="M807.8,-406.18C693.68,-406.34 435.11,-401.03 223.7,-355 120.6,-332.55 0.7,-379.02 0.7,-273.5 0.7,-273.5 0.7,-273.5 0.7,-204.5 0.7,-167.31 -2.11,-153.13 19.7,-123 31.37,-106.88 49.92,-94.89 66.52,-86.65"/>
<polygon fill="midnightblue" stroke="midnightblue" points="808.07,-409.68 818.06,-406.15 808.05,-402.68 808.07,-409.68"/>
</g>
<!-- Node3 -->
<g id="node3" class="node">
<title>Node3</title>
<g id="a_node3"><a xlink:href="f__op__scene_8cpp.html" target="_top" xlink:title=" ">
<polygon fill="white" stroke="black" points="29.2,-129 29.2,-148 158.2,-148 158.2,-129 29.2,-129"/>
<text text-anchor="middle" x="93.7" y="-136" font-family="Helvetica,sans-Serif" font-size="10.00">src/f/f_op/f_op_scene.cpp</text>
</a>
</g>
</g>
<!-- Node1&#45;&gt;Node3 -->
<g id="edge2" class="edge">
<title>Node1&#45;&gt;Node3</title>
<path fill="none" stroke="midnightblue" d="M807.63,-403.72C681.29,-399.35 388.71,-386.11 294.7,-355 240.72,-337.13 225.98,-328.14 185.7,-288 140.8,-243.26 107.9,-172.59 97.33,-148.15"/>
<polygon fill="midnightblue" stroke="midnightblue" points="807.77,-407.22 817.88,-404.06 808,-400.23 807.77,-407.22"/>
</g>
<!-- Node4 -->
<g id="node4" class="node">
<title>Node4</title>
<g id="a_node4"><a xlink:href="f__pc__deletor_8cpp.html" target="_top" xlink:title=" ">
<polygon fill="white" stroke="black" points="1048.7,-330 1048.7,-349 1180.7,-349 1180.7,-330 1048.7,-330"/>
<text text-anchor="middle" x="1114.7" y="-337" font-family="Helvetica,sans-Serif" font-size="10.00">src/f/f_pc/f_pc_deletor.cpp</text>
</a>
</g>
</g>
<!-- Node1&#45;&gt;Node4 -->
<g id="edge3" class="edge">
<title>Node1&#45;&gt;Node4</title>
<path fill="none" stroke="midnightblue" d="M925.23,-390.16C974.13,-377.34 1042.1,-359.53 1081.93,-349.09"/>
<polygon fill="midnightblue" stroke="midnightblue" points="924.19,-386.81 915.4,-392.74 925.96,-393.59 924.19,-386.81"/>
</g>
<!-- Node5 -->
<g id="node5" class="node">
<title>Node5</title>
<g id="a_node5"><a xlink:href="f__pc__executor_8cpp.html" target="_top" xlink:title=" ">
<polygon fill="white" stroke="black" points="835.7,-263 835.7,-282 975.7,-282 975.7,-263 835.7,-263"/>
<text text-anchor="middle" x="905.7" y="-270" font-family="Helvetica,sans-Serif" font-size="10.00">src/f/f_pc/f_pc_executor.cpp</text>
</a>
</g>
</g>
<!-- Node1&#45;&gt;Node5 -->
<g id="edge4" class="edge">
<title>Node1&#45;&gt;Node5</title>
<path fill="none" stroke="midnightblue" d="M871.82,-381.4C875.49,-365.06 880.8,-343.07 886.7,-324 891.3,-309.15 897.93,-292.32 902.01,-282.33"/>
<polygon fill="midnightblue" stroke="midnightblue" points="868.39,-380.71 869.66,-391.23 875.23,-382.21 868.39,-380.71"/>
</g>
<!-- Node6 -->
<g id="node6" class="node">
<title>Node6</title>
<g id="a_node6"><a xlink:href="f__pc__node_8cpp.html" target="_top" xlink:title=" ">
<polygon fill="white" stroke="black" points="1198.7,-330 1198.7,-349 1322.7,-349 1322.7,-330 1198.7,-330"/>
<text text-anchor="middle" x="1260.7" y="-337" font-family="Helvetica,sans-Serif" font-size="10.00">src/f/f_pc/f_pc_node.cpp</text>
</a>
</g>
</g>
<!-- Node1&#45;&gt;Node6 -->
<g id="edge5" class="edge">
<title>Node1&#45;&gt;Node6</title>
<path fill="none" stroke="midnightblue" d="M925.28,-397.18C990.09,-387.77 1097.58,-371.6 1189.7,-355 1199.73,-353.19 1210.52,-351.08 1220.59,-349.03"/>
<polygon fill="midnightblue" stroke="midnightblue" points="924.64,-393.73 915.25,-398.63 925.65,-400.66 924.64,-393.73"/>
</g>
<!-- Node7 -->
<g id="node7" class="node">
<title>Node7</title>
<g id="a_node7"><a xlink:href="f__pc__pause_8cpp.html" target="_top" xlink:title=" ">
<polygon fill="white" stroke="black" points="1316.2,-263 1316.2,-282 1445.2,-282 1445.2,-263 1316.2,-263"/>
<text text-anchor="middle" x="1380.7" y="-270" font-family="Helvetica,sans-Serif" font-size="10.00">src/f/f_pc/f_pc_pause.cpp</text>
</a>
</g>
</g>
<!-- Node1&#45;&gt;Node7 -->
<g id="edge6" class="edge">
<title>Node1&#45;&gt;Node7</title>
<path fill="none" stroke="midnightblue" d="M924.82,-388.41C949.37,-380.03 977.75,-368.75 1001.7,-355 1020.61,-344.15 1019.71,-332.67 1039.7,-324 1149.56,-276.36 1188.56,-307.52 1306.7,-288 1317.29,-286.25 1328.69,-284.13 1339.29,-282.06"/>
<polygon fill="midnightblue" stroke="midnightblue" points="923.64,-385.11 915.26,-391.6 925.86,-391.75 923.64,-385.11"/>
</g>
<!-- Node8 -->
<g id="node8" class="node">
<title>Node8</title>
<g id="a_node8"><a xlink:href="f__pc__stdcreate__req_8cpp.html" target="_top" xlink:title=" ">
<polygon fill="white" stroke="black" points="1341.2,-324.5 1341.2,-354.5 1466.2,-354.5 1466.2,-324.5 1341.2,-324.5"/>
<text text-anchor="start" x="1349.2" y="-342.5" font-family="Helvetica,sans-Serif" font-size="10.00">src/f/f_pc/f_pc_stdcreate</text>
<text text-anchor="middle" x="1403.7" y="-331.5" font-family="Helvetica,sans-Serif" font-size="10.00">_req.cpp</text>
</a>
</g>
</g>
<!-- Node1&#45;&gt;Node8 -->
<g id="edge7" class="edge">
<title>Node1&#45;&gt;Node8</title>
<path fill="none" stroke="midnightblue" d="M925.53,-400.83C1013.99,-393.42 1186.39,-377.48 1331.7,-355 1334.73,-354.53 1337.82,-354.02 1340.93,-353.49"/>
<polygon fill="midnightblue" stroke="midnightblue" points="925.1,-397.35 915.43,-401.67 925.68,-404.33 925.1,-397.35"/>
</g>
<!-- Node9 -->
<g id="node9" class="node">
<title>Node9</title>
<g id="a_node9"><a xlink:href="f__op__scene_8h.html" target="_top" xlink:title=" ">
<polygon fill="white" stroke="black" points="195.2,-257.5 195.2,-287.5 292.2,-287.5 292.2,-257.5 195.2,-257.5"/>
<text text-anchor="start" x="203.2" y="-275.5" font-family="Helvetica,sans-Serif" font-size="10.00">include/f/f_op/f_op</text>
<text text-anchor="middle" x="243.7" y="-264.5" font-family="Helvetica,sans-Serif" font-size="10.00">_scene.h</text>
</a>
</g>
</g>
<!-- Node1&#45;&gt;Node9 -->
<g id="edge8" class="edge">
<title>Node1&#45;&gt;Node9</title>
<path fill="none" stroke="midnightblue" d="M807.7,-403.94C689.74,-400.16 429.08,-388.2 346.7,-355 309.27,-339.91 274.36,-306.73 256.38,-287.68"/>
<polygon fill="midnightblue" stroke="midnightblue" points="807.87,-407.45 817.98,-404.27 808.09,-400.45 807.87,-407.45"/>
</g>
<!-- Node20 -->
<g id="node20" class="node">
<title>Node20</title>
<g id="a_node20"><a xlink:href="f__op__scene__tag_8h.html" target="_top" xlink:title=" ">
<polygon fill="white" stroke="black" points="356.2,-324.5 356.2,-354.5 453.2,-354.5 453.2,-324.5 356.2,-324.5"/>
<text text-anchor="start" x="364.2" y="-342.5" font-family="Helvetica,sans-Serif" font-size="10.00">include/f/f_op/f_op</text>
<text text-anchor="middle" x="404.7" y="-331.5" font-family="Helvetica,sans-Serif" font-size="10.00">_scene_tag.h</text>
</a>
</g>
</g>
<!-- Node1&#45;&gt;Node20 -->
<g id="edge23" class="edge">
<title>Node1&#45;&gt;Node20</title>
<path fill="none" stroke="midnightblue" d="M808.14,-397.26C715.99,-384.3 538.87,-359.38 453.31,-347.34"/>
<polygon fill="midnightblue" stroke="midnightblue" points="807.74,-400.74 818.13,-398.67 808.72,-393.81 807.74,-400.74"/>
</g>
<!-- Node23 -->
<g id="node23" class="node">
<title>Node23</title>
<g id="a_node23"><a xlink:href="f__pc__pause_8h.html" target="_top" xlink:title=" ">
<polygon fill="white" stroke="black" points="895.2,-324.5 895.2,-354.5 992.2,-354.5 992.2,-324.5 895.2,-324.5"/>
<text text-anchor="start" x="903.2" y="-342.5" font-family="Helvetica,sans-Serif" font-size="10.00">include/f/f_pc/f_pc</text>
<text text-anchor="middle" x="943.7" y="-331.5" font-family="Helvetica,sans-Serif" font-size="10.00">_pause.h</text>
</a>
</g>
</g>
<!-- Node1&#45;&gt;Node23 -->
<g id="edge28" class="edge">
<title>Node1&#45;&gt;Node23</title>
<path fill="none" stroke="midnightblue" d="M891.13,-384.88C902.83,-375.01 916.54,-363.43 927.03,-354.58"/>
<polygon fill="midnightblue" stroke="midnightblue" points="888.79,-382.27 883.41,-391.4 893.31,-387.62 888.79,-382.27"/>
</g>
<!-- Node27 -->
<g id="node27" class="node">
<title>Node27</title>
<g id="a_node27"><a xlink:href="f__pc__node__req_8h.html" target="_top" xlink:title=" ">
<polygon fill="white" stroke="black" points="720.2,-257.5 720.2,-287.5 817.2,-287.5 817.2,-257.5 720.2,-257.5"/>
<text text-anchor="start" x="728.2" y="-275.5" font-family="Helvetica,sans-Serif" font-size="10.00">include/f/f_pc/f_pc</text>
<text text-anchor="middle" x="768.7" y="-264.5" font-family="Helvetica,sans-Serif" font-size="10.00">_node_req.h</text>
</a>
</g>
</g>
<!-- Node1&#45;&gt;Node27 -->
<g id="edge34" class="edge">
<title>Node1&#45;&gt;Node27</title>
<path fill="none" stroke="midnightblue" d="M850.14,-383.19C829.85,-355.86 796.09,-310.38 779.11,-287.52"/>
<polygon fill="midnightblue" stroke="midnightblue" points="847.44,-385.43 856.21,-391.37 853.06,-381.26 847.44,-385.43"/>
</g>
<!-- Node9&#45;&gt;Node3 -->
<g id="edge9" class="edge">
<title>Node9&#45;&gt;Node3</title>
<path fill="none" stroke="midnightblue" d="M219.72,-250.39C186.18,-220.88 126.78,-168.61 103.47,-148.1"/>
<polygon fill="midnightblue" stroke="midnightblue" points="217.83,-253.39 227.65,-257.37 222.46,-248.14 217.83,-253.39"/>
</g>
<!-- Node10 -->
<g id="node10" class="node">
<title>Node10</title>
<g id="a_node10"><a xlink:href="f__op__scene__pause_8h.html" target="_top" xlink:title=" ">
<polygon fill="white" stroke="black" points="349.2,-190.5 349.2,-220.5 446.2,-220.5 446.2,-190.5 349.2,-190.5"/>
<text text-anchor="start" x="357.2" y="-208.5" font-family="Helvetica,sans-Serif" font-size="10.00">include/f/f_op/f_op</text>
<text text-anchor="middle" x="397.7" y="-197.5" font-family="Helvetica,sans-Serif" font-size="10.00">_scene_pause.h</text>
</a>
</g>
</g>
<!-- Node9&#45;&gt;Node10 -->
<g id="edge10" class="edge">
<title>Node9&#45;&gt;Node10</title>
<path fill="none" stroke="midnightblue" d="M286.57,-253.41C311.16,-243.03 341.56,-230.2 364.35,-220.58"/>
<polygon fill="midnightblue" stroke="midnightblue" points="284.97,-250.28 277.12,-257.4 287.69,-256.73 284.97,-250.28"/>
</g>
<!-- Node10&#45;&gt;Node3 -->
<g id="edge12" class="edge">
<title>Node10&#45;&gt;Node3</title>
<path fill="none" stroke="midnightblue" d="M339.07,-190.96C337.6,-190.64 336.14,-190.32 334.7,-190 264.98,-174.67 183.66,-157.85 135.55,-148.01"/>
<polygon fill="midnightblue" stroke="midnightblue" points="338.36,-194.39 348.89,-193.16 339.89,-187.56 338.36,-194.39"/>
</g>
<!-- Node11 -->
<g id="node11" class="node">
<title>Node11</title>
<g id="a_node11"><a xlink:href="f__op__overlap__mng_8cpp.html" target="_top" xlink:title=" ">
<polygon fill="white" stroke="black" points="176.7,-123.5 176.7,-153.5 292.7,-153.5 292.7,-123.5 176.7,-123.5"/>
<text text-anchor="start" x="184.7" y="-141.5" font-family="Helvetica,sans-Serif" font-size="10.00">src/f/f_op/f_op_overlap</text>
<text text-anchor="middle" x="234.7" y="-130.5" font-family="Helvetica,sans-Serif" font-size="10.00">_mng.cpp</text>
</a>
</g>
</g>
<!-- Node10&#45;&gt;Node11 -->
<g id="edge11" class="edge">
<title>Node10&#45;&gt;Node11</title>
<path fill="none" stroke="midnightblue" d="M353.02,-186.68C326.88,-176.26 294.34,-163.28 270,-153.58"/>
<polygon fill="midnightblue" stroke="midnightblue" points="351.75,-189.94 362.33,-190.4 354.34,-183.44 351.75,-189.94"/>
</g>
<!-- Node12 -->
<g id="node12" class="node">
<title>Node12</title>
<g id="a_node12"><a xlink:href="f__op__scene__pause_8cpp.html" target="_top" xlink:title=" ">
<polygon fill="white" stroke="black" points="579.2,-123.5 579.2,-153.5 690.2,-153.5 690.2,-123.5 579.2,-123.5"/>
<text text-anchor="start" x="587.2" y="-141.5" font-family="Helvetica,sans-Serif" font-size="10.00">src/f/f_op/f_op_scene</text>
<text text-anchor="middle" x="634.7" y="-130.5" font-family="Helvetica,sans-Serif" font-size="10.00">_pause.cpp</text>
</a>
</g>
</g>
<!-- Node10&#45;&gt;Node12 -->
<g id="edge13" class="edge">
<title>Node10&#45;&gt;Node12</title>
<path fill="none" stroke="midnightblue" d="M455.89,-188.54C494.91,-177.84 545.85,-163.87 583.37,-153.58"/>
<polygon fill="midnightblue" stroke="midnightblue" points="454.95,-185.17 446.24,-191.19 456.8,-191.92 454.95,-185.17"/>
</g>
<!-- Node13 -->
<g id="node13" class="node">
<title>Node13</title>
<g id="a_node13"><a xlink:href="f__op__scene__mng_8h.html" target="_top" xlink:title=" ">
<polygon fill="white" stroke="black" points="349.2,-123.5 349.2,-153.5 446.2,-153.5 446.2,-123.5 349.2,-123.5"/>
<text text-anchor="start" x="357.2" y="-141.5" font-family="Helvetica,sans-Serif" font-size="10.00">include/f/f_op/f_op</text>
<text text-anchor="middle" x="397.7" y="-130.5" font-family="Helvetica,sans-Serif" font-size="10.00">_scene_mng.h</text>
</a>
</g>
</g>
<!-- Node10&#45;&gt;Node13 -->
<g id="edge14" class="edge">
<title>Node10&#45;&gt;Node13</title>
<path fill="none" stroke="midnightblue" d="M397.7,-180.11C397.7,-171.15 397.7,-161.32 397.7,-153.58"/>
<polygon fill="midnightblue" stroke="midnightblue" points="394.2,-180.4 397.7,-190.4 401.2,-180.4 394.2,-180.4"/>
</g>
<!-- Node18 -->
<g id="node18" class="node">
<title>Node18</title>
<g id="a_node18"><a xlink:href="f__op__scene__req_8h.html" target="_top" xlink:title=" ">
<polygon fill="white" stroke="black" points="464.2,-123.5 464.2,-153.5 561.2,-153.5 561.2,-123.5 464.2,-123.5"/>
<text text-anchor="start" x="472.2" y="-141.5" font-family="Helvetica,sans-Serif" font-size="10.00">include/f/f_op/f_op</text>
<text text-anchor="middle" x="512.7" y="-130.5" font-family="Helvetica,sans-Serif" font-size="10.00">_scene_req.h</text>
</a>
</g>
</g>
<!-- Node10&#45;&gt;Node18 -->
<g id="edge20" class="edge">
<title>Node10&#45;&gt;Node18</title>
<path fill="none" stroke="midnightblue" d="M431.68,-185.3C449.67,-175.12 471.38,-162.85 487.8,-153.58"/>
<polygon fill="midnightblue" stroke="midnightblue" points="429.64,-182.43 422.66,-190.4 433.08,-188.52 429.64,-182.43"/>
</g>
<!-- Node13&#45;&gt;Node2 -->
<g id="edge18" class="edge">
<title>Node13&#45;&gt;Node2</title>
<path fill="none" stroke="midnightblue" d="M339.07,-123.97C337.6,-123.64 336.14,-123.32 334.7,-123 258.86,-106.29 239.49,-103.98 163.7,-87 160.83,-86.36 157.89,-85.69 154.93,-85.01"/>
<polygon fill="midnightblue" stroke="midnightblue" points="338.36,-127.39 348.88,-126.17 339.89,-120.56 338.36,-127.39"/>
</g>
<!-- Node14 -->
<g id="node14" class="node">
<title>Node14</title>
<g id="a_node14"><a xlink:href="d__com__inf__game_8cpp.html" target="_top" xlink:title=" ">
<polygon fill="white" stroke="black" points="173.2,-56.5 173.2,-86.5 292.2,-86.5 292.2,-56.5 173.2,-56.5"/>
<text text-anchor="start" x="181.2" y="-74.5" font-family="Helvetica,sans-Serif" font-size="10.00">src/d/d_com/d_com_inf</text>
<text text-anchor="middle" x="232.7" y="-63.5" font-family="Helvetica,sans-Serif" font-size="10.00">_game.cpp</text>
</a>
</g>
</g>
<!-- Node13&#45;&gt;Node14 -->
<g id="edge15" class="edge">
<title>Node13&#45;&gt;Node14</title>
<path fill="none" stroke="midnightblue" d="M352.47,-119.68C326.01,-109.26 293.07,-96.28 268.44,-86.58"/>
<polygon fill="midnightblue" stroke="midnightblue" points="351.31,-122.99 361.9,-123.4 353.88,-116.47 351.31,-122.99"/>
</g>
<!-- Node15 -->
<g id="node15" class="node">
<title>Node15</title>
<g id="a_node15"><a xlink:href="d__stage_8cpp.html" target="_top" xlink:title=" ">
<polygon fill="white" stroke="black" points="562.7,-62 562.7,-81 656.7,-81 656.7,-62 562.7,-62"/>
<text text-anchor="middle" x="609.7" y="-69" font-family="Helvetica,sans-Serif" font-size="10.00">src/d/d_stage.cpp</text>
</a>
</g>
</g>
<!-- Node13&#45;&gt;Node15 -->
<g id="edge16" class="edge">
<title>Node13&#45;&gt;Node15</title>
<path fill="none" stroke="midnightblue" d="M453.12,-120.51C494.49,-107.83 549.29,-91.02 581.89,-81.03"/>
<polygon fill="midnightblue" stroke="midnightblue" points="451.98,-117.2 443.44,-123.48 454.03,-123.89 451.98,-117.2"/>
</g>
<!-- Node16 -->
<g id="node16" class="node">
<title>Node16</title>
<g id="a_node16"><a xlink:href="f__ap__game_8cpp.html" target="_top" xlink:title=" ">
<polygon fill="white" stroke="black" points="439.2,-62 439.2,-81 544.2,-81 544.2,-62 439.2,-62"/>
<text text-anchor="middle" x="491.7" y="-69" font-family="Helvetica,sans-Serif" font-size="10.00">src/f/f_ap_game.cpp</text>
</a>
</g>
</g>
<!-- Node13&#45;&gt;Node16 -->
<g id="edge17" class="edge">
<title>Node13&#45;&gt;Node16</title>
<path fill="none" stroke="midnightblue" d="M426.42,-117.64C444.16,-105.37 466.02,-90.26 479.4,-81.01"/>
<polygon fill="midnightblue" stroke="midnightblue" points="424.33,-114.83 418.1,-123.4 428.31,-120.59 424.33,-114.83"/>
</g>
<!-- Node17 -->
<g id="node17" class="node">
<title>Node17</title>
<g id="a_node17"><a xlink:href="f__op__scene__mng_8cpp.html" target="_top" xlink:title=" ">
<polygon fill="white" stroke="black" points="310.2,-56.5 310.2,-86.5 421.2,-86.5 421.2,-56.5 310.2,-56.5"/>
<text text-anchor="start" x="318.2" y="-74.5" font-family="Helvetica,sans-Serif" font-size="10.00">src/f/f_op/f_op_scene</text>
<text text-anchor="middle" x="365.7" y="-63.5" font-family="Helvetica,sans-Serif" font-size="10.00">_mng.cpp</text>
</a>
</g>
</g>
<!-- Node13&#45;&gt;Node17 -->
<g id="edge19" class="edge">
<title>Node13&#45;&gt;Node17</title>
<path fill="none" stroke="midnightblue" d="M386.27,-114.28C381.71,-105.02 376.61,-94.66 372.63,-86.58"/>
<polygon fill="midnightblue" stroke="midnightblue" points="383.2,-115.97 390.76,-123.4 389.48,-112.88 383.2,-115.97"/>
</g>
<!-- Node18&#45;&gt;Node17 -->
<g id="edge21" class="edge">
<title>Node18&#45;&gt;Node17</title>
<path fill="none" stroke="midnightblue" d="M471.47,-119.27C448.06,-108.92 419.19,-96.15 397.54,-86.58"/>
<polygon fill="midnightblue" stroke="midnightblue" points="470.24,-122.55 480.81,-123.4 473.08,-116.15 470.24,-122.55"/>
</g>
<!-- Node19 -->
<g id="node19" class="node">
<title>Node19</title>
<g id="a_node19"><a xlink:href="f__op__scene__req_8cpp.html" target="_top" xlink:title=" ">
<polygon fill="white" stroke="black" points="675.2,-56.5 675.2,-86.5 786.2,-86.5 786.2,-56.5 675.2,-56.5"/>
<text text-anchor="start" x="683.2" y="-74.5" font-family="Helvetica,sans-Serif" font-size="10.00">src/f/f_op/f_op_scene</text>
<text text-anchor="middle" x="730.7" y="-63.5" font-family="Helvetica,sans-Serif" font-size="10.00">_req.cpp</text>
</a>
</g>
</g>
<!-- Node18&#45;&gt;Node19 -->
<g id="edge22" class="edge">
<title>Node18&#45;&gt;Node19</title>
<path fill="none" stroke="midnightblue" d="M569.45,-120.58C604.86,-110.02 649.9,-96.59 683.38,-86.61"/>
<polygon fill="midnightblue" stroke="midnightblue" points="568.32,-117.26 559.74,-123.48 570.32,-123.97 568.32,-117.26"/>
</g>
<!-- Node20&#45;&gt;Node3 -->
<g id="edge24" class="edge">
<title>Node20&#45;&gt;Node3</title>
<path fill="none" stroke="midnightblue" d="M378.29,-318.09C366.47,-308.92 352.36,-297.95 339.7,-288 322.29,-274.32 319.05,-269.39 300.7,-257 250.72,-223.25 235.15,-219.77 182.7,-190 156.75,-175.27 126.53,-158.12 108.82,-148.08"/>
<polygon fill="midnightblue" stroke="midnightblue" points="376.4,-321.05 386.45,-324.4 380.69,-315.51 376.4,-321.05"/>
</g>
<!-- Node20&#45;&gt;Node9 -->
<g id="edge27" class="edge">
<title>Node20&#45;&gt;Node9</title>
<path fill="none" stroke="midnightblue" d="M360.23,-320.54C334.46,-310.14 302.5,-297.24 278.57,-287.58"/>
<polygon fill="midnightblue" stroke="midnightblue" points="359.18,-323.9 369.77,-324.4 361.81,-317.41 359.18,-323.9"/>
</g>
<!-- Node21 -->
<g id="node21" class="node">
<title>Node21</title>
<g id="a_node21"><a xlink:href="f__op__scene__iter_8cpp.html" target="_top" xlink:title=" ">
<polygon fill="white" stroke="black" points="349.2,-257.5 349.2,-287.5 460.2,-287.5 460.2,-257.5 349.2,-257.5"/>
<text text-anchor="start" x="357.2" y="-275.5" font-family="Helvetica,sans-Serif" font-size="10.00">src/f/f_op/f_op_scene</text>
<text text-anchor="middle" x="404.7" y="-264.5" font-family="Helvetica,sans-Serif" font-size="10.00">_iter.cpp</text>
</a>
</g>
</g>
<!-- Node20&#45;&gt;Node21 -->
<g id="edge25" class="edge">
<title>Node20&#45;&gt;Node21</title>
<path fill="none" stroke="midnightblue" d="M404.7,-314.11C404.7,-305.15 404.7,-295.32 404.7,-287.58"/>
<polygon fill="midnightblue" stroke="midnightblue" points="401.2,-314.4 404.7,-324.4 408.2,-314.4 401.2,-314.4"/>
</g>
<!-- Node22 -->
<g id="node22" class="node">
<title>Node22</title>
<g id="a_node22"><a xlink:href="f__op__scene__tag_8cpp.html" target="_top" xlink:title=" ">
<polygon fill="white" stroke="black" points="478.2,-257.5 478.2,-287.5 589.2,-287.5 589.2,-257.5 478.2,-257.5"/>
<text text-anchor="start" x="486.2" y="-275.5" font-family="Helvetica,sans-Serif" font-size="10.00">src/f/f_op/f_op_scene</text>
<text text-anchor="middle" x="533.7" y="-264.5" font-family="Helvetica,sans-Serif" font-size="10.00">_tag.cpp</text>
</a>
</g>
</g>
<!-- Node20&#45;&gt;Node22 -->
<g id="edge26" class="edge">
<title>Node20&#45;&gt;Node22</title>
<path fill="none" stroke="midnightblue" d="M441.71,-319.85C462.11,-309.58 487.01,-297.03 505.77,-287.58"/>
<polygon fill="midnightblue" stroke="midnightblue" points="440.05,-316.77 432.69,-324.4 443.2,-323.02 440.05,-316.77"/>
</g>
<!-- Node23&#45;&gt;Node5 -->
<g id="edge31" class="edge">
<title>Node23&#45;&gt;Node5</title>
<path fill="none" stroke="midnightblue" d="M930.33,-315.63C923.57,-304.07 915.77,-290.71 910.79,-282.19"/>
<polygon fill="midnightblue" stroke="midnightblue" points="927.39,-317.53 935.46,-324.4 933.43,-314 927.39,-317.53"/>
</g>
<!-- Node23&#45;&gt;Node7 -->
<g id="edge33" class="edge">
<title>Node23&#45;&gt;Node7</title>
<path fill="none" stroke="midnightblue" d="M1002.3,-324.79C1003.78,-324.52 1005.25,-324.25 1006.7,-324 1138.99,-300.91 1174.05,-308.93 1306.7,-288 1317.57,-286.29 1329.27,-284.14 1340.09,-282.02"/>
<polygon fill="midnightblue" stroke="midnightblue" points="1001.57,-321.37 992.44,-326.74 1002.93,-328.24 1001.57,-321.37"/>
</g>
<!-- Node24 -->
<g id="node24" class="node">
<title>Node24</title>
<g id="a_node24"><a xlink:href="f__pc__base_8cpp.html" target="_top" xlink:title=" ">
<polygon fill="white" stroke="black" points="1031.7,-263 1031.7,-282 1155.7,-282 1155.7,-263 1031.7,-263"/>
<text text-anchor="middle" x="1093.7" y="-270" font-family="Helvetica,sans-Serif" font-size="10.00">src/f/f_pc/f_pc_base.cpp</text>
</a>
</g>
</g>
<!-- Node23&#45;&gt;Node24 -->
<g id="edge29" class="edge">
<title>Node23&#45;&gt;Node24</title>
<path fill="none" stroke="midnightblue" d="M985.71,-320.3C1014.64,-307.76 1051.74,-291.68 1074.07,-282.01"/>
<polygon fill="midnightblue" stroke="midnightblue" points="984.03,-317.21 976.25,-324.4 986.82,-323.63 984.03,-317.21"/>
</g>
<!-- Node25 -->
<g id="node25" class="node">
<title>Node25</title>
<g id="a_node25"><a xlink:href="f__pc__draw_8cpp.html" target="_top" xlink:title=" ">
<polygon fill="white" stroke="black" points="1173.7,-263 1173.7,-282 1297.7,-282 1297.7,-263 1173.7,-263"/>
<text text-anchor="middle" x="1235.7" y="-270" font-family="Helvetica,sans-Serif" font-size="10.00">src/f/f_pc/f_pc_draw.cpp</text>
</a>
</g>
</g>
<!-- Node23&#45;&gt;Node25 -->
<g id="edge30" class="edge">
<title>Node23&#45;&gt;Node25</title>
<path fill="none" stroke="midnightblue" d="M1002.34,-324.98C1003.81,-324.65 1005.27,-324.32 1006.7,-324 1073.23,-309.01 1150.73,-292.02 1196.37,-282.06"/>
<polygon fill="midnightblue" stroke="midnightblue" points="1001.51,-321.59 992.53,-327.22 1003.06,-328.41 1001.51,-321.59"/>
</g>
<!-- Node26 -->
<g id="node26" class="node">
<title>Node26</title>
<g id="a_node26"><a xlink:href="f__pc__manager_8cpp.html" target="_top" xlink:title=" ">
<polygon fill="white" stroke="black" points="1167.7,-129 1167.7,-148 1307.7,-148 1307.7,-129 1167.7,-129"/>
<text text-anchor="middle" x="1237.7" y="-136" font-family="Helvetica,sans-Serif" font-size="10.00">src/f/f_pc/f_pc_manager.cpp</text>
</a>
</g>
</g>
<!-- Node23&#45;&gt;Node26 -->
<g id="edge32" class="edge">
<title>Node23&#45;&gt;Node26</title>
<path fill="none" stroke="midnightblue" d="M961.95,-316.28C977.04,-298.8 999.66,-274.54 1022.7,-257 1088.37,-207.02 1177.98,-165.31 1217.53,-148.04"/>
<polygon fill="midnightblue" stroke="midnightblue" points="958.98,-314.37 955.18,-324.26 964.32,-318.9 958.98,-314.37"/>
</g>
<!-- Node27&#45;&gt;Node18 -->
<g id="edge37" class="edge">
<title>Node27&#45;&gt;Node18</title>
<path fill="none" stroke="midnightblue" d="M732.11,-252.63C680.15,-225.84 586.15,-177.37 539.9,-153.52"/>
<polygon fill="midnightblue" stroke="midnightblue" points="730.81,-255.9 741.31,-257.37 734.02,-249.68 730.81,-255.9"/>
</g>
<!-- Node27&#45;&gt;Node26 -->
<g id="edge35" class="edge">
<title>Node27&#45;&gt;Node26</title>
<path fill="none" stroke="midnightblue" d="M826.95,-256.15C874.85,-243.35 936.58,-226.37 947.7,-221 968.92,-210.76 969.13,-199.46 990.7,-190 999.99,-185.93 1125.17,-161.31 1193.66,-148.01"/>
<polygon fill="midnightblue" stroke="midnightblue" points="826.03,-252.77 817.27,-258.73 827.83,-259.54 826.03,-252.77"/>
</g>
<!-- Node28 -->
<g id="node28" class="node">
<title>Node28</title>
<g id="a_node28"><a xlink:href="f__pc__node__req_8cpp.html" target="_top" xlink:title=" ">
<polygon fill="white" stroke="black" points="832.7,-190.5 832.7,-220.5 938.7,-220.5 938.7,-190.5 832.7,-190.5"/>
<text text-anchor="start" x="840.7" y="-208.5" font-family="Helvetica,sans-Serif" font-size="10.00">src/f/f_pc/f_pc_node</text>
<text text-anchor="middle" x="885.7" y="-197.5" font-family="Helvetica,sans-Serif" font-size="10.00">_req.cpp</text>
</a>
</g>
</g>
<!-- Node27&#45;&gt;Node28 -->
<g id="edge36" class="edge">
<title>Node27&#45;&gt;Node28</title>
<path fill="none" stroke="midnightblue" d="M803.02,-252.44C821.38,-242.24 843.59,-229.9 860.36,-220.58"/>
<polygon fill="midnightblue" stroke="midnightblue" points="801.13,-249.48 794.09,-257.4 804.53,-255.6 801.13,-249.48"/>
</g>
<!-- Node29 -->
<g id="node29" class="node">
<title>Node29</title>
<g id="a_node29"><a xlink:href="f__pc__manager_8h.html" target="_top" xlink:title=" ">
<polygon fill="white" stroke="black" points="718.2,-190.5 718.2,-220.5 815.2,-220.5 815.2,-190.5 718.2,-190.5"/>
<text text-anchor="start" x="726.2" y="-208.5" font-family="Helvetica,sans-Serif" font-size="10.00">include/f/f_pc/f_pc</text>
<text text-anchor="middle" x="766.7" y="-197.5" font-family="Helvetica,sans-Serif" font-size="10.00">_manager.h</text>
</a>
</g>
</g>
<!-- Node27&#45;&gt;Node29 -->
<g id="edge38" class="edge">
<title>Node27&#45;&gt;Node29</title>
<path fill="none" stroke="midnightblue" d="M767.95,-247.11C767.68,-238.15 767.37,-228.32 767.14,-220.58"/>
<polygon fill="midnightblue" stroke="midnightblue" points="764.46,-247.51 768.27,-257.4 771.46,-247.29 764.46,-247.51"/>
</g>
<!-- Node29&#45;&gt;Node2 -->
<g id="edge42" class="edge">
<title>Node29&#45;&gt;Node2</title>
<path fill="none" stroke="midnightblue" d="M708.02,-201.61C606.97,-195.98 404.74,-181.57 339.7,-154 319.64,-145.49 321.17,-132.8 301.7,-123 295.02,-119.63 211.4,-98.94 154.71,-85.11"/>
<polygon fill="midnightblue" stroke="midnightblue" points="707.88,-205.11 718.06,-202.16 708.26,-198.12 707.88,-205.11"/>
</g>
<!-- Node29&#45;&gt;Node12 -->
<g id="edge44" class="edge">
<title>Node29&#45;&gt;Node12</title>
<path fill="none" stroke="midnightblue" d="M728.84,-185.85C707.96,-175.58 682.48,-163.03 663.29,-153.58"/>
<polygon fill="midnightblue" stroke="midnightblue" points="727.54,-189.12 738.06,-190.4 730.64,-182.84 727.54,-189.12"/>
</g>
<!-- Node29&#45;&gt;Node16 -->
<g id="edge39" class="edge">
<title>Node29&#45;&gt;Node16</title>
<path fill="none" stroke="midnightblue" d="M800.85,-184.86C825.63,-168.16 851.88,-143.67 833.7,-123 792.27,-75.9 615.44,-98.16 553.7,-87 544.46,-85.33 534.51,-83.17 525.36,-81.03"/>
<polygon fill="midnightblue" stroke="midnightblue" points="798.72,-182.06 792.22,-190.42 802.52,-187.94 798.72,-182.06"/>
</g>
<!-- Node29&#45;&gt;Node26 -->
<g id="edge45" class="edge">
<title>Node29&#45;&gt;Node26</title>
<path fill="none" stroke="midnightblue" d="M825.29,-189.86C972.83,-163.98 1013.7,-175.07 1158.7,-154 1170.29,-152.32 1182.78,-150.18 1194.34,-148.06"/>
<polygon fill="midnightblue" stroke="midnightblue" points="824.65,-186.42 815.42,-191.62 825.88,-193.31 824.65,-186.42"/>
</g>
<!-- Node30 -->
<g id="node30" class="node">
<title>Node30</title>
<g id="a_node30"><a xlink:href="d__a__alink_8cpp.html" target="_top" xlink:title=" ">
<polygon fill="white" stroke="black" points="804.2,-62 804.2,-81 923.2,-81 923.2,-62 804.2,-62"/>
<text text-anchor="middle" x="863.7" y="-69" font-family="Helvetica,sans-Serif" font-size="10.00">src/d/d_a/d_a_alink.cpp</text>
</a>
</g>
</g>
<!-- Node29&#45;&gt;Node30 -->
<g id="edge40" class="edge">
<title>Node29&#45;&gt;Node30</title>
<path fill="none" stroke="midnightblue" d="M825.06,-187.94C841.36,-180.33 857.2,-169.44 866.7,-154 880.87,-130.97 872.23,-96.94 866.93,-81.14"/>
<polygon fill="midnightblue" stroke="midnightblue" points="823.27,-184.9 815.45,-192.05 826.03,-191.33 823.27,-184.9"/>
</g>
<!-- Node31 -->
<g id="node31" class="node">
<title>Node31</title>
<g id="a_node31"><a xlink:href="f__op__kankyo__mng_8cpp.html" target="_top" xlink:title=" ">
<polygon fill="white" stroke="black" points="1033.7,-123.5 1033.7,-153.5 1149.7,-153.5 1149.7,-123.5 1033.7,-123.5"/>
<text text-anchor="start" x="1041.7" y="-141.5" font-family="Helvetica,sans-Serif" font-size="10.00">src/f/f_op/f_op_kankyo</text>
<text text-anchor="middle" x="1091.7" y="-130.5" font-family="Helvetica,sans-Serif" font-size="10.00">_mng.cpp</text>
</a>
</g>
</g>
<!-- Node29&#45;&gt;Node31 -->
<g id="edge41" class="edge">
<title>Node29&#45;&gt;Node31</title>
<path fill="none" stroke="midnightblue" d="M825.47,-189.7C914.57,-170.8 939.41,-171.16 1025.7,-154 1028.23,-153.5 1030.82,-152.97 1033.43,-152.44"/>
<polygon fill="midnightblue" stroke="midnightblue" points="824.51,-186.33 815.47,-191.85 825.98,-193.17 824.51,-186.33"/>
</g>
<!-- Node32 -->
<g id="node32" class="node">
<title>Node32</title>
<g id="a_node32"><a xlink:href="f__op__overlap__req_8cpp.html" target="_top" xlink:title=" ">
<polygon fill="white" stroke="black" points="708.7,-123.5 708.7,-153.5 824.7,-153.5 824.7,-123.5 708.7,-123.5"/>
<text text-anchor="start" x="716.7" y="-141.5" font-family="Helvetica,sans-Serif" font-size="10.00">src/f/f_op/f_op_overlap</text>
<text text-anchor="middle" x="766.7" y="-130.5" font-family="Helvetica,sans-Serif" font-size="10.00">_req.cpp</text>
</a>
</g>
</g>
<!-- Node29&#45;&gt;Node32 -->
<g id="edge43" class="edge">
<title>Node29&#45;&gt;Node32</title>
<path fill="none" stroke="midnightblue" d="M766.7,-180.11C766.7,-171.15 766.7,-161.32 766.7,-153.58"/>
<polygon fill="midnightblue" stroke="midnightblue" points="763.2,-180.4 766.7,-190.4 770.2,-180.4 763.2,-180.4"/>
</g>
<!-- Node33 -->
<g id="node33" class="node">
<title>Node33</title>
<g id="a_node33"><a xlink:href="f__op__actor__mng_8h.html" target="_top" xlink:title=" ">
<polygon fill="white" stroke="black" points="919.2,-123.5 919.2,-153.5 1016.2,-153.5 1016.2,-123.5 919.2,-123.5"/>
<text text-anchor="start" x="927.2" y="-141.5" font-family="Helvetica,sans-Serif" font-size="10.00">include/f/f_op/f_op</text>
<text text-anchor="middle" x="967.7" y="-130.5" font-family="Helvetica,sans-Serif" font-size="10.00">_actor_mng.h</text>
</a>
</g>
</g>
<!-- Node29&#45;&gt;Node33 -->
<g id="edge46" class="edge">
<title>Node29&#45;&gt;Node33</title>
<path fill="none" stroke="midnightblue" d="M820.11,-187.23C852.63,-176.71 893.64,-163.45 924.17,-153.58"/>
<polygon fill="midnightblue" stroke="midnightblue" points="818.75,-183.99 810.32,-190.4 820.91,-190.65 818.75,-183.99"/>
</g>
<!-- Node33&#45;&gt;Node15 -->
<g id="edge49" class="edge">
<title>Node33&#45;&gt;Node15</title>
<path fill="none" stroke="midnightblue" d="M908.8,-129.09C847.92,-120.06 750.27,-104.61 666.7,-87 658.41,-85.25 649.5,-83.11 641.25,-81.02"/>
<polygon fill="midnightblue" stroke="midnightblue" points="908.58,-132.6 918.99,-130.6 909.6,-125.67 908.58,-132.6"/>
</g>
<!-- Node33&#45;&gt;Node30 -->
<g id="edge51" class="edge">
<title>Node33&#45;&gt;Node30</title>
<path fill="none" stroke="midnightblue" d="M936.46,-117.97C916.74,-105.65 892.26,-90.35 877.31,-81.01"/>
<polygon fill="midnightblue" stroke="midnightblue" points="934.8,-121.06 945.14,-123.4 938.51,-115.13 934.8,-121.06"/>
</g>
<!-- Node34 -->
<g id="node34" class="node">
<title>Node34</title>
<g id="a_node34"><a xlink:href="d__attention_8cpp.html" target="_top" xlink:title=" ">
<polygon fill="white" stroke="black" points="1338.2,-62 1338.2,-81 1445.2,-81 1445.2,-62 1338.2,-62"/>
<text text-anchor="middle" x="1391.7" y="-69" font-family="Helvetica,sans-Serif" font-size="10.00">src/d/d_attention.cpp</text>
</a>
</g>
</g>
<!-- Node33&#45;&gt;Node34 -->
<g id="edge47" class="edge">
<title>Node33&#45;&gt;Node34</title>
<path fill="none" stroke="midnightblue" d="M1026.64,-122.79C1160.3,-98.75 1197.93,-109.72 1328.7,-87 1338.21,-85.35 1348.44,-83.17 1357.84,-81"/>
<polygon fill="midnightblue" stroke="midnightblue" points="1025.63,-119.41 1016.43,-124.66 1026.89,-126.3 1025.63,-119.41"/>
</g>
<!-- Node35 -->
<g id="node35" class="node">
<title>Node35</title>
<g id="a_node35"><a xlink:href="d__camera_8cpp.html" target="_top" xlink:title=" ">
<polygon fill="white" stroke="black" points="1462.7,-62 1462.7,-81 1564.7,-81 1564.7,-62 1462.7,-62"/>
<text text-anchor="middle" x="1513.7" y="-69" font-family="Helvetica,sans-Serif" font-size="10.00">src/d/d_camera.cpp</text>
</a>
</g>
</g>
<!-- Node33&#45;&gt;Node35 -->
<g id="edge48" class="edge">
<title>Node33&#45;&gt;Node35</title>
<path fill="none" stroke="midnightblue" d="M1026.4,-122.89C1215.64,-92.15 1268.68,-117.45 1454.7,-87 1463.97,-85.48 1473.92,-83.27 1482.96,-81.02"/>
<polygon fill="midnightblue" stroke="midnightblue" points="1025.7,-119.46 1016.41,-124.55 1026.84,-126.36 1025.7,-119.46"/>
</g>
<!-- Node36 -->
<g id="node36" class="node">
<title>Node36</title>
<g id="a_node36"><a xlink:href="f__op__actor__mng_8cpp.html" target="_top" xlink:title=" ">
<polygon fill="white" stroke="black" points="941.2,-56.5 941.2,-86.5 1048.2,-86.5 1048.2,-56.5 941.2,-56.5"/>
<text text-anchor="start" x="949.2" y="-74.5" font-family="Helvetica,sans-Serif" font-size="10.00">src/f/f_op/f_op_actor</text>
<text text-anchor="middle" x="994.7" y="-63.5" font-family="Helvetica,sans-Serif" font-size="10.00">_mng.cpp</text>
</a>
</g>
</g>
<!-- Node33&#45;&gt;Node36 -->
<g id="edge50" class="edge">
<title>Node33&#45;&gt;Node36</title>
<path fill="none" stroke="midnightblue" d="M977.47,-113.99C981.28,-104.8 985.53,-94.58 988.86,-86.58"/>
<polygon fill="midnightblue" stroke="midnightblue" points="974.17,-112.82 973.56,-123.4 980.63,-115.5 974.17,-112.82"/>
</g>
<!-- Node37 -->
<g id="node37" class="node">
<title>Node37</title>
<g id="a_node37"><a xlink:href="m__Do__main_8cpp.html" target="_top" xlink:title=" ">
<polygon fill="white" stroke="black" points="1066.2,-62 1066.2,-81 1197.2,-81 1197.2,-62 1066.2,-62"/>
<text text-anchor="middle" x="1131.7" y="-69" font-family="Helvetica,sans-Serif" font-size="10.00">src/m_Do/m_Do_main.cpp</text>
</a>
</g>
</g>
<!-- Node33&#45;&gt;Node37 -->
<g id="edge52" class="edge">
<title>Node33&#45;&gt;Node37</title>
<path fill="none" stroke="midnightblue" d="M1012.81,-119.62C1044.55,-107.04 1085.62,-90.77 1110.24,-81.01"/>
<polygon fill="midnightblue" stroke="midnightblue" points="1011.3,-116.46 1003.29,-123.4 1013.87,-122.97 1011.3,-116.46"/>
</g>
<!-- Node38 -->
<g id="node38" class="node">
<title>Node38</title>
<g id="a_node38"><a xlink:href="d__model_8h.html" target="_top" xlink:title=" ">
<polygon fill="white" stroke="black" points="1215.7,-56.5 1215.7,-86.5 1319.7,-86.5 1319.7,-56.5 1215.7,-56.5"/>
<text text-anchor="start" x="1223.7" y="-74.5" font-family="Helvetica,sans-Serif" font-size="10.00">include/d/d_model/d</text>
<text text-anchor="middle" x="1267.7" y="-63.5" font-family="Helvetica,sans-Serif" font-size="10.00">_model.h</text>
</a>
</g>
</g>
<!-- Node33&#45;&gt;Node38 -->
<g id="edge53" class="edge">
<title>Node33&#45;&gt;Node38</title>
<path fill="none" stroke="midnightblue" d="M1026.57,-122.64C1106.86,-104.78 1129.28,-103.85 1206.7,-87 1209.57,-86.37 1212.52,-85.72 1215.49,-85.05"/>
<polygon fill="midnightblue" stroke="midnightblue" points="1025.47,-119.3 1016.48,-124.91 1027,-126.13 1025.47,-119.3"/>
</g>
<!-- Node39 -->
<g id="node39" class="node">
<title>Node39</title>
<g id="a_node39"><a xlink:href="d__model_8cpp.html" target="_top" xlink:title=" ">
<polygon fill="white" stroke="black" points="1219.7,-0.5 1219.7,-19.5 1315.7,-19.5 1315.7,-0.5 1219.7,-0.5"/>
<text text-anchor="middle" x="1267.7" y="-7.5" font-family="Helvetica,sans-Serif" font-size="10.00">src/d/d_model.cpp</text>
</a>
</g>
</g>
<!-- Node38&#45;&gt;Node39 -->
<g id="edge54" class="edge">
<title>Node38&#45;&gt;Node39</title>
<path fill="none" stroke="midnightblue" d="M1267.7,-46.29C1267.7,-36.86 1267.7,-26.65 1267.7,-19.66"/>
<polygon fill="midnightblue" stroke="midnightblue" points="1264.2,-46.4 1267.7,-56.4 1271.2,-46.4 1264.2,-46.4"/>
</g>
</g>
</svg>
