<?xml version="1.0" encoding="UTF-8" standalone="no"?>
<!DOCTYPE svg PUBLIC "-//W3C//DTD SVG 1.1//EN"
 "http://www.w3.org/Graphics/SVG/1.1/DTD/svg11.dtd">
<!-- Generated by graphviz version 2.44.0 ()
 -->
<!-- Title: include/f/f_pc/f_pc_leaf.h Pages: 1 -->
<!--zoomable 229 -->
<svg id="main" version="1.1" xmlns="http://www.w3.org/2000/svg" xmlns:xlink="http://www.w3.org/1999/xlink" xml:space="preserve" onload="init(evt)">
<style type="text/css"><![CDATA[
.edge:hover path { stroke: red; }
.edge:hover polygon { stroke: red; fill: red; }
]]></style>
<script type="text/javascript"><![CDATA[
var edges = document.getElementsByTagName('g');
if (edges && edges.length) {
  for (var i=0;i<edges.length;i++) {
    if (edges[i].id.substr(0,4)=='edge') {
      edges[i].setAttribute('class','edge');
    }
  }
}
]]></script>
        <defs>
                <circle id="rim" cx="0" cy="0" r="7"/>
                <circle id="rim2" cx="0" cy="0" r="3.5"/>
                <g id="zoomPlus">
                        <use xlink:href="#rim" fill="#404040">
                                <set attributeName="fill" to="#808080" begin="zoomplus.mouseover" end="zoomplus.mouseout"/>
                        </use>
                        <path d="M-4,0h8M0,-4v8" fill="none" stroke="white" stroke-width="1.5" pointer-events="none"/>
                </g>
                <g id="zoomMin">
                        <use xlink:href="#rim" fill="#404040">
                                <set attributeName="fill" to="#808080" begin="zoomminus.mouseover" end="zoomminus.mouseout"/>
                        </use>
                        <path d="M-4,0h8" fill="none" stroke="white" stroke-width="1.5" pointer-events="none"/>
                </g>
                <g id="dirArrow">
                        <path fill="none" stroke="white" stroke-width="1.5" d="M0,-3.0v7 M-2.5,-0.5L0,-3.0L2.5,-0.5"/>
                </g>
               <g id="resetDef">
                       <use xlink:href="#rim2" fill="#404040">
                               <set attributeName="fill" to="#808080" begin="reset.mouseover" end="reset.mouseout"/>
                       </use>
               </g>
        </defs>

<script type="text/javascript">
var viewWidth = 1136;
var viewHeight = 229;
var sectionId = 'dynsection-1';
</script>
<script xlink:href="svgpan.js"/>
<svg id="graph" class="graph">
<g id="viewport">
<title>include/f/f_pc/f_pc_leaf.h</title>
<polygon fill="white" stroke="transparent" points="-4,4 -4,-225 1132.2,-225 1132.2,4 -4,4"/>
<!-- Node1 -->
<g id="node1" class="node">
<title>Node1</title>
<g id="a_node1"><a xlink:title=" ">
<polygon fill="#bfbfbf" stroke="black" points="373.2,-190.5 373.2,-220.5 470.2,-220.5 470.2,-190.5 373.2,-190.5"/>
<text text-anchor="start" x="381.2" y="-208.5" font-family="Helvetica,sans-Serif" font-size="10.00">include/f/f_pc/f_pc</text>
<text text-anchor="middle" x="421.7" y="-197.5" font-family="Helvetica,sans-Serif" font-size="10.00">_leaf.h</text>
</a>
</g>
</g>
<!-- Node2 -->
<g id="node2" class="node">
<title>Node2</title>
<g id="a_node2"><a xlink:href="f__op__camera_8cpp.html" target="_top" xlink:title=" ">
<polygon fill="white" stroke="black" points="452.2,-0.5 452.2,-19.5 587.2,-19.5 587.2,-0.5 452.2,-0.5"/>
<text text-anchor="middle" x="519.7" y="-7.5" font-family="Helvetica,sans-Serif" font-size="10.00">src/f/f_op/f_op_camera.cpp</text>
</a>
</g>
</g>
<!-- Node1&#45;&gt;Node2 -->
<g id="edge1" class="edge">
<title>Node1&#45;&gt;Node2</title>
<path fill="none" stroke="midnightblue" d="M362.93,-201.6C254.05,-195.61 29.92,-180.22 6.7,-154 -2.44,-143.69 -1.94,-133.73 6.7,-123 61.87,-54.48 325.43,-25.62 451.81,-15.56"/>
<polygon fill="midnightblue" stroke="midnightblue" points="362.92,-205.1 373.09,-202.15 363.29,-198.11 362.92,-205.1"/>
</g>
<!-- Node3 -->
<g id="node3" class="node">
<title>Node3</title>
<g id="a_node3"><a xlink:href="f__op__kankyo_8cpp.html" target="_top" xlink:title=" ">
<polygon fill="white" stroke="black" points="15.7,-129 15.7,-148 149.7,-148 149.7,-129 15.7,-129"/>
<text text-anchor="middle" x="82.7" y="-136" font-family="Helvetica,sans-Serif" font-size="10.00">src/f/f_op/f_op_kankyo.cpp</text>
</a>
</g>
</g>
<!-- Node1&#45;&gt;Node3 -->
<g id="edge2" class="edge">
<title>Node1&#45;&gt;Node3</title>
<path fill="none" stroke="midnightblue" d="M363.13,-193.27C296.05,-180.41 187.63,-159.62 127.13,-148.02"/>
<polygon fill="midnightblue" stroke="midnightblue" points="362.65,-196.74 373.13,-195.19 363.96,-189.87 362.65,-196.74"/>
</g>
<!-- Node4 -->
<g id="node4" class="node">
<title>Node4</title>
<g id="a_node4"><a xlink:href="f__op__msg_8cpp.html" target="_top" xlink:title=" ">
<polygon fill="white" stroke="black" points="167.7,-129 167.7,-148 289.7,-148 289.7,-129 167.7,-129"/>
<text text-anchor="middle" x="228.7" y="-136" font-family="Helvetica,sans-Serif" font-size="10.00">src/f/f_op/f_op_msg.cpp</text>
</a>
</g>
</g>
<!-- Node1&#45;&gt;Node4 -->
<g id="edge3" class="edge">
<title>Node1&#45;&gt;Node4</title>
<path fill="none" stroke="midnightblue" d="M370.05,-187.11C332.51,-174.46 283.31,-157.89 253.96,-148.01"/>
<polygon fill="midnightblue" stroke="midnightblue" points="369.22,-190.52 379.82,-190.4 371.46,-183.89 369.22,-190.52"/>
</g>
<!-- Node5 -->
<g id="node5" class="node">
<title>Node5</title>
<g id="a_node5"><a xlink:href="f__op__overlap_8cpp.html" target="_top" xlink:title=" ">
<polygon fill="white" stroke="black" points="307.7,-129 307.7,-148 441.7,-148 441.7,-129 307.7,-129"/>
<text text-anchor="middle" x="374.7" y="-136" font-family="Helvetica,sans-Serif" font-size="10.00">src/f/f_op/f_op_overlap.cpp</text>
</a>
</g>
</g>
<!-- Node1&#45;&gt;Node5 -->
<g id="edge4" class="edge">
<title>Node1&#45;&gt;Node5</title>
<path fill="none" stroke="midnightblue" d="M405.41,-181.97C396.99,-170.33 387.21,-156.8 380.98,-148.19"/>
<polygon fill="midnightblue" stroke="midnightblue" points="402.8,-184.34 411.5,-190.4 408.48,-180.24 402.8,-184.34"/>
</g>
<!-- Node6 -->
<g id="node6" class="node">
<title>Node6</title>
<g id="a_node6"><a xlink:href="f__op__view_8cpp.html" target="_top" xlink:title=" ">
<polygon fill="white" stroke="black" points="399.2,-62 399.2,-81 522.2,-81 522.2,-62 399.2,-62"/>
<text text-anchor="middle" x="460.7" y="-69" font-family="Helvetica,sans-Serif" font-size="10.00">src/f/f_op/f_op_view.cpp</text>
</a>
</g>
</g>
<!-- Node1&#45;&gt;Node6 -->
<g id="edge5" class="edge">
<title>Node1&#45;&gt;Node6</title>
<path fill="none" stroke="midnightblue" d="M437.34,-181.75C442.39,-173.37 447.5,-163.58 450.7,-154 459.17,-128.57 460.59,-96.54 460.75,-81.31"/>
<polygon fill="midnightblue" stroke="midnightblue" points="434.37,-179.89 431.97,-190.21 440.28,-183.64 434.37,-179.89"/>
</g>
<!-- Node7 -->
<g id="node7" class="node">
<title>Node7</title>
<g id="a_node7"><a xlink:href="f__pc__leaf_8cpp.html" target="_top" xlink:title=" ">
<polygon fill="white" stroke="black" points="498.2,-129 498.2,-148 617.2,-148 617.2,-129 498.2,-129"/>
<text text-anchor="middle" x="557.7" y="-136" font-family="Helvetica,sans-Serif" font-size="10.00">src/f/f_pc/f_pc_leaf.cpp</text>
</a>
</g>
</g>
<!-- Node1&#45;&gt;Node7 -->
<g id="edge6" class="edge">
<title>Node1&#45;&gt;Node7</title>
<path fill="none" stroke="midnightblue" d="M460.47,-185.97C486.6,-173.48 519.83,-157.6 539.9,-148.01"/>
<polygon fill="midnightblue" stroke="midnightblue" points="458.72,-182.93 451.21,-190.4 461.74,-189.24 458.72,-182.93"/>
</g>
<!-- Node8 -->
<g id="node8" class="node">
<title>Node8</title>
<g id="a_node8"><a xlink:href="f__op__camera__mng_8h.html" target="_top" xlink:title=" ">
<polygon fill="white" stroke="black" points="768.2,-123.5 768.2,-153.5 865.2,-153.5 865.2,-123.5 768.2,-123.5"/>
<text text-anchor="start" x="776.2" y="-141.5" font-family="Helvetica,sans-Serif" font-size="10.00">include/f/f_op/f_op</text>
<text text-anchor="middle" x="816.7" y="-130.5" font-family="Helvetica,sans-Serif" font-size="10.00">_camera_mng.h</text>
</a>
</g>
</g>
<!-- Node1&#45;&gt;Node8 -->
<g id="edge7" class="edge">
<title>Node1&#45;&gt;Node8</title>
<path fill="none" stroke="midnightblue" d="M480.25,-195.88C544.49,-186.28 650.6,-169.99 741.7,-154 750.19,-152.51 759.2,-150.84 767.93,-149.18"/>
<polygon fill="midnightblue" stroke="midnightblue" points="479.68,-192.42 470.3,-197.36 480.71,-199.35 479.68,-192.42"/>
</g>
<!-- Node14 -->
<g id="node14" class="node">
<title>Node14</title>
<g id="a_node14"><a xlink:href="f__op__view_8h.html" target="_top" xlink:title=" ">
<polygon fill="white" stroke="black" points="635.2,-123.5 635.2,-153.5 732.2,-153.5 732.2,-123.5 635.2,-123.5"/>
<text text-anchor="start" x="643.2" y="-141.5" font-family="Helvetica,sans-Serif" font-size="10.00">include/f/f_op/f_op</text>
<text text-anchor="middle" x="683.7" y="-130.5" font-family="Helvetica,sans-Serif" font-size="10.00">_view.h</text>
</a>
</g>
</g>
<!-- Node1&#45;&gt;Node14 -->
<g id="edge14" class="edge">
<title>Node1&#45;&gt;Node14</title>
<path fill="none" stroke="midnightblue" d="M480.42,-190.16C521.43,-180.11 577.42,-166.34 626.7,-154 629.47,-153.31 632.32,-152.59 635.19,-151.87"/>
<polygon fill="midnightblue" stroke="midnightblue" points="479.48,-186.79 470.6,-192.56 481.14,-193.59 479.48,-186.79"/>
</g>
<!-- Node9 -->
<g id="node9" class="node">
<title>Node9</title>
<g id="a_node9"><a xlink:href="d__camera_8cpp.html" target="_top" xlink:title=" ">
<polygon fill="white" stroke="black" points="540.7,-62 540.7,-81 642.7,-81 642.7,-62 540.7,-62"/>
<text text-anchor="middle" x="591.7" y="-69" font-family="Helvetica,sans-Serif" font-size="10.00">src/d/d_camera.cpp</text>
</a>
</g>
</g>
<!-- Node8&#45;&gt;Node9 -->
<g id="edge8" class="edge">
<title>Node8&#45;&gt;Node9</title>
<path fill="none" stroke="midnightblue" d="M758.44,-120.67C714.47,-107.97 655.96,-91.06 621.22,-81.03"/>
<polygon fill="midnightblue" stroke="midnightblue" points="757.57,-124.06 768.15,-123.48 759.52,-117.34 757.57,-124.06"/>
</g>
<!-- Node10 -->
<g id="node10" class="node">
<title>Node10</title>
<g id="a_node10"><a xlink:href="d__stage_8cpp.html" target="_top" xlink:title=" ">
<polygon fill="white" stroke="black" points="660.7,-62 660.7,-81 754.7,-81 754.7,-62 660.7,-62"/>
<text text-anchor="middle" x="707.7" y="-69" font-family="Helvetica,sans-Serif" font-size="10.00">src/d/d_stage.cpp</text>
</a>
</g>
</g>
<!-- Node8&#45;&gt;Node10 -->
<g id="edge9" class="edge">
<title>Node8&#45;&gt;Node10</title>
<path fill="none" stroke="midnightblue" d="M784.23,-118.14C763.52,-105.79 737.69,-90.39 721.96,-81.01"/>
<polygon fill="midnightblue" stroke="midnightblue" points="782.66,-121.28 793.05,-123.4 786.25,-115.27 782.66,-121.28"/>
</g>
<!-- Node11 -->
<g id="node11" class="node">
<title>Node11</title>
<g id="a_node11"><a xlink:href="f__ap__game_8cpp.html" target="_top" xlink:title=" ">
<polygon fill="white" stroke="black" points="773.2,-62 773.2,-81 878.2,-81 878.2,-62 773.2,-62"/>
<text text-anchor="middle" x="825.7" y="-69" font-family="Helvetica,sans-Serif" font-size="10.00">src/f/f_ap_game.cpp</text>
</a>
</g>
</g>
<!-- Node8&#45;&gt;Node11 -->
<g id="edge10" class="edge">
<title>Node8&#45;&gt;Node11</title>
<path fill="none" stroke="midnightblue" d="M820.05,-113.25C821.61,-102.02 823.36,-89.38 824.49,-81.19"/>
<polygon fill="midnightblue" stroke="midnightblue" points="816.55,-113.01 818.65,-123.4 823.49,-113.97 816.55,-113.01"/>
</g>
<!-- Node12 -->
<g id="node12" class="node">
<title>Node12</title>
<g id="a_node12"><a xlink:href="f__op__camera__mng_8cpp.html" target="_top" xlink:title=" ">
<polygon fill="white" stroke="black" points="896.2,-56.5 896.2,-86.5 1013.2,-86.5 1013.2,-56.5 896.2,-56.5"/>
<text text-anchor="start" x="904.2" y="-74.5" font-family="Helvetica,sans-Serif" font-size="10.00">src/f/f_op/f_op_camera</text>
<text text-anchor="middle" x="954.7" y="-63.5" font-family="Helvetica,sans-Serif" font-size="10.00">_mng.cpp</text>
</a>
</g>
</g>
<!-- Node8&#45;&gt;Node12 -->
<g id="edge11" class="edge">
<title>Node8&#45;&gt;Node12</title>
<path fill="none" stroke="midnightblue" d="M855.7,-119.13C877.62,-108.8 904.57,-96.11 924.81,-86.58"/>
<polygon fill="midnightblue" stroke="midnightblue" points="854.2,-115.97 846.64,-123.4 857.18,-122.3 854.2,-115.97"/>
</g>
<!-- Node13 -->
<g id="node13" class="node">
<title>Node13</title>
<g id="a_node13"><a xlink:href="f__op__camera_8h.html" target="_top" xlink:title=" ">
<polygon fill="white" stroke="black" points="1031.2,-56.5 1031.2,-86.5 1128.2,-86.5 1128.2,-56.5 1031.2,-56.5"/>
<text text-anchor="start" x="1039.2" y="-74.5" font-family="Helvetica,sans-Serif" font-size="10.00">include/f/f_op/f_op</text>
<text text-anchor="middle" x="1079.7" y="-63.5" font-family="Helvetica,sans-Serif" font-size="10.00">_camera.h</text>
</a>
</g>
</g>
<!-- Node8&#45;&gt;Node13 -->
<g id="edge12" class="edge">
<title>Node8&#45;&gt;Node13</title>
<path fill="none" stroke="midnightblue" d="M875.3,-123.28C916.54,-113.23 973.03,-99.41 1022.7,-87 1025.47,-86.31 1028.32,-85.59 1031.19,-84.87"/>
<polygon fill="midnightblue" stroke="midnightblue" points="874.31,-119.92 865.42,-125.68 875.97,-126.72 874.31,-119.92"/>
</g>
<!-- Node13&#45;&gt;Node2 -->
<g id="edge13" class="edge">
<title>Node13&#45;&gt;Node2</title>
<path fill="none" stroke="midnightblue" d="M1020.95,-55.87C860.7,-29.15 682.24,-18.04 587.26,-13.61"/>
<polygon fill="midnightblue" stroke="midnightblue" points="1020.55,-59.35 1030.99,-57.56 1021.71,-52.44 1020.55,-59.35"/>
</g>
<!-- Node14&#45;&gt;Node6 -->
<g id="edge15" class="edge">
<title>Node14&#45;&gt;Node6</title>
<path fill="none" stroke="midnightblue" d="M625.96,-120.67C582.38,-107.97 524.39,-91.06 489.96,-81.03"/>
<polygon fill="midnightblue" stroke="midnightblue" points="625,-124.04 635.58,-123.48 626.96,-117.32 625,-124.04"/>
</g>
</g>
</svg>
        <g id="navigator" transform="translate(0 0)" fill="#404254">
                <rect fill="#f2f5e9" fill-opacity="0.5" stroke="#606060" stroke-width=".5" x="0" y="0" width="60" height="60"/>
                <use id="zoomplus" xlink:href="#zoomPlus" x="17" y="9" onmousedown="handleZoom(evt,'in')"/>
                <use id="zoomminus" xlink:href="#zoomMin" x="42" y="9" onmousedown="handleZoom(evt,'out')"/>
                <use id="reset" xlink:href="#resetDef" x="30" y="36" onmousedown="handleReset()"/>
                <g id="arrowUp" xlink:href="#dirArrow" transform="translate(30 24)" onmousedown="handlePan(0,-1)">
                  <use xlink:href="#rim" fill="#404040">
                        <set attributeName="fill" to="#808080" begin="arrowUp.mouseover" end="arrowUp.mouseout"/>
                  </use>
                  <path fill="none" stroke="white" stroke-width="1.5" d="M0,-3.0v7 M-2.5,-0.5L0,-3.0L2.5,-0.5"/>
                </g>
                <g id="arrowRight" xlink:href="#dirArrow" transform="rotate(90) translate(36 -43)" onmousedown="handlePan(1,0)">
                  <use xlink:href="#rim" fill="#404040">
                        <set attributeName="fill" to="#808080" begin="arrowRight.mouseover" end="arrowRight.mouseout"/>
                  </use>
                  <path fill="none" stroke="white" stroke-width="1.5" d="M0,-3.0v7 M-2.5,-0.5L0,-3.0L2.5,-0.5"/>
                </g>
                <g id="arrowDown" xlink:href="#dirArrow" transform="rotate(180) translate(-30 -48)" onmousedown="handlePan(0,1)">
                  <use xlink:href="#rim" fill="#404040">
                        <set attributeName="fill" to="#808080" begin="arrowDown.mouseover" end="arrowDown.mouseout"/>
                  </use>
                  <path fill="none" stroke="white" stroke-width="1.5" d="M0,-3.0v7 M-2.5,-0.5L0,-3.0L2.5,-0.5"/>
                </g>
                <g id="arrowLeft" xlink:href="#dirArrow" transform="rotate(270) translate(-36 17)" onmousedown="handlePan(-1,0)">
                  <use xlink:href="#rim" fill="#404040">
                        <set attributeName="fill" to="#808080" begin="arrowLeft.mouseover" end="arrowLeft.mouseout"/>
                  </use>
                  <path fill="none" stroke="white" stroke-width="1.5" d="M0,-3.0v7 M-2.5,-0.5L0,-3.0L2.5,-0.5"/>
                </g>
        </g>
        <svg viewBox="0 0 15 15" width="100%" height="30px" preserveAspectRatio="xMaxYMin meet">
         <g id="arrow_out" transform="scale(0.3 0.3)">
          <a xlink:href="f__pc__leaf_8h__dep__incl_org.svg" target="_base">
           <rect id="button" ry="5" rx="5" y="6" x="6" height="38" width="38"
                fill="#f2f5e9" fill-opacity="0.5" stroke="#606060" stroke-width="1.0"/>
           <path id="arrow"
             d="M 11.500037,31.436501 C 11.940474,20.09759 22.043105,11.32322 32.158766,21.979434 L 37.068811,17.246167 C 37.068811,17.246167 37.088388,32 37.088388,32 L 22.160133,31.978069 C 22.160133,31.978069 26.997745,27.140456 26.997745,27.140456 C 18.528582,18.264221 13.291696,25.230495 11.500037,31.436501 z"
             style="fill:#404040;"/>
          </a>
         </g>
        </svg>
</svg>
