<?xml version="1.0" encoding="UTF-8" standalone="no"?>
<!DOCTYPE svg PUBLIC "-//W3C//DTD SVG 1.1//EN"
 "http://www.w3.org/Graphics/SVG/1.1/DTD/svg11.dtd">
<!-- Generated by graphviz version 2.44.0 ()
 -->
<!-- Title: src/f/f_pc/f_pc_delete_tag.cpp Pages: 1 -->
<svg width="382pt" height="610pt"
 viewBox="0.00 0.00 381.50 610.00" xmlns="http://www.w3.org/2000/svg" xmlns:xlink="http://www.w3.org/1999/xlink">
<g id="graph0" class="graph" transform="scale(1 1) rotate(0) translate(4 606)">
<title>src/f/f_pc/f_pc_delete_tag.cpp</title>
<polygon fill="white" stroke="transparent" points="-4,4 -4,-606 377.5,-606 377.5,4 -4,4"/>
<!-- Node1 -->
<g id="node1" class="node">
<title>Node1</title>
<g id="a_node1"><a xlink:title=" ">
<polygon fill="#bfbfbf" stroke="black" points="0,-571.5 0,-601.5 111,-601.5 111,-571.5 0,-571.5"/>
<text text-anchor="start" x="8" y="-589.5" font-family="Helvetica,sans-Serif" font-size="10.00">src/f/f_pc/f_pc_delete</text>
<text text-anchor="middle" x="55.5" y="-578.5" font-family="Helvetica,sans-Serif" font-size="10.00">_tag.cpp</text>
</a>
</g>
</g>
<!-- Node2 -->
<g id="node2" class="node">
<title>Node2</title>
<g id="a_node2"><a xlink:href="f__pc__delete__tag_8h.html" target="_top" xlink:title=" ">
<polygon fill="white" stroke="black" points="84,-504.5 84,-534.5 179,-534.5 179,-504.5 84,-504.5"/>
<text text-anchor="start" x="92" y="-522.5" font-family="Helvetica,sans-Serif" font-size="10.00">f/f_pc/f_pc_delete</text>
<text text-anchor="middle" x="131.5" y="-511.5" font-family="Helvetica,sans-Serif" font-size="10.00">_tag.h</text>
</a>
</g>
</g>
<!-- Node1&#45;&gt;Node2 -->
<g id="edge1" class="edge">
<title>Node1&#45;&gt;Node2</title>
<path fill="none" stroke="midnightblue" d="M71.99,-571.4C82.35,-562.54 95.88,-550.96 107.43,-541.09"/>
<polygon fill="midnightblue" stroke="midnightblue" points="109.72,-543.74 115.04,-534.58 105.17,-538.42 109.72,-543.74"/>
</g>
<!-- Node7 -->
<g id="node7" class="node">
<title>Node7</title>
<g id="a_node7"><a xlink:href="types_8h.html" target="_top" xlink:title=" ">
<polygon fill="white" stroke="black" points="103,-0.5 103,-19.5 184,-19.5 184,-0.5 103,-0.5"/>
<text text-anchor="middle" x="143.5" y="-7.5" font-family="Helvetica,sans-Serif" font-size="10.00">dolphin/types.h</text>
</a>
</g>
</g>
<!-- Node1&#45;&gt;Node7 -->
<g id="edge27" class="edge">
<title>Node1&#45;&gt;Node7</title>
<path fill="none" stroke="midnightblue" d="M48.35,-571.5C37.34,-548.59 17.5,-501.42 17.5,-459 17.5,-459 17.5,-459 17.5,-121 17.5,-71.95 72.35,-39.74 109.67,-23.5"/>
<polygon fill="midnightblue" stroke="midnightblue" points="111.32,-26.61 119.21,-19.53 108.63,-20.14 111.32,-26.61"/>
</g>
<!-- Node3 -->
<g id="node3" class="node">
<title>Node3</title>
<g id="a_node3"><a xlink:href="c__tag_8h.html" target="_top" xlink:title=" ">
<polygon fill="white" stroke="black" points="107,-392.5 107,-411.5 214,-411.5 214,-392.5 107,-392.5"/>
<text text-anchor="middle" x="160.5" y="-399.5" font-family="Helvetica,sans-Serif" font-size="10.00">SComponent/c_tag.h</text>
</a>
</g>
</g>
<!-- Node2&#45;&gt;Node3 -->
<g id="edge2" class="edge">
<title>Node2&#45;&gt;Node3</title>
<path fill="none" stroke="midnightblue" d="M135.06,-504.34C140.28,-483.53 150.04,-444.66 155.83,-421.58"/>
<polygon fill="midnightblue" stroke="midnightblue" points="159.28,-422.22 158.32,-411.67 152.49,-420.52 159.28,-422.22"/>
</g>
<!-- Node6 -->
<g id="node6" class="node">
<title>Node6</title>
<g id="a_node6"><a xlink:href="global_8h.html" target="_top" xlink:title=" ">
<polygon fill="white" stroke="black" points="154.5,-168.5 154.5,-187.5 204.5,-187.5 204.5,-168.5 154.5,-168.5"/>
<text text-anchor="middle" x="179.5" y="-175.5" font-family="Helvetica,sans-Serif" font-size="10.00">global.h</text>
</a>
</g>
</g>
<!-- Node2&#45;&gt;Node6 -->
<g id="edge26" class="edge">
<title>Node2&#45;&gt;Node6</title>
<path fill="none" stroke="midnightblue" d="M114.25,-504.43C91.83,-484.44 55.5,-445.49 55.5,-403 55.5,-403 55.5,-403 55.5,-289 55.5,-240.26 109.77,-207.87 146.51,-191.52"/>
<polygon fill="midnightblue" stroke="midnightblue" points="148.06,-194.67 155.88,-187.52 145.31,-188.23 148.06,-194.67"/>
</g>
<!-- Node14 -->
<g id="node14" class="node">
<title>Node14</title>
<g id="a_node14"><a xlink:href="f__pc__layer_8h.html" target="_top" xlink:title=" ">
<polygon fill="white" stroke="black" points="204.5,-448.5 204.5,-467.5 300.5,-467.5 300.5,-448.5 204.5,-448.5"/>
<text text-anchor="middle" x="252.5" y="-455.5" font-family="Helvetica,sans-Serif" font-size="10.00">f/f_pc/f_pc_layer.h</text>
</a>
</g>
</g>
<!-- Node2&#45;&gt;Node14 -->
<g id="edge21" class="edge">
<title>Node2&#45;&gt;Node14</title>
<path fill="none" stroke="midnightblue" d="M160.18,-504.4C180.02,-494.64 206.26,-481.74 225.69,-472.18"/>
<polygon fill="midnightblue" stroke="midnightblue" points="227.46,-475.21 234.89,-467.66 224.38,-468.93 227.46,-475.21"/>
</g>
<!-- Node4 -->
<g id="node4" class="node">
<title>Node4</title>
<g id="a_node4"><a xlink:href="c__list_8h.html" target="_top" xlink:title=" ">
<polygon fill="white" stroke="black" points="160,-280.5 160,-299.5 267,-299.5 267,-280.5 160,-280.5"/>
<text text-anchor="middle" x="213.5" y="-287.5" font-family="Helvetica,sans-Serif" font-size="10.00">SComponent/c_list.h</text>
</a>
</g>
</g>
<!-- Node3&#45;&gt;Node4 -->
<g id="edge3" class="edge">
<title>Node3&#45;&gt;Node4</title>
<path fill="none" stroke="midnightblue" d="M163.86,-392.46C168.86,-379.92 178.74,-355.85 188.5,-336 193.03,-326.78 198.54,-316.76 203.23,-308.52"/>
<polygon fill="midnightblue" stroke="midnightblue" points="206.28,-310.23 208.25,-299.82 200.22,-306.73 206.28,-310.23"/>
</g>
<!-- Node5 -->
<g id="node5" class="node">
<title>Node5</title>
<g id="a_node5"><a xlink:href="c__node_8h.html" target="_top" xlink:title=" ">
<polygon fill="white" stroke="black" points="156,-224.5 156,-243.5 271,-243.5 271,-224.5 156,-224.5"/>
<text text-anchor="middle" x="213.5" y="-231.5" font-family="Helvetica,sans-Serif" font-size="10.00">SComponent/c_node.h</text>
</a>
</g>
</g>
<!-- Node3&#45;&gt;Node5 -->
<g id="edge16" class="edge">
<title>Node3&#45;&gt;Node5</title>
<path fill="none" stroke="midnightblue" d="M157,-392.49C149.12,-371.86 132.08,-318.1 151.5,-280 158.5,-266.27 171.87,-255.75 184.4,-248.35"/>
<polygon fill="midnightblue" stroke="midnightblue" points="186.17,-251.37 193.28,-243.51 182.82,-245.22 186.17,-251.37"/>
</g>
<!-- Node3&#45;&gt;Node6 -->
<g id="edge20" class="edge">
<title>Node3&#45;&gt;Node6</title>
<path fill="none" stroke="midnightblue" d="M154.86,-392.48C149.45,-383.74 141.64,-369.56 138.5,-356 125.25,-298.71 126.17,-278.8 147.5,-224 151.54,-213.63 158.49,-203.42 164.88,-195.35"/>
<polygon fill="midnightblue" stroke="midnightblue" points="167.7,-197.44 171.44,-187.53 162.33,-192.94 167.7,-197.44"/>
</g>
<!-- Node13 -->
<g id="node13" class="node">
<title>Node13</title>
<g id="a_node13"><a xlink:href="c__tree_8h.html" target="_top" xlink:title=" ">
<polygon fill="white" stroke="black" points="197.5,-336.5 197.5,-355.5 307.5,-355.5 307.5,-336.5 197.5,-336.5"/>
<text text-anchor="middle" x="252.5" y="-343.5" font-family="Helvetica,sans-Serif" font-size="10.00">SComponent/c_tree.h</text>
</a>
</g>
</g>
<!-- Node3&#45;&gt;Node13 -->
<g id="edge17" class="edge">
<title>Node3&#45;&gt;Node13</title>
<path fill="none" stroke="midnightblue" d="M175.28,-392.32C189.77,-383.82 212.07,-370.73 228.99,-360.8"/>
<polygon fill="midnightblue" stroke="midnightblue" points="230.9,-363.74 237.76,-355.65 227.36,-357.7 230.9,-363.74"/>
</g>
<!-- Node4&#45;&gt;Node5 -->
<g id="edge4" class="edge">
<title>Node4&#45;&gt;Node5</title>
<path fill="none" stroke="midnightblue" d="M213.5,-280.08C213.5,-273.01 213.5,-262.86 213.5,-253.99"/>
<polygon fill="midnightblue" stroke="midnightblue" points="217,-253.75 213.5,-243.75 210,-253.75 217,-253.75"/>
</g>
<!-- Node5&#45;&gt;Node6 -->
<g id="edge5" class="edge">
<title>Node5&#45;&gt;Node6</title>
<path fill="none" stroke="midnightblue" d="M207.89,-224.08C203.13,-216.53 196.18,-205.49 190.35,-196.23"/>
<polygon fill="midnightblue" stroke="midnightblue" points="193.3,-194.35 185.01,-187.75 187.38,-198.08 193.3,-194.35"/>
</g>
<!-- Node6&#45;&gt;Node7 -->
<g id="edge6" class="edge">
<title>Node6&#45;&gt;Node7</title>
<path fill="none" stroke="midnightblue" d="M164.77,-168.43C140.51,-153.35 93.02,-119.52 74.5,-76 71.02,-67.82 70.27,-63.82 74.5,-56 82.25,-41.7 96.73,-31.22 110.44,-23.99"/>
<polygon fill="midnightblue" stroke="midnightblue" points="112.24,-27.01 119.71,-19.5 109.19,-20.71 112.24,-27.01"/>
</g>
<!-- Node8 -->
<g id="node8" class="node">
<title>Node8</title>
<g id="a_node8"><a xlink:href="AR_8h.html" target="_top" xlink:title=" ">
<polygon fill="white" stroke="black" points="84,-56.5 84,-75.5 133,-75.5 133,-56.5 84,-56.5"/>
<text text-anchor="middle" x="108.5" y="-63.5" font-family="Helvetica,sans-Serif" font-size="10.00">ar/AR.h</text>
</a>
</g>
</g>
<!-- Node6&#45;&gt;Node8 -->
<g id="edge7" class="edge">
<title>Node6&#45;&gt;Node8</title>
<path fill="none" stroke="midnightblue" d="M173.93,-168.37C162.26,-150.3 135.08,-108.18 119.67,-84.31"/>
<polygon fill="midnightblue" stroke="midnightblue" points="122.41,-82.1 114.05,-75.59 116.53,-85.89 122.41,-82.1"/>
</g>
<!-- Node9 -->
<g id="node9" class="node">
<title>Node9</title>
<g id="a_node9"><a xlink:href="ARQ_8h.html" target="_top" xlink:title=" ">
<polygon fill="white" stroke="black" points="151.5,-56.5 151.5,-75.5 207.5,-75.5 207.5,-56.5 151.5,-56.5"/>
<text text-anchor="middle" x="179.5" y="-63.5" font-family="Helvetica,sans-Serif" font-size="10.00">ar/ARQ.h</text>
</a>
</g>
</g>
<!-- Node6&#45;&gt;Node9 -->
<g id="edge9" class="edge">
<title>Node6&#45;&gt;Node9</title>
<path fill="none" stroke="midnightblue" d="M179.5,-168.37C179.5,-150.62 179.5,-109.67 179.5,-85.6"/>
<polygon fill="midnightblue" stroke="midnightblue" points="183,-85.59 179.5,-75.59 176,-85.59 183,-85.59"/>
</g>
<!-- Node10 -->
<g id="node10" class="node">
<title>Node10</title>
<g id="a_node10"><a xlink:href="mwcc_8h.html" target="_top" xlink:title=" ">
<polygon fill="white" stroke="black" points="278.5,-112.5 278.5,-131.5 328.5,-131.5 328.5,-112.5 278.5,-112.5"/>
<text text-anchor="middle" x="303.5" y="-119.5" font-family="Helvetica,sans-Serif" font-size="10.00">mwcc.h</text>
</a>
</g>
</g>
<!-- Node6&#45;&gt;Node10 -->
<g id="edge11" class="edge">
<title>Node6&#45;&gt;Node10</title>
<path fill="none" stroke="midnightblue" d="M199.15,-168.44C219.46,-159.6 251.4,-145.69 274.6,-135.59"/>
<polygon fill="midnightblue" stroke="midnightblue" points="276.17,-138.72 283.94,-131.52 273.38,-132.3 276.17,-138.72"/>
</g>
<!-- Node11 -->
<g id="node11" class="node">
<title>Node11</title>
<g id="a_node11"><a xlink:href="OS_8h.html" target="_top" xlink:title=" ">
<polygon fill="white" stroke="black" points="208.5,-112.5 208.5,-131.5 260.5,-131.5 260.5,-112.5 208.5,-112.5"/>
<text text-anchor="middle" x="234.5" y="-119.5" font-family="Helvetica,sans-Serif" font-size="10.00">os/OS.h</text>
</a>
</g>
</g>
<!-- Node6&#45;&gt;Node11 -->
<g id="edge12" class="edge">
<title>Node6&#45;&gt;Node11</title>
<path fill="none" stroke="midnightblue" d="M188.58,-168.08C196.67,-160.14 208.7,-148.34 218.41,-138.8"/>
<polygon fill="midnightblue" stroke="midnightblue" points="220.9,-141.25 225.59,-131.75 216,-136.26 220.9,-141.25"/>
</g>
<!-- Node8&#45;&gt;Node7 -->
<g id="edge8" class="edge">
<title>Node8&#45;&gt;Node7</title>
<path fill="none" stroke="midnightblue" d="M114.28,-56.08C119.17,-48.53 126.33,-37.49 132.33,-28.23"/>
<polygon fill="midnightblue" stroke="midnightblue" points="135.33,-30.05 137.83,-19.75 129.45,-26.24 135.33,-30.05"/>
</g>
<!-- Node9&#45;&gt;Node7 -->
<g id="edge10" class="edge">
<title>Node9&#45;&gt;Node7</title>
<path fill="none" stroke="midnightblue" d="M173.56,-56.08C168.52,-48.53 161.16,-37.49 154.99,-28.23"/>
<polygon fill="midnightblue" stroke="midnightblue" points="157.79,-26.13 149.33,-19.75 151.97,-30.01 157.79,-26.13"/>
</g>
<!-- Node11&#45;&gt;Node7 -->
<g id="edge13" class="edge">
<title>Node11&#45;&gt;Node7</title>
<path fill="none" stroke="midnightblue" d="M234.07,-112.12C233,-98.7 229.3,-73.04 216.5,-56 206.01,-42.04 189.81,-31.42 175.33,-24.02"/>
<polygon fill="midnightblue" stroke="midnightblue" points="176.67,-20.78 166.14,-19.61 173.64,-27.09 176.67,-20.78"/>
</g>
<!-- Node12 -->
<g id="node12" class="node">
<title>Node12</title>
<g id="a_node12"><a xlink:href="dvd_8h.html" target="_top" xlink:title=" ">
<polygon fill="white" stroke="black" points="264,-56.5 264,-75.5 323,-75.5 323,-56.5 264,-56.5"/>
<text text-anchor="middle" x="293.5" y="-63.5" font-family="Helvetica,sans-Serif" font-size="10.00">dvd/dvd.h</text>
</a>
</g>
</g>
<!-- Node11&#45;&gt;Node12 -->
<g id="edge14" class="edge">
<title>Node11&#45;&gt;Node12</title>
<path fill="none" stroke="midnightblue" d="M243.98,-112.32C252.7,-104.34 265.84,-92.31 276.4,-82.65"/>
<polygon fill="midnightblue" stroke="midnightblue" points="278.83,-85.17 283.85,-75.83 274.11,-80 278.83,-85.17"/>
</g>
<!-- Node12&#45;&gt;Node7 -->
<g id="edge15" class="edge">
<title>Node12&#45;&gt;Node7</title>
<path fill="none" stroke="midnightblue" d="M269.73,-56.44C244.61,-47.4 204.79,-33.06 176.6,-22.92"/>
<polygon fill="midnightblue" stroke="midnightblue" points="177.75,-19.61 167.16,-19.52 175.38,-26.2 177.75,-19.61"/>
</g>
<!-- Node13&#45;&gt;Node4 -->
<g id="edge18" class="edge">
<title>Node13&#45;&gt;Node4</title>
<path fill="none" stroke="midnightblue" d="M246.06,-336.08C240.55,-328.46 232.47,-317.26 225.74,-307.94"/>
<polygon fill="midnightblue" stroke="midnightblue" points="228.51,-305.81 219.82,-299.75 222.84,-309.91 228.51,-305.81"/>
</g>
<!-- Node13&#45;&gt;Node5 -->
<g id="edge19" class="edge">
<title>Node13&#45;&gt;Node5</title>
<path fill="none" stroke="midnightblue" d="M260.21,-336.31C270.52,-323.57 286.41,-299.25 276.5,-280 269.42,-266.25 255.98,-255.77 243.32,-248.39"/>
<polygon fill="midnightblue" stroke="midnightblue" points="244.81,-245.22 234.35,-243.57 241.5,-251.39 244.81,-245.22"/>
</g>
<!-- Node14&#45;&gt;Node3 -->
<g id="edge23" class="edge">
<title>Node14&#45;&gt;Node3</title>
<path fill="none" stroke="midnightblue" d="M237.72,-448.32C223.23,-439.82 200.93,-426.73 184.01,-416.8"/>
<polygon fill="midnightblue" stroke="midnightblue" points="185.64,-413.7 175.24,-411.65 182.1,-419.74 185.64,-413.7"/>
</g>
<!-- Node14&#45;&gt;Node5 -->
<g id="edge22" class="edge">
<title>Node14&#45;&gt;Node5</title>
<path fill="none" stroke="midnightblue" d="M262.38,-448.27C282.66,-429.24 326.31,-382.02 316.5,-336 310.82,-309.34 309.75,-300.24 291.5,-280 278.93,-266.06 260.99,-255.29 245.48,-247.79"/>
<polygon fill="midnightblue" stroke="midnightblue" points="246.76,-244.53 236.21,-243.55 243.85,-250.9 246.76,-244.53"/>
</g>
<!-- Node14&#45;&gt;Node6 -->
<g id="edge25" class="edge">
<title>Node14&#45;&gt;Node6</title>
<path fill="none" stroke="midnightblue" d="M275.26,-448.43C310.31,-433.58 373.5,-399.52 373.5,-347 373.5,-347 373.5,-347 373.5,-289 373.5,-216.98 271.08,-191.55 215.07,-183.02"/>
<polygon fill="midnightblue" stroke="midnightblue" points="215.25,-179.51 204.86,-181.58 214.27,-186.44 215.25,-179.51"/>
</g>
<!-- Node14&#45;&gt;Node13 -->
<g id="edge24" class="edge">
<title>Node14&#45;&gt;Node13</title>
<path fill="none" stroke="midnightblue" d="M252.5,-448.37C252.5,-430.62 252.5,-389.67 252.5,-365.6"/>
<polygon fill="midnightblue" stroke="midnightblue" points="256,-365.59 252.5,-355.59 249,-365.59 256,-365.59"/>
</g>
</g>
</svg>
