<?xml version="1.0" encoding="UTF-8" standalone="no"?>
<!DOCTYPE svg PUBLIC "-//W3C//DTD SVG 1.1//EN"
 "http://www.w3.org/Graphics/SVG/1.1/DTD/svg11.dtd">
<!-- Generated by graphviz version 2.44.0 ()
 -->
<!-- Title: src/f/f_pc/f_pc_line.cpp Pages: 1 -->
<svg width="285pt" height="364pt"
 viewBox="0.00 0.00 285.00 364.00" xmlns="http://www.w3.org/2000/svg" xmlns:xlink="http://www.w3.org/1999/xlink">
<g id="graph0" class="graph" transform="scale(1 1) rotate(0) translate(4 360)">
<title>src/f/f_pc/f_pc_line.cpp</title>
<polygon fill="white" stroke="transparent" points="-4,4 -4,-360 281,-360 281,4 -4,4"/>
<!-- Node1 -->
<g id="node1" class="node">
<title>Node1</title>
<g id="a_node1"><a xlink:title=" ">
<polygon fill="#bfbfbf" stroke="black" points="41.5,-336.5 41.5,-355.5 159.5,-355.5 159.5,-336.5 41.5,-336.5"/>
<text text-anchor="middle" x="100.5" y="-343.5" font-family="Helvetica,sans-Serif" font-size="10.00">src/f/f_pc/f_pc_line.cpp</text>
</a>
</g>
</g>
<!-- Node2 -->
<g id="node2" class="node">
<title>Node2</title>
<g id="a_node2"><a xlink:href="c__list_8h.html" target="_top" xlink:title=" ">
<polygon fill="white" stroke="black" points="6,-280.5 6,-299.5 113,-299.5 113,-280.5 6,-280.5"/>
<text text-anchor="middle" x="59.5" y="-287.5" font-family="Helvetica,sans-Serif" font-size="10.00">SComponent/c_list.h</text>
</a>
</g>
</g>
<!-- Node1&#45;&gt;Node2 -->
<g id="edge1" class="edge">
<title>Node1&#45;&gt;Node2</title>
<path fill="none" stroke="midnightblue" d="M93.73,-336.08C87.94,-328.46 79.44,-317.26 72.36,-307.94"/>
<polygon fill="midnightblue" stroke="midnightblue" points="74.98,-305.6 66.14,-299.75 69.4,-309.83 74.98,-305.6"/>
</g>
<!-- Node4 -->
<g id="node4" class="node">
<title>Node4</title>
<g id="a_node4"><a xlink:href="global_8h.html" target="_top" xlink:title=" ">
<polygon fill="white" stroke="black" points="75.5,-168.5 75.5,-187.5 125.5,-187.5 125.5,-168.5 75.5,-168.5"/>
<text text-anchor="middle" x="100.5" y="-175.5" font-family="Helvetica,sans-Serif" font-size="10.00">global.h</text>
</a>
</g>
</g>
<!-- Node1&#45;&gt;Node4 -->
<g id="edge14" class="edge">
<title>Node1&#45;&gt;Node4</title>
<path fill="none" stroke="midnightblue" d="M105.78,-336.42C110.88,-327.64 118.27,-313.41 121.5,-300 129.41,-267.15 131.41,-256.85 123.5,-224 121.19,-214.42 116.48,-204.58 111.92,-196.56"/>
<polygon fill="midnightblue" stroke="midnightblue" points="114.79,-194.54 106.6,-187.81 108.81,-198.17 114.79,-194.54"/>
</g>
<!-- Node3 -->
<g id="node3" class="node">
<title>Node3</title>
<g id="a_node3"><a xlink:href="c__node_8h.html" target="_top" xlink:title=" ">
<polygon fill="white" stroke="black" points="0,-224.5 0,-243.5 115,-243.5 115,-224.5 0,-224.5"/>
<text text-anchor="middle" x="57.5" y="-231.5" font-family="Helvetica,sans-Serif" font-size="10.00">SComponent/c_node.h</text>
</a>
</g>
</g>
<!-- Node2&#45;&gt;Node3 -->
<g id="edge2" class="edge">
<title>Node2&#45;&gt;Node3</title>
<path fill="none" stroke="midnightblue" d="M59.17,-280.08C58.91,-273.01 58.53,-262.86 58.2,-253.99"/>
<polygon fill="midnightblue" stroke="midnightblue" points="61.69,-253.61 57.82,-243.75 54.7,-253.87 61.69,-253.61"/>
</g>
<!-- Node3&#45;&gt;Node4 -->
<g id="edge3" class="edge">
<title>Node3&#45;&gt;Node4</title>
<path fill="none" stroke="midnightblue" d="M64.6,-224.08C70.74,-216.38 79.77,-205.03 87.24,-195.65"/>
<polygon fill="midnightblue" stroke="midnightblue" points="90.04,-197.75 93.53,-187.75 84.56,-193.39 90.04,-197.75"/>
</g>
<!-- Node5 -->
<g id="node5" class="node">
<title>Node5</title>
<g id="a_node5"><a xlink:href="types_8h.html" target="_top" xlink:title=" ">
<polygon fill="white" stroke="black" points="93,-0.5 93,-19.5 174,-19.5 174,-0.5 93,-0.5"/>
<text text-anchor="middle" x="133.5" y="-7.5" font-family="Helvetica,sans-Serif" font-size="10.00">dolphin/types.h</text>
</a>
</g>
</g>
<!-- Node4&#45;&gt;Node5 -->
<g id="edge4" class="edge">
<title>Node4&#45;&gt;Node5</title>
<path fill="none" stroke="midnightblue" d="M88.35,-168.31C61.72,-148.17 2.62,-96.92 29.5,-56 41.57,-37.63 62.91,-26.72 83.13,-20.26"/>
<polygon fill="midnightblue" stroke="midnightblue" points="84.29,-23.57 92.92,-17.44 82.35,-16.85 84.29,-23.57"/>
</g>
<!-- Node6 -->
<g id="node6" class="node">
<title>Node6</title>
<g id="a_node6"><a xlink:href="AR_8h.html" target="_top" xlink:title=" ">
<polygon fill="white" stroke="black" points="38,-56.5 38,-75.5 87,-75.5 87,-56.5 38,-56.5"/>
<text text-anchor="middle" x="62.5" y="-63.5" font-family="Helvetica,sans-Serif" font-size="10.00">ar/AR.h</text>
</a>
</g>
</g>
<!-- Node4&#45;&gt;Node6 -->
<g id="edge5" class="edge">
<title>Node4&#45;&gt;Node6</title>
<path fill="none" stroke="midnightblue" d="M97.52,-168.37C91.36,-150.54 77.11,-109.3 68.81,-85.27"/>
<polygon fill="midnightblue" stroke="midnightblue" points="72.04,-83.9 65.47,-75.59 65.43,-86.19 72.04,-83.9"/>
</g>
<!-- Node7 -->
<g id="node7" class="node">
<title>Node7</title>
<g id="a_node7"><a xlink:href="ARQ_8h.html" target="_top" xlink:title=" ">
<polygon fill="white" stroke="black" points="105.5,-56.5 105.5,-75.5 161.5,-75.5 161.5,-56.5 105.5,-56.5"/>
<text text-anchor="middle" x="133.5" y="-63.5" font-family="Helvetica,sans-Serif" font-size="10.00">ar/ARQ.h</text>
</a>
</g>
</g>
<!-- Node4&#45;&gt;Node7 -->
<g id="edge7" class="edge">
<title>Node4&#45;&gt;Node7</title>
<path fill="none" stroke="midnightblue" d="M103.03,-168.15C106.63,-155.63 113.46,-132.04 119.5,-112 122.16,-103.18 125.19,-93.41 127.75,-85.23"/>
<polygon fill="midnightblue" stroke="midnightblue" points="131.11,-86.2 130.77,-75.61 124.44,-84.1 131.11,-86.2"/>
</g>
<!-- Node8 -->
<g id="node8" class="node">
<title>Node8</title>
<g id="a_node8"><a xlink:href="mwcc_8h.html" target="_top" xlink:title=" ">
<polygon fill="white" stroke="black" points="128.5,-112.5 128.5,-131.5 178.5,-131.5 178.5,-112.5 128.5,-112.5"/>
<text text-anchor="middle" x="153.5" y="-119.5" font-family="Helvetica,sans-Serif" font-size="10.00">mwcc.h</text>
</a>
</g>
</g>
<!-- Node4&#45;&gt;Node8 -->
<g id="edge9" class="edge">
<title>Node4&#45;&gt;Node8</title>
<path fill="none" stroke="midnightblue" d="M109.25,-168.08C116.97,-160.22 128.4,-148.57 137.72,-139.08"/>
<polygon fill="midnightblue" stroke="midnightblue" points="140.4,-141.34 144.91,-131.75 135.41,-136.44 140.4,-141.34"/>
</g>
<!-- Node9 -->
<g id="node9" class="node">
<title>Node9</title>
<g id="a_node9"><a xlink:href="OS_8h.html" target="_top" xlink:title=" ">
<polygon fill="white" stroke="black" points="196.5,-112.5 196.5,-131.5 248.5,-131.5 248.5,-112.5 196.5,-112.5"/>
<text text-anchor="middle" x="222.5" y="-119.5" font-family="Helvetica,sans-Serif" font-size="10.00">os/OS.h</text>
</a>
</g>
</g>
<!-- Node4&#45;&gt;Node9 -->
<g id="edge10" class="edge">
<title>Node4&#45;&gt;Node9</title>
<path fill="none" stroke="midnightblue" d="M119.83,-168.44C139.82,-159.6 171.24,-145.69 194.06,-135.59"/>
<polygon fill="midnightblue" stroke="midnightblue" points="195.53,-138.76 203.26,-131.52 192.7,-132.36 195.53,-138.76"/>
</g>
<!-- Node6&#45;&gt;Node5 -->
<g id="edge6" class="edge">
<title>Node6&#45;&gt;Node5</title>
<path fill="none" stroke="midnightblue" d="M73.91,-56.32C84.61,-48.18 100.84,-35.84 113.66,-26.09"/>
<polygon fill="midnightblue" stroke="midnightblue" points="116.04,-28.67 121.89,-19.83 111.81,-23.1 116.04,-28.67"/>
</g>
<!-- Node7&#45;&gt;Node5 -->
<g id="edge8" class="edge">
<title>Node7&#45;&gt;Node5</title>
<path fill="none" stroke="midnightblue" d="M133.5,-56.08C133.5,-49.01 133.5,-38.86 133.5,-29.99"/>
<polygon fill="midnightblue" stroke="midnightblue" points="137,-29.75 133.5,-19.75 130,-29.75 137,-29.75"/>
</g>
<!-- Node9&#45;&gt;Node5 -->
<g id="edge11" class="edge">
<title>Node9&#45;&gt;Node5</title>
<path fill="none" stroke="midnightblue" d="M215.47,-112.14C205.51,-99.6 186.7,-75.98 170.5,-56 162.76,-46.46 154.03,-35.83 147,-27.31"/>
<polygon fill="midnightblue" stroke="midnightblue" points="149.7,-25.08 140.63,-19.6 144.3,-29.54 149.7,-25.08"/>
</g>
<!-- Node10 -->
<g id="node10" class="node">
<title>Node10</title>
<g id="a_node10"><a xlink:href="dvd_8h.html" target="_top" xlink:title=" ">
<polygon fill="white" stroke="black" points="218,-56.5 218,-75.5 277,-75.5 277,-56.5 218,-56.5"/>
<text text-anchor="middle" x="247.5" y="-63.5" font-family="Helvetica,sans-Serif" font-size="10.00">dvd/dvd.h</text>
</a>
</g>
</g>
<!-- Node9&#45;&gt;Node10 -->
<g id="edge12" class="edge">
<title>Node9&#45;&gt;Node10</title>
<path fill="none" stroke="midnightblue" d="M226.63,-112.08C230.01,-104.77 234.92,-94.18 239.12,-85.1"/>
<polygon fill="midnightblue" stroke="midnightblue" points="242.42,-86.3 243.45,-75.75 236.07,-83.36 242.42,-86.3"/>
</g>
<!-- Node10&#45;&gt;Node5 -->
<g id="edge13" class="edge">
<title>Node10&#45;&gt;Node5</title>
<path fill="none" stroke="midnightblue" d="M229.44,-56.44C210.93,-47.68 181.92,-33.94 160.64,-23.86"/>
<polygon fill="midnightblue" stroke="midnightblue" points="162.01,-20.63 151.48,-19.52 159.02,-26.96 162.01,-20.63"/>
</g>
</g>
</svg>
