<?xml version="1.0" encoding="UTF-8" standalone="no"?>
<!DOCTYPE svg PUBLIC "-//W3C//DTD SVG 1.1//EN"
 "http://www.w3.org/Graphics/SVG/1.1/DTD/svg11.dtd">
<!-- Generated by graphviz version 2.44.0 ()
 -->
<!-- Title: include/f/f_pc/f_pc_base.h Pages: 1 -->
<!--zoomable 621 -->
<svg id="main" version="1.1" xmlns="http://www.w3.org/2000/svg" xmlns:xlink="http://www.w3.org/1999/xlink" xml:space="preserve" onload="init(evt)">
<style type="text/css"><![CDATA[
.edge:hover path { stroke: red; }
.edge:hover polygon { stroke: red; fill: red; }
]]></style>
<script type="text/javascript"><![CDATA[
var edges = document.getElementsByTagName('g');
if (edges && edges.length) {
  for (var i=0;i<edges.length;i++) {
    if (edges[i].id.substr(0,4)=='edge') {
      edges[i].setAttribute('class','edge');
    }
  }
}
]]></script>
        <defs>
                <circle id="rim" cx="0" cy="0" r="7"/>
                <circle id="rim2" cx="0" cy="0" r="3.5"/>
                <g id="zoomPlus">
                        <use xlink:href="#rim" fill="#404040">
                                <set attributeName="fill" to="#808080" begin="zoomplus.mouseover" end="zoomplus.mouseout"/>
                        </use>
                        <path d="M-4,0h8M0,-4v8" fill="none" stroke="white" stroke-width="1.5" pointer-events="none"/>
                </g>
                <g id="zoomMin">
                        <use xlink:href="#rim" fill="#404040">
                                <set attributeName="fill" to="#808080" begin="zoomminus.mouseover" end="zoomminus.mouseout"/>
                        </use>
                        <path d="M-4,0h8" fill="none" stroke="white" stroke-width="1.5" pointer-events="none"/>
                </g>
                <g id="dirArrow">
                        <path fill="none" stroke="white" stroke-width="1.5" d="M0,-3.0v7 M-2.5,-0.5L0,-3.0L2.5,-0.5"/>
                </g>
               <g id="resetDef">
                       <use xlink:href="#rim2" fill="#404040">
                               <set attributeName="fill" to="#808080" begin="reset.mouseover" end="reset.mouseout"/>
                       </use>
               </g>
        </defs>

<script type="text/javascript">
var viewWidth = 652;
var viewHeight = 621;
var sectionId = 'dynsection-0';
</script>
<script xlink:href="svgpan.js"/>
<svg id="graph" class="graph">
<g id="viewport">
<title>include/f/f_pc/f_pc_base.h</title>
<polygon fill="white" stroke="transparent" points="-4,4 -4,-617 648,-617 648,4 -4,4"/>
<!-- Node1 -->
<g id="node1" class="node">
<title>Node1</title>
<g id="a_node1"><a xlink:title=" ">
<polygon fill="#bfbfbf" stroke="black" points="255.5,-582.5 255.5,-612.5 352.5,-612.5 352.5,-582.5 255.5,-582.5"/>
<text text-anchor="start" x="263.5" y="-600.5" font-family="Helvetica,sans-Serif" font-size="10.00">include/f/f_pc/f_pc</text>
<text text-anchor="middle" x="304" y="-589.5" font-family="Helvetica,sans-Serif" font-size="10.00">_base.h</text>
</a>
</g>
</g>
<!-- Node2 -->
<g id="node2" class="node">
<title>Node2</title>
<g id="a_node2"><a xlink:href="c__tag_8h.html" target="_top" xlink:title=" ">
<polygon fill="white" stroke="black" points="264.5,-392.5 264.5,-411.5 371.5,-411.5 371.5,-392.5 264.5,-392.5"/>
<text text-anchor="middle" x="318" y="-399.5" font-family="Helvetica,sans-Serif" font-size="10.00">SComponent/c_tag.h</text>
</a>
</g>
</g>
<!-- Node1&#45;&gt;Node2 -->
<g id="edge1" class="edge">
<title>Node1&#45;&gt;Node2</title>
<path fill="none" stroke="midnightblue" d="M305.03,-582.27C307.51,-547.94 313.84,-460.57 316.63,-421.9"/>
<polygon fill="midnightblue" stroke="midnightblue" points="320.15,-421.8 317.38,-411.58 313.17,-421.3 320.15,-421.8"/>
</g>
<!-- Node5 -->
<g id="node5" class="node">
<title>Node5</title>
<g id="a_node5"><a xlink:href="global_8h.html" target="_top" xlink:title=" ">
<polygon fill="white" stroke="black" points="309,-168.5 309,-187.5 359,-187.5 359,-168.5 309,-168.5"/>
<text text-anchor="middle" x="334" y="-175.5" font-family="Helvetica,sans-Serif" font-size="10.00">global.h</text>
</a>
</g>
</g>
<!-- Node1&#45;&gt;Node5 -->
<g id="edge20" class="edge">
<title>Node1&#45;&gt;Node5</title>
<path fill="none" stroke="midnightblue" d="M255.29,-592.55C188.03,-586.23 71.21,-571.83 38,-546 6.45,-521.46 0,-504.47 0,-464.5 0,-464.5 0,-464.5 0,-289 0,-250.87 22.72,-242.62 56,-224 97.03,-201.05 233.27,-187.19 298.54,-181.71"/>
<polygon fill="midnightblue" stroke="midnightblue" points="299.08,-185.18 308.76,-180.87 298.5,-178.2 299.08,-185.18"/>
</g>
<!-- Node13 -->
<g id="node13" class="node">
<title>Node13</title>
<g id="a_node13"><a xlink:href="f__pc__delete__tag_8h.html" target="_top" xlink:title=" ">
<polygon fill="white" stroke="black" points="47.5,-515.5 47.5,-545.5 142.5,-545.5 142.5,-515.5 47.5,-515.5"/>
<text text-anchor="start" x="55.5" y="-533.5" font-family="Helvetica,sans-Serif" font-size="10.00">f/f_pc/f_pc_delete</text>
<text text-anchor="middle" x="95" y="-522.5" font-family="Helvetica,sans-Serif" font-size="10.00">_tag.h</text>
</a>
</g>
</g>
<!-- Node1&#45;&gt;Node13 -->
<g id="edge21" class="edge">
<title>Node1&#45;&gt;Node13</title>
<path fill="none" stroke="midnightblue" d="M258.91,-582.48C227.02,-572.56 184.07,-559.2 150.14,-548.65"/>
<polygon fill="midnightblue" stroke="midnightblue" points="150.96,-545.24 140.37,-545.61 148.88,-551.92 150.96,-545.24"/>
</g>
<!-- Node15 -->
<g id="node15" class="node">
<title>Node15</title>
<g id="a_node15"><a xlink:href="f__pc__layer__tag_8h.html" target="_top" xlink:title=" ">
<polygon fill="white" stroke="black" points="160.5,-521 160.5,-540 275.5,-540 275.5,-521 160.5,-521"/>
<text text-anchor="middle" x="218" y="-528" font-family="Helvetica,sans-Serif" font-size="10.00">f/f_pc/f_pc_layer_tag.h</text>
</a>
</g>
</g>
<!-- Node1&#45;&gt;Node15 -->
<g id="edge29" class="edge">
<title>Node1&#45;&gt;Node15</title>
<path fill="none" stroke="midnightblue" d="M285.34,-582.4C271.27,-571.76 252.01,-557.2 237.69,-546.38"/>
<polygon fill="midnightblue" stroke="midnightblue" points="239.59,-543.43 229.5,-540.19 235.37,-549.02 239.59,-543.43"/>
</g>
<!-- Node16 -->
<g id="node16" class="node">
<title>Node16</title>
<g id="a_node16"><a xlink:href="f__pc__line__tag_8h.html" target="_top" xlink:title=" ">
<polygon fill="white" stroke="black" points="490,-454 490,-473 600,-473 600,-454 490,-454"/>
<text text-anchor="middle" x="545" y="-461" font-family="Helvetica,sans-Serif" font-size="10.00">f/f_pc/f_pc_line_tag.h</text>
</a>
</g>
</g>
<!-- Node1&#45;&gt;Node16 -->
<g id="edge33" class="edge">
<title>Node1&#45;&gt;Node16</title>
<path fill="none" stroke="midnightblue" d="M352.76,-583.52C380.77,-574.99 416.02,-562.36 445,-546 477.62,-527.59 510.3,-498.45 529.04,-480.46"/>
<polygon fill="midnightblue" stroke="midnightblue" points="531.69,-482.76 536.4,-473.27 526.8,-477.75 531.69,-482.76"/>
</g>
<!-- Node17 -->
<g id="node17" class="node">
<title>Node17</title>
<g id="a_node17"><a xlink:href="f__pc__priority_8h.html" target="_top" xlink:title=" ">
<polygon fill="white" stroke="black" points="332,-521 332,-540 436,-540 436,-521 332,-521"/>
<text text-anchor="middle" x="384" y="-528" font-family="Helvetica,sans-Serif" font-size="10.00">f/f_pc/f_pc_priority.h</text>
</a>
</g>
</g>
<!-- Node1&#45;&gt;Node17 -->
<g id="edge36" class="edge">
<title>Node1&#45;&gt;Node17</title>
<path fill="none" stroke="midnightblue" d="M321.36,-582.4C334.33,-571.86 352.03,-557.48 365.31,-546.69"/>
<polygon fill="midnightblue" stroke="midnightblue" points="367.74,-549.22 373.3,-540.19 363.33,-543.78 367.74,-549.22"/>
</g>
<!-- Node19 -->
<g id="node19" class="node">
<title>Node19</title>
<g id="a_node19"><a xlink:href="f__pc__profile_8h.html" target="_top" xlink:title=" ">
<polygon fill="white" stroke="black" points="539.5,-280.5 539.5,-299.5 640.5,-299.5 640.5,-280.5 539.5,-280.5"/>
<text text-anchor="middle" x="590" y="-287.5" font-family="Helvetica,sans-Serif" font-size="10.00">f/f_pc/f_pc_profile.h</text>
</a>
</g>
</g>
<!-- Node1&#45;&gt;Node19 -->
<g id="edge41" class="edge">
<title>Node1&#45;&gt;Node19</title>
<path fill="none" stroke="midnightblue" d="M352.51,-587.25C442.89,-568.61 628,-523.27 628,-464.5 628,-464.5 628,-464.5 628,-401 628,-366.81 611.4,-329.76 600.14,-308.57"/>
<polygon fill="midnightblue" stroke="midnightblue" points="603.18,-306.83 595.28,-299.77 597.05,-310.22 603.18,-306.83"/>
</g>
<!-- Node3 -->
<g id="node3" class="node">
<title>Node3</title>
<g id="a_node3"><a xlink:href="c__list_8h.html" target="_top" xlink:title=" ">
<polygon fill="white" stroke="black" points="220.5,-280.5 220.5,-299.5 327.5,-299.5 327.5,-280.5 220.5,-280.5"/>
<text text-anchor="middle" x="274" y="-287.5" font-family="Helvetica,sans-Serif" font-size="10.00">SComponent/c_list.h</text>
</a>
</g>
</g>
<!-- Node2&#45;&gt;Node3 -->
<g id="edge2" class="edge">
<title>Node2&#45;&gt;Node3</title>
<path fill="none" stroke="midnightblue" d="M316.13,-392.38C313.24,-379.73 307.16,-355.53 299,-336 295.04,-326.52 289.59,-316.47 284.79,-308.29"/>
<polygon fill="midnightblue" stroke="midnightblue" points="287.75,-306.42 279.58,-299.67 281.76,-310.04 287.75,-306.42"/>
</g>
<!-- Node4 -->
<g id="node4" class="node">
<title>Node4</title>
<g id="a_node4"><a xlink:href="c__node_8h.html" target="_top" xlink:title=" ">
<polygon fill="white" stroke="black" points="216.5,-224.5 216.5,-243.5 331.5,-243.5 331.5,-224.5 216.5,-224.5"/>
<text text-anchor="middle" x="274" y="-231.5" font-family="Helvetica,sans-Serif" font-size="10.00">SComponent/c_node.h</text>
</a>
</g>
</g>
<!-- Node2&#45;&gt;Node4 -->
<g id="edge15" class="edge">
<title>Node2&#45;&gt;Node4</title>
<path fill="none" stroke="midnightblue" d="M322.8,-392.22C333.46,-371.45 356.65,-318.19 337,-280 329.92,-266.25 316.48,-255.77 303.82,-248.39"/>
<polygon fill="midnightblue" stroke="midnightblue" points="305.31,-245.22 294.85,-243.57 302,-251.39 305.31,-245.22"/>
</g>
<!-- Node2&#45;&gt;Node5 -->
<g id="edge19" class="edge">
<title>Node2&#45;&gt;Node5</title>
<path fill="none" stroke="midnightblue" d="M328.16,-392.19C336.91,-383.87 348.9,-370.54 354,-356 373.4,-300.68 353.1,-230.23 341.26,-197.39"/>
<polygon fill="midnightblue" stroke="midnightblue" points="344.44,-195.9 337.64,-187.78 337.89,-198.37 344.44,-195.9"/>
</g>
<!-- Node12 -->
<g id="node12" class="node">
<title>Node12</title>
<g id="a_node12"><a xlink:href="c__tree_8h.html" target="_top" xlink:title=" ">
<polygon fill="white" stroke="black" points="180,-336.5 180,-355.5 290,-355.5 290,-336.5 180,-336.5"/>
<text text-anchor="middle" x="235" y="-343.5" font-family="Helvetica,sans-Serif" font-size="10.00">SComponent/c_tree.h</text>
</a>
</g>
</g>
<!-- Node2&#45;&gt;Node12 -->
<g id="edge16" class="edge">
<title>Node2&#45;&gt;Node12</title>
<path fill="none" stroke="midnightblue" d="M304.66,-392.32C291.84,-383.98 272.22,-371.21 257.06,-361.35"/>
<polygon fill="midnightblue" stroke="midnightblue" points="258.59,-358.17 248.3,-355.65 254.78,-364.04 258.59,-358.17"/>
</g>
<!-- Node3&#45;&gt;Node4 -->
<g id="edge3" class="edge">
<title>Node3&#45;&gt;Node4</title>
<path fill="none" stroke="midnightblue" d="M274,-280.08C274,-273.01 274,-262.86 274,-253.99"/>
<polygon fill="midnightblue" stroke="midnightblue" points="277.5,-253.75 274,-243.75 270.5,-253.75 277.5,-253.75"/>
</g>
<!-- Node4&#45;&gt;Node5 -->
<g id="edge4" class="edge">
<title>Node4&#45;&gt;Node5</title>
<path fill="none" stroke="midnightblue" d="M283.64,-224.32C292.51,-216.34 305.87,-204.31 316.61,-194.65"/>
<polygon fill="midnightblue" stroke="midnightblue" points="319.09,-197.13 324.18,-187.83 314.41,-191.92 319.09,-197.13"/>
</g>
<!-- Node6 -->
<g id="node6" class="node">
<title>Node6</title>
<g id="a_node6"><a xlink:href="types_8h.html" target="_top" xlink:title=" ">
<polygon fill="white" stroke="black" points="293.5,-0.5 293.5,-19.5 374.5,-19.5 374.5,-0.5 293.5,-0.5"/>
<text text-anchor="middle" x="334" y="-7.5" font-family="Helvetica,sans-Serif" font-size="10.00">dolphin/types.h</text>
</a>
</g>
</g>
<!-- Node5&#45;&gt;Node6 -->
<g id="edge5" class="edge">
<title>Node5&#45;&gt;Node6</title>
<path fill="none" stroke="midnightblue" d="M316.05,-168.38C278.97,-149.39 199.81,-101.96 230,-56 242.07,-37.63 263.41,-26.72 283.63,-20.26"/>
<polygon fill="midnightblue" stroke="midnightblue" points="284.79,-23.57 293.42,-17.44 282.85,-16.85 284.79,-23.57"/>
</g>
<!-- Node7 -->
<g id="node7" class="node">
<title>Node7</title>
<g id="a_node7"><a xlink:href="AR_8h.html" target="_top" xlink:title=" ">
<polygon fill="white" stroke="black" points="238.5,-56.5 238.5,-75.5 287.5,-75.5 287.5,-56.5 238.5,-56.5"/>
<text text-anchor="middle" x="263" y="-63.5" font-family="Helvetica,sans-Serif" font-size="10.00">ar/AR.h</text>
</a>
</g>
</g>
<!-- Node5&#45;&gt;Node7 -->
<g id="edge6" class="edge">
<title>Node5&#45;&gt;Node7</title>
<path fill="none" stroke="midnightblue" d="M328.43,-168.37C316.76,-150.3 289.58,-108.18 274.17,-84.31"/>
<polygon fill="midnightblue" stroke="midnightblue" points="276.91,-82.1 268.55,-75.59 271.03,-85.89 276.91,-82.1"/>
</g>
<!-- Node8 -->
<g id="node8" class="node">
<title>Node8</title>
<g id="a_node8"><a xlink:href="ARQ_8h.html" target="_top" xlink:title=" ">
<polygon fill="white" stroke="black" points="306,-56.5 306,-75.5 362,-75.5 362,-56.5 306,-56.5"/>
<text text-anchor="middle" x="334" y="-63.5" font-family="Helvetica,sans-Serif" font-size="10.00">ar/ARQ.h</text>
</a>
</g>
</g>
<!-- Node5&#45;&gt;Node8 -->
<g id="edge8" class="edge">
<title>Node5&#45;&gt;Node8</title>
<path fill="none" stroke="midnightblue" d="M334,-168.37C334,-150.62 334,-109.67 334,-85.6"/>
<polygon fill="midnightblue" stroke="midnightblue" points="337.5,-85.59 334,-75.59 330.5,-85.59 337.5,-85.59"/>
</g>
<!-- Node9 -->
<g id="node9" class="node">
<title>Node9</title>
<g id="a_node9"><a xlink:href="mwcc_8h.html" target="_top" xlink:title=" ">
<polygon fill="white" stroke="black" points="443,-112.5 443,-131.5 493,-131.5 493,-112.5 443,-112.5"/>
<text text-anchor="middle" x="468" y="-119.5" font-family="Helvetica,sans-Serif" font-size="10.00">mwcc.h</text>
</a>
</g>
</g>
<!-- Node5&#45;&gt;Node9 -->
<g id="edge10" class="edge">
<title>Node5&#45;&gt;Node9</title>
<path fill="none" stroke="midnightblue" d="M355.23,-168.44C377.38,-159.52 412.32,-145.44 437.44,-135.32"/>
<polygon fill="midnightblue" stroke="midnightblue" points="438.9,-138.5 446.87,-131.52 436.28,-132.01 438.9,-138.5"/>
</g>
<!-- Node10 -->
<g id="node10" class="node">
<title>Node10</title>
<g id="a_node10"><a xlink:href="OS_8h.html" target="_top" xlink:title=" ">
<polygon fill="white" stroke="black" points="373,-112.5 373,-131.5 425,-131.5 425,-112.5 373,-112.5"/>
<text text-anchor="middle" x="399" y="-119.5" font-family="Helvetica,sans-Serif" font-size="10.00">os/OS.h</text>
</a>
</g>
</g>
<!-- Node5&#45;&gt;Node10 -->
<g id="edge11" class="edge">
<title>Node5&#45;&gt;Node10</title>
<path fill="none" stroke="midnightblue" d="M344.44,-168.32C354.15,-160.26 368.82,-148.08 380.5,-138.37"/>
<polygon fill="midnightblue" stroke="midnightblue" points="382.91,-140.92 388.37,-131.83 378.44,-135.53 382.91,-140.92"/>
</g>
<!-- Node7&#45;&gt;Node6 -->
<g id="edge7" class="edge">
<title>Node7&#45;&gt;Node6</title>
<path fill="none" stroke="midnightblue" d="M274.41,-56.32C285.11,-48.18 301.34,-35.84 314.16,-26.09"/>
<polygon fill="midnightblue" stroke="midnightblue" points="316.54,-28.67 322.39,-19.83 312.31,-23.1 316.54,-28.67"/>
</g>
<!-- Node8&#45;&gt;Node6 -->
<g id="edge9" class="edge">
<title>Node8&#45;&gt;Node6</title>
<path fill="none" stroke="midnightblue" d="M334,-56.08C334,-49.01 334,-38.86 334,-29.99"/>
<polygon fill="midnightblue" stroke="midnightblue" points="337.5,-29.75 334,-19.75 330.5,-29.75 337.5,-29.75"/>
</g>
<!-- Node10&#45;&gt;Node6 -->
<g id="edge12" class="edge">
<title>Node10&#45;&gt;Node6</title>
<path fill="none" stroke="midnightblue" d="M414.08,-112.4C433.53,-100.18 463.29,-76.93 449,-56 434.51,-34.77 408.38,-23.56 384.68,-17.63"/>
<polygon fill="midnightblue" stroke="midnightblue" points="385.23,-14.17 374.71,-15.4 383.71,-21 385.23,-14.17"/>
</g>
<!-- Node11 -->
<g id="node11" class="node">
<title>Node11</title>
<g id="a_node11"><a xlink:href="dvd_8h.html" target="_top" xlink:title=" ">
<polygon fill="white" stroke="black" points="380.5,-56.5 380.5,-75.5 439.5,-75.5 439.5,-56.5 380.5,-56.5"/>
<text text-anchor="middle" x="410" y="-63.5" font-family="Helvetica,sans-Serif" font-size="10.00">dvd/dvd.h</text>
</a>
</g>
</g>
<!-- Node10&#45;&gt;Node11 -->
<g id="edge13" class="edge">
<title>Node10&#45;&gt;Node11</title>
<path fill="none" stroke="midnightblue" d="M400.82,-112.08C402.27,-104.93 404.37,-94.64 406.19,-85.69"/>
<polygon fill="midnightblue" stroke="midnightblue" points="409.65,-86.25 408.22,-75.75 402.79,-84.85 409.65,-86.25"/>
</g>
<!-- Node11&#45;&gt;Node6 -->
<g id="edge14" class="edge">
<title>Node11&#45;&gt;Node6</title>
<path fill="none" stroke="midnightblue" d="M397.79,-56.32C386.22,-48.11 368.62,-35.6 354.84,-25.81"/>
<polygon fill="midnightblue" stroke="midnightblue" points="356.61,-22.77 346.43,-19.83 352.56,-28.48 356.61,-22.77"/>
</g>
<!-- Node12&#45;&gt;Node3 -->
<g id="edge17" class="edge">
<title>Node12&#45;&gt;Node3</title>
<path fill="none" stroke="midnightblue" d="M241.44,-336.08C246.95,-328.46 255.03,-317.26 261.76,-307.94"/>
<polygon fill="midnightblue" stroke="midnightblue" points="264.66,-309.91 267.68,-299.75 258.99,-305.81 264.66,-309.91"/>
</g>
<!-- Node12&#45;&gt;Node4 -->
<g id="edge18" class="edge">
<title>Node12&#45;&gt;Node4</title>
<path fill="none" stroke="midnightblue" d="M227.53,-336.29C217.56,-323.53 202.21,-299.2 212,-280 219,-266.27 232.37,-255.75 244.9,-248.35"/>
<polygon fill="midnightblue" stroke="midnightblue" points="246.67,-251.37 253.78,-243.51 243.32,-245.22 246.67,-251.37"/>
</g>
<!-- Node13&#45;&gt;Node2 -->
<g id="edge22" class="edge">
<title>Node13&#45;&gt;Node2</title>
<path fill="none" stroke="midnightblue" d="M131.55,-515.41C154.35,-506.11 184.01,-493.08 209,-479 218.11,-473.87 268.96,-437.91 297.88,-417.34"/>
<polygon fill="midnightblue" stroke="midnightblue" points="299.96,-420.16 306.08,-411.51 295.9,-414.45 299.96,-420.16"/>
</g>
<!-- Node13&#45;&gt;Node5 -->
<g id="edge28" class="edge">
<title>Node13&#45;&gt;Node5</title>
<path fill="none" stroke="midnightblue" d="M83.74,-515.26C67.13,-492.78 38,-447.08 38,-403 38,-403 38,-403 38,-289 38,-252 58.25,-243 90,-224 155.95,-184.54 248.48,-178.22 298.52,-178.02"/>
<polygon fill="midnightblue" stroke="midnightblue" points="298.8,-181.52 308.82,-178.06 298.83,-174.52 298.8,-181.52"/>
</g>
<!-- Node14 -->
<g id="node14" class="node">
<title>Node14</title>
<g id="a_node14"><a xlink:href="f__pc__layer_8h.html" target="_top" xlink:title=" ">
<polygon fill="white" stroke="black" points="104,-454 104,-473 200,-473 200,-454 104,-454"/>
<text text-anchor="middle" x="152" y="-461" font-family="Helvetica,sans-Serif" font-size="10.00">f/f_pc/f_pc_layer.h</text>
</a>
</g>
</g>
<!-- Node13&#45;&gt;Node14 -->
<g id="edge23" class="edge">
<title>Node13&#45;&gt;Node14</title>
<path fill="none" stroke="midnightblue" d="M107.37,-515.4C116.26,-505.26 128.26,-491.57 137.59,-480.94"/>
<polygon fill="midnightblue" stroke="midnightblue" points="140.41,-483.02 144.38,-473.19 135.15,-478.41 140.41,-483.02"/>
</g>
<!-- Node14&#45;&gt;Node2 -->
<g id="edge25" class="edge">
<title>Node14&#45;&gt;Node2</title>
<path fill="none" stroke="midnightblue" d="M175.78,-453.98C204.38,-443.72 252.55,-426.46 284.8,-414.9"/>
<polygon fill="midnightblue" stroke="midnightblue" points="286.03,-418.18 294.26,-411.51 283.67,-411.59 286.03,-418.18"/>
</g>
<!-- Node14&#45;&gt;Node4 -->
<g id="edge24" class="edge">
<title>Node14&#45;&gt;Node4</title>
<path fill="none" stroke="midnightblue" d="M151.8,-453.88C151.59,-425.08 154.9,-331.05 204,-280 216.29,-267.23 232.88,-256.36 246.82,-248.51"/>
<polygon fill="midnightblue" stroke="midnightblue" points="248.83,-251.4 255.96,-243.57 245.5,-245.24 248.83,-251.4"/>
</g>
<!-- Node14&#45;&gt;Node5 -->
<g id="edge27" class="edge">
<title>Node14&#45;&gt;Node5</title>
<path fill="none" stroke="midnightblue" d="M147.03,-453.84C136.73,-435.03 114,-388.8 114,-347 114,-347 114,-347 114,-289 114,-207.46 236.4,-186.36 298.61,-180.9"/>
<polygon fill="midnightblue" stroke="midnightblue" points="299.07,-184.38 308.76,-180.1 298.52,-177.4 299.07,-184.38"/>
</g>
<!-- Node14&#45;&gt;Node12 -->
<g id="edge26" class="edge">
<title>Node14&#45;&gt;Node12</title>
<path fill="none" stroke="midnightblue" d="M158.24,-453.82C171.94,-434.76 204.86,-388.95 222.81,-363.96"/>
<polygon fill="midnightblue" stroke="midnightblue" points="225.7,-365.95 228.69,-355.78 220.01,-361.86 225.7,-365.95"/>
</g>
<!-- Node15&#45;&gt;Node2 -->
<g id="edge30" class="edge">
<title>Node15&#45;&gt;Node2</title>
<path fill="none" stroke="midnightblue" d="M224.87,-520.81C241.36,-499.95 283.36,-446.81 304.87,-419.61"/>
<polygon fill="midnightblue" stroke="midnightblue" points="307.62,-421.77 311.08,-411.76 302.13,-417.43 307.62,-421.77"/>
</g>
<!-- Node15&#45;&gt;Node5 -->
<g id="edge32" class="edge">
<title>Node15&#45;&gt;Node5</title>
<path fill="none" stroke="midnightblue" d="M170.69,-520.93C144.84,-513.87 114.25,-501.26 95,-479 72.22,-452.67 76,-437.82 76,-403 76,-403 76,-403 76,-289 76,-193.36 227.88,-179.73 298.58,-178.56"/>
<polygon fill="midnightblue" stroke="midnightblue" points="298.82,-182.06 308.79,-178.47 298.76,-175.06 298.82,-182.06"/>
</g>
<!-- Node15&#45;&gt;Node14 -->
<g id="edge31" class="edge">
<title>Node15&#45;&gt;Node14</title>
<path fill="none" stroke="midnightblue" d="M209.1,-520.73C198.61,-510.4 180.98,-493.04 168.08,-480.33"/>
<polygon fill="midnightblue" stroke="midnightblue" points="170.34,-477.65 160.76,-473.13 165.43,-482.64 170.34,-477.65"/>
</g>
<!-- Node16&#45;&gt;Node2 -->
<g id="edge34" class="edge">
<title>Node16&#45;&gt;Node2</title>
<path fill="none" stroke="midnightblue" d="M512.48,-453.98C472.44,-443.48 404.36,-425.64 360.3,-414.09"/>
<polygon fill="midnightblue" stroke="midnightblue" points="361.02,-410.66 350.46,-411.51 359.25,-417.43 361.02,-410.66"/>
</g>
<!-- Node16&#45;&gt;Node5 -->
<g id="edge35" class="edge">
<title>Node16&#45;&gt;Node5</title>
<path fill="none" stroke="midnightblue" d="M534.25,-453.89C513.52,-436.23 470,-393.62 470,-347 470,-347 470,-347 470,-289 470,-236.96 409.06,-205.3 368.76,-190.05"/>
<polygon fill="midnightblue" stroke="midnightblue" points="369.86,-186.73 359.26,-186.62 367.47,-193.31 369.86,-186.73"/>
</g>
<!-- Node17&#45;&gt;Node2 -->
<g id="edge37" class="edge">
<title>Node17&#45;&gt;Node2</title>
<path fill="none" stroke="midnightblue" d="M379.46,-520.81C368.73,-500.22 341.58,-448.19 327.22,-420.68"/>
<polygon fill="midnightblue" stroke="midnightblue" points="330.3,-419 322.57,-411.76 324.09,-422.24 330.3,-419"/>
</g>
<!-- Node18 -->
<g id="node18" class="node">
<title>Node18</title>
<g id="a_node18"><a xlink:href="f__pc__method__tag_8h.html" target="_top" xlink:title=" ">
<polygon fill="white" stroke="black" points="370.5,-448.5 370.5,-478.5 471.5,-478.5 471.5,-448.5 370.5,-448.5"/>
<text text-anchor="start" x="378.5" y="-466.5" font-family="Helvetica,sans-Serif" font-size="10.00">f/f_pc/f_pc_method</text>
<text text-anchor="middle" x="421" y="-455.5" font-family="Helvetica,sans-Serif" font-size="10.00">_tag.h</text>
</a>
</g>
</g>
<!-- Node17&#45;&gt;Node18 -->
<g id="edge38" class="edge">
<title>Node17&#45;&gt;Node18</title>
<path fill="none" stroke="midnightblue" d="M388.99,-520.73C393.85,-512.2 401.43,-498.87 408,-487.33"/>
<polygon fill="midnightblue" stroke="midnightblue" points="411.07,-489.01 412.98,-478.59 404.99,-485.55 411.07,-489.01"/>
</g>
<!-- Node18&#45;&gt;Node2 -->
<g id="edge39" class="edge">
<title>Node18&#45;&gt;Node2</title>
<path fill="none" stroke="midnightblue" d="M396.59,-448.4C380.08,-438.86 358.38,-426.32 341.96,-416.84"/>
<polygon fill="midnightblue" stroke="midnightblue" points="343.4,-413.63 332.99,-411.66 339.9,-419.69 343.4,-413.63"/>
</g>
<!-- Node18&#45;&gt;Node5 -->
<g id="edge40" class="edge">
<title>Node18&#45;&gt;Node5</title>
<path fill="none" stroke="midnightblue" d="M423.23,-448.32C426.44,-426.57 432,-383.66 432,-347 432,-347 432,-347 432,-289 432,-245.38 388.51,-211.06 359.47,-193.01"/>
<polygon fill="midnightblue" stroke="midnightblue" points="361,-189.85 350.62,-187.73 357.42,-195.86 361,-189.85"/>
</g>
<!-- Node19&#45;&gt;Node5 -->
<g id="edge44" class="edge">
<title>Node19&#45;&gt;Node5</title>
<path fill="none" stroke="midnightblue" d="M578.17,-280.32C559.15,-266.71 520.26,-240.22 484,-224 446.1,-207.04 400.03,-194.3 369.03,-186.78"/>
<polygon fill="midnightblue" stroke="midnightblue" points="369.67,-183.33 359.13,-184.43 368.05,-190.14 369.67,-183.33"/>
</g>
<!-- Node20 -->
<g id="node20" class="node">
<title>Node20</title>
<g id="a_node20"><a xlink:href="f__pc__method_8h.html" target="_top" xlink:title=" ">
<polygon fill="white" stroke="black" points="536,-224.5 536,-243.5 644,-243.5 644,-224.5 536,-224.5"/>
<text text-anchor="middle" x="590" y="-231.5" font-family="Helvetica,sans-Serif" font-size="10.00">f/f_pc/f_pc_method.h</text>
</a>
</g>
</g>
<!-- Node19&#45;&gt;Node20 -->
<g id="edge42" class="edge">
<title>Node19&#45;&gt;Node20</title>
<path fill="none" stroke="midnightblue" d="M590,-280.08C590,-273.01 590,-262.86 590,-253.99"/>
<polygon fill="midnightblue" stroke="midnightblue" points="593.5,-253.75 590,-243.75 586.5,-253.75 593.5,-253.75"/>
</g>
<!-- Node20&#45;&gt;Node5 -->
<g id="edge43" class="edge">
<title>Node20&#45;&gt;Node5</title>
<path fill="none" stroke="midnightblue" d="M549.44,-224.44C499.76,-213.96 416.43,-196.39 369.29,-186.44"/>
<polygon fill="midnightblue" stroke="midnightblue" points="369.75,-182.96 359.24,-184.32 368.3,-189.81 369.75,-182.96"/>
</g>
</g>
</svg>
        <g id="navigator" transform="translate(0 0)" fill="#404254">
                <rect fill="#f2f5e9" fill-opacity="0.5" stroke="#606060" stroke-width=".5" x="0" y="0" width="60" height="60"/>
                <use id="zoomplus" xlink:href="#zoomPlus" x="17" y="9" onmousedown="handleZoom(evt,'in')"/>
                <use id="zoomminus" xlink:href="#zoomMin" x="42" y="9" onmousedown="handleZoom(evt,'out')"/>
                <use id="reset" xlink:href="#resetDef" x="30" y="36" onmousedown="handleReset()"/>
                <g id="arrowUp" xlink:href="#dirArrow" transform="translate(30 24)" onmousedown="handlePan(0,-1)">
                  <use xlink:href="#rim" fill="#404040">
                        <set attributeName="fill" to="#808080" begin="arrowUp.mouseover" end="arrowUp.mouseout"/>
                  </use>
                  <path fill="none" stroke="white" stroke-width="1.5" d="M0,-3.0v7 M-2.5,-0.5L0,-3.0L2.5,-0.5"/>
                </g>
                <g id="arrowRight" xlink:href="#dirArrow" transform="rotate(90) translate(36 -43)" onmousedown="handlePan(1,0)">
                  <use xlink:href="#rim" fill="#404040">
                        <set attributeName="fill" to="#808080" begin="arrowRight.mouseover" end="arrowRight.mouseout"/>
                  </use>
                  <path fill="none" stroke="white" stroke-width="1.5" d="M0,-3.0v7 M-2.5,-0.5L0,-3.0L2.5,-0.5"/>
                </g>
                <g id="arrowDown" xlink:href="#dirArrow" transform="rotate(180) translate(-30 -48)" onmousedown="handlePan(0,1)">
                  <use xlink:href="#rim" fill="#404040">
                        <set attributeName="fill" to="#808080" begin="arrowDown.mouseover" end="arrowDown.mouseout"/>
                  </use>
                  <path fill="none" stroke="white" stroke-width="1.5" d="M0,-3.0v7 M-2.5,-0.5L0,-3.0L2.5,-0.5"/>
                </g>
                <g id="arrowLeft" xlink:href="#dirArrow" transform="rotate(270) translate(-36 17)" onmousedown="handlePan(-1,0)">
                  <use xlink:href="#rim" fill="#404040">
                        <set attributeName="fill" to="#808080" begin="arrowLeft.mouseover" end="arrowLeft.mouseout"/>
                  </use>
                  <path fill="none" stroke="white" stroke-width="1.5" d="M0,-3.0v7 M-2.5,-0.5L0,-3.0L2.5,-0.5"/>
                </g>
        </g>
        <svg viewBox="0 0 15 15" width="100%" height="30px" preserveAspectRatio="xMaxYMin meet">
         <g id="arrow_out" transform="scale(0.3 0.3)">
          <a xlink:href="f__pc__base_8h__incl_org.svg" target="_base">
           <rect id="button" ry="5" rx="5" y="6" x="6" height="38" width="38"
                fill="#f2f5e9" fill-opacity="0.5" stroke="#606060" stroke-width="1.0"/>
           <path id="arrow"
             d="M 11.500037,31.436501 C 11.940474,20.09759 22.043105,11.32322 32.158766,21.979434 L 37.068811,17.246167 C 37.068811,17.246167 37.088388,32 37.088388,32 L 22.160133,31.978069 C 22.160133,31.978069 26.997745,27.140456 26.997745,27.140456 C 18.528582,18.264221 13.291696,25.230495 11.500037,31.436501 z"
             style="fill:#404040;"/>
          </a>
         </g>
        </svg>
</svg>
