<?xml version="1.0" encoding="UTF-8" standalone="no"?>
<!DOCTYPE svg PUBLIC "-//W3C//DTD SVG 1.1//EN"
 "http://www.w3.org/Graphics/SVG/1.1/DTD/svg11.dtd">
<!-- Generated by graphviz version 2.44.0 ()
 -->
<!-- Title: src/f/f_pc/f_pc_priority.cpp Pages: 1 -->
<svg width="674pt" height="666pt"
 viewBox="0.00 0.00 673.62 666.00" xmlns="http://www.w3.org/2000/svg" xmlns:xlink="http://www.w3.org/1999/xlink">
<g id="graph0" class="graph" transform="scale(1 1) rotate(0) translate(4 662)">
<title>src/f/f_pc/f_pc_priority.cpp</title>
<polygon fill="white" stroke="transparent" points="-4,4 -4,-662 669.62,-662 669.62,4 -4,4"/>
<!-- Node1 -->
<g id="node1" class="node">
<title>Node1</title>
<g id="a_node1"><a xlink:title=" ">
<polygon fill="#bfbfbf" stroke="black" points="480.5,-638.5 480.5,-657.5 611.5,-657.5 611.5,-638.5 480.5,-638.5"/>
<text text-anchor="middle" x="546" y="-645.5" font-family="Helvetica,sans-Serif" font-size="10.00">src/f/f_pc/f_pc_priority.cpp</text>
</a>
</g>
</g>
<!-- Node2 -->
<g id="node2" class="node">
<title>Node2</title>
<g id="a_node2"><a xlink:href="f__pc__priority_8h.html" target="_top" xlink:title=" ">
<polygon fill="white" stroke="black" points="414,-521 414,-540 518,-540 518,-521 414,-521"/>
<text text-anchor="middle" x="466" y="-528" font-family="Helvetica,sans-Serif" font-size="10.00">f/f_pc/f_pc_priority.h</text>
</a>
</g>
</g>
<!-- Node1&#45;&gt;Node2 -->
<g id="edge1" class="edge">
<title>Node1&#45;&gt;Node2</title>
<path fill="none" stroke="midnightblue" d="M539.99,-638.32C526.84,-619.34 495.33,-573.85 477.97,-548.79"/>
<polygon fill="midnightblue" stroke="midnightblue" points="480.65,-546.51 472.08,-540.28 474.9,-550.5 480.65,-546.51"/>
</g>
<!-- Node15 -->
<g id="node15" class="node">
<title>Node15</title>
<g id="a_node15"><a xlink:href="f__pc__base_8h.html" target="_top" xlink:title=" ">
<polygon fill="white" stroke="black" points="261.5,-582.5 261.5,-601.5 358.5,-601.5 358.5,-582.5 261.5,-582.5"/>
<text text-anchor="middle" x="310" y="-589.5" font-family="Helvetica,sans-Serif" font-size="10.00">f/f_pc/f_pc_base.h</text>
</a>
</g>
</g>
<!-- Node1&#45;&gt;Node15 -->
<g id="edge24" class="edge">
<title>Node1&#45;&gt;Node15</title>
<path fill="none" stroke="midnightblue" d="M508.61,-638.44C467.61,-629.06 401.75,-613.99 357.22,-603.8"/>
<polygon fill="midnightblue" stroke="midnightblue" points="357.75,-600.34 347.22,-601.52 356.19,-607.16 357.75,-600.34"/>
</g>
<!-- Node17 -->
<g id="node17" class="node">
<title>Node17</title>
<g id="a_node17"><a xlink:href="f__pc__layer_8h.html" target="_top" xlink:title=" ">
<polygon fill="white" stroke="black" points="540,-454 540,-473 636,-473 636,-454 540,-454"/>
<text text-anchor="middle" x="588" y="-461" font-family="Helvetica,sans-Serif" font-size="10.00">f/f_pc/f_pc_layer.h</text>
</a>
</g>
</g>
<!-- Node1&#45;&gt;Node17 -->
<g id="edge47" class="edge">
<title>Node1&#45;&gt;Node17</title>
<path fill="none" stroke="midnightblue" d="M562.95,-638.34C589.7,-623.59 640.73,-590.78 661,-546 666.68,-533.45 667.4,-527.2 661,-515 652.23,-498.27 635.13,-485.99 619.68,-477.72"/>
<polygon fill="midnightblue" stroke="midnightblue" points="620.87,-474.41 610.36,-473.09 617.76,-480.68 620.87,-474.41"/>
</g>
<!-- Node18 -->
<g id="node18" class="node">
<title>Node18</title>
<g id="a_node18"><a xlink:href="f__pc__layer__tag_8h.html" target="_top" xlink:title=" ">
<polygon fill="white" stroke="black" points="536.5,-521 536.5,-540 651.5,-540 651.5,-521 536.5,-521"/>
<text text-anchor="middle" x="594" y="-528" font-family="Helvetica,sans-Serif" font-size="10.00">f/f_pc/f_pc_layer_tag.h</text>
</a>
</g>
</g>
<!-- Node1&#45;&gt;Node18 -->
<g id="edge48" class="edge">
<title>Node1&#45;&gt;Node18</title>
<path fill="none" stroke="midnightblue" d="M549.61,-638.32C557.39,-619.59 575.9,-575.05 586.4,-549.79"/>
<polygon fill="midnightblue" stroke="midnightblue" points="589.74,-550.86 590.35,-540.28 583.28,-548.17 589.74,-550.86"/>
</g>
<!-- Node3 -->
<g id="node3" class="node">
<title>Node3</title>
<g id="a_node3"><a xlink:href="c__tag_8h.html" target="_top" xlink:title=" ">
<polygon fill="white" stroke="black" points="338.5,-392.5 338.5,-411.5 445.5,-411.5 445.5,-392.5 338.5,-392.5"/>
<text text-anchor="middle" x="392" y="-399.5" font-family="Helvetica,sans-Serif" font-size="10.00">SComponent/c_tag.h</text>
</a>
</g>
</g>
<!-- Node2&#45;&gt;Node3 -->
<g id="edge2" class="edge">
<title>Node2&#45;&gt;Node3</title>
<path fill="none" stroke="midnightblue" d="M463.48,-520.96C458.72,-505.61 447.5,-472.67 432,-448 425.41,-437.51 416.35,-427.09 408.52,-418.92"/>
<polygon fill="midnightblue" stroke="midnightblue" points="410.76,-416.22 401.23,-411.59 405.8,-421.15 410.76,-416.22"/>
</g>
<!-- Node14 -->
<g id="node14" class="node">
<title>Node14</title>
<g id="a_node14"><a xlink:href="f__pc__method__tag_8h.html" target="_top" xlink:title=" ">
<polygon fill="white" stroke="black" points="306.5,-448.5 306.5,-478.5 407.5,-478.5 407.5,-448.5 306.5,-448.5"/>
<text text-anchor="start" x="314.5" y="-466.5" font-family="Helvetica,sans-Serif" font-size="10.00">f/f_pc/f_pc_method</text>
<text text-anchor="middle" x="357" y="-455.5" font-family="Helvetica,sans-Serif" font-size="10.00">_tag.h</text>
</a>
</g>
</g>
<!-- Node2&#45;&gt;Node14 -->
<g id="edge21" class="edge">
<title>Node2&#45;&gt;Node14</title>
<path fill="none" stroke="midnightblue" d="M451.3,-520.73C435.51,-511.32 409.91,-496.05 389.37,-483.8"/>
<polygon fill="midnightblue" stroke="midnightblue" points="391.01,-480.7 380.63,-478.59 387.42,-486.72 391.01,-480.7"/>
</g>
<!-- Node4 -->
<g id="node4" class="node">
<title>Node4</title>
<g id="a_node4"><a xlink:href="c__list_8h.html" target="_top" xlink:title=" ">
<polygon fill="white" stroke="black" points="382.5,-280.5 382.5,-299.5 489.5,-299.5 489.5,-280.5 382.5,-280.5"/>
<text text-anchor="middle" x="436" y="-287.5" font-family="Helvetica,sans-Serif" font-size="10.00">SComponent/c_list.h</text>
</a>
</g>
</g>
<!-- Node3&#45;&gt;Node4 -->
<g id="edge3" class="edge">
<title>Node3&#45;&gt;Node4</title>
<path fill="none" stroke="midnightblue" d="M393.87,-392.38C396.76,-379.73 402.84,-355.53 411,-336 414.96,-326.52 420.41,-316.47 425.21,-308.29"/>
<polygon fill="midnightblue" stroke="midnightblue" points="428.24,-310.04 430.42,-299.67 422.25,-306.42 428.24,-310.04"/>
</g>
<!-- Node5 -->
<g id="node5" class="node">
<title>Node5</title>
<g id="a_node5"><a xlink:href="c__node_8h.html" target="_top" xlink:title=" ">
<polygon fill="white" stroke="black" points="378.5,-224.5 378.5,-243.5 493.5,-243.5 493.5,-224.5 378.5,-224.5"/>
<text text-anchor="middle" x="436" y="-231.5" font-family="Helvetica,sans-Serif" font-size="10.00">SComponent/c_node.h</text>
</a>
</g>
</g>
<!-- Node3&#45;&gt;Node5 -->
<g id="edge16" class="edge">
<title>Node3&#45;&gt;Node5</title>
<path fill="none" stroke="midnightblue" d="M387.33,-392.22C376.99,-371.46 354.51,-318.22 374,-280 381,-266.27 394.37,-255.75 406.9,-248.35"/>
<polygon fill="midnightblue" stroke="midnightblue" points="408.67,-251.37 415.78,-243.51 405.32,-245.22 408.67,-251.37"/>
</g>
<!-- Node6 -->
<g id="node6" class="node">
<title>Node6</title>
<g id="a_node6"><a xlink:href="global_8h.html" target="_top" xlink:title=" ">
<polygon fill="white" stroke="black" points="234,-168.5 234,-187.5 284,-187.5 284,-168.5 234,-168.5"/>
<text text-anchor="middle" x="259" y="-175.5" font-family="Helvetica,sans-Serif" font-size="10.00">global.h</text>
</a>
</g>
</g>
<!-- Node3&#45;&gt;Node6 -->
<g id="edge20" class="edge">
<title>Node3&#45;&gt;Node6</title>
<path fill="none" stroke="midnightblue" d="M386.73,-392.43C381.22,-383.41 372.37,-368.79 365,-356 331.53,-297.91 328.12,-280.48 292,-224 285.87,-214.41 278.41,-204.14 272.14,-195.84"/>
<polygon fill="midnightblue" stroke="midnightblue" points="274.78,-193.53 265.92,-187.73 269.23,-197.79 274.78,-193.53"/>
</g>
<!-- Node13 -->
<g id="node13" class="node">
<title>Node13</title>
<g id="a_node13"><a xlink:href="c__tree_8h.html" target="_top" xlink:title=" ">
<polygon fill="white" stroke="black" points="420,-336.5 420,-355.5 530,-355.5 530,-336.5 420,-336.5"/>
<text text-anchor="middle" x="475" y="-343.5" font-family="Helvetica,sans-Serif" font-size="10.00">SComponent/c_tree.h</text>
</a>
</g>
</g>
<!-- Node3&#45;&gt;Node13 -->
<g id="edge17" class="edge">
<title>Node3&#45;&gt;Node13</title>
<path fill="none" stroke="midnightblue" d="M405.34,-392.32C418.16,-383.98 437.78,-371.21 452.94,-361.35"/>
<polygon fill="midnightblue" stroke="midnightblue" points="455.22,-364.04 461.7,-355.65 451.41,-358.17 455.22,-364.04"/>
</g>
<!-- Node4&#45;&gt;Node5 -->
<g id="edge4" class="edge">
<title>Node4&#45;&gt;Node5</title>
<path fill="none" stroke="midnightblue" d="M436,-280.08C436,-273.01 436,-262.86 436,-253.99"/>
<polygon fill="midnightblue" stroke="midnightblue" points="439.5,-253.75 436,-243.75 432.5,-253.75 439.5,-253.75"/>
</g>
<!-- Node5&#45;&gt;Node6 -->
<g id="edge5" class="edge">
<title>Node5&#45;&gt;Node6</title>
<path fill="none" stroke="midnightblue" d="M407.95,-224.44C377.03,-215.01 327.26,-199.82 293.85,-189.63"/>
<polygon fill="midnightblue" stroke="midnightblue" points="294.64,-186.21 284.05,-186.64 292.6,-192.91 294.64,-186.21"/>
</g>
<!-- Node7 -->
<g id="node7" class="node">
<title>Node7</title>
<g id="a_node7"><a xlink:href="types_8h.html" target="_top" xlink:title=" ">
<polygon fill="white" stroke="black" points="218.5,-0.5 218.5,-19.5 299.5,-19.5 299.5,-0.5 218.5,-0.5"/>
<text text-anchor="middle" x="259" y="-7.5" font-family="Helvetica,sans-Serif" font-size="10.00">dolphin/types.h</text>
</a>
</g>
</g>
<!-- Node6&#45;&gt;Node7 -->
<g id="edge6" class="edge">
<title>Node6&#45;&gt;Node7</title>
<path fill="none" stroke="midnightblue" d="M240.89,-168.4C203.48,-149.45 123.61,-102.09 154,-56 166.3,-37.35 188.11,-26.4 208.68,-19.98"/>
<polygon fill="midnightblue" stroke="midnightblue" points="209.64,-23.35 218.31,-17.26 207.74,-16.61 209.64,-23.35"/>
</g>
<!-- Node8 -->
<g id="node8" class="node">
<title>Node8</title>
<g id="a_node8"><a xlink:href="AR_8h.html" target="_top" xlink:title=" ">
<polygon fill="white" stroke="black" points="163.5,-56.5 163.5,-75.5 212.5,-75.5 212.5,-56.5 163.5,-56.5"/>
<text text-anchor="middle" x="188" y="-63.5" font-family="Helvetica,sans-Serif" font-size="10.00">ar/AR.h</text>
</a>
</g>
</g>
<!-- Node6&#45;&gt;Node8 -->
<g id="edge7" class="edge">
<title>Node6&#45;&gt;Node8</title>
<path fill="none" stroke="midnightblue" d="M253.43,-168.37C241.76,-150.3 214.58,-108.18 199.17,-84.31"/>
<polygon fill="midnightblue" stroke="midnightblue" points="201.91,-82.1 193.55,-75.59 196.03,-85.89 201.91,-82.1"/>
</g>
<!-- Node9 -->
<g id="node9" class="node">
<title>Node9</title>
<g id="a_node9"><a xlink:href="ARQ_8h.html" target="_top" xlink:title=" ">
<polygon fill="white" stroke="black" points="231,-56.5 231,-75.5 287,-75.5 287,-56.5 231,-56.5"/>
<text text-anchor="middle" x="259" y="-63.5" font-family="Helvetica,sans-Serif" font-size="10.00">ar/ARQ.h</text>
</a>
</g>
</g>
<!-- Node6&#45;&gt;Node9 -->
<g id="edge9" class="edge">
<title>Node6&#45;&gt;Node9</title>
<path fill="none" stroke="midnightblue" d="M259,-168.37C259,-150.62 259,-109.67 259,-85.6"/>
<polygon fill="midnightblue" stroke="midnightblue" points="262.5,-85.59 259,-75.59 255.5,-85.59 262.5,-85.59"/>
</g>
<!-- Node10 -->
<g id="node10" class="node">
<title>Node10</title>
<g id="a_node10"><a xlink:href="mwcc_8h.html" target="_top" xlink:title=" ">
<polygon fill="white" stroke="black" points="358,-112.5 358,-131.5 408,-131.5 408,-112.5 358,-112.5"/>
<text text-anchor="middle" x="383" y="-119.5" font-family="Helvetica,sans-Serif" font-size="10.00">mwcc.h</text>
</a>
</g>
</g>
<!-- Node6&#45;&gt;Node10 -->
<g id="edge11" class="edge">
<title>Node6&#45;&gt;Node10</title>
<path fill="none" stroke="midnightblue" d="M278.65,-168.44C298.96,-159.6 330.9,-145.69 354.1,-135.59"/>
<polygon fill="midnightblue" stroke="midnightblue" points="355.67,-138.72 363.44,-131.52 352.88,-132.3 355.67,-138.72"/>
</g>
<!-- Node11 -->
<g id="node11" class="node">
<title>Node11</title>
<g id="a_node11"><a xlink:href="OS_8h.html" target="_top" xlink:title=" ">
<polygon fill="white" stroke="black" points="288,-112.5 288,-131.5 340,-131.5 340,-112.5 288,-112.5"/>
<text text-anchor="middle" x="314" y="-119.5" font-family="Helvetica,sans-Serif" font-size="10.00">os/OS.h</text>
</a>
</g>
</g>
<!-- Node6&#45;&gt;Node11 -->
<g id="edge12" class="edge">
<title>Node6&#45;&gt;Node11</title>
<path fill="none" stroke="midnightblue" d="M268.08,-168.08C276.17,-160.14 288.2,-148.34 297.91,-138.8"/>
<polygon fill="midnightblue" stroke="midnightblue" points="300.4,-141.25 305.09,-131.75 295.5,-136.26 300.4,-141.25"/>
</g>
<!-- Node8&#45;&gt;Node7 -->
<g id="edge8" class="edge">
<title>Node8&#45;&gt;Node7</title>
<path fill="none" stroke="midnightblue" d="M199.41,-56.32C210.11,-48.18 226.34,-35.84 239.16,-26.09"/>
<polygon fill="midnightblue" stroke="midnightblue" points="241.54,-28.67 247.39,-19.83 237.31,-23.1 241.54,-28.67"/>
</g>
<!-- Node9&#45;&gt;Node7 -->
<g id="edge10" class="edge">
<title>Node9&#45;&gt;Node7</title>
<path fill="none" stroke="midnightblue" d="M259,-56.08C259,-49.01 259,-38.86 259,-29.99"/>
<polygon fill="midnightblue" stroke="midnightblue" points="262.5,-29.75 259,-19.75 255.5,-29.75 262.5,-29.75"/>
</g>
<!-- Node11&#45;&gt;Node7 -->
<g id="edge13" class="edge">
<title>Node11&#45;&gt;Node7</title>
<path fill="none" stroke="midnightblue" d="M312.75,-112.16C310.67,-99.24 305.72,-74.7 296,-56 290.47,-45.36 282.14,-34.93 274.77,-26.8"/>
<polygon fill="midnightblue" stroke="midnightblue" points="277.29,-24.36 267.88,-19.5 272.2,-29.17 277.29,-24.36"/>
</g>
<!-- Node12 -->
<g id="node12" class="node">
<title>Node12</title>
<g id="a_node12"><a xlink:href="dvd_8h.html" target="_top" xlink:title=" ">
<polygon fill="white" stroke="black" points="343.5,-56.5 343.5,-75.5 402.5,-75.5 402.5,-56.5 343.5,-56.5"/>
<text text-anchor="middle" x="373" y="-63.5" font-family="Helvetica,sans-Serif" font-size="10.00">dvd/dvd.h</text>
</a>
</g>
</g>
<!-- Node11&#45;&gt;Node12 -->
<g id="edge14" class="edge">
<title>Node11&#45;&gt;Node12</title>
<path fill="none" stroke="midnightblue" d="M323.48,-112.32C332.2,-104.34 345.34,-92.31 355.9,-82.65"/>
<polygon fill="midnightblue" stroke="midnightblue" points="358.33,-85.17 363.35,-75.83 353.61,-80 358.33,-85.17"/>
</g>
<!-- Node12&#45;&gt;Node7 -->
<g id="edge15" class="edge">
<title>Node12&#45;&gt;Node7</title>
<path fill="none" stroke="midnightblue" d="M354.94,-56.44C336.43,-47.68 307.42,-33.94 286.14,-23.86"/>
<polygon fill="midnightblue" stroke="midnightblue" points="287.51,-20.63 276.98,-19.52 284.52,-26.96 287.51,-20.63"/>
</g>
<!-- Node13&#45;&gt;Node4 -->
<g id="edge18" class="edge">
<title>Node13&#45;&gt;Node4</title>
<path fill="none" stroke="midnightblue" d="M468.56,-336.08C463.05,-328.46 454.97,-317.26 448.24,-307.94"/>
<polygon fill="midnightblue" stroke="midnightblue" points="451.01,-305.81 442.32,-299.75 445.34,-309.91 451.01,-305.81"/>
</g>
<!-- Node13&#45;&gt;Node5 -->
<g id="edge19" class="edge">
<title>Node13&#45;&gt;Node5</title>
<path fill="none" stroke="midnightblue" d="M482.47,-336.29C492.44,-323.53 507.79,-299.2 498,-280 491,-266.27 477.63,-255.75 465.1,-248.35"/>
<polygon fill="midnightblue" stroke="midnightblue" points="466.68,-245.22 456.22,-243.51 463.33,-251.37 466.68,-245.22"/>
</g>
<!-- Node14&#45;&gt;Node3 -->
<g id="edge22" class="edge">
<title>Node14&#45;&gt;Node3</title>
<path fill="none" stroke="midnightblue" d="M365.29,-448.4C370.22,-440.02 376.51,-429.33 381.75,-420.42"/>
<polygon fill="midnightblue" stroke="midnightblue" points="384.85,-422.05 386.91,-411.66 378.82,-418.5 384.85,-422.05"/>
</g>
<!-- Node14&#45;&gt;Node6 -->
<g id="edge23" class="edge">
<title>Node14&#45;&gt;Node6</title>
<path fill="none" stroke="midnightblue" d="M338.68,-448.24C315.34,-428.32 278,-389.76 278,-347 278,-347 278,-347 278,-289 278,-256.49 269.84,-219.35 264.22,-197.61"/>
<polygon fill="midnightblue" stroke="midnightblue" points="267.54,-196.5 261.56,-187.75 260.78,-198.32 267.54,-196.5"/>
</g>
<!-- Node15&#45;&gt;Node2 -->
<g id="edge42" class="edge">
<title>Node15&#45;&gt;Node2</title>
<path fill="none" stroke="midnightblue" d="M332.35,-582.48C358.99,-572.31 403.71,-555.26 434.01,-543.7"/>
<polygon fill="midnightblue" stroke="midnightblue" points="435.59,-546.84 443.69,-540.01 433.1,-540.3 435.59,-546.84"/>
</g>
<!-- Node15&#45;&gt;Node3 -->
<g id="edge25" class="edge">
<title>Node15&#45;&gt;Node3</title>
<path fill="none" stroke="midnightblue" d="M305.12,-582.37C300.44,-573.55 293.69,-559.3 291,-546 286.32,-522.88 296.07,-449.33 297,-448 308.01,-432.21 326.07,-421.79 343.51,-415"/>
<polygon fill="midnightblue" stroke="midnightblue" points="344.83,-418.24 353.08,-411.59 342.49,-411.65 344.83,-418.24"/>
</g>
<!-- Node15&#45;&gt;Node6 -->
<g id="edge26" class="edge">
<title>Node15&#45;&gt;Node6</title>
<path fill="none" stroke="midnightblue" d="M261.5,-588.31C215.47,-584.12 145.43,-573.41 91,-546 42.51,-521.58 0,-518.79 0,-464.5 0,-464.5 0,-464.5 0,-289 0,-193.05 152.47,-179.58 223.44,-178.51"/>
<polygon fill="midnightblue" stroke="midnightblue" points="223.72,-182.01 233.69,-178.43 223.67,-175.01 223.72,-182.01"/>
</g>
<!-- Node16 -->
<g id="node16" class="node">
<title>Node16</title>
<g id="a_node16"><a xlink:href="f__pc__delete__tag_8h.html" target="_top" xlink:title=" ">
<polygon fill="white" stroke="black" points="300.5,-515.5 300.5,-545.5 395.5,-545.5 395.5,-515.5 300.5,-515.5"/>
<text text-anchor="start" x="308.5" y="-533.5" font-family="Helvetica,sans-Serif" font-size="10.00">f/f_pc/f_pc_delete</text>
<text text-anchor="middle" x="348" y="-522.5" font-family="Helvetica,sans-Serif" font-size="10.00">_tag.h</text>
</a>
</g>
</g>
<!-- Node15&#45;&gt;Node16 -->
<g id="edge27" class="edge">
<title>Node15&#45;&gt;Node16</title>
<path fill="none" stroke="midnightblue" d="M315.44,-582.48C320.16,-575.09 327.19,-564.08 333.52,-554.17"/>
<polygon fill="midnightblue" stroke="midnightblue" points="336.61,-555.83 339.04,-545.52 330.71,-552.07 336.61,-555.83"/>
</g>
<!-- Node15&#45;&gt;Node18 -->
<g id="edge35" class="edge">
<title>Node15&#45;&gt;Node18</title>
<path fill="none" stroke="midnightblue" d="M351.62,-582.48C395.32,-573.51 466.02,-558.92 527,-546 532.74,-544.78 538.76,-543.5 544.73,-542.21"/>
<polygon fill="midnightblue" stroke="midnightblue" points="545.65,-545.6 554.69,-540.07 544.17,-538.75 545.65,-545.6"/>
</g>
<!-- Node19 -->
<g id="node19" class="node">
<title>Node19</title>
<g id="a_node19"><a xlink:href="f__pc__line__tag_8h.html" target="_top" xlink:title=" ">
<polygon fill="white" stroke="black" points="102,-454 102,-473 212,-473 212,-454 102,-454"/>
<text text-anchor="middle" x="157" y="-461" font-family="Helvetica,sans-Serif" font-size="10.00">f/f_pc/f_pc_line_tag.h</text>
</a>
</g>
</g>
<!-- Node15&#45;&gt;Node19 -->
<g id="edge39" class="edge">
<title>Node15&#45;&gt;Node19</title>
<path fill="none" stroke="midnightblue" d="M299.48,-582.31C273.83,-561.09 207.76,-506.46 175.4,-479.72"/>
<polygon fill="midnightblue" stroke="midnightblue" points="177.53,-476.93 167.59,-473.26 173.07,-482.33 177.53,-476.93"/>
</g>
<!-- Node20 -->
<g id="node20" class="node">
<title>Node20</title>
<g id="a_node20"><a xlink:href="f__pc__profile_8h.html" target="_top" xlink:title=" ">
<polygon fill="white" stroke="black" points="28.5,-280.5 28.5,-299.5 129.5,-299.5 129.5,-280.5 28.5,-280.5"/>
<text text-anchor="middle" x="79" y="-287.5" font-family="Helvetica,sans-Serif" font-size="10.00">f/f_pc/f_pc_profile.h</text>
</a>
</g>
</g>
<!-- Node15&#45;&gt;Node20 -->
<g id="edge43" class="edge">
<title>Node15&#45;&gt;Node20</title>
<path fill="none" stroke="midnightblue" d="M261.39,-586.49C192.3,-577.12 74,-548.76 74,-464.5 74,-464.5 74,-464.5 74,-401 74,-368.91 76.15,-331.62 77.63,-309.74"/>
<polygon fill="midnightblue" stroke="midnightblue" points="81.14,-309.77 78.35,-299.55 74.15,-309.28 81.14,-309.77"/>
</g>
<!-- Node16&#45;&gt;Node3 -->
<g id="edge28" class="edge">
<title>Node16&#45;&gt;Node3</title>
<path fill="none" stroke="midnightblue" d="M378.12,-515.44C392.38,-507.05 408.01,-494.9 416,-479 425.67,-459.78 414.74,-435.87 404.67,-420.06"/>
<polygon fill="midnightblue" stroke="midnightblue" points="407.53,-418.05 399,-411.78 401.76,-422.01 407.53,-418.05"/>
</g>
<!-- Node16&#45;&gt;Node6 -->
<g id="edge34" class="edge">
<title>Node16&#45;&gt;Node6</title>
<path fill="none" stroke="midnightblue" d="M323.49,-515.4C291.63,-495.02 240,-454.11 240,-403 240,-403 240,-403 240,-289 240,-256.49 248.16,-219.35 253.78,-197.61"/>
<polygon fill="midnightblue" stroke="midnightblue" points="257.22,-198.32 256.44,-187.75 250.46,-196.5 257.22,-198.32"/>
</g>
<!-- Node16&#45;&gt;Node17 -->
<g id="edge29" class="edge">
<title>Node16&#45;&gt;Node17</title>
<path fill="none" stroke="midnightblue" d="M395.7,-516.58C439.78,-504.64 504.6,-487.09 546.56,-475.72"/>
<polygon fill="midnightblue" stroke="midnightblue" points="547.71,-479.04 556.45,-473.05 545.88,-472.28 547.71,-479.04"/>
</g>
<!-- Node17&#45;&gt;Node3 -->
<g id="edge31" class="edge">
<title>Node17&#45;&gt;Node3</title>
<path fill="none" stroke="midnightblue" d="M559.92,-453.98C525.71,-443.59 467.8,-426.01 429.73,-414.45"/>
<polygon fill="midnightblue" stroke="midnightblue" points="430.62,-411.06 420.03,-411.51 428.58,-417.76 430.62,-411.06"/>
</g>
<!-- Node17&#45;&gt;Node5 -->
<g id="edge30" class="edge">
<title>Node17&#45;&gt;Node5</title>
<path fill="none" stroke="midnightblue" d="M586.59,-453.75C581.6,-425.32 562.34,-334.22 513,-280 500.4,-266.15 482.53,-255.35 467.17,-247.8"/>
<polygon fill="midnightblue" stroke="midnightblue" points="468.55,-244.58 458.01,-243.52 465.59,-250.92 468.55,-244.58"/>
</g>
<!-- Node17&#45;&gt;Node6 -->
<g id="edge33" class="edge">
<title>Node17&#45;&gt;Node6</title>
<path fill="none" stroke="midnightblue" d="M589.01,-453.82C591.17,-434.6 596,-387 596,-347 596,-347 596,-347 596,-289 596,-226.01 380.51,-193.42 294.16,-182.89"/>
<polygon fill="midnightblue" stroke="midnightblue" points="294.4,-179.39 284.05,-181.69 293.57,-186.35 294.4,-179.39"/>
</g>
<!-- Node17&#45;&gt;Node13 -->
<g id="edge32" class="edge">
<title>Node17&#45;&gt;Node13</title>
<path fill="none" stroke="midnightblue" d="M579.51,-453.82C560.61,-434.5 514.85,-387.74 490.64,-362.98"/>
<polygon fill="midnightblue" stroke="midnightblue" points="493.09,-360.48 483.59,-355.78 488.08,-365.38 493.09,-360.48"/>
</g>
<!-- Node18&#45;&gt;Node3 -->
<g id="edge36" class="edge">
<title>Node18&#45;&gt;Node3</title>
<path fill="none" stroke="midnightblue" d="M580.12,-520.81C545.73,-499.27 456.34,-443.29 414.38,-417.01"/>
<polygon fill="midnightblue" stroke="midnightblue" points="416.05,-413.93 405.71,-411.59 412.33,-419.86 416.05,-413.93"/>
</g>
<!-- Node18&#45;&gt;Node6 -->
<g id="edge38" class="edge">
<title>Node18&#45;&gt;Node6</title>
<path fill="none" stroke="midnightblue" d="M605.97,-520.83C617.68,-511.72 635.13,-496.32 645,-479 662.23,-448.74 664,-437.82 664,-403 664,-403 664,-403 664,-289 664,-212.64 392.48,-187.58 294.07,-181"/>
<polygon fill="midnightblue" stroke="midnightblue" points="294.23,-177.51 284.03,-180.36 293.78,-184.49 294.23,-177.51"/>
</g>
<!-- Node18&#45;&gt;Node17 -->
<g id="edge37" class="edge">
<title>Node18&#45;&gt;Node17</title>
<path fill="none" stroke="midnightblue" d="M593.19,-520.73C592.31,-511.18 590.87,-495.62 589.73,-483.28"/>
<polygon fill="midnightblue" stroke="midnightblue" points="593.2,-482.76 588.8,-473.13 586.23,-483.41 593.2,-482.76"/>
</g>
<!-- Node19&#45;&gt;Node3 -->
<g id="edge40" class="edge">
<title>Node19&#45;&gt;Node3</title>
<path fill="none" stroke="midnightblue" d="M190.67,-453.98C232.2,-443.46 302.89,-425.56 348.5,-414.01"/>
<polygon fill="midnightblue" stroke="midnightblue" points="349.56,-417.36 358.39,-411.51 347.84,-410.57 349.56,-417.36"/>
</g>
<!-- Node19&#45;&gt;Node6 -->
<g id="edge41" class="edge">
<title>Node19&#45;&gt;Node6</title>
<path fill="none" stroke="midnightblue" d="M162.88,-453.96C175.08,-435.4 202,-389.61 202,-347 202,-347 202,-347 202,-289 202,-252.3 227.32,-215.66 244.21,-195.3"/>
<polygon fill="midnightblue" stroke="midnightblue" points="246.95,-197.48 250.83,-187.62 241.65,-192.9 246.95,-197.48"/>
</g>
<!-- Node20&#45;&gt;Node6 -->
<g id="edge46" class="edge">
<title>Node20&#45;&gt;Node6</title>
<path fill="none" stroke="midnightblue" d="M71.15,-280.09C60.28,-266.63 43.44,-240.92 57,-224 77.5,-198.43 171.36,-186.45 223.62,-181.68"/>
<polygon fill="midnightblue" stroke="midnightblue" points="224.13,-185.15 233.79,-180.79 223.52,-178.17 224.13,-185.15"/>
</g>
<!-- Node21 -->
<g id="node21" class="node">
<title>Node21</title>
<g id="a_node21"><a xlink:href="f__pc__method_8h.html" target="_top" xlink:title=" ">
<polygon fill="white" stroke="black" points="66,-224.5 66,-243.5 174,-243.5 174,-224.5 66,-224.5"/>
<text text-anchor="middle" x="120" y="-231.5" font-family="Helvetica,sans-Serif" font-size="10.00">f/f_pc/f_pc_method.h</text>
</a>
</g>
</g>
<!-- Node20&#45;&gt;Node21 -->
<g id="edge44" class="edge">
<title>Node20&#45;&gt;Node21</title>
<path fill="none" stroke="midnightblue" d="M85.77,-280.08C91.56,-272.46 100.06,-261.26 107.14,-251.94"/>
<polygon fill="midnightblue" stroke="midnightblue" points="110.1,-253.83 113.36,-243.75 104.52,-249.6 110.1,-253.83"/>
</g>
<!-- Node21&#45;&gt;Node6 -->
<g id="edge45" class="edge">
<title>Node21&#45;&gt;Node6</title>
<path fill="none" stroke="midnightblue" d="M142.02,-224.44C165.1,-215.48 201.56,-201.31 227.64,-191.18"/>
<polygon fill="midnightblue" stroke="midnightblue" points="229.02,-194.4 237.08,-187.52 226.49,-187.88 229.02,-194.4"/>
</g>
</g>
</svg>
