<?xml version="1.0" encoding="UTF-8" standalone="no"?>
<!DOCTYPE svg PUBLIC "-//W3C//DTD SVG 1.1//EN"
 "http://www.w3.org/Graphics/SVG/1.1/DTD/svg11.dtd">
<!-- Generated by graphviz version 2.44.0 ()
 -->
<!-- Title: include/f/f_pc/f_pc_leaf.h Pages: 1 -->
<!--zoomable 677 -->
<svg id="main" version="1.1" xmlns="http://www.w3.org/2000/svg" xmlns:xlink="http://www.w3.org/1999/xlink" xml:space="preserve" onload="init(evt)">
<style type="text/css"><![CDATA[
.edge:hover path { stroke: red; }
.edge:hover polygon { stroke: red; fill: red; }
]]></style>
<script type="text/javascript"><![CDATA[
var edges = document.getElementsByTagName('g');
if (edges && edges.length) {
  for (var i=0;i<edges.length;i++) {
    if (edges[i].id.substr(0,4)=='edge') {
      edges[i].setAttribute('class','edge');
    }
  }
}
]]></script>
        <defs>
                <circle id="rim" cx="0" cy="0" r="7"/>
                <circle id="rim2" cx="0" cy="0" r="3.5"/>
                <g id="zoomPlus">
                        <use xlink:href="#rim" fill="#404040">
                                <set attributeName="fill" to="#808080" begin="zoomplus.mouseover" end="zoomplus.mouseout"/>
                        </use>
                        <path d="M-4,0h8M0,-4v8" fill="none" stroke="white" stroke-width="1.5" pointer-events="none"/>
                </g>
                <g id="zoomMin">
                        <use xlink:href="#rim" fill="#404040">
                                <set attributeName="fill" to="#808080" begin="zoomminus.mouseover" end="zoomminus.mouseout"/>
                        </use>
                        <path d="M-4,0h8" fill="none" stroke="white" stroke-width="1.5" pointer-events="none"/>
                </g>
                <g id="dirArrow">
                        <path fill="none" stroke="white" stroke-width="1.5" d="M0,-3.0v7 M-2.5,-0.5L0,-3.0L2.5,-0.5"/>
                </g>
               <g id="resetDef">
                       <use xlink:href="#rim2" fill="#404040">
                               <set attributeName="fill" to="#808080" begin="reset.mouseover" end="reset.mouseout"/>
                       </use>
               </g>
        </defs>

<script type="text/javascript">
var viewWidth = 970;
var viewHeight = 677;
var sectionId = 'dynsection-0';
</script>
<script xlink:href="svgpan.js"/>
<svg id="graph" class="graph">
<g id="viewport">
<title>include/f/f_pc/f_pc_leaf.h</title>
<polygon fill="white" stroke="transparent" points="-4,4 -4,-673 965.5,-673 965.5,4 -4,4"/>
<!-- Node1 -->
<g id="node1" class="node">
<title>Node1</title>
<g id="a_node1"><a xlink:title=" ">
<polygon fill="#bfbfbf" stroke="black" points="734.5,-638.5 734.5,-668.5 831.5,-668.5 831.5,-638.5 734.5,-638.5"/>
<text text-anchor="start" x="742.5" y="-656.5" font-family="Helvetica,sans-Serif" font-size="10.00">include/f/f_pc/f_pc</text>
<text text-anchor="middle" x="783" y="-645.5" font-family="Helvetica,sans-Serif" font-size="10.00">_leaf.h</text>
</a>
</g>
</g>
<!-- Node2 -->
<g id="node2" class="node">
<title>Node2</title>
<g id="a_node2"><a xlink:href="f__pc__base_8h.html" target="_top" xlink:title=" ">
<polygon fill="white" stroke="black" points="405.5,-582.5 405.5,-601.5 502.5,-601.5 502.5,-582.5 405.5,-582.5"/>
<text text-anchor="middle" x="454" y="-589.5" font-family="Helvetica,sans-Serif" font-size="10.00">f/f_pc/f_pc_base.h</text>
</a>
</g>
</g>
<!-- Node1&#45;&gt;Node2 -->
<g id="edge1" class="edge">
<title>Node1&#45;&gt;Node2</title>
<path fill="none" stroke="midnightblue" d="M734.45,-643.72C675.02,-632.97 574.51,-614.79 511.33,-603.37"/>
<polygon fill="midnightblue" stroke="midnightblue" points="511.61,-599.86 501.14,-601.53 510.36,-606.75 511.61,-599.86"/>
</g>
<!-- Node6 -->
<g id="node6" class="node">
<title>Node6</title>
<g id="a_node6"><a xlink:href="global_8h.html" target="_top" xlink:title=" ">
<polygon fill="white" stroke="black" points="518,-168.5 518,-187.5 568,-187.5 568,-168.5 518,-168.5"/>
<text text-anchor="middle" x="543" y="-175.5" font-family="Helvetica,sans-Serif" font-size="10.00">global.h</text>
</a>
</g>
</g>
<!-- Node1&#45;&gt;Node6 -->
<g id="edge49" class="edge">
<title>Node1&#45;&gt;Node6</title>
<path fill="none" stroke="midnightblue" d="M786.66,-638.45C792.18,-616.02 802,-570.63 802,-531.5 802,-531.5 802,-531.5 802,-289 802,-193.05 649.53,-179.58 578.56,-178.51"/>
<polygon fill="midnightblue" stroke="midnightblue" points="578.33,-175.01 568.31,-178.43 578.28,-182.01 578.33,-175.01"/>
</g>
<!-- Node21 -->
<g id="node21" class="node">
<title>Node21</title>
<g id="a_node21"><a xlink:href="f__pc__method_8h.html" target="_top" xlink:title=" ">
<polygon fill="white" stroke="black" points="666,-454 666,-473 774,-473 774,-454 666,-454"/>
<text text-anchor="middle" x="720" y="-461" font-family="Helvetica,sans-Serif" font-size="10.00">f/f_pc/f_pc_method.h</text>
</a>
</g>
</g>
<!-- Node1&#45;&gt;Node21 -->
<g id="edge48" class="edge">
<title>Node1&#45;&gt;Node21</title>
<path fill="none" stroke="midnightblue" d="M778.73,-638.37C771.13,-613.36 754.56,-559.74 739,-515 735.24,-504.2 730.75,-492.22 727.08,-482.64"/>
<polygon fill="midnightblue" stroke="midnightblue" points="730.23,-481.09 723.36,-473.03 723.7,-483.62 730.23,-481.09"/>
</g>
<!-- Node22 -->
<g id="node22" class="node">
<title>Node22</title>
<g id="a_node22"><a xlink:href="f__pc__draw__priority_8h.html" target="_top" xlink:title=" ">
<polygon fill="white" stroke="black" points="830.5,-392.5 830.5,-411.5 961.5,-411.5 961.5,-392.5 830.5,-392.5"/>
<text text-anchor="middle" x="896" y="-399.5" font-family="Helvetica,sans-Serif" font-size="10.00">f/f_pc/f_pc_draw_priority.h</text>
</a>
</g>
</g>
<!-- Node1&#45;&gt;Node22 -->
<g id="edge46" class="edge">
<title>Node1&#45;&gt;Node22</title>
<path fill="none" stroke="midnightblue" d="M793.31,-638.37C800.25,-628.49 809.32,-614.82 816,-602 849.38,-537.96 878.1,-456.74 890.06,-421.13"/>
<polygon fill="midnightblue" stroke="midnightblue" points="893.39,-422.2 893.22,-411.61 886.75,-419.99 893.39,-422.2"/>
</g>
<!-- Node3 -->
<g id="node3" class="node">
<title>Node3</title>
<g id="a_node3"><a xlink:href="c__tag_8h.html" target="_top" xlink:title=" ">
<polygon fill="white" stroke="black" points="228.5,-392.5 228.5,-411.5 335.5,-411.5 335.5,-392.5 228.5,-392.5"/>
<text text-anchor="middle" x="282" y="-399.5" font-family="Helvetica,sans-Serif" font-size="10.00">SComponent/c_tag.h</text>
</a>
</g>
</g>
<!-- Node2&#45;&gt;Node3 -->
<g id="edge2" class="edge">
<title>Node2&#45;&gt;Node3</title>
<path fill="none" stroke="midnightblue" d="M405.36,-584.73C378.64,-578.9 346.81,-567.65 326,-546 292.64,-511.29 284.52,-451.9 282.58,-421.74"/>
<polygon fill="midnightblue" stroke="midnightblue" points="286.08,-421.55 282.1,-411.73 279.08,-421.89 286.08,-421.55"/>
</g>
<!-- Node2&#45;&gt;Node6 -->
<g id="edge21" class="edge">
<title>Node2&#45;&gt;Node6</title>
<path fill="none" stroke="midnightblue" d="M502.74,-582.49C526.41,-576.07 553.63,-564.99 572,-546 598.63,-518.47 600,-502.8 600,-464.5 600,-464.5 600,-464.5 600,-289 600,-252.3 574.68,-215.66 557.79,-195.3"/>
<polygon fill="midnightblue" stroke="midnightblue" points="560.35,-192.9 551.17,-187.62 555.05,-197.48 560.35,-192.9"/>
</g>
<!-- Node14 -->
<g id="node14" class="node">
<title>Node14</title>
<g id="a_node14"><a xlink:href="f__pc__delete__tag_8h.html" target="_top" xlink:title=" ">
<polygon fill="white" stroke="black" points="467.5,-515.5 467.5,-545.5 562.5,-545.5 562.5,-515.5 467.5,-515.5"/>
<text text-anchor="start" x="475.5" y="-533.5" font-family="Helvetica,sans-Serif" font-size="10.00">f/f_pc/f_pc_delete</text>
<text text-anchor="middle" x="515" y="-522.5" font-family="Helvetica,sans-Serif" font-size="10.00">_tag.h</text>
</a>
</g>
</g>
<!-- Node2&#45;&gt;Node14 -->
<g id="edge22" class="edge">
<title>Node2&#45;&gt;Node14</title>
<path fill="none" stroke="midnightblue" d="M462.74,-582.48C470.69,-574.72 482.76,-562.94 493.3,-552.66"/>
<polygon fill="midnightblue" stroke="midnightblue" points="495.91,-555.01 500.62,-545.52 491.02,-550 495.91,-555.01"/>
</g>
<!-- Node16 -->
<g id="node16" class="node">
<title>Node16</title>
<g id="a_node16"><a xlink:href="f__pc__layer__tag_8h.html" target="_top" xlink:title=" ">
<polygon fill="white" stroke="black" points="334.5,-521 334.5,-540 449.5,-540 449.5,-521 334.5,-521"/>
<text text-anchor="middle" x="392" y="-528" font-family="Helvetica,sans-Serif" font-size="10.00">f/f_pc/f_pc_layer_tag.h</text>
</a>
</g>
</g>
<!-- Node2&#45;&gt;Node16 -->
<g id="edge30" class="edge">
<title>Node2&#45;&gt;Node16</title>
<path fill="none" stroke="midnightblue" d="M445.12,-582.48C435.54,-573.28 420.09,-558.46 408.31,-547.16"/>
<polygon fill="midnightblue" stroke="midnightblue" points="410.51,-544.41 400.87,-540.01 405.66,-549.46 410.51,-544.41"/>
</g>
<!-- Node17 -->
<g id="node17" class="node">
<title>Node17</title>
<g id="a_node17"><a xlink:href="f__pc__line__tag_8h.html" target="_top" xlink:title=" ">
<polygon fill="white" stroke="black" points="0,-454 0,-473 110,-473 110,-454 0,-454"/>
<text text-anchor="middle" x="55" y="-461" font-family="Helvetica,sans-Serif" font-size="10.00">f/f_pc/f_pc_line_tag.h</text>
</a>
</g>
</g>
<!-- Node2&#45;&gt;Node17 -->
<g id="edge34" class="edge">
<title>Node2&#45;&gt;Node17</title>
<path fill="none" stroke="midnightblue" d="M405.48,-591.45C344.47,-590.31 237.69,-582.59 155,-546 120.21,-530.61 87.56,-499.76 69.53,-480.74"/>
<polygon fill="midnightblue" stroke="midnightblue" points="71.88,-478.13 62.52,-473.17 66.74,-482.89 71.88,-478.13"/>
</g>
<!-- Node18 -->
<g id="node18" class="node">
<title>Node18</title>
<g id="a_node18"><a xlink:href="f__pc__priority_8h.html" target="_top" xlink:title=" ">
<polygon fill="white" stroke="black" points="164,-521 164,-540 268,-540 268,-521 164,-521"/>
<text text-anchor="middle" x="216" y="-528" font-family="Helvetica,sans-Serif" font-size="10.00">f/f_pc/f_pc_priority.h</text>
</a>
</g>
</g>
<!-- Node2&#45;&gt;Node18 -->
<g id="edge37" class="edge">
<title>Node2&#45;&gt;Node18</title>
<path fill="none" stroke="midnightblue" d="M419.9,-582.48C377.75,-571.94 305.95,-553.99 259.77,-542.44"/>
<polygon fill="midnightblue" stroke="midnightblue" points="260.59,-539.04 250.04,-540.01 258.89,-545.83 260.59,-539.04"/>
</g>
<!-- Node20 -->
<g id="node20" class="node">
<title>Node20</title>
<g id="a_node20"><a xlink:href="f__pc__profile_8h.html" target="_top" xlink:title=" ">
<polygon fill="white" stroke="black" points="628.5,-521 628.5,-540 729.5,-540 729.5,-521 628.5,-521"/>
<text text-anchor="middle" x="679" y="-528" font-family="Helvetica,sans-Serif" font-size="10.00">f/f_pc/f_pc_profile.h</text>
</a>
</g>
</g>
<!-- Node2&#45;&gt;Node20 -->
<g id="edge42" class="edge">
<title>Node2&#45;&gt;Node20</title>
<path fill="none" stroke="midnightblue" d="M486.24,-582.48C525.92,-571.98 593.4,-554.14 637.07,-542.59"/>
<polygon fill="midnightblue" stroke="midnightblue" points="638.05,-545.95 646.82,-540.01 636.26,-539.18 638.05,-545.95"/>
</g>
<!-- Node4 -->
<g id="node4" class="node">
<title>Node4</title>
<g id="a_node4"><a xlink:href="c__list_8h.html" target="_top" xlink:title=" ">
<polygon fill="white" stroke="black" points="272.5,-280.5 272.5,-299.5 379.5,-299.5 379.5,-280.5 272.5,-280.5"/>
<text text-anchor="middle" x="326" y="-287.5" font-family="Helvetica,sans-Serif" font-size="10.00">SComponent/c_list.h</text>
</a>
</g>
</g>
<!-- Node3&#45;&gt;Node4 -->
<g id="edge3" class="edge">
<title>Node3&#45;&gt;Node4</title>
<path fill="none" stroke="midnightblue" d="M283.87,-392.38C286.76,-379.73 292.84,-355.53 301,-336 304.96,-326.52 310.41,-316.47 315.21,-308.29"/>
<polygon fill="midnightblue" stroke="midnightblue" points="318.24,-310.04 320.42,-299.67 312.25,-306.42 318.24,-310.04"/>
</g>
<!-- Node5 -->
<g id="node5" class="node">
<title>Node5</title>
<g id="a_node5"><a xlink:href="c__node_8h.html" target="_top" xlink:title=" ">
<polygon fill="white" stroke="black" points="342.5,-224.5 342.5,-243.5 457.5,-243.5 457.5,-224.5 342.5,-224.5"/>
<text text-anchor="middle" x="400" y="-231.5" font-family="Helvetica,sans-Serif" font-size="10.00">SComponent/c_node.h</text>
</a>
</g>
</g>
<!-- Node3&#45;&gt;Node5 -->
<g id="edge16" class="edge">
<title>Node3&#45;&gt;Node5</title>
<path fill="none" stroke="midnightblue" d="M276.93,-392.4C265.12,-371.1 238.63,-315.12 264,-280 279.75,-258.2 306.46,-246.79 332.07,-240.88"/>
<polygon fill="midnightblue" stroke="midnightblue" points="333.08,-244.24 342.18,-238.8 331.68,-237.38 333.08,-244.24"/>
</g>
<!-- Node3&#45;&gt;Node6 -->
<g id="edge20" class="edge">
<title>Node3&#45;&gt;Node6</title>
<path fill="none" stroke="midnightblue" d="M273.52,-392.23C265.95,-383.75 255.4,-370.13 251,-356 240.97,-323.75 235.14,-309.83 251,-280 271.89,-240.71 293.06,-241.44 334,-224 392.08,-199.25 465.24,-187.53 507.8,-182.44"/>
<polygon fill="midnightblue" stroke="midnightblue" points="508.4,-185.9 517.94,-181.29 507.61,-178.94 508.4,-185.9"/>
</g>
<!-- Node13 -->
<g id="node13" class="node">
<title>Node13</title>
<g id="a_node13"><a xlink:href="c__tree_8h.html" target="_top" xlink:title=" ">
<polygon fill="white" stroke="black" points="310,-336.5 310,-355.5 420,-355.5 420,-336.5 310,-336.5"/>
<text text-anchor="middle" x="365" y="-343.5" font-family="Helvetica,sans-Serif" font-size="10.00">SComponent/c_tree.h</text>
</a>
</g>
</g>
<!-- Node3&#45;&gt;Node13 -->
<g id="edge17" class="edge">
<title>Node3&#45;&gt;Node13</title>
<path fill="none" stroke="midnightblue" d="M295.34,-392.32C308.16,-383.98 327.78,-371.21 342.94,-361.35"/>
<polygon fill="midnightblue" stroke="midnightblue" points="345.22,-364.04 351.7,-355.65 341.41,-358.17 345.22,-364.04"/>
</g>
<!-- Node4&#45;&gt;Node5 -->
<g id="edge4" class="edge">
<title>Node4&#45;&gt;Node5</title>
<path fill="none" stroke="midnightblue" d="M337.89,-280.32C349.15,-272.11 366.29,-259.6 379.71,-249.81"/>
<polygon fill="midnightblue" stroke="midnightblue" points="381.88,-252.56 387.89,-243.83 377.75,-246.9 381.88,-252.56"/>
</g>
<!-- Node5&#45;&gt;Node6 -->
<g id="edge5" class="edge">
<title>Node5&#45;&gt;Node6</title>
<path fill="none" stroke="midnightblue" d="M422.66,-224.44C446.4,-215.48 483.91,-201.31 510.74,-191.18"/>
<polygon fill="midnightblue" stroke="midnightblue" points="512.33,-194.32 520.45,-187.52 509.86,-187.77 512.33,-194.32"/>
</g>
<!-- Node7 -->
<g id="node7" class="node">
<title>Node7</title>
<g id="a_node7"><a xlink:href="types_8h.html" target="_top" xlink:title=" ">
<polygon fill="white" stroke="black" points="535.5,-0.5 535.5,-19.5 616.5,-19.5 616.5,-0.5 535.5,-0.5"/>
<text text-anchor="middle" x="576" y="-7.5" font-family="Helvetica,sans-Serif" font-size="10.00">dolphin/types.h</text>
</a>
</g>
</g>
<!-- Node6&#45;&gt;Node7 -->
<g id="edge6" class="edge">
<title>Node6&#45;&gt;Node7</title>
<path fill="none" stroke="midnightblue" d="M530.85,-168.31C504.22,-148.17 445.12,-96.92 472,-56 484.07,-37.63 505.41,-26.72 525.63,-20.26"/>
<polygon fill="midnightblue" stroke="midnightblue" points="526.79,-23.57 535.42,-17.44 524.85,-16.85 526.79,-23.57"/>
</g>
<!-- Node8 -->
<g id="node8" class="node">
<title>Node8</title>
<g id="a_node8"><a xlink:href="AR_8h.html" target="_top" xlink:title=" ">
<polygon fill="white" stroke="black" points="480.5,-56.5 480.5,-75.5 529.5,-75.5 529.5,-56.5 480.5,-56.5"/>
<text text-anchor="middle" x="505" y="-63.5" font-family="Helvetica,sans-Serif" font-size="10.00">ar/AR.h</text>
</a>
</g>
</g>
<!-- Node6&#45;&gt;Node8 -->
<g id="edge7" class="edge">
<title>Node6&#45;&gt;Node8</title>
<path fill="none" stroke="midnightblue" d="M540.02,-168.37C533.86,-150.54 519.61,-109.3 511.31,-85.27"/>
<polygon fill="midnightblue" stroke="midnightblue" points="514.54,-83.9 507.97,-75.59 507.93,-86.19 514.54,-83.9"/>
</g>
<!-- Node9 -->
<g id="node9" class="node">
<title>Node9</title>
<g id="a_node9"><a xlink:href="ARQ_8h.html" target="_top" xlink:title=" ">
<polygon fill="white" stroke="black" points="548,-56.5 548,-75.5 604,-75.5 604,-56.5 548,-56.5"/>
<text text-anchor="middle" x="576" y="-63.5" font-family="Helvetica,sans-Serif" font-size="10.00">ar/ARQ.h</text>
</a>
</g>
</g>
<!-- Node6&#45;&gt;Node9 -->
<g id="edge9" class="edge">
<title>Node6&#45;&gt;Node9</title>
<path fill="none" stroke="midnightblue" d="M545.53,-168.15C549.13,-155.63 555.96,-132.04 562,-112 564.66,-103.18 567.69,-93.41 570.25,-85.23"/>
<polygon fill="midnightblue" stroke="midnightblue" points="573.61,-86.2 573.27,-75.61 566.94,-84.1 573.61,-86.2"/>
</g>
<!-- Node10 -->
<g id="node10" class="node">
<title>Node10</title>
<g id="a_node10"><a xlink:href="mwcc_8h.html" target="_top" xlink:title=" ">
<polygon fill="white" stroke="black" points="571,-112.5 571,-131.5 621,-131.5 621,-112.5 571,-112.5"/>
<text text-anchor="middle" x="596" y="-119.5" font-family="Helvetica,sans-Serif" font-size="10.00">mwcc.h</text>
</a>
</g>
</g>
<!-- Node6&#45;&gt;Node10 -->
<g id="edge11" class="edge">
<title>Node6&#45;&gt;Node10</title>
<path fill="none" stroke="midnightblue" d="M551.75,-168.08C559.47,-160.22 570.9,-148.57 580.22,-139.08"/>
<polygon fill="midnightblue" stroke="midnightblue" points="582.9,-141.34 587.41,-131.75 577.91,-136.44 582.9,-141.34"/>
</g>
<!-- Node11 -->
<g id="node11" class="node">
<title>Node11</title>
<g id="a_node11"><a xlink:href="OS_8h.html" target="_top" xlink:title=" ">
<polygon fill="white" stroke="black" points="639,-112.5 639,-131.5 691,-131.5 691,-112.5 639,-112.5"/>
<text text-anchor="middle" x="665" y="-119.5" font-family="Helvetica,sans-Serif" font-size="10.00">os/OS.h</text>
</a>
</g>
</g>
<!-- Node6&#45;&gt;Node11 -->
<g id="edge12" class="edge">
<title>Node6&#45;&gt;Node11</title>
<path fill="none" stroke="midnightblue" d="M562.33,-168.44C582.32,-159.6 613.74,-145.69 636.56,-135.59"/>
<polygon fill="midnightblue" stroke="midnightblue" points="638.03,-138.76 645.76,-131.52 635.2,-132.36 638.03,-138.76"/>
</g>
<!-- Node8&#45;&gt;Node7 -->
<g id="edge8" class="edge">
<title>Node8&#45;&gt;Node7</title>
<path fill="none" stroke="midnightblue" d="M516.41,-56.32C527.11,-48.18 543.34,-35.84 556.16,-26.09"/>
<polygon fill="midnightblue" stroke="midnightblue" points="558.54,-28.67 564.39,-19.83 554.31,-23.1 558.54,-28.67"/>
</g>
<!-- Node9&#45;&gt;Node7 -->
<g id="edge10" class="edge">
<title>Node9&#45;&gt;Node7</title>
<path fill="none" stroke="midnightblue" d="M576,-56.08C576,-49.01 576,-38.86 576,-29.99"/>
<polygon fill="midnightblue" stroke="midnightblue" points="579.5,-29.75 576,-19.75 572.5,-29.75 579.5,-29.75"/>
</g>
<!-- Node11&#45;&gt;Node7 -->
<g id="edge13" class="edge">
<title>Node11&#45;&gt;Node7</title>
<path fill="none" stroke="midnightblue" d="M673.39,-112.43C685.07,-99.42 703.47,-74.27 691,-56 676.51,-34.77 650.38,-23.56 626.68,-17.63"/>
<polygon fill="midnightblue" stroke="midnightblue" points="627.23,-14.17 616.71,-15.4 625.71,-21 627.23,-14.17"/>
</g>
<!-- Node12 -->
<g id="node12" class="node">
<title>Node12</title>
<g id="a_node12"><a xlink:href="dvd_8h.html" target="_top" xlink:title=" ">
<polygon fill="white" stroke="black" points="622.5,-56.5 622.5,-75.5 681.5,-75.5 681.5,-56.5 622.5,-56.5"/>
<text text-anchor="middle" x="652" y="-63.5" font-family="Helvetica,sans-Serif" font-size="10.00">dvd/dvd.h</text>
</a>
</g>
</g>
<!-- Node11&#45;&gt;Node12 -->
<g id="edge14" class="edge">
<title>Node11&#45;&gt;Node12</title>
<path fill="none" stroke="midnightblue" d="M662.85,-112.08C661.13,-104.93 658.65,-94.64 656.5,-85.69"/>
<polygon fill="midnightblue" stroke="midnightblue" points="659.85,-84.65 654.11,-75.75 653.04,-86.29 659.85,-84.65"/>
</g>
<!-- Node12&#45;&gt;Node7 -->
<g id="edge15" class="edge">
<title>Node12&#45;&gt;Node7</title>
<path fill="none" stroke="midnightblue" d="M639.79,-56.32C628.22,-48.11 610.62,-35.6 596.84,-25.81"/>
<polygon fill="midnightblue" stroke="midnightblue" points="598.61,-22.77 588.43,-19.83 594.56,-28.48 598.61,-22.77"/>
</g>
<!-- Node13&#45;&gt;Node4 -->
<g id="edge18" class="edge">
<title>Node13&#45;&gt;Node4</title>
<path fill="none" stroke="midnightblue" d="M358.56,-336.08C353.05,-328.46 344.97,-317.26 338.24,-307.94"/>
<polygon fill="midnightblue" stroke="midnightblue" points="341.01,-305.81 332.32,-299.75 335.34,-309.91 341.01,-305.81"/>
</g>
<!-- Node13&#45;&gt;Node5 -->
<g id="edge19" class="edge">
<title>Node13&#45;&gt;Node5</title>
<path fill="none" stroke="midnightblue" d="M370.66,-336.42C376.19,-327.63 384.43,-313.41 389,-300 394.15,-284.92 396.95,-267.02 398.43,-253.82"/>
<polygon fill="midnightblue" stroke="midnightblue" points="401.94,-253.92 399.43,-243.63 394.97,-253.24 401.94,-253.92"/>
</g>
<!-- Node14&#45;&gt;Node3 -->
<g id="edge23" class="edge">
<title>Node14&#45;&gt;Node3</title>
<path fill="none" stroke="midnightblue" d="M473.32,-515.48C448.68,-506.48 417.25,-493.73 391,-479 370.77,-467.65 367.97,-461.36 349,-448 334.11,-437.51 317.06,-426.07 303.89,-417.35"/>
<polygon fill="midnightblue" stroke="midnightblue" points="305.74,-414.38 295.47,-411.79 301.89,-420.22 305.74,-414.38"/>
</g>
<!-- Node14&#45;&gt;Node6 -->
<g id="edge29" class="edge">
<title>Node14&#45;&gt;Node6</title>
<path fill="none" stroke="midnightblue" d="M524.06,-515.34C537.72,-492.6 562,-446.11 562,-403 562,-403 562,-403 562,-289 562,-256.49 553.84,-219.35 548.22,-197.61"/>
<polygon fill="midnightblue" stroke="midnightblue" points="551.54,-196.5 545.56,-187.75 544.78,-198.32 551.54,-196.5"/>
</g>
<!-- Node15 -->
<g id="node15" class="node">
<title>Node15</title>
<g id="a_node15"><a xlink:href="f__pc__layer_8h.html" target="_top" xlink:title=" ">
<polygon fill="white" stroke="black" points="400,-454 400,-473 496,-473 496,-454 400,-454"/>
<text text-anchor="middle" x="448" y="-461" font-family="Helvetica,sans-Serif" font-size="10.00">f/f_pc/f_pc_layer.h</text>
</a>
</g>
</g>
<!-- Node14&#45;&gt;Node15 -->
<g id="edge24" class="edge">
<title>Node14&#45;&gt;Node15</title>
<path fill="none" stroke="midnightblue" d="M500.46,-515.4C489.81,-505.06 475.34,-491.02 464.3,-480.31"/>
<polygon fill="midnightblue" stroke="midnightblue" points="466.58,-477.65 456.96,-473.19 461.7,-482.67 466.58,-477.65"/>
</g>
<!-- Node15&#45;&gt;Node3 -->
<g id="edge26" class="edge">
<title>Node15&#45;&gt;Node3</title>
<path fill="none" stroke="midnightblue" d="M424.22,-453.98C395.62,-443.72 347.45,-426.46 315.2,-414.9"/>
<polygon fill="midnightblue" stroke="midnightblue" points="316.33,-411.59 305.74,-411.51 313.97,-418.18 316.33,-411.59"/>
</g>
<!-- Node15&#45;&gt;Node5 -->
<g id="edge25" class="edge">
<title>Node15&#45;&gt;Node5</title>
<path fill="none" stroke="midnightblue" d="M447.09,-453.84C444.86,-433.25 438.54,-379.83 429,-336 422.62,-306.67 412.46,-273.32 406.02,-253.24"/>
<polygon fill="midnightblue" stroke="midnightblue" points="409.29,-251.98 402.87,-243.55 402.63,-254.14 409.29,-251.98"/>
</g>
<!-- Node15&#45;&gt;Node6 -->
<g id="edge28" class="edge">
<title>Node15&#45;&gt;Node6</title>
<path fill="none" stroke="midnightblue" d="M452.97,-453.84C463.27,-435.03 486,-388.8 486,-347 486,-347 486,-347 486,-289 486,-252.3 511.32,-215.66 528.21,-195.3"/>
<polygon fill="midnightblue" stroke="midnightblue" points="530.95,-197.48 534.83,-187.62 525.65,-192.9 530.95,-197.48"/>
</g>
<!-- Node15&#45;&gt;Node13 -->
<g id="edge27" class="edge">
<title>Node15&#45;&gt;Node13</title>
<path fill="none" stroke="midnightblue" d="M441.76,-453.82C428.06,-434.76 395.14,-388.95 377.19,-363.96"/>
<polygon fill="midnightblue" stroke="midnightblue" points="379.99,-361.86 371.31,-355.78 374.3,-365.95 379.99,-361.86"/>
</g>
<!-- Node16&#45;&gt;Node3 -->
<g id="edge31" class="edge">
<title>Node16&#45;&gt;Node3</title>
<path fill="none" stroke="midnightblue" d="M384.44,-520.81C366.31,-499.95 320.1,-446.81 296.44,-419.61"/>
<polygon fill="midnightblue" stroke="midnightblue" points="298.82,-417.01 289.61,-411.76 293.53,-421.6 298.82,-417.01"/>
</g>
<!-- Node16&#45;&gt;Node6 -->
<g id="edge33" class="edge">
<title>Node16&#45;&gt;Node6</title>
<path fill="none" stroke="midnightblue" d="M432.2,-520.98C456.63,-513.77 486.57,-500.98 505,-479 527.37,-452.32 524,-437.82 524,-403 524,-403 524,-403 524,-289 524,-256.49 532.16,-219.35 537.78,-197.61"/>
<polygon fill="midnightblue" stroke="midnightblue" points="541.22,-198.32 540.44,-187.75 534.46,-196.5 541.22,-198.32"/>
</g>
<!-- Node16&#45;&gt;Node15 -->
<g id="edge32" class="edge">
<title>Node16&#45;&gt;Node15</title>
<path fill="none" stroke="midnightblue" d="M399.55,-520.73C408.28,-510.6 422.85,-493.69 433.74,-481.06"/>
<polygon fill="midnightblue" stroke="midnightblue" points="436.69,-482.99 440.57,-473.13 431.39,-478.42 436.69,-482.99"/>
</g>
<!-- Node17&#45;&gt;Node3 -->
<g id="edge35" class="edge">
<title>Node17&#45;&gt;Node3</title>
<path fill="none" stroke="midnightblue" d="M87.52,-453.98C127.56,-443.48 195.64,-425.64 239.7,-414.09"/>
<polygon fill="midnightblue" stroke="midnightblue" points="240.75,-417.43 249.54,-411.51 238.98,-410.66 240.75,-417.43"/>
</g>
<!-- Node17&#45;&gt;Node6 -->
<g id="edge36" class="edge">
<title>Node17&#45;&gt;Node6</title>
<path fill="none" stroke="midnightblue" d="M59.97,-453.84C70.27,-435.03 93,-388.8 93,-347 93,-347 93,-347 93,-289 93,-203.76 401.52,-184.26 507.64,-180.08"/>
<polygon fill="midnightblue" stroke="midnightblue" points="507.98,-183.57 517.84,-179.7 507.72,-176.57 507.98,-183.57"/>
</g>
<!-- Node18&#45;&gt;Node3 -->
<g id="edge38" class="edge">
<title>Node18&#45;&gt;Node3</title>
<path fill="none" stroke="midnightblue" d="M220.54,-520.81C231.27,-500.22 258.42,-448.19 272.78,-420.68"/>
<polygon fill="midnightblue" stroke="midnightblue" points="275.91,-422.24 277.43,-411.76 269.7,-419 275.91,-422.24"/>
</g>
<!-- Node19 -->
<g id="node19" class="node">
<title>Node19</title>
<g id="a_node19"><a xlink:href="f__pc__method__tag_8h.html" target="_top" xlink:title=" ">
<polygon fill="white" stroke="black" points="128.5,-448.5 128.5,-478.5 229.5,-478.5 229.5,-448.5 128.5,-448.5"/>
<text text-anchor="start" x="136.5" y="-466.5" font-family="Helvetica,sans-Serif" font-size="10.00">f/f_pc/f_pc_method</text>
<text text-anchor="middle" x="179" y="-455.5" font-family="Helvetica,sans-Serif" font-size="10.00">_tag.h</text>
</a>
</g>
</g>
<!-- Node18&#45;&gt;Node19 -->
<g id="edge39" class="edge">
<title>Node18&#45;&gt;Node19</title>
<path fill="none" stroke="midnightblue" d="M211.01,-520.73C206.15,-512.2 198.57,-498.87 192,-487.33"/>
<polygon fill="midnightblue" stroke="midnightblue" points="195.01,-485.55 187.02,-478.59 188.93,-489.01 195.01,-485.55"/>
</g>
<!-- Node19&#45;&gt;Node3 -->
<g id="edge40" class="edge">
<title>Node19&#45;&gt;Node3</title>
<path fill="none" stroke="midnightblue" d="M203.41,-448.4C219.92,-438.86 241.62,-426.32 258.04,-416.84"/>
<polygon fill="midnightblue" stroke="midnightblue" points="260.1,-419.69 267.01,-411.66 256.6,-413.63 260.1,-419.69"/>
</g>
<!-- Node19&#45;&gt;Node6 -->
<g id="edge41" class="edge">
<title>Node19&#45;&gt;Node6</title>
<path fill="none" stroke="midnightblue" d="M176.77,-448.32C173.56,-426.57 168,-383.66 168,-347 168,-347 168,-347 168,-289 168,-218.61 414.38,-190.06 507.72,-181.77"/>
<polygon fill="midnightblue" stroke="midnightblue" points="508.15,-185.24 517.81,-180.9 507.55,-178.27 508.15,-185.24"/>
</g>
<!-- Node20&#45;&gt;Node6 -->
<g id="edge45" class="edge">
<title>Node20&#45;&gt;Node6</title>
<path fill="none" stroke="midnightblue" d="M674.14,-520.92C663.28,-500.92 638,-449.4 638,-403 638,-403 638,-403 638,-289 638,-258.2 633.36,-247.95 614,-224 603.01,-210.41 586.77,-199.68 572.59,-192.12"/>
<polygon fill="midnightblue" stroke="midnightblue" points="574.15,-188.99 563.64,-187.61 570.99,-195.24 574.15,-188.99"/>
</g>
<!-- Node20&#45;&gt;Node21 -->
<g id="edge43" class="edge">
<title>Node20&#45;&gt;Node21</title>
<path fill="none" stroke="midnightblue" d="M684.53,-520.73C690.8,-510.79 701.18,-494.34 709.09,-481.79"/>
<polygon fill="midnightblue" stroke="midnightblue" points="712.18,-483.45 714.56,-473.13 706.26,-479.72 712.18,-483.45"/>
</g>
<!-- Node21&#45;&gt;Node6 -->
<g id="edge44" class="edge">
<title>Node21&#45;&gt;Node6</title>
<path fill="none" stroke="midnightblue" d="M717.21,-453.91C711.29,-434.88 698,-387.62 698,-347 698,-347 698,-347 698,-289 698,-230.56 623.82,-200.33 578.09,-187.25"/>
<polygon fill="midnightblue" stroke="midnightblue" points="578.82,-183.82 568.25,-184.57 576.98,-190.58 578.82,-183.82"/>
</g>
<!-- Node22&#45;&gt;Node6 -->
<g id="edge47" class="edge">
<title>Node22&#45;&gt;Node6</title>
<path fill="none" stroke="midnightblue" d="M894.93,-392.23C890.85,-362.99 873.51,-268.16 816,-224 779.37,-195.87 643.73,-184.61 578.5,-180.75"/>
<polygon fill="midnightblue" stroke="midnightblue" points="578.47,-177.24 568.29,-180.17 578.07,-184.23 578.47,-177.24"/>
</g>
</g>
</svg>
        <g id="navigator" transform="translate(0 0)" fill="#404254">
                <rect fill="#f2f5e9" fill-opacity="0.5" stroke="#606060" stroke-width=".5" x="0" y="0" width="60" height="60"/>
                <use id="zoomplus" xlink:href="#zoomPlus" x="17" y="9" onmousedown="handleZoom(evt,'in')"/>
                <use id="zoomminus" xlink:href="#zoomMin" x="42" y="9" onmousedown="handleZoom(evt,'out')"/>
                <use id="reset" xlink:href="#resetDef" x="30" y="36" onmousedown="handleReset()"/>
                <g id="arrowUp" xlink:href="#dirArrow" transform="translate(30 24)" onmousedown="handlePan(0,-1)">
                  <use xlink:href="#rim" fill="#404040">
                        <set attributeName="fill" to="#808080" begin="arrowUp.mouseover" end="arrowUp.mouseout"/>
                  </use>
                  <path fill="none" stroke="white" stroke-width="1.5" d="M0,-3.0v7 M-2.5,-0.5L0,-3.0L2.5,-0.5"/>
                </g>
                <g id="arrowRight" xlink:href="#dirArrow" transform="rotate(90) translate(36 -43)" onmousedown="handlePan(1,0)">
                  <use xlink:href="#rim" fill="#404040">
                        <set attributeName="fill" to="#808080" begin="arrowRight.mouseover" end="arrowRight.mouseout"/>
                  </use>
                  <path fill="none" stroke="white" stroke-width="1.5" d="M0,-3.0v7 M-2.5,-0.5L0,-3.0L2.5,-0.5"/>
                </g>
                <g id="arrowDown" xlink:href="#dirArrow" transform="rotate(180) translate(-30 -48)" onmousedown="handlePan(0,1)">
                  <use xlink:href="#rim" fill="#404040">
                        <set attributeName="fill" to="#808080" begin="arrowDown.mouseover" end="arrowDown.mouseout"/>
                  </use>
                  <path fill="none" stroke="white" stroke-width="1.5" d="M0,-3.0v7 M-2.5,-0.5L0,-3.0L2.5,-0.5"/>
                </g>
                <g id="arrowLeft" xlink:href="#dirArrow" transform="rotate(270) translate(-36 17)" onmousedown="handlePan(-1,0)">
                  <use xlink:href="#rim" fill="#404040">
                        <set attributeName="fill" to="#808080" begin="arrowLeft.mouseover" end="arrowLeft.mouseout"/>
                  </use>
                  <path fill="none" stroke="white" stroke-width="1.5" d="M0,-3.0v7 M-2.5,-0.5L0,-3.0L2.5,-0.5"/>
                </g>
        </g>
        <svg viewBox="0 0 15 15" width="100%" height="30px" preserveAspectRatio="xMaxYMin meet">
         <g id="arrow_out" transform="scale(0.3 0.3)">
          <a xlink:href="f__pc__leaf_8h__incl_org.svg" target="_base">
           <rect id="button" ry="5" rx="5" y="6" x="6" height="38" width="38"
                fill="#f2f5e9" fill-opacity="0.5" stroke="#606060" stroke-width="1.0"/>
           <path id="arrow"
             d="M 11.500037,31.436501 C 11.940474,20.09759 22.043105,11.32322 32.158766,21.979434 L 37.068811,17.246167 C 37.068811,17.246167 37.088388,32 37.088388,32 L 22.160133,31.978069 C 22.160133,31.978069 26.997745,27.140456 26.997745,27.140456 C 18.528582,18.264221 13.291696,25.230495 11.500037,31.436501 z"
             style="fill:#404040;"/>
          </a>
         </g>
        </svg>
</svg>
