<?xml version="1.0" encoding="UTF-8" standalone="no"?>
<!DOCTYPE svg PUBLIC "-//W3C//DTD SVG 1.1//EN"
 "http://www.w3.org/Graphics/SVG/1.1/DTD/svg11.dtd">
<!-- Generated by graphviz version 2.44.0 ()
 -->
<!-- Title: include/f/f_pc/f_pc_node_req.h Pages: 1 -->
<svg width="1280pt" height="296pt"
 viewBox="0.00 0.00 1280.00 296.00" xmlns="http://www.w3.org/2000/svg" xmlns:xlink="http://www.w3.org/1999/xlink">
<g id="graph0" class="graph" transform="scale(1 1) rotate(0) translate(4 292)">
<title>include/f/f_pc/f_pc_node_req.h</title>
<polygon fill="white" stroke="transparent" points="-4,4 -4,-292 1276,-292 1276,4 -4,4"/>
<!-- Node1 -->
<g id="node1" class="node">
<title>Node1</title>
<g id="a_node1"><a xlink:title=" ">
<polygon fill="#bfbfbf" stroke="black" points="281,-257.5 281,-287.5 378,-287.5 378,-257.5 281,-257.5"/>
<text text-anchor="start" x="289" y="-275.5" font-family="Helvetica,sans-Serif" font-size="10.00">include/f/f_pc/f_pc</text>
<text text-anchor="middle" x="329.5" y="-264.5" font-family="Helvetica,sans-Serif" font-size="10.00">_node_req.h</text>
</a>
</g>
</g>
<!-- Node2 -->
<g id="node2" class="node">
<title>Node2</title>
<g id="a_node2"><a xlink:href="f__pc__manager_8cpp.html" target="_top" xlink:title=" ">
<polygon fill="white" stroke="black" points="286.5,-129 286.5,-148 426.5,-148 426.5,-129 286.5,-129"/>
<text text-anchor="middle" x="356.5" y="-136" font-family="Helvetica,sans-Serif" font-size="10.00">src/f/f_pc/f_pc_manager.cpp</text>
</a>
</g>
</g>
<!-- Node1&#45;&gt;Node2 -->
<g id="edge1" class="edge">
<title>Node1&#45;&gt;Node2</title>
<path fill="none" stroke="midnightblue" d="M341.65,-248.25C345.48,-239.88 349.28,-230.22 351.5,-221 357.73,-195.09 357.51,-163.28 356.95,-148.21"/>
<polygon fill="midnightblue" stroke="midnightblue" points="338.44,-246.85 337.25,-257.38 344.75,-249.9 338.44,-246.85"/>
</g>
<!-- Node3 -->
<g id="node3" class="node">
<title>Node3</title>
<g id="a_node3"><a xlink:href="f__pc__node__req_8cpp.html" target="_top" xlink:title=" ">
<polygon fill="white" stroke="black" points="236.5,-190.5 236.5,-220.5 342.5,-220.5 342.5,-190.5 236.5,-190.5"/>
<text text-anchor="start" x="244.5" y="-208.5" font-family="Helvetica,sans-Serif" font-size="10.00">src/f/f_pc/f_pc_node</text>
<text text-anchor="middle" x="289.5" y="-197.5" font-family="Helvetica,sans-Serif" font-size="10.00">_req.cpp</text>
</a>
</g>
</g>
<!-- Node1&#45;&gt;Node3 -->
<g id="edge2" class="edge">
<title>Node1&#45;&gt;Node3</title>
<path fill="none" stroke="midnightblue" d="M315.57,-248.87C309.78,-239.46 303.24,-228.83 298.16,-220.58"/>
<polygon fill="midnightblue" stroke="midnightblue" points="312.6,-250.71 320.82,-257.4 318.56,-247.05 312.6,-250.71"/>
</g>
<!-- Node4 -->
<g id="node4" class="node">
<title>Node4</title>
<g id="a_node4"><a xlink:href="f__op__scene__req_8h.html" target="_top" xlink:title=" ">
<polygon fill="white" stroke="black" points="122,-190.5 122,-220.5 219,-220.5 219,-190.5 122,-190.5"/>
<text text-anchor="start" x="130" y="-208.5" font-family="Helvetica,sans-Serif" font-size="10.00">include/f/f_op/f_op</text>
<text text-anchor="middle" x="170.5" y="-197.5" font-family="Helvetica,sans-Serif" font-size="10.00">_scene_req.h</text>
</a>
</g>
</g>
<!-- Node1&#45;&gt;Node4 -->
<g id="edge3" class="edge">
<title>Node1&#45;&gt;Node4</title>
<path fill="none" stroke="midnightblue" d="M285.58,-253.54C260.13,-243.14 228.57,-230.24 204.93,-220.58"/>
<polygon fill="midnightblue" stroke="midnightblue" points="284.42,-256.85 295,-257.4 287.07,-250.37 284.42,-256.85"/>
</g>
<!-- Node7 -->
<g id="node7" class="node">
<title>Node7</title>
<g id="a_node7"><a xlink:href="f__pc__manager_8h.html" target="_top" xlink:title=" ">
<polygon fill="white" stroke="black" points="708,-190.5 708,-220.5 805,-220.5 805,-190.5 708,-190.5"/>
<text text-anchor="start" x="716" y="-208.5" font-family="Helvetica,sans-Serif" font-size="10.00">include/f/f_pc/f_pc</text>
<text text-anchor="middle" x="756.5" y="-197.5" font-family="Helvetica,sans-Serif" font-size="10.00">_manager.h</text>
</a>
</g>
</g>
<!-- Node1&#45;&gt;Node7 -->
<g id="edge6" class="edge">
<title>Node1&#45;&gt;Node7</title>
<path fill="none" stroke="midnightblue" d="M388.07,-262.58C473.06,-249.65 629.03,-225.9 707.98,-213.89"/>
<polygon fill="midnightblue" stroke="midnightblue" points="387.43,-259.14 378.07,-264.11 388.48,-266.06 387.43,-259.14"/>
</g>
<!-- Node5 -->
<g id="node5" class="node">
<title>Node5</title>
<g id="a_node5"><a xlink:href="f__op__scene__mng_8cpp.html" target="_top" xlink:title=" ">
<polygon fill="white" stroke="black" points="0,-123.5 0,-153.5 111,-153.5 111,-123.5 0,-123.5"/>
<text text-anchor="start" x="8" y="-141.5" font-family="Helvetica,sans-Serif" font-size="10.00">src/f/f_op/f_op_scene</text>
<text text-anchor="middle" x="55.5" y="-130.5" font-family="Helvetica,sans-Serif" font-size="10.00">_mng.cpp</text>
</a>
</g>
</g>
<!-- Node4&#45;&gt;Node5 -->
<g id="edge4" class="edge">
<title>Node4&#45;&gt;Node5</title>
<path fill="none" stroke="midnightblue" d="M136.52,-185.3C118.53,-175.12 96.82,-162.85 80.4,-153.58"/>
<polygon fill="midnightblue" stroke="midnightblue" points="135.12,-188.52 145.55,-190.4 138.56,-182.43 135.12,-188.52"/>
</g>
<!-- Node6 -->
<g id="node6" class="node">
<title>Node6</title>
<g id="a_node6"><a xlink:href="f__op__scene__req_8cpp.html" target="_top" xlink:title=" ">
<polygon fill="white" stroke="black" points="129,-123.5 129,-153.5 240,-153.5 240,-123.5 129,-123.5"/>
<text text-anchor="start" x="137" y="-141.5" font-family="Helvetica,sans-Serif" font-size="10.00">src/f/f_op/f_op_scene</text>
<text text-anchor="middle" x="184.5" y="-130.5" font-family="Helvetica,sans-Serif" font-size="10.00">_req.cpp</text>
</a>
</g>
</g>
<!-- Node4&#45;&gt;Node6 -->
<g id="edge5" class="edge">
<title>Node4&#45;&gt;Node6</title>
<path fill="none" stroke="midnightblue" d="M175.69,-180.4C177.64,-171.37 179.78,-161.41 181.47,-153.58"/>
<polygon fill="midnightblue" stroke="midnightblue" points="172.22,-179.88 173.54,-190.4 179.06,-181.36 172.22,-179.88"/>
</g>
<!-- Node7&#45;&gt;Node2 -->
<g id="edge13" class="edge">
<title>Node7&#45;&gt;Node2</title>
<path fill="none" stroke="midnightblue" d="M697.8,-195.72C633.38,-185.99 526.96,-169.58 435.5,-154 424.64,-152.15 412.96,-150.06 402,-148.06"/>
<polygon fill="midnightblue" stroke="midnightblue" points="697.35,-199.2 707.76,-197.23 698.4,-192.27 697.35,-199.2"/>
</g>
<!-- Node8 -->
<g id="node8" class="node">
<title>Node8</title>
<g id="a_node8"><a xlink:href="f__ap__game_8cpp.html" target="_top" xlink:title=" ">
<polygon fill="white" stroke="black" points="945,-129 945,-148 1050,-148 1050,-129 945,-129"/>
<text text-anchor="middle" x="997.5" y="-136" font-family="Helvetica,sans-Serif" font-size="10.00">src/f/f_ap_game.cpp</text>
</a>
</g>
</g>
<!-- Node7&#45;&gt;Node8 -->
<g id="edge7" class="edge">
<title>Node7&#45;&gt;Node8</title>
<path fill="none" stroke="midnightblue" d="M815.1,-188.69C862.51,-175.91 927.46,-158.39 965.7,-148.08"/>
<polygon fill="midnightblue" stroke="midnightblue" points="814.01,-185.36 805.27,-191.35 815.84,-192.12 814.01,-185.36"/>
</g>
<!-- Node9 -->
<g id="node9" class="node">
<title>Node9</title>
<g id="a_node9"><a xlink:href="d__a__alink_8cpp.html" target="_top" xlink:title=" ">
<polygon fill="white" stroke="black" points="1153,-62 1153,-81 1272,-81 1272,-62 1153,-62"/>
<text text-anchor="middle" x="1212.5" y="-69" font-family="Helvetica,sans-Serif" font-size="10.00">src/d/d_a/d_a_alink.cpp</text>
</a>
</g>
</g>
<!-- Node7&#45;&gt;Node9 -->
<g id="edge8" class="edge">
<title>Node7&#45;&gt;Node9</title>
<path fill="none" stroke="midnightblue" d="M815.31,-203.57C878.32,-200.58 979.98,-189.96 1059.5,-154 1079.36,-145.02 1078.91,-134.37 1097.5,-123 1126.89,-105.02 1163.81,-90 1187.77,-81.13"/>
<polygon fill="midnightblue" stroke="midnightblue" points="815,-200.08 805.16,-204 815.3,-207.07 815,-200.08"/>
</g>
<!-- Node10 -->
<g id="node10" class="node">
<title>Node10</title>
<g id="a_node10"><a xlink:href="f__op__kankyo__mng_8cpp.html" target="_top" xlink:title=" ">
<polygon fill="white" stroke="black" points="1106.5,-123.5 1106.5,-153.5 1222.5,-153.5 1222.5,-123.5 1106.5,-123.5"/>
<text text-anchor="start" x="1114.5" y="-141.5" font-family="Helvetica,sans-Serif" font-size="10.00">src/f/f_op/f_op_kankyo</text>
<text text-anchor="middle" x="1164.5" y="-130.5" font-family="Helvetica,sans-Serif" font-size="10.00">_mng.cpp</text>
</a>
</g>
</g>
<!-- Node7&#45;&gt;Node10 -->
<g id="edge9" class="edge">
<title>Node7&#45;&gt;Node10</title>
<path fill="none" stroke="midnightblue" d="M815,-196.6C882.15,-187.33 995.52,-171.04 1092.5,-154 1097.02,-153.21 1101.69,-152.35 1106.39,-151.46"/>
<polygon fill="midnightblue" stroke="midnightblue" points="814.46,-193.14 805.03,-197.98 815.41,-200.08 814.46,-193.14"/>
</g>
<!-- Node11 -->
<g id="node11" class="node">
<title>Node11</title>
<g id="a_node11"><a xlink:href="f__op__msg__mng_8cpp.html" target="_top" xlink:title=" ">
<polygon fill="white" stroke="black" points="444.5,-123.5 444.5,-153.5 548.5,-153.5 548.5,-123.5 444.5,-123.5"/>
<text text-anchor="start" x="452.5" y="-141.5" font-family="Helvetica,sans-Serif" font-size="10.00">src/f/f_op/f_op_msg</text>
<text text-anchor="middle" x="496.5" y="-130.5" font-family="Helvetica,sans-Serif" font-size="10.00">_mng.cpp</text>
</a>
</g>
</g>
<!-- Node7&#45;&gt;Node11 -->
<g id="edge10" class="edge">
<title>Node7&#45;&gt;Node11</title>
<path fill="none" stroke="midnightblue" d="M698.04,-189.89C653.27,-178.69 592.06,-163.39 548.88,-152.59"/>
<polygon fill="midnightblue" stroke="midnightblue" points="697.35,-193.32 707.9,-192.35 699.05,-186.53 697.35,-193.32"/>
</g>
<!-- Node12 -->
<g id="node12" class="node">
<title>Node12</title>
<g id="a_node12"><a xlink:href="f__op__overlap__req_8cpp.html" target="_top" xlink:title=" ">
<polygon fill="white" stroke="black" points="566.5,-123.5 566.5,-153.5 682.5,-153.5 682.5,-123.5 566.5,-123.5"/>
<text text-anchor="start" x="574.5" y="-141.5" font-family="Helvetica,sans-Serif" font-size="10.00">src/f/f_op/f_op_overlap</text>
<text text-anchor="middle" x="624.5" y="-130.5" font-family="Helvetica,sans-Serif" font-size="10.00">_req.cpp</text>
</a>
</g>
</g>
<!-- Node7&#45;&gt;Node12 -->
<g id="edge11" class="edge">
<title>Node7&#45;&gt;Node12</title>
<path fill="none" stroke="midnightblue" d="M718.63,-185.85C697.76,-175.58 672.27,-163.03 653.09,-153.58"/>
<polygon fill="midnightblue" stroke="midnightblue" points="717.34,-189.12 727.86,-190.4 720.43,-182.84 717.34,-189.12"/>
</g>
<!-- Node13 -->
<g id="node13" class="node">
<title>Node13</title>
<g id="a_node13"><a xlink:href="f__op__scene__pause_8cpp.html" target="_top" xlink:title=" ">
<polygon fill="white" stroke="black" points="701,-123.5 701,-153.5 812,-153.5 812,-123.5 701,-123.5"/>
<text text-anchor="start" x="709" y="-141.5" font-family="Helvetica,sans-Serif" font-size="10.00">src/f/f_op/f_op_scene</text>
<text text-anchor="middle" x="756.5" y="-130.5" font-family="Helvetica,sans-Serif" font-size="10.00">_pause.cpp</text>
</a>
</g>
</g>
<!-- Node7&#45;&gt;Node13 -->
<g id="edge12" class="edge">
<title>Node7&#45;&gt;Node13</title>
<path fill="none" stroke="midnightblue" d="M756.5,-180.11C756.5,-171.15 756.5,-161.32 756.5,-153.58"/>
<polygon fill="midnightblue" stroke="midnightblue" points="753,-180.4 756.5,-190.4 760,-180.4 753,-180.4"/>
</g>
<!-- Node14 -->
<g id="node14" class="node">
<title>Node14</title>
<g id="a_node14"><a xlink:href="f__op__actor__mng_8h.html" target="_top" xlink:title=" ">
<polygon fill="white" stroke="black" points="830,-123.5 830,-153.5 927,-153.5 927,-123.5 830,-123.5"/>
<text text-anchor="start" x="838" y="-141.5" font-family="Helvetica,sans-Serif" font-size="10.00">include/f/f_op/f_op</text>
<text text-anchor="middle" x="878.5" y="-130.5" font-family="Helvetica,sans-Serif" font-size="10.00">_actor_mng.h</text>
</a>
</g>
</g>
<!-- Node7&#45;&gt;Node14 -->
<g id="edge14" class="edge">
<title>Node7&#45;&gt;Node14</title>
<path fill="none" stroke="midnightblue" d="M792.02,-185.57C811.21,-175.35 834.5,-162.94 852.08,-153.58"/>
<polygon fill="midnightblue" stroke="midnightblue" points="790.15,-182.6 782.97,-190.4 793.44,-188.78 790.15,-182.6"/>
</g>
<!-- Node14&#45;&gt;Node9 -->
<g id="edge19" class="edge">
<title>Node14&#45;&gt;Node9</title>
<path fill="none" stroke="midnightblue" d="M937.24,-122.94C1029.57,-103.71 1054.93,-104 1143.5,-87 1153.12,-85.15 1163.46,-83.05 1173.14,-81.02"/>
<polygon fill="midnightblue" stroke="midnightblue" points="936.24,-119.57 927.17,-125.06 937.68,-126.42 936.24,-119.57"/>
</g>
<!-- Node15 -->
<g id="node15" class="node">
<title>Node15</title>
<g id="a_node15"><a xlink:href="d__attention_8cpp.html" target="_top" xlink:title=" ">
<polygon fill="white" stroke="black" points="399,-62 399,-81 506,-81 506,-62 399,-62"/>
<text text-anchor="middle" x="452.5" y="-69" font-family="Helvetica,sans-Serif" font-size="10.00">src/d/d_attention.cpp</text>
</a>
</g>
</g>
<!-- Node14&#45;&gt;Node15 -->
<g id="edge15" class="edge">
<title>Node14&#45;&gt;Node15</title>
<path fill="none" stroke="midnightblue" d="M819.91,-123.06C684.04,-98.9 646.22,-110.08 514.5,-87 505.14,-85.36 495.07,-83.18 485.82,-81.02"/>
<polygon fill="midnightblue" stroke="midnightblue" points="819.4,-126.52 829.86,-124.86 820.65,-119.64 819.4,-126.52"/>
</g>
<!-- Node16 -->
<g id="node16" class="node">
<title>Node16</title>
<g id="a_node16"><a xlink:href="d__camera_8cpp.html" target="_top" xlink:title=" ">
<polygon fill="white" stroke="black" points="523.5,-62 523.5,-81 625.5,-81 625.5,-62 523.5,-62"/>
<text text-anchor="middle" x="574.5" y="-69" font-family="Helvetica,sans-Serif" font-size="10.00">src/d/d_camera.cpp</text>
</a>
</g>
</g>
<!-- Node14&#45;&gt;Node16 -->
<g id="edge16" class="edge">
<title>Node14&#45;&gt;Node16</title>
<path fill="none" stroke="midnightblue" d="M819.9,-122.94C736.61,-104.77 713.72,-104.23 634.5,-87 626.12,-85.18 617.12,-83.08 608.71,-81.05"/>
<polygon fill="midnightblue" stroke="midnightblue" points="819.29,-126.39 829.81,-125.13 820.8,-119.56 819.29,-126.39"/>
</g>
<!-- Node17 -->
<g id="node17" class="node">
<title>Node17</title>
<g id="a_node17"><a xlink:href="d__stage_8cpp.html" target="_top" xlink:title=" ">
<polygon fill="white" stroke="black" points="643.5,-62 643.5,-81 737.5,-81 737.5,-62 643.5,-62"/>
<text text-anchor="middle" x="690.5" y="-69" font-family="Helvetica,sans-Serif" font-size="10.00">src/d/d_stage.cpp</text>
</a>
</g>
</g>
<!-- Node14&#45;&gt;Node17 -->
<g id="edge17" class="edge">
<title>Node14&#45;&gt;Node17</title>
<path fill="none" stroke="midnightblue" d="M828.2,-120.11C791.62,-107.46 743.7,-90.89 715.1,-81.01"/>
<polygon fill="midnightblue" stroke="midnightblue" points="827.11,-123.44 837.71,-123.4 829.4,-116.82 827.11,-123.44"/>
</g>
<!-- Node18 -->
<g id="node18" class="node">
<title>Node18</title>
<g id="a_node18"><a xlink:href="f__op__actor__mng_8cpp.html" target="_top" xlink:title=" ">
<polygon fill="white" stroke="black" points="756,-56.5 756,-86.5 863,-86.5 863,-56.5 756,-56.5"/>
<text text-anchor="start" x="764" y="-74.5" font-family="Helvetica,sans-Serif" font-size="10.00">src/f/f_op/f_op_actor</text>
<text text-anchor="middle" x="809.5" y="-63.5" font-family="Helvetica,sans-Serif" font-size="10.00">_mng.cpp</text>
</a>
</g>
</g>
<!-- Node14&#45;&gt;Node18 -->
<g id="edge18" class="edge">
<title>Node14&#45;&gt;Node18</title>
<path fill="none" stroke="midnightblue" d="M856.01,-116.31C845.66,-106.56 833.66,-95.26 824.44,-86.58"/>
<polygon fill="midnightblue" stroke="midnightblue" points="853.85,-119.09 863.53,-123.4 858.65,-113.99 853.85,-119.09"/>
</g>
<!-- Node19 -->
<g id="node19" class="node">
<title>Node19</title>
<g id="a_node19"><a xlink:href="m__Do__main_8cpp.html" target="_top" xlink:title=" ">
<polygon fill="white" stroke="black" points="881,-62 881,-81 1012,-81 1012,-62 881,-62"/>
<text text-anchor="middle" x="946.5" y="-69" font-family="Helvetica,sans-Serif" font-size="10.00">src/m_Do/m_Do_main.cpp</text>
</a>
</g>
</g>
<!-- Node14&#45;&gt;Node19 -->
<g id="edge20" class="edge">
<title>Node14&#45;&gt;Node19</title>
<path fill="none" stroke="midnightblue" d="M900.64,-116.34C913.13,-104.4 928.05,-90.14 937.4,-81.19"/>
<polygon fill="midnightblue" stroke="midnightblue" points="898.07,-113.96 893.25,-123.4 902.9,-119.02 898.07,-113.96"/>
</g>
<!-- Node20 -->
<g id="node20" class="node">
<title>Node20</title>
<g id="a_node20"><a xlink:href="d__model_8h.html" target="_top" xlink:title=" ">
<polygon fill="white" stroke="black" points="1030.5,-56.5 1030.5,-86.5 1134.5,-86.5 1134.5,-56.5 1030.5,-56.5"/>
<text text-anchor="start" x="1038.5" y="-74.5" font-family="Helvetica,sans-Serif" font-size="10.00">include/d/d_model/d</text>
<text text-anchor="middle" x="1082.5" y="-63.5" font-family="Helvetica,sans-Serif" font-size="10.00">_model.h</text>
</a>
</g>
</g>
<!-- Node14&#45;&gt;Node20 -->
<g id="edge21" class="edge">
<title>Node14&#45;&gt;Node20</title>
<path fill="none" stroke="midnightblue" d="M932.46,-120.31C965.46,-109.79 1007.16,-96.51 1038.21,-86.61"/>
<polygon fill="midnightblue" stroke="midnightblue" points="930.98,-117.11 922.51,-123.48 933.1,-123.77 930.98,-117.11"/>
</g>
<!-- Node21 -->
<g id="node21" class="node">
<title>Node21</title>
<g id="a_node21"><a xlink:href="d__model_8cpp.html" target="_top" xlink:title=" ">
<polygon fill="white" stroke="black" points="1034.5,-0.5 1034.5,-19.5 1130.5,-19.5 1130.5,-0.5 1034.5,-0.5"/>
<text text-anchor="middle" x="1082.5" y="-7.5" font-family="Helvetica,sans-Serif" font-size="10.00">src/d/d_model.cpp</text>
</a>
</g>
</g>
<!-- Node20&#45;&gt;Node21 -->
<g id="edge22" class="edge">
<title>Node20&#45;&gt;Node21</title>
<path fill="none" stroke="midnightblue" d="M1082.5,-46.29C1082.5,-36.86 1082.5,-26.65 1082.5,-19.66"/>
<polygon fill="midnightblue" stroke="midnightblue" points="1079,-46.4 1082.5,-56.4 1086,-46.4 1079,-46.4"/>
</g>
</g>
</svg>
