<?xml version="1.0" encoding="UTF-8" standalone="no"?>
<!DOCTYPE svg PUBLIC "-//W3C//DTD SVG 1.1//EN"
 "http://www.w3.org/Graphics/SVG/1.1/DTD/svg11.dtd">
<!-- Generated by graphviz version 2.44.0 ()
 -->
<!-- Title: src/f/f_pc/f_pc_method_tag.cpp Pages: 1 -->
<svg width="301pt" height="554pt"
 viewBox="0.00 0.00 301.02 554.00" xmlns="http://www.w3.org/2000/svg" xmlns:xlink="http://www.w3.org/1999/xlink">
<g id="graph0" class="graph" transform="scale(1 1) rotate(0) translate(4 550)">
<title>src/f/f_pc/f_pc_method_tag.cpp</title>
<polygon fill="white" stroke="transparent" points="-4,4 -4,-550 297.02,-550 297.02,4 -4,4"/>
<!-- Node1 -->
<g id="node1" class="node">
<title>Node1</title>
<g id="a_node1"><a xlink:title=" ">
<polygon fill="#bfbfbf" stroke="black" points="107.22,-515.5 107.22,-545.5 224.22,-545.5 224.22,-515.5 107.22,-515.5"/>
<text text-anchor="start" x="115.22" y="-533.5" font-family="Helvetica,sans-Serif" font-size="10.00">src/f/f_pc/f_pc_method</text>
<text text-anchor="middle" x="165.72" y="-522.5" font-family="Helvetica,sans-Serif" font-size="10.00">_tag.cpp</text>
</a>
</g>
</g>
<!-- Node2 -->
<g id="node2" class="node">
<title>Node2</title>
<g id="a_node2"><a xlink:href="f__pc__method__tag_8h.html" target="_top" xlink:title=" ">
<polygon fill="white" stroke="black" points="115.22,-448.5 115.22,-478.5 216.22,-478.5 216.22,-448.5 115.22,-448.5"/>
<text text-anchor="start" x="123.22" y="-466.5" font-family="Helvetica,sans-Serif" font-size="10.00">f/f_pc/f_pc_method</text>
<text text-anchor="middle" x="165.72" y="-455.5" font-family="Helvetica,sans-Serif" font-size="10.00">_tag.h</text>
</a>
</g>
</g>
<!-- Node1&#45;&gt;Node2 -->
<g id="edge1" class="edge">
<title>Node1&#45;&gt;Node2</title>
<path fill="none" stroke="midnightblue" d="M165.72,-515.4C165.72,-507.64 165.72,-497.81 165.72,-488.86"/>
<polygon fill="midnightblue" stroke="midnightblue" points="169.22,-488.58 165.72,-478.58 162.22,-488.58 169.22,-488.58"/>
</g>
<!-- Node3 -->
<g id="node3" class="node">
<title>Node3</title>
<g id="a_node3"><a xlink:href="c__tag_8h.html" target="_top" xlink:title=" ">
<polygon fill="white" stroke="black" points="52.22,-392.5 52.22,-411.5 159.22,-411.5 159.22,-392.5 52.22,-392.5"/>
<text text-anchor="middle" x="105.72" y="-399.5" font-family="Helvetica,sans-Serif" font-size="10.00">SComponent/c_tag.h</text>
</a>
</g>
</g>
<!-- Node2&#45;&gt;Node3 -->
<g id="edge2" class="edge">
<title>Node2&#45;&gt;Node3</title>
<path fill="none" stroke="midnightblue" d="M151.5,-448.4C142.51,-439.49 130.88,-427.95 121.59,-418.74"/>
<polygon fill="midnightblue" stroke="midnightblue" points="124.01,-416.21 114.45,-411.66 119.08,-421.18 124.01,-416.21"/>
</g>
<!-- Node6 -->
<g id="node6" class="node">
<title>Node6</title>
<g id="a_node6"><a xlink:href="global_8h.html" target="_top" xlink:title=" ">
<polygon fill="white" stroke="black" points="115.72,-168.5 115.72,-187.5 165.72,-187.5 165.72,-168.5 115.72,-168.5"/>
<text text-anchor="middle" x="140.72" y="-175.5" font-family="Helvetica,sans-Serif" font-size="10.00">global.h</text>
</a>
</g>
</g>
<!-- Node2&#45;&gt;Node6 -->
<g id="edge21" class="edge">
<title>Node2&#45;&gt;Node6</title>
<path fill="none" stroke="midnightblue" d="M178.95,-448.46C196.89,-427.89 226.72,-387.59 226.72,-347 226.72,-347 226.72,-347 226.72,-289 226.72,-258.9 225.49,-248.29 207.72,-224 197.9,-210.59 182.79,-199.94 169.41,-192.38"/>
<polygon fill="midnightblue" stroke="midnightblue" points="170.98,-189.25 160.5,-187.64 167.69,-195.43 170.98,-189.25"/>
</g>
<!-- Node4 -->
<g id="node4" class="node">
<title>Node4</title>
<g id="a_node4"><a xlink:href="c__list_8h.html" target="_top" xlink:title=" ">
<polygon fill="white" stroke="black" points="13.22,-280.5 13.22,-299.5 120.22,-299.5 120.22,-280.5 13.22,-280.5"/>
<text text-anchor="middle" x="66.72" y="-287.5" font-family="Helvetica,sans-Serif" font-size="10.00">SComponent/c_list.h</text>
</a>
</g>
</g>
<!-- Node3&#45;&gt;Node4 -->
<g id="edge3" class="edge">
<title>Node3&#45;&gt;Node4</title>
<path fill="none" stroke="midnightblue" d="M84.23,-392.36C69.33,-385.09 50.61,-373.12 41.72,-356 33.57,-340.31 42.89,-321.33 52.38,-307.94"/>
<polygon fill="midnightblue" stroke="midnightblue" points="55.42,-309.73 58.76,-299.68 49.88,-305.45 55.42,-309.73"/>
</g>
<!-- Node5 -->
<g id="node5" class="node">
<title>Node5</title>
<g id="a_node5"><a xlink:href="c__node_8h.html" target="_top" xlink:title=" ">
<polygon fill="white" stroke="black" points="83.22,-224.5 83.22,-243.5 198.22,-243.5 198.22,-224.5 83.22,-224.5"/>
<text text-anchor="middle" x="140.72" y="-231.5" font-family="Helvetica,sans-Serif" font-size="10.00">SComponent/c_node.h</text>
</a>
</g>
</g>
<!-- Node3&#45;&gt;Node5 -->
<g id="edge16" class="edge">
<title>Node3&#45;&gt;Node5</title>
<path fill="none" stroke="midnightblue" d="M127.2,-392.36C142.11,-385.09 160.83,-373.12 169.72,-356 187.47,-321.81 166.42,-276.54 152.01,-252.22"/>
<polygon fill="midnightblue" stroke="midnightblue" points="154.98,-250.36 146.73,-243.71 149.03,-254.05 154.98,-250.36"/>
</g>
<!-- Node3&#45;&gt;Node6 -->
<g id="edge20" class="edge">
<title>Node3&#45;&gt;Node6</title>
<path fill="none" stroke="midnightblue" d="M88.37,-392.42C53.76,-374.05 -18.63,-328.59 4.72,-280 25.7,-236.33 76,-207.04 109.19,-191.71"/>
<polygon fill="midnightblue" stroke="midnightblue" points="110.76,-194.84 118.48,-187.57 107.92,-188.44 110.76,-194.84"/>
</g>
<!-- Node13 -->
<g id="node13" class="node">
<title>Node13</title>
<g id="a_node13"><a xlink:href="c__tree_8h.html" target="_top" xlink:title=" ">
<polygon fill="white" stroke="black" points="50.72,-336.5 50.72,-355.5 160.72,-355.5 160.72,-336.5 50.72,-336.5"/>
<text text-anchor="middle" x="105.72" y="-343.5" font-family="Helvetica,sans-Serif" font-size="10.00">SComponent/c_tree.h</text>
</a>
</g>
</g>
<!-- Node3&#45;&gt;Node13 -->
<g id="edge17" class="edge">
<title>Node3&#45;&gt;Node13</title>
<path fill="none" stroke="midnightblue" d="M105.72,-392.08C105.72,-385.01 105.72,-374.86 105.72,-365.99"/>
<polygon fill="midnightblue" stroke="midnightblue" points="109.22,-365.75 105.72,-355.75 102.22,-365.75 109.22,-365.75"/>
</g>
<!-- Node4&#45;&gt;Node5 -->
<g id="edge4" class="edge">
<title>Node4&#45;&gt;Node5</title>
<path fill="none" stroke="midnightblue" d="M78.61,-280.32C89.87,-272.11 107,-259.6 120.43,-249.81"/>
<polygon fill="midnightblue" stroke="midnightblue" points="122.6,-252.56 128.61,-243.83 118.47,-246.9 122.6,-252.56"/>
</g>
<!-- Node5&#45;&gt;Node6 -->
<g id="edge5" class="edge">
<title>Node5&#45;&gt;Node6</title>
<path fill="none" stroke="midnightblue" d="M140.72,-224.08C140.72,-217.01 140.72,-206.86 140.72,-197.99"/>
<polygon fill="midnightblue" stroke="midnightblue" points="144.22,-197.75 140.72,-187.75 137.22,-197.75 144.22,-197.75"/>
</g>
<!-- Node7 -->
<g id="node7" class="node">
<title>Node7</title>
<g id="a_node7"><a xlink:href="types_8h.html" target="_top" xlink:title=" ">
<polygon fill="white" stroke="black" points="133.22,-0.5 133.22,-19.5 214.22,-19.5 214.22,-0.5 133.22,-0.5"/>
<text text-anchor="middle" x="173.72" y="-7.5" font-family="Helvetica,sans-Serif" font-size="10.00">dolphin/types.h</text>
</a>
</g>
</g>
<!-- Node6&#45;&gt;Node7 -->
<g id="edge6" class="edge">
<title>Node6&#45;&gt;Node7</title>
<path fill="none" stroke="midnightblue" d="M128.57,-168.31C101.94,-148.17 42.84,-96.92 69.72,-56 81.78,-37.63 103.13,-26.72 123.35,-20.26"/>
<polygon fill="midnightblue" stroke="midnightblue" points="124.5,-23.57 133.14,-17.44 122.56,-16.85 124.5,-23.57"/>
</g>
<!-- Node8 -->
<g id="node8" class="node">
<title>Node8</title>
<g id="a_node8"><a xlink:href="AR_8h.html" target="_top" xlink:title=" ">
<polygon fill="white" stroke="black" points="78.22,-56.5 78.22,-75.5 127.22,-75.5 127.22,-56.5 78.22,-56.5"/>
<text text-anchor="middle" x="102.72" y="-63.5" font-family="Helvetica,sans-Serif" font-size="10.00">ar/AR.h</text>
</a>
</g>
</g>
<!-- Node6&#45;&gt;Node8 -->
<g id="edge7" class="edge">
<title>Node6&#45;&gt;Node8</title>
<path fill="none" stroke="midnightblue" d="M137.74,-168.37C131.58,-150.54 117.33,-109.3 109.03,-85.27"/>
<polygon fill="midnightblue" stroke="midnightblue" points="112.26,-83.9 105.68,-75.59 105.64,-86.19 112.26,-83.9"/>
</g>
<!-- Node9 -->
<g id="node9" class="node">
<title>Node9</title>
<g id="a_node9"><a xlink:href="ARQ_8h.html" target="_top" xlink:title=" ">
<polygon fill="white" stroke="black" points="145.72,-56.5 145.72,-75.5 201.72,-75.5 201.72,-56.5 145.72,-56.5"/>
<text text-anchor="middle" x="173.72" y="-63.5" font-family="Helvetica,sans-Serif" font-size="10.00">ar/ARQ.h</text>
</a>
</g>
</g>
<!-- Node6&#45;&gt;Node9 -->
<g id="edge9" class="edge">
<title>Node6&#45;&gt;Node9</title>
<path fill="none" stroke="midnightblue" d="M143.25,-168.15C146.85,-155.63 153.67,-132.04 159.72,-112 162.38,-103.18 165.41,-93.41 167.97,-85.23"/>
<polygon fill="midnightblue" stroke="midnightblue" points="171.33,-86.2 170.99,-75.61 164.65,-84.1 171.33,-86.2"/>
</g>
<!-- Node10 -->
<g id="node10" class="node">
<title>Node10</title>
<g id="a_node10"><a xlink:href="mwcc_8h.html" target="_top" xlink:title=" ">
<polygon fill="white" stroke="black" points="168.72,-112.5 168.72,-131.5 218.72,-131.5 218.72,-112.5 168.72,-112.5"/>
<text text-anchor="middle" x="193.72" y="-119.5" font-family="Helvetica,sans-Serif" font-size="10.00">mwcc.h</text>
</a>
</g>
</g>
<!-- Node6&#45;&gt;Node10 -->
<g id="edge11" class="edge">
<title>Node6&#45;&gt;Node10</title>
<path fill="none" stroke="midnightblue" d="M149.47,-168.08C157.19,-160.22 168.62,-148.57 177.93,-139.08"/>
<polygon fill="midnightblue" stroke="midnightblue" points="180.62,-141.34 185.13,-131.75 175.63,-136.44 180.62,-141.34"/>
</g>
<!-- Node11 -->
<g id="node11" class="node">
<title>Node11</title>
<g id="a_node11"><a xlink:href="OS_8h.html" target="_top" xlink:title=" ">
<polygon fill="white" stroke="black" points="236.72,-112.5 236.72,-131.5 288.72,-131.5 288.72,-112.5 236.72,-112.5"/>
<text text-anchor="middle" x="262.72" y="-119.5" font-family="Helvetica,sans-Serif" font-size="10.00">os/OS.h</text>
</a>
</g>
</g>
<!-- Node6&#45;&gt;Node11 -->
<g id="edge12" class="edge">
<title>Node6&#45;&gt;Node11</title>
<path fill="none" stroke="midnightblue" d="M160.05,-168.44C180.04,-159.6 211.46,-145.69 234.28,-135.59"/>
<polygon fill="midnightblue" stroke="midnightblue" points="235.75,-138.76 243.48,-131.52 232.92,-132.36 235.75,-138.76"/>
</g>
<!-- Node8&#45;&gt;Node7 -->
<g id="edge8" class="edge">
<title>Node8&#45;&gt;Node7</title>
<path fill="none" stroke="midnightblue" d="M114.12,-56.32C124.83,-48.18 141.06,-35.84 153.88,-26.09"/>
<polygon fill="midnightblue" stroke="midnightblue" points="156.26,-28.67 162.1,-19.83 152.02,-23.1 156.26,-28.67"/>
</g>
<!-- Node9&#45;&gt;Node7 -->
<g id="edge10" class="edge">
<title>Node9&#45;&gt;Node7</title>
<path fill="none" stroke="midnightblue" d="M173.72,-56.08C173.72,-49.01 173.72,-38.86 173.72,-29.99"/>
<polygon fill="midnightblue" stroke="midnightblue" points="177.22,-29.75 173.72,-19.75 170.22,-29.75 177.22,-29.75"/>
</g>
<!-- Node11&#45;&gt;Node7 -->
<g id="edge13" class="edge">
<title>Node11&#45;&gt;Node7</title>
<path fill="none" stroke="midnightblue" d="M271.1,-112.43C282.78,-99.42 301.19,-74.27 288.72,-56 274.23,-34.77 248.09,-23.56 224.39,-17.63"/>
<polygon fill="midnightblue" stroke="midnightblue" points="224.95,-14.17 214.43,-15.4 223.42,-21 224.95,-14.17"/>
</g>
<!-- Node12 -->
<g id="node12" class="node">
<title>Node12</title>
<g id="a_node12"><a xlink:href="dvd_8h.html" target="_top" xlink:title=" ">
<polygon fill="white" stroke="black" points="220.22,-56.5 220.22,-75.5 279.22,-75.5 279.22,-56.5 220.22,-56.5"/>
<text text-anchor="middle" x="249.72" y="-63.5" font-family="Helvetica,sans-Serif" font-size="10.00">dvd/dvd.h</text>
</a>
</g>
</g>
<!-- Node11&#45;&gt;Node12 -->
<g id="edge14" class="edge">
<title>Node11&#45;&gt;Node12</title>
<path fill="none" stroke="midnightblue" d="M260.57,-112.08C258.85,-104.93 256.37,-94.64 254.22,-85.69"/>
<polygon fill="midnightblue" stroke="midnightblue" points="257.57,-84.65 251.82,-75.75 250.76,-86.29 257.57,-84.65"/>
</g>
<!-- Node12&#45;&gt;Node7 -->
<g id="edge15" class="edge">
<title>Node12&#45;&gt;Node7</title>
<path fill="none" stroke="midnightblue" d="M237.51,-56.32C225.94,-48.11 208.34,-35.6 194.56,-25.81"/>
<polygon fill="midnightblue" stroke="midnightblue" points="196.33,-22.77 186.15,-19.83 192.27,-28.48 196.33,-22.77"/>
</g>
<!-- Node13&#45;&gt;Node4 -->
<g id="edge18" class="edge">
<title>Node13&#45;&gt;Node4</title>
<path fill="none" stroke="midnightblue" d="M99.28,-336.08C93.77,-328.46 85.69,-317.26 78.95,-307.94"/>
<polygon fill="midnightblue" stroke="midnightblue" points="81.73,-305.81 73.04,-299.75 76.05,-309.91 81.73,-305.81"/>
</g>
<!-- Node13&#45;&gt;Node5 -->
<g id="edge19" class="edge">
<title>Node13&#45;&gt;Node5</title>
<path fill="none" stroke="midnightblue" d="M111.09,-336.37C116.35,-327.55 124.2,-313.29 128.72,-300 133.86,-284.87 136.95,-266.98 138.71,-253.79"/>
<polygon fill="midnightblue" stroke="midnightblue" points="142.22,-253.96 139.93,-243.61 135.27,-253.13 142.22,-253.96"/>
</g>
</g>
</svg>
