<?xml version="1.0" encoding="UTF-8" standalone="no"?>
<!DOCTYPE svg PUBLIC "-//W3C//DTD SVG 1.1//EN"
 "http://www.w3.org/Graphics/SVG/1.1/DTD/svg11.dtd">
<!-- Generated by graphviz version 2.44.0 ()
 -->
<!-- Title: include/f/f_pc/f_pc_create_req.h Pages: 1 -->
<svg width="686pt" height="554pt"
 viewBox="0.00 0.00 686.00 554.00" xmlns="http://www.w3.org/2000/svg" xmlns:xlink="http://www.w3.org/1999/xlink">
<g id="graph0" class="graph" transform="scale(1 1) rotate(0) translate(4 550)">
<title>include/f/f_pc/f_pc_create_req.h</title>
<polygon fill="white" stroke="transparent" points="-4,4 -4,-550 682,-550 682,4 -4,4"/>
<!-- Node1 -->
<g id="node1" class="node">
<title>Node1</title>
<g id="a_node1"><a xlink:title=" ">
<polygon fill="#bfbfbf" stroke="black" points="253.5,-515.5 253.5,-545.5 350.5,-545.5 350.5,-515.5 253.5,-515.5"/>
<text text-anchor="start" x="261.5" y="-533.5" font-family="Helvetica,sans-Serif" font-size="10.00">include/f/f_pc/f_pc</text>
<text text-anchor="middle" x="302" y="-522.5" font-family="Helvetica,sans-Serif" font-size="10.00">_create_req.h</text>
</a>
</g>
</g>
<!-- Node2 -->
<g id="node2" class="node">
<title>Node2</title>
<g id="a_node2"><a xlink:href="c__phase_8h.html" target="_top" xlink:title=" ">
<polygon fill="white" stroke="black" points="0,-454 0,-473 120,-473 120,-454 0,-454"/>
<text text-anchor="middle" x="60" y="-461" font-family="Helvetica,sans-Serif" font-size="10.00">SComponent/c_phase.h</text>
</a>
</g>
</g>
<!-- Node1&#45;&gt;Node2 -->
<g id="edge1" class="edge">
<title>Node1&#45;&gt;Node2</title>
<path fill="none" stroke="midnightblue" d="M253.32,-516.42C208.72,-504.45 143.43,-486.91 101.32,-475.6"/>
<polygon fill="midnightblue" stroke="midnightblue" points="102.22,-472.22 91.66,-473 100.41,-478.98 102.22,-472.22"/>
</g>
<!-- Node3 -->
<g id="node3" class="node">
<title>Node3</title>
<g id="a_node3"><a xlink:href="c__tag_8h.html" target="_top" xlink:title=" ">
<polygon fill="white" stroke="black" points="246.5,-392.5 246.5,-411.5 353.5,-411.5 353.5,-392.5 246.5,-392.5"/>
<text text-anchor="middle" x="300" y="-399.5" font-family="Helvetica,sans-Serif" font-size="10.00">SComponent/c_tag.h</text>
</a>
</g>
</g>
<!-- Node1&#45;&gt;Node3 -->
<g id="edge2" class="edge">
<title>Node1&#45;&gt;Node3</title>
<path fill="none" stroke="midnightblue" d="M301.78,-515.48C301.42,-492.72 300.71,-447.7 300.3,-422.06"/>
<polygon fill="midnightblue" stroke="midnightblue" points="303.8,-421.73 300.14,-411.79 296.8,-421.84 303.8,-421.73"/>
</g>
<!-- Node6 -->
<g id="node6" class="node">
<title>Node6</title>
<g id="a_node6"><a xlink:href="global_8h.html" target="_top" xlink:title=" ">
<polygon fill="white" stroke="black" points="356,-168.5 356,-187.5 406,-187.5 406,-168.5 356,-168.5"/>
<text text-anchor="middle" x="381" y="-175.5" font-family="Helvetica,sans-Serif" font-size="10.00">global.h</text>
</a>
</g>
</g>
<!-- Node1&#45;&gt;Node6 -->
<g id="edge34" class="edge">
<title>Node1&#45;&gt;Node6</title>
<path fill="none" stroke="midnightblue" d="M253.42,-522.25C225.1,-515.58 190.79,-502.92 169,-479 145.4,-453.09 148,-438.04 148,-403 148,-403 148,-403 148,-289 148,-202.77 280.11,-184.03 345.38,-180.04"/>
<polygon fill="midnightblue" stroke="midnightblue" points="345.82,-183.52 355.62,-179.5 345.45,-176.53 345.82,-183.52"/>
</g>
<!-- Node14 -->
<g id="node14" class="node">
<title>Node14</title>
<g id="a_node14"><a xlink:href="f__pc__create__tag_8h.html" target="_top" xlink:title=" ">
<polygon fill="white" stroke="black" points="178.5,-448.5 178.5,-478.5 273.5,-478.5 273.5,-448.5 178.5,-448.5"/>
<text text-anchor="start" x="186.5" y="-466.5" font-family="Helvetica,sans-Serif" font-size="10.00">f/f_pc/f_pc_create</text>
<text text-anchor="middle" x="226" y="-455.5" font-family="Helvetica,sans-Serif" font-size="10.00">_tag.h</text>
</a>
</g>
</g>
<!-- Node1&#45;&gt;Node14 -->
<g id="edge21" class="edge">
<title>Node1&#45;&gt;Node14</title>
<path fill="none" stroke="midnightblue" d="M285.51,-515.4C275.15,-506.54 261.62,-494.96 250.07,-485.09"/>
<polygon fill="midnightblue" stroke="midnightblue" points="252.33,-482.42 242.46,-478.58 247.78,-487.74 252.33,-482.42"/>
</g>
<!-- Node15 -->
<g id="node15" class="node">
<title>Node15</title>
<g id="a_node15"><a xlink:href="f__pc__layer_8h.html" target="_top" xlink:title=" ">
<polygon fill="white" stroke="black" points="332,-454 332,-473 428,-473 428,-454 332,-454"/>
<text text-anchor="middle" x="380" y="-461" font-family="Helvetica,sans-Serif" font-size="10.00">f/f_pc/f_pc_layer.h</text>
</a>
</g>
</g>
<!-- Node1&#45;&gt;Node15 -->
<g id="edge24" class="edge">
<title>Node1&#45;&gt;Node15</title>
<path fill="none" stroke="midnightblue" d="M318.92,-515.4C331.57,-504.86 348.83,-490.48 361.77,-479.69"/>
<polygon fill="midnightblue" stroke="midnightblue" points="364.12,-482.29 369.57,-473.19 359.64,-476.91 364.12,-482.29"/>
</g>
<!-- Node16 -->
<g id="node16" class="node">
<title>Node16</title>
<g id="a_node16"><a xlink:href="f__pc__method_8h.html" target="_top" xlink:title=" ">
<polygon fill="white" stroke="black" points="570,-392.5 570,-411.5 678,-411.5 678,-392.5 570,-392.5"/>
<text text-anchor="middle" x="624" y="-399.5" font-family="Helvetica,sans-Serif" font-size="10.00">f/f_pc/f_pc_method.h</text>
</a>
</g>
</g>
<!-- Node1&#45;&gt;Node16 -->
<g id="edge29" class="edge">
<title>Node1&#45;&gt;Node16</title>
<path fill="none" stroke="midnightblue" d="M350.8,-528.99C404.65,-526.43 492.25,-516.23 557,-479 581.7,-464.79 601.97,-438.13 613.53,-420.47"/>
<polygon fill="midnightblue" stroke="midnightblue" points="616.67,-422.05 619.02,-411.72 610.74,-418.33 616.67,-422.05"/>
</g>
<!-- Node17 -->
<g id="node17" class="node">
<title>Node17</title>
<g id="a_node17"><a xlink:href="f__pc__method__tag_8h.html" target="_top" xlink:title=" ">
<polygon fill="white" stroke="black" points="446.5,-448.5 446.5,-478.5 547.5,-478.5 547.5,-448.5 446.5,-448.5"/>
<text text-anchor="start" x="454.5" y="-466.5" font-family="Helvetica,sans-Serif" font-size="10.00">f/f_pc/f_pc_method</text>
<text text-anchor="middle" x="497" y="-455.5" font-family="Helvetica,sans-Serif" font-size="10.00">_tag.h</text>
</a>
</g>
</g>
<!-- Node1&#45;&gt;Node17 -->
<g id="edge31" class="edge">
<title>Node1&#45;&gt;Node17</title>
<path fill="none" stroke="midnightblue" d="M344.31,-515.4C373.95,-505.52 413.74,-492.25 445.27,-481.74"/>
<polygon fill="midnightblue" stroke="midnightblue" points="446.39,-485.06 454.77,-478.58 444.18,-478.42 446.39,-485.06"/>
</g>
<!-- Node4 -->
<g id="node4" class="node">
<title>Node4</title>
<g id="a_node4"><a xlink:href="c__list_8h.html" target="_top" xlink:title=" ">
<polygon fill="white" stroke="black" points="290.5,-280.5 290.5,-299.5 397.5,-299.5 397.5,-280.5 290.5,-280.5"/>
<text text-anchor="middle" x="344" y="-287.5" font-family="Helvetica,sans-Serif" font-size="10.00">SComponent/c_list.h</text>
</a>
</g>
</g>
<!-- Node3&#45;&gt;Node4 -->
<g id="edge3" class="edge">
<title>Node3&#45;&gt;Node4</title>
<path fill="none" stroke="midnightblue" d="M301.87,-392.38C304.76,-379.73 310.84,-355.53 319,-336 322.96,-326.52 328.41,-316.47 333.21,-308.29"/>
<polygon fill="midnightblue" stroke="midnightblue" points="336.24,-310.04 338.42,-299.67 330.25,-306.42 336.24,-310.04"/>
</g>
<!-- Node5 -->
<g id="node5" class="node">
<title>Node5</title>
<g id="a_node5"><a xlink:href="c__node_8h.html" target="_top" xlink:title=" ">
<polygon fill="white" stroke="black" points="323.5,-224.5 323.5,-243.5 438.5,-243.5 438.5,-224.5 323.5,-224.5"/>
<text text-anchor="middle" x="381" y="-231.5" font-family="Helvetica,sans-Serif" font-size="10.00">SComponent/c_node.h</text>
</a>
</g>
</g>
<!-- Node3&#45;&gt;Node5 -->
<g id="edge16" class="edge">
<title>Node3&#45;&gt;Node5</title>
<path fill="none" stroke="midnightblue" d="M295,-392.25C283.65,-371.09 258.66,-316.25 282,-280 292.31,-263.99 309.85,-253.62 327.33,-246.92"/>
<polygon fill="midnightblue" stroke="midnightblue" points="328.7,-250.15 336.99,-243.56 326.4,-243.54 328.7,-250.15"/>
</g>
<!-- Node3&#45;&gt;Node6 -->
<g id="edge20" class="edge">
<title>Node3&#45;&gt;Node6</title>
<path fill="none" stroke="midnightblue" d="M291.79,-392.18C284.46,-383.66 274.24,-370.02 270,-356 260.21,-323.67 258.78,-311.86 270,-280 284.38,-239.15 326.88,-208.77 354.92,-192.48"/>
<polygon fill="midnightblue" stroke="midnightblue" points="356.8,-195.44 363.81,-187.51 353.38,-189.34 356.8,-195.44"/>
</g>
<!-- Node13 -->
<g id="node13" class="node">
<title>Node13</title>
<g id="a_node13"><a xlink:href="c__tree_8h.html" target="_top" xlink:title=" ">
<polygon fill="white" stroke="black" points="328,-336.5 328,-355.5 438,-355.5 438,-336.5 328,-336.5"/>
<text text-anchor="middle" x="383" y="-343.5" font-family="Helvetica,sans-Serif" font-size="10.00">SComponent/c_tree.h</text>
</a>
</g>
</g>
<!-- Node3&#45;&gt;Node13 -->
<g id="edge17" class="edge">
<title>Node3&#45;&gt;Node13</title>
<path fill="none" stroke="midnightblue" d="M313.34,-392.32C326.16,-383.98 345.78,-371.21 360.94,-361.35"/>
<polygon fill="midnightblue" stroke="midnightblue" points="363.22,-364.04 369.7,-355.65 359.41,-358.17 363.22,-364.04"/>
</g>
<!-- Node4&#45;&gt;Node5 -->
<g id="edge4" class="edge">
<title>Node4&#45;&gt;Node5</title>
<path fill="none" stroke="midnightblue" d="M350.11,-280.08C355.28,-272.53 362.85,-261.49 369.19,-252.23"/>
<polygon fill="midnightblue" stroke="midnightblue" points="372.24,-253.98 375,-243.75 366.46,-250.02 372.24,-253.98"/>
</g>
<!-- Node5&#45;&gt;Node6 -->
<g id="edge5" class="edge">
<title>Node5&#45;&gt;Node6</title>
<path fill="none" stroke="midnightblue" d="M381,-224.08C381,-217.01 381,-206.86 381,-197.99"/>
<polygon fill="midnightblue" stroke="midnightblue" points="384.5,-197.75 381,-187.75 377.5,-197.75 384.5,-197.75"/>
</g>
<!-- Node7 -->
<g id="node7" class="node">
<title>Node7</title>
<g id="a_node7"><a xlink:href="types_8h.html" target="_top" xlink:title=" ">
<polygon fill="white" stroke="black" points="340.5,-0.5 340.5,-19.5 421.5,-19.5 421.5,-0.5 340.5,-0.5"/>
<text text-anchor="middle" x="381" y="-7.5" font-family="Helvetica,sans-Serif" font-size="10.00">dolphin/types.h</text>
</a>
</g>
</g>
<!-- Node6&#45;&gt;Node7 -->
<g id="edge6" class="edge">
<title>Node6&#45;&gt;Node7</title>
<path fill="none" stroke="midnightblue" d="M363.05,-168.38C325.97,-149.39 246.81,-101.96 277,-56 289.07,-37.63 310.41,-26.72 330.63,-20.26"/>
<polygon fill="midnightblue" stroke="midnightblue" points="331.79,-23.57 340.42,-17.44 329.85,-16.85 331.79,-23.57"/>
</g>
<!-- Node8 -->
<g id="node8" class="node">
<title>Node8</title>
<g id="a_node8"><a xlink:href="AR_8h.html" target="_top" xlink:title=" ">
<polygon fill="white" stroke="black" points="285.5,-56.5 285.5,-75.5 334.5,-75.5 334.5,-56.5 285.5,-56.5"/>
<text text-anchor="middle" x="310" y="-63.5" font-family="Helvetica,sans-Serif" font-size="10.00">ar/AR.h</text>
</a>
</g>
</g>
<!-- Node6&#45;&gt;Node8 -->
<g id="edge7" class="edge">
<title>Node6&#45;&gt;Node8</title>
<path fill="none" stroke="midnightblue" d="M375.43,-168.37C363.76,-150.3 336.58,-108.18 321.17,-84.31"/>
<polygon fill="midnightblue" stroke="midnightblue" points="323.91,-82.1 315.55,-75.59 318.03,-85.89 323.91,-82.1"/>
</g>
<!-- Node9 -->
<g id="node9" class="node">
<title>Node9</title>
<g id="a_node9"><a xlink:href="ARQ_8h.html" target="_top" xlink:title=" ">
<polygon fill="white" stroke="black" points="353,-56.5 353,-75.5 409,-75.5 409,-56.5 353,-56.5"/>
<text text-anchor="middle" x="381" y="-63.5" font-family="Helvetica,sans-Serif" font-size="10.00">ar/ARQ.h</text>
</a>
</g>
</g>
<!-- Node6&#45;&gt;Node9 -->
<g id="edge9" class="edge">
<title>Node6&#45;&gt;Node9</title>
<path fill="none" stroke="midnightblue" d="M381,-168.37C381,-150.62 381,-109.67 381,-85.6"/>
<polygon fill="midnightblue" stroke="midnightblue" points="384.5,-85.59 381,-75.59 377.5,-85.59 384.5,-85.59"/>
</g>
<!-- Node10 -->
<g id="node10" class="node">
<title>Node10</title>
<g id="a_node10"><a xlink:href="mwcc_8h.html" target="_top" xlink:title=" ">
<polygon fill="white" stroke="black" points="490,-112.5 490,-131.5 540,-131.5 540,-112.5 490,-112.5"/>
<text text-anchor="middle" x="515" y="-119.5" font-family="Helvetica,sans-Serif" font-size="10.00">mwcc.h</text>
</a>
</g>
</g>
<!-- Node6&#45;&gt;Node10 -->
<g id="edge11" class="edge">
<title>Node6&#45;&gt;Node10</title>
<path fill="none" stroke="midnightblue" d="M402.23,-168.44C424.38,-159.52 459.32,-145.44 484.44,-135.32"/>
<polygon fill="midnightblue" stroke="midnightblue" points="485.9,-138.5 493.87,-131.52 483.28,-132.01 485.9,-138.5"/>
</g>
<!-- Node11 -->
<g id="node11" class="node">
<title>Node11</title>
<g id="a_node11"><a xlink:href="OS_8h.html" target="_top" xlink:title=" ">
<polygon fill="white" stroke="black" points="420,-112.5 420,-131.5 472,-131.5 472,-112.5 420,-112.5"/>
<text text-anchor="middle" x="446" y="-119.5" font-family="Helvetica,sans-Serif" font-size="10.00">os/OS.h</text>
</a>
</g>
</g>
<!-- Node6&#45;&gt;Node11 -->
<g id="edge12" class="edge">
<title>Node6&#45;&gt;Node11</title>
<path fill="none" stroke="midnightblue" d="M391.44,-168.32C401.15,-160.26 415.82,-148.08 427.5,-138.37"/>
<polygon fill="midnightblue" stroke="midnightblue" points="429.91,-140.92 435.37,-131.83 425.44,-135.53 429.91,-140.92"/>
</g>
<!-- Node8&#45;&gt;Node7 -->
<g id="edge8" class="edge">
<title>Node8&#45;&gt;Node7</title>
<path fill="none" stroke="midnightblue" d="M321.41,-56.32C332.11,-48.18 348.34,-35.84 361.16,-26.09"/>
<polygon fill="midnightblue" stroke="midnightblue" points="363.54,-28.67 369.39,-19.83 359.31,-23.1 363.54,-28.67"/>
</g>
<!-- Node9&#45;&gt;Node7 -->
<g id="edge10" class="edge">
<title>Node9&#45;&gt;Node7</title>
<path fill="none" stroke="midnightblue" d="M381,-56.08C381,-49.01 381,-38.86 381,-29.99"/>
<polygon fill="midnightblue" stroke="midnightblue" points="384.5,-29.75 381,-19.75 377.5,-29.75 384.5,-29.75"/>
</g>
<!-- Node11&#45;&gt;Node7 -->
<g id="edge13" class="edge">
<title>Node11&#45;&gt;Node7</title>
<path fill="none" stroke="midnightblue" d="M461.08,-112.4C480.53,-100.18 510.29,-76.93 496,-56 481.51,-34.77 455.38,-23.56 431.68,-17.63"/>
<polygon fill="midnightblue" stroke="midnightblue" points="432.23,-14.17 421.71,-15.4 430.71,-21 432.23,-14.17"/>
</g>
<!-- Node12 -->
<g id="node12" class="node">
<title>Node12</title>
<g id="a_node12"><a xlink:href="dvd_8h.html" target="_top" xlink:title=" ">
<polygon fill="white" stroke="black" points="427.5,-56.5 427.5,-75.5 486.5,-75.5 486.5,-56.5 427.5,-56.5"/>
<text text-anchor="middle" x="457" y="-63.5" font-family="Helvetica,sans-Serif" font-size="10.00">dvd/dvd.h</text>
</a>
</g>
</g>
<!-- Node11&#45;&gt;Node12 -->
<g id="edge14" class="edge">
<title>Node11&#45;&gt;Node12</title>
<path fill="none" stroke="midnightblue" d="M447.82,-112.08C449.27,-104.93 451.37,-94.64 453.19,-85.69"/>
<polygon fill="midnightblue" stroke="midnightblue" points="456.65,-86.25 455.22,-75.75 449.79,-84.85 456.65,-86.25"/>
</g>
<!-- Node12&#45;&gt;Node7 -->
<g id="edge15" class="edge">
<title>Node12&#45;&gt;Node7</title>
<path fill="none" stroke="midnightblue" d="M444.79,-56.32C433.22,-48.11 415.62,-35.6 401.84,-25.81"/>
<polygon fill="midnightblue" stroke="midnightblue" points="403.61,-22.77 393.43,-19.83 399.56,-28.48 403.61,-22.77"/>
</g>
<!-- Node13&#45;&gt;Node4 -->
<g id="edge18" class="edge">
<title>Node13&#45;&gt;Node4</title>
<path fill="none" stroke="midnightblue" d="M376.56,-336.08C371.05,-328.46 362.97,-317.26 356.24,-307.94"/>
<polygon fill="midnightblue" stroke="midnightblue" points="359.01,-305.81 350.32,-299.75 353.34,-309.91 359.01,-305.81"/>
</g>
<!-- Node13&#45;&gt;Node5 -->
<g id="edge19" class="edge">
<title>Node13&#45;&gt;Node5</title>
<path fill="none" stroke="midnightblue" d="M389.87,-336.33C398.78,-324.03 412.55,-300.68 407,-280 404.35,-270.1 398.93,-260.13 393.73,-252.1"/>
<polygon fill="midnightblue" stroke="midnightblue" points="396.46,-249.91 387.89,-243.68 390.71,-253.89 396.46,-249.91"/>
</g>
<!-- Node14&#45;&gt;Node3 -->
<g id="edge22" class="edge">
<title>Node14&#45;&gt;Node3</title>
<path fill="none" stroke="midnightblue" d="M243.54,-448.4C254.84,-439.31 269.54,-427.49 281.11,-418.19"/>
<polygon fill="midnightblue" stroke="midnightblue" points="283.63,-420.65 289.23,-411.66 279.25,-415.2 283.63,-420.65"/>
</g>
<!-- Node14&#45;&gt;Node6 -->
<g id="edge23" class="edge">
<title>Node14&#45;&gt;Node6</title>
<path fill="none" stroke="midnightblue" d="M217.71,-448.46C206,-427.24 186,-385.41 186,-347 186,-347 186,-347 186,-289 186,-216.52 289.47,-191.26 345.67,-182.89"/>
<polygon fill="midnightblue" stroke="midnightblue" points="346.48,-186.32 355.91,-181.48 345.52,-179.38 346.48,-186.32"/>
</g>
<!-- Node15&#45;&gt;Node3 -->
<g id="edge26" class="edge">
<title>Node15&#45;&gt;Node3</title>
<path fill="none" stroke="midnightblue" d="M368.54,-453.98C355.83,-444.52 335.09,-429.1 319.75,-417.69"/>
<polygon fill="midnightblue" stroke="midnightblue" points="321.55,-414.67 311.44,-411.51 317.38,-420.29 321.55,-414.67"/>
</g>
<!-- Node15&#45;&gt;Node5 -->
<g id="edge25" class="edge">
<title>Node15&#45;&gt;Node5</title>
<path fill="none" stroke="midnightblue" d="M387.82,-453.95C402.84,-436.88 435.26,-396.72 447,-356 458.8,-315.07 422.28,-272.56 398.93,-250.45"/>
<polygon fill="midnightblue" stroke="midnightblue" points="401.07,-247.67 391.32,-243.52 396.36,-252.84 401.07,-247.67"/>
</g>
<!-- Node15&#45;&gt;Node6 -->
<g id="edge28" class="edge">
<title>Node15&#45;&gt;Node6</title>
<path fill="none" stroke="midnightblue" d="M401.88,-453.97C437.48,-438.48 504,-402.16 504,-347 504,-347 504,-347 504,-289 504,-240.48 450.16,-208.01 413.73,-191.6"/>
<polygon fill="midnightblue" stroke="midnightblue" points="414.99,-188.33 404.42,-187.58 412.22,-194.76 414.99,-188.33"/>
</g>
<!-- Node15&#45;&gt;Node13 -->
<g id="edge27" class="edge">
<title>Node15&#45;&gt;Node13</title>
<path fill="none" stroke="midnightblue" d="M380.23,-453.82C380.71,-435.26 381.85,-391.34 382.51,-365.97"/>
<polygon fill="midnightblue" stroke="midnightblue" points="386.01,-365.87 382.77,-355.78 379.01,-365.69 386.01,-365.87"/>
</g>
<!-- Node16&#45;&gt;Node6 -->
<g id="edge30" class="edge">
<title>Node16&#45;&gt;Node6</title>
<path fill="none" stroke="midnightblue" d="M623.39,-392.46C620.89,-363.93 608.84,-271.08 556,-224 517.14,-189.38 455.15,-180.73 416.33,-178.93"/>
<polygon fill="midnightblue" stroke="midnightblue" points="416.15,-175.42 406.04,-178.59 415.91,-182.42 416.15,-175.42"/>
</g>
<!-- Node17&#45;&gt;Node3 -->
<g id="edge32" class="edge">
<title>Node17&#45;&gt;Node3</title>
<path fill="none" stroke="midnightblue" d="M450.31,-448.4C416.12,-438.07 370.29,-424.23 338.26,-414.56"/>
<polygon fill="midnightblue" stroke="midnightblue" points="338.96,-411.11 328.38,-411.57 336.94,-417.81 338.96,-411.11"/>
</g>
<!-- Node17&#45;&gt;Node6 -->
<g id="edge33" class="edge">
<title>Node17&#45;&gt;Node6</title>
<path fill="none" stroke="midnightblue" d="M506.54,-448.25C519.75,-427.1 542,-385.74 542,-347 542,-347 542,-347 542,-289 542,-228.45 463.4,-198.81 416.03,-186.45"/>
<polygon fill="midnightblue" stroke="midnightblue" points="416.7,-183.01 406.16,-184 415.02,-189.8 416.7,-183.01"/>
</g>
</g>
</svg>
