<?xml version="1.0" encoding="UTF-8" standalone="no"?>
<!DOCTYPE svg PUBLIC "-//W3C//DTD SVG 1.1//EN"
 "http://www.w3.org/Graphics/SVG/1.1/DTD/svg11.dtd">
<!-- Generated by graphviz version 2.44.0 ()
 -->
<!-- Title: include/f/f_pc/f_pc_method_iter.h Pages: 1 -->
<svg width="472pt" height="431pt"
 viewBox="0.00 0.00 472.00 431.00" xmlns="http://www.w3.org/2000/svg" xmlns:xlink="http://www.w3.org/1999/xlink">
<g id="graph0" class="graph" transform="scale(1 1) rotate(0) translate(4 427)">
<title>include/f/f_pc/f_pc_method_iter.h</title>
<polygon fill="white" stroke="transparent" points="-4,4 -4,-427 468,-427 468,4 -4,4"/>
<!-- Node1 -->
<g id="node1" class="node">
<title>Node1</title>
<g id="a_node1"><a xlink:title=" ">
<polygon fill="#bfbfbf" stroke="black" points="210,-392.5 210,-422.5 307,-422.5 307,-392.5 210,-392.5"/>
<text text-anchor="start" x="218" y="-410.5" font-family="Helvetica,sans-Serif" font-size="10.00">include/f/f_pc/f_pc</text>
<text text-anchor="middle" x="258.5" y="-399.5" font-family="Helvetica,sans-Serif" font-size="10.00">_method_iter.h</text>
</a>
</g>
</g>
<!-- Node2 -->
<g id="node2" class="node">
<title>Node2</title>
<g id="a_node2"><a xlink:href="c__list__iter_8h.html" target="_top" xlink:title=" ">
<polygon fill="white" stroke="black" points="151,-336.5 151,-355.5 276,-355.5 276,-336.5 151,-336.5"/>
<text text-anchor="middle" x="213.5" y="-343.5" font-family="Helvetica,sans-Serif" font-size="10.00">SComponent/c_list_iter.h</text>
</a>
</g>
</g>
<!-- Node1&#45;&gt;Node2 -->
<g id="edge1" class="edge">
<title>Node1&#45;&gt;Node2</title>
<path fill="none" stroke="midnightblue" d="M247.84,-392.4C241.36,-383.84 233.07,-372.87 226.25,-363.86"/>
<polygon fill="midnightblue" stroke="midnightblue" points="228.87,-361.52 220.05,-355.66 223.29,-365.74 228.87,-361.52"/>
</g>
<!-- Node5 -->
<g id="node5" class="node">
<title>Node5</title>
<g id="a_node5"><a xlink:href="global_8h.html" target="_top" xlink:title=" ">
<polygon fill="white" stroke="black" points="262.5,-168.5 262.5,-187.5 312.5,-187.5 312.5,-168.5 262.5,-168.5"/>
<text text-anchor="middle" x="287.5" y="-175.5" font-family="Helvetica,sans-Serif" font-size="10.00">global.h</text>
</a>
</g>
</g>
<!-- Node1&#45;&gt;Node5 -->
<g id="edge18" class="edge">
<title>Node1&#45;&gt;Node5</title>
<path fill="none" stroke="midnightblue" d="M267.34,-392.47C273.13,-382.63 280.37,-368.97 284.5,-356 299.78,-308.09 296.94,-294.16 300.5,-244 301.13,-235.13 301.75,-232.8 300.5,-224 299.23,-215.04 296.61,-205.37 294.05,-197.3"/>
<polygon fill="midnightblue" stroke="midnightblue" points="297.36,-196.16 290.84,-187.8 290.73,-198.4 297.36,-196.16"/>
</g>
<!-- Node3 -->
<g id="node3" class="node">
<title>Node3</title>
<g id="a_node3"><a xlink:href="c__list_8h.html" target="_top" xlink:title=" ">
<polygon fill="white" stroke="black" points="0,-280.5 0,-299.5 107,-299.5 107,-280.5 0,-280.5"/>
<text text-anchor="middle" x="53.5" y="-287.5" font-family="Helvetica,sans-Serif" font-size="10.00">SComponent/c_list.h</text>
</a>
</g>
</g>
<!-- Node2&#45;&gt;Node3 -->
<g id="edge2" class="edge">
<title>Node2&#45;&gt;Node3</title>
<path fill="none" stroke="midnightblue" d="M188.15,-336.44C161.23,-327.36 118.5,-312.94 88.41,-302.78"/>
<polygon fill="midnightblue" stroke="midnightblue" points="89.33,-299.4 78.73,-299.52 87.09,-306.03 89.33,-299.4"/>
</g>
<!-- Node2&#45;&gt;Node5 -->
<g id="edge17" class="edge">
<title>Node2&#45;&gt;Node5</title>
<path fill="none" stroke="midnightblue" d="M229.5,-336.35C242.23,-328.58 259.36,-315.95 268.5,-300 287.03,-267.67 289.09,-222.9 288.55,-197.87"/>
<polygon fill="midnightblue" stroke="midnightblue" points="292.04,-197.45 288.15,-187.6 285.04,-197.72 292.04,-197.45"/>
</g>
<!-- Node12 -->
<g id="node12" class="node">
<title>Node12</title>
<g id="a_node12"><a xlink:href="c__node__iter_8h.html" target="_top" xlink:title=" ">
<polygon fill="white" stroke="black" points="125.5,-280.5 125.5,-299.5 259.5,-299.5 259.5,-280.5 125.5,-280.5"/>
<text text-anchor="middle" x="192.5" y="-287.5" font-family="Helvetica,sans-Serif" font-size="10.00">SComponent/c_node_iter.h</text>
</a>
</g>
</g>
<!-- Node2&#45;&gt;Node12 -->
<g id="edge15" class="edge">
<title>Node2&#45;&gt;Node12</title>
<path fill="none" stroke="midnightblue" d="M210.03,-336.08C207.19,-328.77 203.07,-318.18 199.54,-309.1"/>
<polygon fill="midnightblue" stroke="midnightblue" points="202.79,-307.8 195.9,-299.75 196.27,-310.34 202.79,-307.8"/>
</g>
<!-- Node4 -->
<g id="node4" class="node">
<title>Node4</title>
<g id="a_node4"><a xlink:href="c__node_8h.html" target="_top" xlink:title=" ">
<polygon fill="white" stroke="black" points="135,-224.5 135,-243.5 250,-243.5 250,-224.5 135,-224.5"/>
<text text-anchor="middle" x="192.5" y="-231.5" font-family="Helvetica,sans-Serif" font-size="10.00">SComponent/c_node.h</text>
</a>
</g>
</g>
<!-- Node3&#45;&gt;Node4 -->
<g id="edge3" class="edge">
<title>Node3&#45;&gt;Node4</title>
<path fill="none" stroke="midnightblue" d="M75.52,-280.44C98.6,-271.48 135.06,-257.31 161.14,-247.18"/>
<polygon fill="midnightblue" stroke="midnightblue" points="162.52,-250.4 170.58,-243.52 159.99,-243.88 162.52,-250.4"/>
</g>
<!-- Node4&#45;&gt;Node5 -->
<g id="edge4" class="edge">
<title>Node4&#45;&gt;Node5</title>
<path fill="none" stroke="midnightblue" d="M207.76,-224.32C222.72,-215.82 245.75,-202.73 263.23,-192.8"/>
<polygon fill="midnightblue" stroke="midnightblue" points="265.31,-195.64 272.27,-187.65 261.85,-189.55 265.31,-195.64"/>
</g>
<!-- Node6 -->
<g id="node6" class="node">
<title>Node6</title>
<g id="a_node6"><a xlink:href="types_8h.html" target="_top" xlink:title=" ">
<polygon fill="white" stroke="black" points="280,-0.5 280,-19.5 361,-19.5 361,-0.5 280,-0.5"/>
<text text-anchor="middle" x="320.5" y="-7.5" font-family="Helvetica,sans-Serif" font-size="10.00">dolphin/types.h</text>
</a>
</g>
</g>
<!-- Node5&#45;&gt;Node6 -->
<g id="edge5" class="edge">
<title>Node5&#45;&gt;Node6</title>
<path fill="none" stroke="midnightblue" d="M275.21,-168.32C248.26,-148.22 188.45,-97.02 215.5,-56 227.8,-37.35 249.61,-26.4 270.18,-19.98"/>
<polygon fill="midnightblue" stroke="midnightblue" points="271.14,-23.35 279.81,-17.26 269.24,-16.61 271.14,-23.35"/>
</g>
<!-- Node7 -->
<g id="node7" class="node">
<title>Node7</title>
<g id="a_node7"><a xlink:href="AR_8h.html" target="_top" xlink:title=" ">
<polygon fill="white" stroke="black" points="225,-56.5 225,-75.5 274,-75.5 274,-56.5 225,-56.5"/>
<text text-anchor="middle" x="249.5" y="-63.5" font-family="Helvetica,sans-Serif" font-size="10.00">ar/AR.h</text>
</a>
</g>
</g>
<!-- Node5&#45;&gt;Node7 -->
<g id="edge6" class="edge">
<title>Node5&#45;&gt;Node7</title>
<path fill="none" stroke="midnightblue" d="M284.52,-168.37C278.36,-150.54 264.11,-109.3 255.81,-85.27"/>
<polygon fill="midnightblue" stroke="midnightblue" points="259.04,-83.9 252.47,-75.59 252.43,-86.19 259.04,-83.9"/>
</g>
<!-- Node8 -->
<g id="node8" class="node">
<title>Node8</title>
<g id="a_node8"><a xlink:href="ARQ_8h.html" target="_top" xlink:title=" ">
<polygon fill="white" stroke="black" points="292.5,-56.5 292.5,-75.5 348.5,-75.5 348.5,-56.5 292.5,-56.5"/>
<text text-anchor="middle" x="320.5" y="-63.5" font-family="Helvetica,sans-Serif" font-size="10.00">ar/ARQ.h</text>
</a>
</g>
</g>
<!-- Node5&#45;&gt;Node8 -->
<g id="edge8" class="edge">
<title>Node5&#45;&gt;Node8</title>
<path fill="none" stroke="midnightblue" d="M290.03,-168.15C293.63,-155.63 300.46,-132.04 306.5,-112 309.16,-103.18 312.19,-93.41 314.75,-85.23"/>
<polygon fill="midnightblue" stroke="midnightblue" points="318.11,-86.2 317.77,-75.61 311.44,-84.1 318.11,-86.2"/>
</g>
<!-- Node9 -->
<g id="node9" class="node">
<title>Node9</title>
<g id="a_node9"><a xlink:href="mwcc_8h.html" target="_top" xlink:title=" ">
<polygon fill="white" stroke="black" points="315.5,-112.5 315.5,-131.5 365.5,-131.5 365.5,-112.5 315.5,-112.5"/>
<text text-anchor="middle" x="340.5" y="-119.5" font-family="Helvetica,sans-Serif" font-size="10.00">mwcc.h</text>
</a>
</g>
</g>
<!-- Node5&#45;&gt;Node9 -->
<g id="edge10" class="edge">
<title>Node5&#45;&gt;Node9</title>
<path fill="none" stroke="midnightblue" d="M296.25,-168.08C303.97,-160.22 315.4,-148.57 324.72,-139.08"/>
<polygon fill="midnightblue" stroke="midnightblue" points="327.4,-141.34 331.91,-131.75 322.41,-136.44 327.4,-141.34"/>
</g>
<!-- Node10 -->
<g id="node10" class="node">
<title>Node10</title>
<g id="a_node10"><a xlink:href="OS_8h.html" target="_top" xlink:title=" ">
<polygon fill="white" stroke="black" points="383.5,-112.5 383.5,-131.5 435.5,-131.5 435.5,-112.5 383.5,-112.5"/>
<text text-anchor="middle" x="409.5" y="-119.5" font-family="Helvetica,sans-Serif" font-size="10.00">os/OS.h</text>
</a>
</g>
</g>
<!-- Node5&#45;&gt;Node10 -->
<g id="edge11" class="edge">
<title>Node5&#45;&gt;Node10</title>
<path fill="none" stroke="midnightblue" d="M306.83,-168.44C326.82,-159.6 358.24,-145.69 381.06,-135.59"/>
<polygon fill="midnightblue" stroke="midnightblue" points="382.53,-138.76 390.26,-131.52 379.7,-132.36 382.53,-138.76"/>
</g>
<!-- Node7&#45;&gt;Node6 -->
<g id="edge7" class="edge">
<title>Node7&#45;&gt;Node6</title>
<path fill="none" stroke="midnightblue" d="M260.91,-56.32C271.61,-48.18 287.84,-35.84 300.66,-26.09"/>
<polygon fill="midnightblue" stroke="midnightblue" points="303.04,-28.67 308.89,-19.83 298.81,-23.1 303.04,-28.67"/>
</g>
<!-- Node8&#45;&gt;Node6 -->
<g id="edge9" class="edge">
<title>Node8&#45;&gt;Node6</title>
<path fill="none" stroke="midnightblue" d="M320.5,-56.08C320.5,-49.01 320.5,-38.86 320.5,-29.99"/>
<polygon fill="midnightblue" stroke="midnightblue" points="324,-29.75 320.5,-19.75 317,-29.75 324,-29.75"/>
</g>
<!-- Node10&#45;&gt;Node6 -->
<g id="edge12" class="edge">
<title>Node10&#45;&gt;Node6</title>
<path fill="none" stroke="midnightblue" d="M402.47,-112.14C392.51,-99.6 373.7,-75.98 357.5,-56 349.76,-46.46 341.03,-35.83 334,-27.31"/>
<polygon fill="midnightblue" stroke="midnightblue" points="336.7,-25.08 327.63,-19.6 331.3,-29.54 336.7,-25.08"/>
</g>
<!-- Node11 -->
<g id="node11" class="node">
<title>Node11</title>
<g id="a_node11"><a xlink:href="dvd_8h.html" target="_top" xlink:title=" ">
<polygon fill="white" stroke="black" points="405,-56.5 405,-75.5 464,-75.5 464,-56.5 405,-56.5"/>
<text text-anchor="middle" x="434.5" y="-63.5" font-family="Helvetica,sans-Serif" font-size="10.00">dvd/dvd.h</text>
</a>
</g>
</g>
<!-- Node10&#45;&gt;Node11 -->
<g id="edge13" class="edge">
<title>Node10&#45;&gt;Node11</title>
<path fill="none" stroke="midnightblue" d="M413.63,-112.08C417.01,-104.77 421.92,-94.18 426.12,-85.1"/>
<polygon fill="midnightblue" stroke="midnightblue" points="429.42,-86.3 430.45,-75.75 423.07,-83.36 429.42,-86.3"/>
</g>
<!-- Node11&#45;&gt;Node6 -->
<g id="edge14" class="edge">
<title>Node11&#45;&gt;Node6</title>
<path fill="none" stroke="midnightblue" d="M416.44,-56.44C397.93,-47.68 368.92,-33.94 347.64,-23.86"/>
<polygon fill="midnightblue" stroke="midnightblue" points="349.01,-20.63 338.48,-19.52 346.02,-26.96 349.01,-20.63"/>
</g>
<!-- Node12&#45;&gt;Node4 -->
<g id="edge16" class="edge">
<title>Node12&#45;&gt;Node4</title>
<path fill="none" stroke="midnightblue" d="M192.5,-280.08C192.5,-273.01 192.5,-262.86 192.5,-253.99"/>
<polygon fill="midnightblue" stroke="midnightblue" points="196,-253.75 192.5,-243.75 189,-253.75 196,-253.75"/>
</g>
</g>
</svg>
