<?xml version="1.0" encoding="UTF-8" standalone="no"?>
<!DOCTYPE svg PUBLIC "-//W3C//DTD SVG 1.1//EN"
 "http://www.w3.org/Graphics/SVG/1.1/DTD/svg11.dtd">
<!-- Generated by graphviz version 2.44.0 ()
 -->
<!-- Title: include/f/f_pc/f_pc_layer_iter.h Pages: 1 -->
<svg width="509pt" height="543pt"
 viewBox="0.00 0.00 509.31 543.00" xmlns="http://www.w3.org/2000/svg" xmlns:xlink="http://www.w3.org/1999/xlink">
<g id="graph0" class="graph" transform="scale(1 1) rotate(0) translate(4 539)">
<title>include/f/f_pc/f_pc_layer_iter.h</title>
<polygon fill="white" stroke="transparent" points="-4,4 -4,-539 505.31,-539 505.31,4 -4,4"/>
<!-- Node1 -->
<g id="node1" class="node">
<title>Node1</title>
<g id="a_node1"><a xlink:title=" ">
<polygon fill="#bfbfbf" stroke="black" points="46.5,-504.5 46.5,-534.5 143.5,-534.5 143.5,-504.5 46.5,-504.5"/>
<text text-anchor="start" x="54.5" y="-522.5" font-family="Helvetica,sans-Serif" font-size="10.00">include/f/f_pc/f_pc</text>
<text text-anchor="middle" x="95" y="-511.5" font-family="Helvetica,sans-Serif" font-size="10.00">_layer_iter.h</text>
</a>
</g>
</g>
<!-- Node2 -->
<g id="node2" class="node">
<title>Node2</title>
<g id="a_node2"><a xlink:href="c__node__iter_8h.html" target="_top" xlink:title=" ">
<polygon fill="white" stroke="black" points="28,-392.5 28,-411.5 162,-411.5 162,-392.5 28,-392.5"/>
<text text-anchor="middle" x="95" y="-399.5" font-family="Helvetica,sans-Serif" font-size="10.00">SComponent/c_node_iter.h</text>
</a>
</g>
</g>
<!-- Node1&#45;&gt;Node2 -->
<g id="edge1" class="edge">
<title>Node1&#45;&gt;Node2</title>
<path fill="none" stroke="midnightblue" d="M95,-504.34C95,-483.62 95,-445.02 95,-421.9"/>
<polygon fill="midnightblue" stroke="midnightblue" points="98.5,-421.67 95,-411.67 91.5,-421.67 98.5,-421.67"/>
</g>
<!-- Node4 -->
<g id="node4" class="node">
<title>Node4</title>
<g id="a_node4"><a xlink:href="global_8h.html" target="_top" xlink:title=" ">
<polygon fill="white" stroke="black" points="324,-168.5 324,-187.5 374,-187.5 374,-168.5 324,-168.5"/>
<text text-anchor="middle" x="349" y="-175.5" font-family="Helvetica,sans-Serif" font-size="10.00">global.h</text>
</a>
</g>
</g>
<!-- Node1&#45;&gt;Node4 -->
<g id="edge26" class="edge">
<title>Node1&#45;&gt;Node4</title>
<path fill="none" stroke="midnightblue" d="M72,-504.45C43.89,-485.3 0,-448.18 0,-403 0,-403 0,-403 0,-289 0,-223.68 225.2,-192.32 313.8,-182.51"/>
<polygon fill="midnightblue" stroke="midnightblue" points="314.33,-185.97 323.9,-181.42 313.58,-179.02 314.33,-185.97"/>
</g>
<!-- Node11 -->
<g id="node11" class="node">
<title>Node11</title>
<g id="a_node11"><a xlink:href="f__pc__layer_8h.html" target="_top" xlink:title=" ">
<polygon fill="white" stroke="black" points="202,-448.5 202,-467.5 298,-467.5 298,-448.5 202,-448.5"/>
<text text-anchor="middle" x="250" y="-455.5" font-family="Helvetica,sans-Serif" font-size="10.00">f/f_pc/f_pc_layer.h</text>
</a>
</g>
</g>
<!-- Node1&#45;&gt;Node11 -->
<g id="edge14" class="edge">
<title>Node1&#45;&gt;Node11</title>
<path fill="none" stroke="midnightblue" d="M131.73,-504.4C157.97,-494.33 192.93,-480.91 218.02,-471.28"/>
<polygon fill="midnightblue" stroke="midnightblue" points="219.36,-474.51 227.45,-467.66 216.86,-467.97 219.36,-474.51"/>
</g>
<!-- Node3 -->
<g id="node3" class="node">
<title>Node3</title>
<g id="a_node3"><a xlink:href="c__node_8h.html" target="_top" xlink:title=" ">
<polygon fill="white" stroke="black" points="190.5,-224.5 190.5,-243.5 305.5,-243.5 305.5,-224.5 190.5,-224.5"/>
<text text-anchor="middle" x="248" y="-231.5" font-family="Helvetica,sans-Serif" font-size="10.00">SComponent/c_node.h</text>
</a>
</g>
</g>
<!-- Node2&#45;&gt;Node3 -->
<g id="edge2" class="edge">
<title>Node2&#45;&gt;Node3</title>
<path fill="none" stroke="midnightblue" d="M97.04,-392.2C102.49,-370.46 119.32,-313.53 153,-280 168.2,-264.87 189.46,-254.15 208.02,-246.98"/>
<polygon fill="midnightblue" stroke="midnightblue" points="209.24,-250.26 217.43,-243.54 206.84,-243.68 209.24,-250.26"/>
</g>
<!-- Node3&#45;&gt;Node4 -->
<g id="edge3" class="edge">
<title>Node3&#45;&gt;Node4</title>
<path fill="none" stroke="midnightblue" d="M264.23,-224.32C280.35,-215.7 305.3,-202.36 323.96,-192.39"/>
<polygon fill="midnightblue" stroke="midnightblue" points="325.64,-195.46 332.81,-187.65 322.34,-189.28 325.64,-195.46"/>
</g>
<!-- Node5 -->
<g id="node5" class="node">
<title>Node5</title>
<g id="a_node5"><a xlink:href="types_8h.html" target="_top" xlink:title=" ">
<polygon fill="white" stroke="black" points="341.5,-0.5 341.5,-19.5 422.5,-19.5 422.5,-0.5 341.5,-0.5"/>
<text text-anchor="middle" x="382" y="-7.5" font-family="Helvetica,sans-Serif" font-size="10.00">dolphin/types.h</text>
</a>
</g>
</g>
<!-- Node4&#45;&gt;Node5 -->
<g id="edge4" class="edge">
<title>Node4&#45;&gt;Node5</title>
<path fill="none" stroke="midnightblue" d="M336.85,-168.31C310.22,-148.17 251.12,-96.92 278,-56 290.07,-37.63 311.41,-26.72 331.63,-20.26"/>
<polygon fill="midnightblue" stroke="midnightblue" points="332.79,-23.57 341.42,-17.44 330.85,-16.85 332.79,-23.57"/>
</g>
<!-- Node6 -->
<g id="node6" class="node">
<title>Node6</title>
<g id="a_node6"><a xlink:href="AR_8h.html" target="_top" xlink:title=" ">
<polygon fill="white" stroke="black" points="286.5,-56.5 286.5,-75.5 335.5,-75.5 335.5,-56.5 286.5,-56.5"/>
<text text-anchor="middle" x="311" y="-63.5" font-family="Helvetica,sans-Serif" font-size="10.00">ar/AR.h</text>
</a>
</g>
</g>
<!-- Node4&#45;&gt;Node6 -->
<g id="edge5" class="edge">
<title>Node4&#45;&gt;Node6</title>
<path fill="none" stroke="midnightblue" d="M346.02,-168.37C339.86,-150.54 325.61,-109.3 317.31,-85.27"/>
<polygon fill="midnightblue" stroke="midnightblue" points="320.54,-83.9 313.97,-75.59 313.93,-86.19 320.54,-83.9"/>
</g>
<!-- Node7 -->
<g id="node7" class="node">
<title>Node7</title>
<g id="a_node7"><a xlink:href="ARQ_8h.html" target="_top" xlink:title=" ">
<polygon fill="white" stroke="black" points="354,-56.5 354,-75.5 410,-75.5 410,-56.5 354,-56.5"/>
<text text-anchor="middle" x="382" y="-63.5" font-family="Helvetica,sans-Serif" font-size="10.00">ar/ARQ.h</text>
</a>
</g>
</g>
<!-- Node4&#45;&gt;Node7 -->
<g id="edge7" class="edge">
<title>Node4&#45;&gt;Node7</title>
<path fill="none" stroke="midnightblue" d="M351.53,-168.15C355.13,-155.63 361.96,-132.04 368,-112 370.66,-103.18 373.69,-93.41 376.25,-85.23"/>
<polygon fill="midnightblue" stroke="midnightblue" points="379.61,-86.2 379.27,-75.61 372.94,-84.1 379.61,-86.2"/>
</g>
<!-- Node8 -->
<g id="node8" class="node">
<title>Node8</title>
<g id="a_node8"><a xlink:href="mwcc_8h.html" target="_top" xlink:title=" ">
<polygon fill="white" stroke="black" points="377,-112.5 377,-131.5 427,-131.5 427,-112.5 377,-112.5"/>
<text text-anchor="middle" x="402" y="-119.5" font-family="Helvetica,sans-Serif" font-size="10.00">mwcc.h</text>
</a>
</g>
</g>
<!-- Node4&#45;&gt;Node8 -->
<g id="edge9" class="edge">
<title>Node4&#45;&gt;Node8</title>
<path fill="none" stroke="midnightblue" d="M357.75,-168.08C365.47,-160.22 376.9,-148.57 386.22,-139.08"/>
<polygon fill="midnightblue" stroke="midnightblue" points="388.9,-141.34 393.41,-131.75 383.91,-136.44 388.9,-141.34"/>
</g>
<!-- Node9 -->
<g id="node9" class="node">
<title>Node9</title>
<g id="a_node9"><a xlink:href="OS_8h.html" target="_top" xlink:title=" ">
<polygon fill="white" stroke="black" points="445,-112.5 445,-131.5 497,-131.5 497,-112.5 445,-112.5"/>
<text text-anchor="middle" x="471" y="-119.5" font-family="Helvetica,sans-Serif" font-size="10.00">os/OS.h</text>
</a>
</g>
</g>
<!-- Node4&#45;&gt;Node9 -->
<g id="edge10" class="edge">
<title>Node4&#45;&gt;Node9</title>
<path fill="none" stroke="midnightblue" d="M368.33,-168.44C388.32,-159.6 419.74,-145.69 442.56,-135.59"/>
<polygon fill="midnightblue" stroke="midnightblue" points="444.03,-138.76 451.76,-131.52 441.2,-132.36 444.03,-138.76"/>
</g>
<!-- Node6&#45;&gt;Node5 -->
<g id="edge6" class="edge">
<title>Node6&#45;&gt;Node5</title>
<path fill="none" stroke="midnightblue" d="M322.41,-56.32C333.11,-48.18 349.34,-35.84 362.16,-26.09"/>
<polygon fill="midnightblue" stroke="midnightblue" points="364.54,-28.67 370.39,-19.83 360.31,-23.1 364.54,-28.67"/>
</g>
<!-- Node7&#45;&gt;Node5 -->
<g id="edge8" class="edge">
<title>Node7&#45;&gt;Node5</title>
<path fill="none" stroke="midnightblue" d="M382,-56.08C382,-49.01 382,-38.86 382,-29.99"/>
<polygon fill="midnightblue" stroke="midnightblue" points="385.5,-29.75 382,-19.75 378.5,-29.75 385.5,-29.75"/>
</g>
<!-- Node9&#45;&gt;Node5 -->
<g id="edge11" class="edge">
<title>Node9&#45;&gt;Node5</title>
<path fill="none" stroke="midnightblue" d="M479.39,-112.43C491.07,-99.42 509.47,-74.27 497,-56 482.51,-34.77 456.38,-23.56 432.68,-17.63"/>
<polygon fill="midnightblue" stroke="midnightblue" points="433.23,-14.17 422.71,-15.4 431.71,-21 433.23,-14.17"/>
</g>
<!-- Node10 -->
<g id="node10" class="node">
<title>Node10</title>
<g id="a_node10"><a xlink:href="dvd_8h.html" target="_top" xlink:title=" ">
<polygon fill="white" stroke="black" points="428.5,-56.5 428.5,-75.5 487.5,-75.5 487.5,-56.5 428.5,-56.5"/>
<text text-anchor="middle" x="458" y="-63.5" font-family="Helvetica,sans-Serif" font-size="10.00">dvd/dvd.h</text>
</a>
</g>
</g>
<!-- Node9&#45;&gt;Node10 -->
<g id="edge12" class="edge">
<title>Node9&#45;&gt;Node10</title>
<path fill="none" stroke="midnightblue" d="M468.85,-112.08C467.13,-104.93 464.65,-94.64 462.5,-85.69"/>
<polygon fill="midnightblue" stroke="midnightblue" points="465.85,-84.65 460.11,-75.75 459.04,-86.29 465.85,-84.65"/>
</g>
<!-- Node10&#45;&gt;Node5 -->
<g id="edge13" class="edge">
<title>Node10&#45;&gt;Node5</title>
<path fill="none" stroke="midnightblue" d="M445.79,-56.32C434.22,-48.11 416.62,-35.6 402.84,-25.81"/>
<polygon fill="midnightblue" stroke="midnightblue" points="404.61,-22.77 394.43,-19.83 400.56,-28.48 404.61,-22.77"/>
</g>
<!-- Node11&#45;&gt;Node3 -->
<g id="edge15" class="edge">
<title>Node11&#45;&gt;Node3</title>
<path fill="none" stroke="midnightblue" d="M242.08,-448.4C227.55,-431.95 197.11,-394.28 186,-356 174.29,-315.65 208.84,-272.91 230.98,-250.61"/>
<polygon fill="midnightblue" stroke="midnightblue" points="233.46,-253.09 238.2,-243.62 228.58,-248.06 233.46,-253.09"/>
</g>
<!-- Node11&#45;&gt;Node4 -->
<g id="edge25" class="edge">
<title>Node11&#45;&gt;Node4</title>
<path fill="none" stroke="midnightblue" d="M298.19,-451.27C356.51,-441.33 447,-414.96 447,-347 447,-347 447,-347 447,-289 447,-245.38 403.51,-211.06 374.47,-193.01"/>
<polygon fill="midnightblue" stroke="midnightblue" points="376,-189.85 365.62,-187.73 372.42,-195.86 376,-189.85"/>
</g>
<!-- Node12 -->
<g id="node12" class="node">
<title>Node12</title>
<g id="a_node12"><a xlink:href="c__tag_8h.html" target="_top" xlink:title=" ">
<polygon fill="white" stroke="black" points="279.5,-392.5 279.5,-411.5 386.5,-411.5 386.5,-392.5 279.5,-392.5"/>
<text text-anchor="middle" x="333" y="-399.5" font-family="Helvetica,sans-Serif" font-size="10.00">SComponent/c_tag.h</text>
</a>
</g>
</g>
<!-- Node11&#45;&gt;Node12 -->
<g id="edge16" class="edge">
<title>Node11&#45;&gt;Node12</title>
<path fill="none" stroke="midnightblue" d="M263.34,-448.32C276.16,-439.98 295.78,-427.21 310.94,-417.35"/>
<polygon fill="midnightblue" stroke="midnightblue" points="313.22,-420.04 319.7,-411.65 309.41,-414.17 313.22,-420.04"/>
</g>
<!-- Node14 -->
<g id="node14" class="node">
<title>Node14</title>
<g id="a_node14"><a xlink:href="c__tree_8h.html" target="_top" xlink:title=" ">
<polygon fill="white" stroke="black" points="195,-336.5 195,-355.5 305,-355.5 305,-336.5 195,-336.5"/>
<text text-anchor="middle" x="250" y="-343.5" font-family="Helvetica,sans-Serif" font-size="10.00">SComponent/c_tree.h</text>
</a>
</g>
</g>
<!-- Node11&#45;&gt;Node14 -->
<g id="edge24" class="edge">
<title>Node11&#45;&gt;Node14</title>
<path fill="none" stroke="midnightblue" d="M250,-448.37C250,-430.62 250,-389.67 250,-365.6"/>
<polygon fill="midnightblue" stroke="midnightblue" points="253.5,-365.59 250,-355.59 246.5,-365.59 253.5,-365.59"/>
</g>
<!-- Node12&#45;&gt;Node3 -->
<g id="edge19" class="edge">
<title>Node12&#45;&gt;Node3</title>
<path fill="none" stroke="midnightblue" d="M338.15,-392.23C349.87,-371.02 375.7,-316.08 352,-280 341.43,-263.91 323.74,-253.54 305.92,-246.88"/>
<polygon fill="midnightblue" stroke="midnightblue" points="306.64,-243.43 296.05,-243.54 304.4,-250.06 306.64,-243.43"/>
</g>
<!-- Node12&#45;&gt;Node4 -->
<g id="edge23" class="edge">
<title>Node12&#45;&gt;Node4</title>
<path fill="none" stroke="midnightblue" d="M343.44,-392.24C352.42,-383.97 364.75,-370.66 370,-356 389.79,-300.78 368.75,-230.28 356.51,-197.41"/>
<polygon fill="midnightblue" stroke="midnightblue" points="359.65,-195.84 352.76,-187.79 353.12,-198.38 359.65,-195.84"/>
</g>
<!-- Node13 -->
<g id="node13" class="node">
<title>Node13</title>
<g id="a_node13"><a xlink:href="c__list_8h.html" target="_top" xlink:title=" ">
<polygon fill="white" stroke="black" points="235.5,-280.5 235.5,-299.5 342.5,-299.5 342.5,-280.5 235.5,-280.5"/>
<text text-anchor="middle" x="289" y="-287.5" font-family="Helvetica,sans-Serif" font-size="10.00">SComponent/c_list.h</text>
</a>
</g>
</g>
<!-- Node12&#45;&gt;Node13 -->
<g id="edge17" class="edge">
<title>Node12&#45;&gt;Node13</title>
<path fill="none" stroke="midnightblue" d="M331.13,-392.38C328.24,-379.73 322.16,-355.53 314,-336 310.04,-326.52 304.59,-316.47 299.79,-308.29"/>
<polygon fill="midnightblue" stroke="midnightblue" points="302.75,-306.42 294.58,-299.67 296.76,-310.04 302.75,-306.42"/>
</g>
<!-- Node12&#45;&gt;Node14 -->
<g id="edge20" class="edge">
<title>Node12&#45;&gt;Node14</title>
<path fill="none" stroke="midnightblue" d="M319.66,-392.32C306.84,-383.98 287.22,-371.21 272.06,-361.35"/>
<polygon fill="midnightblue" stroke="midnightblue" points="273.59,-358.17 263.3,-355.65 269.78,-364.04 273.59,-358.17"/>
</g>
<!-- Node13&#45;&gt;Node3 -->
<g id="edge18" class="edge">
<title>Node13&#45;&gt;Node3</title>
<path fill="none" stroke="midnightblue" d="M282.23,-280.08C276.44,-272.46 267.94,-261.26 260.86,-251.94"/>
<polygon fill="midnightblue" stroke="midnightblue" points="263.48,-249.6 254.64,-243.75 257.9,-253.83 263.48,-249.6"/>
</g>
<!-- Node14&#45;&gt;Node3 -->
<g id="edge22" class="edge">
<title>Node14&#45;&gt;Node3</title>
<path fill="none" stroke="midnightblue" d="M243.9,-336.19C238.25,-327.46 230.24,-313.48 227,-300 223.06,-283.65 229.94,-265.46 236.85,-252.49"/>
<polygon fill="midnightblue" stroke="midnightblue" points="239.95,-254.11 241.96,-243.71 233.91,-250.59 239.95,-254.11"/>
</g>
<!-- Node14&#45;&gt;Node13 -->
<g id="edge21" class="edge">
<title>Node14&#45;&gt;Node13</title>
<path fill="none" stroke="midnightblue" d="M256.44,-336.08C261.95,-328.46 270.03,-317.26 276.76,-307.94"/>
<polygon fill="midnightblue" stroke="midnightblue" points="279.66,-309.91 282.68,-299.75 273.99,-305.81 279.66,-309.91"/>
</g>
</g>
</svg>
