<?xml version="1.0" encoding="UTF-8" standalone="no"?>
<!DOCTYPE svg PUBLIC "-//W3C//DTD SVG 1.1//EN"
 "http://www.w3.org/Graphics/SVG/1.1/DTD/svg11.dtd">
<!-- Generated by graphviz version 2.44.0 ()
 -->
<!-- Title: src/f/f_pc/f_pc_stdcreate_req.cpp Pages: 1 -->
<svg width="1165pt" height="744pt"
 viewBox="0.00 0.00 1165.00 744.00" xmlns="http://www.w3.org/2000/svg" xmlns:xlink="http://www.w3.org/1999/xlink">
<g id="graph0" class="graph" transform="scale(1 1) rotate(0) translate(4 740)">
<title>src/f/f_pc/f_pc_stdcreate_req.cpp</title>
<polygon fill="white" stroke="transparent" points="-4,4 -4,-740 1161,-740 1161,4 -4,4"/>
<!-- Node1 -->
<g id="node1" class="node">
<title>Node1</title>
<g id="a_node1"><a xlink:title=" ">
<polygon fill="#bfbfbf" stroke="black" points="485.5,-705.5 485.5,-735.5 610.5,-735.5 610.5,-705.5 485.5,-705.5"/>
<text text-anchor="start" x="493.5" y="-723.5" font-family="Helvetica,sans-Serif" font-size="10.00">src/f/f_pc/f_pc_stdcreate</text>
<text text-anchor="middle" x="548" y="-712.5" font-family="Helvetica,sans-Serif" font-size="10.00">_req.cpp</text>
</a>
</g>
</g>
<!-- Node2 -->
<g id="node2" class="node">
<title>Node2</title>
<g id="a_node2"><a xlink:href="f__pc__stdcreate__req_8h.html" target="_top" xlink:title=" ">
<polygon fill="white" stroke="black" points="423.5,-582.5 423.5,-612.5 532.5,-612.5 532.5,-582.5 423.5,-582.5"/>
<text text-anchor="start" x="431.5" y="-600.5" font-family="Helvetica,sans-Serif" font-size="10.00">f/f_pc/f_pc_stdcreate</text>
<text text-anchor="middle" x="478" y="-589.5" font-family="Helvetica,sans-Serif" font-size="10.00">_req.h</text>
</a>
</g>
</g>
<!-- Node1&#45;&gt;Node2 -->
<g id="edge1" class="edge">
<title>Node1&#45;&gt;Node2</title>
<path fill="none" stroke="midnightblue" d="M539.7,-705.14C527.75,-684.5 505.59,-646.19 491.33,-621.55"/>
<polygon fill="midnightblue" stroke="midnightblue" points="494.33,-619.74 486.29,-612.84 488.27,-623.25 494.33,-619.74"/>
</g>
<!-- Node9 -->
<g id="node9" class="node">
<title>Node9</title>
<g id="a_node9"><a xlink:href="types_8h.html" target="_top" xlink:title=" ">
<polygon fill="white" stroke="black" points="475.5,-0.5 475.5,-19.5 556.5,-19.5 556.5,-0.5 475.5,-0.5"/>
<text text-anchor="middle" x="516" y="-7.5" font-family="Helvetica,sans-Serif" font-size="10.00">dolphin/types.h</text>
</a>
</g>
</g>
<!-- Node1&#45;&gt;Node9 -->
<g id="edge39" class="edge">
<title>Node1&#45;&gt;Node9</title>
<path fill="none" stroke="midnightblue" d="M485.4,-718.76C341.62,-715.37 0,-696.97 0,-598.5 0,-598.5 0,-598.5 0,-121 0,-26.58 334.66,-12.9 464.95,-11.15"/>
<polygon fill="midnightblue" stroke="midnightblue" points="465.12,-14.65 475.08,-11.03 465.04,-7.65 465.12,-14.65"/>
</g>
<!-- Node20 -->
<g id="node20" class="node">
<title>Node20</title>
<g id="a_node20"><a xlink:href="f__pc__base_8h.html" target="_top" xlink:title=" ">
<polygon fill="white" stroke="black" points="740.5,-588 740.5,-607 837.5,-607 837.5,-588 740.5,-588"/>
<text text-anchor="middle" x="789" y="-595" font-family="Helvetica,sans-Serif" font-size="10.00">f/f_pc/f_pc_base.h</text>
</a>
</g>
</g>
<!-- Node1&#45;&gt;Node20 -->
<g id="edge40" class="edge">
<title>Node1&#45;&gt;Node20</title>
<path fill="none" stroke="midnightblue" d="M581.79,-705.48C604.67,-695.75 635.45,-682.22 662,-669 698.83,-650.66 740.3,-627.06 765.54,-612.36"/>
<polygon fill="midnightblue" stroke="midnightblue" points="767.51,-615.26 774.37,-607.19 763.97,-609.22 767.51,-615.26"/>
</g>
<!-- Node26 -->
<g id="node26" class="node">
<title>Node26</title>
<g id="a_node26"><a xlink:href="f__pc__node_8h.html" target="_top" xlink:title=" ">
<polygon fill="white" stroke="black" points="556.5,-649.5 556.5,-668.5 653.5,-668.5 653.5,-649.5 556.5,-649.5"/>
<text text-anchor="middle" x="605" y="-656.5" font-family="Helvetica,sans-Serif" font-size="10.00">f/f_pc/f_pc_node.h</text>
</a>
</g>
</g>
<!-- Node1&#45;&gt;Node26 -->
<g id="edge60" class="edge">
<title>Node1&#45;&gt;Node26</title>
<path fill="none" stroke="midnightblue" d="M561.51,-705.4C569.96,-696.58 580.88,-685.18 589.66,-676.02"/>
<polygon fill="midnightblue" stroke="midnightblue" points="592.32,-678.3 596.71,-668.66 587.26,-673.46 592.32,-678.3"/>
</g>
<!-- Node3 -->
<g id="node3" class="node">
<title>Node3</title>
<g id="a_node3"><a xlink:href="f__pc__create__req_8h.html" target="_top" xlink:title=" ">
<polygon fill="white" stroke="black" points="414.5,-515.5 414.5,-545.5 509.5,-545.5 509.5,-515.5 414.5,-515.5"/>
<text text-anchor="start" x="422.5" y="-533.5" font-family="Helvetica,sans-Serif" font-size="10.00">f/f_pc/f_pc_create</text>
<text text-anchor="middle" x="462" y="-522.5" font-family="Helvetica,sans-Serif" font-size="10.00">_req.h</text>
</a>
</g>
</g>
<!-- Node2&#45;&gt;Node3 -->
<g id="edge2" class="edge">
<title>Node2&#45;&gt;Node3</title>
<path fill="none" stroke="midnightblue" d="M474.53,-582.4C472.6,-574.56 470.15,-564.6 467.92,-555.57"/>
<polygon fill="midnightblue" stroke="midnightblue" points="471.25,-554.45 465.46,-545.58 464.46,-556.12 471.25,-554.45"/>
</g>
<!-- Node8 -->
<g id="node8" class="node">
<title>Node8</title>
<g id="a_node8"><a xlink:href="global_8h.html" target="_top" xlink:title=" ">
<polygon fill="white" stroke="black" points="553,-168.5 553,-187.5 603,-187.5 603,-168.5 553,-168.5"/>
<text text-anchor="middle" x="578" y="-175.5" font-family="Helvetica,sans-Serif" font-size="10.00">global.h</text>
</a>
</g>
</g>
<!-- Node2&#45;&gt;Node8 -->
<g id="edge38" class="edge">
<title>Node2&#45;&gt;Node8</title>
<path fill="none" stroke="midnightblue" d="M423.29,-596.77C354.78,-595.24 235.12,-586.29 142,-546 69.88,-514.79 38,-481.59 38,-403 38,-403 38,-403 38,-289 38,-185.68 422.37,-178.4 542.54,-178.65"/>
<polygon fill="midnightblue" stroke="midnightblue" points="542.66,-182.15 552.68,-178.69 542.69,-175.15 542.66,-182.15"/>
</g>
<!-- Node17 -->
<g id="node17" class="node">
<title>Node17</title>
<g id="a_node17"><a xlink:href="f__pc__layer_8h.html" target="_top" xlink:title=" ">
<polygon fill="white" stroke="black" points="677,-454 677,-473 773,-473 773,-454 677,-454"/>
<text text-anchor="middle" x="725" y="-461" font-family="Helvetica,sans-Serif" font-size="10.00">f/f_pc/f_pc_layer.h</text>
</a>
</g>
</g>
<!-- Node2&#45;&gt;Node17 -->
<g id="edge37" class="edge">
<title>Node2&#45;&gt;Node17</title>
<path fill="none" stroke="midnightblue" d="M497.96,-582.48C522.81,-565.36 566.9,-536.08 607,-515 635.08,-500.24 668.43,-486.28 692.5,-476.79"/>
<polygon fill="midnightblue" stroke="midnightblue" points="693.83,-480.03 701.88,-473.13 691.29,-473.5 693.83,-480.03"/>
</g>
<!-- Node4 -->
<g id="node4" class="node">
<title>Node4</title>
<g id="a_node4"><a xlink:href="c__phase_8h.html" target="_top" xlink:title=" ">
<polygon fill="white" stroke="black" points="230,-454 230,-473 350,-473 350,-454 230,-454"/>
<text text-anchor="middle" x="290" y="-461" font-family="Helvetica,sans-Serif" font-size="10.00">SComponent/c_phase.h</text>
</a>
</g>
</g>
<!-- Node3&#45;&gt;Node4 -->
<g id="edge3" class="edge">
<title>Node3&#45;&gt;Node4</title>
<path fill="none" stroke="midnightblue" d="M424.68,-515.4C394.1,-503.84 351.27,-487.66 322.18,-476.66"/>
<polygon fill="midnightblue" stroke="midnightblue" points="323.1,-473.27 312.51,-473.01 320.63,-479.82 323.1,-473.27"/>
</g>
<!-- Node5 -->
<g id="node5" class="node">
<title>Node5</title>
<g id="a_node5"><a xlink:href="c__tag_8h.html" target="_top" xlink:title=" ">
<polygon fill="white" stroke="black" points="747.5,-392.5 747.5,-411.5 854.5,-411.5 854.5,-392.5 747.5,-392.5"/>
<text text-anchor="middle" x="801" y="-399.5" font-family="Helvetica,sans-Serif" font-size="10.00">SComponent/c_tag.h</text>
</a>
</g>
</g>
<!-- Node3&#45;&gt;Node5 -->
<g id="edge4" class="edge">
<title>Node3&#45;&gt;Node5</title>
<path fill="none" stroke="midnightblue" d="M509.56,-520.17C544.02,-512.22 591.04,-498.89 629,-479 648.61,-468.72 648.56,-458.59 668,-448 695.52,-433 728.95,-421.72 755.4,-414.2"/>
<polygon fill="midnightblue" stroke="midnightblue" points="756.47,-417.54 765.18,-411.51 754.6,-410.79 756.47,-417.54"/>
</g>
<!-- Node3&#45;&gt;Node8 -->
<g id="edge36" class="edge">
<title>Node3&#45;&gt;Node8</title>
<path fill="none" stroke="midnightblue" d="M436.34,-515.33C422.73,-506.55 406.83,-494.08 397,-479 377.99,-449.83 378,-437.82 378,-403 378,-403 378,-403 378,-289 378,-214.76 485.11,-190.27 542.56,-182.47"/>
<polygon fill="midnightblue" stroke="midnightblue" points="543.18,-185.92 552.67,-181.2 542.31,-178.98 543.18,-185.92"/>
</g>
<!-- Node16 -->
<g id="node16" class="node">
<title>Node16</title>
<g id="a_node16"><a xlink:href="f__pc__create__tag_8h.html" target="_top" xlink:title=" ">
<polygon fill="white" stroke="black" points="406.5,-448.5 406.5,-478.5 501.5,-478.5 501.5,-448.5 406.5,-448.5"/>
<text text-anchor="start" x="414.5" y="-466.5" font-family="Helvetica,sans-Serif" font-size="10.00">f/f_pc/f_pc_create</text>
<text text-anchor="middle" x="454" y="-455.5" font-family="Helvetica,sans-Serif" font-size="10.00">_tag.h</text>
</a>
</g>
</g>
<!-- Node3&#45;&gt;Node16 -->
<g id="edge23" class="edge">
<title>Node3&#45;&gt;Node16</title>
<path fill="none" stroke="midnightblue" d="M460.26,-515.4C459.3,-507.56 458.07,-497.6 456.96,-488.57"/>
<polygon fill="midnightblue" stroke="midnightblue" points="460.43,-488.07 455.73,-478.58 453.48,-488.93 460.43,-488.07"/>
</g>
<!-- Node3&#45;&gt;Node17 -->
<g id="edge26" class="edge">
<title>Node3&#45;&gt;Node17</title>
<path fill="none" stroke="midnightblue" d="M509.63,-517.73C558.17,-505.73 632.89,-487.27 680.33,-475.54"/>
<polygon fill="midnightblue" stroke="midnightblue" points="681.44,-478.87 690.31,-473.07 679.77,-472.07 681.44,-478.87"/>
</g>
<!-- Node18 -->
<g id="node18" class="node">
<title>Node18</title>
<g id="a_node18"><a xlink:href="f__pc__method_8h.html" target="_top" xlink:title=" ">
<polygon fill="white" stroke="black" points="66,-454 66,-473 174,-473 174,-454 66,-454"/>
<text text-anchor="middle" x="120" y="-461" font-family="Helvetica,sans-Serif" font-size="10.00">f/f_pc/f_pc_method.h</text>
</a>
</g>
</g>
<!-- Node3&#45;&gt;Node18 -->
<g id="edge31" class="edge">
<title>Node3&#45;&gt;Node18</title>
<path fill="none" stroke="midnightblue" d="M414.45,-520.46C351.6,-508.52 241.11,-487.52 174.82,-474.92"/>
<polygon fill="midnightblue" stroke="midnightblue" points="175.45,-471.48 164.97,-473.05 174.14,-478.35 175.45,-471.48"/>
</g>
<!-- Node19 -->
<g id="node19" class="node">
<title>Node19</title>
<g id="a_node19"><a xlink:href="f__pc__method__tag_8h.html" target="_top" xlink:title=" ">
<polygon fill="white" stroke="black" points="519.5,-448.5 519.5,-478.5 620.5,-478.5 620.5,-448.5 519.5,-448.5"/>
<text text-anchor="start" x="527.5" y="-466.5" font-family="Helvetica,sans-Serif" font-size="10.00">f/f_pc/f_pc_method</text>
<text text-anchor="middle" x="570" y="-455.5" font-family="Helvetica,sans-Serif" font-size="10.00">_tag.h</text>
</a>
</g>
</g>
<!-- Node3&#45;&gt;Node19 -->
<g id="edge33" class="edge">
<title>Node3&#45;&gt;Node19</title>
<path fill="none" stroke="midnightblue" d="M485.43,-515.4C500.72,-506.2 520.88,-494.07 537.68,-483.95"/>
<polygon fill="midnightblue" stroke="midnightblue" points="539.85,-486.73 546.61,-478.58 536.24,-480.73 539.85,-486.73"/>
</g>
<!-- Node6 -->
<g id="node6" class="node">
<title>Node6</title>
<g id="a_node6"><a xlink:href="c__list_8h.html" target="_top" xlink:title=" ">
<polygon fill="white" stroke="black" points="703.5,-280.5 703.5,-299.5 810.5,-299.5 810.5,-280.5 703.5,-280.5"/>
<text text-anchor="middle" x="757" y="-287.5" font-family="Helvetica,sans-Serif" font-size="10.00">SComponent/c_list.h</text>
</a>
</g>
</g>
<!-- Node5&#45;&gt;Node6 -->
<g id="edge5" class="edge">
<title>Node5&#45;&gt;Node6</title>
<path fill="none" stroke="midnightblue" d="M799.13,-392.38C796.24,-379.73 790.16,-355.53 782,-336 778.04,-326.52 772.59,-316.47 767.79,-308.29"/>
<polygon fill="midnightblue" stroke="midnightblue" points="770.75,-306.42 762.58,-299.67 764.76,-310.04 770.75,-306.42"/>
</g>
<!-- Node7 -->
<g id="node7" class="node">
<title>Node7</title>
<g id="a_node7"><a xlink:href="c__node_8h.html" target="_top" xlink:title=" ">
<polygon fill="white" stroke="black" points="625.5,-224.5 625.5,-243.5 740.5,-243.5 740.5,-224.5 625.5,-224.5"/>
<text text-anchor="middle" x="683" y="-231.5" font-family="Helvetica,sans-Serif" font-size="10.00">SComponent/c_node.h</text>
</a>
</g>
</g>
<!-- Node5&#45;&gt;Node7 -->
<g id="edge18" class="edge">
<title>Node5&#45;&gt;Node7</title>
<path fill="none" stroke="midnightblue" d="M806.18,-392.4C818.27,-371.11 845.44,-315.14 820,-280 803.92,-257.79 776.53,-246.35 750.44,-240.53"/>
<polygon fill="midnightblue" stroke="midnightblue" points="751.03,-237.08 740.54,-238.56 749.66,-243.94 751.03,-237.08"/>
</g>
<!-- Node5&#45;&gt;Node8 -->
<g id="edge22" class="edge">
<title>Node5&#45;&gt;Node8</title>
<path fill="none" stroke="midnightblue" d="M811.71,-392.3C820.94,-384.07 833.59,-370.79 839,-356 844.02,-342.28 850.56,-302.41 838,-280 793.32,-200.31 673.28,-183.22 613.22,-179.75"/>
<polygon fill="midnightblue" stroke="midnightblue" points="613.24,-176.24 603.08,-179.26 612.9,-183.24 613.24,-176.24"/>
</g>
<!-- Node15 -->
<g id="node15" class="node">
<title>Node15</title>
<g id="a_node15"><a xlink:href="c__tree_8h.html" target="_top" xlink:title=" ">
<polygon fill="white" stroke="black" points="663,-336.5 663,-355.5 773,-355.5 773,-336.5 663,-336.5"/>
<text text-anchor="middle" x="718" y="-343.5" font-family="Helvetica,sans-Serif" font-size="10.00">SComponent/c_tree.h</text>
</a>
</g>
</g>
<!-- Node5&#45;&gt;Node15 -->
<g id="edge19" class="edge">
<title>Node5&#45;&gt;Node15</title>
<path fill="none" stroke="midnightblue" d="M787.66,-392.32C774.84,-383.98 755.22,-371.21 740.06,-361.35"/>
<polygon fill="midnightblue" stroke="midnightblue" points="741.59,-358.17 731.3,-355.65 737.78,-364.04 741.59,-358.17"/>
</g>
<!-- Node6&#45;&gt;Node7 -->
<g id="edge6" class="edge">
<title>Node6&#45;&gt;Node7</title>
<path fill="none" stroke="midnightblue" d="M745.11,-280.32C733.85,-272.11 716.71,-259.6 703.29,-249.81"/>
<polygon fill="midnightblue" stroke="midnightblue" points="705.25,-246.9 695.11,-243.83 701.12,-252.56 705.25,-246.9"/>
</g>
<!-- Node7&#45;&gt;Node8 -->
<g id="edge7" class="edge">
<title>Node7&#45;&gt;Node8</title>
<path fill="none" stroke="midnightblue" d="M666.13,-224.32C649.29,-215.66 623.19,-202.24 603.76,-192.25"/>
<polygon fill="midnightblue" stroke="midnightblue" points="605.32,-189.12 594.83,-187.65 602.12,-195.34 605.32,-189.12"/>
</g>
<!-- Node8&#45;&gt;Node9 -->
<g id="edge8" class="edge">
<title>Node8&#45;&gt;Node9</title>
<path fill="none" stroke="midnightblue" d="M601.45,-168.41C617.16,-161.28 636.62,-149.46 646,-132 650.21,-124.17 648.61,-120.5 646,-112 637.17,-83.25 630.72,-75.71 608,-56 591.49,-41.68 569.63,-30.73 551.36,-23.23"/>
<polygon fill="midnightblue" stroke="midnightblue" points="552.49,-19.91 541.91,-19.51 549.93,-26.43 552.49,-19.91"/>
</g>
<!-- Node10 -->
<g id="node10" class="node">
<title>Node10</title>
<g id="a_node10"><a xlink:href="AR_8h.html" target="_top" xlink:title=" ">
<polygon fill="white" stroke="black" points="382.5,-56.5 382.5,-75.5 431.5,-75.5 431.5,-56.5 382.5,-56.5"/>
<text text-anchor="middle" x="407" y="-63.5" font-family="Helvetica,sans-Serif" font-size="10.00">ar/AR.h</text>
</a>
</g>
</g>
<!-- Node8&#45;&gt;Node10 -->
<g id="edge9" class="edge">
<title>Node8&#45;&gt;Node10</title>
<path fill="none" stroke="midnightblue" d="M559.13,-168.46C541.13,-160.03 513.51,-146.36 491,-132 466.91,-116.63 441.2,-96.04 424.66,-82.19"/>
<polygon fill="midnightblue" stroke="midnightblue" points="426.8,-79.42 416.91,-75.63 422.28,-84.76 426.8,-79.42"/>
</g>
<!-- Node11 -->
<g id="node11" class="node">
<title>Node11</title>
<g id="a_node11"><a xlink:href="ARQ_8h.html" target="_top" xlink:title=" ">
<polygon fill="white" stroke="black" points="450,-56.5 450,-75.5 506,-75.5 506,-56.5 450,-56.5"/>
<text text-anchor="middle" x="478" y="-63.5" font-family="Helvetica,sans-Serif" font-size="10.00">ar/ARQ.h</text>
</a>
</g>
</g>
<!-- Node8&#45;&gt;Node11 -->
<g id="edge11" class="edge">
<title>Node8&#45;&gt;Node11</title>
<path fill="none" stroke="midnightblue" d="M558.94,-168.5C543.52,-160.82 522.13,-148.24 508,-132 496.29,-118.53 488.27,-99.72 483.5,-85.8"/>
<polygon fill="midnightblue" stroke="midnightblue" points="486.71,-84.35 480.35,-75.88 480.04,-86.47 486.71,-84.35"/>
</g>
<!-- Node12 -->
<g id="node12" class="node">
<title>Node12</title>
<g id="a_node12"><a xlink:href="mwcc_8h.html" target="_top" xlink:title=" ">
<polygon fill="white" stroke="black" points="587,-112.5 587,-131.5 637,-131.5 637,-112.5 587,-112.5"/>
<text text-anchor="middle" x="612" y="-119.5" font-family="Helvetica,sans-Serif" font-size="10.00">mwcc.h</text>
</a>
</g>
</g>
<!-- Node8&#45;&gt;Node12 -->
<g id="edge13" class="edge">
<title>Node8&#45;&gt;Node12</title>
<path fill="none" stroke="midnightblue" d="M583.61,-168.08C588.37,-160.53 595.32,-149.49 601.15,-140.23"/>
<polygon fill="midnightblue" stroke="midnightblue" points="604.12,-142.08 606.49,-131.75 598.2,-138.35 604.12,-142.08"/>
</g>
<!-- Node13 -->
<g id="node13" class="node">
<title>Node13</title>
<g id="a_node13"><a xlink:href="OS_8h.html" target="_top" xlink:title=" ">
<polygon fill="white" stroke="black" points="517,-112.5 517,-131.5 569,-131.5 569,-112.5 517,-112.5"/>
<text text-anchor="middle" x="543" y="-119.5" font-family="Helvetica,sans-Serif" font-size="10.00">os/OS.h</text>
</a>
</g>
</g>
<!-- Node8&#45;&gt;Node13 -->
<g id="edge14" class="edge">
<title>Node8&#45;&gt;Node13</title>
<path fill="none" stroke="midnightblue" d="M572.22,-168.08C567.33,-160.53 560.17,-149.49 554.17,-140.23"/>
<polygon fill="midnightblue" stroke="midnightblue" points="557.05,-138.24 548.67,-131.75 551.17,-142.05 557.05,-138.24"/>
</g>
<!-- Node10&#45;&gt;Node9 -->
<g id="edge10" class="edge">
<title>Node10&#45;&gt;Node9</title>
<path fill="none" stroke="midnightblue" d="M424.51,-56.32C442.07,-47.62 469.33,-34.12 489.53,-24.11"/>
<polygon fill="midnightblue" stroke="midnightblue" points="491.12,-27.23 498.53,-19.65 488.02,-20.96 491.12,-27.23"/>
</g>
<!-- Node11&#45;&gt;Node9 -->
<g id="edge12" class="edge">
<title>Node11&#45;&gt;Node9</title>
<path fill="none" stroke="midnightblue" d="M484.27,-56.08C489.64,-48.46 497.52,-37.26 504.08,-27.94"/>
<polygon fill="midnightblue" stroke="midnightblue" points="506.95,-29.94 509.84,-19.75 501.22,-25.91 506.95,-29.94"/>
</g>
<!-- Node13&#45;&gt;Node9 -->
<g id="edge15" class="edge">
<title>Node13&#45;&gt;Node9</title>
<path fill="none" stroke="midnightblue" d="M557.66,-112.46C576.22,-100.48 604.39,-77.73 592,-56 583.59,-41.25 568.23,-30.84 553.52,-23.77"/>
<polygon fill="midnightblue" stroke="midnightblue" points="554.58,-20.42 544.02,-19.6 551.76,-26.83 554.58,-20.42"/>
</g>
<!-- Node14 -->
<g id="node14" class="node">
<title>Node14</title>
<g id="a_node14"><a xlink:href="dvd_8h.html" target="_top" xlink:title=" ">
<polygon fill="white" stroke="black" points="524.5,-56.5 524.5,-75.5 583.5,-75.5 583.5,-56.5 524.5,-56.5"/>
<text text-anchor="middle" x="554" y="-63.5" font-family="Helvetica,sans-Serif" font-size="10.00">dvd/dvd.h</text>
</a>
</g>
</g>
<!-- Node13&#45;&gt;Node14 -->
<g id="edge16" class="edge">
<title>Node13&#45;&gt;Node14</title>
<path fill="none" stroke="midnightblue" d="M544.82,-112.08C546.27,-104.93 548.37,-94.64 550.19,-85.69"/>
<polygon fill="midnightblue" stroke="midnightblue" points="553.65,-86.25 552.22,-75.75 546.79,-84.85 553.65,-86.25"/>
</g>
<!-- Node14&#45;&gt;Node9 -->
<g id="edge17" class="edge">
<title>Node14&#45;&gt;Node9</title>
<path fill="none" stroke="midnightblue" d="M547.73,-56.08C542.36,-48.46 534.48,-37.26 527.92,-27.94"/>
<polygon fill="midnightblue" stroke="midnightblue" points="530.78,-25.91 522.16,-19.75 525.05,-29.94 530.78,-25.91"/>
</g>
<!-- Node15&#45;&gt;Node6 -->
<g id="edge20" class="edge">
<title>Node15&#45;&gt;Node6</title>
<path fill="none" stroke="midnightblue" d="M724.44,-336.08C729.95,-328.46 738.03,-317.26 744.76,-307.94"/>
<polygon fill="midnightblue" stroke="midnightblue" points="747.66,-309.91 750.68,-299.75 741.99,-305.81 747.66,-309.91"/>
</g>
<!-- Node15&#45;&gt;Node7 -->
<g id="edge21" class="edge">
<title>Node15&#45;&gt;Node7</title>
<path fill="none" stroke="midnightblue" d="M712.63,-336.37C707.37,-327.55 699.52,-313.29 695,-300 689.86,-284.87 686.76,-266.98 685,-253.79"/>
<polygon fill="midnightblue" stroke="midnightblue" points="688.45,-253.13 683.79,-243.61 681.5,-253.96 688.45,-253.13"/>
</g>
<!-- Node16&#45;&gt;Node5 -->
<g id="edge24" class="edge">
<title>Node16&#45;&gt;Node5</title>
<path fill="none" stroke="midnightblue" d="M501.58,-449.83C504.42,-449.19 507.25,-448.57 510,-448 587.74,-431.97 678.23,-418.83 737.4,-410.97"/>
<polygon fill="midnightblue" stroke="midnightblue" points="737.89,-414.44 747.35,-409.66 736.97,-407.5 737.89,-414.44"/>
</g>
<!-- Node16&#45;&gt;Node8 -->
<g id="edge25" class="edge">
<title>Node16&#45;&gt;Node8</title>
<path fill="none" stroke="midnightblue" d="M460.84,-448.29C470.5,-426.85 487,-384.75 487,-347 487,-347 487,-347 487,-289 487,-246.47 527.89,-211.53 554.85,-193.12"/>
<polygon fill="midnightblue" stroke="midnightblue" points="556.94,-195.93 563.38,-187.52 553.1,-190.08 556.94,-195.93"/>
</g>
<!-- Node17&#45;&gt;Node5 -->
<g id="edge28" class="edge">
<title>Node17&#45;&gt;Node5</title>
<path fill="none" stroke="midnightblue" d="M735.89,-453.98C747.97,-444.52 767.67,-429.1 782.24,-417.69"/>
<polygon fill="midnightblue" stroke="midnightblue" points="784.41,-420.43 790.13,-411.51 780.1,-414.92 784.41,-420.43"/>
</g>
<!-- Node17&#45;&gt;Node7 -->
<g id="edge27" class="edge">
<title>Node17&#45;&gt;Node7</title>
<path fill="none" stroke="midnightblue" d="M716.47,-453.78C700.47,-436.74 666.43,-397.05 654,-356 642.99,-319.64 660.8,-276.13 673.02,-252.45"/>
<polygon fill="midnightblue" stroke="midnightblue" points="676.13,-254.06 677.82,-243.6 669.98,-250.73 676.13,-254.06"/>
</g>
<!-- Node17&#45;&gt;Node8 -->
<g id="edge30" class="edge">
<title>Node17&#45;&gt;Node8</title>
<path fill="none" stroke="midnightblue" d="M701.82,-453.93C664.93,-438.61 597,-402.82 597,-347 597,-347 597,-347 597,-289 597,-256.49 588.84,-219.35 583.22,-197.61"/>
<polygon fill="midnightblue" stroke="midnightblue" points="586.54,-196.5 580.56,-187.75 579.78,-198.32 586.54,-196.5"/>
</g>
<!-- Node17&#45;&gt;Node15 -->
<g id="edge29" class="edge">
<title>Node17&#45;&gt;Node15</title>
<path fill="none" stroke="midnightblue" d="M724.47,-453.82C723.35,-435.26 720.69,-391.34 719.15,-365.97"/>
<polygon fill="midnightblue" stroke="midnightblue" points="722.63,-365.55 718.53,-355.78 715.64,-365.98 722.63,-365.55"/>
</g>
<!-- Node18&#45;&gt;Node8 -->
<g id="edge32" class="edge">
<title>Node18&#45;&gt;Node8</title>
<path fill="none" stroke="midnightblue" d="M122.79,-453.91C128.71,-434.88 142,-387.62 142,-347 142,-347 142,-347 142,-289 142,-253.61 157.55,-242.04 188,-224 247.61,-188.68 458.51,-181.08 542.81,-179.45"/>
<polygon fill="midnightblue" stroke="midnightblue" points="542.97,-182.94 552.91,-179.27 542.85,-175.94 542.97,-182.94"/>
</g>
<!-- Node19&#45;&gt;Node5 -->
<g id="edge34" class="edge">
<title>Node19&#45;&gt;Node5</title>
<path fill="none" stroke="midnightblue" d="M620.69,-449.44C661.78,-438.86 719.04,-424.11 757.93,-414.09"/>
<polygon fill="midnightblue" stroke="midnightblue" points="759.08,-417.41 767.89,-411.53 757.34,-410.63 759.08,-417.41"/>
</g>
<!-- Node19&#45;&gt;Node8 -->
<g id="edge35" class="edge">
<title>Node19&#45;&gt;Node8</title>
<path fill="none" stroke="midnightblue" d="M567.77,-448.32C564.56,-426.57 559,-383.66 559,-347 559,-347 559,-347 559,-289 559,-256.49 567.16,-219.35 572.78,-197.61"/>
<polygon fill="midnightblue" stroke="midnightblue" points="576.22,-198.32 575.44,-187.75 569.46,-196.5 576.22,-198.32"/>
</g>
<!-- Node20&#45;&gt;Node5 -->
<g id="edge41" class="edge">
<title>Node20&#45;&gt;Node5</title>
<path fill="none" stroke="midnightblue" d="M790.27,-587.98C793.08,-568.65 799.74,-519.99 802,-479 802.76,-465.24 802.15,-461.78 802,-448 801.9,-439.4 801.71,-429.87 801.51,-421.8"/>
<polygon fill="midnightblue" stroke="midnightblue" points="805.01,-421.53 801.25,-411.63 798.01,-421.71 805.01,-421.53"/>
</g>
<!-- Node20&#45;&gt;Node8 -->
<g id="edge42" class="edge">
<title>Node20&#45;&gt;Node8</title>
<path fill="none" stroke="midnightblue" d="M837.55,-596.74C897.02,-595.13 999.32,-586.05 1076,-546 1121.27,-522.36 1157,-515.57 1157,-464.5 1157,-464.5 1157,-464.5 1157,-289 1157,-226.78 1092.61,-241.83 1033,-224 954.37,-200.48 705.91,-185.6 613.27,-180.74"/>
<polygon fill="midnightblue" stroke="midnightblue" points="613.44,-177.25 603.27,-180.23 613.08,-184.24 613.44,-177.25"/>
</g>
<!-- Node21 -->
<g id="node21" class="node">
<title>Node21</title>
<g id="a_node21"><a xlink:href="f__pc__delete__tag_8h.html" target="_top" xlink:title=" ">
<polygon fill="white" stroke="black" points="950.5,-515.5 950.5,-545.5 1045.5,-545.5 1045.5,-515.5 950.5,-515.5"/>
<text text-anchor="start" x="958.5" y="-533.5" font-family="Helvetica,sans-Serif" font-size="10.00">f/f_pc/f_pc_delete</text>
<text text-anchor="middle" x="998" y="-522.5" font-family="Helvetica,sans-Serif" font-size="10.00">_tag.h</text>
</a>
</g>
</g>
<!-- Node20&#45;&gt;Node21 -->
<g id="edge43" class="edge">
<title>Node20&#45;&gt;Node21</title>
<path fill="none" stroke="midnightblue" d="M816.75,-587.87C848.86,-577.88 902.51,-561.2 943.13,-548.56"/>
<polygon fill="midnightblue" stroke="midnightblue" points="944.38,-551.84 952.89,-545.53 942.31,-545.16 944.38,-551.84"/>
</g>
<!-- Node22 -->
<g id="node22" class="node">
<title>Node22</title>
<g id="a_node22"><a xlink:href="f__pc__layer__tag_8h.html" target="_top" xlink:title=" ">
<polygon fill="white" stroke="black" points="817.5,-521 817.5,-540 932.5,-540 932.5,-521 817.5,-521"/>
<text text-anchor="middle" x="875" y="-528" font-family="Helvetica,sans-Serif" font-size="10.00">f/f_pc/f_pc_layer_tag.h</text>
</a>
</g>
</g>
<!-- Node20&#45;&gt;Node22 -->
<g id="edge47" class="edge">
<title>Node20&#45;&gt;Node22</title>
<path fill="none" stroke="midnightblue" d="M800.6,-587.73C814.65,-577.11 838.55,-559.05 855.47,-546.26"/>
<polygon fill="midnightblue" stroke="midnightblue" points="857.72,-548.95 863.59,-540.13 853.5,-543.36 857.72,-548.95"/>
</g>
<!-- Node23 -->
<g id="node23" class="node">
<title>Node23</title>
<g id="a_node23"><a xlink:href="f__pc__line__tag_8h.html" target="_top" xlink:title=" ">
<polygon fill="white" stroke="black" points="1019,-454 1019,-473 1129,-473 1129,-454 1019,-454"/>
<text text-anchor="middle" x="1074" y="-461" font-family="Helvetica,sans-Serif" font-size="10.00">f/f_pc/f_pc_line_tag.h</text>
</a>
</g>
</g>
<!-- Node20&#45;&gt;Node23 -->
<g id="edge51" class="edge">
<title>Node20&#45;&gt;Node23</title>
<path fill="none" stroke="midnightblue" d="M837.62,-593.51C905.7,-588.32 1024.52,-575.25 1055,-546 1071.84,-529.84 1075.03,-501.87 1075.07,-483.27"/>
<polygon fill="midnightblue" stroke="midnightblue" points="1078.56,-482.99 1074.78,-473.09 1071.56,-483.19 1078.56,-482.99"/>
</g>
<!-- Node24 -->
<g id="node24" class="node">
<title>Node24</title>
<g id="a_node24"><a xlink:href="f__pc__priority_8h.html" target="_top" xlink:title=" ">
<polygon fill="white" stroke="black" points="657,-521 657,-540 761,-540 761,-521 657,-521"/>
<text text-anchor="middle" x="709" y="-528" font-family="Helvetica,sans-Serif" font-size="10.00">f/f_pc/f_pc_priority.h</text>
</a>
</g>
</g>
<!-- Node20&#45;&gt;Node24 -->
<g id="edge54" class="edge">
<title>Node20&#45;&gt;Node24</title>
<path fill="none" stroke="midnightblue" d="M778.21,-587.73C765.26,-577.21 743.31,-559.38 727.61,-546.62"/>
<polygon fill="midnightblue" stroke="midnightblue" points="729.59,-543.72 719.62,-540.13 725.17,-549.15 729.59,-543.72"/>
</g>
<!-- Node25 -->
<g id="node25" class="node">
<title>Node25</title>
<g id="a_node25"><a xlink:href="f__pc__profile_8h.html" target="_top" xlink:title=" ">
<polygon fill="white" stroke="black" points="151.5,-521 151.5,-540 252.5,-540 252.5,-521 151.5,-521"/>
<text text-anchor="middle" x="202" y="-528" font-family="Helvetica,sans-Serif" font-size="10.00">f/f_pc/f_pc_profile.h</text>
</a>
</g>
</g>
<!-- Node20&#45;&gt;Node25 -->
<g id="edge57" class="edge">
<title>Node20&#45;&gt;Node25</title>
<path fill="none" stroke="midnightblue" d="M740.46,-591.13C633.94,-579.33 379.88,-551.2 262.88,-538.24"/>
<polygon fill="midnightblue" stroke="midnightblue" points="263,-534.73 252.67,-537.11 262.23,-541.69 263,-534.73"/>
</g>
<!-- Node21&#45;&gt;Node5 -->
<g id="edge44" class="edge">
<title>Node21&#45;&gt;Node5</title>
<path fill="none" stroke="midnightblue" d="M976.4,-515.24C951.55,-498.87 909.47,-471.28 873,-448 856.49,-437.46 837.72,-425.74 823.48,-416.9"/>
<polygon fill="midnightblue" stroke="midnightblue" points="825.2,-413.84 814.85,-411.55 821.51,-419.79 825.2,-413.84"/>
</g>
<!-- Node21&#45;&gt;Node8 -->
<g id="edge46" class="edge">
<title>Node21&#45;&gt;Node8</title>
<path fill="none" stroke="midnightblue" d="M996.72,-515.47C994.7,-492.15 991,-443.91 991,-403 991,-403 991,-403 991,-289 991,-211.14 713.47,-187.01 613.42,-180.84"/>
<polygon fill="midnightblue" stroke="midnightblue" points="613.4,-177.34 603.21,-180.24 612.99,-184.33 613.4,-177.34"/>
</g>
<!-- Node21&#45;&gt;Node17 -->
<g id="edge45" class="edge">
<title>Node21&#45;&gt;Node17</title>
<path fill="none" stroke="midnightblue" d="M950.36,-517.08C947.53,-516.37 944.73,-515.67 942,-515 883.98,-500.74 816.97,-485.3 772.95,-475.3"/>
<polygon fill="midnightblue" stroke="midnightblue" points="773.62,-471.86 763.09,-473.06 772.07,-478.69 773.62,-471.86"/>
</g>
<!-- Node22&#45;&gt;Node5 -->
<g id="edge48" class="edge">
<title>Node22&#45;&gt;Node5</title>
<path fill="none" stroke="midnightblue" d="M874.34,-520.99C872.8,-505.41 867.88,-471.71 853,-448 845.46,-435.99 833.73,-425.44 823.31,-417.58"/>
<polygon fill="midnightblue" stroke="midnightblue" points="825.17,-414.6 815,-411.64 821.1,-420.3 825.17,-414.6"/>
</g>
<!-- Node22&#45;&gt;Node8 -->
<g id="edge50" class="edge">
<title>Node22&#45;&gt;Node8</title>
<path fill="none" stroke="midnightblue" d="M879.75,-520.9C890.34,-500.88 915,-449.3 915,-403 915,-403 915,-403 915,-289 915,-226.01 699.51,-193.42 613.16,-182.89"/>
<polygon fill="midnightblue" stroke="midnightblue" points="613.4,-179.39 603.05,-181.69 612.57,-186.35 613.4,-179.39"/>
</g>
<!-- Node22&#45;&gt;Node17 -->
<g id="edge49" class="edge">
<title>Node22&#45;&gt;Node17</title>
<path fill="none" stroke="midnightblue" d="M855.08,-520.87C829.31,-509.7 784.18,-490.15 754.45,-477.26"/>
<polygon fill="midnightblue" stroke="midnightblue" points="755.57,-473.93 745,-473.17 752.79,-480.35 755.57,-473.93"/>
</g>
<!-- Node23&#45;&gt;Node5 -->
<g id="edge52" class="edge">
<title>Node23&#45;&gt;Node5</title>
<path fill="none" stroke="midnightblue" d="M1034.89,-453.98C986.13,-443.35 902.79,-425.18 849.88,-413.65"/>
<polygon fill="midnightblue" stroke="midnightblue" points="850.56,-410.22 840.04,-411.51 849.07,-417.06 850.56,-410.22"/>
</g>
<!-- Node23&#45;&gt;Node8 -->
<g id="edge53" class="edge">
<title>Node23&#45;&gt;Node8</title>
<path fill="none" stroke="midnightblue" d="M1071.21,-453.91C1065.29,-434.88 1052,-387.62 1052,-347 1052,-347 1052,-347 1052,-289 1052,-253.35 1035.85,-241.86 1005,-224 938.67,-185.59 703.38,-179.85 613.37,-179.08"/>
<polygon fill="midnightblue" stroke="midnightblue" points="613.16,-175.58 603.14,-179.01 613.11,-182.58 613.16,-175.58"/>
</g>
<!-- Node24&#45;&gt;Node5 -->
<g id="edge55" class="edge">
<title>Node24&#45;&gt;Node5</title>
<path fill="none" stroke="midnightblue" d="M728.43,-520.97C745.13,-512.64 768.58,-498.39 782,-479 793.82,-461.92 798.3,-438.16 799.99,-421.78"/>
<polygon fill="midnightblue" stroke="midnightblue" points="803.48,-422.03 800.77,-411.79 796.5,-421.48 803.48,-422.03"/>
</g>
<!-- Node24&#45;&gt;Node19 -->
<g id="edge56" class="edge">
<title>Node24&#45;&gt;Node19</title>
<path fill="none" stroke="midnightblue" d="M690.54,-520.87C669.87,-511.2 635.75,-495.25 609.09,-482.78"/>
<polygon fill="midnightblue" stroke="midnightblue" points="610.54,-479.59 600,-478.53 607.57,-485.93 610.54,-479.59"/>
</g>
<!-- Node25&#45;&gt;Node8 -->
<g id="edge59" class="edge">
<title>Node25&#45;&gt;Node8</title>
<path fill="none" stroke="midnightblue" d="M202,-520.91C202,-500.48 202,-447.36 202,-403 202,-403 202,-403 202,-289 202,-218.43 449.03,-189.99 542.63,-181.75"/>
<polygon fill="midnightblue" stroke="midnightblue" points="543.08,-185.22 552.75,-180.89 542.48,-178.25 543.08,-185.22"/>
</g>
<!-- Node25&#45;&gt;Node18 -->
<g id="edge58" class="edge">
<title>Node25&#45;&gt;Node18</title>
<path fill="none" stroke="midnightblue" d="M190.94,-520.73C177.66,-510.21 155.17,-492.38 139.07,-479.62"/>
<polygon fill="midnightblue" stroke="midnightblue" points="140.89,-476.6 130.88,-473.13 136.55,-482.08 140.89,-476.6"/>
</g>
<!-- Node26&#45;&gt;Node17 -->
<g id="edge62" class="edge">
<title>Node26&#45;&gt;Node17</title>
<path fill="none" stroke="midnightblue" d="M605.57,-649.36C607.52,-625.61 615.75,-558.21 648,-515 660.15,-498.72 679.21,-486.16 695.32,-477.64"/>
<polygon fill="midnightblue" stroke="midnightblue" points="697.03,-480.7 704.4,-473.09 693.89,-474.44 697.03,-480.7"/>
</g>
<!-- Node26&#45;&gt;Node18 -->
<g id="edge63" class="edge">
<title>Node26&#45;&gt;Node18</title>
<path fill="none" stroke="midnightblue" d="M556.32,-652.52C449.84,-639.57 201.05,-603.75 142,-546 125.17,-529.54 120.8,-501.64 119.88,-483.14"/>
<polygon fill="midnightblue" stroke="midnightblue" points="123.37,-482.95 119.67,-473.03 116.38,-483.1 123.37,-482.95"/>
</g>
<!-- Node26&#45;&gt;Node20 -->
<g id="edge61" class="edge">
<title>Node26&#45;&gt;Node20</title>
<path fill="none" stroke="midnightblue" d="M631.36,-649.48C663.34,-639.14 717.38,-621.66 753.12,-610.1"/>
<polygon fill="midnightblue" stroke="midnightblue" points="754.25,-613.42 762.69,-607.01 752.09,-606.76 754.25,-613.42"/>
</g>
</g>
</svg>
