<?xml version="1.0" encoding="UTF-8" standalone="no"?>
<!DOCTYPE svg PUBLIC "-//W3C//DTD SVG 1.1//EN"
 "http://www.w3.org/Graphics/SVG/1.1/DTD/svg11.dtd">
<!-- Generated by graphviz version 2.44.0 ()
 -->
<!-- Title: src/f/f_pc/f_pc_executor.cpp Pages: 1 -->
<svg width="1184pt" height="778pt"
 viewBox="0.00 0.00 1184.00 778.00" xmlns="http://www.w3.org/2000/svg" xmlns:xlink="http://www.w3.org/1999/xlink">
<g id="graph0" class="graph" transform="scale(1 1) rotate(0) translate(4 774)">
<title>src/f/f_pc/f_pc_executor.cpp</title>
<polygon fill="white" stroke="transparent" points="-4,4 -4,-774 1180,-774 1180,4 -4,4"/>
<!-- Node1 -->
<g id="node1" class="node">
<title>Node1</title>
<g id="a_node1"><a xlink:title=" ">
<polygon fill="#bfbfbf" stroke="black" points="323.5,-750.5 323.5,-769.5 463.5,-769.5 463.5,-750.5 323.5,-750.5"/>
<text text-anchor="middle" x="393.5" y="-757.5" font-family="Helvetica,sans-Serif" font-size="10.00">src/f/f_pc/f_pc_executor.cpp</text>
</a>
</g>
</g>
<!-- Node2 -->
<g id="node2" class="node">
<title>Node2</title>
<g id="a_node2"><a xlink:href="f__pc__executor_8h.html" target="_top" xlink:title=" ">
<polygon fill="white" stroke="black" points="207,-638.5 207,-657.5 320,-657.5 320,-638.5 207,-638.5"/>
<text text-anchor="middle" x="263.5" y="-645.5" font-family="Helvetica,sans-Serif" font-size="10.00">f/f_pc/f_pc_executor.h</text>
</a>
</g>
</g>
<!-- Node1&#45;&gt;Node2 -->
<g id="edge1" class="edge">
<title>Node1&#45;&gt;Node2</title>
<path fill="none" stroke="midnightblue" d="M381.5,-750.34C369.41,-741.49 350.31,-727.22 334.5,-714 315.21,-697.87 294.07,-678.24 279.91,-664.81"/>
<polygon fill="midnightblue" stroke="midnightblue" points="282.1,-662.06 272.46,-657.68 277.27,-667.12 282.1,-662.06"/>
</g>
<!-- Node12 -->
<g id="node12" class="node">
<title>Node12</title>
<g id="a_node12"><a xlink:href="f__pc__base_8h.html" target="_top" xlink:title=" ">
<polygon fill="white" stroke="black" points="532,-582.5 532,-601.5 629,-601.5 629,-582.5 532,-582.5"/>
<text text-anchor="middle" x="580.5" y="-589.5" font-family="Helvetica,sans-Serif" font-size="10.00">f/f_pc/f_pc_base.h</text>
</a>
</g>
</g>
<!-- Node1&#45;&gt;Node12 -->
<g id="edge55" class="edge">
<title>Node1&#45;&gt;Node12</title>
<path fill="none" stroke="midnightblue" d="M458.42,-750.48C502.72,-743.24 555.91,-731.25 570.5,-714 594.81,-685.26 590.07,-637.74 584.98,-611.62"/>
<polygon fill="midnightblue" stroke="midnightblue" points="588.34,-610.59 582.79,-601.57 581.5,-612.08 588.34,-610.59"/>
</g>
<!-- Node17 -->
<g id="node17" class="node">
<title>Node17</title>
<g id="a_node17"><a xlink:href="f__pc__layer_8h.html" target="_top" xlink:title=" ">
<polygon fill="white" stroke="black" points="250.5,-454 250.5,-473 346.5,-473 346.5,-454 250.5,-454"/>
<text text-anchor="middle" x="298.5" y="-461" font-family="Helvetica,sans-Serif" font-size="10.00">f/f_pc/f_pc_layer.h</text>
</a>
</g>
</g>
<!-- Node1&#45;&gt;Node17 -->
<g id="edge56" class="edge">
<title>Node1&#45;&gt;Node17</title>
<path fill="none" stroke="midnightblue" d="M390.04,-750.17C378.77,-721.23 342.46,-626.4 318.5,-546 312.14,-524.67 306.25,-499.78 302.53,-483.17"/>
<polygon fill="midnightblue" stroke="midnightblue" points="305.89,-482.15 300.33,-473.14 299.06,-483.66 305.89,-482.15"/>
</g>
<!-- Node18 -->
<g id="node18" class="node">
<title>Node18</title>
<g id="a_node18"><a xlink:href="f__pc__layer__tag_8h.html" target="_top" xlink:title=" ">
<polygon fill="white" stroke="black" points="352,-521 352,-540 467,-540 467,-521 352,-521"/>
<text text-anchor="middle" x="409.5" y="-528" font-family="Helvetica,sans-Serif" font-size="10.00">f/f_pc/f_pc_layer_tag.h</text>
</a>
</g>
</g>
<!-- Node1&#45;&gt;Node18 -->
<g id="edge58" class="edge">
<title>Node1&#45;&gt;Node18</title>
<path fill="none" stroke="midnightblue" d="M394.11,-750.36C396.44,-717.14 404.88,-597.16 408.17,-550.37"/>
<polygon fill="midnightblue" stroke="midnightblue" points="411.68,-550.37 408.89,-540.15 404.7,-549.88 411.68,-550.37"/>
</g>
<!-- Node24 -->
<g id="node24" class="node">
<title>Node24</title>
<g id="a_node24"><a xlink:href="f__pc__layer__iter_8h.html" target="_top" xlink:title=" ">
<polygon fill="white" stroke="black" points="0,-582.5 0,-601.5 115,-601.5 115,-582.5 0,-582.5"/>
<text text-anchor="middle" x="57.5" y="-589.5" font-family="Helvetica,sans-Serif" font-size="10.00">f/f_pc/f_pc_layer_iter.h</text>
</a>
</g>
</g>
<!-- Node1&#45;&gt;Node24 -->
<g id="edge57" class="edge">
<title>Node1&#45;&gt;Node24</title>
<path fill="none" stroke="midnightblue" d="M347.65,-750.44C314.62,-743.27 269.55,-731.38 232.5,-714 170.11,-684.72 105.7,-633.85 75.36,-608.41"/>
<polygon fill="midnightblue" stroke="midnightblue" points="77.3,-605.46 67.41,-601.66 72.77,-610.8 77.3,-605.46"/>
</g>
<!-- Node25 -->
<g id="node25" class="node">
<title>Node25</title>
<g id="a_node25"><a xlink:href="f__pc__line__iter_8h.html" target="_top" xlink:title=" ">
<polygon fill="white" stroke="black" points="133.5,-582.5 133.5,-601.5 243.5,-601.5 243.5,-582.5 133.5,-582.5"/>
<text text-anchor="middle" x="188.5" y="-589.5" font-family="Helvetica,sans-Serif" font-size="10.00">f/f_pc/f_pc_line_iter.h</text>
</a>
</g>
</g>
<!-- Node1&#45;&gt;Node25 -->
<g id="edge59" class="edge">
<title>Node1&#45;&gt;Node25</title>
<path fill="none" stroke="midnightblue" d="M355.46,-750.4C310.32,-738.07 236.42,-710.8 198.5,-658 189.03,-644.81 187,-626.22 187.06,-612.3"/>
<polygon fill="midnightblue" stroke="midnightblue" points="190.57,-612.06 187.49,-601.92 183.58,-611.77 190.57,-612.06"/>
</g>
<!-- Node26 -->
<g id="node26" class="node">
<title>Node26</title>
<g id="a_node26"><a xlink:href="f__pc__node_8h.html" target="_top" xlink:title=" ">
<polygon fill="white" stroke="black" points="426,-638.5 426,-657.5 523,-657.5 523,-638.5 426,-638.5"/>
<text text-anchor="middle" x="474.5" y="-645.5" font-family="Helvetica,sans-Serif" font-size="10.00">f/f_pc/f_pc_node.h</text>
</a>
</g>
</g>
<!-- Node1&#45;&gt;Node26 -->
<g id="edge60" class="edge">
<title>Node1&#45;&gt;Node26</title>
<path fill="none" stroke="midnightblue" d="M399.86,-750.37C413.28,-732.14 444.73,-689.43 462.22,-665.68"/>
<polygon fill="midnightblue" stroke="midnightblue" points="465.06,-667.72 468.17,-657.59 459.43,-663.57 465.06,-667.72"/>
</g>
<!-- Node27 -->
<g id="node27" class="node">
<title>Node27</title>
<g id="a_node27"><a xlink:href="f__pc__pause_8h.html" target="_top" xlink:title=" ">
<polygon fill="white" stroke="black" points="459.5,-694.5 459.5,-713.5 561.5,-713.5 561.5,-694.5 459.5,-694.5"/>
<text text-anchor="middle" x="510.5" y="-701.5" font-family="Helvetica,sans-Serif" font-size="10.00">f/f_pc/f_pc_pause.h</text>
</a>
</g>
</g>
<!-- Node1&#45;&gt;Node27 -->
<g id="edge64" class="edge">
<title>Node1&#45;&gt;Node27</title>
<path fill="none" stroke="midnightblue" d="M412.04,-750.44C431.12,-741.64 461.07,-727.81 482.94,-717.72"/>
<polygon fill="midnightblue" stroke="midnightblue" points="484.43,-720.88 492.05,-713.52 481.5,-714.53 484.43,-720.88"/>
</g>
<!-- Node28 -->
<g id="node28" class="node">
<title>Node28</title>
<g id="a_node28"><a xlink:href="f__pc__searcher_8h.html" target="_top" xlink:title=" ">
<polygon fill="white" stroke="black" points="1063,-638.5 1063,-657.5 1176,-657.5 1176,-638.5 1063,-638.5"/>
<text text-anchor="middle" x="1119.5" y="-645.5" font-family="Helvetica,sans-Serif" font-size="10.00">f/f_pc/f_pc_searcher.h</text>
</a>
</g>
</g>
<!-- Node1&#45;&gt;Node28 -->
<g id="edge68" class="edge">
<title>Node1&#45;&gt;Node28</title>
<path fill="none" stroke="midnightblue" d="M449.86,-750.46C581.99,-730.44 911.18,-680.56 1052.89,-659.09"/>
<polygon fill="midnightblue" stroke="midnightblue" points="1053.81,-662.49 1063.17,-657.53 1052.76,-655.57 1053.81,-662.49"/>
</g>
<!-- Node3 -->
<g id="node3" class="node">
<title>Node3</title>
<g id="a_node3"><a xlink:href="c__node__iter_8h.html" target="_top" xlink:title=" ">
<polygon fill="white" stroke="black" points="123.5,-521 123.5,-540 257.5,-540 257.5,-521 123.5,-521"/>
<text text-anchor="middle" x="190.5" y="-528" font-family="Helvetica,sans-Serif" font-size="10.00">SComponent/c_node_iter.h</text>
</a>
</g>
</g>
<!-- Node2&#45;&gt;Node3 -->
<g id="edge2" class="edge">
<title>Node2&#45;&gt;Node3</title>
<path fill="none" stroke="midnightblue" d="M263.9,-638.36C264.12,-625.26 262.98,-600 252.5,-582 243.64,-566.8 228.36,-554.27 215.18,-545.49"/>
<polygon fill="midnightblue" stroke="midnightblue" points="216.83,-542.39 206.5,-540.03 213.1,-548.32 216.83,-542.39"/>
</g>
<!-- Node2&#45;&gt;Node12 -->
<g id="edge15" class="edge">
<title>Node2&#45;&gt;Node12</title>
<path fill="none" stroke="midnightblue" d="M313.73,-638.44C370.25,-628.81 461.97,-613.19 521.76,-603.01"/>
<polygon fill="midnightblue" stroke="midnightblue" points="522.54,-606.42 531.81,-601.29 521.36,-599.52 522.54,-606.42"/>
</g>
<!-- Node2&#45;&gt;Node24 -->
<g id="edge49" class="edge">
<title>Node2&#45;&gt;Node24</title>
<path fill="none" stroke="midnightblue" d="M230.86,-638.44C195.45,-629.16 138.79,-614.31 99.95,-604.13"/>
<polygon fill="midnightblue" stroke="midnightblue" points="100.55,-600.67 89.99,-601.52 98.77,-607.44 100.55,-600.67"/>
</g>
<!-- Node2&#45;&gt;Node25 -->
<g id="edge53" class="edge">
<title>Node2&#45;&gt;Node25</title>
<path fill="none" stroke="midnightblue" d="M251.45,-638.32C240.04,-630.11 222.67,-617.6 209.07,-607.81"/>
<polygon fill="midnightblue" stroke="midnightblue" points="210.93,-604.84 200.77,-601.83 206.84,-610.52 210.93,-604.84"/>
</g>
<!-- Node4 -->
<g id="node4" class="node">
<title>Node4</title>
<g id="a_node4"><a xlink:href="c__node_8h.html" target="_top" xlink:title=" ">
<polygon fill="white" stroke="black" points="338,-224.5 338,-243.5 453,-243.5 453,-224.5 338,-224.5"/>
<text text-anchor="middle" x="395.5" y="-231.5" font-family="Helvetica,sans-Serif" font-size="10.00">SComponent/c_node.h</text>
</a>
</g>
</g>
<!-- Node3&#45;&gt;Node4 -->
<g id="edge3" class="edge">
<title>Node3&#45;&gt;Node4</title>
<path fill="none" stroke="midnightblue" d="M192.74,-520.63C201.94,-485.79 239.82,-356.55 313.5,-280 327.06,-265.92 345.99,-255.13 362.25,-247.65"/>
<polygon fill="midnightblue" stroke="midnightblue" points="363.7,-250.84 371.46,-243.63 360.89,-244.42 363.7,-250.84"/>
</g>
<!-- Node5 -->
<g id="node5" class="node">
<title>Node5</title>
<g id="a_node5"><a xlink:href="global_8h.html" target="_top" xlink:title=" ">
<polygon fill="white" stroke="black" points="659.5,-168.5 659.5,-187.5 709.5,-187.5 709.5,-168.5 659.5,-168.5"/>
<text text-anchor="middle" x="684.5" y="-175.5" font-family="Helvetica,sans-Serif" font-size="10.00">global.h</text>
</a>
</g>
</g>
<!-- Node4&#45;&gt;Node5 -->
<g id="edge4" class="edge">
<title>Node4&#45;&gt;Node5</title>
<path fill="none" stroke="midnightblue" d="M441.29,-224.44C499.07,-213.65 597.17,-195.32 649.37,-185.56"/>
<polygon fill="midnightblue" stroke="midnightblue" points="650.29,-188.95 659.48,-183.67 649.01,-182.07 650.29,-188.95"/>
</g>
<!-- Node6 -->
<g id="node6" class="node">
<title>Node6</title>
<g id="a_node6"><a xlink:href="types_8h.html" target="_top" xlink:title=" ">
<polygon fill="white" stroke="black" points="677,-0.5 677,-19.5 758,-19.5 758,-0.5 677,-0.5"/>
<text text-anchor="middle" x="717.5" y="-7.5" font-family="Helvetica,sans-Serif" font-size="10.00">dolphin/types.h</text>
</a>
</g>
</g>
<!-- Node5&#45;&gt;Node6 -->
<g id="edge5" class="edge">
<title>Node5&#45;&gt;Node6</title>
<path fill="none" stroke="midnightblue" d="M672.35,-168.31C645.72,-148.17 586.62,-96.92 613.5,-56 625.57,-37.63 646.91,-26.72 667.13,-20.26"/>
<polygon fill="midnightblue" stroke="midnightblue" points="668.29,-23.57 676.92,-17.44 666.35,-16.85 668.29,-23.57"/>
</g>
<!-- Node7 -->
<g id="node7" class="node">
<title>Node7</title>
<g id="a_node7"><a xlink:href="AR_8h.html" target="_top" xlink:title=" ">
<polygon fill="white" stroke="black" points="622,-56.5 622,-75.5 671,-75.5 671,-56.5 622,-56.5"/>
<text text-anchor="middle" x="646.5" y="-63.5" font-family="Helvetica,sans-Serif" font-size="10.00">ar/AR.h</text>
</a>
</g>
</g>
<!-- Node5&#45;&gt;Node7 -->
<g id="edge6" class="edge">
<title>Node5&#45;&gt;Node7</title>
<path fill="none" stroke="midnightblue" d="M681.52,-168.37C675.36,-150.54 661.11,-109.3 652.81,-85.27"/>
<polygon fill="midnightblue" stroke="midnightblue" points="656.04,-83.9 649.47,-75.59 649.43,-86.19 656.04,-83.9"/>
</g>
<!-- Node8 -->
<g id="node8" class="node">
<title>Node8</title>
<g id="a_node8"><a xlink:href="ARQ_8h.html" target="_top" xlink:title=" ">
<polygon fill="white" stroke="black" points="689.5,-56.5 689.5,-75.5 745.5,-75.5 745.5,-56.5 689.5,-56.5"/>
<text text-anchor="middle" x="717.5" y="-63.5" font-family="Helvetica,sans-Serif" font-size="10.00">ar/ARQ.h</text>
</a>
</g>
</g>
<!-- Node5&#45;&gt;Node8 -->
<g id="edge8" class="edge">
<title>Node5&#45;&gt;Node8</title>
<path fill="none" stroke="midnightblue" d="M687.03,-168.15C690.63,-155.63 697.46,-132.04 703.5,-112 706.16,-103.18 709.19,-93.41 711.75,-85.23"/>
<polygon fill="midnightblue" stroke="midnightblue" points="715.11,-86.2 714.77,-75.61 708.44,-84.1 715.11,-86.2"/>
</g>
<!-- Node9 -->
<g id="node9" class="node">
<title>Node9</title>
<g id="a_node9"><a xlink:href="mwcc_8h.html" target="_top" xlink:title=" ">
<polygon fill="white" stroke="black" points="712.5,-112.5 712.5,-131.5 762.5,-131.5 762.5,-112.5 712.5,-112.5"/>
<text text-anchor="middle" x="737.5" y="-119.5" font-family="Helvetica,sans-Serif" font-size="10.00">mwcc.h</text>
</a>
</g>
</g>
<!-- Node5&#45;&gt;Node9 -->
<g id="edge10" class="edge">
<title>Node5&#45;&gt;Node9</title>
<path fill="none" stroke="midnightblue" d="M693.25,-168.08C700.97,-160.22 712.4,-148.57 721.72,-139.08"/>
<polygon fill="midnightblue" stroke="midnightblue" points="724.4,-141.34 728.91,-131.75 719.41,-136.44 724.4,-141.34"/>
</g>
<!-- Node10 -->
<g id="node10" class="node">
<title>Node10</title>
<g id="a_node10"><a xlink:href="OS_8h.html" target="_top" xlink:title=" ">
<polygon fill="white" stroke="black" points="780.5,-112.5 780.5,-131.5 832.5,-131.5 832.5,-112.5 780.5,-112.5"/>
<text text-anchor="middle" x="806.5" y="-119.5" font-family="Helvetica,sans-Serif" font-size="10.00">os/OS.h</text>
</a>
</g>
</g>
<!-- Node5&#45;&gt;Node10 -->
<g id="edge11" class="edge">
<title>Node5&#45;&gt;Node10</title>
<path fill="none" stroke="midnightblue" d="M703.83,-168.44C723.82,-159.6 755.24,-145.69 778.06,-135.59"/>
<polygon fill="midnightblue" stroke="midnightblue" points="779.53,-138.76 787.26,-131.52 776.7,-132.36 779.53,-138.76"/>
</g>
<!-- Node7&#45;&gt;Node6 -->
<g id="edge7" class="edge">
<title>Node7&#45;&gt;Node6</title>
<path fill="none" stroke="midnightblue" d="M657.91,-56.32C668.61,-48.18 684.84,-35.84 697.66,-26.09"/>
<polygon fill="midnightblue" stroke="midnightblue" points="700.04,-28.67 705.89,-19.83 695.81,-23.1 700.04,-28.67"/>
</g>
<!-- Node8&#45;&gt;Node6 -->
<g id="edge9" class="edge">
<title>Node8&#45;&gt;Node6</title>
<path fill="none" stroke="midnightblue" d="M717.5,-56.08C717.5,-49.01 717.5,-38.86 717.5,-29.99"/>
<polygon fill="midnightblue" stroke="midnightblue" points="721,-29.75 717.5,-19.75 714,-29.75 721,-29.75"/>
</g>
<!-- Node10&#45;&gt;Node6 -->
<g id="edge12" class="edge">
<title>Node10&#45;&gt;Node6</title>
<path fill="none" stroke="midnightblue" d="M814.89,-112.43C826.57,-99.42 844.97,-74.27 832.5,-56 818.01,-34.77 791.88,-23.56 768.18,-17.63"/>
<polygon fill="midnightblue" stroke="midnightblue" points="768.73,-14.17 758.21,-15.4 767.21,-21 768.73,-14.17"/>
</g>
<!-- Node11 -->
<g id="node11" class="node">
<title>Node11</title>
<g id="a_node11"><a xlink:href="dvd_8h.html" target="_top" xlink:title=" ">
<polygon fill="white" stroke="black" points="764,-56.5 764,-75.5 823,-75.5 823,-56.5 764,-56.5"/>
<text text-anchor="middle" x="793.5" y="-63.5" font-family="Helvetica,sans-Serif" font-size="10.00">dvd/dvd.h</text>
</a>
</g>
</g>
<!-- Node10&#45;&gt;Node11 -->
<g id="edge13" class="edge">
<title>Node10&#45;&gt;Node11</title>
<path fill="none" stroke="midnightblue" d="M804.35,-112.08C802.63,-104.93 800.15,-94.64 798,-85.69"/>
<polygon fill="midnightblue" stroke="midnightblue" points="801.35,-84.65 795.61,-75.75 794.54,-86.29 801.35,-84.65"/>
</g>
<!-- Node11&#45;&gt;Node6 -->
<g id="edge14" class="edge">
<title>Node11&#45;&gt;Node6</title>
<path fill="none" stroke="midnightblue" d="M781.29,-56.32C769.72,-48.11 752.12,-35.6 738.34,-25.81"/>
<polygon fill="midnightblue" stroke="midnightblue" points="740.11,-22.77 729.93,-19.83 736.06,-28.48 740.11,-22.77"/>
</g>
<!-- Node12&#45;&gt;Node5 -->
<g id="edge24" class="edge">
<title>Node12&#45;&gt;Node5</title>
<path fill="none" stroke="midnightblue" d="M629.28,-587.49C708.39,-581.29 860.84,-567 910.5,-546 964.59,-523.13 1014.5,-523.22 1014.5,-464.5 1014.5,-464.5 1014.5,-464.5 1014.5,-289 1014.5,-227.33 804.47,-194.05 719.53,-183.11"/>
<polygon fill="midnightblue" stroke="midnightblue" points="719.93,-179.63 709.57,-181.86 719.06,-186.58 719.93,-179.63"/>
</g>
<!-- Node13 -->
<g id="node13" class="node">
<title>Node13</title>
<g id="a_node13"><a xlink:href="c__tag_8h.html" target="_top" xlink:title=" ">
<polygon fill="white" stroke="black" points="435,-392.5 435,-411.5 542,-411.5 542,-392.5 435,-392.5"/>
<text text-anchor="middle" x="488.5" y="-399.5" font-family="Helvetica,sans-Serif" font-size="10.00">SComponent/c_tag.h</text>
</a>
</g>
</g>
<!-- Node12&#45;&gt;Node13 -->
<g id="edge16" class="edge">
<title>Node12&#45;&gt;Node13</title>
<path fill="none" stroke="midnightblue" d="M561.98,-582.47C547.38,-574.84 527.54,-562.36 515.5,-546 488,-508.64 486.06,-451.3 487.16,-421.87"/>
<polygon fill="midnightblue" stroke="midnightblue" points="490.66,-421.91 487.71,-411.73 483.67,-421.53 490.66,-421.91"/>
</g>
<!-- Node16 -->
<g id="node16" class="node">
<title>Node16</title>
<g id="a_node16"><a xlink:href="f__pc__delete__tag_8h.html" target="_top" xlink:title=" ">
<polygon fill="white" stroke="black" points="524,-515.5 524,-545.5 619,-545.5 619,-515.5 524,-515.5"/>
<text text-anchor="start" x="532" y="-533.5" font-family="Helvetica,sans-Serif" font-size="10.00">f/f_pc/f_pc_delete</text>
<text text-anchor="middle" x="571.5" y="-522.5" font-family="Helvetica,sans-Serif" font-size="10.00">_tag.h</text>
</a>
</g>
</g>
<!-- Node12&#45;&gt;Node16 -->
<g id="edge25" class="edge">
<title>Node12&#45;&gt;Node16</title>
<path fill="none" stroke="midnightblue" d="M579.21,-582.48C578.15,-575.47 576.6,-565.19 575.16,-555.7"/>
<polygon fill="midnightblue" stroke="midnightblue" points="578.58,-554.89 573.62,-545.52 571.66,-555.93 578.58,-554.89"/>
</g>
<!-- Node12&#45;&gt;Node18 -->
<g id="edge33" class="edge">
<title>Node12&#45;&gt;Node18</title>
<path fill="none" stroke="midnightblue" d="M556,-582.48C526.54,-572.22 476.92,-554.96 443.7,-543.4"/>
<polygon fill="midnightblue" stroke="midnightblue" points="444.55,-539.99 433.95,-540.01 442.25,-546.6 444.55,-539.99"/>
</g>
<!-- Node19 -->
<g id="node19" class="node">
<title>Node19</title>
<g id="a_node19"><a xlink:href="f__pc__line__tag_8h.html" target="_top" xlink:title=" ">
<polygon fill="white" stroke="black" points="712.5,-454 712.5,-473 822.5,-473 822.5,-454 712.5,-454"/>
<text text-anchor="middle" x="767.5" y="-461" font-family="Helvetica,sans-Serif" font-size="10.00">f/f_pc/f_pc_line_tag.h</text>
</a>
</g>
</g>
<!-- Node12&#45;&gt;Node19 -->
<g id="edge37" class="edge">
<title>Node12&#45;&gt;Node19</title>
<path fill="none" stroke="midnightblue" d="M629.29,-583.89C673.42,-576.46 733.96,-563.45 750.5,-546 766.4,-529.24 769.07,-501.64 768.83,-483.27"/>
<polygon fill="midnightblue" stroke="midnightblue" points="772.33,-483.04 768.41,-473.2 765.34,-483.34 772.33,-483.04"/>
</g>
<!-- Node20 -->
<g id="node20" class="node">
<title>Node20</title>
<g id="a_node20"><a xlink:href="f__pc__priority_8h.html" target="_top" xlink:title=" ">
<polygon fill="white" stroke="black" points="637.5,-521 637.5,-540 741.5,-540 741.5,-521 637.5,-521"/>
<text text-anchor="middle" x="689.5" y="-528" font-family="Helvetica,sans-Serif" font-size="10.00">f/f_pc/f_pc_priority.h</text>
</a>
</g>
</g>
<!-- Node12&#45;&gt;Node20 -->
<g id="edge40" class="edge">
<title>Node12&#45;&gt;Node20</title>
<path fill="none" stroke="midnightblue" d="M596.12,-582.48C614.09,-572.67 643.82,-556.43 664.91,-544.92"/>
<polygon fill="midnightblue" stroke="midnightblue" points="666.81,-547.87 673.91,-540.01 663.46,-541.73 666.81,-547.87"/>
</g>
<!-- Node22 -->
<g id="node22" class="node">
<title>Node22</title>
<g id="a_node22"><a xlink:href="f__pc__profile_8h.html" target="_top" xlink:title=" ">
<polygon fill="white" stroke="black" points="800,-521 800,-540 901,-540 901,-521 800,-521"/>
<text text-anchor="middle" x="850.5" y="-528" font-family="Helvetica,sans-Serif" font-size="10.00">f/f_pc/f_pc_profile.h</text>
</a>
</g>
</g>
<!-- Node12&#45;&gt;Node22 -->
<g id="edge45" class="edge">
<title>Node12&#45;&gt;Node22</title>
<path fill="none" stroke="midnightblue" d="M619.18,-582.48C667.3,-571.87 749.49,-553.76 801.83,-542.22"/>
<polygon fill="midnightblue" stroke="midnightblue" points="802.87,-545.58 811.89,-540.01 801.37,-538.74 802.87,-545.58"/>
</g>
<!-- Node13&#45;&gt;Node4 -->
<g id="edge19" class="edge">
<title>Node13&#45;&gt;Node4</title>
<path fill="none" stroke="midnightblue" d="M492.74,-392.19C502.32,-370.9 523.01,-315.79 499.5,-280 488.93,-263.91 471.24,-253.54 453.42,-246.88"/>
<polygon fill="midnightblue" stroke="midnightblue" points="454.14,-243.43 443.55,-243.54 451.9,-250.06 454.14,-243.43"/>
</g>
<!-- Node13&#45;&gt;Node5 -->
<g id="edge23" class="edge">
<title>Node13&#45;&gt;Node5</title>
<path fill="none" stroke="midnightblue" d="M495.96,-392.26C510.64,-374.96 544.14,-335 570.5,-300 595.27,-267.1 594.77,-253.5 623.5,-224 634.91,-212.28 649.63,-201.33 661.74,-193.17"/>
<polygon fill="midnightblue" stroke="midnightblue" points="663.95,-195.9 670.4,-187.5 660.12,-190.05 663.95,-195.9"/>
</g>
<!-- Node14 -->
<g id="node14" class="node">
<title>Node14</title>
<g id="a_node14"><a xlink:href="c__list_8h.html" target="_top" xlink:title=" ">
<polygon fill="white" stroke="black" points="383,-280.5 383,-299.5 490,-299.5 490,-280.5 383,-280.5"/>
<text text-anchor="middle" x="436.5" y="-287.5" font-family="Helvetica,sans-Serif" font-size="10.00">SComponent/c_list.h</text>
</a>
</g>
</g>
<!-- Node13&#45;&gt;Node14 -->
<g id="edge17" class="edge">
<title>Node13&#45;&gt;Node14</title>
<path fill="none" stroke="midnightblue" d="M484.42,-392.37C475.95,-374.46 456.32,-332.92 444.98,-308.95"/>
<polygon fill="midnightblue" stroke="midnightblue" points="448,-307.14 440.56,-299.59 441.67,-310.13 448,-307.14"/>
</g>
<!-- Node15 -->
<g id="node15" class="node">
<title>Node15</title>
<g id="a_node15"><a xlink:href="c__tree_8h.html" target="_top" xlink:title=" ">
<polygon fill="white" stroke="black" points="304.5,-336.5 304.5,-355.5 414.5,-355.5 414.5,-336.5 304.5,-336.5"/>
<text text-anchor="middle" x="359.5" y="-343.5" font-family="Helvetica,sans-Serif" font-size="10.00">SComponent/c_tree.h</text>
</a>
</g>
</g>
<!-- Node13&#45;&gt;Node15 -->
<g id="edge20" class="edge">
<title>Node13&#45;&gt;Node15</title>
<path fill="none" stroke="midnightblue" d="M468.06,-392.44C446.83,-383.56 413.4,-369.56 389.25,-359.45"/>
<polygon fill="midnightblue" stroke="midnightblue" points="390.42,-356.15 379.84,-355.52 387.72,-362.61 390.42,-356.15"/>
</g>
<!-- Node14&#45;&gt;Node4 -->
<g id="edge18" class="edge">
<title>Node14&#45;&gt;Node4</title>
<path fill="none" stroke="midnightblue" d="M429.73,-280.08C423.94,-272.46 415.44,-261.26 408.36,-251.94"/>
<polygon fill="midnightblue" stroke="midnightblue" points="410.98,-249.6 402.14,-243.75 405.4,-253.83 410.98,-249.6"/>
</g>
<!-- Node15&#45;&gt;Node4 -->
<g id="edge22" class="edge">
<title>Node15&#45;&gt;Node4</title>
<path fill="none" stroke="midnightblue" d="M360.89,-336.43C363.05,-323.84 367.71,-299.71 374.5,-280 377.69,-270.73 382.2,-260.81 386.21,-252.65"/>
<polygon fill="midnightblue" stroke="midnightblue" points="389.33,-254.24 390.75,-243.74 383.1,-251.06 389.33,-254.24"/>
</g>
<!-- Node15&#45;&gt;Node14 -->
<g id="edge21" class="edge">
<title>Node15&#45;&gt;Node14</title>
<path fill="none" stroke="midnightblue" d="M371.87,-336.32C383.66,-328.06 401.63,-315.45 415.64,-305.63"/>
<polygon fill="midnightblue" stroke="midnightblue" points="417.98,-308.26 424.16,-299.65 413.96,-302.53 417.98,-308.26"/>
</g>
<!-- Node16&#45;&gt;Node5 -->
<g id="edge32" class="edge">
<title>Node16&#45;&gt;Node5</title>
<path fill="none" stroke="midnightblue" d="M614.69,-515.3C632.82,-507.29 652.64,-495.52 665.5,-479 686.89,-451.52 684.5,-437.82 684.5,-403 684.5,-403 684.5,-403 684.5,-289 684.5,-256.95 684.5,-219.64 684.5,-197.75"/>
<polygon fill="midnightblue" stroke="midnightblue" points="688,-197.56 684.5,-187.56 681,-197.56 688,-197.56"/>
</g>
<!-- Node16&#45;&gt;Node13 -->
<g id="edge26" class="edge">
<title>Node16&#45;&gt;Node13</title>
<path fill="none" stroke="midnightblue" d="M549.72,-515.47C537.23,-506.41 522.17,-493.62 512.5,-479 500.84,-461.37 494.55,-437.72 491.37,-421.51"/>
<polygon fill="midnightblue" stroke="midnightblue" points="494.82,-420.89 489.64,-411.65 487.92,-422.1 494.82,-420.89"/>
</g>
<!-- Node16&#45;&gt;Node17 -->
<g id="edge27" class="edge">
<title>Node16&#45;&gt;Node17</title>
<path fill="none" stroke="midnightblue" d="M523.95,-518.18C473.35,-506.13 393.88,-487.21 344.06,-475.35"/>
<polygon fill="midnightblue" stroke="midnightblue" points="344.75,-471.91 334.21,-473 343.12,-478.72 344.75,-471.91"/>
</g>
<!-- Node17&#45;&gt;Node4 -->
<g id="edge28" class="edge">
<title>Node17&#45;&gt;Node4</title>
<path fill="none" stroke="midnightblue" d="M295.99,-453.78C290.36,-432.62 278.54,-377.24 295.5,-336 311.22,-297.79 349.15,-266.36 373.52,-249.18"/>
<polygon fill="midnightblue" stroke="midnightblue" points="375.53,-252.04 381.82,-243.51 371.59,-246.26 375.53,-252.04"/>
</g>
<!-- Node17&#45;&gt;Node5 -->
<g id="edge31" class="edge">
<title>Node17&#45;&gt;Node5</title>
<path fill="none" stroke="midnightblue" d="M294.82,-453.76C290.87,-443.84 284.83,-427.09 282.5,-412 281.14,-403.22 282.26,-400.89 282.5,-392 284.57,-314.49 268.31,-271.62 329.5,-224 378.83,-185.62 569.93,-179.77 649.46,-179.03"/>
<polygon fill="midnightblue" stroke="midnightblue" points="649.5,-182.53 659.48,-178.96 649.45,-175.53 649.5,-182.53"/>
</g>
<!-- Node17&#45;&gt;Node13 -->
<g id="edge29" class="edge">
<title>Node17&#45;&gt;Node13</title>
<path fill="none" stroke="midnightblue" d="M325.72,-453.98C358.74,-443.64 414.54,-426.16 451.45,-414.6"/>
<polygon fill="midnightblue" stroke="midnightblue" points="452.83,-417.84 461.33,-411.51 450.74,-411.16 452.83,-417.84"/>
</g>
<!-- Node17&#45;&gt;Node15 -->
<g id="edge30" class="edge">
<title>Node17&#45;&gt;Node15</title>
<path fill="none" stroke="midnightblue" d="M303.08,-453.82C313.02,-435.01 336.71,-390.15 350.02,-364.96"/>
<polygon fill="midnightblue" stroke="midnightblue" points="353.29,-366.26 354.86,-355.78 347.1,-362.99 353.29,-366.26"/>
</g>
<!-- Node18&#45;&gt;Node5 -->
<g id="edge36" class="edge">
<title>Node18&#45;&gt;Node5</title>
<path fill="none" stroke="midnightblue" d="M408.55,-520.83C406.49,-498.17 403.44,-435.86 426.5,-392 451.66,-344.14 558.88,-255.94 602.5,-224 619.48,-211.57 640.27,-200.19 656.68,-191.99"/>
<polygon fill="midnightblue" stroke="midnightblue" points="658.32,-195.08 665.76,-187.54 655.24,-188.8 658.32,-195.08"/>
</g>
<!-- Node18&#45;&gt;Node13 -->
<g id="edge34" class="edge">
<title>Node18&#45;&gt;Node13</title>
<path fill="none" stroke="midnightblue" d="M410.78,-520.98C413.44,-505.39 420.69,-471.68 436.5,-448 444.37,-436.21 456.13,-425.67 466.47,-417.77"/>
<polygon fill="midnightblue" stroke="midnightblue" points="468.69,-420.49 474.72,-411.77 464.57,-414.82 468.69,-420.49"/>
</g>
<!-- Node18&#45;&gt;Node17 -->
<g id="edge35" class="edge">
<title>Node18&#45;&gt;Node17</title>
<path fill="none" stroke="midnightblue" d="M394.53,-520.73C375.89,-509.82 343.84,-491.05 321.93,-478.22"/>
<polygon fill="midnightblue" stroke="midnightblue" points="323.63,-475.16 313.23,-473.13 320.09,-481.2 323.63,-475.16"/>
</g>
<!-- Node19&#45;&gt;Node5 -->
<g id="edge39" class="edge">
<title>Node19&#45;&gt;Node5</title>
<path fill="none" stroke="midnightblue" d="M764.71,-453.91C758.79,-434.88 745.5,-387.62 745.5,-347 745.5,-347 745.5,-347 745.5,-289 745.5,-251.57 718.16,-214.96 700.09,-194.84"/>
<polygon fill="midnightblue" stroke="midnightblue" points="702.62,-192.43 693.24,-187.51 697.51,-197.21 702.62,-192.43"/>
</g>
<!-- Node19&#45;&gt;Node13 -->
<g id="edge38" class="edge">
<title>Node19&#45;&gt;Node13</title>
<path fill="none" stroke="midnightblue" d="M727.53,-453.98C677.7,-443.35 592.53,-425.18 538.45,-413.65"/>
<polygon fill="midnightblue" stroke="midnightblue" points="538.91,-410.17 528.4,-411.51 537.45,-417.02 538.91,-410.17"/>
</g>
<!-- Node20&#45;&gt;Node13 -->
<g id="edge41" class="edge">
<title>Node20&#45;&gt;Node13</title>
<path fill="none" stroke="midnightblue" d="M659.01,-520.97C622.73,-510.44 564.75,-492.29 546.5,-479 525.07,-463.4 507.81,-437.7 497.86,-420.56"/>
<polygon fill="midnightblue" stroke="midnightblue" points="500.79,-418.63 492.86,-411.6 494.67,-422.04 500.79,-418.63"/>
</g>
<!-- Node21 -->
<g id="node21" class="node">
<title>Node21</title>
<g id="a_node21"><a xlink:href="f__pc__method__tag_8h.html" target="_top" xlink:title=" ">
<polygon fill="white" stroke="black" points="555,-448.5 555,-478.5 656,-478.5 656,-448.5 555,-448.5"/>
<text text-anchor="start" x="563" y="-466.5" font-family="Helvetica,sans-Serif" font-size="10.00">f/f_pc/f_pc_method</text>
<text text-anchor="middle" x="605.5" y="-455.5" font-family="Helvetica,sans-Serif" font-size="10.00">_tag.h</text>
</a>
</g>
</g>
<!-- Node20&#45;&gt;Node21 -->
<g id="edge42" class="edge">
<title>Node20&#45;&gt;Node21</title>
<path fill="none" stroke="midnightblue" d="M678.17,-520.73C666.38,-511.61 647.5,-497 631.94,-484.96"/>
<polygon fill="midnightblue" stroke="midnightblue" points="633.76,-481.94 623.71,-478.59 629.47,-487.48 633.76,-481.94"/>
</g>
<!-- Node21&#45;&gt;Node5 -->
<g id="edge44" class="edge">
<title>Node21&#45;&gt;Node5</title>
<path fill="none" stroke="midnightblue" d="M612.13,-448.27C621.5,-426.8 637.5,-384.66 637.5,-347 637.5,-347 637.5,-347 637.5,-289 637.5,-253.7 658.22,-216.79 672.14,-195.96"/>
<polygon fill="midnightblue" stroke="midnightblue" points="675.13,-197.8 677.96,-187.59 669.38,-193.8 675.13,-197.8"/>
</g>
<!-- Node21&#45;&gt;Node13 -->
<g id="edge43" class="edge">
<title>Node21&#45;&gt;Node13</title>
<path fill="none" stroke="midnightblue" d="M577.77,-448.4C558.67,-438.68 533.44,-425.86 514.68,-416.31"/>
<polygon fill="midnightblue" stroke="midnightblue" points="516.02,-413.07 505.52,-411.66 512.85,-419.31 516.02,-413.07"/>
</g>
<!-- Node22&#45;&gt;Node5 -->
<g id="edge48" class="edge">
<title>Node22&#45;&gt;Node5</title>
<path fill="none" stroke="midnightblue" d="M850.5,-520.91C850.5,-500.48 850.5,-447.36 850.5,-403 850.5,-403 850.5,-403 850.5,-289 850.5,-226.71 768.26,-197.61 719.56,-185.84"/>
<polygon fill="midnightblue" stroke="midnightblue" points="720.24,-182.4 709.71,-183.58 718.68,-189.23 720.24,-182.4"/>
</g>
<!-- Node23 -->
<g id="node23" class="node">
<title>Node23</title>
<g id="a_node23"><a xlink:href="f__pc__method_8h.html" target="_top" xlink:title=" ">
<polygon fill="white" stroke="black" points="878.5,-454 878.5,-473 986.5,-473 986.5,-454 878.5,-454"/>
<text text-anchor="middle" x="932.5" y="-461" font-family="Helvetica,sans-Serif" font-size="10.00">f/f_pc/f_pc_method.h</text>
</a>
</g>
</g>
<!-- Node22&#45;&gt;Node23 -->
<g id="edge46" class="edge">
<title>Node22&#45;&gt;Node23</title>
<path fill="none" stroke="midnightblue" d="M861.56,-520.73C874.84,-510.21 897.33,-492.38 913.43,-479.62"/>
<polygon fill="midnightblue" stroke="midnightblue" points="915.95,-482.08 921.62,-473.13 911.61,-476.6 915.95,-482.08"/>
</g>
<!-- Node23&#45;&gt;Node5 -->
<g id="edge47" class="edge">
<title>Node23&#45;&gt;Node5</title>
<path fill="none" stroke="midnightblue" d="M929.71,-453.91C923.79,-434.88 910.5,-387.62 910.5,-347 910.5,-347 910.5,-347 910.5,-289 910.5,-205.26 783.51,-185.25 719.91,-180.49"/>
<polygon fill="midnightblue" stroke="midnightblue" points="719.76,-176.97 709.55,-179.8 719.3,-183.95 719.76,-176.97"/>
</g>
<!-- Node24&#45;&gt;Node3 -->
<g id="edge50" class="edge">
<title>Node24&#45;&gt;Node3</title>
<path fill="none" stroke="midnightblue" d="M76.56,-582.48C98.97,-572.45 136.41,-555.7 162.21,-544.15"/>
<polygon fill="midnightblue" stroke="midnightblue" points="163.78,-547.29 171.48,-540.01 160.92,-540.9 163.78,-547.29"/>
</g>
<!-- Node24&#45;&gt;Node5 -->
<g id="edge52" class="edge">
<title>Node24&#45;&gt;Node5</title>
<path fill="none" stroke="midnightblue" d="M57.5,-582.41C57.5,-561.98 57.5,-508.86 57.5,-464.5 57.5,-464.5 57.5,-464.5 57.5,-289 57.5,-228.47 516.64,-190.99 649.12,-181.43"/>
<polygon fill="midnightblue" stroke="midnightblue" points="649.42,-184.92 659.14,-180.71 648.92,-177.93 649.42,-184.92"/>
</g>
<!-- Node24&#45;&gt;Node17 -->
<g id="edge51" class="edge">
<title>Node24&#45;&gt;Node17</title>
<path fill="none" stroke="midnightblue" d="M61.5,-582.47C69.35,-566.66 88.32,-532.82 114.5,-515 151.96,-489.51 201.91,-476.84 240.32,-470.57"/>
<polygon fill="midnightblue" stroke="midnightblue" points="240.97,-474.01 250.32,-469.04 239.91,-467.09 240.97,-474.01"/>
</g>
<!-- Node25&#45;&gt;Node3 -->
<g id="edge54" class="edge">
<title>Node25&#45;&gt;Node3</title>
<path fill="none" stroke="midnightblue" d="M188.79,-582.48C189.07,-574.08 189.51,-560.98 189.87,-550.16"/>
<polygon fill="midnightblue" stroke="midnightblue" points="193.38,-550.12 190.21,-540.01 186.38,-549.89 193.38,-550.12"/>
</g>
<!-- Node26&#45;&gt;Node12 -->
<g id="edge61" class="edge">
<title>Node26&#45;&gt;Node12</title>
<path fill="none" stroke="midnightblue" d="M491.53,-638.32C508.53,-629.66 534.88,-616.24 554.49,-606.25"/>
<polygon fill="midnightblue" stroke="midnightblue" points="556.19,-609.31 563.51,-601.65 553.01,-603.08 556.19,-609.31"/>
</g>
<!-- Node26&#45;&gt;Node17 -->
<g id="edge62" class="edge">
<title>Node26&#45;&gt;Node17</title>
<path fill="none" stroke="midnightblue" d="M459.54,-638.33C433.41,-622.61 378.85,-587.19 343.5,-546 326.85,-526.6 313.6,-500.06 305.9,-482.61"/>
<polygon fill="midnightblue" stroke="midnightblue" points="308.97,-480.9 301.84,-473.06 302.53,-483.64 308.97,-480.9"/>
</g>
<!-- Node26&#45;&gt;Node23 -->
<g id="edge63" class="edge">
<title>Node26&#45;&gt;Node23</title>
<path fill="none" stroke="midnightblue" d="M523.36,-641.98C625.18,-630.54 855.21,-599.34 910.5,-546 927.45,-529.65 931.79,-501.73 932.67,-483.19"/>
<polygon fill="midnightblue" stroke="midnightblue" points="936.17,-483.11 932.85,-473.05 929.17,-482.99 936.17,-483.11"/>
</g>
<!-- Node27&#45;&gt;Node5 -->
<g id="edge67" class="edge">
<title>Node27&#45;&gt;Node5</title>
<path fill="none" stroke="midnightblue" d="M550.8,-694.44C676.41,-666.61 1052.5,-574.12 1052.5,-464.5 1052.5,-464.5 1052.5,-464.5 1052.5,-289 1052.5,-219.97 811.77,-190.64 719.72,-181.96"/>
<polygon fill="midnightblue" stroke="midnightblue" points="719.78,-178.45 709.5,-181.02 719.14,-185.42 719.78,-178.45"/>
</g>
<!-- Node27&#45;&gt;Node12 -->
<g id="edge65" class="edge">
<title>Node27&#45;&gt;Node12</title>
<path fill="none" stroke="midnightblue" d="M515.99,-694.37C527.49,-676.3 554.3,-634.18 569.49,-610.31"/>
<polygon fill="midnightblue" stroke="midnightblue" points="572.62,-611.91 575.03,-601.59 566.71,-608.15 572.62,-611.91"/>
</g>
<!-- Node27&#45;&gt;Node26 -->
<g id="edge66" class="edge">
<title>Node27&#45;&gt;Node26</title>
<path fill="none" stroke="midnightblue" d="M504.56,-694.08C499.52,-686.53 492.16,-675.49 485.99,-666.23"/>
<polygon fill="midnightblue" stroke="midnightblue" points="488.79,-664.13 480.33,-657.75 482.97,-668.01 488.79,-664.13"/>
</g>
<!-- Node28&#45;&gt;Node5 -->
<g id="edge70" class="edge">
<title>Node28&#45;&gt;Node5</title>
<path fill="none" stroke="midnightblue" d="M1116.59,-638.42C1110.4,-619.41 1096.5,-572.19 1096.5,-531.5 1096.5,-531.5 1096.5,-531.5 1096.5,-289 1096.5,-257.18 1092.25,-242.69 1066.5,-224 1011.63,-184.17 803.45,-179.22 719.71,-178.87"/>
<polygon fill="midnightblue" stroke="midnightblue" points="719.67,-175.37 709.67,-178.85 719.66,-182.37 719.67,-175.37"/>
</g>
<!-- Node28&#45;&gt;Node12 -->
<g id="edge69" class="edge">
<title>Node28&#45;&gt;Node12</title>
<path fill="none" stroke="midnightblue" d="M1062.84,-641.32C960.04,-631.02 743.81,-609.36 639.39,-598.9"/>
<polygon fill="midnightblue" stroke="midnightblue" points="639.64,-595.41 629.34,-597.89 638.94,-602.37 639.64,-595.41"/>
</g>
</g>
</svg>
