<?xml version="1.0" encoding="UTF-8" standalone="no"?>
<!DOCTYPE svg PUBLIC "-//W3C//DTD SVG 1.1//EN"
 "http://www.w3.org/Graphics/SVG/1.1/DTD/svg11.dtd">
<!-- Generated by graphviz version 2.44.0 ()
 -->
<!-- Title: src/f/f_pc/f_pc_create_iter.cpp Pages: 1 -->
<!--zoomable 621 -->
<svg id="main" version="1.1" xmlns="http://www.w3.org/2000/svg" xmlns:xlink="http://www.w3.org/1999/xlink" xml:space="preserve" onload="init(evt)">
<style type="text/css"><![CDATA[
.edge:hover path { stroke: red; }
.edge:hover polygon { stroke: red; fill: red; }
]]></style>
<script type="text/javascript"><![CDATA[
var edges = document.getElementsByTagName('g');
if (edges && edges.length) {
  for (var i=0;i<edges.length;i++) {
    if (edges[i].id.substr(0,4)=='edge') {
      edges[i].setAttribute('class','edge');
    }
  }
}
]]></script>
        <defs>
                <circle id="rim" cx="0" cy="0" r="7"/>
                <circle id="rim2" cx="0" cy="0" r="3.5"/>
                <g id="zoomPlus">
                        <use xlink:href="#rim" fill="#404040">
                                <set attributeName="fill" to="#808080" begin="zoomplus.mouseover" end="zoomplus.mouseout"/>
                        </use>
                        <path d="M-4,0h8M0,-4v8" fill="none" stroke="white" stroke-width="1.5" pointer-events="none"/>
                </g>
                <g id="zoomMin">
                        <use xlink:href="#rim" fill="#404040">
                                <set attributeName="fill" to="#808080" begin="zoomminus.mouseover" end="zoomminus.mouseout"/>
                        </use>
                        <path d="M-4,0h8" fill="none" stroke="white" stroke-width="1.5" pointer-events="none"/>
                </g>
                <g id="dirArrow">
                        <path fill="none" stroke="white" stroke-width="1.5" d="M0,-3.0v7 M-2.5,-0.5L0,-3.0L2.5,-0.5"/>
                </g>
               <g id="resetDef">
                       <use xlink:href="#rim2" fill="#404040">
                               <set attributeName="fill" to="#808080" begin="reset.mouseover" end="reset.mouseout"/>
                       </use>
               </g>
        </defs>

<script type="text/javascript">
var viewWidth = 799;
var viewHeight = 621;
var sectionId = 'dynsection-0';
</script>
<script xlink:href="svgpan.js"/>
<svg id="graph" class="graph">
<g id="viewport">
<title>src/f/f_pc/f_pc_create_iter.cpp</title>
<polygon fill="white" stroke="transparent" points="-4,4 -4,-617 795.23,-617 795.23,4 -4,4"/>
<!-- Node1 -->
<g id="node1" class="node">
<title>Node1</title>
<g id="a_node1"><a xlink:title=" ">
<polygon fill="#bfbfbf" stroke="black" points="376,-582.5 376,-612.5 488,-612.5 488,-582.5 376,-582.5"/>
<text text-anchor="start" x="384" y="-600.5" font-family="Helvetica,sans-Serif" font-size="10.00">src/f/f_pc/f_pc_create</text>
<text text-anchor="middle" x="432" y="-589.5" font-family="Helvetica,sans-Serif" font-size="10.00">_iter.cpp</text>
</a>
</g>
</g>
<!-- Node2 -->
<g id="node2" class="node">
<title>Node2</title>
<g id="a_node2"><a xlink:href="f__pc__create__iter_8h.html" target="_top" xlink:title=" ">
<polygon fill="white" stroke="black" points="560.5,-515.5 560.5,-545.5 655.5,-545.5 655.5,-515.5 560.5,-515.5"/>
<text text-anchor="start" x="568.5" y="-533.5" font-family="Helvetica,sans-Serif" font-size="10.00">f/f_pc/f_pc_create</text>
<text text-anchor="middle" x="608" y="-522.5" font-family="Helvetica,sans-Serif" font-size="10.00">_iter.h</text>
</a>
</g>
</g>
<!-- Node1&#45;&gt;Node2 -->
<g id="edge1" class="edge">
<title>Node1&#45;&gt;Node2</title>
<path fill="none" stroke="midnightblue" d="M470.19,-582.4C496.6,-572.64 531.93,-559.59 560.2,-549.15"/>
<polygon fill="midnightblue" stroke="midnightblue" points="561.72,-552.32 569.89,-545.58 559.29,-545.76 561.72,-552.32"/>
</g>
<!-- Node18 -->
<g id="node18" class="node">
<title>Node18</title>
<g id="a_node18"><a xlink:href="f__pc__create__req_8h.html" target="_top" xlink:title=" ">
<polygon fill="white" stroke="black" points="266.5,-515.5 266.5,-545.5 361.5,-545.5 361.5,-515.5 266.5,-515.5"/>
<text text-anchor="start" x="274.5" y="-533.5" font-family="Helvetica,sans-Serif" font-size="10.00">f/f_pc/f_pc_create</text>
<text text-anchor="middle" x="314" y="-522.5" font-family="Helvetica,sans-Serif" font-size="10.00">_req.h</text>
</a>
</g>
</g>
<!-- Node1&#45;&gt;Node18 -->
<g id="edge33" class="edge">
<title>Node1&#45;&gt;Node18</title>
<path fill="none" stroke="midnightblue" d="M406.4,-582.4C389.46,-573.07 367.06,-560.73 348.55,-550.53"/>
<polygon fill="midnightblue" stroke="midnightblue" points="350,-547.34 339.55,-545.58 346.62,-553.47 350,-547.34"/>
</g>
<!-- Node3 -->
<g id="node3" class="node">
<title>Node3</title>
<g id="a_node3"><a xlink:href="c__list__iter_8h.html" target="_top" xlink:title=" ">
<polygon fill="white" stroke="black" points="552.5,-336.5 552.5,-355.5 677.5,-355.5 677.5,-336.5 552.5,-336.5"/>
<text text-anchor="middle" x="615" y="-343.5" font-family="Helvetica,sans-Serif" font-size="10.00">SComponent/c_list_iter.h</text>
</a>
</g>
</g>
<!-- Node2&#45;&gt;Node3 -->
<g id="edge2" class="edge">
<title>Node2&#45;&gt;Node3</title>
<path fill="none" stroke="midnightblue" d="M608.54,-515.48C609.78,-483.1 612.85,-403.04 614.27,-366.16"/>
<polygon fill="midnightblue" stroke="midnightblue" points="617.78,-365.95 614.66,-355.82 610.78,-365.68 617.78,-365.95"/>
</g>
<!-- Node6 -->
<g id="node6" class="node">
<title>Node6</title>
<g id="a_node6"><a xlink:href="global_8h.html" target="_top" xlink:title=" ">
<polygon fill="white" stroke="black" points="418,-168.5 418,-187.5 468,-187.5 468,-168.5 418,-168.5"/>
<text text-anchor="middle" x="443" y="-175.5" font-family="Helvetica,sans-Serif" font-size="10.00">global.h</text>
</a>
</g>
</g>
<!-- Node2&#45;&gt;Node6 -->
<g id="edge32" class="edge">
<title>Node2&#45;&gt;Node6</title>
<path fill="none" stroke="midnightblue" d="M655.58,-526.99C692.1,-522.51 741.17,-510.53 771,-479 794.93,-453.71 790,-437.82 790,-403 790,-403 790,-403 790,-289 790,-240.73 747.33,-243.09 703,-224 627.38,-191.45 529.8,-182.42 478.36,-179.93"/>
<polygon fill="midnightblue" stroke="midnightblue" points="478.24,-176.43 468.1,-179.5 477.95,-183.42 478.24,-176.43"/>
</g>
<!-- Node14 -->
<g id="node14" class="node">
<title>Node14</title>
<g id="a_node14"><a xlink:href="c__tag__iter_8h.html" target="_top" xlink:title=" ">
<polygon fill="white" stroke="black" points="636,-454 636,-473 762,-473 762,-454 636,-454"/>
<text text-anchor="middle" x="699" y="-461" font-family="Helvetica,sans-Serif" font-size="10.00">SComponent/c_tag_iter.h</text>
</a>
</g>
</g>
<!-- Node2&#45;&gt;Node14 -->
<g id="edge19" class="edge">
<title>Node2&#45;&gt;Node14</title>
<path fill="none" stroke="midnightblue" d="M627.75,-515.4C642.86,-504.6 663.64,-489.76 678.86,-478.89"/>
<polygon fill="midnightblue" stroke="midnightblue" points="680.99,-481.67 687.09,-473.01 676.92,-475.97 680.99,-481.67"/>
</g>
<!-- Node17 -->
<g id="node17" class="node">
<title>Node17</title>
<g id="a_node17"><a xlink:href="f__pc__create__tag_8h.html" target="_top" xlink:title=" ">
<polygon fill="white" stroke="black" points="476.5,-448.5 476.5,-478.5 571.5,-478.5 571.5,-448.5 476.5,-448.5"/>
<text text-anchor="start" x="484.5" y="-466.5" font-family="Helvetica,sans-Serif" font-size="10.00">f/f_pc/f_pc_create</text>
<text text-anchor="middle" x="524" y="-455.5" font-family="Helvetica,sans-Serif" font-size="10.00">_tag.h</text>
</a>
</g>
</g>
<!-- Node2&#45;&gt;Node17 -->
<g id="edge29" class="edge">
<title>Node2&#45;&gt;Node17</title>
<path fill="none" stroke="midnightblue" d="M589.77,-515.4C578.22,-506.45 563.08,-494.74 550.24,-484.8"/>
<polygon fill="midnightblue" stroke="midnightblue" points="552.24,-481.93 542.19,-478.58 547.96,-487.46 552.24,-481.93"/>
</g>
<!-- Node4 -->
<g id="node4" class="node">
<title>Node4</title>
<g id="a_node4"><a xlink:href="c__list_8h.html" target="_top" xlink:title=" ">
<polygon fill="white" stroke="black" points="350.5,-280.5 350.5,-299.5 457.5,-299.5 457.5,-280.5 350.5,-280.5"/>
<text text-anchor="middle" x="404" y="-287.5" font-family="Helvetica,sans-Serif" font-size="10.00">SComponent/c_list.h</text>
</a>
</g>
</g>
<!-- Node3&#45;&gt;Node4 -->
<g id="edge3" class="edge">
<title>Node3&#45;&gt;Node4</title>
<path fill="none" stroke="midnightblue" d="M581.57,-336.44C545.14,-327.12 486.77,-312.18 446.97,-302"/>
<polygon fill="midnightblue" stroke="midnightblue" points="447.83,-298.61 437.28,-299.52 446.1,-305.39 447.83,-298.61"/>
</g>
<!-- Node3&#45;&gt;Node6 -->
<g id="edge18" class="edge">
<title>Node3&#45;&gt;Node6</title>
<path fill="none" stroke="midnightblue" d="M641.79,-336.45C671.18,-325.59 712.05,-305.2 695,-280 645.89,-207.42 535.19,-186.99 478.27,-181.24"/>
<polygon fill="midnightblue" stroke="midnightblue" points="478.57,-177.76 468.29,-180.33 477.93,-184.73 478.57,-177.76"/>
</g>
<!-- Node13 -->
<g id="node13" class="node">
<title>Node13</title>
<g id="a_node13"><a xlink:href="c__node__iter_8h.html" target="_top" xlink:title=" ">
<polygon fill="white" stroke="black" points="552,-280.5 552,-299.5 686,-299.5 686,-280.5 552,-280.5"/>
<text text-anchor="middle" x="619" y="-287.5" font-family="Helvetica,sans-Serif" font-size="10.00">SComponent/c_node_iter.h</text>
</a>
</g>
</g>
<!-- Node3&#45;&gt;Node13 -->
<g id="edge16" class="edge">
<title>Node3&#45;&gt;Node13</title>
<path fill="none" stroke="midnightblue" d="M615.66,-336.08C616.18,-329.01 616.94,-318.86 617.59,-309.99"/>
<polygon fill="midnightblue" stroke="midnightblue" points="621.1,-309.98 618.35,-299.75 614.12,-309.47 621.1,-309.98"/>
</g>
<!-- Node5 -->
<g id="node5" class="node">
<title>Node5</title>
<g id="a_node5"><a xlink:href="c__node_8h.html" target="_top" xlink:title=" ">
<polygon fill="white" stroke="black" points="303.5,-224.5 303.5,-243.5 418.5,-243.5 418.5,-224.5 303.5,-224.5"/>
<text text-anchor="middle" x="361" y="-231.5" font-family="Helvetica,sans-Serif" font-size="10.00">SComponent/c_node.h</text>
</a>
</g>
</g>
<!-- Node4&#45;&gt;Node5 -->
<g id="edge4" class="edge">
<title>Node4&#45;&gt;Node5</title>
<path fill="none" stroke="midnightblue" d="M396.9,-280.08C390.76,-272.38 381.73,-261.03 374.26,-251.65"/>
<polygon fill="midnightblue" stroke="midnightblue" points="376.94,-249.39 367.97,-243.75 371.46,-253.75 376.94,-249.39"/>
</g>
<!-- Node5&#45;&gt;Node6 -->
<g id="edge5" class="edge">
<title>Node5&#45;&gt;Node6</title>
<path fill="none" stroke="midnightblue" d="M374.17,-224.32C386.85,-215.98 406.23,-203.21 421.21,-193.35"/>
<polygon fill="midnightblue" stroke="midnightblue" points="423.43,-196.08 429.86,-187.65 419.58,-190.23 423.43,-196.08"/>
</g>
<!-- Node7 -->
<g id="node7" class="node">
<title>Node7</title>
<g id="a_node7"><a xlink:href="types_8h.html" target="_top" xlink:title=" ">
<polygon fill="white" stroke="black" points="435.5,-0.5 435.5,-19.5 516.5,-19.5 516.5,-0.5 435.5,-0.5"/>
<text text-anchor="middle" x="476" y="-7.5" font-family="Helvetica,sans-Serif" font-size="10.00">dolphin/types.h</text>
</a>
</g>
</g>
<!-- Node6&#45;&gt;Node7 -->
<g id="edge6" class="edge">
<title>Node6&#45;&gt;Node7</title>
<path fill="none" stroke="midnightblue" d="M430.85,-168.31C404.22,-148.17 345.12,-96.92 372,-56 384.07,-37.63 405.41,-26.72 425.63,-20.26"/>
<polygon fill="midnightblue" stroke="midnightblue" points="426.79,-23.57 435.42,-17.44 424.85,-16.85 426.79,-23.57"/>
</g>
<!-- Node8 -->
<g id="node8" class="node">
<title>Node8</title>
<g id="a_node8"><a xlink:href="AR_8h.html" target="_top" xlink:title=" ">
<polygon fill="white" stroke="black" points="380.5,-56.5 380.5,-75.5 429.5,-75.5 429.5,-56.5 380.5,-56.5"/>
<text text-anchor="middle" x="405" y="-63.5" font-family="Helvetica,sans-Serif" font-size="10.00">ar/AR.h</text>
</a>
</g>
</g>
<!-- Node6&#45;&gt;Node8 -->
<g id="edge7" class="edge">
<title>Node6&#45;&gt;Node8</title>
<path fill="none" stroke="midnightblue" d="M440.02,-168.37C433.86,-150.54 419.61,-109.3 411.31,-85.27"/>
<polygon fill="midnightblue" stroke="midnightblue" points="414.54,-83.9 407.97,-75.59 407.93,-86.19 414.54,-83.9"/>
</g>
<!-- Node9 -->
<g id="node9" class="node">
<title>Node9</title>
<g id="a_node9"><a xlink:href="ARQ_8h.html" target="_top" xlink:title=" ">
<polygon fill="white" stroke="black" points="448,-56.5 448,-75.5 504,-75.5 504,-56.5 448,-56.5"/>
<text text-anchor="middle" x="476" y="-63.5" font-family="Helvetica,sans-Serif" font-size="10.00">ar/ARQ.h</text>
</a>
</g>
</g>
<!-- Node6&#45;&gt;Node9 -->
<g id="edge9" class="edge">
<title>Node6&#45;&gt;Node9</title>
<path fill="none" stroke="midnightblue" d="M445.53,-168.15C449.13,-155.63 455.96,-132.04 462,-112 464.66,-103.18 467.69,-93.41 470.25,-85.23"/>
<polygon fill="midnightblue" stroke="midnightblue" points="473.61,-86.2 473.27,-75.61 466.94,-84.1 473.61,-86.2"/>
</g>
<!-- Node10 -->
<g id="node10" class="node">
<title>Node10</title>
<g id="a_node10"><a xlink:href="mwcc_8h.html" target="_top" xlink:title=" ">
<polygon fill="white" stroke="black" points="471,-112.5 471,-131.5 521,-131.5 521,-112.5 471,-112.5"/>
<text text-anchor="middle" x="496" y="-119.5" font-family="Helvetica,sans-Serif" font-size="10.00">mwcc.h</text>
</a>
</g>
</g>
<!-- Node6&#45;&gt;Node10 -->
<g id="edge11" class="edge">
<title>Node6&#45;&gt;Node10</title>
<path fill="none" stroke="midnightblue" d="M451.75,-168.08C459.47,-160.22 470.9,-148.57 480.22,-139.08"/>
<polygon fill="midnightblue" stroke="midnightblue" points="482.9,-141.34 487.41,-131.75 477.91,-136.44 482.9,-141.34"/>
</g>
<!-- Node11 -->
<g id="node11" class="node">
<title>Node11</title>
<g id="a_node11"><a xlink:href="OS_8h.html" target="_top" xlink:title=" ">
<polygon fill="white" stroke="black" points="539,-112.5 539,-131.5 591,-131.5 591,-112.5 539,-112.5"/>
<text text-anchor="middle" x="565" y="-119.5" font-family="Helvetica,sans-Serif" font-size="10.00">os/OS.h</text>
</a>
</g>
</g>
<!-- Node6&#45;&gt;Node11 -->
<g id="edge12" class="edge">
<title>Node6&#45;&gt;Node11</title>
<path fill="none" stroke="midnightblue" d="M462.33,-168.44C482.32,-159.6 513.74,-145.69 536.56,-135.59"/>
<polygon fill="midnightblue" stroke="midnightblue" points="538.03,-138.76 545.76,-131.52 535.2,-132.36 538.03,-138.76"/>
</g>
<!-- Node8&#45;&gt;Node7 -->
<g id="edge8" class="edge">
<title>Node8&#45;&gt;Node7</title>
<path fill="none" stroke="midnightblue" d="M416.41,-56.32C427.11,-48.18 443.34,-35.84 456.16,-26.09"/>
<polygon fill="midnightblue" stroke="midnightblue" points="458.54,-28.67 464.39,-19.83 454.31,-23.1 458.54,-28.67"/>
</g>
<!-- Node9&#45;&gt;Node7 -->
<g id="edge10" class="edge">
<title>Node9&#45;&gt;Node7</title>
<path fill="none" stroke="midnightblue" d="M476,-56.08C476,-49.01 476,-38.86 476,-29.99"/>
<polygon fill="midnightblue" stroke="midnightblue" points="479.5,-29.75 476,-19.75 472.5,-29.75 479.5,-29.75"/>
</g>
<!-- Node11&#45;&gt;Node7 -->
<g id="edge13" class="edge">
<title>Node11&#45;&gt;Node7</title>
<path fill="none" stroke="midnightblue" d="M573.39,-112.43C585.07,-99.42 603.47,-74.27 591,-56 576.51,-34.77 550.38,-23.56 526.68,-17.63"/>
<polygon fill="midnightblue" stroke="midnightblue" points="527.23,-14.17 516.71,-15.4 525.71,-21 527.23,-14.17"/>
</g>
<!-- Node12 -->
<g id="node12" class="node">
<title>Node12</title>
<g id="a_node12"><a xlink:href="dvd_8h.html" target="_top" xlink:title=" ">
<polygon fill="white" stroke="black" points="522.5,-56.5 522.5,-75.5 581.5,-75.5 581.5,-56.5 522.5,-56.5"/>
<text text-anchor="middle" x="552" y="-63.5" font-family="Helvetica,sans-Serif" font-size="10.00">dvd/dvd.h</text>
</a>
</g>
</g>
<!-- Node11&#45;&gt;Node12 -->
<g id="edge14" class="edge">
<title>Node11&#45;&gt;Node12</title>
<path fill="none" stroke="midnightblue" d="M562.85,-112.08C561.13,-104.93 558.65,-94.64 556.5,-85.69"/>
<polygon fill="midnightblue" stroke="midnightblue" points="559.85,-84.65 554.11,-75.75 553.04,-86.29 559.85,-84.65"/>
</g>
<!-- Node12&#45;&gt;Node7 -->
<g id="edge15" class="edge">
<title>Node12&#45;&gt;Node7</title>
<path fill="none" stroke="midnightblue" d="M539.79,-56.32C528.22,-48.11 510.62,-35.6 496.84,-25.81"/>
<polygon fill="midnightblue" stroke="midnightblue" points="498.61,-22.77 488.43,-19.83 494.56,-28.48 498.61,-22.77"/>
</g>
<!-- Node13&#45;&gt;Node5 -->
<g id="edge17" class="edge">
<title>Node13&#45;&gt;Node5</title>
<path fill="none" stroke="midnightblue" d="M578.12,-280.44C533.02,-271 460.39,-255.8 411.7,-245.61"/>
<polygon fill="midnightblue" stroke="midnightblue" points="412.19,-242.14 401.69,-243.52 410.76,-248.99 412.19,-242.14"/>
</g>
<!-- Node14&#45;&gt;Node6 -->
<g id="edge28" class="edge">
<title>Node14&#45;&gt;Node6</title>
<path fill="none" stroke="midnightblue" d="M706.15,-453.85C720.61,-435.43 752,-390.46 752,-347 752,-347 752,-347 752,-289 752,-238.94 705.92,-243.95 660,-224 599.36,-197.66 522.36,-186.41 478.28,-181.85"/>
<polygon fill="midnightblue" stroke="midnightblue" points="478.37,-178.34 468.08,-180.86 477.69,-185.31 478.37,-178.34"/>
</g>
<!-- Node14&#45;&gt;Node13 -->
<g id="edge20" class="edge">
<title>Node14&#45;&gt;Node13</title>
<path fill="none" stroke="midnightblue" d="M700.58,-453.74C704.03,-432.01 710.15,-374.59 687,-336 678.6,-321.99 663.96,-311.47 650.41,-304.14"/>
<polygon fill="midnightblue" stroke="midnightblue" points="651.8,-300.92 641.29,-299.57 648.66,-307.18 651.8,-300.92"/>
</g>
<!-- Node15 -->
<g id="node15" class="node">
<title>Node15</title>
<g id="a_node15"><a xlink:href="c__tag_8h.html" target="_top" xlink:title=" ">
<polygon fill="white" stroke="black" points="388.5,-392.5 388.5,-411.5 495.5,-411.5 495.5,-392.5 388.5,-392.5"/>
<text text-anchor="middle" x="442" y="-399.5" font-family="Helvetica,sans-Serif" font-size="10.00">SComponent/c_tag.h</text>
</a>
</g>
</g>
<!-- Node14&#45;&gt;Node15 -->
<g id="edge21" class="edge">
<title>Node14&#45;&gt;Node15</title>
<path fill="none" stroke="midnightblue" d="M662.18,-453.98C616.47,-443.39 538.47,-425.34 488.63,-413.8"/>
<polygon fill="midnightblue" stroke="midnightblue" points="489.29,-410.35 478.75,-411.51 487.71,-417.17 489.29,-410.35"/>
</g>
<!-- Node15&#45;&gt;Node4 -->
<g id="edge22" class="edge">
<title>Node15&#45;&gt;Node4</title>
<path fill="none" stroke="midnightblue" d="M440.06,-392.46C437.12,-379.92 431.11,-355.84 424,-336 420.75,-326.95 416.5,-317.16 412.75,-309.03"/>
<polygon fill="midnightblue" stroke="midnightblue" points="415.82,-307.35 408.38,-299.81 409.5,-310.34 415.82,-307.35"/>
</g>
<!-- Node15&#45;&gt;Node5 -->
<g id="edge23" class="edge">
<title>Node15&#45;&gt;Node5</title>
<path fill="none" stroke="midnightblue" d="M436.38,-392.4C427.62,-379.35 409.75,-354.16 391,-336 371.59,-317.2 354.2,-324.11 342,-300 334.31,-284.81 341.4,-266 349.01,-252.53"/>
<polygon fill="midnightblue" stroke="midnightblue" points="352.14,-254.13 354.44,-243.79 346.19,-250.44 352.14,-254.13"/>
</g>
<!-- Node15&#45;&gt;Node6 -->
<g id="edge27" class="edge">
<title>Node15&#45;&gt;Node6</title>
<path fill="none" stroke="midnightblue" d="M444.86,-392.49C450.46,-375.27 462.74,-334.97 467,-300 471.5,-263.13 458.88,-220.68 450.28,-197.13"/>
<polygon fill="midnightblue" stroke="midnightblue" points="453.53,-195.82 446.69,-187.73 446.99,-198.32 453.53,-195.82"/>
</g>
<!-- Node16 -->
<g id="node16" class="node">
<title>Node16</title>
<g id="a_node16"><a xlink:href="c__tree_8h.html" target="_top" xlink:title=" ">
<polygon fill="white" stroke="black" points="272,-336.5 272,-355.5 382,-355.5 382,-336.5 272,-336.5"/>
<text text-anchor="middle" x="327" y="-343.5" font-family="Helvetica,sans-Serif" font-size="10.00">SComponent/c_tree.h</text>
</a>
</g>
</g>
<!-- Node15&#45;&gt;Node16 -->
<g id="edge24" class="edge">
<title>Node15&#45;&gt;Node16</title>
<path fill="none" stroke="midnightblue" d="M423.78,-392.44C405.1,-383.68 375.84,-369.94 354.38,-359.86"/>
<polygon fill="midnightblue" stroke="midnightblue" points="355.68,-356.6 345.14,-355.52 352.7,-362.93 355.68,-356.6"/>
</g>
<!-- Node16&#45;&gt;Node4 -->
<g id="edge25" class="edge">
<title>Node16&#45;&gt;Node4</title>
<path fill="none" stroke="midnightblue" d="M339.37,-336.32C351.16,-328.06 369.13,-315.45 383.14,-305.63"/>
<polygon fill="midnightblue" stroke="midnightblue" points="385.48,-308.26 391.66,-299.65 381.46,-302.53 385.48,-308.26"/>
</g>
<!-- Node16&#45;&gt;Node5 -->
<g id="edge26" class="edge">
<title>Node16&#45;&gt;Node5</title>
<path fill="none" stroke="midnightblue" d="M320.62,-336.29C312.12,-323.54 299.11,-299.21 308,-280 313.92,-267.21 325.47,-256.72 336.28,-249.1"/>
<polygon fill="midnightblue" stroke="midnightblue" points="338.21,-252.02 344.67,-243.61 334.38,-246.16 338.21,-252.02"/>
</g>
<!-- Node17&#45;&gt;Node6 -->
<g id="edge31" class="edge">
<title>Node17&#45;&gt;Node6</title>
<path fill="none" stroke="midnightblue" d="M524,-448.28C524,-426.48 524,-383.49 524,-347 524,-347 524,-347 524,-289 524,-248.45 487.86,-212.99 463.86,-193.91"/>
<polygon fill="midnightblue" stroke="midnightblue" points="465.73,-190.94 455.66,-187.65 461.48,-196.5 465.73,-190.94"/>
</g>
<!-- Node17&#45;&gt;Node15 -->
<g id="edge30" class="edge">
<title>Node17&#45;&gt;Node15</title>
<path fill="none" stroke="midnightblue" d="M504.57,-448.4C491.79,-439.13 475.11,-427.03 462.19,-417.65"/>
<polygon fill="midnightblue" stroke="midnightblue" points="464.08,-414.7 453.93,-411.66 459.97,-420.36 464.08,-414.7"/>
</g>
<!-- Node18&#45;&gt;Node6 -->
<g id="edge47" class="edge">
<title>Node18&#45;&gt;Node6</title>
<path fill="none" stroke="midnightblue" d="M266.28,-525.03C199.62,-518.01 82.88,-502.74 48,-479 14.97,-456.52 0,-442.95 0,-403 0,-403 0,-403 0,-289 0,-205.11 303.03,-184.74 407.84,-180.2"/>
<polygon fill="midnightblue" stroke="midnightblue" points="408.06,-183.7 417.91,-179.79 407.78,-176.7 408.06,-183.7"/>
</g>
<!-- Node18&#45;&gt;Node15 -->
<g id="edge35" class="edge">
<title>Node18&#45;&gt;Node15</title>
<path fill="none" stroke="midnightblue" d="M361.79,-519.8C385.52,-512.52 412.55,-500.05 429,-479 441.72,-462.72 443.83,-438.43 443.5,-421.72"/>
<polygon fill="midnightblue" stroke="midnightblue" points="446.98,-421.36 442.98,-411.55 439.99,-421.72 446.98,-421.36"/>
</g>
<!-- Node18&#45;&gt;Node17 -->
<g id="edge36" class="edge">
<title>Node18&#45;&gt;Node17</title>
<path fill="none" stroke="midnightblue" d="M359.31,-515.48C391.35,-505.56 434.5,-492.2 468.6,-481.65"/>
<polygon fill="midnightblue" stroke="midnightblue" points="469.89,-484.91 478.41,-478.61 467.82,-478.22 469.89,-484.91"/>
</g>
<!-- Node19 -->
<g id="node19" class="node">
<title>Node19</title>
<g id="a_node19"><a xlink:href="c__phase_8h.html" target="_top" xlink:title=" ">
<polygon fill="white" stroke="black" points="66,-454 66,-473 186,-473 186,-454 66,-454"/>
<text text-anchor="middle" x="126" y="-461" font-family="Helvetica,sans-Serif" font-size="10.00">SComponent/c_phase.h</text>
</a>
</g>
</g>
<!-- Node18&#45;&gt;Node19 -->
<g id="edge34" class="edge">
<title>Node18&#45;&gt;Node19</title>
<path fill="none" stroke="midnightblue" d="M273.21,-515.4C239.49,-503.74 192.16,-487.37 160.35,-476.38"/>
<polygon fill="midnightblue" stroke="midnightblue" points="161.2,-472.97 150.6,-473.01 158.91,-479.58 161.2,-472.97"/>
</g>
<!-- Node20 -->
<g id="node20" class="node">
<title>Node20</title>
<g id="a_node20"><a xlink:href="f__pc__layer_8h.html" target="_top" xlink:title=" ">
<polygon fill="white" stroke="black" points="324,-454 324,-473 420,-473 420,-454 324,-454"/>
<text text-anchor="middle" x="372" y="-461" font-family="Helvetica,sans-Serif" font-size="10.00">f/f_pc/f_pc_layer.h</text>
</a>
</g>
</g>
<!-- Node18&#45;&gt;Node20 -->
<g id="edge37" class="edge">
<title>Node18&#45;&gt;Node20</title>
<path fill="none" stroke="midnightblue" d="M326.59,-515.4C335.63,-505.26 347.85,-491.57 357.33,-480.94"/>
<polygon fill="midnightblue" stroke="midnightblue" points="360.2,-482.99 364.24,-473.19 354.97,-478.33 360.2,-482.99"/>
</g>
<!-- Node21 -->
<g id="node21" class="node">
<title>Node21</title>
<g id="a_node21"><a xlink:href="f__pc__method_8h.html" target="_top" xlink:title=" ">
<polygon fill="white" stroke="black" points="30,-392.5 30,-411.5 138,-411.5 138,-392.5 30,-392.5"/>
<text text-anchor="middle" x="84" y="-399.5" font-family="Helvetica,sans-Serif" font-size="10.00">f/f_pc/f_pc_method.h</text>
</a>
</g>
</g>
<!-- Node18&#45;&gt;Node21 -->
<g id="edge42" class="edge">
<title>Node18&#45;&gt;Node21</title>
<path fill="none" stroke="midnightblue" d="M266.37,-527.15C199.49,-522.73 83,-510.6 57,-479 42.76,-461.69 56.89,-436.31 69.47,-419.72"/>
<polygon fill="midnightblue" stroke="midnightblue" points="72.2,-421.91 75.76,-411.94 66.75,-417.52 72.2,-421.91"/>
</g>
<!-- Node22 -->
<g id="node22" class="node">
<title>Node22</title>
<g id="a_node22"><a xlink:href="f__pc__method__tag_8h.html" target="_top" xlink:title=" ">
<polygon fill="white" stroke="black" points="204.5,-448.5 204.5,-478.5 305.5,-478.5 305.5,-448.5 204.5,-448.5"/>
<text text-anchor="start" x="212.5" y="-466.5" font-family="Helvetica,sans-Serif" font-size="10.00">f/f_pc/f_pc_method</text>
<text text-anchor="middle" x="255" y="-455.5" font-family="Helvetica,sans-Serif" font-size="10.00">_tag.h</text>
</a>
</g>
</g>
<!-- Node18&#45;&gt;Node22 -->
<g id="edge44" class="edge">
<title>Node18&#45;&gt;Node22</title>
<path fill="none" stroke="midnightblue" d="M301.2,-515.4C293.47,-506.88 283.45,-495.85 274.73,-486.23"/>
<polygon fill="midnightblue" stroke="midnightblue" points="277.09,-483.63 267.78,-478.58 271.91,-488.33 277.09,-483.63"/>
</g>
<!-- Node20&#45;&gt;Node5 -->
<g id="edge38" class="edge">
<title>Node20&#45;&gt;Node5</title>
<path fill="none" stroke="midnightblue" d="M357.5,-453.9C332.57,-438.17 282.4,-402.09 263,-356 244.13,-311.17 300.19,-269.59 335.18,-248.83"/>
<polygon fill="midnightblue" stroke="midnightblue" points="337.05,-251.79 343.99,-243.78 333.57,-245.72 337.05,-251.79"/>
</g>
<!-- Node20&#45;&gt;Node6 -->
<g id="edge41" class="edge">
<title>Node20&#45;&gt;Node6</title>
<path fill="none" stroke="midnightblue" d="M352.96,-453.98C309.35,-433.87 206,-382.46 206,-347 206,-347 206,-347 206,-289 206,-201.34 341.04,-183.34 407.25,-179.79"/>
<polygon fill="midnightblue" stroke="midnightblue" points="407.81,-183.27 417.64,-179.32 407.49,-176.27 407.81,-183.27"/>
</g>
<!-- Node20&#45;&gt;Node15 -->
<g id="edge39" class="edge">
<title>Node20&#45;&gt;Node15</title>
<path fill="none" stroke="midnightblue" d="M382.03,-453.98C393.05,-444.61 410.96,-429.38 424.34,-418.01"/>
<polygon fill="midnightblue" stroke="midnightblue" points="426.64,-420.65 431.99,-411.51 422.1,-415.32 426.64,-420.65"/>
</g>
<!-- Node20&#45;&gt;Node16 -->
<g id="edge40" class="edge">
<title>Node20&#45;&gt;Node16</title>
<path fill="none" stroke="midnightblue" d="M368.62,-453.82C361.32,-435.09 343.97,-390.55 334.13,-365.29"/>
<polygon fill="midnightblue" stroke="midnightblue" points="337.31,-363.83 330.42,-355.78 330.79,-366.37 337.31,-363.83"/>
</g>
<!-- Node21&#45;&gt;Node6 -->
<g id="edge43" class="edge">
<title>Node21&#45;&gt;Node6</title>
<path fill="none" stroke="midnightblue" d="M84.54,-392.25C86.85,-363.05 98.5,-268.36 154,-224 192.5,-193.23 338.78,-183.25 407.25,-180.22"/>
<polygon fill="midnightblue" stroke="midnightblue" points="407.7,-183.71 417.54,-179.79 407.41,-176.71 407.7,-183.71"/>
</g>
<!-- Node22&#45;&gt;Node6 -->
<g id="edge46" class="edge">
<title>Node22&#45;&gt;Node6</title>
<path fill="none" stroke="midnightblue" d="M234.38,-448.32C208.66,-428.77 168,-390.93 168,-347 168,-347 168,-347 168,-289 168,-252.28 187.73,-243.25 219,-224 278.07,-187.63 360.97,-179.95 407.57,-178.74"/>
<polygon fill="midnightblue" stroke="midnightblue" points="407.83,-182.23 417.77,-178.56 407.71,-175.23 407.83,-182.23"/>
</g>
<!-- Node22&#45;&gt;Node15 -->
<g id="edge45" class="edge">
<title>Node22&#45;&gt;Node15</title>
<path fill="none" stroke="midnightblue" d="M299.32,-448.4C331.63,-438.12 374.9,-424.35 405.29,-414.68"/>
<polygon fill="midnightblue" stroke="midnightblue" points="406.59,-417.94 415.06,-411.57 404.47,-411.27 406.59,-417.94"/>
</g>
</g>
</svg>
        <g id="navigator" transform="translate(0 0)" fill="#404254">
                <rect fill="#f2f5e9" fill-opacity="0.5" stroke="#606060" stroke-width=".5" x="0" y="0" width="60" height="60"/>
                <use id="zoomplus" xlink:href="#zoomPlus" x="17" y="9" onmousedown="handleZoom(evt,'in')"/>
                <use id="zoomminus" xlink:href="#zoomMin" x="42" y="9" onmousedown="handleZoom(evt,'out')"/>
                <use id="reset" xlink:href="#resetDef" x="30" y="36" onmousedown="handleReset()"/>
                <g id="arrowUp" xlink:href="#dirArrow" transform="translate(30 24)" onmousedown="handlePan(0,-1)">
                  <use xlink:href="#rim" fill="#404040">
                        <set attributeName="fill" to="#808080" begin="arrowUp.mouseover" end="arrowUp.mouseout"/>
                  </use>
                  <path fill="none" stroke="white" stroke-width="1.5" d="M0,-3.0v7 M-2.5,-0.5L0,-3.0L2.5,-0.5"/>
                </g>
                <g id="arrowRight" xlink:href="#dirArrow" transform="rotate(90) translate(36 -43)" onmousedown="handlePan(1,0)">
                  <use xlink:href="#rim" fill="#404040">
                        <set attributeName="fill" to="#808080" begin="arrowRight.mouseover" end="arrowRight.mouseout"/>
                  </use>
                  <path fill="none" stroke="white" stroke-width="1.5" d="M0,-3.0v7 M-2.5,-0.5L0,-3.0L2.5,-0.5"/>
                </g>
                <g id="arrowDown" xlink:href="#dirArrow" transform="rotate(180) translate(-30 -48)" onmousedown="handlePan(0,1)">
                  <use xlink:href="#rim" fill="#404040">
                        <set attributeName="fill" to="#808080" begin="arrowDown.mouseover" end="arrowDown.mouseout"/>
                  </use>
                  <path fill="none" stroke="white" stroke-width="1.5" d="M0,-3.0v7 M-2.5,-0.5L0,-3.0L2.5,-0.5"/>
                </g>
                <g id="arrowLeft" xlink:href="#dirArrow" transform="rotate(270) translate(-36 17)" onmousedown="handlePan(-1,0)">
                  <use xlink:href="#rim" fill="#404040">
                        <set attributeName="fill" to="#808080" begin="arrowLeft.mouseover" end="arrowLeft.mouseout"/>
                  </use>
                  <path fill="none" stroke="white" stroke-width="1.5" d="M0,-3.0v7 M-2.5,-0.5L0,-3.0L2.5,-0.5"/>
                </g>
        </g>
        <svg viewBox="0 0 15 15" width="100%" height="30px" preserveAspectRatio="xMaxYMin meet">
         <g id="arrow_out" transform="scale(0.3 0.3)">
          <a xlink:href="f__pc__create__iter_8cpp__incl_org.svg" target="_base">
           <rect id="button" ry="5" rx="5" y="6" x="6" height="38" width="38"
                fill="#f2f5e9" fill-opacity="0.5" stroke="#606060" stroke-width="1.0"/>
           <path id="arrow"
             d="M 11.500037,31.436501 C 11.940474,20.09759 22.043105,11.32322 32.158766,21.979434 L 37.068811,17.246167 C 37.068811,17.246167 37.088388,32 37.088388,32 L 22.160133,31.978069 C 22.160133,31.978069 26.997745,27.140456 26.997745,27.140456 C 18.528582,18.264221 13.291696,25.230495 11.500037,31.436501 z"
             style="fill:#404040;"/>
          </a>
         </g>
        </svg>
</svg>
