<?xml version="1.0" encoding="UTF-8" standalone="no"?>
<!DOCTYPE svg PUBLIC "-//W3C//DTD SVG 1.1//EN"
 "http://www.w3.org/Graphics/SVG/1.1/DTD/svg11.dtd">
<!-- Generated by graphviz version 2.44.0 ()
 -->
<!-- Title: src/f/f_pc/f_pc_line_iter.cpp Pages: 1 -->
<svg width="976pt" height="677pt"
 viewBox="0.00 0.00 976.00 677.00" xmlns="http://www.w3.org/2000/svg" xmlns:xlink="http://www.w3.org/1999/xlink">
<g id="graph0" class="graph" transform="scale(1 1) rotate(0) translate(4 673)">
<title>src/f/f_pc/f_pc_line_iter.cpp</title>
<polygon fill="white" stroke="transparent" points="-4,4 -4,-673 972,-673 972,4 -4,4"/>
<!-- Node1 -->
<g id="node1" class="node">
<title>Node1</title>
<g id="a_node1"><a xlink:title=" ">
<polygon fill="#bfbfbf" stroke="black" points="671,-638.5 671,-668.5 771,-668.5 771,-638.5 671,-638.5"/>
<text text-anchor="start" x="679" y="-656.5" font-family="Helvetica,sans-Serif" font-size="10.00">src/f/f_pc/f_pc_line</text>
<text text-anchor="middle" x="721" y="-645.5" font-family="Helvetica,sans-Serif" font-size="10.00">_iter.cpp</text>
</a>
</g>
</g>
<!-- Node2 -->
<g id="node2" class="node">
<title>Node2</title>
<g id="a_node2"><a xlink:href="f__pc__line__iter_8h.html" target="_top" xlink:title=" ">
<polygon fill="white" stroke="black" points="754,-582.5 754,-601.5 864,-601.5 864,-582.5 754,-582.5"/>
<text text-anchor="middle" x="809" y="-589.5" font-family="Helvetica,sans-Serif" font-size="10.00">f/f_pc/f_pc_line_iter.h</text>
</a>
</g>
</g>
<!-- Node1&#45;&gt;Node2 -->
<g id="edge1" class="edge">
<title>Node1&#45;&gt;Node2</title>
<path fill="none" stroke="midnightblue" d="M741.85,-638.4C755.7,-629.04 773.81,-616.79 787.74,-607.38"/>
<polygon fill="midnightblue" stroke="midnightblue" points="789.87,-610.16 796.2,-601.66 785.95,-604.36 789.87,-610.16"/>
</g>
<!-- Node12 -->
<g id="node12" class="node">
<title>Node12</title>
<g id="a_node12"><a xlink:href="c__tag__iter_8h.html" target="_top" xlink:title=" ">
<polygon fill="white" stroke="black" points="842,-454 842,-473 968,-473 968,-454 842,-454"/>
<text text-anchor="middle" x="905" y="-461" font-family="Helvetica,sans-Serif" font-size="10.00">SComponent/c_tag_iter.h</text>
</a>
</g>
</g>
<!-- Node1&#45;&gt;Node12 -->
<g id="edge15" class="edge">
<title>Node1&#45;&gt;Node12</title>
<path fill="none" stroke="midnightblue" d="M771.27,-648.34C804.69,-642.9 847.05,-630.46 873,-602 903.32,-568.74 906.61,-512.45 906.04,-483.28"/>
<polygon fill="midnightblue" stroke="midnightblue" points="909.54,-483.08 905.67,-473.22 902.54,-483.34 909.54,-483.08"/>
</g>
<!-- Node16 -->
<g id="node16" class="node">
<title>Node16</title>
<g id="a_node16"><a xlink:href="c__tree__iter_8h.html" target="_top" xlink:title=" ">
<polygon fill="white" stroke="black" points="656.5,-454 656.5,-473 785.5,-473 785.5,-454 656.5,-454"/>
<text text-anchor="middle" x="721" y="-461" font-family="Helvetica,sans-Serif" font-size="10.00">SComponent/c_tree_iter.h</text>
</a>
</g>
</g>
<!-- Node1&#45;&gt;Node16 -->
<g id="edge26" class="edge">
<title>Node1&#45;&gt;Node16</title>
<path fill="none" stroke="midnightblue" d="M721,-638.37C721,-604.94 721,-520.97 721,-483.3"/>
<polygon fill="midnightblue" stroke="midnightblue" points="724.5,-483.21 721,-473.21 717.5,-483.21 724.5,-483.21"/>
</g>
<!-- Node17 -->
<g id="node17" class="node">
<title>Node17</title>
<g id="a_node17"><a xlink:href="f__pc__base_8h.html" target="_top" xlink:title=" ">
<polygon fill="white" stroke="black" points="268.5,-582.5 268.5,-601.5 365.5,-601.5 365.5,-582.5 268.5,-582.5"/>
<text text-anchor="middle" x="317" y="-589.5" font-family="Helvetica,sans-Serif" font-size="10.00">f/f_pc/f_pc_base.h</text>
</a>
</g>
</g>
<!-- Node1&#45;&gt;Node17 -->
<g id="edge30" class="edge">
<title>Node1&#45;&gt;Node17</title>
<path fill="none" stroke="midnightblue" d="M670.65,-645.08C595.85,-634.07 455.67,-613.42 376.11,-601.71"/>
<polygon fill="midnightblue" stroke="midnightblue" points="376.18,-598.18 365.77,-600.18 375.16,-605.1 376.18,-598.18"/>
</g>
<!-- Node19 -->
<g id="node19" class="node">
<title>Node19</title>
<g id="a_node19"><a xlink:href="f__pc__layer_8h.html" target="_top" xlink:title=" ">
<polygon fill="white" stroke="black" points="504,-454 504,-473 600,-473 600,-454 504,-454"/>
<text text-anchor="middle" x="552" y="-461" font-family="Helvetica,sans-Serif" font-size="10.00">f/f_pc/f_pc_layer.h</text>
</a>
</g>
</g>
<!-- Node1&#45;&gt;Node19 -->
<g id="edge57" class="edge">
<title>Node1&#45;&gt;Node19</title>
<path fill="none" stroke="midnightblue" d="M712.77,-638.1C697.27,-611.72 661.71,-554.75 622,-515 608.01,-501 589.83,-488 575.5,-478.7"/>
<polygon fill="midnightblue" stroke="midnightblue" points="577.04,-475.54 566.72,-473.15 573.3,-481.45 577.04,-475.54"/>
</g>
<!-- Node3 -->
<g id="node3" class="node">
<title>Node3</title>
<g id="a_node3"><a xlink:href="c__node__iter_8h.html" target="_top" xlink:title=" ">
<polygon fill="white" stroke="black" points="743,-392.5 743,-411.5 877,-411.5 877,-392.5 743,-392.5"/>
<text text-anchor="middle" x="810" y="-399.5" font-family="Helvetica,sans-Serif" font-size="10.00">SComponent/c_node_iter.h</text>
</a>
</g>
</g>
<!-- Node2&#45;&gt;Node3 -->
<g id="edge2" class="edge">
<title>Node2&#45;&gt;Node3</title>
<path fill="none" stroke="midnightblue" d="M809.05,-582.43C809.2,-553.93 809.69,-461.82 809.9,-421.83"/>
<polygon fill="midnightblue" stroke="midnightblue" points="813.4,-421.64 809.95,-411.62 806.4,-421.6 813.4,-421.64"/>
</g>
<!-- Node4 -->
<g id="node4" class="node">
<title>Node4</title>
<g id="a_node4"><a xlink:href="c__node_8h.html" target="_top" xlink:title=" ">
<polygon fill="white" stroke="black" points="424.5,-224.5 424.5,-243.5 539.5,-243.5 539.5,-224.5 424.5,-224.5"/>
<text text-anchor="middle" x="482" y="-231.5" font-family="Helvetica,sans-Serif" font-size="10.00">SComponent/c_node.h</text>
</a>
</g>
</g>
<!-- Node3&#45;&gt;Node4 -->
<g id="edge3" class="edge">
<title>Node3&#45;&gt;Node4</title>
<path fill="none" stroke="midnightblue" d="M794,-392.43C756.38,-372.35 659.27,-320.83 577,-280 554.59,-268.88 528.93,-256.76 509.94,-247.91"/>
<polygon fill="midnightblue" stroke="midnightblue" points="511.21,-244.64 500.66,-243.6 508.26,-250.98 511.21,-244.64"/>
</g>
<!-- Node5 -->
<g id="node5" class="node">
<title>Node5</title>
<g id="a_node5"><a xlink:href="global_8h.html" target="_top" xlink:title=" ">
<polygon fill="white" stroke="black" points="277,-168.5 277,-187.5 327,-187.5 327,-168.5 277,-168.5"/>
<text text-anchor="middle" x="302" y="-175.5" font-family="Helvetica,sans-Serif" font-size="10.00">global.h</text>
</a>
</g>
</g>
<!-- Node4&#45;&gt;Node5 -->
<g id="edge4" class="edge">
<title>Node4&#45;&gt;Node5</title>
<path fill="none" stroke="midnightblue" d="M453.48,-224.44C421.95,-214.98 371.13,-199.74 337.15,-189.55"/>
<polygon fill="midnightblue" stroke="midnightblue" points="337.78,-186.08 327.19,-186.56 335.77,-192.78 337.78,-186.08"/>
</g>
<!-- Node6 -->
<g id="node6" class="node">
<title>Node6</title>
<g id="a_node6"><a xlink:href="types_8h.html" target="_top" xlink:title=" ">
<polygon fill="white" stroke="black" points="261.5,-0.5 261.5,-19.5 342.5,-19.5 342.5,-0.5 261.5,-0.5"/>
<text text-anchor="middle" x="302" y="-7.5" font-family="Helvetica,sans-Serif" font-size="10.00">dolphin/types.h</text>
</a>
</g>
</g>
<!-- Node5&#45;&gt;Node6 -->
<g id="edge5" class="edge">
<title>Node5&#45;&gt;Node6</title>
<path fill="none" stroke="midnightblue" d="M283.89,-168.4C246.48,-149.45 166.61,-102.09 197,-56 209.3,-37.35 231.11,-26.4 251.68,-19.98"/>
<polygon fill="midnightblue" stroke="midnightblue" points="252.64,-23.35 261.31,-17.26 250.74,-16.61 252.64,-23.35"/>
</g>
<!-- Node7 -->
<g id="node7" class="node">
<title>Node7</title>
<g id="a_node7"><a xlink:href="AR_8h.html" target="_top" xlink:title=" ">
<polygon fill="white" stroke="black" points="206.5,-56.5 206.5,-75.5 255.5,-75.5 255.5,-56.5 206.5,-56.5"/>
<text text-anchor="middle" x="231" y="-63.5" font-family="Helvetica,sans-Serif" font-size="10.00">ar/AR.h</text>
</a>
</g>
</g>
<!-- Node5&#45;&gt;Node7 -->
<g id="edge6" class="edge">
<title>Node5&#45;&gt;Node7</title>
<path fill="none" stroke="midnightblue" d="M296.43,-168.37C284.76,-150.3 257.58,-108.18 242.17,-84.31"/>
<polygon fill="midnightblue" stroke="midnightblue" points="244.91,-82.1 236.55,-75.59 239.03,-85.89 244.91,-82.1"/>
</g>
<!-- Node8 -->
<g id="node8" class="node">
<title>Node8</title>
<g id="a_node8"><a xlink:href="ARQ_8h.html" target="_top" xlink:title=" ">
<polygon fill="white" stroke="black" points="274,-56.5 274,-75.5 330,-75.5 330,-56.5 274,-56.5"/>
<text text-anchor="middle" x="302" y="-63.5" font-family="Helvetica,sans-Serif" font-size="10.00">ar/ARQ.h</text>
</a>
</g>
</g>
<!-- Node5&#45;&gt;Node8 -->
<g id="edge8" class="edge">
<title>Node5&#45;&gt;Node8</title>
<path fill="none" stroke="midnightblue" d="M302,-168.37C302,-150.62 302,-109.67 302,-85.6"/>
<polygon fill="midnightblue" stroke="midnightblue" points="305.5,-85.59 302,-75.59 298.5,-85.59 305.5,-85.59"/>
</g>
<!-- Node9 -->
<g id="node9" class="node">
<title>Node9</title>
<g id="a_node9"><a xlink:href="mwcc_8h.html" target="_top" xlink:title=" ">
<polygon fill="white" stroke="black" points="411,-112.5 411,-131.5 461,-131.5 461,-112.5 411,-112.5"/>
<text text-anchor="middle" x="436" y="-119.5" font-family="Helvetica,sans-Serif" font-size="10.00">mwcc.h</text>
</a>
</g>
</g>
<!-- Node5&#45;&gt;Node9 -->
<g id="edge10" class="edge">
<title>Node5&#45;&gt;Node9</title>
<path fill="none" stroke="midnightblue" d="M323.23,-168.44C345.38,-159.52 380.32,-145.44 405.44,-135.32"/>
<polygon fill="midnightblue" stroke="midnightblue" points="406.9,-138.5 414.87,-131.52 404.28,-132.01 406.9,-138.5"/>
</g>
<!-- Node10 -->
<g id="node10" class="node">
<title>Node10</title>
<g id="a_node10"><a xlink:href="OS_8h.html" target="_top" xlink:title=" ">
<polygon fill="white" stroke="black" points="341,-112.5 341,-131.5 393,-131.5 393,-112.5 341,-112.5"/>
<text text-anchor="middle" x="367" y="-119.5" font-family="Helvetica,sans-Serif" font-size="10.00">os/OS.h</text>
</a>
</g>
</g>
<!-- Node5&#45;&gt;Node10 -->
<g id="edge11" class="edge">
<title>Node5&#45;&gt;Node10</title>
<path fill="none" stroke="midnightblue" d="M312.44,-168.32C322.15,-160.26 336.82,-148.08 348.5,-138.37"/>
<polygon fill="midnightblue" stroke="midnightblue" points="350.91,-140.92 356.37,-131.83 346.44,-135.53 350.91,-140.92"/>
</g>
<!-- Node7&#45;&gt;Node6 -->
<g id="edge7" class="edge">
<title>Node7&#45;&gt;Node6</title>
<path fill="none" stroke="midnightblue" d="M242.41,-56.32C253.11,-48.18 269.34,-35.84 282.16,-26.09"/>
<polygon fill="midnightblue" stroke="midnightblue" points="284.54,-28.67 290.39,-19.83 280.31,-23.1 284.54,-28.67"/>
</g>
<!-- Node8&#45;&gt;Node6 -->
<g id="edge9" class="edge">
<title>Node8&#45;&gt;Node6</title>
<path fill="none" stroke="midnightblue" d="M302,-56.08C302,-49.01 302,-38.86 302,-29.99"/>
<polygon fill="midnightblue" stroke="midnightblue" points="305.5,-29.75 302,-19.75 298.5,-29.75 305.5,-29.75"/>
</g>
<!-- Node10&#45;&gt;Node6 -->
<g id="edge12" class="edge">
<title>Node10&#45;&gt;Node6</title>
<path fill="none" stroke="midnightblue" d="M381.82,-112.37C400.93,-100.1 430.15,-76.8 416,-56 401.7,-34.99 375.93,-23.79 352.51,-17.82"/>
<polygon fill="midnightblue" stroke="midnightblue" points="353.18,-14.38 342.65,-15.56 351.62,-21.2 353.18,-14.38"/>
</g>
<!-- Node11 -->
<g id="node11" class="node">
<title>Node11</title>
<g id="a_node11"><a xlink:href="dvd_8h.html" target="_top" xlink:title=" ">
<polygon fill="white" stroke="black" points="348.5,-56.5 348.5,-75.5 407.5,-75.5 407.5,-56.5 348.5,-56.5"/>
<text text-anchor="middle" x="378" y="-63.5" font-family="Helvetica,sans-Serif" font-size="10.00">dvd/dvd.h</text>
</a>
</g>
</g>
<!-- Node10&#45;&gt;Node11 -->
<g id="edge13" class="edge">
<title>Node10&#45;&gt;Node11</title>
<path fill="none" stroke="midnightblue" d="M368.82,-112.08C370.27,-104.93 372.37,-94.64 374.19,-85.69"/>
<polygon fill="midnightblue" stroke="midnightblue" points="377.65,-86.25 376.22,-75.75 370.79,-84.85 377.65,-86.25"/>
</g>
<!-- Node11&#45;&gt;Node6 -->
<g id="edge14" class="edge">
<title>Node11&#45;&gt;Node6</title>
<path fill="none" stroke="midnightblue" d="M365.79,-56.32C354.22,-48.11 336.62,-35.6 322.84,-25.81"/>
<polygon fill="midnightblue" stroke="midnightblue" points="324.61,-22.77 314.43,-19.83 320.56,-28.48 324.61,-22.77"/>
</g>
<!-- Node12&#45;&gt;Node3 -->
<g id="edge16" class="edge">
<title>Node12&#45;&gt;Node3</title>
<path fill="none" stroke="midnightblue" d="M891.39,-453.98C875.94,-444.3 850.51,-428.37 832.18,-416.89"/>
<polygon fill="midnightblue" stroke="midnightblue" points="833.92,-413.85 823.59,-411.51 830.2,-419.78 833.92,-413.85"/>
</g>
<!-- Node12&#45;&gt;Node5 -->
<g id="edge25" class="edge">
<title>Node12&#45;&gt;Node5</title>
<path fill="none" stroke="midnightblue" d="M905,-453.81C905,-434.56 905,-386.9 905,-347 905,-347 905,-347 905,-289 905,-199.33 801.54,-243.43 714,-224 577.03,-193.6 409.69,-183.4 337.71,-180.27"/>
<polygon fill="midnightblue" stroke="midnightblue" points="337.53,-176.76 327.39,-179.84 337.24,-183.75 337.53,-176.76"/>
</g>
<!-- Node13 -->
<g id="node13" class="node">
<title>Node13</title>
<g id="a_node13"><a xlink:href="c__tag_8h.html" target="_top" xlink:title=" ">
<polygon fill="white" stroke="black" points="335.5,-392.5 335.5,-411.5 442.5,-411.5 442.5,-392.5 335.5,-392.5"/>
<text text-anchor="middle" x="389" y="-399.5" font-family="Helvetica,sans-Serif" font-size="10.00">SComponent/c_tag.h</text>
</a>
</g>
</g>
<!-- Node12&#45;&gt;Node13 -->
<g id="edge17" class="edge">
<title>Node12&#45;&gt;Node13</title>
<path fill="none" stroke="midnightblue" d="M841.92,-454.05C826.27,-452.01 809.53,-449.88 794,-448 673.68,-433.46 533.04,-418.23 453.14,-409.74"/>
<polygon fill="midnightblue" stroke="midnightblue" points="453.07,-406.21 442.76,-408.64 452.33,-413.18 453.07,-406.21"/>
</g>
<!-- Node13&#45;&gt;Node4 -->
<g id="edge20" class="edge">
<title>Node13&#45;&gt;Node4</title>
<path fill="none" stroke="midnightblue" d="M384.76,-392.19C375.18,-370.9 354.49,-315.79 378,-280 388.57,-263.91 406.26,-253.54 424.08,-246.88"/>
<polygon fill="midnightblue" stroke="midnightblue" points="425.6,-250.06 433.95,-243.54 423.36,-243.43 425.6,-250.06"/>
</g>
<!-- Node13&#45;&gt;Node5 -->
<g id="edge24" class="edge">
<title>Node13&#45;&gt;Node5</title>
<path fill="none" stroke="midnightblue" d="M383.82,-392.23C378.67,-383.3 370.72,-368.96 365,-356 340.12,-299.68 317.68,-230.19 307.61,-197.57"/>
<polygon fill="midnightblue" stroke="midnightblue" points="310.85,-196.19 304.58,-187.65 304.15,-198.24 310.85,-196.19"/>
</g>
<!-- Node14 -->
<g id="node14" class="node">
<title>Node14</title>
<g id="a_node14"><a xlink:href="c__list_8h.html" target="_top" xlink:title=" ">
<polygon fill="white" stroke="black" points="387.5,-280.5 387.5,-299.5 494.5,-299.5 494.5,-280.5 387.5,-280.5"/>
<text text-anchor="middle" x="441" y="-287.5" font-family="Helvetica,sans-Serif" font-size="10.00">SComponent/c_list.h</text>
</a>
</g>
</g>
<!-- Node13&#45;&gt;Node14 -->
<g id="edge18" class="edge">
<title>Node13&#45;&gt;Node14</title>
<path fill="none" stroke="midnightblue" d="M392.19,-392.45C396.97,-379.89 406.42,-355.8 416,-336 420.47,-326.75 425.97,-316.73 430.67,-308.5"/>
<polygon fill="midnightblue" stroke="midnightblue" points="433.72,-310.21 435.72,-299.81 427.67,-306.7 433.72,-310.21"/>
</g>
<!-- Node15 -->
<g id="node15" class="node">
<title>Node15</title>
<g id="a_node15"><a xlink:href="c__tree_8h.html" target="_top" xlink:title=" ">
<polygon fill="white" stroke="black" points="425,-336.5 425,-355.5 535,-355.5 535,-336.5 425,-336.5"/>
<text text-anchor="middle" x="480" y="-343.5" font-family="Helvetica,sans-Serif" font-size="10.00">SComponent/c_tree.h</text>
</a>
</g>
</g>
<!-- Node13&#45;&gt;Node15 -->
<g id="edge21" class="edge">
<title>Node13&#45;&gt;Node15</title>
<path fill="none" stroke="midnightblue" d="M403.62,-392.32C417.95,-383.82 440.01,-370.73 456.75,-360.8"/>
<polygon fill="midnightblue" stroke="midnightblue" points="458.6,-363.77 465.42,-355.65 455.03,-357.75 458.6,-363.77"/>
</g>
<!-- Node14&#45;&gt;Node4 -->
<g id="edge19" class="edge">
<title>Node14&#45;&gt;Node4</title>
<path fill="none" stroke="midnightblue" d="M447.77,-280.08C453.56,-272.46 462.06,-261.26 469.14,-251.94"/>
<polygon fill="midnightblue" stroke="midnightblue" points="472.1,-253.83 475.36,-243.75 466.52,-249.6 472.1,-253.83"/>
</g>
<!-- Node15&#45;&gt;Node4 -->
<g id="edge23" class="edge">
<title>Node15&#45;&gt;Node4</title>
<path fill="none" stroke="midnightblue" d="M486.1,-336.19C491.75,-327.46 499.76,-313.48 503,-300 506.94,-283.65 500.06,-265.46 493.15,-252.49"/>
<polygon fill="midnightblue" stroke="midnightblue" points="496.09,-250.59 488.04,-243.71 490.05,-254.11 496.09,-250.59"/>
</g>
<!-- Node15&#45;&gt;Node14 -->
<g id="edge22" class="edge">
<title>Node15&#45;&gt;Node14</title>
<path fill="none" stroke="midnightblue" d="M473.56,-336.08C468.05,-328.46 459.97,-317.26 453.24,-307.94"/>
<polygon fill="midnightblue" stroke="midnightblue" points="456.01,-305.81 447.32,-299.75 450.34,-309.91 456.01,-305.81"/>
</g>
<!-- Node16&#45;&gt;Node3 -->
<g id="edge27" class="edge">
<title>Node16&#45;&gt;Node3</title>
<path fill="none" stroke="midnightblue" d="M733.75,-453.98C748.03,-444.43 771.4,-428.81 788.51,-417.37"/>
<polygon fill="midnightblue" stroke="midnightblue" points="790.9,-419.98 797.27,-411.51 787.01,-414.16 790.9,-419.98"/>
</g>
<!-- Node16&#45;&gt;Node5 -->
<g id="edge29" class="edge">
<title>Node16&#45;&gt;Node5</title>
<path fill="none" stroke="midnightblue" d="M720.24,-453.81C718.63,-434.59 715,-386.96 715,-347 715,-347 715,-347 715,-289 715,-258.2 715.21,-243.03 691,-224 636.6,-181.24 422.79,-178.03 337.45,-178.51"/>
<polygon fill="midnightblue" stroke="midnightblue" points="337.2,-175.01 327.23,-178.59 337.26,-182.01 337.2,-175.01"/>
</g>
<!-- Node16&#45;&gt;Node15 -->
<g id="edge28" class="edge">
<title>Node16&#45;&gt;Node15</title>
<path fill="none" stroke="midnightblue" d="M702.89,-453.82C660.91,-433.7 556.8,-383.81 507.16,-360.02"/>
<polygon fill="midnightblue" stroke="midnightblue" points="508.53,-356.79 498,-355.62 505.5,-363.1 508.53,-356.79"/>
</g>
<!-- Node17&#45;&gt;Node5 -->
<g id="edge32" class="edge">
<title>Node17&#45;&gt;Node5</title>
<path fill="none" stroke="midnightblue" d="M268.25,-587.28C202.2,-581.47 88.54,-568.51 54,-546 17.6,-522.28 0,-507.95 0,-464.5 0,-464.5 0,-464.5 0,-289 0,-258.2 0.23,-243.57 24,-224 60.46,-193.99 200.18,-183.65 266.57,-180.38"/>
<polygon fill="midnightblue" stroke="midnightblue" points="266.74,-183.87 276.57,-179.91 266.41,-176.88 266.74,-183.87"/>
</g>
<!-- Node17&#45;&gt;Node13 -->
<g id="edge31" class="edge">
<title>Node17&#45;&gt;Node13</title>
<path fill="none" stroke="midnightblue" d="M321.27,-582.48C325.69,-573.51 332.7,-558.92 338,-546 356.04,-502.07 373.95,-449.14 382.98,-421.64"/>
<polygon fill="midnightblue" stroke="midnightblue" points="386.41,-422.41 386.18,-411.81 379.75,-420.24 386.41,-422.41"/>
</g>
<!-- Node18 -->
<g id="node18" class="node">
<title>Node18</title>
<g id="a_node18"><a xlink:href="f__pc__delete__tag_8h.html" target="_top" xlink:title=" ">
<polygon fill="white" stroke="black" points="518.5,-515.5 518.5,-545.5 613.5,-545.5 613.5,-515.5 518.5,-515.5"/>
<text text-anchor="start" x="526.5" y="-533.5" font-family="Helvetica,sans-Serif" font-size="10.00">f/f_pc/f_pc_delete</text>
<text text-anchor="middle" x="566" y="-522.5" font-family="Helvetica,sans-Serif" font-size="10.00">_tag.h</text>
</a>
</g>
</g>
<!-- Node17&#45;&gt;Node18 -->
<g id="edge33" class="edge">
<title>Node17&#45;&gt;Node18</title>
<path fill="none" stroke="midnightblue" d="M354.22,-582.5C390.89,-574.07 448.78,-560.64 508.45,-546.11"/>
<polygon fill="midnightblue" stroke="midnightblue" points="509.55,-549.44 518.43,-543.67 507.89,-542.64 509.55,-549.44"/>
</g>
<!-- Node20 -->
<g id="node20" class="node">
<title>Node20</title>
<g id="a_node20"><a xlink:href="f__pc__layer__tag_8h.html" target="_top" xlink:title=" ">
<polygon fill="white" stroke="black" points="385.5,-521 385.5,-540 500.5,-540 500.5,-521 385.5,-521"/>
<text text-anchor="middle" x="443" y="-528" font-family="Helvetica,sans-Serif" font-size="10.00">f/f_pc/f_pc_layer_tag.h</text>
</a>
</g>
</g>
<!-- Node17&#45;&gt;Node20 -->
<g id="edge41" class="edge">
<title>Node17&#45;&gt;Node20</title>
<path fill="none" stroke="midnightblue" d="M335.05,-582.48C356.2,-572.49 391.44,-555.85 415.88,-544.31"/>
<polygon fill="midnightblue" stroke="midnightblue" points="417.43,-547.44 424.98,-540.01 414.44,-541.11 417.43,-547.44"/>
</g>
<!-- Node21 -->
<g id="node21" class="node">
<title>Node21</title>
<g id="a_node21"><a xlink:href="f__pc__line__tag_8h.html" target="_top" xlink:title=" ">
<polygon fill="white" stroke="black" points="66,-454 66,-473 176,-473 176,-454 66,-454"/>
<text text-anchor="middle" x="121" y="-461" font-family="Helvetica,sans-Serif" font-size="10.00">f/f_pc/f_pc_line_tag.h</text>
</a>
</g>
</g>
<!-- Node17&#45;&gt;Node21 -->
<g id="edge45" class="edge">
<title>Node17&#45;&gt;Node21</title>
<path fill="none" stroke="midnightblue" d="M292.75,-582.48C271.64,-574.54 240.66,-561.6 216,-546 185.42,-526.66 154.43,-498 136.5,-480.33"/>
<polygon fill="midnightblue" stroke="midnightblue" points="138.78,-477.65 129.23,-473.05 133.83,-482.6 138.78,-477.65"/>
</g>
<!-- Node22 -->
<g id="node22" class="node">
<title>Node22</title>
<g id="a_node22"><a xlink:href="f__pc__priority_8h.html" target="_top" xlink:title=" ">
<polygon fill="white" stroke="black" points="225,-521 225,-540 329,-540 329,-521 225,-521"/>
<text text-anchor="middle" x="277" y="-528" font-family="Helvetica,sans-Serif" font-size="10.00">f/f_pc/f_pc_priority.h</text>
</a>
</g>
</g>
<!-- Node17&#45;&gt;Node22 -->
<g id="edge48" class="edge">
<title>Node17&#45;&gt;Node22</title>
<path fill="none" stroke="midnightblue" d="M311.27,-582.48C305.33,-573.64 295.88,-559.59 288.41,-548.48"/>
<polygon fill="midnightblue" stroke="midnightblue" points="291.2,-546.36 282.72,-540.01 285.39,-550.26 291.2,-546.36"/>
</g>
<!-- Node24 -->
<g id="node24" class="node">
<title>Node24</title>
<g id="a_node24"><a xlink:href="f__pc__profile_8h.html" target="_top" xlink:title=" ">
<polygon fill="white" stroke="black" points="36.5,-280.5 36.5,-299.5 137.5,-299.5 137.5,-280.5 36.5,-280.5"/>
<text text-anchor="middle" x="87" y="-287.5" font-family="Helvetica,sans-Serif" font-size="10.00">f/f_pc/f_pc_profile.h</text>
</a>
</g>
</g>
<!-- Node17&#45;&gt;Node24 -->
<g id="edge53" class="edge">
<title>Node17&#45;&gt;Node24</title>
<path fill="none" stroke="midnightblue" d="M268.4,-590.13C188.47,-585.84 38,-564.49 38,-464.5 38,-464.5 38,-464.5 38,-401 38,-365.47 59.6,-328.63 74.12,-307.88"/>
<polygon fill="midnightblue" stroke="midnightblue" points="77.13,-309.69 80.19,-299.54 71.47,-305.57 77.13,-309.69"/>
</g>
<!-- Node18&#45;&gt;Node5 -->
<g id="edge40" class="edge">
<title>Node18&#45;&gt;Node5</title>
<path fill="none" stroke="midnightblue" d="M582.8,-515.47C592.48,-506.24 603.75,-493.26 609,-479 648.63,-371.34 659.17,-294.92 569,-224 533.56,-196.13 401.32,-184.76 337.25,-180.81"/>
<polygon fill="midnightblue" stroke="midnightblue" points="337.4,-177.31 327.21,-180.22 336.98,-184.3 337.4,-177.31"/>
</g>
<!-- Node18&#45;&gt;Node13 -->
<g id="edge34" class="edge">
<title>Node18&#45;&gt;Node13</title>
<path fill="none" stroke="midnightblue" d="M546.09,-515.37C531.85,-505.26 512.23,-491.31 495,-479 465.17,-457.7 430.68,-432.95 409.35,-417.63"/>
<polygon fill="midnightblue" stroke="midnightblue" points="411.23,-414.67 401.07,-411.68 407.15,-420.35 411.23,-414.67"/>
</g>
<!-- Node18&#45;&gt;Node19 -->
<g id="edge35" class="edge">
<title>Node18&#45;&gt;Node19</title>
<path fill="none" stroke="midnightblue" d="M562.96,-515.4C560.93,-505.96 558.24,-493.45 556.03,-483.19"/>
<polygon fill="midnightblue" stroke="midnightblue" points="559.4,-482.23 553.87,-473.19 552.56,-483.71 559.4,-482.23"/>
</g>
<!-- Node19&#45;&gt;Node4 -->
<g id="edge36" class="edge">
<title>Node19&#45;&gt;Node4</title>
<path fill="none" stroke="midnightblue" d="M552.54,-453.74C553.6,-432.94 554.95,-379.08 544,-336 537.24,-309.41 532.45,-303.33 518,-280 511.82,-270.03 503.75,-259.75 496.81,-251.54"/>
<polygon fill="midnightblue" stroke="midnightblue" points="499.32,-249.09 490.13,-243.83 494.04,-253.67 499.32,-249.09"/>
</g>
<!-- Node19&#45;&gt;Node5 -->
<g id="edge39" class="edge">
<title>Node19&#45;&gt;Node5</title>
<path fill="none" stroke="midnightblue" d="M555.47,-453.63C568.44,-418.87 610.18,-290.58 548,-224 519.9,-193.92 398.47,-183.71 337.38,-180.44"/>
<polygon fill="midnightblue" stroke="midnightblue" points="337.22,-176.93 327.06,-179.92 336.87,-183.92 337.22,-176.93"/>
</g>
<!-- Node19&#45;&gt;Node13 -->
<g id="edge37" class="edge">
<title>Node19&#45;&gt;Node13</title>
<path fill="none" stroke="midnightblue" d="M528.65,-453.98C500.69,-443.77 453.67,-426.61 422.01,-415.05"/>
<polygon fill="midnightblue" stroke="midnightblue" points="422.9,-411.65 412.31,-411.51 420.5,-418.23 422.9,-411.65"/>
</g>
<!-- Node19&#45;&gt;Node15 -->
<g id="edge38" class="edge">
<title>Node19&#45;&gt;Node15</title>
<path fill="none" stroke="midnightblue" d="M546.53,-453.94C540.13,-443.92 529.24,-426.79 520,-412 510.04,-396.06 498.84,-377.83 490.83,-364.74"/>
<polygon fill="midnightblue" stroke="midnightblue" points="493.6,-362.56 485.4,-355.85 487.63,-366.21 493.6,-362.56"/>
</g>
<!-- Node20&#45;&gt;Node5 -->
<g id="edge44" class="edge">
<title>Node20&#45;&gt;Node5</title>
<path fill="none" stroke="midnightblue" d="M429.56,-520.77C404.22,-503.49 349.81,-462.2 326,-412 291.34,-338.94 296.04,-238.81 299.87,-197.73"/>
<polygon fill="midnightblue" stroke="midnightblue" points="303.37,-197.89 300.92,-187.58 296.41,-197.17 303.37,-197.89"/>
</g>
<!-- Node20&#45;&gt;Node13 -->
<g id="edge42" class="edge">
<title>Node20&#45;&gt;Node13</title>
<path fill="none" stroke="midnightblue" d="M440.41,-520.75C435.82,-505.62 425.63,-473.73 414,-448 409.77,-438.63 404.29,-428.6 399.55,-420.39"/>
<polygon fill="midnightblue" stroke="midnightblue" points="402.53,-418.56 394.43,-411.74 396.51,-422.13 402.53,-418.56"/>
</g>
<!-- Node20&#45;&gt;Node19 -->
<g id="edge43" class="edge">
<title>Node20&#45;&gt;Node19</title>
<path fill="none" stroke="midnightblue" d="M457.7,-520.73C475.92,-509.87 507.2,-491.22 528.7,-478.39"/>
<polygon fill="midnightblue" stroke="midnightblue" points="530.74,-481.26 537.53,-473.13 527.15,-475.24 530.74,-481.26"/>
</g>
<!-- Node21&#45;&gt;Node5 -->
<g id="edge47" class="edge">
<title>Node21&#45;&gt;Node5</title>
<path fill="none" stroke="midnightblue" d="M133.69,-453.99C157.61,-436.82 207,-395.5 207,-347 207,-347 207,-347 207,-289 207,-245.74 249.61,-211.09 277.75,-192.91"/>
<polygon fill="midnightblue" stroke="midnightblue" points="279.66,-195.85 286.31,-187.6 275.97,-189.9 279.66,-195.85"/>
</g>
<!-- Node21&#45;&gt;Node13 -->
<g id="edge46" class="edge">
<title>Node21&#45;&gt;Node13</title>
<path fill="none" stroke="midnightblue" d="M158.56,-453.95C167.24,-451.99 176.44,-449.91 185,-448 237.97,-436.16 298.73,-422.78 340.06,-413.71"/>
<polygon fill="midnightblue" stroke="midnightblue" points="340.86,-417.12 349.88,-411.56 339.36,-410.28 340.86,-417.12"/>
</g>
<!-- Node22&#45;&gt;Node13 -->
<g id="edge49" class="edge">
<title>Node22&#45;&gt;Node13</title>
<path fill="none" stroke="midnightblue" d="M284.4,-520.88C297.24,-505.95 324.53,-474.34 348,-448 356.63,-438.31 366.41,-427.57 374.26,-419.01"/>
<polygon fill="midnightblue" stroke="midnightblue" points="376.9,-421.31 381.08,-411.58 371.74,-416.57 376.9,-421.31"/>
</g>
<!-- Node23 -->
<g id="node23" class="node">
<title>Node23</title>
<g id="a_node23"><a xlink:href="f__pc__method__tag_8h.html" target="_top" xlink:title=" ">
<polygon fill="white" stroke="black" points="194.5,-448.5 194.5,-478.5 295.5,-478.5 295.5,-448.5 194.5,-448.5"/>
<text text-anchor="start" x="202.5" y="-466.5" font-family="Helvetica,sans-Serif" font-size="10.00">f/f_pc/f_pc_method</text>
<text text-anchor="middle" x="245" y="-455.5" font-family="Helvetica,sans-Serif" font-size="10.00">_tag.h</text>
</a>
</g>
</g>
<!-- Node22&#45;&gt;Node23 -->
<g id="edge50" class="edge">
<title>Node22&#45;&gt;Node23</title>
<path fill="none" stroke="midnightblue" d="M272.68,-520.73C268.53,-512.29 262.05,-499.14 256.41,-487.68"/>
<polygon fill="midnightblue" stroke="midnightblue" points="259.49,-486.01 251.94,-478.59 253.21,-489.11 259.49,-486.01"/>
</g>
<!-- Node23&#45;&gt;Node5 -->
<g id="edge52" class="edge">
<title>Node23&#45;&gt;Node5</title>
<path fill="none" stroke="midnightblue" d="M245,-448.28C245,-426.48 245,-383.49 245,-347 245,-347 245,-347 245,-289 245,-252.3 270.32,-215.66 287.21,-195.3"/>
<polygon fill="midnightblue" stroke="midnightblue" points="289.95,-197.48 293.83,-187.62 284.65,-192.9 289.95,-197.48"/>
</g>
<!-- Node23&#45;&gt;Node13 -->
<g id="edge51" class="edge">
<title>Node23&#45;&gt;Node13</title>
<path fill="none" stroke="midnightblue" d="M279.13,-448.4C303.29,-438.42 335.4,-425.15 358.67,-415.53"/>
<polygon fill="midnightblue" stroke="midnightblue" points="360.14,-418.71 368.05,-411.66 357.47,-412.24 360.14,-418.71"/>
</g>
<!-- Node24&#45;&gt;Node5 -->
<g id="edge56" class="edge">
<title>Node24&#45;&gt;Node5</title>
<path fill="none" stroke="midnightblue" d="M99.67,-280.31C119.18,-267.16 157.99,-241.82 193,-224 217.68,-211.44 246.72,-199.59 268.61,-191.2"/>
<polygon fill="midnightblue" stroke="midnightblue" points="270.01,-194.41 278.13,-187.6 267.54,-187.87 270.01,-194.41"/>
</g>
<!-- Node25 -->
<g id="node25" class="node">
<title>Node25</title>
<g id="a_node25"><a xlink:href="f__pc__method_8h.html" target="_top" xlink:title=" ">
<polygon fill="white" stroke="black" points="33,-224.5 33,-243.5 141,-243.5 141,-224.5 33,-224.5"/>
<text text-anchor="middle" x="87" y="-231.5" font-family="Helvetica,sans-Serif" font-size="10.00">f/f_pc/f_pc_method.h</text>
</a>
</g>
</g>
<!-- Node24&#45;&gt;Node25 -->
<g id="edge54" class="edge">
<title>Node24&#45;&gt;Node25</title>
<path fill="none" stroke="midnightblue" d="M87,-280.08C87,-273.01 87,-262.86 87,-253.99"/>
<polygon fill="midnightblue" stroke="midnightblue" points="90.5,-253.75 87,-243.75 83.5,-253.75 90.5,-253.75"/>
</g>
<!-- Node25&#45;&gt;Node5 -->
<g id="edge55" class="edge">
<title>Node25&#45;&gt;Node5</title>
<path fill="none" stroke="midnightblue" d="M121.07,-224.44C160.93,-214.43 226.61,-197.94 266.91,-187.81"/>
<polygon fill="midnightblue" stroke="midnightblue" points="267.98,-191.15 276.83,-185.32 266.27,-184.36 267.98,-191.15"/>
</g>
</g>
</svg>
