<?xml version="1.0" encoding="UTF-8" standalone="no"?>
<!DOCTYPE svg PUBLIC "-//W3C//DTD SVG 1.1//EN"
 "http://www.w3.org/Graphics/SVG/1.1/DTD/svg11.dtd">
<!-- Generated by graphviz version 2.44.0 ()
 -->
<!-- Title: include/f/f_pc/f_pc_manager.h Pages: 1 -->
<svg width="1281pt" height="229pt"
 viewBox="0.00 0.00 1280.50 229.00" xmlns="http://www.w3.org/2000/svg" xmlns:xlink="http://www.w3.org/1999/xlink">
<g id="graph0" class="graph" transform="scale(1 1) rotate(0) translate(4 225)">
<title>include/f/f_pc/f_pc_manager.h</title>
<polygon fill="white" stroke="transparent" points="-4,4 -4,-225 1276.5,-225 1276.5,4 -4,4"/>
<!-- Node1 -->
<g id="node1" class="node">
<title>Node1</title>
<g id="a_node1"><a xlink:title=" ">
<polygon fill="#bfbfbf" stroke="black" points="363,-190.5 363,-220.5 460,-220.5 460,-190.5 363,-190.5"/>
<text text-anchor="start" x="371" y="-208.5" font-family="Helvetica,sans-Serif" font-size="10.00">include/f/f_pc/f_pc</text>
<text text-anchor="middle" x="411.5" y="-197.5" font-family="Helvetica,sans-Serif" font-size="10.00">_manager.h</text>
</a>
</g>
</g>
<!-- Node2 -->
<g id="node2" class="node">
<title>Node2</title>
<g id="a_node2"><a xlink:href="f__ap__game_8cpp.html" target="_top" xlink:title=" ">
<polygon fill="white" stroke="black" points="0,-129 0,-148 105,-148 105,-129 0,-129"/>
<text text-anchor="middle" x="52.5" y="-136" font-family="Helvetica,sans-Serif" font-size="10.00">src/f/f_ap_game.cpp</text>
</a>
</g>
</g>
<!-- Node1&#45;&gt;Node2 -->
<g id="edge1" class="edge">
<title>Node1&#45;&gt;Node2</title>
<path fill="none" stroke="midnightblue" d="M352.93,-195.11C293.88,-185.47 200.18,-169.7 119.5,-154 110.15,-152.18 100.11,-150.08 90.71,-148.06"/>
<polygon fill="midnightblue" stroke="midnightblue" points="352.39,-198.57 362.82,-196.72 353.51,-191.66 352.39,-198.57"/>
</g>
<!-- Node3 -->
<g id="node3" class="node">
<title>Node3</title>
<g id="a_node3"><a xlink:href="d__a__alink_8cpp.html" target="_top" xlink:title=" ">
<polygon fill="white" stroke="black" points="267,-62 267,-81 386,-81 386,-62 267,-62"/>
<text text-anchor="middle" x="326.5" y="-69" font-family="Helvetica,sans-Serif" font-size="10.00">src/d/d_a/d_a_alink.cpp</text>
</a>
</g>
</g>
<!-- Node1&#45;&gt;Node3 -->
<g id="edge2" class="edge">
<title>Node1&#45;&gt;Node3</title>
<path fill="none" stroke="midnightblue" d="M352.72,-201.47C284.27,-196.57 177.37,-184.18 152.5,-154 116.76,-110.62 203.45,-89.04 266.89,-79.35"/>
<polygon fill="midnightblue" stroke="midnightblue" points="352.73,-204.98 362.94,-202.17 353.2,-198 352.73,-204.98"/>
</g>
<!-- Node4 -->
<g id="node4" class="node">
<title>Node4</title>
<g id="a_node4"><a xlink:href="f__op__kankyo__mng_8cpp.html" target="_top" xlink:title=" ">
<polygon fill="white" stroke="black" points="161.5,-123.5 161.5,-153.5 277.5,-153.5 277.5,-123.5 161.5,-123.5"/>
<text text-anchor="start" x="169.5" y="-141.5" font-family="Helvetica,sans-Serif" font-size="10.00">src/f/f_op/f_op_kankyo</text>
<text text-anchor="middle" x="219.5" y="-130.5" font-family="Helvetica,sans-Serif" font-size="10.00">_mng.cpp</text>
</a>
</g>
</g>
<!-- Node1&#45;&gt;Node4 -->
<g id="edge3" class="edge">
<title>Node1&#45;&gt;Node4</title>
<path fill="none" stroke="midnightblue" d="M360.08,-187.09C329.08,-176.6 290.12,-163.41 261.08,-153.58"/>
<polygon fill="midnightblue" stroke="midnightblue" points="359.24,-190.5 369.84,-190.4 361.49,-183.87 359.24,-190.5"/>
</g>
<!-- Node5 -->
<g id="node5" class="node">
<title>Node5</title>
<g id="a_node5"><a xlink:href="f__op__msg__mng_8cpp.html" target="_top" xlink:title=" ">
<polygon fill="white" stroke="black" points="295.5,-123.5 295.5,-153.5 399.5,-153.5 399.5,-123.5 295.5,-123.5"/>
<text text-anchor="start" x="303.5" y="-141.5" font-family="Helvetica,sans-Serif" font-size="10.00">src/f/f_op/f_op_msg</text>
<text text-anchor="middle" x="347.5" y="-130.5" font-family="Helvetica,sans-Serif" font-size="10.00">_mng.cpp</text>
</a>
</g>
</g>
<!-- Node1&#45;&gt;Node5 -->
<g id="edge4" class="edge">
<title>Node1&#45;&gt;Node5</title>
<path fill="none" stroke="midnightblue" d="M390.35,-183.02C380.82,-173.34 369.83,-162.17 361.36,-153.58"/>
<polygon fill="midnightblue" stroke="midnightblue" points="388.1,-185.73 397.61,-190.4 393.09,-180.81 388.1,-185.73"/>
</g>
<!-- Node6 -->
<g id="node6" class="node">
<title>Node6</title>
<g id="a_node6"><a xlink:href="f__op__overlap__req_8cpp.html" target="_top" xlink:title=" ">
<polygon fill="white" stroke="black" points="417.5,-123.5 417.5,-153.5 533.5,-153.5 533.5,-123.5 417.5,-123.5"/>
<text text-anchor="start" x="425.5" y="-141.5" font-family="Helvetica,sans-Serif" font-size="10.00">src/f/f_op/f_op_overlap</text>
<text text-anchor="middle" x="475.5" y="-130.5" font-family="Helvetica,sans-Serif" font-size="10.00">_req.cpp</text>
</a>
</g>
</g>
<!-- Node1&#45;&gt;Node6 -->
<g id="edge5" class="edge">
<title>Node1&#45;&gt;Node6</title>
<path fill="none" stroke="midnightblue" d="M432.65,-183.02C442.18,-173.34 453.17,-162.17 461.64,-153.58"/>
<polygon fill="midnightblue" stroke="midnightblue" points="429.91,-180.81 425.39,-190.4 434.9,-185.73 429.91,-180.81"/>
</g>
<!-- Node7 -->
<g id="node7" class="node">
<title>Node7</title>
<g id="a_node7"><a xlink:href="f__op__scene__pause_8cpp.html" target="_top" xlink:title=" ">
<polygon fill="white" stroke="black" points="552,-123.5 552,-153.5 663,-153.5 663,-123.5 552,-123.5"/>
<text text-anchor="start" x="560" y="-141.5" font-family="Helvetica,sans-Serif" font-size="10.00">src/f/f_op/f_op_scene</text>
<text text-anchor="middle" x="607.5" y="-130.5" font-family="Helvetica,sans-Serif" font-size="10.00">_pause.cpp</text>
</a>
</g>
</g>
<!-- Node1&#45;&gt;Node7 -->
<g id="edge6" class="edge">
<title>Node1&#45;&gt;Node7</title>
<path fill="none" stroke="midnightblue" d="M463.58,-187.23C495.29,-176.71 535.28,-163.45 565.05,-153.58"/>
<polygon fill="midnightblue" stroke="midnightblue" points="462.42,-183.93 454.03,-190.4 464.62,-190.57 462.42,-183.93"/>
</g>
<!-- Node8 -->
<g id="node8" class="node">
<title>Node8</title>
<g id="a_node8"><a xlink:href="f__pc__manager_8cpp.html" target="_top" xlink:title=" ">
<polygon fill="white" stroke="black" points="681.5,-129 681.5,-148 821.5,-148 821.5,-129 681.5,-129"/>
<text text-anchor="middle" x="751.5" y="-136" font-family="Helvetica,sans-Serif" font-size="10.00">src/f/f_pc/f_pc_manager.cpp</text>
</a>
</g>
</g>
<!-- Node1&#45;&gt;Node8 -->
<g id="edge7" class="edge">
<title>Node1&#45;&gt;Node8</title>
<path fill="none" stroke="midnightblue" d="M470.24,-193.27C537.52,-180.41 646.26,-159.62 706.94,-148.02"/>
<polygon fill="midnightblue" stroke="midnightblue" points="469.38,-189.87 460.21,-195.19 470.69,-196.75 469.38,-189.87"/>
</g>
<!-- Node9 -->
<g id="node9" class="node">
<title>Node9</title>
<g id="a_node9"><a xlink:href="f__op__actor__mng_8h.html" target="_top" xlink:title=" ">
<polygon fill="white" stroke="black" points="840,-123.5 840,-153.5 937,-153.5 937,-123.5 840,-123.5"/>
<text text-anchor="start" x="848" y="-141.5" font-family="Helvetica,sans-Serif" font-size="10.00">include/f/f_op/f_op</text>
<text text-anchor="middle" x="888.5" y="-130.5" font-family="Helvetica,sans-Serif" font-size="10.00">_actor_mng.h</text>
</a>
</g>
</g>
<!-- Node1&#45;&gt;Node9 -->
<g id="edge8" class="edge">
<title>Node1&#45;&gt;Node9</title>
<path fill="none" stroke="midnightblue" d="M470.24,-199.76C551.6,-192.65 703.01,-177.52 830.5,-154 833.56,-153.43 836.7,-152.8 839.86,-152.13"/>
<polygon fill="midnightblue" stroke="midnightblue" points="469.85,-196.28 460.19,-200.62 470.45,-203.25 469.85,-196.28"/>
</g>
<!-- Node9&#45;&gt;Node3 -->
<g id="edge13" class="edge">
<title>Node9&#45;&gt;Node3</title>
<path fill="none" stroke="midnightblue" d="M829.77,-123.1C729.8,-106.91 496.45,-86.58 386.08,-77.38"/>
<polygon fill="midnightblue" stroke="midnightblue" points="829.43,-126.59 839.88,-124.8 830.6,-119.69 829.43,-126.59"/>
</g>
<!-- Node10 -->
<g id="node10" class="node">
<title>Node10</title>
<g id="a_node10"><a xlink:href="d__attention_8cpp.html" target="_top" xlink:title=" ">
<polygon fill="white" stroke="black" points="537,-62 537,-81 644,-81 644,-62 537,-62"/>
<text text-anchor="middle" x="590.5" y="-69" font-family="Helvetica,sans-Serif" font-size="10.00">src/d/d_attention.cpp</text>
</a>
</g>
</g>
<!-- Node9&#45;&gt;Node10 -->
<g id="edge9" class="edge">
<title>Node9&#45;&gt;Node10</title>
<path fill="none" stroke="midnightblue" d="M829.79,-122.9C750.09,-105.1 728.28,-103.52 652.5,-87 643.97,-85.14 634.8,-83.05 626.19,-81.04"/>
<polygon fill="midnightblue" stroke="midnightblue" points="829.28,-126.38 839.8,-125.16 830.82,-119.55 829.28,-126.38"/>
</g>
<!-- Node11 -->
<g id="node11" class="node">
<title>Node11</title>
<g id="a_node11"><a xlink:href="d__camera_8cpp.html" target="_top" xlink:title=" ">
<polygon fill="white" stroke="black" points="661.5,-62 661.5,-81 763.5,-81 763.5,-62 661.5,-62"/>
<text text-anchor="middle" x="712.5" y="-69" font-family="Helvetica,sans-Serif" font-size="10.00">src/d/d_camera.cpp</text>
</a>
</g>
</g>
<!-- Node9&#45;&gt;Node11 -->
<g id="edge10" class="edge">
<title>Node9&#45;&gt;Node11</title>
<path fill="none" stroke="midnightblue" d="M840.53,-119.78C806.4,-107.18 762.07,-90.81 735.53,-81.01"/>
<polygon fill="midnightblue" stroke="midnightblue" points="839.72,-123.21 850.31,-123.4 842.14,-116.65 839.72,-123.21"/>
</g>
<!-- Node12 -->
<g id="node12" class="node">
<title>Node12</title>
<g id="a_node12"><a xlink:href="d__stage_8cpp.html" target="_top" xlink:title=" ">
<polygon fill="white" stroke="black" points="781.5,-62 781.5,-81 875.5,-81 875.5,-62 781.5,-62"/>
<text text-anchor="middle" x="828.5" y="-69" font-family="Helvetica,sans-Serif" font-size="10.00">src/d/d_stage.cpp</text>
</a>
</g>
</g>
<!-- Node9&#45;&gt;Node12 -->
<g id="edge11" class="edge">
<title>Node9&#45;&gt;Node12</title>
<path fill="none" stroke="midnightblue" d="M868.65,-116C857.7,-104.13 844.7,-90.05 836.53,-81.19"/>
<polygon fill="midnightblue" stroke="midnightblue" points="866.13,-118.42 875.48,-123.4 871.27,-113.67 866.13,-118.42"/>
</g>
<!-- Node13 -->
<g id="node13" class="node">
<title>Node13</title>
<g id="a_node13"><a xlink:href="f__op__actor__mng_8cpp.html" target="_top" xlink:title=" ">
<polygon fill="white" stroke="black" points="894,-56.5 894,-86.5 1001,-86.5 1001,-56.5 894,-56.5"/>
<text text-anchor="start" x="902" y="-74.5" font-family="Helvetica,sans-Serif" font-size="10.00">src/f/f_op/f_op_actor</text>
<text text-anchor="middle" x="947.5" y="-63.5" font-family="Helvetica,sans-Serif" font-size="10.00">_mng.cpp</text>
</a>
</g>
</g>
<!-- Node9&#45;&gt;Node13 -->
<g id="edge12" class="edge">
<title>Node9&#45;&gt;Node13</title>
<path fill="none" stroke="midnightblue" d="M908.25,-115.74C916.98,-106.12 927,-95.09 934.72,-86.58"/>
<polygon fill="midnightblue" stroke="midnightblue" points="905.43,-113.64 901.3,-123.4 910.61,-118.34 905.43,-113.64"/>
</g>
<!-- Node14 -->
<g id="node14" class="node">
<title>Node14</title>
<g id="a_node14"><a xlink:href="m__Do__main_8cpp.html" target="_top" xlink:title=" ">
<polygon fill="white" stroke="black" points="1019,-62 1019,-81 1150,-81 1150,-62 1019,-62"/>
<text text-anchor="middle" x="1084.5" y="-69" font-family="Helvetica,sans-Serif" font-size="10.00">src/m_Do/m_Do_main.cpp</text>
</a>
</g>
</g>
<!-- Node9&#45;&gt;Node14 -->
<g id="edge14" class="edge">
<title>Node9&#45;&gt;Node14</title>
<path fill="none" stroke="midnightblue" d="M940.94,-120.11C979.08,-107.46 1029.04,-90.89 1058.85,-81.01"/>
<polygon fill="midnightblue" stroke="midnightblue" points="939.42,-116.93 931.03,-123.4 941.62,-123.57 939.42,-116.93"/>
</g>
<!-- Node15 -->
<g id="node15" class="node">
<title>Node15</title>
<g id="a_node15"><a xlink:href="d__model_8h.html" target="_top" xlink:title=" ">
<polygon fill="white" stroke="black" points="1168.5,-56.5 1168.5,-86.5 1272.5,-86.5 1272.5,-56.5 1168.5,-56.5"/>
<text text-anchor="start" x="1176.5" y="-74.5" font-family="Helvetica,sans-Serif" font-size="10.00">include/d/d_model/d</text>
<text text-anchor="middle" x="1220.5" y="-63.5" font-family="Helvetica,sans-Serif" font-size="10.00">_model.h</text>
</a>
</g>
</g>
<!-- Node9&#45;&gt;Node15 -->
<g id="edge15" class="edge">
<title>Node9&#45;&gt;Node15</title>
<path fill="none" stroke="midnightblue" d="M947.29,-127.29C1002.09,-117.58 1086.01,-102.25 1158.5,-87 1161.75,-86.32 1165.08,-85.6 1168.44,-84.85"/>
<polygon fill="midnightblue" stroke="midnightblue" points="946.65,-123.85 937.41,-129.03 947.86,-130.74 946.65,-123.85"/>
</g>
<!-- Node16 -->
<g id="node16" class="node">
<title>Node16</title>
<g id="a_node16"><a xlink:href="d__model_8cpp.html" target="_top" xlink:title=" ">
<polygon fill="white" stroke="black" points="1172.5,-0.5 1172.5,-19.5 1268.5,-19.5 1268.5,-0.5 1172.5,-0.5"/>
<text text-anchor="middle" x="1220.5" y="-7.5" font-family="Helvetica,sans-Serif" font-size="10.00">src/d/d_model.cpp</text>
</a>
</g>
</g>
<!-- Node15&#45;&gt;Node16 -->
<g id="edge16" class="edge">
<title>Node15&#45;&gt;Node16</title>
<path fill="none" stroke="midnightblue" d="M1220.5,-46.29C1220.5,-36.86 1220.5,-26.65 1220.5,-19.66"/>
<polygon fill="midnightblue" stroke="midnightblue" points="1217,-46.4 1220.5,-56.4 1224,-46.4 1217,-46.4"/>
</g>
</g>
</svg>
