<?xml version="1.0" encoding="UTF-8" standalone="no"?>
<!DOCTYPE svg PUBLIC "-//W3C//DTD SVG 1.1//EN"
 "http://www.w3.org/Graphics/SVG/1.1/DTD/svg11.dtd">
<!-- Generated by graphviz version 2.44.0 ()
 -->
<!-- Title: include/f/f_pc/f_pc_draw_priority.h Pages: 1 -->
<svg width="1136pt" height="296pt"
 viewBox="0.00 0.00 1136.24 296.00" xmlns="http://www.w3.org/2000/svg" xmlns:xlink="http://www.w3.org/1999/xlink">
<g id="graph0" class="graph" transform="scale(1 1) rotate(0) translate(4 292)">
<title>include/f/f_pc/f_pc_draw_priority.h</title>
<polygon fill="white" stroke="transparent" points="-4,4 -4,-292 1132.24,-292 1132.24,4 -4,4"/>
<!-- Node1 -->
<g id="node1" class="node">
<title>Node1</title>
<g id="a_node1"><a xlink:title=" ">
<polygon fill="#bfbfbf" stroke="black" points="313.24,-257.5 313.24,-287.5 410.24,-287.5 410.24,-257.5 313.24,-257.5"/>
<text text-anchor="start" x="321.24" y="-275.5" font-family="Helvetica,sans-Serif" font-size="10.00">include/f/f_pc/f_pc</text>
<text text-anchor="middle" x="361.74" y="-264.5" font-family="Helvetica,sans-Serif" font-size="10.00">_draw_priority.h</text>
</a>
</g>
</g>
<!-- Node2 -->
<g id="node2" class="node">
<title>Node2</title>
<g id="a_node2"><a xlink:href="f__pc__draw__priority_8cpp.html" target="_top" xlink:title=" ">
<polygon fill="white" stroke="black" points="249.74,-190.5 249.74,-220.5 355.74,-220.5 355.74,-190.5 249.74,-190.5"/>
<text text-anchor="start" x="257.74" y="-208.5" font-family="Helvetica,sans-Serif" font-size="10.00">src/f/f_pc/f_pc_draw</text>
<text text-anchor="middle" x="302.74" y="-197.5" font-family="Helvetica,sans-Serif" font-size="10.00">_priority.cpp</text>
</a>
</g>
</g>
<!-- Node1&#45;&gt;Node2 -->
<g id="edge1" class="edge">
<title>Node1&#45;&gt;Node2</title>
<path fill="none" stroke="midnightblue" d="M341.99,-249.74C333.26,-240.12 323.25,-229.09 315.52,-220.58"/>
<polygon fill="midnightblue" stroke="midnightblue" points="339.63,-252.34 348.94,-257.4 344.81,-247.64 339.63,-252.34"/>
</g>
<!-- Node3 -->
<g id="node3" class="node">
<title>Node3</title>
<g id="a_node3"><a xlink:href="f__pc__leaf_8h.html" target="_top" xlink:title=" ">
<polygon fill="white" stroke="black" points="373.24,-190.5 373.24,-220.5 470.24,-220.5 470.24,-190.5 373.24,-190.5"/>
<text text-anchor="start" x="381.24" y="-208.5" font-family="Helvetica,sans-Serif" font-size="10.00">include/f/f_pc/f_pc</text>
<text text-anchor="middle" x="421.74" y="-197.5" font-family="Helvetica,sans-Serif" font-size="10.00">_leaf.h</text>
</a>
</g>
</g>
<!-- Node1&#45;&gt;Node3 -->
<g id="edge2" class="edge">
<title>Node1&#45;&gt;Node3</title>
<path fill="none" stroke="midnightblue" d="M381.57,-250.02C390.51,-240.34 400.81,-229.17 408.75,-220.58"/>
<polygon fill="midnightblue" stroke="midnightblue" points="378.97,-247.67 374.76,-257.4 384.12,-252.42 378.97,-247.67"/>
</g>
<!-- Node4 -->
<g id="node4" class="node">
<title>Node4</title>
<g id="a_node4"><a xlink:href="f__op__camera_8cpp.html" target="_top" xlink:title=" ">
<polygon fill="white" stroke="black" points="452.24,-0.5 452.24,-19.5 587.24,-19.5 587.24,-0.5 452.24,-0.5"/>
<text text-anchor="middle" x="519.74" y="-7.5" font-family="Helvetica,sans-Serif" font-size="10.00">src/f/f_op/f_op_camera.cpp</text>
</a>
</g>
</g>
<!-- Node3&#45;&gt;Node4 -->
<g id="edge3" class="edge">
<title>Node3&#45;&gt;Node4</title>
<path fill="none" stroke="midnightblue" d="M363.07,-190.12C269.92,-178.67 58.44,-211.16 6.74,-154 -2.5,-143.78 -1.9,-133.73 6.74,-123 61.92,-54.48 325.48,-25.62 451.85,-15.56"/>
<polygon fill="midnightblue" stroke="midnightblue" points="362.62,-193.59 373.03,-191.6 363.65,-186.67 362.62,-193.59"/>
</g>
<!-- Node5 -->
<g id="node5" class="node">
<title>Node5</title>
<g id="a_node5"><a xlink:href="f__op__kankyo_8cpp.html" target="_top" xlink:title=" ">
<polygon fill="white" stroke="black" points="15.74,-129 15.74,-148 149.74,-148 149.74,-129 15.74,-129"/>
<text text-anchor="middle" x="82.74" y="-136" font-family="Helvetica,sans-Serif" font-size="10.00">src/f/f_op/f_op_kankyo.cpp</text>
</a>
</g>
</g>
<!-- Node3&#45;&gt;Node5 -->
<g id="edge4" class="edge">
<title>Node3&#45;&gt;Node5</title>
<path fill="none" stroke="midnightblue" d="M363.08,-189.73C272.16,-170.52 247.05,-170.14 158.74,-154 148.44,-152.12 137.36,-150.03 126.93,-148.05"/>
<polygon fill="midnightblue" stroke="midnightblue" points="362.47,-193.17 372.98,-191.84 363.93,-186.33 362.47,-193.17"/>
</g>
<!-- Node6 -->
<g id="node6" class="node">
<title>Node6</title>
<g id="a_node6"><a xlink:href="f__op__msg_8cpp.html" target="_top" xlink:title=" ">
<polygon fill="white" stroke="black" points="167.74,-129 167.74,-148 289.74,-148 289.74,-129 167.74,-129"/>
<text text-anchor="middle" x="228.74" y="-136" font-family="Helvetica,sans-Serif" font-size="10.00">src/f/f_op/f_op_msg.cpp</text>
</a>
</g>
</g>
<!-- Node3&#45;&gt;Node6 -->
<g id="edge5" class="edge">
<title>Node3&#45;&gt;Node6</title>
<path fill="none" stroke="midnightblue" d="M370.1,-187.11C332.55,-174.46 283.35,-157.89 254,-148.01"/>
<polygon fill="midnightblue" stroke="midnightblue" points="369.27,-190.52 379.87,-190.4 371.51,-183.89 369.27,-190.52"/>
</g>
<!-- Node7 -->
<g id="node7" class="node">
<title>Node7</title>
<g id="a_node7"><a xlink:href="f__op__overlap_8cpp.html" target="_top" xlink:title=" ">
<polygon fill="white" stroke="black" points="307.74,-129 307.74,-148 441.74,-148 441.74,-129 307.74,-129"/>
<text text-anchor="middle" x="374.74" y="-136" font-family="Helvetica,sans-Serif" font-size="10.00">src/f/f_op/f_op_overlap.cpp</text>
</a>
</g>
</g>
<!-- Node3&#45;&gt;Node7 -->
<g id="edge6" class="edge">
<title>Node3&#45;&gt;Node7</title>
<path fill="none" stroke="midnightblue" d="M405.46,-181.97C397.04,-170.33 387.25,-156.8 381.03,-148.19"/>
<polygon fill="midnightblue" stroke="midnightblue" points="402.85,-184.34 411.55,-190.4 408.52,-180.24 402.85,-184.34"/>
</g>
<!-- Node8 -->
<g id="node8" class="node">
<title>Node8</title>
<g id="a_node8"><a xlink:href="f__op__view_8cpp.html" target="_top" xlink:title=" ">
<polygon fill="white" stroke="black" points="399.24,-62 399.24,-81 522.24,-81 522.24,-62 399.24,-62"/>
<text text-anchor="middle" x="460.74" y="-69" font-family="Helvetica,sans-Serif" font-size="10.00">src/f/f_op/f_op_view.cpp</text>
</a>
</g>
</g>
<!-- Node3&#45;&gt;Node8 -->
<g id="edge7" class="edge">
<title>Node3&#45;&gt;Node8</title>
<path fill="none" stroke="midnightblue" d="M437.38,-181.75C442.44,-173.37 447.55,-163.58 450.74,-154 459.22,-128.57 460.64,-96.54 460.8,-81.31"/>
<polygon fill="midnightblue" stroke="midnightblue" points="434.42,-179.89 432.02,-190.21 440.33,-183.64 434.42,-179.89"/>
</g>
<!-- Node9 -->
<g id="node9" class="node">
<title>Node9</title>
<g id="a_node9"><a xlink:href="f__pc__leaf_8cpp.html" target="_top" xlink:title=" ">
<polygon fill="white" stroke="black" points="498.24,-129 498.24,-148 617.24,-148 617.24,-129 498.24,-129"/>
<text text-anchor="middle" x="557.74" y="-136" font-family="Helvetica,sans-Serif" font-size="10.00">src/f/f_pc/f_pc_leaf.cpp</text>
</a>
</g>
</g>
<!-- Node3&#45;&gt;Node9 -->
<g id="edge8" class="edge">
<title>Node3&#45;&gt;Node9</title>
<path fill="none" stroke="midnightblue" d="M460.52,-185.97C486.65,-173.48 519.88,-157.6 539.94,-148.01"/>
<polygon fill="midnightblue" stroke="midnightblue" points="458.77,-182.93 451.25,-190.4 461.79,-189.24 458.77,-182.93"/>
</g>
<!-- Node10 -->
<g id="node10" class="node">
<title>Node10</title>
<g id="a_node10"><a xlink:href="f__op__camera__mng_8h.html" target="_top" xlink:title=" ">
<polygon fill="white" stroke="black" points="768.24,-123.5 768.24,-153.5 865.24,-153.5 865.24,-123.5 768.24,-123.5"/>
<text text-anchor="start" x="776.24" y="-141.5" font-family="Helvetica,sans-Serif" font-size="10.00">include/f/f_op/f_op</text>
<text text-anchor="middle" x="816.74" y="-130.5" font-family="Helvetica,sans-Serif" font-size="10.00">_camera_mng.h</text>
</a>
</g>
</g>
<!-- Node3&#45;&gt;Node10 -->
<g id="edge9" class="edge">
<title>Node3&#45;&gt;Node10</title>
<path fill="none" stroke="midnightblue" d="M480.29,-195.88C544.53,-186.28 650.64,-169.99 741.74,-154 750.23,-152.51 759.25,-150.84 767.97,-149.18"/>
<polygon fill="midnightblue" stroke="midnightblue" points="479.73,-192.42 470.35,-197.36 480.76,-199.35 479.73,-192.42"/>
</g>
<!-- Node16 -->
<g id="node16" class="node">
<title>Node16</title>
<g id="a_node16"><a xlink:href="f__op__view_8h.html" target="_top" xlink:title=" ">
<polygon fill="white" stroke="black" points="635.24,-123.5 635.24,-153.5 732.24,-153.5 732.24,-123.5 635.24,-123.5"/>
<text text-anchor="start" x="643.24" y="-141.5" font-family="Helvetica,sans-Serif" font-size="10.00">include/f/f_op/f_op</text>
<text text-anchor="middle" x="683.74" y="-130.5" font-family="Helvetica,sans-Serif" font-size="10.00">_view.h</text>
</a>
</g>
</g>
<!-- Node3&#45;&gt;Node16 -->
<g id="edge16" class="edge">
<title>Node3&#45;&gt;Node16</title>
<path fill="none" stroke="midnightblue" d="M480.47,-190.16C521.47,-180.11 577.47,-166.34 626.74,-154 629.52,-153.31 632.37,-152.59 635.24,-151.87"/>
<polygon fill="midnightblue" stroke="midnightblue" points="479.53,-186.79 470.65,-192.56 481.19,-193.59 479.53,-186.79"/>
</g>
<!-- Node11 -->
<g id="node11" class="node">
<title>Node11</title>
<g id="a_node11"><a xlink:href="d__camera_8cpp.html" target="_top" xlink:title=" ">
<polygon fill="white" stroke="black" points="540.74,-62 540.74,-81 642.74,-81 642.74,-62 540.74,-62"/>
<text text-anchor="middle" x="591.74" y="-69" font-family="Helvetica,sans-Serif" font-size="10.00">src/d/d_camera.cpp</text>
</a>
</g>
</g>
<!-- Node10&#45;&gt;Node11 -->
<g id="edge10" class="edge">
<title>Node10&#45;&gt;Node11</title>
<path fill="none" stroke="midnightblue" d="M758.49,-120.67C714.51,-107.97 656,-91.06 621.27,-81.03"/>
<polygon fill="midnightblue" stroke="midnightblue" points="757.62,-124.06 768.2,-123.48 759.56,-117.34 757.62,-124.06"/>
</g>
<!-- Node12 -->
<g id="node12" class="node">
<title>Node12</title>
<g id="a_node12"><a xlink:href="d__stage_8cpp.html" target="_top" xlink:title=" ">
<polygon fill="white" stroke="black" points="660.74,-62 660.74,-81 754.74,-81 754.74,-62 660.74,-62"/>
<text text-anchor="middle" x="707.74" y="-69" font-family="Helvetica,sans-Serif" font-size="10.00">src/d/d_stage.cpp</text>
</a>
</g>
</g>
<!-- Node10&#45;&gt;Node12 -->
<g id="edge11" class="edge">
<title>Node10&#45;&gt;Node12</title>
<path fill="none" stroke="midnightblue" d="M784.28,-118.14C763.56,-105.79 737.74,-90.39 722.01,-81.01"/>
<polygon fill="midnightblue" stroke="midnightblue" points="782.71,-121.28 793.09,-123.4 786.3,-115.27 782.71,-121.28"/>
</g>
<!-- Node13 -->
<g id="node13" class="node">
<title>Node13</title>
<g id="a_node13"><a xlink:href="f__ap__game_8cpp.html" target="_top" xlink:title=" ">
<polygon fill="white" stroke="black" points="773.24,-62 773.24,-81 878.24,-81 878.24,-62 773.24,-62"/>
<text text-anchor="middle" x="825.74" y="-69" font-family="Helvetica,sans-Serif" font-size="10.00">src/f/f_ap_game.cpp</text>
</a>
</g>
</g>
<!-- Node10&#45;&gt;Node13 -->
<g id="edge12" class="edge">
<title>Node10&#45;&gt;Node13</title>
<path fill="none" stroke="midnightblue" d="M820.1,-113.25C821.66,-102.02 823.41,-89.38 824.54,-81.19"/>
<polygon fill="midnightblue" stroke="midnightblue" points="816.6,-113.01 818.7,-123.4 823.54,-113.97 816.6,-113.01"/>
</g>
<!-- Node14 -->
<g id="node14" class="node">
<title>Node14</title>
<g id="a_node14"><a xlink:href="f__op__camera__mng_8cpp.html" target="_top" xlink:title=" ">
<polygon fill="white" stroke="black" points="896.24,-56.5 896.24,-86.5 1013.24,-86.5 1013.24,-56.5 896.24,-56.5"/>
<text text-anchor="start" x="904.24" y="-74.5" font-family="Helvetica,sans-Serif" font-size="10.00">src/f/f_op/f_op_camera</text>
<text text-anchor="middle" x="954.74" y="-63.5" font-family="Helvetica,sans-Serif" font-size="10.00">_mng.cpp</text>
</a>
</g>
</g>
<!-- Node10&#45;&gt;Node14 -->
<g id="edge13" class="edge">
<title>Node10&#45;&gt;Node14</title>
<path fill="none" stroke="midnightblue" d="M855.74,-119.13C877.67,-108.8 904.62,-96.11 924.86,-86.58"/>
<polygon fill="midnightblue" stroke="midnightblue" points="854.24,-115.97 846.69,-123.4 857.23,-122.3 854.24,-115.97"/>
</g>
<!-- Node15 -->
<g id="node15" class="node">
<title>Node15</title>
<g id="a_node15"><a xlink:href="f__op__camera_8h.html" target="_top" xlink:title=" ">
<polygon fill="white" stroke="black" points="1031.24,-56.5 1031.24,-86.5 1128.24,-86.5 1128.24,-56.5 1031.24,-56.5"/>
<text text-anchor="start" x="1039.24" y="-74.5" font-family="Helvetica,sans-Serif" font-size="10.00">include/f/f_op/f_op</text>
<text text-anchor="middle" x="1079.74" y="-63.5" font-family="Helvetica,sans-Serif" font-size="10.00">_camera.h</text>
</a>
</g>
</g>
<!-- Node10&#45;&gt;Node15 -->
<g id="edge14" class="edge">
<title>Node10&#45;&gt;Node15</title>
<path fill="none" stroke="midnightblue" d="M875.35,-123.28C916.59,-113.23 973.07,-99.41 1022.74,-87 1025.52,-86.31 1028.37,-85.59 1031.24,-84.87"/>
<polygon fill="midnightblue" stroke="midnightblue" points="874.36,-119.92 865.47,-125.68 876.02,-126.72 874.36,-119.92"/>
</g>
<!-- Node15&#45;&gt;Node4 -->
<g id="edge15" class="edge">
<title>Node15&#45;&gt;Node4</title>
<path fill="none" stroke="midnightblue" d="M1021,-55.87C860.75,-29.15 682.29,-18.04 587.31,-13.61"/>
<polygon fill="midnightblue" stroke="midnightblue" points="1020.59,-59.35 1031.04,-57.56 1021.76,-52.44 1020.59,-59.35"/>
</g>
<!-- Node16&#45;&gt;Node8 -->
<g id="edge17" class="edge">
<title>Node16&#45;&gt;Node8</title>
<path fill="none" stroke="midnightblue" d="M626.01,-120.67C582.42,-107.97 524.43,-91.06 490,-81.03"/>
<polygon fill="midnightblue" stroke="midnightblue" points="625.05,-124.04 635.63,-123.48 627.01,-117.32 625.05,-124.04"/>
</g>
</g>
</svg>
