<?xml version="1.0" encoding="UTF-8" standalone="no"?>
<!DOCTYPE svg PUBLIC "-//W3C//DTD SVG 1.1//EN"
 "http://www.w3.org/Graphics/SVG/1.1/DTD/svg11.dtd">
<!-- Generated by graphviz version 2.44.0 ()
 -->
<!-- Title: include/f/f_pc/f_pc_stdcreate_req.h Pages: 1 -->
<svg width="657pt" height="621pt"
 viewBox="0.00 0.00 656.63 621.00" xmlns="http://www.w3.org/2000/svg" xmlns:xlink="http://www.w3.org/1999/xlink">
<g id="graph0" class="graph" transform="scale(1 1) rotate(0) translate(4 617)">
<title>include/f/f_pc/f_pc_stdcreate_req.h</title>
<polygon fill="white" stroke="transparent" points="-4,4 -4,-617 652.63,-617 652.63,4 -4,4"/>
<!-- Node1 -->
<g id="node1" class="node">
<title>Node1</title>
<g id="a_node1"><a xlink:title=" ">
<polygon fill="#bfbfbf" stroke="black" points="438.13,-582.5 438.13,-612.5 535.13,-612.5 535.13,-582.5 438.13,-582.5"/>
<text text-anchor="start" x="446.13" y="-600.5" font-family="Helvetica,sans-Serif" font-size="10.00">include/f/f_pc/f_pc</text>
<text text-anchor="middle" x="486.63" y="-589.5" font-family="Helvetica,sans-Serif" font-size="10.00">_stdcreate_req.h</text>
</a>
</g>
</g>
<!-- Node2 -->
<g id="node2" class="node">
<title>Node2</title>
<g id="a_node2"><a xlink:href="f__pc__create__req_8h.html" target="_top" xlink:title=" ">
<polygon fill="white" stroke="black" points="269.13,-515.5 269.13,-545.5 364.13,-545.5 364.13,-515.5 269.13,-515.5"/>
<text text-anchor="start" x="277.13" y="-533.5" font-family="Helvetica,sans-Serif" font-size="10.00">f/f_pc/f_pc_create</text>
<text text-anchor="middle" x="316.63" y="-522.5" font-family="Helvetica,sans-Serif" font-size="10.00">_req.h</text>
</a>
</g>
</g>
<!-- Node1&#45;&gt;Node2 -->
<g id="edge1" class="edge">
<title>Node1&#45;&gt;Node2</title>
<path fill="none" stroke="midnightblue" d="M449.75,-582.4C424.24,-572.64 390.11,-559.59 362.8,-549.15"/>
<polygon fill="midnightblue" stroke="midnightblue" points="364.04,-545.88 353.45,-545.58 361.54,-552.42 364.04,-545.88"/>
</g>
<!-- Node7 -->
<g id="node7" class="node">
<title>Node7</title>
<g id="a_node7"><a xlink:href="global_8h.html" target="_top" xlink:title=" ">
<polygon fill="white" stroke="black" points="239.63,-168.5 239.63,-187.5 289.63,-187.5 289.63,-168.5 239.63,-168.5"/>
<text text-anchor="middle" x="264.63" y="-175.5" font-family="Helvetica,sans-Serif" font-size="10.00">global.h</text>
</a>
</g>
</g>
<!-- Node1&#45;&gt;Node7 -->
<g id="edge37" class="edge">
<title>Node1&#45;&gt;Node7</title>
<path fill="none" stroke="midnightblue" d="M530.05,-582.37C578.03,-563.7 648.63,-525.81 648.63,-464.5 648.63,-464.5 648.63,-464.5 648.63,-289 648.63,-216.81 394.66,-189.29 299.8,-181.52"/>
<polygon fill="midnightblue" stroke="midnightblue" points="300.07,-178.03 289.83,-180.73 299.52,-185.01 300.07,-178.03"/>
</g>
<!-- Node16 -->
<g id="node16" class="node">
<title>Node16</title>
<g id="a_node16"><a xlink:href="f__pc__layer_8h.html" target="_top" xlink:title=" ">
<polygon fill="white" stroke="black" points="438.63,-454 438.63,-473 534.63,-473 534.63,-454 438.63,-454"/>
<text text-anchor="middle" x="486.63" y="-461" font-family="Helvetica,sans-Serif" font-size="10.00">f/f_pc/f_pc_layer.h</text>
</a>
</g>
</g>
<!-- Node1&#45;&gt;Node16 -->
<g id="edge36" class="edge">
<title>Node1&#45;&gt;Node16</title>
<path fill="none" stroke="midnightblue" d="M486.63,-582.37C486.63,-558.5 486.63,-510.18 486.63,-483.41"/>
<polygon fill="midnightblue" stroke="midnightblue" points="490.13,-483.1 486.63,-473.1 483.13,-483.1 490.13,-483.1"/>
</g>
<!-- Node3 -->
<g id="node3" class="node">
<title>Node3</title>
<g id="a_node3"><a xlink:href="c__phase_8h.html" target="_top" xlink:title=" ">
<polygon fill="white" stroke="black" points="300.63,-454 300.63,-473 420.63,-473 420.63,-454 300.63,-454"/>
<text text-anchor="middle" x="360.63" y="-461" font-family="Helvetica,sans-Serif" font-size="10.00">SComponent/c_phase.h</text>
</a>
</g>
</g>
<!-- Node2&#45;&gt;Node3 -->
<g id="edge2" class="edge">
<title>Node2&#45;&gt;Node3</title>
<path fill="none" stroke="midnightblue" d="M326.18,-515.4C332.91,-505.46 341.95,-492.11 349.08,-481.57"/>
<polygon fill="midnightblue" stroke="midnightblue" points="352.04,-483.44 354.75,-473.19 346.24,-479.51 352.04,-483.44"/>
</g>
<!-- Node4 -->
<g id="node4" class="node">
<title>Node4</title>
<g id="a_node4"><a xlink:href="c__tag_8h.html" target="_top" xlink:title=" ">
<polygon fill="white" stroke="black" points="207.13,-392.5 207.13,-411.5 314.13,-411.5 314.13,-392.5 207.13,-392.5"/>
<text text-anchor="middle" x="260.63" y="-399.5" font-family="Helvetica,sans-Serif" font-size="10.00">SComponent/c_tag.h</text>
</a>
</g>
</g>
<!-- Node2&#45;&gt;Node4 -->
<g id="edge3" class="edge">
<title>Node2&#45;&gt;Node4</title>
<path fill="none" stroke="midnightblue" d="M309.35,-515.48C304.21,-505.42 297.26,-491.49 291.63,-479 282.78,-459.37 273.58,-436.43 267.52,-420.93"/>
<polygon fill="midnightblue" stroke="midnightblue" points="270.75,-419.58 263.88,-411.52 264.23,-422.11 270.75,-419.58"/>
</g>
<!-- Node2&#45;&gt;Node7 -->
<g id="edge35" class="edge">
<title>Node2&#45;&gt;Node7</title>
<path fill="none" stroke="midnightblue" d="M269.12,-527.57C194.83,-523.55 56,-511.78 20.63,-479 -4.9,-455.33 1.63,-437.82 1.63,-403 1.63,-403 1.63,-403 1.63,-289 1.63,-191.55 157.21,-178.93 229.05,-178.3"/>
<polygon fill="midnightblue" stroke="midnightblue" points="229.42,-181.8 239.42,-178.29 229.41,-174.8 229.42,-181.8"/>
</g>
<!-- Node15 -->
<g id="node15" class="node">
<title>Node15</title>
<g id="a_node15"><a xlink:href="f__pc__create__tag_8h.html" target="_top" xlink:title=" ">
<polygon fill="white" stroke="black" points="149.13,-448.5 149.13,-478.5 244.13,-478.5 244.13,-448.5 149.13,-448.5"/>
<text text-anchor="start" x="157.13" y="-466.5" font-family="Helvetica,sans-Serif" font-size="10.00">f/f_pc/f_pc_create</text>
<text text-anchor="middle" x="196.63" y="-455.5" font-family="Helvetica,sans-Serif" font-size="10.00">_tag.h</text>
</a>
</g>
</g>
<!-- Node2&#45;&gt;Node15 -->
<g id="edge22" class="edge">
<title>Node2&#45;&gt;Node15</title>
<path fill="none" stroke="midnightblue" d="M290.6,-515.4C273.3,-506.03 250.39,-493.62 231.52,-483.39"/>
<polygon fill="midnightblue" stroke="midnightblue" points="233.08,-480.26 222.62,-478.58 229.75,-486.42 233.08,-480.26"/>
</g>
<!-- Node2&#45;&gt;Node16 -->
<g id="edge25" class="edge">
<title>Node2&#45;&gt;Node16</title>
<path fill="none" stroke="midnightblue" d="M353.52,-515.4C383.75,-503.84 426.07,-487.66 454.82,-476.66"/>
<polygon fill="midnightblue" stroke="midnightblue" points="456.29,-479.85 464.39,-473.01 453.79,-473.31 456.29,-479.85"/>
</g>
<!-- Node17 -->
<g id="node17" class="node">
<title>Node17</title>
<g id="a_node17"><a xlink:href="f__pc__method_8h.html" target="_top" xlink:title=" ">
<polygon fill="white" stroke="black" points="512.63,-392.5 512.63,-411.5 620.63,-411.5 620.63,-392.5 512.63,-392.5"/>
<text text-anchor="middle" x="566.63" y="-399.5" font-family="Helvetica,sans-Serif" font-size="10.00">f/f_pc/f_pc_method.h</text>
</a>
</g>
</g>
<!-- Node2&#45;&gt;Node17 -->
<g id="edge30" class="edge">
<title>Node2&#45;&gt;Node17</title>
<path fill="none" stroke="midnightblue" d="M364.16,-524.57C422.82,-517.55 517.96,-502.82 543.63,-479 559.47,-464.31 564.54,-439.13 566.08,-421.81"/>
<polygon fill="midnightblue" stroke="midnightblue" points="569.58,-421.93 566.67,-411.75 562.6,-421.53 569.58,-421.93"/>
</g>
<!-- Node18 -->
<g id="node18" class="node">
<title>Node18</title>
<g id="a_node18"><a xlink:href="f__pc__method__tag_8h.html" target="_top" xlink:title=" ">
<polygon fill="white" stroke="black" points="30.13,-448.5 30.13,-478.5 131.13,-478.5 131.13,-448.5 30.13,-448.5"/>
<text text-anchor="start" x="38.13" y="-466.5" font-family="Helvetica,sans-Serif" font-size="10.00">f/f_pc/f_pc_method</text>
<text text-anchor="middle" x="80.63" y="-455.5" font-family="Helvetica,sans-Serif" font-size="10.00">_tag.h</text>
</a>
</g>
</g>
<!-- Node2&#45;&gt;Node18 -->
<g id="edge32" class="edge">
<title>Node2&#45;&gt;Node18</title>
<path fill="none" stroke="midnightblue" d="M268.88,-516.35C232,-506.19 180.73,-492.07 141.01,-481.13"/>
<polygon fill="midnightblue" stroke="midnightblue" points="141.75,-477.7 131.18,-478.42 139.89,-484.45 141.75,-477.7"/>
</g>
<!-- Node5 -->
<g id="node5" class="node">
<title>Node5</title>
<g id="a_node5"><a xlink:href="c__list_8h.html" target="_top" xlink:title=" ">
<polygon fill="white" stroke="black" points="271.13,-280.5 271.13,-299.5 378.13,-299.5 378.13,-280.5 271.13,-280.5"/>
<text text-anchor="middle" x="324.63" y="-287.5" font-family="Helvetica,sans-Serif" font-size="10.00">SComponent/c_list.h</text>
</a>
</g>
</g>
<!-- Node4&#45;&gt;Node5 -->
<g id="edge4" class="edge">
<title>Node4&#45;&gt;Node5</title>
<path fill="none" stroke="midnightblue" d="M265.66,-392.37C276.17,-374.3 300.68,-332.18 314.56,-308.31"/>
<polygon fill="midnightblue" stroke="midnightblue" points="317.63,-310 319.64,-299.59 311.58,-306.47 317.63,-310"/>
</g>
<!-- Node6 -->
<g id="node6" class="node">
<title>Node6</title>
<g id="a_node6"><a xlink:href="c__node_8h.html" target="_top" xlink:title=" ">
<polygon fill="white" stroke="black" points="267.13,-224.5 267.13,-243.5 382.13,-243.5 382.13,-224.5 267.13,-224.5"/>
<text text-anchor="middle" x="324.63" y="-231.5" font-family="Helvetica,sans-Serif" font-size="10.00">SComponent/c_node.h</text>
</a>
</g>
</g>
<!-- Node4&#45;&gt;Node6 -->
<g id="edge17" class="edge">
<title>Node4&#45;&gt;Node6</title>
<path fill="none" stroke="midnightblue" d="M258.32,-392.45C253.23,-371.75 242.95,-317.84 262.63,-280 269.75,-266.33 283.12,-255.81 295.64,-248.4"/>
<polygon fill="midnightblue" stroke="midnightblue" points="297.4,-251.42 304.49,-243.55 294.04,-245.28 297.4,-251.42"/>
</g>
<!-- Node4&#45;&gt;Node7 -->
<g id="edge21" class="edge">
<title>Node4&#45;&gt;Node7</title>
<path fill="none" stroke="midnightblue" d="M257.03,-392.22C253.58,-383.28 248.6,-368.94 246.63,-356 237.88,-298.36 251.82,-229.5 259.75,-197.3"/>
<polygon fill="midnightblue" stroke="midnightblue" points="263.16,-198.07 262.25,-187.51 256.38,-196.33 263.16,-198.07"/>
</g>
<!-- Node14 -->
<g id="node14" class="node">
<title>Node14</title>
<g id="a_node14"><a xlink:href="c__tree_8h.html" target="_top" xlink:title=" ">
<polygon fill="white" stroke="black" points="308.63,-336.5 308.63,-355.5 418.63,-355.5 418.63,-336.5 308.63,-336.5"/>
<text text-anchor="middle" x="363.63" y="-343.5" font-family="Helvetica,sans-Serif" font-size="10.00">SComponent/c_tree.h</text>
</a>
</g>
</g>
<!-- Node4&#45;&gt;Node14 -->
<g id="edge18" class="edge">
<title>Node4&#45;&gt;Node14</title>
<path fill="none" stroke="midnightblue" d="M277.18,-392.32C293.63,-383.7 319.07,-370.36 338.1,-360.39"/>
<polygon fill="midnightblue" stroke="midnightblue" points="339.9,-363.4 347.13,-355.65 336.64,-357.2 339.9,-363.4"/>
</g>
<!-- Node5&#45;&gt;Node6 -->
<g id="edge5" class="edge">
<title>Node5&#45;&gt;Node6</title>
<path fill="none" stroke="midnightblue" d="M324.63,-280.08C324.63,-273.01 324.63,-262.86 324.63,-253.99"/>
<polygon fill="midnightblue" stroke="midnightblue" points="328.13,-253.75 324.63,-243.75 321.13,-253.75 328.13,-253.75"/>
</g>
<!-- Node6&#45;&gt;Node7 -->
<g id="edge6" class="edge">
<title>Node6&#45;&gt;Node7</title>
<path fill="none" stroke="midnightblue" d="M314.99,-224.32C306.12,-216.34 292.76,-204.31 282.03,-194.65"/>
<polygon fill="midnightblue" stroke="midnightblue" points="284.22,-191.92 274.45,-187.83 279.54,-197.13 284.22,-191.92"/>
</g>
<!-- Node8 -->
<g id="node8" class="node">
<title>Node8</title>
<g id="a_node8"><a xlink:href="types_8h.html" target="_top" xlink:title=" ">
<polygon fill="white" stroke="black" points="257.13,-0.5 257.13,-19.5 338.13,-19.5 338.13,-0.5 257.13,-0.5"/>
<text text-anchor="middle" x="297.63" y="-7.5" font-family="Helvetica,sans-Serif" font-size="10.00">dolphin/types.h</text>
</a>
</g>
</g>
<!-- Node7&#45;&gt;Node8 -->
<g id="edge7" class="edge">
<title>Node7&#45;&gt;Node8</title>
<path fill="none" stroke="midnightblue" d="M252.35,-168.32C225.4,-148.22 165.59,-97.02 192.63,-56 204.93,-37.35 226.74,-26.4 247.31,-19.98"/>
<polygon fill="midnightblue" stroke="midnightblue" points="248.27,-23.35 256.94,-17.26 246.37,-16.61 248.27,-23.35"/>
</g>
<!-- Node9 -->
<g id="node9" class="node">
<title>Node9</title>
<g id="a_node9"><a xlink:href="AR_8h.html" target="_top" xlink:title=" ">
<polygon fill="white" stroke="black" points="202.13,-56.5 202.13,-75.5 251.13,-75.5 251.13,-56.5 202.13,-56.5"/>
<text text-anchor="middle" x="226.63" y="-63.5" font-family="Helvetica,sans-Serif" font-size="10.00">ar/AR.h</text>
</a>
</g>
</g>
<!-- Node7&#45;&gt;Node9 -->
<g id="edge8" class="edge">
<title>Node7&#45;&gt;Node9</title>
<path fill="none" stroke="midnightblue" d="M261.65,-168.37C255.49,-150.54 241.25,-109.3 232.95,-85.27"/>
<polygon fill="midnightblue" stroke="midnightblue" points="236.18,-83.9 229.6,-75.59 229.56,-86.19 236.18,-83.9"/>
</g>
<!-- Node10 -->
<g id="node10" class="node">
<title>Node10</title>
<g id="a_node10"><a xlink:href="ARQ_8h.html" target="_top" xlink:title=" ">
<polygon fill="white" stroke="black" points="269.63,-56.5 269.63,-75.5 325.63,-75.5 325.63,-56.5 269.63,-56.5"/>
<text text-anchor="middle" x="297.63" y="-63.5" font-family="Helvetica,sans-Serif" font-size="10.00">ar/ARQ.h</text>
</a>
</g>
</g>
<!-- Node7&#45;&gt;Node10 -->
<g id="edge10" class="edge">
<title>Node7&#45;&gt;Node10</title>
<path fill="none" stroke="midnightblue" d="M267.17,-168.15C270.77,-155.63 277.59,-132.04 283.63,-112 286.3,-103.18 289.33,-93.41 291.88,-85.23"/>
<polygon fill="midnightblue" stroke="midnightblue" points="295.25,-86.2 294.91,-75.61 288.57,-84.1 295.25,-86.2"/>
</g>
<!-- Node11 -->
<g id="node11" class="node">
<title>Node11</title>
<g id="a_node11"><a xlink:href="mwcc_8h.html" target="_top" xlink:title=" ">
<polygon fill="white" stroke="black" points="292.63,-112.5 292.63,-131.5 342.63,-131.5 342.63,-112.5 292.63,-112.5"/>
<text text-anchor="middle" x="317.63" y="-119.5" font-family="Helvetica,sans-Serif" font-size="10.00">mwcc.h</text>
</a>
</g>
</g>
<!-- Node7&#45;&gt;Node11 -->
<g id="edge12" class="edge">
<title>Node7&#45;&gt;Node11</title>
<path fill="none" stroke="midnightblue" d="M273.39,-168.08C281.1,-160.22 292.54,-148.57 301.85,-139.08"/>
<polygon fill="midnightblue" stroke="midnightblue" points="304.54,-141.34 309.05,-131.75 299.54,-136.44 304.54,-141.34"/>
</g>
<!-- Node12 -->
<g id="node12" class="node">
<title>Node12</title>
<g id="a_node12"><a xlink:href="OS_8h.html" target="_top" xlink:title=" ">
<polygon fill="white" stroke="black" points="360.63,-112.5 360.63,-131.5 412.63,-131.5 412.63,-112.5 360.63,-112.5"/>
<text text-anchor="middle" x="386.63" y="-119.5" font-family="Helvetica,sans-Serif" font-size="10.00">os/OS.h</text>
</a>
</g>
</g>
<!-- Node7&#45;&gt;Node12 -->
<g id="edge13" class="edge">
<title>Node7&#45;&gt;Node12</title>
<path fill="none" stroke="midnightblue" d="M283.97,-168.44C303.95,-159.6 335.38,-145.69 358.2,-135.59"/>
<polygon fill="midnightblue" stroke="midnightblue" points="359.67,-138.76 367.39,-131.52 356.83,-132.36 359.67,-138.76"/>
</g>
<!-- Node9&#45;&gt;Node8 -->
<g id="edge9" class="edge">
<title>Node9&#45;&gt;Node8</title>
<path fill="none" stroke="midnightblue" d="M238.04,-56.32C248.74,-48.18 264.97,-35.84 277.8,-26.09"/>
<polygon fill="midnightblue" stroke="midnightblue" points="280.18,-28.67 286.02,-19.83 275.94,-23.1 280.18,-28.67"/>
</g>
<!-- Node10&#45;&gt;Node8 -->
<g id="edge11" class="edge">
<title>Node10&#45;&gt;Node8</title>
<path fill="none" stroke="midnightblue" d="M297.63,-56.08C297.63,-49.01 297.63,-38.86 297.63,-29.99"/>
<polygon fill="midnightblue" stroke="midnightblue" points="301.13,-29.75 297.63,-19.75 294.13,-29.75 301.13,-29.75"/>
</g>
<!-- Node12&#45;&gt;Node8 -->
<g id="edge14" class="edge">
<title>Node12&#45;&gt;Node8</title>
<path fill="none" stroke="midnightblue" d="M395.02,-112.43C406.7,-99.42 425.1,-74.27 412.63,-56 398.15,-34.77 372.01,-23.56 348.31,-17.63"/>
<polygon fill="midnightblue" stroke="midnightblue" points="348.87,-14.17 338.35,-15.4 347.34,-21 348.87,-14.17"/>
</g>
<!-- Node13 -->
<g id="node13" class="node">
<title>Node13</title>
<g id="a_node13"><a xlink:href="dvd_8h.html" target="_top" xlink:title=" ">
<polygon fill="white" stroke="black" points="344.13,-56.5 344.13,-75.5 403.13,-75.5 403.13,-56.5 344.13,-56.5"/>
<text text-anchor="middle" x="373.63" y="-63.5" font-family="Helvetica,sans-Serif" font-size="10.00">dvd/dvd.h</text>
</a>
</g>
</g>
<!-- Node12&#45;&gt;Node13 -->
<g id="edge15" class="edge">
<title>Node12&#45;&gt;Node13</title>
<path fill="none" stroke="midnightblue" d="M384.49,-112.08C382.76,-104.93 380.29,-94.64 378.13,-85.69"/>
<polygon fill="midnightblue" stroke="midnightblue" points="381.48,-84.65 375.74,-75.75 374.68,-86.29 381.48,-84.65"/>
</g>
<!-- Node13&#45;&gt;Node8 -->
<g id="edge16" class="edge">
<title>Node13&#45;&gt;Node8</title>
<path fill="none" stroke="midnightblue" d="M361.42,-56.32C349.86,-48.11 332.26,-35.6 318.47,-25.81"/>
<polygon fill="midnightblue" stroke="midnightblue" points="320.25,-22.77 310.07,-19.83 316.19,-28.48 320.25,-22.77"/>
</g>
<!-- Node14&#45;&gt;Node5 -->
<g id="edge19" class="edge">
<title>Node14&#45;&gt;Node5</title>
<path fill="none" stroke="midnightblue" d="M357.19,-336.08C351.69,-328.46 343.6,-317.26 336.87,-307.94"/>
<polygon fill="midnightblue" stroke="midnightblue" points="339.65,-305.81 330.95,-299.75 333.97,-309.91 339.65,-305.81"/>
</g>
<!-- Node14&#45;&gt;Node6 -->
<g id="edge20" class="edge">
<title>Node14&#45;&gt;Node6</title>
<path fill="none" stroke="midnightblue" d="M371.34,-336.31C381.65,-323.57 397.54,-299.25 387.63,-280 380.56,-266.25 367.11,-255.77 354.46,-248.39"/>
<polygon fill="midnightblue" stroke="midnightblue" points="355.95,-245.22 345.48,-243.57 352.63,-251.39 355.95,-245.22"/>
</g>
<!-- Node15&#45;&gt;Node4 -->
<g id="edge23" class="edge">
<title>Node15&#45;&gt;Node4</title>
<path fill="none" stroke="midnightblue" d="M211.8,-448.4C221.39,-439.49 233.79,-427.95 243.7,-418.74"/>
<polygon fill="midnightblue" stroke="midnightblue" points="246.38,-421.03 251.32,-411.66 241.61,-415.9 246.38,-421.03"/>
</g>
<!-- Node15&#45;&gt;Node7 -->
<g id="edge24" class="edge">
<title>Node15&#45;&gt;Node7</title>
<path fill="none" stroke="midnightblue" d="M190.42,-448.22C181.63,-426.71 166.63,-384.5 166.63,-347 166.63,-347 166.63,-347 166.63,-289 166.63,-245.38 210.13,-211.06 239.16,-193.01"/>
<polygon fill="midnightblue" stroke="midnightblue" points="241.22,-195.86 248.01,-187.73 237.63,-189.85 241.22,-195.86"/>
</g>
<!-- Node16&#45;&gt;Node4 -->
<g id="edge27" class="edge">
<title>Node16&#45;&gt;Node4</title>
<path fill="none" stroke="midnightblue" d="M454.25,-453.98C414.4,-443.48 346.62,-425.64 302.75,-414.09"/>
<polygon fill="midnightblue" stroke="midnightblue" points="303.52,-410.67 292.95,-411.51 301.73,-417.44 303.52,-410.67"/>
</g>
<!-- Node16&#45;&gt;Node6 -->
<g id="edge26" class="edge">
<title>Node16&#45;&gt;Node6</title>
<path fill="none" stroke="midnightblue" d="M483.49,-453.93C471.55,-421.72 428.37,-308.22 402.63,-280 389.98,-266.13 372.04,-255.37 356.55,-247.86"/>
<polygon fill="midnightblue" stroke="midnightblue" points="357.84,-244.6 347.29,-243.6 354.92,-250.96 357.84,-244.6"/>
</g>
<!-- Node16&#45;&gt;Node7 -->
<g id="edge29" class="edge">
<title>Node16&#45;&gt;Node7</title>
<path fill="none" stroke="midnightblue" d="M486.38,-453.81C485.84,-434.56 484.63,-386.91 484.63,-347 484.63,-347 484.63,-347 484.63,-289 484.63,-207.46 362.23,-186.36 300.03,-180.9"/>
<polygon fill="midnightblue" stroke="midnightblue" points="300.11,-177.4 289.87,-180.1 299.57,-184.38 300.11,-177.4"/>
</g>
<!-- Node16&#45;&gt;Node14 -->
<g id="edge28" class="edge">
<title>Node16&#45;&gt;Node14</title>
<path fill="none" stroke="midnightblue" d="M477.45,-453.93C466.7,-443.89 448.36,-426.76 432.63,-412 414.78,-395.24 394.37,-376 380.41,-362.83"/>
<polygon fill="midnightblue" stroke="midnightblue" points="382.67,-360.16 373,-355.84 377.87,-365.25 382.67,-360.16"/>
</g>
<!-- Node17&#45;&gt;Node7 -->
<g id="edge31" class="edge">
<title>Node17&#45;&gt;Node7</title>
<path fill="none" stroke="midnightblue" d="M566.14,-392.33C563.98,-363.4 552.9,-269.43 498.63,-224 469,-199.19 357.94,-186.62 300.13,-181.64"/>
<polygon fill="midnightblue" stroke="midnightblue" points="300.24,-178.14 289.98,-180.8 299.66,-185.12 300.24,-178.14"/>
</g>
<!-- Node18&#45;&gt;Node4 -->
<g id="edge33" class="edge">
<title>Node18&#45;&gt;Node4</title>
<path fill="none" stroke="midnightblue" d="M123.29,-448.4C154.26,-438.16 195.68,-424.47 224.91,-414.81"/>
<polygon fill="midnightblue" stroke="midnightblue" points="226.31,-418.03 234.71,-411.57 224.11,-411.39 226.31,-418.03"/>
</g>
<!-- Node18&#45;&gt;Node7 -->
<g id="edge34" class="edge">
<title>Node18&#45;&gt;Node7</title>
<path fill="none" stroke="midnightblue" d="M85.69,-448.49C93,-426.96 105.63,-384.34 105.63,-347 105.63,-347 105.63,-347 105.63,-289 105.63,-229.11 182.86,-199.27 229.67,-186.69"/>
<polygon fill="midnightblue" stroke="midnightblue" points="230.62,-190.06 239.44,-184.19 228.88,-183.27 230.62,-190.06"/>
</g>
</g>
</svg>
