<?xml version="1.0" encoding="UTF-8" standalone="no"?>
<!DOCTYPE svg PUBLIC "-//W3C//DTD SVG 1.1//EN"
 "http://www.w3.org/Graphics/SVG/1.1/DTD/svg11.dtd">
<!-- Generated by graphviz version 2.44.0 ()
 -->
<!-- Title: src/f/f_pc/f_pc_node.cpp Pages: 1 -->
<!--zoomable 722 -->
<svg id="main" version="1.1" xmlns="http://www.w3.org/2000/svg" xmlns:xlink="http://www.w3.org/1999/xlink" xml:space="preserve" onload="init(evt)">
<style type="text/css"><![CDATA[
.edge:hover path { stroke: red; }
.edge:hover polygon { stroke: red; fill: red; }
]]></style>
<script type="text/javascript"><![CDATA[
var edges = document.getElementsByTagName('g');
if (edges && edges.length) {
  for (var i=0;i<edges.length;i++) {
    if (edges[i].id.substr(0,4)=='edge') {
      edges[i].setAttribute('class','edge');
    }
  }
}
]]></script>
        <defs>
                <circle id="rim" cx="0" cy="0" r="7"/>
                <circle id="rim2" cx="0" cy="0" r="3.5"/>
                <g id="zoomPlus">
                        <use xlink:href="#rim" fill="#404040">
                                <set attributeName="fill" to="#808080" begin="zoomplus.mouseover" end="zoomplus.mouseout"/>
                        </use>
                        <path d="M-4,0h8M0,-4v8" fill="none" stroke="white" stroke-width="1.5" pointer-events="none"/>
                </g>
                <g id="zoomMin">
                        <use xlink:href="#rim" fill="#404040">
                                <set attributeName="fill" to="#808080" begin="zoomminus.mouseover" end="zoomminus.mouseout"/>
                        </use>
                        <path d="M-4,0h8" fill="none" stroke="white" stroke-width="1.5" pointer-events="none"/>
                </g>
                <g id="dirArrow">
                        <path fill="none" stroke="white" stroke-width="1.5" d="M0,-3.0v7 M-2.5,-0.5L0,-3.0L2.5,-0.5"/>
                </g>
               <g id="resetDef">
                       <use xlink:href="#rim2" fill="#404040">
                               <set attributeName="fill" to="#808080" begin="reset.mouseover" end="reset.mouseout"/>
                       </use>
               </g>
        </defs>

<script type="text/javascript">
var viewWidth = 974;
var viewHeight = 722;
var sectionId = 'dynsection-0';
</script>
<script xlink:href="svgpan.js"/>
<svg id="graph" class="graph">
<g id="viewport">
<title>src/f/f_pc/f_pc_node.cpp</title>
<polygon fill="white" stroke="transparent" points="-4,4 -4,-718 970,-718 970,4 -4,4"/>
<!-- Node1 -->
<g id="node1" class="node">
<title>Node1</title>
<g id="a_node1"><a xlink:title=" ">
<polygon fill="#bfbfbf" stroke="black" points="54,-694.5 54,-713.5 178,-713.5 178,-694.5 54,-694.5"/>
<text text-anchor="middle" x="116" y="-701.5" font-family="Helvetica,sans-Serif" font-size="10.00">src/f/f_pc/f_pc_node.cpp</text>
</a>
</g>
</g>
<!-- Node2 -->
<g id="node2" class="node">
<title>Node2</title>
<g id="a_node2"><a xlink:href="f__pc__node_8h.html" target="_top" xlink:title=" ">
<polygon fill="white" stroke="black" points="335.5,-638.5 335.5,-657.5 432.5,-657.5 432.5,-638.5 335.5,-638.5"/>
<text text-anchor="middle" x="384" y="-645.5" font-family="Helvetica,sans-Serif" font-size="10.00">f/f_pc/f_pc_node.h</text>
</a>
</g>
</g>
<!-- Node1&#45;&gt;Node2 -->
<g id="edge1" class="edge">
<title>Node1&#45;&gt;Node2</title>
<path fill="none" stroke="midnightblue" d="M158.47,-694.44C205.41,-684.98 281.08,-669.74 331.65,-659.55"/>
<polygon fill="midnightblue" stroke="midnightblue" points="332.62,-662.92 341.73,-657.52 331.24,-656.06 332.62,-662.92"/>
</g>
<!-- Node8 -->
<g id="node8" class="node">
<title>Node8</title>
<g id="a_node8"><a xlink:href="types_8h.html" target="_top" xlink:title=" ">
<polygon fill="white" stroke="black" points="458.5,-0.5 458.5,-19.5 539.5,-19.5 539.5,-0.5 458.5,-0.5"/>
<text text-anchor="middle" x="499" y="-7.5" font-family="Helvetica,sans-Serif" font-size="10.00">dolphin/types.h</text>
</a>
</g>
</g>
<!-- Node1&#45;&gt;Node8 -->
<g id="edge49" class="edge">
<title>Node1&#45;&gt;Node8</title>
<path fill="none" stroke="midnightblue" d="M94.72,-694.4C61.24,-679.3 0,-644.62 0,-593 0,-593 0,-593 0,-121 0,-29.97 320.7,-14.2 447.91,-11.52"/>
<polygon fill="midnightblue" stroke="midnightblue" points="448.23,-15.02 458.16,-11.33 448.1,-8.02 448.23,-15.02"/>
</g>
<!-- Node23 -->
<g id="node23" class="node">
<title>Node23</title>
<g id="a_node23"><a xlink:href="f__pc__layer__iter_8h.html" target="_top" xlink:title=" ">
<polygon fill="white" stroke="black" points="58.5,-521 58.5,-540 173.5,-540 173.5,-521 58.5,-521"/>
<text text-anchor="middle" x="116" y="-528" font-family="Helvetica,sans-Serif" font-size="10.00">f/f_pc/f_pc_layer_iter.h</text>
</a>
</g>
</g>
<!-- Node1&#45;&gt;Node23 -->
<g id="edge50" class="edge">
<title>Node1&#45;&gt;Node23</title>
<path fill="none" stroke="midnightblue" d="M116,-694.26C116,-667.65 116,-587.21 116,-550.34"/>
<polygon fill="midnightblue" stroke="midnightblue" points="119.5,-550.02 116,-540.02 112.5,-550.02 119.5,-550.02"/>
</g>
<!-- Node3 -->
<g id="node3" class="node">
<title>Node3</title>
<g id="a_node3"><a xlink:href="f__pc__base_8h.html" target="_top" xlink:title=" ">
<polygon fill="white" stroke="black" points="478.5,-582.5 478.5,-601.5 575.5,-601.5 575.5,-582.5 478.5,-582.5"/>
<text text-anchor="middle" x="527" y="-589.5" font-family="Helvetica,sans-Serif" font-size="10.00">f/f_pc/f_pc_base.h</text>
</a>
</g>
</g>
<!-- Node2&#45;&gt;Node3 -->
<g id="edge2" class="edge">
<title>Node2&#45;&gt;Node3</title>
<path fill="none" stroke="midnightblue" d="M406.66,-638.44C430.4,-629.48 467.91,-615.31 494.74,-605.18"/>
<polygon fill="midnightblue" stroke="midnightblue" points="496.33,-608.32 504.45,-601.52 493.86,-601.77 496.33,-608.32"/>
</g>
<!-- Node16 -->
<g id="node16" class="node">
<title>Node16</title>
<g id="a_node16"><a xlink:href="f__pc__layer_8h.html" target="_top" xlink:title=" ">
<polygon fill="white" stroke="black" points="240,-454 240,-473 336,-473 336,-454 240,-454"/>
<text text-anchor="middle" x="288" y="-461" font-family="Helvetica,sans-Serif" font-size="10.00">f/f_pc/f_pc_layer.h</text>
</a>
</g>
</g>
<!-- Node2&#45;&gt;Node16 -->
<g id="edge47" class="edge">
<title>Node2&#45;&gt;Node16</title>
<path fill="none" stroke="midnightblue" d="M354.21,-638.46C315.48,-625.57 249.42,-597.05 221,-546 214.3,-533.96 214.85,-527.33 221,-515 229.05,-498.85 245,-486.51 259.31,-478.07"/>
<polygon fill="midnightblue" stroke="midnightblue" points="261.31,-480.97 268.38,-473.08 257.93,-474.83 261.31,-480.97"/>
</g>
<!-- Node22 -->
<g id="node22" class="node">
<title>Node22</title>
<g id="a_node22"><a xlink:href="f__pc__method_8h.html" target="_top" xlink:title=" ">
<polygon fill="white" stroke="black" points="830,-454 830,-473 938,-473 938,-454 830,-454"/>
<text text-anchor="middle" x="884" y="-461" font-family="Helvetica,sans-Serif" font-size="10.00">f/f_pc/f_pc_method.h</text>
</a>
</g>
</g>
<!-- Node2&#45;&gt;Node22 -->
<g id="edge48" class="edge">
<title>Node2&#45;&gt;Node22</title>
<path fill="none" stroke="midnightblue" d="M432.54,-643.09C541.36,-633.36 800.15,-604.51 862,-546 879.1,-529.82 883.4,-501.85 884.24,-483.26"/>
<polygon fill="midnightblue" stroke="midnightblue" points="887.74,-483.14 884.39,-473.09 880.74,-483.03 887.74,-483.14"/>
</g>
<!-- Node4 -->
<g id="node4" class="node">
<title>Node4</title>
<g id="a_node4"><a xlink:href="c__tag_8h.html" target="_top" xlink:title=" ">
<polygon fill="white" stroke="black" points="424.5,-392.5 424.5,-411.5 531.5,-411.5 531.5,-392.5 424.5,-392.5"/>
<text text-anchor="middle" x="478" y="-399.5" font-family="Helvetica,sans-Serif" font-size="10.00">SComponent/c_tag.h</text>
</a>
</g>
</g>
<!-- Node3&#45;&gt;Node4 -->
<g id="edge3" class="edge">
<title>Node3&#45;&gt;Node4</title>
<path fill="none" stroke="midnightblue" d="M522.16,-582.29C517.41,-573.41 510.27,-559.12 506,-546 491.87,-502.64 483.76,-449.45 480.19,-421.76"/>
<polygon fill="midnightblue" stroke="midnightblue" points="483.63,-421.06 478.94,-411.56 476.69,-421.92 483.63,-421.06"/>
</g>
<!-- Node7 -->
<g id="node7" class="node">
<title>Node7</title>
<g id="a_node7"><a xlink:href="global_8h.html" target="_top" xlink:title=" ">
<polygon fill="white" stroke="black" points="540,-168.5 540,-187.5 590,-187.5 590,-168.5 540,-168.5"/>
<text text-anchor="middle" x="565" y="-175.5" font-family="Helvetica,sans-Serif" font-size="10.00">global.h</text>
</a>
</g>
</g>
<!-- Node3&#45;&gt;Node7 -->
<g id="edge22" class="edge">
<title>Node3&#45;&gt;Node7</title>
<path fill="none" stroke="midnightblue" d="M575.55,-587.63C655.58,-581.54 811.38,-567.35 862,-546 916.11,-523.18 966,-523.22 966,-464.5 966,-464.5 966,-464.5 966,-289 966,-213.43 697.78,-187.89 600.06,-181.1"/>
<polygon fill="midnightblue" stroke="midnightblue" points="600.3,-177.6 590.08,-180.43 599.83,-184.59 600.3,-177.6"/>
</g>
<!-- Node15 -->
<g id="node15" class="node">
<title>Node15</title>
<g id="a_node15"><a xlink:href="f__pc__delete__tag_8h.html" target="_top" xlink:title=" ">
<polygon fill="white" stroke="black" points="363.5,-515.5 363.5,-545.5 458.5,-545.5 458.5,-515.5 363.5,-515.5"/>
<text text-anchor="start" x="371.5" y="-533.5" font-family="Helvetica,sans-Serif" font-size="10.00">f/f_pc/f_pc_delete</text>
<text text-anchor="middle" x="411" y="-522.5" font-family="Helvetica,sans-Serif" font-size="10.00">_tag.h</text>
</a>
</g>
</g>
<!-- Node3&#45;&gt;Node15 -->
<g id="edge23" class="edge">
<title>Node3&#45;&gt;Node15</title>
<path fill="none" stroke="midnightblue" d="M510.38,-582.48C494.01,-574.08 468.46,-560.97 447.37,-550.15"/>
<polygon fill="midnightblue" stroke="midnightblue" points="448.83,-546.97 438.34,-545.52 445.64,-553.2 448.83,-546.97"/>
</g>
<!-- Node17 -->
<g id="node17" class="node">
<title>Node17</title>
<g id="a_node17"><a xlink:href="f__pc__layer__tag_8h.html" target="_top" xlink:title=" ">
<polygon fill="white" stroke="black" points="230.5,-521 230.5,-540 345.5,-540 345.5,-521 230.5,-521"/>
<text text-anchor="middle" x="288" y="-528" font-family="Helvetica,sans-Serif" font-size="10.00">f/f_pc/f_pc_layer_tag.h</text>
</a>
</g>
</g>
<!-- Node3&#45;&gt;Node17 -->
<g id="edge31" class="edge">
<title>Node3&#45;&gt;Node17</title>
<path fill="none" stroke="midnightblue" d="M492.76,-582.48C450.43,-571.94 378.32,-553.99 331.95,-542.44"/>
<polygon fill="midnightblue" stroke="midnightblue" points="332.73,-539.03 322.18,-540.01 331.04,-545.82 332.73,-539.03"/>
</g>
<!-- Node18 -->
<g id="node18" class="node">
<title>Node18</title>
<g id="a_node18"><a xlink:href="f__pc__line__tag_8h.html" target="_top" xlink:title=" ">
<polygon fill="white" stroke="black" points="664,-454 664,-473 774,-473 774,-454 664,-454"/>
<text text-anchor="middle" x="719" y="-461" font-family="Helvetica,sans-Serif" font-size="10.00">f/f_pc/f_pc_line_tag.h</text>
</a>
</g>
</g>
<!-- Node3&#45;&gt;Node18 -->
<g id="edge35" class="edge">
<title>Node3&#45;&gt;Node18</title>
<path fill="none" stroke="midnightblue" d="M551.76,-582.45C572.9,-574.58 603.67,-561.76 628,-546 657.64,-526.8 687.22,-498.1 704.28,-480.38"/>
<polygon fill="midnightblue" stroke="midnightblue" points="706.85,-482.75 711.19,-473.08 701.77,-477.94 706.85,-482.75"/>
</g>
<!-- Node19 -->
<g id="node19" class="node">
<title>Node19</title>
<g id="a_node19"><a xlink:href="f__pc__priority_8h.html" target="_top" xlink:title=" ">
<polygon fill="white" stroke="black" points="515,-521 515,-540 619,-540 619,-521 515,-521"/>
<text text-anchor="middle" x="567" y="-528" font-family="Helvetica,sans-Serif" font-size="10.00">f/f_pc/f_pc_priority.h</text>
</a>
</g>
</g>
<!-- Node3&#45;&gt;Node19 -->
<g id="edge38" class="edge">
<title>Node3&#45;&gt;Node19</title>
<path fill="none" stroke="midnightblue" d="M532.73,-582.48C538.67,-573.64 548.12,-559.59 555.59,-548.48"/>
<polygon fill="midnightblue" stroke="midnightblue" points="558.61,-550.26 561.28,-540.01 552.8,-546.36 558.61,-550.26"/>
</g>
<!-- Node21 -->
<g id="node21" class="node">
<title>Node21</title>
<g id="a_node21"><a xlink:href="f__pc__profile_8h.html" target="_top" xlink:title=" ">
<polygon fill="white" stroke="black" points="751.5,-521 751.5,-540 852.5,-540 852.5,-521 751.5,-521"/>
<text text-anchor="middle" x="802" y="-528" font-family="Helvetica,sans-Serif" font-size="10.00">f/f_pc/f_pc_profile.h</text>
</a>
</g>
</g>
<!-- Node3&#45;&gt;Node21 -->
<g id="edge43" class="edge">
<title>Node3&#45;&gt;Node21</title>
<path fill="none" stroke="midnightblue" d="M566.4,-582.48C615.51,-571.85 699.47,-553.68 752.77,-542.15"/>
<polygon fill="midnightblue" stroke="midnightblue" points="753.64,-545.54 762.67,-540.01 752.16,-538.7 753.64,-545.54"/>
</g>
<!-- Node5 -->
<g id="node5" class="node">
<title>Node5</title>
<g id="a_node5"><a xlink:href="c__list_8h.html" target="_top" xlink:title=" ">
<polygon fill="white" stroke="black" points="372.5,-280.5 372.5,-299.5 479.5,-299.5 479.5,-280.5 372.5,-280.5"/>
<text text-anchor="middle" x="426" y="-287.5" font-family="Helvetica,sans-Serif" font-size="10.00">SComponent/c_list.h</text>
</a>
</g>
</g>
<!-- Node4&#45;&gt;Node5 -->
<g id="edge4" class="edge">
<title>Node4&#45;&gt;Node5</title>
<path fill="none" stroke="midnightblue" d="M474.81,-392.45C470.03,-379.89 460.58,-355.8 451,-336 446.53,-326.75 441.03,-316.73 436.33,-308.5"/>
<polygon fill="midnightblue" stroke="midnightblue" points="439.33,-306.7 431.28,-299.81 433.28,-310.21 439.33,-306.7"/>
</g>
<!-- Node6 -->
<g id="node6" class="node">
<title>Node6</title>
<g id="a_node6"><a xlink:href="c__node_8h.html" target="_top" xlink:title=" ">
<polygon fill="white" stroke="black" points="327.5,-224.5 327.5,-243.5 442.5,-243.5 442.5,-224.5 327.5,-224.5"/>
<text text-anchor="middle" x="385" y="-231.5" font-family="Helvetica,sans-Serif" font-size="10.00">SComponent/c_node.h</text>
</a>
</g>
</g>
<!-- Node4&#45;&gt;Node6 -->
<g id="edge17" class="edge">
<title>Node4&#45;&gt;Node6</title>
<path fill="none" stroke="midnightblue" d="M482.24,-392.19C491.82,-370.9 512.51,-315.79 489,-280 478.43,-263.91 460.74,-253.54 442.92,-246.88"/>
<polygon fill="midnightblue" stroke="midnightblue" points="443.64,-243.43 433.05,-243.54 441.4,-250.06 443.64,-243.43"/>
</g>
<!-- Node4&#45;&gt;Node7 -->
<g id="edge21" class="edge">
<title>Node4&#45;&gt;Node7</title>
<path fill="none" stroke="midnightblue" d="M485.52,-392.23C492.67,-383.53 503.28,-369.57 510,-356 536.95,-301.57 554.06,-231.18 561.19,-197.96"/>
<polygon fill="midnightblue" stroke="midnightblue" points="564.68,-198.35 563.29,-187.84 557.83,-196.92 564.68,-198.35"/>
</g>
<!-- Node14 -->
<g id="node14" class="node">
<title>Node14</title>
<g id="a_node14"><a xlink:href="c__tree_8h.html" target="_top" xlink:title=" ">
<polygon fill="white" stroke="black" points="332,-336.5 332,-355.5 442,-355.5 442,-336.5 332,-336.5"/>
<text text-anchor="middle" x="387" y="-343.5" font-family="Helvetica,sans-Serif" font-size="10.00">SComponent/c_tree.h</text>
</a>
</g>
</g>
<!-- Node4&#45;&gt;Node14 -->
<g id="edge18" class="edge">
<title>Node4&#45;&gt;Node14</title>
<path fill="none" stroke="midnightblue" d="M463.38,-392.32C449.05,-383.82 426.99,-370.73 410.25,-360.8"/>
<polygon fill="midnightblue" stroke="midnightblue" points="411.97,-357.75 401.58,-355.65 408.4,-363.77 411.97,-357.75"/>
</g>
<!-- Node5&#45;&gt;Node6 -->
<g id="edge5" class="edge">
<title>Node5&#45;&gt;Node6</title>
<path fill="none" stroke="midnightblue" d="M419.23,-280.08C413.44,-272.46 404.94,-261.26 397.86,-251.94"/>
<polygon fill="midnightblue" stroke="midnightblue" points="400.48,-249.6 391.64,-243.75 394.9,-253.83 400.48,-249.6"/>
</g>
<!-- Node6&#45;&gt;Node7 -->
<g id="edge6" class="edge">
<title>Node6&#45;&gt;Node7</title>
<path fill="none" stroke="midnightblue" d="M413.52,-224.44C445.05,-214.98 495.87,-199.74 529.85,-189.55"/>
<polygon fill="midnightblue" stroke="midnightblue" points="531.23,-192.78 539.81,-186.56 529.22,-186.08 531.23,-192.78"/>
</g>
<!-- Node7&#45;&gt;Node8 -->
<g id="edge7" class="edge">
<title>Node7&#45;&gt;Node8</title>
<path fill="none" stroke="midnightblue" d="M568.03,-168.3C574.79,-147.25 588.84,-92.63 567,-56 558.64,-41.97 544,-31.45 530.44,-24.12"/>
<polygon fill="midnightblue" stroke="midnightblue" points="531.83,-20.9 521.32,-19.55 528.7,-27.16 531.83,-20.9"/>
</g>
<!-- Node9 -->
<g id="node9" class="node">
<title>Node9</title>
<g id="a_node9"><a xlink:href="AR_8h.html" target="_top" xlink:title=" ">
<polygon fill="white" stroke="black" points="619.5,-56.5 619.5,-75.5 668.5,-75.5 668.5,-56.5 619.5,-56.5"/>
<text text-anchor="middle" x="644" y="-63.5" font-family="Helvetica,sans-Serif" font-size="10.00">ar/AR.h</text>
</a>
</g>
</g>
<!-- Node7&#45;&gt;Node9 -->
<g id="edge8" class="edge">
<title>Node7&#45;&gt;Node9</title>
<path fill="none" stroke="midnightblue" d="M573.48,-168.45C581.95,-159.69 595.1,-145.48 605,-132 616.17,-116.79 627.07,-98.22 634.49,-84.83"/>
<polygon fill="midnightblue" stroke="midnightblue" points="637.73,-86.19 639.44,-75.74 631.58,-82.85 637.73,-86.19"/>
</g>
<!-- Node10 -->
<g id="node10" class="node">
<title>Node10</title>
<g id="a_node10"><a xlink:href="ARQ_8h.html" target="_top" xlink:title=" ">
<polygon fill="white" stroke="black" points="386,-56.5 386,-75.5 442,-75.5 442,-56.5 386,-56.5"/>
<text text-anchor="middle" x="414" y="-63.5" font-family="Helvetica,sans-Serif" font-size="10.00">ar/ARQ.h</text>
</a>
</g>
</g>
<!-- Node7&#45;&gt;Node10 -->
<g id="edge10" class="edge">
<title>Node7&#45;&gt;Node10</title>
<path fill="none" stroke="midnightblue" d="M539.95,-175.09C510.59,-171.52 462.35,-161.28 434,-132 422.08,-119.68 417.24,-100.43 415.3,-86.07"/>
<polygon fill="midnightblue" stroke="midnightblue" points="418.75,-85.43 414.27,-75.83 411.78,-86.13 418.75,-85.43"/>
</g>
<!-- Node11 -->
<g id="node11" class="node">
<title>Node11</title>
<g id="a_node11"><a xlink:href="mwcc_8h.html" target="_top" xlink:title=" ">
<polygon fill="white" stroke="black" points="513,-112.5 513,-131.5 563,-131.5 563,-112.5 513,-112.5"/>
<text text-anchor="middle" x="538" y="-119.5" font-family="Helvetica,sans-Serif" font-size="10.00">mwcc.h</text>
</a>
</g>
</g>
<!-- Node7&#45;&gt;Node11 -->
<g id="edge12" class="edge">
<title>Node7&#45;&gt;Node11</title>
<path fill="none" stroke="midnightblue" d="M560.54,-168.08C556.85,-160.69 551.48,-149.95 546.91,-140.81"/>
<polygon fill="midnightblue" stroke="midnightblue" points="549.98,-139.13 542.38,-131.75 543.72,-142.26 549.98,-139.13"/>
</g>
<!-- Node12 -->
<g id="node12" class="node">
<title>Node12</title>
<g id="a_node12"><a xlink:href="OS_8h.html" target="_top" xlink:title=" ">
<polygon fill="white" stroke="black" points="443,-112.5 443,-131.5 495,-131.5 495,-112.5 443,-112.5"/>
<text text-anchor="middle" x="469" y="-119.5" font-family="Helvetica,sans-Serif" font-size="10.00">os/OS.h</text>
</a>
</g>
</g>
<!-- Node7&#45;&gt;Node12 -->
<g id="edge13" class="edge">
<title>Node7&#45;&gt;Node12</title>
<path fill="none" stroke="midnightblue" d="M549.58,-168.32C534.46,-159.82 511.18,-146.73 493.53,-136.8"/>
<polygon fill="midnightblue" stroke="midnightblue" points="494.82,-133.51 484.39,-131.65 491.39,-139.61 494.82,-133.51"/>
</g>
<!-- Node9&#45;&gt;Node8 -->
<g id="edge9" class="edge">
<title>Node9&#45;&gt;Node8</title>
<path fill="none" stroke="midnightblue" d="M621.02,-56.44C596.84,-47.44 558.58,-33.19 531.35,-23.05"/>
<polygon fill="midnightblue" stroke="midnightblue" points="532.46,-19.73 521.87,-19.52 530.02,-26.29 532.46,-19.73"/>
</g>
<!-- Node10&#45;&gt;Node8 -->
<g id="edge11" class="edge">
<title>Node10&#45;&gt;Node8</title>
<path fill="none" stroke="midnightblue" d="M427.66,-56.32C440.92,-47.9 461.27,-34.97 476.85,-25.07"/>
<polygon fill="midnightblue" stroke="midnightblue" points="478.81,-27.97 485.38,-19.65 475.06,-22.06 478.81,-27.97"/>
</g>
<!-- Node12&#45;&gt;Node8 -->
<g id="edge14" class="edge">
<title>Node12&#45;&gt;Node8</title>
<path fill="none" stroke="midnightblue" d="M471.35,-112.37C476.22,-94.54 487.46,-53.3 494.02,-29.27"/>
<polygon fill="midnightblue" stroke="midnightblue" points="497.4,-30.16 496.66,-19.59 490.65,-28.32 497.4,-30.16"/>
</g>
<!-- Node13 -->
<g id="node13" class="node">
<title>Node13</title>
<g id="a_node13"><a xlink:href="dvd_8h.html" target="_top" xlink:title=" ">
<polygon fill="white" stroke="black" points="498.5,-56.5 498.5,-75.5 557.5,-75.5 557.5,-56.5 498.5,-56.5"/>
<text text-anchor="middle" x="528" y="-63.5" font-family="Helvetica,sans-Serif" font-size="10.00">dvd/dvd.h</text>
</a>
</g>
</g>
<!-- Node12&#45;&gt;Node13 -->
<g id="edge15" class="edge">
<title>Node12&#45;&gt;Node13</title>
<path fill="none" stroke="midnightblue" d="M478.48,-112.32C487.2,-104.34 500.34,-92.31 510.9,-82.65"/>
<polygon fill="midnightblue" stroke="midnightblue" points="513.33,-85.17 518.35,-75.83 508.61,-80 513.33,-85.17"/>
</g>
<!-- Node13&#45;&gt;Node8 -->
<g id="edge16" class="edge">
<title>Node13&#45;&gt;Node8</title>
<path fill="none" stroke="midnightblue" d="M523.21,-56.08C519.24,-48.69 513.47,-37.95 508.57,-28.81"/>
<polygon fill="midnightblue" stroke="midnightblue" points="511.51,-26.91 503.7,-19.75 505.35,-30.22 511.51,-26.91"/>
</g>
<!-- Node14&#45;&gt;Node5 -->
<g id="edge19" class="edge">
<title>Node14&#45;&gt;Node5</title>
<path fill="none" stroke="midnightblue" d="M393.44,-336.08C398.95,-328.46 407.03,-317.26 413.76,-307.94"/>
<polygon fill="midnightblue" stroke="midnightblue" points="416.66,-309.91 419.68,-299.75 410.99,-305.81 416.66,-309.91"/>
</g>
<!-- Node14&#45;&gt;Node6 -->
<g id="edge20" class="edge">
<title>Node14&#45;&gt;Node6</title>
<path fill="none" stroke="midnightblue" d="M380.9,-336.19C375.25,-327.46 367.24,-313.48 364,-300 360.06,-283.65 366.94,-265.46 373.85,-252.49"/>
<polygon fill="midnightblue" stroke="midnightblue" points="376.95,-254.11 378.96,-243.71 370.91,-250.59 376.95,-254.11"/>
</g>
<!-- Node15&#45;&gt;Node4 -->
<g id="edge24" class="edge">
<title>Node15&#45;&gt;Node4</title>
<path fill="none" stroke="midnightblue" d="M410.83,-515.27C411.22,-498.2 413.85,-469.23 426,-448 432.95,-435.86 444.43,-425.4 454.84,-417.63"/>
<polygon fill="midnightblue" stroke="midnightblue" points="457.04,-420.37 463.21,-411.76 453.02,-414.64 457.04,-420.37"/>
</g>
<!-- Node15&#45;&gt;Node7 -->
<g id="edge30" class="edge">
<title>Node15&#45;&gt;Node7</title>
<path fill="none" stroke="midnightblue" d="M434.78,-515.42C464.93,-496.17 516,-458.66 541,-412 579.26,-340.57 572.5,-239.17 567.62,-197.73"/>
<polygon fill="midnightblue" stroke="midnightblue" points="571.08,-197.18 566.34,-187.71 564.14,-198.08 571.08,-197.18"/>
</g>
<!-- Node15&#45;&gt;Node16 -->
<g id="edge25" class="edge">
<title>Node15&#45;&gt;Node16</title>
<path fill="none" stroke="midnightblue" d="M384.31,-515.4C363.11,-504.19 333.68,-488.64 312.95,-477.69"/>
<polygon fill="midnightblue" stroke="midnightblue" points="314.57,-474.58 304.1,-473.01 311.3,-480.77 314.57,-474.58"/>
</g>
<!-- Node16&#45;&gt;Node4 -->
<g id="edge27" class="edge">
<title>Node16&#45;&gt;Node4</title>
<path fill="none" stroke="midnightblue" d="M315.22,-453.98C348.24,-443.64 404.04,-426.16 440.95,-414.6"/>
<polygon fill="midnightblue" stroke="midnightblue" points="442.33,-417.84 450.83,-411.51 440.24,-411.16 442.33,-417.84"/>
</g>
<!-- Node16&#45;&gt;Node6 -->
<g id="edge26" class="edge">
<title>Node16&#45;&gt;Node6</title>
<path fill="none" stroke="midnightblue" d="M289.51,-453.93C293.35,-433.11 304.55,-378.42 323,-336 336.67,-304.56 358.81,-271.27 372.6,-251.84"/>
<polygon fill="midnightblue" stroke="midnightblue" points="375.45,-253.88 378.46,-243.72 369.77,-249.79 375.45,-253.88"/>
</g>
<!-- Node16&#45;&gt;Node7 -->
<g id="edge29" class="edge">
<title>Node16&#45;&gt;Node7</title>
<path fill="none" stroke="midnightblue" d="M285.89,-453.61C278.2,-418.76 255.33,-290.21 319,-224 347.46,-194.41 468.15,-183.98 529.25,-180.55"/>
<polygon fill="midnightblue" stroke="midnightblue" points="529.78,-184.03 539.58,-180 529.41,-177.04 529.78,-184.03"/>
</g>
<!-- Node16&#45;&gt;Node14 -->
<g id="edge28" class="edge">
<title>Node16&#45;&gt;Node14</title>
<path fill="none" stroke="midnightblue" d="M295.44,-453.82C311.85,-434.67 351.39,-388.54 372.75,-363.63"/>
<polygon fill="midnightblue" stroke="midnightblue" points="375.62,-365.65 379.47,-355.78 370.31,-361.1 375.62,-365.65"/>
</g>
<!-- Node17&#45;&gt;Node4 -->
<g id="edge32" class="edge">
<title>Node17&#45;&gt;Node4</title>
<path fill="none" stroke="midnightblue" d="M301.06,-520.81C333.27,-499.36 416.77,-443.76 456.45,-417.35"/>
<polygon fill="midnightblue" stroke="midnightblue" points="458.72,-420.04 465.1,-411.59 454.84,-414.22 458.72,-420.04"/>
</g>
<!-- Node17&#45;&gt;Node7 -->
<g id="edge34" class="edge">
<title>Node17&#45;&gt;Node7</title>
<path fill="none" stroke="midnightblue" d="M232.58,-520.99C169.76,-507.83 76,-475.97 76,-403 76,-403 76,-403 76,-289 76,-195.96 417.24,-181.6 529.6,-179.4"/>
<polygon fill="midnightblue" stroke="midnightblue" points="529.8,-182.89 539.74,-179.22 529.68,-175.9 529.8,-182.89"/>
</g>
<!-- Node17&#45;&gt;Node16 -->
<g id="edge33" class="edge">
<title>Node17&#45;&gt;Node16</title>
<path fill="none" stroke="midnightblue" d="M288,-520.73C288,-511.18 288,-495.62 288,-483.28"/>
<polygon fill="midnightblue" stroke="midnightblue" points="291.5,-483.13 288,-473.13 284.5,-483.13 291.5,-483.13"/>
</g>
<!-- Node18&#45;&gt;Node4 -->
<g id="edge36" class="edge">
<title>Node18&#45;&gt;Node4</title>
<path fill="none" stroke="midnightblue" d="M684.47,-453.98C641.79,-443.44 569.08,-425.49 522.32,-413.94"/>
<polygon fill="midnightblue" stroke="midnightblue" points="523.01,-410.51 512.47,-411.51 521.33,-417.3 523.01,-410.51"/>
</g>
<!-- Node18&#45;&gt;Node7 -->
<g id="edge37" class="edge">
<title>Node18&#45;&gt;Node7</title>
<path fill="none" stroke="midnightblue" d="M715.83,-453.94C709.11,-434.97 694,-387.83 694,-347 694,-347 694,-347 694,-289 694,-239.42 638.15,-207.46 599.95,-191.4"/>
<polygon fill="midnightblue" stroke="midnightblue" points="600.76,-187.96 590.18,-187.48 598.15,-194.45 600.76,-187.96"/>
</g>
<!-- Node19&#45;&gt;Node4 -->
<g id="edge39" class="edge">
<title>Node19&#45;&gt;Node4</title>
<path fill="none" stroke="midnightblue" d="M560.88,-520.81C546.28,-500.04 509.15,-447.27 489.93,-419.96"/>
<polygon fill="midnightblue" stroke="midnightblue" points="492.78,-417.92 484.16,-411.76 487.05,-421.95 492.78,-417.92"/>
</g>
<!-- Node20 -->
<g id="node20" class="node">
<title>Node20</title>
<g id="a_node20"><a xlink:href="f__pc__method__tag_8h.html" target="_top" xlink:title=" ">
<polygon fill="white" stroke="black" points="544.5,-448.5 544.5,-478.5 645.5,-478.5 645.5,-448.5 544.5,-448.5"/>
<text text-anchor="start" x="552.5" y="-466.5" font-family="Helvetica,sans-Serif" font-size="10.00">f/f_pc/f_pc_method</text>
<text text-anchor="middle" x="595" y="-455.5" font-family="Helvetica,sans-Serif" font-size="10.00">_tag.h</text>
</a>
</g>
</g>
<!-- Node19&#45;&gt;Node20 -->
<g id="edge40" class="edge">
<title>Node19&#45;&gt;Node20</title>
<path fill="none" stroke="midnightblue" d="M570.78,-520.73C574.38,-512.37 579.97,-499.4 584.87,-488.02"/>
<polygon fill="midnightblue" stroke="midnightblue" points="588.19,-489.16 588.93,-478.59 581.76,-486.39 588.19,-489.16"/>
</g>
<!-- Node20&#45;&gt;Node4 -->
<g id="edge41" class="edge">
<title>Node20&#45;&gt;Node4</title>
<path fill="none" stroke="midnightblue" d="M567.27,-448.4C548.17,-438.68 522.94,-425.86 504.18,-416.31"/>
<polygon fill="midnightblue" stroke="midnightblue" points="505.52,-413.07 495.02,-411.66 502.35,-419.31 505.52,-413.07"/>
</g>
<!-- Node20&#45;&gt;Node7 -->
<g id="edge42" class="edge">
<title>Node20&#45;&gt;Node7</title>
<path fill="none" stroke="midnightblue" d="M600.59,-448.17C608.5,-426.58 622,-384.27 622,-347 622,-347 622,-347 622,-289 622,-252.3 596.68,-215.66 579.79,-195.3"/>
<polygon fill="midnightblue" stroke="midnightblue" points="582.35,-192.9 573.17,-187.62 577.05,-197.48 582.35,-192.9"/>
</g>
<!-- Node21&#45;&gt;Node7 -->
<g id="edge46" class="edge">
<title>Node21&#45;&gt;Node7</title>
<path fill="none" stroke="midnightblue" d="M802,-520.91C802,-500.48 802,-447.36 802,-403 802,-403 802,-403 802,-289 802,-201.34 666.96,-183.34 600.75,-179.79"/>
<polygon fill="midnightblue" stroke="midnightblue" points="600.51,-176.27 590.36,-179.32 600.19,-183.27 600.51,-176.27"/>
</g>
<!-- Node21&#45;&gt;Node22 -->
<g id="edge44" class="edge">
<title>Node21&#45;&gt;Node22</title>
<path fill="none" stroke="midnightblue" d="M813.06,-520.73C826.34,-510.21 848.83,-492.38 864.93,-479.62"/>
<polygon fill="midnightblue" stroke="midnightblue" points="867.45,-482.08 873.12,-473.13 863.11,-476.6 867.45,-482.08"/>
</g>
<!-- Node22&#45;&gt;Node7 -->
<g id="edge45" class="edge">
<title>Node22&#45;&gt;Node7</title>
<path fill="none" stroke="midnightblue" d="M881.21,-453.91C875.29,-434.88 862,-387.62 862,-347 862,-347 862,-347 862,-289 862,-253.61 845.87,-242.98 816,-224 780.75,-201.6 661.12,-187.77 600.64,-182.05"/>
<polygon fill="midnightblue" stroke="midnightblue" points="600.69,-178.54 590.41,-181.11 600.05,-185.51 600.69,-178.54"/>
</g>
<!-- Node23&#45;&gt;Node7 -->
<g id="edge54" class="edge">
<title>Node23&#45;&gt;Node7</title>
<path fill="none" stroke="midnightblue" d="M105.8,-520.83C84.66,-501.82 38,-454.09 38,-403 38,-403 38,-403 38,-289 38,-247.19 68,-241.44 106,-224 181.41,-189.39 435.58,-181.32 529.62,-179.51"/>
<polygon fill="midnightblue" stroke="midnightblue" points="529.83,-183.01 539.77,-179.33 529.7,-176.01 529.83,-183.01"/>
</g>
<!-- Node23&#45;&gt;Node16 -->
<g id="edge53" class="edge">
<title>Node23&#45;&gt;Node16</title>
<path fill="none" stroke="midnightblue" d="M138.84,-520.87C168.87,-509.52 221.78,-489.52 255.84,-476.65"/>
<polygon fill="midnightblue" stroke="midnightblue" points="257.22,-479.87 265.34,-473.06 254.75,-473.32 257.22,-479.87"/>
</g>
<!-- Node24 -->
<g id="node24" class="node">
<title>Node24</title>
<g id="a_node24"><a xlink:href="c__node__iter_8h.html" target="_top" xlink:title=" ">
<polygon fill="white" stroke="black" points="104,-392.5 104,-411.5 238,-411.5 238,-392.5 104,-392.5"/>
<text text-anchor="middle" x="171" y="-399.5" font-family="Helvetica,sans-Serif" font-size="10.00">SComponent/c_node_iter.h</text>
</a>
</g>
</g>
<!-- Node23&#45;&gt;Node24 -->
<g id="edge51" class="edge">
<title>Node23&#45;&gt;Node24</title>
<path fill="none" stroke="midnightblue" d="M119.78,-520.81C128.69,-500.31 151.15,-448.65 163.16,-421.04"/>
<polygon fill="midnightblue" stroke="midnightblue" points="166.42,-422.32 167.19,-411.76 160,-419.53 166.42,-422.32"/>
</g>
<!-- Node24&#45;&gt;Node6 -->
<g id="edge52" class="edge">
<title>Node24&#45;&gt;Node6</title>
<path fill="none" stroke="midnightblue" d="M177.67,-392.36C194.53,-370.99 241.01,-314.83 290,-280 309,-266.49 332.69,-255.26 351.66,-247.4"/>
<polygon fill="midnightblue" stroke="midnightblue" points="353.13,-250.58 361.1,-243.6 350.52,-244.08 353.13,-250.58"/>
</g>
</g>
</svg>
        <g id="navigator" transform="translate(0 0)" fill="#404254">
                <rect fill="#f2f5e9" fill-opacity="0.5" stroke="#606060" stroke-width=".5" x="0" y="0" width="60" height="60"/>
                <use id="zoomplus" xlink:href="#zoomPlus" x="17" y="9" onmousedown="handleZoom(evt,'in')"/>
                <use id="zoomminus" xlink:href="#zoomMin" x="42" y="9" onmousedown="handleZoom(evt,'out')"/>
                <use id="reset" xlink:href="#resetDef" x="30" y="36" onmousedown="handleReset()"/>
                <g id="arrowUp" xlink:href="#dirArrow" transform="translate(30 24)" onmousedown="handlePan(0,-1)">
                  <use xlink:href="#rim" fill="#404040">
                        <set attributeName="fill" to="#808080" begin="arrowUp.mouseover" end="arrowUp.mouseout"/>
                  </use>
                  <path fill="none" stroke="white" stroke-width="1.5" d="M0,-3.0v7 M-2.5,-0.5L0,-3.0L2.5,-0.5"/>
                </g>
                <g id="arrowRight" xlink:href="#dirArrow" transform="rotate(90) translate(36 -43)" onmousedown="handlePan(1,0)">
                  <use xlink:href="#rim" fill="#404040">
                        <set attributeName="fill" to="#808080" begin="arrowRight.mouseover" end="arrowRight.mouseout"/>
                  </use>
                  <path fill="none" stroke="white" stroke-width="1.5" d="M0,-3.0v7 M-2.5,-0.5L0,-3.0L2.5,-0.5"/>
                </g>
                <g id="arrowDown" xlink:href="#dirArrow" transform="rotate(180) translate(-30 -48)" onmousedown="handlePan(0,1)">
                  <use xlink:href="#rim" fill="#404040">
                        <set attributeName="fill" to="#808080" begin="arrowDown.mouseover" end="arrowDown.mouseout"/>
                  </use>
                  <path fill="none" stroke="white" stroke-width="1.5" d="M0,-3.0v7 M-2.5,-0.5L0,-3.0L2.5,-0.5"/>
                </g>
                <g id="arrowLeft" xlink:href="#dirArrow" transform="rotate(270) translate(-36 17)" onmousedown="handlePan(-1,0)">
                  <use xlink:href="#rim" fill="#404040">
                        <set attributeName="fill" to="#808080" begin="arrowLeft.mouseover" end="arrowLeft.mouseout"/>
                  </use>
                  <path fill="none" stroke="white" stroke-width="1.5" d="M0,-3.0v7 M-2.5,-0.5L0,-3.0L2.5,-0.5"/>
                </g>
        </g>
        <svg viewBox="0 0 15 15" width="100%" height="30px" preserveAspectRatio="xMaxYMin meet">
         <g id="arrow_out" transform="scale(0.3 0.3)">
          <a xlink:href="f__pc__node_8cpp__incl_org.svg" target="_base">
           <rect id="button" ry="5" rx="5" y="6" x="6" height="38" width="38"
                fill="#f2f5e9" fill-opacity="0.5" stroke="#606060" stroke-width="1.0"/>
           <path id="arrow"
             d="M 11.500037,31.436501 C 11.940474,20.09759 22.043105,11.32322 32.158766,21.979434 L 37.068811,17.246167 C 37.068811,17.246167 37.088388,32 37.088388,32 L 22.160133,31.978069 C 22.160133,31.978069 26.997745,27.140456 26.997745,27.140456 C 18.528582,18.264221 13.291696,25.230495 11.500037,31.436501 z"
             style="fill:#404040;"/>
          </a>
         </g>
        </svg>
</svg>
