<?xml version="1.0" encoding="UTF-8" standalone="no"?>
<!DOCTYPE svg PUBLIC "-//W3C//DTD SVG 1.1//EN"
 "http://www.w3.org/Graphics/SVG/1.1/DTD/svg11.dtd">
<!-- Generated by graphviz version 2.44.0 ()
 -->
<!-- Title: include/f/f_pc/f_pc_create_iter.h Pages: 1 -->
<svg width="1365pt" height="296pt"
 viewBox="0.00 0.00 1365.00 296.00" xmlns="http://www.w3.org/2000/svg" xmlns:xlink="http://www.w3.org/1999/xlink">
<g id="graph0" class="graph" transform="scale(1 1) rotate(0) translate(4 292)">
<title>include/f/f_pc/f_pc_create_iter.h</title>
<polygon fill="white" stroke="transparent" points="-4,4 -4,-292 1361,-292 1361,4 -4,4"/>
<!-- Node1 -->
<g id="node1" class="node">
<title>Node1</title>
<g id="a_node1"><a xlink:title=" ">
<polygon fill="#bfbfbf" stroke="black" points="179.5,-257.5 179.5,-287.5 276.5,-287.5 276.5,-257.5 179.5,-257.5"/>
<text text-anchor="start" x="187.5" y="-275.5" font-family="Helvetica,sans-Serif" font-size="10.00">include/f/f_pc/f_pc</text>
<text text-anchor="middle" x="228" y="-264.5" font-family="Helvetica,sans-Serif" font-size="10.00">_create_iter.h</text>
</a>
</g>
</g>
<!-- Node2 -->
<g id="node2" class="node">
<title>Node2</title>
<g id="a_node2"><a xlink:href="f__pc__create__iter_8cpp.html" target="_top" xlink:title=" ">
<polygon fill="white" stroke="black" points="0,-190.5 0,-220.5 112,-220.5 112,-190.5 0,-190.5"/>
<text text-anchor="start" x="8" y="-208.5" font-family="Helvetica,sans-Serif" font-size="10.00">src/f/f_pc/f_pc_create</text>
<text text-anchor="middle" x="56" y="-197.5" font-family="Helvetica,sans-Serif" font-size="10.00">_iter.cpp</text>
</a>
</g>
</g>
<!-- Node1&#45;&gt;Node2 -->
<g id="edge1" class="edge">
<title>Node1&#45;&gt;Node2</title>
<path fill="none" stroke="midnightblue" d="M181.21,-253.82C153.57,-243.37 119.04,-230.32 93.25,-220.58"/>
<polygon fill="midnightblue" stroke="midnightblue" points="180.09,-257.13 190.68,-257.4 182.56,-250.59 180.09,-257.13"/>
</g>
<!-- Node3 -->
<g id="node3" class="node">
<title>Node3</title>
<g id="a_node3"><a xlink:href="f__pc__create__req_8cpp.html" target="_top" xlink:title=" ">
<polygon fill="white" stroke="black" points="130,-190.5 130,-220.5 242,-220.5 242,-190.5 130,-190.5"/>
<text text-anchor="start" x="138" y="-208.5" font-family="Helvetica,sans-Serif" font-size="10.00">src/f/f_pc/f_pc_create</text>
<text text-anchor="middle" x="186" y="-197.5" font-family="Helvetica,sans-Serif" font-size="10.00">_req.cpp</text>
</a>
</g>
</g>
<!-- Node1&#45;&gt;Node3 -->
<g id="edge2" class="edge">
<title>Node1&#45;&gt;Node3</title>
<path fill="none" stroke="midnightblue" d="M213.38,-248.87C207.3,-239.46 200.43,-228.83 195.1,-220.58"/>
<polygon fill="midnightblue" stroke="midnightblue" points="210.52,-250.9 218.89,-257.4 216.4,-247.1 210.52,-250.9"/>
</g>
<!-- Node4 -->
<g id="node4" class="node">
<title>Node4</title>
<g id="a_node4"><a xlink:href="f__pc__manager_8cpp.html" target="_top" xlink:title=" ">
<polygon fill="white" stroke="black" points="85,-129 85,-148 225,-148 225,-129 85,-129"/>
<text text-anchor="middle" x="155" y="-136" font-family="Helvetica,sans-Serif" font-size="10.00">src/f/f_pc/f_pc_manager.cpp</text>
</a>
</g>
</g>
<!-- Node1&#45;&gt;Node4 -->
<g id="edge3" class="edge">
<title>Node1&#45;&gt;Node4</title>
<path fill="none" stroke="midnightblue" d="M243.75,-248.56C253.37,-231.46 261.9,-208.05 251,-190 237.86,-168.24 211.88,-155.38 190.26,-148.1"/>
<polygon fill="midnightblue" stroke="midnightblue" points="240.62,-246.97 238.42,-257.33 246.6,-250.6 240.62,-246.97"/>
</g>
<!-- Node5 -->
<g id="node5" class="node">
<title>Node5</title>
<g id="a_node5"><a xlink:href="f__pc__manager_8h.html" target="_top" xlink:title=" ">
<polygon fill="white" stroke="black" points="414.5,-190.5 414.5,-220.5 511.5,-220.5 511.5,-190.5 414.5,-190.5"/>
<text text-anchor="start" x="422.5" y="-208.5" font-family="Helvetica,sans-Serif" font-size="10.00">include/f/f_pc/f_pc</text>
<text text-anchor="middle" x="463" y="-197.5" font-family="Helvetica,sans-Serif" font-size="10.00">_manager.h</text>
</a>
</g>
</g>
<!-- Node1&#45;&gt;Node5 -->
<g id="edge4" class="edge">
<title>Node1&#45;&gt;Node5</title>
<path fill="none" stroke="midnightblue" d="M286.43,-255.34C325.83,-244.44 377.21,-230.23 414.37,-219.95"/>
<polygon fill="midnightblue" stroke="midnightblue" points="285.4,-251.99 276.69,-258.03 287.26,-258.74 285.4,-251.99"/>
</g>
<!-- Node5&#45;&gt;Node4 -->
<g id="edge11" class="edge">
<title>Node5&#45;&gt;Node4</title>
<path fill="none" stroke="midnightblue" d="M404.31,-192.11C343.21,-179.22 249.11,-159.36 195.71,-148.09"/>
<polygon fill="midnightblue" stroke="midnightblue" points="403.69,-195.56 414.2,-194.2 405.13,-188.71 403.69,-195.56"/>
</g>
<!-- Node6 -->
<g id="node6" class="node">
<title>Node6</title>
<g id="a_node6"><a xlink:href="f__ap__game_8cpp.html" target="_top" xlink:title=" ">
<polygon fill="white" stroke="black" points="243.5,-129 243.5,-148 348.5,-148 348.5,-129 243.5,-129"/>
<text text-anchor="middle" x="296" y="-136" font-family="Helvetica,sans-Serif" font-size="10.00">src/f/f_ap_game.cpp</text>
</a>
</g>
</g>
<!-- Node5&#45;&gt;Node6 -->
<g id="edge5" class="edge">
<title>Node5&#45;&gt;Node6</title>
<path fill="none" stroke="midnightblue" d="M417.07,-186.62C384.74,-174.04 342.93,-157.77 317.86,-148.01"/>
<polygon fill="midnightblue" stroke="midnightblue" points="416.17,-190.03 426.76,-190.4 418.71,-183.51 416.17,-190.03"/>
</g>
<!-- Node7 -->
<g id="node7" class="node">
<title>Node7</title>
<g id="a_node7"><a xlink:href="d__a__alink_8cpp.html" target="_top" xlink:title=" ">
<polygon fill="white" stroke="black" points="430.5,-62 430.5,-81 549.5,-81 549.5,-62 430.5,-62"/>
<text text-anchor="middle" x="490" y="-69" font-family="Helvetica,sans-Serif" font-size="10.00">src/d/d_a/d_a_alink.cpp</text>
</a>
</g>
</g>
<!-- Node5&#45;&gt;Node7 -->
<g id="edge6" class="edge">
<title>Node5&#45;&gt;Node7</title>
<path fill="none" stroke="midnightblue" d="M424.66,-184.75C413.32,-176.83 402.27,-166.57 396,-154 389.85,-141.67 388.93,-134.83 396,-123 408.93,-101.38 434.65,-88.48 455.92,-81.13"/>
<polygon fill="midnightblue" stroke="midnightblue" points="423.02,-187.85 433.31,-190.34 426.81,-181.97 423.02,-187.85"/>
</g>
<!-- Node8 -->
<g id="node8" class="node">
<title>Node8</title>
<g id="a_node8"><a xlink:href="f__op__kankyo__mng_8cpp.html" target="_top" xlink:title=" ">
<polygon fill="white" stroke="black" points="405,-123.5 405,-153.5 521,-153.5 521,-123.5 405,-123.5"/>
<text text-anchor="start" x="413" y="-141.5" font-family="Helvetica,sans-Serif" font-size="10.00">src/f/f_op/f_op_kankyo</text>
<text text-anchor="middle" x="463" y="-130.5" font-family="Helvetica,sans-Serif" font-size="10.00">_mng.cpp</text>
</a>
</g>
</g>
<!-- Node5&#45;&gt;Node8 -->
<g id="edge7" class="edge">
<title>Node5&#45;&gt;Node8</title>
<path fill="none" stroke="midnightblue" d="M463,-180.11C463,-171.15 463,-161.32 463,-153.58"/>
<polygon fill="midnightblue" stroke="midnightblue" points="459.5,-180.4 463,-190.4 466.5,-180.4 459.5,-180.4"/>
</g>
<!-- Node9 -->
<g id="node9" class="node">
<title>Node9</title>
<g id="a_node9"><a xlink:href="f__op__msg__mng_8cpp.html" target="_top" xlink:title=" ">
<polygon fill="white" stroke="black" points="539,-123.5 539,-153.5 643,-153.5 643,-123.5 539,-123.5"/>
<text text-anchor="start" x="547" y="-141.5" font-family="Helvetica,sans-Serif" font-size="10.00">src/f/f_op/f_op_msg</text>
<text text-anchor="middle" x="591" y="-130.5" font-family="Helvetica,sans-Serif" font-size="10.00">_mng.cpp</text>
</a>
</g>
</g>
<!-- Node5&#45;&gt;Node9 -->
<g id="edge8" class="edge">
<title>Node5&#45;&gt;Node9</title>
<path fill="none" stroke="midnightblue" d="M499.72,-185.85C519.96,-175.58 544.67,-163.03 563.28,-153.58"/>
<polygon fill="midnightblue" stroke="midnightblue" points="498.11,-182.75 490.77,-190.4 501.28,-188.99 498.11,-182.75"/>
</g>
<!-- Node10 -->
<g id="node10" class="node">
<title>Node10</title>
<g id="a_node10"><a xlink:href="f__op__overlap__req_8cpp.html" target="_top" xlink:title=" ">
<polygon fill="white" stroke="black" points="661,-123.5 661,-153.5 777,-153.5 777,-123.5 661,-123.5"/>
<text text-anchor="start" x="669" y="-141.5" font-family="Helvetica,sans-Serif" font-size="10.00">src/f/f_op/f_op_overlap</text>
<text text-anchor="middle" x="719" y="-130.5" font-family="Helvetica,sans-Serif" font-size="10.00">_req.cpp</text>
</a>
</g>
</g>
<!-- Node5&#45;&gt;Node10 -->
<g id="edge9" class="edge">
<title>Node5&#45;&gt;Node10</title>
<path fill="none" stroke="midnightblue" d="M521.46,-189.66C564.2,-178.81 621.79,-164.18 663.76,-153.53"/>
<polygon fill="midnightblue" stroke="midnightblue" points="520.59,-186.27 511.75,-192.12 522.31,-193.05 520.59,-186.27"/>
</g>
<!-- Node11 -->
<g id="node11" class="node">
<title>Node11</title>
<g id="a_node11"><a xlink:href="f__op__scene__pause_8cpp.html" target="_top" xlink:title=" ">
<polygon fill="white" stroke="black" points="795.5,-123.5 795.5,-153.5 906.5,-153.5 906.5,-123.5 795.5,-123.5"/>
<text text-anchor="start" x="803.5" y="-141.5" font-family="Helvetica,sans-Serif" font-size="10.00">src/f/f_op/f_op_scene</text>
<text text-anchor="middle" x="851" y="-130.5" font-family="Helvetica,sans-Serif" font-size="10.00">_pause.cpp</text>
</a>
</g>
</g>
<!-- Node5&#45;&gt;Node11 -->
<g id="edge10" class="edge">
<title>Node5&#45;&gt;Node11</title>
<path fill="none" stroke="midnightblue" d="M521.63,-196.49C586.5,-187.36 694.03,-171.43 786,-154 789.07,-153.42 792.21,-152.8 795.38,-152.15"/>
<polygon fill="midnightblue" stroke="midnightblue" points="521.01,-193.04 511.6,-197.9 521.99,-199.98 521.01,-193.04"/>
</g>
<!-- Node12 -->
<g id="node12" class="node">
<title>Node12</title>
<g id="a_node12"><a xlink:href="f__op__actor__mng_8h.html" target="_top" xlink:title=" ">
<polygon fill="white" stroke="black" points="924.5,-123.5 924.5,-153.5 1021.5,-153.5 1021.5,-123.5 924.5,-123.5"/>
<text text-anchor="start" x="932.5" y="-141.5" font-family="Helvetica,sans-Serif" font-size="10.00">include/f/f_op/f_op</text>
<text text-anchor="middle" x="973" y="-130.5" font-family="Helvetica,sans-Serif" font-size="10.00">_actor_mng.h</text>
</a>
</g>
</g>
<!-- Node5&#45;&gt;Node12 -->
<g id="edge12" class="edge">
<title>Node5&#45;&gt;Node12</title>
<path fill="none" stroke="midnightblue" d="M521.97,-200.44C608.6,-193.91 775.17,-179.17 915,-154 918.06,-153.45 921.21,-152.83 924.37,-152.16"/>
<polygon fill="midnightblue" stroke="midnightblue" points="521.52,-196.97 511.8,-201.2 522.04,-203.95 521.52,-196.97"/>
</g>
<!-- Node12&#45;&gt;Node7 -->
<g id="edge17" class="edge">
<title>Node12&#45;&gt;Node7</title>
<path fill="none" stroke="midnightblue" d="M914.5,-123.06C779.92,-98.7 743.51,-102.63 612,-87 591.67,-84.58 569.43,-81.94 549.57,-79.58"/>
<polygon fill="midnightblue" stroke="midnightblue" points="913.9,-126.51 924.36,-124.87 915.16,-119.62 913.9,-126.51"/>
</g>
<!-- Node13 -->
<g id="node13" class="node">
<title>Node13</title>
<g id="a_node13"><a xlink:href="d__attention_8cpp.html" target="_top" xlink:title=" ">
<polygon fill="white" stroke="black" points="621.5,-62 621.5,-81 728.5,-81 728.5,-62 621.5,-62"/>
<text text-anchor="middle" x="675" y="-69" font-family="Helvetica,sans-Serif" font-size="10.00">src/d/d_attention.cpp</text>
</a>
</g>
</g>
<!-- Node12&#45;&gt;Node13 -->
<g id="edge13" class="edge">
<title>Node12&#45;&gt;Node13</title>
<path fill="none" stroke="midnightblue" d="M914.29,-122.9C834.59,-105.1 812.78,-103.52 737,-87 728.47,-85.14 719.3,-83.05 710.69,-81.04"/>
<polygon fill="midnightblue" stroke="midnightblue" points="913.78,-126.38 924.3,-125.16 915.32,-119.55 913.78,-126.38"/>
</g>
<!-- Node14 -->
<g id="node14" class="node">
<title>Node14</title>
<g id="a_node14"><a xlink:href="d__camera_8cpp.html" target="_top" xlink:title=" ">
<polygon fill="white" stroke="black" points="746,-62 746,-81 848,-81 848,-62 746,-62"/>
<text text-anchor="middle" x="797" y="-69" font-family="Helvetica,sans-Serif" font-size="10.00">src/d/d_camera.cpp</text>
</a>
</g>
</g>
<!-- Node12&#45;&gt;Node14 -->
<g id="edge14" class="edge">
<title>Node12&#45;&gt;Node14</title>
<path fill="none" stroke="midnightblue" d="M925.03,-119.78C890.9,-107.18 846.57,-90.81 820.03,-81.01"/>
<polygon fill="midnightblue" stroke="midnightblue" points="924.22,-123.21 934.81,-123.4 926.64,-116.65 924.22,-123.21"/>
</g>
<!-- Node15 -->
<g id="node15" class="node">
<title>Node15</title>
<g id="a_node15"><a xlink:href="d__stage_8cpp.html" target="_top" xlink:title=" ">
<polygon fill="white" stroke="black" points="866,-62 866,-81 960,-81 960,-62 866,-62"/>
<text text-anchor="middle" x="913" y="-69" font-family="Helvetica,sans-Serif" font-size="10.00">src/d/d_stage.cpp</text>
</a>
</g>
</g>
<!-- Node12&#45;&gt;Node15 -->
<g id="edge15" class="edge">
<title>Node12&#45;&gt;Node15</title>
<path fill="none" stroke="midnightblue" d="M953.15,-116C942.2,-104.13 929.2,-90.05 921.03,-81.19"/>
<polygon fill="midnightblue" stroke="midnightblue" points="950.63,-118.42 959.98,-123.4 955.77,-113.67 950.63,-118.42"/>
</g>
<!-- Node16 -->
<g id="node16" class="node">
<title>Node16</title>
<g id="a_node16"><a xlink:href="f__op__actor__mng_8cpp.html" target="_top" xlink:title=" ">
<polygon fill="white" stroke="black" points="978.5,-56.5 978.5,-86.5 1085.5,-86.5 1085.5,-56.5 978.5,-56.5"/>
<text text-anchor="start" x="986.5" y="-74.5" font-family="Helvetica,sans-Serif" font-size="10.00">src/f/f_op/f_op_actor</text>
<text text-anchor="middle" x="1032" y="-63.5" font-family="Helvetica,sans-Serif" font-size="10.00">_mng.cpp</text>
</a>
</g>
</g>
<!-- Node12&#45;&gt;Node16 -->
<g id="edge16" class="edge">
<title>Node12&#45;&gt;Node16</title>
<path fill="none" stroke="midnightblue" d="M992.75,-115.74C1001.48,-106.12 1011.5,-95.09 1019.22,-86.58"/>
<polygon fill="midnightblue" stroke="midnightblue" points="989.93,-113.64 985.8,-123.4 995.11,-118.34 989.93,-113.64"/>
</g>
<!-- Node17 -->
<g id="node17" class="node">
<title>Node17</title>
<g id="a_node17"><a xlink:href="m__Do__main_8cpp.html" target="_top" xlink:title=" ">
<polygon fill="white" stroke="black" points="1103.5,-62 1103.5,-81 1234.5,-81 1234.5,-62 1103.5,-62"/>
<text text-anchor="middle" x="1169" y="-69" font-family="Helvetica,sans-Serif" font-size="10.00">src/m_Do/m_Do_main.cpp</text>
</a>
</g>
</g>
<!-- Node12&#45;&gt;Node17 -->
<g id="edge18" class="edge">
<title>Node12&#45;&gt;Node17</title>
<path fill="none" stroke="midnightblue" d="M1025.44,-120.11C1063.58,-107.46 1113.54,-90.89 1143.35,-81.01"/>
<polygon fill="midnightblue" stroke="midnightblue" points="1023.92,-116.93 1015.53,-123.4 1026.12,-123.57 1023.92,-116.93"/>
</g>
<!-- Node18 -->
<g id="node18" class="node">
<title>Node18</title>
<g id="a_node18"><a xlink:href="d__model_8h.html" target="_top" xlink:title=" ">
<polygon fill="white" stroke="black" points="1253,-56.5 1253,-86.5 1357,-86.5 1357,-56.5 1253,-56.5"/>
<text text-anchor="start" x="1261" y="-74.5" font-family="Helvetica,sans-Serif" font-size="10.00">include/d/d_model/d</text>
<text text-anchor="middle" x="1305" y="-63.5" font-family="Helvetica,sans-Serif" font-size="10.00">_model.h</text>
</a>
</g>
</g>
<!-- Node12&#45;&gt;Node18 -->
<g id="edge19" class="edge">
<title>Node12&#45;&gt;Node18</title>
<path fill="none" stroke="midnightblue" d="M1031.52,-127.45C1086.52,-117.8 1171.05,-102.46 1244,-87 1246.88,-86.39 1249.82,-85.75 1252.79,-85.09"/>
<polygon fill="midnightblue" stroke="midnightblue" points="1030.85,-124.01 1021.61,-129.18 1032.06,-130.91 1030.85,-124.01"/>
</g>
<!-- Node19 -->
<g id="node19" class="node">
<title>Node19</title>
<g id="a_node19"><a xlink:href="d__model_8cpp.html" target="_top" xlink:title=" ">
<polygon fill="white" stroke="black" points="1257,-0.5 1257,-19.5 1353,-19.5 1353,-0.5 1257,-0.5"/>
<text text-anchor="middle" x="1305" y="-7.5" font-family="Helvetica,sans-Serif" font-size="10.00">src/d/d_model.cpp</text>
</a>
</g>
</g>
<!-- Node18&#45;&gt;Node19 -->
<g id="edge20" class="edge">
<title>Node18&#45;&gt;Node19</title>
<path fill="none" stroke="midnightblue" d="M1305,-46.29C1305,-36.86 1305,-26.65 1305,-19.66"/>
<polygon fill="midnightblue" stroke="midnightblue" points="1301.5,-46.4 1305,-56.4 1308.5,-46.4 1301.5,-46.4"/>
</g>
</g>
</svg>
