<?xml version="1.0" encoding="UTF-8" standalone="no"?>
<!DOCTYPE svg PUBLIC "-//W3C//DTD SVG 1.1//EN"
 "http://www.w3.org/Graphics/SVG/1.1/DTD/svg11.dtd">
<!-- Generated by graphviz version 2.44.0 ()
 -->
<!-- Title: include/f/f_pc/f_pc_line_iter.h Pages: 1 -->
<svg width="1474pt" height="296pt"
 viewBox="0.00 0.00 1474.00 296.00" xmlns="http://www.w3.org/2000/svg" xmlns:xlink="http://www.w3.org/1999/xlink">
<g id="graph0" class="graph" transform="scale(1 1) rotate(0) translate(4 292)">
<title>include/f/f_pc/f_pc_line_iter.h</title>
<polygon fill="white" stroke="transparent" points="-4,4 -4,-292 1470,-292 1470,4 -4,4"/>
<!-- Node1 -->
<g id="node1" class="node">
<title>Node1</title>
<g id="a_node1"><a xlink:title=" ">
<polygon fill="#bfbfbf" stroke="black" points="486.5,-257.5 486.5,-287.5 583.5,-287.5 583.5,-257.5 486.5,-257.5"/>
<text text-anchor="start" x="494.5" y="-275.5" font-family="Helvetica,sans-Serif" font-size="10.00">include/f/f_pc/f_pc</text>
<text text-anchor="middle" x="535" y="-264.5" font-family="Helvetica,sans-Serif" font-size="10.00">_line_iter.h</text>
</a>
</g>
</g>
<!-- Node2 -->
<g id="node2" class="node">
<title>Node2</title>
<g id="a_node2"><a xlink:href="f__pc__executor_8cpp.html" target="_top" xlink:title=" ">
<polygon fill="white" stroke="black" points="0,-129 0,-148 140,-148 140,-129 0,-129"/>
<text text-anchor="middle" x="70" y="-136" font-family="Helvetica,sans-Serif" font-size="10.00">src/f/f_pc/f_pc_executor.cpp</text>
</a>
</g>
</g>
<!-- Node1&#45;&gt;Node2 -->
<g id="edge1" class="edge">
<title>Node1&#45;&gt;Node2</title>
<path fill="none" stroke="midnightblue" d="M476.29,-255.74C439.89,-245.91 392.18,-232.89 350,-221 258.15,-195.1 149.75,-163.15 98.98,-148.11"/>
<polygon fill="midnightblue" stroke="midnightblue" points="475.68,-259.2 486.25,-258.43 477.51,-252.45 475.68,-259.2"/>
</g>
<!-- Node3 -->
<g id="node3" class="node">
<title>Node3</title>
<g id="a_node3"><a xlink:href="f__pc__line__iter_8cpp.html" target="_top" xlink:title=" ">
<polygon fill="white" stroke="black" points="705,-190.5 705,-220.5 805,-220.5 805,-190.5 705,-190.5"/>
<text text-anchor="start" x="713" y="-208.5" font-family="Helvetica,sans-Serif" font-size="10.00">src/f/f_pc/f_pc_line</text>
<text text-anchor="middle" x="755" y="-197.5" font-family="Helvetica,sans-Serif" font-size="10.00">_iter.cpp</text>
</a>
</g>
</g>
<!-- Node1&#45;&gt;Node3 -->
<g id="edge2" class="edge">
<title>Node1&#45;&gt;Node3</title>
<path fill="none" stroke="midnightblue" d="M592.27,-254.58C628,-244.02 673.46,-230.59 707.24,-220.61"/>
<polygon fill="midnightblue" stroke="midnightblue" points="591.06,-251.29 582.47,-257.48 593.05,-258 591.06,-251.29"/>
</g>
<!-- Node4 -->
<g id="node4" class="node">
<title>Node4</title>
<g id="a_node4"><a xlink:href="f__pc__manager_8cpp.html" target="_top" xlink:title=" ">
<polygon fill="white" stroke="black" points="158,-129 158,-148 298,-148 298,-129 158,-129"/>
<text text-anchor="middle" x="228" y="-136" font-family="Helvetica,sans-Serif" font-size="10.00">src/f/f_pc/f_pc_manager.cpp</text>
</a>
</g>
</g>
<!-- Node1&#45;&gt;Node4 -->
<g id="edge3" class="edge">
<title>Node1&#45;&gt;Node4</title>
<path fill="none" stroke="midnightblue" d="M493.02,-253.45C426.02,-224.64 297.47,-169.37 248.04,-148.12"/>
<polygon fill="midnightblue" stroke="midnightblue" points="491.87,-256.76 502.44,-257.5 494.63,-250.33 491.87,-256.76"/>
</g>
<!-- Node5 -->
<g id="node5" class="node">
<title>Node5</title>
<g id="a_node5"><a xlink:href="f__pc__executor_8h.html" target="_top" xlink:title=" ">
<polygon fill="white" stroke="black" points="589.5,-190.5 589.5,-220.5 686.5,-220.5 686.5,-190.5 589.5,-190.5"/>
<text text-anchor="start" x="597.5" y="-208.5" font-family="Helvetica,sans-Serif" font-size="10.00">include/f/f_pc/f_pc</text>
<text text-anchor="middle" x="638" y="-197.5" font-family="Helvetica,sans-Serif" font-size="10.00">_executor.h</text>
</a>
</g>
</g>
<!-- Node1&#45;&gt;Node5 -->
<g id="edge4" class="edge">
<title>Node1&#45;&gt;Node5</title>
<path fill="none" stroke="midnightblue" d="M565.88,-252.02C581.9,-241.9 601.13,-229.77 615.69,-220.58"/>
<polygon fill="midnightblue" stroke="midnightblue" points="563.94,-249.1 557.35,-257.4 567.67,-255.02 563.94,-249.1"/>
</g>
<!-- Node5&#45;&gt;Node2 -->
<g id="edge12" class="edge">
<title>Node5&#45;&gt;Node2</title>
<path fill="none" stroke="midnightblue" d="M579.03,-199.92C486.95,-192.42 303.57,-176.13 149,-154 137.27,-152.32 124.62,-150.16 112.95,-148.02"/>
<polygon fill="midnightblue" stroke="midnightblue" points="579.01,-203.43 589.26,-200.74 579.57,-196.45 579.01,-203.43"/>
</g>
<!-- Node5&#45;&gt;Node4 -->
<g id="edge13" class="edge">
<title>Node5&#45;&gt;Node4</title>
<path fill="none" stroke="midnightblue" d="M579.17,-196.07C512.92,-186.45 402.09,-169.98 307,-154 296,-152.15 284.16,-150.04 273.08,-148.02"/>
<polygon fill="midnightblue" stroke="midnightblue" points="579.01,-199.58 589.41,-197.55 580.02,-192.66 579.01,-199.58"/>
</g>
<!-- Node6 -->
<g id="node6" class="node">
<title>Node6</title>
<g id="a_node6"><a xlink:href="f__op__msg__mng_8cpp.html" target="_top" xlink:title=" ">
<polygon fill="white" stroke="black" points="705,-123.5 705,-153.5 809,-153.5 809,-123.5 705,-123.5"/>
<text text-anchor="start" x="713" y="-141.5" font-family="Helvetica,sans-Serif" font-size="10.00">src/f/f_op/f_op_msg</text>
<text text-anchor="middle" x="757" y="-130.5" font-family="Helvetica,sans-Serif" font-size="10.00">_mng.cpp</text>
</a>
</g>
</g>
<!-- Node5&#45;&gt;Node6 -->
<g id="edge5" class="edge">
<title>Node5&#45;&gt;Node6</title>
<path fill="none" stroke="midnightblue" d="M672.65,-185.57C691.37,-175.35 714.09,-162.94 731.23,-153.58"/>
<polygon fill="midnightblue" stroke="midnightblue" points="670.92,-182.53 663.82,-190.4 674.28,-188.67 670.92,-182.53"/>
</g>
<!-- Node7 -->
<g id="node7" class="node">
<title>Node7</title>
<g id="a_node7"><a xlink:href="f__op__overlap__mng_8cpp.html" target="_top" xlink:title=" ">
<polygon fill="white" stroke="black" points="827,-123.5 827,-153.5 943,-153.5 943,-123.5 827,-123.5"/>
<text text-anchor="start" x="835" y="-141.5" font-family="Helvetica,sans-Serif" font-size="10.00">src/f/f_op/f_op_overlap</text>
<text text-anchor="middle" x="885" y="-130.5" font-family="Helvetica,sans-Serif" font-size="10.00">_mng.cpp</text>
</a>
</g>
</g>
<!-- Node5&#45;&gt;Node7 -->
<g id="edge6" class="edge">
<title>Node5&#45;&gt;Node7</title>
<path fill="none" stroke="midnightblue" d="M696.34,-189.15C737.29,-178.37 791.63,-164.07 831.46,-153.59"/>
<polygon fill="midnightblue" stroke="midnightblue" points="695.28,-185.81 686.5,-191.74 697.07,-192.58 695.28,-185.81"/>
</g>
<!-- Node8 -->
<g id="node8" class="node">
<title>Node8</title>
<g id="a_node8"><a xlink:href="f__op__overlap__req_8cpp.html" target="_top" xlink:title=" ">
<polygon fill="white" stroke="black" points="961,-123.5 961,-153.5 1077,-153.5 1077,-123.5 961,-123.5"/>
<text text-anchor="start" x="969" y="-141.5" font-family="Helvetica,sans-Serif" font-size="10.00">src/f/f_op/f_op_overlap</text>
<text text-anchor="middle" x="1019" y="-130.5" font-family="Helvetica,sans-Serif" font-size="10.00">_req.cpp</text>
</a>
</g>
</g>
<!-- Node5&#45;&gt;Node8 -->
<g id="edge7" class="edge">
<title>Node5&#45;&gt;Node8</title>
<path fill="none" stroke="midnightblue" d="M696.81,-189.98C810.55,-168.36 842.09,-173.59 952,-154 954.93,-153.48 957.93,-152.92 960.95,-152.34"/>
<polygon fill="midnightblue" stroke="midnightblue" points="695.81,-186.61 686.65,-191.94 697.13,-193.48 695.81,-186.61"/>
</g>
<!-- Node9 -->
<g id="node9" class="node">
<title>Node9</title>
<g id="a_node9"><a xlink:href="f__op__scene__pause_8cpp.html" target="_top" xlink:title=" ">
<polygon fill="white" stroke="black" points="1095.5,-123.5 1095.5,-153.5 1206.5,-153.5 1206.5,-123.5 1095.5,-123.5"/>
<text text-anchor="start" x="1103.5" y="-141.5" font-family="Helvetica,sans-Serif" font-size="10.00">src/f/f_op/f_op_scene</text>
<text text-anchor="middle" x="1151" y="-130.5" font-family="Helvetica,sans-Serif" font-size="10.00">_pause.cpp</text>
</a>
</g>
</g>
<!-- Node5&#45;&gt;Node9 -->
<g id="edge8" class="edge">
<title>Node5&#45;&gt;Node9</title>
<path fill="none" stroke="midnightblue" d="M696.56,-190.1C869.37,-161.54 917.23,-180.5 1086,-154 1089.08,-153.52 1092.24,-152.97 1095.42,-152.39"/>
<polygon fill="midnightblue" stroke="midnightblue" points="695.9,-186.66 686.62,-191.77 697.06,-193.56 695.9,-186.66"/>
</g>
<!-- Node10 -->
<g id="node10" class="node">
<title>Node10</title>
<g id="a_node10"><a xlink:href="f__op__scene__req_8cpp.html" target="_top" xlink:title=" ">
<polygon fill="white" stroke="black" points="1224.5,-123.5 1224.5,-153.5 1335.5,-153.5 1335.5,-123.5 1224.5,-123.5"/>
<text text-anchor="start" x="1232.5" y="-141.5" font-family="Helvetica,sans-Serif" font-size="10.00">src/f/f_op/f_op_scene</text>
<text text-anchor="middle" x="1280" y="-130.5" font-family="Helvetica,sans-Serif" font-size="10.00">_req.cpp</text>
</a>
</g>
</g>
<!-- Node5&#45;&gt;Node10 -->
<g id="edge9" class="edge">
<title>Node5&#45;&gt;Node10</title>
<path fill="none" stroke="midnightblue" d="M696.62,-190.12C926.6,-154.71 990.04,-187.22 1216,-154 1218.71,-153.6 1221.47,-153.15 1224.25,-152.66"/>
<polygon fill="midnightblue" stroke="midnightblue" points="695.94,-186.68 686.61,-191.69 697.03,-193.6 695.94,-186.68"/>
</g>
<!-- Node11 -->
<g id="node11" class="node">
<title>Node11</title>
<g id="a_node11"><a xlink:href="f__pc__create__req_8cpp.html" target="_top" xlink:title=" ">
<polygon fill="white" stroke="black" points="1354,-123.5 1354,-153.5 1466,-153.5 1466,-123.5 1354,-123.5"/>
<text text-anchor="start" x="1362" y="-141.5" font-family="Helvetica,sans-Serif" font-size="10.00">src/f/f_pc/f_pc_create</text>
<text text-anchor="middle" x="1410" y="-130.5" font-family="Helvetica,sans-Serif" font-size="10.00">_req.cpp</text>
</a>
</g>
</g>
<!-- Node5&#45;&gt;Node11 -->
<g id="edge10" class="edge">
<title>Node5&#45;&gt;Node11</title>
<path fill="none" stroke="midnightblue" d="M696.88,-190.1C983.47,-147.86 1062.19,-193.12 1345,-154 1347.86,-153.6 1350.79,-153.15 1353.73,-152.64"/>
<polygon fill="midnightblue" stroke="midnightblue" points="695.97,-186.7 686.6,-191.64 697.01,-193.62 695.97,-186.7"/>
</g>
<!-- Node12 -->
<g id="node12" class="node">
<title>Node12</title>
<g id="a_node12"><a xlink:href="f__pc__deletor_8cpp.html" target="_top" xlink:title=" ">
<polygon fill="white" stroke="black" points="316,-129 316,-148 448,-148 448,-129 316,-129"/>
<text text-anchor="middle" x="382" y="-136" font-family="Helvetica,sans-Serif" font-size="10.00">src/f/f_pc/f_pc_deletor.cpp</text>
</a>
</g>
</g>
<!-- Node5&#45;&gt;Node12 -->
<g id="edge11" class="edge">
<title>Node5&#45;&gt;Node12</title>
<path fill="none" stroke="midnightblue" d="M579.39,-189.62C528.65,-176.73 457.05,-158.56 415.48,-148"/>
<polygon fill="midnightblue" stroke="midnightblue" points="578.69,-193.05 589.25,-192.12 580.41,-186.27 578.69,-193.05"/>
</g>
<!-- Node13 -->
<g id="node13" class="node">
<title>Node13</title>
<g id="a_node13"><a xlink:href="f__pc__node__req_8cpp.html" target="_top" xlink:title=" ">
<polygon fill="white" stroke="black" points="466,-123.5 466,-153.5 572,-153.5 572,-123.5 466,-123.5"/>
<text text-anchor="start" x="474" y="-141.5" font-family="Helvetica,sans-Serif" font-size="10.00">src/f/f_pc/f_pc_node</text>
<text text-anchor="middle" x="519" y="-130.5" font-family="Helvetica,sans-Serif" font-size="10.00">_req.cpp</text>
</a>
</g>
</g>
<!-- Node5&#45;&gt;Node13 -->
<g id="edge14" class="edge">
<title>Node5&#45;&gt;Node13</title>
<path fill="none" stroke="midnightblue" d="M603.35,-185.57C584.63,-175.35 561.91,-162.94 544.77,-153.58"/>
<polygon fill="midnightblue" stroke="midnightblue" points="601.72,-188.67 612.18,-190.4 605.08,-182.53 601.72,-188.67"/>
</g>
<!-- Node14 -->
<g id="node14" class="node">
<title>Node14</title>
<g id="a_node14"><a xlink:href="f__op__actor__mng_8h.html" target="_top" xlink:title=" ">
<polygon fill="white" stroke="black" points="589.5,-123.5 589.5,-153.5 686.5,-153.5 686.5,-123.5 589.5,-123.5"/>
<text text-anchor="start" x="597.5" y="-141.5" font-family="Helvetica,sans-Serif" font-size="10.00">include/f/f_op/f_op</text>
<text text-anchor="middle" x="638" y="-130.5" font-family="Helvetica,sans-Serif" font-size="10.00">_actor_mng.h</text>
</a>
</g>
</g>
<!-- Node5&#45;&gt;Node14 -->
<g id="edge15" class="edge">
<title>Node5&#45;&gt;Node14</title>
<path fill="none" stroke="midnightblue" d="M638,-180.11C638,-171.15 638,-161.32 638,-153.58"/>
<polygon fill="midnightblue" stroke="midnightblue" points="634.5,-180.4 638,-190.4 641.5,-180.4 634.5,-180.4"/>
</g>
<!-- Node15 -->
<g id="node15" class="node">
<title>Node15</title>
<g id="a_node15"><a xlink:href="d__attention_8cpp.html" target="_top" xlink:title=" ">
<polygon fill="white" stroke="black" points="227.5,-62 227.5,-81 334.5,-81 334.5,-62 227.5,-62"/>
<text text-anchor="middle" x="281" y="-69" font-family="Helvetica,sans-Serif" font-size="10.00">src/d/d_attention.cpp</text>
</a>
</g>
</g>
<!-- Node14&#45;&gt;Node15 -->
<g id="edge16" class="edge">
<title>Node14&#45;&gt;Node15</title>
<path fill="none" stroke="midnightblue" d="M579.21,-122.75C474.37,-102.09 444.88,-106.59 343,-87 333.99,-85.27 324.3,-83.13 315.33,-81.04"/>
<polygon fill="midnightblue" stroke="midnightblue" points="578.76,-126.23 589.26,-124.76 580.14,-119.37 578.76,-126.23"/>
</g>
<!-- Node16 -->
<g id="node16" class="node">
<title>Node16</title>
<g id="a_node16"><a xlink:href="d__camera_8cpp.html" target="_top" xlink:title=" ">
<polygon fill="white" stroke="black" points="352,-62 352,-81 454,-81 454,-62 352,-62"/>
<text text-anchor="middle" x="403" y="-69" font-family="Helvetica,sans-Serif" font-size="10.00">src/d/d_camera.cpp</text>
</a>
</g>
</g>
<!-- Node14&#45;&gt;Node16 -->
<g id="edge17" class="edge">
<title>Node14&#45;&gt;Node16</title>
<path fill="none" stroke="midnightblue" d="M579.44,-121.3C533.36,-108.56 470.96,-91.3 434.04,-81.09"/>
<polygon fill="midnightblue" stroke="midnightblue" points="578.74,-124.74 589.31,-124.03 580.6,-117.99 578.74,-124.74"/>
</g>
<!-- Node17 -->
<g id="node17" class="node">
<title>Node17</title>
<g id="a_node17"><a xlink:href="d__stage_8cpp.html" target="_top" xlink:title=" ">
<polygon fill="white" stroke="black" points="472,-62 472,-81 566,-81 566,-62 472,-62"/>
<text text-anchor="middle" x="519" y="-69" font-family="Helvetica,sans-Serif" font-size="10.00">src/d/d_stage.cpp</text>
</a>
</g>
</g>
<!-- Node14&#45;&gt;Node17 -->
<g id="edge18" class="edge">
<title>Node14&#45;&gt;Node17</title>
<path fill="none" stroke="midnightblue" d="M603.17,-118.47C580.45,-106.06 551.9,-90.47 534.57,-81.01"/>
<polygon fill="midnightblue" stroke="midnightblue" points="601.72,-121.67 612.18,-123.4 605.08,-115.53 601.72,-121.67"/>
</g>
<!-- Node18 -->
<g id="node18" class="node">
<title>Node18</title>
<g id="a_node18"><a xlink:href="f__op__actor__mng_8cpp.html" target="_top" xlink:title=" ">
<polygon fill="white" stroke="black" points="584.5,-56.5 584.5,-86.5 691.5,-86.5 691.5,-56.5 584.5,-56.5"/>
<text text-anchor="start" x="592.5" y="-74.5" font-family="Helvetica,sans-Serif" font-size="10.00">src/f/f_op/f_op_actor</text>
<text text-anchor="middle" x="638" y="-63.5" font-family="Helvetica,sans-Serif" font-size="10.00">_mng.cpp</text>
</a>
</g>
</g>
<!-- Node14&#45;&gt;Node18 -->
<g id="edge19" class="edge">
<title>Node14&#45;&gt;Node18</title>
<path fill="none" stroke="midnightblue" d="M638,-113.11C638,-104.15 638,-94.32 638,-86.58"/>
<polygon fill="midnightblue" stroke="midnightblue" points="634.5,-113.4 638,-123.4 641.5,-113.4 634.5,-113.4"/>
</g>
<!-- Node19 -->
<g id="node19" class="node">
<title>Node19</title>
<g id="a_node19"><a xlink:href="d__a__alink_8cpp.html" target="_top" xlink:title=" ">
<polygon fill="white" stroke="black" points="709.5,-62 709.5,-81 828.5,-81 828.5,-62 709.5,-62"/>
<text text-anchor="middle" x="769" y="-69" font-family="Helvetica,sans-Serif" font-size="10.00">src/d/d_a/d_a_alink.cpp</text>
</a>
</g>
</g>
<!-- Node14&#45;&gt;Node19 -->
<g id="edge20" class="edge">
<title>Node14&#45;&gt;Node19</title>
<path fill="none" stroke="midnightblue" d="M675.68,-118.8C700.8,-106.34 732.61,-90.56 751.86,-81.01"/>
<polygon fill="midnightblue" stroke="midnightblue" points="673.83,-115.82 666.43,-123.4 676.94,-122.09 673.83,-115.82"/>
</g>
<!-- Node20 -->
<g id="node20" class="node">
<title>Node20</title>
<g id="a_node20"><a xlink:href="m__Do__main_8cpp.html" target="_top" xlink:title=" ">
<polygon fill="white" stroke="black" points="846.5,-62 846.5,-81 977.5,-81 977.5,-62 846.5,-62"/>
<text text-anchor="middle" x="912" y="-69" font-family="Helvetica,sans-Serif" font-size="10.00">src/m_Do/m_Do_main.cpp</text>
</a>
</g>
</g>
<!-- Node14&#45;&gt;Node20 -->
<g id="edge21" class="edge">
<title>Node14&#45;&gt;Node20</title>
<path fill="none" stroke="midnightblue" d="M696.82,-122.82C765.28,-106.31 833.41,-90.53 874.5,-81.08"/>
<polygon fill="midnightblue" stroke="midnightblue" points="695.62,-119.51 686.72,-125.26 697.26,-126.32 695.62,-119.51"/>
</g>
<!-- Node21 -->
<g id="node21" class="node">
<title>Node21</title>
<g id="a_node21"><a xlink:href="d__model_8h.html" target="_top" xlink:title=" ">
<polygon fill="white" stroke="black" points="996,-56.5 996,-86.5 1100,-86.5 1100,-56.5 996,-56.5"/>
<text text-anchor="start" x="1004" y="-74.5" font-family="Helvetica,sans-Serif" font-size="10.00">include/d/d_model/d</text>
<text text-anchor="middle" x="1048" y="-63.5" font-family="Helvetica,sans-Serif" font-size="10.00">_model.h</text>
</a>
</g>
</g>
<!-- Node14&#45;&gt;Node21 -->
<g id="edge22" class="edge">
<title>Node14&#45;&gt;Node21</title>
<path fill="none" stroke="midnightblue" d="M696.53,-123.06C825.87,-99.67 861.88,-109.54 987,-87 989.89,-86.48 992.85,-85.91 995.84,-85.3"/>
<polygon fill="midnightblue" stroke="midnightblue" points="695.84,-119.63 686.64,-124.88 697.11,-126.51 695.84,-119.63"/>
</g>
<!-- Node22 -->
<g id="node22" class="node">
<title>Node22</title>
<g id="a_node22"><a xlink:href="d__model_8cpp.html" target="_top" xlink:title=" ">
<polygon fill="white" stroke="black" points="1000,-0.5 1000,-19.5 1096,-19.5 1096,-0.5 1000,-0.5"/>
<text text-anchor="middle" x="1048" y="-7.5" font-family="Helvetica,sans-Serif" font-size="10.00">src/d/d_model.cpp</text>
</a>
</g>
</g>
<!-- Node21&#45;&gt;Node22 -->
<g id="edge23" class="edge">
<title>Node21&#45;&gt;Node22</title>
<path fill="none" stroke="midnightblue" d="M1048,-46.29C1048,-36.86 1048,-26.65 1048,-19.66"/>
<polygon fill="midnightblue" stroke="midnightblue" points="1044.5,-46.4 1048,-56.4 1051.5,-46.4 1044.5,-46.4"/>
</g>
</g>
</svg>
