<?xml version="1.0" encoding="UTF-8" standalone="no"?>
<!DOCTYPE svg PUBLIC "-//W3C//DTD SVG 1.1//EN"
 "http://www.w3.org/Graphics/SVG/1.1/DTD/svg11.dtd">
<!-- Generated by graphviz version 2.44.0 ()
 -->
<!-- Title: src/f/f_pc/f_pc_layer_iter.cpp Pages: 1 -->
<!--zoomable 599 -->
<svg id="main" version="1.1" xmlns="http://www.w3.org/2000/svg" xmlns:xlink="http://www.w3.org/1999/xlink" xml:space="preserve" onload="init(evt)">
<style type="text/css"><![CDATA[
.edge:hover path { stroke: red; }
.edge:hover polygon { stroke: red; fill: red; }
]]></style>
<script type="text/javascript"><![CDATA[
var edges = document.getElementsByTagName('g');
if (edges && edges.length) {
  for (var i=0;i<edges.length;i++) {
    if (edges[i].id.substr(0,4)=='edge') {
      edges[i].setAttribute('class','edge');
    }
  }
}
]]></script>
        <defs>
                <circle id="rim" cx="0" cy="0" r="7"/>
                <circle id="rim2" cx="0" cy="0" r="3.5"/>
                <g id="zoomPlus">
                        <use xlink:href="#rim" fill="#404040">
                                <set attributeName="fill" to="#808080" begin="zoomplus.mouseover" end="zoomplus.mouseout"/>
                        </use>
                        <path d="M-4,0h8M0,-4v8" fill="none" stroke="white" stroke-width="1.5" pointer-events="none"/>
                </g>
                <g id="zoomMin">
                        <use xlink:href="#rim" fill="#404040">
                                <set attributeName="fill" to="#808080" begin="zoomminus.mouseover" end="zoomminus.mouseout"/>
                        </use>
                        <path d="M-4,0h8" fill="none" stroke="white" stroke-width="1.5" pointer-events="none"/>
                </g>
                <g id="dirArrow">
                        <path fill="none" stroke="white" stroke-width="1.5" d="M0,-3.0v7 M-2.5,-0.5L0,-3.0L2.5,-0.5"/>
                </g>
               <g id="resetDef">
                       <use xlink:href="#rim2" fill="#404040">
                               <set attributeName="fill" to="#808080" begin="reset.mouseover" end="reset.mouseout"/>
                       </use>
               </g>
        </defs>

<script type="text/javascript">
var viewWidth = 522;
var viewHeight = 599;
var sectionId = 'dynsection-0';
</script>
<script xlink:href="svgpan.js"/>
<svg id="graph" class="graph">
<g id="viewport">
<title>src/f/f_pc/f_pc_layer_iter.cpp</title>
<polygon fill="white" stroke="transparent" points="-4,4 -4,-595 518,-595 518,4 -4,4"/>
<!-- Node1 -->
<g id="node1" class="node">
<title>Node1</title>
<g id="a_node1"><a xlink:title=" ">
<polygon fill="#bfbfbf" stroke="black" points="189.5,-560.5 189.5,-590.5 294.5,-590.5 294.5,-560.5 189.5,-560.5"/>
<text text-anchor="start" x="197.5" y="-578.5" font-family="Helvetica,sans-Serif" font-size="10.00">src/f/f_pc/f_pc_layer</text>
<text text-anchor="middle" x="242" y="-567.5" font-family="Helvetica,sans-Serif" font-size="10.00">_iter.cpp</text>
</a>
</g>
</g>
<!-- Node2 -->
<g id="node2" class="node">
<title>Node2</title>
<g id="a_node2"><a xlink:href="f__pc__layer__iter_8h.html" target="_top" xlink:title=" ">
<polygon fill="white" stroke="black" points="76.5,-504.5 76.5,-523.5 191.5,-523.5 191.5,-504.5 76.5,-504.5"/>
<text text-anchor="middle" x="134" y="-511.5" font-family="Helvetica,sans-Serif" font-size="10.00">f/f_pc/f_pc_layer_iter.h</text>
</a>
</g>
</g>
<!-- Node1&#45;&gt;Node2 -->
<g id="edge1" class="edge">
<title>Node1&#45;&gt;Node2</title>
<path fill="none" stroke="midnightblue" d="M216.41,-560.4C198.93,-550.77 175.91,-538.09 158.64,-528.58"/>
<polygon fill="midnightblue" stroke="midnightblue" points="160.16,-525.42 149.71,-523.66 156.78,-531.55 160.16,-525.42"/>
</g>
<!-- Node16 -->
<g id="node16" class="node">
<title>Node16</title>
<g id="a_node16"><a xlink:href="c__tag__iter_8h.html" target="_top" xlink:title=" ">
<polygon fill="white" stroke="black" points="363,-448.5 363,-467.5 489,-467.5 489,-448.5 363,-448.5"/>
<text text-anchor="middle" x="426" y="-455.5" font-family="Helvetica,sans-Serif" font-size="10.00">SComponent/c_tag_iter.h</text>
</a>
</g>
</g>
<!-- Node1&#45;&gt;Node16 -->
<g id="edge28" class="edge">
<title>Node1&#45;&gt;Node16</title>
<path fill="none" stroke="midnightblue" d="M264.56,-560.34C299.97,-538.11 368.2,-495.28 403.55,-473.09"/>
<polygon fill="midnightblue" stroke="midnightblue" points="405.58,-475.95 412.19,-467.67 401.86,-470.02 405.58,-475.95"/>
</g>
<!-- Node17 -->
<g id="node17" class="node">
<title>Node17</title>
<g id="a_node17"><a xlink:href="c__tree__iter_8h.html" target="_top" xlink:title=" ">
<polygon fill="white" stroke="black" points="177.5,-448.5 177.5,-467.5 306.5,-467.5 306.5,-448.5 177.5,-448.5"/>
<text text-anchor="middle" x="242" y="-455.5" font-family="Helvetica,sans-Serif" font-size="10.00">SComponent/c_tree_iter.h</text>
</a>
</g>
</g>
<!-- Node1&#45;&gt;Node17 -->
<g id="edge32" class="edge">
<title>Node1&#45;&gt;Node17</title>
<path fill="none" stroke="midnightblue" d="M242,-560.34C242,-539.62 242,-501.02 242,-477.9"/>
<polygon fill="midnightblue" stroke="midnightblue" points="245.5,-477.67 242,-467.67 238.5,-477.67 245.5,-477.67"/>
</g>
<!-- Node3 -->
<g id="node3" class="node">
<title>Node3</title>
<g id="a_node3"><a xlink:href="c__node__iter_8h.html" target="_top" xlink:title=" ">
<polygon fill="white" stroke="black" points="352,-392.5 352,-411.5 486,-411.5 486,-392.5 352,-392.5"/>
<text text-anchor="middle" x="419" y="-399.5" font-family="Helvetica,sans-Serif" font-size="10.00">SComponent/c_node_iter.h</text>
</a>
</g>
</g>
<!-- Node2&#45;&gt;Node3 -->
<g id="edge2" class="edge">
<title>Node2&#45;&gt;Node3</title>
<path fill="none" stroke="midnightblue" d="M187.62,-504.43C224.66,-497.39 274.53,-485.67 316,-468 332.63,-460.92 373,-434.29 397.98,-417.4"/>
<polygon fill="midnightblue" stroke="midnightblue" points="400.11,-420.18 406.41,-411.66 396.17,-414.39 400.11,-420.18"/>
</g>
<!-- Node5 -->
<g id="node5" class="node">
<title>Node5</title>
<g id="a_node5"><a xlink:href="global_8h.html" target="_top" xlink:title=" ">
<polygon fill="white" stroke="black" points="250,-168.5 250,-187.5 300,-187.5 300,-168.5 250,-168.5"/>
<text text-anchor="middle" x="275" y="-175.5" font-family="Helvetica,sans-Serif" font-size="10.00">global.h</text>
</a>
</g>
</g>
<!-- Node2&#45;&gt;Node5 -->
<g id="edge27" class="edge">
<title>Node2&#45;&gt;Node5</title>
<path fill="none" stroke="midnightblue" d="M106.88,-504.47C67.73,-490.27 0,-457.78 0,-403 0,-403 0,-403 0,-289 0,-252.28 19.73,-243.25 51,-224 110.07,-187.63 192.97,-179.95 239.57,-178.74"/>
<polygon fill="midnightblue" stroke="midnightblue" points="239.83,-182.23 249.77,-178.56 239.71,-175.23 239.83,-182.23"/>
</g>
<!-- Node12 -->
<g id="node12" class="node">
<title>Node12</title>
<g id="a_node12"><a xlink:href="f__pc__layer_8h.html" target="_top" xlink:title=" ">
<polygon fill="white" stroke="black" points="63,-448.5 63,-467.5 159,-467.5 159,-448.5 63,-448.5"/>
<text text-anchor="middle" x="111" y="-455.5" font-family="Helvetica,sans-Serif" font-size="10.00">f/f_pc/f_pc_layer.h</text>
</a>
</g>
</g>
<!-- Node2&#45;&gt;Node12 -->
<g id="edge15" class="edge">
<title>Node2&#45;&gt;Node12</title>
<path fill="none" stroke="midnightblue" d="M130.2,-504.08C127.09,-496.77 122.58,-486.18 118.71,-477.1"/>
<polygon fill="midnightblue" stroke="midnightblue" points="121.87,-475.58 114.73,-467.75 115.43,-478.32 121.87,-475.58"/>
</g>
<!-- Node4 -->
<g id="node4" class="node">
<title>Node4</title>
<g id="a_node4"><a xlink:href="c__node_8h.html" target="_top" xlink:title=" ">
<polygon fill="white" stroke="black" points="157.5,-224.5 157.5,-243.5 272.5,-243.5 272.5,-224.5 157.5,-224.5"/>
<text text-anchor="middle" x="215" y="-231.5" font-family="Helvetica,sans-Serif" font-size="10.00">SComponent/c_node.h</text>
</a>
</g>
</g>
<!-- Node3&#45;&gt;Node4 -->
<g id="edge3" class="edge">
<title>Node3&#45;&gt;Node4</title>
<path fill="none" stroke="midnightblue" d="M409.14,-392.26C386.19,-372.01 327.28,-320.54 276,-280 262.84,-269.59 247.65,-258.39 235.73,-249.77"/>
<polygon fill="midnightblue" stroke="midnightblue" points="237.49,-246.73 227.33,-243.73 233.41,-252.41 237.49,-246.73"/>
</g>
<!-- Node4&#45;&gt;Node5 -->
<g id="edge4" class="edge">
<title>Node4&#45;&gt;Node5</title>
<path fill="none" stroke="midnightblue" d="M224.64,-224.32C233.51,-216.34 246.87,-204.31 257.61,-194.65"/>
<polygon fill="midnightblue" stroke="midnightblue" points="260.09,-197.13 265.18,-187.83 255.41,-191.92 260.09,-197.13"/>
</g>
<!-- Node6 -->
<g id="node6" class="node">
<title>Node6</title>
<g id="a_node6"><a xlink:href="types_8h.html" target="_top" xlink:title=" ">
<polygon fill="white" stroke="black" points="234.5,-0.5 234.5,-19.5 315.5,-19.5 315.5,-0.5 234.5,-0.5"/>
<text text-anchor="middle" x="275" y="-7.5" font-family="Helvetica,sans-Serif" font-size="10.00">dolphin/types.h</text>
</a>
</g>
</g>
<!-- Node5&#45;&gt;Node6 -->
<g id="edge5" class="edge">
<title>Node5&#45;&gt;Node6</title>
<path fill="none" stroke="midnightblue" d="M256.89,-168.4C219.48,-149.45 139.61,-102.09 170,-56 182.3,-37.35 204.11,-26.4 224.68,-19.98"/>
<polygon fill="midnightblue" stroke="midnightblue" points="225.64,-23.35 234.31,-17.26 223.74,-16.61 225.64,-23.35"/>
</g>
<!-- Node7 -->
<g id="node7" class="node">
<title>Node7</title>
<g id="a_node7"><a xlink:href="AR_8h.html" target="_top" xlink:title=" ">
<polygon fill="white" stroke="black" points="179.5,-56.5 179.5,-75.5 228.5,-75.5 228.5,-56.5 179.5,-56.5"/>
<text text-anchor="middle" x="204" y="-63.5" font-family="Helvetica,sans-Serif" font-size="10.00">ar/AR.h</text>
</a>
</g>
</g>
<!-- Node5&#45;&gt;Node7 -->
<g id="edge6" class="edge">
<title>Node5&#45;&gt;Node7</title>
<path fill="none" stroke="midnightblue" d="M269.43,-168.37C257.76,-150.3 230.58,-108.18 215.17,-84.31"/>
<polygon fill="midnightblue" stroke="midnightblue" points="217.91,-82.1 209.55,-75.59 212.03,-85.89 217.91,-82.1"/>
</g>
<!-- Node8 -->
<g id="node8" class="node">
<title>Node8</title>
<g id="a_node8"><a xlink:href="ARQ_8h.html" target="_top" xlink:title=" ">
<polygon fill="white" stroke="black" points="247,-56.5 247,-75.5 303,-75.5 303,-56.5 247,-56.5"/>
<text text-anchor="middle" x="275" y="-63.5" font-family="Helvetica,sans-Serif" font-size="10.00">ar/ARQ.h</text>
</a>
</g>
</g>
<!-- Node5&#45;&gt;Node8 -->
<g id="edge8" class="edge">
<title>Node5&#45;&gt;Node8</title>
<path fill="none" stroke="midnightblue" d="M275,-168.37C275,-150.62 275,-109.67 275,-85.6"/>
<polygon fill="midnightblue" stroke="midnightblue" points="278.5,-85.59 275,-75.59 271.5,-85.59 278.5,-85.59"/>
</g>
<!-- Node9 -->
<g id="node9" class="node">
<title>Node9</title>
<g id="a_node9"><a xlink:href="mwcc_8h.html" target="_top" xlink:title=" ">
<polygon fill="white" stroke="black" points="374,-112.5 374,-131.5 424,-131.5 424,-112.5 374,-112.5"/>
<text text-anchor="middle" x="399" y="-119.5" font-family="Helvetica,sans-Serif" font-size="10.00">mwcc.h</text>
</a>
</g>
</g>
<!-- Node5&#45;&gt;Node9 -->
<g id="edge10" class="edge">
<title>Node5&#45;&gt;Node9</title>
<path fill="none" stroke="midnightblue" d="M294.65,-168.44C314.96,-159.6 346.9,-145.69 370.1,-135.59"/>
<polygon fill="midnightblue" stroke="midnightblue" points="371.67,-138.72 379.44,-131.52 368.88,-132.3 371.67,-138.72"/>
</g>
<!-- Node10 -->
<g id="node10" class="node">
<title>Node10</title>
<g id="a_node10"><a xlink:href="OS_8h.html" target="_top" xlink:title=" ">
<polygon fill="white" stroke="black" points="304,-112.5 304,-131.5 356,-131.5 356,-112.5 304,-112.5"/>
<text text-anchor="middle" x="330" y="-119.5" font-family="Helvetica,sans-Serif" font-size="10.00">os/OS.h</text>
</a>
</g>
</g>
<!-- Node5&#45;&gt;Node10 -->
<g id="edge11" class="edge">
<title>Node5&#45;&gt;Node10</title>
<path fill="none" stroke="midnightblue" d="M284.08,-168.08C292.17,-160.14 304.2,-148.34 313.91,-138.8"/>
<polygon fill="midnightblue" stroke="midnightblue" points="316.4,-141.25 321.09,-131.75 311.5,-136.26 316.4,-141.25"/>
</g>
<!-- Node7&#45;&gt;Node6 -->
<g id="edge7" class="edge">
<title>Node7&#45;&gt;Node6</title>
<path fill="none" stroke="midnightblue" d="M215.41,-56.32C226.11,-48.18 242.34,-35.84 255.16,-26.09"/>
<polygon fill="midnightblue" stroke="midnightblue" points="257.54,-28.67 263.39,-19.83 253.31,-23.1 257.54,-28.67"/>
</g>
<!-- Node8&#45;&gt;Node6 -->
<g id="edge9" class="edge">
<title>Node8&#45;&gt;Node6</title>
<path fill="none" stroke="midnightblue" d="M275,-56.08C275,-49.01 275,-38.86 275,-29.99"/>
<polygon fill="midnightblue" stroke="midnightblue" points="278.5,-29.75 275,-19.75 271.5,-29.75 278.5,-29.75"/>
</g>
<!-- Node10&#45;&gt;Node6 -->
<g id="edge12" class="edge">
<title>Node10&#45;&gt;Node6</title>
<path fill="none" stroke="midnightblue" d="M328.75,-112.16C326.67,-99.24 321.72,-74.7 312,-56 306.47,-45.36 298.14,-34.93 290.77,-26.8"/>
<polygon fill="midnightblue" stroke="midnightblue" points="293.29,-24.36 283.88,-19.5 288.2,-29.17 293.29,-24.36"/>
</g>
<!-- Node11 -->
<g id="node11" class="node">
<title>Node11</title>
<g id="a_node11"><a xlink:href="dvd_8h.html" target="_top" xlink:title=" ">
<polygon fill="white" stroke="black" points="359.5,-56.5 359.5,-75.5 418.5,-75.5 418.5,-56.5 359.5,-56.5"/>
<text text-anchor="middle" x="389" y="-63.5" font-family="Helvetica,sans-Serif" font-size="10.00">dvd/dvd.h</text>
</a>
</g>
</g>
<!-- Node10&#45;&gt;Node11 -->
<g id="edge13" class="edge">
<title>Node10&#45;&gt;Node11</title>
<path fill="none" stroke="midnightblue" d="M339.48,-112.32C348.2,-104.34 361.34,-92.31 371.9,-82.65"/>
<polygon fill="midnightblue" stroke="midnightblue" points="374.33,-85.17 379.35,-75.83 369.61,-80 374.33,-85.17"/>
</g>
<!-- Node11&#45;&gt;Node6 -->
<g id="edge14" class="edge">
<title>Node11&#45;&gt;Node6</title>
<path fill="none" stroke="midnightblue" d="M370.94,-56.44C352.43,-47.68 323.42,-33.94 302.14,-23.86"/>
<polygon fill="midnightblue" stroke="midnightblue" points="303.51,-20.63 292.98,-19.52 300.52,-26.96 303.51,-20.63"/>
</g>
<!-- Node12&#45;&gt;Node4 -->
<g id="edge16" class="edge">
<title>Node12&#45;&gt;Node4</title>
<path fill="none" stroke="midnightblue" d="M107.55,-448.33C100.05,-428.25 83.79,-377.09 95,-336 102.6,-308.13 107.02,-299.86 128,-280 142.87,-265.93 162.99,-255.14 180.14,-247.66"/>
<polygon fill="midnightblue" stroke="midnightblue" points="181.93,-250.71 189.83,-243.64 179.25,-244.24 181.93,-250.71"/>
</g>
<!-- Node12&#45;&gt;Node5 -->
<g id="edge26" class="edge">
<title>Node12&#45;&gt;Node5</title>
<path fill="none" stroke="midnightblue" d="M99.91,-448.33C79.49,-431.29 38,-391.24 38,-347 38,-347 38,-347 38,-289 38,-201.34 173.04,-183.34 239.25,-179.79"/>
<polygon fill="midnightblue" stroke="midnightblue" points="239.81,-183.27 249.64,-179.32 239.49,-176.27 239.81,-183.27"/>
</g>
<!-- Node13 -->
<g id="node13" class="node">
<title>Node13</title>
<g id="a_node13"><a xlink:href="c__tag_8h.html" target="_top" xlink:title=" ">
<polygon fill="white" stroke="black" points="188.5,-392.5 188.5,-411.5 295.5,-411.5 295.5,-392.5 188.5,-392.5"/>
<text text-anchor="middle" x="242" y="-399.5" font-family="Helvetica,sans-Serif" font-size="10.00">SComponent/c_tag.h</text>
</a>
</g>
</g>
<!-- Node12&#45;&gt;Node13 -->
<g id="edge17" class="edge">
<title>Node12&#45;&gt;Node13</title>
<path fill="none" stroke="midnightblue" d="M131.76,-448.44C153.32,-439.56 187.26,-425.56 211.79,-415.45"/>
<polygon fill="midnightblue" stroke="midnightblue" points="213.43,-418.56 221.34,-411.52 210.76,-412.09 213.43,-418.56"/>
</g>
<!-- Node15 -->
<g id="node15" class="node">
<title>Node15</title>
<g id="a_node15"><a xlink:href="c__tree_8h.html" target="_top" xlink:title=" ">
<polygon fill="white" stroke="black" points="104,-336.5 104,-355.5 214,-355.5 214,-336.5 104,-336.5"/>
<text text-anchor="middle" x="159" y="-343.5" font-family="Helvetica,sans-Serif" font-size="10.00">SComponent/c_tree.h</text>
</a>
</g>
</g>
<!-- Node12&#45;&gt;Node15 -->
<g id="edge25" class="edge">
<title>Node12&#45;&gt;Node15</title>
<path fill="none" stroke="midnightblue" d="M114.77,-448.37C122.58,-430.46 140.71,-388.92 151.17,-364.95"/>
<polygon fill="midnightblue" stroke="midnightblue" points="154.46,-366.16 155.25,-355.59 148.04,-363.36 154.46,-366.16"/>
</g>
<!-- Node13&#45;&gt;Node4 -->
<g id="edge20" class="edge">
<title>Node13&#45;&gt;Node4</title>
<path fill="none" stroke="midnightblue" d="M246.26,-392.41C255.72,-372.06 276.42,-319.64 260,-280 255.08,-268.12 245.33,-257.74 236.17,-249.96"/>
<polygon fill="midnightblue" stroke="midnightblue" points="238.08,-247.01 228.06,-243.56 233.75,-252.51 238.08,-247.01"/>
</g>
<!-- Node13&#45;&gt;Node5 -->
<g id="edge24" class="edge">
<title>Node13&#45;&gt;Node5</title>
<path fill="none" stroke="midnightblue" d="M250.84,-392.28C258.77,-383.83 269.92,-370.23 275,-356 294.51,-301.38 285.25,-231.09 279.04,-197.92"/>
<polygon fill="midnightblue" stroke="midnightblue" points="282.41,-196.94 277.02,-187.82 275.55,-198.32 282.41,-196.94"/>
</g>
<!-- Node14 -->
<g id="node14" class="node">
<title>Node14</title>
<g id="a_node14"><a xlink:href="c__list_8h.html" target="_top" xlink:title=" ">
<polygon fill="white" stroke="black" points="144.5,-280.5 144.5,-299.5 251.5,-299.5 251.5,-280.5 144.5,-280.5"/>
<text text-anchor="middle" x="198" y="-287.5" font-family="Helvetica,sans-Serif" font-size="10.00">SComponent/c_list.h</text>
</a>
</g>
</g>
<!-- Node13&#45;&gt;Node14 -->
<g id="edge18" class="edge">
<title>Node13&#45;&gt;Node14</title>
<path fill="none" stroke="midnightblue" d="M240.13,-392.38C237.24,-379.73 231.16,-355.53 223,-336 219.04,-326.52 213.59,-316.47 208.79,-308.29"/>
<polygon fill="midnightblue" stroke="midnightblue" points="211.75,-306.42 203.58,-299.67 205.76,-310.04 211.75,-306.42"/>
</g>
<!-- Node13&#45;&gt;Node15 -->
<g id="edge21" class="edge">
<title>Node13&#45;&gt;Node15</title>
<path fill="none" stroke="midnightblue" d="M228.66,-392.32C215.84,-383.98 196.22,-371.21 181.06,-361.35"/>
<polygon fill="midnightblue" stroke="midnightblue" points="182.59,-358.17 172.3,-355.65 178.78,-364.04 182.59,-358.17"/>
</g>
<!-- Node14&#45;&gt;Node4 -->
<g id="edge19" class="edge">
<title>Node14&#45;&gt;Node4</title>
<path fill="none" stroke="midnightblue" d="M200.81,-280.08C203.08,-272.85 206.37,-262.41 209.21,-253.4"/>
<polygon fill="midnightblue" stroke="midnightblue" points="212.58,-254.34 212.25,-243.75 205.9,-252.24 212.58,-254.34"/>
</g>
<!-- Node15&#45;&gt;Node4 -->
<g id="edge23" class="edge">
<title>Node15&#45;&gt;Node4</title>
<path fill="none" stroke="midnightblue" d="M151.02,-336.16C140.37,-323.23 124.07,-298.69 135,-280 143.86,-264.85 159.91,-254.41 175.31,-247.42"/>
<polygon fill="midnightblue" stroke="midnightblue" points="176.85,-250.57 184.75,-243.51 174.17,-244.11 176.85,-250.57"/>
</g>
<!-- Node15&#45;&gt;Node14 -->
<g id="edge22" class="edge">
<title>Node15&#45;&gt;Node14</title>
<path fill="none" stroke="midnightblue" d="M165.44,-336.08C170.95,-328.46 179.03,-317.26 185.76,-307.94"/>
<polygon fill="midnightblue" stroke="midnightblue" points="188.66,-309.91 191.68,-299.75 182.99,-305.81 188.66,-309.91"/>
</g>
<!-- Node16&#45;&gt;Node3 -->
<g id="edge29" class="edge">
<title>Node16&#45;&gt;Node3</title>
<path fill="none" stroke="midnightblue" d="M424.84,-448.08C423.92,-440.93 422.58,-430.64 421.42,-421.69"/>
<polygon fill="midnightblue" stroke="midnightblue" points="424.89,-421.22 420.13,-411.75 417.95,-422.12 424.89,-421.22"/>
</g>
<!-- Node16&#45;&gt;Node5 -->
<g id="edge31" class="edge">
<title>Node16&#45;&gt;Node5</title>
<path fill="none" stroke="midnightblue" d="M446.7,-448.35C462.14,-440.88 482.64,-428.65 495,-412 512.94,-387.83 514,-377.1 514,-347 514,-347 514,-347 514,-289 514,-200.33 376.58,-182.89 310.15,-179.63"/>
<polygon fill="midnightblue" stroke="midnightblue" points="310.26,-176.13 300.13,-179.22 309.97,-183.13 310.26,-176.13"/>
</g>
<!-- Node16&#45;&gt;Node13 -->
<g id="edge30" class="edge">
<title>Node16&#45;&gt;Node13</title>
<path fill="none" stroke="midnightblue" d="M396.84,-448.44C365.49,-439.24 315.47,-424.56 280.8,-414.39"/>
<polygon fill="midnightblue" stroke="midnightblue" points="281.6,-410.97 271.02,-411.52 279.63,-417.69 281.6,-410.97"/>
</g>
<!-- Node17&#45;&gt;Node3 -->
<g id="edge33" class="edge">
<title>Node17&#45;&gt;Node3</title>
<path fill="none" stroke="midnightblue" d="M270.05,-448.44C300.08,-439.28 347.91,-424.69 381.24,-414.52"/>
<polygon fill="midnightblue" stroke="midnightblue" points="382.54,-417.78 391.09,-411.52 380.5,-411.09 382.54,-417.78"/>
</g>
<!-- Node17&#45;&gt;Node5 -->
<g id="edge35" class="edge">
<title>Node17&#45;&gt;Node5</title>
<path fill="none" stroke="midnightblue" d="M262.85,-448.43C277.58,-441.13 296.2,-429.09 305,-412 311.79,-398.8 350.27,-422.81 298,-224 295.46,-214.35 290.64,-204.39 286.06,-196.3"/>
<polygon fill="midnightblue" stroke="midnightblue" points="288.93,-194.27 280.77,-187.51 282.93,-197.88 288.93,-194.27"/>
</g>
<!-- Node17&#45;&gt;Node15 -->
<g id="edge34" class="edge">
<title>Node17&#45;&gt;Node15</title>
<path fill="none" stroke="midnightblue" d="M224.66,-448.39C210.73,-440.65 191.64,-428.04 180,-412 170.1,-398.35 164.72,-379.81 161.89,-366.03"/>
<polygon fill="midnightblue" stroke="midnightblue" points="165.26,-365.01 160.07,-355.77 158.37,-366.23 165.26,-365.01"/>
</g>
</g>
</svg>
        <g id="navigator" transform="translate(0 0)" fill="#404254">
                <rect fill="#f2f5e9" fill-opacity="0.5" stroke="#606060" stroke-width=".5" x="0" y="0" width="60" height="60"/>
                <use id="zoomplus" xlink:href="#zoomPlus" x="17" y="9" onmousedown="handleZoom(evt,'in')"/>
                <use id="zoomminus" xlink:href="#zoomMin" x="42" y="9" onmousedown="handleZoom(evt,'out')"/>
                <use id="reset" xlink:href="#resetDef" x="30" y="36" onmousedown="handleReset()"/>
                <g id="arrowUp" xlink:href="#dirArrow" transform="translate(30 24)" onmousedown="handlePan(0,-1)">
                  <use xlink:href="#rim" fill="#404040">
                        <set attributeName="fill" to="#808080" begin="arrowUp.mouseover" end="arrowUp.mouseout"/>
                  </use>
                  <path fill="none" stroke="white" stroke-width="1.5" d="M0,-3.0v7 M-2.5,-0.5L0,-3.0L2.5,-0.5"/>
                </g>
                <g id="arrowRight" xlink:href="#dirArrow" transform="rotate(90) translate(36 -43)" onmousedown="handlePan(1,0)">
                  <use xlink:href="#rim" fill="#404040">
                        <set attributeName="fill" to="#808080" begin="arrowRight.mouseover" end="arrowRight.mouseout"/>
                  </use>
                  <path fill="none" stroke="white" stroke-width="1.5" d="M0,-3.0v7 M-2.5,-0.5L0,-3.0L2.5,-0.5"/>
                </g>
                <g id="arrowDown" xlink:href="#dirArrow" transform="rotate(180) translate(-30 -48)" onmousedown="handlePan(0,1)">
                  <use xlink:href="#rim" fill="#404040">
                        <set attributeName="fill" to="#808080" begin="arrowDown.mouseover" end="arrowDown.mouseout"/>
                  </use>
                  <path fill="none" stroke="white" stroke-width="1.5" d="M0,-3.0v7 M-2.5,-0.5L0,-3.0L2.5,-0.5"/>
                </g>
                <g id="arrowLeft" xlink:href="#dirArrow" transform="rotate(270) translate(-36 17)" onmousedown="handlePan(-1,0)">
                  <use xlink:href="#rim" fill="#404040">
                        <set attributeName="fill" to="#808080" begin="arrowLeft.mouseover" end="arrowLeft.mouseout"/>
                  </use>
                  <path fill="none" stroke="white" stroke-width="1.5" d="M0,-3.0v7 M-2.5,-0.5L0,-3.0L2.5,-0.5"/>
                </g>
        </g>
        <svg viewBox="0 0 15 15" width="100%" height="30px" preserveAspectRatio="xMaxYMin meet">
         <g id="arrow_out" transform="scale(0.3 0.3)">
          <a xlink:href="f__pc__layer__iter_8cpp__incl_org.svg" target="_base">
           <rect id="button" ry="5" rx="5" y="6" x="6" height="38" width="38"
                fill="#f2f5e9" fill-opacity="0.5" stroke="#606060" stroke-width="1.0"/>
           <path id="arrow"
             d="M 11.500037,31.436501 C 11.940474,20.09759 22.043105,11.32322 32.158766,21.979434 L 37.068811,17.246167 C 37.068811,17.246167 37.088388,32 37.088388,32 L 22.160133,31.978069 C 22.160133,31.978069 26.997745,27.140456 26.997745,27.140456 C 18.528582,18.264221 13.291696,25.230495 11.500037,31.436501 z"
             style="fill:#404040;"/>
          </a>
         </g>
        </svg>
</svg>
