<?xml version="1.0" encoding="UTF-8" standalone="no"?>
<!DOCTYPE svg PUBLIC "-//W3C//DTD SVG 1.1//EN"
 "http://www.w3.org/Graphics/SVG/1.1/DTD/svg11.dtd">
<!-- Generated by graphviz version 2.44.0 ()
 -->
<!-- Title: include/f/f_pc/f_pc_create_tag.h Pages: 1 -->
<!--zoomable 363 -->
<svg id="main" version="1.1" xmlns="http://www.w3.org/2000/svg" xmlns:xlink="http://www.w3.org/1999/xlink" xml:space="preserve" onload="init(evt)">
<style type="text/css"><![CDATA[
.edge:hover path { stroke: red; }
.edge:hover polygon { stroke: red; fill: red; }
]]></style>
<script type="text/javascript"><![CDATA[
var edges = document.getElementsByTagName('g');
if (edges && edges.length) {
  for (var i=0;i<edges.length;i++) {
    if (edges[i].id.substr(0,4)=='edge') {
      edges[i].setAttribute('class','edge');
    }
  }
}
]]></script>
        <defs>
                <circle id="rim" cx="0" cy="0" r="7"/>
                <circle id="rim2" cx="0" cy="0" r="3.5"/>
                <g id="zoomPlus">
                        <use xlink:href="#rim" fill="#404040">
                                <set attributeName="fill" to="#808080" begin="zoomplus.mouseover" end="zoomplus.mouseout"/>
                        </use>
                        <path d="M-4,0h8M0,-4v8" fill="none" stroke="white" stroke-width="1.5" pointer-events="none"/>
                </g>
                <g id="zoomMin">
                        <use xlink:href="#rim" fill="#404040">
                                <set attributeName="fill" to="#808080" begin="zoomminus.mouseover" end="zoomminus.mouseout"/>
                        </use>
                        <path d="M-4,0h8" fill="none" stroke="white" stroke-width="1.5" pointer-events="none"/>
                </g>
                <g id="dirArrow">
                        <path fill="none" stroke="white" stroke-width="1.5" d="M0,-3.0v7 M-2.5,-0.5L0,-3.0L2.5,-0.5"/>
                </g>
               <g id="resetDef">
                       <use xlink:href="#rim2" fill="#404040">
                               <set attributeName="fill" to="#808080" begin="reset.mouseover" end="reset.mouseout"/>
                       </use>
               </g>
        </defs>

<script type="text/javascript">
var viewWidth = 1527;
var viewHeight = 363;
var sectionId = 'dynsection-1';
</script>
<script xlink:href="svgpan.js"/>
<svg id="graph" class="graph">
<g id="viewport">
<title>include/f/f_pc/f_pc_create_tag.h</title>
<polygon fill="white" stroke="transparent" points="-4,4 -4,-359 1522.5,-359 1522.5,4 -4,4"/>
<!-- Node1 -->
<g id="node1" class="node">
<title>Node1</title>
<g id="a_node1"><a xlink:title=" ">
<polygon fill="#bfbfbf" stroke="black" points="446,-324.5 446,-354.5 543,-354.5 543,-324.5 446,-324.5"/>
<text text-anchor="start" x="454" y="-342.5" font-family="Helvetica,sans-Serif" font-size="10.00">include/f/f_pc/f_pc</text>
<text text-anchor="middle" x="494.5" y="-331.5" font-family="Helvetica,sans-Serif" font-size="10.00">_create_tag.h</text>
</a>
</g>
</g>
<!-- Node2 -->
<g id="node2" class="node">
<title>Node2</title>
<g id="a_node2"><a xlink:href="f__pc__create__tag_8cpp.html" target="_top" xlink:title=" ">
<polygon fill="white" stroke="black" points="316.5,-257.5 316.5,-287.5 428.5,-287.5 428.5,-257.5 316.5,-257.5"/>
<text text-anchor="start" x="324.5" y="-275.5" font-family="Helvetica,sans-Serif" font-size="10.00">src/f/f_pc/f_pc_create</text>
<text text-anchor="middle" x="372.5" y="-264.5" font-family="Helvetica,sans-Serif" font-size="10.00">_tag.cpp</text>
</a>
</g>
</g>
<!-- Node1&#45;&gt;Node2 -->
<g id="edge1" class="edge">
<title>Node1&#45;&gt;Node2</title>
<path fill="none" stroke="midnightblue" d="M458.98,-319.57C439.79,-309.35 416.5,-296.94 398.92,-287.58"/>
<polygon fill="midnightblue" stroke="midnightblue" points="457.56,-322.78 468.03,-324.4 460.85,-316.6 457.56,-322.78"/>
</g>
<!-- Node3 -->
<g id="node3" class="node">
<title>Node3</title>
<g id="a_node3"><a xlink:href="f__pc__create__iter_8h.html" target="_top" xlink:title=" ">
<polygon fill="white" stroke="black" points="446,-257.5 446,-287.5 543,-287.5 543,-257.5 446,-257.5"/>
<text text-anchor="start" x="454" y="-275.5" font-family="Helvetica,sans-Serif" font-size="10.00">include/f/f_pc/f_pc</text>
<text text-anchor="middle" x="494.5" y="-264.5" font-family="Helvetica,sans-Serif" font-size="10.00">_create_iter.h</text>
</a>
</g>
</g>
<!-- Node1&#45;&gt;Node3 -->
<g id="edge2" class="edge">
<title>Node1&#45;&gt;Node3</title>
<path fill="none" stroke="midnightblue" d="M494.5,-314.11C494.5,-305.15 494.5,-295.32 494.5,-287.58"/>
<polygon fill="midnightblue" stroke="midnightblue" points="491,-314.4 494.5,-324.4 498,-314.4 491,-314.4"/>
</g>
<!-- Node22 -->
<g id="node22" class="node">
<title>Node22</title>
<g id="a_node22"><a xlink:href="f__pc__create__req_8h.html" target="_top" xlink:title=" ">
<polygon fill="white" stroke="black" points="717,-257.5 717,-287.5 814,-287.5 814,-257.5 717,-257.5"/>
<text text-anchor="start" x="725" y="-275.5" font-family="Helvetica,sans-Serif" font-size="10.00">include/f/f_pc/f_pc</text>
<text text-anchor="middle" x="765.5" y="-264.5" font-family="Helvetica,sans-Serif" font-size="10.00">_create_req.h</text>
</a>
</g>
</g>
<!-- Node1&#45;&gt;Node22 -->
<g id="edge23" class="edge">
<title>Node1&#45;&gt;Node22</title>
<path fill="none" stroke="midnightblue" d="M553.06,-324.45C601.92,-312.73 670.74,-296.23 716.67,-285.21"/>
<polygon fill="midnightblue" stroke="midnightblue" points="552.17,-321.07 543.26,-326.8 553.8,-327.88 552.17,-321.07"/>
</g>
<!-- Node4 -->
<g id="node4" class="node">
<title>Node4</title>
<g id="a_node4"><a xlink:href="f__pc__create__iter_8cpp.html" target="_top" xlink:title=" ">
<polygon fill="white" stroke="black" points="438.5,-190.5 438.5,-220.5 550.5,-220.5 550.5,-190.5 438.5,-190.5"/>
<text text-anchor="start" x="446.5" y="-208.5" font-family="Helvetica,sans-Serif" font-size="10.00">src/f/f_pc/f_pc_create</text>
<text text-anchor="middle" x="494.5" y="-197.5" font-family="Helvetica,sans-Serif" font-size="10.00">_iter.cpp</text>
</a>
</g>
</g>
<!-- Node3&#45;&gt;Node4 -->
<g id="edge3" class="edge">
<title>Node3&#45;&gt;Node4</title>
<path fill="none" stroke="midnightblue" d="M494.5,-247.11C494.5,-238.15 494.5,-228.32 494.5,-220.58"/>
<polygon fill="midnightblue" stroke="midnightblue" points="491,-247.4 494.5,-257.4 498,-247.4 491,-247.4"/>
</g>
<!-- Node5 -->
<g id="node5" class="node">
<title>Node5</title>
<g id="a_node5"><a xlink:href="f__pc__create__req_8cpp.html" target="_top" xlink:title=" ">
<polygon fill="white" stroke="black" points="568.5,-190.5 568.5,-220.5 680.5,-220.5 680.5,-190.5 568.5,-190.5"/>
<text text-anchor="start" x="576.5" y="-208.5" font-family="Helvetica,sans-Serif" font-size="10.00">src/f/f_pc/f_pc_create</text>
<text text-anchor="middle" x="624.5" y="-197.5" font-family="Helvetica,sans-Serif" font-size="10.00">_req.cpp</text>
</a>
</g>
</g>
<!-- Node3&#45;&gt;Node5 -->
<g id="edge4" class="edge">
<title>Node3&#45;&gt;Node5</title>
<path fill="none" stroke="midnightblue" d="M531.79,-252.85C552.35,-242.58 577.45,-230.03 596.35,-220.58"/>
<polygon fill="midnightblue" stroke="midnightblue" points="530.09,-249.79 522.71,-257.4 533.22,-256.05 530.09,-249.79"/>
</g>
<!-- Node6 -->
<g id="node6" class="node">
<title>Node6</title>
<g id="a_node6"><a xlink:href="f__pc__manager_8cpp.html" target="_top" xlink:title=" ">
<polygon fill="white" stroke="black" points="291.5,-129 291.5,-148 431.5,-148 431.5,-129 291.5,-129"/>
<text text-anchor="middle" x="361.5" y="-136" font-family="Helvetica,sans-Serif" font-size="10.00">src/f/f_pc/f_pc_manager.cpp</text>
</a>
</g>
</g>
<!-- Node3&#45;&gt;Node6 -->
<g id="edge5" class="edge">
<title>Node3&#45;&gt;Node6</title>
<path fill="none" stroke="midnightblue" d="M435.78,-255.92C384,-242.04 316.43,-223.54 314.5,-221 295.75,-196.27 330.72,-163.35 350,-148.03"/>
<polygon fill="midnightblue" stroke="midnightblue" points="435.01,-259.33 445.57,-258.54 436.82,-252.57 435.01,-259.33"/>
</g>
<!-- Node7 -->
<g id="node7" class="node">
<title>Node7</title>
<g id="a_node7"><a xlink:href="f__pc__manager_8h.html" target="_top" xlink:title=" ">
<polygon fill="white" stroke="black" points="324,-190.5 324,-220.5 421,-220.5 421,-190.5 324,-190.5"/>
<text text-anchor="start" x="332" y="-208.5" font-family="Helvetica,sans-Serif" font-size="10.00">include/f/f_pc/f_pc</text>
<text text-anchor="middle" x="372.5" y="-197.5" font-family="Helvetica,sans-Serif" font-size="10.00">_manager.h</text>
</a>
</g>
</g>
<!-- Node3&#45;&gt;Node7 -->
<g id="edge6" class="edge">
<title>Node3&#45;&gt;Node7</title>
<path fill="none" stroke="midnightblue" d="M458.98,-252.57C439.79,-242.35 416.5,-229.94 398.92,-220.58"/>
<polygon fill="midnightblue" stroke="midnightblue" points="457.56,-255.78 468.03,-257.4 460.85,-249.6 457.56,-255.78"/>
</g>
<!-- Node7&#45;&gt;Node6 -->
<g id="edge13" class="edge">
<title>Node7&#45;&gt;Node6</title>
<path fill="none" stroke="midnightblue" d="M368.4,-180.25C366.5,-169.02 364.36,-156.38 362.97,-148.19"/>
<polygon fill="midnightblue" stroke="midnightblue" points="364.99,-181.12 370.11,-190.4 371.9,-179.95 364.99,-181.12"/>
</g>
<!-- Node8 -->
<g id="node8" class="node">
<title>Node8</title>
<g id="a_node8"><a xlink:href="f__ap__game_8cpp.html" target="_top" xlink:title=" ">
<polygon fill="white" stroke="black" points="168,-129 168,-148 273,-148 273,-129 168,-129"/>
<text text-anchor="middle" x="220.5" y="-136" font-family="Helvetica,sans-Serif" font-size="10.00">src/f/f_ap_game.cpp</text>
</a>
</g>
</g>
<!-- Node7&#45;&gt;Node8 -->
<g id="edge7" class="edge">
<title>Node7&#45;&gt;Node8</title>
<path fill="none" stroke="midnightblue" d="M330.31,-186.46C300.94,-173.9 263.12,-157.72 240.39,-148.01"/>
<polygon fill="midnightblue" stroke="midnightblue" points="328.95,-189.68 339.52,-190.4 331.7,-183.25 328.95,-189.68"/>
</g>
<!-- Node9 -->
<g id="node9" class="node">
<title>Node9</title>
<g id="a_node9"><a xlink:href="d__a__alink_8cpp.html" target="_top" xlink:title=" ">
<polygon fill="white" stroke="black" points="180,-62 180,-81 299,-81 299,-62 180,-62"/>
<text text-anchor="middle" x="239.5" y="-69" font-family="Helvetica,sans-Serif" font-size="10.00">src/d/d_a/d_a_alink.cpp</text>
</a>
</g>
</g>
<!-- Node7&#45;&gt;Node9 -->
<g id="edge8" class="edge">
<title>Node7&#45;&gt;Node9</title>
<path fill="none" stroke="midnightblue" d="M313.32,-198.69C256.81,-191.77 177.51,-178.02 158.5,-154 149.95,-143.2 151.81,-135.05 158.5,-123 170.08,-102.13 194.26,-88.76 213.2,-81.06"/>
<polygon fill="midnightblue" stroke="midnightblue" points="313.25,-202.21 323.59,-199.9 314.07,-195.25 313.25,-202.21"/>
</g>
<!-- Node10 -->
<g id="node10" class="node">
<title>Node10</title>
<g id="a_node10"><a xlink:href="f__op__kankyo__mng_8cpp.html" target="_top" xlink:title=" ">
<polygon fill="white" stroke="black" points="839.5,-123.5 839.5,-153.5 955.5,-153.5 955.5,-123.5 839.5,-123.5"/>
<text text-anchor="start" x="847.5" y="-141.5" font-family="Helvetica,sans-Serif" font-size="10.00">src/f/f_op/f_op_kankyo</text>
<text text-anchor="middle" x="897.5" y="-130.5" font-family="Helvetica,sans-Serif" font-size="10.00">_mng.cpp</text>
</a>
</g>
</g>
<!-- Node7&#45;&gt;Node10 -->
<g id="edge9" class="edge">
<title>Node7&#45;&gt;Node10</title>
<path fill="none" stroke="midnightblue" d="M431.08,-189.9C607.65,-160.59 656.8,-180.49 830.5,-154 833.44,-153.55 836.45,-153.05 839.48,-152.52"/>
<polygon fill="midnightblue" stroke="midnightblue" points="430.49,-186.45 421.21,-191.57 431.65,-193.35 430.49,-186.45"/>
</g>
<!-- Node11 -->
<g id="node11" class="node">
<title>Node11</title>
<g id="a_node11"><a xlink:href="f__op__msg__mng_8cpp.html" target="_top" xlink:title=" ">
<polygon fill="white" stroke="black" points="973.5,-123.5 973.5,-153.5 1077.5,-153.5 1077.5,-123.5 973.5,-123.5"/>
<text text-anchor="start" x="981.5" y="-141.5" font-family="Helvetica,sans-Serif" font-size="10.00">src/f/f_op/f_op_msg</text>
<text text-anchor="middle" x="1025.5" y="-130.5" font-family="Helvetica,sans-Serif" font-size="10.00">_mng.cpp</text>
</a>
</g>
</g>
<!-- Node7&#45;&gt;Node11 -->
<g id="edge10" class="edge">
<title>Node7&#45;&gt;Node11</title>
<path fill="none" stroke="midnightblue" d="M431.09,-189.93C666.62,-153.47 732.09,-189.19 964.5,-154 967.41,-153.56 970.38,-153.05 973.37,-152.49"/>
<polygon fill="midnightblue" stroke="midnightblue" points="430.53,-186.48 421.2,-191.49 431.62,-193.39 430.53,-186.48"/>
</g>
<!-- Node12 -->
<g id="node12" class="node">
<title>Node12</title>
<g id="a_node12"><a xlink:href="f__op__overlap__req_8cpp.html" target="_top" xlink:title=" ">
<polygon fill="white" stroke="black" points="449.5,-123.5 449.5,-153.5 565.5,-153.5 565.5,-123.5 449.5,-123.5"/>
<text text-anchor="start" x="457.5" y="-141.5" font-family="Helvetica,sans-Serif" font-size="10.00">src/f/f_op/f_op_overlap</text>
<text text-anchor="middle" x="507.5" y="-130.5" font-family="Helvetica,sans-Serif" font-size="10.00">_req.cpp</text>
</a>
</g>
</g>
<!-- Node7&#45;&gt;Node12 -->
<g id="edge11" class="edge">
<title>Node7&#45;&gt;Node12</title>
<path fill="none" stroke="midnightblue" d="M410.94,-185.99C432.34,-175.69 458.55,-163.07 478.26,-153.58"/>
<polygon fill="midnightblue" stroke="midnightblue" points="409.28,-182.9 401.79,-190.4 412.32,-189.21 409.28,-182.9"/>
</g>
<!-- Node13 -->
<g id="node13" class="node">
<title>Node13</title>
<g id="a_node13"><a xlink:href="f__op__scene__pause_8cpp.html" target="_top" xlink:title=" ">
<polygon fill="white" stroke="black" points="0,-123.5 0,-153.5 111,-153.5 111,-123.5 0,-123.5"/>
<text text-anchor="start" x="8" y="-141.5" font-family="Helvetica,sans-Serif" font-size="10.00">src/f/f_op/f_op_scene</text>
<text text-anchor="middle" x="55.5" y="-130.5" font-family="Helvetica,sans-Serif" font-size="10.00">_pause.cpp</text>
</a>
</g>
</g>
<!-- Node7&#45;&gt;Node13 -->
<g id="edge12" class="edge">
<title>Node7&#45;&gt;Node13</title>
<path fill="none" stroke="midnightblue" d="M313.76,-192.53C263.71,-182.33 189.87,-167.25 125.5,-154 120.88,-153.05 116.09,-152.06 111.28,-151.07"/>
<polygon fill="midnightblue" stroke="midnightblue" points="313.25,-196 323.75,-194.57 314.65,-189.14 313.25,-196"/>
</g>
<!-- Node14 -->
<g id="node14" class="node">
<title>Node14</title>
<g id="a_node14"><a xlink:href="f__op__actor__mng_8h.html" target="_top" xlink:title=" ">
<polygon fill="white" stroke="black" points="725,-123.5 725,-153.5 822,-153.5 822,-123.5 725,-123.5"/>
<text text-anchor="start" x="733" y="-141.5" font-family="Helvetica,sans-Serif" font-size="10.00">include/f/f_op/f_op</text>
<text text-anchor="middle" x="773.5" y="-130.5" font-family="Helvetica,sans-Serif" font-size="10.00">_actor_mng.h</text>
</a>
</g>
</g>
<!-- Node7&#45;&gt;Node14 -->
<g id="edge14" class="edge">
<title>Node7&#45;&gt;Node14</title>
<path fill="none" stroke="midnightblue" d="M431.26,-189.81C557.17,-166.72 592.77,-176.98 715.5,-154 718.56,-153.43 721.7,-152.79 724.86,-152.11"/>
<polygon fill="midnightblue" stroke="midnightblue" points="430.42,-186.4 421.23,-191.68 431.7,-193.29 430.42,-186.4"/>
</g>
<!-- Node14&#45;&gt;Node9 -->
<g id="edge19" class="edge">
<title>Node14&#45;&gt;Node9</title>
<path fill="none" stroke="midnightblue" d="M714.8,-123.09C620.59,-107.55 404.52,-87.28 299.15,-77.78"/>
<polygon fill="midnightblue" stroke="midnightblue" points="714.42,-126.58 724.87,-124.82 715.61,-119.68 714.42,-126.58"/>
</g>
<!-- Node15 -->
<g id="node15" class="node">
<title>Node15</title>
<g id="a_node15"><a xlink:href="d__attention_8cpp.html" target="_top" xlink:title=" ">
<polygon fill="white" stroke="black" points="933,-62 933,-81 1040,-81 1040,-62 933,-62"/>
<text text-anchor="middle" x="986.5" y="-69" font-family="Helvetica,sans-Serif" font-size="10.00">src/d/d_attention.cpp</text>
</a>
</g>
</g>
<!-- Node14&#45;&gt;Node15 -->
<g id="edge15" class="edge">
<title>Node14&#45;&gt;Node15</title>
<path fill="none" stroke="midnightblue" d="M829.17,-120.51C870.74,-107.83 925.81,-91.02 958.55,-81.03"/>
<polygon fill="midnightblue" stroke="midnightblue" points="828,-117.21 819.46,-123.48 830.04,-123.9 828,-117.21"/>
</g>
<!-- Node16 -->
<g id="node16" class="node">
<title>Node16</title>
<g id="a_node16"><a xlink:href="d__camera_8cpp.html" target="_top" xlink:title=" ">
<polygon fill="white" stroke="black" points="416.5,-62 416.5,-81 518.5,-81 518.5,-62 416.5,-62"/>
<text text-anchor="middle" x="467.5" y="-69" font-family="Helvetica,sans-Serif" font-size="10.00">src/d/d_camera.cpp</text>
</a>
</g>
</g>
<!-- Node14&#45;&gt;Node16 -->
<g id="edge16" class="edge">
<title>Node14&#45;&gt;Node16</title>
<path fill="none" stroke="midnightblue" d="M715.02,-122.97C630.32,-104.64 607.03,-104.55 526.5,-87 518.15,-85.18 509.18,-83.06 500.82,-81.01"/>
<polygon fill="midnightblue" stroke="midnightblue" points="714.3,-126.4 724.81,-125.12 715.79,-119.56 714.3,-126.4"/>
</g>
<!-- Node17 -->
<g id="node17" class="node">
<title>Node17</title>
<g id="a_node17"><a xlink:href="d__stage_8cpp.html" target="_top" xlink:title=" ">
<polygon fill="white" stroke="black" points="1058.5,-62 1058.5,-81 1152.5,-81 1152.5,-62 1058.5,-62"/>
<text text-anchor="middle" x="1105.5" y="-69" font-family="Helvetica,sans-Serif" font-size="10.00">src/d/d_stage.cpp</text>
</a>
</g>
</g>
<!-- Node14&#45;&gt;Node17 -->
<g id="edge17" class="edge">
<title>Node14&#45;&gt;Node17</title>
<path fill="none" stroke="midnightblue" d="M832.1,-122.77C928.35,-103.13 955.48,-106.47 1048.5,-87 1056.8,-85.26 1065.7,-83.13 1073.95,-81.04"/>
<polygon fill="midnightblue" stroke="midnightblue" points="831.34,-119.35 822.25,-124.81 832.76,-126.2 831.34,-119.35"/>
</g>
<!-- Node18 -->
<g id="node18" class="node">
<title>Node18</title>
<g id="a_node18"><a xlink:href="f__op__actor__mng_8cpp.html" target="_top" xlink:title=" ">
<polygon fill="white" stroke="black" points="536,-56.5 536,-86.5 643,-86.5 643,-56.5 536,-56.5"/>
<text text-anchor="start" x="544" y="-74.5" font-family="Helvetica,sans-Serif" font-size="10.00">src/f/f_op/f_op_actor</text>
<text text-anchor="middle" x="589.5" y="-63.5" font-family="Helvetica,sans-Serif" font-size="10.00">_mng.cpp</text>
</a>
</g>
</g>
<!-- Node14&#45;&gt;Node18 -->
<g id="edge18" class="edge">
<title>Node14&#45;&gt;Node18</title>
<path fill="none" stroke="midnightblue" d="M723.83,-119.96C694.2,-109.48 657.06,-96.37 629.35,-86.58"/>
<polygon fill="midnightblue" stroke="midnightblue" points="722.98,-123.37 733.57,-123.4 725.31,-116.76 722.98,-123.37"/>
</g>
<!-- Node19 -->
<g id="node19" class="node">
<title>Node19</title>
<g id="a_node19"><a xlink:href="m__Do__main_8cpp.html" target="_top" xlink:title=" ">
<polygon fill="white" stroke="black" points="661,-62 661,-81 792,-81 792,-62 661,-62"/>
<text text-anchor="middle" x="726.5" y="-69" font-family="Helvetica,sans-Serif" font-size="10.00">src/m_Do/m_Do_main.cpp</text>
</a>
</g>
</g>
<!-- Node14&#45;&gt;Node19 -->
<g id="edge20" class="edge">
<title>Node14&#45;&gt;Node19</title>
<path fill="none" stroke="midnightblue" d="M757.21,-114.97C748.79,-103.33 739.01,-89.8 732.79,-81.19"/>
<polygon fill="midnightblue" stroke="midnightblue" points="754.61,-117.34 763.3,-123.4 760.28,-113.24 754.61,-117.34"/>
</g>
<!-- Node20 -->
<g id="node20" class="node">
<title>Node20</title>
<g id="a_node20"><a xlink:href="d__model_8h.html" target="_top" xlink:title=" ">
<polygon fill="white" stroke="black" points="810.5,-56.5 810.5,-86.5 914.5,-86.5 914.5,-56.5 810.5,-56.5"/>
<text text-anchor="start" x="818.5" y="-74.5" font-family="Helvetica,sans-Serif" font-size="10.00">include/d/d_model/d</text>
<text text-anchor="middle" x="862.5" y="-63.5" font-family="Helvetica,sans-Serif" font-size="10.00">_model.h</text>
</a>
</g>
</g>
<!-- Node14&#45;&gt;Node20 -->
<g id="edge21" class="edge">
<title>Node14&#45;&gt;Node20</title>
<path fill="none" stroke="midnightblue" d="M800.95,-117.45C814.64,-107.45 830.87,-95.6 843.23,-86.58"/>
<polygon fill="midnightblue" stroke="midnightblue" points="798.82,-114.67 792.81,-123.4 802.95,-120.32 798.82,-114.67"/>
</g>
<!-- Node21 -->
<g id="node21" class="node">
<title>Node21</title>
<g id="a_node21"><a xlink:href="d__model_8cpp.html" target="_top" xlink:title=" ">
<polygon fill="white" stroke="black" points="814.5,-0.5 814.5,-19.5 910.5,-19.5 910.5,-0.5 814.5,-0.5"/>
<text text-anchor="middle" x="862.5" y="-7.5" font-family="Helvetica,sans-Serif" font-size="10.00">src/d/d_model.cpp</text>
</a>
</g>
</g>
<!-- Node20&#45;&gt;Node21 -->
<g id="edge22" class="edge">
<title>Node20&#45;&gt;Node21</title>
<path fill="none" stroke="midnightblue" d="M862.5,-46.29C862.5,-36.86 862.5,-26.65 862.5,-19.66"/>
<polygon fill="midnightblue" stroke="midnightblue" points="859,-46.4 862.5,-56.4 866,-46.4 859,-46.4"/>
</g>
<!-- Node22&#45;&gt;Node4 -->
<g id="edge24" class="edge">
<title>Node22&#45;&gt;Node4</title>
<path fill="none" stroke="midnightblue" d="M706.86,-257.43C660.6,-246.34 596.48,-230.96 550.83,-220.01"/>
<polygon fill="midnightblue" stroke="midnightblue" points="706.2,-260.88 716.74,-259.8 707.83,-254.07 706.2,-260.88"/>
</g>
<!-- Node22&#45;&gt;Node5 -->
<g id="edge25" class="edge">
<title>Node22&#45;&gt;Node5</title>
<path fill="none" stroke="midnightblue" d="M725.65,-253.13C703.25,-242.8 675.72,-230.11 655.04,-220.58"/>
<polygon fill="midnightblue" stroke="midnightblue" points="724.36,-256.39 734.91,-257.4 727.29,-250.03 724.36,-256.39"/>
</g>
<!-- Node23 -->
<g id="node23" class="node">
<title>Node23</title>
<g id="a_node23"><a xlink:href="f__pc__creator_8cpp.html" target="_top" xlink:title=" ">
<polygon fill="white" stroke="black" points="699,-196 699,-215 832,-215 832,-196 699,-196"/>
<text text-anchor="middle" x="765.5" y="-203" font-family="Helvetica,sans-Serif" font-size="10.00">src/f/f_pc/f_pc_creator.cpp</text>
</a>
</g>
</g>
<!-- Node22&#45;&gt;Node23 -->
<g id="edge26" class="edge">
<title>Node22&#45;&gt;Node23</title>
<path fill="none" stroke="midnightblue" d="M765.5,-247.25C765.5,-236.02 765.5,-223.38 765.5,-215.19"/>
<polygon fill="midnightblue" stroke="midnightblue" points="762,-247.4 765.5,-257.4 769,-247.4 762,-247.4"/>
</g>
<!-- Node24 -->
<g id="node24" class="node">
<title>Node24</title>
<g id="a_node24"><a xlink:href="f__pc__node__req_8cpp.html" target="_top" xlink:title=" ">
<polygon fill="white" stroke="black" points="1412.5,-123.5 1412.5,-153.5 1518.5,-153.5 1518.5,-123.5 1412.5,-123.5"/>
<text text-anchor="start" x="1420.5" y="-141.5" font-family="Helvetica,sans-Serif" font-size="10.00">src/f/f_pc/f_pc_node</text>
<text text-anchor="middle" x="1465.5" y="-130.5" font-family="Helvetica,sans-Serif" font-size="10.00">_req.cpp</text>
</a>
</g>
</g>
<!-- Node22&#45;&gt;Node24 -->
<g id="edge27" class="edge">
<title>Node22&#45;&gt;Node24</title>
<path fill="none" stroke="midnightblue" d="M824.49,-262.96C888.26,-253.54 992.81,-237.49 1082.5,-221 1225.84,-194.64 1261.2,-185.49 1403.5,-154 1406.41,-153.36 1409.4,-152.69 1412.42,-152"/>
<polygon fill="midnightblue" stroke="midnightblue" points="823.61,-259.56 814.23,-264.48 824.63,-266.48 823.61,-259.56"/>
</g>
<!-- Node25 -->
<g id="node25" class="node">
<title>Node25</title>
<g id="a_node25"><a xlink:href="f__pc__fstcreate__req_8h.html" target="_top" xlink:title=" ">
<polygon fill="white" stroke="black" points="850,-190.5 850,-220.5 947,-220.5 947,-190.5 850,-190.5"/>
<text text-anchor="start" x="858" y="-208.5" font-family="Helvetica,sans-Serif" font-size="10.00">include/f/f_pc/f_pc</text>
<text text-anchor="middle" x="898.5" y="-197.5" font-family="Helvetica,sans-Serif" font-size="10.00">_fstcreate_req.h</text>
</a>
</g>
</g>
<!-- Node22&#45;&gt;Node25 -->
<g id="edge28" class="edge">
<title>Node22&#45;&gt;Node25</title>
<path fill="none" stroke="midnightblue" d="M803.37,-252.99C824.45,-242.69 850.28,-230.07 869.7,-220.58"/>
<polygon fill="midnightblue" stroke="midnightblue" points="801.81,-249.86 794.36,-257.4 804.88,-256.15 801.81,-249.86"/>
</g>
<!-- Node27 -->
<g id="node27" class="node">
<title>Node27</title>
<g id="a_node27"><a xlink:href="f__pc__stdcreate__req_8h.html" target="_top" xlink:title=" ">
<polygon fill="white" stroke="black" points="977,-190.5 977,-220.5 1074,-220.5 1074,-190.5 977,-190.5"/>
<text text-anchor="start" x="985" y="-208.5" font-family="Helvetica,sans-Serif" font-size="10.00">include/f/f_pc/f_pc</text>
<text text-anchor="middle" x="1025.5" y="-197.5" font-family="Helvetica,sans-Serif" font-size="10.00">_stdcreate_req.h</text>
</a>
</g>
</g>
<!-- Node22&#45;&gt;Node27 -->
<g id="edge32" class="edge">
<title>Node22&#45;&gt;Node27</title>
<path fill="none" stroke="midnightblue" d="M823.93,-256.89C869.96,-245.39 933.37,-229.53 976.7,-218.7"/>
<polygon fill="midnightblue" stroke="midnightblue" points="822.95,-253.53 814.1,-259.35 824.65,-260.32 822.95,-253.53"/>
</g>
<!-- Node25&#45;&gt;Node6 -->
<g id="edge30" class="edge">
<title>Node25&#45;&gt;Node6</title>
<path fill="none" stroke="midnightblue" d="M839.97,-190.1C662.75,-160.9 614.16,-177.7 440.5,-154 428.62,-152.38 415.8,-150.21 404.02,-148.04"/>
<polygon fill="midnightblue" stroke="midnightblue" points="839.44,-193.56 849.88,-191.76 840.6,-186.66 839.44,-193.56"/>
</g>
<!-- Node25&#45;&gt;Node14 -->
<g id="edge31" class="edge">
<title>Node25&#45;&gt;Node14</title>
<path fill="none" stroke="midnightblue" d="M862.37,-185.71C842.66,-175.46 818.66,-162.98 800.57,-153.58"/>
<polygon fill="midnightblue" stroke="midnightblue" points="860.89,-188.89 871.38,-190.4 864.12,-182.68 860.89,-188.89"/>
</g>
<!-- Node26 -->
<g id="node26" class="node">
<title>Node26</title>
<g id="a_node26"><a xlink:href="f__pc__fstcreate__req_8cpp.html" target="_top" xlink:title=" ">
<polygon fill="white" stroke="black" points="584,-123.5 584,-153.5 707,-153.5 707,-123.5 584,-123.5"/>
<text text-anchor="start" x="592" y="-141.5" font-family="Helvetica,sans-Serif" font-size="10.00">src/f/f_pc/f_pc_fstcreate</text>
<text text-anchor="middle" x="645.5" y="-130.5" font-family="Helvetica,sans-Serif" font-size="10.00">_req.cpp</text>
</a>
</g>
</g>
<!-- Node25&#45;&gt;Node26 -->
<g id="edge29" class="edge">
<title>Node25&#45;&gt;Node26</title>
<path fill="none" stroke="midnightblue" d="M839.89,-189.44C797.8,-178.63 741.47,-164.16 700.28,-153.57"/>
<polygon fill="midnightblue" stroke="midnightblue" points="839.16,-192.87 849.72,-191.97 840.9,-186.09 839.16,-192.87"/>
</g>
<!-- Node27&#45;&gt;Node10 -->
<g id="edge35" class="edge">
<title>Node27&#45;&gt;Node10</title>
<path fill="none" stroke="midnightblue" d="M988.78,-185.85C968.54,-175.58 943.83,-163.03 925.22,-153.58"/>
<polygon fill="midnightblue" stroke="midnightblue" points="987.22,-188.99 997.73,-190.4 990.39,-182.75 987.22,-188.99"/>
</g>
<!-- Node27&#45;&gt;Node11 -->
<g id="edge36" class="edge">
<title>Node27&#45;&gt;Node11</title>
<path fill="none" stroke="midnightblue" d="M1025.5,-180.11C1025.5,-171.15 1025.5,-161.32 1025.5,-153.58"/>
<polygon fill="midnightblue" stroke="midnightblue" points="1022,-180.4 1025.5,-190.4 1029,-180.4 1022,-180.4"/>
</g>
<!-- Node27&#45;&gt;Node12 -->
<g id="edge37" class="edge">
<title>Node27&#45;&gt;Node12</title>
<path fill="none" stroke="midnightblue" d="M966.67,-191.83C962.9,-191.17 959.15,-190.55 955.5,-190 787.3,-164.71 742.58,-180.03 574.5,-154 571.56,-153.54 568.55,-153.04 565.53,-152.5"/>
<polygon fill="midnightblue" stroke="midnightblue" points="966.2,-195.3 976.67,-193.67 967.47,-188.42 966.2,-195.3"/>
</g>
<!-- Node27&#45;&gt;Node14 -->
<g id="edge40" class="edge">
<title>Node27&#45;&gt;Node14</title>
<path fill="none" stroke="midnightblue" d="M966.96,-189.4C923.07,-178.08 863.72,-162.77 822.37,-152.1"/>
<polygon fill="midnightblue" stroke="midnightblue" points="966.35,-192.86 976.91,-191.97 968.1,-186.08 966.35,-192.86"/>
</g>
<!-- Node27&#45;&gt;Node17 -->
<g id="edge33" class="edge">
<title>Node27&#45;&gt;Node17</title>
<path fill="none" stroke="midnightblue" d="M1057.47,-184.37C1068.16,-176.16 1079.19,-165.81 1086.5,-154 1101.1,-130.4 1104.49,-96.65 1105.27,-81.03"/>
<polygon fill="midnightblue" stroke="midnightblue" points="1055.09,-181.77 1049.05,-190.47 1059.2,-187.43 1055.09,-181.77"/>
</g>
<!-- Node27&#45;&gt;Node24 -->
<g id="edge38" class="edge">
<title>Node27&#45;&gt;Node24</title>
<path fill="none" stroke="midnightblue" d="M1084.2,-198.44C1158.76,-190.34 1291.23,-174.58 1403.5,-154 1406.44,-153.46 1409.44,-152.88 1412.47,-152.26"/>
<polygon fill="midnightblue" stroke="midnightblue" points="1083.64,-194.98 1074.07,-199.54 1084.39,-201.94 1083.64,-194.98"/>
</g>
<!-- Node28 -->
<g id="node28" class="node">
<title>Node28</title>
<g id="a_node28"><a xlink:href="f__op__camera__mng_8cpp.html" target="_top" xlink:title=" ">
<polygon fill="white" stroke="black" points="1134,-123.5 1134,-153.5 1251,-153.5 1251,-123.5 1134,-123.5"/>
<text text-anchor="start" x="1142" y="-141.5" font-family="Helvetica,sans-Serif" font-size="10.00">src/f/f_op/f_op_camera</text>
<text text-anchor="middle" x="1192.5" y="-130.5" font-family="Helvetica,sans-Serif" font-size="10.00">_mng.cpp</text>
</a>
</g>
</g>
<!-- Node27&#45;&gt;Node28 -->
<g id="edge34" class="edge">
<title>Node27&#45;&gt;Node28</title>
<path fill="none" stroke="midnightblue" d="M1071.28,-186.68C1098.06,-176.26 1131.4,-163.28 1156.33,-153.58"/>
<polygon fill="midnightblue" stroke="midnightblue" points="1069.79,-183.51 1061.74,-190.4 1072.33,-190.03 1069.79,-183.51"/>
</g>
<!-- Node29 -->
<g id="node29" class="node">
<title>Node29</title>
<g id="a_node29"><a xlink:href="f__pc__stdcreate__req_8cpp.html" target="_top" xlink:title=" ">
<polygon fill="white" stroke="black" points="1269,-123.5 1269,-153.5 1394,-153.5 1394,-123.5 1269,-123.5"/>
<text text-anchor="start" x="1277" y="-141.5" font-family="Helvetica,sans-Serif" font-size="10.00">src/f/f_pc/f_pc_stdcreate</text>
<text text-anchor="middle" x="1331.5" y="-130.5" font-family="Helvetica,sans-Serif" font-size="10.00">_req.cpp</text>
</a>
</g>
</g>
<!-- Node27&#45;&gt;Node29 -->
<g id="edge39" class="edge">
<title>Node27&#45;&gt;Node29</title>
<path fill="none" stroke="midnightblue" d="M1084.24,-192.02C1137.15,-180.78 1214.71,-164.31 1268.81,-152.82"/>
<polygon fill="midnightblue" stroke="midnightblue" points="1083.38,-188.63 1074.32,-194.13 1084.83,-195.47 1083.38,-188.63"/>
</g>
</g>
</svg>
        <g id="navigator" transform="translate(0 0)" fill="#404254">
                <rect fill="#f2f5e9" fill-opacity="0.5" stroke="#606060" stroke-width=".5" x="0" y="0" width="60" height="60"/>
                <use id="zoomplus" xlink:href="#zoomPlus" x="17" y="9" onmousedown="handleZoom(evt,'in')"/>
                <use id="zoomminus" xlink:href="#zoomMin" x="42" y="9" onmousedown="handleZoom(evt,'out')"/>
                <use id="reset" xlink:href="#resetDef" x="30" y="36" onmousedown="handleReset()"/>
                <g id="arrowUp" xlink:href="#dirArrow" transform="translate(30 24)" onmousedown="handlePan(0,-1)">
                  <use xlink:href="#rim" fill="#404040">
                        <set attributeName="fill" to="#808080" begin="arrowUp.mouseover" end="arrowUp.mouseout"/>
                  </use>
                  <path fill="none" stroke="white" stroke-width="1.5" d="M0,-3.0v7 M-2.5,-0.5L0,-3.0L2.5,-0.5"/>
                </g>
                <g id="arrowRight" xlink:href="#dirArrow" transform="rotate(90) translate(36 -43)" onmousedown="handlePan(1,0)">
                  <use xlink:href="#rim" fill="#404040">
                        <set attributeName="fill" to="#808080" begin="arrowRight.mouseover" end="arrowRight.mouseout"/>
                  </use>
                  <path fill="none" stroke="white" stroke-width="1.5" d="M0,-3.0v7 M-2.5,-0.5L0,-3.0L2.5,-0.5"/>
                </g>
                <g id="arrowDown" xlink:href="#dirArrow" transform="rotate(180) translate(-30 -48)" onmousedown="handlePan(0,1)">
                  <use xlink:href="#rim" fill="#404040">
                        <set attributeName="fill" to="#808080" begin="arrowDown.mouseover" end="arrowDown.mouseout"/>
                  </use>
                  <path fill="none" stroke="white" stroke-width="1.5" d="M0,-3.0v7 M-2.5,-0.5L0,-3.0L2.5,-0.5"/>
                </g>
                <g id="arrowLeft" xlink:href="#dirArrow" transform="rotate(270) translate(-36 17)" onmousedown="handlePan(-1,0)">
                  <use xlink:href="#rim" fill="#404040">
                        <set attributeName="fill" to="#808080" begin="arrowLeft.mouseover" end="arrowLeft.mouseout"/>
                  </use>
                  <path fill="none" stroke="white" stroke-width="1.5" d="M0,-3.0v7 M-2.5,-0.5L0,-3.0L2.5,-0.5"/>
                </g>
        </g>
        <svg viewBox="0 0 15 15" width="100%" height="30px" preserveAspectRatio="xMaxYMin meet">
         <g id="arrow_out" transform="scale(0.3 0.3)">
          <a xlink:href="f__pc__create__tag_8h__dep__incl_org.svg" target="_base">
           <rect id="button" ry="5" rx="5" y="6" x="6" height="38" width="38"
                fill="#f2f5e9" fill-opacity="0.5" stroke="#606060" stroke-width="1.0"/>
           <path id="arrow"
             d="M 11.500037,31.436501 C 11.940474,20.09759 22.043105,11.32322 32.158766,21.979434 L 37.068811,17.246167 C 37.068811,17.246167 37.088388,32 37.088388,32 L 22.160133,31.978069 C 22.160133,31.978069 26.997745,27.140456 26.997745,27.140456 C 18.528582,18.264221 13.291696,25.230495 11.500037,31.436501 z"
             style="fill:#404040;"/>
          </a>
         </g>
        </svg>
</svg>
