<?xml version="1.0" encoding="UTF-8" standalone="no"?>
<!DOCTYPE svg PUBLIC "-//W3C//DTD SVG 1.1//EN"
 "http://www.w3.org/Graphics/SVG/1.1/DTD/svg11.dtd">
<!-- Generated by graphviz version 2.44.0 ()
 -->
<!-- Title: include/f/f_pc/f_pc_searcher.h Pages: 1 -->
<!--zoomable 677 -->
<svg id="main" version="1.1" xmlns="http://www.w3.org/2000/svg" xmlns:xlink="http://www.w3.org/1999/xlink" xml:space="preserve" onload="init(evt)">
<style type="text/css"><![CDATA[
.edge:hover path { stroke: red; }
.edge:hover polygon { stroke: red; fill: red; }
]]></style>
<script type="text/javascript"><![CDATA[
var edges = document.getElementsByTagName('g');
if (edges && edges.length) {
  for (var i=0;i<edges.length;i++) {
    if (edges[i].id.substr(0,4)=='edge') {
      edges[i].setAttribute('class','edge');
    }
  }
}
]]></script>
        <defs>
                <circle id="rim" cx="0" cy="0" r="7"/>
                <circle id="rim2" cx="0" cy="0" r="3.5"/>
                <g id="zoomPlus">
                        <use xlink:href="#rim" fill="#404040">
                                <set attributeName="fill" to="#808080" begin="zoomplus.mouseover" end="zoomplus.mouseout"/>
                        </use>
                        <path d="M-4,0h8M0,-4v8" fill="none" stroke="white" stroke-width="1.5" pointer-events="none"/>
                </g>
                <g id="zoomMin">
                        <use xlink:href="#rim" fill="#404040">
                                <set attributeName="fill" to="#808080" begin="zoomminus.mouseover" end="zoomminus.mouseout"/>
                        </use>
                        <path d="M-4,0h8" fill="none" stroke="white" stroke-width="1.5" pointer-events="none"/>
                </g>
                <g id="dirArrow">
                        <path fill="none" stroke="white" stroke-width="1.5" d="M0,-3.0v7 M-2.5,-0.5L0,-3.0L2.5,-0.5"/>
                </g>
               <g id="resetDef">
                       <use xlink:href="#rim2" fill="#404040">
                               <set attributeName="fill" to="#808080" begin="reset.mouseover" end="reset.mouseout"/>
                       </use>
               </g>
        </defs>

<script type="text/javascript">
var viewWidth = 681;
var viewHeight = 677;
var sectionId = 'dynsection-0';
</script>
<script xlink:href="svgpan.js"/>
<svg id="graph" class="graph">
<g id="viewport">
<title>include/f/f_pc/f_pc_searcher.h</title>
<polygon fill="white" stroke="transparent" points="-4,4 -4,-673 676.86,-673 676.86,4 -4,4"/>
<!-- Node1 -->
<g id="node1" class="node">
<title>Node1</title>
<g id="a_node1"><a xlink:title=" ">
<polygon fill="#bfbfbf" stroke="black" points="103.5,-638.5 103.5,-668.5 200.5,-668.5 200.5,-638.5 103.5,-638.5"/>
<text text-anchor="start" x="111.5" y="-656.5" font-family="Helvetica,sans-Serif" font-size="10.00">include/f/f_pc/f_pc</text>
<text text-anchor="middle" x="152" y="-645.5" font-family="Helvetica,sans-Serif" font-size="10.00">_searcher.h</text>
</a>
</g>
</g>
<!-- Node2 -->
<g id="node2" class="node">
<title>Node2</title>
<g id="a_node2"><a xlink:href="f__pc__base_8h.html" target="_top" xlink:title=" ">
<polygon fill="white" stroke="black" points="295.5,-582.5 295.5,-601.5 392.5,-601.5 392.5,-582.5 295.5,-582.5"/>
<text text-anchor="middle" x="344" y="-589.5" font-family="Helvetica,sans-Serif" font-size="10.00">f/f_pc/f_pc_base.h</text>
</a>
</g>
</g>
<!-- Node1&#45;&gt;Node2 -->
<g id="edge1" class="edge">
<title>Node1&#45;&gt;Node2</title>
<path fill="none" stroke="midnightblue" d="M197.5,-638.4C230.82,-628.07 275.49,-614.23 306.71,-604.56"/>
<polygon fill="midnightblue" stroke="midnightblue" points="307.83,-607.87 316.34,-601.57 305.75,-601.19 307.83,-607.87"/>
</g>
<!-- Node6 -->
<g id="node6" class="node">
<title>Node6</title>
<g id="a_node6"><a xlink:href="global_8h.html" target="_top" xlink:title=" ">
<polygon fill="white" stroke="black" points="369,-168.5 369,-187.5 419,-187.5 419,-168.5 369,-168.5"/>
<text text-anchor="middle" x="394" y="-175.5" font-family="Helvetica,sans-Serif" font-size="10.00">global.h</text>
</a>
</g>
</g>
<!-- Node1&#45;&gt;Node6 -->
<g id="edge46" class="edge">
<title>Node1&#45;&gt;Node6</title>
<path fill="none" stroke="midnightblue" d="M107.63,-638.44C62.76,-621.12 0,-586.98 0,-531.5 0,-531.5 0,-531.5 0,-289 0,-249.38 25.78,-242.14 61,-224 112.41,-197.52 283.9,-185.06 358.66,-180.79"/>
<polygon fill="midnightblue" stroke="midnightblue" points="359.17,-184.27 368.96,-180.22 358.78,-177.28 359.17,-184.27"/>
</g>
<!-- Node3 -->
<g id="node3" class="node">
<title>Node3</title>
<g id="a_node3"><a xlink:href="c__tag_8h.html" target="_top" xlink:title=" ">
<polygon fill="white" stroke="black" points="264.5,-392.5 264.5,-411.5 371.5,-411.5 371.5,-392.5 264.5,-392.5"/>
<text text-anchor="middle" x="318" y="-399.5" font-family="Helvetica,sans-Serif" font-size="10.00">SComponent/c_tag.h</text>
</a>
</g>
</g>
<!-- Node2&#45;&gt;Node3 -->
<g id="edge2" class="edge">
<title>Node2&#45;&gt;Node3</title>
<path fill="none" stroke="midnightblue" d="M338.71,-582.42C333.62,-573.64 326.22,-559.41 323,-546 312.54,-502.46 314.33,-449.34 316.31,-421.72"/>
<polygon fill="midnightblue" stroke="midnightblue" points="319.81,-421.79 317.13,-411.54 312.83,-421.23 319.81,-421.79"/>
</g>
<!-- Node2&#45;&gt;Node6 -->
<g id="edge21" class="edge">
<title>Node2&#45;&gt;Node6</title>
<path fill="none" stroke="midnightblue" d="M392.69,-586.91C458.7,-580.65 572.44,-567.17 608,-546 647.57,-522.44 672,-510.56 672,-464.5 672,-464.5 672,-464.5 672,-289 672,-258.9 675.44,-244.05 653,-224 620.51,-194.97 492.38,-184.21 429.37,-180.62"/>
<polygon fill="midnightblue" stroke="midnightblue" points="429.3,-177.11 419.12,-180.06 428.92,-184.1 429.3,-177.11"/>
</g>
<!-- Node14 -->
<g id="node14" class="node">
<title>Node14</title>
<g id="a_node14"><a xlink:href="f__pc__delete__tag_8h.html" target="_top" xlink:title=" ">
<polygon fill="white" stroke="black" points="47.5,-515.5 47.5,-545.5 142.5,-545.5 142.5,-515.5 47.5,-515.5"/>
<text text-anchor="start" x="55.5" y="-533.5" font-family="Helvetica,sans-Serif" font-size="10.00">f/f_pc/f_pc_delete</text>
<text text-anchor="middle" x="95" y="-522.5" font-family="Helvetica,sans-Serif" font-size="10.00">_tag.h</text>
</a>
</g>
</g>
<!-- Node2&#45;&gt;Node14 -->
<g id="edge22" class="edge">
<title>Node2&#45;&gt;Node14</title>
<path fill="none" stroke="midnightblue" d="M306.78,-582.5C270.11,-574.07 212.22,-560.64 152.55,-546.11"/>
<polygon fill="midnightblue" stroke="midnightblue" points="153.11,-542.64 142.57,-543.67 151.45,-549.44 153.11,-542.64"/>
</g>
<!-- Node16 -->
<g id="node16" class="node">
<title>Node16</title>
<g id="a_node16"><a xlink:href="f__pc__layer__tag_8h.html" target="_top" xlink:title=" ">
<polygon fill="white" stroke="black" points="160.5,-521 160.5,-540 275.5,-540 275.5,-521 160.5,-521"/>
<text text-anchor="middle" x="218" y="-528" font-family="Helvetica,sans-Serif" font-size="10.00">f/f_pc/f_pc_layer_tag.h</text>
</a>
</g>
</g>
<!-- Node2&#45;&gt;Node16 -->
<g id="edge30" class="edge">
<title>Node2&#45;&gt;Node16</title>
<path fill="none" stroke="midnightblue" d="M325.95,-582.48C304.8,-572.49 269.56,-555.85 245.12,-544.31"/>
<polygon fill="midnightblue" stroke="midnightblue" points="246.56,-541.11 236.02,-540.01 243.57,-547.44 246.56,-541.11"/>
</g>
<!-- Node17 -->
<g id="node17" class="node">
<title>Node17</title>
<g id="a_node17"><a xlink:href="f__pc__line__tag_8h.html" target="_top" xlink:title=" ">
<polygon fill="white" stroke="black" points="490,-454 490,-473 600,-473 600,-454 490,-454"/>
<text text-anchor="middle" x="545" y="-461" font-family="Helvetica,sans-Serif" font-size="10.00">f/f_pc/f_pc_line_tag.h</text>
</a>
</g>
</g>
<!-- Node2&#45;&gt;Node17 -->
<g id="edge34" class="edge">
<title>Node2&#45;&gt;Node17</title>
<path fill="none" stroke="midnightblue" d="M367.74,-582.48C388.79,-574.46 419.98,-561.39 445,-546 476.91,-526.37 509.8,-497.61 528.78,-480.02"/>
<polygon fill="midnightblue" stroke="midnightblue" points="531.35,-482.41 536.24,-473.01 526.56,-477.3 531.35,-482.41"/>
</g>
<!-- Node18 -->
<g id="node18" class="node">
<title>Node18</title>
<g id="a_node18"><a xlink:href="f__pc__priority_8h.html" target="_top" xlink:title=" ">
<polygon fill="white" stroke="black" points="332,-521 332,-540 436,-540 436,-521 332,-521"/>
<text text-anchor="middle" x="384" y="-528" font-family="Helvetica,sans-Serif" font-size="10.00">f/f_pc/f_pc_priority.h</text>
</a>
</g>
</g>
<!-- Node2&#45;&gt;Node18 -->
<g id="edge37" class="edge">
<title>Node2&#45;&gt;Node18</title>
<path fill="none" stroke="midnightblue" d="M349.73,-582.48C355.67,-573.64 365.12,-559.59 372.59,-548.48"/>
<polygon fill="midnightblue" stroke="midnightblue" points="375.61,-550.26 378.28,-540.01 369.8,-546.36 375.61,-550.26"/>
</g>
<!-- Node20 -->
<g id="node20" class="node">
<title>Node20</title>
<g id="a_node20"><a xlink:href="f__pc__profile_8h.html" target="_top" xlink:title=" ">
<polygon fill="white" stroke="black" points="539.5,-280.5 539.5,-299.5 640.5,-299.5 640.5,-280.5 539.5,-280.5"/>
<text text-anchor="middle" x="590" y="-287.5" font-family="Helvetica,sans-Serif" font-size="10.00">f/f_pc/f_pc_profile.h</text>
</a>
</g>
</g>
<!-- Node2&#45;&gt;Node20 -->
<g id="edge42" class="edge">
<title>Node2&#45;&gt;Node20</title>
<path fill="none" stroke="midnightblue" d="M392.82,-590.47C474.02,-586.74 628,-566.24 628,-464.5 628,-464.5 628,-464.5 628,-401 628,-366.81 611.4,-329.76 600.14,-308.57"/>
<polygon fill="midnightblue" stroke="midnightblue" points="603.18,-306.83 595.28,-299.77 597.05,-310.22 603.18,-306.83"/>
</g>
<!-- Node4 -->
<g id="node4" class="node">
<title>Node4</title>
<g id="a_node4"><a xlink:href="c__list_8h.html" target="_top" xlink:title=" ">
<polygon fill="white" stroke="black" points="220.5,-280.5 220.5,-299.5 327.5,-299.5 327.5,-280.5 220.5,-280.5"/>
<text text-anchor="middle" x="274" y="-287.5" font-family="Helvetica,sans-Serif" font-size="10.00">SComponent/c_list.h</text>
</a>
</g>
</g>
<!-- Node3&#45;&gt;Node4 -->
<g id="edge3" class="edge">
<title>Node3&#45;&gt;Node4</title>
<path fill="none" stroke="midnightblue" d="M316.13,-392.38C313.24,-379.73 307.16,-355.53 299,-336 295.04,-326.52 289.59,-316.47 284.79,-308.29"/>
<polygon fill="midnightblue" stroke="midnightblue" points="287.75,-306.42 279.58,-299.67 281.76,-310.04 287.75,-306.42"/>
</g>
<!-- Node5 -->
<g id="node5" class="node">
<title>Node5</title>
<g id="a_node5"><a xlink:href="c__node_8h.html" target="_top" xlink:title=" ">
<polygon fill="white" stroke="black" points="216.5,-224.5 216.5,-243.5 331.5,-243.5 331.5,-224.5 216.5,-224.5"/>
<text text-anchor="middle" x="274" y="-231.5" font-family="Helvetica,sans-Serif" font-size="10.00">SComponent/c_node.h</text>
</a>
</g>
</g>
<!-- Node3&#45;&gt;Node5 -->
<g id="edge16" class="edge">
<title>Node3&#45;&gt;Node5</title>
<path fill="none" stroke="midnightblue" d="M322.8,-392.22C333.46,-371.45 356.65,-318.19 337,-280 329.92,-266.25 316.48,-255.77 303.82,-248.39"/>
<polygon fill="midnightblue" stroke="midnightblue" points="305.31,-245.22 294.85,-243.57 302,-251.39 305.31,-245.22"/>
</g>
<!-- Node3&#45;&gt;Node6 -->
<g id="edge20" class="edge">
<title>Node3&#45;&gt;Node6</title>
<path fill="none" stroke="midnightblue" d="M327.09,-392.2C335.34,-383.7 347.23,-370.06 354,-356 379.91,-302.16 389.38,-230.96 392.55,-197.66"/>
<polygon fill="midnightblue" stroke="midnightblue" points="396.05,-197.82 393.43,-187.56 389.08,-197.22 396.05,-197.82"/>
</g>
<!-- Node13 -->
<g id="node13" class="node">
<title>Node13</title>
<g id="a_node13"><a xlink:href="c__tree_8h.html" target="_top" xlink:title=" ">
<polygon fill="white" stroke="black" points="180,-336.5 180,-355.5 290,-355.5 290,-336.5 180,-336.5"/>
<text text-anchor="middle" x="235" y="-343.5" font-family="Helvetica,sans-Serif" font-size="10.00">SComponent/c_tree.h</text>
</a>
</g>
</g>
<!-- Node3&#45;&gt;Node13 -->
<g id="edge17" class="edge">
<title>Node3&#45;&gt;Node13</title>
<path fill="none" stroke="midnightblue" d="M304.66,-392.32C291.84,-383.98 272.22,-371.21 257.06,-361.35"/>
<polygon fill="midnightblue" stroke="midnightblue" points="258.59,-358.17 248.3,-355.65 254.78,-364.04 258.59,-358.17"/>
</g>
<!-- Node4&#45;&gt;Node5 -->
<g id="edge4" class="edge">
<title>Node4&#45;&gt;Node5</title>
<path fill="none" stroke="midnightblue" d="M274,-280.08C274,-273.01 274,-262.86 274,-253.99"/>
<polygon fill="midnightblue" stroke="midnightblue" points="277.5,-253.75 274,-243.75 270.5,-253.75 277.5,-253.75"/>
</g>
<!-- Node5&#45;&gt;Node6 -->
<g id="edge5" class="edge">
<title>Node5&#45;&gt;Node6</title>
<path fill="none" stroke="midnightblue" d="M293.01,-224.44C312.59,-215.64 343.31,-201.81 365.73,-191.72"/>
<polygon fill="midnightblue" stroke="midnightblue" points="367.39,-194.81 375.07,-187.52 364.52,-188.43 367.39,-194.81"/>
</g>
<!-- Node7 -->
<g id="node7" class="node">
<title>Node7</title>
<g id="a_node7"><a xlink:href="types_8h.html" target="_top" xlink:title=" ">
<polygon fill="white" stroke="black" points="353.5,-0.5 353.5,-19.5 434.5,-19.5 434.5,-0.5 353.5,-0.5"/>
<text text-anchor="middle" x="394" y="-7.5" font-family="Helvetica,sans-Serif" font-size="10.00">dolphin/types.h</text>
</a>
</g>
</g>
<!-- Node6&#45;&gt;Node7 -->
<g id="edge6" class="edge">
<title>Node6&#45;&gt;Node7</title>
<path fill="none" stroke="midnightblue" d="M376.05,-168.38C338.97,-149.39 259.81,-101.96 290,-56 302.07,-37.63 323.41,-26.72 343.63,-20.26"/>
<polygon fill="midnightblue" stroke="midnightblue" points="344.79,-23.57 353.42,-17.44 342.85,-16.85 344.79,-23.57"/>
</g>
<!-- Node8 -->
<g id="node8" class="node">
<title>Node8</title>
<g id="a_node8"><a xlink:href="AR_8h.html" target="_top" xlink:title=" ">
<polygon fill="white" stroke="black" points="298.5,-56.5 298.5,-75.5 347.5,-75.5 347.5,-56.5 298.5,-56.5"/>
<text text-anchor="middle" x="323" y="-63.5" font-family="Helvetica,sans-Serif" font-size="10.00">ar/AR.h</text>
</a>
</g>
</g>
<!-- Node6&#45;&gt;Node8 -->
<g id="edge7" class="edge">
<title>Node6&#45;&gt;Node8</title>
<path fill="none" stroke="midnightblue" d="M388.43,-168.37C376.76,-150.3 349.58,-108.18 334.17,-84.31"/>
<polygon fill="midnightblue" stroke="midnightblue" points="336.91,-82.1 328.55,-75.59 331.03,-85.89 336.91,-82.1"/>
</g>
<!-- Node9 -->
<g id="node9" class="node">
<title>Node9</title>
<g id="a_node9"><a xlink:href="ARQ_8h.html" target="_top" xlink:title=" ">
<polygon fill="white" stroke="black" points="366,-56.5 366,-75.5 422,-75.5 422,-56.5 366,-56.5"/>
<text text-anchor="middle" x="394" y="-63.5" font-family="Helvetica,sans-Serif" font-size="10.00">ar/ARQ.h</text>
</a>
</g>
</g>
<!-- Node6&#45;&gt;Node9 -->
<g id="edge9" class="edge">
<title>Node6&#45;&gt;Node9</title>
<path fill="none" stroke="midnightblue" d="M394,-168.37C394,-150.62 394,-109.67 394,-85.6"/>
<polygon fill="midnightblue" stroke="midnightblue" points="397.5,-85.59 394,-75.59 390.5,-85.59 397.5,-85.59"/>
</g>
<!-- Node10 -->
<g id="node10" class="node">
<title>Node10</title>
<g id="a_node10"><a xlink:href="mwcc_8h.html" target="_top" xlink:title=" ">
<polygon fill="white" stroke="black" points="503,-112.5 503,-131.5 553,-131.5 553,-112.5 503,-112.5"/>
<text text-anchor="middle" x="528" y="-119.5" font-family="Helvetica,sans-Serif" font-size="10.00">mwcc.h</text>
</a>
</g>
</g>
<!-- Node6&#45;&gt;Node10 -->
<g id="edge11" class="edge">
<title>Node6&#45;&gt;Node10</title>
<path fill="none" stroke="midnightblue" d="M415.23,-168.44C437.38,-159.52 472.32,-145.44 497.44,-135.32"/>
<polygon fill="midnightblue" stroke="midnightblue" points="498.9,-138.5 506.87,-131.52 496.28,-132.01 498.9,-138.5"/>
</g>
<!-- Node11 -->
<g id="node11" class="node">
<title>Node11</title>
<g id="a_node11"><a xlink:href="OS_8h.html" target="_top" xlink:title=" ">
<polygon fill="white" stroke="black" points="433,-112.5 433,-131.5 485,-131.5 485,-112.5 433,-112.5"/>
<text text-anchor="middle" x="459" y="-119.5" font-family="Helvetica,sans-Serif" font-size="10.00">os/OS.h</text>
</a>
</g>
</g>
<!-- Node6&#45;&gt;Node11 -->
<g id="edge12" class="edge">
<title>Node6&#45;&gt;Node11</title>
<path fill="none" stroke="midnightblue" d="M404.44,-168.32C414.15,-160.26 428.82,-148.08 440.5,-138.37"/>
<polygon fill="midnightblue" stroke="midnightblue" points="442.91,-140.92 448.37,-131.83 438.44,-135.53 442.91,-140.92"/>
</g>
<!-- Node8&#45;&gt;Node7 -->
<g id="edge8" class="edge">
<title>Node8&#45;&gt;Node7</title>
<path fill="none" stroke="midnightblue" d="M334.41,-56.32C345.11,-48.18 361.34,-35.84 374.16,-26.09"/>
<polygon fill="midnightblue" stroke="midnightblue" points="376.54,-28.67 382.39,-19.83 372.31,-23.1 376.54,-28.67"/>
</g>
<!-- Node9&#45;&gt;Node7 -->
<g id="edge10" class="edge">
<title>Node9&#45;&gt;Node7</title>
<path fill="none" stroke="midnightblue" d="M394,-56.08C394,-49.01 394,-38.86 394,-29.99"/>
<polygon fill="midnightblue" stroke="midnightblue" points="397.5,-29.75 394,-19.75 390.5,-29.75 397.5,-29.75"/>
</g>
<!-- Node11&#45;&gt;Node7 -->
<g id="edge13" class="edge">
<title>Node11&#45;&gt;Node7</title>
<path fill="none" stroke="midnightblue" d="M474.08,-112.4C493.53,-100.18 523.29,-76.93 509,-56 494.51,-34.77 468.38,-23.56 444.68,-17.63"/>
<polygon fill="midnightblue" stroke="midnightblue" points="445.23,-14.17 434.71,-15.4 443.71,-21 445.23,-14.17"/>
</g>
<!-- Node12 -->
<g id="node12" class="node">
<title>Node12</title>
<g id="a_node12"><a xlink:href="dvd_8h.html" target="_top" xlink:title=" ">
<polygon fill="white" stroke="black" points="440.5,-56.5 440.5,-75.5 499.5,-75.5 499.5,-56.5 440.5,-56.5"/>
<text text-anchor="middle" x="470" y="-63.5" font-family="Helvetica,sans-Serif" font-size="10.00">dvd/dvd.h</text>
</a>
</g>
</g>
<!-- Node11&#45;&gt;Node12 -->
<g id="edge14" class="edge">
<title>Node11&#45;&gt;Node12</title>
<path fill="none" stroke="midnightblue" d="M460.82,-112.08C462.27,-104.93 464.37,-94.64 466.19,-85.69"/>
<polygon fill="midnightblue" stroke="midnightblue" points="469.65,-86.25 468.22,-75.75 462.79,-84.85 469.65,-86.25"/>
</g>
<!-- Node12&#45;&gt;Node7 -->
<g id="edge15" class="edge">
<title>Node12&#45;&gt;Node7</title>
<path fill="none" stroke="midnightblue" d="M457.79,-56.32C446.22,-48.11 428.62,-35.6 414.84,-25.81"/>
<polygon fill="midnightblue" stroke="midnightblue" points="416.61,-22.77 406.43,-19.83 412.56,-28.48 416.61,-22.77"/>
</g>
<!-- Node13&#45;&gt;Node4 -->
<g id="edge18" class="edge">
<title>Node13&#45;&gt;Node4</title>
<path fill="none" stroke="midnightblue" d="M241.44,-336.08C246.95,-328.46 255.03,-317.26 261.76,-307.94"/>
<polygon fill="midnightblue" stroke="midnightblue" points="264.66,-309.91 267.68,-299.75 258.99,-305.81 264.66,-309.91"/>
</g>
<!-- Node13&#45;&gt;Node5 -->
<g id="edge19" class="edge">
<title>Node13&#45;&gt;Node5</title>
<path fill="none" stroke="midnightblue" d="M227.53,-336.29C217.56,-323.53 202.21,-299.2 212,-280 219,-266.27 232.37,-255.75 244.9,-248.35"/>
<polygon fill="midnightblue" stroke="midnightblue" points="246.67,-251.37 253.78,-243.51 243.32,-245.22 246.67,-251.37"/>
</g>
<!-- Node14&#45;&gt;Node3 -->
<g id="edge23" class="edge">
<title>Node14&#45;&gt;Node3</title>
<path fill="none" stroke="midnightblue" d="M131.55,-515.41C154.35,-506.11 184.01,-493.08 209,-479 218.11,-473.87 268.96,-437.91 297.88,-417.34"/>
<polygon fill="midnightblue" stroke="midnightblue" points="299.96,-420.16 306.08,-411.51 295.9,-414.45 299.96,-420.16"/>
</g>
<!-- Node14&#45;&gt;Node6 -->
<g id="edge29" class="edge">
<title>Node14&#45;&gt;Node6</title>
<path fill="none" stroke="midnightblue" d="M83.74,-515.26C67.13,-492.78 38,-447.08 38,-403 38,-403 38,-403 38,-289 38,-248.14 66.56,-242.48 103,-224 147.14,-201.61 291,-187.35 358.47,-181.72"/>
<polygon fill="midnightblue" stroke="midnightblue" points="358.93,-185.2 368.61,-180.9 358.36,-178.22 358.93,-185.2"/>
</g>
<!-- Node15 -->
<g id="node15" class="node">
<title>Node15</title>
<g id="a_node15"><a xlink:href="f__pc__layer_8h.html" target="_top" xlink:title=" ">
<polygon fill="white" stroke="black" points="104,-454 104,-473 200,-473 200,-454 104,-454"/>
<text text-anchor="middle" x="152" y="-461" font-family="Helvetica,sans-Serif" font-size="10.00">f/f_pc/f_pc_layer.h</text>
</a>
</g>
</g>
<!-- Node14&#45;&gt;Node15 -->
<g id="edge24" class="edge">
<title>Node14&#45;&gt;Node15</title>
<path fill="none" stroke="midnightblue" d="M107.37,-515.4C116.26,-505.26 128.26,-491.57 137.59,-480.94"/>
<polygon fill="midnightblue" stroke="midnightblue" points="140.41,-483.02 144.38,-473.19 135.15,-478.41 140.41,-483.02"/>
</g>
<!-- Node15&#45;&gt;Node3 -->
<g id="edge26" class="edge">
<title>Node15&#45;&gt;Node3</title>
<path fill="none" stroke="midnightblue" d="M175.78,-453.98C204.38,-443.72 252.55,-426.46 284.8,-414.9"/>
<polygon fill="midnightblue" stroke="midnightblue" points="286.03,-418.18 294.26,-411.51 283.67,-411.59 286.03,-418.18"/>
</g>
<!-- Node15&#45;&gt;Node5 -->
<g id="edge25" class="edge">
<title>Node15&#45;&gt;Node5</title>
<path fill="none" stroke="midnightblue" d="M151.8,-453.88C151.59,-425.08 154.9,-331.05 204,-280 216.29,-267.23 232.88,-256.36 246.82,-248.51"/>
<polygon fill="midnightblue" stroke="midnightblue" points="248.83,-251.4 255.96,-243.57 245.5,-245.24 248.83,-251.4"/>
</g>
<!-- Node15&#45;&gt;Node6 -->
<g id="edge28" class="edge">
<title>Node15&#45;&gt;Node6</title>
<path fill="none" stroke="midnightblue" d="M147.03,-453.84C136.73,-435.03 114,-388.8 114,-347 114,-347 114,-347 114,-289 114,-237 283.42,-199.34 358.69,-185.17"/>
<polygon fill="midnightblue" stroke="midnightblue" points="359.46,-188.59 368.66,-183.33 358.19,-181.71 359.46,-188.59"/>
</g>
<!-- Node15&#45;&gt;Node13 -->
<g id="edge27" class="edge">
<title>Node15&#45;&gt;Node13</title>
<path fill="none" stroke="midnightblue" d="M158.24,-453.82C171.94,-434.76 204.86,-388.95 222.81,-363.96"/>
<polygon fill="midnightblue" stroke="midnightblue" points="225.7,-365.95 228.69,-355.78 220.01,-361.86 225.7,-365.95"/>
</g>
<!-- Node16&#45;&gt;Node3 -->
<g id="edge31" class="edge">
<title>Node16&#45;&gt;Node3</title>
<path fill="none" stroke="midnightblue" d="M224.87,-520.81C241.36,-499.95 283.36,-446.81 304.87,-419.61"/>
<polygon fill="midnightblue" stroke="midnightblue" points="307.62,-421.77 311.08,-411.76 302.13,-417.43 307.62,-421.77"/>
</g>
<!-- Node16&#45;&gt;Node6 -->
<g id="edge33" class="edge">
<title>Node16&#45;&gt;Node6</title>
<path fill="none" stroke="midnightblue" d="M170.69,-520.93C144.84,-513.87 114.25,-501.26 95,-479 72.22,-452.67 76,-437.82 76,-403 76,-403 76,-403 76,-289 76,-242.84 115.08,-243.32 157,-224 224.01,-193.11 311.03,-183.42 358.79,-180.39"/>
<polygon fill="midnightblue" stroke="midnightblue" points="359.14,-183.87 368.92,-179.81 358.74,-176.88 359.14,-183.87"/>
</g>
<!-- Node16&#45;&gt;Node15 -->
<g id="edge32" class="edge">
<title>Node16&#45;&gt;Node15</title>
<path fill="none" stroke="midnightblue" d="M209.1,-520.73C198.61,-510.4 180.98,-493.04 168.08,-480.33"/>
<polygon fill="midnightblue" stroke="midnightblue" points="170.34,-477.65 160.76,-473.13 165.43,-482.64 170.34,-477.65"/>
</g>
<!-- Node17&#45;&gt;Node3 -->
<g id="edge35" class="edge">
<title>Node17&#45;&gt;Node3</title>
<path fill="none" stroke="midnightblue" d="M512.48,-453.98C472.44,-443.48 404.36,-425.64 360.3,-414.09"/>
<polygon fill="midnightblue" stroke="midnightblue" points="361.02,-410.66 350.46,-411.51 359.25,-417.43 361.02,-410.66"/>
</g>
<!-- Node17&#45;&gt;Node6 -->
<g id="edge36" class="edge">
<title>Node17&#45;&gt;Node6</title>
<path fill="none" stroke="midnightblue" d="M534.25,-453.89C513.52,-436.23 470,-393.62 470,-347 470,-347 470,-347 470,-289 470,-249.28 436.04,-213.5 413.52,-194.15"/>
<polygon fill="midnightblue" stroke="midnightblue" points="415.48,-191.24 405.54,-187.57 411.02,-196.63 415.48,-191.24"/>
</g>
<!-- Node18&#45;&gt;Node3 -->
<g id="edge38" class="edge">
<title>Node18&#45;&gt;Node3</title>
<path fill="none" stroke="midnightblue" d="M379.46,-520.81C368.73,-500.22 341.58,-448.19 327.22,-420.68"/>
<polygon fill="midnightblue" stroke="midnightblue" points="330.3,-419 322.57,-411.76 324.09,-422.24 330.3,-419"/>
</g>
<!-- Node19 -->
<g id="node19" class="node">
<title>Node19</title>
<g id="a_node19"><a xlink:href="f__pc__method__tag_8h.html" target="_top" xlink:title=" ">
<polygon fill="white" stroke="black" points="370.5,-448.5 370.5,-478.5 471.5,-478.5 471.5,-448.5 370.5,-448.5"/>
<text text-anchor="start" x="378.5" y="-466.5" font-family="Helvetica,sans-Serif" font-size="10.00">f/f_pc/f_pc_method</text>
<text text-anchor="middle" x="421" y="-455.5" font-family="Helvetica,sans-Serif" font-size="10.00">_tag.h</text>
</a>
</g>
</g>
<!-- Node18&#45;&gt;Node19 -->
<g id="edge39" class="edge">
<title>Node18&#45;&gt;Node19</title>
<path fill="none" stroke="midnightblue" d="M388.99,-520.73C393.85,-512.2 401.43,-498.87 408,-487.33"/>
<polygon fill="midnightblue" stroke="midnightblue" points="411.07,-489.01 412.98,-478.59 404.99,-485.55 411.07,-489.01"/>
</g>
<!-- Node19&#45;&gt;Node3 -->
<g id="edge40" class="edge">
<title>Node19&#45;&gt;Node3</title>
<path fill="none" stroke="midnightblue" d="M396.59,-448.4C380.08,-438.86 358.38,-426.32 341.96,-416.84"/>
<polygon fill="midnightblue" stroke="midnightblue" points="343.4,-413.63 332.99,-411.66 339.9,-419.69 343.4,-413.63"/>
</g>
<!-- Node19&#45;&gt;Node6 -->
<g id="edge41" class="edge">
<title>Node19&#45;&gt;Node6</title>
<path fill="none" stroke="midnightblue" d="M423.23,-448.32C426.44,-426.57 432,-383.66 432,-347 432,-347 432,-347 432,-289 432,-254.81 415.4,-217.76 404.14,-196.57"/>
<polygon fill="midnightblue" stroke="midnightblue" points="407.18,-194.83 399.28,-187.77 401.05,-198.22 407.18,-194.83"/>
</g>
<!-- Node20&#45;&gt;Node6 -->
<g id="edge45" class="edge">
<title>Node20&#45;&gt;Node6</title>
<path fill="none" stroke="midnightblue" d="M576.83,-280.42C557,-267.61 518.16,-242.97 484,-224 463.38,-212.55 439.48,-200.66 421.49,-191.98"/>
<polygon fill="midnightblue" stroke="midnightblue" points="422.7,-188.68 412.17,-187.51 419.67,-194.99 422.7,-188.68"/>
</g>
<!-- Node21 -->
<g id="node21" class="node">
<title>Node21</title>
<g id="a_node21"><a xlink:href="f__pc__method_8h.html" target="_top" xlink:title=" ">
<polygon fill="white" stroke="black" points="536,-224.5 536,-243.5 644,-243.5 644,-224.5 536,-224.5"/>
<text text-anchor="middle" x="590" y="-231.5" font-family="Helvetica,sans-Serif" font-size="10.00">f/f_pc/f_pc_method.h</text>
</a>
</g>
</g>
<!-- Node20&#45;&gt;Node21 -->
<g id="edge43" class="edge">
<title>Node20&#45;&gt;Node21</title>
<path fill="none" stroke="midnightblue" d="M590,-280.08C590,-273.01 590,-262.86 590,-253.99"/>
<polygon fill="midnightblue" stroke="midnightblue" points="593.5,-253.75 590,-243.75 586.5,-253.75 593.5,-253.75"/>
</g>
<!-- Node21&#45;&gt;Node6 -->
<g id="edge44" class="edge">
<title>Node21&#45;&gt;Node6</title>
<path fill="none" stroke="midnightblue" d="M558.94,-224.44C523.52,-214.68 465.75,-198.77 428.83,-188.6"/>
<polygon fill="midnightblue" stroke="midnightblue" points="429.57,-185.17 419,-185.89 427.71,-191.92 429.57,-185.17"/>
</g>
</g>
</svg>
        <g id="navigator" transform="translate(0 0)" fill="#404254">
                <rect fill="#f2f5e9" fill-opacity="0.5" stroke="#606060" stroke-width=".5" x="0" y="0" width="60" height="60"/>
                <use id="zoomplus" xlink:href="#zoomPlus" x="17" y="9" onmousedown="handleZoom(evt,'in')"/>
                <use id="zoomminus" xlink:href="#zoomMin" x="42" y="9" onmousedown="handleZoom(evt,'out')"/>
                <use id="reset" xlink:href="#resetDef" x="30" y="36" onmousedown="handleReset()"/>
                <g id="arrowUp" xlink:href="#dirArrow" transform="translate(30 24)" onmousedown="handlePan(0,-1)">
                  <use xlink:href="#rim" fill="#404040">
                        <set attributeName="fill" to="#808080" begin="arrowUp.mouseover" end="arrowUp.mouseout"/>
                  </use>
                  <path fill="none" stroke="white" stroke-width="1.5" d="M0,-3.0v7 M-2.5,-0.5L0,-3.0L2.5,-0.5"/>
                </g>
                <g id="arrowRight" xlink:href="#dirArrow" transform="rotate(90) translate(36 -43)" onmousedown="handlePan(1,0)">
                  <use xlink:href="#rim" fill="#404040">
                        <set attributeName="fill" to="#808080" begin="arrowRight.mouseover" end="arrowRight.mouseout"/>
                  </use>
                  <path fill="none" stroke="white" stroke-width="1.5" d="M0,-3.0v7 M-2.5,-0.5L0,-3.0L2.5,-0.5"/>
                </g>
                <g id="arrowDown" xlink:href="#dirArrow" transform="rotate(180) translate(-30 -48)" onmousedown="handlePan(0,1)">
                  <use xlink:href="#rim" fill="#404040">
                        <set attributeName="fill" to="#808080" begin="arrowDown.mouseover" end="arrowDown.mouseout"/>
                  </use>
                  <path fill="none" stroke="white" stroke-width="1.5" d="M0,-3.0v7 M-2.5,-0.5L0,-3.0L2.5,-0.5"/>
                </g>
                <g id="arrowLeft" xlink:href="#dirArrow" transform="rotate(270) translate(-36 17)" onmousedown="handlePan(-1,0)">
                  <use xlink:href="#rim" fill="#404040">
                        <set attributeName="fill" to="#808080" begin="arrowLeft.mouseover" end="arrowLeft.mouseout"/>
                  </use>
                  <path fill="none" stroke="white" stroke-width="1.5" d="M0,-3.0v7 M-2.5,-0.5L0,-3.0L2.5,-0.5"/>
                </g>
        </g>
        <svg viewBox="0 0 15 15" width="100%" height="30px" preserveAspectRatio="xMaxYMin meet">
         <g id="arrow_out" transform="scale(0.3 0.3)">
          <a xlink:href="f__pc__searcher_8h__incl_org.svg" target="_base">
           <rect id="button" ry="5" rx="5" y="6" x="6" height="38" width="38"
                fill="#f2f5e9" fill-opacity="0.5" stroke="#606060" stroke-width="1.0"/>
           <path id="arrow"
             d="M 11.500037,31.436501 C 11.940474,20.09759 22.043105,11.32322 32.158766,21.979434 L 37.068811,17.246167 C 37.068811,17.246167 37.088388,32 37.088388,32 L 22.160133,31.978069 C 22.160133,31.978069 26.997745,27.140456 26.997745,27.140456 C 18.528582,18.264221 13.291696,25.230495 11.500037,31.436501 z"
             style="fill:#404040;"/>
          </a>
         </g>
        </svg>
</svg>
