<?xml version="1.0" encoding="UTF-8" standalone="no"?>
<!DOCTYPE svg PUBLIC "-//W3C//DTD SVG 1.1//EN"
 "http://www.w3.org/Graphics/SVG/1.1/DTD/svg11.dtd">
<!-- Generated by graphviz version 2.44.0 ()
 -->
<!-- Title: src/f/f_pc/f_pc_layer.cpp Pages: 1 -->
<svg width="594pt" height="554pt"
 viewBox="0.00 0.00 594.00 554.00" xmlns="http://www.w3.org/2000/svg" xmlns:xlink="http://www.w3.org/1999/xlink">
<g id="graph0" class="graph" transform="scale(1 1) rotate(0) translate(4 550)">
<title>src/f/f_pc/f_pc_layer.cpp</title>
<polygon fill="white" stroke="transparent" points="-4,4 -4,-550 590,-550 590,4 -4,4"/>
<!-- Node1 -->
<g id="node1" class="node">
<title>Node1</title>
<g id="a_node1"><a xlink:title=" ">
<polygon fill="#bfbfbf" stroke="black" points="131.5,-526.5 131.5,-545.5 254.5,-545.5 254.5,-526.5 131.5,-526.5"/>
<text text-anchor="middle" x="193" y="-533.5" font-family="Helvetica,sans-Serif" font-size="10.00">src/f/f_pc/f_pc_layer.cpp</text>
</a>
</g>
</g>
<!-- Node2 -->
<g id="node2" class="node">
<title>Node2</title>
<g id="a_node2"><a xlink:href="f__pc__layer_8h.html" target="_top" xlink:title=" ">
<polygon fill="white" stroke="black" points="87,-465 87,-484 183,-484 183,-465 87,-465"/>
<text text-anchor="middle" x="135" y="-472" font-family="Helvetica,sans-Serif" font-size="10.00">f/f_pc/f_pc_layer.h</text>
</a>
</g>
</g>
<!-- Node1&#45;&gt;Node2 -->
<g id="edge1" class="edge">
<title>Node1&#45;&gt;Node2</title>
<path fill="none" stroke="midnightblue" d="M184.69,-526.48C175.82,-517.37 161.55,-502.74 150.58,-491.48"/>
<polygon fill="midnightblue" stroke="midnightblue" points="152.78,-488.73 143.29,-484.01 147.77,-493.61 152.78,-488.73"/>
</g>
<!-- Node5 -->
<g id="node5" class="node">
<title>Node5</title>
<g id="a_node5"><a xlink:href="types_8h.html" target="_top" xlink:title=" ">
<polygon fill="white" stroke="black" points="372.5,-0.5 372.5,-19.5 453.5,-19.5 453.5,-0.5 372.5,-0.5"/>
<text text-anchor="middle" x="413" y="-7.5" font-family="Helvetica,sans-Serif" font-size="10.00">dolphin/types.h</text>
</a>
</g>
</g>
<!-- Node1&#45;&gt;Node5 -->
<g id="edge24" class="edge">
<title>Node1&#45;&gt;Node5</title>
<path fill="none" stroke="midnightblue" d="M148.72,-526.44C91.74,-512.55 0,-479.21 0,-408.5 0,-408.5 0,-408.5 0,-121 0,-46.87 251.58,-21.45 362.03,-13.86"/>
<polygon fill="midnightblue" stroke="midnightblue" points="362.52,-17.33 372.27,-13.18 362.06,-10.35 362.52,-17.33"/>
</g>
<!-- Node14 -->
<g id="node14" class="node">
<title>Node14</title>
<g id="a_node14"><a xlink:href="f__pc__method__iter_8h.html" target="_top" xlink:title=" ">
<polygon fill="white" stroke="black" points="322.5,-392.5 322.5,-422.5 423.5,-422.5 423.5,-392.5 322.5,-392.5"/>
<text text-anchor="start" x="330.5" y="-410.5" font-family="Helvetica,sans-Serif" font-size="10.00">f/f_pc/f_pc_method</text>
<text text-anchor="middle" x="373" y="-399.5" font-family="Helvetica,sans-Serif" font-size="10.00">_iter.h</text>
</a>
</g>
</g>
<!-- Node1&#45;&gt;Node14 -->
<g id="edge25" class="edge">
<title>Node1&#45;&gt;Node14</title>
<path fill="none" stroke="midnightblue" d="M230.47,-526.46C255.08,-519.53 287.04,-507.93 311,-490 332.09,-474.22 349.54,-449.4 360.49,-431.3"/>
<polygon fill="midnightblue" stroke="midnightblue" points="363.6,-432.92 365.62,-422.52 357.55,-429.4 363.6,-432.92"/>
</g>
<!-- Node17 -->
<g id="node17" class="node">
<title>Node17</title>
<g id="a_node17"><a xlink:href="f__pc__method__tag_8h.html" target="_top" xlink:title=" ">
<polygon fill="white" stroke="black" points="201.5,-459.5 201.5,-489.5 302.5,-489.5 302.5,-459.5 201.5,-459.5"/>
<text text-anchor="start" x="209.5" y="-477.5" font-family="Helvetica,sans-Serif" font-size="10.00">f/f_pc/f_pc_method</text>
<text text-anchor="middle" x="252" y="-466.5" font-family="Helvetica,sans-Serif" font-size="10.00">_tag.h</text>
</a>
</g>
</g>
<!-- Node1&#45;&gt;Node17 -->
<g id="edge32" class="edge">
<title>Node1&#45;&gt;Node17</title>
<path fill="none" stroke="midnightblue" d="M201.45,-526.48C209.15,-518.72 220.82,-506.94 231.01,-496.66"/>
<polygon fill="midnightblue" stroke="midnightblue" points="233.54,-499.09 238.09,-489.52 228.57,-494.16 233.54,-499.09"/>
</g>
<!-- Node3 -->
<g id="node3" class="node">
<title>Node3</title>
<g id="a_node3"><a xlink:href="c__node_8h.html" target="_top" xlink:title=" ">
<polygon fill="white" stroke="black" points="135.5,-224.5 135.5,-243.5 250.5,-243.5 250.5,-224.5 135.5,-224.5"/>
<text text-anchor="middle" x="193" y="-231.5" font-family="Helvetica,sans-Serif" font-size="10.00">SComponent/c_node.h</text>
</a>
</g>
</g>
<!-- Node2&#45;&gt;Node3 -->
<g id="edge2" class="edge">
<title>Node2&#45;&gt;Node3</title>
<path fill="none" stroke="midnightblue" d="M128.91,-464.8C114.47,-443.05 80.4,-384.57 95,-336 106.71,-297.03 144.66,-266.02 169.75,-249.1"/>
<polygon fill="midnightblue" stroke="midnightblue" points="171.87,-251.9 178.35,-243.52 168.05,-246.04 171.87,-251.9"/>
</g>
<!-- Node4 -->
<g id="node4" class="node">
<title>Node4</title>
<g id="a_node4"><a xlink:href="global_8h.html" target="_top" xlink:title=" ">
<polygon fill="white" stroke="black" points="443,-168.5 443,-187.5 493,-187.5 493,-168.5 443,-168.5"/>
<text text-anchor="middle" x="468" y="-175.5" font-family="Helvetica,sans-Serif" font-size="10.00">global.h</text>
</a>
</g>
</g>
<!-- Node2&#45;&gt;Node4 -->
<g id="edge23" class="edge">
<title>Node2&#45;&gt;Node4</title>
<path fill="none" stroke="midnightblue" d="M121.51,-464.85C94.86,-446.58 38,-401.24 38,-347 38,-347 38,-347 38,-289 38,-207.79 329.53,-185.74 432.5,-180.48"/>
<polygon fill="midnightblue" stroke="midnightblue" points="432.89,-183.97 442.71,-179.98 432.55,-176.98 432.89,-183.97"/>
</g>
<!-- Node11 -->
<g id="node11" class="node">
<title>Node11</title>
<g id="a_node11"><a xlink:href="c__tag_8h.html" target="_top" xlink:title=" ">
<polygon fill="white" stroke="black" points="192.5,-398 192.5,-417 299.5,-417 299.5,-398 192.5,-398"/>
<text text-anchor="middle" x="246" y="-405" font-family="Helvetica,sans-Serif" font-size="10.00">SComponent/c_tag.h</text>
</a>
</g>
</g>
<!-- Node2&#45;&gt;Node11 -->
<g id="edge14" class="edge">
<title>Node2&#45;&gt;Node11</title>
<path fill="none" stroke="midnightblue" d="M149.97,-464.73C168.61,-453.82 200.66,-435.05 222.57,-422.22"/>
<polygon fill="midnightblue" stroke="midnightblue" points="224.41,-425.2 231.27,-417.13 220.87,-419.16 224.41,-425.2"/>
</g>
<!-- Node13 -->
<g id="node13" class="node">
<title>Node13</title>
<g id="a_node13"><a xlink:href="c__tree_8h.html" target="_top" xlink:title=" ">
<polygon fill="white" stroke="black" points="104,-336.5 104,-355.5 214,-355.5 214,-336.5 104,-336.5"/>
<text text-anchor="middle" x="159" y="-343.5" font-family="Helvetica,sans-Serif" font-size="10.00">SComponent/c_tree.h</text>
</a>
</g>
</g>
<!-- Node2&#45;&gt;Node13 -->
<g id="edge22" class="edge">
<title>Node2&#45;&gt;Node13</title>
<path fill="none" stroke="midnightblue" d="M136.65,-464.81C140.5,-444.49 150.17,-393.55 155.44,-365.78"/>
<polygon fill="midnightblue" stroke="midnightblue" points="158.91,-366.23 157.34,-355.76 152.04,-364.93 158.91,-366.23"/>
</g>
<!-- Node3&#45;&gt;Node4 -->
<g id="edge3" class="edge">
<title>Node3&#45;&gt;Node4</title>
<path fill="none" stroke="midnightblue" d="M236.57,-224.44C290.87,-213.78 382.59,-195.77 432.71,-185.93"/>
<polygon fill="midnightblue" stroke="midnightblue" points="433.61,-189.32 442.74,-183.96 432.26,-182.45 433.61,-189.32"/>
</g>
<!-- Node4&#45;&gt;Node5 -->
<g id="edge4" class="edge">
<title>Node4&#45;&gt;Node5</title>
<path fill="none" stroke="midnightblue" d="M465.04,-168.08C456.35,-141.83 430.74,-64.55 419,-29.12"/>
<polygon fill="midnightblue" stroke="midnightblue" points="422.31,-27.96 415.84,-19.57 415.66,-30.16 422.31,-27.96"/>
</g>
<!-- Node6 -->
<g id="node6" class="node">
<title>Node6</title>
<g id="a_node6"><a xlink:href="AR_8h.html" target="_top" xlink:title=" ">
<polygon fill="white" stroke="black" points="462.5,-56.5 462.5,-75.5 511.5,-75.5 511.5,-56.5 462.5,-56.5"/>
<text text-anchor="middle" x="487" y="-63.5" font-family="Helvetica,sans-Serif" font-size="10.00">ar/AR.h</text>
</a>
</g>
</g>
<!-- Node4&#45;&gt;Node6 -->
<g id="edge5" class="edge">
<title>Node4&#45;&gt;Node6</title>
<path fill="none" stroke="midnightblue" d="M469.49,-168.37C472.56,-150.62 479.63,-109.67 483.79,-85.6"/>
<polygon fill="midnightblue" stroke="midnightblue" points="487.26,-86.04 485.52,-75.59 480.36,-84.85 487.26,-86.04"/>
</g>
<!-- Node7 -->
<g id="node7" class="node">
<title>Node7</title>
<g id="a_node7"><a xlink:href="ARQ_8h.html" target="_top" xlink:title=" ">
<polygon fill="white" stroke="black" points="530,-56.5 530,-75.5 586,-75.5 586,-56.5 530,-56.5"/>
<text text-anchor="middle" x="558" y="-63.5" font-family="Helvetica,sans-Serif" font-size="10.00">ar/ARQ.h</text>
</a>
</g>
</g>
<!-- Node4&#45;&gt;Node7 -->
<g id="edge7" class="edge">
<title>Node4&#45;&gt;Node7</title>
<path fill="none" stroke="midnightblue" d="M475.06,-168.37C490.05,-150.05 525.23,-107.05 544.61,-83.36"/>
<polygon fill="midnightblue" stroke="midnightblue" points="547.35,-85.55 550.97,-75.59 541.93,-81.11 547.35,-85.55"/>
</g>
<!-- Node8 -->
<g id="node8" class="node">
<title>Node8</title>
<g id="a_node8"><a xlink:href="mwcc_8h.html" target="_top" xlink:title=" ">
<polygon fill="white" stroke="black" points="371,-112.5 371,-131.5 421,-131.5 421,-112.5 371,-112.5"/>
<text text-anchor="middle" x="396" y="-119.5" font-family="Helvetica,sans-Serif" font-size="10.00">mwcc.h</text>
</a>
</g>
</g>
<!-- Node4&#45;&gt;Node8 -->
<g id="edge9" class="edge">
<title>Node4&#45;&gt;Node8</title>
<path fill="none" stroke="midnightblue" d="M456.43,-168.32C445.58,-160.18 429.12,-147.84 416.12,-138.09"/>
<polygon fill="midnightblue" stroke="midnightblue" points="417.88,-135.03 407.78,-131.83 413.68,-140.63 417.88,-135.03"/>
</g>
<!-- Node9 -->
<g id="node9" class="node">
<title>Node9</title>
<g id="a_node9"><a xlink:href="OS_8h.html" target="_top" xlink:title=" ">
<polygon fill="white" stroke="black" points="301,-112.5 301,-131.5 353,-131.5 353,-112.5 301,-112.5"/>
<text text-anchor="middle" x="327" y="-119.5" font-family="Helvetica,sans-Serif" font-size="10.00">os/OS.h</text>
</a>
</g>
</g>
<!-- Node4&#45;&gt;Node9 -->
<g id="edge10" class="edge">
<title>Node4&#45;&gt;Node9</title>
<path fill="none" stroke="midnightblue" d="M445.66,-168.44C422.25,-159.48 385.26,-145.31 358.81,-135.18"/>
<polygon fill="midnightblue" stroke="midnightblue" points="359.83,-131.82 349.24,-131.52 357.32,-138.36 359.83,-131.82"/>
</g>
<!-- Node6&#45;&gt;Node5 -->
<g id="edge6" class="edge">
<title>Node6&#45;&gt;Node5</title>
<path fill="none" stroke="midnightblue" d="M475.11,-56.32C463.85,-48.11 446.71,-35.6 433.29,-25.81"/>
<polygon fill="midnightblue" stroke="midnightblue" points="435.25,-22.9 425.11,-19.83 431.12,-28.56 435.25,-22.9"/>
</g>
<!-- Node7&#45;&gt;Node5 -->
<g id="edge8" class="edge">
<title>Node7&#45;&gt;Node5</title>
<path fill="none" stroke="midnightblue" d="M535.02,-56.44C510.84,-47.44 472.58,-33.19 445.35,-23.05"/>
<polygon fill="midnightblue" stroke="midnightblue" points="446.46,-19.73 435.87,-19.52 444.02,-26.29 446.46,-19.73"/>
</g>
<!-- Node9&#45;&gt;Node5 -->
<g id="edge11" class="edge">
<title>Node9&#45;&gt;Node5</title>
<path fill="none" stroke="midnightblue" d="M335.53,-112.34C344.09,-103.5 357.47,-89.23 368,-76 380.38,-60.45 393.16,-41.68 401.92,-28.32"/>
<polygon fill="midnightblue" stroke="midnightblue" points="405.02,-29.97 407.52,-19.67 399.15,-26.16 405.02,-29.97"/>
</g>
<!-- Node10 -->
<g id="node10" class="node">
<title>Node10</title>
<g id="a_node10"><a xlink:href="dvd_8h.html" target="_top" xlink:title=" ">
<polygon fill="white" stroke="black" points="300.5,-56.5 300.5,-75.5 359.5,-75.5 359.5,-56.5 300.5,-56.5"/>
<text text-anchor="middle" x="330" y="-63.5" font-family="Helvetica,sans-Serif" font-size="10.00">dvd/dvd.h</text>
</a>
</g>
</g>
<!-- Node9&#45;&gt;Node10 -->
<g id="edge12" class="edge">
<title>Node9&#45;&gt;Node10</title>
<path fill="none" stroke="midnightblue" d="M327.5,-112.08C327.89,-105.01 328.45,-94.86 328.95,-85.99"/>
<polygon fill="midnightblue" stroke="midnightblue" points="332.45,-85.93 329.51,-75.75 325.46,-85.54 332.45,-85.93"/>
</g>
<!-- Node10&#45;&gt;Node5 -->
<g id="edge13" class="edge">
<title>Node10&#45;&gt;Node5</title>
<path fill="none" stroke="midnightblue" d="M343.34,-56.32C356.16,-47.98 375.78,-35.21 390.94,-25.35"/>
<polygon fill="midnightblue" stroke="midnightblue" points="393.22,-28.04 399.7,-19.65 389.41,-22.17 393.22,-28.04"/>
</g>
<!-- Node11&#45;&gt;Node3 -->
<g id="edge17" class="edge">
<title>Node11&#45;&gt;Node3</title>
<path fill="none" stroke="midnightblue" d="M244.99,-397.88C242.97,-383.72 237.31,-355.2 223,-336 206.21,-313.46 184.05,-324.9 171,-300 162.91,-284.57 171.25,-265.55 179.88,-252.09"/>
<polygon fill="midnightblue" stroke="midnightblue" points="182.84,-253.96 185.7,-243.76 177.1,-249.95 182.84,-253.96"/>
</g>
<!-- Node11&#45;&gt;Node4 -->
<g id="edge21" class="edge">
<title>Node11&#45;&gt;Node4</title>
<path fill="none" stroke="midnightblue" d="M283.16,-397.92C338.77,-384.94 437.82,-361.29 444,-356 490.58,-316.14 494.42,-284.41 484,-224 482.43,-214.91 479.21,-205.22 476.06,-197.17"/>
<polygon fill="midnightblue" stroke="midnightblue" points="479.19,-195.6 472.11,-187.72 472.74,-198.3 479.19,-195.6"/>
</g>
<!-- Node12 -->
<g id="node12" class="node">
<title>Node12</title>
<g id="a_node12"><a xlink:href="c__list_8h.html" target="_top" xlink:title=" ">
<polygon fill="white" stroke="black" points="180.5,-280.5 180.5,-299.5 287.5,-299.5 287.5,-280.5 180.5,-280.5"/>
<text text-anchor="middle" x="234" y="-287.5" font-family="Helvetica,sans-Serif" font-size="10.00">SComponent/c_list.h</text>
</a>
</g>
</g>
<!-- Node11&#45;&gt;Node12 -->
<g id="edge15" class="edge">
<title>Node11&#45;&gt;Node12</title>
<path fill="none" stroke="midnightblue" d="M249.29,-397.73C253.88,-384.31 261.07,-357.92 256,-336 253.77,-326.36 249.18,-316.41 244.76,-308.31"/>
<polygon fill="midnightblue" stroke="midnightblue" points="247.7,-306.4 239.64,-299.52 241.65,-309.92 247.7,-306.4"/>
</g>
<!-- Node11&#45;&gt;Node13 -->
<g id="edge18" class="edge">
<title>Node11&#45;&gt;Node13</title>
<path fill="none" stroke="midnightblue" d="M233.54,-397.98C219.58,-388.43 196.74,-372.81 180.01,-361.37"/>
<polygon fill="midnightblue" stroke="midnightblue" points="181.67,-358.27 171.44,-355.51 177.72,-364.04 181.67,-358.27"/>
</g>
<!-- Node12&#45;&gt;Node3 -->
<g id="edge16" class="edge">
<title>Node12&#45;&gt;Node3</title>
<path fill="none" stroke="midnightblue" d="M227.23,-280.08C221.44,-272.46 212.94,-261.26 205.86,-251.94"/>
<polygon fill="midnightblue" stroke="midnightblue" points="208.48,-249.6 199.64,-243.75 202.9,-253.83 208.48,-249.6"/>
</g>
<!-- Node13&#45;&gt;Node3 -->
<g id="edge20" class="edge">
<title>Node13&#45;&gt;Node3</title>
<path fill="none" stroke="midnightblue" d="M152.13,-336.32C142.95,-323.59 128.86,-299.29 138,-280 144.13,-267.07 155.99,-256.62 167.14,-249.05"/>
<polygon fill="midnightblue" stroke="midnightblue" points="169.19,-251.9 175.8,-243.61 165.47,-245.97 169.19,-251.9"/>
</g>
<!-- Node13&#45;&gt;Node12 -->
<g id="edge19" class="edge">
<title>Node13&#45;&gt;Node12</title>
<path fill="none" stroke="midnightblue" d="M171.05,-336.32C182.46,-328.11 199.83,-315.6 213.43,-305.81"/>
<polygon fill="midnightblue" stroke="midnightblue" points="215.66,-308.52 221.73,-299.83 211.57,-302.84 215.66,-308.52"/>
</g>
<!-- Node14&#45;&gt;Node4 -->
<g id="edge31" class="edge">
<title>Node14&#45;&gt;Node4</title>
<path fill="none" stroke="midnightblue" d="M423.75,-403.57C457.04,-398.7 498.29,-386.42 520,-356 554.08,-308.25 544.39,-277.36 520,-224 514.22,-211.36 502.95,-200.91 492.37,-193.27"/>
<polygon fill="midnightblue" stroke="midnightblue" points="494.04,-190.18 483.78,-187.53 490.15,-196 494.04,-190.18"/>
</g>
<!-- Node15 -->
<g id="node15" class="node">
<title>Node15</title>
<g id="a_node15"><a xlink:href="c__list__iter_8h.html" target="_top" xlink:title=" ">
<polygon fill="white" stroke="black" points="310.5,-336.5 310.5,-355.5 435.5,-355.5 435.5,-336.5 310.5,-336.5"/>
<text text-anchor="middle" x="373" y="-343.5" font-family="Helvetica,sans-Serif" font-size="10.00">SComponent/c_list_iter.h</text>
</a>
</g>
</g>
<!-- Node14&#45;&gt;Node15 -->
<g id="edge26" class="edge">
<title>Node14&#45;&gt;Node15</title>
<path fill="none" stroke="midnightblue" d="M373,-392.4C373,-384.47 373,-374.46 373,-365.86"/>
<polygon fill="midnightblue" stroke="midnightblue" points="376.5,-365.66 373,-355.66 369.5,-365.66 376.5,-365.66"/>
</g>
<!-- Node15&#45;&gt;Node4 -->
<g id="edge30" class="edge">
<title>Node15&#45;&gt;Node4</title>
<path fill="none" stroke="midnightblue" d="M398.62,-336.45C415.66,-329.39 437.04,-317.64 449,-300 470.12,-268.87 471.12,-222.98 469.73,-197.6"/>
<polygon fill="midnightblue" stroke="midnightblue" points="473.21,-197.22 468.98,-187.51 466.23,-197.74 473.21,-197.22"/>
</g>
<!-- Node15&#45;&gt;Node12 -->
<g id="edge27" class="edge">
<title>Node15&#45;&gt;Node12</title>
<path fill="none" stroke="midnightblue" d="M350.98,-336.44C327.9,-327.48 291.44,-313.31 265.36,-303.18"/>
<polygon fill="midnightblue" stroke="midnightblue" points="266.51,-299.88 255.92,-299.52 263.98,-306.4 266.51,-299.88"/>
</g>
<!-- Node16 -->
<g id="node16" class="node">
<title>Node16</title>
<g id="a_node16"><a xlink:href="c__node__iter_8h.html" target="_top" xlink:title=" ">
<polygon fill="white" stroke="black" points="306,-280.5 306,-299.5 440,-299.5 440,-280.5 306,-280.5"/>
<text text-anchor="middle" x="373" y="-287.5" font-family="Helvetica,sans-Serif" font-size="10.00">SComponent/c_node_iter.h</text>
</a>
</g>
</g>
<!-- Node15&#45;&gt;Node16 -->
<g id="edge28" class="edge">
<title>Node15&#45;&gt;Node16</title>
<path fill="none" stroke="midnightblue" d="M373,-336.08C373,-329.01 373,-318.86 373,-309.99"/>
<polygon fill="midnightblue" stroke="midnightblue" points="376.5,-309.75 373,-299.75 369.5,-309.75 376.5,-309.75"/>
</g>
<!-- Node16&#45;&gt;Node3 -->
<g id="edge29" class="edge">
<title>Node16&#45;&gt;Node3</title>
<path fill="none" stroke="midnightblue" d="M344.48,-280.44C313.93,-271.28 265.29,-256.69 231.4,-246.52"/>
<polygon fill="midnightblue" stroke="midnightblue" points="231.97,-243.04 221.39,-243.52 229.96,-249.74 231.97,-243.04"/>
</g>
<!-- Node17&#45;&gt;Node4 -->
<g id="edge34" class="edge">
<title>Node17&#45;&gt;Node4</title>
<path fill="none" stroke="midnightblue" d="M302.84,-464.91C395.41,-447.82 582,-406.06 582,-347 582,-347 582,-347 582,-289 582,-242.11 531.45,-208.89 497.67,-191.93"/>
<polygon fill="midnightblue" stroke="midnightblue" points="499.17,-188.77 488.64,-187.58 496.13,-195.07 499.17,-188.77"/>
</g>
<!-- Node17&#45;&gt;Node11 -->
<g id="edge33" class="edge">
<title>Node17&#45;&gt;Node11</title>
<path fill="none" stroke="midnightblue" d="M250.7,-459.4C249.83,-449.96 248.67,-437.45 247.73,-427.19"/>
<polygon fill="midnightblue" stroke="midnightblue" points="251.21,-426.83 246.8,-417.19 244.24,-427.47 251.21,-426.83"/>
</g>
</g>
</svg>
