<?xml version="1.0" encoding="UTF-8" standalone="no"?>
<!DOCTYPE svg PUBLIC "-//W3C//DTD SVG 1.1//EN"
 "http://www.w3.org/Graphics/SVG/1.1/DTD/svg11.dtd">
<!-- Generated by graphviz version 2.44.0 ()
 -->
<!-- Title: include/f/f_pc/f_pc_executor.h Pages: 1 -->
<svg width="1887pt" height="229pt"
 viewBox="0.00 0.00 1887.00 229.00" xmlns="http://www.w3.org/2000/svg" xmlns:xlink="http://www.w3.org/1999/xlink">
<g id="graph0" class="graph" transform="scale(1 1) rotate(0) translate(4 225)">
<title>include/f/f_pc/f_pc_executor.h</title>
<polygon fill="white" stroke="transparent" points="-4,4 -4,-225 1883,-225 1883,4 -4,4"/>
<!-- Node1 -->
<g id="node1" class="node">
<title>Node1</title>
<g id="a_node1"><a xlink:title=" ">
<polygon fill="#bfbfbf" stroke="black" points="656.5,-190.5 656.5,-220.5 753.5,-220.5 753.5,-190.5 656.5,-190.5"/>
<text text-anchor="start" x="664.5" y="-208.5" font-family="Helvetica,sans-Serif" font-size="10.00">include/f/f_pc/f_pc</text>
<text text-anchor="middle" x="705" y="-197.5" font-family="Helvetica,sans-Serif" font-size="10.00">_executor.h</text>
</a>
</g>
</g>
<!-- Node2 -->
<g id="node2" class="node">
<title>Node2</title>
<g id="a_node2"><a xlink:href="f__op__msg__mng_8cpp.html" target="_top" xlink:title=" ">
<polygon fill="white" stroke="black" points="0,-123.5 0,-153.5 104,-153.5 104,-123.5 0,-123.5"/>
<text text-anchor="start" x="8" y="-141.5" font-family="Helvetica,sans-Serif" font-size="10.00">src/f/f_op/f_op_msg</text>
<text text-anchor="middle" x="52" y="-130.5" font-family="Helvetica,sans-Serif" font-size="10.00">_mng.cpp</text>
</a>
</g>
</g>
<!-- Node1&#45;&gt;Node2 -->
<g id="edge1" class="edge">
<title>Node1&#45;&gt;Node2</title>
<path fill="none" stroke="midnightblue" d="M646.11,-202.37C539.29,-197.86 306.68,-185.1 113,-154 110.1,-153.53 107.13,-153 104.14,-152.43"/>
<polygon fill="midnightblue" stroke="midnightblue" points="646.22,-205.88 656.36,-202.79 646.51,-198.88 646.22,-205.88"/>
</g>
<!-- Node3 -->
<g id="node3" class="node">
<title>Node3</title>
<g id="a_node3"><a xlink:href="f__op__overlap__mng_8cpp.html" target="_top" xlink:title=" ">
<polygon fill="white" stroke="black" points="122,-123.5 122,-153.5 238,-153.5 238,-123.5 122,-123.5"/>
<text text-anchor="start" x="130" y="-141.5" font-family="Helvetica,sans-Serif" font-size="10.00">src/f/f_op/f_op_overlap</text>
<text text-anchor="middle" x="180" y="-130.5" font-family="Helvetica,sans-Serif" font-size="10.00">_mng.cpp</text>
</a>
</g>
</g>
<!-- Node1&#45;&gt;Node3 -->
<g id="edge2" class="edge">
<title>Node1&#45;&gt;Node3</title>
<path fill="none" stroke="midnightblue" d="M646.32,-199.98C558.94,-192.82 389.59,-177.23 247,-154 244.06,-153.52 241.06,-153 238.03,-152.44"/>
<polygon fill="midnightblue" stroke="midnightblue" points="646.06,-203.47 656.31,-200.79 646.62,-196.5 646.06,-203.47"/>
</g>
<!-- Node4 -->
<g id="node4" class="node">
<title>Node4</title>
<g id="a_node4"><a xlink:href="f__op__overlap__req_8cpp.html" target="_top" xlink:title=" ">
<polygon fill="white" stroke="black" points="256,-123.5 256,-153.5 372,-153.5 372,-123.5 256,-123.5"/>
<text text-anchor="start" x="264" y="-141.5" font-family="Helvetica,sans-Serif" font-size="10.00">src/f/f_op/f_op_overlap</text>
<text text-anchor="middle" x="314" y="-130.5" font-family="Helvetica,sans-Serif" font-size="10.00">_req.cpp</text>
</a>
</g>
</g>
<!-- Node1&#45;&gt;Node4 -->
<g id="edge3" class="edge">
<title>Node1&#45;&gt;Node4</title>
<path fill="none" stroke="midnightblue" d="M646.21,-196.39C581.16,-187.17 473.31,-171.17 381,-154 378.07,-153.46 375.08,-152.88 372.06,-152.28"/>
<polygon fill="midnightblue" stroke="midnightblue" points="645.88,-199.88 656.27,-197.81 646.86,-192.95 645.88,-199.88"/>
</g>
<!-- Node5 -->
<g id="node5" class="node">
<title>Node5</title>
<g id="a_node5"><a xlink:href="f__op__scene__pause_8cpp.html" target="_top" xlink:title=" ">
<polygon fill="white" stroke="black" points="390.5,-123.5 390.5,-153.5 501.5,-153.5 501.5,-123.5 390.5,-123.5"/>
<text text-anchor="start" x="398.5" y="-141.5" font-family="Helvetica,sans-Serif" font-size="10.00">src/f/f_op/f_op_scene</text>
<text text-anchor="middle" x="446" y="-130.5" font-family="Helvetica,sans-Serif" font-size="10.00">_pause.cpp</text>
</a>
</g>
</g>
<!-- Node1&#45;&gt;Node5 -->
<g id="edge4" class="edge">
<title>Node1&#45;&gt;Node5</title>
<path fill="none" stroke="midnightblue" d="M646.44,-189.8C603.08,-178.92 544.36,-164.19 501.69,-153.48"/>
<polygon fill="midnightblue" stroke="midnightblue" points="645.73,-193.23 656.28,-192.27 647.44,-186.45 645.73,-193.23"/>
</g>
<!-- Node6 -->
<g id="node6" class="node">
<title>Node6</title>
<g id="a_node6"><a xlink:href="f__op__scene__req_8cpp.html" target="_top" xlink:title=" ">
<polygon fill="white" stroke="black" points="519.5,-123.5 519.5,-153.5 630.5,-153.5 630.5,-123.5 519.5,-123.5"/>
<text text-anchor="start" x="527.5" y="-141.5" font-family="Helvetica,sans-Serif" font-size="10.00">src/f/f_op/f_op_scene</text>
<text text-anchor="middle" x="575" y="-130.5" font-family="Helvetica,sans-Serif" font-size="10.00">_req.cpp</text>
</a>
</g>
</g>
<!-- Node1&#45;&gt;Node6 -->
<g id="edge5" class="edge">
<title>Node1&#45;&gt;Node6</title>
<path fill="none" stroke="midnightblue" d="M667.71,-185.85C647.15,-175.58 622.05,-163.03 603.15,-153.58"/>
<polygon fill="midnightblue" stroke="midnightblue" points="666.28,-189.05 676.79,-190.4 669.41,-182.79 666.28,-189.05"/>
</g>
<!-- Node7 -->
<g id="node7" class="node">
<title>Node7</title>
<g id="a_node7"><a xlink:href="f__pc__create__req_8cpp.html" target="_top" xlink:title=" ">
<polygon fill="white" stroke="black" points="649,-123.5 649,-153.5 761,-153.5 761,-123.5 649,-123.5"/>
<text text-anchor="start" x="657" y="-141.5" font-family="Helvetica,sans-Serif" font-size="10.00">src/f/f_pc/f_pc_create</text>
<text text-anchor="middle" x="705" y="-130.5" font-family="Helvetica,sans-Serif" font-size="10.00">_req.cpp</text>
</a>
</g>
</g>
<!-- Node1&#45;&gt;Node7 -->
<g id="edge6" class="edge">
<title>Node1&#45;&gt;Node7</title>
<path fill="none" stroke="midnightblue" d="M705,-180.11C705,-171.15 705,-161.32 705,-153.58"/>
<polygon fill="midnightblue" stroke="midnightblue" points="701.5,-180.4 705,-190.4 708.5,-180.4 701.5,-180.4"/>
</g>
<!-- Node8 -->
<g id="node8" class="node">
<title>Node8</title>
<g id="a_node8"><a xlink:href="f__pc__deletor_8cpp.html" target="_top" xlink:title=" ">
<polygon fill="white" stroke="black" points="779,-129 779,-148 911,-148 911,-129 779,-129"/>
<text text-anchor="middle" x="845" y="-136" font-family="Helvetica,sans-Serif" font-size="10.00">src/f/f_pc/f_pc_deletor.cpp</text>
</a>
</g>
</g>
<!-- Node1&#45;&gt;Node8 -->
<g id="edge7" class="edge">
<title>Node1&#45;&gt;Node8</title>
<path fill="none" stroke="midnightblue" d="M744.56,-186.13C771.51,-173.62 805.93,-157.64 826.68,-148.01"/>
<polygon fill="midnightblue" stroke="midnightblue" points="742.97,-183.01 735.38,-190.4 745.92,-189.36 742.97,-183.01"/>
</g>
<!-- Node9 -->
<g id="node9" class="node">
<title>Node9</title>
<g id="a_node9"><a xlink:href="f__pc__executor_8cpp.html" target="_top" xlink:title=" ">
<polygon fill="white" stroke="black" points="929,-129 929,-148 1069,-148 1069,-129 929,-129"/>
<text text-anchor="middle" x="999" y="-136" font-family="Helvetica,sans-Serif" font-size="10.00">src/f/f_pc/f_pc_executor.cpp</text>
</a>
</g>
</g>
<!-- Node1&#45;&gt;Node9 -->
<g id="edge8" class="edge">
<title>Node1&#45;&gt;Node9</title>
<path fill="none" stroke="midnightblue" d="M763.37,-191.59C821.78,-178.68 909.97,-159.18 960.25,-148.07"/>
<polygon fill="midnightblue" stroke="midnightblue" points="762.56,-188.19 753.55,-193.77 764.07,-195.03 762.56,-188.19"/>
</g>
<!-- Node10 -->
<g id="node10" class="node">
<title>Node10</title>
<g id="a_node10"><a xlink:href="f__pc__manager_8cpp.html" target="_top" xlink:title=" ">
<polygon fill="white" stroke="black" points="1087,-129 1087,-148 1227,-148 1227,-129 1087,-129"/>
<text text-anchor="middle" x="1157" y="-136" font-family="Helvetica,sans-Serif" font-size="10.00">src/f/f_pc/f_pc_manager.cpp</text>
</a>
</g>
</g>
<!-- Node1&#45;&gt;Node10 -->
<g id="edge9" class="edge">
<title>Node1&#45;&gt;Node10</title>
<path fill="none" stroke="midnightblue" d="M763.69,-197.42C837.27,-188.34 967.21,-171.66 1078,-154 1089.15,-152.22 1101.16,-150.12 1112.36,-148.07"/>
<polygon fill="midnightblue" stroke="midnightblue" points="763.19,-193.95 753.69,-198.65 764.04,-200.9 763.19,-193.95"/>
</g>
<!-- Node11 -->
<g id="node11" class="node">
<title>Node11</title>
<g id="a_node11"><a xlink:href="f__pc__node__req_8cpp.html" target="_top" xlink:title=" ">
<polygon fill="white" stroke="black" points="1245,-123.5 1245,-153.5 1351,-153.5 1351,-123.5 1245,-123.5"/>
<text text-anchor="start" x="1253" y="-141.5" font-family="Helvetica,sans-Serif" font-size="10.00">src/f/f_pc/f_pc_node</text>
<text text-anchor="middle" x="1298" y="-130.5" font-family="Helvetica,sans-Serif" font-size="10.00">_req.cpp</text>
</a>
</g>
</g>
<!-- Node1&#45;&gt;Node11 -->
<g id="edge10" class="edge">
<title>Node1&#45;&gt;Node11</title>
<path fill="none" stroke="midnightblue" d="M763.63,-201.52C861.85,-195.94 1065.65,-181.89 1236,-154 1238.95,-153.52 1241.96,-152.98 1244.99,-152.39"/>
<polygon fill="midnightblue" stroke="midnightblue" points="763.39,-198.02 753.6,-202.08 763.78,-205.01 763.39,-198.02"/>
</g>
<!-- Node12 -->
<g id="node12" class="node">
<title>Node12</title>
<g id="a_node12"><a xlink:href="f__op__actor__mng_8h.html" target="_top" xlink:title=" ">
<polygon fill="white" stroke="black" points="1368.5,-123.5 1368.5,-153.5 1465.5,-153.5 1465.5,-123.5 1368.5,-123.5"/>
<text text-anchor="start" x="1376.5" y="-141.5" font-family="Helvetica,sans-Serif" font-size="10.00">include/f/f_op/f_op</text>
<text text-anchor="middle" x="1417" y="-130.5" font-family="Helvetica,sans-Serif" font-size="10.00">_actor_mng.h</text>
</a>
</g>
</g>
<!-- Node1&#45;&gt;Node12 -->
<g id="edge11" class="edge">
<title>Node1&#45;&gt;Node12</title>
<path fill="none" stroke="midnightblue" d="M763.84,-203.35C879.03,-200.36 1142.06,-189.85 1360,-154 1362.72,-153.55 1365.5,-153.04 1368.3,-152.48"/>
<polygon fill="midnightblue" stroke="midnightblue" points="763.73,-199.85 753.82,-203.6 763.91,-206.85 763.73,-199.85"/>
</g>
<!-- Node13 -->
<g id="node13" class="node">
<title>Node13</title>
<g id="a_node13"><a xlink:href="d__attention_8cpp.html" target="_top" xlink:title=" ">
<polygon fill="white" stroke="black" points="1006.5,-62 1006.5,-81 1113.5,-81 1113.5,-62 1006.5,-62"/>
<text text-anchor="middle" x="1060" y="-69" font-family="Helvetica,sans-Serif" font-size="10.00">src/d/d_attention.cpp</text>
</a>
</g>
</g>
<!-- Node12&#45;&gt;Node13 -->
<g id="edge12" class="edge">
<title>Node12&#45;&gt;Node13</title>
<path fill="none" stroke="midnightblue" d="M1358.21,-122.75C1253.37,-102.09 1223.88,-106.59 1122,-87 1112.99,-85.27 1103.3,-83.13 1094.33,-81.04"/>
<polygon fill="midnightblue" stroke="midnightblue" points="1357.76,-126.23 1368.26,-124.76 1359.14,-119.37 1357.76,-126.23"/>
</g>
<!-- Node14 -->
<g id="node14" class="node">
<title>Node14</title>
<g id="a_node14"><a xlink:href="d__camera_8cpp.html" target="_top" xlink:title=" ">
<polygon fill="white" stroke="black" points="1131,-62 1131,-81 1233,-81 1233,-62 1131,-62"/>
<text text-anchor="middle" x="1182" y="-69" font-family="Helvetica,sans-Serif" font-size="10.00">src/d/d_camera.cpp</text>
</a>
</g>
</g>
<!-- Node12&#45;&gt;Node14 -->
<g id="edge13" class="edge">
<title>Node12&#45;&gt;Node14</title>
<path fill="none" stroke="midnightblue" d="M1358.44,-121.3C1312.36,-108.56 1249.96,-91.3 1213.04,-81.09"/>
<polygon fill="midnightblue" stroke="midnightblue" points="1357.74,-124.74 1368.31,-124.03 1359.6,-117.99 1357.74,-124.74"/>
</g>
<!-- Node15 -->
<g id="node15" class="node">
<title>Node15</title>
<g id="a_node15"><a xlink:href="d__stage_8cpp.html" target="_top" xlink:title=" ">
<polygon fill="white" stroke="black" points="1251,-62 1251,-81 1345,-81 1345,-62 1251,-62"/>
<text text-anchor="middle" x="1298" y="-69" font-family="Helvetica,sans-Serif" font-size="10.00">src/d/d_stage.cpp</text>
</a>
</g>
</g>
<!-- Node12&#45;&gt;Node15 -->
<g id="edge14" class="edge">
<title>Node12&#45;&gt;Node15</title>
<path fill="none" stroke="midnightblue" d="M1382.17,-118.47C1359.45,-106.06 1330.9,-90.47 1313.57,-81.01"/>
<polygon fill="midnightblue" stroke="midnightblue" points="1380.72,-121.67 1391.18,-123.4 1384.08,-115.53 1380.72,-121.67"/>
</g>
<!-- Node16 -->
<g id="node16" class="node">
<title>Node16</title>
<g id="a_node16"><a xlink:href="f__op__actor__mng_8cpp.html" target="_top" xlink:title=" ">
<polygon fill="white" stroke="black" points="1363.5,-56.5 1363.5,-86.5 1470.5,-86.5 1470.5,-56.5 1363.5,-56.5"/>
<text text-anchor="start" x="1371.5" y="-74.5" font-family="Helvetica,sans-Serif" font-size="10.00">src/f/f_op/f_op_actor</text>
<text text-anchor="middle" x="1417" y="-63.5" font-family="Helvetica,sans-Serif" font-size="10.00">_mng.cpp</text>
</a>
</g>
</g>
<!-- Node12&#45;&gt;Node16 -->
<g id="edge15" class="edge">
<title>Node12&#45;&gt;Node16</title>
<path fill="none" stroke="midnightblue" d="M1417,-113.11C1417,-104.15 1417,-94.32 1417,-86.58"/>
<polygon fill="midnightblue" stroke="midnightblue" points="1413.5,-113.4 1417,-123.4 1420.5,-113.4 1413.5,-113.4"/>
</g>
<!-- Node17 -->
<g id="node17" class="node">
<title>Node17</title>
<g id="a_node17"><a xlink:href="d__a__alink_8cpp.html" target="_top" xlink:title=" ">
<polygon fill="white" stroke="black" points="1488.5,-62 1488.5,-81 1607.5,-81 1607.5,-62 1488.5,-62"/>
<text text-anchor="middle" x="1548" y="-69" font-family="Helvetica,sans-Serif" font-size="10.00">src/d/d_a/d_a_alink.cpp</text>
</a>
</g>
</g>
<!-- Node12&#45;&gt;Node17 -->
<g id="edge16" class="edge">
<title>Node12&#45;&gt;Node17</title>
<path fill="none" stroke="midnightblue" d="M1454.68,-118.8C1479.8,-106.34 1511.61,-90.56 1530.86,-81.01"/>
<polygon fill="midnightblue" stroke="midnightblue" points="1452.83,-115.82 1445.43,-123.4 1455.94,-122.09 1452.83,-115.82"/>
</g>
<!-- Node18 -->
<g id="node18" class="node">
<title>Node18</title>
<g id="a_node18"><a xlink:href="m__Do__main_8cpp.html" target="_top" xlink:title=" ">
<polygon fill="white" stroke="black" points="1625.5,-62 1625.5,-81 1756.5,-81 1756.5,-62 1625.5,-62"/>
<text text-anchor="middle" x="1691" y="-69" font-family="Helvetica,sans-Serif" font-size="10.00">src/m_Do/m_Do_main.cpp</text>
</a>
</g>
</g>
<!-- Node12&#45;&gt;Node18 -->
<g id="edge17" class="edge">
<title>Node12&#45;&gt;Node18</title>
<path fill="none" stroke="midnightblue" d="M1475.53,-123.62C1529.97,-110.7 1609.34,-91.87 1655.01,-81.04"/>
<polygon fill="midnightblue" stroke="midnightblue" points="1474.59,-120.24 1465.67,-125.95 1476.21,-127.05 1474.59,-120.24"/>
</g>
<!-- Node19 -->
<g id="node19" class="node">
<title>Node19</title>
<g id="a_node19"><a xlink:href="d__model_8h.html" target="_top" xlink:title=" ">
<polygon fill="white" stroke="black" points="1775,-56.5 1775,-86.5 1879,-86.5 1879,-56.5 1775,-56.5"/>
<text text-anchor="start" x="1783" y="-74.5" font-family="Helvetica,sans-Serif" font-size="10.00">include/d/d_model/d</text>
<text text-anchor="middle" x="1827" y="-63.5" font-family="Helvetica,sans-Serif" font-size="10.00">_model.h</text>
</a>
</g>
</g>
<!-- Node12&#45;&gt;Node19 -->
<g id="edge18" class="edge">
<title>Node12&#45;&gt;Node19</title>
<path fill="none" stroke="midnightblue" d="M1476.11,-130.59C1545.74,-122.07 1664.76,-106.32 1766,-87 1768.89,-86.45 1771.84,-85.85 1774.82,-85.23"/>
<polygon fill="midnightblue" stroke="midnightblue" points="1475.29,-127.16 1465.78,-131.84 1476.13,-134.11 1475.29,-127.16"/>
</g>
<!-- Node20 -->
<g id="node20" class="node">
<title>Node20</title>
<g id="a_node20"><a xlink:href="d__model_8cpp.html" target="_top" xlink:title=" ">
<polygon fill="white" stroke="black" points="1779,-0.5 1779,-19.5 1875,-19.5 1875,-0.5 1779,-0.5"/>
<text text-anchor="middle" x="1827" y="-7.5" font-family="Helvetica,sans-Serif" font-size="10.00">src/d/d_model.cpp</text>
</a>
</g>
</g>
<!-- Node19&#45;&gt;Node20 -->
<g id="edge19" class="edge">
<title>Node19&#45;&gt;Node20</title>
<path fill="none" stroke="midnightblue" d="M1827,-46.29C1827,-36.86 1827,-26.65 1827,-19.66"/>
<polygon fill="midnightblue" stroke="midnightblue" points="1823.5,-46.4 1827,-56.4 1830.5,-46.4 1823.5,-46.4"/>
</g>
</g>
</svg>
