<?xml version="1.0" encoding="UTF-8" standalone="no"?>
<!DOCTYPE svg PUBLIC "-//W3C//DTD SVG 1.1//EN"
 "http://www.w3.org/Graphics/SVG/1.1/DTD/svg11.dtd">
<!-- Generated by graphviz version 2.44.0 ()
 -->
<!-- Title: src/f/f_pc/f_pc_create_req.cpp Pages: 1 -->
<svg width="1644pt" height="766pt"
 viewBox="0.00 0.00 1644.00 766.00" xmlns="http://www.w3.org/2000/svg" xmlns:xlink="http://www.w3.org/1999/xlink">
<g id="graph0" class="graph" transform="scale(1 1) rotate(0) translate(4 762)">
<title>src/f/f_pc/f_pc_create_req.cpp</title>
<polygon fill="white" stroke="transparent" points="-4,4 -4,-762 1640,-762 1640,4 -4,4"/>
<!-- Node1 -->
<g id="node1" class="node">
<title>Node1</title>
<g id="a_node1"><a xlink:title=" ">
<polygon fill="#bfbfbf" stroke="black" points="747,-727.5 747,-757.5 859,-757.5 859,-727.5 747,-727.5"/>
<text text-anchor="start" x="755" y="-745.5" font-family="Helvetica,sans-Serif" font-size="10.00">src/f/f_pc/f_pc_create</text>
<text text-anchor="middle" x="803" y="-734.5" font-family="Helvetica,sans-Serif" font-size="10.00">_req.cpp</text>
</a>
</g>
</g>
<!-- Node2 -->
<g id="node2" class="node">
<title>Node2</title>
<g id="a_node2"><a xlink:href="types_8h.html" target="_top" xlink:title=" ">
<polygon fill="white" stroke="black" points="1071.5,-0.5 1071.5,-19.5 1152.5,-19.5 1152.5,-0.5 1071.5,-0.5"/>
<text text-anchor="middle" x="1112" y="-7.5" font-family="Helvetica,sans-Serif" font-size="10.00">dolphin/types.h</text>
</a>
</g>
</g>
<!-- Node1&#45;&gt;Node2 -->
<g id="edge1" class="edge">
<title>Node1&#45;&gt;Node2</title>
<path fill="none" stroke="midnightblue" d="M746.99,-739.86C608.41,-735.38 252.47,-721.21 138,-691 72.45,-673.7 0,-693.8 0,-626 0,-626 0,-626 0,-137.5 0,-29.19 843.59,-13.59 1061.25,-11.37"/>
<polygon fill="midnightblue" stroke="midnightblue" points="1061.47,-14.86 1071.44,-11.27 1061.4,-7.86 1061.47,-14.86"/>
</g>
<!-- Node3 -->
<g id="node3" class="node">
<title>Node3</title>
<g id="a_node3"><a xlink:href="c__malloc_8h.html" target="_top" xlink:title=" ">
<polygon fill="white" stroke="black" points="1445,-313.5 1445,-332.5 1567,-332.5 1567,-313.5 1445,-313.5"/>
<text text-anchor="middle" x="1506" y="-320.5" font-family="Helvetica,sans-Serif" font-size="10.00">SComponent/c_malloc.h</text>
</a>
</g>
</g>
<!-- Node1&#45;&gt;Node3 -->
<g id="edge2" class="edge">
<title>Node1&#45;&gt;Node3</title>
<path fill="none" stroke="midnightblue" d="M859.27,-739.64C1046.4,-732.7 1636,-704.61 1636,-626 1636,-626 1636,-626 1636,-434 1636,-384.12 1579.54,-352.21 1541.04,-336.25"/>
<polygon fill="midnightblue" stroke="midnightblue" points="1542.27,-332.97 1531.68,-332.53 1539.69,-339.48 1542.27,-332.97"/>
</g>
<!-- Node13 -->
<g id="node13" class="node">
<title>Node13</title>
<g id="a_node13"><a xlink:href="c__phase_8h.html" target="_top" xlink:title=" ">
<polygon fill="white" stroke="black" points="1488,-487 1488,-506 1608,-506 1608,-487 1488,-487"/>
<text text-anchor="middle" x="1548" y="-494" font-family="Helvetica,sans-Serif" font-size="10.00">SComponent/c_phase.h</text>
</a>
</g>
</g>
<!-- Node1&#45;&gt;Node13 -->
<g id="edge21" class="edge">
<title>Node1&#45;&gt;Node13</title>
<path fill="none" stroke="midnightblue" d="M859.3,-741.12C964.33,-738.24 1194.8,-721.65 1364,-635 1431.48,-600.44 1500.22,-541.37 1531.12,-513.26"/>
<polygon fill="midnightblue" stroke="midnightblue" points="1533.81,-515.55 1538.81,-506.2 1529.08,-510.39 1533.81,-515.55"/>
</g>
<!-- Node14 -->
<g id="node14" class="node">
<title>Node14</title>
<g id="a_node14"><a xlink:href="f__pc__base_8h.html" target="_top" xlink:title=" ">
<polygon fill="white" stroke="black" points="752.5,-615.5 752.5,-634.5 849.5,-634.5 849.5,-615.5 752.5,-615.5"/>
<text text-anchor="middle" x="801" y="-622.5" font-family="Helvetica,sans-Serif" font-size="10.00">f/f_pc/f_pc_base.h</text>
</a>
</g>
</g>
<!-- Node1&#45;&gt;Node14 -->
<g id="edge22" class="edge">
<title>Node1&#45;&gt;Node14</title>
<path fill="none" stroke="midnightblue" d="M811.81,-727.31C819.5,-713.16 828.75,-690.74 824,-671 821.69,-661.42 816.98,-651.58 812.42,-643.56"/>
<polygon fill="midnightblue" stroke="midnightblue" points="815.29,-641.54 807.1,-634.81 809.31,-645.17 815.29,-641.54"/>
</g>
<!-- Node20 -->
<g id="node20" class="node">
<title>Node20</title>
<g id="a_node20"><a xlink:href="f__pc__layer_8h.html" target="_top" xlink:title=" ">
<polygon fill="white" stroke="black" points="634,-487 634,-506 730,-506 730,-487 634,-487"/>
<text text-anchor="middle" x="682" y="-494" font-family="Helvetica,sans-Serif" font-size="10.00">f/f_pc/f_pc_layer.h</text>
</a>
</g>
</g>
<!-- Node1&#45;&gt;Node20 -->
<g id="edge90" class="edge">
<title>Node1&#45;&gt;Node20</title>
<path fill="none" stroke="midnightblue" d="M756.58,-727.45C737.11,-719.5 715.64,-707.73 701,-691 657.68,-641.52 651.23,-612.7 663,-548 665.04,-536.76 669.45,-524.78 673.5,-515.3"/>
<polygon fill="midnightblue" stroke="midnightblue" points="676.71,-516.72 677.64,-506.16 670.33,-513.83 676.71,-516.72"/>
</g>
<!-- Node26 -->
<g id="node26" class="node">
<title>Node26</title>
<g id="a_node26"><a xlink:href="f__pc__method_8h.html" target="_top" xlink:title=" ">
<polygon fill="white" stroke="black" points="1362,-487 1362,-506 1470,-506 1470,-487 1362,-487"/>
<text text-anchor="middle" x="1416" y="-494" font-family="Helvetica,sans-Serif" font-size="10.00">f/f_pc/f_pc_method.h</text>
</a>
</g>
</g>
<!-- Node1&#45;&gt;Node26 -->
<g id="edge91" class="edge">
<title>Node1&#45;&gt;Node26</title>
<path fill="none" stroke="midnightblue" d="M859.11,-735.25C997.21,-718.59 1347.35,-668.22 1416,-579 1429.72,-561.17 1426.4,-534.05 1421.91,-516.06"/>
<polygon fill="midnightblue" stroke="midnightblue" points="1425.21,-514.86 1419.11,-506.2 1418.47,-516.77 1425.21,-514.86"/>
</g>
<!-- Node27 -->
<g id="node27" class="node">
<title>Node27</title>
<g id="a_node27"><a xlink:href="f__pc__create__iter_8h.html" target="_top" xlink:title=" ">
<polygon fill="white" stroke="black" points="377.5,-548.5 377.5,-578.5 472.5,-578.5 472.5,-548.5 377.5,-548.5"/>
<text text-anchor="start" x="385.5" y="-566.5" font-family="Helvetica,sans-Serif" font-size="10.00">f/f_pc/f_pc_create</text>
<text text-anchor="middle" x="425" y="-555.5" font-family="Helvetica,sans-Serif" font-size="10.00">_iter.h</text>
</a>
</g>
</g>
<!-- Node1&#45;&gt;Node27 -->
<g id="edge57" class="edge">
<title>Node1&#45;&gt;Node27</title>
<path fill="none" stroke="midnightblue" d="M746.72,-729.15C712.21,-720.59 667.59,-707.72 630,-691 562.43,-660.95 490.4,-612.06 452.31,-584.69"/>
<polygon fill="midnightblue" stroke="midnightblue" points="453.97,-581.58 443.82,-578.55 449.87,-587.25 453.97,-581.58"/>
</g>
<!-- Node32 -->
<g id="node32" class="node">
<title>Node32</title>
<g id="a_node32"><a xlink:href="f__pc__create__req_8h.html" target="_top" xlink:title=" ">
<polygon fill="white" stroke="black" points="1132.5,-548.5 1132.5,-578.5 1227.5,-578.5 1227.5,-548.5 1132.5,-548.5"/>
<text text-anchor="start" x="1140.5" y="-566.5" font-family="Helvetica,sans-Serif" font-size="10.00">f/f_pc/f_pc_create</text>
<text text-anchor="middle" x="1180" y="-555.5" font-family="Helvetica,sans-Serif" font-size="10.00">_req.h</text>
</a>
</g>
</g>
<!-- Node1&#45;&gt;Node32 -->
<g id="edge71" class="edge">
<title>Node1&#45;&gt;Node32</title>
<path fill="none" stroke="midnightblue" d="M832.9,-727.46C900.54,-695.71 1065.29,-618.36 1140.9,-582.86"/>
<polygon fill="midnightblue" stroke="midnightblue" points="1142.53,-585.96 1150.1,-578.54 1139.56,-579.62 1142.53,-585.96"/>
</g>
<!-- Node33 -->
<g id="node33" class="node">
<title>Node33</title>
<g id="a_node33"><a xlink:href="f__pc__deletor_8h.html" target="_top" xlink:title=" ">
<polygon fill="white" stroke="black" points="710.5,-671.5 710.5,-690.5 815.5,-690.5 815.5,-671.5 710.5,-671.5"/>
<text text-anchor="middle" x="763" y="-678.5" font-family="Helvetica,sans-Serif" font-size="10.00">f/f_pc/f_pc_deletor.h</text>
</a>
</g>
</g>
<!-- Node1&#45;&gt;Node33 -->
<g id="edge79" class="edge">
<title>Node1&#45;&gt;Node33</title>
<path fill="none" stroke="midnightblue" d="M793.52,-727.4C787.83,-718.93 780.55,-708.1 774.52,-699.14"/>
<polygon fill="midnightblue" stroke="midnightblue" points="777.3,-697 768.82,-690.66 771.49,-700.91 777.3,-697"/>
</g>
<!-- Node34 -->
<g id="node34" class="node">
<title>Node34</title>
<g id="a_node34"><a xlink:href="f__pc__executor_8h.html" target="_top" xlink:title=" ">
<polygon fill="white" stroke="black" points="147.5,-671.5 147.5,-690.5 260.5,-690.5 260.5,-671.5 147.5,-671.5"/>
<text text-anchor="middle" x="204" y="-678.5" font-family="Helvetica,sans-Serif" font-size="10.00">f/f_pc/f_pc_executor.h</text>
</a>
</g>
</g>
<!-- Node1&#45;&gt;Node34 -->
<g id="edge81" class="edge">
<title>Node1&#45;&gt;Node34</title>
<path fill="none" stroke="midnightblue" d="M746.92,-735.93C636.14,-724.93 389.71,-700.45 270.77,-688.63"/>
<polygon fill="midnightblue" stroke="midnightblue" points="271,-685.14 260.7,-687.63 270.31,-692.1 271,-685.14"/>
</g>
<!-- Node4 -->
<g id="node4" class="node">
<title>Node4</title>
<g id="a_node4"><a xlink:href="JKRHeap_8h.html" target="_top" xlink:title=" ">
<polygon fill="white" stroke="black" points="1438,-246.5 1438,-276.5 1574,-276.5 1574,-246.5 1438,-246.5"/>
<text text-anchor="start" x="1446" y="-264.5" font-family="Helvetica,sans-Serif" font-size="10.00">JSystem/JKernel/JKRHeap</text>
<text text-anchor="middle" x="1506" y="-253.5" font-family="Helvetica,sans-Serif" font-size="10.00">/JKRHeap.h</text>
</a>
</g>
</g>
<!-- Node3&#45;&gt;Node4 -->
<g id="edge3" class="edge">
<title>Node3&#45;&gt;Node4</title>
<path fill="none" stroke="midnightblue" d="M1506,-313.48C1506,-306.47 1506,-296.19 1506,-286.7"/>
<polygon fill="midnightblue" stroke="midnightblue" points="1509.5,-286.52 1506,-276.52 1502.5,-286.52 1509.5,-286.52"/>
</g>
<!-- Node7 -->
<g id="node7" class="node">
<title>Node7</title>
<g id="a_node7"><a xlink:href="global_8h.html" target="_top" xlink:title=" ">
<polygon fill="white" stroke="black" points="999,-190.5 999,-209.5 1049,-209.5 1049,-190.5 999,-190.5"/>
<text text-anchor="middle" x="1024" y="-197.5" font-family="Helvetica,sans-Serif" font-size="10.00">global.h</text>
</a>
</g>
</g>
<!-- Node3&#45;&gt;Node7 -->
<g id="edge20" class="edge">
<title>Node3&#45;&gt;Node7</title>
<path fill="none" stroke="midnightblue" d="M1490.4,-313.46C1474.65,-304.71 1449.77,-290.51 1429,-277 1409.25,-264.15 1407.93,-254.61 1386,-246 1326.95,-222.82 1138.65,-208.36 1059.54,-203.17"/>
<polygon fill="midnightblue" stroke="midnightblue" points="1059.33,-199.65 1049.12,-202.5 1058.88,-206.63 1059.33,-199.65"/>
</g>
<!-- Node4&#45;&gt;Node2 -->
<g id="edge8" class="edge">
<title>Node4&#45;&gt;Node2</title>
<path fill="none" stroke="midnightblue" d="M1454.76,-246.38C1403.39,-230.33 1324.08,-200.19 1268,-154 1226.88,-120.13 1239.14,-91.02 1199,-56 1183.11,-42.13 1162.19,-31.14 1144.85,-23.49"/>
<polygon fill="midnightblue" stroke="midnightblue" points="1146.21,-20.27 1135.64,-19.59 1143.48,-26.71 1146.21,-20.27"/>
</g>
<!-- Node5 -->
<g id="node5" class="node">
<title>Node5</title>
<g id="a_node5"><a xlink:href="JKRDisposer_8h.html" target="_top" xlink:title=" ">
<polygon fill="white" stroke="black" points="1276.5,-123.5 1276.5,-153.5 1427.5,-153.5 1427.5,-123.5 1276.5,-123.5"/>
<text text-anchor="start" x="1284.5" y="-141.5" font-family="Helvetica,sans-Serif" font-size="10.00">JSystem/JKernel/JKRDisposer</text>
<text text-anchor="middle" x="1352" y="-130.5" font-family="Helvetica,sans-Serif" font-size="10.00">/JKRDisposer.h</text>
</a>
</g>
</g>
<!-- Node4&#45;&gt;Node5 -->
<g id="edge4" class="edge">
<title>Node4&#45;&gt;Node5</title>
<path fill="none" stroke="midnightblue" d="M1488.03,-246.38C1460.91,-225.07 1409.36,-184.57 1378.1,-160"/>
<polygon fill="midnightblue" stroke="midnightblue" points="1379.88,-156.95 1369.85,-153.53 1375.55,-162.46 1379.88,-156.95"/>
</g>
<!-- Node4&#45;&gt;Node7 -->
<g id="edge9" class="edge">
<title>Node4&#45;&gt;Node7</title>
<path fill="none" stroke="midnightblue" d="M1437.6,-248.07C1433,-247.34 1428.44,-246.64 1424,-246 1289.79,-226.6 1129.23,-210.76 1059.37,-204.22"/>
<polygon fill="midnightblue" stroke="midnightblue" points="1059.62,-200.73 1049.34,-203.29 1058.98,-207.7 1059.62,-200.73"/>
</g>
<!-- Node5&#45;&gt;Node2 -->
<g id="edge7" class="edge">
<title>Node5&#45;&gt;Node2</title>
<path fill="none" stroke="midnightblue" d="M1329.92,-123.39C1314.44,-113.4 1293.31,-99.59 1275,-87 1255.59,-73.65 1252.77,-67.12 1232,-56 1206.26,-42.21 1175.37,-30.73 1151.38,-22.82"/>
<polygon fill="midnightblue" stroke="midnightblue" points="1152.14,-19.39 1141.55,-19.65 1149.99,-26.05 1152.14,-19.39"/>
</g>
<!-- Node6 -->
<g id="node6" class="node">
<title>Node6</title>
<g id="a_node6"><a xlink:href="JSUList_8h.html" target="_top" xlink:title=" ">
<polygon fill="white" stroke="black" points="1284,-56.5 1284,-86.5 1420,-86.5 1420,-56.5 1284,-56.5"/>
<text text-anchor="start" x="1292" y="-74.5" font-family="Helvetica,sans-Serif" font-size="10.00">JSystem/JSupport/JSUList</text>
<text text-anchor="middle" x="1352" y="-63.5" font-family="Helvetica,sans-Serif" font-size="10.00">/JSUList.h</text>
</a>
</g>
</g>
<!-- Node5&#45;&gt;Node6 -->
<g id="edge5" class="edge">
<title>Node5&#45;&gt;Node6</title>
<path fill="none" stroke="midnightblue" d="M1352,-123.4C1352,-115.64 1352,-105.81 1352,-96.86"/>
<polygon fill="midnightblue" stroke="midnightblue" points="1355.5,-96.58 1352,-86.58 1348.5,-96.58 1355.5,-96.58"/>
</g>
<!-- Node6&#45;&gt;Node2 -->
<g id="edge6" class="edge">
<title>Node6&#45;&gt;Node2</title>
<path fill="none" stroke="midnightblue" d="M1295.43,-56.47C1252.85,-45.92 1195.32,-31.66 1156.11,-21.94"/>
<polygon fill="midnightblue" stroke="midnightblue" points="1156.86,-18.52 1146.31,-19.51 1155.18,-25.31 1156.86,-18.52"/>
</g>
<!-- Node7&#45;&gt;Node2 -->
<g id="edge10" class="edge">
<title>Node7&#45;&gt;Node2</title>
<path fill="none" stroke="midnightblue" d="M1046.42,-190.4C1062.12,-183.15 1082.17,-171.18 1093,-154 1117.42,-115.27 1116.65,-58.93 1114.22,-29.88"/>
<polygon fill="midnightblue" stroke="midnightblue" points="1117.66,-29.15 1113.18,-19.55 1110.7,-29.85 1117.66,-29.15"/>
</g>
<!-- Node8 -->
<g id="node8" class="node">
<title>Node8</title>
<g id="a_node8"><a xlink:href="AR_8h.html" target="_top" xlink:title=" ">
<polygon fill="white" stroke="black" points="1140.5,-62 1140.5,-81 1189.5,-81 1189.5,-62 1140.5,-62"/>
<text text-anchor="middle" x="1165" y="-69" font-family="Helvetica,sans-Serif" font-size="10.00">ar/AR.h</text>
</a>
</g>
</g>
<!-- Node7&#45;&gt;Node8 -->
<g id="edge11" class="edge">
<title>Node7&#45;&gt;Node8</title>
<path fill="none" stroke="midnightblue" d="M1049.05,-193.27C1071.61,-186.98 1104.46,-174.88 1126,-154 1143.99,-136.56 1154.71,-109.15 1160.24,-91"/>
<polygon fill="midnightblue" stroke="midnightblue" points="1163.63,-91.88 1162.96,-81.3 1156.89,-89.98 1163.63,-91.88"/>
</g>
<!-- Node9 -->
<g id="node9" class="node">
<title>Node9</title>
<g id="a_node9"><a xlink:href="ARQ_8h.html" target="_top" xlink:title=" ">
<polygon fill="white" stroke="black" points="910,-62 910,-81 966,-81 966,-62 910,-62"/>
<text text-anchor="middle" x="938" y="-69" font-family="Helvetica,sans-Serif" font-size="10.00">ar/ARQ.h</text>
</a>
</g>
</g>
<!-- Node7&#45;&gt;Node9 -->
<g id="edge13" class="edge">
<title>Node7&#45;&gt;Node9</title>
<path fill="none" stroke="midnightblue" d="M1002.61,-190.46C987,-183.12 966.62,-171.01 955,-154 942.23,-135.3 938.72,-108.96 937.92,-91.34"/>
<polygon fill="midnightblue" stroke="midnightblue" points="941.42,-91.11 937.72,-81.19 934.42,-91.25 941.42,-91.11"/>
</g>
<!-- Node10 -->
<g id="node10" class="node">
<title>Node10</title>
<g id="a_node10"><a xlink:href="mwcc_8h.html" target="_top" xlink:title=" ">
<polygon fill="white" stroke="black" points="964,-129 964,-148 1014,-148 1014,-129 964,-129"/>
<text text-anchor="middle" x="989" y="-136" font-family="Helvetica,sans-Serif" font-size="10.00">mwcc.h</text>
</a>
</g>
</g>
<!-- Node7&#45;&gt;Node10 -->
<g id="edge15" class="edge">
<title>Node7&#45;&gt;Node10</title>
<path fill="none" stroke="midnightblue" d="M1018.99,-190.48C1013.84,-181.73 1005.69,-167.87 999.18,-156.81"/>
<polygon fill="midnightblue" stroke="midnightblue" points="1002.09,-154.85 994.01,-148.01 996.06,-158.4 1002.09,-154.85"/>
</g>
<!-- Node11 -->
<g id="node11" class="node">
<title>Node11</title>
<g id="a_node11"><a xlink:href="OS_8h.html" target="_top" xlink:title=" ">
<polygon fill="white" stroke="black" points="1032,-129 1032,-148 1084,-148 1084,-129 1032,-129"/>
<text text-anchor="middle" x="1058" y="-136" font-family="Helvetica,sans-Serif" font-size="10.00">os/OS.h</text>
</a>
</g>
</g>
<!-- Node7&#45;&gt;Node11 -->
<g id="edge16" class="edge">
<title>Node7&#45;&gt;Node11</title>
<path fill="none" stroke="midnightblue" d="M1028.87,-190.48C1033.87,-181.73 1041.79,-167.87 1048.11,-156.81"/>
<polygon fill="midnightblue" stroke="midnightblue" points="1051.22,-158.43 1053.14,-148.01 1045.14,-154.96 1051.22,-158.43"/>
</g>
<!-- Node8&#45;&gt;Node2 -->
<g id="edge12" class="edge">
<title>Node8&#45;&gt;Node2</title>
<path fill="none" stroke="midnightblue" d="M1157.41,-61.98C1149.3,-52.87 1136.27,-38.24 1126.24,-26.98"/>
<polygon fill="midnightblue" stroke="midnightblue" points="1128.84,-24.65 1119.58,-19.51 1123.62,-29.3 1128.84,-24.65"/>
</g>
<!-- Node9&#45;&gt;Node2 -->
<g id="edge14" class="edge">
<title>Node9&#45;&gt;Node2</title>
<path fill="none" stroke="midnightblue" d="M961.23,-61.97C966.72,-59.99 972.56,-57.9 978,-56 1011.18,-44.42 1049.17,-31.71 1076.21,-22.76"/>
<polygon fill="midnightblue" stroke="midnightblue" points="1077.6,-25.99 1086,-19.53 1075.41,-19.34 1077.6,-25.99"/>
</g>
<!-- Node11&#45;&gt;Node2 -->
<g id="edge17" class="edge">
<title>Node11&#45;&gt;Node2</title>
<path fill="none" stroke="midnightblue" d="M1061.71,-128.81C1070.46,-108.31 1092.52,-56.65 1104.3,-29.04"/>
<polygon fill="midnightblue" stroke="midnightblue" points="1107.56,-30.33 1108.26,-19.76 1101.12,-27.58 1107.56,-30.33"/>
</g>
<!-- Node12 -->
<g id="node12" class="node">
<title>Node12</title>
<g id="a_node12"><a xlink:href="dvd_8h.html" target="_top" xlink:title=" ">
<polygon fill="white" stroke="black" points="986.5,-62 986.5,-81 1045.5,-81 1045.5,-62 986.5,-62"/>
<text text-anchor="middle" x="1016" y="-69" font-family="Helvetica,sans-Serif" font-size="10.00">dvd/dvd.h</text>
</a>
</g>
</g>
<!-- Node11&#45;&gt;Node12 -->
<g id="edge18" class="edge">
<title>Node11&#45;&gt;Node12</title>
<path fill="none" stroke="midnightblue" d="M1052.34,-128.73C1045.91,-118.79 1035.28,-102.34 1027.17,-89.79"/>
<polygon fill="midnightblue" stroke="midnightblue" points="1029.94,-87.63 1021.57,-81.13 1024.06,-91.43 1029.94,-87.63"/>
</g>
<!-- Node12&#45;&gt;Node2 -->
<g id="edge19" class="edge">
<title>Node12&#45;&gt;Node2</title>
<path fill="none" stroke="midnightblue" d="M1029.75,-61.98C1045.37,-52.3 1071.06,-36.37 1089.58,-24.89"/>
<polygon fill="midnightblue" stroke="midnightblue" points="1091.62,-27.75 1098.27,-19.51 1087.93,-21.8 1091.62,-27.75"/>
</g>
<!-- Node14&#45;&gt;Node7 -->
<g id="edge32" class="edge">
<title>Node14&#45;&gt;Node7</title>
<path fill="none" stroke="midnightblue" d="M849.68,-621.77C956.92,-616.46 1206.47,-601.79 1237,-579 1292.1,-537.88 1296,-504.75 1296,-436 1296,-436 1296,-436 1296,-322 1296,-219.54 1132.88,-203.21 1059.28,-201.05"/>
<polygon fill="midnightblue" stroke="midnightblue" points="1059.18,-197.55 1049.1,-200.83 1059.02,-204.55 1059.18,-197.55"/>
</g>
<!-- Node15 -->
<g id="node15" class="node">
<title>Node15</title>
<g id="a_node15"><a xlink:href="c__tag_8h.html" target="_top" xlink:title=" ">
<polygon fill="white" stroke="black" points="776.5,-425.5 776.5,-444.5 883.5,-444.5 883.5,-425.5 776.5,-425.5"/>
<text text-anchor="middle" x="830" y="-432.5" font-family="Helvetica,sans-Serif" font-size="10.00">SComponent/c_tag.h</text>
</a>
</g>
</g>
<!-- Node14&#45;&gt;Node15 -->
<g id="edge23" class="edge">
<title>Node14&#45;&gt;Node15</title>
<path fill="none" stroke="midnightblue" d="M802.32,-615.43C806.73,-586.87 820.99,-494.43 827.14,-454.57"/>
<polygon fill="midnightblue" stroke="midnightblue" points="830.61,-455.03 828.67,-444.62 823.69,-453.97 830.61,-455.03"/>
</g>
<!-- Node19 -->
<g id="node19" class="node">
<title>Node19</title>
<g id="a_node19"><a xlink:href="f__pc__delete__tag_8h.html" target="_top" xlink:title=" ">
<polygon fill="white" stroke="black" points="672.5,-548.5 672.5,-578.5 767.5,-578.5 767.5,-548.5 672.5,-548.5"/>
<text text-anchor="start" x="680.5" y="-566.5" font-family="Helvetica,sans-Serif" font-size="10.00">f/f_pc/f_pc_delete</text>
<text text-anchor="middle" x="720" y="-555.5" font-family="Helvetica,sans-Serif" font-size="10.00">_tag.h</text>
</a>
</g>
</g>
<!-- Node14&#45;&gt;Node19 -->
<g id="edge33" class="edge">
<title>Node14&#45;&gt;Node19</title>
<path fill="none" stroke="midnightblue" d="M789.39,-615.48C778.42,-607.42 761.55,-595.02 747.19,-584.47"/>
<polygon fill="midnightblue" stroke="midnightblue" points="749.22,-581.62 739.09,-578.52 745.08,-587.26 749.22,-581.62"/>
</g>
<!-- Node21 -->
<g id="node21" class="node">
<title>Node21</title>
<g id="a_node21"><a xlink:href="f__pc__layer__tag_8h.html" target="_top" xlink:title=" ">
<polygon fill="white" stroke="black" points="824.5,-554 824.5,-573 939.5,-573 939.5,-554 824.5,-554"/>
<text text-anchor="middle" x="882" y="-561" font-family="Helvetica,sans-Serif" font-size="10.00">f/f_pc/f_pc_layer_tag.h</text>
</a>
</g>
</g>
<!-- Node14&#45;&gt;Node21 -->
<g id="edge41" class="edge">
<title>Node14&#45;&gt;Node21</title>
<path fill="none" stroke="midnightblue" d="M812.61,-615.48C825.48,-606.02 846.47,-590.6 862.01,-579.19"/>
<polygon fill="midnightblue" stroke="midnightblue" points="864.43,-581.75 870.42,-573.01 860.28,-576.11 864.43,-581.75"/>
</g>
<!-- Node22 -->
<g id="node22" class="node">
<title>Node22</title>
<g id="a_node22"><a xlink:href="f__pc__line__tag_8h.html" target="_top" xlink:title=" ">
<polygon fill="white" stroke="black" points="506,-487 506,-506 616,-506 616,-487 506,-487"/>
<text text-anchor="middle" x="561" y="-494" font-family="Helvetica,sans-Serif" font-size="10.00">f/f_pc/f_pc_line_tag.h</text>
</a>
</g>
</g>
<!-- Node14&#45;&gt;Node22 -->
<g id="edge45" class="edge">
<title>Node14&#45;&gt;Node22</title>
<path fill="none" stroke="midnightblue" d="M762.61,-615.44C734.06,-608.14 694.72,-596.11 663,-579 629.31,-560.83 595.68,-531.16 576.69,-513.08"/>
<polygon fill="midnightblue" stroke="midnightblue" points="579.11,-510.55 569.5,-506.1 574.24,-515.58 579.11,-510.55"/>
</g>
<!-- Node23 -->
<g id="node23" class="node">
<title>Node23</title>
<g id="a_node23"><a xlink:href="f__pc__priority_8h.html" target="_top" xlink:title=" ">
<polygon fill="white" stroke="black" points="958,-554 958,-573 1062,-573 1062,-554 958,-554"/>
<text text-anchor="middle" x="1010" y="-561" font-family="Helvetica,sans-Serif" font-size="10.00">f/f_pc/f_pc_priority.h</text>
</a>
</g>
</g>
<!-- Node14&#45;&gt;Node23 -->
<g id="edge48" class="edge">
<title>Node14&#45;&gt;Node23</title>
<path fill="none" stroke="midnightblue" d="M830.94,-615.48C867.57,-605.05 929.7,-587.36 970.28,-575.81"/>
<polygon fill="midnightblue" stroke="midnightblue" points="971.45,-579.11 980.11,-573.01 969.53,-572.38 971.45,-579.11"/>
</g>
<!-- Node25 -->
<g id="node25" class="node">
<title>Node25</title>
<g id="a_node25"><a xlink:href="f__pc__profile_8h.html" target="_top" xlink:title=" ">
<polygon fill="white" stroke="black" points="1305.5,-554 1305.5,-573 1406.5,-573 1406.5,-554 1305.5,-554"/>
<text text-anchor="middle" x="1356" y="-561" font-family="Helvetica,sans-Serif" font-size="10.00">f/f_pc/f_pc_profile.h</text>
</a>
</g>
</g>
<!-- Node14&#45;&gt;Node25 -->
<g id="edge53" class="edge">
<title>Node14&#45;&gt;Node25</title>
<path fill="none" stroke="midnightblue" d="M849.59,-621.6C937.9,-616.79 1130.44,-604.18 1291,-579 1297.75,-577.94 1304.85,-576.6 1311.78,-575.16"/>
<polygon fill="midnightblue" stroke="midnightblue" points="1312.71,-578.54 1321.75,-573 1311.23,-571.7 1312.71,-578.54"/>
</g>
<!-- Node15&#45;&gt;Node7 -->
<g id="edge31" class="edge">
<title>Node15&#45;&gt;Node7</title>
<path fill="none" stroke="midnightblue" d="M851.73,-425.42C868.39,-417.92 891,-405.62 906,-389 952.9,-337.04 929.92,-301.94 972,-246 980.63,-234.52 992.64,-223.89 1002.94,-215.85"/>
<polygon fill="midnightblue" stroke="midnightblue" points="1005.18,-218.54 1011.08,-209.74 1000.98,-212.95 1005.18,-218.54"/>
</g>
<!-- Node16 -->
<g id="node16" class="node">
<title>Node16</title>
<g id="a_node16"><a xlink:href="c__list_8h.html" target="_top" xlink:title=" ">
<polygon fill="white" stroke="black" points="696.5,-313.5 696.5,-332.5 803.5,-332.5 803.5,-313.5 696.5,-313.5"/>
<text text-anchor="middle" x="750" y="-320.5" font-family="Helvetica,sans-Serif" font-size="10.00">SComponent/c_list.h</text>
</a>
</g>
</g>
<!-- Node15&#45;&gt;Node16 -->
<g id="edge24" class="edge">
<title>Node15&#45;&gt;Node16</title>
<path fill="none" stroke="midnightblue" d="M809.49,-425.49C794.27,-418.09 774.28,-405.9 763,-389 753.92,-375.39 750.91,-356.85 750.04,-343.05"/>
<polygon fill="midnightblue" stroke="midnightblue" points="753.53,-342.67 749.72,-332.79 746.53,-342.89 753.53,-342.67"/>
</g>
<!-- Node17 -->
<g id="node17" class="node">
<title>Node17</title>
<g id="a_node17"><a xlink:href="c__node_8h.html" target="_top" xlink:title=" ">
<polygon fill="white" stroke="black" points="733.5,-252 733.5,-271 848.5,-271 848.5,-252 733.5,-252"/>
<text text-anchor="middle" x="791" y="-259" font-family="Helvetica,sans-Serif" font-size="10.00">SComponent/c_node.h</text>
</a>
</g>
</g>
<!-- Node15&#45;&gt;Node17 -->
<g id="edge27" class="edge">
<title>Node15&#45;&gt;Node17</title>
<path fill="none" stroke="midnightblue" d="M849.91,-425.41C864.22,-418.04 882.46,-405.92 891,-389 895.01,-381.07 894.27,-377.26 891,-369 875.2,-329.09 836.6,-295.41 812.24,-277.16"/>
<polygon fill="midnightblue" stroke="midnightblue" points="814.12,-274.2 803.98,-271.15 810,-279.86 814.12,-274.2"/>
</g>
<!-- Node18 -->
<g id="node18" class="node">
<title>Node18</title>
<g id="a_node18"><a xlink:href="c__tree_8h.html" target="_top" xlink:title=" ">
<polygon fill="white" stroke="black" points="772,-369.5 772,-388.5 882,-388.5 882,-369.5 772,-369.5"/>
<text text-anchor="middle" x="827" y="-376.5" font-family="Helvetica,sans-Serif" font-size="10.00">SComponent/c_tree.h</text>
</a>
</g>
</g>
<!-- Node15&#45;&gt;Node18 -->
<g id="edge28" class="edge">
<title>Node15&#45;&gt;Node18</title>
<path fill="none" stroke="midnightblue" d="M829.5,-425.08C829.11,-418.01 828.55,-407.86 828.05,-398.99"/>
<polygon fill="midnightblue" stroke="midnightblue" points="831.54,-398.54 827.49,-388.75 824.55,-398.93 831.54,-398.54"/>
</g>
<!-- Node16&#45;&gt;Node17 -->
<g id="edge25" class="edge">
<title>Node16&#45;&gt;Node17</title>
<path fill="none" stroke="midnightblue" d="M755.87,-313.48C761.96,-304.64 771.64,-290.59 779.3,-279.48"/>
<polygon fill="midnightblue" stroke="midnightblue" points="782.34,-281.23 785.14,-271.01 776.58,-277.26 782.34,-281.23"/>
</g>
<!-- Node17&#45;&gt;Node7 -->
<g id="edge26" class="edge">
<title>Node17&#45;&gt;Node7</title>
<path fill="none" stroke="midnightblue" d="M824.38,-251.98C868.16,-240.8 944.61,-221.27 989.12,-209.91"/>
<polygon fill="midnightblue" stroke="midnightblue" points="990.08,-213.27 998.91,-207.41 988.35,-206.49 990.08,-213.27"/>
</g>
<!-- Node18&#45;&gt;Node16 -->
<g id="edge29" class="edge">
<title>Node18&#45;&gt;Node16</title>
<path fill="none" stroke="midnightblue" d="M814.63,-369.32C802.84,-361.06 784.87,-348.45 770.86,-338.63"/>
<polygon fill="midnightblue" stroke="midnightblue" points="772.54,-335.53 762.34,-332.65 768.52,-341.26 772.54,-335.53"/>
</g>
<!-- Node18&#45;&gt;Node17 -->
<g id="edge30" class="edge">
<title>Node18&#45;&gt;Node17</title>
<path fill="none" stroke="midnightblue" d="M825.5,-369.46C823.2,-356.92 818.37,-332.85 812,-313 808.46,-301.98 803.53,-290 799.34,-280.48"/>
<polygon fill="midnightblue" stroke="midnightblue" points="802.48,-278.94 795.18,-271.27 796.11,-281.83 802.48,-278.94"/>
</g>
<!-- Node19&#45;&gt;Node7 -->
<g id="edge40" class="edge">
<title>Node19&#45;&gt;Node7</title>
<path fill="none" stroke="midnightblue" d="M767.77,-554.71C847.79,-541.58 1000.67,-516.04 1005,-512 1030.46,-488.25 1024,-470.82 1024,-436 1024,-436 1024,-436 1024,-322 1024,-285.71 1024,-243.31 1024,-219.56"/>
<polygon fill="midnightblue" stroke="midnightblue" points="1027.5,-219.51 1024,-209.51 1020.5,-219.51 1027.5,-219.51"/>
</g>
<!-- Node19&#45;&gt;Node15 -->
<g id="edge34" class="edge">
<title>Node19&#45;&gt;Node15</title>
<path fill="none" stroke="midnightblue" d="M729.64,-548.39C741.3,-531.68 761.87,-503.31 782,-481 791.47,-470.5 803,-459.64 812.39,-451.22"/>
<polygon fill="midnightblue" stroke="midnightblue" points="814.8,-453.76 819.98,-444.51 810.16,-448.51 814.8,-453.76"/>
</g>
<!-- Node19&#45;&gt;Node20 -->
<g id="edge35" class="edge">
<title>Node19&#45;&gt;Node20</title>
<path fill="none" stroke="midnightblue" d="M711.75,-548.4C706.01,-538.56 698.3,-525.38 692.17,-514.89"/>
<polygon fill="midnightblue" stroke="midnightblue" points="695.15,-513.06 687.08,-506.19 689.11,-516.59 695.15,-513.06"/>
</g>
<!-- Node20&#45;&gt;Node7 -->
<g id="edge39" class="edge">
<title>Node20&#45;&gt;Node7</title>
<path fill="none" stroke="midnightblue" d="M668.33,-486.87C643.15,-469.8 592,-429.06 592,-380 592,-380 592,-380 592,-322 592,-239.82 885.56,-210.9 988.69,-203.28"/>
<polygon fill="midnightblue" stroke="midnightblue" points="989.18,-206.76 998.91,-202.55 988.68,-199.77 989.18,-206.76"/>
</g>
<!-- Node20&#45;&gt;Node15 -->
<g id="edge37" class="edge">
<title>Node20&#45;&gt;Node15</title>
<path fill="none" stroke="midnightblue" d="M703.2,-486.98C728.37,-476.86 770.54,-459.9 799.28,-448.35"/>
<polygon fill="midnightblue" stroke="midnightblue" points="800.86,-451.49 808.83,-444.51 798.25,-444.99 800.86,-451.49"/>
</g>
<!-- Node20&#45;&gt;Node17 -->
<g id="edge36" class="edge">
<title>Node20&#45;&gt;Node17</title>
<path fill="none" stroke="midnightblue" d="M679.39,-486.98C671.44,-459.23 650.22,-369.99 687,-313 699.31,-293.93 721.04,-281.85 741.46,-274.31"/>
<polygon fill="midnightblue" stroke="midnightblue" points="742.68,-277.59 751.03,-271.06 740.43,-270.96 742.68,-277.59"/>
</g>
<!-- Node20&#45;&gt;Node18 -->
<g id="edge38" class="edge">
<title>Node20&#45;&gt;Node18</title>
<path fill="none" stroke="midnightblue" d="M692.23,-486.92C708.25,-473.52 740.29,-446.92 768,-425 781.04,-414.68 795.94,-403.33 807.49,-394.61"/>
<polygon fill="midnightblue" stroke="midnightblue" points="809.71,-397.32 815.6,-388.51 805.5,-391.72 809.71,-397.32"/>
</g>
<!-- Node21&#45;&gt;Node7 -->
<g id="edge44" class="edge">
<title>Node21&#45;&gt;Node7</title>
<path fill="none" stroke="midnightblue" d="M921.96,-553.95C962.52,-544.53 1021.6,-528.51 1038,-512 1062.96,-486.86 1062,-471.42 1062,-436 1062,-436 1062,-436 1062,-322 1062,-283.81 1044.56,-241.83 1033.31,-218.72"/>
<polygon fill="midnightblue" stroke="midnightblue" points="1036.29,-216.86 1028.66,-209.52 1030.04,-220.02 1036.29,-216.86"/>
</g>
<!-- Node21&#45;&gt;Node15 -->
<g id="edge42" class="edge">
<title>Node21&#45;&gt;Node15</title>
<path fill="none" stroke="midnightblue" d="M877.5,-553.67C872.49,-543.68 864.25,-526.85 858,-512 849.84,-492.6 841.65,-469.91 836.25,-454.4"/>
<polygon fill="midnightblue" stroke="midnightblue" points="839.42,-452.85 832.86,-444.53 832.8,-455.13 839.42,-452.85"/>
</g>
<!-- Node21&#45;&gt;Node20 -->
<g id="edge43" class="edge">
<title>Node21&#45;&gt;Node20</title>
<path fill="none" stroke="midnightblue" d="M855.44,-553.87C820.08,-542.38 757.41,-522.01 717.87,-509.16"/>
<polygon fill="midnightblue" stroke="midnightblue" points="718.94,-505.83 708.35,-506.06 716.78,-512.48 718.94,-505.83"/>
</g>
<!-- Node22&#45;&gt;Node7 -->
<g id="edge47" class="edge">
<title>Node22&#45;&gt;Node7</title>
<path fill="none" stroke="midnightblue" d="M560.11,-486.82C558.23,-467.59 554,-419.98 554,-380 554,-380 554,-380 554,-322 554,-275.78 583.7,-266.76 625,-246 688.39,-214.13 903.21,-204.49 988.59,-201.88"/>
<polygon fill="midnightblue" stroke="midnightblue" points="988.92,-205.37 998.81,-201.58 988.72,-198.37 988.92,-205.37"/>
</g>
<!-- Node22&#45;&gt;Node15 -->
<g id="edge46" class="edge">
<title>Node22&#45;&gt;Node15</title>
<path fill="none" stroke="midnightblue" d="M598.55,-486.95C607.24,-484.98 616.44,-482.91 625,-481 678.22,-469.13 739.28,-455.76 780.82,-446.7"/>
<polygon fill="midnightblue" stroke="midnightblue" points="781.66,-450.1 790.68,-444.55 780.17,-443.26 781.66,-450.1"/>
</g>
<!-- Node23&#45;&gt;Node15 -->
<g id="edge49" class="edge">
<title>Node23&#45;&gt;Node15</title>
<path fill="none" stroke="midnightblue" d="M979.54,-553.96C954.38,-545.9 918.61,-532.04 892,-512 870.4,-495.73 851.73,-470.39 840.68,-453.51"/>
<polygon fill="midnightblue" stroke="midnightblue" points="843.39,-451.25 835.08,-444.67 837.48,-454.99 843.39,-451.25"/>
</g>
<!-- Node24 -->
<g id="node24" class="node">
<title>Node24</title>
<g id="a_node24"><a xlink:href="f__pc__method__tag_8h.html" target="_top" xlink:title=" ">
<polygon fill="white" stroke="black" points="1090.5,-481.5 1090.5,-511.5 1191.5,-511.5 1191.5,-481.5 1090.5,-481.5"/>
<text text-anchor="start" x="1098.5" y="-499.5" font-family="Helvetica,sans-Serif" font-size="10.00">f/f_pc/f_pc_method</text>
<text text-anchor="middle" x="1141" y="-488.5" font-family="Helvetica,sans-Serif" font-size="10.00">_tag.h</text>
</a>
</g>
</g>
<!-- Node23&#45;&gt;Node24 -->
<g id="edge50" class="edge">
<title>Node23&#45;&gt;Node24</title>
<path fill="none" stroke="midnightblue" d="M1027.4,-553.87C1046.65,-544.31 1078.27,-528.63 1103.26,-516.22"/>
<polygon fill="midnightblue" stroke="midnightblue" points="1105.08,-519.23 1112.48,-511.65 1101.97,-512.96 1105.08,-519.23"/>
</g>
<!-- Node24&#45;&gt;Node7 -->
<g id="edge52" class="edge">
<title>Node24&#45;&gt;Node7</title>
<path fill="none" stroke="midnightblue" d="M1136.75,-481.43C1130.61,-459.82 1120,-417.09 1120,-380 1120,-380 1120,-380 1120,-322 1120,-275.06 1075.11,-235.74 1046.72,-215.56"/>
<polygon fill="midnightblue" stroke="midnightblue" points="1048.39,-212.46 1038.17,-209.7 1044.44,-218.24 1048.39,-212.46"/>
</g>
<!-- Node24&#45;&gt;Node15 -->
<g id="edge51" class="edge">
<title>Node24&#45;&gt;Node15</title>
<path fill="none" stroke="midnightblue" d="M1090.34,-485.81C1033.84,-475 942.76,-457.57 884.68,-446.46"/>
<polygon fill="midnightblue" stroke="midnightblue" points="885.06,-442.97 874.58,-444.53 883.75,-449.85 885.06,-442.97"/>
</g>
<!-- Node25&#45;&gt;Node7 -->
<g id="edge56" class="edge">
<title>Node25&#45;&gt;Node7</title>
<path fill="none" stroke="midnightblue" d="M1353.48,-554C1347.7,-533.76 1334,-481.03 1334,-436 1334,-436 1334,-436 1334,-322 1334,-286.58 1336.85,-269.1 1310,-246 1273.02,-214.18 1127.68,-204.74 1059.58,-202.04"/>
<polygon fill="midnightblue" stroke="midnightblue" points="1059.46,-198.53 1049.34,-201.66 1059.2,-205.53 1059.46,-198.53"/>
</g>
<!-- Node25&#45;&gt;Node26 -->
<g id="edge54" class="edge">
<title>Node25&#45;&gt;Node26</title>
<path fill="none" stroke="midnightblue" d="M1364.09,-553.73C1373.54,-543.5 1389.36,-526.36 1401.05,-513.69"/>
<polygon fill="midnightblue" stroke="midnightblue" points="1403.83,-515.85 1408.04,-506.13 1398.68,-511.1 1403.83,-515.85"/>
</g>
<!-- Node26&#45;&gt;Node7 -->
<g id="edge55" class="edge">
<title>Node26&#45;&gt;Node7</title>
<path fill="none" stroke="midnightblue" d="M1410.25,-486.94C1398.32,-468.34 1372,-422.49 1372,-380 1372,-380 1372,-380 1372,-322 1372,-286.58 1375.06,-268.86 1348,-246 1305,-209.67 1134.29,-202.62 1059.46,-201.29"/>
<polygon fill="midnightblue" stroke="midnightblue" points="1059.19,-197.79 1049.14,-201.13 1059.09,-204.79 1059.19,-197.79"/>
</g>
<!-- Node27&#45;&gt;Node7 -->
<g id="edge70" class="edge">
<title>Node27&#45;&gt;Node7</title>
<path fill="none" stroke="midnightblue" d="M377.37,-561.16C301.18,-557.22 164.73,-541.73 209,-481 239.8,-438.75 278.14,-474.95 321,-445 412.89,-380.77 377.38,-299.3 476,-246 520.95,-221.71 873.99,-206.57 988.37,-202.27"/>
<polygon fill="midnightblue" stroke="midnightblue" points="988.81,-205.76 998.67,-201.89 988.55,-198.76 988.81,-205.76"/>
</g>
<!-- Node28 -->
<g id="node28" class="node">
<title>Node28</title>
<g id="a_node28"><a xlink:href="c__list__iter_8h.html" target="_top" xlink:title=" ">
<polygon fill="white" stroke="black" points="218.5,-487 218.5,-506 343.5,-506 343.5,-487 218.5,-487"/>
<text text-anchor="middle" x="281" y="-494" font-family="Helvetica,sans-Serif" font-size="10.00">SComponent/c_list_iter.h</text>
</a>
</g>
</g>
<!-- Node27&#45;&gt;Node28 -->
<g id="edge58" class="edge">
<title>Node27&#45;&gt;Node28</title>
<path fill="none" stroke="midnightblue" d="M393.75,-548.4C368.6,-537.04 333.55,-521.22 309.23,-510.24"/>
<polygon fill="midnightblue" stroke="midnightblue" points="310.4,-506.93 299.85,-506.01 307.52,-513.31 310.4,-506.93"/>
</g>
<!-- Node30 -->
<g id="node30" class="node">
<title>Node30</title>
<g id="a_node30"><a xlink:href="c__tag__iter_8h.html" target="_top" xlink:title=" ">
<polygon fill="white" stroke="black" points="362,-487 362,-506 488,-506 488,-487 362,-487"/>
<text text-anchor="middle" x="425" y="-494" font-family="Helvetica,sans-Serif" font-size="10.00">SComponent/c_tag_iter.h</text>
</a>
</g>
</g>
<!-- Node27&#45;&gt;Node30 -->
<g id="edge63" class="edge">
<title>Node27&#45;&gt;Node30</title>
<path fill="none" stroke="midnightblue" d="M425,-548.4C425,-539.06 425,-526.71 425,-516.52"/>
<polygon fill="midnightblue" stroke="midnightblue" points="428.5,-516.19 425,-506.19 421.5,-516.19 428.5,-516.19"/>
</g>
<!-- Node31 -->
<g id="node31" class="node">
<title>Node31</title>
<g id="a_node31"><a xlink:href="f__pc__create__tag_8h.html" target="_top" xlink:title=" ">
<polygon fill="white" stroke="black" points="900.5,-481.5 900.5,-511.5 995.5,-511.5 995.5,-481.5 900.5,-481.5"/>
<text text-anchor="start" x="908.5" y="-499.5" font-family="Helvetica,sans-Serif" font-size="10.00">f/f_pc/f_pc_create</text>
<text text-anchor="middle" x="948" y="-488.5" font-family="Helvetica,sans-Serif" font-size="10.00">_tag.h</text>
</a>
</g>
</g>
<!-- Node27&#45;&gt;Node31 -->
<g id="edge67" class="edge">
<title>Node27&#45;&gt;Node31</title>
<path fill="none" stroke="midnightblue" d="M472.8,-556.56C569.07,-544.59 786,-517.63 890.11,-504.7"/>
<polygon fill="midnightblue" stroke="midnightblue" points="890.63,-508.16 900.12,-503.45 889.77,-501.21 890.63,-508.16"/>
</g>
<!-- Node28&#45;&gt;Node7 -->
<g id="edge62" class="edge">
<title>Node28&#45;&gt;Node7</title>
<path fill="none" stroke="midnightblue" d="M328.86,-486.97C383.38,-474.19 465,-444.31 465,-380 465,-380 465,-380 465,-322 465,-279.78 485.12,-266.55 522,-246 602.2,-201.31 888.25,-199.65 988.76,-200.5"/>
<polygon fill="midnightblue" stroke="midnightblue" points="988.96,-204.01 998.99,-200.6 989.03,-197.01 988.96,-204.01"/>
</g>
<!-- Node28&#45;&gt;Node16 -->
<g id="edge59" class="edge">
<title>Node28&#45;&gt;Node16</title>
<path fill="none" stroke="midnightblue" d="M322.94,-486.98C363.45,-478.24 426.23,-463.36 479,-445 572.1,-412.61 677.41,-361.05 724.67,-337.07"/>
<polygon fill="midnightblue" stroke="midnightblue" points="726.27,-340.18 733.59,-332.52 723.09,-333.94 726.27,-340.18"/>
</g>
<!-- Node29 -->
<g id="node29" class="node">
<title>Node29</title>
<g id="a_node29"><a xlink:href="c__node__iter_8h.html" target="_top" xlink:title=" ">
<polygon fill="white" stroke="black" points="178,-425.5 178,-444.5 312,-444.5 312,-425.5 178,-425.5"/>
<text text-anchor="middle" x="245" y="-432.5" font-family="Helvetica,sans-Serif" font-size="10.00">SComponent/c_node_iter.h</text>
</a>
</g>
</g>
<!-- Node28&#45;&gt;Node29 -->
<g id="edge60" class="edge">
<title>Node28&#45;&gt;Node29</title>
<path fill="none" stroke="midnightblue" d="M275.84,-486.98C270.55,-478.23 262.16,-464.37 255.47,-453.31"/>
<polygon fill="midnightblue" stroke="midnightblue" points="258.32,-451.25 250.15,-444.51 252.33,-454.88 258.32,-451.25"/>
</g>
<!-- Node29&#45;&gt;Node17 -->
<g id="edge61" class="edge">
<title>Node29&#45;&gt;Node17</title>
<path fill="none" stroke="midnightblue" d="M272.08,-425.5C362.04,-397.24 651.08,-306.45 754.1,-274.09"/>
<polygon fill="midnightblue" stroke="midnightblue" points="755.27,-277.39 763.76,-271.06 753.17,-270.71 755.27,-277.39"/>
</g>
<!-- Node30&#45;&gt;Node7 -->
<g id="edge66" class="edge">
<title>Node30&#45;&gt;Node7</title>
<path fill="none" stroke="midnightblue" d="M437.54,-486.96C461.19,-469.72 510,-428.3 510,-380 510,-380 510,-380 510,-322 510,-279.24 531.57,-266.67 569,-246 641.01,-206.23 894.66,-201.36 988.63,-200.95"/>
<polygon fill="midnightblue" stroke="midnightblue" points="988.78,-204.45 998.77,-200.92 988.76,-197.45 988.78,-204.45"/>
</g>
<!-- Node30&#45;&gt;Node15 -->
<g id="edge65" class="edge">
<title>Node30&#45;&gt;Node15</title>
<path fill="none" stroke="midnightblue" d="M464.9,-486.99C475.33,-484.9 486.56,-482.75 497,-481 590.44,-465.29 699.35,-451.4 766.49,-443.35"/>
<polygon fill="midnightblue" stroke="midnightblue" points="766.98,-446.81 776.49,-442.15 766.15,-439.86 766.98,-446.81"/>
</g>
<!-- Node30&#45;&gt;Node29 -->
<g id="edge64" class="edge">
<title>Node30&#45;&gt;Node29</title>
<path fill="none" stroke="midnightblue" d="M399.21,-486.98C368.07,-476.68 315.52,-459.31 280.55,-447.75"/>
<polygon fill="midnightblue" stroke="midnightblue" points="281.34,-444.32 270.74,-444.51 279.14,-450.97 281.34,-444.32"/>
</g>
<!-- Node31&#45;&gt;Node7 -->
<g id="edge69" class="edge">
<title>Node31&#45;&gt;Node7</title>
<path fill="none" stroke="midnightblue" d="M955.87,-481.41C967,-460.13 986,-418.21 986,-380 986,-380 986,-380 986,-322 986,-283.81 1003.44,-241.83 1014.69,-218.72"/>
<polygon fill="midnightblue" stroke="midnightblue" points="1017.96,-220.02 1019.34,-209.52 1011.71,-216.86 1017.96,-220.02"/>
</g>
<!-- Node31&#45;&gt;Node15 -->
<g id="edge68" class="edge">
<title>Node31&#45;&gt;Node15</title>
<path fill="none" stroke="midnightblue" d="M920.04,-481.4C900.68,-471.64 875.09,-458.74 856.14,-449.18"/>
<polygon fill="midnightblue" stroke="midnightblue" points="857.67,-446.04 847.17,-444.66 854.52,-452.29 857.67,-446.04"/>
</g>
<!-- Node32&#45;&gt;Node7 -->
<g id="edge78" class="edge">
<title>Node32&#45;&gt;Node7</title>
<path fill="none" stroke="midnightblue" d="M1196.16,-548.31C1219.01,-526.6 1258,-482.7 1258,-436 1258,-436 1258,-436 1258,-322 1258,-233.62 1124.67,-209.72 1059.29,-203.32"/>
<polygon fill="midnightblue" stroke="midnightblue" points="1059.31,-199.8 1049.04,-202.4 1058.69,-206.78 1059.31,-199.8"/>
</g>
<!-- Node32&#45;&gt;Node13 -->
<g id="edge72" class="edge">
<title>Node32&#45;&gt;Node13</title>
<path fill="none" stroke="midnightblue" d="M1227.75,-555.04C1286.86,-545.66 1390.55,-528.76 1479,-512 1485.31,-510.8 1491.94,-509.49 1498.49,-508.15"/>
<polygon fill="midnightblue" stroke="midnightblue" points="1499.56,-511.5 1508.65,-506.05 1498.14,-504.65 1499.56,-511.5"/>
</g>
<!-- Node32&#45;&gt;Node15 -->
<g id="edge73" class="edge">
<title>Node32&#45;&gt;Node15</title>
<path fill="none" stroke="midnightblue" d="M1190.48,-548.32C1202.28,-530.49 1217.76,-499.92 1201,-481 1181.01,-458.43 994.48,-444.92 893.78,-439.2"/>
<polygon fill="midnightblue" stroke="midnightblue" points="893.89,-435.7 883.71,-438.64 893.5,-442.69 893.89,-435.7"/>
</g>
<!-- Node32&#45;&gt;Node20 -->
<g id="edge75" class="edge">
<title>Node32&#45;&gt;Node20</title>
<path fill="none" stroke="midnightblue" d="M1132.25,-556.12C1113.2,-553.58 1091.06,-550.64 1071,-548 953.79,-532.6 816.68,-514.86 740.55,-505.04"/>
<polygon fill="midnightblue" stroke="midnightblue" points="740.58,-501.52 730.22,-503.71 739.69,-508.46 740.58,-501.52"/>
</g>
<!-- Node32&#45;&gt;Node24 -->
<g id="edge77" class="edge">
<title>Node32&#45;&gt;Node24</title>
<path fill="none" stroke="midnightblue" d="M1171.54,-548.4C1166.63,-540.22 1160.34,-529.73 1154.74,-520.39"/>
<polygon fill="midnightblue" stroke="midnightblue" points="1157.59,-518.35 1149.45,-511.58 1151.59,-521.95 1157.59,-518.35"/>
</g>
<!-- Node32&#45;&gt;Node26 -->
<g id="edge76" class="edge">
<title>Node32&#45;&gt;Node26</title>
<path fill="none" stroke="midnightblue" d="M1227.76,-549.35C1271.06,-537.42 1334.2,-520.03 1375.19,-508.74"/>
<polygon fill="midnightblue" stroke="midnightblue" points="1376.15,-512.11 1384.86,-506.08 1374.29,-505.36 1376.15,-512.11"/>
</g>
<!-- Node32&#45;&gt;Node31 -->
<g id="edge74" class="edge">
<title>Node32&#45;&gt;Node31</title>
<path fill="none" stroke="midnightblue" d="M1132.49,-549.19C1095.71,-538.88 1044.6,-524.57 1005.51,-513.61"/>
<polygon fill="midnightblue" stroke="midnightblue" points="1006.42,-510.23 995.84,-510.9 1004.53,-516.97 1006.42,-510.23"/>
</g>
<!-- Node33&#45;&gt;Node14 -->
<g id="edge80" class="edge">
<title>Node33&#45;&gt;Node14</title>
<path fill="none" stroke="midnightblue" d="M769.27,-671.08C774.64,-663.46 782.52,-652.26 789.08,-642.94"/>
<polygon fill="midnightblue" stroke="midnightblue" points="791.95,-644.94 794.84,-634.75 786.22,-640.91 791.95,-644.94"/>
</g>
<!-- Node34&#45;&gt;Node14 -->
<g id="edge83" class="edge">
<title>Node34&#45;&gt;Node14</title>
<path fill="none" stroke="midnightblue" d="M260.7,-674.87C374,-664.62 627.31,-641.71 742.26,-631.31"/>
<polygon fill="midnightblue" stroke="midnightblue" points="742.64,-634.79 752.28,-630.41 742.01,-627.82 742.64,-634.79"/>
</g>
<!-- Node34&#45;&gt;Node29 -->
<g id="edge82" class="edge">
<title>Node34&#45;&gt;Node29</title>
<path fill="none" stroke="midnightblue" d="M147.22,-678.3C115.22,-674.06 77.63,-662.89 57,-635 51.71,-627.85 54.78,-623.61 57,-615 73.98,-549.12 79.9,-525.92 131,-481 149.16,-465.04 173.65,-454.38 195.27,-447.47"/>
<polygon fill="midnightblue" stroke="midnightblue" points="196.41,-450.78 204.98,-444.55 194.39,-444.08 196.41,-450.78"/>
</g>
<!-- Node35 -->
<g id="node35" class="node">
<title>Node35</title>
<g id="a_node35"><a xlink:href="f__pc__layer__iter_8h.html" target="_top" xlink:title=" ">
<polygon fill="white" stroke="black" points="125.5,-554 125.5,-573 240.5,-573 240.5,-554 125.5,-554"/>
<text text-anchor="middle" x="183" y="-561" font-family="Helvetica,sans-Serif" font-size="10.00">f/f_pc/f_pc_layer_iter.h</text>
</a>
</g>
</g>
<!-- Node34&#45;&gt;Node35 -->
<g id="edge84" class="edge">
<title>Node34&#45;&gt;Node35</title>
<path fill="none" stroke="midnightblue" d="M202.42,-671.32C199.03,-652.67 190.99,-608.44 186.39,-583.13"/>
<polygon fill="midnightblue" stroke="midnightblue" points="189.83,-582.49 184.6,-573.28 182.94,-583.75 189.83,-582.49"/>
</g>
<!-- Node36 -->
<g id="node36" class="node">
<title>Node36</title>
<g id="a_node36"><a xlink:href="f__pc__line__iter_8h.html" target="_top" xlink:title=" ">
<polygon fill="white" stroke="black" points="66,-615.5 66,-634.5 176,-634.5 176,-615.5 66,-615.5"/>
<text text-anchor="middle" x="121" y="-622.5" font-family="Helvetica,sans-Serif" font-size="10.00">f/f_pc/f_pc_line_iter.h</text>
</a>
</g>
</g>
<!-- Node34&#45;&gt;Node36 -->
<g id="edge88" class="edge">
<title>Node34&#45;&gt;Node36</title>
<path fill="none" stroke="midnightblue" d="M190.66,-671.32C177.84,-662.98 158.22,-650.21 143.06,-640.35"/>
<polygon fill="midnightblue" stroke="midnightblue" points="144.59,-637.17 134.3,-634.65 140.78,-643.04 144.59,-637.17"/>
</g>
<!-- Node35&#45;&gt;Node7 -->
<g id="edge87" class="edge">
<title>Node35&#45;&gt;Node7</title>
<path fill="none" stroke="midnightblue" d="M174.26,-553.88C155.69,-534.61 114,-485.78 114,-436 114,-436 114,-436 114,-322 114,-232.09 821.09,-206.67 988.69,-201.91"/>
<polygon fill="midnightblue" stroke="midnightblue" points="988.81,-205.41 998.71,-201.63 988.62,-198.41 988.81,-205.41"/>
</g>
<!-- Node35&#45;&gt;Node20 -->
<g id="edge86" class="edge">
<title>Node35&#45;&gt;Node20</title>
<path fill="none" stroke="midnightblue" d="M240.58,-558.42C325.29,-551.86 488.26,-537.09 625,-512 630.46,-511 636.17,-509.77 641.78,-508.45"/>
<polygon fill="midnightblue" stroke="midnightblue" points="642.82,-511.8 651.7,-506.02 641.15,-505 642.82,-511.8"/>
</g>
<!-- Node35&#45;&gt;Node29 -->
<g id="edge85" class="edge">
<title>Node35&#45;&gt;Node29</title>
<path fill="none" stroke="midnightblue" d="M179.28,-553.77C173.23,-538.13 163.15,-504.73 176,-481 183.75,-466.7 198.23,-456.22 211.94,-448.99"/>
<polygon fill="midnightblue" stroke="midnightblue" points="213.74,-452.01 221.21,-444.5 210.69,-445.71 213.74,-452.01"/>
</g>
<!-- Node36&#45;&gt;Node29 -->
<g id="edge89" class="edge">
<title>Node36&#45;&gt;Node29</title>
<path fill="none" stroke="midnightblue" d="M118.34,-615.3C114.4,-600.88 108.25,-571.34 116,-548 127.71,-512.74 138.16,-505.6 166,-481 180.79,-467.93 199.98,-456.89 215.74,-449.02"/>
<polygon fill="midnightblue" stroke="midnightblue" points="217.56,-452.03 225.05,-444.54 214.52,-445.72 217.56,-452.03"/>
</g>
</g>
</svg>
