<?xml version="1.0" encoding="UTF-8" standalone="no"?>
<!DOCTYPE svg PUBLIC "-//W3C//DTD SVG 1.1//EN"
 "http://www.w3.org/Graphics/SVG/1.1/DTD/svg11.dtd">
<!-- Generated by graphviz version 2.44.0 ()
 -->
<!-- Title: src/f/f_pc/f_pc_layer_tag.cpp Pages: 1 -->
<svg width="364pt" height="599pt"
 viewBox="0.00 0.00 364.00 599.00" xmlns="http://www.w3.org/2000/svg" xmlns:xlink="http://www.w3.org/1999/xlink">
<g id="graph0" class="graph" transform="scale(1 1) rotate(0) translate(4 595)">
<title>src/f/f_pc/f_pc_layer_tag.cpp</title>
<polygon fill="white" stroke="transparent" points="-4,4 -4,-595 360,-595 360,4 -4,4"/>
<!-- Node1 -->
<g id="node1" class="node">
<title>Node1</title>
<g id="a_node1"><a xlink:title=" ">
<polygon fill="#bfbfbf" stroke="black" points="96.5,-560.5 96.5,-590.5 201.5,-590.5 201.5,-560.5 96.5,-560.5"/>
<text text-anchor="start" x="104.5" y="-578.5" font-family="Helvetica,sans-Serif" font-size="10.00">src/f/f_pc/f_pc_layer</text>
<text text-anchor="middle" x="149" y="-567.5" font-family="Helvetica,sans-Serif" font-size="10.00">_tag.cpp</text>
</a>
</g>
</g>
<!-- Node2 -->
<g id="node2" class="node">
<title>Node2</title>
<g id="a_node2"><a xlink:href="f__pc__layer__tag_8h.html" target="_top" xlink:title=" ">
<polygon fill="white" stroke="black" points="91.5,-504.5 91.5,-523.5 206.5,-523.5 206.5,-504.5 91.5,-504.5"/>
<text text-anchor="middle" x="149" y="-511.5" font-family="Helvetica,sans-Serif" font-size="10.00">f/f_pc/f_pc_layer_tag.h</text>
</a>
</g>
</g>
<!-- Node1&#45;&gt;Node2 -->
<g id="edge1" class="edge">
<title>Node1&#45;&gt;Node2</title>
<path fill="none" stroke="midnightblue" d="M149,-560.4C149,-552.47 149,-542.46 149,-533.86"/>
<polygon fill="midnightblue" stroke="midnightblue" points="152.5,-533.66 149,-523.66 145.5,-533.66 152.5,-533.66"/>
</g>
<!-- Node7 -->
<g id="node7" class="node">
<title>Node7</title>
<g id="a_node7"><a xlink:href="types_8h.html" target="_top" xlink:title=" ">
<polygon fill="white" stroke="black" points="85.5,-0.5 85.5,-19.5 166.5,-19.5 166.5,-0.5 85.5,-0.5"/>
<text text-anchor="middle" x="126" y="-7.5" font-family="Helvetica,sans-Serif" font-size="10.00">dolphin/types.h</text>
</a>
</g>
</g>
<!-- Node1&#45;&gt;Node7 -->
<g id="edge27" class="edge">
<title>Node1&#45;&gt;Node7</title>
<path fill="none" stroke="midnightblue" d="M102.67,-560.36C58.93,-543.79 0,-511.7 0,-459 0,-459 0,-459 0,-121 0,-71.95 54.85,-39.74 92.17,-23.5"/>
<polygon fill="midnightblue" stroke="midnightblue" points="93.82,-26.61 101.71,-19.53 91.13,-20.14 93.82,-26.61"/>
</g>
<!-- Node14 -->
<g id="node14" class="node">
<title>Node14</title>
<g id="a_node14"><a xlink:href="f__pc__layer_8h.html" target="_top" xlink:title=" ">
<polygon fill="white" stroke="black" points="187,-448.5 187,-467.5 283,-467.5 283,-448.5 187,-448.5"/>
<text text-anchor="middle" x="235" y="-455.5" font-family="Helvetica,sans-Serif" font-size="10.00">f/f_pc/f_pc_layer.h</text>
</a>
</g>
</g>
<!-- Node1&#45;&gt;Node14 -->
<g id="edge28" class="edge">
<title>Node1&#45;&gt;Node14</title>
<path fill="none" stroke="midnightblue" d="M175.21,-560.34C189.17,-551.57 205.57,-539.1 216,-524 225.5,-510.25 230.31,-491.72 232.71,-477.96"/>
<polygon fill="midnightblue" stroke="midnightblue" points="236.22,-478.14 234.2,-467.74 229.29,-477.13 236.22,-478.14"/>
</g>
<!-- Node3 -->
<g id="node3" class="node">
<title>Node3</title>
<g id="a_node3"><a xlink:href="c__tag_8h.html" target="_top" xlink:title=" ">
<polygon fill="white" stroke="black" points="97.5,-392.5 97.5,-411.5 204.5,-411.5 204.5,-392.5 97.5,-392.5"/>
<text text-anchor="middle" x="151" y="-399.5" font-family="Helvetica,sans-Serif" font-size="10.00">SComponent/c_tag.h</text>
</a>
</g>
</g>
<!-- Node2&#45;&gt;Node3 -->
<g id="edge2" class="edge">
<title>Node2&#45;&gt;Node3</title>
<path fill="none" stroke="midnightblue" d="M149.16,-504.37C149.48,-486.62 150.22,-445.67 150.66,-421.6"/>
<polygon fill="midnightblue" stroke="midnightblue" points="154.16,-421.65 150.84,-411.59 147.16,-421.53 154.16,-421.65"/>
</g>
<!-- Node6 -->
<g id="node6" class="node">
<title>Node6</title>
<g id="a_node6"><a xlink:href="global_8h.html" target="_top" xlink:title=" ">
<polygon fill="white" stroke="black" points="137,-168.5 137,-187.5 187,-187.5 187,-168.5 137,-168.5"/>
<text text-anchor="middle" x="162" y="-175.5" font-family="Helvetica,sans-Serif" font-size="10.00">global.h</text>
</a>
</g>
</g>
<!-- Node2&#45;&gt;Node6 -->
<g id="edge26" class="edge">
<title>Node2&#45;&gt;Node6</title>
<path fill="none" stroke="midnightblue" d="M129.16,-504.39C97.23,-489.04 38,-453.73 38,-403 38,-403 38,-403 38,-289 38,-240.26 92.27,-207.87 129.01,-191.52"/>
<polygon fill="midnightblue" stroke="midnightblue" points="130.56,-194.67 138.38,-187.52 127.81,-188.23 130.56,-194.67"/>
</g>
<!-- Node2&#45;&gt;Node14 -->
<g id="edge21" class="edge">
<title>Node2&#45;&gt;Node14</title>
<path fill="none" stroke="midnightblue" d="M162.82,-504.32C176.23,-495.9 196.82,-482.97 212.59,-473.07"/>
<polygon fill="midnightblue" stroke="midnightblue" points="214.61,-475.94 221.22,-467.65 210.89,-470.01 214.61,-475.94"/>
</g>
<!-- Node4 -->
<g id="node4" class="node">
<title>Node4</title>
<g id="a_node4"><a xlink:href="c__list_8h.html" target="_top" xlink:title=" ">
<polygon fill="white" stroke="black" points="142.5,-280.5 142.5,-299.5 249.5,-299.5 249.5,-280.5 142.5,-280.5"/>
<text text-anchor="middle" x="196" y="-287.5" font-family="Helvetica,sans-Serif" font-size="10.00">SComponent/c_list.h</text>
</a>
</g>
</g>
<!-- Node3&#45;&gt;Node4 -->
<g id="edge3" class="edge">
<title>Node3&#45;&gt;Node4</title>
<path fill="none" stroke="midnightblue" d="M153.04,-392.38C156.17,-379.74 162.67,-355.55 171,-336 175.03,-326.54 180.48,-316.5 185.27,-308.31"/>
<polygon fill="midnightblue" stroke="midnightblue" points="188.3,-310.06 190.45,-299.69 182.3,-306.45 188.3,-310.06"/>
</g>
<!-- Node5 -->
<g id="node5" class="node">
<title>Node5</title>
<g id="a_node5"><a xlink:href="c__node_8h.html" target="_top" xlink:title=" ">
<polygon fill="white" stroke="black" points="138.5,-224.5 138.5,-243.5 253.5,-243.5 253.5,-224.5 138.5,-224.5"/>
<text text-anchor="middle" x="196" y="-231.5" font-family="Helvetica,sans-Serif" font-size="10.00">SComponent/c_node.h</text>
</a>
</g>
</g>
<!-- Node3&#45;&gt;Node5 -->
<g id="edge16" class="edge">
<title>Node3&#45;&gt;Node5</title>
<path fill="none" stroke="midnightblue" d="M146.45,-392.22C136.37,-371.44 114.54,-318.18 134,-280 141,-266.27 154.37,-255.75 166.9,-248.35"/>
<polygon fill="midnightblue" stroke="midnightblue" points="168.67,-251.37 175.78,-243.51 165.32,-245.22 168.67,-251.37"/>
</g>
<!-- Node3&#45;&gt;Node6 -->
<g id="edge20" class="edge">
<title>Node3&#45;&gt;Node6</title>
<path fill="none" stroke="midnightblue" d="M143.9,-392.35C137.32,-383.74 127.97,-369.84 124,-356 114.69,-323.53 120.9,-313.72 123,-280 124.56,-254.97 120.9,-247.37 130,-224 134.04,-213.63 140.99,-203.42 147.38,-195.35"/>
<polygon fill="midnightblue" stroke="midnightblue" points="150.2,-197.44 153.94,-187.53 144.83,-192.94 150.2,-197.44"/>
</g>
<!-- Node13 -->
<g id="node13" class="node">
<title>Node13</title>
<g id="a_node13"><a xlink:href="c__tree_8h.html" target="_top" xlink:title=" ">
<polygon fill="white" stroke="black" points="180,-336.5 180,-355.5 290,-355.5 290,-336.5 180,-336.5"/>
<text text-anchor="middle" x="235" y="-343.5" font-family="Helvetica,sans-Serif" font-size="10.00">SComponent/c_tree.h</text>
</a>
</g>
</g>
<!-- Node3&#45;&gt;Node13 -->
<g id="edge17" class="edge">
<title>Node3&#45;&gt;Node13</title>
<path fill="none" stroke="midnightblue" d="M164.5,-392.32C177.6,-383.9 197.71,-370.97 213.11,-361.07"/>
<polygon fill="midnightblue" stroke="midnightblue" points="215.02,-364.01 221.54,-355.65 211.23,-358.12 215.02,-364.01"/>
</g>
<!-- Node4&#45;&gt;Node5 -->
<g id="edge4" class="edge">
<title>Node4&#45;&gt;Node5</title>
<path fill="none" stroke="midnightblue" d="M196,-280.08C196,-273.01 196,-262.86 196,-253.99"/>
<polygon fill="midnightblue" stroke="midnightblue" points="199.5,-253.75 196,-243.75 192.5,-253.75 199.5,-253.75"/>
</g>
<!-- Node5&#45;&gt;Node6 -->
<g id="edge5" class="edge">
<title>Node5&#45;&gt;Node6</title>
<path fill="none" stroke="midnightblue" d="M190.39,-224.08C185.63,-216.53 178.68,-205.49 172.85,-196.23"/>
<polygon fill="midnightblue" stroke="midnightblue" points="175.8,-194.35 167.51,-187.75 169.88,-198.08 175.8,-194.35"/>
</g>
<!-- Node6&#45;&gt;Node7 -->
<g id="edge6" class="edge">
<title>Node6&#45;&gt;Node7</title>
<path fill="none" stroke="midnightblue" d="M147.27,-168.43C123.01,-153.35 75.52,-119.52 57,-76 53.52,-67.82 52.77,-63.82 57,-56 64.75,-41.7 79.23,-31.22 92.94,-23.99"/>
<polygon fill="midnightblue" stroke="midnightblue" points="94.74,-27.01 102.21,-19.5 91.69,-20.71 94.74,-27.01"/>
</g>
<!-- Node8 -->
<g id="node8" class="node">
<title>Node8</title>
<g id="a_node8"><a xlink:href="AR_8h.html" target="_top" xlink:title=" ">
<polygon fill="white" stroke="black" points="66.5,-56.5 66.5,-75.5 115.5,-75.5 115.5,-56.5 66.5,-56.5"/>
<text text-anchor="middle" x="91" y="-63.5" font-family="Helvetica,sans-Serif" font-size="10.00">ar/AR.h</text>
</a>
</g>
</g>
<!-- Node6&#45;&gt;Node8 -->
<g id="edge7" class="edge">
<title>Node6&#45;&gt;Node8</title>
<path fill="none" stroke="midnightblue" d="M156.43,-168.37C144.76,-150.3 117.58,-108.18 102.17,-84.31"/>
<polygon fill="midnightblue" stroke="midnightblue" points="104.91,-82.1 96.55,-75.59 99.03,-85.89 104.91,-82.1"/>
</g>
<!-- Node9 -->
<g id="node9" class="node">
<title>Node9</title>
<g id="a_node9"><a xlink:href="ARQ_8h.html" target="_top" xlink:title=" ">
<polygon fill="white" stroke="black" points="134,-56.5 134,-75.5 190,-75.5 190,-56.5 134,-56.5"/>
<text text-anchor="middle" x="162" y="-63.5" font-family="Helvetica,sans-Serif" font-size="10.00">ar/ARQ.h</text>
</a>
</g>
</g>
<!-- Node6&#45;&gt;Node9 -->
<g id="edge9" class="edge">
<title>Node6&#45;&gt;Node9</title>
<path fill="none" stroke="midnightblue" d="M162,-168.37C162,-150.62 162,-109.67 162,-85.6"/>
<polygon fill="midnightblue" stroke="midnightblue" points="165.5,-85.59 162,-75.59 158.5,-85.59 165.5,-85.59"/>
</g>
<!-- Node10 -->
<g id="node10" class="node">
<title>Node10</title>
<g id="a_node10"><a xlink:href="mwcc_8h.html" target="_top" xlink:title=" ">
<polygon fill="white" stroke="black" points="261,-112.5 261,-131.5 311,-131.5 311,-112.5 261,-112.5"/>
<text text-anchor="middle" x="286" y="-119.5" font-family="Helvetica,sans-Serif" font-size="10.00">mwcc.h</text>
</a>
</g>
</g>
<!-- Node6&#45;&gt;Node10 -->
<g id="edge11" class="edge">
<title>Node6&#45;&gt;Node10</title>
<path fill="none" stroke="midnightblue" d="M181.65,-168.44C201.96,-159.6 233.9,-145.69 257.1,-135.59"/>
<polygon fill="midnightblue" stroke="midnightblue" points="258.67,-138.72 266.44,-131.52 255.88,-132.3 258.67,-138.72"/>
</g>
<!-- Node11 -->
<g id="node11" class="node">
<title>Node11</title>
<g id="a_node11"><a xlink:href="OS_8h.html" target="_top" xlink:title=" ">
<polygon fill="white" stroke="black" points="191,-112.5 191,-131.5 243,-131.5 243,-112.5 191,-112.5"/>
<text text-anchor="middle" x="217" y="-119.5" font-family="Helvetica,sans-Serif" font-size="10.00">os/OS.h</text>
</a>
</g>
</g>
<!-- Node6&#45;&gt;Node11 -->
<g id="edge12" class="edge">
<title>Node6&#45;&gt;Node11</title>
<path fill="none" stroke="midnightblue" d="M171.08,-168.08C179.17,-160.14 191.2,-148.34 200.91,-138.8"/>
<polygon fill="midnightblue" stroke="midnightblue" points="203.4,-141.25 208.09,-131.75 198.5,-136.26 203.4,-141.25"/>
</g>
<!-- Node8&#45;&gt;Node7 -->
<g id="edge8" class="edge">
<title>Node8&#45;&gt;Node7</title>
<path fill="none" stroke="midnightblue" d="M96.78,-56.08C101.67,-48.53 108.83,-37.49 114.83,-28.23"/>
<polygon fill="midnightblue" stroke="midnightblue" points="117.83,-30.05 120.33,-19.75 111.95,-26.24 117.83,-30.05"/>
</g>
<!-- Node9&#45;&gt;Node7 -->
<g id="edge10" class="edge">
<title>Node9&#45;&gt;Node7</title>
<path fill="none" stroke="midnightblue" d="M156.06,-56.08C151.02,-48.53 143.66,-37.49 137.49,-28.23"/>
<polygon fill="midnightblue" stroke="midnightblue" points="140.29,-26.13 131.83,-19.75 134.47,-30.01 140.29,-26.13"/>
</g>
<!-- Node11&#45;&gt;Node7 -->
<g id="edge13" class="edge">
<title>Node11&#45;&gt;Node7</title>
<path fill="none" stroke="midnightblue" d="M216.57,-112.12C215.5,-98.7 211.8,-73.04 199,-56 188.51,-42.04 172.31,-31.42 157.83,-24.02"/>
<polygon fill="midnightblue" stroke="midnightblue" points="159.17,-20.78 148.64,-19.61 156.14,-27.09 159.17,-20.78"/>
</g>
<!-- Node12 -->
<g id="node12" class="node">
<title>Node12</title>
<g id="a_node12"><a xlink:href="dvd_8h.html" target="_top" xlink:title=" ">
<polygon fill="white" stroke="black" points="246.5,-56.5 246.5,-75.5 305.5,-75.5 305.5,-56.5 246.5,-56.5"/>
<text text-anchor="middle" x="276" y="-63.5" font-family="Helvetica,sans-Serif" font-size="10.00">dvd/dvd.h</text>
</a>
</g>
</g>
<!-- Node11&#45;&gt;Node12 -->
<g id="edge14" class="edge">
<title>Node11&#45;&gt;Node12</title>
<path fill="none" stroke="midnightblue" d="M226.48,-112.32C235.2,-104.34 248.34,-92.31 258.9,-82.65"/>
<polygon fill="midnightblue" stroke="midnightblue" points="261.33,-85.17 266.35,-75.83 256.61,-80 261.33,-85.17"/>
</g>
<!-- Node12&#45;&gt;Node7 -->
<g id="edge15" class="edge">
<title>Node12&#45;&gt;Node7</title>
<path fill="none" stroke="midnightblue" d="M252.23,-56.44C227.11,-47.4 187.29,-33.06 159.1,-22.92"/>
<polygon fill="midnightblue" stroke="midnightblue" points="160.25,-19.61 149.66,-19.52 157.88,-26.2 160.25,-19.61"/>
</g>
<!-- Node13&#45;&gt;Node4 -->
<g id="edge18" class="edge">
<title>Node13&#45;&gt;Node4</title>
<path fill="none" stroke="midnightblue" d="M228.56,-336.08C223.05,-328.46 214.97,-317.26 208.24,-307.94"/>
<polygon fill="midnightblue" stroke="midnightblue" points="211.01,-305.81 202.32,-299.75 205.34,-309.91 211.01,-305.81"/>
</g>
<!-- Node13&#45;&gt;Node5 -->
<g id="edge19" class="edge">
<title>Node13&#45;&gt;Node5</title>
<path fill="none" stroke="midnightblue" d="M242.71,-336.31C253.02,-323.57 268.91,-299.25 259,-280 251.92,-266.25 238.48,-255.77 225.82,-248.39"/>
<polygon fill="midnightblue" stroke="midnightblue" points="227.31,-245.22 216.85,-243.57 224,-251.39 227.31,-245.22"/>
</g>
<!-- Node14&#45;&gt;Node3 -->
<g id="edge23" class="edge">
<title>Node14&#45;&gt;Node3</title>
<path fill="none" stroke="midnightblue" d="M221.5,-448.32C208.4,-439.9 188.29,-426.97 172.89,-417.07"/>
<polygon fill="midnightblue" stroke="midnightblue" points="174.77,-414.12 164.46,-411.65 170.98,-420.01 174.77,-414.12"/>
</g>
<!-- Node14&#45;&gt;Node5 -->
<g id="edge22" class="edge">
<title>Node14&#45;&gt;Node5</title>
<path fill="none" stroke="midnightblue" d="M244.88,-448.27C265.16,-429.24 308.81,-382.02 299,-336 293.32,-309.34 292.25,-300.24 274,-280 261.43,-266.06 243.49,-255.29 227.98,-247.79"/>
<polygon fill="midnightblue" stroke="midnightblue" points="229.26,-244.53 218.71,-243.55 226.35,-250.9 229.26,-244.53"/>
</g>
<!-- Node14&#45;&gt;Node6 -->
<g id="edge25" class="edge">
<title>Node14&#45;&gt;Node6</title>
<path fill="none" stroke="midnightblue" d="M257.76,-448.43C292.81,-433.58 356,-399.52 356,-347 356,-347 356,-347 356,-289 356,-216.98 253.58,-191.55 197.57,-183.02"/>
<polygon fill="midnightblue" stroke="midnightblue" points="197.75,-179.51 187.36,-181.58 196.77,-186.44 197.75,-179.51"/>
</g>
<!-- Node14&#45;&gt;Node13 -->
<g id="edge24" class="edge">
<title>Node14&#45;&gt;Node13</title>
<path fill="none" stroke="midnightblue" d="M235,-448.37C235,-430.62 235,-389.67 235,-365.6"/>
<polygon fill="midnightblue" stroke="midnightblue" points="238.5,-365.59 235,-355.59 231.5,-365.59 238.5,-365.59"/>
</g>
</g>
</svg>
