<?xml version="1.0" encoding="UTF-8" standalone="no"?>
<!DOCTYPE svg PUBLIC "-//W3C//DTD SVG 1.1//EN"
 "http://www.w3.org/Graphics/SVG/1.1/DTD/svg11.dtd">
<!-- Generated by graphviz version 2.44.0 ()
 -->
<!-- Title: src/f/f_pc/f_pc_load.cpp Pages: 1 -->
<svg width="441pt" height="308pt"
 viewBox="0.00 0.00 440.92 308.00" xmlns="http://www.w3.org/2000/svg" xmlns:xlink="http://www.w3.org/1999/xlink">
<g id="graph0" class="graph" transform="scale(1 1) rotate(0) translate(4 304)">
<title>src/f/f_pc/f_pc_load.cpp</title>
<polygon fill="white" stroke="transparent" points="-4,4 -4,-304 436.92,-304 436.92,4 -4,4"/>
<!-- Node1 -->
<g id="node1" class="node">
<title>Node1</title>
<g id="a_node1"><a xlink:title=" ">
<polygon fill="#bfbfbf" stroke="black" points="224.42,-280.5 224.42,-299.5 345.42,-299.5 345.42,-280.5 224.42,-280.5"/>
<text text-anchor="middle" x="284.92" y="-287.5" font-family="Helvetica,sans-Serif" font-size="10.00">src/f/f_pc/f_pc_load.cpp</text>
</a>
</g>
</g>
<!-- Node2 -->
<g id="node2" class="node">
<title>Node2</title>
<g id="a_node2"><a xlink:href="f__pc__load_8h.html" target="_top" xlink:title=" ">
<polygon fill="white" stroke="black" points="110.92,-224.5 110.92,-243.5 204.92,-243.5 204.92,-224.5 110.92,-224.5"/>
<text text-anchor="middle" x="157.92" y="-231.5" font-family="Helvetica,sans-Serif" font-size="10.00">f/f_pc/f_pc_load.h</text>
</a>
</g>
</g>
<!-- Node1&#45;&gt;Node2 -->
<g id="edge1" class="edge">
<title>Node1&#45;&gt;Node2</title>
<path fill="none" stroke="midnightblue" d="M264.79,-280.44C243.89,-271.56 210.98,-257.56 187.2,-247.45"/>
<polygon fill="midnightblue" stroke="midnightblue" points="188.52,-244.21 177.95,-243.52 185.78,-250.65 188.52,-244.21"/>
</g>
<!-- Node4 -->
<g id="node4" class="node">
<title>Node4</title>
<g id="a_node4"><a xlink:href="types_8h.html" target="_top" xlink:title=" ">
<polygon fill="white" stroke="black" points="100.42,-0.5 100.42,-19.5 181.42,-19.5 181.42,-0.5 100.42,-0.5"/>
<text text-anchor="middle" x="140.92" y="-7.5" font-family="Helvetica,sans-Serif" font-size="10.00">dolphin/types.h</text>
</a>
</g>
</g>
<!-- Node1&#45;&gt;Node4 -->
<g id="edge14" class="edge">
<title>Node1&#45;&gt;Node4</title>
<path fill="none" stroke="midnightblue" d="M284.92,-280.44C284.92,-261.94 284.92,-216.81 284.92,-179 284.92,-179 284.92,-179 284.92,-121 284.92,-90.77 285.75,-77.9 264.92,-56 245.62,-35.71 216.47,-24.54 191.28,-18.4"/>
<polygon fill="midnightblue" stroke="midnightblue" points="192.01,-14.98 181.49,-16.22 190.48,-21.81 192.01,-14.98"/>
</g>
<!-- Node10 -->
<g id="node10" class="node">
<title>Node10</title>
<g id="a_node10"><a xlink:href="c__phase_8h.html" target="_top" xlink:title=" ">
<polygon fill="white" stroke="black" points="312.92,-224.5 312.92,-243.5 432.92,-243.5 432.92,-224.5 312.92,-224.5"/>
<text text-anchor="middle" x="372.92" y="-231.5" font-family="Helvetica,sans-Serif" font-size="10.00">SComponent/c_phase.h</text>
</a>
</g>
</g>
<!-- Node1&#45;&gt;Node10 -->
<g id="edge13" class="edge">
<title>Node1&#45;&gt;Node10</title>
<path fill="none" stroke="midnightblue" d="M299.06,-280.32C312.78,-271.9 333.85,-258.97 349.98,-249.07"/>
<polygon fill="midnightblue" stroke="midnightblue" points="352.12,-251.87 358.81,-243.65 348.46,-245.9 352.12,-251.87"/>
</g>
<!-- Node3 -->
<g id="node3" class="node">
<title>Node3</title>
<g id="a_node3"><a xlink:href="global_8h.html" target="_top" xlink:title=" ">
<polygon fill="white" stroke="black" points="93.92,-168.5 93.92,-187.5 143.92,-187.5 143.92,-168.5 93.92,-168.5"/>
<text text-anchor="middle" x="118.92" y="-175.5" font-family="Helvetica,sans-Serif" font-size="10.00">global.h</text>
</a>
</g>
</g>
<!-- Node2&#45;&gt;Node3 -->
<g id="edge2" class="edge">
<title>Node2&#45;&gt;Node3</title>
<path fill="none" stroke="midnightblue" d="M151.48,-224.08C145.97,-216.46 137.89,-205.26 131.15,-195.94"/>
<polygon fill="midnightblue" stroke="midnightblue" points="133.93,-193.81 125.24,-187.75 128.26,-197.91 133.93,-193.81"/>
</g>
<!-- Node3&#45;&gt;Node4 -->
<g id="edge3" class="edge">
<title>Node3&#45;&gt;Node4</title>
<path fill="none" stroke="midnightblue" d="M99.64,-168.39C59.84,-149.4 -25.06,-101.98 7.92,-56 26.54,-30.04 60.95,-18.87 90.1,-14.14"/>
<polygon fill="midnightblue" stroke="midnightblue" points="90.75,-17.59 100.16,-12.73 89.77,-10.66 90.75,-17.59"/>
</g>
<!-- Node5 -->
<g id="node5" class="node">
<title>Node5</title>
<g id="a_node5"><a xlink:href="AR_8h.html" target="_top" xlink:title=" ">
<polygon fill="white" stroke="black" points="17.42,-56.5 17.42,-75.5 66.42,-75.5 66.42,-56.5 17.42,-56.5"/>
<text text-anchor="middle" x="41.92" y="-63.5" font-family="Helvetica,sans-Serif" font-size="10.00">ar/AR.h</text>
</a>
</g>
</g>
<!-- Node3&#45;&gt;Node5 -->
<g id="edge4" class="edge">
<title>Node3&#45;&gt;Node5</title>
<path fill="none" stroke="midnightblue" d="M112.88,-168.37C100.17,-150.22 70.48,-107.8 53.81,-83.99"/>
<polygon fill="midnightblue" stroke="midnightblue" points="56.53,-81.78 47.93,-75.59 50.8,-85.79 56.53,-81.78"/>
</g>
<!-- Node6 -->
<g id="node6" class="node">
<title>Node6</title>
<g id="a_node6"><a xlink:href="ARQ_8h.html" target="_top" xlink:title=" ">
<polygon fill="white" stroke="black" points="84.92,-56.5 84.92,-75.5 140.92,-75.5 140.92,-56.5 84.92,-56.5"/>
<text text-anchor="middle" x="112.92" y="-63.5" font-family="Helvetica,sans-Serif" font-size="10.00">ar/ARQ.h</text>
</a>
</g>
</g>
<!-- Node3&#45;&gt;Node6 -->
<g id="edge6" class="edge">
<title>Node3&#45;&gt;Node6</title>
<path fill="none" stroke="midnightblue" d="M117.18,-168.42C115.45,-159.4 112.91,-144.77 111.92,-132 110.72,-116.51 111.1,-98.88 111.71,-85.89"/>
<polygon fill="midnightblue" stroke="midnightblue" points="115.21,-86.03 112.27,-75.85 108.22,-85.64 115.21,-86.03"/>
</g>
<!-- Node7 -->
<g id="node7" class="node">
<title>Node7</title>
<g id="a_node7"><a xlink:href="mwcc_8h.html" target="_top" xlink:title=" ">
<polygon fill="white" stroke="black" points="120.92,-112.5 120.92,-131.5 170.92,-131.5 170.92,-112.5 120.92,-112.5"/>
<text text-anchor="middle" x="145.92" y="-119.5" font-family="Helvetica,sans-Serif" font-size="10.00">mwcc.h</text>
</a>
</g>
</g>
<!-- Node3&#45;&gt;Node7 -->
<g id="edge8" class="edge">
<title>Node3&#45;&gt;Node7</title>
<path fill="none" stroke="midnightblue" d="M123.38,-168.08C127.07,-160.69 132.44,-149.95 137.01,-140.81"/>
<polygon fill="midnightblue" stroke="midnightblue" points="140.2,-142.26 141.54,-131.75 133.94,-139.13 140.2,-142.26"/>
</g>
<!-- Node8 -->
<g id="node8" class="node">
<title>Node8</title>
<g id="a_node8"><a xlink:href="OS_8h.html" target="_top" xlink:title=" ">
<polygon fill="white" stroke="black" points="188.92,-112.5 188.92,-131.5 240.92,-131.5 240.92,-112.5 188.92,-112.5"/>
<text text-anchor="middle" x="214.92" y="-119.5" font-family="Helvetica,sans-Serif" font-size="10.00">os/OS.h</text>
</a>
</g>
</g>
<!-- Node3&#45;&gt;Node8 -->
<g id="edge9" class="edge">
<title>Node3&#45;&gt;Node8</title>
<path fill="none" stroke="midnightblue" d="M134.34,-168.32C149.46,-159.82 172.73,-146.73 190.39,-136.8"/>
<polygon fill="midnightblue" stroke="midnightblue" points="192.53,-139.61 199.53,-131.65 189.1,-133.51 192.53,-139.61"/>
</g>
<!-- Node5&#45;&gt;Node4 -->
<g id="edge5" class="edge">
<title>Node5&#45;&gt;Node4</title>
<path fill="none" stroke="midnightblue" d="M57.82,-56.32C73.56,-47.74 97.86,-34.49 116.13,-24.52"/>
<polygon fill="midnightblue" stroke="midnightblue" points="117.95,-27.52 125.05,-19.65 114.6,-21.37 117.95,-27.52"/>
</g>
<!-- Node6&#45;&gt;Node4 -->
<g id="edge7" class="edge">
<title>Node6&#45;&gt;Node4</title>
<path fill="none" stroke="midnightblue" d="M117.54,-56.08C121.37,-48.69 126.94,-37.95 131.68,-28.81"/>
<polygon fill="midnightblue" stroke="midnightblue" points="134.88,-30.24 136.38,-19.75 128.67,-27.02 134.88,-30.24"/>
</g>
<!-- Node8&#45;&gt;Node4 -->
<g id="edge10" class="edge">
<title>Node8&#45;&gt;Node4</title>
<path fill="none" stroke="midnightblue" d="M209.11,-112.37C196.9,-94.22 168.37,-51.8 152.35,-27.99"/>
<polygon fill="midnightblue" stroke="midnightblue" points="155.18,-25.94 146.7,-19.59 149.38,-29.84 155.18,-25.94"/>
</g>
<!-- Node9 -->
<g id="node9" class="node">
<title>Node9</title>
<g id="a_node9"><a xlink:href="dvd_8h.html" target="_top" xlink:title=" ">
<polygon fill="white" stroke="black" points="197.42,-56.5 197.42,-75.5 256.42,-75.5 256.42,-56.5 197.42,-56.5"/>
<text text-anchor="middle" x="226.92" y="-63.5" font-family="Helvetica,sans-Serif" font-size="10.00">dvd/dvd.h</text>
</a>
</g>
</g>
<!-- Node8&#45;&gt;Node9 -->
<g id="edge11" class="edge">
<title>Node8&#45;&gt;Node9</title>
<path fill="none" stroke="midnightblue" d="M216.9,-112.08C218.49,-104.93 220.78,-94.64 222.76,-85.69"/>
<polygon fill="midnightblue" stroke="midnightblue" points="226.22,-86.27 224.97,-75.75 219.39,-84.75 226.22,-86.27"/>
</g>
<!-- Node9&#45;&gt;Node4 -->
<g id="edge12" class="edge">
<title>Node9&#45;&gt;Node4</title>
<path fill="none" stroke="midnightblue" d="M213.1,-56.32C199.69,-47.9 179.09,-34.97 163.33,-25.07"/>
<polygon fill="midnightblue" stroke="midnightblue" points="165.03,-22.01 154.7,-19.65 161.31,-27.94 165.03,-22.01"/>
</g>
</g>
</svg>
