<?xml version="1.0" encoding="UTF-8" standalone="no"?>
<!DOCTYPE svg PUBLIC "-//W3C//DTD SVG 1.1//EN"
 "http://www.w3.org/Graphics/SVG/1.1/DTD/svg11.dtd">
<!-- Generated by graphviz version 2.44.0 ()
 -->
<!-- Title: include/JSystem/JStudio/functionvalue.h Pages: 1 -->
<svg width="347pt" height="319pt"
 viewBox="0.00 0.00 346.50 319.00" xmlns="http://www.w3.org/2000/svg" xmlns:xlink="http://www.w3.org/1999/xlink">
<g id="graph0" class="graph" transform="scale(1 1) rotate(0) translate(4 315)">
<title>include/JSystem/JStudio/functionvalue.h</title>
<polygon fill="white" stroke="transparent" points="-4,4 -4,-315 342.5,-315 342.5,4 -4,4"/>
<!-- Node1 -->
<g id="node1" class="node">
<title>Node1</title>
<g id="a_node1"><a xlink:title=" ">
<polygon fill="#bfbfbf" stroke="black" points="99.5,-280.5 99.5,-310.5 224.5,-310.5 224.5,-280.5 99.5,-280.5"/>
<text text-anchor="start" x="107.5" y="-298.5" font-family="Helvetica,sans-Serif" font-size="10.00">include/JSystem/JStudio</text>
<text text-anchor="middle" x="162" y="-287.5" font-family="Helvetica,sans-Serif" font-size="10.00">/functionvalue.h</text>
</a>
</g>
</g>
<!-- Node2 -->
<g id="node2" class="node">
<title>Node2</title>
<g id="a_node2"><a xlink:href="search_8h.html" target="_top" xlink:title=" ">
<polygon fill="white" stroke="black" points="0,-224.5 0,-243.5 134,-243.5 134,-224.5 0,-224.5"/>
<text text-anchor="middle" x="67" y="-231.5" font-family="Helvetica,sans-Serif" font-size="10.00">JSystem/JGadget/search.h</text>
</a>
</g>
</g>
<!-- Node1&#45;&gt;Node2 -->
<g id="edge1" class="edge">
<title>Node1&#45;&gt;Node2</title>
<path fill="none" stroke="midnightblue" d="M139.49,-280.4C124.4,-270.95 104.61,-258.56 89.53,-249.11"/>
<polygon fill="midnightblue" stroke="midnightblue" points="91.16,-246 80.82,-243.66 87.44,-251.93 91.16,-246"/>
</g>
<!-- Node3 -->
<g id="node3" class="node">
<title>Node3</title>
<g id="a_node3"><a xlink:href="global_8h.html" target="_top" xlink:title=" ">
<polygon fill="white" stroke="black" points="137,-168.5 137,-187.5 187,-187.5 187,-168.5 137,-168.5"/>
<text text-anchor="middle" x="162" y="-175.5" font-family="Helvetica,sans-Serif" font-size="10.00">global.h</text>
</a>
</g>
</g>
<!-- Node1&#45;&gt;Node3 -->
<g id="edge15" class="edge">
<title>Node1&#45;&gt;Node3</title>
<path fill="none" stroke="midnightblue" d="M162,-280.34C162,-259.62 162,-221.02 162,-197.9"/>
<polygon fill="midnightblue" stroke="midnightblue" points="165.5,-197.67 162,-187.67 158.5,-197.67 165.5,-197.67"/>
</g>
<!-- Node10 -->
<g id="node10" class="node">
<title>Node10</title>
<g id="a_node10"><a xlink:href="JGadget_2vector_8h.html" target="_top" xlink:title=" ">
<polygon fill="white" stroke="black" points="190,-224.5 190,-243.5 322,-243.5 322,-224.5 190,-224.5"/>
<text text-anchor="middle" x="256" y="-231.5" font-family="Helvetica,sans-Serif" font-size="10.00">JSystem/JGadget/vector.h</text>
</a>
</g>
</g>
<!-- Node1&#45;&gt;Node10 -->
<g id="edge13" class="edge">
<title>Node1&#45;&gt;Node10</title>
<path fill="none" stroke="midnightblue" d="M184.28,-280.4C199.2,-270.95 218.78,-258.56 233.71,-249.11"/>
<polygon fill="midnightblue" stroke="midnightblue" points="235.74,-251.96 242.32,-243.66 232,-246.05 235.74,-251.96"/>
</g>
<!-- Node2&#45;&gt;Node3 -->
<g id="edge2" class="edge">
<title>Node2&#45;&gt;Node3</title>
<path fill="none" stroke="midnightblue" d="M82.26,-224.32C97.22,-215.82 120.25,-202.73 137.73,-192.8"/>
<polygon fill="midnightblue" stroke="midnightblue" points="139.81,-195.64 146.77,-187.65 136.35,-189.55 139.81,-195.64"/>
</g>
<!-- Node4 -->
<g id="node4" class="node">
<title>Node4</title>
<g id="a_node4"><a xlink:href="types_8h.html" target="_top" xlink:title=" ">
<polygon fill="white" stroke="black" points="154.5,-0.5 154.5,-19.5 235.5,-19.5 235.5,-0.5 154.5,-0.5"/>
<text text-anchor="middle" x="195" y="-7.5" font-family="Helvetica,sans-Serif" font-size="10.00">dolphin/types.h</text>
</a>
</g>
</g>
<!-- Node3&#45;&gt;Node4 -->
<g id="edge3" class="edge">
<title>Node3&#45;&gt;Node4</title>
<path fill="none" stroke="midnightblue" d="M149.71,-168.32C122.76,-148.22 62.95,-97.02 90,-56 102.3,-37.35 124.11,-26.4 144.68,-19.98"/>
<polygon fill="midnightblue" stroke="midnightblue" points="145.64,-23.35 154.31,-17.26 143.74,-16.61 145.64,-23.35"/>
</g>
<!-- Node5 -->
<g id="node5" class="node">
<title>Node5</title>
<g id="a_node5"><a xlink:href="AR_8h.html" target="_top" xlink:title=" ">
<polygon fill="white" stroke="black" points="99.5,-56.5 99.5,-75.5 148.5,-75.5 148.5,-56.5 99.5,-56.5"/>
<text text-anchor="middle" x="124" y="-63.5" font-family="Helvetica,sans-Serif" font-size="10.00">ar/AR.h</text>
</a>
</g>
</g>
<!-- Node3&#45;&gt;Node5 -->
<g id="edge4" class="edge">
<title>Node3&#45;&gt;Node5</title>
<path fill="none" stroke="midnightblue" d="M159.02,-168.37C152.86,-150.54 138.61,-109.3 130.31,-85.27"/>
<polygon fill="midnightblue" stroke="midnightblue" points="133.54,-83.9 126.97,-75.59 126.93,-86.19 133.54,-83.9"/>
</g>
<!-- Node6 -->
<g id="node6" class="node">
<title>Node6</title>
<g id="a_node6"><a xlink:href="ARQ_8h.html" target="_top" xlink:title=" ">
<polygon fill="white" stroke="black" points="167,-56.5 167,-75.5 223,-75.5 223,-56.5 167,-56.5"/>
<text text-anchor="middle" x="195" y="-63.5" font-family="Helvetica,sans-Serif" font-size="10.00">ar/ARQ.h</text>
</a>
</g>
</g>
<!-- Node3&#45;&gt;Node6 -->
<g id="edge6" class="edge">
<title>Node3&#45;&gt;Node6</title>
<path fill="none" stroke="midnightblue" d="M164.53,-168.15C168.13,-155.63 174.96,-132.04 181,-112 183.66,-103.18 186.69,-93.41 189.25,-85.23"/>
<polygon fill="midnightblue" stroke="midnightblue" points="192.61,-86.2 192.27,-75.61 185.94,-84.1 192.61,-86.2"/>
</g>
<!-- Node7 -->
<g id="node7" class="node">
<title>Node7</title>
<g id="a_node7"><a xlink:href="mwcc_8h.html" target="_top" xlink:title=" ">
<polygon fill="white" stroke="black" points="190,-112.5 190,-131.5 240,-131.5 240,-112.5 190,-112.5"/>
<text text-anchor="middle" x="215" y="-119.5" font-family="Helvetica,sans-Serif" font-size="10.00">mwcc.h</text>
</a>
</g>
</g>
<!-- Node3&#45;&gt;Node7 -->
<g id="edge8" class="edge">
<title>Node3&#45;&gt;Node7</title>
<path fill="none" stroke="midnightblue" d="M170.75,-168.08C178.47,-160.22 189.9,-148.57 199.22,-139.08"/>
<polygon fill="midnightblue" stroke="midnightblue" points="201.9,-141.34 206.41,-131.75 196.91,-136.44 201.9,-141.34"/>
</g>
<!-- Node8 -->
<g id="node8" class="node">
<title>Node8</title>
<g id="a_node8"><a xlink:href="OS_8h.html" target="_top" xlink:title=" ">
<polygon fill="white" stroke="black" points="258,-112.5 258,-131.5 310,-131.5 310,-112.5 258,-112.5"/>
<text text-anchor="middle" x="284" y="-119.5" font-family="Helvetica,sans-Serif" font-size="10.00">os/OS.h</text>
</a>
</g>
</g>
<!-- Node3&#45;&gt;Node8 -->
<g id="edge9" class="edge">
<title>Node3&#45;&gt;Node8</title>
<path fill="none" stroke="midnightblue" d="M181.33,-168.44C201.32,-159.6 232.74,-145.69 255.56,-135.59"/>
<polygon fill="midnightblue" stroke="midnightblue" points="257.03,-138.76 264.76,-131.52 254.2,-132.36 257.03,-138.76"/>
</g>
<!-- Node5&#45;&gt;Node4 -->
<g id="edge5" class="edge">
<title>Node5&#45;&gt;Node4</title>
<path fill="none" stroke="midnightblue" d="M135.41,-56.32C146.11,-48.18 162.34,-35.84 175.16,-26.09"/>
<polygon fill="midnightblue" stroke="midnightblue" points="177.54,-28.67 183.39,-19.83 173.31,-23.1 177.54,-28.67"/>
</g>
<!-- Node6&#45;&gt;Node4 -->
<g id="edge7" class="edge">
<title>Node6&#45;&gt;Node4</title>
<path fill="none" stroke="midnightblue" d="M195,-56.08C195,-49.01 195,-38.86 195,-29.99"/>
<polygon fill="midnightblue" stroke="midnightblue" points="198.5,-29.75 195,-19.75 191.5,-29.75 198.5,-29.75"/>
</g>
<!-- Node8&#45;&gt;Node4 -->
<g id="edge10" class="edge">
<title>Node8&#45;&gt;Node4</title>
<path fill="none" stroke="midnightblue" d="M276.97,-112.14C267.01,-99.6 248.2,-75.98 232,-56 224.26,-46.46 215.53,-35.83 208.5,-27.31"/>
<polygon fill="midnightblue" stroke="midnightblue" points="211.2,-25.08 202.13,-19.6 205.8,-29.54 211.2,-25.08"/>
</g>
<!-- Node9 -->
<g id="node9" class="node">
<title>Node9</title>
<g id="a_node9"><a xlink:href="dvd_8h.html" target="_top" xlink:title=" ">
<polygon fill="white" stroke="black" points="279.5,-56.5 279.5,-75.5 338.5,-75.5 338.5,-56.5 279.5,-56.5"/>
<text text-anchor="middle" x="309" y="-63.5" font-family="Helvetica,sans-Serif" font-size="10.00">dvd/dvd.h</text>
</a>
</g>
</g>
<!-- Node8&#45;&gt;Node9 -->
<g id="edge11" class="edge">
<title>Node8&#45;&gt;Node9</title>
<path fill="none" stroke="midnightblue" d="M288.13,-112.08C291.51,-104.77 296.42,-94.18 300.62,-85.1"/>
<polygon fill="midnightblue" stroke="midnightblue" points="303.92,-86.3 304.95,-75.75 297.57,-83.36 303.92,-86.3"/>
</g>
<!-- Node9&#45;&gt;Node4 -->
<g id="edge12" class="edge">
<title>Node9&#45;&gt;Node4</title>
<path fill="none" stroke="midnightblue" d="M290.94,-56.44C272.43,-47.68 243.42,-33.94 222.14,-23.86"/>
<polygon fill="midnightblue" stroke="midnightblue" points="223.51,-20.63 212.98,-19.52 220.52,-26.96 223.51,-20.63"/>
</g>
<!-- Node10&#45;&gt;Node3 -->
<g id="edge14" class="edge">
<title>Node10&#45;&gt;Node3</title>
<path fill="none" stroke="midnightblue" d="M240.9,-224.32C226.1,-215.82 203.31,-202.73 186.02,-192.8"/>
<polygon fill="midnightblue" stroke="midnightblue" points="187.48,-189.6 177.07,-187.65 183.99,-195.67 187.48,-189.6"/>
</g>
</g>
</svg>
