<?xml version="1.0" encoding="UTF-8" standalone="no"?>
<!DOCTYPE svg PUBLIC "-//W3C//DTD SVG 1.1//EN"
 "http://www.w3.org/Graphics/SVG/1.1/DTD/svg11.dtd">
<!-- Generated by graphviz version 2.44.0 ()
 -->
<!-- Title: libs/JSystem/JStudio/functionvalue.cpp Pages: 1 -->
<svg width="4115pt" height="441pt"
 viewBox="0.00 0.00 4114.50 441.00" xmlns="http://www.w3.org/2000/svg" xmlns:xlink="http://www.w3.org/1999/xlink">
<g id="graph0" class="graph" transform="scale(1 1) rotate(0) translate(4 437)">
<title>libs/JSystem/JStudio/functionvalue.cpp</title>
<polygon fill="white" stroke="transparent" points="-4,4 -4,-437 4110.5,-437 4110.5,4 -4,4"/>
<!-- Node1 -->
<g id="node1" class="node">
<title>Node1</title>
<g id="a_node1"><a xlink:title=" ">
<polygon fill="#bfbfbf" stroke="black" points="1990.5,-402.5 1990.5,-432.5 2099.5,-432.5 2099.5,-402.5 1990.5,-402.5"/>
<text text-anchor="start" x="1998.5" y="-420.5" font-family="Helvetica,sans-Serif" font-size="10.00">libs/JSystem/JStudio</text>
<text text-anchor="middle" x="2045" y="-409.5" font-family="Helvetica,sans-Serif" font-size="10.00">/functionvalue.cpp</text>
</a>
</g>
</g>
<!-- Node2 -->
<g id="node2" class="node">
<title>Node2</title>
<g id="a_node2"><a xlink:href="functionvalue_8h.html" target="_top" xlink:title=" ">
<polygon fill="white" stroke="black" points="127.5,-313.5 127.5,-332.5 286.5,-332.5 286.5,-313.5 127.5,-313.5"/>
<text text-anchor="middle" x="207" y="-320.5" font-family="Helvetica,sans-Serif" font-size="10.00">JSystem/JStudio/functionvalue.h</text>
</a>
</g>
</g>
<!-- Node1&#45;&gt;Node2 -->
<g id="edge1" class="edge">
<title>Node1&#45;&gt;Node2</title>
<path fill="none" stroke="midnightblue" d="M1990.25,-415.78C1716.8,-412.04 505.61,-394.04 340,-366 303.8,-359.87 263.82,-346.27 237.24,-336.19"/>
<polygon fill="midnightblue" stroke="midnightblue" points="238.34,-332.87 227.75,-332.53 235.82,-339.4 238.34,-332.87"/>
</g>
<!-- Node12 -->
<g id="node12" class="node">
<title>Node12</title>
<g id="a_node12"><a xlink:href="math_8h.html" target="_top" xlink:title=" ">
<polygon fill="white" stroke="black" points="316.5,-168.5 316.5,-187.5 391.5,-187.5 391.5,-168.5 316.5,-168.5"/>
<text text-anchor="middle" x="354" y="-175.5" font-family="Helvetica,sans-Serif" font-size="10.00">msl_c/math.h</text>
</a>
</g>
</g>
<!-- Node1&#45;&gt;Node12 -->
<g id="edge17" class="edge">
<title>Node1&#45;&gt;Node12</title>
<path fill="none" stroke="midnightblue" d="M1990.49,-415.83C1706.1,-412.21 404.34,-394.11 374,-366 326.91,-322.38 340.35,-235.47 349.12,-197.49"/>
<polygon fill="midnightblue" stroke="midnightblue" points="352.53,-198.31 351.52,-187.76 345.73,-196.63 352.53,-198.31"/>
</g>
<!-- Node13 -->
<g id="node13" class="node">
<title>Node13</title>
<g id="a_node13"><a xlink:title=" ">
<polygon fill="white" stroke="#bfbfbf" points="382.5,-302.5 382.5,-343.5 579.5,-343.5 579.5,-302.5 382.5,-302.5"/>
<text text-anchor="start" x="390.5" y="-331.5" font-family="Helvetica,sans-Serif" font-size="10.00">JSystem/JStudio/asm</text>
<text text-anchor="start" x="390.5" y="-320.5" font-family="Helvetica,sans-Serif" font-size="10.00">/interpolateValue_hermite</text>
<text text-anchor="middle" x="481" y="-309.5" font-family="Helvetica,sans-Serif" font-size="10.00">__Q27JStudio13functionvalueFddddddd.s</text>
</a>
</g>
</g>
<!-- Node1&#45;&gt;Node13 -->
<g id="edge19" class="edge">
<title>Node1&#45;&gt;Node13</title>
<path fill="none" stroke="midnightblue" d="M1990.19,-415.69C1741.82,-411.85 727.97,-394.57 589,-366 569.55,-362 549.04,-354.84 531.18,-347.55"/>
<polygon fill="midnightblue" stroke="midnightblue" points="532.13,-344.15 521.55,-343.51 529.42,-350.61 532.13,-344.15"/>
</g>
<!-- Node14 -->
<g id="node14" class="node">
<title>Node14</title>
<g id="a_node14"><a xlink:title=" ">
<polygon fill="white" stroke="#bfbfbf" points="598,-297 598,-349 782,-349 782,-297 598,-297"/>
<text text-anchor="start" x="606" y="-337" font-family="Helvetica,sans-Serif" font-size="10.00">JSystem/JStudio/asm</text>
<text text-anchor="start" x="606" y="-326" font-family="Helvetica,sans-Serif" font-size="10.00">/interpolateValue_BSpline</text>
<text text-anchor="start" x="606" y="-315" font-family="Helvetica,sans-Serif" font-size="10.00">_uniform__Q27JStudio13functionvalue</text>
<text text-anchor="middle" x="690" y="-304" font-family="Helvetica,sans-Serif" font-size="10.00">Fddddd.s</text>
</a>
</g>
</g>
<!-- Node1&#45;&gt;Node14 -->
<g id="edge20" class="edge">
<title>Node1&#45;&gt;Node14</title>
<path fill="none" stroke="midnightblue" d="M1990.39,-416.85C1780.35,-417.82 1024.64,-417.55 791,-366 777.35,-362.99 763.19,-358.23 749.95,-352.99"/>
<polygon fill="midnightblue" stroke="midnightblue" points="751.08,-349.67 740.5,-349.1 748.41,-356.14 751.08,-349.67"/>
</g>
<!-- Node15 -->
<g id="node15" class="node">
<title>Node15</title>
<g id="a_node15"><a xlink:title=" ">
<polygon fill="white" stroke="#bfbfbf" points="800,-297 800,-349 1000,-349 1000,-297 800,-297"/>
<text text-anchor="start" x="808" y="-337" font-family="Helvetica,sans-Serif" font-size="10.00">JSystem/JStudio/asm</text>
<text text-anchor="start" x="808" y="-326" font-family="Helvetica,sans-Serif" font-size="10.00">/interpolateValue_BSpline</text>
<text text-anchor="start" x="808" y="-315" font-family="Helvetica,sans-Serif" font-size="10.00">_nonuniform__Q27JStudio13functionvalue</text>
<text text-anchor="middle" x="900" y="-304" font-family="Helvetica,sans-Serif" font-size="10.00">FdPCdPCd.s</text>
</a>
</g>
</g>
<!-- Node1&#45;&gt;Node15 -->
<g id="edge21" class="edge">
<title>Node1&#45;&gt;Node15</title>
<path fill="none" stroke="midnightblue" d="M1990.37,-416.1C1804.85,-414.4 1199.94,-405.84 1010,-366 995.07,-362.87 979.49,-357.99 964.91,-352.65"/>
<polygon fill="midnightblue" stroke="midnightblue" points="966.09,-349.36 955.49,-349.09 963.61,-355.9 966.09,-349.36"/>
</g>
<!-- Node16 -->
<g id="node16" class="node">
<title>Node16</title>
<g id="a_node16"><a xlink:title=" ">
<polygon fill="white" stroke="#bfbfbf" points="1018.5,-297 1018.5,-349 1175.5,-349 1175.5,-297 1018.5,-297"/>
<text text-anchor="start" x="1026.5" y="-337" font-family="Helvetica,sans-Serif" font-size="10.00">JSystem/JStudio/asm</text>
<text text-anchor="start" x="1026.5" y="-326" font-family="Helvetica,sans-Serif" font-size="10.00">/range_getParameter</text>
<text text-anchor="start" x="1026.5" y="-315" font-family="Helvetica,sans-Serif" font-size="10.00">__Q27JStudio29TFunctionValue</text>
<text text-anchor="middle" x="1097" y="-304" font-family="Helvetica,sans-Serif" font-size="10.00">Attribute_rangeCFddd.s</text>
</a>
</g>
</g>
<!-- Node1&#45;&gt;Node16 -->
<g id="edge22" class="edge">
<title>Node1&#45;&gt;Node16</title>
<path fill="none" stroke="midnightblue" d="M1990.25,-416.03C1825.83,-414.19 1338.26,-405.46 1185,-366 1173.34,-363 1161.38,-358.43 1150.17,-353.39"/>
<polygon fill="midnightblue" stroke="midnightblue" points="1151.49,-350.14 1140.95,-349.07 1148.52,-356.48 1151.49,-350.14"/>
</g>
<!-- Node17 -->
<g id="node17" class="node">
<title>Node17</title>
<g id="a_node17"><a xlink:title=" ">
<polygon fill="white" stroke="#bfbfbf" points="1194,-302.5 1194,-343.5 1348,-343.5 1348,-302.5 1194,-302.5"/>
<text text-anchor="start" x="1202" y="-331.5" font-family="Helvetica,sans-Serif" font-size="10.00">JSystem/JGadget/asm</text>
<text text-anchor="start" x="1202" y="-320.5" font-family="Helvetica,sans-Serif" font-size="10.00">/__ct__Q27JStudio24TFunction</text>
<text text-anchor="middle" x="1271" y="-309.5" font-family="Helvetica,sans-Serif" font-size="10.00">Value_compositeFv.s</text>
</a>
</g>
</g>
<!-- Node1&#45;&gt;Node17 -->
<g id="edge23" class="edge">
<title>Node1&#45;&gt;Node17</title>
<path fill="none" stroke="midnightblue" d="M1990.4,-415.16C1849.47,-411.28 1476.16,-398.18 1357,-366 1342.01,-361.95 1326.51,-355.26 1312.86,-348.4"/>
<polygon fill="midnightblue" stroke="midnightblue" points="1314.23,-345.17 1303.74,-343.65 1310.99,-351.38 1314.23,-345.17"/>
</g>
<!-- Node18 -->
<g id="node18" class="node">
<title>Node18</title>
<g id="a_node18"><a xlink:title=" ">
<polygon fill="white" stroke="#bfbfbf" points="1366,-297 1366,-349 1586,-349 1586,-297 1366,-297"/>
<text text-anchor="start" x="1374" y="-337" font-family="Helvetica,sans-Serif" font-size="10.00">JSystem/JStudio/asm</text>
<text text-anchor="start" x="1374" y="-326" font-family="Helvetica,sans-Serif" font-size="10.00">/composite_raw__Q27JStudio24</text>
<text text-anchor="start" x="1374" y="-315" font-family="Helvetica,sans-Serif" font-size="10.00">TFunctionValue_compositeFRCQ27JGadget44</text>
<text text-anchor="middle" x="1476" y="-304" font-family="Helvetica,sans-Serif" font-size="10.00">TVector_pointer.s</text>
</a>
</g>
</g>
<!-- Node1&#45;&gt;Node18 -->
<g id="edge24" class="edge">
<title>Node1&#45;&gt;Node18</title>
<path fill="none" stroke="midnightblue" d="M1990.3,-414.37C1904.92,-410.15 1735.22,-398.17 1595,-366 1579.67,-362.48 1563.59,-357.64 1548.37,-352.48"/>
<polygon fill="midnightblue" stroke="midnightblue" points="1549.11,-349.03 1538.51,-349.06 1546.81,-355.65 1549.11,-349.03"/>
</g>
<!-- Node19 -->
<g id="node19" class="node">
<title>Node19</title>
<g id="a_node19"><a xlink:title=" ">
<polygon fill="white" stroke="#bfbfbf" points="1604,-297 1604,-349 1824,-349 1824,-297 1604,-297"/>
<text text-anchor="start" x="1612" y="-337" font-family="Helvetica,sans-Serif" font-size="10.00">JSystem/JStudio/asm</text>
<text text-anchor="start" x="1612" y="-326" font-family="Helvetica,sans-Serif" font-size="10.00">/composite_index__Q27JStudio24</text>
<text text-anchor="start" x="1612" y="-315" font-family="Helvetica,sans-Serif" font-size="10.00">TFunctionValue_compositeFRCQ27JGadget44</text>
<text text-anchor="middle" x="1714" y="-304" font-family="Helvetica,sans-Serif" font-size="10.00">TVector_pointer.s</text>
</a>
</g>
</g>
<!-- Node1&#45;&gt;Node19 -->
<g id="edge25" class="edge">
<title>Node1&#45;&gt;Node19</title>
<path fill="none" stroke="midnightblue" d="M1990.12,-405.09C1947.07,-395.75 1885.81,-381.56 1833,-366 1819.17,-361.92 1804.59,-357.17 1790.55,-352.35"/>
<polygon fill="midnightblue" stroke="midnightblue" points="1791.53,-348.99 1780.93,-349.01 1789.23,-355.6 1791.53,-348.99"/>
</g>
<!-- Node20 -->
<g id="node20" class="node">
<title>Node20</title>
<g id="a_node20"><a xlink:title=" ">
<polygon fill="white" stroke="#bfbfbf" points="1842,-291.5 1842,-354.5 2028,-354.5 2028,-291.5 1842,-291.5"/>
<text text-anchor="start" x="1850" y="-342.5" font-family="Helvetica,sans-Serif" font-size="10.00">JSystem/JStudio/asm</text>
<text text-anchor="start" x="1850" y="-331.5" font-family="Helvetica,sans-Serif" font-size="10.00">/composite_parameter</text>
<text text-anchor="start" x="1850" y="-320.5" font-family="Helvetica,sans-Serif" font-size="10.00">__Q27JStudio24TFunctionValue</text>
<text text-anchor="start" x="1850" y="-309.5" font-family="Helvetica,sans-Serif" font-size="10.00">_compositeFRCQ27JGadget44TVector</text>
<text text-anchor="middle" x="1935" y="-298.5" font-family="Helvetica,sans-Serif" font-size="10.00">_pointer.s</text>
</a>
</g>
</g>
<!-- Node1&#45;&gt;Node20 -->
<g id="edge26" class="edge">
<title>Node1&#45;&gt;Node20</title>
<path fill="none" stroke="midnightblue" d="M2028.29,-402.45C2015.26,-391.49 1996.54,-375.75 1979.28,-361.24"/>
<polygon fill="midnightblue" stroke="midnightblue" points="1981.39,-358.44 1971.48,-354.68 1976.88,-363.79 1981.39,-358.44"/>
</g>
<!-- Node21 -->
<g id="node21" class="node">
<title>Node21</title>
<g id="a_node21"><a xlink:title=" ">
<polygon fill="white" stroke="#bfbfbf" points="2046,-297 2046,-349 2266,-349 2266,-297 2046,-297"/>
<text text-anchor="start" x="2054" y="-337" font-family="Helvetica,sans-Serif" font-size="10.00">JSystem/JStudio/asm</text>
<text text-anchor="start" x="2054" y="-326" font-family="Helvetica,sans-Serif" font-size="10.00">/composite_add__Q27JStudio24</text>
<text text-anchor="start" x="2054" y="-315" font-family="Helvetica,sans-Serif" font-size="10.00">TFunctionValue_compositeFRCQ27JGadget44</text>
<text text-anchor="middle" x="2156" y="-304" font-family="Helvetica,sans-Serif" font-size="10.00">TVector_pointer.s</text>
</a>
</g>
</g>
<!-- Node1&#45;&gt;Node21 -->
<g id="edge27" class="edge">
<title>Node1&#45;&gt;Node21</title>
<path fill="none" stroke="midnightblue" d="M2061.86,-402.45C2076.78,-390.01 2099.11,-371.41 2118.28,-355.44"/>
<polygon fill="midnightblue" stroke="midnightblue" points="2120.55,-358.1 2125.99,-349.01 2116.07,-352.72 2120.55,-358.1"/>
</g>
<!-- Node22 -->
<g id="node22" class="node">
<title>Node22</title>
<g id="a_node22"><a xlink:title=" ">
<polygon fill="white" stroke="#bfbfbf" points="2284,-291.5 2284,-354.5 2470,-354.5 2470,-291.5 2284,-291.5"/>
<text text-anchor="start" x="2292" y="-342.5" font-family="Helvetica,sans-Serif" font-size="10.00">JSystem/JStudio/asm</text>
<text text-anchor="start" x="2292" y="-331.5" font-family="Helvetica,sans-Serif" font-size="10.00">/composite_subtract</text>
<text text-anchor="start" x="2292" y="-320.5" font-family="Helvetica,sans-Serif" font-size="10.00">__Q27JStudio24TFunctionValue</text>
<text text-anchor="start" x="2292" y="-309.5" font-family="Helvetica,sans-Serif" font-size="10.00">_compositeFRCQ27JGadget44TVector</text>
<text text-anchor="middle" x="2377" y="-298.5" font-family="Helvetica,sans-Serif" font-size="10.00">_pointer.s</text>
</a>
</g>
</g>
<!-- Node1&#45;&gt;Node22 -->
<g id="edge28" class="edge">
<title>Node1&#45;&gt;Node22</title>
<path fill="none" stroke="midnightblue" d="M2099.61,-407.29C2146.65,-398.7 2216.09,-384.44 2275,-366 2282.54,-363.64 2290.29,-360.95 2298,-358.1"/>
<polygon fill="midnightblue" stroke="midnightblue" points="2299.25,-361.37 2307.36,-354.55 2296.77,-354.82 2299.25,-361.37"/>
</g>
<!-- Node23 -->
<g id="node23" class="node">
<title>Node23</title>
<g id="a_node23"><a xlink:title=" ">
<polygon fill="white" stroke="#bfbfbf" points="2488,-291.5 2488,-354.5 2674,-354.5 2674,-291.5 2488,-291.5"/>
<text text-anchor="start" x="2496" y="-342.5" font-family="Helvetica,sans-Serif" font-size="10.00">JSystem/JStudio/asm</text>
<text text-anchor="start" x="2496" y="-331.5" font-family="Helvetica,sans-Serif" font-size="10.00">/composite_multiply</text>
<text text-anchor="start" x="2496" y="-320.5" font-family="Helvetica,sans-Serif" font-size="10.00">__Q27JStudio24TFunctionValue</text>
<text text-anchor="start" x="2496" y="-309.5" font-family="Helvetica,sans-Serif" font-size="10.00">_compositeFRCQ27JGadget44TVector</text>
<text text-anchor="middle" x="2581" y="-298.5" font-family="Helvetica,sans-Serif" font-size="10.00">_pointer.s</text>
</a>
</g>
</g>
<!-- Node1&#45;&gt;Node23 -->
<g id="edge29" class="edge">
<title>Node1&#45;&gt;Node23</title>
<path fill="none" stroke="midnightblue" d="M2099.67,-414.94C2182.82,-411.49 2345.53,-400.54 2479,-366 2487.42,-363.82 2496.06,-361.09 2504.58,-358.08"/>
<polygon fill="midnightblue" stroke="midnightblue" points="2505.95,-361.31 2514.13,-354.57 2503.54,-354.74 2505.95,-361.31"/>
</g>
<!-- Node24 -->
<g id="node24" class="node">
<title>Node24</title>
<g id="a_node24"><a xlink:title=" ">
<polygon fill="white" stroke="#bfbfbf" points="2692,-297 2692,-349 2912,-349 2912,-297 2692,-297"/>
<text text-anchor="start" x="2700" y="-337" font-family="Helvetica,sans-Serif" font-size="10.00">JSystem/JStudio/asm</text>
<text text-anchor="start" x="2700" y="-326" font-family="Helvetica,sans-Serif" font-size="10.00">/composite_divide__Q27JStudio24</text>
<text text-anchor="start" x="2700" y="-315" font-family="Helvetica,sans-Serif" font-size="10.00">TFunctionValue_compositeFRCQ27JGadget44</text>
<text text-anchor="middle" x="2802" y="-304" font-family="Helvetica,sans-Serif" font-size="10.00">TVector_pointer.s</text>
</a>
</g>
</g>
<!-- Node1&#45;&gt;Node24 -->
<g id="edge30" class="edge">
<title>Node1&#45;&gt;Node24</title>
<path fill="none" stroke="midnightblue" d="M2099.88,-416.93C2211.15,-416.75 2470.78,-411.04 2683,-366 2698.88,-362.63 2715.55,-357.69 2731.2,-352.37"/>
<polygon fill="midnightblue" stroke="midnightblue" points="2732.52,-355.62 2740.81,-349.02 2730.21,-349.01 2732.52,-355.62"/>
</g>
<!-- Node25 -->
<g id="node25" class="node">
<title>Node25</title>
<g id="a_node25"><a xlink:title=" ">
<polygon fill="white" stroke="#bfbfbf" points="2930.5,-302.5 2930.5,-343.5 3103.5,-343.5 3103.5,-302.5 2930.5,-302.5"/>
<text text-anchor="start" x="2938.5" y="-331.5" font-family="Helvetica,sans-Serif" font-size="10.00">JSystem/JStudio/asm</text>
<text text-anchor="start" x="2938.5" y="-320.5" font-family="Helvetica,sans-Serif" font-size="10.00">/getValue__Q27JStudio25TFunction</text>
<text text-anchor="middle" x="3017" y="-309.5" font-family="Helvetica,sans-Serif" font-size="10.00">Value_transitionFd.s</text>
</a>
</g>
</g>
<!-- Node1&#45;&gt;Node25 -->
<g id="edge31" class="edge">
<title>Node1&#45;&gt;Node25</title>
<path fill="none" stroke="midnightblue" d="M2099.53,-415.87C2265.68,-413.57 2763.87,-403.62 2921,-366 2938,-361.93 2955.75,-355 2971.31,-347.93"/>
<polygon fill="midnightblue" stroke="midnightblue" points="2973.12,-350.95 2980.68,-343.54 2970.14,-344.61 2973.12,-350.95"/>
</g>
<!-- Node26 -->
<g id="node26" class="node">
<title>Node26</title>
<g id="a_node26"><a xlink:title=" ">
<polygon fill="white" stroke="#bfbfbf" points="3121.5,-302.5 3121.5,-343.5 3294.5,-343.5 3294.5,-302.5 3121.5,-302.5"/>
<text text-anchor="start" x="3129.5" y="-331.5" font-family="Helvetica,sans-Serif" font-size="10.00">JSystem/JStudio/asm</text>
<text text-anchor="start" x="3129.5" y="-320.5" font-family="Helvetica,sans-Serif" font-size="10.00">/getValue__Q27JStudio19TFunction</text>
<text text-anchor="middle" x="3208" y="-309.5" font-family="Helvetica,sans-Serif" font-size="10.00">Value_listFd.s</text>
</a>
</g>
</g>
<!-- Node1&#45;&gt;Node26 -->
<g id="edge32" class="edge">
<title>Node1&#45;&gt;Node26</title>
<path fill="none" stroke="midnightblue" d="M2099.79,-416.56C2289.53,-416.36 2917.55,-412.13 3113,-366 3129.86,-362.02 3147.44,-355.11 3162.83,-348.04"/>
<polygon fill="midnightblue" stroke="midnightblue" points="3164.57,-351.09 3172.11,-343.63 3161.57,-344.76 3164.57,-351.09"/>
</g>
<!-- Node27 -->
<g id="node27" class="node">
<title>Node27</title>
<g id="a_node27"><a xlink:title=" ">
<polygon fill="white" stroke="#bfbfbf" points="3313,-280.5 3313,-365.5 3497,-365.5 3497,-280.5 3313,-280.5"/>
<text text-anchor="start" x="3321" y="-353.5" font-family="Helvetica,sans-Serif" font-size="10.00">JSystem/JStudio/asm</text>
<text text-anchor="start" x="3321" y="-342.5" font-family="Helvetica,sans-Serif" font-size="10.00">/update_INTERPOLATE</text>
<text text-anchor="start" x="3321" y="-331.5" font-family="Helvetica,sans-Serif" font-size="10.00">_BSPLINE_dataMore3__</text>
<text text-anchor="start" x="3321" y="-320.5" font-family="Helvetica,sans-Serif" font-size="10.00">_Q27JStudio19TFunctionValue</text>
<text text-anchor="start" x="3321" y="-309.5" font-family="Helvetica,sans-Serif" font-size="10.00">_listFRCQ27JStudio19TFunctionValue</text>
<text text-anchor="start" x="3321" y="-298.5" font-family="Helvetica,sans-Serif" font-size="10.00">_listRCQ37JStudio19TFunctionValue</text>
<text text-anchor="middle" x="3405" y="-287.5" font-family="Helvetica,sans-Serif" font-size="10.00">_list11TIndexData_.s</text>
</a>
</g>
</g>
<!-- Node1&#45;&gt;Node27 -->
<g id="edge33" class="edge">
<title>Node1&#45;&gt;Node27</title>
<path fill="none" stroke="midnightblue" d="M2099.82,-416.86C2307.92,-417.86 3049.51,-417.74 3303.06,-365.91"/>
<polygon fill="midnightblue" stroke="midnightblue" points="3303.9,-369.31 3312.96,-363.8 3302.45,-362.46 3303.9,-369.31"/>
</g>
<!-- Node28 -->
<g id="node28" class="node">
<title>Node28</title>
<g id="a_node28"><a xlink:title=" ">
<polygon fill="white" stroke="#bfbfbf" points="3515.5,-302.5 3515.5,-343.5 3688.5,-343.5 3688.5,-302.5 3515.5,-302.5"/>
<text text-anchor="start" x="3523.5" y="-331.5" font-family="Helvetica,sans-Serif" font-size="10.00">JSystem/JStudio/asm</text>
<text text-anchor="start" x="3523.5" y="-320.5" font-family="Helvetica,sans-Serif" font-size="10.00">/getValue__Q27JStudio29TFunction</text>
<text text-anchor="middle" x="3602" y="-309.5" font-family="Helvetica,sans-Serif" font-size="10.00">Value_list_parameterFd.s</text>
</a>
</g>
</g>
<!-- Node1&#45;&gt;Node28 -->
<g id="edge34" class="edge">
<title>Node1&#45;&gt;Node28</title>
<path fill="none" stroke="midnightblue" d="M2099.61,-415.83C2348.24,-412.61 3367.1,-397.57 3506,-366 3523.19,-362.09 3541.12,-355.13 3556.76,-347.98"/>
<polygon fill="midnightblue" stroke="midnightblue" points="3558.64,-350.96 3566.18,-343.53 3555.65,-344.63 3558.64,-350.96"/>
</g>
<!-- Node29 -->
<g id="node29" class="node">
<title>Node29</title>
<g id="a_node29"><a xlink:title=" ">
<polygon fill="white" stroke="#bfbfbf" points="3707,-286 3707,-360 3915,-360 3915,-286 3707,-286"/>
<text text-anchor="start" x="3715" y="-348" font-family="Helvetica,sans-Serif" font-size="10.00">JSystem/JStudio/asm</text>
<text text-anchor="start" x="3715" y="-337" font-family="Helvetica,sans-Serif" font-size="10.00">/update_INTERPOLATE</text>
<text text-anchor="start" x="3715" y="-326" font-family="Helvetica,sans-Serif" font-size="10.00">_BSPLINE_dataMore3__</text>
<text text-anchor="start" x="3715" y="-315" font-family="Helvetica,sans-Serif" font-size="10.00">_Q27JStudio29TFunctionValue</text>
<text text-anchor="start" x="3715" y="-304" font-family="Helvetica,sans-Serif" font-size="10.00">_list_parameterFRCQ27JStudio29TFunction</text>
<text text-anchor="middle" x="3811" y="-293" font-family="Helvetica,sans-Serif" font-size="10.00">Value_list_parameterd.s</text>
</a>
</g>
</g>
<!-- Node1&#45;&gt;Node29 -->
<g id="edge35" class="edge">
<title>Node1&#45;&gt;Node29</title>
<path fill="none" stroke="midnightblue" d="M2099.88,-415.88C2368.54,-412.71 3538.54,-397.2 3698,-366 3702.7,-365.08 3707.45,-363.99 3712.22,-362.77"/>
<polygon fill="midnightblue" stroke="midnightblue" points="3713.3,-366.1 3722.02,-360.09 3711.45,-359.35 3713.3,-366.1"/>
</g>
<!-- Node30 -->
<g id="node30" class="node">
<title>Node30</title>
<g id="a_node30"><a xlink:title=" ">
<polygon fill="white" stroke="#bfbfbf" points="3933.5,-302.5 3933.5,-343.5 4106.5,-343.5 4106.5,-302.5 3933.5,-302.5"/>
<text text-anchor="start" x="3941.5" y="-331.5" font-family="Helvetica,sans-Serif" font-size="10.00">JSystem/JStudio/asm</text>
<text text-anchor="start" x="3941.5" y="-320.5" font-family="Helvetica,sans-Serif" font-size="10.00">/getValue__Q27JStudio22TFunction</text>
<text text-anchor="middle" x="4020" y="-309.5" font-family="Helvetica,sans-Serif" font-size="10.00">Value_hermiteFd.s</text>
</a>
</g>
</g>
<!-- Node1&#45;&gt;Node30 -->
<g id="edge36" class="edge">
<title>Node1&#45;&gt;Node30</title>
<path fill="none" stroke="midnightblue" d="M2099.57,-416.28C2389.4,-414.95 3742.16,-406.59 3924,-366 3941.2,-362.16 3959.14,-355.21 3974.78,-348.05"/>
<polygon fill="midnightblue" stroke="midnightblue" points="3976.66,-351.04 3984.2,-343.6 3973.66,-344.71 3976.66,-351.04"/>
</g>
<!-- Node3 -->
<g id="node3" class="node">
<title>Node3</title>
<g id="a_node3"><a xlink:href="search_8h.html" target="_top" xlink:title=" ">
<polygon fill="white" stroke="black" points="0,-224.5 0,-243.5 134,-243.5 134,-224.5 0,-224.5"/>
<text text-anchor="middle" x="67" y="-231.5" font-family="Helvetica,sans-Serif" font-size="10.00">JSystem/JGadget/search.h</text>
</a>
</g>
</g>
<!-- Node2&#45;&gt;Node3 -->
<g id="edge2" class="edge">
<title>Node2&#45;&gt;Node3</title>
<path fill="none" stroke="midnightblue" d="M193.32,-313.5C169.23,-298.53 119.02,-267.33 89.68,-249.09"/>
<polygon fill="midnightblue" stroke="midnightblue" points="91.28,-245.97 80.94,-243.66 87.59,-251.91 91.28,-245.97"/>
</g>
<!-- Node4 -->
<g id="node4" class="node">
<title>Node4</title>
<g id="a_node4"><a xlink:href="global_8h.html" target="_top" xlink:title=" ">
<polygon fill="white" stroke="black" points="129,-168.5 129,-187.5 179,-187.5 179,-168.5 129,-168.5"/>
<text text-anchor="middle" x="154" y="-175.5" font-family="Helvetica,sans-Serif" font-size="10.00">global.h</text>
</a>
</g>
</g>
<!-- Node2&#45;&gt;Node4 -->
<g id="edge16" class="edge">
<title>Node2&#45;&gt;Node4</title>
<path fill="none" stroke="midnightblue" d="M203.84,-313.48C195.43,-290.79 172.33,-228.45 160.77,-197.27"/>
<polygon fill="midnightblue" stroke="midnightblue" points="163.96,-195.81 157.21,-187.65 157.4,-198.25 163.96,-195.81"/>
</g>
<!-- Node11 -->
<g id="node11" class="node">
<title>Node11</title>
<g id="a_node11"><a xlink:href="JGadget_2vector_8h.html" target="_top" xlink:title=" ">
<polygon fill="white" stroke="black" points="190,-224.5 190,-243.5 322,-243.5 322,-224.5 190,-224.5"/>
<text text-anchor="middle" x="256" y="-231.5" font-family="Helvetica,sans-Serif" font-size="10.00">JSystem/JGadget/vector.h</text>
</a>
</g>
</g>
<!-- Node2&#45;&gt;Node11 -->
<g id="edge14" class="edge">
<title>Node2&#45;&gt;Node11</title>
<path fill="none" stroke="midnightblue" d="M211.88,-313.34C219.84,-299.2 235.78,-270.9 246.16,-252.47"/>
<polygon fill="midnightblue" stroke="midnightblue" points="249.28,-254.06 251.14,-243.62 243.19,-250.62 249.28,-254.06"/>
</g>
<!-- Node3&#45;&gt;Node4 -->
<g id="edge3" class="edge">
<title>Node3&#45;&gt;Node4</title>
<path fill="none" stroke="midnightblue" d="M80.98,-224.32C94.55,-215.9 115.38,-202.97 131.32,-193.07"/>
<polygon fill="midnightblue" stroke="midnightblue" points="133.41,-195.9 140.06,-187.65 129.71,-189.95 133.41,-195.9"/>
</g>
<!-- Node5 -->
<g id="node5" class="node">
<title>Node5</title>
<g id="a_node5"><a xlink:href="types_8h.html" target="_top" xlink:title=" ">
<polygon fill="white" stroke="black" points="170.5,-0.5 170.5,-19.5 251.5,-19.5 251.5,-0.5 170.5,-0.5"/>
<text text-anchor="middle" x="211" y="-7.5" font-family="Helvetica,sans-Serif" font-size="10.00">dolphin/types.h</text>
</a>
</g>
</g>
<!-- Node4&#45;&gt;Node5 -->
<g id="edge4" class="edge">
<title>Node4&#45;&gt;Node5</title>
<path fill="none" stroke="midnightblue" d="M140.96,-168.25C112.36,-148 48.94,-96.52 78,-56 96.62,-30.04 131.03,-18.87 160.18,-14.14"/>
<polygon fill="midnightblue" stroke="midnightblue" points="160.83,-17.59 170.24,-12.73 159.85,-10.66 160.83,-17.59"/>
</g>
<!-- Node6 -->
<g id="node6" class="node">
<title>Node6</title>
<g id="a_node6"><a xlink:href="AR_8h.html" target="_top" xlink:title=" ">
<polygon fill="white" stroke="black" points="87.5,-56.5 87.5,-75.5 136.5,-75.5 136.5,-56.5 87.5,-56.5"/>
<text text-anchor="middle" x="112" y="-63.5" font-family="Helvetica,sans-Serif" font-size="10.00">ar/AR.h</text>
</a>
</g>
</g>
<!-- Node4&#45;&gt;Node6 -->
<g id="edge5" class="edge">
<title>Node4&#45;&gt;Node6</title>
<path fill="none" stroke="midnightblue" d="M150.7,-168.37C143.87,-150.46 128.01,-108.92 118.85,-84.95"/>
<polygon fill="midnightblue" stroke="midnightblue" points="122.12,-83.69 115.28,-75.59 115.58,-86.18 122.12,-83.69"/>
</g>
<!-- Node7 -->
<g id="node7" class="node">
<title>Node7</title>
<g id="a_node7"><a xlink:href="ARQ_8h.html" target="_top" xlink:title=" ">
<polygon fill="white" stroke="black" points="155,-56.5 155,-75.5 211,-75.5 211,-56.5 155,-56.5"/>
<text text-anchor="middle" x="183" y="-63.5" font-family="Helvetica,sans-Serif" font-size="10.00">ar/ARQ.h</text>
</a>
</g>
</g>
<!-- Node4&#45;&gt;Node7 -->
<g id="edge7" class="edge">
<title>Node4&#45;&gt;Node7</title>
<path fill="none" stroke="midnightblue" d="M156.28,-168.37C160.98,-150.54 171.85,-109.3 178.18,-85.27"/>
<polygon fill="midnightblue" stroke="midnightblue" points="181.57,-86.15 180.73,-75.59 174.8,-84.37 181.57,-86.15"/>
</g>
<!-- Node8 -->
<g id="node8" class="node">
<title>Node8</title>
<g id="a_node8"><a xlink:href="mwcc_8h.html" target="_top" xlink:title=" ">
<polygon fill="white" stroke="black" points="181,-112.5 181,-131.5 231,-131.5 231,-112.5 181,-112.5"/>
<text text-anchor="middle" x="206" y="-119.5" font-family="Helvetica,sans-Serif" font-size="10.00">mwcc.h</text>
</a>
</g>
</g>
<!-- Node4&#45;&gt;Node8 -->
<g id="edge9" class="edge">
<title>Node4&#45;&gt;Node8</title>
<path fill="none" stroke="midnightblue" d="M162.59,-168.08C170.16,-160.22 181.38,-148.57 190.51,-139.08"/>
<polygon fill="midnightblue" stroke="midnightblue" points="193.16,-141.38 197.57,-131.75 188.12,-136.53 193.16,-141.38"/>
</g>
<!-- Node9 -->
<g id="node9" class="node">
<title>Node9</title>
<g id="a_node9"><a xlink:href="OS_8h.html" target="_top" xlink:title=" ">
<polygon fill="white" stroke="black" points="249,-112.5 249,-131.5 301,-131.5 301,-112.5 249,-112.5"/>
<text text-anchor="middle" x="275" y="-119.5" font-family="Helvetica,sans-Serif" font-size="10.00">os/OS.h</text>
</a>
</g>
</g>
<!-- Node4&#45;&gt;Node9 -->
<g id="edge10" class="edge">
<title>Node4&#45;&gt;Node9</title>
<path fill="none" stroke="midnightblue" d="M173.17,-168.44C192.91,-159.64 223.89,-145.81 246.49,-135.72"/>
<polygon fill="midnightblue" stroke="midnightblue" points="248.21,-138.79 255.92,-131.52 245.36,-132.4 248.21,-138.79"/>
</g>
<!-- Node6&#45;&gt;Node5 -->
<g id="edge6" class="edge">
<title>Node6&#45;&gt;Node5</title>
<path fill="none" stroke="midnightblue" d="M127.91,-56.32C143.64,-47.74 167.94,-34.49 186.21,-24.52"/>
<polygon fill="midnightblue" stroke="midnightblue" points="188.03,-27.52 195.13,-19.65 184.68,-21.37 188.03,-27.52"/>
</g>
<!-- Node7&#45;&gt;Node5 -->
<g id="edge8" class="edge">
<title>Node7&#45;&gt;Node5</title>
<path fill="none" stroke="midnightblue" d="M187.62,-56.08C191.46,-48.69 197.02,-37.95 201.76,-28.81"/>
<polygon fill="midnightblue" stroke="midnightblue" points="204.97,-30.24 206.46,-19.75 198.75,-27.02 204.97,-30.24"/>
</g>
<!-- Node9&#45;&gt;Node5 -->
<g id="edge11" class="edge">
<title>Node9&#45;&gt;Node5</title>
<path fill="none" stroke="midnightblue" d="M269.98,-112.37C259.46,-94.3 234.96,-52.18 221.07,-28.31"/>
<polygon fill="midnightblue" stroke="midnightblue" points="224.05,-26.47 216,-19.59 218,-30 224.05,-26.47"/>
</g>
<!-- Node10 -->
<g id="node10" class="node">
<title>Node10</title>
<g id="a_node10"><a xlink:href="dvd_8h.html" target="_top" xlink:title=" ">
<polygon fill="white" stroke="black" points="267.5,-56.5 267.5,-75.5 326.5,-75.5 326.5,-56.5 267.5,-56.5"/>
<text text-anchor="middle" x="297" y="-63.5" font-family="Helvetica,sans-Serif" font-size="10.00">dvd/dvd.h</text>
</a>
</g>
</g>
<!-- Node9&#45;&gt;Node10 -->
<g id="edge12" class="edge">
<title>Node9&#45;&gt;Node10</title>
<path fill="none" stroke="midnightblue" d="M278.63,-112.08C281.61,-104.77 285.93,-94.18 289.62,-85.1"/>
<polygon fill="midnightblue" stroke="midnightblue" points="292.9,-86.33 293.43,-75.75 286.42,-83.69 292.9,-86.33"/>
</g>
<!-- Node10&#45;&gt;Node5 -->
<g id="edge13" class="edge">
<title>Node10&#45;&gt;Node5</title>
<path fill="none" stroke="midnightblue" d="M283.18,-56.32C269.77,-47.9 249.18,-34.97 233.41,-25.07"/>
<polygon fill="midnightblue" stroke="midnightblue" points="235.11,-22.01 224.78,-19.65 231.39,-27.94 235.11,-22.01"/>
</g>
<!-- Node11&#45;&gt;Node4 -->
<g id="edge15" class="edge">
<title>Node11&#45;&gt;Node4</title>
<path fill="none" stroke="midnightblue" d="M239.61,-224.32C223.33,-215.7 198.13,-202.36 179.28,-192.39"/>
<polygon fill="midnightblue" stroke="midnightblue" points="180.82,-189.24 170.35,-187.65 177.55,-195.43 180.82,-189.24"/>
</g>
<!-- Node12&#45;&gt;Node5 -->
<g id="edge18" class="edge">
<title>Node12&#45;&gt;Node5</title>
<path fill="none" stroke="midnightblue" d="M355.47,-168.2C358.59,-146.45 363.46,-89.51 336,-56 317.8,-33.79 287.75,-22.54 261.67,-16.84"/>
<polygon fill="midnightblue" stroke="midnightblue" points="262.02,-13.35 251.53,-14.86 260.67,-20.21 262.02,-13.35"/>
</g>
</g>
</svg>
