<?xml version="1.0" encoding="UTF-8" standalone="no"?>
<!DOCTYPE svg PUBLIC "-//W3C//DTD SVG 1.1//EN"
 "http://www.w3.org/Graphics/SVG/1.1/DTD/svg11.dtd">
<!-- Generated by graphviz version 2.44.0 ()
 -->
<!-- Title: libs/JSystem/JStudio/fvb.cpp Pages: 1 -->
<svg width="2140pt" height="464pt"
 viewBox="0.00 0.00 2140.00 464.00" xmlns="http://www.w3.org/2000/svg" xmlns:xlink="http://www.w3.org/1999/xlink">
<g id="graph0" class="graph" transform="scale(1 1) rotate(0) translate(4 460)">
<title>libs/JSystem/JStudio/fvb.cpp</title>
<polygon fill="white" stroke="transparent" points="-4,4 -4,-460 2136,-460 2136,4 -4,4"/>
<!-- Node1 -->
<g id="node1" class="node">
<title>Node1</title>
<g id="a_node1"><a xlink:title=" ">
<polygon fill="#bfbfbf" stroke="black" points="1106,-425.5 1106,-455.5 1215,-455.5 1215,-425.5 1106,-425.5"/>
<text text-anchor="start" x="1114" y="-443.5" font-family="Helvetica,sans-Serif" font-size="10.00">libs/JSystem/JStudio</text>
<text text-anchor="middle" x="1160.5" y="-432.5" font-family="Helvetica,sans-Serif" font-size="10.00">/fvb.cpp</text>
</a>
</g>
</g>
<!-- Node2 -->
<g id="node2" class="node">
<title>Node2</title>
<g id="a_node2"><a xlink:href="fvb_8h.html" target="_top" xlink:title=" ">
<polygon fill="white" stroke="black" points="235,-353 235,-372 350,-372 350,-353 235,-353"/>
<text text-anchor="middle" x="292.5" y="-360" font-family="Helvetica,sans-Serif" font-size="10.00">JSystem/JStudio/fvb.h</text>
</a>
</g>
</g>
<!-- Node1&#45;&gt;Node2 -->
<g id="edge1" class="edge">
<title>Node1&#45;&gt;Node2</title>
<path fill="none" stroke="midnightblue" d="M1105.98,-438.23C949.6,-434.25 501.59,-420.37 358.5,-389 345.28,-386.1 331.22,-380.98 319.49,-376.08"/>
<polygon fill="midnightblue" stroke="midnightblue" points="320.81,-372.84 310.25,-372.07 318.03,-379.26 320.81,-372.84"/>
</g>
<!-- Node16 -->
<g id="node16" class="node">
<title>Node16</title>
<g id="a_node16"><a xlink:title=" ">
<polygon fill="white" stroke="#bfbfbf" points="368,-336.5 368,-388.5 547,-388.5 547,-336.5 368,-336.5"/>
<text text-anchor="start" x="376" y="-376.5" font-family="Helvetica,sans-Serif" font-size="10.00">JSystem/JStudio/asm</text>
<text text-anchor="start" x="376" y="-365.5" font-family="Helvetica,sans-Serif" font-size="10.00">/prepare__Q37JStudio3fvb7TObject</text>
<text text-anchor="start" x="376" y="-354.5" font-family="Helvetica,sans-Serif" font-size="10.00">FRCQ47JStudio3fvb4data13TParse</text>
<text text-anchor="middle" x="457.5" y="-343.5" font-family="Helvetica,sans-Serif" font-size="10.00">_TBlockPQ37JStudio3fvb8TControl.s</text>
</a>
</g>
</g>
<!-- Node1&#45;&gt;Node16 -->
<g id="edge25" class="edge">
<title>Node1&#45;&gt;Node16</title>
<path fill="none" stroke="midnightblue" d="M1105.97,-438.02C1001.27,-434.51 764.8,-423.35 557.07,-388.96"/>
<polygon fill="midnightblue" stroke="midnightblue" points="557.64,-385.51 547.2,-387.31 556.48,-392.41 557.64,-385.51"/>
</g>
<!-- Node17 -->
<g id="node17" class="node">
<title>Node17</title>
<g id="a_node17"><a xlink:title=" ">
<polygon fill="white" stroke="#bfbfbf" points="565,-336.5 565,-388.5 756,-388.5 756,-336.5 565,-336.5"/>
<text text-anchor="start" x="573" y="-376.5" font-family="Helvetica,sans-Serif" font-size="10.00">JSystem/JStudio/asm</text>
<text text-anchor="start" x="573" y="-365.5" font-family="Helvetica,sans-Serif" font-size="10.00">/__ct__Q37JStudio3fvb17TObject</text>
<text text-anchor="start" x="573" y="-354.5" font-family="Helvetica,sans-Serif" font-size="10.00">_compositeFRCQ47JStudio3fvb4data13</text>
<text text-anchor="middle" x="660.5" y="-343.5" font-family="Helvetica,sans-Serif" font-size="10.00">TParse_TBlock.s</text>
</a>
</g>
</g>
<!-- Node1&#45;&gt;Node17 -->
<g id="edge26" class="edge">
<title>Node1&#45;&gt;Node17</title>
<path fill="none" stroke="midnightblue" d="M1105.89,-434.46C1031.34,-427.14 893.4,-412.09 766.18,-389.04"/>
<polygon fill="midnightblue" stroke="midnightblue" points="766.72,-385.58 756.26,-387.22 765.46,-392.46 766.72,-385.58"/>
</g>
<!-- Node18 -->
<g id="node18" class="node">
<title>Node18</title>
<g id="a_node18"><a xlink:title=" ">
<polygon fill="white" stroke="#bfbfbf" points="774,-336.5 774,-388.5 1035,-388.5 1035,-336.5 774,-336.5"/>
<text text-anchor="start" x="782" y="-376.5" font-family="Helvetica,sans-Serif" font-size="10.00">JSystem/JStudio/asm</text>
<text text-anchor="start" x="782" y="-365.5" font-family="Helvetica,sans-Serif" font-size="10.00">/prepare_data___Q37JStudio3fvb17</text>
<text text-anchor="start" x="782" y="-354.5" font-family="Helvetica,sans-Serif" font-size="10.00">TObject_compositeFRCQ57JStudio3fvb4data17</text>
<text text-anchor="middle" x="904.5" y="-343.5" font-family="Helvetica,sans-Serif" font-size="10.00">TParse_TParagraph5TDataPQ37JStudio3fvb8TControl.s</text>
</a>
</g>
</g>
<!-- Node1&#45;&gt;Node18 -->
<g id="edge27" class="edge">
<title>Node1&#45;&gt;Node18</title>
<path fill="none" stroke="midnightblue" d="M1113.25,-425.47C1081.15,-415.94 1037.6,-403.01 998.59,-391.43"/>
<polygon fill="midnightblue" stroke="midnightblue" points="999.36,-388.01 988.77,-388.52 997.36,-394.72 999.36,-388.01"/>
</g>
<!-- Node19 -->
<g id="node19" class="node">
<title>Node19</title>
<g id="a_node19"><a xlink:title=" ">
<polygon fill="white" stroke="#bfbfbf" points="1053,-336.5 1053,-388.5 1268,-388.5 1268,-336.5 1053,-336.5"/>
<text text-anchor="start" x="1061" y="-376.5" font-family="Helvetica,sans-Serif" font-size="10.00">JSystem/JStudio/asm</text>
<text text-anchor="start" x="1061" y="-365.5" font-family="Helvetica,sans-Serif" font-size="10.00">/__ct__Q37JStudio3fvb16TObject</text>
<text text-anchor="start" x="1061" y="-354.5" font-family="Helvetica,sans-Serif" font-size="10.00">_constantFRCQ47JStudio3fvb4data13TParse</text>
<text text-anchor="middle" x="1160.5" y="-343.5" font-family="Helvetica,sans-Serif" font-size="10.00">_TBlock.s</text>
</a>
</g>
</g>
<!-- Node1&#45;&gt;Node19 -->
<g id="edge28" class="edge">
<title>Node1&#45;&gt;Node19</title>
<path fill="none" stroke="midnightblue" d="M1160.5,-425.2C1160.5,-417.63 1160.5,-407.95 1160.5,-398.53"/>
<polygon fill="midnightblue" stroke="midnightblue" points="1164,-398.5 1160.5,-388.5 1157,-398.5 1164,-398.5"/>
</g>
<!-- Node20 -->
<g id="node20" class="node">
<title>Node20</title>
<g id="a_node20"><a xlink:title=" ">
<polygon fill="white" stroke="#bfbfbf" points="1286,-336.5 1286,-388.5 1471,-388.5 1471,-336.5 1286,-336.5"/>
<text text-anchor="start" x="1294" y="-376.5" font-family="Helvetica,sans-Serif" font-size="10.00">JSystem/JStudio/asm</text>
<text text-anchor="start" x="1294" y="-365.5" font-family="Helvetica,sans-Serif" font-size="10.00">/__ct__Q37JStudio3fvb18TObject</text>
<text text-anchor="start" x="1294" y="-354.5" font-family="Helvetica,sans-Serif" font-size="10.00">_transitionFRCQ47JStudio3fvb4data13</text>
<text text-anchor="middle" x="1378.5" y="-343.5" font-family="Helvetica,sans-Serif" font-size="10.00">TParse_TBlock.s</text>
</a>
</g>
</g>
<!-- Node1&#45;&gt;Node20 -->
<g id="edge29" class="edge">
<title>Node1&#45;&gt;Node20</title>
<path fill="none" stroke="midnightblue" d="M1200.74,-425.47C1227.72,-416.06 1264.21,-403.34 1297.11,-391.87"/>
<polygon fill="midnightblue" stroke="midnightblue" points="1298.45,-395.12 1306.74,-388.52 1296.14,-388.51 1298.45,-395.12"/>
</g>
<!-- Node21 -->
<g id="node21" class="node">
<title>Node21</title>
<g id="a_node21"><a xlink:title=" ">
<polygon fill="white" stroke="#bfbfbf" points="1489.5,-336.5 1489.5,-388.5 1679.5,-388.5 1679.5,-336.5 1489.5,-336.5"/>
<text text-anchor="start" x="1497.5" y="-376.5" font-family="Helvetica,sans-Serif" font-size="10.00">JSystem/JStudio/asm</text>
<text text-anchor="start" x="1497.5" y="-365.5" font-family="Helvetica,sans-Serif" font-size="10.00">/__ct__Q37JStudio3fvb12TObject</text>
<text text-anchor="start" x="1497.5" y="-354.5" font-family="Helvetica,sans-Serif" font-size="10.00">_listFRCQ47JStudio3fvb4data13TParse</text>
<text text-anchor="middle" x="1584.5" y="-343.5" font-family="Helvetica,sans-Serif" font-size="10.00">_TBlock.s</text>
</a>
</g>
</g>
<!-- Node1&#45;&gt;Node21 -->
<g id="edge30" class="edge">
<title>Node1&#45;&gt;Node21</title>
<path fill="none" stroke="midnightblue" d="M1215.1,-432.31C1276.94,-423.84 1380.9,-408.65 1479.52,-389.13"/>
<polygon fill="midnightblue" stroke="midnightblue" points="1480.24,-392.56 1489.36,-387.17 1478.86,-385.69 1480.24,-392.56"/>
</g>
<!-- Node22 -->
<g id="node22" class="node">
<title>Node22</title>
<g id="a_node22"><a xlink:title=" ">
<polygon fill="white" stroke="#bfbfbf" points="1698,-336.5 1698,-388.5 1905,-388.5 1905,-336.5 1698,-336.5"/>
<text text-anchor="start" x="1706" y="-376.5" font-family="Helvetica,sans-Serif" font-size="10.00">JSystem/JStudio/asm</text>
<text text-anchor="start" x="1706" y="-365.5" font-family="Helvetica,sans-Serif" font-size="10.00">/__ct__Q37JStudio3fvb22TObject</text>
<text text-anchor="start" x="1706" y="-354.5" font-family="Helvetica,sans-Serif" font-size="10.00">_list_parameterFRCQ47JStudio3fvb4data13</text>
<text text-anchor="middle" x="1801.5" y="-343.5" font-family="Helvetica,sans-Serif" font-size="10.00">TParse_TBlock.s</text>
</a>
</g>
</g>
<!-- Node1&#45;&gt;Node22 -->
<g id="edge31" class="edge">
<title>Node1&#45;&gt;Node22</title>
<path fill="none" stroke="midnightblue" d="M1215.14,-436.56C1309.51,-430.99 1509.28,-416.99 1687.74,-389.03"/>
<polygon fill="midnightblue" stroke="midnightblue" points="1688.51,-392.45 1697.84,-387.43 1687.42,-385.54 1688.51,-392.45"/>
</g>
<!-- Node23 -->
<g id="node23" class="node">
<title>Node23</title>
<g id="a_node23"><a xlink:title=" ">
<polygon fill="white" stroke="#bfbfbf" points="1923,-336.5 1923,-388.5 2132,-388.5 2132,-336.5 1923,-336.5"/>
<text text-anchor="start" x="1931" y="-376.5" font-family="Helvetica,sans-Serif" font-size="10.00">JSystem/JStudio/asm</text>
<text text-anchor="start" x="1931" y="-365.5" font-family="Helvetica,sans-Serif" font-size="10.00">/__ct__Q37JStudio3fvb15TObject</text>
<text text-anchor="start" x="1931" y="-354.5" font-family="Helvetica,sans-Serif" font-size="10.00">_hermiteFRCQ47JStudio3fvb4data13TParse</text>
<text text-anchor="middle" x="2027.5" y="-343.5" font-family="Helvetica,sans-Serif" font-size="10.00">_TBlock.s</text>
</a>
</g>
</g>
<!-- Node1&#45;&gt;Node23 -->
<g id="edge32" class="edge">
<title>Node1&#45;&gt;Node23</title>
<path fill="none" stroke="midnightblue" d="M1215.21,-438.74C1338.32,-436.4 1646.56,-427.05 1912.7,-389.17"/>
<polygon fill="midnightblue" stroke="midnightblue" points="1913.55,-392.58 1922.95,-387.69 1912.55,-385.65 1913.55,-392.58"/>
</g>
<!-- Node3 -->
<g id="node3" class="node">
<title>Node3</title>
<g id="a_node3"><a xlink:href="binary_8h.html" target="_top" xlink:title=" ">
<polygon fill="white" stroke="black" points="0,-56.5 0,-75.5 131,-75.5 131,-56.5 0,-56.5"/>
<text text-anchor="middle" x="65.5" y="-63.5" font-family="Helvetica,sans-Serif" font-size="10.00">JSystem/JGadget/binary.h</text>
</a>
</g>
</g>
<!-- Node2&#45;&gt;Node3 -->
<g id="edge2" class="edge">
<title>Node2&#45;&gt;Node3</title>
<path fill="none" stroke="midnightblue" d="M234.97,-354.73C167.42,-343.2 64.5,-312.86 64.5,-235 64.5,-235 64.5,-235 64.5,-177 64.5,-144.95 64.93,-107.64 65.23,-85.75"/>
<polygon fill="midnightblue" stroke="midnightblue" points="68.73,-85.61 65.37,-75.56 61.73,-85.51 68.73,-85.61"/>
</g>
<!-- Node5 -->
<g id="node5" class="node">
<title>Node5</title>
<g id="a_node5"><a xlink:href="linklist_8h.html" target="_top" xlink:title=" ">
<polygon fill="white" stroke="black" points="94,-168.5 94,-187.5 227,-187.5 227,-168.5 94,-168.5"/>
<text text-anchor="middle" x="160.5" y="-175.5" font-family="Helvetica,sans-Serif" font-size="10.00">JSystem/JGadget/linklist.h</text>
</a>
</g>
</g>
<!-- Node2&#45;&gt;Node5 -->
<g id="edge4" class="edge">
<title>Node2&#45;&gt;Node5</title>
<path fill="none" stroke="midnightblue" d="M267.18,-352.89C227.61,-337.88 152.45,-302.81 121.5,-244 112.38,-226.67 127.04,-207.53 140.91,-194.53"/>
<polygon fill="midnightblue" stroke="midnightblue" points="143.57,-196.86 148.81,-187.65 138.97,-191.58 143.57,-196.86"/>
</g>
<!-- Node6 -->
<g id="node6" class="node">
<title>Node6</title>
<g id="a_node6"><a xlink:href="functionvalue_8h.html" target="_top" xlink:title=" ">
<polygon fill="white" stroke="black" points="213,-280.5 213,-299.5 372,-299.5 372,-280.5 213,-280.5"/>
<text text-anchor="middle" x="292.5" y="-287.5" font-family="Helvetica,sans-Serif" font-size="10.00">JSystem/JStudio/functionvalue.h</text>
</a>
</g>
</g>
<!-- Node2&#45;&gt;Node6 -->
<g id="edge6" class="edge">
<title>Node2&#45;&gt;Node6</title>
<path fill="none" stroke="midnightblue" d="M292.5,-352.86C292.5,-342.18 292.5,-323.72 292.5,-309.73"/>
<polygon fill="midnightblue" stroke="midnightblue" points="296,-309.72 292.5,-299.72 289,-309.72 296,-309.72"/>
</g>
<!-- Node8 -->
<g id="node8" class="node">
<title>Node8</title>
<g id="a_node8"><a xlink:href="global_8h.html" target="_top" xlink:title=" ">
<polygon fill="white" stroke="black" points="267.5,-168.5 267.5,-187.5 317.5,-187.5 317.5,-168.5 267.5,-168.5"/>
<text text-anchor="middle" x="292.5" y="-175.5" font-family="Helvetica,sans-Serif" font-size="10.00">global.h</text>
</a>
</g>
</g>
<!-- Node2&#45;&gt;Node8 -->
<g id="edge24" class="edge">
<title>Node2&#45;&gt;Node8</title>
<path fill="none" stroke="midnightblue" d="M317.22,-352.92C356.26,-337.86 430.88,-302.59 461.5,-244 465.62,-236.12 466.92,-231.05 461.5,-224 445.31,-202.94 372.3,-189.65 327.71,-183.34"/>
<polygon fill="midnightblue" stroke="midnightblue" points="327.96,-179.84 317.58,-181.96 327.01,-186.78 327.96,-179.84"/>
</g>
<!-- Node15 -->
<g id="node15" class="node">
<title>Node15</title>
<g id="a_node15"><a xlink:href="object-id_8h.html" target="_top" xlink:title=" ">
<polygon fill="white" stroke="black" points="508.5,-280.5 508.5,-299.5 646.5,-299.5 646.5,-280.5 508.5,-280.5"/>
<text text-anchor="middle" x="577.5" y="-287.5" font-family="Helvetica,sans-Serif" font-size="10.00">JSystem/JStudio/object&#45;id.h</text>
</a>
</g>
</g>
<!-- Node2&#45;&gt;Node15 -->
<g id="edge22" class="edge">
<title>Node2&#45;&gt;Node15</title>
<path fill="none" stroke="midnightblue" d="M312.13,-352.93C325.11,-347.51 342.59,-340.67 358.5,-336 409.81,-320.93 469.32,-309.05 513.34,-301.29"/>
<polygon fill="midnightblue" stroke="midnightblue" points="514.08,-304.71 523.34,-299.55 512.89,-297.81 514.08,-304.71"/>
</g>
<!-- Node4 -->
<g id="node4" class="node">
<title>Node4</title>
<g id="a_node4"><a xlink:href="types_8h.html" target="_top" xlink:title=" ">
<polygon fill="white" stroke="black" points="237,-0.5 237,-19.5 318,-19.5 318,-0.5 237,-0.5"/>
<text text-anchor="middle" x="277.5" y="-7.5" font-family="Helvetica,sans-Serif" font-size="10.00">dolphin/types.h</text>
</a>
</g>
</g>
<!-- Node3&#45;&gt;Node4 -->
<g id="edge3" class="edge">
<title>Node3&#45;&gt;Node4</title>
<path fill="none" stroke="midnightblue" d="M99.09,-56.44C135.69,-47.12 194.34,-32.18 234.33,-22"/>
<polygon fill="midnightblue" stroke="midnightblue" points="235.24,-25.38 244.07,-19.52 233.51,-18.59 235.24,-25.38"/>
</g>
<!-- Node5&#45;&gt;Node4 -->
<g id="edge5" class="edge">
<title>Node5&#45;&gt;Node4</title>
<path fill="none" stroke="midnightblue" d="M162.39,-168.19C167.3,-146.92 182.2,-91.82 211.5,-56 222.03,-43.13 237.17,-32.44 250.3,-24.72"/>
<polygon fill="midnightblue" stroke="midnightblue" points="252.38,-27.56 259.41,-19.63 248.97,-21.45 252.38,-27.56"/>
</g>
<!-- Node7 -->
<g id="node7" class="node">
<title>Node7</title>
<g id="a_node7"><a xlink:href="search_8h.html" target="_top" xlink:title=" ">
<polygon fill="white" stroke="black" points="130.5,-224.5 130.5,-243.5 264.5,-243.5 264.5,-224.5 130.5,-224.5"/>
<text text-anchor="middle" x="197.5" y="-231.5" font-family="Helvetica,sans-Serif" font-size="10.00">JSystem/JGadget/search.h</text>
</a>
</g>
</g>
<!-- Node6&#45;&gt;Node7 -->
<g id="edge7" class="edge">
<title>Node6&#45;&gt;Node7</title>
<path fill="none" stroke="midnightblue" d="M277.24,-280.32C262.28,-271.82 239.25,-258.73 221.77,-248.8"/>
<polygon fill="midnightblue" stroke="midnightblue" points="223.15,-245.55 212.73,-243.65 219.69,-251.64 223.15,-245.55"/>
</g>
<!-- Node6&#45;&gt;Node8 -->
<g id="edge21" class="edge">
<title>Node6&#45;&gt;Node8</title>
<path fill="none" stroke="midnightblue" d="M292.5,-280.37C292.5,-262.62 292.5,-221.67 292.5,-197.6"/>
<polygon fill="midnightblue" stroke="midnightblue" points="296,-197.59 292.5,-187.59 289,-197.59 296,-197.59"/>
</g>
<!-- Node14 -->
<g id="node14" class="node">
<title>Node14</title>
<g id="a_node14"><a xlink:href="JGadget_2vector_8h.html" target="_top" xlink:title=" ">
<polygon fill="white" stroke="black" points="320.5,-224.5 320.5,-243.5 452.5,-243.5 452.5,-224.5 320.5,-224.5"/>
<text text-anchor="middle" x="386.5" y="-231.5" font-family="Helvetica,sans-Serif" font-size="10.00">JSystem/JGadget/vector.h</text>
</a>
</g>
</g>
<!-- Node6&#45;&gt;Node14 -->
<g id="edge19" class="edge">
<title>Node6&#45;&gt;Node14</title>
<path fill="none" stroke="midnightblue" d="M307.6,-280.32C322.4,-271.82 345.19,-258.73 362.48,-248.8"/>
<polygon fill="midnightblue" stroke="midnightblue" points="364.51,-251.67 371.43,-243.65 361.02,-245.6 364.51,-251.67"/>
</g>
<!-- Node7&#45;&gt;Node8 -->
<g id="edge8" class="edge">
<title>Node7&#45;&gt;Node8</title>
<path fill="none" stroke="midnightblue" d="M212.76,-224.32C227.72,-215.82 250.75,-202.73 268.23,-192.8"/>
<polygon fill="midnightblue" stroke="midnightblue" points="270.31,-195.64 277.27,-187.65 266.85,-189.55 270.31,-195.64"/>
</g>
<!-- Node8&#45;&gt;Node4 -->
<g id="edge9" class="edge">
<title>Node8&#45;&gt;Node4</title>
<path fill="none" stroke="midnightblue" d="M282.13,-168.35C264.02,-152.39 227.6,-116.25 217.5,-76 215.34,-67.38 213.52,-63.95 217.5,-56 224.23,-42.54 237.11,-32.07 249.21,-24.62"/>
<polygon fill="midnightblue" stroke="midnightblue" points="251.23,-27.5 258.2,-19.52 247.78,-21.41 251.23,-27.5"/>
</g>
<!-- Node9 -->
<g id="node9" class="node">
<title>Node9</title>
<g id="a_node9"><a xlink:href="AR_8h.html" target="_top" xlink:title=" ">
<polygon fill="white" stroke="black" points="227,-56.5 227,-75.5 276,-75.5 276,-56.5 227,-56.5"/>
<text text-anchor="middle" x="251.5" y="-63.5" font-family="Helvetica,sans-Serif" font-size="10.00">ar/AR.h</text>
</a>
</g>
</g>
<!-- Node8&#45;&gt;Node9 -->
<g id="edge10" class="edge">
<title>Node8&#45;&gt;Node9</title>
<path fill="none" stroke="midnightblue" d="M282.62,-168.49C273.75,-160.18 261.28,-146.68 255.5,-132 249.74,-117.35 249.06,-99.41 249.64,-86.09"/>
<polygon fill="midnightblue" stroke="midnightblue" points="253.16,-86 250.38,-75.78 246.17,-85.5 253.16,-86"/>
</g>
<!-- Node10 -->
<g id="node10" class="node">
<title>Node10</title>
<g id="a_node10"><a xlink:href="ARQ_8h.html" target="_top" xlink:title=" ">
<polygon fill="white" stroke="black" points="264.5,-112.5 264.5,-131.5 320.5,-131.5 320.5,-112.5 264.5,-112.5"/>
<text text-anchor="middle" x="292.5" y="-119.5" font-family="Helvetica,sans-Serif" font-size="10.00">ar/ARQ.h</text>
</a>
</g>
</g>
<!-- Node8&#45;&gt;Node10 -->
<g id="edge12" class="edge">
<title>Node8&#45;&gt;Node10</title>
<path fill="none" stroke="midnightblue" d="M292.5,-168.08C292.5,-161.01 292.5,-150.86 292.5,-141.99"/>
<polygon fill="midnightblue" stroke="midnightblue" points="296,-141.75 292.5,-131.75 289,-141.75 296,-141.75"/>
</g>
<!-- Node11 -->
<g id="node11" class="node">
<title>Node11</title>
<g id="a_node11"><a xlink:href="mwcc_8h.html" target="_top" xlink:title=" ">
<polygon fill="white" stroke="black" points="338.5,-112.5 338.5,-131.5 388.5,-131.5 388.5,-112.5 338.5,-112.5"/>
<text text-anchor="middle" x="363.5" y="-119.5" font-family="Helvetica,sans-Serif" font-size="10.00">mwcc.h</text>
</a>
</g>
</g>
<!-- Node8&#45;&gt;Node11 -->
<g id="edge14" class="edge">
<title>Node8&#45;&gt;Node11</title>
<path fill="none" stroke="midnightblue" d="M303.91,-168.32C314.61,-160.18 330.84,-147.84 343.66,-138.09"/>
<polygon fill="midnightblue" stroke="midnightblue" points="346.04,-140.67 351.89,-131.83 341.81,-135.1 346.04,-140.67"/>
</g>
<!-- Node12 -->
<g id="node12" class="node">
<title>Node12</title>
<g id="a_node12"><a xlink:href="OS_8h.html" target="_top" xlink:title=" ">
<polygon fill="white" stroke="black" points="406.5,-112.5 406.5,-131.5 458.5,-131.5 458.5,-112.5 406.5,-112.5"/>
<text text-anchor="middle" x="432.5" y="-119.5" font-family="Helvetica,sans-Serif" font-size="10.00">os/OS.h</text>
</a>
</g>
</g>
<!-- Node8&#45;&gt;Node12 -->
<g id="edge15" class="edge">
<title>Node8&#45;&gt;Node12</title>
<path fill="none" stroke="midnightblue" d="M314.68,-168.44C337.93,-159.48 374.65,-145.31 400.92,-135.18"/>
<polygon fill="midnightblue" stroke="midnightblue" points="402.35,-138.38 410.42,-131.52 399.83,-131.85 402.35,-138.38"/>
</g>
<!-- Node9&#45;&gt;Node4 -->
<g id="edge11" class="edge">
<title>Node9&#45;&gt;Node4</title>
<path fill="none" stroke="midnightblue" d="M255.79,-56.08C259.35,-48.69 264.52,-37.95 268.92,-28.81"/>
<polygon fill="midnightblue" stroke="midnightblue" points="272.1,-30.28 273.29,-19.75 265.79,-27.24 272.1,-30.28"/>
</g>
<!-- Node10&#45;&gt;Node4 -->
<g id="edge13" class="edge">
<title>Node10&#45;&gt;Node4</title>
<path fill="none" stroke="midnightblue" d="M291.5,-112.16C290.07,-99.64 287.29,-76.04 284.5,-56 283.29,-47.28 281.8,-37.63 280.51,-29.51"/>
<polygon fill="midnightblue" stroke="midnightblue" points="283.97,-28.93 278.92,-19.61 277.06,-30.04 283.97,-28.93"/>
</g>
<!-- Node12&#45;&gt;Node4 -->
<g id="edge16" class="edge">
<title>Node12&#45;&gt;Node4</title>
<path fill="none" stroke="midnightblue" d="M420.34,-112.37C393.85,-93.57 330.72,-48.77 297.98,-25.53"/>
<polygon fill="midnightblue" stroke="midnightblue" points="299.79,-22.52 289.61,-19.59 295.74,-28.23 299.79,-22.52"/>
</g>
<!-- Node13 -->
<g id="node13" class="node">
<title>Node13</title>
<g id="a_node13"><a xlink:href="dvd_8h.html" target="_top" xlink:title=" ">
<polygon fill="white" stroke="black" points="387,-56.5 387,-75.5 446,-75.5 446,-56.5 387,-56.5"/>
<text text-anchor="middle" x="416.5" y="-63.5" font-family="Helvetica,sans-Serif" font-size="10.00">dvd/dvd.h</text>
</a>
</g>
</g>
<!-- Node12&#45;&gt;Node13 -->
<g id="edge17" class="edge">
<title>Node12&#45;&gt;Node13</title>
<path fill="none" stroke="midnightblue" d="M429.86,-112.08C427.71,-104.85 424.62,-94.41 421.95,-85.4"/>
<polygon fill="midnightblue" stroke="midnightblue" points="425.29,-84.34 419.09,-75.75 418.58,-86.33 425.29,-84.34"/>
</g>
<!-- Node13&#45;&gt;Node4 -->
<g id="edge18" class="edge">
<title>Node13&#45;&gt;Node4</title>
<path fill="none" stroke="midnightblue" d="M394.48,-56.44C371.4,-47.48 334.94,-33.31 308.86,-23.18"/>
<polygon fill="midnightblue" stroke="midnightblue" points="310.01,-19.88 299.42,-19.52 307.48,-26.4 310.01,-19.88"/>
</g>
<!-- Node14&#45;&gt;Node8 -->
<g id="edge20" class="edge">
<title>Node14&#45;&gt;Node8</title>
<path fill="none" stroke="midnightblue" d="M371.4,-224.32C356.6,-215.82 333.81,-202.73 316.52,-192.8"/>
<polygon fill="midnightblue" stroke="midnightblue" points="317.98,-189.6 307.57,-187.65 314.49,-195.67 317.98,-189.6"/>
</g>
<!-- Node15&#45;&gt;Node4 -->
<g id="edge23" class="edge">
<title>Node15&#45;&gt;Node4</title>
<path fill="none" stroke="midnightblue" d="M573.59,-280.36C565.67,-262.07 548.5,-217.91 548.5,-179 548.5,-179 548.5,-179 548.5,-121 548.5,-73.98 406.69,-37.43 328.24,-20.8"/>
<polygon fill="midnightblue" stroke="midnightblue" points="328.58,-17.3 318.07,-18.68 327.15,-24.15 328.58,-17.3"/>
</g>
</g>
</svg>
