<?xml version="1.0" encoding="UTF-8" standalone="no"?>
<!DOCTYPE svg PUBLIC "-//W3C//DTD SVG 1.1//EN"
 "http://www.w3.org/Graphics/SVG/1.1/DTD/svg11.dtd">
<!-- Generated by graphviz version 2.44.0 ()
 -->
<!-- Title: include/JSystem/JStudio/fvb.h Pages: 1 -->
<!--zoomable 375 -->
<svg id="main" version="1.1" xmlns="http://www.w3.org/2000/svg" xmlns:xlink="http://www.w3.org/1999/xlink" xml:space="preserve" onload="init(evt)">
<style type="text/css"><![CDATA[
.edge:hover path { stroke: red; }
.edge:hover polygon { stroke: red; fill: red; }
]]></style>
<script type="text/javascript"><![CDATA[
var edges = document.getElementsByTagName('g');
if (edges && edges.length) {
  for (var i=0;i<edges.length;i++) {
    if (edges[i].id.substr(0,4)=='edge') {
      edges[i].setAttribute('class','edge');
    }
  }
}
]]></script>
        <defs>
                <circle id="rim" cx="0" cy="0" r="7"/>
                <circle id="rim2" cx="0" cy="0" r="3.5"/>
                <g id="zoomPlus">
                        <use xlink:href="#rim" fill="#404040">
                                <set attributeName="fill" to="#808080" begin="zoomplus.mouseover" end="zoomplus.mouseout"/>
                        </use>
                        <path d="M-4,0h8M0,-4v8" fill="none" stroke="white" stroke-width="1.5" pointer-events="none"/>
                </g>
                <g id="zoomMin">
                        <use xlink:href="#rim" fill="#404040">
                                <set attributeName="fill" to="#808080" begin="zoomminus.mouseover" end="zoomminus.mouseout"/>
                        </use>
                        <path d="M-4,0h8" fill="none" stroke="white" stroke-width="1.5" pointer-events="none"/>
                </g>
                <g id="dirArrow">
                        <path fill="none" stroke="white" stroke-width="1.5" d="M0,-3.0v7 M-2.5,-0.5L0,-3.0L2.5,-0.5"/>
                </g>
               <g id="resetDef">
                       <use xlink:href="#rim2" fill="#404040">
                               <set attributeName="fill" to="#808080" begin="reset.mouseover" end="reset.mouseout"/>
                       </use>
               </g>
        </defs>

<script type="text/javascript">
var viewWidth = 645;
var viewHeight = 375;
var sectionId = 'dynsection-0';
</script>
<script xlink:href="svgpan.js"/>
<svg id="graph" class="graph">
<g id="viewport">
<title>include/JSystem/JStudio/fvb.h</title>
<polygon fill="white" stroke="transparent" points="-4,4 -4,-371 640.5,-371 640.5,4 -4,4"/>
<!-- Node1 -->
<g id="node1" class="node">
<title>Node1</title>
<g id="a_node1"><a xlink:title=" ">
<polygon fill="#bfbfbf" stroke="black" points="287,-336.5 287,-366.5 412,-366.5 412,-336.5 287,-336.5"/>
<text text-anchor="start" x="295" y="-354.5" font-family="Helvetica,sans-Serif" font-size="10.00">include/JSystem/JStudio</text>
<text text-anchor="middle" x="349.5" y="-343.5" font-family="Helvetica,sans-Serif" font-size="10.00">/fvb.h</text>
</a>
</g>
</g>
<!-- Node2 -->
<g id="node2" class="node">
<title>Node2</title>
<g id="a_node2"><a xlink:href="binary_8h.html" target="_top" xlink:title=" ">
<polygon fill="white" stroke="black" points="0,-168.5 0,-187.5 131,-187.5 131,-168.5 0,-168.5"/>
<text text-anchor="middle" x="65.5" y="-175.5" font-family="Helvetica,sans-Serif" font-size="10.00">JSystem/JGadget/binary.h</text>
</a>
</g>
</g>
<!-- Node1&#45;&gt;Node2 -->
<g id="edge1" class="edge">
<title>Node1&#45;&gt;Node2</title>
<path fill="none" stroke="midnightblue" d="M286.72,-344.84C222.96,-337.86 129.95,-323.89 103.5,-300 74.18,-273.52 67.29,-224.71 65.8,-197.89"/>
<polygon fill="midnightblue" stroke="midnightblue" points="69.28,-197.44 65.43,-187.57 62.29,-197.68 69.28,-197.44"/>
</g>
<!-- Node4 -->
<g id="node4" class="node">
<title>Node4</title>
<g id="a_node4"><a xlink:href="linklist_8h.html" target="_top" xlink:title=" ">
<polygon fill="white" stroke="black" points="113,-280.5 113,-299.5 246,-299.5 246,-280.5 113,-280.5"/>
<text text-anchor="middle" x="179.5" y="-287.5" font-family="Helvetica,sans-Serif" font-size="10.00">JSystem/JGadget/linklist.h</text>
</a>
</g>
</g>
<!-- Node1&#45;&gt;Node4 -->
<g id="edge3" class="edge">
<title>Node1&#45;&gt;Node4</title>
<path fill="none" stroke="midnightblue" d="M309.21,-336.4C280.18,-326.24 241.42,-312.67 213.85,-303.02"/>
<polygon fill="midnightblue" stroke="midnightblue" points="214.83,-299.66 204.24,-299.66 212.52,-306.26 214.83,-299.66"/>
</g>
<!-- Node5 -->
<g id="node5" class="node">
<title>Node5</title>
<g id="a_node5"><a xlink:href="functionvalue_8h.html" target="_top" xlink:title=" ">
<polygon fill="white" stroke="black" points="270,-280.5 270,-299.5 429,-299.5 429,-280.5 270,-280.5"/>
<text text-anchor="middle" x="349.5" y="-287.5" font-family="Helvetica,sans-Serif" font-size="10.00">JSystem/JStudio/functionvalue.h</text>
</a>
</g>
</g>
<!-- Node1&#45;&gt;Node5 -->
<g id="edge5" class="edge">
<title>Node1&#45;&gt;Node5</title>
<path fill="none" stroke="midnightblue" d="M349.5,-336.4C349.5,-328.47 349.5,-318.46 349.5,-309.86"/>
<polygon fill="midnightblue" stroke="midnightblue" points="353,-309.66 349.5,-299.66 346,-309.66 353,-309.66"/>
</g>
<!-- Node7 -->
<g id="node7" class="node">
<title>Node7</title>
<g id="a_node7"><a xlink:href="global_8h.html" target="_top" xlink:title=" ">
<polygon fill="white" stroke="black" points="324.5,-168.5 324.5,-187.5 374.5,-187.5 374.5,-168.5 324.5,-168.5"/>
<text text-anchor="middle" x="349.5" y="-175.5" font-family="Helvetica,sans-Serif" font-size="10.00">global.h</text>
</a>
</g>
</g>
<!-- Node1&#45;&gt;Node7 -->
<g id="edge23" class="edge">
<title>Node1&#45;&gt;Node7</title>
<path fill="none" stroke="midnightblue" d="M399.14,-336.49C462.11,-316.22 558.03,-275.43 518.5,-224 502.31,-202.94 429.3,-189.65 384.71,-183.34"/>
<polygon fill="midnightblue" stroke="midnightblue" points="384.96,-179.84 374.58,-181.96 384.01,-186.78 384.96,-179.84"/>
</g>
<!-- Node14 -->
<g id="node14" class="node">
<title>Node14</title>
<g id="a_node14"><a xlink:href="object-id_8h.html" target="_top" xlink:title=" ">
<polygon fill="white" stroke="black" points="498.5,-56.5 498.5,-75.5 636.5,-75.5 636.5,-56.5 498.5,-56.5"/>
<text text-anchor="middle" x="567.5" y="-63.5" font-family="Helvetica,sans-Serif" font-size="10.00">JSystem/JStudio/object&#45;id.h</text>
</a>
</g>
</g>
<!-- Node1&#45;&gt;Node14 -->
<g id="edge21" class="edge">
<title>Node1&#45;&gt;Node14</title>
<path fill="none" stroke="midnightblue" d="M412.15,-345.05C479.04,-335.4 575.5,-308.7 575.5,-235 575.5,-235 575.5,-235 575.5,-177 575.5,-144.86 572.06,-107.58 569.69,-85.72"/>
<polygon fill="midnightblue" stroke="midnightblue" points="573.14,-85.09 568.55,-75.54 566.19,-85.87 573.14,-85.09"/>
</g>
<!-- Node3 -->
<g id="node3" class="node">
<title>Node3</title>
<g id="a_node3"><a xlink:href="types_8h.html" target="_top" xlink:title=" ">
<polygon fill="white" stroke="black" points="245,-0.5 245,-19.5 326,-19.5 326,-0.5 245,-0.5"/>
<text text-anchor="middle" x="285.5" y="-7.5" font-family="Helvetica,sans-Serif" font-size="10.00">dolphin/types.h</text>
</a>
</g>
</g>
<!-- Node2&#45;&gt;Node3 -->
<g id="edge2" class="edge">
<title>Node2&#45;&gt;Node3</title>
<path fill="none" stroke="midnightblue" d="M68.86,-168.22C77.81,-146.02 104.36,-87.19 145.5,-56 171.41,-36.35 206.19,-25.12 234.6,-18.79"/>
<polygon fill="midnightblue" stroke="midnightblue" points="235.68,-22.14 244.75,-16.67 234.25,-15.28 235.68,-22.14"/>
</g>
<!-- Node4&#45;&gt;Node3 -->
<g id="edge4" class="edge">
<title>Node4&#45;&gt;Node3</title>
<path fill="none" stroke="midnightblue" d="M176.8,-280.26C171.34,-261.77 159.5,-217.24 159.5,-179 159.5,-179 159.5,-179 159.5,-121 159.5,-71.95 214.35,-39.74 251.67,-23.5"/>
<polygon fill="midnightblue" stroke="midnightblue" points="253.32,-26.61 261.21,-19.53 250.63,-20.14 253.32,-26.61"/>
</g>
<!-- Node6 -->
<g id="node6" class="node">
<title>Node6</title>
<g id="a_node6"><a xlink:href="search_8h.html" target="_top" xlink:title=" ">
<polygon fill="white" stroke="black" points="187.5,-224.5 187.5,-243.5 321.5,-243.5 321.5,-224.5 187.5,-224.5"/>
<text text-anchor="middle" x="254.5" y="-231.5" font-family="Helvetica,sans-Serif" font-size="10.00">JSystem/JGadget/search.h</text>
</a>
</g>
</g>
<!-- Node5&#45;&gt;Node6 -->
<g id="edge6" class="edge">
<title>Node5&#45;&gt;Node6</title>
<path fill="none" stroke="midnightblue" d="M334.24,-280.32C319.28,-271.82 296.25,-258.73 278.77,-248.8"/>
<polygon fill="midnightblue" stroke="midnightblue" points="280.15,-245.55 269.73,-243.65 276.69,-251.64 280.15,-245.55"/>
</g>
<!-- Node5&#45;&gt;Node7 -->
<g id="edge20" class="edge">
<title>Node5&#45;&gt;Node7</title>
<path fill="none" stroke="midnightblue" d="M349.5,-280.37C349.5,-262.62 349.5,-221.67 349.5,-197.6"/>
<polygon fill="midnightblue" stroke="midnightblue" points="353,-197.59 349.5,-187.59 346,-197.59 353,-197.59"/>
</g>
<!-- Node13 -->
<g id="node13" class="node">
<title>Node13</title>
<g id="a_node13"><a xlink:href="JGadget_2vector_8h.html" target="_top" xlink:title=" ">
<polygon fill="white" stroke="black" points="377.5,-224.5 377.5,-243.5 509.5,-243.5 509.5,-224.5 377.5,-224.5"/>
<text text-anchor="middle" x="443.5" y="-231.5" font-family="Helvetica,sans-Serif" font-size="10.00">JSystem/JGadget/vector.h</text>
</a>
</g>
</g>
<!-- Node5&#45;&gt;Node13 -->
<g id="edge18" class="edge">
<title>Node5&#45;&gt;Node13</title>
<path fill="none" stroke="midnightblue" d="M364.6,-280.32C379.4,-271.82 402.19,-258.73 419.48,-248.8"/>
<polygon fill="midnightblue" stroke="midnightblue" points="421.51,-251.67 428.43,-243.65 418.02,-245.6 421.51,-251.67"/>
</g>
<!-- Node6&#45;&gt;Node7 -->
<g id="edge7" class="edge">
<title>Node6&#45;&gt;Node7</title>
<path fill="none" stroke="midnightblue" d="M269.76,-224.32C284.72,-215.82 307.75,-202.73 325.23,-192.8"/>
<polygon fill="midnightblue" stroke="midnightblue" points="327.31,-195.64 334.27,-187.65 323.85,-189.55 327.31,-195.64"/>
</g>
<!-- Node7&#45;&gt;Node3 -->
<g id="edge8" class="edge">
<title>Node7&#45;&gt;Node3</title>
<path fill="none" stroke="midnightblue" d="M324.49,-175.97C295.2,-173.26 247.85,-163.88 225.5,-132 200.97,-97 241.79,-50.5 267.33,-26.62"/>
<polygon fill="midnightblue" stroke="midnightblue" points="269.91,-29 274.99,-19.7 265.22,-23.81 269.91,-29"/>
</g>
<!-- Node8 -->
<g id="node8" class="node">
<title>Node8</title>
<g id="a_node8"><a xlink:href="AR_8h.html" target="_top" xlink:title=" ">
<polygon fill="white" stroke="black" points="235,-112.5 235,-131.5 284,-131.5 284,-112.5 235,-112.5"/>
<text text-anchor="middle" x="259.5" y="-119.5" font-family="Helvetica,sans-Serif" font-size="10.00">ar/AR.h</text>
</a>
</g>
</g>
<!-- Node7&#45;&gt;Node8 -->
<g id="edge9" class="edge">
<title>Node7&#45;&gt;Node8</title>
<path fill="none" stroke="midnightblue" d="M335.04,-168.32C321,-159.9 299.45,-146.97 282.96,-137.07"/>
<polygon fill="midnightblue" stroke="midnightblue" points="284.3,-133.8 273.92,-131.65 280.7,-139.8 284.3,-133.8"/>
</g>
<!-- Node9 -->
<g id="node9" class="node">
<title>Node9</title>
<g id="a_node9"><a xlink:href="ARQ_8h.html" target="_top" xlink:title=" ">
<polygon fill="white" stroke="black" points="285.5,-56.5 285.5,-75.5 341.5,-75.5 341.5,-56.5 285.5,-56.5"/>
<text text-anchor="middle" x="313.5" y="-63.5" font-family="Helvetica,sans-Serif" font-size="10.00">ar/ARQ.h</text>
</a>
</g>
</g>
<!-- Node7&#45;&gt;Node9 -->
<g id="edge11" class="edge">
<title>Node7&#45;&gt;Node9</title>
<path fill="none" stroke="midnightblue" d="M345.76,-168.48C341.91,-159.51 335.86,-144.92 331.5,-132 326.29,-116.55 321.42,-98.68 318.07,-85.59"/>
<polygon fill="midnightblue" stroke="midnightblue" points="321.36,-84.35 315.54,-75.5 314.57,-86.06 321.36,-84.35"/>
</g>
<!-- Node10 -->
<g id="node10" class="node">
<title>Node10</title>
<g id="a_node10"><a xlink:href="mwcc_8h.html" target="_top" xlink:title=" ">
<polygon fill="white" stroke="black" points="340.5,-112.5 340.5,-131.5 390.5,-131.5 390.5,-112.5 340.5,-112.5"/>
<text text-anchor="middle" x="365.5" y="-119.5" font-family="Helvetica,sans-Serif" font-size="10.00">mwcc.h</text>
</a>
</g>
</g>
<!-- Node7&#45;&gt;Node10 -->
<g id="edge13" class="edge">
<title>Node7&#45;&gt;Node10</title>
<path fill="none" stroke="midnightblue" d="M352.14,-168.08C354.29,-160.85 357.38,-150.41 360.05,-141.4"/>
<polygon fill="midnightblue" stroke="midnightblue" points="363.42,-142.33 362.91,-131.75 356.71,-140.34 363.42,-142.33"/>
</g>
<!-- Node11 -->
<g id="node11" class="node">
<title>Node11</title>
<g id="a_node11"><a xlink:href="OS_8h.html" target="_top" xlink:title=" ">
<polygon fill="white" stroke="black" points="408.5,-112.5 408.5,-131.5 460.5,-131.5 460.5,-112.5 408.5,-112.5"/>
<text text-anchor="middle" x="434.5" y="-119.5" font-family="Helvetica,sans-Serif" font-size="10.00">os/OS.h</text>
</a>
</g>
</g>
<!-- Node7&#45;&gt;Node11 -->
<g id="edge14" class="edge">
<title>Node7&#45;&gt;Node11</title>
<path fill="none" stroke="midnightblue" d="M363.16,-168.32C376.42,-159.9 396.77,-146.97 412.35,-137.07"/>
<polygon fill="midnightblue" stroke="midnightblue" points="414.31,-139.97 420.88,-131.65 410.56,-134.06 414.31,-139.97"/>
</g>
<!-- Node8&#45;&gt;Node3 -->
<g id="edge10" class="edge">
<title>Node8&#45;&gt;Node3</title>
<path fill="none" stroke="midnightblue" d="M261.54,-112.37C265.74,-94.62 275.42,-53.67 281.1,-29.6"/>
<polygon fill="midnightblue" stroke="midnightblue" points="284.58,-30.13 283.47,-19.59 277.76,-28.52 284.58,-30.13"/>
</g>
<!-- Node9&#45;&gt;Node3 -->
<g id="edge12" class="edge">
<title>Node9&#45;&gt;Node3</title>
<path fill="none" stroke="midnightblue" d="M308.88,-56.08C305.04,-48.69 299.48,-37.95 294.74,-28.81"/>
<polygon fill="midnightblue" stroke="midnightblue" points="297.75,-27.02 290.04,-19.75 291.53,-30.24 297.75,-27.02"/>
</g>
<!-- Node11&#45;&gt;Node3 -->
<g id="edge15" class="edge">
<title>Node11&#45;&gt;Node3</title>
<path fill="none" stroke="midnightblue" d="M423.77,-112.4C407.93,-99.78 377.28,-75.61 350.5,-56 336.24,-45.56 319.89,-34.24 307.15,-25.56"/>
<polygon fill="midnightblue" stroke="midnightblue" points="308.83,-22.48 298.59,-19.76 304.91,-28.27 308.83,-22.48"/>
</g>
<!-- Node12 -->
<g id="node12" class="node">
<title>Node12</title>
<g id="a_node12"><a xlink:href="dvd_8h.html" target="_top" xlink:title=" ">
<polygon fill="white" stroke="black" points="404,-56.5 404,-75.5 463,-75.5 463,-56.5 404,-56.5"/>
<text text-anchor="middle" x="433.5" y="-63.5" font-family="Helvetica,sans-Serif" font-size="10.00">dvd/dvd.h</text>
</a>
</g>
</g>
<!-- Node11&#45;&gt;Node12 -->
<g id="edge16" class="edge">
<title>Node11&#45;&gt;Node12</title>
<path fill="none" stroke="midnightblue" d="M434.33,-112.08C434.2,-105.01 434.02,-94.86 433.85,-85.99"/>
<polygon fill="midnightblue" stroke="midnightblue" points="437.35,-85.68 433.66,-75.75 430.35,-85.81 437.35,-85.68"/>
</g>
<!-- Node12&#45;&gt;Node3 -->
<g id="edge17" class="edge">
<title>Node12&#45;&gt;Node3</title>
<path fill="none" stroke="midnightblue" d="M410.05,-56.44C385.37,-47.44 346.31,-33.19 318.52,-23.05"/>
<polygon fill="midnightblue" stroke="midnightblue" points="319.44,-19.66 308.84,-19.52 317.04,-26.23 319.44,-19.66"/>
</g>
<!-- Node13&#45;&gt;Node7 -->
<g id="edge19" class="edge">
<title>Node13&#45;&gt;Node7</title>
<path fill="none" stroke="midnightblue" d="M428.4,-224.32C413.6,-215.82 390.81,-202.73 373.52,-192.8"/>
<polygon fill="midnightblue" stroke="midnightblue" points="374.98,-189.6 364.57,-187.65 371.49,-195.67 374.98,-189.6"/>
</g>
<!-- Node14&#45;&gt;Node3 -->
<g id="edge22" class="edge">
<title>Node14&#45;&gt;Node3</title>
<path fill="none" stroke="midnightblue" d="M522.82,-56.44C472.04,-46.72 389.35,-30.89 336.2,-20.71"/>
<polygon fill="midnightblue" stroke="midnightblue" points="336.79,-17.26 326.31,-18.82 335.48,-24.13 336.79,-17.26"/>
</g>
</g>
</svg>
        <g id="navigator" transform="translate(0 0)" fill="#404254">
                <rect fill="#f2f5e9" fill-opacity="0.5" stroke="#606060" stroke-width=".5" x="0" y="0" width="60" height="60"/>
                <use id="zoomplus" xlink:href="#zoomPlus" x="17" y="9" onmousedown="handleZoom(evt,'in')"/>
                <use id="zoomminus" xlink:href="#zoomMin" x="42" y="9" onmousedown="handleZoom(evt,'out')"/>
                <use id="reset" xlink:href="#resetDef" x="30" y="36" onmousedown="handleReset()"/>
                <g id="arrowUp" xlink:href="#dirArrow" transform="translate(30 24)" onmousedown="handlePan(0,-1)">
                  <use xlink:href="#rim" fill="#404040">
                        <set attributeName="fill" to="#808080" begin="arrowUp.mouseover" end="arrowUp.mouseout"/>
                  </use>
                  <path fill="none" stroke="white" stroke-width="1.5" d="M0,-3.0v7 M-2.5,-0.5L0,-3.0L2.5,-0.5"/>
                </g>
                <g id="arrowRight" xlink:href="#dirArrow" transform="rotate(90) translate(36 -43)" onmousedown="handlePan(1,0)">
                  <use xlink:href="#rim" fill="#404040">
                        <set attributeName="fill" to="#808080" begin="arrowRight.mouseover" end="arrowRight.mouseout"/>
                  </use>
                  <path fill="none" stroke="white" stroke-width="1.5" d="M0,-3.0v7 M-2.5,-0.5L0,-3.0L2.5,-0.5"/>
                </g>
                <g id="arrowDown" xlink:href="#dirArrow" transform="rotate(180) translate(-30 -48)" onmousedown="handlePan(0,1)">
                  <use xlink:href="#rim" fill="#404040">
                        <set attributeName="fill" to="#808080" begin="arrowDown.mouseover" end="arrowDown.mouseout"/>
                  </use>
                  <path fill="none" stroke="white" stroke-width="1.5" d="M0,-3.0v7 M-2.5,-0.5L0,-3.0L2.5,-0.5"/>
                </g>
                <g id="arrowLeft" xlink:href="#dirArrow" transform="rotate(270) translate(-36 17)" onmousedown="handlePan(-1,0)">
                  <use xlink:href="#rim" fill="#404040">
                        <set attributeName="fill" to="#808080" begin="arrowLeft.mouseover" end="arrowLeft.mouseout"/>
                  </use>
                  <path fill="none" stroke="white" stroke-width="1.5" d="M0,-3.0v7 M-2.5,-0.5L0,-3.0L2.5,-0.5"/>
                </g>
        </g>
        <svg viewBox="0 0 15 15" width="100%" height="30px" preserveAspectRatio="xMaxYMin meet">
         <g id="arrow_out" transform="scale(0.3 0.3)">
          <a xlink:href="fvb_8h__incl_org.svg" target="_base">
           <rect id="button" ry="5" rx="5" y="6" x="6" height="38" width="38"
                fill="#f2f5e9" fill-opacity="0.5" stroke="#606060" stroke-width="1.0"/>
           <path id="arrow"
             d="M 11.500037,31.436501 C 11.940474,20.09759 22.043105,11.32322 32.158766,21.979434 L 37.068811,17.246167 C 37.068811,17.246167 37.088388,32 37.088388,32 L 22.160133,31.978069 C 22.160133,31.978069 26.997745,27.140456 26.997745,27.140456 C 18.528582,18.264221 13.291696,25.230495 11.500037,31.436501 z"
             style="fill:#404040;"/>
          </a>
         </g>
        </svg>
</svg>
