<?xml version="1.0" encoding="UTF-8" standalone="no"?>
<!DOCTYPE svg PUBLIC "-//W3C//DTD SVG 1.1//EN"
 "http://www.w3.org/Graphics/SVG/1.1/DTD/svg11.dtd">
<!-- Generated by graphviz version 2.44.0 ()
 -->
<!-- Title: Graphical Class Hierarchy Pages: 1 -->
<svg width="521pt" height="104pt"
 viewBox="0.00 0.00 521.00 104.00" xmlns="http://www.w3.org/2000/svg" xmlns:xlink="http://www.w3.org/1999/xlink">
<g id="graph0" class="graph" transform="scale(1 1) rotate(0) translate(4 100)">
<title>Graphical Class Hierarchy</title>
<polygon fill="white" stroke="transparent" points="-4,4 -4,-100 517,-100 517,4 -4,4"/>
<!-- Node0 -->
<g id="node1" class="node">
<title>Node0</title>
<g id="a_node1"><a xlink:href="classcCcD__ObjHitInf.html" target="_top" xlink:title=" ">
<polygon fill="white" stroke="black" points="0,-38.5 0,-57.5 85,-57.5 85,-38.5 0,-38.5"/>
<text text-anchor="middle" x="42.5" y="-45.5" font-family="Helvetica,sans-Serif" font-size="10.00">cCcD_ObjHitInf</text>
</a>
</g>
</g>
<!-- Node1 -->
<g id="node2" class="node">
<title>Node1</title>
<g id="a_node2"><a xlink:href="classcCcD__Obj.html" target="_top" xlink:title=" ">
<polygon fill="white" stroke="black" points="121,-38.5 121,-57.5 182,-57.5 182,-38.5 121,-38.5"/>
<text text-anchor="middle" x="151.5" y="-45.5" font-family="Helvetica,sans-Serif" font-size="10.00">cCcD_Obj</text>
</a>
</g>
</g>
<!-- Node0&#45;&gt;Node1 -->
<g id="edge1" class="edge">
<title>Node0&#45;&gt;Node1</title>
<path fill="none" stroke="#8b1a1a" d="M95.31,-48C104.02,-48 112.79,-48 120.69,-48"/>
<polygon fill="#8b1a1a" stroke="#8b1a1a" points="95.18,-44.5 85.18,-48 95.18,-51.5 95.18,-44.5"/>
</g>
<!-- Node2 -->
<g id="node3" class="node">
<title>Node2</title>
<g id="a_node3"><a xlink:href="classcCcD__GObjInf.html" target="_top" xlink:title=" ">
<polygon fill="white" stroke="black" points="218,-38.5 218,-57.5 298,-57.5 298,-38.5 218,-38.5"/>
<text text-anchor="middle" x="258" y="-45.5" font-family="Helvetica,sans-Serif" font-size="10.00">cCcD_GObjInf</text>
</a>
</g>
</g>
<!-- Node1&#45;&gt;Node2 -->
<g id="edge2" class="edge">
<title>Node1&#45;&gt;Node2</title>
<path fill="none" stroke="#8b1a1a" d="M192.43,-48C200.78,-48 209.57,-48 217.88,-48"/>
<polygon fill="#8b1a1a" stroke="#8b1a1a" points="192.17,-44.5 182.17,-48 192.17,-51.5 192.17,-44.5"/>
</g>
<!-- Node3 -->
<g id="node4" class="node">
<title>Node3</title>
<g id="a_node4"><a xlink:href="classdCcD__GObjInf.html" target="_top" xlink:title=" ">
<polygon fill="white" stroke="black" points="334,-38.5 334,-57.5 414,-57.5 414,-38.5 334,-38.5"/>
<text text-anchor="middle" x="374" y="-45.5" font-family="Helvetica,sans-Serif" font-size="10.00">dCcD_GObjInf</text>
</a>
</g>
</g>
<!-- Node2&#45;&gt;Node3 -->
<g id="edge3" class="edge">
<title>Node2&#45;&gt;Node3</title>
<path fill="none" stroke="#8b1a1a" d="M308.39,-48C316.85,-48 325.54,-48 333.7,-48"/>
<polygon fill="#8b1a1a" stroke="#8b1a1a" points="308.23,-44.5 298.23,-48 308.23,-51.5 308.23,-44.5"/>
</g>
<!-- Node4 -->
<g id="node5" class="node">
<title>Node4</title>
<g id="a_node5"><a xlink:href="classdCcD__Cps.html" target="_top" xlink:title=" ">
<polygon fill="white" stroke="black" points="450,-76.5 450,-95.5 513,-95.5 513,-76.5 450,-76.5"/>
<text text-anchor="middle" x="481.5" y="-83.5" font-family="Helvetica,sans-Serif" font-size="10.00">dCcD_Cps</text>
</a>
</g>
</g>
<!-- Node3&#45;&gt;Node4 -->
<g id="edge4" class="edge">
<title>Node3&#45;&gt;Node4</title>
<path fill="none" stroke="#8b1a1a" d="M411.42,-61.12C425.37,-66.14 441.02,-71.78 453.89,-76.41"/>
<polygon fill="#8b1a1a" stroke="#8b1a1a" points="412.22,-57.68 401.62,-57.59 409.84,-64.27 412.22,-57.68"/>
</g>
<!-- Node5 -->
<g id="node6" class="node">
<title>Node5</title>
<g id="a_node6"><a xlink:href="classdCcD__Cyl.html" target="_top" xlink:title=" ">
<polygon fill="white" stroke="black" points="452,-38.5 452,-57.5 511,-57.5 511,-38.5 452,-38.5"/>
<text text-anchor="middle" x="481.5" y="-45.5" font-family="Helvetica,sans-Serif" font-size="10.00">dCcD_Cyl</text>
</a>
</g>
</g>
<!-- Node3&#45;&gt;Node5 -->
<g id="edge5" class="edge">
<title>Node3&#45;&gt;Node5</title>
<path fill="none" stroke="#8b1a1a" d="M424.35,-48C433.73,-48 443.26,-48 451.73,-48"/>
<polygon fill="#8b1a1a" stroke="#8b1a1a" points="424.28,-44.5 414.28,-48 424.28,-51.5 424.28,-44.5"/>
</g>
<!-- Node6 -->
<g id="node7" class="node">
<title>Node6</title>
<g id="a_node7"><a xlink:href="classdCcD__Sph.html" target="_top" xlink:title=" ">
<polygon fill="white" stroke="black" points="450,-0.5 450,-19.5 513,-19.5 513,-0.5 450,-0.5"/>
<text text-anchor="middle" x="481.5" y="-7.5" font-family="Helvetica,sans-Serif" font-size="10.00">dCcD_Sph</text>
</a>
</g>
</g>
<!-- Node3&#45;&gt;Node6 -->
<g id="edge6" class="edge">
<title>Node3&#45;&gt;Node6</title>
<path fill="none" stroke="#8b1a1a" d="M411.42,-34.88C425.37,-29.86 441.02,-24.22 453.89,-19.59"/>
<polygon fill="#8b1a1a" stroke="#8b1a1a" points="409.84,-31.73 401.62,-38.41 412.22,-38.32 409.84,-31.73"/>
</g>
</g>
</svg>
