<?xml version="1.0" encoding="UTF-8" standalone="no"?>
<!DOCTYPE svg PUBLIC "-//W3C//DTD SVG 1.1//EN"
 "http://www.w3.org/Graphics/SVG/1.1/DTD/svg11.dtd">
<!-- Generated by graphviz version 2.44.0 ()
 -->
<!-- Title: Graphical Class Hierarchy Pages: 1 -->
<svg width="247pt" height="180pt"
 viewBox="0.00 0.00 247.00 180.00" xmlns="http://www.w3.org/2000/svg" xmlns:xlink="http://www.w3.org/1999/xlink">
<g id="graph0" class="graph" transform="scale(1 1) rotate(0) translate(4 176)">
<title>Graphical Class Hierarchy</title>
<polygon fill="white" stroke="transparent" points="-4,4 -4,-176 243,-176 243,4 -4,4"/>
<!-- Node0 -->
<g id="node1" class="node">
<title>Node0</title>
<g id="a_node1"><a xlink:href="classdBgS__LinChk.html" target="_top" xlink:title=" ">
<polygon fill="white" stroke="black" points="0,-76.5 0,-95.5 77,-95.5 77,-76.5 0,-76.5"/>
<text text-anchor="middle" x="38.5" y="-83.5" font-family="Helvetica,sans-Serif" font-size="10.00">dBgS_LinChk</text>
</a>
</g>
</g>
<!-- Node1 -->
<g id="node2" class="node">
<title>Node1</title>
<g id="a_node2"><a xlink:href="classdBgS__ArrowLinChk.html" target="_top" xlink:title=" ">
<polygon fill="white" stroke="black" points="125,-152.5 125,-171.5 227,-171.5 227,-152.5 125,-152.5"/>
<text text-anchor="middle" x="176" y="-159.5" font-family="Helvetica,sans-Serif" font-size="10.00">dBgS_ArrowLinChk</text>
</a>
</g>
</g>
<!-- Node0&#45;&gt;Node1 -->
<g id="edge1" class="edge">
<title>Node0&#45;&gt;Node1</title>
<path fill="none" stroke="#8b1a1a" d="M57.12,-102.66C71.27,-115.26 92.15,-132.19 113,-143 120.2,-146.73 128.25,-149.87 136.11,-152.45"/>
<polygon fill="#8b1a1a" stroke="#8b1a1a" points="59.36,-99.97 49.62,-95.82 54.65,-105.14 59.36,-99.97"/>
</g>
<!-- Node2 -->
<g id="node3" class="node">
<title>Node2</title>
<g id="a_node3"><a xlink:href="classdBgS__BoomerangLinChk.html" target="_top" xlink:title=" ">
<polygon fill="white" stroke="black" points="113,-114.5 113,-133.5 239,-133.5 239,-114.5 113,-114.5"/>
<text text-anchor="middle" x="176" y="-121.5" font-family="Helvetica,sans-Serif" font-size="10.00">dBgS_BoomerangLinChk</text>
</a>
</g>
</g>
<!-- Node0&#45;&gt;Node2 -->
<g id="edge2" class="edge">
<title>Node0&#45;&gt;Node2</title>
<path fill="none" stroke="#8b1a1a" d="M83.42,-98.32C102.04,-103.54 123.41,-109.53 140.82,-114.41"/>
<polygon fill="#8b1a1a" stroke="#8b1a1a" points="84.27,-94.92 73.69,-95.59 82.38,-101.66 84.27,-94.92"/>
</g>
<!-- Node3 -->
<g id="node4" class="node">
<title>Node3</title>
<g id="a_node4"><a xlink:href="classdBgS__LinkLinChk.html" target="_top" xlink:title=" ">
<polygon fill="white" stroke="black" points="128.5,-76.5 128.5,-95.5 223.5,-95.5 223.5,-76.5 128.5,-76.5"/>
<text text-anchor="middle" x="176" y="-83.5" font-family="Helvetica,sans-Serif" font-size="10.00">dBgS_LinkLinChk</text>
</a>
</g>
</g>
<!-- Node0&#45;&gt;Node3 -->
<g id="edge3" class="edge">
<title>Node0&#45;&gt;Node3</title>
<path fill="none" stroke="#8b1a1a" d="M87.58,-86C100.81,-86 115.13,-86 128.28,-86"/>
<polygon fill="#8b1a1a" stroke="#8b1a1a" points="87.24,-82.5 77.24,-86 87.24,-89.5 87.24,-82.5"/>
</g>
<!-- Node4 -->
<g id="node5" class="node">
<title>Node4</title>
<g id="a_node5"><a xlink:href="classdBgS__ObjLinChk.html" target="_top" xlink:title=" ">
<polygon fill="white" stroke="black" points="130,-38.5 130,-57.5 222,-57.5 222,-38.5 130,-38.5"/>
<text text-anchor="middle" x="176" y="-45.5" font-family="Helvetica,sans-Serif" font-size="10.00">dBgS_ObjLinChk</text>
</a>
</g>
</g>
<!-- Node0&#45;&gt;Node4 -->
<g id="edge4" class="edge">
<title>Node0&#45;&gt;Node4</title>
<path fill="none" stroke="#8b1a1a" d="M83.42,-73.68C102.04,-68.46 123.41,-62.47 140.82,-57.59"/>
<polygon fill="#8b1a1a" stroke="#8b1a1a" points="82.38,-70.34 73.69,-76.41 84.27,-77.08 82.38,-70.34"/>
</g>
<!-- Node5 -->
<g id="node6" class="node">
<title>Node5</title>
<g id="a_node6"><a xlink:href="classdBgS__RopeLinChk.html" target="_top" xlink:title=" ">
<polygon fill="white" stroke="black" points="126.5,-0.5 126.5,-19.5 225.5,-19.5 225.5,-0.5 126.5,-0.5"/>
<text text-anchor="middle" x="176" y="-7.5" font-family="Helvetica,sans-Serif" font-size="10.00">dBgS_RopeLinChk</text>
</a>
</g>
</g>
<!-- Node0&#45;&gt;Node5 -->
<g id="edge5" class="edge">
<title>Node0&#45;&gt;Node5</title>
<path fill="none" stroke="#8b1a1a" d="M57.12,-69.34C71.27,-56.74 92.15,-39.81 113,-29 120.2,-25.27 128.25,-22.13 136.11,-19.55"/>
<polygon fill="#8b1a1a" stroke="#8b1a1a" points="54.65,-66.86 49.62,-76.18 59.36,-72.03 54.65,-66.86"/>
</g>
</g>
</svg>
