<?xml version="1.0" encoding="UTF-8" standalone="no"?>
<!DOCTYPE svg PUBLIC "-//W3C//DTD SVG 1.1//EN"
 "http://www.w3.org/Graphics/SVG/1.1/DTD/svg11.dtd">
<!-- Generated by graphviz version 2.44.0 ()
 -->
<!-- Title: Graphical Class Hierarchy Pages: 1 -->
<svg width="272pt" height="104pt"
 viewBox="0.00 0.00 272.00 104.00" xmlns="http://www.w3.org/2000/svg" xmlns:xlink="http://www.w3.org/1999/xlink">
<g id="graph0" class="graph" transform="scale(1 1) rotate(0) translate(4 100)">
<title>Graphical Class Hierarchy</title>
<polygon fill="white" stroke="transparent" points="-4,4 -4,-100 268,-100 268,4 -4,4"/>
<!-- Node0 -->
<g id="node1" class="node">
<title>Node0</title>
<g id="a_node1"><a xlink:href="classdCcD__GAtTgCoCommonBase.html" target="_top" xlink:title=" ">
<polygon fill="white" stroke="black" points="0,-38.5 0,-57.5 148,-57.5 148,-38.5 0,-38.5"/>
<text text-anchor="middle" x="74" y="-45.5" font-family="Helvetica,sans-Serif" font-size="10.00">dCcD_GAtTgCoCommonBase</text>
</a>
</g>
</g>
<!-- Node1 -->
<g id="node2" class="node">
<title>Node1</title>
<g id="a_node2"><a xlink:href="classdCcD__GObjAt.html" target="_top" xlink:title=" ">
<polygon fill="white" stroke="black" points="185,-76.5 185,-95.5 263,-95.5 263,-76.5 185,-76.5"/>
<text text-anchor="middle" x="224" y="-83.5" font-family="Helvetica,sans-Serif" font-size="10.00">dCcD_GObjAt</text>
</a>
</g>
</g>
<!-- Node0&#45;&gt;Node1 -->
<g id="edge1" class="edge">
<title>Node0&#45;&gt;Node1</title>
<path fill="none" stroke="#8b1a1a" d="M122.17,-60.11C142.79,-65.4 166.61,-71.52 185.92,-76.48"/>
<polygon fill="#8b1a1a" stroke="#8b1a1a" points="122.9,-56.69 112.35,-57.59 121.16,-63.47 122.9,-56.69"/>
</g>
<!-- Node2 -->
<g id="node3" class="node">
<title>Node2</title>
<g id="a_node3"><a xlink:href="classdCcD__GObjCo.html" target="_top" xlink:title=" ">
<polygon fill="white" stroke="black" points="184,-38.5 184,-57.5 264,-57.5 264,-38.5 184,-38.5"/>
<text text-anchor="middle" x="224" y="-45.5" font-family="Helvetica,sans-Serif" font-size="10.00">dCcD_GObjCo</text>
</a>
</g>
</g>
<!-- Node0&#45;&gt;Node2 -->
<g id="edge2" class="edge">
<title>Node0&#45;&gt;Node2</title>
<path fill="none" stroke="#8b1a1a" d="M158.27,-48C167.2,-48 175.95,-48 183.98,-48"/>
<polygon fill="#8b1a1a" stroke="#8b1a1a" points="158.13,-44.5 148.13,-48 158.13,-51.5 158.13,-44.5"/>
</g>
<!-- Node3 -->
<g id="node4" class="node">
<title>Node3</title>
<g id="a_node4"><a xlink:href="classdCcD__GObjTg.html" target="_top" xlink:title=" ">
<polygon fill="white" stroke="black" points="184,-0.5 184,-19.5 264,-19.5 264,-0.5 184,-0.5"/>
<text text-anchor="middle" x="224" y="-7.5" font-family="Helvetica,sans-Serif" font-size="10.00">dCcD_GObjTg</text>
</a>
</g>
</g>
<!-- Node0&#45;&gt;Node3 -->
<g id="edge3" class="edge">
<title>Node0&#45;&gt;Node3</title>
<path fill="none" stroke="#8b1a1a" d="M122.17,-35.89C142.79,-30.6 166.61,-24.48 185.92,-19.52"/>
<polygon fill="#8b1a1a" stroke="#8b1a1a" points="121.16,-32.53 112.35,-38.41 122.9,-39.31 121.16,-32.53"/>
</g>
</g>
</svg>
