<?xml version="1.0" encoding="UTF-8" standalone="no"?>
<!DOCTYPE svg PUBLIC "-//W3C//DTD SVG 1.1//EN"
 "http://www.w3.org/Graphics/SVG/1.1/DTD/svg11.dtd">
<!-- Generated by graphviz version 2.44.0 ()
 -->
<!-- Title: include/JSystem/J2DGraph/J2DPicture/J2DPicture.h Pages: 1 -->
<!--zoomable 542 -->
<svg id="main" version="1.1" xmlns="http://www.w3.org/2000/svg" xmlns:xlink="http://www.w3.org/1999/xlink" xml:space="preserve" onload="init(evt)">
<style type="text/css"><![CDATA[
.edge:hover path { stroke: red; }
.edge:hover polygon { stroke: red; fill: red; }
]]></style>
<script type="text/javascript"><![CDATA[
var edges = document.getElementsByTagName('g');
if (edges && edges.length) {
  for (var i=0;i<edges.length;i++) {
    if (edges[i].id.substr(0,4)=='edge') {
      edges[i].setAttribute('class','edge');
    }
  }
}
]]></script>
        <defs>
                <circle id="rim" cx="0" cy="0" r="7"/>
                <circle id="rim2" cx="0" cy="0" r="3.5"/>
                <g id="zoomPlus">
                        <use xlink:href="#rim" fill="#404040">
                                <set attributeName="fill" to="#808080" begin="zoomplus.mouseover" end="zoomplus.mouseout"/>
                        </use>
                        <path d="M-4,0h8M0,-4v8" fill="none" stroke="white" stroke-width="1.5" pointer-events="none"/>
                </g>
                <g id="zoomMin">
                        <use xlink:href="#rim" fill="#404040">
                                <set attributeName="fill" to="#808080" begin="zoomminus.mouseover" end="zoomminus.mouseout"/>
                        </use>
                        <path d="M-4,0h8" fill="none" stroke="white" stroke-width="1.5" pointer-events="none"/>
                </g>
                <g id="dirArrow">
                        <path fill="none" stroke="white" stroke-width="1.5" d="M0,-3.0v7 M-2.5,-0.5L0,-3.0L2.5,-0.5"/>
                </g>
               <g id="resetDef">
                       <use xlink:href="#rim2" fill="#404040">
                               <set attributeName="fill" to="#808080" begin="reset.mouseover" end="reset.mouseout"/>
                       </use>
               </g>
        </defs>

<script type="text/javascript">
var viewWidth = 2015;
var viewHeight = 542;
var sectionId = 'dynsection-0';
</script>
<script xlink:href="svgpan.js"/>
<svg id="graph" class="graph">
<g id="viewport">
<title>include/JSystem/J2DGraph/J2DPicture/J2DPicture.h</title>
<polygon fill="white" stroke="transparent" points="-4,4 -4,-538 2011.33,-538 2011.33,4 -4,4"/>
<!-- Node1 -->
<g id="node1" class="node">
<title>Node1</title>
<g id="a_node1"><a xlink:title=" ">
<polygon fill="#bfbfbf" stroke="black" points="966.83,-503.5 966.83,-533.5 1101.83,-533.5 1101.83,-503.5 966.83,-503.5"/>
<text text-anchor="start" x="974.83" y="-521.5" font-family="Helvetica,sans-Serif" font-size="10.00">include/JSystem/J2DGraph</text>
<text text-anchor="middle" x="1034.33" y="-510.5" font-family="Helvetica,sans-Serif" font-size="10.00">/J2DPicture/J2DPicture.h</text>
</a>
</g>
</g>
<!-- Node2 -->
<g id="node2" class="node">
<title>Node2</title>
<g id="a_node2"><a xlink:href="J2DPane_8h.html" target="_top" xlink:title=" ">
<polygon fill="white" stroke="black" points="1087.33,-447.5 1087.33,-466.5 1239.33,-466.5 1239.33,-447.5 1087.33,-447.5"/>
<text text-anchor="middle" x="1163.33" y="-454.5" font-family="Helvetica,sans-Serif" font-size="10.00">JSystem/J2DGraph/J2DPane.h</text>
</a>
</g>
</g>
<!-- Node1&#45;&gt;Node2 -->
<g id="edge1" class="edge">
<title>Node1&#45;&gt;Node2</title>
<path fill="none" stroke="midnightblue" d="M1064.9,-503.4C1086.25,-493.55 1114.54,-480.5 1135.31,-470.92"/>
<polygon fill="midnightblue" stroke="midnightblue" points="1136.94,-474.02 1144.56,-466.66 1134.01,-467.67 1136.94,-474.02"/>
</g>
<!-- Node5 -->
<g id="node5" class="node">
<title>Node5</title>
<g id="a_node5"><a xlink:href="types_8h.html" target="_top" xlink:title=" ">
<polygon fill="white" stroke="black" points="862.83,-0.5 862.83,-19.5 943.83,-19.5 943.83,-0.5 862.83,-0.5"/>
<text text-anchor="middle" x="903.33" y="-7.5" font-family="Helvetica,sans-Serif" font-size="10.00">dolphin/types.h</text>
</a>
</g>
</g>
<!-- Node1&#45;&gt;Node5 -->
<g id="edge70" class="edge">
<title>Node1&#45;&gt;Node5</title>
<path fill="none" stroke="midnightblue" d="M966.75,-516.63C738.49,-512.83 10.33,-493.11 10.33,-396.5 10.33,-396.5 10.33,-396.5 10.33,-126.5 10.33,-106.68 -55.88,-109.69 150.33,-56 283.53,-21.32 705.68,-13.25 852.45,-11.48"/>
<polygon fill="midnightblue" stroke="midnightblue" points="852.57,-14.97 862.53,-11.36 852.49,-7.97 852.57,-14.97"/>
</g>
<!-- Node31 -->
<g id="node31" class="node">
<title>Node31</title>
<g id="a_node31"><a xlink:href="JUTTexture_8h.html" target="_top" xlink:title=" ">
<polygon fill="white" stroke="black" points="591.83,-386 591.83,-405 740.83,-405 740.83,-386 591.83,-386"/>
<text text-anchor="middle" x="666.33" y="-393" font-family="Helvetica,sans-Serif" font-size="10.00">JSystem/JUtility/JUTTexture.h</text>
</a>
</g>
</g>
<!-- Node1&#45;&gt;Node31 -->
<g id="edge69" class="edge">
<title>Node1&#45;&gt;Node31</title>
<path fill="none" stroke="midnightblue" d="M991.39,-503.38C918.18,-479.31 770.48,-430.75 702.31,-408.33"/>
<polygon fill="midnightblue" stroke="midnightblue" points="703.05,-404.89 692.46,-405.09 700.87,-411.54 703.05,-404.89"/>
</g>
<!-- Node34 -->
<g id="node34" class="node">
<title>Node34</title>
<g id="a_node34"><a xlink:href="JGeometry_8h.html" target="_top" xlink:title=" ">
<polygon fill="white" stroke="black" points="1573.83,-447.5 1573.83,-466.5 1736.83,-466.5 1736.83,-447.5 1573.83,-447.5"/>
<text text-anchor="middle" x="1655.33" y="-454.5" font-family="Helvetica,sans-Serif" font-size="10.00">JSystem/JGeometry/JGeometry.h</text>
</a>
</g>
</g>
<!-- Node1&#45;&gt;Node34 -->
<g id="edge67" class="edge">
<title>Node1&#45;&gt;Node34</title>
<path fill="none" stroke="midnightblue" d="M1101.97,-511.02C1213.91,-500.29 1437.82,-478.84 1563.8,-466.77"/>
<polygon fill="midnightblue" stroke="midnightblue" points="1564.19,-470.25 1573.82,-465.81 1563.53,-463.28 1564.19,-470.25"/>
</g>
<!-- Node3 -->
<g id="node3" class="node">
<title>Node3</title>
<g id="a_node3"><a xlink:href="J2DAnimation_8h.html" target="_top" xlink:title=" ">
<polygon fill="white" stroke="black" points="1086.83,-118 1086.83,-137 1259.83,-137 1259.83,-118 1086.83,-118"/>
<text text-anchor="middle" x="1173.33" y="-125" font-family="Helvetica,sans-Serif" font-size="10.00">JSystem/J2DGraph/J2DAnimation.h</text>
</a>
</g>
</g>
<!-- Node2&#45;&gt;Node3 -->
<g id="edge2" class="edge">
<title>Node2&#45;&gt;Node3</title>
<path fill="none" stroke="midnightblue" d="M1165.51,-447.48C1170.5,-427.19 1182.33,-374.36 1182.33,-329.5 1182.33,-329.5 1182.33,-329.5 1182.33,-260.5 1182.33,-220.06 1178.07,-172.82 1175.41,-147.25"/>
<polygon fill="midnightblue" stroke="midnightblue" points="1178.88,-146.7 1174.33,-137.13 1171.92,-147.45 1178.88,-146.7"/>
</g>
<!-- Node7 -->
<g id="node7" class="node">
<title>Node7</title>
<g id="a_node7"><a xlink:href="J2DGrafContext_8h.html" target="_top" xlink:title=" ">
<polygon fill="white" stroke="black" points="1661.33,-313.5 1661.33,-343.5 1801.33,-343.5 1801.33,-313.5 1661.33,-313.5"/>
<text text-anchor="start" x="1669.33" y="-331.5" font-family="Helvetica,sans-Serif" font-size="10.00">JSystem/J2DGraph/J2DGraf</text>
<text text-anchor="middle" x="1731.33" y="-320.5" font-family="Helvetica,sans-Serif" font-size="10.00">Context.h</text>
</a>
</g>
</g>
<!-- Node2&#45;&gt;Node7 -->
<g id="edge8" class="edge">
<title>Node2&#45;&gt;Node7</title>
<path fill="none" stroke="midnightblue" d="M1239.67,-452.92C1349.4,-447.71 1545.82,-435.29 1612.33,-411 1649.41,-397.46 1685.94,-369.69 1708.55,-350.35"/>
<polygon fill="midnightblue" stroke="midnightblue" points="1710.99,-352.86 1716.22,-343.65 1706.39,-347.59 1710.99,-352.86"/>
</g>
<!-- Node8 -->
<g id="node8" class="node">
<title>Node8</title>
<g id="a_node8"><a xlink:href="J2DScreen_8h.html" target="_top" xlink:title=" ">
<polygon fill="white" stroke="black" points="1819.33,-319 1819.33,-338 1979.33,-338 1979.33,-319 1819.33,-319"/>
<text text-anchor="middle" x="1899.33" y="-326" font-family="Helvetica,sans-Serif" font-size="10.00">JSystem/J2DGraph/J2DScreen.h</text>
</a>
</g>
</g>
<!-- Node2&#45;&gt;Node8 -->
<g id="edge10" class="edge">
<title>Node2&#45;&gt;Node8</title>
<path fill="none" stroke="midnightblue" d="M1239.41,-454.43C1336.61,-451.19 1509.59,-441.29 1654.33,-411 1734.04,-394.32 1824,-360.27 1869.52,-341.9"/>
<polygon fill="midnightblue" stroke="midnightblue" points="1870.86,-345.14 1878.8,-338.13 1868.22,-338.65 1870.86,-345.14"/>
</g>
<!-- Node9 -->
<g id="node9" class="node">
<title>Node9</title>
<g id="a_node9"><a xlink:href="JKRArchive_8h.html" target="_top" xlink:title=" ">
<polygon fill="white" stroke="black" points="120.33,-380.5 120.33,-410.5 266.33,-410.5 266.33,-380.5 120.33,-380.5"/>
<text text-anchor="start" x="128.33" y="-398.5" font-family="Helvetica,sans-Serif" font-size="10.00">JSystem/JKernel/JKRArchive</text>
<text text-anchor="middle" x="193.33" y="-387.5" font-family="Helvetica,sans-Serif" font-size="10.00">/JKRArchive.h</text>
</a>
</g>
</g>
<!-- Node2&#45;&gt;Node9 -->
<g id="edge12" class="edge">
<title>Node2&#45;&gt;Node9</title>
<path fill="none" stroke="midnightblue" d="M1087.21,-451.33C908.38,-440.36 462.51,-413.01 276.69,-401.61"/>
<polygon fill="midnightblue" stroke="midnightblue" points="276.63,-398.1 266.43,-400.98 276.2,-405.09 276.63,-398.1"/>
</g>
<!-- Node15 -->
<g id="node15" class="node">
<title>Node15</title>
<g id="a_node15"><a xlink:href="JSUList_8h.html" target="_top" xlink:title=" ">
<polygon fill="white" stroke="black" points="476.33,-112.5 476.33,-142.5 612.33,-142.5 612.33,-112.5 476.33,-112.5"/>
<text text-anchor="start" x="484.33" y="-130.5" font-family="Helvetica,sans-Serif" font-size="10.00">JSystem/JSupport/JSUList</text>
<text text-anchor="middle" x="544.33" y="-119.5" font-family="Helvetica,sans-Serif" font-size="10.00">/JSUList.h</text>
</a>
</g>
</g>
<!-- Node2&#45;&gt;Node15 -->
<g id="edge41" class="edge">
<title>Node2&#45;&gt;Node15</title>
<path fill="none" stroke="midnightblue" d="M1087.15,-447.44C1045.49,-440.92 993.69,-429.75 950.33,-411 788.85,-341.19 625.82,-202.2 567.13,-149.46"/>
<polygon fill="midnightblue" stroke="midnightblue" points="569.31,-146.71 559.55,-142.6 564.62,-151.91 569.31,-146.71"/>
</g>
<!-- Node16 -->
<g id="node16" class="node">
<title>Node16</title>
<g id="a_node16"><a xlink:href="global_8h.html" target="_top" xlink:title=" ">
<polygon fill="white" stroke="black" points="777.33,-185 777.33,-204 827.33,-204 827.33,-185 777.33,-185"/>
<text text-anchor="middle" x="802.33" y="-192" font-family="Helvetica,sans-Serif" font-size="10.00">global.h</text>
</a>
</g>
</g>
<!-- Node2&#45;&gt;Node16 -->
<g id="edge63" class="edge">
<title>Node2&#45;&gt;Node16</title>
<path fill="none" stroke="midnightblue" d="M1127.29,-447.45C1057.47,-428.96 903.61,-378.5 823.33,-277 808.98,-258.86 804.35,-232.01 802.9,-214.14"/>
<polygon fill="midnightblue" stroke="midnightblue" points="806.39,-213.9 802.35,-204.11 799.4,-214.29 806.39,-213.9"/>
</g>
<!-- Node23 -->
<g id="node23" class="node">
<title>Node23</title>
<g id="a_node23"><a xlink:href="JSURandomInputStream_8h.html" target="_top" xlink:title=" ">
<polygon fill="white" stroke="black" points="1298.83,-179.5 1298.83,-209.5 1487.83,-209.5 1487.83,-179.5 1298.83,-179.5"/>
<text text-anchor="start" x="1306.83" y="-197.5" font-family="Helvetica,sans-Serif" font-size="10.00">JSystem/JSupport/JSURandom</text>
<text text-anchor="middle" x="1393.33" y="-186.5" font-family="Helvetica,sans-Serif" font-size="10.00">InputStream/JSURandomInputStream.h</text>
</a>
</g>
</g>
<!-- Node2&#45;&gt;Node23 -->
<g id="edge42" class="edge">
<title>Node2&#45;&gt;Node23</title>
<path fill="none" stroke="midnightblue" d="M1170.98,-447.33C1202.94,-411.14 1326.27,-271.45 1374.16,-217.21"/>
<polygon fill="midnightblue" stroke="midnightblue" points="1376.92,-219.37 1380.92,-209.56 1371.67,-214.74 1376.92,-219.37"/>
</g>
<!-- Node26 -->
<g id="node26" class="node">
<title>Node26</title>
<g id="a_node26"><a xlink:href="JUTResFont_8h.html" target="_top" xlink:title=" ">
<polygon fill="white" stroke="black" points="962.33,-319 962.33,-338 1116.33,-338 1116.33,-319 962.33,-319"/>
<text text-anchor="middle" x="1039.33" y="-326" font-family="Helvetica,sans-Serif" font-size="10.00">JSystem/JUtility/JUTResFont.h</text>
</a>
</g>
</g>
<!-- Node2&#45;&gt;Node26 -->
<g id="edge48" class="edge">
<title>Node2&#45;&gt;Node26</title>
<path fill="none" stroke="midnightblue" d="M1154.81,-447.31C1134.19,-426.27 1081.37,-372.39 1054.92,-345.4"/>
<polygon fill="midnightblue" stroke="midnightblue" points="1057.41,-342.95 1047.91,-338.26 1052.41,-347.85 1057.41,-342.95"/>
</g>
<!-- Node29 -->
<g id="node29" class="node">
<title>Node29</title>
<g id="a_node29"><a xlink:href="GX_8h.html" target="_top" xlink:title=" ">
<polygon fill="white" stroke="black" points="1025.83,-185 1025.83,-204 1076.83,-204 1076.83,-185 1025.83,-185"/>
<text text-anchor="middle" x="1051.33" y="-192" font-family="Helvetica,sans-Serif" font-size="10.00">gx/GX.h</text>
</a>
</g>
</g>
<!-- Node2&#45;&gt;Node29 -->
<g id="edge64" class="edge">
<title>Node2&#45;&gt;Node29</title>
<path fill="none" stroke="midnightblue" d="M1163.96,-447.15C1165.7,-416.51 1167.86,-313.23 1124.33,-246 1113.85,-229.82 1096.2,-217.4 1080.87,-208.93"/>
<polygon fill="midnightblue" stroke="midnightblue" points="1082.2,-205.67 1071.71,-204.16 1078.97,-211.88 1082.2,-205.67"/>
</g>
<!-- Node30 -->
<g id="node30" class="node">
<title>Node30</title>
<g id="a_node30"><a xlink:href="JUTResource_8h.html" target="_top" xlink:title=" ">
<polygon fill="white" stroke="black" points="1291.33,-386 1291.33,-405 1449.33,-405 1449.33,-386 1291.33,-386"/>
<text text-anchor="middle" x="1370.33" y="-393" font-family="Helvetica,sans-Serif" font-size="10.00">JSystem/JUtility/JUTResource.h</text>
</a>
</g>
</g>
<!-- Node2&#45;&gt;Node30 -->
<g id="edge57" class="edge">
<title>Node2&#45;&gt;Node30</title>
<path fill="none" stroke="midnightblue" d="M1192.99,-447.48C1229.26,-437.05 1290.79,-419.36 1330.99,-407.81"/>
<polygon fill="midnightblue" stroke="midnightblue" points="1332.08,-411.14 1340.73,-405.01 1330.15,-404.41 1332.08,-411.14"/>
</g>
<!-- Node2&#45;&gt;Node31 -->
<g id="edge59" class="edge">
<title>Node2&#45;&gt;Node31</title>
<path fill="none" stroke="midnightblue" d="M1087.04,-448.84C1004.78,-440.84 870.04,-426.89 754.33,-411 744.88,-409.7 734.88,-408.19 725.15,-406.64"/>
<polygon fill="midnightblue" stroke="midnightblue" points="725.56,-403.16 715.13,-405.02 724.44,-410.07 725.56,-403.16"/>
</g>
<!-- Node32 -->
<g id="node32" class="node">
<title>Node32</title>
<g id="a_node32"><a xlink:href="geometry_8h.html" target="_top" xlink:title=" ">
<polygon fill="white" stroke="black" points="1474.83,-386 1474.83,-405 1579.83,-405 1579.83,-386 1474.83,-386"/>
<text text-anchor="middle" x="1527.33" y="-393" font-family="Helvetica,sans-Serif" font-size="10.00">JSystem/geometry.h</text>
</a>
</g>
</g>
<!-- Node2&#45;&gt;Node32 -->
<g id="edge61" class="edge">
<title>Node2&#45;&gt;Node32</title>
<path fill="none" stroke="midnightblue" d="M1225.94,-447.48C1285.77,-439.1 1378.42,-425.48 1458.33,-411 1464.96,-409.8 1471.94,-408.44 1478.8,-407.05"/>
<polygon fill="midnightblue" stroke="midnightblue" points="1479.63,-410.46 1488.72,-405.01 1478.22,-403.6 1479.63,-410.46"/>
</g>
<!-- Node33 -->
<g id="node33" class="node">
<title>Node33</title>
<g id="a_node33"><a xlink:href="mtx__vec_8h.html" target="_top" xlink:title=" ">
<polygon fill="white" stroke="black" points="1581.83,-319 1581.83,-338 1642.83,-338 1642.83,-319 1581.83,-319"/>
<text text-anchor="middle" x="1612.33" y="-326" font-family="Helvetica,sans-Serif" font-size="10.00">mtx_vec.h</text>
</a>
</g>
</g>
<!-- Node2&#45;&gt;Node33 -->
<g id="edge65" class="edge">
<title>Node2&#45;&gt;Node33</title>
<path fill="none" stroke="midnightblue" d="M1239.52,-452.49C1354.59,-446.5 1562.15,-432.83 1588.33,-411 1606.71,-395.68 1611.43,-367.04 1612.43,-348.12"/>
<polygon fill="midnightblue" stroke="midnightblue" points="1615.93,-348.12 1612.65,-338.04 1608.93,-347.96 1615.93,-348.12"/>
</g>
<!-- Node4 -->
<g id="node4" class="node">
<title>Node4</title>
<g id="a_node4"><a xlink:href="J2DSys_8h.html" target="_top" xlink:title=" ">
<polygon fill="white" stroke="black" points="996.83,-56.5 996.83,-75.5 1095.83,-75.5 1095.83,-56.5 996.83,-56.5"/>
<text text-anchor="middle" x="1046.33" y="-63.5" font-family="Helvetica,sans-Serif" font-size="10.00">JSystem/J2DSys.h</text>
</a>
</g>
</g>
<!-- Node3&#45;&gt;Node4 -->
<g id="edge3" class="edge">
<title>Node3&#45;&gt;Node4</title>
<path fill="none" stroke="midnightblue" d="M1155.13,-117.98C1133.82,-107.99 1098.3,-91.35 1073.67,-79.81"/>
<polygon fill="midnightblue" stroke="midnightblue" points="1075.03,-76.58 1064.49,-75.51 1072.06,-82.92 1075.03,-76.58"/>
</g>
<!-- Node3&#45;&gt;Node5 -->
<g id="edge7" class="edge">
<title>Node3&#45;&gt;Node5</title>
<path fill="none" stroke="midnightblue" d="M1186.82,-117.79C1206.58,-103.99 1239.19,-76.57 1221.33,-56 1187.39,-16.92 1035.41,-10.86 954.47,-10.47"/>
<polygon fill="midnightblue" stroke="midnightblue" points="954.02,-6.97 944.01,-10.45 954,-13.97 954.02,-6.97"/>
</g>
<!-- Node6 -->
<g id="node6" class="node">
<title>Node6</title>
<g id="a_node6"><a xlink:href="J3DSys_8h.html" target="_top" xlink:title=" ">
<polygon fill="white" stroke="black" points="1113.83,-56.5 1113.83,-75.5 1212.83,-75.5 1212.83,-56.5 1113.83,-56.5"/>
<text text-anchor="middle" x="1163.33" y="-63.5" font-family="Helvetica,sans-Serif" font-size="10.00">JSystem/J3DSys.h</text>
</a>
</g>
</g>
<!-- Node3&#45;&gt;Node6 -->
<g id="edge5" class="edge">
<title>Node3&#45;&gt;Node6</title>
<path fill="none" stroke="midnightblue" d="M1171.9,-117.98C1170.48,-109.58 1168.28,-96.48 1166.47,-85.66"/>
<polygon fill="midnightblue" stroke="midnightblue" points="1169.87,-84.79 1164.76,-75.51 1162.96,-85.95 1169.87,-84.79"/>
</g>
<!-- Node4&#45;&gt;Node5 -->
<g id="edge4" class="edge">
<title>Node4&#45;&gt;Node5</title>
<path fill="none" stroke="midnightblue" d="M1023.67,-56.44C999.93,-47.48 962.42,-33.31 935.59,-23.18"/>
<polygon fill="midnightblue" stroke="midnightblue" points="936.47,-19.77 925.88,-19.52 934,-26.32 936.47,-19.77"/>
</g>
<!-- Node6&#45;&gt;Node5 -->
<g id="edge6" class="edge">
<title>Node6&#45;&gt;Node5</title>
<path fill="none" stroke="midnightblue" d="M1122.13,-56.44C1076.55,-46.98 1003.06,-31.71 953.99,-21.52"/>
<polygon fill="midnightblue" stroke="midnightblue" points="954.41,-18.03 943.91,-19.43 952.98,-24.89 954.41,-18.03"/>
</g>
<!-- Node7&#45;&gt;Node5 -->
<g id="edge9" class="edge">
<title>Node7&#45;&gt;Node5</title>
<path fill="none" stroke="midnightblue" d="M1724.18,-313.26C1712.92,-289.49 1692.33,-239.95 1692.33,-195.5 1692.33,-195.5 1692.33,-195.5 1692.33,-126.5 1692.33,-79.11 1656.11,-74.14 1612.33,-56 1551.97,-30.99 1105.84,-16.55 953.87,-12.32"/>
<polygon fill="midnightblue" stroke="midnightblue" points="953.96,-8.82 943.86,-12.04 953.76,-15.82 953.96,-8.82"/>
</g>
<!-- Node8&#45;&gt;Node5 -->
<g id="edge11" class="edge">
<title>Node8&#45;&gt;Node5</title>
<path fill="none" stroke="midnightblue" d="M1885.3,-318.86C1856.92,-300.16 1795.33,-252.97 1795.33,-195.5 1795.33,-195.5 1795.33,-195.5 1795.33,-126.5 1795.33,-54.84 1719.64,-74.17 1650.33,-56 1518.39,-21.42 1100.4,-13.29 954.32,-11.49"/>
<polygon fill="midnightblue" stroke="midnightblue" points="954.32,-7.99 944.28,-11.37 954.23,-14.99 954.32,-7.99"/>
</g>
<!-- Node9&#45;&gt;Node5 -->
<g id="edge40" class="edge">
<title>Node9&#45;&gt;Node5</title>
<path fill="none" stroke="midnightblue" d="M157.49,-380.44C114.55,-360.97 48.33,-321.39 48.33,-262.5 48.33,-262.5 48.33,-262.5 48.33,-126.5 48.33,-44.86 668.44,-18.51 852.45,-12.48"/>
<polygon fill="midnightblue" stroke="midnightblue" points="852.78,-15.97 862.67,-12.15 852.56,-8.98 852.78,-15.97"/>
</g>
<!-- Node10 -->
<g id="node10" class="node">
<title>Node10</title>
<g id="a_node10"><a xlink:href="JKRDecomp_8h.html" target="_top" xlink:title=" ">
<polygon fill="white" stroke="black" points="392.83,-313.5 392.83,-343.5 541.83,-343.5 541.83,-313.5 392.83,-313.5"/>
<text text-anchor="start" x="400.83" y="-331.5" font-family="Helvetica,sans-Serif" font-size="10.00">JSystem/JKernel/JKRDecomp</text>
<text text-anchor="middle" x="467.33" y="-320.5" font-family="Helvetica,sans-Serif" font-size="10.00">/JKRDecomp.h</text>
</a>
</g>
</g>
<!-- Node9&#45;&gt;Node10 -->
<g id="edge13" class="edge">
<title>Node9&#45;&gt;Node10</title>
<path fill="none" stroke="midnightblue" d="M252.45,-380.48C295.15,-370.34 352.98,-356.63 397.89,-345.97"/>
<polygon fill="midnightblue" stroke="midnightblue" points="398.92,-349.32 407.85,-343.61 397.31,-342.51 398.92,-349.32"/>
</g>
<!-- Node12 -->
<g id="node12" class="node">
<title>Node12</title>
<g id="a_node12"><a xlink:href="SArc_8h.html" target="_top" xlink:title=" ">
<polygon fill="white" stroke="black" points="220.83,-185 220.83,-204 343.83,-204 343.83,-185 220.83,-185"/>
<text text-anchor="middle" x="282.33" y="-192" font-family="Helvetica,sans-Serif" font-size="10.00">JSystem/JKernel/SArc.h</text>
</a>
</g>
</g>
<!-- Node9&#45;&gt;Node12 -->
<g id="edge39" class="edge">
<title>Node9&#45;&gt;Node12</title>
<path fill="none" stroke="midnightblue" d="M173.63,-380.33C138.2,-353.13 70.49,-292.17 105.33,-246 118.97,-227.92 171.79,-214.37 216.21,-205.89"/>
<polygon fill="midnightblue" stroke="midnightblue" points="216.93,-209.32 226.12,-204.05 215.65,-202.43 216.93,-209.32"/>
</g>
<!-- Node22 -->
<g id="node22" class="node">
<title>Node22</title>
<g id="a_node22"><a xlink:href="JKRFileLoader_8h.html" target="_top" xlink:title=" ">
<polygon fill="white" stroke="black" points="114.33,-246.5 114.33,-276.5 272.33,-276.5 272.33,-246.5 114.33,-246.5"/>
<text text-anchor="start" x="122.33" y="-264.5" font-family="Helvetica,sans-Serif" font-size="10.00">JSystem/JKernel/JKRFileLoader</text>
<text text-anchor="middle" x="193.33" y="-253.5" font-family="Helvetica,sans-Serif" font-size="10.00">/JKRFileLoader.h</text>
</a>
</g>
</g>
<!-- Node9&#45;&gt;Node22 -->
<g id="edge36" class="edge">
<title>Node9&#45;&gt;Node22</title>
<path fill="none" stroke="midnightblue" d="M193.33,-380.37C193.33,-358.04 193.33,-314.31 193.33,-286.85"/>
<polygon fill="midnightblue" stroke="midnightblue" points="196.83,-286.52 193.33,-276.52 189.83,-286.52 196.83,-286.52"/>
</g>
<!-- Node10&#45;&gt;Node5 -->
<g id="edge35" class="edge">
<title>Node10&#45;&gt;Node5</title>
<path fill="none" stroke="midnightblue" d="M542.02,-324.7C576.51,-319.19 614.56,-306.22 636.33,-277 647.19,-262.42 647.03,-296.67 621.33,-112 617.88,-87.21 599.05,-75.02 615.33,-56 645.26,-21.02 778.12,-13.03 852.48,-11.34"/>
<polygon fill="midnightblue" stroke="midnightblue" points="852.64,-14.84 862.57,-11.14 852.5,-7.84 852.64,-14.84"/>
</g>
<!-- Node11 -->
<g id="node11" class="node">
<title>Node11</title>
<g id="a_node11"><a xlink:href="JKRCompression_8h.html" target="_top" xlink:title=" ">
<polygon fill="white" stroke="black" points="289.83,-252 289.83,-271 466.83,-271 466.83,-252 289.83,-252"/>
<text text-anchor="middle" x="378.33" y="-259" font-family="Helvetica,sans-Serif" font-size="10.00">JSystem/JKernel/JKRCompression.h</text>
</a>
</g>
</g>
<!-- Node10&#45;&gt;Node11 -->
<g id="edge14" class="edge">
<title>Node10&#45;&gt;Node11</title>
<path fill="none" stroke="midnightblue" d="M448.02,-313.4C433.37,-302.7 413.29,-288.03 398.45,-277.19"/>
<polygon fill="midnightblue" stroke="midnightblue" points="400.12,-274.08 389.98,-271.01 395.99,-279.73 400.12,-274.08"/>
</g>
<!-- Node13 -->
<g id="node13" class="node">
<title>Node13</title>
<g id="a_node13"><a xlink:href="JKRThread_8h.html" target="_top" xlink:title=" ">
<polygon fill="white" stroke="black" points="484.83,-246.5 484.83,-276.5 627.83,-276.5 627.83,-246.5 484.83,-246.5"/>
<text text-anchor="start" x="492.83" y="-264.5" font-family="Helvetica,sans-Serif" font-size="10.00">JSystem/JKernel/JKRThread</text>
<text text-anchor="middle" x="556.33" y="-253.5" font-family="Helvetica,sans-Serif" font-size="10.00">/JKRThread.h</text>
</a>
</g>
</g>
<!-- Node10&#45;&gt;Node13 -->
<g id="edge18" class="edge">
<title>Node10&#45;&gt;Node13</title>
<path fill="none" stroke="midnightblue" d="M486.64,-313.4C499,-304.37 515.23,-292.51 528.92,-282.52"/>
<polygon fill="midnightblue" stroke="midnightblue" points="531.04,-285.3 537.05,-276.58 526.91,-279.65 531.04,-285.3"/>
</g>
<!-- Node11&#45;&gt;Node5 -->
<g id="edge17" class="edge">
<title>Node11&#45;&gt;Node5</title>
<path fill="none" stroke="midnightblue" d="M378.57,-251.72C380.06,-217.52 390.74,-93.3 467.33,-56 534.07,-23.5 752.31,-14.4 852.37,-11.91"/>
<polygon fill="midnightblue" stroke="midnightblue" points="852.62,-15.41 862.54,-11.67 852.46,-8.41 852.62,-15.41"/>
</g>
<!-- Node11&#45;&gt;Node12 -->
<g id="edge15" class="edge">
<title>Node11&#45;&gt;Node12</title>
<path fill="none" stroke="midnightblue" d="M365.38,-251.73C349.48,-240.96 322.28,-222.55 303.36,-209.74"/>
<polygon fill="midnightblue" stroke="midnightblue" points="305.31,-206.84 295.07,-204.13 301.39,-212.63 305.31,-206.84"/>
</g>
<!-- Node12&#45;&gt;Node5 -->
<g id="edge16" class="edge">
<title>Node12&#45;&gt;Node5</title>
<path fill="none" stroke="midnightblue" d="M284.15,-184.79C289.9,-159.7 310.23,-87.11 358.33,-56 399.23,-29.54 724.82,-16.59 852.35,-12.49"/>
<polygon fill="midnightblue" stroke="midnightblue" points="852.74,-15.98 862.63,-12.16 852.52,-8.98 852.74,-15.98"/>
</g>
<!-- Node13&#45;&gt;Node5 -->
<g id="edge23" class="edge">
<title>Node13&#45;&gt;Node5</title>
<path fill="none" stroke="midnightblue" d="M484.5,-248.07C463.17,-240.66 442.12,-228.85 429.33,-210 387.12,-147.79 434.72,-94.44 499.33,-56 557.79,-21.22 757.29,-13.3 852.27,-11.51"/>
<polygon fill="midnightblue" stroke="midnightblue" points="852.56,-15.01 862.5,-11.34 852.44,-8.01 852.56,-15.01"/>
</g>
<!-- Node14 -->
<g id="node14" class="node">
<title>Node14</title>
<g id="a_node14"><a xlink:href="JKRDisposer_8h.html" target="_top" xlink:title=" ">
<polygon fill="white" stroke="black" points="438.83,-179.5 438.83,-209.5 589.83,-209.5 589.83,-179.5 438.83,-179.5"/>
<text text-anchor="start" x="446.83" y="-197.5" font-family="Helvetica,sans-Serif" font-size="10.00">JSystem/JKernel/JKRDisposer</text>
<text text-anchor="middle" x="514.33" y="-186.5" font-family="Helvetica,sans-Serif" font-size="10.00">/JKRDisposer.h</text>
</a>
</g>
</g>
<!-- Node13&#45;&gt;Node14 -->
<g id="edge19" class="edge">
<title>Node13&#45;&gt;Node14</title>
<path fill="none" stroke="midnightblue" d="M547.22,-246.4C541.88,-238.13 535.01,-227.51 528.93,-218.1"/>
<polygon fill="midnightblue" stroke="midnightblue" points="531.79,-216.08 523.42,-209.58 525.91,-219.88 531.79,-216.08"/>
</g>
<!-- Node13&#45;&gt;Node16 -->
<g id="edge24" class="edge">
<title>Node13&#45;&gt;Node16</title>
<path fill="none" stroke="midnightblue" d="M609.4,-246.48C657.19,-233.85 726.06,-215.65 767.29,-204.76"/>
<polygon fill="midnightblue" stroke="midnightblue" points="768.37,-208.09 777.15,-202.15 766.58,-201.32 768.37,-208.09"/>
</g>
<!-- Node14&#45;&gt;Node5 -->
<g id="edge22" class="edge">
<title>Node14&#45;&gt;Node5</title>
<path fill="none" stroke="midnightblue" d="M496.35,-179.4C477.96,-163.17 453.85,-135.72 467.33,-112 491.35,-69.72 515.39,-71.94 561.33,-56 660.61,-21.54 784.49,-13.18 852.59,-11.33"/>
<polygon fill="midnightblue" stroke="midnightblue" points="852.71,-14.83 862.62,-11.09 852.54,-7.83 852.71,-14.83"/>
</g>
<!-- Node14&#45;&gt;Node15 -->
<g id="edge20" class="edge">
<title>Node14&#45;&gt;Node15</title>
<path fill="none" stroke="midnightblue" d="M520.84,-179.4C524.57,-171.3 529.35,-160.94 533.63,-151.69"/>
<polygon fill="midnightblue" stroke="midnightblue" points="536.82,-153.12 537.83,-142.58 530.46,-150.19 536.82,-153.12"/>
</g>
<!-- Node15&#45;&gt;Node5 -->
<g id="edge21" class="edge">
<title>Node15&#45;&gt;Node5</title>
<path fill="none" stroke="midnightblue" d="M547.83,-112.26C552.66,-95.85 563.04,-69.42 582.33,-56 624.99,-26.32 773.2,-16.04 852.43,-12.62"/>
<polygon fill="midnightblue" stroke="midnightblue" points="852.83,-16.11 862.67,-12.2 852.54,-9.11 852.83,-16.11"/>
</g>
<!-- Node16&#45;&gt;Node5 -->
<g id="edge25" class="edge">
<title>Node16&#45;&gt;Node5</title>
<path fill="none" stroke="midnightblue" d="M809.86,-184.91C817.72,-175.38 829.68,-159.22 835.33,-143 848.1,-106.33 824.39,-89.9 843.33,-56 850.72,-42.78 863.78,-32.28 875.84,-24.76"/>
<polygon fill="midnightblue" stroke="midnightblue" points="877.85,-27.64 884.75,-19.59 874.34,-21.58 877.85,-27.64"/>
</g>
<!-- Node17 -->
<g id="node17" class="node">
<title>Node17</title>
<g id="a_node17"><a xlink:href="AR_8h.html" target="_top" xlink:title=" ">
<polygon fill="white" stroke="black" points="852.83,-56.5 852.83,-75.5 901.83,-75.5 901.83,-56.5 852.83,-56.5"/>
<text text-anchor="middle" x="877.33" y="-63.5" font-family="Helvetica,sans-Serif" font-size="10.00">ar/AR.h</text>
</a>
</g>
</g>
<!-- Node16&#45;&gt;Node17 -->
<g id="edge26" class="edge">
<title>Node16&#45;&gt;Node17</title>
<path fill="none" stroke="midnightblue" d="M820.48,-184.87C835.96,-176.47 857.4,-162.18 868.33,-143 878.28,-125.53 879.61,-102.17 879.04,-85.98"/>
<polygon fill="midnightblue" stroke="midnightblue" points="882.51,-85.4 878.38,-75.64 875.52,-85.85 882.51,-85.4"/>
</g>
<!-- Node18 -->
<g id="node18" class="node">
<title>Node18</title>
<g id="a_node18"><a xlink:href="ARQ_8h.html" target="_top" xlink:title=" ">
<polygon fill="white" stroke="black" points="624.33,-56.5 624.33,-75.5 680.33,-75.5 680.33,-56.5 624.33,-56.5"/>
<text text-anchor="middle" x="652.33" y="-63.5" font-family="Helvetica,sans-Serif" font-size="10.00">ar/ARQ.h</text>
</a>
</g>
</g>
<!-- Node16&#45;&gt;Node18 -->
<g id="edge28" class="edge">
<title>Node16&#45;&gt;Node18</title>
<path fill="none" stroke="midnightblue" d="M776.98,-186.02C754.05,-178.24 720.43,-164.19 697.33,-143 679.55,-126.69 666.62,-101.72 659.31,-84.9"/>
<polygon fill="midnightblue" stroke="midnightblue" points="662.53,-83.53 655.48,-75.62 656.06,-86.2 662.53,-83.53"/>
</g>
<!-- Node19 -->
<g id="node19" class="node">
<title>Node19</title>
<g id="a_node19"><a xlink:href="mwcc_8h.html" target="_top" xlink:title=" ">
<polygon fill="white" stroke="black" points="776.33,-118 776.33,-137 826.33,-137 826.33,-118 776.33,-118"/>
<text text-anchor="middle" x="801.33" y="-125" font-family="Helvetica,sans-Serif" font-size="10.00">mwcc.h</text>
</a>
</g>
</g>
<!-- Node16&#45;&gt;Node19 -->
<g id="edge30" class="edge">
<title>Node16&#45;&gt;Node19</title>
<path fill="none" stroke="midnightblue" d="M802.19,-184.73C802.05,-175.18 801.81,-159.62 801.62,-147.28"/>
<polygon fill="midnightblue" stroke="midnightblue" points="805.11,-147.07 801.46,-137.13 798.12,-147.18 805.11,-147.07"/>
</g>
<!-- Node20 -->
<g id="node20" class="node">
<title>Node20</title>
<g id="a_node20"><a xlink:href="OS_8h.html" target="_top" xlink:title=" ">
<polygon fill="white" stroke="black" points="706.33,-118 706.33,-137 758.33,-137 758.33,-118 706.33,-118"/>
<text text-anchor="middle" x="732.33" y="-125" font-family="Helvetica,sans-Serif" font-size="10.00">os/OS.h</text>
</a>
</g>
</g>
<!-- Node16&#45;&gt;Node20 -->
<g id="edge31" class="edge">
<title>Node16&#45;&gt;Node20</title>
<path fill="none" stroke="midnightblue" d="M792.89,-184.73C781.66,-174.31 762.71,-156.71 748.99,-143.97"/>
<polygon fill="midnightblue" stroke="midnightblue" points="751.33,-141.37 741.62,-137.13 746.57,-146.5 751.33,-141.37"/>
</g>
<!-- Node17&#45;&gt;Node5 -->
<g id="edge27" class="edge">
<title>Node17&#45;&gt;Node5</title>
<path fill="none" stroke="midnightblue" d="M881.62,-56.08C885.18,-48.69 890.35,-37.95 894.75,-28.81"/>
<polygon fill="midnightblue" stroke="midnightblue" points="897.93,-30.28 899.12,-19.75 891.62,-27.24 897.93,-30.28"/>
</g>
<!-- Node18&#45;&gt;Node5 -->
<g id="edge29" class="edge">
<title>Node18&#45;&gt;Node5</title>
<path fill="none" stroke="midnightblue" d="M680.59,-58.03C683.54,-57.33 686.49,-56.64 689.33,-56 745.03,-43.37 809.17,-30.05 852.59,-21.2"/>
<polygon fill="midnightblue" stroke="midnightblue" points="853.52,-24.59 862.62,-19.17 852.12,-17.73 853.52,-24.59"/>
</g>
<!-- Node20&#45;&gt;Node5 -->
<g id="edge32" class="edge">
<title>Node20&#45;&gt;Node5</title>
<path fill="none" stroke="midnightblue" d="M740.32,-117.82C753.75,-103.59 782.17,-74.97 810.33,-56 829.71,-42.94 853.45,-31.52 872.1,-23.45"/>
<polygon fill="midnightblue" stroke="midnightblue" points="873.48,-26.66 881.33,-19.55 870.76,-20.22 873.48,-26.66"/>
</g>
<!-- Node21 -->
<g id="node21" class="node">
<title>Node21</title>
<g id="a_node21"><a xlink:href="dvd_8h.html" target="_top" xlink:title=" ">
<polygon fill="white" stroke="black" points="698.83,-56.5 698.83,-75.5 757.83,-75.5 757.83,-56.5 698.83,-56.5"/>
<text text-anchor="middle" x="728.33" y="-63.5" font-family="Helvetica,sans-Serif" font-size="10.00">dvd/dvd.h</text>
</a>
</g>
</g>
<!-- Node20&#45;&gt;Node21 -->
<g id="edge33" class="edge">
<title>Node20&#45;&gt;Node21</title>
<path fill="none" stroke="midnightblue" d="M731.76,-117.98C731.19,-109.58 730.31,-96.48 729.58,-85.66"/>
<polygon fill="midnightblue" stroke="midnightblue" points="733.06,-85.25 728.9,-75.51 726.08,-85.72 733.06,-85.25"/>
</g>
<!-- Node21&#45;&gt;Node5 -->
<g id="edge34" class="edge">
<title>Node21&#45;&gt;Node5</title>
<path fill="none" stroke="midnightblue" d="M756.06,-56.44C785.75,-47.28 833.04,-32.69 866,-22.52"/>
<polygon fill="midnightblue" stroke="midnightblue" points="867.21,-25.81 875.73,-19.52 865.14,-19.12 867.21,-25.81"/>
</g>
<!-- Node22&#45;&gt;Node5 -->
<g id="edge38" class="edge">
<title>Node22&#45;&gt;Node5</title>
<path fill="none" stroke="midnightblue" d="M194.08,-246.42C195.5,-229.49 199.58,-200.65 211.33,-179 247.91,-111.6 262.82,-88.39 332.33,-56 423.96,-13.3 730.23,-10.04 852.39,-10.51"/>
<polygon fill="midnightblue" stroke="midnightblue" points="852.57,-14.01 862.59,-10.56 852.61,-7.01 852.57,-14.01"/>
</g>
<!-- Node22&#45;&gt;Node14 -->
<g id="edge37" class="edge">
<title>Node22&#45;&gt;Node14</title>
<path fill="none" stroke="midnightblue" d="M262.59,-246.48C313.23,-236.22 382.03,-222.29 434.9,-211.58"/>
<polygon fill="midnightblue" stroke="midnightblue" points="435.81,-214.97 444.92,-209.55 434.42,-208.11 435.81,-214.97"/>
</g>
<!-- Node23&#45;&gt;Node5 -->
<g id="edge47" class="edge">
<title>Node23&#45;&gt;Node5</title>
<path fill="none" stroke="midnightblue" d="M1430.64,-179.36C1446.48,-171.28 1463.34,-159.42 1472.33,-143 1491.14,-108.65 1488.2,-81.33 1458.33,-56 1420.33,-23.77 1083.58,-14.27 953.91,-11.79"/>
<polygon fill="midnightblue" stroke="midnightblue" points="953.91,-8.29 943.84,-11.6 953.78,-15.29 953.91,-8.29"/>
</g>
<!-- Node24 -->
<g id="node24" class="node">
<title>Node24</title>
<g id="a_node24"><a xlink:href="JSUInputStream_8h.html" target="_top" xlink:title=" ">
<polygon fill="white" stroke="black" points="1322.83,-112.5 1322.83,-142.5 1463.83,-142.5 1463.83,-112.5 1322.83,-112.5"/>
<text text-anchor="start" x="1330.83" y="-130.5" font-family="Helvetica,sans-Serif" font-size="10.00">JSystem/JSupport/JSUInput</text>
<text text-anchor="middle" x="1393.33" y="-119.5" font-family="Helvetica,sans-Serif" font-size="10.00">Stream.h</text>
</a>
</g>
</g>
<!-- Node23&#45;&gt;Node24 -->
<g id="edge43" class="edge">
<title>Node23&#45;&gt;Node24</title>
<path fill="none" stroke="midnightblue" d="M1393.33,-179.4C1393.33,-171.64 1393.33,-161.81 1393.33,-152.86"/>
<polygon fill="midnightblue" stroke="midnightblue" points="1396.83,-152.58 1393.33,-142.58 1389.83,-152.58 1396.83,-152.58"/>
</g>
<!-- Node24&#45;&gt;Node5 -->
<g id="edge46" class="edge">
<title>Node24&#45;&gt;Node5</title>
<path fill="none" stroke="midnightblue" d="M1414.2,-112.38C1433.74,-97.49 1457.67,-73.76 1441.33,-56 1408.77,-20.61 1082.65,-13.04 954.57,-11.43"/>
<polygon fill="midnightblue" stroke="midnightblue" points="954.29,-7.93 944.25,-11.31 954.21,-14.93 954.29,-7.93"/>
</g>
<!-- Node25 -->
<g id="node25" class="node">
<title>Node25</title>
<g id="a_node25"><a xlink:href="JSUIosBase_8h.html" target="_top" xlink:title=" ">
<polygon fill="white" stroke="black" points="1269.83,-56.5 1269.83,-75.5 1432.83,-75.5 1432.83,-56.5 1269.83,-56.5"/>
<text text-anchor="middle" x="1351.33" y="-63.5" font-family="Helvetica,sans-Serif" font-size="10.00">JSystem/JSupport/JSUIosBase.h</text>
</a>
</g>
</g>
<!-- Node24&#45;&gt;Node25 -->
<g id="edge44" class="edge">
<title>Node24&#45;&gt;Node25</title>
<path fill="none" stroke="midnightblue" d="M1383.38,-112.4C1377.33,-103.84 1369.59,-92.87 1363.23,-83.86"/>
<polygon fill="midnightblue" stroke="midnightblue" points="1366.07,-81.81 1357.44,-75.66 1360.35,-85.85 1366.07,-81.81"/>
</g>
<!-- Node25&#45;&gt;Node5 -->
<g id="edge45" class="edge">
<title>Node25&#45;&gt;Node5</title>
<path fill="none" stroke="midnightblue" d="M1280.34,-56.44C1189.43,-45.49 1034.12,-26.76 954.18,-17.13"/>
<polygon fill="midnightblue" stroke="midnightblue" points="954.22,-13.61 943.88,-15.89 953.39,-20.56 954.22,-13.61"/>
</g>
<!-- Node27 -->
<g id="node27" class="node">
<title>Node27</title>
<g id="a_node27"><a xlink:href="JKRHeap_8h.html" target="_top" xlink:title=" ">
<polygon fill="white" stroke="black" points="832.33,-246.5 832.33,-276.5 968.33,-276.5 968.33,-246.5 832.33,-246.5"/>
<text text-anchor="start" x="840.33" y="-264.5" font-family="Helvetica,sans-Serif" font-size="10.00">JSystem/JKernel/JKRHeap</text>
<text text-anchor="middle" x="900.33" y="-253.5" font-family="Helvetica,sans-Serif" font-size="10.00">/JKRHeap.h</text>
</a>
</g>
</g>
<!-- Node26&#45;&gt;Node27 -->
<g id="edge49" class="edge">
<title>Node26&#45;&gt;Node27</title>
<path fill="none" stroke="midnightblue" d="M1020.87,-318.87C1000.19,-309.2 966.08,-293.25 939.42,-280.78"/>
<polygon fill="midnightblue" stroke="midnightblue" points="940.87,-277.59 930.33,-276.53 937.9,-283.93 940.87,-277.59"/>
</g>
<!-- Node28 -->
<g id="node28" class="node">
<title>Node28</title>
<g id="a_node28"><a xlink:href="JUTFont_8h.html" target="_top" xlink:title=" ">
<polygon fill="white" stroke="black" points="986.83,-246.5 986.83,-276.5 1115.83,-276.5 1115.83,-246.5 986.83,-246.5"/>
<text text-anchor="start" x="994.83" y="-264.5" font-family="Helvetica,sans-Serif" font-size="10.00">JSystem/JUtility/JUTFont</text>
<text text-anchor="middle" x="1051.33" y="-253.5" font-family="Helvetica,sans-Serif" font-size="10.00">/JUTFont.h</text>
</a>
</g>
</g>
<!-- Node26&#45;&gt;Node28 -->
<g id="edge53" class="edge">
<title>Node26&#45;&gt;Node28</title>
<path fill="none" stroke="midnightblue" d="M1040.95,-318.73C1042.46,-310.54 1044.79,-297.92 1046.86,-286.71"/>
<polygon fill="midnightblue" stroke="midnightblue" points="1050.35,-287.06 1048.73,-276.59 1043.47,-285.79 1050.35,-287.06"/>
</g>
<!-- Node27&#45;&gt;Node5 -->
<g id="edge51" class="edge">
<title>Node27&#45;&gt;Node5</title>
<path fill="none" stroke="midnightblue" d="M902.28,-246.1C906.53,-212.68 915.84,-127.23 910.33,-56 909.65,-47.22 908.24,-37.56 906.86,-29.45"/>
<polygon fill="midnightblue" stroke="midnightblue" points="910.29,-28.8 905.07,-19.58 903.41,-30.04 910.29,-28.8"/>
</g>
<!-- Node27&#45;&gt;Node14 -->
<g id="edge50" class="edge">
<title>Node27&#45;&gt;Node14</title>
<path fill="none" stroke="midnightblue" d="M832.21,-249.03C767.54,-238.14 670.08,-221.73 600.14,-209.95"/>
<polygon fill="midnightblue" stroke="midnightblue" points="600.47,-206.46 590.02,-208.25 599.3,-213.36 600.47,-206.46"/>
</g>
<!-- Node27&#45;&gt;Node16 -->
<g id="edge52" class="edge">
<title>Node27&#45;&gt;Node16</title>
<path fill="none" stroke="midnightblue" d="M879.06,-246.4C862.63,-235.5 839.99,-220.48 823.56,-209.58"/>
<polygon fill="midnightblue" stroke="midnightblue" points="825.42,-206.62 815.15,-204.01 821.55,-212.45 825.42,-206.62"/>
</g>
<!-- Node28&#45;&gt;Node16 -->
<g id="edge54" class="edge">
<title>Node28&#45;&gt;Node16</title>
<path fill="none" stroke="midnightblue" d="M997.61,-246.48C949,-233.79 878.85,-215.47 837.19,-204.6"/>
<polygon fill="midnightblue" stroke="midnightblue" points="838.05,-201.21 827.49,-202.07 836.29,-207.98 838.05,-201.21"/>
</g>
<!-- Node28&#45;&gt;Node29 -->
<g id="edge55" class="edge">
<title>Node28&#45;&gt;Node29</title>
<path fill="none" stroke="midnightblue" d="M1051.33,-246.4C1051.33,-237.06 1051.33,-224.71 1051.33,-214.52"/>
<polygon fill="midnightblue" stroke="midnightblue" points="1054.83,-214.19 1051.33,-204.19 1047.83,-214.19 1054.83,-214.19"/>
</g>
<!-- Node29&#45;&gt;Node5 -->
<g id="edge56" class="edge">
<title>Node29&#45;&gt;Node5</title>
<path fill="none" stroke="midnightblue" d="M1045.04,-184.95C1028.86,-163.07 984.28,-103.42 944.33,-56 936.07,-46.2 926.44,-35.59 918.59,-27.13"/>
<polygon fill="midnightblue" stroke="midnightblue" points="921.09,-24.69 911.7,-19.78 915.98,-29.47 921.09,-24.69"/>
</g>
<!-- Node30&#45;&gt;Node5 -->
<g id="edge58" class="edge">
<title>Node30&#45;&gt;Node5</title>
<path fill="none" stroke="midnightblue" d="M1378.58,-385.76C1418.55,-342.44 1585.97,-149.13 1481.33,-56 1442.4,-21.35 1088.17,-13.31 954.27,-11.51"/>
<polygon fill="midnightblue" stroke="midnightblue" points="954.31,-8.01 944.26,-11.38 954.22,-15.01 954.31,-8.01"/>
</g>
<!-- Node31&#45;&gt;Node16 -->
<g id="edge60" class="edge">
<title>Node31&#45;&gt;Node16</title>
<path fill="none" stroke="midnightblue" d="M672.17,-385.95C692.83,-355.72 762.68,-253.51 790.63,-212.62"/>
<polygon fill="midnightblue" stroke="midnightblue" points="793.6,-214.47 796.35,-204.24 787.82,-210.52 793.6,-214.47"/>
</g>
<!-- Node32&#45;&gt;Node5 -->
<g id="edge62" class="edge">
<title>Node32&#45;&gt;Node5</title>
<path fill="none" stroke="midnightblue" d="M1530.59,-385.74C1546.77,-340.67 1613.37,-133.9 1504.33,-56 1460.09,-24.4 1091.56,-14.45 954.45,-11.82"/>
<polygon fill="midnightblue" stroke="midnightblue" points="954.28,-8.32 944.21,-11.63 954.15,-15.32 954.28,-8.32"/>
</g>
<!-- Node33&#45;&gt;Node5 -->
<g id="edge66" class="edge">
<title>Node33&#45;&gt;Node5</title>
<path fill="none" stroke="midnightblue" d="M1612.44,-318.85C1612.7,-297.76 1613.33,-242.02 1613.33,-195.5 1613.33,-195.5 1613.33,-195.5 1613.33,-126.5 1613.33,-93.4 1615.6,-76.14 1589.33,-56 1539.32,-17.66 1104.99,-11.95 954.45,-11.13"/>
<polygon fill="midnightblue" stroke="midnightblue" points="954.12,-7.63 944.11,-11.08 954.09,-14.63 954.12,-7.63"/>
</g>
<!-- Node34&#45;&gt;Node5 -->
<g id="edge68" class="edge">
<title>Node34&#45;&gt;Node5</title>
<path fill="none" stroke="midnightblue" d="M1713.06,-447.48C1812.92,-431.1 2007.33,-391.27 2007.33,-329.5 2007.33,-329.5 2007.33,-329.5 2007.33,-126.5 2007.33,-19.13 1170.73,-11.17 954.07,-10.91"/>
<polygon fill="midnightblue" stroke="midnightblue" points="953.93,-7.41 943.93,-10.9 953.93,-14.41 953.93,-7.41"/>
</g>
</g>
</svg>
        <g id="navigator" transform="translate(0 0)" fill="#404254">
                <rect fill="#f2f5e9" fill-opacity="0.5" stroke="#606060" stroke-width=".5" x="0" y="0" width="60" height="60"/>
                <use id="zoomplus" xlink:href="#zoomPlus" x="17" y="9" onmousedown="handleZoom(evt,'in')"/>
                <use id="zoomminus" xlink:href="#zoomMin" x="42" y="9" onmousedown="handleZoom(evt,'out')"/>
                <use id="reset" xlink:href="#resetDef" x="30" y="36" onmousedown="handleReset()"/>
                <g id="arrowUp" xlink:href="#dirArrow" transform="translate(30 24)" onmousedown="handlePan(0,-1)">
                  <use xlink:href="#rim" fill="#404040">
                        <set attributeName="fill" to="#808080" begin="arrowUp.mouseover" end="arrowUp.mouseout"/>
                  </use>
                  <path fill="none" stroke="white" stroke-width="1.5" d="M0,-3.0v7 M-2.5,-0.5L0,-3.0L2.5,-0.5"/>
                </g>
                <g id="arrowRight" xlink:href="#dirArrow" transform="rotate(90) translate(36 -43)" onmousedown="handlePan(1,0)">
                  <use xlink:href="#rim" fill="#404040">
                        <set attributeName="fill" to="#808080" begin="arrowRight.mouseover" end="arrowRight.mouseout"/>
                  </use>
                  <path fill="none" stroke="white" stroke-width="1.5" d="M0,-3.0v7 M-2.5,-0.5L0,-3.0L2.5,-0.5"/>
                </g>
                <g id="arrowDown" xlink:href="#dirArrow" transform="rotate(180) translate(-30 -48)" onmousedown="handlePan(0,1)">
                  <use xlink:href="#rim" fill="#404040">
                        <set attributeName="fill" to="#808080" begin="arrowDown.mouseover" end="arrowDown.mouseout"/>
                  </use>
                  <path fill="none" stroke="white" stroke-width="1.5" d="M0,-3.0v7 M-2.5,-0.5L0,-3.0L2.5,-0.5"/>
                </g>
                <g id="arrowLeft" xlink:href="#dirArrow" transform="rotate(270) translate(-36 17)" onmousedown="handlePan(-1,0)">
                  <use xlink:href="#rim" fill="#404040">
                        <set attributeName="fill" to="#808080" begin="arrowLeft.mouseover" end="arrowLeft.mouseout"/>
                  </use>
                  <path fill="none" stroke="white" stroke-width="1.5" d="M0,-3.0v7 M-2.5,-0.5L0,-3.0L2.5,-0.5"/>
                </g>
        </g>
        <svg viewBox="0 0 15 15" width="100%" height="30px" preserveAspectRatio="xMaxYMin meet">
         <g id="arrow_out" transform="scale(0.3 0.3)">
          <a xlink:href="J2DPicture_8h__incl_org.svg" target="_base">
           <rect id="button" ry="5" rx="5" y="6" x="6" height="38" width="38"
                fill="#f2f5e9" fill-opacity="0.5" stroke="#606060" stroke-width="1.0"/>
           <path id="arrow"
             d="M 11.500037,31.436501 C 11.940474,20.09759 22.043105,11.32322 32.158766,21.979434 L 37.068811,17.246167 C 37.068811,17.246167 37.088388,32 37.088388,32 L 22.160133,31.978069 C 22.160133,31.978069 26.997745,27.140456 26.997745,27.140456 C 18.528582,18.264221 13.291696,25.230495 11.500037,31.436501 z"
             style="fill:#404040;"/>
          </a>
         </g>
        </svg>
</svg>
