<?xml version="1.0" encoding="UTF-8" standalone="no"?>
<!DOCTYPE svg PUBLIC "-//W3C//DTD SVG 1.1//EN"
 "http://www.w3.org/Graphics/SVG/1.1/DTD/svg11.dtd">
<!-- Generated by graphviz version 2.44.0 ()
 -->
<!-- Title: include/JSystem/J3DGraphBase/J3DPacket/J3DPacket.h Pages: 1 -->
<svg width="5333pt" height="452pt"
 viewBox="0.00 0.00 5332.50 452.00" xmlns="http://www.w3.org/2000/svg" xmlns:xlink="http://www.w3.org/1999/xlink">
<g id="graph0" class="graph" transform="scale(1 1) rotate(0) translate(4 448)">
<title>include/JSystem/J3DGraphBase/J3DPacket/J3DPacket.h</title>
<polygon fill="white" stroke="transparent" points="-4,4 -4,-448 5328.5,-448 5328.5,4 -4,4"/>
<!-- Node1 -->
<g id="node1" class="node">
<title>Node1</title>
<g id="a_node1"><a xlink:title=" ">
<polygon fill="#bfbfbf" stroke="black" points="3458.5,-413.5 3458.5,-443.5 3607.5,-443.5 3607.5,-413.5 3458.5,-413.5"/>
<text text-anchor="start" x="3466.5" y="-431.5" font-family="Helvetica,sans-Serif" font-size="10.00">include/JSystem/J3DGraph</text>
<text text-anchor="middle" x="3533" y="-420.5" font-family="Helvetica,sans-Serif" font-size="10.00">Base/J3DPacket/J3DPacket.h</text>
</a>
</g>
</g>
<!-- Node2 -->
<g id="node2" class="node">
<title>Node2</title>
<g id="a_node2"><a xlink:href="J3DDrawBuffer_8h.html" target="_top" xlink:title=" ">
<polygon fill="white" stroke="black" points="3441.5,-346.5 3441.5,-376.5 3624.5,-376.5 3624.5,-346.5 3441.5,-346.5"/>
<text text-anchor="start" x="3449.5" y="-364.5" font-family="Helvetica,sans-Serif" font-size="10.00">include/JSystem/J3DGraph</text>
<text text-anchor="middle" x="3533" y="-353.5" font-family="Helvetica,sans-Serif" font-size="10.00">Base/J3DDrawBuffer/J3DDrawBuffer.h</text>
</a>
</g>
</g>
<!-- Node1&#45;&gt;Node2 -->
<g id="edge1" class="edge">
<title>Node1&#45;&gt;Node2</title>
<path fill="none" stroke="midnightblue" d="M3533,-403.11C3533,-394.15 3533,-384.32 3533,-376.58"/>
<polygon fill="midnightblue" stroke="midnightblue" points="3529.5,-403.4 3533,-413.4 3536.5,-403.4 3529.5,-403.4"/>
</g>
<!-- Node3 -->
<g id="node3" class="node">
<title>Node3</title>
<g id="a_node3"><a xlink:href="d__model_8cpp.html" target="_top" xlink:title=" ">
<polygon fill="white" stroke="black" points="0,-73 0,-92 96,-92 96,-73 0,-73"/>
<text text-anchor="middle" x="48" y="-80" font-family="Helvetica,sans-Serif" font-size="10.00">src/d/d_model.cpp</text>
</a>
</g>
</g>
<!-- Node2&#45;&gt;Node3 -->
<g id="edge2" class="edge">
<title>Node2&#45;&gt;Node3</title>
<path fill="none" stroke="midnightblue" d="M3431.14,-353.16C3081.37,-327.88 1896.98,-241.82 919,-165 557.11,-136.57 463.03,-157.84 105,-98 96.04,-96.5 86.42,-94.29 77.68,-92.05"/>
<polygon fill="midnightblue" stroke="midnightblue" points="3431.02,-356.66 3441.24,-353.89 3431.52,-349.68 3431.02,-356.66"/>
</g>
<!-- Node4 -->
<g id="node4" class="node">
<title>Node4</title>
<g id="a_node4"><a xlink:href="d__drawlist_8h.html" target="_top" xlink:title=" ">
<polygon fill="white" stroke="black" points="3481.5,-279.5 3481.5,-309.5 3584.5,-309.5 3584.5,-279.5 3481.5,-279.5"/>
<text text-anchor="start" x="3489.5" y="-297.5" font-family="Helvetica,sans-Serif" font-size="10.00">include/d/d_drawlist</text>
<text text-anchor="middle" x="3533" y="-286.5" font-family="Helvetica,sans-Serif" font-size="10.00">/d_drawlist.h</text>
</a>
</g>
</g>
<!-- Node2&#45;&gt;Node4 -->
<g id="edge3" class="edge">
<title>Node2&#45;&gt;Node4</title>
<path fill="none" stroke="midnightblue" d="M3533,-336.11C3533,-327.15 3533,-317.32 3533,-309.58"/>
<polygon fill="midnightblue" stroke="midnightblue" points="3529.5,-336.4 3533,-346.4 3536.5,-336.4 3529.5,-336.4"/>
</g>
<!-- Node56 -->
<g id="node50" class="node">
<title>Node56</title>
<g id="a_node50"><a xlink:href="d__eye__hl_8h.html" target="_top" xlink:title=" ">
<polygon fill="white" stroke="black" points="5064.5,-134.5 5064.5,-164.5 5161.5,-164.5 5161.5,-134.5 5064.5,-134.5"/>
<text text-anchor="start" x="5072.5" y="-152.5" font-family="Helvetica,sans-Serif" font-size="10.00">include/d/d_eye_hl</text>
<text text-anchor="middle" x="5113" y="-141.5" font-family="Helvetica,sans-Serif" font-size="10.00">/d_eye_hl.h</text>
</a>
</g>
</g>
<!-- Node2&#45;&gt;Node56 -->
<g id="edge62" class="edge">
<title>Node2&#45;&gt;Node56</title>
<path fill="none" stroke="midnightblue" d="M3634.77,-355.88C3844.39,-345.23 4338.96,-314.19 4748,-243 4864.41,-222.74 4998.39,-184.98 5067.1,-164.53"/>
<polygon fill="midnightblue" stroke="midnightblue" points="3634.52,-352.39 3624.7,-356.39 3634.87,-359.38 3634.52,-352.39"/>
</g>
<!-- Node5 -->
<g id="node5" class="node">
<title>Node5</title>
<g id="a_node5"><a xlink:href="m__Do__graphic_8cpp.html" target="_top" xlink:title=" ">
<polygon fill="white" stroke="black" points="5045,-73 5045,-92 5187,-92 5187,-73 5045,-73"/>
<text text-anchor="middle" x="5116" y="-80" font-family="Helvetica,sans-Serif" font-size="10.00">src/m_Do/m_Do_graphic.cpp</text>
</a>
</g>
</g>
<!-- Node4&#45;&gt;Node5 -->
<g id="edge4" class="edge">
<title>Node4&#45;&gt;Node5</title>
<path fill="none" stroke="midnightblue" d="M3594.99,-290.57C3710.69,-284.68 3967.26,-269.63 4182,-243 4528.9,-199.97 4943.45,-118.48 5074.31,-92.02"/>
<polygon fill="midnightblue" stroke="midnightblue" points="3594.71,-287.08 3584.9,-291.08 3595.06,-294.07 3594.71,-287.08"/>
</g>
<!-- Node6 -->
<g id="node6" class="node">
<title>Node6</title>
<g id="a_node6"><a xlink:href="d__a__player_8h.html" target="_top" xlink:title=" ">
<polygon fill="white" stroke="black" points="4049,-207 4049,-237 4173,-237 4173,-207 4049,-207"/>
<text text-anchor="start" x="4057" y="-225" font-family="Helvetica,sans-Serif" font-size="10.00">include/d/d_a/d_a_player</text>
<text text-anchor="middle" x="4111" y="-214" font-family="Helvetica,sans-Serif" font-size="10.00">/d_a_player.h</text>
</a>
</g>
</g>
<!-- Node4&#45;&gt;Node6 -->
<g id="edge5" class="edge">
<title>Node4&#45;&gt;Node6</title>
<path fill="none" stroke="midnightblue" d="M3594.57,-285.99C3705.39,-272.47 3937.28,-244.19 4048.66,-230.6"/>
<polygon fill="midnightblue" stroke="midnightblue" points="3594.05,-282.53 3584.55,-287.21 3594.9,-289.48 3594.05,-282.53"/>
</g>
<!-- Node10 -->
<g id="node9" class="node">
<title>Node10</title>
<g id="a_node9"><a xlink:href="d__com__inf__game_8h.html" target="_top" xlink:title=" ">
<polygon fill="white" stroke="black" points="2732,-134.5 2732,-164.5 2878,-164.5 2878,-134.5 2732,-134.5"/>
<text text-anchor="start" x="2740" y="-152.5" font-family="Helvetica,sans-Serif" font-size="10.00">include/d/d_com/d_com</text>
<text text-anchor="middle" x="2805" y="-141.5" font-family="Helvetica,sans-Serif" font-size="10.00">_inf_game/d_com_inf_game.h</text>
</a>
</g>
</g>
<!-- Node4&#45;&gt;Node10 -->
<g id="edge59" class="edge">
<title>Node4&#45;&gt;Node10</title>
<path fill="none" stroke="midnightblue" d="M3471.1,-281.34C3336.72,-254.95 3018.91,-192.52 2876.36,-164.52"/>
<polygon fill="midnightblue" stroke="midnightblue" points="3470.74,-284.84 3481.23,-283.33 3472.09,-277.97 3470.74,-284.84"/>
</g>
<!-- Node55 -->
<g id="node49" class="node">
<title>Node55</title>
<g id="a_node49"><a xlink:href="d__file__sel__info_8h.html" target="_top" xlink:title=" ">
<polygon fill="white" stroke="black" points="2198,-201.5 2198,-242.5 2296,-242.5 2296,-201.5 2198,-201.5"/>
<text text-anchor="start" x="2206" y="-230.5" font-family="Helvetica,sans-Serif" font-size="10.00">include/d/d_file/d</text>
<text text-anchor="start" x="2206" y="-219.5" font-family="Helvetica,sans-Serif" font-size="10.00">_file_sel_info/d_file</text>
<text text-anchor="middle" x="2247" y="-208.5" font-family="Helvetica,sans-Serif" font-size="10.00">_sel_info.h</text>
</a>
</g>
</g>
<!-- Node4&#45;&gt;Node55 -->
<g id="edge60" class="edge">
<title>Node4&#45;&gt;Node55</title>
<path fill="none" stroke="midnightblue" d="M3471.24,-290.11C3249.55,-277.96 2496.42,-236.67 2296.21,-225.7"/>
<polygon fill="midnightblue" stroke="midnightblue" points="3471.22,-293.62 3481.39,-290.67 3471.6,-286.63 3471.22,-293.62"/>
</g>
<!-- Node6&#45;&gt;Node5 -->
<g id="edge6" class="edge">
<title>Node6&#45;&gt;Node5</title>
<path fill="none" stroke="midnightblue" d="M4179.02,-204.64C4264.09,-184.82 4414.45,-151.85 4545,-134 4759.6,-104.66 4816,-124.24 5031,-98 5043.93,-96.42 5057.89,-94.24 5070.68,-92.05"/>
<polygon fill="midnightblue" stroke="midnightblue" points="4178.16,-201.25 4169.23,-206.93 4179.76,-208.06 4178.16,-201.25"/>
</g>
<!-- Node7 -->
<g id="node7" class="node">
<title>Node7</title>
<g id="a_node7"><a xlink:href="d__a__alink_8h.html" target="_top" xlink:title=" ">
<polygon fill="white" stroke="red" points="5205.5,-67.5 5205.5,-97.5 5324.5,-97.5 5324.5,-67.5 5205.5,-67.5"/>
<text text-anchor="start" x="5213.5" y="-85.5" font-family="Helvetica,sans-Serif" font-size="10.00">include/d/d_a/d_a_alink</text>
<text text-anchor="middle" x="5265" y="-74.5" font-family="Helvetica,sans-Serif" font-size="10.00">/d_a_alink.h</text>
</a>
</g>
</g>
<!-- Node6&#45;&gt;Node7 -->
<g id="edge7" class="edge">
<title>Node6&#45;&gt;Node7</title>
<path fill="none" stroke="midnightblue" d="M4183.15,-215.19C4357.75,-200.61 4816.62,-159.23 5196,-98 5199.02,-97.51 5202.11,-96.98 5205.23,-96.42"/>
<polygon fill="midnightblue" stroke="midnightblue" points="4182.73,-211.71 4173.06,-216.03 4183.31,-218.69 4182.73,-211.71"/>
</g>
<!-- Node6&#45;&gt;Node10 -->
<g id="edge9" class="edge">
<title>Node6&#45;&gt;Node10</title>
<path fill="none" stroke="midnightblue" d="M4038.71,-217.1C3810.58,-204.78 3107.49,-166.83 2878.16,-154.45"/>
<polygon fill="midnightblue" stroke="midnightblue" points="4038.71,-220.6 4048.89,-217.65 4039.09,-213.61 4038.71,-220.6"/>
</g>
<!-- Node8 -->
<g id="node8" class="node">
<title>Node8</title>
<g id="a_node8"><a xlink:href="d__attention_8cpp.html" target="_top" xlink:title=" ">
<polygon fill="white" stroke="black" points="5137.5,-6 5137.5,-25 5244.5,-25 5244.5,-6 5137.5,-6"/>
<text text-anchor="middle" x="5191" y="-13" font-family="Helvetica,sans-Serif" font-size="10.00">src/d/d_attention.cpp</text>
</a>
</g>
</g>
<!-- Node7&#45;&gt;Node8 -->
<g id="edge8" class="edge">
<title>Node7&#45;&gt;Node8</title>
<path fill="none" stroke="midnightblue" d="M5241.29,-60.67C5227.63,-48.67 5211.17,-34.22 5200.9,-25.19"/>
<polygon fill="midnightblue" stroke="midnightblue" points="5239.12,-63.43 5248.94,-67.4 5243.74,-58.17 5239.12,-63.43"/>
</g>
<!-- Node10&#45;&gt;Node3 -->
<g id="edge28" class="edge">
<title>Node10&#45;&gt;Node3</title>
<path fill="none" stroke="midnightblue" d="M2721.69,-148.08C2295.54,-145.8 369.22,-133.59 105,-98 95.49,-96.72 85.28,-94.42 76.16,-92.03"/>
<polygon fill="midnightblue" stroke="midnightblue" points="2721.76,-151.58 2731.77,-148.14 2721.79,-144.58 2721.76,-151.58"/>
</g>
<!-- Node10&#45;&gt;Node5 -->
<g id="edge39" class="edge">
<title>Node10&#45;&gt;Node5</title>
<path fill="none" stroke="midnightblue" d="M2888.3,-148.24C3239.79,-146.9 4603.3,-139.11 5031,-98 5044.86,-96.67 5059.87,-94.39 5073.36,-92.03"/>
<polygon fill="midnightblue" stroke="midnightblue" points="2888.18,-144.74 2878.2,-148.28 2888.21,-151.74 2888.18,-144.74"/>
</g>
<!-- Node10&#45;&gt;Node7 -->
<g id="edge50" class="edge">
<title>Node10&#45;&gt;Node7</title>
<path fill="none" stroke="midnightblue" d="M2888.07,-148.82C3255.27,-149.91 4734.84,-150.86 5196,-98 5199.04,-97.65 5202.14,-97.23 5205.27,-96.76"/>
<polygon fill="midnightblue" stroke="midnightblue" points="2888.06,-145.32 2878.05,-148.79 2888.04,-152.32 2888.06,-145.32"/>
</g>
<!-- Node10&#45;&gt;Node8 -->
<g id="edge10" class="edge">
<title>Node10&#45;&gt;Node8</title>
<path fill="none" stroke="midnightblue" d="M2888.43,-147.7C3275.11,-143.83 4878.52,-126.17 4981,-98 5008.06,-90.56 5010.31,-78.29 5036,-67 5077.07,-48.95 5126.7,-33.89 5158.55,-25.04"/>
<polygon fill="midnightblue" stroke="midnightblue" points="2888.13,-144.2 2878.16,-147.8 2888.2,-151.2 2888.13,-144.2"/>
</g>
<!-- Node11 -->
<g id="node10" class="node">
<title>Node11</title>
<g id="a_node10"><a xlink:href="d__camera_8cpp.html" target="_top" xlink:title=" ">
<polygon fill="white" stroke="black" points="4849,-73 4849,-92 4951,-92 4951,-73 4849,-73"/>
<text text-anchor="middle" x="4900" y="-80" font-family="Helvetica,sans-Serif" font-size="10.00">src/d/d_camera.cpp</text>
</a>
</g>
</g>
<!-- Node10&#45;&gt;Node11 -->
<g id="edge11" class="edge">
<title>Node10&#45;&gt;Node11</title>
<path fill="none" stroke="midnightblue" d="M2888.06,-148.59C3219.6,-148.61 4448.85,-145.42 4835,-98 4845.67,-96.69 4857.17,-94.42 4867.48,-92.06"/>
<polygon fill="midnightblue" stroke="midnightblue" points="2888.05,-145.09 2878.05,-148.59 2888.05,-152.09 2888.05,-145.09"/>
</g>
<!-- Node12 -->
<g id="node11" class="node">
<title>Node12</title>
<g id="a_node11"><a xlink:href="d__com__inf__game_8cpp.html" target="_top" xlink:title=" ">
<polygon fill="white" stroke="black" points="2657.5,-0.5 2657.5,-30.5 2776.5,-30.5 2776.5,-0.5 2657.5,-0.5"/>
<text text-anchor="start" x="2665.5" y="-18.5" font-family="Helvetica,sans-Serif" font-size="10.00">src/d/d_com/d_com_inf</text>
<text text-anchor="middle" x="2717" y="-7.5" font-family="Helvetica,sans-Serif" font-size="10.00">_game.cpp</text>
</a>
</g>
</g>
<!-- Node10&#45;&gt;Node12 -->
<g id="edge12" class="edge">
<title>Node10&#45;&gt;Node12</title>
<path fill="none" stroke="midnightblue" d="M2803.75,-124.02C2801.86,-106.84 2797.24,-84 2786,-67 2775.85,-51.64 2759.34,-39.32 2745.02,-30.68"/>
<polygon fill="midnightblue" stroke="midnightblue" points="2800.3,-124.7 2804.64,-134.37 2807.27,-124.1 2800.3,-124.7"/>
</g>
<!-- Node13 -->
<g id="node12" class="node">
<title>Node13</title>
<g id="a_node12"><a xlink:href="d__file__sel__info_8cpp.html" target="_top" xlink:title=" ">
<polygon fill="white" stroke="black" points="114.5,-67.5 114.5,-97.5 203.5,-97.5 203.5,-67.5 114.5,-67.5"/>
<text text-anchor="start" x="122.5" y="-85.5" font-family="Helvetica,sans-Serif" font-size="10.00">src/d/d_file/d_file</text>
<text text-anchor="middle" x="159" y="-74.5" font-family="Helvetica,sans-Serif" font-size="10.00">_sel_info.cpp</text>
</a>
</g>
</g>
<!-- Node10&#45;&gt;Node13 -->
<g id="edge13" class="edge">
<title>Node10&#45;&gt;Node13</title>
<path fill="none" stroke="midnightblue" d="M2721.67,-147.46C2291.66,-142 338.85,-116.3 212,-98 209.26,-97.61 206.46,-97.11 203.65,-96.55"/>
<polygon fill="midnightblue" stroke="midnightblue" points="2721.8,-150.96 2731.84,-147.59 2721.89,-143.96 2721.8,-150.96"/>
</g>
<!-- Node14 -->
<g id="node13" class="node">
<title>Node14</title>
<g id="a_node13"><a xlink:href="d__item_8cpp.html" target="_top" xlink:title=" ">
<polygon fill="white" stroke="black" points="2794.5,-6 2794.5,-25 2915.5,-25 2915.5,-6 2794.5,-6"/>
<text text-anchor="middle" x="2855" y="-13" font-family="Helvetica,sans-Serif" font-size="10.00">src/d/d_item/d_item.cpp</text>
</a>
</g>
</g>
<!-- Node10&#45;&gt;Node14 -->
<g id="edge14" class="edge">
<title>Node10&#45;&gt;Node14</title>
<path fill="none" stroke="midnightblue" d="M2814.01,-124.71C2825.34,-94.81 2844.21,-45 2851.74,-25.1"/>
<polygon fill="midnightblue" stroke="midnightblue" points="2810.62,-123.78 2810.35,-134.37 2817.17,-126.26 2810.62,-123.78"/>
</g>
<!-- Node15 -->
<g id="node14" class="node">
<title>Node15</title>
<g id="a_node14"><a xlink:href="d__kankyo__rain_8cpp.html" target="_top" xlink:title=" ">
<polygon fill="white" stroke="black" points="221.5,-67.5 221.5,-97.5 348.5,-97.5 348.5,-67.5 221.5,-67.5"/>
<text text-anchor="start" x="229.5" y="-85.5" font-family="Helvetica,sans-Serif" font-size="10.00">src/d/d_kankyo/d_kankyo</text>
<text text-anchor="middle" x="285" y="-74.5" font-family="Helvetica,sans-Serif" font-size="10.00">_rain.cpp</text>
</a>
</g>
</g>
<!-- Node10&#45;&gt;Node15 -->
<g id="edge15" class="edge">
<title>Node10&#45;&gt;Node15</title>
<path fill="none" stroke="midnightblue" d="M2721.81,-147.66C2320.67,-143.52 595.72,-124.29 357,-98 354.21,-97.69 351.37,-97.33 348.51,-96.93"/>
<polygon fill="midnightblue" stroke="midnightblue" points="2721.85,-151.17 2731.88,-147.77 2721.92,-144.17 2721.85,-151.17"/>
</g>
<!-- Node16 -->
<g id="node15" class="node">
<title>Node16</title>
<g id="a_node15"><a xlink:href="d__kankyo__wether_8cpp.html" target="_top" xlink:title=" ">
<polygon fill="white" stroke="black" points="366.5,-67.5 366.5,-97.5 493.5,-97.5 493.5,-67.5 366.5,-67.5"/>
<text text-anchor="start" x="374.5" y="-85.5" font-family="Helvetica,sans-Serif" font-size="10.00">src/d/d_kankyo/d_kankyo</text>
<text text-anchor="middle" x="430" y="-74.5" font-family="Helvetica,sans-Serif" font-size="10.00">_wether.cpp</text>
</a>
</g>
</g>
<!-- Node10&#45;&gt;Node16 -->
<g id="edge16" class="edge">
<title>Node10&#45;&gt;Node16</title>
<path fill="none" stroke="midnightblue" d="M2721.44,-147.54C2334.44,-143 725.54,-122.76 502,-98 499.21,-97.69 496.37,-97.33 493.51,-96.92"/>
<polygon fill="midnightblue" stroke="midnightblue" points="2721.68,-151.05 2731.72,-147.66 2721.76,-144.05 2721.68,-151.05"/>
</g>
<!-- Node17 -->
<g id="node16" class="node">
<title>Node17</title>
<g id="a_node16"><a xlink:href="d__kankyo_8cpp.html" target="_top" xlink:title=" ">
<polygon fill="white" stroke="black" points="511.5,-73 511.5,-92 612.5,-92 612.5,-73 511.5,-73"/>
<text text-anchor="middle" x="562" y="-80" font-family="Helvetica,sans-Serif" font-size="10.00">src/d/d_kankyo.cpp</text>
</a>
</g>
</g>
<!-- Node10&#45;&gt;Node17 -->
<g id="edge17" class="edge">
<title>Node10&#45;&gt;Node17</title>
<path fill="none" stroke="midnightblue" d="M2721.78,-147.65C2347.8,-143.68 831.68,-125.98 621,-98 611.17,-96.69 600.61,-94.39 591.17,-92"/>
<polygon fill="midnightblue" stroke="midnightblue" points="2721.95,-151.15 2731.99,-147.76 2722.02,-144.15 2721.95,-151.15"/>
</g>
<!-- Node18 -->
<g id="node17" class="node">
<title>Node18</title>
<g id="a_node17"><a xlink:href="d__kantera__icon__meter_8cpp.html" target="_top" xlink:title=" ">
<polygon fill="white" stroke="black" points="630.5,-67.5 630.5,-97.5 737.5,-97.5 737.5,-67.5 630.5,-67.5"/>
<text text-anchor="start" x="638.5" y="-85.5" font-family="Helvetica,sans-Serif" font-size="10.00">src/d/d_kantera_icon</text>
<text text-anchor="middle" x="684" y="-74.5" font-family="Helvetica,sans-Serif" font-size="10.00">_meter.cpp</text>
</a>
</g>
</g>
<!-- Node10&#45;&gt;Node18 -->
<g id="edge18" class="edge">
<title>Node10&#45;&gt;Node18</title>
<path fill="none" stroke="midnightblue" d="M2721.85,-147.47C2361.48,-142.87 943.89,-123.29 746,-98 743.26,-97.65 740.46,-97.23 737.65,-96.76"/>
<polygon fill="midnightblue" stroke="midnightblue" points="2721.9,-150.97 2731.95,-147.6 2721.99,-143.97 2721.9,-150.97"/>
</g>
<!-- Node19 -->
<g id="node18" class="node">
<title>Node19</title>
<g id="a_node18"><a xlink:href="d__kyeff_8cpp.html" target="_top" xlink:title=" ">
<polygon fill="white" stroke="black" points="755.5,-73 755.5,-92 868.5,-92 868.5,-73 755.5,-73"/>
<text text-anchor="middle" x="812" y="-80" font-family="Helvetica,sans-Serif" font-size="10.00">src/d/d_ky/d_kyeff.cpp</text>
</a>
</g>
</g>
<!-- Node10&#45;&gt;Node19 -->
<g id="edge19" class="edge">
<title>Node10&#45;&gt;Node19</title>
<path fill="none" stroke="midnightblue" d="M2721.79,-147.27C2375.94,-142.03 1061.44,-120.77 877,-98 866.33,-96.68 854.83,-94.41 844.52,-92.05"/>
<polygon fill="midnightblue" stroke="midnightblue" points="2721.93,-150.77 2731.98,-147.42 2722.04,-143.77 2721.93,-150.77"/>
</g>
<!-- Node20 -->
<g id="node19" class="node">
<title>Node20</title>
<g id="a_node19"><a xlink:href="d__meter__button_8cpp.html" target="_top" xlink:title=" ">
<polygon fill="white" stroke="black" points="886.5,-67.5 886.5,-97.5 1001.5,-97.5 1001.5,-67.5 886.5,-67.5"/>
<text text-anchor="start" x="894.5" y="-85.5" font-family="Helvetica,sans-Serif" font-size="10.00">src/d/d_meter/d_meter</text>
<text text-anchor="middle" x="944" y="-74.5" font-family="Helvetica,sans-Serif" font-size="10.00">_button.cpp</text>
</a>
</g>
</g>
<!-- Node10&#45;&gt;Node20 -->
<g id="edge20" class="edge">
<title>Node10&#45;&gt;Node20</title>
<path fill="none" stroke="midnightblue" d="M2721.53,-148.23C2414.44,-146.94 1347.7,-139.47 1010,-98 1007.32,-97.67 1004.59,-97.28 1001.84,-96.85"/>
<polygon fill="midnightblue" stroke="midnightblue" points="2721.68,-151.74 2731.7,-148.28 2721.71,-144.74 2721.68,-151.74"/>
</g>
<!-- Node21 -->
<g id="node20" class="node">
<title>Node21</title>
<g id="a_node20"><a xlink:href="d__meter__haihai_8cpp.html" target="_top" xlink:title=" ">
<polygon fill="white" stroke="black" points="1019.5,-67.5 1019.5,-97.5 1134.5,-97.5 1134.5,-67.5 1019.5,-67.5"/>
<text text-anchor="start" x="1027.5" y="-85.5" font-family="Helvetica,sans-Serif" font-size="10.00">src/d/d_meter/d_meter</text>
<text text-anchor="middle" x="1077" y="-74.5" font-family="Helvetica,sans-Serif" font-size="10.00">_haihai.cpp</text>
</a>
</g>
</g>
<!-- Node10&#45;&gt;Node21 -->
<g id="edge21" class="edge">
<title>Node10&#45;&gt;Node21</title>
<path fill="none" stroke="midnightblue" d="M2721.89,-148.02C2430.12,-146.01 1453.55,-136.49 1143,-98 1140.32,-97.67 1137.59,-97.28 1134.84,-96.85"/>
<polygon fill="midnightblue" stroke="midnightblue" points="2721.95,-151.52 2731.98,-148.09 2722,-144.52 2721.95,-151.52"/>
</g>
<!-- Node22 -->
<g id="node21" class="node">
<title>Node22</title>
<g id="a_node21"><a xlink:href="d__meter__hakusha_8cpp.html" target="_top" xlink:title=" ">
<polygon fill="white" stroke="black" points="1152.5,-67.5 1152.5,-97.5 1267.5,-97.5 1267.5,-67.5 1152.5,-67.5"/>
<text text-anchor="start" x="1160.5" y="-85.5" font-family="Helvetica,sans-Serif" font-size="10.00">src/d/d_meter/d_meter</text>
<text text-anchor="middle" x="1210" y="-74.5" font-family="Helvetica,sans-Serif" font-size="10.00">_hakusha.cpp</text>
</a>
</g>
</g>
<!-- Node10&#45;&gt;Node22 -->
<g id="edge22" class="edge">
<title>Node10&#45;&gt;Node22</title>
<path fill="none" stroke="midnightblue" d="M2721.17,-147.75C2444.07,-144.97 1559.12,-133.47 1276,-98 1273.32,-97.66 1270.59,-97.27 1267.84,-96.84"/>
<polygon fill="midnightblue" stroke="midnightblue" points="2721.52,-151.26 2731.56,-147.86 2721.59,-144.26 2721.52,-151.26"/>
</g>
<!-- Node23 -->
<g id="node22" class="node">
<title>Node23</title>
<g id="a_node22"><a xlink:href="d__meter__map_8cpp.html" target="_top" xlink:title=" ">
<polygon fill="white" stroke="black" points="1285.5,-67.5 1285.5,-97.5 1400.5,-97.5 1400.5,-67.5 1285.5,-67.5"/>
<text text-anchor="start" x="1293.5" y="-85.5" font-family="Helvetica,sans-Serif" font-size="10.00">src/d/d_meter/d_meter</text>
<text text-anchor="middle" x="1343" y="-74.5" font-family="Helvetica,sans-Serif" font-size="10.00">_map.cpp</text>
</a>
</g>
</g>
<!-- Node10&#45;&gt;Node23 -->
<g id="edge23" class="edge">
<title>Node10&#45;&gt;Node23</title>
<path fill="none" stroke="midnightblue" d="M2721.41,-147.45C2460.79,-143.87 1665.12,-130.5 1409,-98 1406.32,-97.66 1403.59,-97.26 1400.85,-96.83"/>
<polygon fill="midnightblue" stroke="midnightblue" points="2721.52,-150.95 2731.57,-147.59 2721.62,-143.95 2721.52,-150.95"/>
</g>
<!-- Node24 -->
<g id="node23" class="node">
<title>Node24</title>
<g id="a_node23"><a xlink:href="d__meter__string_8cpp.html" target="_top" xlink:title=" ">
<polygon fill="white" stroke="black" points="1418.5,-67.5 1418.5,-97.5 1533.5,-97.5 1533.5,-67.5 1418.5,-67.5"/>
<text text-anchor="start" x="1426.5" y="-85.5" font-family="Helvetica,sans-Serif" font-size="10.00">src/d/d_meter/d_meter</text>
<text text-anchor="middle" x="1476" y="-74.5" font-family="Helvetica,sans-Serif" font-size="10.00">_string.cpp</text>
</a>
</g>
</g>
<!-- Node10&#45;&gt;Node24 -->
<g id="edge24" class="edge">
<title>Node10&#45;&gt;Node24</title>
<path fill="none" stroke="midnightblue" d="M2721.55,-147.08C2478.04,-142.65 1771.18,-127.52 1542,-98 1539.32,-97.66 1536.6,-97.26 1533.85,-96.81"/>
<polygon fill="midnightblue" stroke="midnightblue" points="2721.69,-150.59 2731.75,-147.27 2721.81,-143.59 2721.69,-150.59"/>
</g>
<!-- Node25 -->
<g id="node24" class="node">
<title>Node25</title>
<g id="a_node24"><a xlink:href="d__meter2__draw_8cpp.html" target="_top" xlink:title=" ">
<polygon fill="white" stroke="black" points="1551.5,-67.5 1551.5,-97.5 1676.5,-97.5 1676.5,-67.5 1551.5,-67.5"/>
<text text-anchor="start" x="1559.5" y="-85.5" font-family="Helvetica,sans-Serif" font-size="10.00">src/d/d_meter2/d_meter2</text>
<text text-anchor="middle" x="1614" y="-74.5" font-family="Helvetica,sans-Serif" font-size="10.00">_draw.cpp</text>
</a>
</g>
</g>
<!-- Node10&#45;&gt;Node25 -->
<g id="edge25" class="edge">
<title>Node10&#45;&gt;Node25</title>
<path fill="none" stroke="midnightblue" d="M2721.67,-149.18C2535.18,-149.74 2070.32,-145.74 1685,-98 1682.25,-97.66 1679.45,-97.27 1676.63,-96.84"/>
<polygon fill="midnightblue" stroke="midnightblue" points="2721.96,-152.68 2731.95,-149.15 2721.93,-145.68 2721.96,-152.68"/>
</g>
<!-- Node26 -->
<g id="node25" class="node">
<title>Node26</title>
<g id="a_node25"><a xlink:href="d__meter2__info_8cpp.html" target="_top" xlink:title=" ">
<polygon fill="white" stroke="black" points="1694.5,-67.5 1694.5,-97.5 1819.5,-97.5 1819.5,-67.5 1694.5,-67.5"/>
<text text-anchor="start" x="1702.5" y="-85.5" font-family="Helvetica,sans-Serif" font-size="10.00">src/d/d_meter2/d_meter2</text>
<text text-anchor="middle" x="1757" y="-74.5" font-family="Helvetica,sans-Serif" font-size="10.00">_info.cpp</text>
</a>
</g>
</g>
<!-- Node10&#45;&gt;Node26 -->
<g id="edge26" class="edge">
<title>Node10&#45;&gt;Node26</title>
<path fill="none" stroke="midnightblue" d="M2721.76,-148.31C2552.79,-147.01 2157.71,-139.38 1829,-98 1825.96,-97.62 1822.86,-97.18 1819.74,-96.7"/>
<polygon fill="midnightblue" stroke="midnightblue" points="2721.8,-151.81 2731.83,-148.38 2721.85,-144.81 2721.8,-151.81"/>
</g>
<!-- Node27 -->
<g id="node26" class="node">
<title>Node27</title>
<g id="a_node26"><a xlink:href="d__meter2_8cpp.html" target="_top" xlink:title=" ">
<polygon fill="white" stroke="black" points="1838,-73 1838,-92 1938,-92 1938,-73 1838,-73"/>
<text text-anchor="middle" x="1888" y="-80" font-family="Helvetica,sans-Serif" font-size="10.00">src/d/d_meter2.cpp</text>
</a>
</g>
</g>
<!-- Node10&#45;&gt;Node27 -->
<g id="edge27" class="edge">
<title>Node10&#45;&gt;Node27</title>
<path fill="none" stroke="midnightblue" d="M2721.62,-148.62C2567.67,-147.72 2228.79,-140.56 1947,-98 1937.51,-96.57 1927.31,-94.32 1918.11,-92.02"/>
<polygon fill="midnightblue" stroke="midnightblue" points="2721.92,-152.12 2731.93,-148.67 2721.95,-145.12 2721.92,-152.12"/>
</g>
<!-- Node28 -->
<g id="node27" class="node">
<title>Node28</title>
<g id="a_node27"><a xlink:href="d__save_8cpp.html" target="_top" xlink:title=" ">
<polygon fill="white" stroke="black" points="1956.5,-73 1956.5,-92 2081.5,-92 2081.5,-73 1956.5,-73"/>
<text text-anchor="middle" x="2019" y="-80" font-family="Helvetica,sans-Serif" font-size="10.00">src/d/d_save/d_save.cpp</text>
</a>
</g>
</g>
<!-- Node10&#45;&gt;Node28 -->
<g id="edge29" class="edge">
<title>Node10&#45;&gt;Node28</title>
<path fill="none" stroke="midnightblue" d="M2721.68,-146.15C2587.93,-141.59 2317.26,-129.1 2090,-98 2078.91,-96.48 2066.94,-94.27 2056.06,-92.02"/>
<polygon fill="midnightblue" stroke="midnightblue" points="2721.74,-149.66 2731.85,-146.49 2721.97,-142.66 2721.74,-149.66"/>
</g>
<!-- Node29 -->
<g id="node28" class="node">
<title>Node29</title>
<g id="a_node28"><a xlink:href="d__save__HIO_8cpp.html" target="_top" xlink:title=" ">
<polygon fill="white" stroke="black" points="2099.5,-67.5 2099.5,-97.5 2206.5,-97.5 2206.5,-67.5 2099.5,-67.5"/>
<text text-anchor="start" x="2107.5" y="-85.5" font-family="Helvetica,sans-Serif" font-size="10.00">src/d/d_save/d_save</text>
<text text-anchor="middle" x="2153" y="-74.5" font-family="Helvetica,sans-Serif" font-size="10.00">_HIO.cpp</text>
</a>
</g>
</g>
<!-- Node10&#45;&gt;Node29 -->
<g id="edge30" class="edge">
<title>Node10&#45;&gt;Node29</title>
<path fill="none" stroke="midnightblue" d="M2721.5,-145.04C2606.94,-139.46 2394.87,-126.11 2216,-98 2212.9,-97.51 2209.72,-96.96 2206.52,-96.36"/>
<polygon fill="midnightblue" stroke="midnightblue" points="2721.45,-148.54 2731.6,-145.53 2721.78,-141.55 2721.45,-148.54"/>
</g>
<!-- Node30 -->
<g id="node29" class="node">
<title>Node30</title>
<g id="a_node29"><a xlink:href="d__stage_8cpp.html" target="_top" xlink:title=" ">
<polygon fill="white" stroke="black" points="2225,-73 2225,-92 2319,-92 2319,-73 2225,-73"/>
<text text-anchor="middle" x="2272" y="-80" font-family="Helvetica,sans-Serif" font-size="10.00">src/d/d_stage.cpp</text>
</a>
</g>
</g>
<!-- Node10&#45;&gt;Node30 -->
<g id="edge31" class="edge">
<title>Node10&#45;&gt;Node30</title>
<path fill="none" stroke="midnightblue" d="M2721.75,-142.8C2627.1,-135.58 2468.19,-121.2 2333,-98 2323.67,-96.4 2313.63,-94.21 2304.45,-92.02"/>
<polygon fill="midnightblue" stroke="midnightblue" points="2721.6,-146.3 2731.83,-143.56 2722.12,-139.32 2721.6,-146.3"/>
</g>
<!-- Node31 -->
<g id="node30" class="node">
<title>Node31</title>
<g id="a_node30"><a xlink:href="f__op__actor__mng_8cpp.html" target="_top" xlink:title=" ">
<polygon fill="white" stroke="black" points="2419.5,-0.5 2419.5,-30.5 2526.5,-30.5 2526.5,-0.5 2419.5,-0.5"/>
<text text-anchor="start" x="2427.5" y="-18.5" font-family="Helvetica,sans-Serif" font-size="10.00">src/f/f_op/f_op_actor</text>
<text text-anchor="middle" x="2473" y="-7.5" font-family="Helvetica,sans-Serif" font-size="10.00">_mng.cpp</text>
</a>
</g>
</g>
<!-- Node10&#45;&gt;Node31 -->
<g id="edge32" class="edge">
<title>Node10&#45;&gt;Node31</title>
<path fill="none" stroke="midnightblue" d="M2721.4,-144.78C2600.63,-138.54 2389.19,-124.01 2366,-98 2341.14,-70.11 2389.15,-45.25 2428.66,-30.52"/>
<polygon fill="midnightblue" stroke="midnightblue" points="2721.55,-148.29 2731.72,-145.31 2721.91,-141.3 2721.55,-148.29"/>
</g>
<!-- Node32 -->
<g id="node31" class="node">
<title>Node32</title>
<g id="a_node31"><a xlink:href="f__op__camera_8cpp.html" target="_top" xlink:title=" ">
<polygon fill="white" stroke="black" points="2375.5,-73 2375.5,-92 2510.5,-92 2510.5,-73 2375.5,-73"/>
<text text-anchor="middle" x="2443" y="-80" font-family="Helvetica,sans-Serif" font-size="10.00">src/f/f_op/f_op_camera.cpp</text>
</a>
</g>
</g>
<!-- Node10&#45;&gt;Node32 -->
<g id="edge33" class="edge">
<title>Node10&#45;&gt;Node32</title>
<path fill="none" stroke="midnightblue" d="M2721.73,-133.99C2664.87,-124.02 2587.85,-110.4 2520,-98 2509.56,-96.09 2498.34,-94 2487.77,-92.02"/>
<polygon fill="midnightblue" stroke="midnightblue" points="2721.29,-137.46 2731.74,-135.74 2722.5,-130.57 2721.29,-137.46"/>
</g>
<!-- Node33 -->
<g id="node32" class="node">
<title>Node33</title>
<g id="a_node32"><a xlink:href="f__op__kankyo_8cpp.html" target="_top" xlink:title=" ">
<polygon fill="white" stroke="black" points="2529,-73 2529,-92 2663,-92 2663,-73 2529,-73"/>
<text text-anchor="middle" x="2596" y="-80" font-family="Helvetica,sans-Serif" font-size="10.00">src/f/f_op/f_op_kankyo.cpp</text>
</a>
</g>
</g>
<!-- Node10&#45;&gt;Node33 -->
<g id="edge34" class="edge">
<title>Node10&#45;&gt;Node33</title>
<path fill="none" stroke="midnightblue" d="M2750.11,-131.43C2709.36,-118.75 2655.49,-102 2623.42,-92.03"/>
<polygon fill="midnightblue" stroke="midnightblue" points="2749.32,-134.85 2759.91,-134.48 2751.4,-128.16 2749.32,-134.85"/>
</g>
<!-- Node34 -->
<g id="node33" class="node">
<title>Node34</title>
<g id="a_node33"><a xlink:href="f__op__kankyo__mng_8cpp.html" target="_top" xlink:title=" ">
<polygon fill="white" stroke="black" points="4615,-0.5 4615,-30.5 4731,-30.5 4731,-0.5 4615,-0.5"/>
<text text-anchor="start" x="4623" y="-18.5" font-family="Helvetica,sans-Serif" font-size="10.00">src/f/f_op/f_op_kankyo</text>
<text text-anchor="middle" x="4673" y="-7.5" font-family="Helvetica,sans-Serif" font-size="10.00">_mng.cpp</text>
</a>
</g>
</g>
<!-- Node10&#45;&gt;Node34 -->
<g id="edge35" class="edge">
<title>Node10&#45;&gt;Node34</title>
<path fill="none" stroke="midnightblue" d="M2888.33,-148.88C3238.5,-150.14 4575.93,-151.44 4647,-98 4667.89,-82.29 4672.35,-49.66 4673.09,-30.8"/>
<polygon fill="midnightblue" stroke="midnightblue" points="2888.28,-145.38 2878.27,-148.84 2888.25,-152.38 2888.28,-145.38"/>
</g>
<!-- Node35 -->
<g id="node34" class="node">
<title>Node35</title>
<g id="a_node34"><a xlink:href="f__op__msg__mng_8cpp.html" target="_top" xlink:title=" ">
<polygon fill="white" stroke="black" points="4762,-0.5 4762,-30.5 4866,-30.5 4866,-0.5 4762,-0.5"/>
<text text-anchor="start" x="4770" y="-18.5" font-family="Helvetica,sans-Serif" font-size="10.00">src/f/f_op/f_op_msg</text>
<text text-anchor="middle" x="4814" y="-7.5" font-family="Helvetica,sans-Serif" font-size="10.00">_mng.cpp</text>
</a>
</g>
</g>
<!-- Node10&#45;&gt;Node35 -->
<g id="edge36" class="edge">
<title>Node10&#45;&gt;Node35</title>
<path fill="none" stroke="midnightblue" d="M2888.3,-147.83C3261.66,-144.67 4764.46,-129.98 4801,-98 4819.98,-81.39 4819,-49.1 4816.54,-30.54"/>
<polygon fill="midnightblue" stroke="midnightblue" points="2888.08,-144.34 2878.11,-147.92 2888.14,-151.34 2888.08,-144.34"/>
</g>
<!-- Node36 -->
<g id="node35" class="node">
<title>Node36</title>
<g id="a_node35"><a xlink:href="f__pc__manager_8cpp.html" target="_top" xlink:title=" ">
<polygon fill="white" stroke="black" points="4899,-6 4899,-25 5039,-25 5039,-6 4899,-6"/>
<text text-anchor="middle" x="4969" y="-13" font-family="Helvetica,sans-Serif" font-size="10.00">src/f/f_pc/f_pc_manager.cpp</text>
</a>
</g>
</g>
<!-- Node10&#45;&gt;Node36 -->
<g id="edge37" class="edge">
<title>Node10&#45;&gt;Node36</title>
<path fill="none" stroke="midnightblue" d="M2888.14,-148.04C3279.54,-145.67 4921.14,-133.64 4960,-98 4980.35,-79.34 4975.03,-42.16 4971.25,-25.24"/>
<polygon fill="midnightblue" stroke="midnightblue" points="2888.01,-144.54 2878.03,-148.1 2888.05,-151.54 2888.01,-144.54"/>
</g>
<!-- Node37 -->
<g id="node36" class="node">
<title>Node37</title>
<g id="a_node36"><a xlink:href="m__Do__audio_8cpp.html" target="_top" xlink:title=" ">
<polygon fill="white" stroke="black" points="2871,-73 2871,-92 3005,-92 3005,-73 2871,-73"/>
<text text-anchor="middle" x="2938" y="-80" font-family="Helvetica,sans-Serif" font-size="10.00">src/m_Do/m_Do_audio.cpp</text>
</a>
</g>
</g>
<!-- Node10&#45;&gt;Node37 -->
<g id="edge38" class="edge">
<title>Node10&#45;&gt;Node37</title>
<path fill="none" stroke="midnightblue" d="M2842.92,-129.97C2868.47,-117.48 2900.97,-101.6 2920.59,-92.01"/>
<polygon fill="midnightblue" stroke="midnightblue" points="2841.31,-126.86 2833.86,-134.4 2844.38,-133.15 2841.31,-126.86"/>
</g>
<!-- Node38 -->
<g id="node37" class="node">
<title>Node38</title>
<g id="a_node37"><a xlink:href="m__Do__lib_8cpp.html" target="_top" xlink:title=" ">
<polygon fill="white" stroke="black" points="3023,-73 3023,-92 3143,-92 3143,-73 3023,-73"/>
<text text-anchor="middle" x="3083" y="-80" font-family="Helvetica,sans-Serif" font-size="10.00">src/m_Do/m_Do_lib.cpp</text>
</a>
</g>
</g>
<!-- Node10&#45;&gt;Node38 -->
<g id="edge40" class="edge">
<title>Node10&#45;&gt;Node38</title>
<path fill="none" stroke="midnightblue" d="M2874.93,-132.15C2929.48,-119.39 3003.06,-102.19 3046.52,-92.03"/>
<polygon fill="midnightblue" stroke="midnightblue" points="2873.92,-128.79 2864.98,-134.48 2875.51,-135.61 2873.92,-128.79"/>
</g>
<!-- Node39 -->
<g id="node38" class="node">
<title>Node39</title>
<g id="a_node38"><a xlink:href="m__Do__machine__exception_8cpp.html" target="_top" xlink:title=" ">
<polygon fill="white" stroke="black" points="3161.5,-67.5 3161.5,-97.5 3290.5,-97.5 3290.5,-67.5 3161.5,-67.5"/>
<text text-anchor="start" x="3169.5" y="-85.5" font-family="Helvetica,sans-Serif" font-size="10.00">src/m_Do/m_Do_machine</text>
<text text-anchor="middle" x="3226" y="-74.5" font-family="Helvetica,sans-Serif" font-size="10.00">_exception.cpp</text>
</a>
</g>
</g>
<!-- Node10&#45;&gt;Node39 -->
<g id="edge41" class="edge">
<title>Node10&#45;&gt;Node39</title>
<path fill="none" stroke="midnightblue" d="M2888.42,-137.53C2958.82,-127.99 3062.2,-113.32 3152,-98 3155.1,-97.47 3158.26,-96.91 3161.46,-96.34"/>
<polygon fill="midnightblue" stroke="midnightblue" points="2887.72,-134.09 2878.28,-138.9 2888.65,-141.03 2887.72,-134.09"/>
</g>
<!-- Node40 -->
<g id="node39" class="node">
<title>Node40</title>
<g id="a_node39"><a xlink:href="m__Do__main_8cpp.html" target="_top" xlink:title=" ">
<polygon fill="white" stroke="black" points="3308.5,-73 3308.5,-92 3439.5,-92 3439.5,-73 3308.5,-73"/>
<text text-anchor="middle" x="3374" y="-80" font-family="Helvetica,sans-Serif" font-size="10.00">src/m_Do/m_Do_main.cpp</text>
</a>
</g>
</g>
<!-- Node10&#45;&gt;Node40 -->
<g id="edge42" class="edge">
<title>Node10&#45;&gt;Node40</title>
<path fill="none" stroke="midnightblue" d="M2888.25,-142.27C2986.67,-134.37 3155.26,-119.2 3299,-98 3310.15,-96.36 3322.17,-94.2 3333.24,-92.06"/>
<polygon fill="midnightblue" stroke="midnightblue" points="2887.76,-138.8 2878.07,-143.08 2888.32,-145.77 2887.76,-138.8"/>
</g>
<!-- Node41 -->
<g id="node40" class="node">
<title>Node41</title>
<g id="a_node40"><a xlink:href="m__Do__MemCardRWmng_8cpp.html" target="_top" xlink:title=" ">
<polygon fill="white" stroke="black" points="3457.5,-73 3457.5,-92 3644.5,-92 3644.5,-73 3457.5,-73"/>
<text text-anchor="middle" x="3551" y="-80" font-family="Helvetica,sans-Serif" font-size="10.00">src/m_Do/m_Do_MemCardRWmng.cpp</text>
</a>
</g>
</g>
<!-- Node10&#45;&gt;Node41 -->
<g id="edge43" class="edge">
<title>Node10&#45;&gt;Node41</title>
<path fill="none" stroke="midnightblue" d="M2888.51,-143.59C3011.3,-135.99 3247.71,-119.94 3448,-98 3463.26,-96.33 3479.74,-94.17 3494.95,-92.03"/>
<polygon fill="midnightblue" stroke="midnightblue" points="2888.19,-140.1 2878.42,-144.21 2888.62,-147.09 2888.19,-140.1"/>
</g>
<!-- Node42 -->
<g id="node41" class="node">
<title>Node42</title>
<g id="a_node41"><a xlink:href="m__Do__ext_8cpp.html" target="_top" xlink:title=" ">
<polygon fill="white" stroke="black" points="3662.5,-73 3662.5,-92 3785.5,-92 3785.5,-73 3662.5,-73"/>
<text text-anchor="middle" x="3724" y="-80" font-family="Helvetica,sans-Serif" font-size="10.00">src/m_Do/m_Do_ext.cpp</text>
</a>
</g>
</g>
<!-- Node10&#45;&gt;Node42 -->
<g id="edge44" class="edge">
<title>Node10&#45;&gt;Node42</title>
<path fill="none" stroke="midnightblue" d="M2888.43,-147.45C3040.88,-144.67 3374.44,-134.55 3653,-98 3664.23,-96.53 3676.33,-94.3 3687.32,-92.03"/>
<polygon fill="midnightblue" stroke="midnightblue" points="2888.15,-143.96 2878.21,-147.63 2888.27,-150.96 2888.15,-143.96"/>
</g>
<!-- Node43 -->
<g id="node42" class="node">
<title>Node43</title>
<g id="a_node42"><a xlink:href="Z2EnvSeMgr_8cpp.html" target="_top" xlink:title=" ">
<polygon fill="white" stroke="black" points="3803.5,-73 3803.5,-92 3964.5,-92 3964.5,-73 3803.5,-73"/>
<text text-anchor="middle" x="3884" y="-80" font-family="Helvetica,sans-Serif" font-size="10.00">libs/Z2AudioLib/Z2EnvSeMgr.cpp</text>
</a>
</g>
</g>
<!-- Node10&#45;&gt;Node43 -->
<g id="edge45" class="edge">
<title>Node10&#45;&gt;Node43</title>
<path fill="none" stroke="midnightblue" d="M2888.26,-147.3C3058.71,-144.18 3459.53,-133.38 3794,-98 3808.01,-96.52 3823.15,-94.31 3836.95,-92.07"/>
<polygon fill="midnightblue" stroke="midnightblue" points="2888.04,-143.8 2878.11,-147.48 2888.17,-150.8 2888.04,-143.8"/>
</g>
<!-- Node44 -->
<g id="node43" class="node">
<title>Node44</title>
<g id="a_node43"><a xlink:href="Z2LinkMgr_8cpp.html" target="_top" xlink:title=" ">
<polygon fill="white" stroke="black" points="3983,-73 3983,-92 4135,-92 4135,-73 3983,-73"/>
<text text-anchor="middle" x="4059" y="-80" font-family="Helvetica,sans-Serif" font-size="10.00">libs/Z2AudioLib/Z2LinkMgr.cpp</text>
</a>
</g>
</g>
<!-- Node10&#45;&gt;Node44 -->
<g id="edge46" class="edge">
<title>Node10&#45;&gt;Node44</title>
<path fill="none" stroke="midnightblue" d="M2888.01,-148.43C3079.69,-147.51 3567.73,-140.76 3973,-98 3986.7,-96.55 4001.53,-94.3 4014.95,-92"/>
<polygon fill="midnightblue" stroke="midnightblue" points="2888,-144.93 2878.01,-148.48 2888.03,-151.93 2888,-144.93"/>
</g>
<!-- Node45 -->
<g id="node44" class="node">
<title>Node45</title>
<g id="a_node44"><a xlink:href="Z2SceneMgr_8cpp.html" target="_top" xlink:title=" ">
<polygon fill="white" stroke="black" points="4153.5,-73 4153.5,-92 4314.5,-92 4314.5,-73 4153.5,-73"/>
<text text-anchor="middle" x="4234" y="-80" font-family="Helvetica,sans-Serif" font-size="10.00">libs/Z2AudioLib/Z2SceneMgr.cpp</text>
</a>
</g>
</g>
<!-- Node10&#45;&gt;Node45 -->
<g id="edge47" class="edge">
<title>Node10&#45;&gt;Node45</title>
<path fill="none" stroke="midnightblue" d="M2888.21,-148.88C3098.93,-149.09 3670.53,-144.89 4144,-98 4158.33,-96.58 4173.85,-94.34 4187.89,-92.04"/>
<polygon fill="midnightblue" stroke="midnightblue" points="2888.15,-145.38 2878.15,-148.87 2888.14,-152.38 2888.15,-145.38"/>
</g>
<!-- Node46 -->
<g id="node45" class="node">
<title>Node46</title>
<g id="a_node45"><a xlink:href="Z2SoundMgr_8cpp.html" target="_top" xlink:title=" ">
<polygon fill="white" stroke="black" points="4332.5,-73 4332.5,-92 4493.5,-92 4493.5,-73 4332.5,-73"/>
<text text-anchor="middle" x="4413" y="-80" font-family="Helvetica,sans-Serif" font-size="10.00">libs/Z2AudioLib/Z2SoundMgr.cpp</text>
</a>
</g>
</g>
<!-- Node10&#45;&gt;Node46 -->
<g id="edge48" class="edge">
<title>Node10&#45;&gt;Node46</title>
<path fill="none" stroke="midnightblue" d="M2888.63,-147.11C3164.06,-142.33 4041.2,-125.28 4323,-98 4337.49,-96.6 4353.19,-94.33 4367.36,-92"/>
<polygon fill="midnightblue" stroke="midnightblue" points="2888.24,-143.62 2878.31,-147.29 2888.36,-150.62 2888.24,-143.62"/>
</g>
<!-- Node47 -->
<g id="node46" class="node">
<title>Node47</title>
<g id="a_node46"><a xlink:href="Z2StatusMgr_8cpp.html" target="_top" xlink:title=" ">
<polygon fill="white" stroke="black" points="4511.5,-67.5 4511.5,-97.5 4638.5,-97.5 4638.5,-67.5 4511.5,-67.5"/>
<text text-anchor="start" x="4519.5" y="-85.5" font-family="Helvetica,sans-Serif" font-size="10.00">libs/Z2AudioLib/Z2Status</text>
<text text-anchor="middle" x="4575" y="-74.5" font-family="Helvetica,sans-Serif" font-size="10.00">Mgr.cpp</text>
</a>
</g>
</g>
<!-- Node10&#45;&gt;Node47 -->
<g id="edge49" class="edge">
<title>Node10&#45;&gt;Node47</title>
<path fill="none" stroke="midnightblue" d="M2888.31,-147.86C3184.24,-145.28 4183.98,-134.06 4502,-98 4505.08,-97.65 4508.23,-97.24 4511.4,-96.78"/>
<polygon fill="midnightblue" stroke="midnightblue" points="2888.06,-144.36 2878.09,-147.94 2888.12,-151.36 2888.06,-144.36"/>
</g>
<!-- Node48 -->
<g id="node47" class="node">
<title>Node48</title>
<g id="a_node47"><a xlink:href="d__item_8h.html" target="_top" xlink:title=" ">
<polygon fill="white" stroke="black" points="2681,-67.5 2681,-97.5 2777,-97.5 2777,-67.5 2681,-67.5"/>
<text text-anchor="start" x="2689" y="-85.5" font-family="Helvetica,sans-Serif" font-size="10.00">include/d/d_item/d</text>
<text text-anchor="middle" x="2729" y="-74.5" font-family="Helvetica,sans-Serif" font-size="10.00">_item/d_item.h</text>
</a>
</g>
</g>
<!-- Node10&#45;&gt;Node48 -->
<g id="edge51" class="edge">
<title>Node10&#45;&gt;Node48</title>
<path fill="none" stroke="midnightblue" d="M2780.89,-127.88C2769.34,-118.01 2755.81,-106.43 2745.46,-97.58"/>
<polygon fill="midnightblue" stroke="midnightblue" points="2778.63,-130.56 2788.51,-134.4 2783.18,-125.24 2778.63,-130.56"/>
</g>
<!-- Node49 -->
<g id="node48" class="node">
<title>Node49</title>
<g id="a_node48"><a xlink:href="f__pc__manager_8h.html" target="_top" xlink:title=" ">
<polygon fill="white" stroke="red" points="4695.5,-67.5 4695.5,-97.5 4792.5,-97.5 4792.5,-67.5 4695.5,-67.5"/>
<text text-anchor="start" x="4703.5" y="-85.5" font-family="Helvetica,sans-Serif" font-size="10.00">include/f/f_pc/f_pc</text>
<text text-anchor="middle" x="4744" y="-74.5" font-family="Helvetica,sans-Serif" font-size="10.00">_manager.h</text>
</a>
</g>
</g>
<!-- Node10&#45;&gt;Node49 -->
<g id="edge55" class="edge">
<title>Node10&#45;&gt;Node49</title>
<path fill="none" stroke="midnightblue" d="M2888.47,-148.46C3204.4,-147.98 4326.87,-143.06 4681,-98 4685.68,-97.4 4690.51,-96.61 4695.33,-95.71"/>
<polygon fill="midnightblue" stroke="midnightblue" points="2888.01,-144.96 2878.02,-148.48 2888.02,-151.96 2888.01,-144.96"/>
</g>
<!-- Node48&#45;&gt;Node12 -->
<g id="edge52" class="edge">
<title>Node48&#45;&gt;Node12</title>
<path fill="none" stroke="midnightblue" d="M2724.55,-57.4C2722.88,-48.37 2721.04,-38.41 2719.6,-30.58"/>
<polygon fill="midnightblue" stroke="midnightblue" points="2721.14,-58.2 2726.4,-67.4 2728.02,-56.93 2721.14,-58.2"/>
</g>
<!-- Node48&#45;&gt;Node14 -->
<g id="edge53" class="edge">
<title>Node48&#45;&gt;Node14</title>
<path fill="none" stroke="midnightblue" d="M2765.24,-62.8C2789.4,-50.34 2820,-34.56 2838.51,-25.01"/>
<polygon fill="midnightblue" stroke="midnightblue" points="2763.62,-59.7 2756.34,-67.4 2766.83,-65.92 2763.62,-59.7"/>
</g>
<!-- Node48&#45;&gt;Node31 -->
<g id="edge54" class="edge">
<title>Node48&#45;&gt;Node31</title>
<path fill="none" stroke="midnightblue" d="M2670.96,-66.74C2616.47,-52.89 2564.42,-39.69 2526.64,-30.1"/>
<polygon fill="midnightblue" stroke="midnightblue" points="2670.24,-70.17 2680.8,-69.24 2671.97,-63.38 2670.24,-70.17"/>
</g>
<!-- Node49&#45;&gt;Node34 -->
<g id="edge56" class="edge">
<title>Node49&#45;&gt;Node34</title>
<path fill="none" stroke="midnightblue" d="M4721.17,-60.6C4710.45,-50.78 4697.95,-39.34 4688.38,-30.58"/>
<polygon fill="midnightblue" stroke="midnightblue" points="4718.85,-63.22 4728.59,-67.4 4723.58,-58.06 4718.85,-63.22"/>
</g>
<!-- Node49&#45;&gt;Node35 -->
<g id="edge57" class="edge">
<title>Node49&#45;&gt;Node35</title>
<path fill="none" stroke="midnightblue" d="M4766.82,-60.31C4777.32,-50.56 4789.49,-39.26 4798.84,-30.58"/>
<polygon fill="midnightblue" stroke="midnightblue" points="4764.14,-58.03 4759.19,-67.4 4768.9,-63.16 4764.14,-58.03"/>
</g>
<!-- Node49&#45;&gt;Node36 -->
<g id="edge58" class="edge">
<title>Node49&#45;&gt;Node36</title>
<path fill="none" stroke="midnightblue" d="M4802.26,-64.67C4846.23,-51.97 4904.74,-35.06 4939.48,-25.03"/>
<polygon fill="midnightblue" stroke="midnightblue" points="4801.18,-61.34 4792.54,-67.48 4803.12,-68.06 4801.18,-61.34"/>
</g>
<!-- Node55&#45;&gt;Node13 -->
<g id="edge61" class="edge">
<title>Node55&#45;&gt;Node13</title>
<path fill="none" stroke="midnightblue" d="M2187.73,-216.81C2001.19,-203.68 1409.39,-162.55 919,-134 604.9,-115.72 522.66,-147.8 212,-98 209.27,-97.56 206.48,-97.04 203.67,-96.45"/>
<polygon fill="midnightblue" stroke="midnightblue" points="2187.66,-220.31 2197.88,-217.52 2188.15,-213.33 2187.66,-220.31"/>
</g>
<!-- Node56&#45;&gt;Node7 -->
<g id="edge63" class="edge">
<title>Node56&#45;&gt;Node7</title>
<path fill="none" stroke="midnightblue" d="M5155.31,-130.41C5179.58,-120.03 5209.59,-107.2 5232.08,-97.58"/>
<polygon fill="midnightblue" stroke="midnightblue" points="5153.8,-127.25 5145.98,-134.4 5156.55,-133.68 5153.8,-127.25"/>
</g>
</g>
</svg>
