<?xml version="1.0" encoding="UTF-8" standalone="no"?>
<!DOCTYPE svg PUBLIC "-//W3C//DTD SVG 1.1//EN"
 "http://www.w3.org/Graphics/SVG/1.1/DTD/svg11.dtd">
<!-- Generated by graphviz version 2.44.0 ()
 -->
<!-- Title: include/JSystem/JAudio2/JAISe/JAISe.h Pages: 1 -->
<svg width="3792pt" height="430pt"
 viewBox="0.00 0.00 3792.00 430.00" xmlns="http://www.w3.org/2000/svg" xmlns:xlink="http://www.w3.org/1999/xlink">
<g id="graph0" class="graph" transform="scale(1 1) rotate(0) translate(4 426)">
<title>include/JSystem/JAudio2/JAISe/JAISe.h</title>
<polygon fill="white" stroke="transparent" points="-4,4 -4,-426 3788,-426 3788,4 -4,4"/>
<!-- Node1 -->
<g id="node1" class="node">
<title>Node1</title>
<g id="a_node1"><a xlink:title=" ">
<polygon fill="#bfbfbf" stroke="black" points="946,-391.5 946,-421.5 1073,-421.5 1073,-391.5 946,-391.5"/>
<text text-anchor="start" x="954" y="-409.5" font-family="Helvetica,sans-Serif" font-size="10.00">include/JSystem/JAudio2</text>
<text text-anchor="middle" x="1009.5" y="-398.5" font-family="Helvetica,sans-Serif" font-size="10.00">/JAISe/JAISe.h</text>
</a>
</g>
</g>
<!-- Node2 -->
<g id="node2" class="node">
<title>Node2</title>
<g id="a_node2"><a xlink:href="Z2SceneMgr_8h.html" target="_top" xlink:title=" ">
<polygon fill="white" stroke="black" points="877,-257.5 877,-287.5 1018,-287.5 1018,-257.5 877,-257.5"/>
<text text-anchor="start" x="885" y="-275.5" font-family="Helvetica,sans-Serif" font-size="10.00">include/Z2AudioLib</text>
<text text-anchor="middle" x="947.5" y="-264.5" font-family="Helvetica,sans-Serif" font-size="10.00">/Z2SceneMgr/Z2SceneMgr.h</text>
</a>
</g>
</g>
<!-- Node1&#45;&gt;Node2 -->
<g id="edge1" class="edge">
<title>Node1&#45;&gt;Node2</title>
<path fill="none" stroke="midnightblue" d="M998.52,-382.12C985.63,-354.68 964.68,-310.09 954.09,-287.52"/>
<polygon fill="midnightblue" stroke="midnightblue" points="995.45,-383.81 1002.86,-391.37 1001.78,-380.83 995.45,-383.81"/>
</g>
<!-- Node30 -->
<g id="node30" class="node">
<title>Node30</title>
<g id="a_node30"><a xlink:href="Z2LinkMgr_8h.html" target="_top" xlink:title=" ">
<polygon fill="white" stroke="black" points="156,-190.5 156,-220.5 279,-220.5 279,-190.5 156,-190.5"/>
<text text-anchor="start" x="164" y="-208.5" font-family="Helvetica,sans-Serif" font-size="10.00">include/Z2AudioLib</text>
<text text-anchor="middle" x="217.5" y="-197.5" font-family="Helvetica,sans-Serif" font-size="10.00">/Z2LinkMgr/Z2LinkMgr.h</text>
</a>
</g>
</g>
<!-- Node1&#45;&gt;Node30 -->
<g id="edge32" class="edge">
<title>Node1&#45;&gt;Node30</title>
<path fill="none" stroke="midnightblue" d="M943.78,-388.99C791.29,-350.67 415.61,-256.28 273.33,-220.53"/>
<polygon fill="midnightblue" stroke="midnightblue" points="942.94,-392.38 953.49,-391.43 944.65,-385.6 942.94,-392.38"/>
</g>
<!-- Node33 -->
<g id="node33" class="node">
<title>Node33</title>
<g id="a_node33"><a xlink:href="Z2SeMgr_8h.html" target="_top" xlink:title=" ">
<polygon fill="white" stroke="black" points="1533.5,-123.5 1533.5,-153.5 1643.5,-153.5 1643.5,-123.5 1533.5,-123.5"/>
<text text-anchor="start" x="1541.5" y="-141.5" font-family="Helvetica,sans-Serif" font-size="10.00">include/Z2AudioLib</text>
<text text-anchor="middle" x="1588.5" y="-130.5" font-family="Helvetica,sans-Serif" font-size="10.00">/Z2SeMgr/Z2SeMgr.h</text>
</a>
</g>
</g>
<!-- Node1&#45;&gt;Node33 -->
<g id="edge38" class="edge">
<title>Node1&#45;&gt;Node33</title>
<path fill="none" stroke="midnightblue" d="M1083.26,-397.2C1177.64,-384.29 1344.11,-353.71 1471.5,-288 1512.42,-266.9 1522.57,-257.6 1550.5,-221 1566.6,-199.9 1578.07,-170.88 1583.97,-153.77"/>
<polygon fill="midnightblue" stroke="midnightblue" points="1082.69,-393.74 1073.24,-398.54 1083.62,-400.68 1082.69,-393.74"/>
</g>
<!-- Node37 -->
<g id="node37" class="node">
<title>Node37</title>
<g id="a_node37"><a xlink:href="Z2SeqMgr_8h.html" target="_top" xlink:title=" ">
<polygon fill="white" stroke="black" points="1028.5,-324.5 1028.5,-354.5 1148.5,-354.5 1148.5,-324.5 1028.5,-324.5"/>
<text text-anchor="start" x="1036.5" y="-342.5" font-family="Helvetica,sans-Serif" font-size="10.00">include/Z2AudioLib</text>
<text text-anchor="middle" x="1088.5" y="-331.5" font-family="Helvetica,sans-Serif" font-size="10.00">/Z2SeqMgr/Z2SeqMgr.h</text>
</a>
</g>
</g>
<!-- Node1&#45;&gt;Node37 -->
<g id="edge59" class="edge">
<title>Node1&#45;&gt;Node37</title>
<path fill="none" stroke="midnightblue" d="M1034.56,-384.88C1046.56,-375.01 1060.63,-363.43 1071.39,-354.58"/>
<polygon fill="midnightblue" stroke="midnightblue" points="1032.14,-382.34 1026.64,-391.4 1036.59,-387.75 1032.14,-382.34"/>
</g>
<!-- Node3 -->
<g id="node3" class="node">
<title>Node3</title>
<g id="a_node3"><a xlink:href="Z2SceneMgr_8cpp.html" target="_top" xlink:title=" ">
<polygon fill="white" stroke="black" points="611,-62 611,-81 772,-81 772,-62 611,-62"/>
<text text-anchor="middle" x="691.5" y="-69" font-family="Helvetica,sans-Serif" font-size="10.00">libs/Z2AudioLib/Z2SceneMgr.cpp</text>
</a>
</g>
</g>
<!-- Node2&#45;&gt;Node3 -->
<g id="edge2" class="edge">
<title>Node2&#45;&gt;Node3</title>
<path fill="none" stroke="midnightblue" d="M947.57,-247.16C946.29,-214.2 938.91,-155.76 904.5,-123 892.46,-111.53 797.34,-92.15 738.36,-81.02"/>
<polygon fill="midnightblue" stroke="midnightblue" points="944.08,-247.36 947.8,-257.28 951.07,-247.21 944.08,-247.36"/>
</g>
<!-- Node4 -->
<g id="node4" class="node">
<title>Node4</title>
<g id="a_node4"><a xlink:href="Z2SeqMgr_8cpp.html" target="_top" xlink:title=" ">
<polygon fill="white" stroke="black" points="712.5,-196 712.5,-215 862.5,-215 862.5,-196 712.5,-196"/>
<text text-anchor="middle" x="787.5" y="-203" font-family="Helvetica,sans-Serif" font-size="10.00">libs/Z2AudioLib/Z2SeqMgr.cpp</text>
</a>
</g>
</g>
<!-- Node2&#45;&gt;Node4 -->
<g id="edge3" class="edge">
<title>Node2&#45;&gt;Node4</title>
<path fill="none" stroke="midnightblue" d="M903.49,-253.62C872.52,-241.04 832.46,-224.77 808.44,-215.01"/>
<polygon fill="midnightblue" stroke="midnightblue" points="902.2,-256.87 912.78,-257.4 904.84,-250.39 902.2,-256.87"/>
</g>
<!-- Node5 -->
<g id="node5" class="node">
<title>Node5</title>
<g id="a_node5"><a xlink:href="Z2StatusMgr_8cpp.html" target="_top" xlink:title=" ">
<polygon fill="white" stroke="black" points="466,-56.5 466,-86.5 593,-86.5 593,-56.5 466,-56.5"/>
<text text-anchor="start" x="474" y="-74.5" font-family="Helvetica,sans-Serif" font-size="10.00">libs/Z2AudioLib/Z2Status</text>
<text text-anchor="middle" x="529.5" y="-63.5" font-family="Helvetica,sans-Serif" font-size="10.00">Mgr.cpp</text>
</a>
</g>
</g>
<!-- Node2&#45;&gt;Node5 -->
<g id="edge4" class="edge">
<title>Node2&#45;&gt;Node5</title>
<path fill="none" stroke="midnightblue" d="M931.59,-249.11C917.62,-230.91 895.77,-205.75 871.5,-190 822.26,-158.05 662.47,-110.08 579.91,-86.54"/>
<polygon fill="midnightblue" stroke="midnightblue" points="929.01,-251.49 937.79,-257.41 934.61,-247.31 929.01,-251.49"/>
</g>
<!-- Node6 -->
<g id="node6" class="node">
<title>Node6</title>
<g id="a_node6"><a xlink:href="Z2AudioLib_8h.html" target="_top" xlink:title=" ">
<polygon fill="white" stroke="black" points="790.5,-56.5 790.5,-86.5 890.5,-86.5 890.5,-56.5 790.5,-56.5"/>
<text text-anchor="start" x="798.5" y="-74.5" font-family="Helvetica,sans-Serif" font-size="10.00">include/Z2AudioLib</text>
<text text-anchor="middle" x="840.5" y="-63.5" font-family="Helvetica,sans-Serif" font-size="10.00">/Z2AudioLib.h</text>
</a>
</g>
</g>
<!-- Node2&#45;&gt;Node6 -->
<g id="edge5" class="edge">
<title>Node2&#45;&gt;Node6</title>
<path fill="none" stroke="midnightblue" d="M953.72,-247.4C960.35,-216.05 966.87,-160.83 942.5,-123 930.73,-104.73 910.24,-92.84 890.7,-85.21"/>
<polygon fill="midnightblue" stroke="midnightblue" points="950.25,-246.9 951.42,-257.43 957.07,-248.46 950.25,-246.9"/>
</g>
<!-- Node8 -->
<g id="node8" class="node">
<title>Node8</title>
<g id="a_node8"><a xlink:href="Z2AudioMgr_8h.html" target="_top" xlink:title=" ">
<polygon fill="white" stroke="black" points="2297,-190.5 2297,-220.5 2432,-220.5 2432,-190.5 2297,-190.5"/>
<text text-anchor="start" x="2305" y="-208.5" font-family="Helvetica,sans-Serif" font-size="10.00">include/Z2AudioLib</text>
<text text-anchor="middle" x="2364.5" y="-197.5" font-family="Helvetica,sans-Serif" font-size="10.00">/Z2AudioMgr/Z2AudioMgr.h</text>
</a>
</g>
</g>
<!-- Node2&#45;&gt;Node8 -->
<g id="edge7" class="edge">
<title>Node2&#45;&gt;Node8</title>
<path fill="none" stroke="midnightblue" d="M1028.16,-256.95C1296.44,-229.04 2063.64,-212.33 2296.63,-207.77"/>
<polygon fill="midnightblue" stroke="midnightblue" points="1027.63,-253.48 1018.06,-258.03 1028.38,-260.44 1027.63,-253.48"/>
</g>
<!-- Node7 -->
<g id="node7" class="node">
<title>Node7</title>
<g id="a_node7"><a xlink:href="m__Do__audio_8cpp.html" target="_top" xlink:title=" ">
<polygon fill="white" stroke="black" points="1773.5,-0.5 1773.5,-19.5 1907.5,-19.5 1907.5,-0.5 1773.5,-0.5"/>
<text text-anchor="middle" x="1840.5" y="-7.5" font-family="Helvetica,sans-Serif" font-size="10.00">src/m_Do/m_Do_audio.cpp</text>
</a>
</g>
</g>
<!-- Node6&#45;&gt;Node7 -->
<g id="edge6" class="edge">
<title>Node6&#45;&gt;Node7</title>
<path fill="none" stroke="midnightblue" d="M900.55,-56.09C1087.08,-30.92 1590.91,-16.93 1773.43,-12.52"/>
<polygon fill="midnightblue" stroke="midnightblue" points="900,-52.64 890.58,-57.49 900.97,-59.57 900,-52.64"/>
</g>
<!-- Node8&#45;&gt;Node6 -->
<g id="edge31" class="edge">
<title>Node8&#45;&gt;Node6</title>
<path fill="none" stroke="midnightblue" d="M2286.62,-203.38C2066.88,-199.13 1423.95,-179.13 899.5,-87 896.59,-86.49 893.61,-85.92 890.61,-85.3"/>
<polygon fill="midnightblue" stroke="midnightblue" points="2286.7,-206.89 2296.76,-203.57 2286.83,-199.89 2286.7,-206.89"/>
</g>
<!-- Node9 -->
<g id="node9" class="node">
<title>Node9</title>
<g id="a_node9"><a xlink:href="d__save_8cpp.html" target="_top" xlink:title=" ">
<polygon fill="white" stroke="black" points="2393,-129 2393,-148 2518,-148 2518,-129 2393,-129"/>
<text text-anchor="middle" x="2455.5" y="-136" font-family="Helvetica,sans-Serif" font-size="10.00">src/d/d_save/d_save.cpp</text>
</a>
</g>
</g>
<!-- Node8&#45;&gt;Node9 -->
<g id="edge8" class="edge">
<title>Node8&#45;&gt;Node9</title>
<path fill="none" stroke="midnightblue" d="M2392.77,-184.31C2409.86,-172.1 2430.75,-157.18 2443.59,-148.01"/>
<polygon fill="midnightblue" stroke="midnightblue" points="2390.35,-181.74 2384.25,-190.4 2394.42,-187.43 2390.35,-181.74"/>
</g>
<!-- Node10 -->
<g id="node10" class="node">
<title>Node10</title>
<g id="a_node10"><a xlink:href="m__Do__Reset_8cpp.html" target="_top" xlink:title=" ">
<polygon fill="white" stroke="black" points="2536.5,-129 2536.5,-148 2672.5,-148 2672.5,-129 2536.5,-129"/>
<text text-anchor="middle" x="2604.5" y="-136" font-family="Helvetica,sans-Serif" font-size="10.00">src/m_Do/m_Do_Reset.cpp</text>
</a>
</g>
</g>
<!-- Node8&#45;&gt;Node10 -->
<g id="edge9" class="edge">
<title>Node8&#45;&gt;Node10</title>
<path fill="none" stroke="midnightblue" d="M2426.05,-187.83C2473.02,-175.11 2535.8,-158.11 2573.01,-148.03"/>
<polygon fill="midnightblue" stroke="midnightblue" points="2425.02,-184.48 2416.28,-190.48 2426.85,-191.24 2425.02,-184.48"/>
</g>
<!-- Node11 -->
<g id="node11" class="node">
<title>Node11</title>
<g id="a_node11"><a xlink:href="Z2AudioMgr_8cpp.html" target="_top" xlink:title=" ">
<polygon fill="white" stroke="black" points="2868.5,-62 2868.5,-81 3026.5,-81 3026.5,-62 2868.5,-62"/>
<text text-anchor="middle" x="2947.5" y="-69" font-family="Helvetica,sans-Serif" font-size="10.00">libs/Z2AudioLib/Z2AudioMgr.cpp</text>
</a>
</g>
</g>
<!-- Node8&#45;&gt;Node11 -->
<g id="edge10" class="edge">
<title>Node8&#45;&gt;Node11</title>
<path fill="none" stroke="midnightblue" d="M2363.09,-180.38C2363.44,-161.77 2367.29,-136.94 2383.5,-123 2421.95,-89.93 2788.07,-92.35 2838.5,-87 2854.54,-85.3 2871.87,-83.14 2887.89,-81.01"/>
<polygon fill="midnightblue" stroke="midnightblue" points="2359.59,-180.53 2363.23,-190.48 2366.59,-180.44 2359.59,-180.53"/>
</g>
<!-- Node12 -->
<g id="node12" class="node">
<title>Node12</title>
<g id="a_node12"><a xlink:href="m__Do__audio_8h.html" target="_top" xlink:title=" ">
<polygon fill="white" stroke="black" points="2203,-123.5 2203,-153.5 2336,-153.5 2336,-123.5 2203,-123.5"/>
<text text-anchor="start" x="2211" y="-141.5" font-family="Helvetica,sans-Serif" font-size="10.00">include/m_Do/m_Do_audio</text>
<text text-anchor="middle" x="2269.5" y="-130.5" font-family="Helvetica,sans-Serif" font-size="10.00">/m_Do_audio.h</text>
</a>
</g>
</g>
<!-- Node8&#45;&gt;Node12 -->
<g id="edge11" class="edge">
<title>Node8&#45;&gt;Node12</title>
<path fill="none" stroke="midnightblue" d="M2335.61,-184.73C2320.91,-174.68 2303.39,-162.68 2290.07,-153.58"/>
<polygon fill="midnightblue" stroke="midnightblue" points="2333.66,-187.64 2343.89,-190.4 2337.61,-181.86 2333.66,-187.64"/>
</g>
<!-- Node12&#45;&gt;Node7 -->
<g id="edge23" class="edge">
<title>Node12&#45;&gt;Node7</title>
<path fill="none" stroke="midnightblue" d="M2346.08,-123.58C2347.56,-123.38 2349.04,-123.19 2350.5,-123 2402.57,-116.37 2785.83,-125.5 2821.5,-87 2830.86,-76.89 2831.02,-65.96 2821.5,-56 2789.96,-22.98 2124.1,-13.71 1907.75,-11.57"/>
<polygon fill="midnightblue" stroke="midnightblue" points="2345.56,-120.12 2336.16,-125.02 2346.56,-127.05 2345.56,-120.12"/>
</g>
<!-- Node12&#45;&gt;Node11 -->
<g id="edge25" class="edge">
<title>Node12&#45;&gt;Node11</title>
<path fill="none" stroke="midnightblue" d="M2346.08,-123.57C2347.56,-123.37 2349.04,-123.18 2350.5,-123 2573.34,-95.18 2631.36,-112.32 2854.5,-87 2868.63,-85.4 2883.89,-83.21 2897.89,-81.02"/>
<polygon fill="midnightblue" stroke="midnightblue" points="2345.56,-120.11 2336.16,-124.99 2346.55,-127.04 2345.56,-120.11"/>
</g>
<!-- Node13 -->
<g id="node13" class="node">
<title>Node13</title>
<g id="a_node13"><a xlink:href="d__attention_8cpp.html" target="_top" xlink:title=" ">
<polygon fill="white" stroke="black" points="1088,-62 1088,-81 1195,-81 1195,-62 1088,-62"/>
<text text-anchor="middle" x="1141.5" y="-69" font-family="Helvetica,sans-Serif" font-size="10.00">src/d/d_attention.cpp</text>
</a>
</g>
</g>
<!-- Node12&#45;&gt;Node13 -->
<g id="edge12" class="edge">
<title>Node12&#45;&gt;Node13</title>
<path fill="none" stroke="midnightblue" d="M2192.66,-135.68C1981.38,-130.39 1394.76,-113.67 1203.5,-87 1193.54,-85.61 1182.82,-83.38 1173.15,-81.07"/>
<polygon fill="midnightblue" stroke="midnightblue" points="2192.65,-139.18 2202.73,-135.93 2192.82,-132.18 2192.65,-139.18"/>
</g>
<!-- Node14 -->
<g id="node14" class="node">
<title>Node14</title>
<g id="a_node14"><a xlink:href="d__camera_8cpp.html" target="_top" xlink:title=" ">
<polygon fill="white" stroke="black" points="2564.5,-62 2564.5,-81 2666.5,-81 2666.5,-62 2564.5,-62"/>
<text text-anchor="middle" x="2615.5" y="-69" font-family="Helvetica,sans-Serif" font-size="10.00">src/d/d_camera.cpp</text>
</a>
</g>
</g>
<!-- Node12&#45;&gt;Node14 -->
<g id="edge13" class="edge">
<title>Node12&#45;&gt;Node14</title>
<path fill="none" stroke="midnightblue" d="M2346.11,-123.78C2347.58,-123.52 2349.05,-123.26 2350.5,-123 2441.15,-106.89 2464.34,-105.65 2554.5,-87 2563.13,-85.21 2572.41,-83.11 2581.06,-81.06"/>
<polygon fill="midnightblue" stroke="midnightblue" points="2345.47,-120.34 2336.24,-125.54 2346.7,-127.23 2345.47,-120.34"/>
</g>
<!-- Node15 -->
<g id="node15" class="node">
<title>Node15</title>
<g id="a_node15"><a xlink:href="d__com__inf__game_8cpp.html" target="_top" xlink:title=" ">
<polygon fill="white" stroke="black" points="3665,-56.5 3665,-86.5 3784,-86.5 3784,-56.5 3665,-56.5"/>
<text text-anchor="start" x="3673" y="-74.5" font-family="Helvetica,sans-Serif" font-size="10.00">src/d/d_com/d_com_inf</text>
<text text-anchor="middle" x="3724.5" y="-63.5" font-family="Helvetica,sans-Serif" font-size="10.00">_game.cpp</text>
</a>
</g>
</g>
<!-- Node12&#45;&gt;Node15 -->
<g id="edge14" class="edge">
<title>Node12&#45;&gt;Node15</title>
<path fill="none" stroke="midnightblue" d="M2346.56,-126.65C2358.9,-125.22 2371.53,-123.93 2383.5,-123 2947.81,-79.24 3094.51,-154.3 3656.5,-87 3659.26,-86.67 3662.07,-86.28 3664.9,-85.85"/>
<polygon fill="midnightblue" stroke="midnightblue" points="2345.81,-123.22 2336.3,-127.89 2346.65,-130.17 2345.81,-123.22"/>
</g>
<!-- Node16 -->
<g id="node16" class="node">
<title>Node16</title>
<g id="a_node16"><a xlink:href="d__kankyo__wether_8cpp.html" target="_top" xlink:title=" ">
<polygon fill="white" stroke="black" points="2685,-56.5 2685,-86.5 2812,-86.5 2812,-56.5 2685,-56.5"/>
<text text-anchor="start" x="2693" y="-74.5" font-family="Helvetica,sans-Serif" font-size="10.00">src/d/d_kankyo/d_kankyo</text>
<text text-anchor="middle" x="2748.5" y="-63.5" font-family="Helvetica,sans-Serif" font-size="10.00">_wether.cpp</text>
</a>
</g>
</g>
<!-- Node12&#45;&gt;Node16 -->
<g id="edge15" class="edge">
<title>Node12&#45;&gt;Node16</title>
<path fill="none" stroke="midnightblue" d="M2346.09,-123.65C2347.57,-123.43 2349.04,-123.21 2350.5,-123 2494.33,-102.18 2531.87,-109.18 2675.5,-87 2678.56,-86.53 2681.7,-86.01 2684.86,-85.48"/>
<polygon fill="midnightblue" stroke="midnightblue" points="2345.53,-120.2 2336.19,-125.2 2346.61,-127.11 2345.53,-120.2"/>
</g>
<!-- Node17 -->
<g id="node17" class="node">
<title>Node17</title>
<g id="a_node17"><a xlink:href="d__kankyo_8cpp.html" target="_top" xlink:title=" ">
<polygon fill="white" stroke="black" points="1754,-62 1754,-81 1855,-81 1855,-62 1754,-62"/>
<text text-anchor="middle" x="1804.5" y="-69" font-family="Helvetica,sans-Serif" font-size="10.00">src/d/d_kankyo.cpp</text>
</a>
</g>
</g>
<!-- Node12&#45;&gt;Node17 -->
<g id="edge16" class="edge">
<title>Node12&#45;&gt;Node17</title>
<path fill="none" stroke="midnightblue" d="M2192.69,-130.65C2110.75,-122.72 1977.33,-107.99 1863.5,-87 1854.58,-85.35 1844.99,-83.18 1836.2,-81.01"/>
<polygon fill="midnightblue" stroke="midnightblue" points="2192.39,-134.14 2202.68,-131.61 2193.06,-127.17 2192.39,-134.14"/>
</g>
<!-- Node18 -->
<g id="node18" class="node">
<title>Node18</title>
<g id="a_node18"><a xlink:href="d__kyeff_8cpp.html" target="_top" xlink:title=" ">
<polygon fill="white" stroke="black" points="3045,-62 3045,-81 3158,-81 3158,-62 3045,-62"/>
<text text-anchor="middle" x="3101.5" y="-69" font-family="Helvetica,sans-Serif" font-size="10.00">src/d/d_ky/d_kyeff.cpp</text>
</a>
</g>
</g>
<!-- Node12&#45;&gt;Node18 -->
<g id="edge17" class="edge">
<title>Node12&#45;&gt;Node18</title>
<path fill="none" stroke="midnightblue" d="M2345.98,-127.01C2358.5,-125.51 2371.35,-124.11 2383.5,-123 2672.52,-96.67 2747.95,-126.26 3035.5,-87 3046.08,-85.56 3057.47,-83.31 3067.77,-81.01"/>
<polygon fill="midnightblue" stroke="midnightblue" points="2345.52,-123.54 2336.02,-128.23 2346.37,-130.49 2345.52,-123.54"/>
</g>
<!-- Node19 -->
<g id="node19" class="node">
<title>Node19</title>
<g id="a_node19"><a xlink:href="d__meter__button_8cpp.html" target="_top" xlink:title=" ">
<polygon fill="white" stroke="black" points="1873,-56.5 1873,-86.5 1988,-86.5 1988,-56.5 1873,-56.5"/>
<text text-anchor="start" x="1881" y="-74.5" font-family="Helvetica,sans-Serif" font-size="10.00">src/d/d_meter/d_meter</text>
<text text-anchor="middle" x="1930.5" y="-63.5" font-family="Helvetica,sans-Serif" font-size="10.00">_button.cpp</text>
</a>
</g>
</g>
<!-- Node12&#45;&gt;Node19 -->
<g id="edge18" class="edge">
<title>Node12&#45;&gt;Node19</title>
<path fill="none" stroke="midnightblue" d="M2192.92,-124.04C2138.12,-114.23 2062.66,-100.38 1996.5,-87 1993.74,-86.44 1990.92,-85.86 1988.07,-85.27"/>
<polygon fill="midnightblue" stroke="midnightblue" points="2192.44,-127.51 2202.9,-125.82 2193.67,-120.62 2192.44,-127.51"/>
</g>
<!-- Node20 -->
<g id="node20" class="node">
<title>Node20</title>
<g id="a_node20"><a xlink:href="d__meter__map_8cpp.html" target="_top" xlink:title=" ">
<polygon fill="white" stroke="black" points="2149,-56.5 2149,-86.5 2264,-86.5 2264,-56.5 2149,-56.5"/>
<text text-anchor="start" x="2157" y="-74.5" font-family="Helvetica,sans-Serif" font-size="10.00">src/d/d_meter/d_meter</text>
<text text-anchor="middle" x="2206.5" y="-63.5" font-family="Helvetica,sans-Serif" font-size="10.00">_map.cpp</text>
</a>
</g>
</g>
<!-- Node12&#45;&gt;Node20 -->
<g id="edge19" class="edge">
<title>Node12&#45;&gt;Node20</title>
<path fill="none" stroke="midnightblue" d="M2248.69,-116.02C2239.3,-106.34 2228.48,-95.17 2220.14,-86.58"/>
<polygon fill="midnightblue" stroke="midnightblue" points="2246.36,-118.65 2255.83,-123.4 2251.38,-113.78 2246.36,-118.65"/>
</g>
<!-- Node21 -->
<g id="node21" class="node">
<title>Node21</title>
<g id="a_node21"><a xlink:href="d__meter2__draw_8cpp.html" target="_top" xlink:title=" ">
<polygon fill="white" stroke="black" points="2006,-56.5 2006,-86.5 2131,-86.5 2131,-56.5 2006,-56.5"/>
<text text-anchor="start" x="2014" y="-74.5" font-family="Helvetica,sans-Serif" font-size="10.00">src/d/d_meter2/d_meter2</text>
<text text-anchor="middle" x="2068.5" y="-63.5" font-family="Helvetica,sans-Serif" font-size="10.00">_draw.cpp</text>
</a>
</g>
</g>
<!-- Node12&#45;&gt;Node21 -->
<g id="edge20" class="edge">
<title>Node12&#45;&gt;Node21</title>
<path fill="none" stroke="midnightblue" d="M2216.09,-120.23C2183.57,-109.71 2142.56,-96.45 2112.03,-86.58"/>
<polygon fill="midnightblue" stroke="midnightblue" points="2215.29,-123.65 2225.89,-123.4 2217.45,-116.99 2215.29,-123.65"/>
</g>
<!-- Node22 -->
<g id="node22" class="node">
<title>Node22</title>
<g id="a_node22"><a xlink:href="d__meter2_8cpp.html" target="_top" xlink:title=" ">
<polygon fill="white" stroke="black" points="2282.5,-62 2282.5,-81 2382.5,-81 2382.5,-62 2282.5,-62"/>
<text text-anchor="middle" x="2332.5" y="-69" font-family="Helvetica,sans-Serif" font-size="10.00">src/d/d_meter2.cpp</text>
</a>
</g>
</g>
<!-- Node12&#45;&gt;Node22 -->
<g id="edge21" class="edge">
<title>Node12&#45;&gt;Node22</title>
<path fill="none" stroke="midnightblue" d="M2290.34,-116C2301.84,-104.13 2315.49,-90.05 2324.07,-81.19"/>
<polygon fill="midnightblue" stroke="midnightblue" points="2287.62,-113.78 2283.17,-123.4 2292.64,-118.65 2287.62,-113.78"/>
</g>
<!-- Node23 -->
<g id="node23" class="node">
<title>Node23</title>
<g id="a_node23"><a xlink:href="d__a__alink_8cpp.html" target="_top" xlink:title=" ">
<polygon fill="white" stroke="black" points="0,-62 0,-81 119,-81 119,-62 0,-62"/>
<text text-anchor="middle" x="59.5" y="-69" font-family="Helvetica,sans-Serif" font-size="10.00">src/d/d_a/d_a_alink.cpp</text>
</a>
</g>
</g>
<!-- Node12&#45;&gt;Node23 -->
<g id="edge22" class="edge">
<title>Node12&#45;&gt;Node23</title>
<path fill="none" stroke="midnightblue" d="M2192.7,-135.69C1810.34,-126.7 130.14,-87.19 128.5,-87 117.19,-85.69 104.99,-83.42 94.04,-81.06"/>
<polygon fill="midnightblue" stroke="midnightblue" points="2192.76,-139.2 2202.84,-135.93 2192.92,-132.2 2192.76,-139.2"/>
</g>
<!-- Node24 -->
<g id="node24" class="node">
<title>Node24</title>
<g id="a_node24"><a xlink:href="m__Do__main_8cpp.html" target="_top" xlink:title=" ">
<polygon fill="white" stroke="black" points="3176,-62 3176,-81 3307,-81 3307,-62 3176,-62"/>
<text text-anchor="middle" x="3241.5" y="-69" font-family="Helvetica,sans-Serif" font-size="10.00">src/m_Do/m_Do_main.cpp</text>
</a>
</g>
</g>
<!-- Node12&#45;&gt;Node24 -->
<g id="edge24" class="edge">
<title>Node12&#45;&gt;Node24</title>
<path fill="none" stroke="midnightblue" d="M2345.97,-126.91C2358.49,-125.43 2371.34,-124.05 2383.5,-123 2731.02,-92.97 2821.18,-128.65 3167.5,-87 3179.33,-85.58 3192.1,-83.33 3203.64,-81.03"/>
<polygon fill="midnightblue" stroke="midnightblue" points="2345.52,-123.44 2336.01,-128.12 2346.36,-130.39 2345.52,-123.44"/>
</g>
<!-- Node25 -->
<g id="node25" class="node">
<title>Node25</title>
<g id="a_node25"><a xlink:href="Z2Creature_8cpp.html" target="_top" xlink:title=" ">
<polygon fill="white" stroke="black" points="1392,-62 1392,-81 1545,-81 1545,-62 1392,-62"/>
<text text-anchor="middle" x="1468.5" y="-69" font-family="Helvetica,sans-Serif" font-size="10.00">libs/Z2AudioLib/Z2Creature.cpp</text>
</a>
</g>
</g>
<!-- Node12&#45;&gt;Node25 -->
<g id="edge26" class="edge">
<title>Node12&#45;&gt;Node25</title>
<path fill="none" stroke="midnightblue" d="M2192.3,-134.55C2060.8,-128.97 1785.09,-114.85 1553.5,-87 1540.42,-85.43 1526.29,-83.22 1513.37,-81.01"/>
<polygon fill="midnightblue" stroke="midnightblue" points="2192.52,-138.06 2202.66,-134.99 2192.82,-131.07 2192.52,-138.06"/>
</g>
<!-- Node26 -->
<g id="node26" class="node">
<title>Node26</title>
<g id="a_node26"><a xlink:href="Z2SeMgr_8cpp.html" target="_top" xlink:title=" ">
<polygon fill="white" stroke="black" points="2401,-62 2401,-81 2546,-81 2546,-62 2401,-62"/>
<text text-anchor="middle" x="2473.5" y="-69" font-family="Helvetica,sans-Serif" font-size="10.00">libs/Z2AudioLib/Z2SeMgr.cpp</text>
</a>
</g>
</g>
<!-- Node12&#45;&gt;Node26 -->
<g id="edge27" class="edge">
<title>Node12&#45;&gt;Node26</title>
<path fill="none" stroke="midnightblue" d="M2323.07,-120.43C2362.86,-107.75 2415.44,-91 2446.73,-81.03"/>
<polygon fill="midnightblue" stroke="midnightblue" points="2321.98,-117.11 2313.51,-123.48 2324.1,-123.77 2321.98,-117.11"/>
</g>
<!-- Node27 -->
<g id="node27" class="node">
<title>Node27</title>
<g id="a_node27"><a xlink:href="Z2SoundMgr_8cpp.html" target="_top" xlink:title=" ">
<polygon fill="white" stroke="black" points="1213,-62 1213,-81 1374,-81 1374,-62 1213,-62"/>
<text text-anchor="middle" x="1293.5" y="-69" font-family="Helvetica,sans-Serif" font-size="10.00">libs/Z2AudioLib/Z2SoundMgr.cpp</text>
</a>
</g>
</g>
<!-- Node12&#45;&gt;Node27 -->
<g id="edge28" class="edge">
<title>Node12&#45;&gt;Node27</title>
<path fill="none" stroke="midnightblue" d="M2192.52,-135.83C2038.36,-131.88 1680.95,-119.72 1382.5,-87 1368.65,-85.48 1353.67,-83.27 1340.03,-81.02"/>
<polygon fill="midnightblue" stroke="midnightblue" points="2192.73,-139.33 2202.82,-136.09 2192.91,-132.33 2192.73,-139.33"/>
</g>
<!-- Node28 -->
<g id="node28" class="node">
<title>Node28</title>
<g id="a_node28"><a xlink:href="Z2SoundStarter_8cpp.html" target="_top" xlink:title=" ">
<polygon fill="white" stroke="black" points="3325,-62 3325,-81 3498,-81 3498,-62 3325,-62"/>
<text text-anchor="middle" x="3411.5" y="-69" font-family="Helvetica,sans-Serif" font-size="10.00">libs/Z2AudioLib/Z2SoundStarter.cpp</text>
</a>
</g>
</g>
<!-- Node12&#45;&gt;Node28 -->
<g id="edge29" class="edge">
<title>Node12&#45;&gt;Node28</title>
<path fill="none" stroke="midnightblue" d="M2345.96,-126.84C2358.49,-125.36 2371.34,-124.01 2383.5,-123 2797.06,-88.79 2903.4,-126.37 3316.5,-87 3331.61,-85.56 3347.99,-83.31 3362.81,-81.01"/>
<polygon fill="midnightblue" stroke="midnightblue" points="2345.51,-123.36 2336.01,-128.04 2346.36,-130.31 2345.51,-123.36"/>
</g>
<!-- Node29 -->
<g id="node29" class="node">
<title>Node29</title>
<g id="a_node29"><a xlink:href="Z2SpeechMgr2_8cpp.html" target="_top" xlink:title=" ">
<polygon fill="white" stroke="black" points="3516,-56.5 3516,-86.5 3647,-86.5 3647,-56.5 3516,-56.5"/>
<text text-anchor="start" x="3524" y="-74.5" font-family="Helvetica,sans-Serif" font-size="10.00">libs/Z2AudioLib/Z2Speech</text>
<text text-anchor="middle" x="3581.5" y="-63.5" font-family="Helvetica,sans-Serif" font-size="10.00">Mgr2.cpp</text>
</a>
</g>
</g>
<!-- Node12&#45;&gt;Node29 -->
<g id="edge30" class="edge">
<title>Node12&#45;&gt;Node29</title>
<path fill="none" stroke="midnightblue" d="M2345.96,-126.77C2358.48,-125.3 2371.34,-123.97 2383.5,-123 2881.74,-83.42 3010.86,-143.24 3507.5,-87 3510.23,-86.69 3513.01,-86.33 3515.82,-85.94"/>
<polygon fill="midnightblue" stroke="midnightblue" points="2345.51,-123.29 2336,-127.97 2346.35,-130.24 2345.51,-123.29"/>
</g>
<!-- Node30&#45;&gt;Node23 -->
<g id="edge33" class="edge">
<title>Node30&#45;&gt;Node23</title>
<path fill="none" stroke="midnightblue" d="M199.85,-182.54C185.28,-165.2 163.5,-141.01 141.5,-123 120.67,-105.95 93.61,-90.37 76.39,-81.16"/>
<polygon fill="midnightblue" stroke="midnightblue" points="197.32,-184.97 206.39,-190.44 202.71,-180.51 197.32,-184.97"/>
</g>
<!-- Node31 -->
<g id="node31" class="node">
<title>Node31</title>
<g id="a_node31"><a xlink:href="Z2LinkMgr_8cpp.html" target="_top" xlink:title=" ">
<polygon fill="white" stroke="black" points="137.5,-62 137.5,-81 289.5,-81 289.5,-62 137.5,-62"/>
<text text-anchor="middle" x="213.5" y="-69" font-family="Helvetica,sans-Serif" font-size="10.00">libs/Z2AudioLib/Z2LinkMgr.cpp</text>
</a>
</g>
</g>
<!-- Node30&#45;&gt;Node31 -->
<g id="edge34" class="edge">
<title>Node30&#45;&gt;Node31</title>
<path fill="none" stroke="midnightblue" d="M216.77,-180.32C215.86,-150.38 214.36,-100.91 213.76,-81.1"/>
<polygon fill="midnightblue" stroke="midnightblue" points="213.27,-180.48 217.07,-190.37 220.27,-180.27 213.27,-180.48"/>
</g>
<!-- Node32 -->
<g id="node32" class="node">
<title>Node32</title>
<g id="a_node32"><a xlink:href="d__a__alink_8h.html" target="_top" xlink:title=" ">
<polygon fill="white" stroke="black" points="242,-123.5 242,-153.5 361,-153.5 361,-123.5 242,-123.5"/>
<text text-anchor="start" x="250" y="-141.5" font-family="Helvetica,sans-Serif" font-size="10.00">include/d/d_a/d_a_alink</text>
<text text-anchor="middle" x="301.5" y="-130.5" font-family="Helvetica,sans-Serif" font-size="10.00">/d_a_alink.h</text>
</a>
</g>
</g>
<!-- Node30&#45;&gt;Node32 -->
<g id="edge35" class="edge">
<title>Node30&#45;&gt;Node32</title>
<path fill="none" stroke="midnightblue" d="M243.78,-184.17C256.62,-174.23 271.76,-162.51 283.31,-153.58"/>
<polygon fill="midnightblue" stroke="midnightblue" points="241.49,-181.51 235.73,-190.4 245.78,-187.04 241.49,-181.51"/>
</g>
<!-- Node32&#45;&gt;Node13 -->
<g id="edge36" class="edge">
<title>Node32&#45;&gt;Node13</title>
<path fill="none" stroke="midnightblue" d="M371.63,-136.72C508.34,-134.37 819.75,-124.93 1078.5,-87 1088.49,-85.53 1099.25,-83.31 1108.99,-81.04"/>
<polygon fill="midnightblue" stroke="midnightblue" points="371.25,-133.23 361.31,-136.89 371.36,-140.23 371.25,-133.23"/>
</g>
<!-- Node32&#45;&gt;Node23 -->
<g id="edge37" class="edge">
<title>Node32&#45;&gt;Node23</title>
<path fill="none" stroke="midnightblue" d="M239.44,-120.83C192.08,-108.11 128.77,-91.11 91.25,-81.03"/>
<polygon fill="midnightblue" stroke="midnightblue" points="238.72,-124.26 249.29,-123.48 240.54,-117.5 238.72,-124.26"/>
</g>
<!-- Node33&#45;&gt;Node3 -->
<g id="edge52" class="edge">
<title>Node33&#45;&gt;Node3</title>
<path fill="none" stroke="midnightblue" d="M1522.68,-135.55C1384.82,-130.99 1055.82,-117.61 781.5,-87 767.66,-85.46 752.7,-83.26 739.02,-81.04"/>
<polygon fill="midnightblue" stroke="midnightblue" points="1522.95,-139.06 1533.06,-135.89 1523.18,-132.06 1522.95,-139.06"/>
</g>
<!-- Node33&#45;&gt;Node5 -->
<g id="edge56" class="edge">
<title>Node33&#45;&gt;Node5</title>
<path fill="none" stroke="midnightblue" d="M1523.35,-137.48C1364.89,-136.72 946.95,-130.38 601.5,-87 598.72,-86.65 595.88,-86.25 593.02,-85.82"/>
<polygon fill="midnightblue" stroke="midnightblue" points="1523.4,-140.98 1533.41,-137.52 1523.43,-133.98 1523.4,-140.98"/>
</g>
<!-- Node33&#45;&gt;Node6 -->
<g id="edge58" class="edge">
<title>Node33&#45;&gt;Node6</title>
<path fill="none" stroke="midnightblue" d="M1523.26,-133.02C1357.3,-121.57 929.99,-91.83 899.5,-87 896.58,-86.54 893.6,-86 890.6,-85.42"/>
<polygon fill="midnightblue" stroke="midnightblue" points="1523.12,-136.51 1533.33,-133.71 1523.6,-129.53 1523.12,-136.51"/>
</g>
<!-- Node33&#45;&gt;Node11 -->
<g id="edge48" class="edge">
<title>Node33&#45;&gt;Node11</title>
<path fill="none" stroke="midnightblue" d="M1653.62,-136.52C1837.42,-133.39 2375.77,-121.73 2821.5,-87 2841.04,-85.48 2862.22,-83.26 2881.54,-81.02"/>
<polygon fill="midnightblue" stroke="midnightblue" points="1653.52,-133.02 1643.58,-136.69 1653.64,-140.02 1653.52,-133.02"/>
</g>
<!-- Node33&#45;&gt;Node13 -->
<g id="edge39" class="edge">
<title>Node33&#45;&gt;Node13</title>
<path fill="none" stroke="midnightblue" d="M1523.39,-130.96C1446.59,-122.77 1315.21,-107.34 1203.5,-87 1194.26,-85.32 1184.32,-83.15 1175.16,-81.01"/>
<polygon fill="midnightblue" stroke="midnightblue" points="1523.09,-134.44 1533.4,-132.01 1523.83,-127.48 1523.09,-134.44"/>
</g>
<!-- Node33&#45;&gt;Node14 -->
<g id="edge40" class="edge">
<title>Node33&#45;&gt;Node14</title>
<path fill="none" stroke="midnightblue" d="M1653.96,-138.15C1810.47,-138.82 2218.34,-135.33 2554.5,-87 2564.3,-85.59 2574.85,-83.35 2584.36,-81.05"/>
<polygon fill="midnightblue" stroke="midnightblue" points="1653.59,-134.65 1643.57,-138.1 1653.56,-141.65 1653.59,-134.65"/>
</g>
<!-- Node33&#45;&gt;Node16 -->
<g id="edge41" class="edge">
<title>Node33&#45;&gt;Node16</title>
<path fill="none" stroke="midnightblue" d="M1653.87,-135.75C1857.07,-130.1 2475.97,-111.31 2675.5,-87 2678.58,-86.62 2681.72,-86.19 2684.89,-85.72"/>
<polygon fill="midnightblue" stroke="midnightblue" points="1653.55,-132.26 1643.65,-136.03 1653.74,-139.25 1653.55,-132.26"/>
</g>
<!-- Node33&#45;&gt;Node17 -->
<g id="edge42" class="edge">
<title>Node33&#45;&gt;Node17</title>
<path fill="none" stroke="midnightblue" d="M1644.69,-120.59C1686.88,-107.9 1742.88,-91.04 1776.16,-81.03"/>
<polygon fill="midnightblue" stroke="midnightblue" points="1643.67,-117.24 1635.1,-123.48 1645.69,-123.95 1643.67,-117.24"/>
</g>
<!-- Node33&#45;&gt;Node19 -->
<g id="edge43" class="edge">
<title>Node33&#45;&gt;Node19</title>
<path fill="none" stroke="midnightblue" d="M1653.74,-126.12C1709.53,-116.24 1791.92,-101.32 1863.5,-87 1866.53,-86.39 1869.64,-85.76 1872.78,-85.11"/>
<polygon fill="midnightblue" stroke="midnightblue" points="1652.88,-122.71 1643.64,-127.9 1654.1,-129.61 1652.88,-122.71"/>
</g>
<!-- Node33&#45;&gt;Node20 -->
<g id="edge44" class="edge">
<title>Node33&#45;&gt;Node20</title>
<path fill="none" stroke="midnightblue" d="M1653.8,-134.09C1757.28,-128.12 1965.09,-113.76 2139.5,-87 2142.56,-86.53 2145.69,-86.01 2148.84,-85.45"/>
<polygon fill="midnightblue" stroke="midnightblue" points="1653.3,-130.62 1643.51,-134.68 1653.7,-137.61 1653.3,-130.62"/>
</g>
<!-- Node33&#45;&gt;Node21 -->
<g id="edge45" class="edge">
<title>Node33&#45;&gt;Node21</title>
<path fill="none" stroke="midnightblue" d="M1653.81,-130.95C1734.56,-122.51 1876.07,-106.55 1996.5,-87 1999.52,-86.51 2002.61,-85.98 2005.72,-85.43"/>
<polygon fill="midnightblue" stroke="midnightblue" points="1653.38,-127.48 1643.79,-132 1654.1,-134.44 1653.38,-127.48"/>
</g>
<!-- Node33&#45;&gt;Node22 -->
<g id="edge46" class="edge">
<title>Node33&#45;&gt;Node22</title>
<path fill="none" stroke="midnightblue" d="M1654.13,-136.22C1776.46,-133.03 2047.32,-122.28 2272.5,-87 2282.03,-85.51 2292.27,-83.27 2301.55,-81"/>
<polygon fill="midnightblue" stroke="midnightblue" points="1653.73,-132.72 1643.82,-136.47 1653.9,-139.72 1653.73,-132.72"/>
</g>
<!-- Node33&#45;&gt;Node23 -->
<g id="edge47" class="edge">
<title>Node33&#45;&gt;Node23</title>
<path fill="none" stroke="midnightblue" d="M1523.03,-136.74C1276.5,-133.63 404.17,-120.48 128.5,-87 117.32,-85.64 105.27,-83.39 94.41,-81.06"/>
<polygon fill="midnightblue" stroke="midnightblue" points="1523.22,-140.24 1533.26,-136.87 1523.31,-133.24 1523.22,-140.24"/>
</g>
<!-- Node33&#45;&gt;Node25 -->
<g id="edge49" class="edge">
<title>Node33&#45;&gt;Node25</title>
<path fill="none" stroke="midnightblue" d="M1553.37,-118.47C1530.46,-106.06 1501.68,-90.47 1484.21,-81.01"/>
<polygon fill="midnightblue" stroke="midnightblue" points="1552,-121.71 1562.46,-123.4 1555.34,-115.56 1552,-121.71"/>
</g>
<!-- Node33&#45;&gt;Node26 -->
<g id="edge53" class="edge">
<title>Node33&#45;&gt;Node26</title>
<path fill="none" stroke="midnightblue" d="M1654.03,-135.87C1791.28,-131.91 2118.78,-119.58 2391.5,-87 2404.28,-85.47 2418.08,-83.26 2430.65,-81.01"/>
<polygon fill="midnightblue" stroke="midnightblue" points="1653.6,-132.38 1643.7,-136.16 1653.8,-139.38 1653.6,-132.38"/>
</g>
<!-- Node33&#45;&gt;Node27 -->
<g id="edge54" class="edge">
<title>Node33&#45;&gt;Node27</title>
<path fill="none" stroke="midnightblue" d="M1523.48,-123.17C1464.99,-110.29 1381.01,-91.78 1332.37,-81.07"/>
<polygon fill="midnightblue" stroke="midnightblue" points="1522.84,-126.62 1533.36,-125.35 1524.35,-119.78 1522.84,-126.62"/>
</g>
<!-- Node33&#45;&gt;Node31 -->
<g id="edge51" class="edge">
<title>Node33&#45;&gt;Node31</title>
<path fill="none" stroke="midnightblue" d="M1523.22,-137.93C1333.52,-138.54 766.1,-135.83 298.5,-87 284.95,-85.59 270.29,-83.34 257.03,-81.04"/>
<polygon fill="midnightblue" stroke="midnightblue" points="1523.32,-141.43 1533.31,-137.89 1523.3,-134.43 1523.32,-141.43"/>
</g>
<!-- Node34 -->
<g id="node34" class="node">
<title>Node34</title>
<g id="a_node34"><a xlink:href="Z2EnvSeMgr_8cpp.html" target="_top" xlink:title=" ">
<polygon fill="white" stroke="black" points="909,-62 909,-81 1070,-81 1070,-62 909,-62"/>
<text text-anchor="middle" x="989.5" y="-69" font-family="Helvetica,sans-Serif" font-size="10.00">libs/Z2AudioLib/Z2EnvSeMgr.cpp</text>
</a>
</g>
</g>
<!-- Node33&#45;&gt;Node34 -->
<g id="edge50" class="edge">
<title>Node33&#45;&gt;Node34</title>
<path fill="none" stroke="midnightblue" d="M1523.02,-132.34C1425.81,-124.38 1237.68,-107.83 1078.5,-87 1065.46,-85.29 1051.4,-83.15 1038.38,-81.03"/>
<polygon fill="midnightblue" stroke="midnightblue" points="1523.03,-135.85 1533.28,-133.18 1523.59,-128.88 1523.03,-135.85"/>
</g>
<!-- Node35 -->
<g id="node35" class="node">
<title>Node35</title>
<g id="a_node35"><a xlink:href="Z2SoundObject_8cpp.html" target="_top" xlink:title=" ">
<polygon fill="white" stroke="black" points="1563,-62 1563,-81 1736,-81 1736,-62 1563,-62"/>
<text text-anchor="middle" x="1649.5" y="-69" font-family="Helvetica,sans-Serif" font-size="10.00">libs/Z2AudioLib/Z2SoundObject.cpp</text>
</a>
</g>
</g>
<!-- Node33&#45;&gt;Node35 -->
<g id="edge55" class="edge">
<title>Node33&#45;&gt;Node35</title>
<path fill="none" stroke="midnightblue" d="M1608.68,-116C1619.81,-104.13 1633.03,-90.05 1641.34,-81.19"/>
<polygon fill="midnightblue" stroke="midnightblue" points="1606.03,-113.71 1601.74,-123.4 1611.13,-118.5 1606.03,-113.71"/>
</g>
<!-- Node36 -->
<g id="node36" class="node">
<title>Node36</title>
<g id="a_node36"><a xlink:href="Z2WolfHowlMgr_8cpp.html" target="_top" xlink:title=" ">
<polygon fill="white" stroke="black" points="307.5,-56.5 307.5,-86.5 447.5,-86.5 447.5,-56.5 307.5,-56.5"/>
<text text-anchor="start" x="315.5" y="-74.5" font-family="Helvetica,sans-Serif" font-size="10.00">libs/Z2AudioLib/Z2WolfHowl</text>
<text text-anchor="middle" x="377.5" y="-63.5" font-family="Helvetica,sans-Serif" font-size="10.00">Mgr.cpp</text>
</a>
</g>
</g>
<!-- Node33&#45;&gt;Node36 -->
<g id="edge57" class="edge">
<title>Node33&#45;&gt;Node36</title>
<path fill="none" stroke="midnightblue" d="M1523.2,-137.71C1349.21,-137.58 860.16,-132.83 456.5,-87 453.59,-86.67 450.63,-86.3 447.64,-85.89"/>
<polygon fill="midnightblue" stroke="midnightblue" points="1523.22,-141.21 1533.22,-137.71 1523.22,-134.21 1523.22,-141.21"/>
</g>
<!-- Node37&#45;&gt;Node2 -->
<g id="edge69" class="edge">
<title>Node37&#45;&gt;Node2</title>
<path fill="none" stroke="midnightblue" d="M1048.65,-320.13C1026.25,-309.8 998.72,-297.11 978.04,-287.58"/>
<polygon fill="midnightblue" stroke="midnightblue" points="1047.36,-323.39 1057.91,-324.4 1050.29,-317.03 1047.36,-323.39"/>
</g>
<!-- Node37&#45;&gt;Node4 -->
<g id="edge63" class="edge">
<title>Node37&#45;&gt;Node4</title>
<path fill="none" stroke="midnightblue" d="M1018.41,-332.73C973.04,-326.6 913.97,-313.97 867.5,-288 833.92,-269.23 805.29,-232.11 793.4,-215.22"/>
<polygon fill="midnightblue" stroke="midnightblue" points="1018.1,-336.22 1028.46,-334.01 1018.98,-329.27 1018.1,-336.22"/>
</g>
<!-- Node37&#45;&gt;Node5 -->
<g id="edge66" class="edge">
<title>Node37&#45;&gt;Node5</title>
<path fill="none" stroke="midnightblue" d="M1018.16,-331.19C964.03,-324.12 887.98,-310.98 824.5,-288 766.7,-267.07 754.02,-256.02 703.5,-221 670.61,-198.21 581.7,-119.29 545.33,-86.73"/>
<polygon fill="midnightblue" stroke="midnightblue" points="1017.99,-334.7 1028.35,-332.49 1018.87,-327.76 1017.99,-334.7"/>
</g>
<!-- Node37&#45;&gt;Node15 -->
<g id="edge60" class="edge">
<title>Node37&#45;&gt;Node15</title>
<path fill="none" stroke="midnightblue" d="M1158.9,-336.8C1322.18,-332.44 1739.24,-318.97 2086.5,-288 2787.19,-225.51 2963.01,-205.12 3656.5,-87 3659.24,-86.53 3662.03,-86.03 3664.85,-85.51"/>
<polygon fill="midnightblue" stroke="midnightblue" points="1158.42,-333.31 1148.51,-337.07 1158.6,-340.3 1158.42,-333.31"/>
</g>
<!-- Node37&#45;&gt;Node23 -->
<g id="edge61" class="edge">
<title>Node37&#45;&gt;Node23</title>
<path fill="none" stroke="midnightblue" d="M1018.45,-337.64C825.31,-334.08 290.01,-315.68 146.5,-221 93.62,-186.12 68.66,-107.17 61.64,-81.06"/>
<polygon fill="midnightblue" stroke="midnightblue" points="1018.42,-341.14 1028.48,-337.82 1018.55,-334.15 1018.42,-341.14"/>
</g>
<!-- Node37&#45;&gt;Node25 -->
<g id="edge62" class="edge">
<title>Node37&#45;&gt;Node25</title>
<path fill="none" stroke="midnightblue" d="M1141.71,-321.01C1164.31,-312.54 1190.47,-301.3 1212.5,-288 1320.92,-222.54 1430.33,-112.29 1460.42,-81.01"/>
<polygon fill="midnightblue" stroke="midnightblue" points="1140.45,-317.75 1132.27,-324.47 1142.86,-324.32 1140.45,-317.75"/>
</g>
<!-- Node37&#45;&gt;Node27 -->
<g id="edge64" class="edge">
<title>Node37&#45;&gt;Node27</title>
<path fill="none" stroke="midnightblue" d="M1137.62,-320.26C1154.32,-312.28 1172.12,-301.58 1185.5,-288 1249.51,-222.99 1282.82,-112.43 1291.3,-81.04"/>
<polygon fill="midnightblue" stroke="midnightblue" points="1136.14,-317.09 1128.49,-324.42 1139.04,-323.46 1136.14,-317.09"/>
</g>
<!-- Node37&#45;&gt;Node29 -->
<g id="edge67" class="edge">
<title>Node37&#45;&gt;Node29</title>
<path fill="none" stroke="midnightblue" d="M1158.8,-336.95C1360.09,-331.55 1955.39,-308.74 2440.5,-221 2549.9,-201.21 2581.29,-202.15 2681.5,-154 2702.74,-143.8 2702.25,-130.75 2724.5,-123 2888.98,-65.69 3334.56,-107.8 3507.5,-87 3510.23,-86.67 3513.01,-86.3 3515.81,-85.89"/>
<polygon fill="midnightblue" stroke="midnightblue" points="1158.56,-333.46 1148.66,-337.22 1158.75,-340.46 1158.56,-333.46"/>
</g>
<!-- Node37&#45;&gt;Node33 -->
<g id="edge70" class="edge">
<title>Node37&#45;&gt;Node33</title>
<path fill="none" stroke="midnightblue" d="M1158.58,-333.36C1245.29,-326.13 1387.25,-311.18 1434.5,-288 1500.52,-255.61 1556.54,-184.49 1578.53,-153.93"/>
<polygon fill="midnightblue" stroke="midnightblue" points="1158.23,-329.88 1148.55,-334.18 1158.81,-336.85 1158.23,-329.88"/>
</g>
<!-- Node37&#45;&gt;Node36 -->
<g id="edge68" class="edge">
<title>Node37&#45;&gt;Node36</title>
<path fill="none" stroke="midnightblue" d="M1017.88,-335.43C948.8,-330.69 841.47,-318.63 753.5,-288 605.35,-236.42 449.11,-125.91 396.23,-86.68"/>
<polygon fill="midnightblue" stroke="midnightblue" points="1018,-338.95 1028.2,-336.11 1018.45,-331.96 1018,-338.95"/>
</g>
<!-- Node38 -->
<g id="node38" class="node">
<title>Node38</title>
<g id="a_node38"><a xlink:href="Z2SoundObjMgr_8cpp.html" target="_top" xlink:title=" ">
<polygon fill="white" stroke="black" points="1036,-257.5 1036,-287.5 1177,-287.5 1177,-257.5 1036,-257.5"/>
<text text-anchor="start" x="1044" y="-275.5" font-family="Helvetica,sans-Serif" font-size="10.00">libs/Z2AudioLib/Z2SoundObj</text>
<text text-anchor="middle" x="1106.5" y="-264.5" font-family="Helvetica,sans-Serif" font-size="10.00">Mgr.cpp</text>
</a>
</g>
</g>
<!-- Node37&#45;&gt;Node38 -->
<g id="edge65" class="edge">
<title>Node37&#45;&gt;Node38</title>
<path fill="none" stroke="midnightblue" d="M1095.09,-314.7C1097.61,-305.59 1100.41,-295.49 1102.6,-287.58"/>
<polygon fill="midnightblue" stroke="midnightblue" points="1091.7,-313.82 1092.41,-324.4 1098.45,-315.69 1091.7,-313.82"/>
</g>
</g>
</svg>
