<?xml version="1.0" encoding="UTF-8" standalone="no"?>
<!DOCTYPE svg PUBLIC "-//W3C//DTD SVG 1.1//EN"
 "http://www.w3.org/Graphics/SVG/1.1/DTD/svg11.dtd">
<!-- Generated by graphviz version 2.44.0 ()
 -->
<!-- Title: libs/JSystem/JAudio2/JAUClusterSound.cpp Pages: 1 -->
<svg width="381pt" height="341pt"
 viewBox="0.00 0.00 380.50 341.00" xmlns="http://www.w3.org/2000/svg" xmlns:xlink="http://www.w3.org/1999/xlink">
<g id="graph0" class="graph" transform="scale(1 1) rotate(0) translate(4 337)">
<title>libs/JSystem/JAudio2/JAUClusterSound.cpp</title>
<polygon fill="white" stroke="transparent" points="-4,4 -4,-337 376.5,-337 376.5,4 -4,4"/>
<!-- Node1 -->
<g id="node1" class="node">
<title>Node1</title>
<g id="a_node1"><a xlink:title=" ">
<polygon fill="#bfbfbf" stroke="black" points="73,-302.5 73,-332.5 189,-332.5 189,-302.5 73,-302.5"/>
<text text-anchor="start" x="81" y="-320.5" font-family="Helvetica,sans-Serif" font-size="10.00">libs/JSystem/JAudio2</text>
<text text-anchor="middle" x="131" y="-309.5" font-family="Helvetica,sans-Serif" font-size="10.00">/JAUClusterSound.cpp</text>
</a>
</g>
</g>
<!-- Node2 -->
<g id="node2" class="node">
<title>Node2</title>
<g id="a_node2"><a xlink:href="JAUClusterSound_8h.html" target="_top" xlink:title=" ">
<polygon fill="white" stroke="black" points="0,-168.5 0,-198.5 146,-198.5 146,-168.5 0,-168.5"/>
<text text-anchor="start" x="8" y="-186.5" font-family="Helvetica,sans-Serif" font-size="10.00">JSystem/JAudio2/JAUCluster</text>
<text text-anchor="middle" x="73" y="-175.5" font-family="Helvetica,sans-Serif" font-size="10.00">Sound/JAUClusterSound.h</text>
</a>
</g>
</g>
<!-- Node1&#45;&gt;Node2 -->
<g id="edge1" class="edge">
<title>Node1&#45;&gt;Node2</title>
<path fill="none" stroke="midnightblue" d="M123.71,-302.49C118.56,-292.43 111.61,-278.49 106,-266 97.35,-246.74 88.41,-224.51 82.03,-208.13"/>
<polygon fill="midnightblue" stroke="midnightblue" points="85.28,-206.83 78.4,-198.77 78.75,-209.36 85.28,-206.83"/>
</g>
<!-- Node4 -->
<g id="node4" class="node">
<title>Node4</title>
<g id="a_node4"><a xlink:href="JAISound_8h.html" target="_top" xlink:title=" ">
<polygon fill="white" stroke="black" points="114.5,-235.5 114.5,-265.5 253.5,-265.5 253.5,-235.5 114.5,-235.5"/>
<text text-anchor="start" x="122.5" y="-253.5" font-family="Helvetica,sans-Serif" font-size="10.00">JSystem/JAudio2/JAISound</text>
<text text-anchor="middle" x="184" y="-242.5" font-family="Helvetica,sans-Serif" font-size="10.00">/JAISound.h</text>
</a>
</g>
</g>
<!-- Node1&#45;&gt;Node4 -->
<g id="edge3" class="edge">
<title>Node1&#45;&gt;Node4</title>
<path fill="none" stroke="midnightblue" d="M142.5,-302.4C149.38,-293.96 158.26,-283.07 166.04,-273.52"/>
<polygon fill="midnightblue" stroke="midnightblue" points="168.92,-275.54 172.52,-265.58 163.49,-271.11 168.92,-275.54"/>
</g>
<!-- Node3 -->
<g id="node3" class="node">
<title>Node3</title>
<g id="a_node3"><a xlink:href="types_8h.html" target="_top" xlink:title=" ">
<polygon fill="white" stroke="black" points="152.5,-0.5 152.5,-19.5 233.5,-19.5 233.5,-0.5 152.5,-0.5"/>
<text text-anchor="middle" x="193" y="-7.5" font-family="Helvetica,sans-Serif" font-size="10.00">dolphin/types.h</text>
</a>
</g>
</g>
<!-- Node2&#45;&gt;Node3 -->
<g id="edge2" class="edge">
<title>Node2&#45;&gt;Node3</title>
<path fill="none" stroke="midnightblue" d="M74.84,-168.44C78.75,-143.35 89.94,-90.27 118,-56 129.36,-42.12 146.21,-31.47 161.06,-24.02"/>
<polygon fill="midnightblue" stroke="midnightblue" points="162.9,-27.02 170.45,-19.59 159.91,-20.69 162.9,-27.02"/>
</g>
<!-- Node5 -->
<g id="node5" class="node">
<title>Node5</title>
<g id="a_node5"><a xlink:href="global_8h.html" target="_top" xlink:title=" ">
<polygon fill="white" stroke="black" points="167,-174 167,-193 217,-193 217,-174 167,-174"/>
<text text-anchor="middle" x="192" y="-181" font-family="Helvetica,sans-Serif" font-size="10.00">global.h</text>
</a>
</g>
</g>
<!-- Node4&#45;&gt;Node5 -->
<g id="edge4" class="edge">
<title>Node4&#45;&gt;Node5</title>
<path fill="none" stroke="midnightblue" d="M185.74,-235.4C186.9,-225.96 188.44,-213.45 189.7,-203.19"/>
<polygon fill="midnightblue" stroke="midnightblue" points="193.18,-203.55 190.93,-193.19 186.23,-202.69 193.18,-203.55"/>
</g>
<!-- Node5&#45;&gt;Node3 -->
<g id="edge5" class="edge">
<title>Node5&#45;&gt;Node3</title>
<path fill="none" stroke="midnightblue" d="M184.18,-173.95C169.16,-156.88 136.74,-116.72 125,-76 122.54,-67.46 120.79,-63.83 125,-56 132.62,-41.82 146.9,-31.35 160.41,-24.1"/>
<polygon fill="midnightblue" stroke="midnightblue" points="162.13,-27.16 169.55,-19.59 159.03,-20.88 162.13,-27.16"/>
</g>
<!-- Node6 -->
<g id="node6" class="node">
<title>Node6</title>
<g id="a_node6"><a xlink:href="AR_8h.html" target="_top" xlink:title=" ">
<polygon fill="white" stroke="black" points="133.5,-56.5 133.5,-75.5 182.5,-75.5 182.5,-56.5 133.5,-56.5"/>
<text text-anchor="middle" x="158" y="-63.5" font-family="Helvetica,sans-Serif" font-size="10.00">ar/AR.h</text>
</a>
</g>
</g>
<!-- Node5&#45;&gt;Node6 -->
<g id="edge6" class="edge">
<title>Node5&#45;&gt;Node6</title>
<path fill="none" stroke="midnightblue" d="M189.44,-173.82C183.96,-155.17 170.94,-110.94 163.48,-85.63"/>
<polygon fill="midnightblue" stroke="midnightblue" points="166.77,-84.39 160.59,-75.78 160.05,-86.36 166.77,-84.39"/>
</g>
<!-- Node7 -->
<g id="node7" class="node">
<title>Node7</title>
<g id="a_node7"><a xlink:href="ARQ_8h.html" target="_top" xlink:title=" ">
<polygon fill="white" stroke="black" points="201,-56.5 201,-75.5 257,-75.5 257,-56.5 201,-56.5"/>
<text text-anchor="middle" x="229" y="-63.5" font-family="Helvetica,sans-Serif" font-size="10.00">ar/ARQ.h</text>
</a>
</g>
</g>
<!-- Node5&#45;&gt;Node7 -->
<g id="edge8" class="edge">
<title>Node5&#45;&gt;Node7</title>
<path fill="none" stroke="midnightblue" d="M194.44,-173.77C198.22,-160.41 205.79,-134.1 213,-112 215.9,-103.12 219.34,-93.34 222.29,-85.18"/>
<polygon fill="midnightblue" stroke="midnightblue" points="225.66,-86.17 225.8,-75.58 219.08,-83.77 225.66,-86.17"/>
</g>
<!-- Node8 -->
<g id="node8" class="node">
<title>Node8</title>
<g id="a_node8"><a xlink:href="mwcc_8h.html" target="_top" xlink:title=" ">
<polygon fill="white" stroke="black" points="222,-112.5 222,-131.5 272,-131.5 272,-112.5 222,-112.5"/>
<text text-anchor="middle" x="247" y="-119.5" font-family="Helvetica,sans-Serif" font-size="10.00">mwcc.h</text>
</a>
</g>
</g>
<!-- Node5&#45;&gt;Node8 -->
<g id="edge10" class="edge">
<title>Node5&#45;&gt;Node8</title>
<path fill="none" stroke="midnightblue" d="M199.88,-173.98C208.29,-164.87 221.82,-150.24 232.23,-138.98"/>
<polygon fill="midnightblue" stroke="midnightblue" points="234.92,-141.23 239.13,-131.51 229.78,-136.48 234.92,-141.23"/>
</g>
<!-- Node9 -->
<g id="node9" class="node">
<title>Node9</title>
<g id="a_node9"><a xlink:href="OS_8h.html" target="_top" xlink:title=" ">
<polygon fill="white" stroke="black" points="290,-112.5 290,-131.5 342,-131.5 342,-112.5 290,-112.5"/>
<text text-anchor="middle" x="316" y="-119.5" font-family="Helvetica,sans-Serif" font-size="10.00">os/OS.h</text>
</a>
</g>
</g>
<!-- Node5&#45;&gt;Node9 -->
<g id="edge11" class="edge">
<title>Node5&#45;&gt;Node9</title>
<path fill="none" stroke="midnightblue" d="M209.77,-173.98C230.48,-164.03 264.95,-147.49 288.99,-135.96"/>
<polygon fill="midnightblue" stroke="midnightblue" points="290.77,-138.99 298.27,-131.51 287.74,-132.68 290.77,-138.99"/>
</g>
<!-- Node6&#45;&gt;Node3 -->
<g id="edge7" class="edge">
<title>Node6&#45;&gt;Node3</title>
<path fill="none" stroke="midnightblue" d="M163.78,-56.08C168.67,-48.53 175.83,-37.49 181.83,-28.23"/>
<polygon fill="midnightblue" stroke="midnightblue" points="184.83,-30.05 187.33,-19.75 178.95,-26.24 184.83,-30.05"/>
</g>
<!-- Node7&#45;&gt;Node3 -->
<g id="edge9" class="edge">
<title>Node7&#45;&gt;Node3</title>
<path fill="none" stroke="midnightblue" d="M223.06,-56.08C218.02,-48.53 210.66,-37.49 204.49,-28.23"/>
<polygon fill="midnightblue" stroke="midnightblue" points="207.29,-26.13 198.83,-19.75 201.47,-30.01 207.29,-26.13"/>
</g>
<!-- Node9&#45;&gt;Node3 -->
<g id="edge12" class="edge">
<title>Node9&#45;&gt;Node3</title>
<path fill="none" stroke="midnightblue" d="M310.71,-112.2C302.4,-98.88 285.24,-73.35 266,-56 252.12,-43.49 234.31,-32.43 219.75,-24.4"/>
<polygon fill="midnightblue" stroke="midnightblue" points="221.2,-21.21 210.73,-19.58 217.9,-27.38 221.2,-21.21"/>
</g>
<!-- Node10 -->
<g id="node10" class="node">
<title>Node10</title>
<g id="a_node10"><a xlink:href="dvd_8h.html" target="_top" xlink:title=" ">
<polygon fill="white" stroke="black" points="313.5,-56.5 313.5,-75.5 372.5,-75.5 372.5,-56.5 313.5,-56.5"/>
<text text-anchor="middle" x="343" y="-63.5" font-family="Helvetica,sans-Serif" font-size="10.00">dvd/dvd.h</text>
</a>
</g>
</g>
<!-- Node9&#45;&gt;Node10 -->
<g id="edge13" class="edge">
<title>Node9&#45;&gt;Node10</title>
<path fill="none" stroke="midnightblue" d="M320.46,-112.08C324.15,-104.69 329.52,-93.95 334.09,-84.81"/>
<polygon fill="midnightblue" stroke="midnightblue" points="337.28,-86.26 338.62,-75.75 331.02,-83.13 337.28,-86.26"/>
</g>
<!-- Node10&#45;&gt;Node3 -->
<g id="edge14" class="edge">
<title>Node10&#45;&gt;Node3</title>
<path fill="none" stroke="midnightblue" d="M319.23,-56.44C294.11,-47.4 254.29,-33.06 226.1,-22.92"/>
<polygon fill="midnightblue" stroke="midnightblue" points="227.25,-19.61 216.66,-19.52 224.88,-26.2 227.25,-19.61"/>
</g>
</g>
</svg>
