<?xml version="1.0" encoding="UTF-8" standalone="no"?>
<!DOCTYPE svg PUBLIC "-//W3C//DTD SVG 1.1//EN"
 "http://www.w3.org/Graphics/SVG/1.1/DTD/svg11.dtd">
<!-- Generated by graphviz version 2.44.0 ()
 -->
<!-- Title: include/JSystem/JKernel/JKRArchive/JKRArchive.h Pages: 1 -->
<svg width="3681pt" height="307pt"
 viewBox="0.00 0.00 3681.00 307.00" xmlns="http://www.w3.org/2000/svg" xmlns:xlink="http://www.w3.org/1999/xlink">
<g id="graph0" class="graph" transform="scale(1 1) rotate(0) translate(4 303)">
<title>include/JSystem/JKernel/JKRArchive/JKRArchive.h</title>
<polygon fill="white" stroke="transparent" points="-4,4 -4,-303 3677,-303 3677,4 -4,4"/>
<!-- Node1 -->
<g id="node1" class="node">
<title>Node1</title>
<g id="a_node1"><a xlink:title=" ">
<polygon fill="#bfbfbf" stroke="black" points="1324.5,-268.5 1324.5,-298.5 1458.5,-298.5 1458.5,-268.5 1324.5,-268.5"/>
<text text-anchor="start" x="1332.5" y="-286.5" font-family="Helvetica,sans-Serif" font-size="10.00">include/JSystem/JKernel</text>
<text text-anchor="middle" x="1391.5" y="-275.5" font-family="Helvetica,sans-Serif" font-size="10.00">/JKRArchive/JKRArchive.h</text>
</a>
</g>
</g>
<!-- Node2 -->
<g id="node2" class="node">
<title>Node2</title>
<g id="a_node2"><a xlink:href="JKRArchivePri_8cpp.html" target="_top" xlink:title=" ">
<polygon fill="white" stroke="black" points="646,-196 646,-226 755,-226 755,-196 646,-196"/>
<text text-anchor="start" x="654" y="-214" font-family="Helvetica,sans-Serif" font-size="10.00">libs/JSystem/JKernel</text>
<text text-anchor="middle" x="700.5" y="-203" font-family="Helvetica,sans-Serif" font-size="10.00">/JKRArchivePri.cpp</text>
</a>
</g>
</g>
<!-- Node1&#45;&gt;Node2 -->
<g id="edge1" class="edge">
<title>Node1&#45;&gt;Node2</title>
<path fill="none" stroke="midnightblue" d="M1314.38,-281.79C1195.32,-279.45 960.08,-269.94 764.5,-232 756.73,-230.49 748.57,-228.37 740.78,-226.08"/>
<polygon fill="midnightblue" stroke="midnightblue" points="1314.42,-285.29 1324.49,-281.97 1314.55,-278.29 1314.42,-285.29"/>
</g>
<!-- Node3 -->
<g id="node3" class="node">
<title>Node3</title>
<g id="a_node3"><a xlink:href="JKRArchivePub_8cpp.html" target="_top" xlink:title=" ">
<polygon fill="white" stroke="black" points="1130,-123.5 1130,-153.5 1239,-153.5 1239,-123.5 1130,-123.5"/>
<text text-anchor="start" x="1138" y="-141.5" font-family="Helvetica,sans-Serif" font-size="10.00">libs/JSystem/JKernel</text>
<text text-anchor="middle" x="1184.5" y="-130.5" font-family="Helvetica,sans-Serif" font-size="10.00">/JKRArchivePub.cpp</text>
</a>
</g>
</g>
<!-- Node1&#45;&gt;Node3 -->
<g id="edge2" class="edge">
<title>Node1&#45;&gt;Node3</title>
<path fill="none" stroke="midnightblue" d="M1314.09,-270.14C1269.36,-261.43 1218.96,-248.41 1203.5,-232 1183.38,-210.64 1182.11,-173.93 1183.16,-153.77"/>
<polygon fill="midnightblue" stroke="midnightblue" points="1313.65,-273.62 1324.12,-272.04 1314.95,-266.74 1313.65,-273.62"/>
</g>
<!-- Node4 -->
<g id="node4" class="node">
<title>Node4</title>
<g id="a_node4"><a xlink:href="JKRFileFinder_8cpp.html" target="_top" xlink:title=" ">
<polygon fill="white" stroke="black" points="1833,-196 1833,-226 1942,-226 1942,-196 1833,-196"/>
<text text-anchor="start" x="1841" y="-214" font-family="Helvetica,sans-Serif" font-size="10.00">libs/JSystem/JKernel</text>
<text text-anchor="middle" x="1887.5" y="-203" font-family="Helvetica,sans-Serif" font-size="10.00">/JKRFileFinder.cpp</text>
</a>
</g>
</g>
<!-- Node1&#45;&gt;Node4 -->
<g id="edge3" class="edge">
<title>Node1&#45;&gt;Node4</title>
<path fill="none" stroke="midnightblue" d="M1468.79,-277.83C1555.77,-271.56 1700.95,-258.07 1823.5,-232 1831.01,-230.4 1838.91,-228.3 1846.49,-226.06"/>
<polygon fill="midnightblue" stroke="midnightblue" points="1468.46,-274.34 1458.73,-278.54 1468.96,-281.32 1468.46,-274.34"/>
</g>
<!-- Node5 -->
<g id="node5" class="node">
<title>Node5</title>
<g id="a_node5"><a xlink:href="d__file__sel__info_8h.html" target="_top" xlink:title=" ">
<polygon fill="white" stroke="black" points="1592.5,-190.5 1592.5,-231.5 1690.5,-231.5 1690.5,-190.5 1592.5,-190.5"/>
<text text-anchor="start" x="1600.5" y="-219.5" font-family="Helvetica,sans-Serif" font-size="10.00">include/d/d_file/d</text>
<text text-anchor="start" x="1600.5" y="-208.5" font-family="Helvetica,sans-Serif" font-size="10.00">_file_sel_info/d_file</text>
<text text-anchor="middle" x="1641.5" y="-197.5" font-family="Helvetica,sans-Serif" font-size="10.00">_sel_info.h</text>
</a>
</g>
</g>
<!-- Node1&#45;&gt;Node5 -->
<g id="edge4" class="edge">
<title>Node1&#45;&gt;Node5</title>
<path fill="none" stroke="midnightblue" d="M1459.51,-265.93C1496.39,-256.62 1542.65,-244.4 1583.5,-232 1586.35,-231.13 1589.28,-230.22 1592.22,-229.27"/>
<polygon fill="midnightblue" stroke="midnightblue" points="1458.21,-262.65 1449.37,-268.48 1459.92,-269.44 1458.21,-262.65"/>
</g>
<!-- Node7 -->
<g id="node7" class="node">
<title>Node7</title>
<g id="a_node7"><a xlink:href="d__resource_8h.html" target="_top" xlink:title=" ">
<polygon fill="white" stroke="black" points="1708,-196 1708,-226 1815,-226 1815,-196 1708,-196"/>
<text text-anchor="start" x="1716" y="-214" font-family="Helvetica,sans-Serif" font-size="10.00">include/d/d_resource</text>
<text text-anchor="middle" x="1761.5" y="-203" font-family="Helvetica,sans-Serif" font-size="10.00">/d_resource.h</text>
</a>
</g>
</g>
<!-- Node1&#45;&gt;Node7 -->
<g id="edge6" class="edge">
<title>Node1&#45;&gt;Node7</title>
<path fill="none" stroke="midnightblue" d="M1468.97,-273.07C1531.65,-264.65 1621.92,-250.76 1699.5,-232 1706.54,-230.3 1713.93,-228.2 1721.06,-226"/>
<polygon fill="midnightblue" stroke="midnightblue" points="1468.22,-269.63 1458.77,-274.42 1469.14,-276.57 1468.22,-269.63"/>
</g>
<!-- Node61 -->
<g id="node37" class="node">
<title>Node61</title>
<g id="a_node37"><a xlink:href="J2DPane_8h.html" target="_top" xlink:title=" ">
<polygon fill="white" stroke="black" points="3398,-196 3398,-226 3533,-226 3533,-196 3398,-196"/>
<text text-anchor="start" x="3406" y="-214" font-family="Helvetica,sans-Serif" font-size="10.00">include/JSystem/J2DGraph</text>
<text text-anchor="middle" x="3465.5" y="-203" font-family="Helvetica,sans-Serif" font-size="10.00">/J2DPane.h</text>
</a>
</g>
</g>
<!-- Node1&#45;&gt;Node61 -->
<g id="edge43" class="edge">
<title>Node1&#45;&gt;Node61</title>
<path fill="none" stroke="midnightblue" d="M1469.17,-279.86C1799.82,-268.62 3087.38,-224.85 3397.86,-214.3"/>
<polygon fill="midnightblue" stroke="midnightblue" points="1468.62,-276.38 1458.74,-280.21 1468.85,-283.37 1468.62,-276.38"/>
</g>
<!-- Node67 -->
<g id="node41" class="node">
<title>Node67</title>
<g id="a_node41"><a xlink:href="JKRAramArchive_8h.html" target="_top" xlink:title=" ">
<polygon fill="white" stroke="black" points="773.5,-196 773.5,-226 953.5,-226 953.5,-196 773.5,-196"/>
<text text-anchor="start" x="781.5" y="-214" font-family="Helvetica,sans-Serif" font-size="10.00">include/JSystem/JKernel</text>
<text text-anchor="middle" x="863.5" y="-203" font-family="Helvetica,sans-Serif" font-size="10.00">/JKRAramArchive/JKRAramArchive.h</text>
</a>
</g>
</g>
<!-- Node1&#45;&gt;Node67 -->
<g id="edge48" class="edge">
<title>Node1&#45;&gt;Node67</title>
<path fill="none" stroke="midnightblue" d="M1314.18,-275.33C1228.07,-266.89 1084.9,-251.53 962.5,-232 951.68,-230.27 940.24,-228.2 929.13,-226.05"/>
<polygon fill="midnightblue" stroke="midnightblue" points="1314.1,-278.84 1324.39,-276.32 1314.77,-271.87 1314.1,-278.84"/>
</g>
<!-- Node80 -->
<g id="node45" class="node">
<title>Node80</title>
<g id="a_node45"><a xlink:href="JKRCompArchive_8h.html" target="_top" xlink:title=" ">
<polygon fill="white" stroke="black" points="972,-196 972,-226 1157,-226 1157,-196 972,-196"/>
<text text-anchor="start" x="980" y="-214" font-family="Helvetica,sans-Serif" font-size="10.00">include/JSystem/JKernel</text>
<text text-anchor="middle" x="1064.5" y="-203" font-family="Helvetica,sans-Serif" font-size="10.00">/JKRCompArchive/JKRCompArchive.h</text>
</a>
</g>
</g>
<!-- Node1&#45;&gt;Node80 -->
<g id="edge54" class="edge">
<title>Node1&#45;&gt;Node80</title>
<path fill="none" stroke="midnightblue" d="M1316.57,-266.34C1260.14,-254.18 1183.55,-237.67 1129.65,-226.05"/>
<polygon fill="midnightblue" stroke="midnightblue" points="1315.99,-269.8 1326.5,-268.49 1317.47,-262.96 1315.99,-269.8"/>
</g>
<!-- Node82 -->
<g id="node47" class="node">
<title>Node82</title>
<g id="a_node47"><a xlink:href="JKRDvdArchive_8h.html" target="_top" xlink:title=" ">
<polygon fill="white" stroke="black" points="1212.5,-196 1212.5,-226 1380.5,-226 1380.5,-196 1212.5,-196"/>
<text text-anchor="start" x="1220.5" y="-214" font-family="Helvetica,sans-Serif" font-size="10.00">include/JSystem/JKernel</text>
<text text-anchor="middle" x="1296.5" y="-203" font-family="Helvetica,sans-Serif" font-size="10.00">/JKRDvdArchive/JKRDvdArchive.h</text>
</a>
</g>
</g>
<!-- Node1&#45;&gt;Node82 -->
<g id="edge57" class="edge">
<title>Node1&#45;&gt;Node82</title>
<path fill="none" stroke="midnightblue" d="M1364.02,-262.11C1348.42,-250.53 1329.28,-236.33 1315.37,-226"/>
<polygon fill="midnightblue" stroke="midnightblue" points="1362.16,-265.08 1372.28,-268.23 1366.33,-259.46 1362.16,-265.08"/>
</g>
<!-- Node84 -->
<g id="node49" class="node">
<title>Node84</title>
<g id="a_node49"><a xlink:href="JKRMemArchive_8h.html" target="_top" xlink:title=" ">
<polygon fill="white" stroke="black" points="1398,-196 1398,-226 1575,-226 1575,-196 1398,-196"/>
<text text-anchor="start" x="1406" y="-214" font-family="Helvetica,sans-Serif" font-size="10.00">include/JSystem/JKernel</text>
<text text-anchor="middle" x="1486.5" y="-203" font-family="Helvetica,sans-Serif" font-size="10.00">/JKRMemArchive/JKRMemArchive.h</text>
</a>
</g>
</g>
<!-- Node1&#45;&gt;Node84 -->
<g id="edge60" class="edge">
<title>Node1&#45;&gt;Node84</title>
<path fill="none" stroke="midnightblue" d="M1418.98,-262.11C1434.58,-250.53 1453.72,-236.33 1467.63,-226"/>
<polygon fill="midnightblue" stroke="midnightblue" points="1416.67,-259.46 1410.72,-268.23 1420.84,-265.08 1416.67,-259.46"/>
</g>
<!-- Node6 -->
<g id="node6" class="node">
<title>Node6</title>
<g id="a_node6"><a xlink:href="d__file__sel__info_8cpp.html" target="_top" xlink:title=" ">
<polygon fill="white" stroke="black" points="143,-56.5 143,-86.5 232,-86.5 232,-56.5 143,-56.5"/>
<text text-anchor="start" x="151" y="-74.5" font-family="Helvetica,sans-Serif" font-size="10.00">src/d/d_file/d_file</text>
<text text-anchor="middle" x="187.5" y="-63.5" font-family="Helvetica,sans-Serif" font-size="10.00">_sel_info.cpp</text>
</a>
</g>
</g>
<!-- Node5&#45;&gt;Node6 -->
<g id="edge5" class="edge">
<title>Node5&#45;&gt;Node6</title>
<path fill="none" stroke="midnightblue" d="M1621.81,-182.38C1605.37,-161.82 1579.93,-135.28 1550.5,-123 1416.22,-66.98 385.47,-108.01 241.5,-87 238.43,-86.55 235.28,-85.99 232.12,-85.35"/>
<polygon fill="midnightblue" stroke="midnightblue" points="1619.2,-184.71 1628.08,-190.48 1624.73,-180.43 1619.2,-184.71"/>
</g>
<!-- Node8 -->
<g id="node8" class="node">
<title>Node8</title>
<g id="a_node8"><a xlink:href="d__a__alink_8h.html" target="_top" xlink:title=" ">
<polygon fill="white" stroke="black" points="3376,-56.5 3376,-86.5 3495,-86.5 3495,-56.5 3376,-56.5"/>
<text text-anchor="start" x="3384" y="-74.5" font-family="Helvetica,sans-Serif" font-size="10.00">include/d/d_a/d_a_alink</text>
<text text-anchor="middle" x="3435.5" y="-63.5" font-family="Helvetica,sans-Serif" font-size="10.00">/d_a_alink.h</text>
</a>
</g>
</g>
<!-- Node7&#45;&gt;Node8 -->
<g id="edge7" class="edge">
<title>Node7&#45;&gt;Node8</title>
<path fill="none" stroke="midnightblue" d="M1808.97,-193.17C1813.83,-191.91 1818.73,-190.81 1823.5,-190 1986.88,-162.28 3159.07,-211.48 3314.5,-154 3334.94,-146.44 3334.7,-135.58 3352.5,-123 3371.23,-109.76 3393.48,-96.33 3410.23,-86.66"/>
<polygon fill="midnightblue" stroke="midnightblue" points="1807.77,-189.87 1799.1,-195.97 1809.68,-196.61 1807.77,-189.87"/>
</g>
<!-- Node11 -->
<g id="node11" class="node">
<title>Node11</title>
<g id="a_node11"><a xlink:href="d__com__inf__game_8h.html" target="_top" xlink:title=" ">
<polygon fill="white" stroke="red" points="1660.5,-123.5 1660.5,-153.5 1806.5,-153.5 1806.5,-123.5 1660.5,-123.5"/>
<text text-anchor="start" x="1668.5" y="-141.5" font-family="Helvetica,sans-Serif" font-size="10.00">include/d/d_com/d_com</text>
<text text-anchor="middle" x="1733.5" y="-130.5" font-family="Helvetica,sans-Serif" font-size="10.00">_inf_game/d_com_inf_game.h</text>
</a>
</g>
</g>
<!-- Node7&#45;&gt;Node11 -->
<g id="edge10" class="edge">
<title>Node7&#45;&gt;Node11</title>
<path fill="none" stroke="midnightblue" d="M1752.13,-186.4C1747.83,-175.58 1742.88,-163.11 1739.16,-153.75"/>
<polygon fill="midnightblue" stroke="midnightblue" points="1748.89,-187.73 1755.83,-195.73 1755.4,-185.15 1748.89,-187.73"/>
</g>
<!-- Node57 -->
<g id="node36" class="node">
<title>Node57</title>
<g id="a_node36"><a xlink:href="m__Do__ext_8h.html" target="_top" xlink:title=" ">
<polygon fill="white" stroke="red" points="3183.5,-123.5 3183.5,-153.5 3305.5,-153.5 3305.5,-123.5 3183.5,-123.5"/>
<text text-anchor="start" x="3191.5" y="-141.5" font-family="Helvetica,sans-Serif" font-size="10.00">include/m_Do/m_Do_ext</text>
<text text-anchor="middle" x="3244.5" y="-130.5" font-family="Helvetica,sans-Serif" font-size="10.00">/m_Do_ext.h</text>
</a>
</g>
</g>
<!-- Node7&#45;&gt;Node57 -->
<g id="edge38" class="edge">
<title>Node7&#45;&gt;Node57</title>
<path fill="none" stroke="midnightblue" d="M1809.18,-193.17C1813.97,-191.92 1818.8,-190.82 1823.5,-190 2090.65,-143.1 2946.22,-139.51 3183.16,-139.43"/>
<polygon fill="midnightblue" stroke="midnightblue" points="1808.11,-189.84 1799.45,-195.94 1810.02,-196.57 1808.11,-189.84"/>
</g>
<!-- Node9 -->
<g id="node9" class="node">
<title>Node9</title>
<g id="a_node9"><a xlink:href="d__attention_8cpp.html" target="_top" xlink:title=" ">
<polygon fill="white" stroke="black" points="3272,-0.5 3272,-19.5 3379,-19.5 3379,-0.5 3272,-0.5"/>
<text text-anchor="middle" x="3325.5" y="-7.5" font-family="Helvetica,sans-Serif" font-size="10.00">src/d/d_attention.cpp</text>
</a>
</g>
</g>
<!-- Node8&#45;&gt;Node9 -->
<g id="edge8" class="edge">
<title>Node8&#45;&gt;Node9</title>
<path fill="none" stroke="midnightblue" d="M3400.38,-51.51C3380.61,-40.81 3356.88,-27.97 3341.51,-19.66"/>
<polygon fill="midnightblue" stroke="midnightblue" points="3398.97,-54.72 3409.43,-56.4 3402.3,-48.56 3398.97,-54.72"/>
</g>
<!-- Node10 -->
<g id="node10" class="node">
<title>Node10</title>
<g id="a_node10"><a xlink:href="d__a__alink_8cpp.html" target="_top" xlink:title=" ">
<polygon fill="white" stroke="black" points="3397,-0.5 3397,-19.5 3516,-19.5 3516,-0.5 3397,-0.5"/>
<text text-anchor="middle" x="3456.5" y="-7.5" font-family="Helvetica,sans-Serif" font-size="10.00">src/d/d_a/d_a_alink.cpp</text>
</a>
</g>
</g>
<!-- Node8&#45;&gt;Node10 -->
<g id="edge9" class="edge">
<title>Node8&#45;&gt;Node10</title>
<path fill="none" stroke="midnightblue" d="M3443.83,-46.9C3447.22,-37.3 3450.92,-26.81 3453.44,-19.66"/>
<polygon fill="midnightblue" stroke="midnightblue" points="3440.5,-45.8 3440.48,-56.4 3447.11,-48.13 3440.5,-45.8"/>
</g>
<!-- Node11&#45;&gt;Node6 -->
<g id="edge14" class="edge">
<title>Node11&#45;&gt;Node6</title>
<path fill="none" stroke="midnightblue" d="M1650.09,-125.91C1639.8,-124.77 1629.42,-123.76 1619.5,-123 1314.06,-99.64 544.65,-131.03 241.5,-87 238.43,-86.55 235.28,-85.99 232.12,-85.35"/>
<polygon fill="midnightblue" stroke="midnightblue" points="1649.99,-129.42 1660.33,-127.09 1650.79,-122.47 1649.99,-129.42"/>
</g>
<!-- Node11&#45;&gt;Node8 -->
<g id="edge37" class="edge">
<title>Node11&#45;&gt;Node8</title>
<path fill="none" stroke="midnightblue" d="M1817,-137.84C2054.02,-138.18 2751.09,-134.7 3327.5,-87 3343.24,-85.7 3360.21,-83.7 3375.92,-81.6"/>
<polygon fill="midnightblue" stroke="midnightblue" points="1816.74,-134.34 1806.74,-137.83 1816.73,-141.34 1816.74,-134.34"/>
</g>
<!-- Node11&#45;&gt;Node9 -->
<g id="edge11" class="edge">
<title>Node11&#45;&gt;Node9</title>
<path fill="none" stroke="midnightblue" d="M1650.35,-128.16C1571.26,-118.42 1462.43,-102.44 1449.5,-87 1440.65,-76.44 1439.88,-65.86 1449.5,-56 1482.2,-22.51 2968.82,-12.88 3271.9,-11.26"/>
<polygon fill="midnightblue" stroke="midnightblue" points="1649.98,-131.64 1660.33,-129.37 1650.83,-124.69 1649.98,-131.64"/>
</g>
<!-- Node12 -->
<g id="node12" class="node">
<title>Node12</title>
<g id="a_node12"><a xlink:href="d__camera_8cpp.html" target="_top" xlink:title=" ">
<polygon fill="white" stroke="black" points="1160.5,-62 1160.5,-81 1262.5,-81 1262.5,-62 1160.5,-62"/>
<text text-anchor="middle" x="1211.5" y="-69" font-family="Helvetica,sans-Serif" font-size="10.00">src/d/d_camera.cpp</text>
</a>
</g>
</g>
<!-- Node11&#45;&gt;Node12 -->
<g id="edge12" class="edge">
<title>Node11&#45;&gt;Node12</title>
<path fill="none" stroke="midnightblue" d="M1650.02,-126.65C1639.75,-125.39 1629.39,-124.14 1619.5,-123 1465.03,-105.19 1424.75,-113.32 1271.5,-87 1262.31,-85.42 1252.44,-83.24 1243.41,-81.05"/>
<polygon fill="midnightblue" stroke="midnightblue" points="1649.89,-130.16 1660.25,-127.93 1650.76,-123.22 1649.89,-130.16"/>
</g>
<!-- Node13 -->
<g id="node13" class="node">
<title>Node13</title>
<g id="a_node13"><a xlink:href="d__com__inf__game_8cpp.html" target="_top" xlink:title=" ">
<polygon fill="white" stroke="black" points="3200,-56.5 3200,-86.5 3319,-86.5 3319,-56.5 3200,-56.5"/>
<text text-anchor="start" x="3208" y="-74.5" font-family="Helvetica,sans-Serif" font-size="10.00">src/d/d_com/d_com_inf</text>
<text text-anchor="middle" x="3259.5" y="-63.5" font-family="Helvetica,sans-Serif" font-size="10.00">_game.cpp</text>
</a>
</g>
</g>
<!-- Node11&#45;&gt;Node13 -->
<g id="edge13" class="edge">
<title>Node11&#45;&gt;Node13</title>
<path fill="none" stroke="midnightblue" d="M1816.58,-136.51C2084.16,-133.01 2921.66,-119.66 3190.5,-87 3193.54,-86.63 3196.64,-86.2 3199.77,-85.71"/>
<polygon fill="midnightblue" stroke="midnightblue" points="1816.5,-133.01 1806.54,-136.64 1816.59,-140.01 1816.5,-133.01"/>
</g>
<!-- Node14 -->
<g id="node14" class="node">
<title>Node14</title>
<g id="a_node14"><a xlink:href="d__item_8cpp.html" target="_top" xlink:title=" ">
<polygon fill="white" stroke="black" points="1281,-62 1281,-81 1402,-81 1402,-62 1281,-62"/>
<text text-anchor="middle" x="1341.5" y="-69" font-family="Helvetica,sans-Serif" font-size="10.00">src/d/d_item/d_item.cpp</text>
</a>
</g>
</g>
<!-- Node11&#45;&gt;Node14 -->
<g id="edge15" class="edge">
<title>Node11&#45;&gt;Node14</title>
<path fill="none" stroke="midnightblue" d="M1650.32,-125.02C1586.31,-115.22 1495.69,-100.96 1416.5,-87 1406.05,-85.16 1394.81,-83.05 1384.29,-81.03"/>
<polygon fill="midnightblue" stroke="midnightblue" points="1649.95,-128.5 1660.36,-126.55 1651,-121.58 1649.95,-128.5"/>
</g>
<!-- Node15 -->
<g id="node15" class="node">
<title>Node15</title>
<g id="a_node15"><a xlink:href="d__kankyo__rain_8cpp.html" target="_top" xlink:title=" ">
<polygon fill="white" stroke="black" points="1459,-56.5 1459,-86.5 1586,-86.5 1586,-56.5 1459,-56.5"/>
<text text-anchor="start" x="1467" y="-74.5" font-family="Helvetica,sans-Serif" font-size="10.00">src/d/d_kankyo/d_kankyo</text>
<text text-anchor="middle" x="1522.5" y="-63.5" font-family="Helvetica,sans-Serif" font-size="10.00">_rain.cpp</text>
</a>
</g>
</g>
<!-- Node11&#45;&gt;Node15 -->
<g id="edge16" class="edge">
<title>Node11&#45;&gt;Node15</title>
<path fill="none" stroke="midnightblue" d="M1678.13,-120.44C1643.93,-109.91 1600.57,-96.55 1568.31,-86.61"/>
<polygon fill="midnightblue" stroke="midnightblue" points="1677.39,-123.88 1687.98,-123.48 1679.45,-117.19 1677.39,-123.88"/>
</g>
<!-- Node16 -->
<g id="node16" class="node">
<title>Node16</title>
<g id="a_node16"><a xlink:href="d__kankyo__wether_8cpp.html" target="_top" xlink:title=" ">
<polygon fill="white" stroke="black" points="1604,-56.5 1604,-86.5 1731,-86.5 1731,-56.5 1604,-56.5"/>
<text text-anchor="start" x="1612" y="-74.5" font-family="Helvetica,sans-Serif" font-size="10.00">src/d/d_kankyo/d_kankyo</text>
<text text-anchor="middle" x="1667.5" y="-63.5" font-family="Helvetica,sans-Serif" font-size="10.00">_wether.cpp</text>
</a>
</g>
</g>
<!-- Node11&#45;&gt;Node16 -->
<g id="edge17" class="edge">
<title>Node11&#45;&gt;Node16</title>
<path fill="none" stroke="midnightblue" d="M1711.99,-116.31C1702.09,-106.56 1690.61,-95.26 1681.79,-86.58"/>
<polygon fill="midnightblue" stroke="midnightblue" points="1709.6,-118.87 1719.18,-123.4 1714.51,-113.89 1709.6,-118.87"/>
</g>
<!-- Node17 -->
<g id="node17" class="node">
<title>Node17</title>
<g id="a_node17"><a xlink:href="d__kankyo_8cpp.html" target="_top" xlink:title=" ">
<polygon fill="white" stroke="black" points="1749,-62 1749,-81 1850,-81 1850,-62 1749,-62"/>
<text text-anchor="middle" x="1799.5" y="-69" font-family="Helvetica,sans-Serif" font-size="10.00">src/d/d_kankyo.cpp</text>
</a>
</g>
</g>
<!-- Node11&#45;&gt;Node17 -->
<g id="edge18" class="edge">
<title>Node11&#45;&gt;Node17</title>
<path fill="none" stroke="midnightblue" d="M1754.99,-116.34C1767.11,-104.4 1781.59,-90.14 1790.67,-81.19"/>
<polygon fill="midnightblue" stroke="midnightblue" points="1752.49,-113.89 1747.82,-123.4 1757.4,-118.87 1752.49,-113.89"/>
</g>
<!-- Node18 -->
<g id="node18" class="node">
<title>Node18</title>
<g id="a_node18"><a xlink:href="d__kantera__icon__meter_8cpp.html" target="_top" xlink:title=" ">
<polygon fill="white" stroke="black" points="1868,-56.5 1868,-86.5 1975,-86.5 1975,-56.5 1868,-56.5"/>
<text text-anchor="start" x="1876" y="-74.5" font-family="Helvetica,sans-Serif" font-size="10.00">src/d/d_kantera_icon</text>
<text text-anchor="middle" x="1921.5" y="-63.5" font-family="Helvetica,sans-Serif" font-size="10.00">_meter.cpp</text>
</a>
</g>
</g>
<!-- Node11&#45;&gt;Node18 -->
<g id="edge19" class="edge">
<title>Node11&#45;&gt;Node18</title>
<path fill="none" stroke="midnightblue" d="M1783.85,-120.09C1814.2,-109.6 1852.35,-96.41 1880.79,-86.58"/>
<polygon fill="midnightblue" stroke="midnightblue" points="1782.6,-116.82 1774.29,-123.4 1784.89,-123.44 1782.6,-116.82"/>
</g>
<!-- Node19 -->
<g id="node19" class="node">
<title>Node19</title>
<g id="a_node19"><a xlink:href="d__kyeff_8cpp.html" target="_top" xlink:title=" ">
<polygon fill="white" stroke="black" points="1993,-62 1993,-81 2106,-81 2106,-62 1993,-62"/>
<text text-anchor="middle" x="2049.5" y="-69" font-family="Helvetica,sans-Serif" font-size="10.00">src/d/d_ky/d_kyeff.cpp</text>
</a>
</g>
</g>
<!-- Node11&#45;&gt;Node19 -->
<g id="edge20" class="edge">
<title>Node11&#45;&gt;Node19</title>
<path fill="none" stroke="midnightblue" d="M1814.59,-121.48C1863.55,-111.72 1927.16,-98.88 1983.5,-87 1992.45,-85.11 2002.08,-83.03 2011.13,-81.04"/>
<polygon fill="midnightblue" stroke="midnightblue" points="1813.81,-118.07 1804.69,-123.45 1815.18,-124.93 1813.81,-118.07"/>
</g>
<!-- Node20 -->
<g id="node20" class="node">
<title>Node20</title>
<g id="a_node20"><a xlink:href="d__meter__button_8cpp.html" target="_top" xlink:title=" ">
<polygon fill="white" stroke="black" points="2124,-56.5 2124,-86.5 2239,-86.5 2239,-56.5 2124,-56.5"/>
<text text-anchor="start" x="2132" y="-74.5" font-family="Helvetica,sans-Serif" font-size="10.00">src/d/d_meter/d_meter</text>
<text text-anchor="middle" x="2181.5" y="-63.5" font-family="Helvetica,sans-Serif" font-size="10.00">_button.cpp</text>
</a>
</g>
</g>
<!-- Node11&#45;&gt;Node20 -->
<g id="edge21" class="edge">
<title>Node11&#45;&gt;Node20</title>
<path fill="none" stroke="midnightblue" d="M1816.98,-128.41C1894.37,-119.52 2012.59,-104.75 2114.5,-87 2117.55,-86.47 2120.67,-85.9 2123.81,-85.3"/>
<polygon fill="midnightblue" stroke="midnightblue" points="1816.35,-124.96 1806.81,-129.58 1817.14,-131.92 1816.35,-124.96"/>
</g>
<!-- Node21 -->
<g id="node21" class="node">
<title>Node21</title>
<g id="a_node21"><a xlink:href="d__meter__haihai_8cpp.html" target="_top" xlink:title=" ">
<polygon fill="white" stroke="black" points="2257,-56.5 2257,-86.5 2372,-86.5 2372,-56.5 2257,-56.5"/>
<text text-anchor="start" x="2265" y="-74.5" font-family="Helvetica,sans-Serif" font-size="10.00">src/d/d_meter/d_meter</text>
<text text-anchor="middle" x="2314.5" y="-63.5" font-family="Helvetica,sans-Serif" font-size="10.00">_haihai.cpp</text>
</a>
</g>
</g>
<!-- Node11&#45;&gt;Node21 -->
<g id="edge22" class="edge">
<title>Node11&#45;&gt;Node21</title>
<path fill="none" stroke="midnightblue" d="M1816.85,-132.28C1918.83,-125.2 2096.56,-110.67 2247.5,-87 2250.56,-86.52 2253.68,-85.99 2256.84,-85.42"/>
<polygon fill="midnightblue" stroke="midnightblue" points="1816.35,-128.8 1806.61,-132.98 1816.83,-135.79 1816.35,-128.8"/>
</g>
<!-- Node22 -->
<g id="node22" class="node">
<title>Node22</title>
<g id="a_node22"><a xlink:href="d__meter__hakusha_8cpp.html" target="_top" xlink:title=" ">
<polygon fill="white" stroke="black" points="2390,-56.5 2390,-86.5 2505,-86.5 2505,-56.5 2390,-56.5"/>
<text text-anchor="start" x="2398" y="-74.5" font-family="Helvetica,sans-Serif" font-size="10.00">src/d/d_meter/d_meter</text>
<text text-anchor="middle" x="2447.5" y="-63.5" font-family="Helvetica,sans-Serif" font-size="10.00">_hakusha.cpp</text>
</a>
</g>
</g>
<!-- Node11&#45;&gt;Node22 -->
<g id="edge23" class="edge">
<title>Node11&#45;&gt;Node22</title>
<path fill="none" stroke="midnightblue" d="M1816.78,-134.6C1940.36,-129.49 2179.36,-116.48 2380.5,-87 2383.56,-86.55 2386.69,-86.04 2389.85,-85.5"/>
<polygon fill="midnightblue" stroke="midnightblue" points="1816.48,-131.11 1806.63,-135.01 1816.76,-138.11 1816.48,-131.11"/>
</g>
<!-- Node23 -->
<g id="node23" class="node">
<title>Node23</title>
<g id="a_node23"><a xlink:href="d__meter__map_8cpp.html" target="_top" xlink:title=" ">
<polygon fill="white" stroke="black" points="2523,-56.5 2523,-86.5 2638,-86.5 2638,-56.5 2523,-56.5"/>
<text text-anchor="start" x="2531" y="-74.5" font-family="Helvetica,sans-Serif" font-size="10.00">src/d/d_meter/d_meter</text>
<text text-anchor="middle" x="2580.5" y="-63.5" font-family="Helvetica,sans-Serif" font-size="10.00">_map.cpp</text>
</a>
</g>
</g>
<!-- Node11&#45;&gt;Node23 -->
<g id="edge24" class="edge">
<title>Node11&#45;&gt;Node23</title>
<path fill="none" stroke="midnightblue" d="M1816.75,-136.16C1959.83,-132.96 2261.35,-122.25 2513.5,-87 2516.56,-86.57 2519.7,-86.08 2522.85,-85.54"/>
<polygon fill="midnightblue" stroke="midnightblue" points="1816.64,-132.66 1806.72,-136.38 1816.8,-139.66 1816.64,-132.66"/>
</g>
<!-- Node24 -->
<g id="node24" class="node">
<title>Node24</title>
<g id="a_node24"><a xlink:href="d__meter__string_8cpp.html" target="_top" xlink:title=" ">
<polygon fill="white" stroke="black" points="2656,-56.5 2656,-86.5 2771,-86.5 2771,-56.5 2656,-56.5"/>
<text text-anchor="start" x="2664" y="-74.5" font-family="Helvetica,sans-Serif" font-size="10.00">src/d/d_meter/d_meter</text>
<text text-anchor="middle" x="2713.5" y="-63.5" font-family="Helvetica,sans-Serif" font-size="10.00">_string.cpp</text>
</a>
</g>
</g>
<!-- Node11&#45;&gt;Node24 -->
<g id="edge25" class="edge">
<title>Node11&#45;&gt;Node24</title>
<path fill="none" stroke="midnightblue" d="M1816.97,-137.28C1978.08,-135.88 2342.85,-127.99 2646.5,-87 2649.57,-86.59 2652.7,-86.11 2655.86,-85.58"/>
<polygon fill="midnightblue" stroke="midnightblue" points="1816.63,-133.78 1806.65,-137.36 1816.68,-140.78 1816.63,-133.78"/>
</g>
<!-- Node25 -->
<g id="node25" class="node">
<title>Node25</title>
<g id="a_node25"><a xlink:href="d__meter2__draw_8cpp.html" target="_top" xlink:title=" ">
<polygon fill="white" stroke="black" points="2789,-56.5 2789,-86.5 2914,-86.5 2914,-56.5 2789,-56.5"/>
<text text-anchor="start" x="2797" y="-74.5" font-family="Helvetica,sans-Serif" font-size="10.00">src/d/d_meter2/d_meter2</text>
<text text-anchor="middle" x="2851.5" y="-63.5" font-family="Helvetica,sans-Serif" font-size="10.00">_draw.cpp</text>
</a>
</g>
</g>
<!-- Node11&#45;&gt;Node25 -->
<g id="edge26" class="edge">
<title>Node11&#45;&gt;Node25</title>
<path fill="none" stroke="midnightblue" d="M1816.8,-137.72C1994.43,-137.27 2423.31,-131.21 2779.5,-87 2782.54,-86.62 2785.64,-86.19 2788.76,-85.71"/>
<polygon fill="midnightblue" stroke="midnightblue" points="1816.73,-134.22 1806.74,-137.74 1816.75,-141.22 1816.73,-134.22"/>
</g>
<!-- Node26 -->
<g id="node26" class="node">
<title>Node26</title>
<g id="a_node26"><a xlink:href="d__meter2__info_8cpp.html" target="_top" xlink:title=" ">
<polygon fill="white" stroke="black" points="2932,-56.5 2932,-86.5 3057,-86.5 3057,-56.5 2932,-56.5"/>
<text text-anchor="start" x="2940" y="-74.5" font-family="Helvetica,sans-Serif" font-size="10.00">src/d/d_meter2/d_meter2</text>
<text text-anchor="middle" x="2994.5" y="-63.5" font-family="Helvetica,sans-Serif" font-size="10.00">_info.cpp</text>
</a>
</g>
</g>
<!-- Node11&#45;&gt;Node26 -->
<g id="edge27" class="edge">
<title>Node11&#45;&gt;Node26</title>
<path fill="none" stroke="midnightblue" d="M1816.87,-135.66C2050.42,-130.22 2708.02,-112.99 2922.5,-87 2925.54,-86.63 2928.64,-86.21 2931.77,-85.73"/>
<polygon fill="midnightblue" stroke="midnightblue" points="1816.65,-132.16 1806.74,-135.89 1816.82,-139.16 1816.65,-132.16"/>
</g>
<!-- Node27 -->
<g id="node27" class="node">
<title>Node27</title>
<g id="a_node27"><a xlink:href="d__meter2_8cpp.html" target="_top" xlink:title=" ">
<polygon fill="white" stroke="black" points="250.5,-62 250.5,-81 350.5,-81 350.5,-62 250.5,-62"/>
<text text-anchor="middle" x="300.5" y="-69" font-family="Helvetica,sans-Serif" font-size="10.00">src/d/d_meter2.cpp</text>
</a>
</g>
</g>
<!-- Node11&#45;&gt;Node27 -->
<g id="edge28" class="edge">
<title>Node11&#45;&gt;Node27</title>
<path fill="none" stroke="midnightblue" d="M1650.09,-125.94C1639.8,-124.79 1629.42,-123.77 1619.5,-123 1060.95,-79.6 914.65,-162.28 359.5,-87 349.78,-85.68 339.34,-83.41 329.98,-81.05"/>
<polygon fill="midnightblue" stroke="midnightblue" points="1649.99,-129.45 1660.33,-127.12 1650.79,-122.49 1649.99,-129.45"/>
</g>
<!-- Node28 -->
<g id="node28" class="node">
<title>Node28</title>
<g id="a_node28"><a xlink:href="d__model_8cpp.html" target="_top" xlink:title=" ">
<polygon fill="white" stroke="black" points="368.5,-62 368.5,-81 464.5,-81 464.5,-62 368.5,-62"/>
<text text-anchor="middle" x="416.5" y="-69" font-family="Helvetica,sans-Serif" font-size="10.00">src/d/d_model.cpp</text>
</a>
</g>
</g>
<!-- Node11&#45;&gt;Node28 -->
<g id="edge29" class="edge">
<title>Node11&#45;&gt;Node28</title>
<path fill="none" stroke="midnightblue" d="M1650.09,-125.96C1639.8,-124.81 1629.42,-123.78 1619.5,-123 1111.5,-82.81 978.08,-158.24 473.5,-87 464.1,-85.67 454,-83.4 444.96,-81.03"/>
<polygon fill="midnightblue" stroke="midnightblue" points="1649.99,-129.47 1660.32,-127.15 1650.79,-122.52 1649.99,-129.47"/>
</g>
<!-- Node29 -->
<g id="node29" class="node">
<title>Node29</title>
<g id="a_node29"><a xlink:href="d__save_8cpp.html" target="_top" xlink:title=" ">
<polygon fill="white" stroke="black" points="0,-62 0,-81 125,-81 125,-62 0,-62"/>
<text text-anchor="middle" x="62.5" y="-69" font-family="Helvetica,sans-Serif" font-size="10.00">src/d/d_save/d_save.cpp</text>
</a>
</g>
</g>
<!-- Node11&#45;&gt;Node29 -->
<g id="edge30" class="edge">
<title>Node11&#45;&gt;Node29</title>
<path fill="none" stroke="midnightblue" d="M1650.13,-129.95C1618.9,-127.37 1583.1,-124.7 1550.5,-123 921.38,-90.11 759.43,-158.3 133.5,-87 121.88,-85.68 109.33,-83.4 98.06,-81.04"/>
<polygon fill="midnightblue" stroke="midnightblue" points="1649.84,-133.43 1660.1,-130.78 1650.42,-126.46 1649.84,-133.43"/>
</g>
<!-- Node30 -->
<g id="node30" class="node">
<title>Node30</title>
<g id="a_node30"><a xlink:href="d__save__HIO_8cpp.html" target="_top" xlink:title=" ">
<polygon fill="white" stroke="black" points="483,-56.5 483,-86.5 590,-86.5 590,-56.5 483,-56.5"/>
<text text-anchor="start" x="491" y="-74.5" font-family="Helvetica,sans-Serif" font-size="10.00">src/d/d_save/d_save</text>
<text text-anchor="middle" x="536.5" y="-63.5" font-family="Helvetica,sans-Serif" font-size="10.00">_HIO.cpp</text>
</a>
</g>
</g>
<!-- Node11&#45;&gt;Node30 -->
<g id="edge31" class="edge">
<title>Node11&#45;&gt;Node30</title>
<path fill="none" stroke="midnightblue" d="M1650.09,-126C1639.8,-124.85 1629.42,-123.8 1619.5,-123 1167.37,-86.34 1049.24,-146.14 599.5,-87 596.5,-86.6 593.42,-86.13 590.33,-85.6"/>
<polygon fill="midnightblue" stroke="midnightblue" points="1649.98,-129.51 1660.32,-127.19 1650.79,-122.56 1649.98,-129.51"/>
</g>
<!-- Node31 -->
<g id="node31" class="node">
<title>Node31</title>
<g id="a_node31"><a xlink:href="d__stage_8cpp.html" target="_top" xlink:title=" ">
<polygon fill="white" stroke="black" points="608.5,-62 608.5,-81 702.5,-81 702.5,-62 608.5,-62"/>
<text text-anchor="middle" x="655.5" y="-69" font-family="Helvetica,sans-Serif" font-size="10.00">src/d/d_stage.cpp</text>
</a>
</g>
</g>
<!-- Node11&#45;&gt;Node31 -->
<g id="edge32" class="edge">
<title>Node11&#45;&gt;Node31</title>
<path fill="none" stroke="midnightblue" d="M1650.08,-126.04C1639.8,-124.88 1629.42,-123.83 1619.5,-123 1217.02,-89.49 1111.05,-145.95 711.5,-87 702.36,-85.65 692.56,-83.4 683.75,-81.07"/>
<polygon fill="midnightblue" stroke="midnightblue" points="1649.98,-129.55 1660.32,-127.24 1650.79,-122.6 1649.98,-129.55"/>
</g>
<!-- Node32 -->
<g id="node32" class="node">
<title>Node32</title>
<g id="a_node32"><a xlink:href="f__op__actor__mng_8cpp.html" target="_top" xlink:title=" ">
<polygon fill="white" stroke="black" points="3075,-56.5 3075,-86.5 3182,-86.5 3182,-56.5 3075,-56.5"/>
<text text-anchor="start" x="3083" y="-74.5" font-family="Helvetica,sans-Serif" font-size="10.00">src/f/f_op/f_op_actor</text>
<text text-anchor="middle" x="3128.5" y="-63.5" font-family="Helvetica,sans-Serif" font-size="10.00">_mng.cpp</text>
</a>
</g>
</g>
<!-- Node11&#45;&gt;Node32 -->
<g id="edge33" class="edge">
<title>Node11&#45;&gt;Node32</title>
<path fill="none" stroke="midnightblue" d="M1817.13,-136.39C2069.76,-132.71 2822.55,-119.27 3065.5,-87 3068.5,-86.6 3071.58,-86.12 3074.67,-85.59"/>
<polygon fill="midnightblue" stroke="midnightblue" points="1816.87,-132.89 1806.92,-136.54 1816.97,-139.89 1816.87,-132.89"/>
</g>
<!-- Node33 -->
<g id="node33" class="node">
<title>Node33</title>
<g id="a_node33"><a xlink:href="f__op__camera_8cpp.html" target="_top" xlink:title=" ">
<polygon fill="white" stroke="black" points="721,-62 721,-81 856,-81 856,-62 721,-62"/>
<text text-anchor="middle" x="788.5" y="-69" font-family="Helvetica,sans-Serif" font-size="10.00">src/f/f_op/f_op_camera.cpp</text>
</a>
</g>
</g>
<!-- Node11&#45;&gt;Node33 -->
<g id="edge34" class="edge">
<title>Node11&#45;&gt;Node33</title>
<path fill="none" stroke="midnightblue" d="M1650.07,-126.12C1639.79,-124.94 1629.41,-123.87 1619.5,-123 1285.28,-93.81 1198.7,-126.14 865.5,-87 853.21,-85.56 839.92,-83.31 827.91,-81.01"/>
<polygon fill="midnightblue" stroke="midnightblue" points="1649.97,-129.63 1660.31,-127.32 1650.79,-122.68 1649.97,-129.63"/>
</g>
<!-- Node34 -->
<g id="node34" class="node">
<title>Node34</title>
<g id="a_node34"><a xlink:href="f__op__kankyo_8cpp.html" target="_top" xlink:title=" ">
<polygon fill="white" stroke="black" points="874.5,-62 874.5,-81 1008.5,-81 1008.5,-62 874.5,-62"/>
<text text-anchor="middle" x="941.5" y="-69" font-family="Helvetica,sans-Serif" font-size="10.00">src/f/f_op/f_op_kankyo.cpp</text>
</a>
</g>
</g>
<!-- Node11&#45;&gt;Node34 -->
<g id="edge35" class="edge">
<title>Node11&#45;&gt;Node34</title>
<path fill="none" stroke="midnightblue" d="M1650.06,-126.24C1639.78,-125.04 1629.41,-123.93 1619.5,-123 1352.63,-98.08 1283.47,-120.18 1017.5,-87 1005.64,-85.52 992.84,-83.32 981.18,-81.07"/>
<polygon fill="midnightblue" stroke="midnightblue" points="1649.95,-129.75 1660.3,-127.45 1650.78,-122.8 1649.95,-129.75"/>
</g>
<!-- Node35 -->
<g id="node35" class="node">
<title>Node35</title>
<g id="a_node35"><a xlink:href="f__op__kankyo__mng_8cpp.html" target="_top" xlink:title=" ">
<polygon fill="white" stroke="black" points="1026.5,-56.5 1026.5,-86.5 1142.5,-86.5 1142.5,-56.5 1026.5,-56.5"/>
<text text-anchor="start" x="1034.5" y="-74.5" font-family="Helvetica,sans-Serif" font-size="10.00">src/f/f_op/f_op_kankyo</text>
<text text-anchor="middle" x="1084.5" y="-63.5" font-family="Helvetica,sans-Serif" font-size="10.00">_mng.cpp</text>
</a>
</g>
</g>
<!-- Node11&#45;&gt;Node35 -->
<g id="edge36" class="edge">
<title>Node11&#45;&gt;Node35</title>
<path fill="none" stroke="midnightblue" d="M1650.05,-126.4C1639.77,-125.18 1629.4,-124.01 1619.5,-123 1411.96,-101.83 1357.93,-117.13 1151.5,-87 1148.56,-86.57 1145.55,-86.09 1142.52,-85.56"/>
<polygon fill="midnightblue" stroke="midnightblue" points="1649.93,-129.91 1660.28,-127.64 1650.77,-122.96 1649.93,-129.91"/>
</g>
<!-- Node57&#45;&gt;Node8 -->
<g id="edge42" class="edge">
<title>Node57&#45;&gt;Node8</title>
<path fill="none" stroke="midnightblue" d="M3295.65,-120.09C3326.49,-109.6 3365.25,-96.41 3394.14,-86.58"/>
<polygon fill="midnightblue" stroke="midnightblue" points="3294.28,-116.86 3285.94,-123.4 3296.54,-123.49 3294.28,-116.86"/>
</g>
<!-- Node57&#45;&gt;Node9 -->
<g id="edge39" class="edge">
<title>Node57&#45;&gt;Node9</title>
<path fill="none" stroke="midnightblue" d="M3293.38,-118.71C3306.84,-111.01 3319.84,-100.63 3327.5,-87 3339.66,-65.37 3332.88,-34.52 3328.42,-19.66"/>
<polygon fill="midnightblue" stroke="midnightblue" points="3291.73,-115.62 3284.52,-123.38 3295,-121.81 3291.73,-115.62"/>
</g>
<!-- Node57&#45;&gt;Node13 -->
<g id="edge40" class="edge">
<title>Node57&#45;&gt;Node13</title>
<path fill="none" stroke="midnightblue" d="M3250.06,-113.4C3252.15,-104.37 3254.44,-94.41 3256.25,-86.58"/>
<polygon fill="midnightblue" stroke="midnightblue" points="3246.59,-112.87 3247.75,-123.4 3253.41,-114.44 3246.59,-112.87"/>
</g>
<!-- Node57&#45;&gt;Node32 -->
<g id="edge41" class="edge">
<title>Node57&#45;&gt;Node32</title>
<path fill="none" stroke="midnightblue" d="M3210.23,-118.3C3192.08,-108.12 3170.18,-95.85 3153.62,-86.58"/>
<polygon fill="midnightblue" stroke="midnightblue" points="3208.9,-121.56 3219.33,-123.4 3212.32,-115.45 3208.9,-121.56"/>
</g>
<!-- Node62 -->
<g id="node38" class="node">
<title>Node62</title>
<g id="a_node38"><a xlink:href="J2DPane_8cpp.html" target="_top" xlink:title=" ">
<polygon fill="white" stroke="black" points="3362,-123.5 3362,-153.5 3481,-153.5 3481,-123.5 3362,-123.5"/>
<text text-anchor="start" x="3370" y="-141.5" font-family="Helvetica,sans-Serif" font-size="10.00">libs/JSystem/J2DGraph</text>
<text text-anchor="middle" x="3421.5" y="-130.5" font-family="Helvetica,sans-Serif" font-size="10.00">/J2DPane.cpp</text>
</a>
</g>
</g>
<!-- Node61&#45;&gt;Node62 -->
<g id="edge44" class="edge">
<title>Node61&#45;&gt;Node62</title>
<path fill="none" stroke="midnightblue" d="M3451.18,-187.06C3444.33,-176.09 3436.35,-163.3 3430.39,-153.75"/>
<polygon fill="midnightblue" stroke="midnightblue" points="3448.33,-189.1 3456.6,-195.73 3454.27,-185.4 3448.33,-189.1"/>
</g>
<!-- Node63 -->
<g id="node39" class="node">
<title>Node63</title>
<g id="a_node39"><a xlink:href="f__op__msg__mng_8h.html" target="_top" xlink:title=" ">
<polygon fill="white" stroke="red" points="3542,-56.5 3542,-86.5 3639,-86.5 3639,-56.5 3542,-56.5"/>
<text text-anchor="start" x="3550" y="-74.5" font-family="Helvetica,sans-Serif" font-size="10.00">include/f/f_op/f_op</text>
<text text-anchor="middle" x="3590.5" y="-63.5" font-family="Helvetica,sans-Serif" font-size="10.00">_msg_mng.h</text>
</a>
</g>
</g>
<!-- Node61&#45;&gt;Node63 -->
<g id="edge45" class="edge">
<title>Node61&#45;&gt;Node63</title>
<path fill="none" stroke="midnightblue" d="M3479.89,-187.38C3492.03,-169.1 3510.45,-143.18 3529.5,-123 3542.24,-109.51 3558.51,-96.2 3571.04,-86.64"/>
<polygon fill="midnightblue" stroke="midnightblue" points="3476.84,-185.65 3474.3,-195.93 3482.7,-189.48 3476.84,-185.65"/>
</g>
<!-- Node64 -->
<g id="node40" class="node">
<title>Node64</title>
<g id="a_node40"><a xlink:href="J2DPicture_8h.html" target="_top" xlink:title=" ">
<polygon fill="white" stroke="red" points="3538,-123.5 3538,-153.5 3673,-153.5 3673,-123.5 3538,-123.5"/>
<text text-anchor="start" x="3546" y="-141.5" font-family="Helvetica,sans-Serif" font-size="10.00">include/JSystem/J2DGraph</text>
<text text-anchor="middle" x="3605.5" y="-130.5" font-family="Helvetica,sans-Serif" font-size="10.00">/J2DPicture/J2DPicture.h</text>
</a>
</g>
</g>
<!-- Node61&#45;&gt;Node64 -->
<g id="edge46" class="edge">
<title>Node61&#45;&gt;Node64</title>
<path fill="none" stroke="midnightblue" d="M3502.49,-191.37C3526.02,-179.52 3556.01,-164.42 3577.55,-153.57"/>
<polygon fill="midnightblue" stroke="midnightblue" points="3500.85,-188.28 3493.49,-195.9 3504,-194.53 3500.85,-188.28"/>
</g>
<!-- Node64&#45;&gt;Node63 -->
<g id="edge47" class="edge">
<title>Node64&#45;&gt;Node63</title>
<path fill="none" stroke="midnightblue" d="M3599.94,-113.4C3597.85,-104.37 3595.56,-94.41 3593.75,-86.58"/>
<polygon fill="midnightblue" stroke="midnightblue" points="3596.59,-114.44 3602.25,-123.4 3603.41,-112.87 3596.59,-114.44"/>
</g>
<!-- Node67&#45;&gt;Node3 -->
<g id="edge49" class="edge">
<title>Node67&#45;&gt;Node3</title>
<path fill="none" stroke="midnightblue" d="M938.5,-193.83C989.77,-182.73 1059.28,-167.61 1120.5,-154 1123.5,-153.33 1126.58,-152.64 1129.69,-151.95"/>
<polygon fill="midnightblue" stroke="midnightblue" points="937.52,-190.46 928.49,-195.99 939.01,-197.3 937.52,-190.46"/>
</g>
<!-- Node68 -->
<g id="node42" class="node">
<title>Node68</title>
<g id="a_node42"><a xlink:href="JKRAramArchive_8cpp.html" target="_top" xlink:title=" ">
<polygon fill="white" stroke="black" points="560,-123.5 560,-153.5 673,-153.5 673,-123.5 560,-123.5"/>
<text text-anchor="start" x="568" y="-141.5" font-family="Helvetica,sans-Serif" font-size="10.00">libs/JSystem/JKernel</text>
<text text-anchor="middle" x="616.5" y="-130.5" font-family="Helvetica,sans-Serif" font-size="10.00">/JKRAramArchive.cpp</text>
</a>
</g>
</g>
<!-- Node67&#45;&gt;Node68 -->
<g id="edge50" class="edge">
<title>Node67&#45;&gt;Node68</title>
<path fill="none" stroke="midnightblue" d="M804.79,-193.24C762.45,-181.16 705.95,-165.03 665.92,-153.61"/>
<polygon fill="midnightblue" stroke="midnightblue" points="803.83,-196.61 814.41,-195.99 805.75,-189.88 803.83,-196.61"/>
</g>
<!-- Node69 -->
<g id="node43" class="node">
<title>Node69</title>
<g id="a_node43"><a xlink:href="d__lib_8h.html" target="_top" xlink:title=" ">
<polygon fill="white" stroke="red" points="691.5,-129 691.5,-148 801.5,-148 801.5,-129 691.5,-129"/>
<text text-anchor="middle" x="746.5" y="-136" font-family="Helvetica,sans-Serif" font-size="10.00">include/d/d_lib/d_lib.h</text>
</a>
</g>
</g>
<!-- Node67&#45;&gt;Node69 -->
<g id="edge51" class="edge">
<title>Node67&#45;&gt;Node69</title>
<path fill="none" stroke="midnightblue" d="M831.3,-190.6C808.15,-176.65 778.07,-158.52 760.66,-148.03"/>
<polygon fill="midnightblue" stroke="midnightblue" points="829.73,-193.74 840.1,-195.9 833.35,-187.74 829.73,-193.74"/>
</g>
<!-- Node71 -->
<g id="node44" class="node">
<title>Node71</title>
<g id="a_node44"><a xlink:href="Z2AudioMgr_8h.html" target="_top" xlink:title=" ">
<polygon fill="white" stroke="red" points="820,-123.5 820,-153.5 955,-153.5 955,-123.5 820,-123.5"/>
<text text-anchor="start" x="828" y="-141.5" font-family="Helvetica,sans-Serif" font-size="10.00">include/Z2AudioLib</text>
<text text-anchor="middle" x="887.5" y="-130.5" font-family="Helvetica,sans-Serif" font-size="10.00">/Z2AudioMgr/Z2AudioMgr.h</text>
</a>
</g>
</g>
<!-- Node67&#45;&gt;Node71 -->
<g id="edge52" class="edge">
<title>Node67&#45;&gt;Node71</title>
<path fill="none" stroke="midnightblue" d="M871.65,-186.06C875.31,-175.32 879.5,-163.01 882.65,-153.75"/>
<polygon fill="midnightblue" stroke="midnightblue" points="868.27,-185.14 868.36,-195.73 874.89,-187.39 868.27,-185.14"/>
</g>
<!-- Node71&#45;&gt;Node29 -->
<g id="edge53" class="edge">
<title>Node71&#45;&gt;Node29</title>
<path fill="none" stroke="midnightblue" d="M809.66,-123.03C509.54,-87.89 429.02,-124.82 133.5,-87 122.27,-85.56 110.16,-83.34 99.18,-81.07"/>
<polygon fill="midnightblue" stroke="midnightblue" points="809.63,-126.55 819.97,-124.26 810.46,-119.6 809.63,-126.55"/>
</g>
<!-- Node80&#45;&gt;Node3 -->
<g id="edge55" class="edge">
<title>Node80&#45;&gt;Node3</title>
<path fill="none" stroke="midnightblue" d="M1097.28,-190.74C1117.28,-178.99 1142.41,-164.23 1160.55,-153.57"/>
<polygon fill="midnightblue" stroke="midnightblue" points="1095.34,-187.82 1088.5,-195.9 1098.89,-193.85 1095.34,-187.82"/>
</g>
<!-- Node81 -->
<g id="node46" class="node">
<title>Node81</title>
<g id="a_node46"><a xlink:href="JKRCompArchive_8cpp.html" target="_top" xlink:title=" ">
<polygon fill="white" stroke="black" points="997,-123.5 997,-153.5 1112,-153.5 1112,-123.5 997,-123.5"/>
<text text-anchor="start" x="1005" y="-141.5" font-family="Helvetica,sans-Serif" font-size="10.00">libs/JSystem/JKernel</text>
<text text-anchor="middle" x="1054.5" y="-130.5" font-family="Helvetica,sans-Serif" font-size="10.00">/JKRCompArchive.cpp</text>
</a>
</g>
</g>
<!-- Node80&#45;&gt;Node81 -->
<g id="edge56" class="edge">
<title>Node80&#45;&gt;Node81</title>
<path fill="none" stroke="midnightblue" d="M1061.06,-185.73C1059.55,-175.07 1057.82,-162.91 1056.52,-153.75"/>
<polygon fill="midnightblue" stroke="midnightblue" points="1057.61,-186.32 1062.48,-195.73 1064.54,-185.34 1057.61,-186.32"/>
</g>
<!-- Node82&#45;&gt;Node3 -->
<g id="edge58" class="edge">
<title>Node82&#45;&gt;Node3</title>
<path fill="none" stroke="midnightblue" d="M1265.4,-190.42C1246.81,-178.72 1223.63,-164.13 1206.86,-153.57"/>
<polygon fill="midnightblue" stroke="midnightblue" points="1263.78,-193.54 1274.1,-195.9 1267.51,-187.61 1263.78,-193.54"/>
</g>
<!-- Node83 -->
<g id="node48" class="node">
<title>Node83</title>
<g id="a_node48"><a xlink:href="JKRDvdArchive_8cpp.html" target="_top" xlink:title=" ">
<polygon fill="white" stroke="black" points="1257,-123.5 1257,-153.5 1366,-153.5 1366,-123.5 1257,-123.5"/>
<text text-anchor="start" x="1265" y="-141.5" font-family="Helvetica,sans-Serif" font-size="10.00">libs/JSystem/JKernel</text>
<text text-anchor="middle" x="1311.5" y="-130.5" font-family="Helvetica,sans-Serif" font-size="10.00">/JKRDvdArchive.cpp</text>
</a>
</g>
</g>
<!-- Node82&#45;&gt;Node83 -->
<g id="edge59" class="edge">
<title>Node82&#45;&gt;Node83</title>
<path fill="none" stroke="midnightblue" d="M1301.66,-185.73C1303.93,-175.07 1306.52,-162.91 1308.47,-153.75"/>
<polygon fill="midnightblue" stroke="midnightblue" points="1298.19,-185.22 1299.54,-195.73 1305.04,-186.68 1298.19,-185.22"/>
</g>
<!-- Node84&#45;&gt;Node3 -->
<g id="edge61" class="edge">
<title>Node84&#45;&gt;Node3</title>
<path fill="none" stroke="midnightblue" d="M1416.64,-193.69C1362.69,-181.1 1289.08,-163.91 1239.33,-152.3"/>
<polygon fill="midnightblue" stroke="midnightblue" points="1415.94,-197.12 1426.47,-195.99 1417.53,-190.31 1415.94,-197.12"/>
</g>
<!-- Node85 -->
<g id="node50" class="node">
<title>Node85</title>
<g id="a_node50"><a xlink:href="JKRMemArchive_8cpp.html" target="_top" xlink:title=" ">
<polygon fill="white" stroke="black" points="1431,-123.5 1431,-153.5 1542,-153.5 1542,-123.5 1431,-123.5"/>
<text text-anchor="start" x="1439" y="-141.5" font-family="Helvetica,sans-Serif" font-size="10.00">libs/JSystem/JKernel</text>
<text text-anchor="middle" x="1486.5" y="-130.5" font-family="Helvetica,sans-Serif" font-size="10.00">/JKRMemArchive.cpp</text>
</a>
</g>
</g>
<!-- Node84&#45;&gt;Node85 -->
<g id="edge62" class="edge">
<title>Node84&#45;&gt;Node85</title>
<path fill="none" stroke="midnightblue" d="M1486.5,-185.73C1486.5,-175.07 1486.5,-162.91 1486.5,-153.75"/>
<polygon fill="midnightblue" stroke="midnightblue" points="1483,-185.73 1486.5,-195.73 1490,-185.73 1483,-185.73"/>
</g>
</g>
</svg>
