<?xml version="1.0" encoding="UTF-8" standalone="no"?>
<!DOCTYPE svg PUBLIC "-//W3C//DTD SVG 1.1//EN"
 "http://www.w3.org/Graphics/SVG/1.1/DTD/svg11.dtd">
<!-- Generated by graphviz version 2.44.0 ()
 -->
<!-- Title: include/JSystem/JKernel/JKRAramHeap/JKRAramHeap.h Pages: 1 -->
<svg width="607pt" height="285pt"
 viewBox="0.00 0.00 607.44 285.00" xmlns="http://www.w3.org/2000/svg" xmlns:xlink="http://www.w3.org/1999/xlink">
<g id="graph0" class="graph" transform="scale(1 1) rotate(0) translate(4 281)">
<title>include/JSystem/JKernel/JKRAramHeap/JKRAramHeap.h</title>
<polygon fill="white" stroke="transparent" points="-4,4 -4,-281 603.44,-281 603.44,4 -4,4"/>
<!-- Node1 -->
<g id="node1" class="node">
<title>Node1</title>
<g id="a_node1"><a xlink:title=" ">
<polygon fill="#bfbfbf" stroke="black" points="124.94,-246.5 124.94,-276.5 285.94,-276.5 285.94,-246.5 124.94,-246.5"/>
<text text-anchor="start" x="132.94" y="-264.5" font-family="Helvetica,sans-Serif" font-size="10.00">include/JSystem/JKernel</text>
<text text-anchor="middle" x="205.44" y="-253.5" font-family="Helvetica,sans-Serif" font-size="10.00">/JKRAramHeap/JKRAramHeap.h</text>
</a>
</g>
</g>
<!-- Node2 -->
<g id="node2" class="node">
<title>Node2</title>
<g id="a_node2"><a xlink:href="JKRAramBlock_8h.html" target="_top" xlink:title=" ">
<polygon fill="white" stroke="black" points="15.94,-123.5 15.94,-153.5 176.94,-153.5 176.94,-123.5 15.94,-123.5"/>
<text text-anchor="start" x="23.94" y="-141.5" font-family="Helvetica,sans-Serif" font-size="10.00">JSystem/JKernel/JKRAramBlock</text>
<text text-anchor="middle" x="96.44" y="-130.5" font-family="Helvetica,sans-Serif" font-size="10.00">/JKRAramBlock.h</text>
</a>
</g>
</g>
<!-- Node1&#45;&gt;Node2 -->
<g id="edge1" class="edge">
<title>Node1&#45;&gt;Node2</title>
<path fill="none" stroke="midnightblue" d="M192.51,-246.14C173.66,-225.22 138.48,-186.17 116.33,-161.58"/>
<polygon fill="midnightblue" stroke="midnightblue" points="118.65,-158.92 109.35,-153.84 113.45,-163.61 118.65,-158.92"/>
</g>
<!-- Node4 -->
<g id="node4" class="node">
<title>Node4</title>
<g id="a_node4"><a xlink:href="types_8h.html" target="_top" xlink:title=" ">
<polygon fill="white" stroke="black" points="285.94,-0.5 285.94,-19.5 366.94,-19.5 366.94,-0.5 285.94,-0.5"/>
<text text-anchor="middle" x="326.44" y="-7.5" font-family="Helvetica,sans-Serif" font-size="10.00">dolphin/types.h</text>
</a>
</g>
</g>
<!-- Node1&#45;&gt;Node4 -->
<g id="edge8" class="edge">
<title>Node1&#45;&gt;Node4</title>
<path fill="none" stroke="midnightblue" d="M144.14,-246.48C74.41,-227.2 -25.88,-187.36 6.44,-123 28.82,-78.44 50.84,-76.18 96.44,-56 154.67,-30.23 227.67,-19.15 275.62,-14.43"/>
<polygon fill="midnightblue" stroke="midnightblue" points="276.11,-17.9 285.75,-13.49 275.47,-10.93 276.11,-17.9"/>
</g>
<!-- Node5 -->
<g id="node5" class="node">
<title>Node5</title>
<g id="a_node5"><a xlink:href="JKRDisposer_8h.html" target="_top" xlink:title=" ">
<polygon fill="white" stroke="black" points="194.94,-123.5 194.94,-153.5 345.94,-153.5 345.94,-123.5 194.94,-123.5"/>
<text text-anchor="start" x="202.94" y="-141.5" font-family="Helvetica,sans-Serif" font-size="10.00">JSystem/JKernel/JKRDisposer</text>
<text text-anchor="middle" x="270.44" y="-130.5" font-family="Helvetica,sans-Serif" font-size="10.00">/JKRDisposer.h</text>
</a>
</g>
</g>
<!-- Node1&#45;&gt;Node5 -->
<g id="edge5" class="edge">
<title>Node1&#45;&gt;Node5</title>
<path fill="none" stroke="midnightblue" d="M213.15,-246.14C224.19,-225.59 244.64,-187.53 257.88,-162.87"/>
<polygon fill="midnightblue" stroke="midnightblue" points="261.09,-164.3 262.74,-153.84 254.92,-160.99 261.09,-164.3"/>
</g>
<!-- Node6 -->
<g id="node6" class="node">
<title>Node6</title>
<g id="a_node6"><a xlink:href="global_8h.html" target="_top" xlink:title=" ">
<polygon fill="white" stroke="black" points="406.44,-190.5 406.44,-209.5 456.44,-209.5 456.44,-190.5 406.44,-190.5"/>
<text text-anchor="middle" x="431.44" y="-197.5" font-family="Helvetica,sans-Serif" font-size="10.00">global.h</text>
</a>
</g>
</g>
<!-- Node1&#45;&gt;Node6 -->
<g id="edge9" class="edge">
<title>Node1&#45;&gt;Node6</title>
<path fill="none" stroke="midnightblue" d="M258.71,-246.47C301.3,-235.26 359.76,-219.87 396.57,-210.18"/>
<polygon fill="midnightblue" stroke="midnightblue" points="397.56,-213.54 406.34,-207.61 395.78,-206.77 397.56,-213.54"/>
</g>
<!-- Node3 -->
<g id="node3" class="node">
<title>Node3</title>
<g id="a_node3"><a xlink:href="JSUList_8h.html" target="_top" xlink:title=" ">
<polygon fill="white" stroke="black" points="124.44,-56.5 124.44,-86.5 260.44,-86.5 260.44,-56.5 124.44,-56.5"/>
<text text-anchor="start" x="132.44" y="-74.5" font-family="Helvetica,sans-Serif" font-size="10.00">JSystem/JSupport/JSUList</text>
<text text-anchor="middle" x="192.44" y="-63.5" font-family="Helvetica,sans-Serif" font-size="10.00">/JSUList.h</text>
</a>
</g>
</g>
<!-- Node2&#45;&gt;Node3 -->
<g id="edge2" class="edge">
<title>Node2&#45;&gt;Node3</title>
<path fill="none" stroke="midnightblue" d="M117.27,-123.4C130.73,-114.28 148.44,-102.29 163.29,-92.24"/>
<polygon fill="midnightblue" stroke="midnightblue" points="165.33,-95.08 171.65,-86.58 161.41,-89.28 165.33,-95.08"/>
</g>
<!-- Node2&#45;&gt;Node4 -->
<g id="edge4" class="edge">
<title>Node2&#45;&gt;Node4</title>
<path fill="none" stroke="midnightblue" d="M95.48,-123.22C95.1,-104.99 97.39,-73.71 115.44,-56 137.73,-34.13 220.51,-21.66 275.51,-15.62"/>
<polygon fill="midnightblue" stroke="midnightblue" points="276.2,-19.07 285.78,-14.53 275.47,-12.1 276.2,-19.07"/>
</g>
<!-- Node3&#45;&gt;Node4 -->
<g id="edge3" class="edge">
<title>Node3&#45;&gt;Node4</title>
<path fill="none" stroke="midnightblue" d="M224.19,-56.4C246.48,-46.51 276.03,-33.38 297.63,-23.79"/>
<polygon fill="midnightblue" stroke="midnightblue" points="299.22,-26.91 306.94,-19.66 296.38,-20.52 299.22,-26.91"/>
</g>
<!-- Node5&#45;&gt;Node3 -->
<g id="edge6" class="edge">
<title>Node5&#45;&gt;Node3</title>
<path fill="none" stroke="midnightblue" d="M253.51,-123.4C242.88,-114.54 228.99,-102.96 217.14,-93.09"/>
<polygon fill="midnightblue" stroke="midnightblue" points="219.25,-90.29 209.33,-86.58 214.77,-95.67 219.25,-90.29"/>
</g>
<!-- Node5&#45;&gt;Node4 -->
<g id="edge7" class="edge">
<title>Node5&#45;&gt;Node4</title>
<path fill="none" stroke="midnightblue" d="M276.64,-123.48C286.86,-100.41 307.19,-54.48 318.46,-29.03"/>
<polygon fill="midnightblue" stroke="midnightblue" points="321.7,-30.35 322.55,-19.79 315.3,-27.52 321.7,-30.35"/>
</g>
<!-- Node6&#45;&gt;Node4 -->
<g id="edge10" class="edge">
<title>Node6&#45;&gt;Node4</title>
<path fill="none" stroke="midnightblue" d="M422.66,-190.29C405.24,-172.5 366.23,-130.05 345.44,-87 336.59,-68.67 331.59,-45.79 328.97,-29.95"/>
<polygon fill="midnightblue" stroke="midnightblue" points="332.39,-29.2 327.46,-19.83 325.47,-30.24 332.39,-29.2"/>
</g>
<!-- Node7 -->
<g id="node7" class="node">
<title>Node7</title>
<g id="a_node7"><a xlink:href="AR_8h.html" target="_top" xlink:title=" ">
<polygon fill="white" stroke="black" points="354.94,-62 354.94,-81 403.94,-81 403.94,-62 354.94,-62"/>
<text text-anchor="middle" x="379.44" y="-69" font-family="Helvetica,sans-Serif" font-size="10.00">ar/AR.h</text>
</a>
</g>
</g>
<!-- Node6&#45;&gt;Node7 -->
<g id="edge11" class="edge">
<title>Node6&#45;&gt;Node7</title>
<path fill="none" stroke="midnightblue" d="M427.86,-190.31C419.44,-169.81 398.2,-118.15 386.85,-90.54"/>
<polygon fill="midnightblue" stroke="midnightblue" points="390.08,-89.17 383.04,-81.26 383.6,-91.84 390.08,-89.17"/>
</g>
<!-- Node8 -->
<g id="node8" class="node">
<title>Node8</title>
<g id="a_node8"><a xlink:href="ARQ_8h.html" target="_top" xlink:title=" ">
<polygon fill="white" stroke="black" points="422.44,-62 422.44,-81 478.44,-81 478.44,-62 422.44,-62"/>
<text text-anchor="middle" x="450.44" y="-69" font-family="Helvetica,sans-Serif" font-size="10.00">ar/ARQ.h</text>
</a>
</g>
</g>
<!-- Node6&#45;&gt;Node8 -->
<g id="edge13" class="edge">
<title>Node6&#45;&gt;Node8</title>
<path fill="none" stroke="midnightblue" d="M432.74,-190.31C435.79,-169.99 443.45,-119.05 447.62,-91.28"/>
<polygon fill="midnightblue" stroke="midnightblue" points="451.1,-91.66 449.12,-81.26 444.18,-90.62 451.1,-91.66"/>
</g>
<!-- Node9 -->
<g id="node9" class="node">
<title>Node9</title>
<g id="a_node9"><a xlink:href="mwcc_8h.html" target="_top" xlink:title=" ">
<polygon fill="white" stroke="black" points="549.44,-129 549.44,-148 599.44,-148 599.44,-129 549.44,-129"/>
<text text-anchor="middle" x="574.44" y="-136" font-family="Helvetica,sans-Serif" font-size="10.00">mwcc.h</text>
</a>
</g>
</g>
<!-- Node6&#45;&gt;Node9 -->
<g id="edge15" class="edge">
<title>Node6&#45;&gt;Node9</title>
<path fill="none" stroke="midnightblue" d="M452.36,-190.44C474.33,-181.45 509.86,-166.83 540.44,-154 541.84,-153.41 543.28,-152.81 544.73,-152.19"/>
<polygon fill="midnightblue" stroke="midnightblue" points="546.48,-155.25 554.32,-148.13 543.75,-148.81 546.48,-155.25"/>
</g>
<!-- Node10 -->
<g id="node10" class="node">
<title>Node10</title>
<g id="a_node10"><a xlink:href="OS_8h.html" target="_top" xlink:title=" ">
<polygon fill="white" stroke="black" points="479.44,-129 479.44,-148 531.44,-148 531.44,-129 479.44,-129"/>
<text text-anchor="middle" x="505.44" y="-136" font-family="Helvetica,sans-Serif" font-size="10.00">os/OS.h</text>
</a>
</g>
</g>
<!-- Node6&#45;&gt;Node10 -->
<g id="edge16" class="edge">
<title>Node6&#45;&gt;Node10</title>
<path fill="none" stroke="midnightblue" d="M442.04,-190.48C453.69,-181.11 472.62,-165.88 486.77,-154.51"/>
<polygon fill="midnightblue" stroke="midnightblue" points="489.26,-157 494.86,-148.01 484.87,-151.55 489.26,-157"/>
</g>
<!-- Node7&#45;&gt;Node4 -->
<g id="edge12" class="edge">
<title>Node7&#45;&gt;Node4</title>
<path fill="none" stroke="midnightblue" d="M371.84,-61.98C363.74,-52.87 350.7,-38.24 340.67,-26.98"/>
<polygon fill="midnightblue" stroke="midnightblue" points="343.28,-24.65 334.02,-19.51 338.06,-29.3 343.28,-24.65"/>
</g>
<!-- Node8&#45;&gt;Node4 -->
<g id="edge14" class="edge">
<title>Node8&#45;&gt;Node4</title>
<path fill="none" stroke="midnightblue" d="M432.67,-61.98C411.95,-52.03 377.49,-35.49 353.45,-23.96"/>
<polygon fill="midnightblue" stroke="midnightblue" points="354.7,-20.68 344.17,-19.51 351.67,-26.99 354.7,-20.68"/>
</g>
<!-- Node10&#45;&gt;Node4 -->
<g id="edge17" class="edge">
<title>Node10&#45;&gt;Node4</title>
<path fill="none" stroke="midnightblue" d="M506.2,-128.81C507.13,-112.32 506.66,-76.31 487.44,-56 459.21,-26.17 412.98,-15.56 377.29,-12.05"/>
<polygon fill="midnightblue" stroke="midnightblue" points="377.31,-8.54 367.05,-11.2 376.73,-15.52 377.31,-8.54"/>
</g>
<!-- Node11 -->
<g id="node11" class="node">
<title>Node11</title>
<g id="a_node11"><a xlink:href="dvd_8h.html" target="_top" xlink:title=" ">
<polygon fill="white" stroke="black" points="534.94,-62 534.94,-81 593.94,-81 593.94,-62 534.94,-62"/>
<text text-anchor="middle" x="564.44" y="-69" font-family="Helvetica,sans-Serif" font-size="10.00">dvd/dvd.h</text>
</a>
</g>
</g>
<!-- Node10&#45;&gt;Node11 -->
<g id="edge18" class="edge">
<title>Node10&#45;&gt;Node11</title>
<path fill="none" stroke="midnightblue" d="M513.39,-128.73C522.68,-118.5 538.24,-101.36 549.74,-88.69"/>
<polygon fill="midnightblue" stroke="midnightblue" points="552.48,-90.88 556.61,-81.13 547.29,-86.18 552.48,-90.88"/>
</g>
<!-- Node11&#45;&gt;Node4 -->
<g id="edge19" class="edge">
<title>Node11&#45;&gt;Node4</title>
<path fill="none" stroke="midnightblue" d="M539.89,-61.98C533.59,-59.91 526.79,-57.78 520.44,-56 472.2,-42.49 416.42,-29.86 377.09,-21.44"/>
<polygon fill="midnightblue" stroke="midnightblue" points="377.72,-17.99 367.21,-19.34 376.26,-24.84 377.72,-17.99"/>
</g>
</g>
</svg>
