<?xml version="1.0" encoding="UTF-8" standalone="no"?>
<!DOCTYPE svg PUBLIC "-//W3C//DTD SVG 1.1//EN"
 "http://www.w3.org/Graphics/SVG/1.1/DTD/svg11.dtd">
<!-- Generated by graphviz version 2.44.0 ()
 -->
<!-- Title: libs/JSystem/JKernel/JKRAram.cpp Pages: 1 -->
<svg width="1835pt" height="553pt"
 viewBox="0.00 0.00 1835.00 553.00" xmlns="http://www.w3.org/2000/svg" xmlns:xlink="http://www.w3.org/1999/xlink">
<g id="graph0" class="graph" transform="scale(1 1) rotate(0) translate(4 549)">
<title>libs/JSystem/JKernel/JKRAram.cpp</title>
<polygon fill="white" stroke="transparent" points="-4,4 -4,-549 1831,-549 1831,4 -4,4"/>
<!-- Node1 -->
<g id="node1" class="node">
<title>Node1</title>
<g id="a_node1"><a xlink:title=" ">
<polygon fill="#bfbfbf" stroke="black" points="838.5,-514.5 838.5,-544.5 947.5,-544.5 947.5,-514.5 838.5,-514.5"/>
<text text-anchor="start" x="846.5" y="-532.5" font-family="Helvetica,sans-Serif" font-size="10.00">libs/JSystem/JKernel</text>
<text text-anchor="middle" x="893" y="-521.5" font-family="Helvetica,sans-Serif" font-size="10.00">/JKRAram.cpp</text>
</a>
</g>
</g>
<!-- Node2 -->
<g id="node2" class="node">
<title>Node2</title>
<g id="a_node2"><a xlink:href="JKRAram_8h.html" target="_top" xlink:title=" ">
<polygon fill="white" stroke="black" points="373,-447.5 373,-477.5 509,-477.5 509,-447.5 373,-447.5"/>
<text text-anchor="start" x="381" y="-465.5" font-family="Helvetica,sans-Serif" font-size="10.00">JSystem/JKernel/JKRAram</text>
<text text-anchor="middle" x="441" y="-454.5" font-family="Helvetica,sans-Serif" font-size="10.00">/JKRAram.h</text>
</a>
</g>
</g>
<!-- Node1&#45;&gt;Node2 -->
<g id="edge1" class="edge">
<title>Node1&#45;&gt;Node2</title>
<path fill="none" stroke="midnightblue" d="M838.48,-520.66C758.93,-509.22 610.61,-487.89 519.37,-474.77"/>
<polygon fill="midnightblue" stroke="midnightblue" points="519.75,-471.29 509.36,-473.33 518.76,-478.22 519.75,-471.29"/>
</g>
<!-- Node3 -->
<g id="node3" class="node">
<title>Node3</title>
<g id="a_node3"><a xlink:href="JKRAramHeap_8h.html" target="_top" xlink:title=" ">
<polygon fill="white" stroke="black" points="516.5,-246.5 516.5,-276.5 675.5,-276.5 675.5,-246.5 516.5,-246.5"/>
<text text-anchor="start" x="524.5" y="-264.5" font-family="Helvetica,sans-Serif" font-size="10.00">JSystem/JKernel/JKRAramHeap</text>
<text text-anchor="middle" x="596" y="-253.5" font-family="Helvetica,sans-Serif" font-size="10.00">/JKRAramHeap.h</text>
</a>
</g>
</g>
<!-- Node1&#45;&gt;Node3 -->
<g id="edge38" class="edge">
<title>Node1&#45;&gt;Node3</title>
<path fill="none" stroke="midnightblue" d="M838.28,-526.76C795.49,-522.73 736.76,-510.97 697,-478 635.88,-427.32 609.61,-331.3 600.31,-286.57"/>
<polygon fill="midnightblue" stroke="midnightblue" points="603.71,-285.74 598.34,-276.6 596.84,-287.09 603.71,-285.74"/>
</g>
<!-- Node4 -->
<g id="node4" class="node">
<title>Node4</title>
<g id="a_node4"><a xlink:href="JKRAramBlock_8h.html" target="_top" xlink:title=" ">
<polygon fill="white" stroke="black" points="807.5,-179.5 807.5,-209.5 968.5,-209.5 968.5,-179.5 807.5,-179.5"/>
<text text-anchor="start" x="815.5" y="-197.5" font-family="Helvetica,sans-Serif" font-size="10.00">JSystem/JKernel/JKRAramBlock</text>
<text text-anchor="middle" x="888" y="-186.5" font-family="Helvetica,sans-Serif" font-size="10.00">/JKRAramBlock.h</text>
</a>
</g>
</g>
<!-- Node1&#45;&gt;Node4 -->
<g id="edge37" class="edge">
<title>Node1&#45;&gt;Node4</title>
<path fill="none" stroke="midnightblue" d="M867.98,-514.39C834.42,-493.4 779,-450.55 779,-396.5 779,-396.5 779,-396.5 779,-327.5 779,-289.86 779,-275.79 802,-246 812.34,-232.61 827.32,-222.08 841.88,-214.18"/>
<polygon fill="midnightblue" stroke="midnightblue" points="843.54,-217.27 850.86,-209.6 840.36,-211.03 843.54,-217.27"/>
</g>
<!-- Node19 -->
<g id="node19" class="node">
<title>Node19</title>
<g id="a_node19"><a xlink:href="JKRAramPiece_8h.html" target="_top" xlink:title=" ">
<polygon fill="white" stroke="black" points="459.5,-179.5 459.5,-209.5 620.5,-209.5 620.5,-179.5 459.5,-179.5"/>
<text text-anchor="start" x="467.5" y="-197.5" font-family="Helvetica,sans-Serif" font-size="10.00">JSystem/JKernel/JKRAramPiece</text>
<text text-anchor="middle" x="540" y="-186.5" font-family="Helvetica,sans-Serif" font-size="10.00">/JKRAramPiece.h</text>
</a>
</g>
</g>
<!-- Node1&#45;&gt;Node19 -->
<g id="edge39" class="edge">
<title>Node1&#45;&gt;Node19</title>
<path fill="none" stroke="midnightblue" d="M839.38,-514.41C785.69,-496.68 711,-460.51 711,-396.5 711,-396.5 711,-396.5 711,-327.5 711,-289.34 710.75,-273.22 684,-246 669.17,-230.91 649.58,-220.32 629.65,-212.89"/>
<polygon fill="midnightblue" stroke="midnightblue" points="630.76,-209.58 620.17,-209.6 628.46,-216.19 630.76,-209.58"/>
</g>
<!-- Node20 -->
<g id="node20" class="node">
<title>Node20</title>
<g id="a_node20"><a xlink:href="JKRAramStream_8h.html" target="_top" xlink:title=" ">
<polygon fill="white" stroke="black" points="989.5,-313.5 989.5,-343.5 1156.5,-343.5 1156.5,-313.5 989.5,-313.5"/>
<text text-anchor="start" x="997.5" y="-331.5" font-family="Helvetica,sans-Serif" font-size="10.00">JSystem/JKernel/JKRAramStream</text>
<text text-anchor="middle" x="1073" y="-320.5" font-family="Helvetica,sans-Serif" font-size="10.00">/JKRAramStream.h</text>
</a>
</g>
</g>
<!-- Node1&#45;&gt;Node20 -->
<g id="edge44" class="edge">
<title>Node1&#45;&gt;Node20</title>
<path fill="none" stroke="midnightblue" d="M888.85,-514.24C884.73,-497.14 880.52,-468.14 892,-447 919.09,-397.11 977.53,-365.11 1020.72,-347.31"/>
<polygon fill="midnightblue" stroke="midnightblue" points="1022.24,-350.46 1030.23,-343.51 1019.65,-343.96 1022.24,-350.46"/>
</g>
<!-- Node25 -->
<g id="node25" class="node">
<title>Node25</title>
<g id="a_node25"><a xlink:href="JKRExpHeap_8h.html" target="_top" xlink:title=" ">
<polygon fill="white" stroke="black" points="807,-313.5 807,-343.5 959,-343.5 959,-313.5 807,-313.5"/>
<text text-anchor="start" x="815" y="-331.5" font-family="Helvetica,sans-Serif" font-size="10.00">JSystem/JKernel/JKRExpHeap</text>
<text text-anchor="middle" x="883" y="-320.5" font-family="Helvetica,sans-Serif" font-size="10.00">/JKRExpHeap.h</text>
</a>
</g>
</g>
<!-- Node1&#45;&gt;Node25 -->
<g id="edge56" class="edge">
<title>Node1&#45;&gt;Node25</title>
<path fill="none" stroke="midnightblue" d="M871.7,-514.38C860.27,-505.46 847.27,-492.84 841,-478 824.04,-437.88 826.19,-420.96 841,-380 844.88,-369.27 852.14,-359.22 859.54,-350.95"/>
<polygon fill="midnightblue" stroke="midnightblue" points="862.19,-353.24 866.59,-343.6 857.14,-348.4 862.19,-353.24"/>
</g>
<!-- Node27 -->
<g id="node27" class="node">
<title>Node27</title>
<g id="a_node27"><a xlink:href="string_8h.html" target="_top" xlink:title=" ">
<polygon fill="white" stroke="black" points="1135.5,-386 1135.5,-405 1212.5,-405 1212.5,-386 1135.5,-386"/>
<text text-anchor="middle" x="1174" y="-393" font-family="Helvetica,sans-Serif" font-size="10.00">msl_c/string.h</text>
</a>
</g>
</g>
<!-- Node1&#45;&gt;Node27 -->
<g id="edge62" class="edge">
<title>Node1&#45;&gt;Node27</title>
<path fill="none" stroke="midnightblue" d="M892,-514.48C891.53,-496.24 893.68,-464.63 912,-447 941.83,-418.31 1057.66,-405.06 1124.91,-399.68"/>
<polygon fill="midnightblue" stroke="midnightblue" points="1125.56,-403.14 1135.26,-398.89 1125.03,-396.16 1125.56,-403.14"/>
</g>
<!-- Node28 -->
<g id="node28" class="node">
<title>Node28</title>
<g id="a_node28"><a xlink:title=" ">
<polygon fill="white" stroke="#bfbfbf" points="921,-447.5 921,-477.5 1057,-477.5 1057,-447.5 921,-447.5"/>
<text text-anchor="start" x="929" y="-465.5" font-family="Helvetica,sans-Serif" font-size="10.00">JSystem/JKernel/JKRAram</text>
<text text-anchor="middle" x="989" y="-454.5" font-family="Helvetica,sans-Serif" font-size="10.00">/asm/func_802D21DC.s</text>
</a>
</g>
</g>
<!-- Node1&#45;&gt;Node28 -->
<g id="edge64" class="edge">
<title>Node1&#45;&gt;Node28</title>
<path fill="none" stroke="midnightblue" d="M913.83,-514.4C927.29,-505.28 945,-493.29 959.85,-483.24"/>
<polygon fill="midnightblue" stroke="midnightblue" points="961.89,-486.08 968.21,-477.58 957.97,-480.28 961.89,-486.08"/>
</g>
<!-- Node29 -->
<g id="node29" class="node">
<title>Node29</title>
<g id="a_node29"><a xlink:title=" ">
<polygon fill="white" stroke="#bfbfbf" points="1075,-447.5 1075,-477.5 1211,-477.5 1211,-447.5 1075,-447.5"/>
<text text-anchor="start" x="1083" y="-465.5" font-family="Helvetica,sans-Serif" font-size="10.00">JSystem/JKernel/JKRAram</text>
<text text-anchor="middle" x="1143" y="-454.5" font-family="Helvetica,sans-Serif" font-size="10.00">/asm/func_802D233C.s</text>
</a>
</g>
</g>
<!-- Node1&#45;&gt;Node29 -->
<g id="edge65" class="edge">
<title>Node1&#45;&gt;Node29</title>
<path fill="none" stroke="midnightblue" d="M946.94,-514.48C985.66,-504.41 1038,-490.8 1078.87,-480.17"/>
<polygon fill="midnightblue" stroke="midnightblue" points="1079.93,-483.51 1088.73,-477.61 1078.17,-476.74 1079.93,-483.51"/>
</g>
<!-- Node30 -->
<g id="node30" class="node">
<title>Node30</title>
<g id="a_node30"><a xlink:title=" ">
<polygon fill="white" stroke="#bfbfbf" points="1229,-447.5 1229,-477.5 1365,-477.5 1365,-447.5 1229,-447.5"/>
<text text-anchor="start" x="1237" y="-465.5" font-family="Helvetica,sans-Serif" font-size="10.00">JSystem/JKernel/JKRAram</text>
<text text-anchor="middle" x="1297" y="-454.5" font-family="Helvetica,sans-Serif" font-size="10.00">/asm/func_802D25B4.s</text>
</a>
</g>
</g>
<!-- Node1&#45;&gt;Node30 -->
<g id="edge66" class="edge">
<title>Node1&#45;&gt;Node30</title>
<path fill="none" stroke="midnightblue" d="M947.77,-520.6C1010.69,-511.41 1117.31,-495.44 1218.5,-478.23"/>
<polygon fill="midnightblue" stroke="midnightblue" points="1219.32,-481.64 1228.59,-476.5 1218.14,-474.74 1219.32,-481.64"/>
</g>
<!-- Node31 -->
<g id="node31" class="node">
<title>Node31</title>
<g id="a_node31"><a xlink:title=" ">
<polygon fill="white" stroke="#bfbfbf" points="1383,-447.5 1383,-477.5 1519,-477.5 1519,-447.5 1383,-447.5"/>
<text text-anchor="start" x="1391" y="-465.5" font-family="Helvetica,sans-Serif" font-size="10.00">JSystem/JKernel/JKRAram</text>
<text text-anchor="middle" x="1451" y="-454.5" font-family="Helvetica,sans-Serif" font-size="10.00">/asm/func_802D2830.s</text>
</a>
</g>
</g>
<!-- Node1&#45;&gt;Node31 -->
<g id="edge67" class="edge">
<title>Node1&#45;&gt;Node31</title>
<path fill="none" stroke="midnightblue" d="M947.64,-524.22C1035.22,-517.05 1212.63,-501.2 1372.59,-478.14"/>
<polygon fill="midnightblue" stroke="midnightblue" points="1373.22,-481.58 1382.61,-476.68 1372.22,-474.65 1373.22,-481.58"/>
</g>
<!-- Node32 -->
<g id="node32" class="node">
<title>Node32</title>
<g id="a_node32"><a xlink:title=" ">
<polygon fill="white" stroke="#bfbfbf" points="1537,-447.5 1537,-477.5 1673,-477.5 1673,-447.5 1537,-447.5"/>
<text text-anchor="start" x="1545" y="-465.5" font-family="Helvetica,sans-Serif" font-size="10.00">JSystem/JKernel/JKRAram</text>
<text text-anchor="middle" x="1605" y="-454.5" font-family="Helvetica,sans-Serif" font-size="10.00">/asm/func_802D29A0.s</text>
</a>
</g>
</g>
<!-- Node1&#45;&gt;Node32 -->
<g id="edge68" class="edge">
<title>Node1&#45;&gt;Node32</title>
<path fill="none" stroke="midnightblue" d="M947.57,-526.13C1056.03,-520.98 1306.51,-506.98 1526.51,-478.11"/>
<polygon fill="midnightblue" stroke="midnightblue" points="1527.17,-481.55 1536.63,-476.77 1526.25,-474.61 1527.17,-481.55"/>
</g>
<!-- Node33 -->
<g id="node33" class="node">
<title>Node33</title>
<g id="a_node33"><a xlink:title=" ">
<polygon fill="white" stroke="#bfbfbf" points="1691,-447.5 1691,-477.5 1827,-477.5 1827,-447.5 1691,-447.5"/>
<text text-anchor="start" x="1699" y="-465.5" font-family="Helvetica,sans-Serif" font-size="10.00">JSystem/JKernel/JKRAram</text>
<text text-anchor="middle" x="1759" y="-454.5" font-family="Helvetica,sans-Serif" font-size="10.00">/asm/func_802D2CE4.s</text>
</a>
</g>
</g>
<!-- Node1&#45;&gt;Node33 -->
<g id="edge69" class="edge">
<title>Node1&#45;&gt;Node33</title>
<path fill="none" stroke="midnightblue" d="M947.74,-527.3C1074.83,-524.01 1399.85,-512.76 1680.66,-478.07"/>
<polygon fill="midnightblue" stroke="midnightblue" points="1681.14,-481.53 1690.63,-476.82 1680.28,-474.59 1681.14,-481.53"/>
</g>
<!-- Node2&#45;&gt;Node3 -->
<g id="edge2" class="edge">
<title>Node2&#45;&gt;Node3</title>
<path fill="none" stroke="midnightblue" d="M455.05,-447.33C464.65,-437.43 477.49,-423.76 488,-411 523.27,-368.19 560.49,-314.97 580.71,-285.27"/>
<polygon fill="midnightblue" stroke="midnightblue" points="583.71,-287.09 586.42,-276.85 577.92,-283.16 583.71,-287.09"/>
</g>
<!-- Node6 -->
<g id="node6" class="node">
<title>Node6</title>
<g id="a_node6"><a xlink:href="types_8h.html" target="_top" xlink:title=" ">
<polygon fill="white" stroke="black" points="616.5,-0.5 616.5,-19.5 697.5,-19.5 697.5,-0.5 616.5,-0.5"/>
<text text-anchor="middle" x="657" y="-7.5" font-family="Helvetica,sans-Serif" font-size="10.00">dolphin/types.h</text>
</a>
</g>
</g>
<!-- Node2&#45;&gt;Node6 -->
<g id="edge35" class="edge">
<title>Node2&#45;&gt;Node6</title>
<path fill="none" stroke="midnightblue" d="M372.58,-455.31C248.71,-442.2 0,-406.32 0,-329.5 0,-329.5 0,-329.5 0,-126.5 0,-91.9 4.5,-75.61 33,-56 79.76,-23.84 466.15,-14.2 606.39,-11.74"/>
<polygon fill="midnightblue" stroke="midnightblue" points="606.51,-15.24 616.45,-11.57 606.39,-8.24 606.51,-15.24"/>
</g>
<!-- Node8 -->
<g id="node8" class="node">
<title>Node8</title>
<g id="a_node8"><a xlink:href="global_8h.html" target="_top" xlink:title=" ">
<polygon fill="white" stroke="black" points="353,-185 353,-204 403,-204 403,-185 353,-185"/>
<text text-anchor="middle" x="378" y="-192" font-family="Helvetica,sans-Serif" font-size="10.00">global.h</text>
</a>
</g>
</g>
<!-- Node2&#45;&gt;Node8 -->
<g id="edge36" class="edge">
<title>Node2&#45;&gt;Node8</title>
<path fill="none" stroke="midnightblue" d="M446.67,-447.31C460.13,-411.17 490.31,-313.72 454,-246 444.8,-228.84 426.92,-216.52 410.82,-208.35"/>
<polygon fill="midnightblue" stroke="midnightblue" points="412.15,-205.11 401.62,-204.01 409.17,-211.44 412.15,-205.11"/>
</g>
<!-- Node14 -->
<g id="node14" class="node">
<title>Node14</title>
<g id="a_node14"><a xlink:href="JKRDvdRipper_8h.html" target="_top" xlink:title=" ">
<polygon fill="white" stroke="black" points="191,-380.5 191,-410.5 349,-410.5 349,-380.5 191,-380.5"/>
<text text-anchor="start" x="199" y="-398.5" font-family="Helvetica,sans-Serif" font-size="10.00">JSystem/JKernel/JKRDvdRipper</text>
<text text-anchor="middle" x="270" y="-387.5" font-family="Helvetica,sans-Serif" font-size="10.00">/JKRDvdRipper.h</text>
</a>
</g>
</g>
<!-- Node2&#45;&gt;Node14 -->
<g id="edge22" class="edge">
<title>Node2&#45;&gt;Node14</title>
<path fill="none" stroke="midnightblue" d="M403.9,-447.4C378.24,-437.64 343.91,-424.59 316.44,-414.15"/>
<polygon fill="midnightblue" stroke="midnightblue" points="317.62,-410.86 307.03,-410.58 315.14,-417.4 317.62,-410.86"/>
</g>
<!-- Node18 -->
<g id="node18" class="node">
<title>Node18</title>
<g id="a_node18"><a xlink:href="JKRThread_8h.html" target="_top" xlink:title=" ">
<polygon fill="white" stroke="black" points="302.5,-246.5 302.5,-276.5 445.5,-276.5 445.5,-246.5 302.5,-246.5"/>
<text text-anchor="start" x="310.5" y="-264.5" font-family="Helvetica,sans-Serif" font-size="10.00">JSystem/JKernel/JKRThread</text>
<text text-anchor="middle" x="374" y="-253.5" font-family="Helvetica,sans-Serif" font-size="10.00">/JKRThread.h</text>
</a>
</g>
</g>
<!-- Node2&#45;&gt;Node18 -->
<g id="edge34" class="edge">
<title>Node2&#45;&gt;Node18</title>
<path fill="none" stroke="midnightblue" d="M436.18,-447.19C424.79,-413.34 396.08,-328.08 382.02,-286.31"/>
<polygon fill="midnightblue" stroke="midnightblue" points="385.28,-285.04 378.77,-276.68 378.65,-287.28 385.28,-285.04"/>
</g>
<!-- Node3&#45;&gt;Node4 -->
<g id="edge3" class="edge">
<title>Node3&#45;&gt;Node4</title>
<path fill="none" stroke="midnightblue" d="M659,-246.48C704.78,-236.28 766.87,-222.46 814.85,-211.78"/>
<polygon fill="midnightblue" stroke="midnightblue" points="815.86,-215.14 824.86,-209.55 814.34,-208.31 815.86,-215.14"/>
</g>
<!-- Node3&#45;&gt;Node6 -->
<g id="edge10" class="edge">
<title>Node3&#45;&gt;Node6</title>
<path fill="none" stroke="midnightblue" d="M516.38,-251.33C490.98,-244.21 465.48,-231.74 450,-210 442.01,-198.78 446.04,-192.2 450,-179 452.35,-171.16 524.57,-61.05 531,-56 552.84,-38.85 581.75,-27.91 606.37,-21.11"/>
<polygon fill="midnightblue" stroke="midnightblue" points="607.48,-24.44 616.28,-18.53 605.72,-17.66 607.48,-24.44"/>
</g>
<!-- Node7 -->
<g id="node7" class="node">
<title>Node7</title>
<g id="a_node7"><a xlink:href="JKRDisposer_8h.html" target="_top" xlink:title=" ">
<polygon fill="white" stroke="black" points="638.5,-179.5 638.5,-209.5 789.5,-209.5 789.5,-179.5 638.5,-179.5"/>
<text text-anchor="start" x="646.5" y="-197.5" font-family="Helvetica,sans-Serif" font-size="10.00">JSystem/JKernel/JKRDisposer</text>
<text text-anchor="middle" x="714" y="-186.5" font-family="Helvetica,sans-Serif" font-size="10.00">/JKRDisposer.h</text>
</a>
</g>
</g>
<!-- Node3&#45;&gt;Node7 -->
<g id="edge7" class="edge">
<title>Node3&#45;&gt;Node7</title>
<path fill="none" stroke="midnightblue" d="M621.6,-246.4C638.54,-237.07 660.94,-224.73 679.45,-214.53"/>
<polygon fill="midnightblue" stroke="midnightblue" points="681.38,-217.47 688.45,-209.58 678,-211.34 681.38,-217.47"/>
</g>
<!-- Node3&#45;&gt;Node8 -->
<g id="edge11" class="edge">
<title>Node3&#45;&gt;Node8</title>
<path fill="none" stroke="midnightblue" d="M542,-246.49C506.3,-236.93 458.59,-223.57 417,-210 414.6,-209.22 412.12,-208.37 409.64,-207.51"/>
<polygon fill="midnightblue" stroke="midnightblue" points="410.76,-204.19 400.16,-204.09 408.39,-210.78 410.76,-204.19"/>
</g>
<!-- Node5 -->
<g id="node5" class="node">
<title>Node5</title>
<g id="a_node5"><a xlink:href="JSUList_8h.html" target="_top" xlink:title=" ">
<polygon fill="white" stroke="black" points="742,-112.5 742,-142.5 878,-142.5 878,-112.5 742,-112.5"/>
<text text-anchor="start" x="750" y="-130.5" font-family="Helvetica,sans-Serif" font-size="10.00">JSystem/JSupport/JSUList</text>
<text text-anchor="middle" x="810" y="-119.5" font-family="Helvetica,sans-Serif" font-size="10.00">/JSUList.h</text>
</a>
</g>
</g>
<!-- Node4&#45;&gt;Node5 -->
<g id="edge4" class="edge">
<title>Node4&#45;&gt;Node5</title>
<path fill="none" stroke="midnightblue" d="M871.08,-179.4C860.45,-170.54 846.55,-158.96 834.7,-149.09"/>
<polygon fill="midnightblue" stroke="midnightblue" points="836.81,-146.29 826.89,-142.58 832.33,-151.67 836.81,-146.29"/>
</g>
<!-- Node4&#45;&gt;Node6 -->
<g id="edge6" class="edge">
<title>Node4&#45;&gt;Node6</title>
<path fill="none" stroke="midnightblue" d="M892.09,-179.49C896.27,-162.11 900.43,-132.3 887,-112 847.2,-51.87 762.87,-27.28 708.13,-17.4"/>
<polygon fill="midnightblue" stroke="midnightblue" points="708.38,-13.9 697.93,-15.67 707.21,-20.8 708.38,-13.9"/>
</g>
<!-- Node5&#45;&gt;Node6 -->
<g id="edge5" class="edge">
<title>Node5&#45;&gt;Node6</title>
<path fill="none" stroke="midnightblue" d="M794.84,-112.29C778.79,-97.53 752.44,-74.1 728,-56 712.7,-44.67 694.56,-33.2 680.45,-24.68"/>
<polygon fill="midnightblue" stroke="midnightblue" points="682.21,-21.65 671.82,-19.54 678.62,-27.67 682.21,-21.65"/>
</g>
<!-- Node7&#45;&gt;Node5 -->
<g id="edge8" class="edge">
<title>Node7&#45;&gt;Node5</title>
<path fill="none" stroke="midnightblue" d="M734.83,-179.4C748.29,-170.28 766,-158.29 780.85,-148.24"/>
<polygon fill="midnightblue" stroke="midnightblue" points="782.89,-151.08 789.21,-142.58 778.97,-145.28 782.89,-151.08"/>
</g>
<!-- Node7&#45;&gt;Node6 -->
<g id="edge9" class="edge">
<title>Node7&#45;&gt;Node6</title>
<path fill="none" stroke="midnightblue" d="M713.64,-179.24C712.53,-153.58 708.05,-98.36 690,-56 685.59,-45.66 678.4,-35.45 671.86,-27.37"/>
<polygon fill="midnightblue" stroke="midnightblue" points="674.32,-24.87 665.17,-19.54 669,-29.42 674.32,-24.87"/>
</g>
<!-- Node8&#45;&gt;Node6 -->
<g id="edge12" class="edge">
<title>Node8&#45;&gt;Node6</title>
<path fill="none" stroke="midnightblue" d="M374.84,-184.76C366.8,-160.83 348.42,-93.49 381,-56 409.69,-23 534.66,-14.16 606.21,-11.82"/>
<polygon fill="midnightblue" stroke="midnightblue" points="606.47,-15.31 616.36,-11.52 606.27,-8.32 606.47,-15.31"/>
</g>
<!-- Node9 -->
<g id="node9" class="node">
<title>Node9</title>
<g id="a_node9"><a xlink:href="AR_8h.html" target="_top" xlink:title=" ">
<polygon fill="white" stroke="black" points="390.5,-56.5 390.5,-75.5 439.5,-75.5 439.5,-56.5 390.5,-56.5"/>
<text text-anchor="middle" x="415" y="-63.5" font-family="Helvetica,sans-Serif" font-size="10.00">ar/AR.h</text>
</a>
</g>
</g>
<!-- Node8&#45;&gt;Node9 -->
<g id="edge13" class="edge">
<title>Node8&#45;&gt;Node9</title>
<path fill="none" stroke="midnightblue" d="M380.54,-184.81C386.51,-164.4 401.52,-113.1 409.62,-85.41"/>
<polygon fill="midnightblue" stroke="midnightblue" points="412.99,-86.34 412.44,-75.76 406.27,-84.37 412.99,-86.34"/>
</g>
<!-- Node10 -->
<g id="node10" class="node">
<title>Node10</title>
<g id="a_node10"><a xlink:href="ARQ_8h.html" target="_top" xlink:title=" ">
<polygon fill="white" stroke="black" points="588,-118 588,-137 644,-137 644,-118 588,-118"/>
<text text-anchor="middle" x="616" y="-125" font-family="Helvetica,sans-Serif" font-size="10.00">ar/ARQ.h</text>
</a>
</g>
</g>
<!-- Node8&#45;&gt;Node10 -->
<g id="edge15" class="edge">
<title>Node8&#45;&gt;Node10</title>
<path fill="none" stroke="midnightblue" d="M403.04,-188.29C441.35,-180.07 516.63,-162.97 579,-143 581.27,-142.27 583.61,-141.48 585.95,-140.64"/>
<polygon fill="midnightblue" stroke="midnightblue" points="587.28,-143.88 595.42,-137.1 584.83,-137.32 587.28,-143.88"/>
</g>
<!-- Node11 -->
<g id="node11" class="node">
<title>Node11</title>
<g id="a_node11"><a xlink:href="mwcc_8h.html" target="_top" xlink:title=" ">
<polygon fill="white" stroke="black" points="412,-118 412,-137 462,-137 462,-118 412,-118"/>
<text text-anchor="middle" x="437" y="-125" font-family="Helvetica,sans-Serif" font-size="10.00">mwcc.h</text>
</a>
</g>
</g>
<!-- Node8&#45;&gt;Node11 -->
<g id="edge17" class="edge">
<title>Node8&#45;&gt;Node11</title>
<path fill="none" stroke="midnightblue" d="M385.96,-184.73C395.25,-174.5 410.8,-157.36 422.3,-144.69"/>
<polygon fill="midnightblue" stroke="midnightblue" points="425.04,-146.88 429.17,-137.13 419.86,-142.18 425.04,-146.88"/>
</g>
<!-- Node12 -->
<g id="node12" class="node">
<title>Node12</title>
<g id="a_node12"><a xlink:href="OS_8h.html" target="_top" xlink:title=" ">
<polygon fill="white" stroke="black" points="518,-118 518,-137 570,-137 570,-118 518,-118"/>
<text text-anchor="middle" x="544" y="-125" font-family="Helvetica,sans-Serif" font-size="10.00">os/OS.h</text>
</a>
</g>
</g>
<!-- Node8&#45;&gt;Node12 -->
<g id="edge18" class="edge">
<title>Node8&#45;&gt;Node12</title>
<path fill="none" stroke="midnightblue" d="M400.04,-184.87C428.9,-173.57 479.65,-153.7 512.54,-140.82"/>
<polygon fill="midnightblue" stroke="midnightblue" points="514.09,-143.97 522.13,-137.06 511.54,-137.45 514.09,-143.97"/>
</g>
<!-- Node9&#45;&gt;Node6 -->
<g id="edge14" class="edge">
<title>Node9&#45;&gt;Node6</title>
<path fill="none" stroke="midnightblue" d="M439.54,-59.53C479.08,-50.7 557.62,-33.18 608.7,-21.78"/>
<polygon fill="midnightblue" stroke="midnightblue" points="609.53,-25.18 618.53,-19.59 608,-18.35 609.53,-25.18"/>
</g>
<!-- Node10&#45;&gt;Node6 -->
<g id="edge16" class="edge">
<title>Node10&#45;&gt;Node6</title>
<path fill="none" stroke="midnightblue" d="M619.08,-117.82C625.73,-99.09 641.54,-54.55 650.51,-29.29"/>
<polygon fill="midnightblue" stroke="midnightblue" points="653.84,-30.38 653.88,-19.78 647.24,-28.04 653.84,-30.38"/>
</g>
<!-- Node12&#45;&gt;Node6 -->
<g id="edge19" class="edge">
<title>Node12&#45;&gt;Node6</title>
<path fill="none" stroke="midnightblue" d="M540.56,-117.79C535.54,-103.5 528.13,-74.8 541,-56 555.68,-34.56 582.19,-23.33 606.16,-17.45"/>
<polygon fill="midnightblue" stroke="midnightblue" points="607.21,-20.8 616.23,-15.25 605.71,-13.97 607.21,-20.8"/>
</g>
<!-- Node13 -->
<g id="node13" class="node">
<title>Node13</title>
<g id="a_node13"><a xlink:href="dvd_8h.html" target="_top" xlink:title=" ">
<polygon fill="white" stroke="black" points="550.5,-56.5 550.5,-75.5 609.5,-75.5 609.5,-56.5 550.5,-56.5"/>
<text text-anchor="middle" x="580" y="-63.5" font-family="Helvetica,sans-Serif" font-size="10.00">dvd/dvd.h</text>
</a>
</g>
</g>
<!-- Node12&#45;&gt;Node13 -->
<g id="edge20" class="edge">
<title>Node12&#45;&gt;Node13</title>
<path fill="none" stroke="midnightblue" d="M549.16,-117.98C554.45,-109.23 562.84,-95.37 569.53,-84.31"/>
<polygon fill="midnightblue" stroke="midnightblue" points="572.67,-85.88 574.85,-75.51 566.68,-82.25 572.67,-85.88"/>
</g>
<!-- Node13&#45;&gt;Node6 -->
<g id="edge21" class="edge">
<title>Node13&#45;&gt;Node6</title>
<path fill="none" stroke="midnightblue" d="M592.37,-56.32C604.16,-48.06 622.13,-35.45 636.14,-25.63"/>
<polygon fill="midnightblue" stroke="midnightblue" points="638.48,-28.26 644.66,-19.65 634.46,-22.53 638.48,-28.26"/>
</g>
<!-- Node14&#45;&gt;Node6 -->
<g id="edge33" class="edge">
<title>Node14&#45;&gt;Node6</title>
<path fill="none" stroke="midnightblue" d="M270,-380.24C270,-356.03 270,-305.35 270,-262.5 270,-262.5 270,-262.5 270,-126.5 270,-78.77 307.64,-75.94 351,-56 395.38,-35.59 531.24,-21.46 606.13,-14.99"/>
<polygon fill="midnightblue" stroke="midnightblue" points="606.61,-18.47 616.28,-14.13 606.02,-11.49 606.61,-18.47"/>
</g>
<!-- Node15 -->
<g id="node15" class="node">
<title>Node15</title>
<g id="a_node15"><a xlink:href="JKRDecomp_8h.html" target="_top" xlink:title=" ">
<polygon fill="white" stroke="black" points="93.5,-313.5 93.5,-343.5 242.5,-343.5 242.5,-313.5 93.5,-313.5"/>
<text text-anchor="start" x="101.5" y="-331.5" font-family="Helvetica,sans-Serif" font-size="10.00">JSystem/JKernel/JKRDecomp</text>
<text text-anchor="middle" x="168" y="-320.5" font-family="Helvetica,sans-Serif" font-size="10.00">/JKRDecomp.h</text>
</a>
</g>
</g>
<!-- Node14&#45;&gt;Node15 -->
<g id="edge23" class="edge">
<title>Node14&#45;&gt;Node15</title>
<path fill="none" stroke="midnightblue" d="M247.87,-380.4C233.43,-371.2 214.4,-359.07 198.53,-348.95"/>
<polygon fill="midnightblue" stroke="midnightblue" points="200.4,-346 190.09,-343.58 196.64,-351.9 200.4,-346"/>
</g>
<!-- Node15&#45;&gt;Node6 -->
<g id="edge32" class="edge">
<title>Node15&#45;&gt;Node6</title>
<path fill="none" stroke="midnightblue" d="M180.34,-313.17C198.94,-290.05 232,-242.36 232,-195.5 232,-195.5 232,-195.5 232,-126.5 232,-93.4 230.21,-76.74 256,-56 308.81,-13.54 510.79,-9.55 606.34,-10.14"/>
<polygon fill="midnightblue" stroke="midnightblue" points="606.32,-13.64 616.35,-10.22 606.38,-6.64 606.32,-13.64"/>
</g>
<!-- Node16 -->
<g id="node16" class="node">
<title>Node16</title>
<g id="a_node16"><a xlink:href="JKRCompression_8h.html" target="_top" xlink:title=" ">
<polygon fill="white" stroke="black" points="27.5,-118 27.5,-137 204.5,-137 204.5,-118 27.5,-118"/>
<text text-anchor="middle" x="116" y="-125" font-family="Helvetica,sans-Serif" font-size="10.00">JSystem/JKernel/JKRCompression.h</text>
</a>
</g>
</g>
<!-- Node15&#45;&gt;Node16 -->
<g id="edge24" class="edge">
<title>Node15&#45;&gt;Node16</title>
<path fill="none" stroke="midnightblue" d="M164.26,-313.19C155.04,-277.91 131.23,-186.78 120.9,-147.25"/>
<polygon fill="midnightblue" stroke="midnightblue" points="124.23,-146.15 118.32,-137.36 117.46,-147.92 124.23,-146.15"/>
</g>
<!-- Node15&#45;&gt;Node18 -->
<g id="edge28" class="edge">
<title>Node15&#45;&gt;Node18</title>
<path fill="none" stroke="midnightblue" d="M212.45,-313.48C243.88,-303.56 286.21,-290.2 319.65,-279.65"/>
<polygon fill="midnightblue" stroke="midnightblue" points="320.8,-282.96 329.28,-276.61 318.69,-276.28 320.8,-282.96"/>
</g>
<!-- Node16&#45;&gt;Node6 -->
<g id="edge27" class="edge">
<title>Node16&#45;&gt;Node6</title>
<path fill="none" stroke="midnightblue" d="M124.93,-117.93C141.63,-102.47 179.43,-70.23 218,-56 288.12,-30.13 506.33,-17.56 606.19,-13.04"/>
<polygon fill="midnightblue" stroke="midnightblue" points="606.5,-16.53 616.33,-12.59 606.19,-9.53 606.5,-16.53"/>
</g>
<!-- Node17 -->
<g id="node17" class="node">
<title>Node17</title>
<g id="a_node17"><a xlink:href="SArc_8h.html" target="_top" xlink:title=" ">
<polygon fill="white" stroke="black" points="42.5,-56.5 42.5,-75.5 165.5,-75.5 165.5,-56.5 42.5,-56.5"/>
<text text-anchor="middle" x="104" y="-63.5" font-family="Helvetica,sans-Serif" font-size="10.00">JSystem/JKernel/SArc.h</text>
</a>
</g>
</g>
<!-- Node16&#45;&gt;Node17 -->
<g id="edge25" class="edge">
<title>Node16&#45;&gt;Node17</title>
<path fill="none" stroke="midnightblue" d="M114.28,-117.98C112.57,-109.49 109.89,-96.2 107.7,-85.32"/>
<polygon fill="midnightblue" stroke="midnightblue" points="111.12,-84.62 105.72,-75.51 104.26,-86 111.12,-84.62"/>
</g>
<!-- Node17&#45;&gt;Node6 -->
<g id="edge26" class="edge">
<title>Node17&#45;&gt;Node6</title>
<path fill="none" stroke="midnightblue" d="M165.79,-57.56C170.6,-57.02 175.38,-56.49 180,-56 335.19,-39.49 519.12,-23.01 606.3,-15.38"/>
<polygon fill="midnightblue" stroke="midnightblue" points="606.79,-18.85 616.45,-14.5 606.18,-11.88 606.79,-18.85"/>
</g>
<!-- Node18&#45;&gt;Node6 -->
<g id="edge30" class="edge">
<title>Node18&#45;&gt;Node6</title>
<path fill="none" stroke="midnightblue" d="M362.83,-246.43C355.91,-236.79 347.67,-223.37 344,-210 330.9,-162.29 344.94,-76.57 366,-56 399.27,-23.51 532.24,-14.47 606.38,-11.96"/>
<polygon fill="midnightblue" stroke="midnightblue" points="606.55,-15.46 616.44,-11.65 606.34,-8.46 606.55,-15.46"/>
</g>
<!-- Node18&#45;&gt;Node7 -->
<g id="edge29" class="edge">
<title>Node18&#45;&gt;Node7</title>
<path fill="none" stroke="midnightblue" d="M445.69,-246.79C499.72,-236.46 573.95,-222.27 630.64,-211.44"/>
<polygon fill="midnightblue" stroke="midnightblue" points="631.48,-214.84 640.65,-209.52 630.17,-207.96 631.48,-214.84"/>
</g>
<!-- Node18&#45;&gt;Node8 -->
<g id="edge31" class="edge">
<title>Node18&#45;&gt;Node8</title>
<path fill="none" stroke="midnightblue" d="M374.87,-246.4C375.45,-236.96 376.22,-224.45 376.85,-214.19"/>
<polygon fill="midnightblue" stroke="midnightblue" points="380.34,-214.39 377.46,-204.19 373.36,-213.96 380.34,-214.39"/>
</g>
<!-- Node19&#45;&gt;Node5 -->
<g id="edge40" class="edge">
<title>Node19&#45;&gt;Node5</title>
<path fill="none" stroke="midnightblue" d="M598.25,-179.48C640.34,-169.34 697.32,-155.63 741.58,-144.97"/>
<polygon fill="midnightblue" stroke="midnightblue" points="742.48,-148.35 751.39,-142.61 740.84,-141.55 742.48,-148.35"/>
</g>
<!-- Node19&#45;&gt;Node6 -->
<g id="edge42" class="edge">
<title>Node19&#45;&gt;Node6</title>
<path fill="none" stroke="midnightblue" d="M602.9,-179.41C622.17,-171.88 641.34,-160.4 653,-143 676.11,-108.52 668.53,-56.78 662.11,-29.45"/>
<polygon fill="midnightblue" stroke="midnightblue" points="665.48,-28.47 659.61,-19.65 658.69,-30.2 665.48,-28.47"/>
</g>
<!-- Node19&#45;&gt;Node10 -->
<g id="edge41" class="edge">
<title>Node19&#45;&gt;Node10</title>
<path fill="none" stroke="midnightblue" d="M556.49,-179.4C568.69,-168.96 585.31,-154.75 597.88,-144"/>
<polygon fill="midnightblue" stroke="midnightblue" points="600.51,-146.35 605.83,-137.19 595.96,-141.03 600.51,-146.35"/>
</g>
<!-- Node19&#45;&gt;Node12 -->
<g id="edge43" class="edge">
<title>Node19&#45;&gt;Node12</title>
<path fill="none" stroke="midnightblue" d="M540.87,-179.4C541.45,-169.96 542.22,-157.45 542.85,-147.19"/>
<polygon fill="midnightblue" stroke="midnightblue" points="546.34,-147.39 543.46,-137.19 539.36,-146.96 546.34,-147.39"/>
</g>
<!-- Node20&#45;&gt;Node6 -->
<g id="edge55" class="edge">
<title>Node20&#45;&gt;Node6</title>
<path fill="none" stroke="midnightblue" d="M1073,-313.24C1073,-289.03 1073,-238.35 1073,-195.5 1073,-195.5 1073,-195.5 1073,-126.5 1073,-51.53 818.97,-23.2 707.93,-14.4"/>
<polygon fill="midnightblue" stroke="midnightblue" points="707.88,-10.88 697.65,-13.6 707.35,-17.86 707.88,-10.88"/>
</g>
<!-- Node20&#45;&gt;Node18 -->
<g id="edge45" class="edge">
<title>Node20&#45;&gt;Node18</title>
<path fill="none" stroke="midnightblue" d="M989.38,-315.5C982.15,-314.6 974.95,-313.75 968,-313 763.68,-290.93 711.62,-296.14 507,-277 490.53,-275.46 472.93,-273.65 456.1,-271.85"/>
<polygon fill="midnightblue" stroke="midnightblue" points="456.06,-268.33 445.74,-270.73 455.31,-275.28 456.06,-268.33"/>
</g>
<!-- Node21 -->
<g id="node21" class="node">
<title>Node21</title>
<g id="a_node21"><a xlink:href="JSUFileInputStream_8h.html" target="_top" xlink:title=" ">
<polygon fill="white" stroke="black" points="1100.5,-246.5 1100.5,-276.5 1269.5,-276.5 1269.5,-246.5 1100.5,-246.5"/>
<text text-anchor="start" x="1108.5" y="-264.5" font-family="Helvetica,sans-Serif" font-size="10.00">JSystem/JSupport/JSUFile</text>
<text text-anchor="middle" x="1185" y="-253.5" font-family="Helvetica,sans-Serif" font-size="10.00">InputStream/JSUFileInputStream.h</text>
</a>
</g>
</g>
<!-- Node20&#45;&gt;Node21 -->
<g id="edge46" class="edge">
<title>Node20&#45;&gt;Node21</title>
<path fill="none" stroke="midnightblue" d="M1097.3,-313.4C1113.3,-304.11 1134.44,-291.84 1151.96,-281.67"/>
<polygon fill="midnightblue" stroke="midnightblue" points="1153.85,-284.62 1160.75,-276.58 1150.34,-278.57 1153.85,-284.62"/>
</g>
<!-- Node22 -->
<g id="node22" class="node">
<title>Node22</title>
<g id="a_node22"><a xlink:href="JSURandomInputStream_8h.html" target="_top" xlink:title=" ">
<polygon fill="white" stroke="black" points="1146.5,-179.5 1146.5,-209.5 1335.5,-209.5 1335.5,-179.5 1146.5,-179.5"/>
<text text-anchor="start" x="1154.5" y="-197.5" font-family="Helvetica,sans-Serif" font-size="10.00">JSystem/JSupport/JSURandom</text>
<text text-anchor="middle" x="1241" y="-186.5" font-family="Helvetica,sans-Serif" font-size="10.00">InputStream/JSURandomInputStream.h</text>
</a>
</g>
</g>
<!-- Node20&#45;&gt;Node22 -->
<g id="edge54" class="edge">
<title>Node20&#45;&gt;Node22</title>
<path fill="none" stroke="midnightblue" d="M1156.72,-317.51C1206.79,-309.63 1263.6,-296.63 1279,-277 1293.29,-258.79 1278.27,-234.33 1263.11,-216.97"/>
<polygon fill="midnightblue" stroke="midnightblue" points="1265.6,-214.5 1256.24,-209.54 1260.46,-219.26 1265.6,-214.5"/>
</g>
<!-- Node21&#45;&gt;Node6 -->
<g id="edge53" class="edge">
<title>Node21&#45;&gt;Node6</title>
<path fill="none" stroke="midnightblue" d="M1168.72,-246.43C1158.67,-237 1146.18,-223.81 1138,-210 1101.26,-147.96 1143.17,-101.2 1087,-56 1058,-32.66 815.7,-18.47 708.12,-13.26"/>
<polygon fill="midnightblue" stroke="midnightblue" points="707.98,-9.75 697.83,-12.77 707.65,-16.75 707.98,-9.75"/>
</g>
<!-- Node21&#45;&gt;Node22 -->
<g id="edge47" class="edge">
<title>Node21&#45;&gt;Node22</title>
<path fill="none" stroke="midnightblue" d="M1197.15,-246.4C1204.49,-237.88 1213.99,-226.85 1222.28,-217.23"/>
<polygon fill="midnightblue" stroke="midnightblue" points="1225,-219.44 1228.87,-209.58 1219.69,-214.87 1225,-219.44"/>
</g>
<!-- Node22&#45;&gt;Node6 -->
<g id="edge52" class="edge">
<title>Node22&#45;&gt;Node6</title>
<path fill="none" stroke="midnightblue" d="M1214.6,-179.33C1199.79,-170.4 1181.79,-157.77 1169,-143 1140.63,-110.24 1160.78,-80.44 1125,-56 1091.13,-32.87 822,-18.32 707.87,-13.14"/>
<polygon fill="midnightblue" stroke="midnightblue" points="707.8,-9.63 697.65,-12.68 707.48,-16.62 707.8,-9.63"/>
</g>
<!-- Node23 -->
<g id="node23" class="node">
<title>Node23</title>
<g id="a_node23"><a xlink:href="JSUInputStream_8h.html" target="_top" xlink:title=" ">
<polygon fill="white" stroke="black" points="1177.5,-112.5 1177.5,-142.5 1318.5,-142.5 1318.5,-112.5 1177.5,-112.5"/>
<text text-anchor="start" x="1185.5" y="-130.5" font-family="Helvetica,sans-Serif" font-size="10.00">JSystem/JSupport/JSUInput</text>
<text text-anchor="middle" x="1248" y="-119.5" font-family="Helvetica,sans-Serif" font-size="10.00">Stream.h</text>
</a>
</g>
</g>
<!-- Node22&#45;&gt;Node23 -->
<g id="edge48" class="edge">
<title>Node22&#45;&gt;Node23</title>
<path fill="none" stroke="midnightblue" d="M1242.52,-179.4C1243.36,-171.56 1244.44,-161.6 1245.41,-152.57"/>
<polygon fill="midnightblue" stroke="midnightblue" points="1248.89,-152.89 1246.48,-142.58 1241.93,-152.14 1248.89,-152.89"/>
</g>
<!-- Node23&#45;&gt;Node6 -->
<g id="edge51" class="edge">
<title>Node23&#45;&gt;Node6</title>
<path fill="none" stroke="midnightblue" d="M1236.14,-112.47C1221.06,-95.74 1193.32,-68.48 1163,-56 1081.63,-22.5 819.63,-13.88 708.07,-11.71"/>
<polygon fill="midnightblue" stroke="midnightblue" points="707.82,-8.21 697.75,-11.52 707.69,-15.21 707.82,-8.21"/>
</g>
<!-- Node24 -->
<g id="node24" class="node">
<title>Node24</title>
<g id="a_node24"><a xlink:href="JSUIosBase_8h.html" target="_top" xlink:title=" ">
<polygon fill="white" stroke="black" points="1215.5,-56.5 1215.5,-75.5 1378.5,-75.5 1378.5,-56.5 1215.5,-56.5"/>
<text text-anchor="middle" x="1297" y="-63.5" font-family="Helvetica,sans-Serif" font-size="10.00">JSystem/JSupport/JSUIosBase.h</text>
</a>
</g>
</g>
<!-- Node23&#45;&gt;Node24 -->
<g id="edge49" class="edge">
<title>Node23&#45;&gt;Node24</title>
<path fill="none" stroke="midnightblue" d="M1259.61,-112.4C1266.73,-103.75 1275.88,-92.64 1283.35,-83.58"/>
<polygon fill="midnightblue" stroke="midnightblue" points="1286.21,-85.6 1289.87,-75.66 1280.81,-81.15 1286.21,-85.6"/>
</g>
<!-- Node24&#45;&gt;Node6 -->
<g id="edge50" class="edge">
<title>Node24&#45;&gt;Node6</title>
<path fill="none" stroke="midnightblue" d="M1215.3,-57.28C1210.47,-56.84 1205.67,-56.41 1201,-56 1019.52,-39.99 803.83,-22.65 707.65,-15"/>
<polygon fill="midnightblue" stroke="midnightblue" points="707.86,-11.51 697.62,-14.21 707.31,-18.49 707.86,-11.51"/>
</g>
<!-- Node25&#45;&gt;Node6 -->
<g id="edge61" class="edge">
<title>Node25&#45;&gt;Node6</title>
<path fill="none" stroke="midnightblue" d="M921.75,-313.44C966.78,-294.31 1035,-255.44 1035,-195.5 1035,-195.5 1035,-195.5 1035,-126.5 1035,-58.91 811.19,-26.95 708,-15.81"/>
<polygon fill="midnightblue" stroke="midnightblue" points="708.12,-12.3 697.81,-14.73 707.39,-19.26 708.12,-12.3"/>
</g>
<!-- Node26 -->
<g id="node26" class="node">
<title>Node26</title>
<g id="a_node26"><a xlink:href="JKRHeap_8h.html" target="_top" xlink:title=" ">
<polygon fill="white" stroke="black" points="811,-246.5 811,-276.5 947,-276.5 947,-246.5 811,-246.5"/>
<text text-anchor="start" x="819" y="-264.5" font-family="Helvetica,sans-Serif" font-size="10.00">JSystem/JKernel/JKRHeap</text>
<text text-anchor="middle" x="879" y="-253.5" font-family="Helvetica,sans-Serif" font-size="10.00">/JKRHeap.h</text>
</a>
</g>
</g>
<!-- Node25&#45;&gt;Node26 -->
<g id="edge57" class="edge">
<title>Node25&#45;&gt;Node26</title>
<path fill="none" stroke="midnightblue" d="M882.13,-313.4C881.65,-305.56 881.04,-295.6 880.48,-286.57"/>
<polygon fill="midnightblue" stroke="midnightblue" points="883.97,-286.34 879.87,-276.58 876.99,-286.77 883.97,-286.34"/>
</g>
<!-- Node26&#45;&gt;Node6 -->
<g id="edge59" class="edge">
<title>Node26&#45;&gt;Node6</title>
<path fill="none" stroke="midnightblue" d="M930.91,-246.44C949.04,-238.77 967.47,-227.19 978,-210 985.2,-198.25 983.3,-191.72 978,-179 948.15,-107.34 922.01,-93.42 854,-56 808.38,-30.9 749.44,-19.78 707.96,-14.86"/>
<polygon fill="midnightblue" stroke="midnightblue" points="708.13,-11.36 697.81,-13.74 707.36,-18.32 708.13,-11.36"/>
</g>
<!-- Node26&#45;&gt;Node7 -->
<g id="edge58" class="edge">
<title>Node26&#45;&gt;Node7</title>
<path fill="none" stroke="midnightblue" d="M843.2,-246.4C818.55,-236.69 785.61,-223.71 759.16,-213.29"/>
<polygon fill="midnightblue" stroke="midnightblue" points="760.32,-209.99 749.73,-209.58 757.75,-216.5 760.32,-209.99"/>
</g>
<!-- Node26&#45;&gt;Node8 -->
<g id="edge60" class="edge">
<title>Node26&#45;&gt;Node8</title>
<path fill="none" stroke="midnightblue" d="M810.78,-254.2C725.95,-245.97 576.83,-230.2 450,-210 437.92,-208.08 424.79,-205.56 413.09,-203.16"/>
<polygon fill="midnightblue" stroke="midnightblue" points="413.74,-199.72 403.23,-201.11 412.31,-206.58 413.74,-199.72"/>
</g>
<!-- Node27&#45;&gt;Node6 -->
<g id="edge63" class="edge">
<title>Node27&#45;&gt;Node6</title>
<path fill="none" stroke="midnightblue" d="M1212.74,-390.28C1278.99,-380.68 1407,-350.72 1407,-262.5 1407,-262.5 1407,-262.5 1407,-126.5 1407,-94.05 1413.14,-76.52 1388,-56 1335.61,-13.24 865.49,-10.47 708.09,-10.76"/>
<polygon fill="midnightblue" stroke="midnightblue" points="707.73,-7.26 697.74,-10.78 707.75,-14.26 707.73,-7.26"/>
</g>
</g>
</svg>
