<?xml version="1.0" encoding="UTF-8" standalone="no"?>
<!DOCTYPE svg PUBLIC "-//W3C//DTD SVG 1.1//EN"
 "http://www.w3.org/Graphics/SVG/1.1/DTD/svg11.dtd">
<!-- Generated by graphviz version 2.44.0 ()
 -->
<!-- Title: libs/JSystem/JKernel/JKRAramPiece.cpp Pages: 1 -->
<!--zoomable 553 -->
<svg id="main" version="1.1" xmlns="http://www.w3.org/2000/svg" xmlns:xlink="http://www.w3.org/1999/xlink" xml:space="preserve" onload="init(evt)">
<style type="text/css"><![CDATA[
.edge:hover path { stroke: red; }
.edge:hover polygon { stroke: red; fill: red; }
]]></style>
<script type="text/javascript"><![CDATA[
var edges = document.getElementsByTagName('g');
if (edges && edges.length) {
  for (var i=0;i<edges.length;i++) {
    if (edges[i].id.substr(0,4)=='edge') {
      edges[i].setAttribute('class','edge');
    }
  }
}
]]></script>
        <defs>
                <circle id="rim" cx="0" cy="0" r="7"/>
                <circle id="rim2" cx="0" cy="0" r="3.5"/>
                <g id="zoomPlus">
                        <use xlink:href="#rim" fill="#404040">
                                <set attributeName="fill" to="#808080" begin="zoomplus.mouseover" end="zoomplus.mouseout"/>
                        </use>
                        <path d="M-4,0h8M0,-4v8" fill="none" stroke="white" stroke-width="1.5" pointer-events="none"/>
                </g>
                <g id="zoomMin">
                        <use xlink:href="#rim" fill="#404040">
                                <set attributeName="fill" to="#808080" begin="zoomminus.mouseover" end="zoomminus.mouseout"/>
                        </use>
                        <path d="M-4,0h8" fill="none" stroke="white" stroke-width="1.5" pointer-events="none"/>
                </g>
                <g id="dirArrow">
                        <path fill="none" stroke="white" stroke-width="1.5" d="M0,-3.0v7 M-2.5,-0.5L0,-3.0L2.5,-0.5"/>
                </g>
               <g id="resetDef">
                       <use xlink:href="#rim2" fill="#404040">
                               <set attributeName="fill" to="#808080" begin="reset.mouseover" end="reset.mouseout"/>
                       </use>
               </g>
        </defs>

<script type="text/javascript">
var viewWidth = 978;
var viewHeight = 553;
var sectionId = 'dynsection-0';
</script>
<script xlink:href="svgpan.js"/>
<svg id="graph" class="graph">
<g id="viewport">
<title>libs/JSystem/JKernel/JKRAramPiece.cpp</title>
<polygon fill="white" stroke="transparent" points="-4,4 -4,-549 973.77,-549 973.77,4 -4,4"/>
<!-- Node1 -->
<g id="node1" class="node">
<title>Node1</title>
<g id="a_node1"><a xlink:title=" ">
<polygon fill="#bfbfbf" stroke="black" points="663.5,-514.5 663.5,-544.5 772.5,-544.5 772.5,-514.5 663.5,-514.5"/>
<text text-anchor="start" x="671.5" y="-532.5" font-family="Helvetica,sans-Serif" font-size="10.00">libs/JSystem/JKernel</text>
<text text-anchor="middle" x="718" y="-521.5" font-family="Helvetica,sans-Serif" font-size="10.00">/JKRAramPiece.cpp</text>
</a>
</g>
</g>
<!-- Node2 -->
<g id="node2" class="node">
<title>Node2</title>
<g id="a_node2"><a xlink:href="JKRAramPiece_8h.html" target="_top" xlink:title=" ">
<polygon fill="white" stroke="black" points="771.5,-179.5 771.5,-209.5 932.5,-209.5 932.5,-179.5 771.5,-179.5"/>
<text text-anchor="start" x="779.5" y="-197.5" font-family="Helvetica,sans-Serif" font-size="10.00">JSystem/JKernel/JKRAramPiece</text>
<text text-anchor="middle" x="852" y="-186.5" font-family="Helvetica,sans-Serif" font-size="10.00">/JKRAramPiece.h</text>
</a>
</g>
</g>
<!-- Node1&#45;&gt;Node2 -->
<g id="edge1" class="edge">
<title>Node1&#45;&gt;Node2</title>
<path fill="none" stroke="midnightblue" d="M749.76,-514.38C789.38,-494.35 852,-453.65 852,-396.5 852,-396.5 852,-396.5 852,-327.5 852,-290 852,-246.51 852,-220.01"/>
<polygon fill="midnightblue" stroke="midnightblue" points="855.5,-219.76 852,-209.76 848.5,-219.76 855.5,-219.76"/>
</g>
<!-- Node8 -->
<g id="node8" class="node">
<title>Node8</title>
<g id="a_node8"><a xlink:href="JKRAram_8h.html" target="_top" xlink:title=" ">
<polygon fill="white" stroke="black" points="204,-447.5 204,-477.5 340,-477.5 340,-447.5 204,-447.5"/>
<text text-anchor="start" x="212" y="-465.5" font-family="Helvetica,sans-Serif" font-size="10.00">JSystem/JKernel/JKRAram</text>
<text text-anchor="middle" x="272" y="-454.5" font-family="Helvetica,sans-Serif" font-size="10.00">/JKRAram.h</text>
</a>
</g>
</g>
<!-- Node1&#45;&gt;Node8 -->
<g id="edge11" class="edge">
<title>Node1&#45;&gt;Node8</title>
<path fill="none" stroke="midnightblue" d="M663.31,-520.53C584.92,-509.1 440.19,-488.01 350.41,-474.93"/>
<polygon fill="midnightblue" stroke="midnightblue" points="350.68,-471.43 340.28,-473.45 349.67,-478.36 350.68,-471.43"/>
</g>
<!-- Node12 -->
<g id="node12" class="node">
<title>Node12</title>
<g id="a_node12"><a xlink:href="global_8h.html" target="_top" xlink:title=" ">
<polygon fill="white" stroke="black" points="692,-185 692,-204 742,-204 742,-185 692,-185"/>
<text text-anchor="middle" x="717" y="-192" font-family="Helvetica,sans-Serif" font-size="10.00">global.h</text>
</a>
</g>
</g>
<!-- Node1&#45;&gt;Node12 -->
<g id="edge47" class="edge">
<title>Node1&#45;&gt;Node12</title>
<path fill="none" stroke="midnightblue" d="M737.89,-514.36C766.01,-492.54 814,-447.79 814,-396.5 814,-396.5 814,-396.5 814,-327.5 814,-290.31 816.39,-276.43 795,-246 783.37,-229.45 764.42,-217 748.11,-208.6"/>
<polygon fill="midnightblue" stroke="midnightblue" points="749.41,-205.34 738.89,-204.12 746.35,-211.64 749.41,-205.34"/>
</g>
<!-- Node16 -->
<g id="node16" class="node">
<title>Node16</title>
<g id="a_node16"><a xlink:href="JKRDecomp_8h.html" target="_top" xlink:title=" ">
<polygon fill="white" stroke="black" points="445.5,-313.5 445.5,-343.5 594.5,-343.5 594.5,-313.5 445.5,-313.5"/>
<text text-anchor="start" x="453.5" y="-331.5" font-family="Helvetica,sans-Serif" font-size="10.00">JSystem/JKernel/JKRDecomp</text>
<text text-anchor="middle" x="520" y="-320.5" font-family="Helvetica,sans-Serif" font-size="10.00">/JKRDecomp.h</text>
</a>
</g>
</g>
<!-- Node1&#45;&gt;Node16 -->
<g id="edge42" class="edge">
<title>Node1&#45;&gt;Node16</title>
<path fill="none" stroke="midnightblue" d="M703.76,-514.19C669.44,-479.69 581.99,-391.81 541.36,-350.97"/>
<polygon fill="midnightblue" stroke="midnightblue" points="543.65,-348.3 534.11,-343.68 538.68,-353.24 543.65,-348.3"/>
</g>
<!-- Node20 -->
<g id="node20" class="node">
<title>Node20</title>
<g id="a_node20"><a xlink:href="JKRHeap_8h.html" target="_top" xlink:title=" ">
<polygon fill="white" stroke="black" points="650,-246.5 650,-276.5 786,-276.5 786,-246.5 650,-246.5"/>
<text text-anchor="start" x="658" y="-264.5" font-family="Helvetica,sans-Serif" font-size="10.00">JSystem/JKernel/JKRHeap</text>
<text text-anchor="middle" x="718" y="-253.5" font-family="Helvetica,sans-Serif" font-size="10.00">/JKRHeap.h</text>
</a>
</g>
</g>
<!-- Node1&#45;&gt;Node20 -->
<g id="edge43" class="edge">
<title>Node1&#45;&gt;Node20</title>
<path fill="none" stroke="midnightblue" d="M718,-514.2C718,-470.89 718,-340.82 718,-286.62"/>
<polygon fill="midnightblue" stroke="midnightblue" points="721.5,-286.55 718,-276.55 714.5,-286.55 721.5,-286.55"/>
</g>
<!-- Node3 -->
<g id="node3" class="node">
<title>Node3</title>
<g id="a_node3"><a xlink:href="JSUList_8h.html" target="_top" xlink:title=" ">
<polygon fill="white" stroke="black" points="204,-112.5 204,-142.5 340,-142.5 340,-112.5 204,-112.5"/>
<text text-anchor="start" x="212" y="-130.5" font-family="Helvetica,sans-Serif" font-size="10.00">JSystem/JSupport/JSUList</text>
<text text-anchor="middle" x="272" y="-119.5" font-family="Helvetica,sans-Serif" font-size="10.00">/JSUList.h</text>
</a>
</g>
</g>
<!-- Node2&#45;&gt;Node3 -->
<g id="edge2" class="edge">
<title>Node2&#45;&gt;Node3</title>
<path fill="none" stroke="midnightblue" d="M771.27,-181.64C764.42,-180.71 757.59,-179.82 751,-179 610.09,-161.46 445.36,-144.97 350.41,-135.85"/>
<polygon fill="midnightblue" stroke="midnightblue" points="350.6,-132.36 340.31,-134.89 349.93,-139.33 350.6,-132.36"/>
</g>
<!-- Node4 -->
<g id="node4" class="node">
<title>Node4</title>
<g id="a_node4"><a xlink:href="types_8h.html" target="_top" xlink:title=" ">
<polygon fill="white" stroke="black" points="559.5,-0.5 559.5,-19.5 640.5,-19.5 640.5,-0.5 559.5,-0.5"/>
<text text-anchor="middle" x="600" y="-7.5" font-family="Helvetica,sans-Serif" font-size="10.00">dolphin/types.h</text>
</a>
</g>
</g>
<!-- Node2&#45;&gt;Node4 -->
<g id="edge6" class="edge">
<title>Node2&#45;&gt;Node4</title>
<path fill="none" stroke="midnightblue" d="M899.14,-179.48C916.72,-171.71 934.86,-160.05 945,-143 967.26,-105.59 937.75,-77.68 900,-56 858.51,-32.17 724.78,-19.5 650.65,-14.15"/>
<polygon fill="midnightblue" stroke="midnightblue" points="650.83,-10.65 640.61,-13.44 650.34,-17.64 650.83,-10.65"/>
</g>
<!-- Node5 -->
<g id="node5" class="node">
<title>Node5</title>
<g id="a_node5"><a xlink:href="ARQ_8h.html" target="_top" xlink:title=" ">
<polygon fill="white" stroke="black" points="880,-118 880,-137 936,-137 936,-118 880,-118"/>
<text text-anchor="middle" x="908" y="-125" font-family="Helvetica,sans-Serif" font-size="10.00">ar/ARQ.h</text>
</a>
</g>
</g>
<!-- Node2&#45;&gt;Node5 -->
<g id="edge4" class="edge">
<title>Node2&#45;&gt;Node5</title>
<path fill="none" stroke="midnightblue" d="M864.15,-179.4C872.88,-169.26 884.68,-155.57 893.84,-144.94"/>
<polygon fill="midnightblue" stroke="midnightblue" points="896.63,-147.06 900.51,-137.19 891.33,-142.49 896.63,-147.06"/>
</g>
<!-- Node6 -->
<g id="node6" class="node">
<title>Node6</title>
<g id="a_node6"><a xlink:href="OS_8h.html" target="_top" xlink:title=" ">
<polygon fill="white" stroke="black" points="810,-118 810,-137 862,-137 862,-118 810,-118"/>
<text text-anchor="middle" x="836" y="-125" font-family="Helvetica,sans-Serif" font-size="10.00">os/OS.h</text>
</a>
</g>
</g>
<!-- Node2&#45;&gt;Node6 -->
<g id="edge7" class="edge">
<title>Node2&#45;&gt;Node6</title>
<path fill="none" stroke="midnightblue" d="M848.53,-179.4C846.21,-169.96 843.13,-157.45 840.6,-147.19"/>
<polygon fill="midnightblue" stroke="midnightblue" points="843.93,-146.07 838.14,-137.19 837.13,-147.74 843.93,-146.07"/>
</g>
<!-- Node3&#45;&gt;Node4 -->
<g id="edge3" class="edge">
<title>Node3&#45;&gt;Node4</title>
<path fill="none" stroke="midnightblue" d="M284.05,-112.34C298.8,-96.02 325.37,-69.67 354,-56 416.86,-25.98 497.56,-15.91 549.04,-12.58"/>
<polygon fill="midnightblue" stroke="midnightblue" points="549.47,-16.06 559.25,-11.98 549.06,-9.07 549.47,-16.06"/>
</g>
<!-- Node5&#45;&gt;Node4 -->
<g id="edge5" class="edge">
<title>Node5&#45;&gt;Node4</title>
<path fill="none" stroke="midnightblue" d="M907.01,-117.97C904.78,-102.87 897.9,-71.58 878,-56 843.52,-28.99 721.1,-17.74 650.75,-13.43"/>
<polygon fill="midnightblue" stroke="midnightblue" points="650.95,-9.93 640.77,-12.84 650.54,-16.92 650.95,-9.93"/>
</g>
<!-- Node6&#45;&gt;Node4 -->
<g id="edge8" class="edge">
<title>Node6&#45;&gt;Node4</title>
<path fill="none" stroke="midnightblue" d="M829.25,-117.7C817.32,-102.77 791.01,-72.46 762,-56 727.49,-36.42 683.95,-24.95 650.7,-18.49"/>
<polygon fill="midnightblue" stroke="midnightblue" points="651.21,-15.02 640.74,-16.64 649.93,-21.91 651.21,-15.02"/>
</g>
<!-- Node7 -->
<g id="node7" class="node">
<title>Node7</title>
<g id="a_node7"><a xlink:href="dvd_8h.html" target="_top" xlink:title=" ">
<polygon fill="white" stroke="black" points="810.5,-56.5 810.5,-75.5 869.5,-75.5 869.5,-56.5 810.5,-56.5"/>
<text text-anchor="middle" x="840" y="-63.5" font-family="Helvetica,sans-Serif" font-size="10.00">dvd/dvd.h</text>
</a>
</g>
</g>
<!-- Node6&#45;&gt;Node7 -->
<g id="edge9" class="edge">
<title>Node6&#45;&gt;Node7</title>
<path fill="none" stroke="midnightblue" d="M836.57,-117.98C837.14,-109.58 838.02,-96.48 838.75,-85.66"/>
<polygon fill="midnightblue" stroke="midnightblue" points="842.25,-85.72 839.43,-75.51 835.26,-85.25 842.25,-85.72"/>
</g>
<!-- Node7&#45;&gt;Node4 -->
<g id="edge10" class="edge">
<title>Node7&#45;&gt;Node4</title>
<path fill="none" stroke="midnightblue" d="M810.09,-58.27C769.38,-49.11 696.08,-32.62 647.73,-21.74"/>
<polygon fill="midnightblue" stroke="midnightblue" points="648.33,-18.29 637.81,-19.51 646.8,-25.12 648.33,-18.29"/>
</g>
<!-- Node8&#45;&gt;Node4 -->
<g id="edge40" class="edge">
<title>Node8&#45;&gt;Node4</title>
<path fill="none" stroke="midnightblue" d="M203.71,-457.39C123.14,-448.42 0,-419.91 0,-329.5 0,-329.5 0,-329.5 0,-126.5 0,-68.43 55.08,-74.86 110,-56 190.23,-28.45 440.86,-16.56 549.23,-12.62"/>
<polygon fill="midnightblue" stroke="midnightblue" points="549.4,-16.11 559.27,-12.26 549.15,-9.12 549.4,-16.11"/>
</g>
<!-- Node9 -->
<g id="node9" class="node">
<title>Node9</title>
<g id="a_node9"><a xlink:href="JKRAramHeap_8h.html" target="_top" xlink:title=" ">
<polygon fill="white" stroke="black" points="69.5,-246.5 69.5,-276.5 228.5,-276.5 228.5,-246.5 69.5,-246.5"/>
<text text-anchor="start" x="77.5" y="-264.5" font-family="Helvetica,sans-Serif" font-size="10.00">JSystem/JKernel/JKRAramHeap</text>
<text text-anchor="middle" x="149" y="-253.5" font-family="Helvetica,sans-Serif" font-size="10.00">/JKRAramHeap.h</text>
</a>
</g>
</g>
<!-- Node8&#45;&gt;Node9 -->
<g id="edge12" class="edge">
<title>Node8&#45;&gt;Node9</title>
<path fill="none" stroke="midnightblue" d="M246.14,-447.34C232.03,-438.49 215.2,-425.94 204,-411 175.38,-372.83 160.29,-318.17 153.53,-286.92"/>
<polygon fill="midnightblue" stroke="midnightblue" points="156.92,-286 151.49,-276.9 150.06,-287.4 156.92,-286"/>
</g>
<!-- Node8&#45;&gt;Node12 -->
<g id="edge41" class="edge">
<title>Node8&#45;&gt;Node12</title>
<path fill="none" stroke="midnightblue" d="M340.05,-454.14C413.84,-442.74 530.73,-414.22 603,-344 636.5,-311.45 611.73,-282.41 641,-246 653.78,-230.11 672.92,-217.43 688.8,-208.75"/>
<polygon fill="midnightblue" stroke="midnightblue" points="690.45,-211.83 697.7,-204.11 687.21,-205.63 690.45,-211.83"/>
</g>
<!-- Node15 -->
<g id="node15" class="node">
<title>Node15</title>
<g id="a_node15"><a xlink:href="JKRDvdRipper_8h.html" target="_top" xlink:title=" ">
<polygon fill="white" stroke="black" points="246,-380.5 246,-410.5 404,-410.5 404,-380.5 246,-380.5"/>
<text text-anchor="start" x="254" y="-398.5" font-family="Helvetica,sans-Serif" font-size="10.00">JSystem/JKernel/JKRDvdRipper</text>
<text text-anchor="middle" x="325" y="-387.5" font-family="Helvetica,sans-Serif" font-size="10.00">/JKRDvdRipper.h</text>
</a>
</g>
</g>
<!-- Node8&#45;&gt;Node15 -->
<g id="edge27" class="edge">
<title>Node8&#45;&gt;Node15</title>
<path fill="none" stroke="midnightblue" d="M283.5,-447.4C290.38,-438.96 299.26,-428.07 307.04,-418.52"/>
<polygon fill="midnightblue" stroke="midnightblue" points="309.92,-420.54 313.52,-410.58 304.49,-416.11 309.92,-420.54"/>
</g>
<!-- Node19 -->
<g id="node19" class="node">
<title>Node19</title>
<g id="a_node19"><a xlink:href="JKRThread_8h.html" target="_top" xlink:title=" ">
<polygon fill="white" stroke="black" points="350.5,-246.5 350.5,-276.5 493.5,-276.5 493.5,-246.5 350.5,-246.5"/>
<text text-anchor="start" x="358.5" y="-264.5" font-family="Helvetica,sans-Serif" font-size="10.00">JSystem/JKernel/JKRThread</text>
<text text-anchor="middle" x="422" y="-253.5" font-family="Helvetica,sans-Serif" font-size="10.00">/JKRThread.h</text>
</a>
</g>
</g>
<!-- Node8&#45;&gt;Node19 -->
<g id="edge39" class="edge">
<title>Node8&#45;&gt;Node19</title>
<path fill="none" stroke="midnightblue" d="M258.02,-447.27C243.51,-430.69 224.54,-402.67 237,-380 264.66,-329.67 324,-297.85 368.06,-280.2"/>
<polygon fill="midnightblue" stroke="midnightblue" points="369.44,-283.42 377.5,-276.54 366.91,-276.89 369.44,-283.42"/>
</g>
<!-- Node9&#45;&gt;Node4 -->
<g id="edge19" class="edge">
<title>Node9&#45;&gt;Node4</title>
<path fill="none" stroke="midnightblue" d="M102.36,-246.36C84.96,-238.57 67.02,-226.93 57,-210 18.42,-144.81 82.13,-92.35 145,-56 212.6,-16.92 445.03,-11.33 549.02,-10.84"/>
<polygon fill="midnightblue" stroke="midnightblue" points="549.27,-14.33 559.26,-10.8 549.25,-7.33 549.27,-14.33"/>
</g>
<!-- Node10 -->
<g id="node10" class="node">
<title>Node10</title>
<g id="a_node10"><a xlink:href="JKRAramBlock_8h.html" target="_top" xlink:title=" ">
<polygon fill="white" stroke="black" points="66.5,-179.5 66.5,-209.5 227.5,-209.5 227.5,-179.5 66.5,-179.5"/>
<text text-anchor="start" x="74.5" y="-197.5" font-family="Helvetica,sans-Serif" font-size="10.00">JSystem/JKernel/JKRAramBlock</text>
<text text-anchor="middle" x="147" y="-186.5" font-family="Helvetica,sans-Serif" font-size="10.00">/JKRAramBlock.h</text>
</a>
</g>
</g>
<!-- Node9&#45;&gt;Node10 -->
<g id="edge13" class="edge">
<title>Node9&#45;&gt;Node10</title>
<path fill="none" stroke="midnightblue" d="M148.57,-246.4C148.33,-238.64 148.02,-228.81 147.75,-219.86"/>
<polygon fill="midnightblue" stroke="midnightblue" points="151.24,-219.46 147.43,-209.58 144.24,-219.68 151.24,-219.46"/>
</g>
<!-- Node11 -->
<g id="node11" class="node">
<title>Node11</title>
<g id="a_node11"><a xlink:href="JKRDisposer_8h.html" target="_top" xlink:title=" ">
<polygon fill="white" stroke="black" points="284.5,-179.5 284.5,-209.5 435.5,-209.5 435.5,-179.5 284.5,-179.5"/>
<text text-anchor="start" x="292.5" y="-197.5" font-family="Helvetica,sans-Serif" font-size="10.00">JSystem/JKernel/JKRDisposer</text>
<text text-anchor="middle" x="360" y="-186.5" font-family="Helvetica,sans-Serif" font-size="10.00">/JKRDisposer.h</text>
</a>
</g>
</g>
<!-- Node9&#45;&gt;Node11 -->
<g id="edge16" class="edge">
<title>Node9&#45;&gt;Node11</title>
<path fill="none" stroke="midnightblue" d="M194.52,-246.48C226.72,-236.56 270.08,-223.2 304.33,-212.65"/>
<polygon fill="midnightblue" stroke="midnightblue" points="305.67,-215.9 314.19,-209.61 303.61,-209.21 305.67,-215.9"/>
</g>
<!-- Node9&#45;&gt;Node12 -->
<g id="edge20" class="edge">
<title>Node9&#45;&gt;Node12</title>
<path fill="none" stroke="midnightblue" d="M228.58,-251.39C353.85,-237.06 592.03,-209.8 681.68,-199.54"/>
<polygon fill="midnightblue" stroke="midnightblue" points="682.33,-202.99 691.86,-198.38 681.53,-196.04 682.33,-202.99"/>
</g>
<!-- Node10&#45;&gt;Node3 -->
<g id="edge14" class="edge">
<title>Node10&#45;&gt;Node3</title>
<path fill="none" stroke="midnightblue" d="M174.12,-179.4C192.22,-169.98 216.23,-157.5 235.93,-147.26"/>
<polygon fill="midnightblue" stroke="midnightblue" points="237.67,-150.3 244.93,-142.58 234.44,-144.08 237.67,-150.3"/>
</g>
<!-- Node10&#45;&gt;Node4 -->
<g id="edge15" class="edge">
<title>Node10&#45;&gt;Node4</title>
<path fill="none" stroke="midnightblue" d="M143.49,-179.42C137.47,-151.51 128.79,-89.01 162,-56 189.02,-29.15 439.48,-16.83 549.07,-12.69"/>
<polygon fill="midnightblue" stroke="midnightblue" points="549.36,-16.18 559.22,-12.32 549.1,-9.19 549.36,-16.18"/>
</g>
<!-- Node11&#45;&gt;Node3 -->
<g id="edge17" class="edge">
<title>Node11&#45;&gt;Node3</title>
<path fill="none" stroke="midnightblue" d="M340.91,-179.4C328.68,-170.37 312.63,-158.51 299.1,-148.52"/>
<polygon fill="midnightblue" stroke="midnightblue" points="301.18,-145.7 291.06,-142.58 297.02,-151.33 301.18,-145.7"/>
</g>
<!-- Node11&#45;&gt;Node4 -->
<g id="edge18" class="edge">
<title>Node11&#45;&gt;Node4</title>
<path fill="none" stroke="midnightblue" d="M358.76,-179.08C357.21,-151.12 358.12,-89.36 392,-56 413.89,-34.45 495.1,-21.91 549.33,-15.77"/>
<polygon fill="midnightblue" stroke="midnightblue" points="549.9,-19.23 559.46,-14.66 549.14,-12.27 549.9,-19.23"/>
</g>
<!-- Node12&#45;&gt;Node4 -->
<g id="edge21" class="edge">
<title>Node12&#45;&gt;Node4</title>
<path fill="none" stroke="midnightblue" d="M714.29,-184.77C706.94,-161.96 684.9,-99.32 652,-56 643.31,-44.56 631.31,-33.93 621.02,-25.88"/>
<polygon fill="midnightblue" stroke="midnightblue" points="622.99,-22.98 612.89,-19.77 618.78,-28.58 622.99,-22.98"/>
</g>
<!-- Node12&#45;&gt;Node5 -->
<g id="edge24" class="edge">
<title>Node12&#45;&gt;Node5</title>
<path fill="none" stroke="midnightblue" d="M742.16,-185.34C782.56,-172.21 858.66,-147.44 871,-143 872.9,-142.32 874.85,-141.6 876.81,-140.87"/>
<polygon fill="midnightblue" stroke="midnightblue" points="878.47,-143.98 886.56,-137.14 875.97,-137.44 878.47,-143.98"/>
</g>
<!-- Node12&#45;&gt;Node6 -->
<g id="edge26" class="edge">
<title>Node12&#45;&gt;Node6</title>
<path fill="none" stroke="midnightblue" d="M733.05,-184.73C753.12,-173.77 787.7,-154.88 811.19,-142.05"/>
<polygon fill="midnightblue" stroke="midnightblue" points="813.11,-144.99 820.21,-137.13 809.75,-138.85 813.11,-144.99"/>
</g>
<!-- Node13 -->
<g id="node13" class="node">
<title>Node13</title>
<g id="a_node13"><a xlink:href="AR_8h.html" target="_top" xlink:title=" ">
<polygon fill="white" stroke="black" points="704.5,-56.5 704.5,-75.5 753.5,-75.5 753.5,-56.5 704.5,-56.5"/>
<text text-anchor="middle" x="729" y="-63.5" font-family="Helvetica,sans-Serif" font-size="10.00">ar/AR.h</text>
</a>
</g>
</g>
<!-- Node12&#45;&gt;Node13 -->
<g id="edge22" class="edge">
<title>Node12&#45;&gt;Node13</title>
<path fill="none" stroke="midnightblue" d="M717.82,-184.81C719.75,-164.49 724.58,-113.55 727.22,-85.78"/>
<polygon fill="midnightblue" stroke="midnightblue" points="730.71,-86.04 728.17,-75.76 723.74,-85.38 730.71,-86.04"/>
</g>
<!-- Node14 -->
<g id="node14" class="node">
<title>Node14</title>
<g id="a_node14"><a xlink:href="mwcc_8h.html" target="_top" xlink:title=" ">
<polygon fill="white" stroke="black" points="742,-118 742,-137 792,-137 792,-118 742,-118"/>
<text text-anchor="middle" x="767" y="-125" font-family="Helvetica,sans-Serif" font-size="10.00">mwcc.h</text>
</a>
</g>
</g>
<!-- Node12&#45;&gt;Node14 -->
<g id="edge25" class="edge">
<title>Node12&#45;&gt;Node14</title>
<path fill="none" stroke="midnightblue" d="M723.74,-184.73C731.54,-174.6 744.55,-157.69 754.26,-145.06"/>
<polygon fill="midnightblue" stroke="midnightblue" points="757.04,-147.19 760.36,-137.13 751.49,-142.92 757.04,-147.19"/>
</g>
<!-- Node13&#45;&gt;Node4 -->
<g id="edge23" class="edge">
<title>Node13&#45;&gt;Node4</title>
<path fill="none" stroke="midnightblue" d="M708.56,-56.44C687.33,-47.56 653.9,-33.56 629.75,-23.45"/>
<polygon fill="midnightblue" stroke="midnightblue" points="630.92,-20.15 620.34,-19.52 628.22,-26.61 630.92,-20.15"/>
</g>
<!-- Node15&#45;&gt;Node4 -->
<g id="edge38" class="edge">
<title>Node15&#45;&gt;Node4</title>
<path fill="none" stroke="midnightblue" d="M321.56,-380.29C312.31,-344.08 284.28,-246.49 236,-179 221.89,-159.28 205,-165.09 195,-143 189.32,-130.45 187.49,-123.55 195,-112 233.57,-52.65 449.08,-25.07 549.05,-15.33"/>
<polygon fill="midnightblue" stroke="midnightblue" points="549.59,-18.79 559.22,-14.36 548.93,-11.82 549.59,-18.79"/>
</g>
<!-- Node15&#45;&gt;Node16 -->
<g id="edge28" class="edge">
<title>Node15&#45;&gt;Node16</title>
<path fill="none" stroke="midnightblue" d="M367.31,-380.4C396.95,-370.52 436.74,-357.25 468.27,-346.74"/>
<polygon fill="midnightblue" stroke="midnightblue" points="469.39,-350.06 477.77,-343.58 467.18,-343.42 469.39,-350.06"/>
</g>
<!-- Node16&#45;&gt;Node4 -->
<g id="edge37" class="edge">
<title>Node16&#45;&gt;Node4</title>
<path fill="none" stroke="midnightblue" d="M530.9,-313.23C552.83,-283.54 601.63,-212.1 619,-143 629.02,-103.12 615.99,-55.03 607.07,-29.33"/>
<polygon fill="midnightblue" stroke="midnightblue" points="610.3,-27.96 603.58,-19.77 603.72,-30.36 610.3,-27.96"/>
</g>
<!-- Node17 -->
<g id="node17" class="node">
<title>Node17</title>
<g id="a_node17"><a xlink:href="JKRCompression_8h.html" target="_top" xlink:title=" ">
<polygon fill="white" stroke="black" points="433.5,-118 433.5,-137 610.5,-137 610.5,-118 433.5,-118"/>
<text text-anchor="middle" x="522" y="-125" font-family="Helvetica,sans-Serif" font-size="10.00">JSystem/JKernel/JKRCompression.h</text>
</a>
</g>
</g>
<!-- Node16&#45;&gt;Node17 -->
<g id="edge29" class="edge">
<title>Node16&#45;&gt;Node17</title>
<path fill="none" stroke="midnightblue" d="M520.14,-313.19C520.5,-277.99 521.41,-187.17 521.81,-147.51"/>
<polygon fill="midnightblue" stroke="midnightblue" points="525.31,-147.39 521.91,-137.36 518.31,-147.32 525.31,-147.39"/>
</g>
<!-- Node16&#45;&gt;Node19 -->
<g id="edge33" class="edge">
<title>Node16&#45;&gt;Node19</title>
<path fill="none" stroke="midnightblue" d="M498.74,-313.4C484.99,-304.28 466.91,-292.29 451.76,-282.24"/>
<polygon fill="midnightblue" stroke="midnightblue" points="453.49,-279.19 443.22,-276.58 449.62,-285.02 453.49,-279.19"/>
</g>
<!-- Node17&#45;&gt;Node4 -->
<g id="edge32" class="edge">
<title>Node17&#45;&gt;Node4</title>
<path fill="none" stroke="midnightblue" d="M535.69,-117.91C548.86,-108.97 568.43,-93.8 580,-76 589.15,-61.93 594.31,-43.43 597.08,-29.77"/>
<polygon fill="midnightblue" stroke="midnightblue" points="600.58,-30.1 598.89,-19.64 593.69,-28.87 600.58,-30.1"/>
</g>
<!-- Node18 -->
<g id="node18" class="node">
<title>Node18</title>
<g id="a_node18"><a xlink:href="SArc_8h.html" target="_top" xlink:title=" ">
<polygon fill="white" stroke="black" points="448.5,-56.5 448.5,-75.5 571.5,-75.5 571.5,-56.5 448.5,-56.5"/>
<text text-anchor="middle" x="510" y="-63.5" font-family="Helvetica,sans-Serif" font-size="10.00">JSystem/JKernel/SArc.h</text>
</a>
</g>
</g>
<!-- Node17&#45;&gt;Node18 -->
<g id="edge30" class="edge">
<title>Node17&#45;&gt;Node18</title>
<path fill="none" stroke="midnightblue" d="M520.28,-117.98C518.57,-109.49 515.89,-96.2 513.7,-85.32"/>
<polygon fill="midnightblue" stroke="midnightblue" points="517.12,-84.62 511.72,-75.51 510.26,-86 517.12,-84.62"/>
</g>
<!-- Node18&#45;&gt;Node4 -->
<g id="edge31" class="edge">
<title>Node18&#45;&gt;Node4</title>
<path fill="none" stroke="midnightblue" d="M524.46,-56.32C538.5,-47.9 560.05,-34.97 576.54,-25.07"/>
<polygon fill="midnightblue" stroke="midnightblue" points="578.8,-27.8 585.58,-19.65 575.2,-21.8 578.8,-27.8"/>
</g>
<!-- Node19&#45;&gt;Node4 -->
<g id="edge35" class="edge">
<title>Node19&#45;&gt;Node4</title>
<path fill="none" stroke="midnightblue" d="M430,-246.44C435.13,-236.59 441.31,-222.92 444,-210 446.81,-196.51 447.46,-192.34 444,-179 439.41,-161.28 428.59,-160.72 424,-143 414.16,-105.02 411.41,-83.89 439,-56 467.79,-26.89 513.75,-16.2 549.2,-12.47"/>
<polygon fill="midnightblue" stroke="midnightblue" points="549.72,-15.93 559.37,-11.55 549.09,-8.96 549.72,-15.93"/>
</g>
<!-- Node19&#45;&gt;Node11 -->
<g id="edge34" class="edge">
<title>Node19&#45;&gt;Node11</title>
<path fill="none" stroke="midnightblue" d="M408.55,-246.4C400.34,-237.79 389.69,-226.63 380.45,-216.94"/>
<polygon fill="midnightblue" stroke="midnightblue" points="382.86,-214.4 373.43,-209.58 377.8,-219.23 382.86,-214.4"/>
</g>
<!-- Node19&#45;&gt;Node12 -->
<g id="edge36" class="edge">
<title>Node19&#45;&gt;Node12</title>
<path fill="none" stroke="midnightblue" d="M485.65,-246.48C545.77,-233.23 633.72,-213.85 682.02,-203.21"/>
<polygon fill="midnightblue" stroke="midnightblue" points="682.98,-206.58 691.99,-201.01 681.47,-199.74 682.98,-206.58"/>
</g>
<!-- Node20&#45;&gt;Node4 -->
<g id="edge45" class="edge">
<title>Node20&#45;&gt;Node4</title>
<path fill="none" stroke="midnightblue" d="M786.22,-252.74C843.56,-244.88 919.64,-230.88 942,-210 974.49,-179.66 973.7,-154.89 962,-112 954.4,-84.13 953.05,-72 929,-56 884.5,-26.39 731.86,-16.07 651.08,-12.62"/>
<polygon fill="midnightblue" stroke="midnightblue" points="650.79,-9.11 640.65,-12.2 650.5,-16.1 650.79,-9.11"/>
</g>
<!-- Node20&#45;&gt;Node11 -->
<g id="edge44" class="edge">
<title>Node20&#45;&gt;Node11</title>
<path fill="none" stroke="midnightblue" d="M649.82,-248.12C591.76,-237.58 508.06,-222.38 445.52,-211.03"/>
<polygon fill="midnightblue" stroke="midnightblue" points="446.13,-207.58 435.67,-209.24 444.88,-214.47 446.13,-207.58"/>
</g>
<!-- Node20&#45;&gt;Node12 -->
<g id="edge46" class="edge">
<title>Node20&#45;&gt;Node12</title>
<path fill="none" stroke="midnightblue" d="M717.78,-246.4C717.64,-237.06 717.45,-224.71 717.29,-214.52"/>
<polygon fill="midnightblue" stroke="midnightblue" points="720.79,-214.14 717.13,-204.19 713.79,-214.25 720.79,-214.14"/>
</g>
</g>
</svg>
        <g id="navigator" transform="translate(0 0)" fill="#404254">
                <rect fill="#f2f5e9" fill-opacity="0.5" stroke="#606060" stroke-width=".5" x="0" y="0" width="60" height="60"/>
                <use id="zoomplus" xlink:href="#zoomPlus" x="17" y="9" onmousedown="handleZoom(evt,'in')"/>
                <use id="zoomminus" xlink:href="#zoomMin" x="42" y="9" onmousedown="handleZoom(evt,'out')"/>
                <use id="reset" xlink:href="#resetDef" x="30" y="36" onmousedown="handleReset()"/>
                <g id="arrowUp" xlink:href="#dirArrow" transform="translate(30 24)" onmousedown="handlePan(0,-1)">
                  <use xlink:href="#rim" fill="#404040">
                        <set attributeName="fill" to="#808080" begin="arrowUp.mouseover" end="arrowUp.mouseout"/>
                  </use>
                  <path fill="none" stroke="white" stroke-width="1.5" d="M0,-3.0v7 M-2.5,-0.5L0,-3.0L2.5,-0.5"/>
                </g>
                <g id="arrowRight" xlink:href="#dirArrow" transform="rotate(90) translate(36 -43)" onmousedown="handlePan(1,0)">
                  <use xlink:href="#rim" fill="#404040">
                        <set attributeName="fill" to="#808080" begin="arrowRight.mouseover" end="arrowRight.mouseout"/>
                  </use>
                  <path fill="none" stroke="white" stroke-width="1.5" d="M0,-3.0v7 M-2.5,-0.5L0,-3.0L2.5,-0.5"/>
                </g>
                <g id="arrowDown" xlink:href="#dirArrow" transform="rotate(180) translate(-30 -48)" onmousedown="handlePan(0,1)">
                  <use xlink:href="#rim" fill="#404040">
                        <set attributeName="fill" to="#808080" begin="arrowDown.mouseover" end="arrowDown.mouseout"/>
                  </use>
                  <path fill="none" stroke="white" stroke-width="1.5" d="M0,-3.0v7 M-2.5,-0.5L0,-3.0L2.5,-0.5"/>
                </g>
                <g id="arrowLeft" xlink:href="#dirArrow" transform="rotate(270) translate(-36 17)" onmousedown="handlePan(-1,0)">
                  <use xlink:href="#rim" fill="#404040">
                        <set attributeName="fill" to="#808080" begin="arrowLeft.mouseover" end="arrowLeft.mouseout"/>
                  </use>
                  <path fill="none" stroke="white" stroke-width="1.5" d="M0,-3.0v7 M-2.5,-0.5L0,-3.0L2.5,-0.5"/>
                </g>
        </g>
        <svg viewBox="0 0 15 15" width="100%" height="30px" preserveAspectRatio="xMaxYMin meet">
         <g id="arrow_out" transform="scale(0.3 0.3)">
          <a xlink:href="JKRAramPiece_8cpp__incl_org.svg" target="_base">
           <rect id="button" ry="5" rx="5" y="6" x="6" height="38" width="38"
                fill="#f2f5e9" fill-opacity="0.5" stroke="#606060" stroke-width="1.0"/>
           <path id="arrow"
             d="M 11.500037,31.436501 C 11.940474,20.09759 22.043105,11.32322 32.158766,21.979434 L 37.068811,17.246167 C 37.068811,17.246167 37.088388,32 37.088388,32 L 22.160133,31.978069 C 22.160133,31.978069 26.997745,27.140456 26.997745,27.140456 C 18.528582,18.264221 13.291696,25.230495 11.500037,31.436501 z"
             style="fill:#404040;"/>
          </a>
         </g>
        </svg>
</svg>
