<?xml version="1.0" encoding="UTF-8" standalone="no"?>
<!DOCTYPE svg PUBLIC "-//W3C//DTD SVG 1.1//EN"
 "http://www.w3.org/Graphics/SVG/1.1/DTD/svg11.dtd">
<!-- Generated by graphviz version 2.44.0 ()
 -->
<!-- Title: libs/JSystem/JKernel/JKRAramStream.cpp Pages: 1 -->
<!--zoomable 419 -->
<svg id="main" version="1.1" xmlns="http://www.w3.org/2000/svg" xmlns:xlink="http://www.w3.org/1999/xlink" xml:space="preserve" onload="init(evt)">
<style type="text/css"><![CDATA[
.edge:hover path { stroke: red; }
.edge:hover polygon { stroke: red; fill: red; }
]]></style>
<script type="text/javascript"><![CDATA[
var edges = document.getElementsByTagName('g');
if (edges && edges.length) {
  for (var i=0;i<edges.length;i++) {
    if (edges[i].id.substr(0,4)=='edge') {
      edges[i].setAttribute('class','edge');
    }
  }
}
]]></script>
        <defs>
                <circle id="rim" cx="0" cy="0" r="7"/>
                <circle id="rim2" cx="0" cy="0" r="3.5"/>
                <g id="zoomPlus">
                        <use xlink:href="#rim" fill="#404040">
                                <set attributeName="fill" to="#808080" begin="zoomplus.mouseover" end="zoomplus.mouseout"/>
                        </use>
                        <path d="M-4,0h8M0,-4v8" fill="none" stroke="white" stroke-width="1.5" pointer-events="none"/>
                </g>
                <g id="zoomMin">
                        <use xlink:href="#rim" fill="#404040">
                                <set attributeName="fill" to="#808080" begin="zoomminus.mouseover" end="zoomminus.mouseout"/>
                        </use>
                        <path d="M-4,0h8" fill="none" stroke="white" stroke-width="1.5" pointer-events="none"/>
                </g>
                <g id="dirArrow">
                        <path fill="none" stroke="white" stroke-width="1.5" d="M0,-3.0v7 M-2.5,-0.5L0,-3.0L2.5,-0.5"/>
                </g>
               <g id="resetDef">
                       <use xlink:href="#rim2" fill="#404040">
                               <set attributeName="fill" to="#808080" begin="reset.mouseover" end="reset.mouseout"/>
                       </use>
               </g>
        </defs>

<script type="text/javascript">
var viewWidth = 978;
var viewHeight = 419;
var sectionId = 'dynsection-0';
</script>
<script xlink:href="svgpan.js"/>
<svg id="graph" class="graph">
<g id="viewport">
<title>libs/JSystem/JKernel/JKRAramStream.cpp</title>
<polygon fill="white" stroke="transparent" points="-4,4 -4,-415 973.5,-415 973.5,4 -4,4"/>
<!-- Node1 -->
<g id="node1" class="node">
<title>Node1</title>
<g id="a_node1"><a xlink:title=" ">
<polygon fill="#bfbfbf" stroke="black" points="531.5,-380.5 531.5,-410.5 642.5,-410.5 642.5,-380.5 531.5,-380.5"/>
<text text-anchor="start" x="539.5" y="-398.5" font-family="Helvetica,sans-Serif" font-size="10.00">libs/JSystem/JKernel</text>
<text text-anchor="middle" x="587" y="-387.5" font-family="Helvetica,sans-Serif" font-size="10.00">/JKRAramStream.cpp</text>
</a>
</g>
</g>
<!-- Node2 -->
<g id="node2" class="node">
<title>Node2</title>
<g id="a_node2"><a xlink:href="JKRAramStream_8h.html" target="_top" xlink:title=" ">
<polygon fill="white" stroke="black" points="178.5,-313.5 178.5,-343.5 345.5,-343.5 345.5,-313.5 178.5,-313.5"/>
<text text-anchor="start" x="186.5" y="-331.5" font-family="Helvetica,sans-Serif" font-size="10.00">JSystem/JKernel/JKRAramStream</text>
<text text-anchor="middle" x="262" y="-320.5" font-family="Helvetica,sans-Serif" font-size="10.00">/JKRAramStream.h</text>
</a>
</g>
</g>
<!-- Node1&#45;&gt;Node2 -->
<g id="edge1" class="edge">
<title>Node1&#45;&gt;Node2</title>
<path fill="none" stroke="midnightblue" d="M531.5,-383.4C479.4,-372.98 400.88,-357.28 342.02,-345.5"/>
<polygon fill="midnightblue" stroke="midnightblue" points="342.5,-342.03 332.01,-343.5 341.13,-348.89 342.5,-342.03"/>
</g>
<!-- Node7 -->
<g id="node7" class="node">
<title>Node7</title>
<g id="a_node7"><a xlink:href="global_8h.html" target="_top" xlink:title=" ">
<polygon fill="white" stroke="black" points="437,-185 437,-204 487,-204 487,-185 437,-185"/>
<text text-anchor="middle" x="462" y="-192" font-family="Helvetica,sans-Serif" font-size="10.00">global.h</text>
</a>
</g>
</g>
<!-- Node1&#45;&gt;Node7 -->
<g id="edge40" class="edge">
<title>Node1&#45;&gt;Node7</title>
<path fill="none" stroke="midnightblue" d="M579.02,-380.35C563.87,-353.67 529.61,-294.28 498,-246 490.58,-234.67 481.76,-222.28 474.71,-212.61"/>
<polygon fill="midnightblue" stroke="midnightblue" points="477.34,-210.27 468.59,-204.29 471.7,-214.42 477.34,-210.27"/>
</g>
<!-- Node17 -->
<g id="node17" class="node">
<title>Node17</title>
<g id="a_node17"><a xlink:href="JKRAramPiece_8h.html" target="_top" xlink:title=" ">
<polygon fill="white" stroke="black" points="506.5,-179.5 506.5,-209.5 667.5,-209.5 667.5,-179.5 506.5,-179.5"/>
<text text-anchor="start" x="514.5" y="-197.5" font-family="Helvetica,sans-Serif" font-size="10.00">JSystem/JKernel/JKRAramPiece</text>
<text text-anchor="middle" x="587" y="-186.5" font-family="Helvetica,sans-Serif" font-size="10.00">/JKRAramPiece.h</text>
</a>
</g>
</g>
<!-- Node1&#45;&gt;Node17 -->
<g id="edge29" class="edge">
<title>Node1&#45;&gt;Node17</title>
<path fill="none" stroke="midnightblue" d="M587,-380.19C587,-346.48 587,-261.8 587,-219.84"/>
<polygon fill="midnightblue" stroke="midnightblue" points="590.5,-219.68 587,-209.68 583.5,-219.68 590.5,-219.68"/>
</g>
<!-- Node18 -->
<g id="node18" class="node">
<title>Node18</title>
<g id="a_node18"><a xlink:href="JKRExpHeap_8h.html" target="_top" xlink:title=" ">
<polygon fill="white" stroke="black" points="632,-313.5 632,-343.5 784,-343.5 784,-313.5 632,-313.5"/>
<text text-anchor="start" x="640" y="-331.5" font-family="Helvetica,sans-Serif" font-size="10.00">JSystem/JKernel/JKRExpHeap</text>
<text text-anchor="middle" x="708" y="-320.5" font-family="Helvetica,sans-Serif" font-size="10.00">/JKRExpHeap.h</text>
</a>
</g>
</g>
<!-- Node1&#45;&gt;Node18 -->
<g id="edge34" class="edge">
<title>Node1&#45;&gt;Node18</title>
<path fill="none" stroke="midnightblue" d="M613.26,-380.4C630.7,-371.03 653.8,-358.62 672.83,-348.39"/>
<polygon fill="midnightblue" stroke="midnightblue" points="674.64,-351.39 681.8,-343.58 671.33,-345.23 674.64,-351.39"/>
</g>
<!-- Node20 -->
<g id="node20" class="node">
<title>Node20</title>
<g id="a_node20"><a xlink:title=" ">
<polygon fill="white" stroke="#bfbfbf" points="802.5,-313.5 802.5,-343.5 969.5,-343.5 969.5,-313.5 802.5,-313.5"/>
<text text-anchor="start" x="810.5" y="-331.5" font-family="Helvetica,sans-Serif" font-size="10.00">JSystem/JKernel/JKRAramStream</text>
<text text-anchor="middle" x="886" y="-320.5" font-family="Helvetica,sans-Serif" font-size="10.00">/asm/func_802D3CE0.s</text>
</a>
</g>
</g>
<!-- Node1&#45;&gt;Node20 -->
<g id="edge41" class="edge">
<title>Node1&#45;&gt;Node20</title>
<path fill="none" stroke="midnightblue" d="M642.54,-382.43C690.14,-372.08 759.1,-357.09 811.49,-345.7"/>
<polygon fill="midnightblue" stroke="midnightblue" points="812.38,-349.09 821.4,-343.54 810.89,-342.25 812.38,-349.09"/>
</g>
<!-- Node3 -->
<g id="node3" class="node">
<title>Node3</title>
<g id="a_node3"><a xlink:href="JKRThread_8h.html" target="_top" xlink:title=" ">
<polygon fill="white" stroke="black" points="345.5,-246.5 345.5,-276.5 488.5,-276.5 488.5,-246.5 345.5,-246.5"/>
<text text-anchor="start" x="353.5" y="-264.5" font-family="Helvetica,sans-Serif" font-size="10.00">JSystem/JKernel/JKRThread</text>
<text text-anchor="middle" x="417" y="-253.5" font-family="Helvetica,sans-Serif" font-size="10.00">/JKRThread.h</text>
</a>
</g>
</g>
<!-- Node2&#45;&gt;Node3 -->
<g id="edge2" class="edge">
<title>Node2&#45;&gt;Node3</title>
<path fill="none" stroke="midnightblue" d="M295.63,-313.4C318.58,-303.77 349.19,-290.94 373.92,-280.56"/>
<polygon fill="midnightblue" stroke="midnightblue" points="375.56,-283.67 383.43,-276.58 372.86,-277.22 375.56,-283.67"/>
</g>
<!-- Node6 -->
<g id="node6" class="node">
<title>Node6</title>
<g id="a_node6"><a xlink:href="types_8h.html" target="_top" xlink:title=" ">
<polygon fill="white" stroke="black" points="430.5,-0.5 430.5,-19.5 511.5,-19.5 511.5,-0.5 430.5,-0.5"/>
<text text-anchor="middle" x="471" y="-7.5" font-family="Helvetica,sans-Serif" font-size="10.00">dolphin/types.h</text>
</a>
</g>
</g>
<!-- Node2&#45;&gt;Node6 -->
<g id="edge28" class="edge">
<title>Node2&#45;&gt;Node6</title>
<path fill="none" stroke="midnightblue" d="M178.38,-320C101.71,-307.99 0,-276.74 0,-195.5 0,-195.5 0,-195.5 0,-126.5 0,-83.27 28.28,-75.22 67,-56 127.85,-25.79 325.68,-15.57 420.04,-12.35"/>
<polygon fill="midnightblue" stroke="midnightblue" points="420.32,-15.85 430.2,-12.02 420.09,-8.85 420.32,-15.85"/>
</g>
<!-- Node13 -->
<g id="node13" class="node">
<title>Node13</title>
<g id="a_node13"><a xlink:href="JSUFileInputStream_8h.html" target="_top" xlink:title=" ">
<polygon fill="white" stroke="black" points="65.5,-246.5 65.5,-276.5 234.5,-276.5 234.5,-246.5 65.5,-246.5"/>
<text text-anchor="start" x="73.5" y="-264.5" font-family="Helvetica,sans-Serif" font-size="10.00">JSystem/JSupport/JSUFile</text>
<text text-anchor="middle" x="150" y="-253.5" font-family="Helvetica,sans-Serif" font-size="10.00">InputStream/JSUFileInputStream.h</text>
</a>
</g>
</g>
<!-- Node2&#45;&gt;Node13 -->
<g id="edge19" class="edge">
<title>Node2&#45;&gt;Node13</title>
<path fill="none" stroke="midnightblue" d="M237.7,-313.4C221.7,-304.11 200.56,-291.84 183.04,-281.67"/>
<polygon fill="midnightblue" stroke="midnightblue" points="184.66,-278.57 174.25,-276.58 181.15,-284.62 184.66,-278.57"/>
</g>
<!-- Node14 -->
<g id="node14" class="node">
<title>Node14</title>
<g id="a_node14"><a xlink:href="JSURandomInputStream_8h.html" target="_top" xlink:title=" ">
<polygon fill="white" stroke="black" points="93.5,-179.5 93.5,-209.5 282.5,-209.5 282.5,-179.5 93.5,-179.5"/>
<text text-anchor="start" x="101.5" y="-197.5" font-family="Helvetica,sans-Serif" font-size="10.00">JSystem/JSupport/JSURandom</text>
<text text-anchor="middle" x="188" y="-186.5" font-family="Helvetica,sans-Serif" font-size="10.00">InputStream/JSURandomInputStream.h</text>
</a>
</g>
</g>
<!-- Node2&#45;&gt;Node14 -->
<g id="edge27" class="edge">
<title>Node2&#45;&gt;Node14</title>
<path fill="none" stroke="midnightblue" d="M261.47,-313.29C260.26,-296.24 256.39,-267.29 244,-246 237.36,-234.6 227.27,-224.35 217.48,-216.11"/>
<polygon fill="midnightblue" stroke="midnightblue" points="219.4,-213.17 209.4,-209.68 215.04,-218.64 219.4,-213.17"/>
</g>
<!-- Node4 -->
<g id="node4" class="node">
<title>Node4</title>
<g id="a_node4"><a xlink:href="JKRDisposer_8h.html" target="_top" xlink:title=" ">
<polygon fill="white" stroke="black" points="685.5,-179.5 685.5,-209.5 836.5,-209.5 836.5,-179.5 685.5,-179.5"/>
<text text-anchor="start" x="693.5" y="-197.5" font-family="Helvetica,sans-Serif" font-size="10.00">JSystem/JKernel/JKRDisposer</text>
<text text-anchor="middle" x="761" y="-186.5" font-family="Helvetica,sans-Serif" font-size="10.00">/JKRDisposer.h</text>
</a>
</g>
</g>
<!-- Node3&#45;&gt;Node4 -->
<g id="edge3" class="edge">
<title>Node3&#45;&gt;Node4</title>
<path fill="none" stroke="midnightblue" d="M488.69,-246.95C543.4,-236.62 618.91,-222.35 676.54,-211.46"/>
<polygon fill="midnightblue" stroke="midnightblue" points="677.55,-214.83 686.72,-209.53 676.25,-207.95 677.55,-214.83"/>
</g>
<!-- Node3&#45;&gt;Node6 -->
<g id="edge7" class="edge">
<title>Node3&#45;&gt;Node6</title>
<path fill="none" stroke="midnightblue" d="M405.95,-246.33C379.98,-211.18 320.3,-118.34 362,-56 375.18,-36.3 398.73,-25.22 420.58,-18.98"/>
<polygon fill="midnightblue" stroke="midnightblue" points="421.64,-22.32 430.45,-16.45 419.89,-15.54 421.64,-22.32"/>
</g>
<!-- Node3&#45;&gt;Node7 -->
<g id="edge8" class="edge">
<title>Node3&#45;&gt;Node7</title>
<path fill="none" stroke="midnightblue" d="M426.76,-246.4C433.64,-236.46 442.89,-223.11 450.18,-212.57"/>
<polygon fill="midnightblue" stroke="midnightblue" points="453.17,-214.41 455.98,-204.19 447.41,-210.42 453.17,-214.41"/>
</g>
<!-- Node5 -->
<g id="node5" class="node">
<title>Node5</title>
<g id="a_node5"><a xlink:href="JSUList_8h.html" target="_top" xlink:title=" ">
<polygon fill="white" stroke="black" points="672,-112.5 672,-142.5 808,-142.5 808,-112.5 672,-112.5"/>
<text text-anchor="start" x="680" y="-130.5" font-family="Helvetica,sans-Serif" font-size="10.00">JSystem/JSupport/JSUList</text>
<text text-anchor="middle" x="740" y="-119.5" font-family="Helvetica,sans-Serif" font-size="10.00">/JSUList.h</text>
</a>
</g>
</g>
<!-- Node4&#45;&gt;Node5 -->
<g id="edge4" class="edge">
<title>Node4&#45;&gt;Node5</title>
<path fill="none" stroke="midnightblue" d="M756.44,-179.4C753.88,-171.47 750.62,-161.38 747.68,-152.27"/>
<polygon fill="midnightblue" stroke="midnightblue" points="750.95,-151.02 744.55,-142.58 744.29,-153.17 750.95,-151.02"/>
</g>
<!-- Node4&#45;&gt;Node6 -->
<g id="edge6" class="edge">
<title>Node4&#45;&gt;Node6</title>
<path fill="none" stroke="midnightblue" d="M782.33,-179.47C804.15,-163.32 832.79,-135.93 817,-112 784.26,-62.39 609.56,-30.79 521.64,-17.79"/>
<polygon fill="midnightblue" stroke="midnightblue" points="522.01,-14.31 511.61,-16.33 521.01,-21.23 522.01,-14.31"/>
</g>
<!-- Node5&#45;&gt;Node6 -->
<g id="edge5" class="edge">
<title>Node5&#45;&gt;Node6</title>
<path fill="none" stroke="midnightblue" d="M727.55,-112.33C712.62,-96.24 686.08,-70.37 658,-56 614.89,-33.93 560.6,-22.42 521.64,-16.6"/>
<polygon fill="midnightblue" stroke="midnightblue" points="521.98,-13.11 511.58,-15.17 520.99,-20.04 521.98,-13.11"/>
</g>
<!-- Node7&#45;&gt;Node6 -->
<g id="edge9" class="edge">
<title>Node7&#45;&gt;Node6</title>
<path fill="none" stroke="midnightblue" d="M462.43,-184.7C463.82,-156.69 468.13,-69.21 470.06,-30.16"/>
<polygon fill="midnightblue" stroke="midnightblue" points="473.57,-29.87 470.57,-19.71 466.58,-29.53 473.57,-29.87"/>
</g>
<!-- Node8 -->
<g id="node8" class="node">
<title>Node8</title>
<g id="a_node8"><a xlink:href="AR_8h.html" target="_top" xlink:title=" ">
<polygon fill="white" stroke="black" points="370.5,-56.5 370.5,-75.5 419.5,-75.5 419.5,-56.5 370.5,-56.5"/>
<text text-anchor="middle" x="395" y="-63.5" font-family="Helvetica,sans-Serif" font-size="10.00">ar/AR.h</text>
</a>
</g>
</g>
<!-- Node7&#45;&gt;Node8 -->
<g id="edge10" class="edge">
<title>Node7&#45;&gt;Node8</title>
<path fill="none" stroke="midnightblue" d="M436.74,-186.52C416.06,-179.32 388.16,-165.85 375,-143 364.4,-124.59 374.09,-100.47 383.31,-84.38"/>
<polygon fill="midnightblue" stroke="midnightblue" points="386.51,-85.87 388.81,-75.53 380.56,-82.18 386.51,-85.87"/>
</g>
<!-- Node9 -->
<g id="node9" class="node">
<title>Node9</title>
<g id="a_node9"><a xlink:href="ARQ_8h.html" target="_top" xlink:title=" ">
<polygon fill="white" stroke="black" points="560,-118 560,-137 616,-137 616,-118 560,-118"/>
<text text-anchor="middle" x="588" y="-125" font-family="Helvetica,sans-Serif" font-size="10.00">ar/ARQ.h</text>
</a>
</g>
</g>
<!-- Node7&#45;&gt;Node9 -->
<g id="edge12" class="edge">
<title>Node7&#45;&gt;Node9</title>
<path fill="none" stroke="midnightblue" d="M478.73,-184.87C500.1,-173.84 537.3,-154.66 562.28,-141.77"/>
<polygon fill="midnightblue" stroke="midnightblue" points="563.92,-144.86 571.2,-137.17 560.71,-138.64 563.92,-144.86"/>
</g>
<!-- Node10 -->
<g id="node10" class="node">
<title>Node10</title>
<g id="a_node10"><a xlink:href="mwcc_8h.html" target="_top" xlink:title=" ">
<polygon fill="white" stroke="black" points="384,-118 384,-137 434,-137 434,-118 384,-118"/>
<text text-anchor="middle" x="409" y="-125" font-family="Helvetica,sans-Serif" font-size="10.00">mwcc.h</text>
</a>
</g>
</g>
<!-- Node7&#45;&gt;Node10 -->
<g id="edge14" class="edge">
<title>Node7&#45;&gt;Node10</title>
<path fill="none" stroke="midnightblue" d="M454.85,-184.73C446.59,-174.6 432.8,-157.69 422.5,-145.06"/>
<polygon fill="midnightblue" stroke="midnightblue" points="425.07,-142.67 416.03,-137.13 419.64,-147.09 425.07,-142.67"/>
</g>
<!-- Node11 -->
<g id="node11" class="node">
<title>Node11</title>
<g id="a_node11"><a xlink:href="OS_8h.html" target="_top" xlink:title=" ">
<polygon fill="white" stroke="black" points="490,-118 490,-137 542,-137 542,-118 490,-118"/>
<text text-anchor="middle" x="516" y="-125" font-family="Helvetica,sans-Serif" font-size="10.00">os/OS.h</text>
</a>
</g>
</g>
<!-- Node7&#45;&gt;Node11 -->
<g id="edge15" class="edge">
<title>Node7&#45;&gt;Node11</title>
<path fill="none" stroke="midnightblue" d="M469.28,-184.73C477.7,-174.6 491.75,-157.69 502.25,-145.06"/>
<polygon fill="midnightblue" stroke="midnightblue" points="505.13,-147.06 508.83,-137.13 499.75,-142.58 505.13,-147.06"/>
</g>
<!-- Node8&#45;&gt;Node6 -->
<g id="edge11" class="edge">
<title>Node8&#45;&gt;Node6</title>
<path fill="none" stroke="midnightblue" d="M407.21,-56.32C418.78,-48.11 436.38,-35.6 450.16,-25.81"/>
<polygon fill="midnightblue" stroke="midnightblue" points="452.44,-28.48 458.57,-19.83 448.39,-22.77 452.44,-28.48"/>
</g>
<!-- Node9&#45;&gt;Node6 -->
<g id="edge13" class="edge">
<title>Node9&#45;&gt;Node6</title>
<path fill="none" stroke="midnightblue" d="M590.73,-117.76C594.63,-103.44 600,-74.69 587,-56 572.17,-34.66 545.65,-23.44 521.72,-17.54"/>
<polygon fill="midnightblue" stroke="midnightblue" points="522.18,-14.06 511.66,-15.32 520.67,-20.89 522.18,-14.06"/>
</g>
<!-- Node11&#45;&gt;Node6 -->
<g id="edge16" class="edge">
<title>Node11&#45;&gt;Node6</title>
<path fill="none" stroke="midnightblue" d="M512.62,-117.82C505.32,-99.09 487.97,-54.55 478.13,-29.29"/>
<polygon fill="midnightblue" stroke="midnightblue" points="481.31,-27.83 474.42,-19.78 474.79,-30.37 481.31,-27.83"/>
</g>
<!-- Node12 -->
<g id="node12" class="node">
<title>Node12</title>
<g id="a_node12"><a xlink:href="dvd_8h.html" target="_top" xlink:title=" ">
<polygon fill="white" stroke="black" points="518.5,-56.5 518.5,-75.5 577.5,-75.5 577.5,-56.5 518.5,-56.5"/>
<text text-anchor="middle" x="548" y="-63.5" font-family="Helvetica,sans-Serif" font-size="10.00">dvd/dvd.h</text>
</a>
</g>
</g>
<!-- Node11&#45;&gt;Node12 -->
<g id="edge17" class="edge">
<title>Node11&#45;&gt;Node12</title>
<path fill="none" stroke="midnightblue" d="M520.58,-117.98C525.24,-109.32 532.59,-95.65 538.51,-84.65"/>
<polygon fill="midnightblue" stroke="midnightblue" points="541.77,-85.97 543.42,-75.51 535.6,-82.66 541.77,-85.97"/>
</g>
<!-- Node12&#45;&gt;Node6 -->
<g id="edge18" class="edge">
<title>Node12&#45;&gt;Node6</title>
<path fill="none" stroke="midnightblue" d="M535.63,-56.32C523.84,-48.06 505.87,-35.45 491.86,-25.63"/>
<polygon fill="midnightblue" stroke="midnightblue" points="493.54,-22.53 483.34,-19.65 489.52,-28.26 493.54,-22.53"/>
</g>
<!-- Node13&#45;&gt;Node6 -->
<g id="edge26" class="edge">
<title>Node13&#45;&gt;Node6</title>
<path fill="none" stroke="midnightblue" d="M121.52,-246.35C107.79,-237.86 92.66,-225.66 85,-210 68.66,-176.61 22.6,-126.66 86,-56 107.95,-31.54 320.56,-18.21 420.09,-13.26"/>
<polygon fill="midnightblue" stroke="midnightblue" points="420.4,-16.75 430.22,-12.77 420.06,-9.76 420.4,-16.75"/>
</g>
<!-- Node13&#45;&gt;Node14 -->
<g id="edge20" class="edge">
<title>Node13&#45;&gt;Node14</title>
<path fill="none" stroke="midnightblue" d="M158.25,-246.4C163.03,-238.22 169.16,-227.73 174.62,-218.39"/>
<polygon fill="midnightblue" stroke="midnightblue" points="177.75,-219.98 179.77,-209.58 171.7,-216.44 177.75,-219.98"/>
</g>
<!-- Node14&#45;&gt;Node6 -->
<g id="edge25" class="edge">
<title>Node14&#45;&gt;Node6</title>
<path fill="none" stroke="midnightblue" d="M213.05,-179.4C228.01,-170.23 246.79,-157.34 261,-143 293.88,-109.81 282.31,-83.61 320,-56 349.47,-34.41 389.29,-23.1 420.63,-17.22"/>
<polygon fill="midnightblue" stroke="midnightblue" points="421.24,-20.67 430.49,-15.49 420.04,-13.77 421.24,-20.67"/>
</g>
<!-- Node15 -->
<g id="node15" class="node">
<title>Node15</title>
<g id="a_node15"><a xlink:href="JSUInputStream_8h.html" target="_top" xlink:title=" ">
<polygon fill="white" stroke="black" points="110.5,-112.5 110.5,-142.5 251.5,-142.5 251.5,-112.5 110.5,-112.5"/>
<text text-anchor="start" x="118.5" y="-130.5" font-family="Helvetica,sans-Serif" font-size="10.00">JSystem/JSupport/JSUInput</text>
<text text-anchor="middle" x="181" y="-119.5" font-family="Helvetica,sans-Serif" font-size="10.00">Stream.h</text>
</a>
</g>
</g>
<!-- Node14&#45;&gt;Node15 -->
<g id="edge21" class="edge">
<title>Node14&#45;&gt;Node15</title>
<path fill="none" stroke="midnightblue" d="M186.48,-179.4C185.64,-171.56 184.56,-161.6 183.59,-152.57"/>
<polygon fill="midnightblue" stroke="midnightblue" points="187.07,-152.14 182.52,-142.58 180.11,-152.89 187.07,-152.14"/>
</g>
<!-- Node15&#45;&gt;Node6 -->
<g id="edge24" class="edge">
<title>Node15&#45;&gt;Node6</title>
<path fill="none" stroke="midnightblue" d="M142.24,-112.49C111.37,-99.25 76.34,-78.16 96,-56 117.15,-32.16 322.46,-18.58 420.01,-13.42"/>
<polygon fill="midnightblue" stroke="midnightblue" points="420.42,-16.9 430.23,-12.89 420.06,-9.91 420.42,-16.9"/>
</g>
<!-- Node16 -->
<g id="node16" class="node">
<title>Node16</title>
<g id="a_node16"><a xlink:href="JSUIosBase_8h.html" target="_top" xlink:title=" ">
<polygon fill="white" stroke="black" points="104.5,-56.5 104.5,-75.5 267.5,-75.5 267.5,-56.5 104.5,-56.5"/>
<text text-anchor="middle" x="186" y="-63.5" font-family="Helvetica,sans-Serif" font-size="10.00">JSystem/JSupport/JSUIosBase.h</text>
</a>
</g>
</g>
<!-- Node15&#45;&gt;Node16 -->
<g id="edge22" class="edge">
<title>Node15&#45;&gt;Node16</title>
<path fill="none" stroke="midnightblue" d="M182.18,-112.4C182.85,-104.47 183.69,-94.46 184.42,-85.86"/>
<polygon fill="midnightblue" stroke="midnightblue" points="187.92,-85.92 185.27,-75.66 180.95,-85.33 187.92,-85.92"/>
</g>
<!-- Node16&#45;&gt;Node6 -->
<g id="edge23" class="edge">
<title>Node16&#45;&gt;Node6</title>
<path fill="none" stroke="midnightblue" d="M231.16,-56.44C282.62,-46.69 366.53,-30.8 420.22,-20.62"/>
<polygon fill="midnightblue" stroke="midnightblue" points="421.03,-24.03 430.21,-18.73 419.73,-17.15 421.03,-24.03"/>
</g>
<!-- Node17&#45;&gt;Node5 -->
<g id="edge30" class="edge">
<title>Node17&#45;&gt;Node5</title>
<path fill="none" stroke="midnightblue" d="M620.2,-179.4C642.85,-169.77 673.07,-156.94 697.48,-146.56"/>
<polygon fill="midnightblue" stroke="midnightblue" points="699.03,-149.71 706.87,-142.58 696.29,-143.27 699.03,-149.71"/>
</g>
<!-- Node17&#45;&gt;Node6 -->
<g id="edge32" class="edge">
<title>Node17&#45;&gt;Node6</title>
<path fill="none" stroke="midnightblue" d="M601.88,-179.1C610.45,-169.73 620.41,-156.74 625,-143 637.61,-105.27 632.58,-83.67 604,-56 581.77,-34.48 548.89,-23.24 521.39,-17.37"/>
<polygon fill="midnightblue" stroke="midnightblue" points="522.02,-13.93 511.53,-15.45 520.67,-20.8 522.02,-13.93"/>
</g>
<!-- Node17&#45;&gt;Node9 -->
<g id="edge31" class="edge">
<title>Node17&#45;&gt;Node9</title>
<path fill="none" stroke="midnightblue" d="M587.22,-179.4C587.36,-170.06 587.55,-157.71 587.71,-147.52"/>
<polygon fill="midnightblue" stroke="midnightblue" points="591.21,-147.25 587.87,-137.19 584.21,-147.14 591.21,-147.25"/>
</g>
<!-- Node17&#45;&gt;Node11 -->
<g id="edge33" class="edge">
<title>Node17&#45;&gt;Node11</title>
<path fill="none" stroke="midnightblue" d="M571.59,-179.4C560.19,-168.96 544.67,-154.75 532.93,-144"/>
<polygon fill="midnightblue" stroke="midnightblue" points="535.24,-141.37 525.5,-137.19 530.51,-146.53 535.24,-141.37"/>
</g>
<!-- Node18&#45;&gt;Node6 -->
<g id="edge39" class="edge">
<title>Node18&#45;&gt;Node6</title>
<path fill="none" stroke="midnightblue" d="M775.36,-313.42C834.78,-296.59 912,-261.94 912,-195.5 912,-195.5 912,-195.5 912,-126.5 912,-46.6 637.68,-20.89 521.75,-13.59"/>
<polygon fill="midnightblue" stroke="midnightblue" points="521.89,-10.09 511.7,-12.98 521.47,-17.08 521.89,-10.09"/>
</g>
<!-- Node19 -->
<g id="node19" class="node">
<title>Node19</title>
<g id="a_node19"><a xlink:href="JKRHeap_8h.html" target="_top" xlink:title=" ">
<polygon fill="white" stroke="black" points="658,-246.5 658,-276.5 794,-276.5 794,-246.5 658,-246.5"/>
<text text-anchor="start" x="666" y="-264.5" font-family="Helvetica,sans-Serif" font-size="10.00">JSystem/JKernel/JKRHeap</text>
<text text-anchor="middle" x="726" y="-253.5" font-family="Helvetica,sans-Serif" font-size="10.00">/JKRHeap.h</text>
</a>
</g>
</g>
<!-- Node18&#45;&gt;Node19 -->
<g id="edge35" class="edge">
<title>Node18&#45;&gt;Node19</title>
<path fill="none" stroke="midnightblue" d="M711.91,-313.4C714.1,-305.47 716.9,-295.38 719.42,-286.27"/>
<polygon fill="midnightblue" stroke="midnightblue" points="722.81,-287.15 722.1,-276.58 716.06,-285.28 722.81,-287.15"/>
</g>
<!-- Node19&#45;&gt;Node4 -->
<g id="edge36" class="edge">
<title>Node19&#45;&gt;Node4</title>
<path fill="none" stroke="midnightblue" d="M733.59,-246.4C738,-238.22 743.65,-227.73 748.67,-218.39"/>
<polygon fill="midnightblue" stroke="midnightblue" points="751.76,-220.04 753.42,-209.58 745.6,-216.72 751.76,-220.04"/>
</g>
<!-- Node19&#45;&gt;Node6 -->
<g id="edge37" class="edge">
<title>Node19&#45;&gt;Node6</title>
<path fill="none" stroke="midnightblue" d="M794.28,-247.04C814.33,-239.58 834.06,-227.98 846,-210 858.81,-190.71 841.24,-124.46 833,-112 808.45,-74.89 791.38,-72.37 750,-56 674.19,-26.01 579.26,-15.99 521.96,-12.66"/>
<polygon fill="midnightblue" stroke="midnightblue" points="521.88,-9.15 511.71,-12.11 521.51,-16.14 521.88,-9.15"/>
</g>
<!-- Node19&#45;&gt;Node7 -->
<g id="edge38" class="edge">
<title>Node19&#45;&gt;Node7</title>
<path fill="none" stroke="midnightblue" d="M657.89,-248.47C612.17,-239.65 550.86,-226.38 498,-210 495.72,-209.29 493.38,-208.5 491.04,-207.67"/>
<polygon fill="midnightblue" stroke="midnightblue" points="492.19,-204.36 481.59,-204.07 489.69,-210.9 492.19,-204.36"/>
</g>
</g>
</svg>
        <g id="navigator" transform="translate(0 0)" fill="#404254">
                <rect fill="#f2f5e9" fill-opacity="0.5" stroke="#606060" stroke-width=".5" x="0" y="0" width="60" height="60"/>
                <use id="zoomplus" xlink:href="#zoomPlus" x="17" y="9" onmousedown="handleZoom(evt,'in')"/>
                <use id="zoomminus" xlink:href="#zoomMin" x="42" y="9" onmousedown="handleZoom(evt,'out')"/>
                <use id="reset" xlink:href="#resetDef" x="30" y="36" onmousedown="handleReset()"/>
                <g id="arrowUp" xlink:href="#dirArrow" transform="translate(30 24)" onmousedown="handlePan(0,-1)">
                  <use xlink:href="#rim" fill="#404040">
                        <set attributeName="fill" to="#808080" begin="arrowUp.mouseover" end="arrowUp.mouseout"/>
                  </use>
                  <path fill="none" stroke="white" stroke-width="1.5" d="M0,-3.0v7 M-2.5,-0.5L0,-3.0L2.5,-0.5"/>
                </g>
                <g id="arrowRight" xlink:href="#dirArrow" transform="rotate(90) translate(36 -43)" onmousedown="handlePan(1,0)">
                  <use xlink:href="#rim" fill="#404040">
                        <set attributeName="fill" to="#808080" begin="arrowRight.mouseover" end="arrowRight.mouseout"/>
                  </use>
                  <path fill="none" stroke="white" stroke-width="1.5" d="M0,-3.0v7 M-2.5,-0.5L0,-3.0L2.5,-0.5"/>
                </g>
                <g id="arrowDown" xlink:href="#dirArrow" transform="rotate(180) translate(-30 -48)" onmousedown="handlePan(0,1)">
                  <use xlink:href="#rim" fill="#404040">
                        <set attributeName="fill" to="#808080" begin="arrowDown.mouseover" end="arrowDown.mouseout"/>
                  </use>
                  <path fill="none" stroke="white" stroke-width="1.5" d="M0,-3.0v7 M-2.5,-0.5L0,-3.0L2.5,-0.5"/>
                </g>
                <g id="arrowLeft" xlink:href="#dirArrow" transform="rotate(270) translate(-36 17)" onmousedown="handlePan(-1,0)">
                  <use xlink:href="#rim" fill="#404040">
                        <set attributeName="fill" to="#808080" begin="arrowLeft.mouseover" end="arrowLeft.mouseout"/>
                  </use>
                  <path fill="none" stroke="white" stroke-width="1.5" d="M0,-3.0v7 M-2.5,-0.5L0,-3.0L2.5,-0.5"/>
                </g>
        </g>
        <svg viewBox="0 0 15 15" width="100%" height="30px" preserveAspectRatio="xMaxYMin meet">
         <g id="arrow_out" transform="scale(0.3 0.3)">
          <a xlink:href="JKRAramStream_8cpp__incl_org.svg" target="_base">
           <rect id="button" ry="5" rx="5" y="6" x="6" height="38" width="38"
                fill="#f2f5e9" fill-opacity="0.5" stroke="#606060" stroke-width="1.0"/>
           <path id="arrow"
             d="M 11.500037,31.436501 C 11.940474,20.09759 22.043105,11.32322 32.158766,21.979434 L 37.068811,17.246167 C 37.068811,17.246167 37.088388,32 37.088388,32 L 22.160133,31.978069 C 22.160133,31.978069 26.997745,27.140456 26.997745,27.140456 C 18.528582,18.264221 13.291696,25.230495 11.500037,31.436501 z"
             style="fill:#404040;"/>
          </a>
         </g>
        </svg>
</svg>
