<?xml version="1.0" encoding="UTF-8" standalone="no"?>
<!DOCTYPE svg PUBLIC "-//W3C//DTD SVG 1.1//EN"
 "http://www.w3.org/Graphics/SVG/1.1/DTD/svg11.dtd">
<!-- Generated by graphviz version 2.44.0 ()
 -->
<!-- Title: include/JSystem/JKernel/JKRAramBlock/JKRAramBlock.h Pages: 1 -->
<svg width="947pt" height="240pt"
 viewBox="0.00 0.00 947.00 240.00" xmlns="http://www.w3.org/2000/svg" xmlns:xlink="http://www.w3.org/1999/xlink">
<g id="graph0" class="graph" transform="scale(1 1) rotate(0) translate(4 236)">
<title>include/JSystem/JKernel/JKRAramBlock/JKRAramBlock.h</title>
<polygon fill="white" stroke="transparent" points="-4,4 -4,-236 943,-236 943,4 -4,4"/>
<!-- Node1 -->
<g id="node1" class="node">
<title>Node1</title>
<g id="a_node1"><a xlink:title=" ">
<polygon fill="#bfbfbf" stroke="black" points="426.5,-201.5 426.5,-231.5 590.5,-231.5 590.5,-201.5 426.5,-201.5"/>
<text text-anchor="start" x="434.5" y="-219.5" font-family="Helvetica,sans-Serif" font-size="10.00">include/JSystem/JKernel</text>
<text text-anchor="middle" x="508.5" y="-208.5" font-family="Helvetica,sans-Serif" font-size="10.00">/JKRAramBlock/JKRAramBlock.h</text>
</a>
</g>
</g>
<!-- Node2 -->
<g id="node2" class="node">
<title>Node2</title>
<g id="a_node2"><a xlink:href="JKRAram_8cpp.html" target="_top" xlink:title=" ">
<polygon fill="white" stroke="black" points="0,-0.5 0,-30.5 109,-30.5 109,-0.5 0,-0.5"/>
<text text-anchor="start" x="8" y="-18.5" font-family="Helvetica,sans-Serif" font-size="10.00">libs/JSystem/JKernel</text>
<text text-anchor="middle" x="54.5" y="-7.5" font-family="Helvetica,sans-Serif" font-size="10.00">/JKRAram.cpp</text>
</a>
</g>
</g>
<!-- Node1&#45;&gt;Node2 -->
<g id="edge1" class="edge">
<title>Node1&#45;&gt;Node2</title>
<path fill="none" stroke="midnightblue" d="M455.52,-198.13C428.14,-188.85 394.3,-176.9 364.5,-165 256.71,-121.95 133.76,-58.6 80.91,-30.64"/>
<polygon fill="midnightblue" stroke="midnightblue" points="454.7,-201.55 465.3,-201.42 456.94,-194.91 454.7,-201.55"/>
</g>
<!-- Node3 -->
<g id="node3" class="node">
<title>Node3</title>
<g id="a_node3"><a xlink:href="JKRAramBlock_8cpp.html" target="_top" xlink:title=" ">
<polygon fill="white" stroke="black" points="496,-67.5 496,-97.5 605,-97.5 605,-67.5 496,-67.5"/>
<text text-anchor="start" x="504" y="-85.5" font-family="Helvetica,sans-Serif" font-size="10.00">libs/JSystem/JKernel</text>
<text text-anchor="middle" x="550.5" y="-74.5" font-family="Helvetica,sans-Serif" font-size="10.00">/JKRAramBlock.cpp</text>
</a>
</g>
</g>
<!-- Node1&#45;&gt;Node3 -->
<g id="edge2" class="edge">
<title>Node1&#45;&gt;Node3</title>
<path fill="none" stroke="midnightblue" d="M528.34,-193.24C534.62,-184.94 540.86,-175.07 544.5,-165 552.64,-142.45 552.65,-114.15 551.71,-97.53"/>
<polygon fill="midnightblue" stroke="midnightblue" points="525.43,-191.28 521.9,-201.27 530.89,-195.66 525.43,-191.28"/>
</g>
<!-- Node4 -->
<g id="node4" class="node">
<title>Node4</title>
<g id="a_node4"><a xlink:href="JKRAramHeap_8cpp.html" target="_top" xlink:title=" ">
<polygon fill="white" stroke="black" points="623,-67.5 623,-97.5 732,-97.5 732,-67.5 623,-67.5"/>
<text text-anchor="start" x="631" y="-85.5" font-family="Helvetica,sans-Serif" font-size="10.00">libs/JSystem/JKernel</text>
<text text-anchor="middle" x="677.5" y="-74.5" font-family="Helvetica,sans-Serif" font-size="10.00">/JKRAramHeap.cpp</text>
</a>
</g>
</g>
<!-- Node1&#45;&gt;Node4 -->
<g id="edge3" class="edge">
<title>Node1&#45;&gt;Node4</title>
<path fill="none" stroke="midnightblue" d="M534.83,-194.94C569.52,-167.84 629.64,-120.88 659.54,-97.52"/>
<polygon fill="midnightblue" stroke="midnightblue" points="532.31,-192.46 526.59,-201.37 536.62,-197.98 532.31,-192.46"/>
</g>
<!-- Node5 -->
<g id="node5" class="node">
<title>Node5</title>
<g id="a_node5"><a xlink:href="JKRAramHeap_8h.html" target="_top" xlink:title=" ">
<polygon fill="white" stroke="black" points="374,-134.5 374,-164.5 535,-164.5 535,-134.5 374,-134.5"/>
<text text-anchor="start" x="382" y="-152.5" font-family="Helvetica,sans-Serif" font-size="10.00">include/JSystem/JKernel</text>
<text text-anchor="middle" x="454.5" y="-141.5" font-family="Helvetica,sans-Serif" font-size="10.00">/JKRAramHeap/JKRAramHeap.h</text>
</a>
</g>
</g>
<!-- Node1&#45;&gt;Node5 -->
<g id="edge4" class="edge">
<title>Node1&#45;&gt;Node5</title>
<path fill="none" stroke="midnightblue" d="M490.18,-193.45C482.25,-183.9 473.2,-173 466.19,-164.58"/>
<polygon fill="midnightblue" stroke="midnightblue" points="487.7,-195.94 496.78,-201.4 493.08,-191.47 487.7,-195.94"/>
</g>
<!-- Node5&#45;&gt;Node2 -->
<g id="edge6" class="edge">
<title>Node5&#45;&gt;Node2</title>
<path fill="none" stroke="midnightblue" d="M402.21,-131.24C322.18,-104.83 170.87,-54.9 97.1,-30.56"/>
<polygon fill="midnightblue" stroke="midnightblue" points="401.48,-134.69 412.07,-134.5 403.67,-128.04 401.48,-134.69"/>
</g>
<!-- Node5&#45;&gt;Node3 -->
<g id="edge7" class="edge">
<title>Node5&#45;&gt;Node3</title>
<path fill="none" stroke="midnightblue" d="M483.69,-128.73C498.55,-118.68 516.26,-106.68 529.71,-97.58"/>
<polygon fill="midnightblue" stroke="midnightblue" points="481.65,-125.89 475.33,-134.4 485.57,-131.69 481.65,-125.89"/>
</g>
<!-- Node5&#45;&gt;Node4 -->
<g id="edge8" class="edge">
<title>Node5&#45;&gt;Node4</title>
<path fill="none" stroke="midnightblue" d="M512.55,-131.58C548.77,-121.02 594.85,-107.59 629.09,-97.61"/>
<polygon fill="midnightblue" stroke="midnightblue" points="511.23,-128.32 502.61,-134.48 513.19,-135.04 511.23,-128.32"/>
</g>
<!-- Node6 -->
<g id="node6" class="node">
<title>Node6</title>
<g id="a_node6"><a xlink:href="m__Do__main_8cpp.html" target="_top" xlink:title=" ">
<polygon fill="white" stroke="black" points="808,-6 808,-25 939,-25 939,-6 808,-6"/>
<text text-anchor="middle" x="873.5" y="-13" font-family="Helvetica,sans-Serif" font-size="10.00">src/m_Do/m_Do_main.cpp</text>
</a>
</g>
</g>
<!-- Node5&#45;&gt;Node6 -->
<g id="edge5" class="edge">
<title>Node5&#45;&gt;Node6</title>
<path fill="none" stroke="midnightblue" d="M457.58,-124.46C461.32,-105.72 469.54,-80.66 487.5,-67 543.04,-24.74 730.53,-41.72 799.5,-31 810.37,-29.31 822.07,-27.17 832.89,-25.05"/>
<polygon fill="midnightblue" stroke="midnightblue" points="454.12,-123.92 455.89,-134.36 461.02,-125.09 454.12,-123.92"/>
</g>
<!-- Node7 -->
<g id="node7" class="node">
<title>Node7</title>
<g id="a_node7"><a xlink:href="JKRAram_8h.html" target="_top" xlink:title=" ">
<polygon fill="white" stroke="black" points="314,-67.5 314,-97.5 439,-97.5 439,-67.5 314,-67.5"/>
<text text-anchor="start" x="322" y="-85.5" font-family="Helvetica,sans-Serif" font-size="10.00">include/JSystem/JKernel</text>
<text text-anchor="middle" x="376.5" y="-74.5" font-family="Helvetica,sans-Serif" font-size="10.00">/JKRAram/JKRAram.h</text>
</a>
</g>
</g>
<!-- Node5&#45;&gt;Node7 -->
<g id="edge9" class="edge">
<title>Node5&#45;&gt;Node7</title>
<path fill="none" stroke="midnightblue" d="M429.76,-127.88C417.91,-118.01 404.02,-106.43 393.39,-97.58"/>
<polygon fill="midnightblue" stroke="midnightblue" points="427.65,-130.68 437.58,-134.4 432.13,-125.31 427.65,-130.68"/>
</g>
<!-- Node7&#45;&gt;Node2 -->
<g id="edge12" class="edge">
<title>Node7&#45;&gt;Node2</title>
<path fill="none" stroke="midnightblue" d="M303.71,-67.99C251.73,-58.17 180.2,-44.32 117.5,-31 114.76,-30.42 111.95,-29.81 109.11,-29.19"/>
<polygon fill="midnightblue" stroke="midnightblue" points="303.37,-71.48 313.84,-69.89 304.66,-64.6 303.37,-71.48"/>
</g>
<!-- Node7&#45;&gt;Node6 -->
<g id="edge11" class="edge">
<title>Node7&#45;&gt;Node6</title>
<path fill="none" stroke="midnightblue" d="M449.04,-67.67C450.54,-67.44 452.03,-67.21 453.5,-67 606.49,-44.68 646.6,-53.89 799.5,-31 810.51,-29.35 822.36,-27.2 833.29,-25.06"/>
<polygon fill="midnightblue" stroke="midnightblue" points="448.36,-64.23 439.04,-69.28 449.47,-71.14 448.36,-64.23"/>
</g>
<!-- Node8 -->
<g id="node8" class="node">
<title>Node8</title>
<g id="a_node8"><a xlink:href="m__Do__machine__exception_8cpp.html" target="_top" xlink:title=" ">
<polygon fill="white" stroke="black" points="661,-0.5 661,-30.5 790,-30.5 790,-0.5 661,-0.5"/>
<text text-anchor="start" x="669" y="-18.5" font-family="Helvetica,sans-Serif" font-size="10.00">src/m_Do/m_Do_machine</text>
<text text-anchor="middle" x="725.5" y="-7.5" font-family="Helvetica,sans-Serif" font-size="10.00">_exception.cpp</text>
</a>
</g>
</g>
<!-- Node7&#45;&gt;Node8 -->
<g id="edge10" class="edge">
<title>Node7&#45;&gt;Node8</title>
<path fill="none" stroke="midnightblue" d="M449.07,-67.82C450.56,-67.54 452.04,-67.27 453.5,-67 541.89,-50.68 564.2,-47.76 652.5,-31 655.17,-30.49 657.89,-29.97 660.63,-29.44"/>
<polygon fill="midnightblue" stroke="midnightblue" points="448.3,-64.4 439.11,-69.67 449.58,-71.28 448.3,-64.4"/>
</g>
<!-- Node9 -->
<g id="node9" class="node">
<title>Node9</title>
<g id="a_node9"><a xlink:href="JKRAramPiece_8cpp.html" target="_top" xlink:title=" ">
<polygon fill="white" stroke="black" points="127,-0.5 127,-30.5 236,-30.5 236,-0.5 127,-0.5"/>
<text text-anchor="start" x="135" y="-18.5" font-family="Helvetica,sans-Serif" font-size="10.00">libs/JSystem/JKernel</text>
<text text-anchor="middle" x="181.5" y="-7.5" font-family="Helvetica,sans-Serif" font-size="10.00">/JKRAramPiece.cpp</text>
</a>
</g>
</g>
<!-- Node7&#45;&gt;Node9 -->
<g id="edge13" class="edge">
<title>Node7&#45;&gt;Node9</title>
<path fill="none" stroke="midnightblue" d="M324.68,-64.23C293.14,-53.71 253.35,-40.45 223.73,-30.58"/>
<polygon fill="midnightblue" stroke="midnightblue" points="323.59,-67.55 334.19,-67.4 325.81,-60.91 323.59,-67.55"/>
</g>
<!-- Node10 -->
<g id="node10" class="node">
<title>Node10</title>
<g id="a_node10"><a xlink:href="JKRAramArchive_8cpp.html" target="_top" xlink:title=" ">
<polygon fill="white" stroke="black" points="254,-0.5 254,-30.5 367,-30.5 367,-0.5 254,-0.5"/>
<text text-anchor="start" x="262" y="-18.5" font-family="Helvetica,sans-Serif" font-size="10.00">libs/JSystem/JKernel</text>
<text text-anchor="middle" x="310.5" y="-7.5" font-family="Helvetica,sans-Serif" font-size="10.00">/JKRAramArchive.cpp</text>
</a>
</g>
</g>
<!-- Node7&#45;&gt;Node10 -->
<g id="edge14" class="edge">
<title>Node7&#45;&gt;Node10</title>
<path fill="none" stroke="midnightblue" d="M354.99,-60.31C345.09,-50.56 333.61,-39.26 324.79,-30.58"/>
<polygon fill="midnightblue" stroke="midnightblue" points="352.6,-62.87 362.18,-67.4 357.51,-57.89 352.6,-62.87"/>
</g>
<!-- Node11 -->
<g id="node11" class="node">
<title>Node11</title>
<g id="a_node11"><a xlink:href="JKRCompArchive_8cpp.html" target="_top" xlink:title=" ">
<polygon fill="white" stroke="black" points="385,-0.5 385,-30.5 500,-30.5 500,-0.5 385,-0.5"/>
<text text-anchor="start" x="393" y="-18.5" font-family="Helvetica,sans-Serif" font-size="10.00">libs/JSystem/JKernel</text>
<text text-anchor="middle" x="442.5" y="-7.5" font-family="Helvetica,sans-Serif" font-size="10.00">/JKRCompArchive.cpp</text>
</a>
</g>
</g>
<!-- Node7&#45;&gt;Node11 -->
<g id="edge15" class="edge">
<title>Node7&#45;&gt;Node11</title>
<path fill="none" stroke="midnightblue" d="M398.01,-60.31C407.91,-50.56 419.39,-39.26 428.21,-30.58"/>
<polygon fill="midnightblue" stroke="midnightblue" points="395.49,-57.89 390.82,-67.4 400.4,-62.87 395.49,-57.89"/>
</g>
<!-- Node12 -->
<g id="node12" class="node">
<title>Node12</title>
<g id="a_node12"><a xlink:href="JKRDvdAramRipper_8cpp.html" target="_top" xlink:title=" ">
<polygon fill="white" stroke="black" points="518,-0.5 518,-30.5 643,-30.5 643,-0.5 518,-0.5"/>
<text text-anchor="start" x="526" y="-18.5" font-family="Helvetica,sans-Serif" font-size="10.00">libs/JSystem/JKernel</text>
<text text-anchor="middle" x="580.5" y="-7.5" font-family="Helvetica,sans-Serif" font-size="10.00">/JKRDvdAramRipper.cpp</text>
</a>
</g>
</g>
<!-- Node7&#45;&gt;Node12 -->
<g id="edge16" class="edge">
<title>Node7&#45;&gt;Node12</title>
<path fill="none" stroke="midnightblue" d="M430.46,-64.31C463.46,-53.79 505.16,-40.51 536.21,-30.61"/>
<polygon fill="midnightblue" stroke="midnightblue" points="428.98,-61.11 420.51,-67.48 431.1,-67.77 428.98,-61.11"/>
</g>
</g>
</svg>
