<?xml version="1.0" encoding="UTF-8" standalone="no"?>
<!DOCTYPE svg PUBLIC "-//W3C//DTD SVG 1.1//EN"
 "http://www.w3.org/Graphics/SVG/1.1/DTD/svg11.dtd">
<!-- Generated by graphviz version 2.44.0 ()
 -->
<!-- Title: libs/JSystem/JKernel/JKRAramBlock.cpp Pages: 1 -->
<!--zoomable 352 -->
<svg id="main" version="1.1" xmlns="http://www.w3.org/2000/svg" xmlns:xlink="http://www.w3.org/1999/xlink" xml:space="preserve" onload="init(evt)">
<style type="text/css"><![CDATA[
.edge:hover path { stroke: red; }
.edge:hover polygon { stroke: red; fill: red; }
]]></style>
<script type="text/javascript"><![CDATA[
var edges = document.getElementsByTagName('g');
if (edges && edges.length) {
  for (var i=0;i<edges.length;i++) {
    if (edges[i].id.substr(0,4)=='edge') {
      edges[i].setAttribute('class','edge');
    }
  }
}
]]></script>
        <defs>
                <circle id="rim" cx="0" cy="0" r="7"/>
                <circle id="rim2" cx="0" cy="0" r="3.5"/>
                <g id="zoomPlus">
                        <use xlink:href="#rim" fill="#404040">
                                <set attributeName="fill" to="#808080" begin="zoomplus.mouseover" end="zoomplus.mouseout"/>
                        </use>
                        <path d="M-4,0h8M0,-4v8" fill="none" stroke="white" stroke-width="1.5" pointer-events="none"/>
                </g>
                <g id="zoomMin">
                        <use xlink:href="#rim" fill="#404040">
                                <set attributeName="fill" to="#808080" begin="zoomminus.mouseover" end="zoomminus.mouseout"/>
                        </use>
                        <path d="M-4,0h8" fill="none" stroke="white" stroke-width="1.5" pointer-events="none"/>
                </g>
                <g id="dirArrow">
                        <path fill="none" stroke="white" stroke-width="1.5" d="M0,-3.0v7 M-2.5,-0.5L0,-3.0L2.5,-0.5"/>
                </g>
               <g id="resetDef">
                       <use xlink:href="#rim2" fill="#404040">
                               <set attributeName="fill" to="#808080" begin="reset.mouseover" end="reset.mouseout"/>
                       </use>
               </g>
        </defs>

<script type="text/javascript">
var viewWidth = 632;
var viewHeight = 352;
var sectionId = 'dynsection-0';
</script>
<script xlink:href="svgpan.js"/>
<svg id="graph" class="graph">
<g id="viewport">
<title>libs/JSystem/JKernel/JKRAramBlock.cpp</title>
<polygon fill="white" stroke="transparent" points="-4,4 -4,-348 627.8,-348 627.8,4 -4,4"/>
<!-- Node1 -->
<g id="node1" class="node">
<title>Node1</title>
<g id="a_node1"><a xlink:title=" ">
<polygon fill="#bfbfbf" stroke="black" points="218,-313.5 218,-343.5 327,-343.5 327,-313.5 218,-313.5"/>
<text text-anchor="start" x="226" y="-331.5" font-family="Helvetica,sans-Serif" font-size="10.00">libs/JSystem/JKernel</text>
<text text-anchor="middle" x="272.5" y="-320.5" font-family="Helvetica,sans-Serif" font-size="10.00">/JKRAramBlock.cpp</text>
</a>
</g>
</g>
<!-- Node2 -->
<g id="node2" class="node">
<title>Node2</title>
<g id="a_node2"><a xlink:href="JKRAramBlock_8h.html" target="_top" xlink:title=" ">
<polygon fill="white" stroke="black" points="0,-179.5 0,-209.5 161,-209.5 161,-179.5 0,-179.5"/>
<text text-anchor="start" x="8" y="-197.5" font-family="Helvetica,sans-Serif" font-size="10.00">JSystem/JKernel/JKRAramBlock</text>
<text text-anchor="middle" x="80.5" y="-186.5" font-family="Helvetica,sans-Serif" font-size="10.00">/JKRAramBlock.h</text>
</a>
</g>
</g>
<!-- Node1&#45;&gt;Node2 -->
<g id="edge1" class="edge">
<title>Node1&#45;&gt;Node2</title>
<path fill="none" stroke="midnightblue" d="M217.93,-325.04C180.27,-320.44 131.71,-308.29 101.5,-277 86.81,-261.78 82.02,-237.71 80.63,-219.67"/>
<polygon fill="midnightblue" stroke="midnightblue" points="84.12,-219.42 80.15,-209.6 77.13,-219.75 84.12,-219.42"/>
</g>
<!-- Node5 -->
<g id="node5" class="node">
<title>Node5</title>
<g id="a_node5"><a xlink:href="JKRAramHeap_8h.html" target="_top" xlink:title=" ">
<polygon fill="white" stroke="black" points="110,-246.5 110,-276.5 269,-276.5 269,-246.5 110,-246.5"/>
<text text-anchor="start" x="118" y="-264.5" font-family="Helvetica,sans-Serif" font-size="10.00">JSystem/JKernel/JKRAramHeap</text>
<text text-anchor="middle" x="189.5" y="-253.5" font-family="Helvetica,sans-Serif" font-size="10.00">/JKRAramHeap.h</text>
</a>
</g>
</g>
<!-- Node1&#45;&gt;Node5 -->
<g id="edge5" class="edge">
<title>Node1&#45;&gt;Node5</title>
<path fill="none" stroke="midnightblue" d="M254.49,-313.4C243.07,-304.45 228.11,-292.74 215.42,-282.8"/>
<polygon fill="midnightblue" stroke="midnightblue" points="217.51,-279.99 207.47,-276.58 213.19,-285.5 217.51,-279.99"/>
</g>
<!-- Node7 -->
<g id="node7" class="node">
<title>Node7</title>
<g id="a_node7"><a xlink:href="global_8h.html" target="_top" xlink:title=" ">
<polygon fill="white" stroke="black" points="425.5,-185 425.5,-204 475.5,-204 475.5,-185 425.5,-185"/>
<text text-anchor="middle" x="450.5" y="-192" font-family="Helvetica,sans-Serif" font-size="10.00">global.h</text>
</a>
</g>
</g>
<!-- Node1&#45;&gt;Node7 -->
<g id="edge26" class="edge">
<title>Node1&#45;&gt;Node7</title>
<path fill="none" stroke="midnightblue" d="M327.38,-323.88C362.27,-318.65 405.75,-306.22 432.5,-277 448.06,-260 451.23,-232.68 451.41,-214.42"/>
<polygon fill="midnightblue" stroke="midnightblue" points="454.9,-214.32 451.21,-204.39 447.91,-214.45 454.9,-214.32"/>
</g>
<!-- Node13 -->
<g id="node13" class="node">
<title>Node13</title>
<g id="a_node13"><a xlink:href="JKRHeap_8h.html" target="_top" xlink:title=" ">
<polygon fill="white" stroke="black" points="287.5,-246.5 287.5,-276.5 423.5,-276.5 423.5,-246.5 287.5,-246.5"/>
<text text-anchor="start" x="295.5" y="-264.5" font-family="Helvetica,sans-Serif" font-size="10.00">JSystem/JKernel/JKRHeap</text>
<text text-anchor="middle" x="355.5" y="-253.5" font-family="Helvetica,sans-Serif" font-size="10.00">/JKRHeap.h</text>
</a>
</g>
</g>
<!-- Node1&#45;&gt;Node13 -->
<g id="edge22" class="edge">
<title>Node1&#45;&gt;Node13</title>
<path fill="none" stroke="midnightblue" d="M290.51,-313.4C301.93,-304.45 316.89,-292.74 329.58,-282.8"/>
<polygon fill="midnightblue" stroke="midnightblue" points="331.81,-285.5 337.53,-276.58 327.49,-279.99 331.81,-285.5"/>
</g>
<!-- Node3 -->
<g id="node3" class="node">
<title>Node3</title>
<g id="a_node3"><a xlink:href="JSUList_8h.html" target="_top" xlink:title=" ">
<polygon fill="white" stroke="black" points="58.5,-112.5 58.5,-142.5 194.5,-142.5 194.5,-112.5 58.5,-112.5"/>
<text text-anchor="start" x="66.5" y="-130.5" font-family="Helvetica,sans-Serif" font-size="10.00">JSystem/JSupport/JSUList</text>
<text text-anchor="middle" x="126.5" y="-119.5" font-family="Helvetica,sans-Serif" font-size="10.00">/JSUList.h</text>
</a>
</g>
</g>
<!-- Node2&#45;&gt;Node3 -->
<g id="edge2" class="edge">
<title>Node2&#45;&gt;Node3</title>
<path fill="none" stroke="midnightblue" d="M90.48,-179.4C96.39,-171.05 104,-160.29 110.71,-150.81"/>
<polygon fill="midnightblue" stroke="midnightblue" points="113.62,-152.76 116.54,-142.58 107.9,-148.72 113.62,-152.76"/>
</g>
<!-- Node4 -->
<g id="node4" class="node">
<title>Node4</title>
<g id="a_node4"><a xlink:href="types_8h.html" target="_top" xlink:title=" ">
<polygon fill="white" stroke="black" points="315,-0.5 315,-19.5 396,-19.5 396,-0.5 315,-0.5"/>
<text text-anchor="middle" x="355.5" y="-7.5" font-family="Helvetica,sans-Serif" font-size="10.00">dolphin/types.h</text>
</a>
</g>
</g>
<!-- Node2&#45;&gt;Node4 -->
<g id="edge4" class="edge">
<title>Node2&#45;&gt;Node4</title>
<path fill="none" stroke="midnightblue" d="M67.62,-179.4C53.77,-162.45 35.51,-133.6 49.5,-112 77.66,-68.52 225.2,-35.1 304.67,-19.93"/>
<polygon fill="midnightblue" stroke="midnightblue" points="305.77,-23.28 314.95,-18 304.48,-16.41 305.77,-23.28"/>
</g>
<!-- Node3&#45;&gt;Node4 -->
<g id="edge3" class="edge">
<title>Node3&#45;&gt;Node4</title>
<path fill="none" stroke="midnightblue" d="M139.38,-112.35C154.51,-96.52 181.04,-71.13 208.5,-56 238.51,-39.47 275.38,-28.2 304.69,-21.07"/>
<polygon fill="midnightblue" stroke="midnightblue" points="305.78,-24.41 314.72,-18.72 304.19,-17.6 305.78,-24.41"/>
</g>
<!-- Node5&#45;&gt;Node2 -->
<g id="edge6" class="edge">
<title>Node5&#45;&gt;Node2</title>
<path fill="none" stroke="midnightblue" d="M165.85,-246.4C150.42,-237.2 130.08,-225.07 113.12,-214.95"/>
<polygon fill="midnightblue" stroke="midnightblue" points="114.49,-211.69 104.11,-209.58 110.9,-217.7 114.49,-211.69"/>
</g>
<!-- Node5&#45;&gt;Node4 -->
<g id="edge10" class="edge">
<title>Node5&#45;&gt;Node4</title>
<path fill="none" stroke="midnightblue" d="M191.14,-246.33C193.48,-229.58 198.75,-201.15 209.5,-179 241.26,-113.54 305.29,-53.48 336.93,-26.3"/>
<polygon fill="midnightblue" stroke="midnightblue" points="339.57,-28.66 344.94,-19.53 335.05,-23.31 339.57,-28.66"/>
</g>
<!-- Node6 -->
<g id="node6" class="node">
<title>Node6</title>
<g id="a_node6"><a xlink:href="JKRDisposer_8h.html" target="_top" xlink:title=" ">
<polygon fill="white" stroke="black" points="218,-179.5 218,-209.5 369,-209.5 369,-179.5 218,-179.5"/>
<text text-anchor="start" x="226" y="-197.5" font-family="Helvetica,sans-Serif" font-size="10.00">JSystem/JKernel/JKRDisposer</text>
<text text-anchor="middle" x="293.5" y="-186.5" font-family="Helvetica,sans-Serif" font-size="10.00">/JKRDisposer.h</text>
</a>
</g>
</g>
<!-- Node5&#45;&gt;Node6 -->
<g id="edge7" class="edge">
<title>Node5&#45;&gt;Node6</title>
<path fill="none" stroke="midnightblue" d="M212.07,-246.4C226.79,-237.2 246.19,-225.07 262.37,-214.95"/>
<polygon fill="midnightblue" stroke="midnightblue" points="264.35,-217.84 270.98,-209.58 260.64,-211.91 264.35,-217.84"/>
</g>
<!-- Node5&#45;&gt;Node7 -->
<g id="edge11" class="edge">
<title>Node5&#45;&gt;Node7</title>
<path fill="none" stroke="midnightblue" d="M245.81,-246.48C297.42,-233.62 372.21,-215 415.65,-204.18"/>
<polygon fill="midnightblue" stroke="midnightblue" points="416.6,-207.55 425.46,-201.74 414.91,-200.76 416.6,-207.55"/>
</g>
<!-- Node6&#45;&gt;Node3 -->
<g id="edge8" class="edge">
<title>Node6&#45;&gt;Node3</title>
<path fill="none" stroke="midnightblue" d="M257.26,-179.4C232.32,-169.69 198.97,-156.71 172.2,-146.29"/>
<polygon fill="midnightblue" stroke="midnightblue" points="173.25,-142.94 162.67,-142.58 170.72,-149.47 173.25,-142.94"/>
</g>
<!-- Node6&#45;&gt;Node4 -->
<g id="edge9" class="edge">
<title>Node6&#45;&gt;Node4</title>
<path fill="none" stroke="midnightblue" d="M293.58,-179.11C294.23,-153.25 298.01,-97.71 317.5,-56 322.56,-45.16 330.94,-34.83 338.54,-26.81"/>
<polygon fill="midnightblue" stroke="midnightblue" points="341.13,-29.16 345.73,-19.62 336.18,-24.21 341.13,-29.16"/>
</g>
<!-- Node7&#45;&gt;Node4 -->
<g id="edge12" class="edge">
<title>Node7&#45;&gt;Node4</title>
<path fill="none" stroke="midnightblue" d="M447.64,-184.71C442.58,-169.52 431.34,-137.53 418.5,-112 403.02,-81.22 380.98,-47.69 367.5,-28.05"/>
<polygon fill="midnightblue" stroke="midnightblue" points="370.2,-25.82 361.63,-19.6 364.45,-29.81 370.2,-25.82"/>
</g>
<!-- Node8 -->
<g id="node8" class="node">
<title>Node8</title>
<g id="a_node8"><a xlink:href="AR_8h.html" target="_top" xlink:title=" ">
<polygon fill="white" stroke="black" points="408,-56.5 408,-75.5 457,-75.5 457,-56.5 408,-56.5"/>
<text text-anchor="middle" x="432.5" y="-63.5" font-family="Helvetica,sans-Serif" font-size="10.00">ar/AR.h</text>
</a>
</g>
</g>
<!-- Node7&#45;&gt;Node8 -->
<g id="edge13" class="edge">
<title>Node7&#45;&gt;Node8</title>
<path fill="none" stroke="midnightblue" d="M451.79,-184.82C453.77,-169.81 456.78,-138.07 451.5,-112 449.61,-102.65 445.71,-92.83 441.93,-84.75"/>
<polygon fill="midnightblue" stroke="midnightblue" points="444.97,-83.01 437.38,-75.63 438.71,-86.14 444.97,-83.01"/>
</g>
<!-- Node9 -->
<g id="node9" class="node">
<title>Node9</title>
<g id="a_node9"><a xlink:href="ARQ_8h.html" target="_top" xlink:title=" ">
<polygon fill="white" stroke="black" points="475.5,-56.5 475.5,-75.5 531.5,-75.5 531.5,-56.5 475.5,-56.5"/>
<text text-anchor="middle" x="503.5" y="-63.5" font-family="Helvetica,sans-Serif" font-size="10.00">ar/ARQ.h</text>
</a>
</g>
</g>
<!-- Node7&#45;&gt;Node9 -->
<g id="edge15" class="edge">
<title>Node7&#45;&gt;Node9</title>
<path fill="none" stroke="midnightblue" d="M454.14,-184.81C462.73,-164.31 484.38,-112.65 495.94,-85.04"/>
<polygon fill="midnightblue" stroke="midnightblue" points="499.2,-86.33 499.83,-75.76 492.74,-83.63 499.2,-86.33"/>
</g>
<!-- Node10 -->
<g id="node10" class="node">
<title>Node10</title>
<g id="a_node10"><a xlink:href="mwcc_8h.html" target="_top" xlink:title=" ">
<polygon fill="white" stroke="black" points="359.5,-118 359.5,-137 409.5,-137 409.5,-118 359.5,-118"/>
<text text-anchor="middle" x="384.5" y="-125" font-family="Helvetica,sans-Serif" font-size="10.00">mwcc.h</text>
</a>
</g>
</g>
<!-- Node7&#45;&gt;Node10 -->
<g id="edge17" class="edge">
<title>Node7&#45;&gt;Node10</title>
<path fill="none" stroke="midnightblue" d="M441.6,-184.73C431.11,-174.4 413.48,-157.04 400.58,-144.33"/>
<polygon fill="midnightblue" stroke="midnightblue" points="402.84,-141.65 393.26,-137.13 397.93,-146.64 402.84,-141.65"/>
</g>
<!-- Node11 -->
<g id="node11" class="node">
<title>Node11</title>
<g id="a_node11"><a xlink:href="OS_8h.html" target="_top" xlink:title=" ">
<polygon fill="white" stroke="black" points="553.5,-118 553.5,-137 605.5,-137 605.5,-118 553.5,-118"/>
<text text-anchor="middle" x="579.5" y="-125" font-family="Helvetica,sans-Serif" font-size="10.00">os/OS.h</text>
</a>
</g>
</g>
<!-- Node7&#45;&gt;Node11 -->
<g id="edge18" class="edge">
<title>Node7&#45;&gt;Node11</title>
<path fill="none" stroke="midnightblue" d="M467.63,-184.87C489.51,-173.84 527.59,-154.66 553.17,-141.77"/>
<polygon fill="midnightblue" stroke="midnightblue" points="554.94,-144.79 562.3,-137.17 551.79,-138.54 554.94,-144.79"/>
</g>
<!-- Node8&#45;&gt;Node4 -->
<g id="edge14" class="edge">
<title>Node8&#45;&gt;Node4</title>
<path fill="none" stroke="midnightblue" d="M420.13,-56.32C408.34,-48.06 390.37,-35.45 376.36,-25.63"/>
<polygon fill="midnightblue" stroke="midnightblue" points="378.04,-22.53 367.84,-19.65 374.02,-28.26 378.04,-22.53"/>
</g>
<!-- Node9&#45;&gt;Node4 -->
<g id="edge16" class="edge">
<title>Node9&#45;&gt;Node4</title>
<path fill="none" stroke="midnightblue" d="M480.05,-56.44C455.37,-47.44 416.31,-33.19 388.52,-23.05"/>
<polygon fill="midnightblue" stroke="midnightblue" points="389.44,-19.66 378.84,-19.52 387.04,-26.23 389.44,-19.66"/>
</g>
<!-- Node11&#45;&gt;Node4 -->
<g id="edge19" class="edge">
<title>Node11&#45;&gt;Node4</title>
<path fill="none" stroke="midnightblue" d="M590.69,-117.8C607.39,-103.79 635.18,-75.78 618.5,-56 591.9,-24.47 475.01,-15.03 406.34,-12.2"/>
<polygon fill="midnightblue" stroke="midnightblue" points="406.29,-8.7 396.17,-11.82 406.03,-15.7 406.29,-8.7"/>
</g>
<!-- Node12 -->
<g id="node12" class="node">
<title>Node12</title>
<g id="a_node12"><a xlink:href="dvd_8h.html" target="_top" xlink:title=" ">
<polygon fill="white" stroke="black" points="550,-56.5 550,-75.5 609,-75.5 609,-56.5 550,-56.5"/>
<text text-anchor="middle" x="579.5" y="-63.5" font-family="Helvetica,sans-Serif" font-size="10.00">dvd/dvd.h</text>
</a>
</g>
</g>
<!-- Node11&#45;&gt;Node12 -->
<g id="edge20" class="edge">
<title>Node11&#45;&gt;Node12</title>
<path fill="none" stroke="midnightblue" d="M579.5,-117.98C579.5,-109.58 579.5,-96.48 579.5,-85.66"/>
<polygon fill="midnightblue" stroke="midnightblue" points="583,-85.51 579.5,-75.51 576,-85.51 583,-85.51"/>
</g>
<!-- Node12&#45;&gt;Node4 -->
<g id="edge21" class="edge">
<title>Node12&#45;&gt;Node4</title>
<path fill="none" stroke="midnightblue" d="M549.75,-57.83C511.66,-48.65 445.28,-32.64 400.87,-21.94"/>
<polygon fill="midnightblue" stroke="midnightblue" points="401.46,-18.48 390.91,-19.54 399.81,-25.28 401.46,-18.48"/>
</g>
<!-- Node13&#45;&gt;Node4 -->
<g id="edge24" class="edge">
<title>Node13&#45;&gt;Node4</title>
<path fill="none" stroke="midnightblue" d="M363.86,-246.48C369.22,-236.65 375.68,-222.99 378.5,-210 381.42,-196.54 382.97,-192.03 378.5,-179 371.92,-159.83 357.08,-162.17 350.5,-143 337.27,-104.45 344.82,-55.82 350.67,-29.67"/>
<polygon fill="midnightblue" stroke="midnightblue" points="354.15,-30.19 353.09,-19.65 347.34,-28.55 354.15,-30.19"/>
</g>
<!-- Node13&#45;&gt;Node6 -->
<g id="edge23" class="edge">
<title>Node13&#45;&gt;Node6</title>
<path fill="none" stroke="midnightblue" d="M342.05,-246.4C333.84,-237.79 323.19,-226.63 313.95,-216.94"/>
<polygon fill="midnightblue" stroke="midnightblue" points="316.36,-214.4 306.93,-209.58 311.3,-219.23 316.36,-214.4"/>
</g>
<!-- Node13&#45;&gt;Node7 -->
<g id="edge25" class="edge">
<title>Node13&#45;&gt;Node7</title>
<path fill="none" stroke="midnightblue" d="M376.11,-246.4C391.9,-235.6 413.59,-220.76 429.47,-209.89"/>
<polygon fill="midnightblue" stroke="midnightblue" points="431.79,-212.54 438.07,-204.01 427.84,-206.77 431.79,-212.54"/>
</g>
</g>
</svg>
        <g id="navigator" transform="translate(0 0)" fill="#404254">
                <rect fill="#f2f5e9" fill-opacity="0.5" stroke="#606060" stroke-width=".5" x="0" y="0" width="60" height="60"/>
                <use id="zoomplus" xlink:href="#zoomPlus" x="17" y="9" onmousedown="handleZoom(evt,'in')"/>
                <use id="zoomminus" xlink:href="#zoomMin" x="42" y="9" onmousedown="handleZoom(evt,'out')"/>
                <use id="reset" xlink:href="#resetDef" x="30" y="36" onmousedown="handleReset()"/>
                <g id="arrowUp" xlink:href="#dirArrow" transform="translate(30 24)" onmousedown="handlePan(0,-1)">
                  <use xlink:href="#rim" fill="#404040">
                        <set attributeName="fill" to="#808080" begin="arrowUp.mouseover" end="arrowUp.mouseout"/>
                  </use>
                  <path fill="none" stroke="white" stroke-width="1.5" d="M0,-3.0v7 M-2.5,-0.5L0,-3.0L2.5,-0.5"/>
                </g>
                <g id="arrowRight" xlink:href="#dirArrow" transform="rotate(90) translate(36 -43)" onmousedown="handlePan(1,0)">
                  <use xlink:href="#rim" fill="#404040">
                        <set attributeName="fill" to="#808080" begin="arrowRight.mouseover" end="arrowRight.mouseout"/>
                  </use>
                  <path fill="none" stroke="white" stroke-width="1.5" d="M0,-3.0v7 M-2.5,-0.5L0,-3.0L2.5,-0.5"/>
                </g>
                <g id="arrowDown" xlink:href="#dirArrow" transform="rotate(180) translate(-30 -48)" onmousedown="handlePan(0,1)">
                  <use xlink:href="#rim" fill="#404040">
                        <set attributeName="fill" to="#808080" begin="arrowDown.mouseover" end="arrowDown.mouseout"/>
                  </use>
                  <path fill="none" stroke="white" stroke-width="1.5" d="M0,-3.0v7 M-2.5,-0.5L0,-3.0L2.5,-0.5"/>
                </g>
                <g id="arrowLeft" xlink:href="#dirArrow" transform="rotate(270) translate(-36 17)" onmousedown="handlePan(-1,0)">
                  <use xlink:href="#rim" fill="#404040">
                        <set attributeName="fill" to="#808080" begin="arrowLeft.mouseover" end="arrowLeft.mouseout"/>
                  </use>
                  <path fill="none" stroke="white" stroke-width="1.5" d="M0,-3.0v7 M-2.5,-0.5L0,-3.0L2.5,-0.5"/>
                </g>
        </g>
        <svg viewBox="0 0 15 15" width="100%" height="30px" preserveAspectRatio="xMaxYMin meet">
         <g id="arrow_out" transform="scale(0.3 0.3)">
          <a xlink:href="JKRAramBlock_8cpp__incl_org.svg" target="_base">
           <rect id="button" ry="5" rx="5" y="6" x="6" height="38" width="38"
                fill="#f2f5e9" fill-opacity="0.5" stroke="#606060" stroke-width="1.0"/>
           <path id="arrow"
             d="M 11.500037,31.436501 C 11.940474,20.09759 22.043105,11.32322 32.158766,21.979434 L 37.068811,17.246167 C 37.068811,17.246167 37.088388,32 37.088388,32 L 22.160133,31.978069 C 22.160133,31.978069 26.997745,27.140456 26.997745,27.140456 C 18.528582,18.264221 13.291696,25.230495 11.500037,31.436501 z"
             style="fill:#404040;"/>
          </a>
         </g>
        </svg>
</svg>
