<?xml version="1.0" encoding="UTF-8" standalone="no"?>
<!DOCTYPE svg PUBLIC "-//W3C//DTD SVG 1.1//EN"
 "http://www.w3.org/Graphics/SVG/1.1/DTD/svg11.dtd">
<!-- Generated by graphviz version 2.44.0 ()
 -->
<!-- Title: include/JSystem/JKernel/JKRArchive/JKRArchive.h Pages: 1 -->
<svg width="865pt" height="430pt"
 viewBox="0.00 0.00 864.50 430.00" xmlns="http://www.w3.org/2000/svg" xmlns:xlink="http://www.w3.org/1999/xlink">
<g id="graph0" class="graph" transform="scale(1 1) rotate(0) translate(4 426)">
<title>include/JSystem/JKernel/JKRArchive/JKRArchive.h</title>
<polygon fill="white" stroke="transparent" points="-4,4 -4,-426 860.5,-426 860.5,4 -4,4"/>
<!-- Node1 -->
<g id="node1" class="node">
<title>Node1</title>
<g id="a_node1"><a xlink:title=" ">
<polygon fill="#bfbfbf" stroke="black" points="661.5,-391.5 661.5,-421.5 795.5,-421.5 795.5,-391.5 661.5,-391.5"/>
<text text-anchor="start" x="669.5" y="-409.5" font-family="Helvetica,sans-Serif" font-size="10.00">include/JSystem/JKernel</text>
<text text-anchor="middle" x="728.5" y="-398.5" font-family="Helvetica,sans-Serif" font-size="10.00">/JKRArchive/JKRArchive.h</text>
</a>
</g>
</g>
<!-- Node2 -->
<g id="node2" class="node">
<title>Node2</title>
<g id="a_node2"><a xlink:href="JKRDecomp_8h.html" target="_top" xlink:title=" ">
<polygon fill="white" stroke="black" points="368,-324.5 368,-354.5 517,-354.5 517,-324.5 368,-324.5"/>
<text text-anchor="start" x="376" y="-342.5" font-family="Helvetica,sans-Serif" font-size="10.00">JSystem/JKernel/JKRDecomp</text>
<text text-anchor="middle" x="442.5" y="-331.5" font-family="Helvetica,sans-Serif" font-size="10.00">/JKRDecomp.h</text>
</a>
</g>
</g>
<!-- Node1&#45;&gt;Node2 -->
<g id="edge1" class="edge">
<title>Node1&#45;&gt;Node2</title>
<path fill="none" stroke="midnightblue" d="M666.79,-391.48C622.03,-381.3 561.35,-367.51 514.39,-356.84"/>
<polygon fill="midnightblue" stroke="midnightblue" points="515.12,-353.41 504.59,-354.61 513.56,-360.24 515.12,-353.41"/>
</g>
<!-- Node4 -->
<g id="node4" class="node">
<title>Node4</title>
<g id="a_node4"><a xlink:href="SArc_8h.html" target="_top" xlink:title=" ">
<polygon fill="white" stroke="black" points="705,-196 705,-215 828,-215 828,-196 705,-196"/>
<text text-anchor="middle" x="766.5" y="-203" font-family="Helvetica,sans-Serif" font-size="10.00">JSystem/JKernel/SArc.h</text>
</a>
</g>
</g>
<!-- Node1&#45;&gt;Node4 -->
<g id="edge27" class="edge">
<title>Node1&#45;&gt;Node4</title>
<path fill="none" stroke="midnightblue" d="M731.23,-391.19C737.97,-355.91 755.37,-264.78 762.92,-225.25"/>
<polygon fill="midnightblue" stroke="midnightblue" points="766.37,-225.84 764.81,-215.36 759.49,-224.53 766.37,-225.84"/>
</g>
<!-- Node5 -->
<g id="node5" class="node">
<title>Node5</title>
<g id="a_node5"><a xlink:href="types_8h.html" target="_top" xlink:title=" ">
<polygon fill="white" stroke="black" points="303,-0.5 303,-19.5 384,-19.5 384,-0.5 303,-0.5"/>
<text text-anchor="middle" x="343.5" y="-7.5" font-family="Helvetica,sans-Serif" font-size="10.00">dolphin/types.h</text>
</a>
</g>
</g>
<!-- Node1&#45;&gt;Node5 -->
<g id="edge28" class="edge">
<title>Node1&#45;&gt;Node5</title>
<path fill="none" stroke="midnightblue" d="M758.19,-391.34C796,-371 856.5,-329.68 856.5,-273.5 856.5,-273.5 856.5,-273.5 856.5,-137.5 856.5,-42.94 523.78,-18.64 394.25,-12.76"/>
<polygon fill="midnightblue" stroke="midnightblue" points="394.33,-9.26 384.18,-12.33 394.02,-16.26 394.33,-9.26"/>
</g>
<!-- Node15 -->
<g id="node15" class="node">
<title>Node15</title>
<g id="a_node15"><a xlink:href="JKRFileLoader_8h.html" target="_top" xlink:title=" ">
<polygon fill="white" stroke="black" points="528.5,-190.5 528.5,-220.5 686.5,-220.5 686.5,-190.5 528.5,-190.5"/>
<text text-anchor="start" x="536.5" y="-208.5" font-family="Helvetica,sans-Serif" font-size="10.00">JSystem/JKernel/JKRFileLoader</text>
<text text-anchor="middle" x="607.5" y="-197.5" font-family="Helvetica,sans-Serif" font-size="10.00">/JKRFileLoader.h</text>
</a>
</g>
</g>
<!-- Node1&#45;&gt;Node15 -->
<g id="edge24" class="edge">
<title>Node1&#45;&gt;Node15</title>
<path fill="none" stroke="midnightblue" d="M719.8,-391.19C699.04,-357.05 646.49,-270.63 621.34,-229.25"/>
<polygon fill="midnightblue" stroke="midnightblue" points="624.31,-227.41 616.12,-220.68 618.33,-231.04 624.31,-227.41"/>
</g>
<!-- Node3 -->
<g id="node3" class="node">
<title>Node3</title>
<g id="a_node3"><a xlink:href="JKRCompression_8h.html" target="_top" xlink:title=" ">
<polygon fill="white" stroke="black" points="412,-263 412,-282 589,-282 589,-263 412,-263"/>
<text text-anchor="middle" x="500.5" y="-270" font-family="Helvetica,sans-Serif" font-size="10.00">JSystem/JKernel/JKRCompression.h</text>
</a>
</g>
</g>
<!-- Node2&#45;&gt;Node3 -->
<g id="edge2" class="edge">
<title>Node2&#45;&gt;Node3</title>
<path fill="none" stroke="midnightblue" d="M455.09,-324.4C464.13,-314.26 476.35,-300.57 485.83,-289.94"/>
<polygon fill="midnightblue" stroke="midnightblue" points="488.7,-291.99 492.74,-282.19 483.47,-287.33 488.7,-291.99"/>
</g>
<!-- Node2&#45;&gt;Node5 -->
<g id="edge23" class="edge">
<title>Node2&#45;&gt;Node5</title>
<path fill="none" stroke="midnightblue" d="M428.43,-324.18C419.79,-314.64 409.14,-301.43 402.5,-288 358.1,-198.2 347,-75.89 344.32,-29.69"/>
<polygon fill="midnightblue" stroke="midnightblue" points="347.81,-29.46 343.81,-19.66 340.82,-29.82 347.81,-29.46"/>
</g>
<!-- Node6 -->
<g id="node6" class="node">
<title>Node6</title>
<g id="a_node6"><a xlink:href="JKRThread_8h.html" target="_top" xlink:title=" ">
<polygon fill="white" stroke="black" points="210,-257.5 210,-287.5 353,-287.5 353,-257.5 210,-257.5"/>
<text text-anchor="start" x="218" y="-275.5" font-family="Helvetica,sans-Serif" font-size="10.00">JSystem/JKernel/JKRThread</text>
<text text-anchor="middle" x="281.5" y="-264.5" font-family="Helvetica,sans-Serif" font-size="10.00">/JKRThread.h</text>
</a>
</g>
</g>
<!-- Node2&#45;&gt;Node6 -->
<g id="edge6" class="edge">
<title>Node2&#45;&gt;Node6</title>
<path fill="none" stroke="midnightblue" d="M407.57,-324.4C383.62,-314.73 351.65,-301.82 325.9,-291.43"/>
<polygon fill="midnightblue" stroke="midnightblue" points="326.95,-288.07 316.37,-287.58 324.33,-294.57 326.95,-288.07"/>
</g>
<!-- Node3&#45;&gt;Node4 -->
<g id="edge3" class="edge">
<title>Node3&#45;&gt;Node4</title>
<path fill="none" stroke="midnightblue" d="M535.55,-262.94C583.29,-251.27 668.83,-230.37 721.33,-217.54"/>
<polygon fill="midnightblue" stroke="midnightblue" points="722.49,-220.86 731.37,-215.08 720.83,-214.06 722.49,-220.86"/>
</g>
<!-- Node3&#45;&gt;Node5 -->
<g id="edge5" class="edge">
<title>Node3&#45;&gt;Node5</title>
<path fill="none" stroke="midnightblue" d="M501.85,-262.74C504.33,-247.6 510.23,-215.69 519.5,-190 540.39,-132.1 593.22,-103.85 554.5,-56 534.7,-31.54 449.98,-19.8 394.1,-14.62"/>
<polygon fill="midnightblue" stroke="midnightblue" points="394.29,-11.13 384.02,-13.73 393.68,-18.1 394.29,-11.13"/>
</g>
<!-- Node4&#45;&gt;Node5 -->
<g id="edge4" class="edge">
<title>Node4&#45;&gt;Node5</title>
<path fill="none" stroke="midnightblue" d="M760.54,-195.99C741.85,-170.03 681.39,-91.47 610.5,-56 541.04,-21.25 450.03,-12.61 394.21,-10.85"/>
<polygon fill="midnightblue" stroke="midnightblue" points="394.3,-7.36 384.21,-10.6 394.12,-14.35 394.3,-7.36"/>
</g>
<!-- Node6&#45;&gt;Node5 -->
<g id="edge11" class="edge">
<title>Node6&#45;&gt;Node5</title>
<path fill="none" stroke="midnightblue" d="M284.24,-257.28C291.02,-222.64 309.47,-131.19 329.5,-56 331.87,-47.09 334.87,-37.31 337.48,-29.15"/>
<polygon fill="midnightblue" stroke="midnightblue" points="340.83,-30.16 340.6,-19.57 334.18,-27.99 340.83,-30.16"/>
</g>
<!-- Node7 -->
<g id="node7" class="node">
<title>Node7</title>
<g id="a_node7"><a xlink:href="JKRDisposer_8h.html" target="_top" xlink:title=" ">
<polygon fill="white" stroke="black" points="378,-123.5 378,-153.5 529,-153.5 529,-123.5 378,-123.5"/>
<text text-anchor="start" x="386" y="-141.5" font-family="Helvetica,sans-Serif" font-size="10.00">JSystem/JKernel/JKRDisposer</text>
<text text-anchor="middle" x="453.5" y="-130.5" font-family="Helvetica,sans-Serif" font-size="10.00">/JKRDisposer.h</text>
</a>
</g>
</g>
<!-- Node6&#45;&gt;Node7 -->
<g id="edge7" class="edge">
<title>Node6&#45;&gt;Node7</title>
<path fill="none" stroke="midnightblue" d="M299.91,-257.37C330.43,-233.95 391.62,-186.99 426.86,-159.94"/>
<polygon fill="midnightblue" stroke="midnightblue" points="429.42,-162.39 435.23,-153.52 425.16,-156.84 429.42,-162.39"/>
</g>
<!-- Node9 -->
<g id="node9" class="node">
<title>Node9</title>
<g id="a_node9"><a xlink:href="global_8h.html" target="_top" xlink:title=" ">
<polygon fill="white" stroke="black" points="152.5,-196 152.5,-215 202.5,-215 202.5,-196 152.5,-196"/>
<text text-anchor="middle" x="177.5" y="-203" font-family="Helvetica,sans-Serif" font-size="10.00">global.h</text>
</a>
</g>
</g>
<!-- Node6&#45;&gt;Node9 -->
<g id="edge12" class="edge">
<title>Node6&#45;&gt;Node9</title>
<path fill="none" stroke="midnightblue" d="M258.93,-257.4C241.49,-246.5 217.47,-231.48 200.03,-220.58"/>
<polygon fill="midnightblue" stroke="midnightblue" points="201.45,-217.34 191.11,-215.01 197.74,-223.28 201.45,-217.34"/>
</g>
<!-- Node7&#45;&gt;Node5 -->
<g id="edge10" class="edge">
<title>Node7&#45;&gt;Node5</title>
<path fill="none" stroke="midnightblue" d="M437.05,-123.13C426.22,-113.37 411.98,-99.92 400.5,-87 383.47,-67.83 366.1,-43.91 355.08,-28.08"/>
<polygon fill="midnightblue" stroke="midnightblue" points="357.93,-26.05 349.38,-19.8 352.17,-30.02 357.93,-26.05"/>
</g>
<!-- Node8 -->
<g id="node8" class="node">
<title>Node8</title>
<g id="a_node8"><a xlink:href="JSUList_8h.html" target="_top" xlink:title=" ">
<polygon fill="white" stroke="black" points="409.5,-56.5 409.5,-86.5 545.5,-86.5 545.5,-56.5 409.5,-56.5"/>
<text text-anchor="start" x="417.5" y="-74.5" font-family="Helvetica,sans-Serif" font-size="10.00">JSystem/JSupport/JSUList</text>
<text text-anchor="middle" x="477.5" y="-63.5" font-family="Helvetica,sans-Serif" font-size="10.00">/JSUList.h</text>
</a>
</g>
</g>
<!-- Node7&#45;&gt;Node8 -->
<g id="edge8" class="edge">
<title>Node7&#45;&gt;Node8</title>
<path fill="none" stroke="midnightblue" d="M458.71,-123.4C461.66,-115.39 465.44,-105.16 468.83,-95.98"/>
<polygon fill="midnightblue" stroke="midnightblue" points="472.12,-97.17 472.3,-86.58 465.56,-94.75 472.12,-97.17"/>
</g>
<!-- Node8&#45;&gt;Node5 -->
<g id="edge9" class="edge">
<title>Node8&#45;&gt;Node5</title>
<path fill="none" stroke="midnightblue" d="M445.74,-56.4C423.46,-46.51 393.91,-33.38 372.31,-23.79"/>
<polygon fill="midnightblue" stroke="midnightblue" points="373.56,-20.52 363,-19.66 370.72,-26.91 373.56,-20.52"/>
</g>
<!-- Node9&#45;&gt;Node5 -->
<g id="edge13" class="edge">
<title>Node9&#45;&gt;Node5</title>
<path fill="none" stroke="midnightblue" d="M193.57,-195.95C208.86,-187.15 231.67,-172.17 246.5,-154 276.81,-116.88 262.73,-94.33 291.5,-56 300.12,-44.51 312.13,-33.88 322.43,-25.84"/>
<polygon fill="midnightblue" stroke="midnightblue" points="324.67,-28.54 330.57,-19.74 320.47,-22.94 324.67,-28.54"/>
</g>
<!-- Node10 -->
<g id="node10" class="node">
<title>Node10</title>
<g id="a_node10"><a xlink:href="AR_8h.html" target="_top" xlink:title=" ">
<polygon fill="white" stroke="black" points="0,-62 0,-81 49,-81 49,-62 0,-62"/>
<text text-anchor="middle" x="24.5" y="-69" font-family="Helvetica,sans-Serif" font-size="10.00">ar/AR.h</text>
</a>
</g>
</g>
<!-- Node9&#45;&gt;Node10 -->
<g id="edge14" class="edge">
<title>Node9&#45;&gt;Node10</title>
<path fill="none" stroke="midnightblue" d="M159.92,-195.89C142.35,-186.83 115.07,-171.47 94.5,-154 71.37,-134.37 49.38,-106.78 36.41,-89.28"/>
<polygon fill="midnightblue" stroke="midnightblue" points="39.2,-87.17 30.49,-81.14 33.54,-91.28 39.2,-87.17"/>
</g>
<!-- Node11 -->
<g id="node11" class="node">
<title>Node11</title>
<g id="a_node11"><a xlink:href="ARQ_8h.html" target="_top" xlink:title=" ">
<polygon fill="white" stroke="black" points="67.5,-62 67.5,-81 123.5,-81 123.5,-62 67.5,-62"/>
<text text-anchor="middle" x="95.5" y="-69" font-family="Helvetica,sans-Serif" font-size="10.00">ar/ARQ.h</text>
</a>
</g>
</g>
<!-- Node9&#45;&gt;Node11 -->
<g id="edge16" class="edge">
<title>Node9&#45;&gt;Node11</title>
<path fill="none" stroke="midnightblue" d="M158.73,-195.97C142.68,-187.63 120.34,-173.38 108.5,-154 96.79,-134.84 94.55,-108.61 94.57,-91.13"/>
<polygon fill="midnightblue" stroke="midnightblue" points="98.07,-91.17 94.83,-81.08 91.07,-90.98 98.07,-91.17"/>
</g>
<!-- Node12 -->
<g id="node12" class="node">
<title>Node12</title>
<g id="a_node12"><a xlink:href="mwcc_8h.html" target="_top" xlink:title=" ">
<polygon fill="white" stroke="black" points="117.5,-129 117.5,-148 167.5,-148 167.5,-129 117.5,-129"/>
<text text-anchor="middle" x="142.5" y="-136" font-family="Helvetica,sans-Serif" font-size="10.00">mwcc.h</text>
</a>
</g>
</g>
<!-- Node9&#45;&gt;Node12 -->
<g id="edge18" class="edge">
<title>Node9&#45;&gt;Node12</title>
<path fill="none" stroke="midnightblue" d="M172.78,-195.73C167.48,-185.89 158.74,-169.66 152.01,-157.16"/>
<polygon fill="midnightblue" stroke="midnightblue" points="154.97,-155.27 147.15,-148.13 148.8,-158.59 154.97,-155.27"/>
</g>
<!-- Node13 -->
<g id="node13" class="node">
<title>Node13</title>
<g id="a_node13"><a xlink:href="OS_8h.html" target="_top" xlink:title=" ">
<polygon fill="white" stroke="black" points="185.5,-129 185.5,-148 237.5,-148 237.5,-129 185.5,-129"/>
<text text-anchor="middle" x="211.5" y="-136" font-family="Helvetica,sans-Serif" font-size="10.00">os/OS.h</text>
</a>
</g>
</g>
<!-- Node9&#45;&gt;Node13 -->
<g id="edge19" class="edge">
<title>Node9&#45;&gt;Node13</title>
<path fill="none" stroke="midnightblue" d="M182.09,-195.73C187.23,-185.89 195.72,-169.66 202.26,-157.16"/>
<polygon fill="midnightblue" stroke="midnightblue" points="205.45,-158.61 206.99,-148.13 199.25,-155.37 205.45,-158.61"/>
</g>
<!-- Node10&#45;&gt;Node5 -->
<g id="edge15" class="edge">
<title>Node10&#45;&gt;Node5</title>
<path fill="none" stroke="midnightblue" d="M42.2,-61.98C47.36,-59.76 53.07,-57.56 58.5,-56 138.49,-33.01 234.71,-20.91 292.39,-15.24"/>
<polygon fill="midnightblue" stroke="midnightblue" points="293.08,-18.69 302.7,-14.26 292.41,-11.72 293.08,-18.69"/>
</g>
<!-- Node11&#45;&gt;Node5 -->
<g id="edge17" class="edge">
<title>Node11&#45;&gt;Node5</title>
<path fill="none" stroke="midnightblue" d="M118.89,-61.88C124.91,-59.81 131.41,-57.71 137.5,-56 189.92,-41.28 250.97,-28.47 292.92,-20.33"/>
<polygon fill="midnightblue" stroke="midnightblue" points="293.73,-23.74 302.89,-18.41 292.41,-16.86 293.73,-23.74"/>
</g>
<!-- Node13&#45;&gt;Node5 -->
<g id="edge20" class="edge">
<title>Node13&#45;&gt;Node5</title>
<path fill="none" stroke="midnightblue" d="M201.06,-128.79C183.59,-113.17 152.09,-79.81 170.5,-56 185.41,-36.71 247.18,-24.15 292.68,-17.32"/>
<polygon fill="midnightblue" stroke="midnightblue" points="293.3,-20.77 302.7,-15.87 292.3,-13.84 293.3,-20.77"/>
</g>
<!-- Node14 -->
<g id="node14" class="node">
<title>Node14</title>
<g id="a_node14"><a xlink:href="dvd_8h.html" target="_top" xlink:title=" ">
<polygon fill="white" stroke="black" points="180,-62 180,-81 239,-81 239,-62 180,-62"/>
<text text-anchor="middle" x="209.5" y="-69" font-family="Helvetica,sans-Serif" font-size="10.00">dvd/dvd.h</text>
</a>
</g>
</g>
<!-- Node13&#45;&gt;Node14 -->
<g id="edge21" class="edge">
<title>Node13&#45;&gt;Node14</title>
<path fill="none" stroke="midnightblue" d="M211.23,-128.73C210.94,-119.18 210.46,-103.62 210.08,-91.28"/>
<polygon fill="midnightblue" stroke="midnightblue" points="213.57,-91.01 209.77,-81.13 206.57,-91.23 213.57,-91.01"/>
</g>
<!-- Node14&#45;&gt;Node5 -->
<g id="edge22" class="edge">
<title>Node14&#45;&gt;Node5</title>
<path fill="none" stroke="midnightblue" d="M228.7,-61.98C251.29,-51.95 289,-35.2 315,-23.65"/>
<polygon fill="midnightblue" stroke="midnightblue" points="316.62,-26.77 324.34,-19.51 313.78,-20.37 316.62,-26.77"/>
</g>
<!-- Node15&#45;&gt;Node5 -->
<g id="edge26" class="edge">
<title>Node15&#45;&gt;Node5</title>
<path fill="none" stroke="midnightblue" d="M610.44,-190.39C615.64,-161.04 622.85,-93.11 587.5,-56 561.61,-28.82 457.87,-17.79 394.28,-13.52"/>
<polygon fill="midnightblue" stroke="midnightblue" points="394.26,-10.01 384.06,-12.87 393.82,-17 394.26,-10.01"/>
</g>
<!-- Node15&#45;&gt;Node7 -->
<g id="edge25" class="edge">
<title>Node15&#45;&gt;Node7</title>
<path fill="none" stroke="midnightblue" d="M574.08,-190.4C551.28,-180.77 520.87,-167.94 496.3,-157.56"/>
<polygon fill="midnightblue" stroke="midnightblue" points="497.42,-154.24 486.85,-153.58 494.7,-160.69 497.42,-154.24"/>
</g>
</g>
</svg>
