<?xml version="1.0" encoding="UTF-8" standalone="no"?>
<!DOCTYPE svg PUBLIC "-//W3C//DTD SVG 1.1//EN"
 "http://www.w3.org/Graphics/SVG/1.1/DTD/svg11.dtd">
<!-- Generated by graphviz version 2.44.0 ()
 -->
<!-- Title: libs/JSystem/JKernel/JKRAssertHeap.cpp Pages: 1 -->
<svg width="544pt" height="419pt"
 viewBox="0.00 0.00 544.00 419.00" xmlns="http://www.w3.org/2000/svg" xmlns:xlink="http://www.w3.org/1999/xlink">
<g id="graph0" class="graph" transform="scale(1 1) rotate(0) translate(4 415)">
<title>libs/JSystem/JKernel/JKRAssertHeap.cpp</title>
<polygon fill="white" stroke="transparent" points="-4,4 -4,-415 540,-415 540,4 -4,4"/>
<!-- Node1 -->
<g id="node1" class="node">
<title>Node1</title>
<g id="a_node1"><a xlink:title=" ">
<polygon fill="#bfbfbf" stroke="black" points="214.5,-380.5 214.5,-410.5 323.5,-410.5 323.5,-380.5 214.5,-380.5"/>
<text text-anchor="start" x="222.5" y="-398.5" font-family="Helvetica,sans-Serif" font-size="10.00">libs/JSystem/JKernel</text>
<text text-anchor="middle" x="269" y="-387.5" font-family="Helvetica,sans-Serif" font-size="10.00">/JKRAssertHeap.cpp</text>
</a>
</g>
</g>
<!-- Node2 -->
<g id="node2" class="node">
<title>Node2</title>
<g id="a_node2"><a xlink:href="JKRAssertHeap_8h.html" target="_top" xlink:title=" ">
<polygon fill="white" stroke="black" points="137.5,-313.5 137.5,-343.5 278.5,-343.5 278.5,-313.5 137.5,-313.5"/>
<text text-anchor="start" x="145.5" y="-331.5" font-family="Helvetica,sans-Serif" font-size="10.00">JSystem/JKernel/JKRAssert</text>
<text text-anchor="middle" x="208" y="-320.5" font-family="Helvetica,sans-Serif" font-size="10.00">Heap/JKRAssertHeap.h</text>
</a>
</g>
</g>
<!-- Node1&#45;&gt;Node2 -->
<g id="edge1" class="edge">
<title>Node1&#45;&gt;Node2</title>
<path fill="none" stroke="midnightblue" d="M255.76,-380.4C247.69,-371.79 237.21,-360.63 228.13,-350.94"/>
<polygon fill="midnightblue" stroke="midnightblue" points="230.61,-348.47 221.21,-343.58 225.5,-353.26 230.61,-348.47"/>
</g>
<!-- Node7 -->
<g id="node7" class="node">
<title>Node7</title>
<g id="a_node7"><a xlink:href="global_8h.html" target="_top" xlink:title=" ">
<polygon fill="white" stroke="black" points="305,-190.5 305,-209.5 355,-209.5 355,-190.5 305,-190.5"/>
<text text-anchor="middle" x="330" y="-197.5" font-family="Helvetica,sans-Serif" font-size="10.00">global.h</text>
</a>
</g>
</g>
<!-- Node1&#45;&gt;Node7 -->
<g id="edge20" class="edge">
<title>Node1&#45;&gt;Node7</title>
<path fill="none" stroke="midnightblue" d="M274.23,-380.42C277.93,-370.32 282.94,-356.38 287,-344 301.57,-299.62 316.93,-246.88 324.75,-219.52"/>
<polygon fill="midnightblue" stroke="midnightblue" points="328.16,-220.33 327.53,-209.75 321.43,-218.41 328.16,-220.33"/>
</g>
<!-- Node3 -->
<g id="node3" class="node">
<title>Node3</title>
<g id="a_node3"><a xlink:href="JKRHeap_8h.html" target="_top" xlink:title=" ">
<polygon fill="white" stroke="black" points="140,-246.5 140,-276.5 276,-276.5 276,-246.5 140,-246.5"/>
<text text-anchor="start" x="148" y="-264.5" font-family="Helvetica,sans-Serif" font-size="10.00">JSystem/JKernel/JKRHeap</text>
<text text-anchor="middle" x="208" y="-253.5" font-family="Helvetica,sans-Serif" font-size="10.00">/JKRHeap.h</text>
</a>
</g>
</g>
<!-- Node2&#45;&gt;Node3 -->
<g id="edge2" class="edge">
<title>Node2&#45;&gt;Node3</title>
<path fill="none" stroke="midnightblue" d="M208,-313.4C208,-305.64 208,-295.81 208,-286.86"/>
<polygon fill="midnightblue" stroke="midnightblue" points="211.5,-286.58 208,-276.58 204.5,-286.58 211.5,-286.58"/>
</g>
<!-- Node6 -->
<g id="node6" class="node">
<title>Node6</title>
<g id="a_node6"><a xlink:href="types_8h.html" target="_top" xlink:title=" ">
<polygon fill="white" stroke="black" points="227.5,-0.5 227.5,-19.5 308.5,-19.5 308.5,-0.5 227.5,-0.5"/>
<text text-anchor="middle" x="268" y="-7.5" font-family="Helvetica,sans-Serif" font-size="10.00">dolphin/types.h</text>
</a>
</g>
</g>
<!-- Node2&#45;&gt;Node6 -->
<g id="edge19" class="edge">
<title>Node2&#45;&gt;Node6</title>
<path fill="none" stroke="midnightblue" d="M137.29,-314.78C76.99,-299.38 0,-266.83 0,-201 0,-201 0,-201 0,-137.5 0,-95.46 13.79,-80.43 48,-56 74.58,-37.02 160.63,-23.6 216.9,-16.6"/>
<polygon fill="midnightblue" stroke="midnightblue" points="217.53,-20.05 227.04,-15.37 216.69,-13.1 217.53,-20.05"/>
</g>
<!-- Node4 -->
<g id="node4" class="node">
<title>Node4</title>
<g id="a_node4"><a xlink:href="JKRDisposer_8h.html" target="_top" xlink:title=" ">
<polygon fill="white" stroke="black" points="28.5,-123.5 28.5,-153.5 179.5,-153.5 179.5,-123.5 28.5,-123.5"/>
<text text-anchor="start" x="36.5" y="-141.5" font-family="Helvetica,sans-Serif" font-size="10.00">JSystem/JKernel/JKRDisposer</text>
<text text-anchor="middle" x="104" y="-130.5" font-family="Helvetica,sans-Serif" font-size="10.00">/JKRDisposer.h</text>
</a>
</g>
</g>
<!-- Node3&#45;&gt;Node4 -->
<g id="edge3" class="edge">
<title>Node3&#45;&gt;Node4</title>
<path fill="none" stroke="midnightblue" d="M195.66,-246.14C177.68,-225.22 144.12,-186.17 122.98,-161.58"/>
<polygon fill="midnightblue" stroke="midnightblue" points="125.5,-159.14 116.32,-153.84 120.19,-163.7 125.5,-159.14"/>
</g>
<!-- Node3&#45;&gt;Node6 -->
<g id="edge7" class="edge">
<title>Node3&#45;&gt;Node6</title>
<path fill="none" stroke="midnightblue" d="M208.96,-246.26C210.88,-221.08 215.99,-167.2 227,-123 235.52,-88.81 250.82,-50.59 260.13,-28.8"/>
<polygon fill="midnightblue" stroke="midnightblue" points="263.39,-30.08 264.17,-19.52 256.97,-27.29 263.39,-30.08"/>
</g>
<!-- Node3&#45;&gt;Node7 -->
<g id="edge8" class="edge">
<title>Node3&#45;&gt;Node7</title>
<path fill="none" stroke="midnightblue" d="M236.91,-246.4C257.02,-236.59 283.62,-223.62 303.24,-214.05"/>
<polygon fill="midnightblue" stroke="midnightblue" points="304.79,-217.19 312.25,-209.66 301.73,-210.9 304.79,-217.19"/>
</g>
<!-- Node5 -->
<g id="node5" class="node">
<title>Node5</title>
<g id="a_node5"><a xlink:href="JSUList_8h.html" target="_top" xlink:title=" ">
<polygon fill="white" stroke="black" points="66,-56.5 66,-86.5 202,-86.5 202,-56.5 66,-56.5"/>
<text text-anchor="start" x="74" y="-74.5" font-family="Helvetica,sans-Serif" font-size="10.00">JSystem/JSupport/JSUList</text>
<text text-anchor="middle" x="134" y="-63.5" font-family="Helvetica,sans-Serif" font-size="10.00">/JSUList.h</text>
</a>
</g>
</g>
<!-- Node4&#45;&gt;Node5 -->
<g id="edge4" class="edge">
<title>Node4&#45;&gt;Node5</title>
<path fill="none" stroke="midnightblue" d="M110.51,-123.4C114.24,-115.3 119.03,-104.94 123.3,-95.69"/>
<polygon fill="midnightblue" stroke="midnightblue" points="126.49,-97.12 127.5,-86.58 120.13,-94.19 126.49,-97.12"/>
</g>
<!-- Node4&#45;&gt;Node6 -->
<g id="edge6" class="edge">
<title>Node4&#45;&gt;Node6</title>
<path fill="none" stroke="midnightblue" d="M85.74,-123.39C65.99,-106.44 39.53,-77.58 57,-56 76.8,-31.54 161.52,-19.8 217.4,-14.62"/>
<polygon fill="midnightblue" stroke="midnightblue" points="217.82,-18.1 227.48,-13.73 217.21,-11.13 217.82,-18.1"/>
</g>
<!-- Node5&#45;&gt;Node6 -->
<g id="edge5" class="edge">
<title>Node5&#45;&gt;Node6</title>
<path fill="none" stroke="midnightblue" d="M165.76,-56.4C188.04,-46.51 217.59,-33.38 239.19,-23.79"/>
<polygon fill="midnightblue" stroke="midnightblue" points="240.78,-26.91 248.5,-19.66 237.94,-20.52 240.78,-26.91"/>
</g>
<!-- Node7&#45;&gt;Node6 -->
<g id="edge9" class="edge">
<title>Node7&#45;&gt;Node6</title>
<path fill="none" stroke="midnightblue" d="M339.56,-190.45C348.09,-182.12 359.99,-168.6 365,-154 379.14,-112.8 388.44,-92.71 365,-56 354.55,-39.63 336.44,-29.12 318.67,-22.42"/>
<polygon fill="midnightblue" stroke="midnightblue" points="319.49,-19 308.89,-19.08 317.22,-25.63 319.49,-19"/>
</g>
<!-- Node8 -->
<g id="node8" class="node">
<title>Node8</title>
<g id="a_node8"><a xlink:href="AR_8h.html" target="_top" xlink:title=" ">
<polygon fill="white" stroke="black" points="412.5,-62 412.5,-81 461.5,-81 461.5,-62 412.5,-62"/>
<text text-anchor="middle" x="437" y="-69" font-family="Helvetica,sans-Serif" font-size="10.00">ar/AR.h</text>
</a>
</g>
</g>
<!-- Node7&#45;&gt;Node8 -->
<g id="edge10" class="edge">
<title>Node7&#45;&gt;Node8</title>
<path fill="none" stroke="midnightblue" d="M348.15,-190.48C363.11,-182.71 384.06,-170.02 398,-154 414.29,-135.29 425.34,-108.58 431.4,-90.91"/>
<polygon fill="midnightblue" stroke="midnightblue" points="434.79,-91.82 434.54,-81.22 428.13,-89.66 434.79,-91.82"/>
</g>
<!-- Node9 -->
<g id="node9" class="node">
<title>Node9</title>
<g id="a_node9"><a xlink:href="ARQ_8h.html" target="_top" xlink:title=" ">
<polygon fill="white" stroke="black" points="480,-62 480,-81 536,-81 536,-62 480,-62"/>
<text text-anchor="middle" x="508" y="-69" font-family="Helvetica,sans-Serif" font-size="10.00">ar/ARQ.h</text>
</a>
</g>
</g>
<!-- Node7&#45;&gt;Node9 -->
<g id="edge12" class="edge">
<title>Node7&#45;&gt;Node9</title>
<path fill="none" stroke="midnightblue" d="M352.22,-190.38C371.53,-182.38 399.8,-169.41 422,-154 449.88,-134.65 477.55,-106.39 493.69,-88.74"/>
<polygon fill="midnightblue" stroke="midnightblue" points="496.56,-90.79 500.65,-81.01 491.36,-86.1 496.56,-90.79"/>
</g>
<!-- Node10 -->
<g id="node10" class="node">
<title>Node10</title>
<g id="a_node10"><a xlink:href="mwcc_8h.html" target="_top" xlink:title=" ">
<polygon fill="white" stroke="black" points="236,-129 236,-148 286,-148 286,-129 236,-129"/>
<text text-anchor="middle" x="261" y="-136" font-family="Helvetica,sans-Serif" font-size="10.00">mwcc.h</text>
</a>
</g>
</g>
<!-- Node7&#45;&gt;Node10 -->
<g id="edge14" class="edge">
<title>Node7&#45;&gt;Node10</title>
<path fill="none" stroke="midnightblue" d="M320.11,-190.48C309.35,-181.2 291.93,-166.17 278.78,-154.83"/>
<polygon fill="midnightblue" stroke="midnightblue" points="280.73,-151.89 270.87,-148.01 276.16,-157.19 280.73,-151.89"/>
</g>
<!-- Node11 -->
<g id="node11" class="node">
<title>Node11</title>
<g id="a_node11"><a xlink:href="OS_8h.html" target="_top" xlink:title=" ">
<polygon fill="white" stroke="black" points="304,-129 304,-148 356,-148 356,-129 304,-129"/>
<text text-anchor="middle" x="330" y="-136" font-family="Helvetica,sans-Serif" font-size="10.00">os/OS.h</text>
</a>
</g>
</g>
<!-- Node7&#45;&gt;Node11 -->
<g id="edge15" class="edge">
<title>Node7&#45;&gt;Node11</title>
<path fill="none" stroke="midnightblue" d="M330,-190.48C330,-182.08 330,-168.98 330,-158.16"/>
<polygon fill="midnightblue" stroke="midnightblue" points="333.5,-158.01 330,-148.01 326.5,-158.01 333.5,-158.01"/>
</g>
<!-- Node8&#45;&gt;Node6 -->
<g id="edge11" class="edge">
<title>Node8&#45;&gt;Node6</title>
<path fill="none" stroke="midnightblue" d="M414.35,-61.98C409,-59.99 403.3,-57.9 398,-56 365.91,-44.48 329.18,-31.82 302.97,-22.86"/>
<polygon fill="midnightblue" stroke="midnightblue" points="304.06,-19.54 293.47,-19.63 301.8,-26.16 304.06,-19.54"/>
</g>
<!-- Node9&#45;&gt;Node6 -->
<g id="edge13" class="edge">
<title>Node9&#45;&gt;Node6</title>
<path fill="none" stroke="midnightblue" d="M487.84,-61.95C482.43,-59.83 476.54,-57.69 471,-56 419.8,-40.4 359.81,-27.77 318.39,-19.91"/>
<polygon fill="midnightblue" stroke="midnightblue" points="319.01,-16.47 308.54,-18.06 317.72,-23.35 319.01,-16.47"/>
</g>
<!-- Node11&#45;&gt;Node6 -->
<g id="edge16" class="edge">
<title>Node11&#45;&gt;Node6</title>
<path fill="none" stroke="midnightblue" d="M320.32,-128.78C310.49,-119.4 295.53,-103.59 287,-87 277.69,-68.9 272.77,-45.99 270.29,-30.07"/>
<polygon fill="midnightblue" stroke="midnightblue" points="273.72,-29.32 268.89,-19.89 266.79,-30.28 273.72,-29.32"/>
</g>
<!-- Node12 -->
<g id="node12" class="node">
<title>Node12</title>
<g id="a_node12"><a xlink:href="dvd_8h.html" target="_top" xlink:title=" ">
<polygon fill="white" stroke="black" points="296.5,-62 296.5,-81 355.5,-81 355.5,-62 296.5,-62"/>
<text text-anchor="middle" x="326" y="-69" font-family="Helvetica,sans-Serif" font-size="10.00">dvd/dvd.h</text>
</a>
</g>
</g>
<!-- Node11&#45;&gt;Node12 -->
<g id="edge17" class="edge">
<title>Node11&#45;&gt;Node12</title>
<path fill="none" stroke="midnightblue" d="M329.46,-128.73C328.87,-119.18 327.91,-103.62 327.16,-91.28"/>
<polygon fill="midnightblue" stroke="midnightblue" points="330.64,-90.89 326.53,-81.13 323.65,-91.32 330.64,-90.89"/>
</g>
<!-- Node12&#45;&gt;Node6 -->
<g id="edge18" class="edge">
<title>Node12&#45;&gt;Node6</title>
<path fill="none" stroke="midnightblue" d="M317.69,-61.98C308.82,-52.87 294.55,-38.24 283.58,-26.98"/>
<polygon fill="midnightblue" stroke="midnightblue" points="285.78,-24.23 276.29,-19.51 280.77,-29.11 285.78,-24.23"/>
</g>
</g>
</svg>
