<?xml version="1.0" encoding="UTF-8" standalone="no"?>
<!DOCTYPE svg PUBLIC "-//W3C//DTD SVG 1.1//EN"
 "http://www.w3.org/Graphics/SVG/1.1/DTD/svg11.dtd">
<!-- Generated by graphviz version 2.44.0 ()
 -->
<!-- Title: include/JSystem/JKernel/JKRDvdAramRipper/JKRDvdAramRipper.h Pages: 1 -->
<!--zoomable 508 -->
<svg id="main" version="1.1" xmlns="http://www.w3.org/2000/svg" xmlns:xlink="http://www.w3.org/1999/xlink" xml:space="preserve" onload="init(evt)">
<style type="text/css"><![CDATA[
.edge:hover path { stroke: red; }
.edge:hover polygon { stroke: red; fill: red; }
]]></style>
<script type="text/javascript"><![CDATA[
var edges = document.getElementsByTagName('g');
if (edges && edges.length) {
  for (var i=0;i<edges.length;i++) {
    if (edges[i].id.substr(0,4)=='edge') {
      edges[i].setAttribute('class','edge');
    }
  }
}
]]></script>
        <defs>
                <circle id="rim" cx="0" cy="0" r="7"/>
                <circle id="rim2" cx="0" cy="0" r="3.5"/>
                <g id="zoomPlus">
                        <use xlink:href="#rim" fill="#404040">
                                <set attributeName="fill" to="#808080" begin="zoomplus.mouseover" end="zoomplus.mouseout"/>
                        </use>
                        <path d="M-4,0h8M0,-4v8" fill="none" stroke="white" stroke-width="1.5" pointer-events="none"/>
                </g>
                <g id="zoomMin">
                        <use xlink:href="#rim" fill="#404040">
                                <set attributeName="fill" to="#808080" begin="zoomminus.mouseover" end="zoomminus.mouseout"/>
                        </use>
                        <path d="M-4,0h8" fill="none" stroke="white" stroke-width="1.5" pointer-events="none"/>
                </g>
                <g id="dirArrow">
                        <path fill="none" stroke="white" stroke-width="1.5" d="M0,-3.0v7 M-2.5,-0.5L0,-3.0L2.5,-0.5"/>
                </g>
               <g id="resetDef">
                       <use xlink:href="#rim2" fill="#404040">
                               <set attributeName="fill" to="#808080" begin="reset.mouseover" end="reset.mouseout"/>
                       </use>
               </g>
        </defs>

<script type="text/javascript">
var viewWidth = 1120;
var viewHeight = 508;
var sectionId = 'dynsection-0';
</script>
<script xlink:href="svgpan.js"/>
<svg id="graph" class="graph">
<g id="viewport">
<title>include/JSystem/JKernel/JKRDvdAramRipper/JKRDvdAramRipper.h</title>
<polygon fill="white" stroke="transparent" points="-4,4 -4,-504 1116,-504 1116,4 -4,4"/>
<!-- Node1 -->
<g id="node1" class="node">
<title>Node1</title>
<g id="a_node1"><a xlink:title=" ">
<polygon fill="#bfbfbf" stroke="black" points="722,-458.5 722,-499.5 891,-499.5 891,-458.5 722,-458.5"/>
<text text-anchor="start" x="730" y="-487.5" font-family="Helvetica,sans-Serif" font-size="10.00">include/JSystem/JKernel</text>
<text text-anchor="start" x="730" y="-476.5" font-family="Helvetica,sans-Serif" font-size="10.00">/JKRDvdAramRipper/JKRDvdAram</text>
<text text-anchor="middle" x="806.5" y="-465.5" font-family="Helvetica,sans-Serif" font-size="10.00">Ripper.h</text>
</a>
</g>
</g>
<!-- Node2 -->
<g id="node2" class="node">
<title>Node2</title>
<g id="a_node2"><a xlink:href="JKRDvdRipper_8h.html" target="_top" xlink:title=" ">
<polygon fill="white" stroke="black" points="620.5,-391.5 620.5,-421.5 778.5,-421.5 778.5,-391.5 620.5,-391.5"/>
<text text-anchor="start" x="628.5" y="-409.5" font-family="Helvetica,sans-Serif" font-size="10.00">JSystem/JKernel/JKRDvdRipper</text>
<text text-anchor="middle" x="699.5" y="-398.5" font-family="Helvetica,sans-Serif" font-size="10.00">/JKRDvdRipper.h</text>
</a>
</g>
</g>
<!-- Node1&#45;&gt;Node2 -->
<g id="edge1" class="edge">
<title>Node1&#45;&gt;Node2</title>
<path fill="none" stroke="midnightblue" d="M776.69,-458.36C762.05,-448.71 744.43,-437.11 729.73,-427.42"/>
<polygon fill="midnightblue" stroke="midnightblue" points="731.28,-424.25 721.01,-421.67 727.43,-430.09 731.28,-424.25"/>
</g>
<!-- Node6 -->
<g id="node6" class="node">
<title>Node6</title>
<g id="a_node6"><a xlink:href="types_8h.html" target="_top" xlink:title=" ">
<polygon fill="white" stroke="black" points="556,-0.5 556,-19.5 637,-19.5 637,-0.5 556,-0.5"/>
<text text-anchor="middle" x="596.5" y="-7.5" font-family="Helvetica,sans-Serif" font-size="10.00">dolphin/types.h</text>
</a>
</g>
</g>
<!-- Node1&#45;&gt;Node6 -->
<g id="edge34" class="edge">
<title>Node1&#45;&gt;Node6</title>
<path fill="none" stroke="midnightblue" d="M806.5,-458.42C806.5,-431.75 806.5,-382.51 806.5,-340.5 806.5,-340.5 806.5,-340.5 806.5,-137.5 806.5,-98.25 802.19,-81.67 772.5,-56 737.79,-25.99 685.68,-15.55 647.17,-12.14"/>
<polygon fill="midnightblue" stroke="midnightblue" points="647.42,-8.65 637.19,-11.38 646.89,-15.63 647.42,-8.65"/>
</g>
<!-- Node16 -->
<g id="node16" class="node">
<title>Node16</title>
<g id="a_node16"><a xlink:href="JSUFileInputStream_8h.html" target="_top" xlink:title=" ">
<polygon fill="white" stroke="black" points="834,-257.5 834,-287.5 1003,-287.5 1003,-257.5 834,-257.5"/>
<text text-anchor="start" x="842" y="-275.5" font-family="Helvetica,sans-Serif" font-size="10.00">JSystem/JSupport/JSUFile</text>
<text text-anchor="middle" x="918.5" y="-264.5" font-family="Helvetica,sans-Serif" font-size="10.00">InputStream/JSUFileInputStream.h</text>
</a>
</g>
</g>
<!-- Node1&#45;&gt;Node16 -->
<g id="edge26" class="edge">
<title>Node1&#45;&gt;Node16</title>
<path fill="none" stroke="midnightblue" d="M817.24,-458.39C838.02,-420.45 883.64,-337.15 905.85,-296.59"/>
<polygon fill="midnightblue" stroke="midnightblue" points="908.98,-298.16 910.72,-287.71 902.84,-294.8 908.98,-298.16"/>
</g>
<!-- Node3 -->
<g id="node3" class="node">
<title>Node3</title>
<g id="a_node3"><a xlink:href="JKRDecomp_8h.html" target="_top" xlink:title=" ">
<polygon fill="white" stroke="black" points="191,-324.5 191,-354.5 340,-354.5 340,-324.5 191,-324.5"/>
<text text-anchor="start" x="199" y="-342.5" font-family="Helvetica,sans-Serif" font-size="10.00">JSystem/JKernel/JKRDecomp</text>
<text text-anchor="middle" x="265.5" y="-331.5" font-family="Helvetica,sans-Serif" font-size="10.00">/JKRDecomp.h</text>
</a>
</g>
</g>
<!-- Node2&#45;&gt;Node3 -->
<g id="edge2" class="edge">
<title>Node2&#45;&gt;Node3</title>
<path fill="none" stroke="midnightblue" d="M620.4,-393.65C544.01,-382.21 428.67,-364.94 350.38,-353.21"/>
<polygon fill="midnightblue" stroke="midnightblue" points="350.47,-349.69 340.07,-351.67 349.44,-356.61 350.47,-349.69"/>
</g>
<!-- Node2&#45;&gt;Node6 -->
<g id="edge25" class="edge">
<title>Node2&#45;&gt;Node6</title>
<path fill="none" stroke="midnightblue" d="M712.8,-391.34C732.85,-368.46 768.5,-321.08 768.5,-273.5 768.5,-273.5 768.5,-273.5 768.5,-137.5 768.5,-100.2 774.24,-82.99 748.5,-56 722.33,-28.57 680.32,-17.63 647.08,-13.38"/>
<polygon fill="midnightblue" stroke="midnightblue" points="647.41,-9.89 637.08,-12.26 646.63,-16.85 647.41,-9.89"/>
</g>
<!-- Node4 -->
<g id="node4" class="node">
<title>Node4</title>
<g id="a_node4"><a xlink:href="JKRCompression_8h.html" target="_top" xlink:title=" ">
<polygon fill="white" stroke="black" points="0,-129 0,-148 177,-148 177,-129 0,-129"/>
<text text-anchor="middle" x="88.5" y="-136" font-family="Helvetica,sans-Serif" font-size="10.00">JSystem/JKernel/JKRCompression.h</text>
</a>
</g>
</g>
<!-- Node3&#45;&gt;Node4 -->
<g id="edge3" class="edge">
<title>Node3&#45;&gt;Node4</title>
<path fill="none" stroke="midnightblue" d="M239.77,-324.49C224.4,-315.36 205.11,-302.47 190.5,-288 148.96,-246.84 113.69,-186.6 97.69,-157.1"/>
<polygon fill="midnightblue" stroke="midnightblue" points="100.65,-155.2 92.86,-148.03 94.47,-158.5 100.65,-155.2"/>
</g>
<!-- Node3&#45;&gt;Node6 -->
<g id="edge24" class="edge">
<title>Node3&#45;&gt;Node6</title>
<path fill="none" stroke="midnightblue" d="M254.03,-324.45C236.36,-301.34 204.5,-253.2 204.5,-206.5 204.5,-206.5 204.5,-206.5 204.5,-137.5 204.5,-94.05 221.66,-79.04 258.5,-56 305.31,-26.72 463.34,-16.22 545.67,-12.67"/>
<polygon fill="midnightblue" stroke="midnightblue" points="545.95,-16.17 555.8,-12.26 545.67,-9.17 545.95,-16.17"/>
</g>
<!-- Node7 -->
<g id="node7" class="node">
<title>Node7</title>
<g id="a_node7"><a xlink:href="JKRThread_8h.html" target="_top" xlink:title=" ">
<polygon fill="white" stroke="black" points="254,-257.5 254,-287.5 397,-287.5 397,-257.5 254,-257.5"/>
<text text-anchor="start" x="262" y="-275.5" font-family="Helvetica,sans-Serif" font-size="10.00">JSystem/JKernel/JKRThread</text>
<text text-anchor="middle" x="325.5" y="-264.5" font-family="Helvetica,sans-Serif" font-size="10.00">/JKRThread.h</text>
</a>
</g>
</g>
<!-- Node3&#45;&gt;Node7 -->
<g id="edge7" class="edge">
<title>Node3&#45;&gt;Node7</title>
<path fill="none" stroke="midnightblue" d="M278.52,-324.4C286.46,-315.79 296.77,-304.63 305.7,-294.94"/>
<polygon fill="midnightblue" stroke="midnightblue" points="308.3,-297.3 312.51,-287.58 303.15,-292.55 308.3,-297.3"/>
</g>
<!-- Node5 -->
<g id="node5" class="node">
<title>Node5</title>
<g id="a_node5"><a xlink:href="SArc_8h.html" target="_top" xlink:title=" ">
<polygon fill="white" stroke="black" points="15,-62 15,-81 138,-81 138,-62 15,-62"/>
<text text-anchor="middle" x="76.5" y="-69" font-family="Helvetica,sans-Serif" font-size="10.00">JSystem/JKernel/SArc.h</text>
</a>
</g>
</g>
<!-- Node4&#45;&gt;Node5 -->
<g id="edge4" class="edge">
<title>Node4&#45;&gt;Node5</title>
<path fill="none" stroke="midnightblue" d="M86.88,-128.73C85.12,-119.18 82.24,-103.62 79.97,-91.28"/>
<polygon fill="midnightblue" stroke="midnightblue" points="83.35,-90.33 78.09,-81.13 76.47,-91.6 83.35,-90.33"/>
</g>
<!-- Node4&#45;&gt;Node6 -->
<g id="edge6" class="edge">
<title>Node4&#45;&gt;Node6</title>
<path fill="none" stroke="midnightblue" d="M98.79,-128.74C122.53,-108.59 179.92,-60.38 190.5,-56 253.58,-29.9 451.42,-17.61 545.64,-13.11"/>
<polygon fill="midnightblue" stroke="midnightblue" points="545.96,-16.6 555.79,-12.64 545.64,-9.61 545.96,-16.6"/>
</g>
<!-- Node5&#45;&gt;Node6 -->
<g id="edge5" class="edge">
<title>Node5&#45;&gt;Node6</title>
<path fill="none" stroke="midnightblue" d="M117.81,-61.94C129.03,-59.8 141.2,-57.65 152.5,-56 294.4,-35.31 463.2,-21.02 545.83,-14.68"/>
<polygon fill="midnightblue" stroke="midnightblue" points="546.24,-18.16 555.95,-13.92 545.71,-11.18 546.24,-18.16"/>
</g>
<!-- Node7&#45;&gt;Node6 -->
<g id="edge12" class="edge">
<title>Node7&#45;&gt;Node6</title>
<path fill="none" stroke="midnightblue" d="M314.66,-257.29C299.27,-236.15 271.82,-194.52 261.5,-154 250.32,-110.1 253.72,-83.78 289.5,-56 328.46,-25.75 468.79,-15.75 545.51,-12.51"/>
<polygon fill="midnightblue" stroke="midnightblue" points="546.05,-15.99 555.9,-12.1 545.77,-9 546.05,-15.99"/>
</g>
<!-- Node8 -->
<g id="node8" class="node">
<title>Node8</title>
<g id="a_node8"><a xlink:href="JKRDisposer_8h.html" target="_top" xlink:title=" ">
<polygon fill="white" stroke="black" points="271,-123.5 271,-153.5 422,-153.5 422,-123.5 271,-123.5"/>
<text text-anchor="start" x="279" y="-141.5" font-family="Helvetica,sans-Serif" font-size="10.00">JSystem/JKernel/JKRDisposer</text>
<text text-anchor="middle" x="346.5" y="-130.5" font-family="Helvetica,sans-Serif" font-size="10.00">/JKRDisposer.h</text>
</a>
</g>
</g>
<!-- Node7&#45;&gt;Node8 -->
<g id="edge8" class="edge">
<title>Node7&#45;&gt;Node8</title>
<path fill="none" stroke="midnightblue" d="M327.75,-257.37C331.32,-234.94 338.32,-190.92 342.68,-163.49"/>
<polygon fill="midnightblue" stroke="midnightblue" points="346.15,-163.95 344.27,-153.52 339.24,-162.85 346.15,-163.95"/>
</g>
<!-- Node10 -->
<g id="node10" class="node">
<title>Node10</title>
<g id="a_node10"><a xlink:href="global_8h.html" target="_top" xlink:title=" ">
<polygon fill="white" stroke="black" points="512.5,-196 512.5,-215 562.5,-215 562.5,-196 512.5,-196"/>
<text text-anchor="middle" x="537.5" y="-203" font-family="Helvetica,sans-Serif" font-size="10.00">global.h</text>
</a>
</g>
</g>
<!-- Node7&#45;&gt;Node10 -->
<g id="edge13" class="edge">
<title>Node7&#45;&gt;Node10</title>
<path fill="none" stroke="midnightblue" d="M371.24,-257.48C410.57,-245.42 466.47,-228.28 502.37,-217.27"/>
<polygon fill="midnightblue" stroke="midnightblue" points="503.84,-220.48 512.38,-214.2 501.79,-213.79 503.84,-220.48"/>
</g>
<!-- Node8&#45;&gt;Node6 -->
<g id="edge11" class="edge">
<title>Node8&#45;&gt;Node6</title>
<path fill="none" stroke="midnightblue" d="M328.02,-123.21C308.06,-106.09 281.4,-77.05 299.5,-56 330.64,-19.79 469.22,-12.36 545.58,-11.06"/>
<polygon fill="midnightblue" stroke="midnightblue" points="545.98,-14.56 555.93,-10.92 545.88,-7.56 545.98,-14.56"/>
</g>
<!-- Node9 -->
<g id="node9" class="node">
<title>Node9</title>
<g id="a_node9"><a xlink:href="JSUList_8h.html" target="_top" xlink:title=" ">
<polygon fill="white" stroke="black" points="308.5,-56.5 308.5,-86.5 444.5,-86.5 444.5,-56.5 308.5,-56.5"/>
<text text-anchor="start" x="316.5" y="-74.5" font-family="Helvetica,sans-Serif" font-size="10.00">JSystem/JSupport/JSUList</text>
<text text-anchor="middle" x="376.5" y="-63.5" font-family="Helvetica,sans-Serif" font-size="10.00">/JSUList.h</text>
</a>
</g>
</g>
<!-- Node8&#45;&gt;Node9 -->
<g id="edge9" class="edge">
<title>Node8&#45;&gt;Node9</title>
<path fill="none" stroke="midnightblue" d="M353.01,-123.4C356.74,-115.3 361.53,-104.94 365.8,-95.69"/>
<polygon fill="midnightblue" stroke="midnightblue" points="368.99,-97.12 370,-86.58 362.63,-94.19 368.99,-97.12"/>
</g>
<!-- Node9&#45;&gt;Node6 -->
<g id="edge10" class="edge">
<title>Node9&#45;&gt;Node6</title>
<path fill="none" stroke="midnightblue" d="M428.36,-56.47C467.14,-45.99 519.46,-31.84 555.38,-22.12"/>
<polygon fill="midnightblue" stroke="midnightblue" points="556.31,-25.5 565.05,-19.51 554.48,-18.74 556.31,-25.5"/>
</g>
<!-- Node10&#45;&gt;Node6 -->
<g id="edge14" class="edge">
<title>Node10&#45;&gt;Node6</title>
<path fill="none" stroke="midnightblue" d="M530,-195.74C510.28,-171.61 460.6,-102.87 491.5,-56 503.8,-37.35 525.61,-26.4 546.18,-19.98"/>
<polygon fill="midnightblue" stroke="midnightblue" points="547.14,-23.35 555.81,-17.26 545.24,-16.61 547.14,-23.35"/>
</g>
<!-- Node11 -->
<g id="node11" class="node">
<title>Node11</title>
<g id="a_node11"><a xlink:href="AR_8h.html" target="_top" xlink:title=" ">
<polygon fill="white" stroke="black" points="501,-62 501,-81 550,-81 550,-62 501,-62"/>
<text text-anchor="middle" x="525.5" y="-69" font-family="Helvetica,sans-Serif" font-size="10.00">ar/AR.h</text>
</a>
</g>
</g>
<!-- Node10&#45;&gt;Node11 -->
<g id="edge15" class="edge">
<title>Node10&#45;&gt;Node11</title>
<path fill="none" stroke="midnightblue" d="M536.71,-195.84C534.79,-174.67 529.81,-119.95 527.18,-91.03"/>
<polygon fill="midnightblue" stroke="midnightblue" points="530.67,-90.66 526.27,-81.02 523.69,-91.3 530.67,-90.66"/>
</g>
<!-- Node12 -->
<g id="node12" class="node">
<title>Node12</title>
<g id="a_node12"><a xlink:href="ARQ_8h.html" target="_top" xlink:title=" ">
<polygon fill="white" stroke="black" points="568.5,-62 568.5,-81 624.5,-81 624.5,-62 568.5,-62"/>
<text text-anchor="middle" x="596.5" y="-69" font-family="Helvetica,sans-Serif" font-size="10.00">ar/ARQ.h</text>
</a>
</g>
</g>
<!-- Node10&#45;&gt;Node12 -->
<g id="edge17" class="edge">
<title>Node10&#45;&gt;Node12</title>
<path fill="none" stroke="midnightblue" d="M541.37,-195.84C550.92,-174.49 575.73,-118.98 588.56,-90.27"/>
<polygon fill="midnightblue" stroke="midnightblue" points="591.81,-91.58 592.69,-81.02 585.42,-88.72 591.81,-91.58"/>
</g>
<!-- Node13 -->
<g id="node13" class="node">
<title>Node13</title>
<g id="a_node13"><a xlink:href="mwcc_8h.html" target="_top" xlink:title=" ">
<polygon fill="white" stroke="black" points="584.5,-129 584.5,-148 634.5,-148 634.5,-129 584.5,-129"/>
<text text-anchor="middle" x="609.5" y="-136" font-family="Helvetica,sans-Serif" font-size="10.00">mwcc.h</text>
</a>
</g>
</g>
<!-- Node10&#45;&gt;Node13 -->
<g id="edge19" class="edge">
<title>Node10&#45;&gt;Node13</title>
<path fill="none" stroke="midnightblue" d="M547.21,-195.73C558.76,-185.31 578.25,-167.71 592.36,-154.97"/>
<polygon fill="midnightblue" stroke="midnightblue" points="594.87,-157.43 599.94,-148.13 590.18,-152.23 594.87,-157.43"/>
</g>
<!-- Node14 -->
<g id="node14" class="node">
<title>Node14</title>
<g id="a_node14"><a xlink:href="OS_8h.html" target="_top" xlink:title=" ">
<polygon fill="white" stroke="black" points="652.5,-129 652.5,-148 704.5,-148 704.5,-129 652.5,-129"/>
<text text-anchor="middle" x="678.5" y="-136" font-family="Helvetica,sans-Serif" font-size="10.00">os/OS.h</text>
</a>
</g>
</g>
<!-- Node10&#45;&gt;Node14 -->
<g id="edge20" class="edge">
<title>Node10&#45;&gt;Node14</title>
<path fill="none" stroke="midnightblue" d="M556.22,-195.87C580.35,-184.75 622.5,-165.32 650.45,-152.43"/>
<polygon fill="midnightblue" stroke="midnightblue" points="652.08,-155.53 659.7,-148.17 649.15,-149.18 652.08,-155.53"/>
</g>
<!-- Node11&#45;&gt;Node6 -->
<g id="edge16" class="edge">
<title>Node11&#45;&gt;Node6</title>
<path fill="none" stroke="midnightblue" d="M535.67,-61.98C546.85,-52.61 565.02,-37.38 578.59,-26.01"/>
<polygon fill="midnightblue" stroke="midnightblue" points="580.93,-28.61 586.35,-19.51 576.43,-23.25 580.93,-28.61"/>
</g>
<!-- Node12&#45;&gt;Node6 -->
<g id="edge18" class="edge">
<title>Node12&#45;&gt;Node6</title>
<path fill="none" stroke="midnightblue" d="M596.5,-61.98C596.5,-53.58 596.5,-40.48 596.5,-29.66"/>
<polygon fill="midnightblue" stroke="midnightblue" points="600,-29.51 596.5,-19.51 593,-29.51 600,-29.51"/>
</g>
<!-- Node14&#45;&gt;Node6 -->
<g id="edge21" class="edge">
<title>Node14&#45;&gt;Node6</title>
<path fill="none" stroke="midnightblue" d="M674.27,-128.63C666.83,-113.31 650.56,-81.14 633.5,-56 626.75,-46.06 618.31,-35.66 611.19,-27.37"/>
<polygon fill="midnightblue" stroke="midnightblue" points="613.6,-24.8 604.37,-19.59 608.33,-29.42 613.6,-24.8"/>
</g>
<!-- Node15 -->
<g id="node15" class="node">
<title>Node15</title>
<g id="a_node15"><a xlink:href="dvd_8h.html" target="_top" xlink:title=" ">
<polygon fill="white" stroke="black" points="681,-62 681,-81 740,-81 740,-62 681,-62"/>
<text text-anchor="middle" x="710.5" y="-69" font-family="Helvetica,sans-Serif" font-size="10.00">dvd/dvd.h</text>
</a>
</g>
</g>
<!-- Node14&#45;&gt;Node15 -->
<g id="edge22" class="edge">
<title>Node14&#45;&gt;Node15</title>
<path fill="none" stroke="midnightblue" d="M682.82,-128.73C687.66,-118.89 695.65,-102.66 701.81,-90.16"/>
<polygon fill="midnightblue" stroke="midnightblue" points="704.98,-91.64 706.25,-81.13 698.7,-88.55 704.98,-91.64"/>
</g>
<!-- Node15&#45;&gt;Node6 -->
<g id="edge23" class="edge">
<title>Node15&#45;&gt;Node6</title>
<path fill="none" stroke="midnightblue" d="M694.17,-61.98C675.29,-52.12 643.99,-35.79 621.92,-24.27"/>
<polygon fill="midnightblue" stroke="midnightblue" points="623.29,-21.03 612.8,-19.51 620.05,-27.24 623.29,-21.03"/>
</g>
<!-- Node16&#45;&gt;Node6 -->
<g id="edge33" class="edge">
<title>Node16&#45;&gt;Node6</title>
<path fill="none" stroke="midnightblue" d="M897.96,-257.34C886.23,-248.24 872.19,-235.44 863.5,-221 824.44,-156.06 875.58,-108.05 820.5,-56 796.02,-32.87 705.46,-20.63 647.26,-15"/>
<polygon fill="midnightblue" stroke="midnightblue" points="647.43,-11.5 637.14,-14.06 646.78,-18.47 647.43,-11.5"/>
</g>
<!-- Node17 -->
<g id="node17" class="node">
<title>Node17</title>
<g id="a_node17"><a xlink:href="JSURandomInputStream_8h.html" target="_top" xlink:title=" ">
<polygon fill="white" stroke="black" points="873,-190.5 873,-220.5 1062,-220.5 1062,-190.5 873,-190.5"/>
<text text-anchor="start" x="881" y="-208.5" font-family="Helvetica,sans-Serif" font-size="10.00">JSystem/JSupport/JSURandom</text>
<text text-anchor="middle" x="967.5" y="-197.5" font-family="Helvetica,sans-Serif" font-size="10.00">InputStream/JSURandomInputStream.h</text>
</a>
</g>
</g>
<!-- Node16&#45;&gt;Node17 -->
<g id="edge27" class="edge">
<title>Node16&#45;&gt;Node17</title>
<path fill="none" stroke="midnightblue" d="M929.13,-257.4C935.42,-249.05 943.54,-238.29 950.68,-228.81"/>
<polygon fill="midnightblue" stroke="midnightblue" points="953.66,-230.67 956.89,-220.58 948.07,-226.45 953.66,-230.67"/>
</g>
<!-- Node17&#45;&gt;Node6 -->
<g id="edge32" class="edge">
<title>Node17&#45;&gt;Node6</title>
<path fill="none" stroke="midnightblue" d="M943.37,-190.35C929.66,-181.35 912.99,-168.64 901.5,-154 872.13,-116.59 895.97,-85.3 858.5,-56 826.45,-30.94 714.27,-19.05 647.53,-14.08"/>
<polygon fill="midnightblue" stroke="midnightblue" points="647.46,-10.57 637.23,-13.34 646.96,-17.55 647.46,-10.57"/>
</g>
<!-- Node18 -->
<g id="node18" class="node">
<title>Node18</title>
<g id="a_node18"><a xlink:href="JSUInputStream_8h.html" target="_top" xlink:title=" ">
<polygon fill="white" stroke="black" points="911,-123.5 911,-153.5 1052,-153.5 1052,-123.5 911,-123.5"/>
<text text-anchor="start" x="919" y="-141.5" font-family="Helvetica,sans-Serif" font-size="10.00">JSystem/JSupport/JSUInput</text>
<text text-anchor="middle" x="981.5" y="-130.5" font-family="Helvetica,sans-Serif" font-size="10.00">Stream.h</text>
</a>
</g>
</g>
<!-- Node17&#45;&gt;Node18 -->
<g id="edge28" class="edge">
<title>Node17&#45;&gt;Node18</title>
<path fill="none" stroke="midnightblue" d="M970.54,-190.4C972.23,-182.56 974.37,-172.6 976.32,-163.57"/>
<polygon fill="midnightblue" stroke="midnightblue" points="979.78,-164.09 978.47,-153.58 972.94,-162.62 979.78,-164.09"/>
</g>
<!-- Node18&#45;&gt;Node6 -->
<g id="edge31" class="edge">
<title>Node18&#45;&gt;Node6</title>
<path fill="none" stroke="midnightblue" d="M971.25,-123.25C956.86,-104.44 928.8,-71.87 896.5,-56 853.61,-34.93 720.79,-21.12 647.08,-14.86"/>
<polygon fill="midnightblue" stroke="midnightblue" points="647.34,-11.37 637.08,-14.03 646.76,-18.35 647.34,-11.37"/>
</g>
<!-- Node19 -->
<g id="node19" class="node">
<title>Node19</title>
<g id="a_node19"><a xlink:href="JSUIosBase_8h.html" target="_top" xlink:title=" ">
<polygon fill="white" stroke="black" points="949,-62 949,-81 1112,-81 1112,-62 949,-62"/>
<text text-anchor="middle" x="1030.5" y="-69" font-family="Helvetica,sans-Serif" font-size="10.00">JSystem/JSupport/JSUIosBase.h</text>
</a>
</g>
</g>
<!-- Node18&#45;&gt;Node19 -->
<g id="edge29" class="edge">
<title>Node18&#45;&gt;Node19</title>
<path fill="none" stroke="midnightblue" d="M992.13,-123.4C999.7,-113.36 1009.89,-99.84 1017.87,-89.25"/>
<polygon fill="midnightblue" stroke="midnightblue" points="1020.72,-91.29 1023.95,-81.19 1015.13,-87.07 1020.72,-91.29"/>
</g>
<!-- Node19&#45;&gt;Node6 -->
<g id="edge30" class="edge">
<title>Node19&#45;&gt;Node6</title>
<path fill="none" stroke="midnightblue" d="M975.19,-61.98C961.87,-59.97 947.68,-57.87 934.5,-56 832.69,-41.54 713.42,-25.98 647.26,-17.48"/>
<polygon fill="midnightblue" stroke="midnightblue" points="647.48,-13.98 637.11,-16.17 646.59,-20.92 647.48,-13.98"/>
</g>
</g>
</svg>
        <g id="navigator" transform="translate(0 0)" fill="#404254">
                <rect fill="#f2f5e9" fill-opacity="0.5" stroke="#606060" stroke-width=".5" x="0" y="0" width="60" height="60"/>
                <use id="zoomplus" xlink:href="#zoomPlus" x="17" y="9" onmousedown="handleZoom(evt,'in')"/>
                <use id="zoomminus" xlink:href="#zoomMin" x="42" y="9" onmousedown="handleZoom(evt,'out')"/>
                <use id="reset" xlink:href="#resetDef" x="30" y="36" onmousedown="handleReset()"/>
                <g id="arrowUp" xlink:href="#dirArrow" transform="translate(30 24)" onmousedown="handlePan(0,-1)">
                  <use xlink:href="#rim" fill="#404040">
                        <set attributeName="fill" to="#808080" begin="arrowUp.mouseover" end="arrowUp.mouseout"/>
                  </use>
                  <path fill="none" stroke="white" stroke-width="1.5" d="M0,-3.0v7 M-2.5,-0.5L0,-3.0L2.5,-0.5"/>
                </g>
                <g id="arrowRight" xlink:href="#dirArrow" transform="rotate(90) translate(36 -43)" onmousedown="handlePan(1,0)">
                  <use xlink:href="#rim" fill="#404040">
                        <set attributeName="fill" to="#808080" begin="arrowRight.mouseover" end="arrowRight.mouseout"/>
                  </use>
                  <path fill="none" stroke="white" stroke-width="1.5" d="M0,-3.0v7 M-2.5,-0.5L0,-3.0L2.5,-0.5"/>
                </g>
                <g id="arrowDown" xlink:href="#dirArrow" transform="rotate(180) translate(-30 -48)" onmousedown="handlePan(0,1)">
                  <use xlink:href="#rim" fill="#404040">
                        <set attributeName="fill" to="#808080" begin="arrowDown.mouseover" end="arrowDown.mouseout"/>
                  </use>
                  <path fill="none" stroke="white" stroke-width="1.5" d="M0,-3.0v7 M-2.5,-0.5L0,-3.0L2.5,-0.5"/>
                </g>
                <g id="arrowLeft" xlink:href="#dirArrow" transform="rotate(270) translate(-36 17)" onmousedown="handlePan(-1,0)">
                  <use xlink:href="#rim" fill="#404040">
                        <set attributeName="fill" to="#808080" begin="arrowLeft.mouseover" end="arrowLeft.mouseout"/>
                  </use>
                  <path fill="none" stroke="white" stroke-width="1.5" d="M0,-3.0v7 M-2.5,-0.5L0,-3.0L2.5,-0.5"/>
                </g>
        </g>
        <svg viewBox="0 0 15 15" width="100%" height="30px" preserveAspectRatio="xMaxYMin meet">
         <g id="arrow_out" transform="scale(0.3 0.3)">
          <a xlink:href="JKRDvdAramRipper_8h__incl_org.svg" target="_base">
           <rect id="button" ry="5" rx="5" y="6" x="6" height="38" width="38"
                fill="#f2f5e9" fill-opacity="0.5" stroke="#606060" stroke-width="1.0"/>
           <path id="arrow"
             d="M 11.500037,31.436501 C 11.940474,20.09759 22.043105,11.32322 32.158766,21.979434 L 37.068811,17.246167 C 37.068811,17.246167 37.088388,32 37.088388,32 L 22.160133,31.978069 C 22.160133,31.978069 26.997745,27.140456 26.997745,27.140456 C 18.528582,18.264221 13.291696,25.230495 11.500037,31.436501 z"
             style="fill:#404040;"/>
          </a>
         </g>
        </svg>
</svg>
