<?xml version="1.0" encoding="UTF-8" standalone="no"?>
<!DOCTYPE svg PUBLIC "-//W3C//DTD SVG 1.1//EN"
 "http://www.w3.org/Graphics/SVG/1.1/DTD/svg11.dtd">
<!-- Generated by graphviz version 2.44.0 ()
 -->
<!-- Title: include/JSystem/JKernel/JKRDvdRipper/JKRDvdRipper.h Pages: 1 -->
<svg width="947pt" height="184pt"
 viewBox="0.00 0.00 947.00 184.00" xmlns="http://www.w3.org/2000/svg" xmlns:xlink="http://www.w3.org/1999/xlink">
<g id="graph0" class="graph" transform="scale(1 1) rotate(0) translate(4 180)">
<title>include/JSystem/JKernel/JKRDvdRipper/JKRDvdRipper.h</title>
<polygon fill="white" stroke="transparent" points="-4,4 -4,-180 943,-180 943,4 -4,4"/>
<!-- Node1 -->
<g id="node1" class="node">
<title>Node1</title>
<g id="a_node1"><a xlink:title=" ">
<polygon fill="#bfbfbf" stroke="black" points="320.5,-145.5 320.5,-175.5 478.5,-175.5 478.5,-145.5 320.5,-145.5"/>
<text text-anchor="start" x="328.5" y="-163.5" font-family="Helvetica,sans-Serif" font-size="10.00">include/JSystem/JKernel</text>
<text text-anchor="middle" x="399.5" y="-152.5" font-family="Helvetica,sans-Serif" font-size="10.00">/JKRDvdRipper/JKRDvdRipper.h</text>
</a>
</g>
</g>
<!-- Node2 -->
<g id="node2" class="node">
<title>Node2</title>
<g id="a_node2"><a xlink:href="JKRDvdArchive_8cpp.html" target="_top" xlink:title=" ">
<polygon fill="white" stroke="black" points="90,-73 90,-103 199,-103 199,-73 90,-73"/>
<text text-anchor="start" x="98" y="-91" font-family="Helvetica,sans-Serif" font-size="10.00">libs/JSystem/JKernel</text>
<text text-anchor="middle" x="144.5" y="-80" font-family="Helvetica,sans-Serif" font-size="10.00">/JKRDvdArchive.cpp</text>
</a>
</g>
</g>
<!-- Node1&#45;&gt;Node2 -->
<g id="edge1" class="edge">
<title>Node1&#45;&gt;Node2</title>
<path fill="none" stroke="midnightblue" d="M333.31,-142.96C296.19,-133.47 249.13,-121.07 207.5,-109 201.11,-107.15 194.38,-105.11 187.79,-103.06"/>
<polygon fill="midnightblue" stroke="midnightblue" points="332.45,-146.36 343.01,-145.44 334.18,-139.57 332.45,-146.36"/>
</g>
<!-- Node3 -->
<g id="node3" class="node">
<title>Node3</title>
<g id="a_node3"><a xlink:href="JKRDvdRipper_8cpp.html" target="_top" xlink:title=" ">
<polygon fill="white" stroke="black" points="217,-73 217,-103 326,-103 326,-73 217,-73"/>
<text text-anchor="start" x="225" y="-91" font-family="Helvetica,sans-Serif" font-size="10.00">libs/JSystem/JKernel</text>
<text text-anchor="middle" x="271.5" y="-80" font-family="Helvetica,sans-Serif" font-size="10.00">/JKRDvdRipper.cpp</text>
</a>
</g>
</g>
<!-- Node1&#45;&gt;Node3 -->
<g id="edge2" class="edge">
<title>Node1&#45;&gt;Node3</title>
<path fill="none" stroke="midnightblue" d="M365.11,-140.56C343.68,-128.76 316.57,-113.83 297.05,-103.07"/>
<polygon fill="midnightblue" stroke="midnightblue" points="363.46,-143.64 373.9,-145.4 366.83,-137.51 363.46,-143.64"/>
</g>
<!-- Node4 -->
<g id="node4" class="node">
<title>Node4</title>
<g id="a_node4"><a xlink:href="JKRMemArchive_8cpp.html" target="_top" xlink:title=" ">
<polygon fill="white" stroke="black" points="344,-73 344,-103 455,-103 455,-73 344,-73"/>
<text text-anchor="start" x="352" y="-91" font-family="Helvetica,sans-Serif" font-size="10.00">libs/JSystem/JKernel</text>
<text text-anchor="middle" x="399.5" y="-80" font-family="Helvetica,sans-Serif" font-size="10.00">/JKRMemArchive.cpp</text>
</a>
</g>
</g>
<!-- Node1&#45;&gt;Node4 -->
<g id="edge3" class="edge">
<title>Node1&#45;&gt;Node4</title>
<path fill="none" stroke="midnightblue" d="M399.5,-135.23C399.5,-124.57 399.5,-112.41 399.5,-103.25"/>
<polygon fill="midnightblue" stroke="midnightblue" points="396,-135.23 399.5,-145.23 403,-135.23 396,-135.23"/>
</g>
<!-- Node5 -->
<g id="node5" class="node">
<title>Node5</title>
<g id="a_node5"><a xlink:href="JKRAram_8h.html" target="_top" xlink:title=" ">
<polygon fill="white" stroke="black" points="473,-73 473,-103 598,-103 598,-73 473,-73"/>
<text text-anchor="start" x="481" y="-91" font-family="Helvetica,sans-Serif" font-size="10.00">include/JSystem/JKernel</text>
<text text-anchor="middle" x="535.5" y="-80" font-family="Helvetica,sans-Serif" font-size="10.00">/JKRAram/JKRAram.h</text>
</a>
</g>
</g>
<!-- Node1&#45;&gt;Node5 -->
<g id="edge4" class="edge">
<title>Node1&#45;&gt;Node5</title>
<path fill="none" stroke="midnightblue" d="M435.74,-140.72C458.55,-128.89 487.52,-113.87 508.35,-103.07"/>
<polygon fill="midnightblue" stroke="midnightblue" points="433.96,-137.69 426.69,-145.4 437.18,-143.91 433.96,-137.69"/>
</g>
<!-- Node13 -->
<g id="node13" class="node">
<title>Node13</title>
<g id="a_node13"><a xlink:href="JKRDvdAramRipper_8h.html" target="_top" xlink:title=" ">
<polygon fill="white" stroke="black" points="733,-67.5 733,-108.5 902,-108.5 902,-67.5 733,-67.5"/>
<text text-anchor="start" x="741" y="-96.5" font-family="Helvetica,sans-Serif" font-size="10.00">include/JSystem/JKernel</text>
<text text-anchor="start" x="741" y="-85.5" font-family="Helvetica,sans-Serif" font-size="10.00">/JKRDvdAramRipper/JKRDvdAram</text>
<text text-anchor="middle" x="817.5" y="-74.5" font-family="Helvetica,sans-Serif" font-size="10.00">Ripper.h</text>
</a>
</g>
</g>
<!-- Node1&#45;&gt;Node13 -->
<g id="edge12" class="edge">
<title>Node1&#45;&gt;Node13</title>
<path fill="none" stroke="midnightblue" d="M488.61,-144.47C560.86,-132.29 661.98,-115.23 732.97,-103.26"/>
<polygon fill="midnightblue" stroke="midnightblue" points="487.89,-141.04 478.61,-146.16 489.06,-147.94 487.89,-141.04"/>
</g>
<!-- Node6 -->
<g id="node6" class="node">
<title>Node6</title>
<g id="a_node6"><a xlink:href="m__Do__machine__exception_8cpp.html" target="_top" xlink:title=" ">
<polygon fill="white" stroke="black" points="0,-0.5 0,-30.5 129,-30.5 129,-0.5 0,-0.5"/>
<text text-anchor="start" x="8" y="-18.5" font-family="Helvetica,sans-Serif" font-size="10.00">src/m_Do/m_Do_machine</text>
<text text-anchor="middle" x="64.5" y="-7.5" font-family="Helvetica,sans-Serif" font-size="10.00">_exception.cpp</text>
</a>
</g>
</g>
<!-- Node5&#45;&gt;Node6 -->
<g id="edge5" class="edge">
<title>Node5&#45;&gt;Node6</title>
<path fill="none" stroke="midnightblue" d="M479.98,-70.42C474.78,-69.15 469.56,-67.98 464.5,-67 320.98,-39.08 282.01,-53.26 137.5,-31 134.82,-30.59 132.09,-30.14 129.33,-29.68"/>
<polygon fill="midnightblue" stroke="midnightblue" points="479.38,-73.88 489.93,-72.97 481.11,-67.1 479.38,-73.88"/>
</g>
<!-- Node7 -->
<g id="node7" class="node">
<title>Node7</title>
<g id="a_node7"><a xlink:href="m__Do__main_8cpp.html" target="_top" xlink:title=" ">
<polygon fill="white" stroke="black" points="147,-6 147,-25 278,-25 278,-6 147,-6"/>
<text text-anchor="middle" x="212.5" y="-13" font-family="Helvetica,sans-Serif" font-size="10.00">src/m_Do/m_Do_main.cpp</text>
</a>
</g>
</g>
<!-- Node5&#45;&gt;Node7 -->
<g id="edge6" class="edge">
<title>Node5&#45;&gt;Node7</title>
<path fill="none" stroke="midnightblue" d="M477.74,-70.33C473.27,-69.16 468.82,-68.04 464.5,-67 444.52,-62.19 322.76,-38.14 256.08,-25.04"/>
<polygon fill="midnightblue" stroke="midnightblue" points="476.94,-73.74 487.51,-72.94 478.75,-66.98 476.94,-73.74"/>
</g>
<!-- Node8 -->
<g id="node8" class="node">
<title>Node8</title>
<g id="a_node8"><a xlink:href="JKRAram_8cpp.html" target="_top" xlink:title=" ">
<polygon fill="white" stroke="black" points="296,-0.5 296,-30.5 405,-30.5 405,-0.5 296,-0.5"/>
<text text-anchor="start" x="304" y="-18.5" font-family="Helvetica,sans-Serif" font-size="10.00">libs/JSystem/JKernel</text>
<text text-anchor="middle" x="350.5" y="-7.5" font-family="Helvetica,sans-Serif" font-size="10.00">/JKRAram.cpp</text>
</a>
</g>
</g>
<!-- Node5&#45;&gt;Node8 -->
<g id="edge7" class="edge">
<title>Node5&#45;&gt;Node8</title>
<path fill="none" stroke="midnightblue" d="M489.08,-69.31C457.64,-57.33 416.65,-41.71 387.43,-30.57"/>
<polygon fill="midnightblue" stroke="midnightblue" points="487.92,-72.61 498.51,-72.9 490.41,-66.07 487.92,-72.61"/>
</g>
<!-- Node9 -->
<g id="node9" class="node">
<title>Node9</title>
<g id="a_node9"><a xlink:href="JKRAramPiece_8cpp.html" target="_top" xlink:title=" ">
<polygon fill="white" stroke="black" points="423,-0.5 423,-30.5 532,-30.5 532,-0.5 423,-0.5"/>
<text text-anchor="start" x="431" y="-18.5" font-family="Helvetica,sans-Serif" font-size="10.00">libs/JSystem/JKernel</text>
<text text-anchor="middle" x="477.5" y="-7.5" font-family="Helvetica,sans-Serif" font-size="10.00">/JKRAramPiece.cpp</text>
</a>
</g>
</g>
<!-- Node5&#45;&gt;Node9 -->
<g id="edge8" class="edge">
<title>Node5&#45;&gt;Node9</title>
<path fill="none" stroke="midnightblue" d="M517.16,-64.71C508.02,-53.6 497.23,-40.49 489.22,-30.75"/>
<polygon fill="midnightblue" stroke="midnightblue" points="514.71,-67.23 523.76,-72.73 520.11,-62.79 514.71,-67.23"/>
</g>
<!-- Node10 -->
<g id="node10" class="node">
<title>Node10</title>
<g id="a_node10"><a xlink:href="JKRAramArchive_8cpp.html" target="_top" xlink:title=" ">
<polygon fill="white" stroke="black" points="550,-0.5 550,-30.5 663,-30.5 663,-0.5 550,-0.5"/>
<text text-anchor="start" x="558" y="-18.5" font-family="Helvetica,sans-Serif" font-size="10.00">libs/JSystem/JKernel</text>
<text text-anchor="middle" x="606.5" y="-7.5" font-family="Helvetica,sans-Serif" font-size="10.00">/JKRAramArchive.cpp</text>
</a>
</g>
</g>
<!-- Node5&#45;&gt;Node10 -->
<g id="edge9" class="edge">
<title>Node5&#45;&gt;Node10</title>
<path fill="none" stroke="midnightblue" d="M557.29,-65.36C568.62,-54.11 582.15,-40.68 592.15,-30.75"/>
<polygon fill="midnightblue" stroke="midnightblue" points="554.5,-63.2 549.87,-72.73 559.43,-68.17 554.5,-63.2"/>
</g>
<!-- Node11 -->
<g id="node11" class="node">
<title>Node11</title>
<g id="a_node11"><a xlink:href="JKRCompArchive_8cpp.html" target="_top" xlink:title=" ">
<polygon fill="white" stroke="black" points="681,-0.5 681,-30.5 796,-30.5 796,-0.5 681,-0.5"/>
<text text-anchor="start" x="689" y="-18.5" font-family="Helvetica,sans-Serif" font-size="10.00">libs/JSystem/JKernel</text>
<text text-anchor="middle" x="738.5" y="-7.5" font-family="Helvetica,sans-Serif" font-size="10.00">/JKRCompArchive.cpp</text>
</a>
</g>
</g>
<!-- Node5&#45;&gt;Node11 -->
<g id="edge10" class="edge">
<title>Node5&#45;&gt;Node11</title>
<path fill="none" stroke="midnightblue" d="M585.55,-69.62C620.16,-57.6 665.63,-41.81 697.98,-30.57"/>
<polygon fill="midnightblue" stroke="midnightblue" points="584.39,-66.32 576.09,-72.9 586.69,-72.93 584.39,-66.32"/>
</g>
<!-- Node12 -->
<g id="node12" class="node">
<title>Node12</title>
<g id="a_node12"><a xlink:href="JKRDvdAramRipper_8cpp.html" target="_top" xlink:title=" ">
<polygon fill="white" stroke="black" points="814,-0.5 814,-30.5 939,-30.5 939,-0.5 814,-0.5"/>
<text text-anchor="start" x="822" y="-18.5" font-family="Helvetica,sans-Serif" font-size="10.00">libs/JSystem/JKernel</text>
<text text-anchor="middle" x="876.5" y="-7.5" font-family="Helvetica,sans-Serif" font-size="10.00">/JKRDvdAramRipper.cpp</text>
</a>
</g>
</g>
<!-- Node5&#45;&gt;Node12 -->
<g id="edge11" class="edge">
<title>Node5&#45;&gt;Node12</title>
<path fill="none" stroke="midnightblue" d="M608,-72.01C669.1,-59.38 755.62,-41.49 813.78,-29.47"/>
<polygon fill="midnightblue" stroke="midnightblue" points="607.13,-68.62 598.04,-74.07 608.55,-75.47 607.13,-68.62"/>
</g>
<!-- Node13&#45;&gt;Node12 -->
<g id="edge13" class="edge">
<title>Node13&#45;&gt;Node12</title>
<path fill="none" stroke="midnightblue" d="M840.57,-59.43C848.73,-49.68 857.58,-39.11 864.46,-30.89"/>
<polygon fill="midnightblue" stroke="midnightblue" points="837.67,-57.45 833.93,-67.36 843.04,-61.94 837.67,-57.45"/>
</g>
</g>
</svg>
