<?xml version="1.0" encoding="UTF-8" standalone="no"?>
<!DOCTYPE svg PUBLIC "-//W3C//DTD SVG 1.1//EN"
 "http://www.w3.org/Graphics/SVG/1.1/DTD/svg11.dtd">
<!-- Generated by graphviz version 2.44.0 ()
 -->
<!-- Title: libs/JSystem/JKernel/JKRDisposer.cpp Pages: 1 -->
<svg width="508pt" height="352pt"
 viewBox="0.00 0.00 508.00 352.00" xmlns="http://www.w3.org/2000/svg" xmlns:xlink="http://www.w3.org/1999/xlink">
<g id="graph0" class="graph" transform="scale(1 1) rotate(0) translate(4 348)">
<title>libs/JSystem/JKernel/JKRDisposer.cpp</title>
<polygon fill="white" stroke="transparent" points="-4,4 -4,-348 504,-348 504,4 -4,4"/>
<!-- Node1 -->
<g id="node1" class="node">
<title>Node1</title>
<g id="a_node1"><a xlink:title=" ">
<polygon fill="#bfbfbf" stroke="black" points="145.5,-313.5 145.5,-343.5 254.5,-343.5 254.5,-313.5 145.5,-313.5"/>
<text text-anchor="start" x="153.5" y="-331.5" font-family="Helvetica,sans-Serif" font-size="10.00">libs/JSystem/JKernel</text>
<text text-anchor="middle" x="200" y="-320.5" font-family="Helvetica,sans-Serif" font-size="10.00">/JKRDisposer.cpp</text>
</a>
</g>
</g>
<!-- Node2 -->
<g id="node2" class="node">
<title>Node2</title>
<g id="a_node2"><a xlink:href="JKRDisposer_8h.html" target="_top" xlink:title=" ">
<polygon fill="white" stroke="black" points="22.5,-179.5 22.5,-209.5 173.5,-209.5 173.5,-179.5 22.5,-179.5"/>
<text text-anchor="start" x="30.5" y="-197.5" font-family="Helvetica,sans-Serif" font-size="10.00">JSystem/JKernel/JKRDisposer</text>
<text text-anchor="middle" x="98" y="-186.5" font-family="Helvetica,sans-Serif" font-size="10.00">/JKRDisposer.h</text>
</a>
</g>
</g>
<!-- Node1&#45;&gt;Node2 -->
<g id="edge1" class="edge">
<title>Node1&#45;&gt;Node2</title>
<path fill="none" stroke="midnightblue" d="M168.42,-313.3C152.75,-304.8 134.71,-292.6 123,-277 110.42,-260.24 104.11,-237.08 100.98,-219.74"/>
<polygon fill="midnightblue" stroke="midnightblue" points="104.42,-219.13 99.41,-209.79 97.51,-220.22 104.42,-219.13"/>
</g>
<!-- Node5 -->
<g id="node5" class="node">
<title>Node5</title>
<g id="a_node5"><a xlink:href="JKRHeap_8h.html" target="_top" xlink:title=" ">
<polygon fill="white" stroke="black" points="132,-246.5 132,-276.5 268,-276.5 268,-246.5 132,-246.5"/>
<text text-anchor="start" x="140" y="-264.5" font-family="Helvetica,sans-Serif" font-size="10.00">JSystem/JKernel/JKRHeap</text>
<text text-anchor="middle" x="200" y="-253.5" font-family="Helvetica,sans-Serif" font-size="10.00">/JKRHeap.h</text>
</a>
</g>
</g>
<!-- Node1&#45;&gt;Node5 -->
<g id="edge5" class="edge">
<title>Node1&#45;&gt;Node5</title>
<path fill="none" stroke="midnightblue" d="M200,-313.4C200,-305.64 200,-295.81 200,-286.86"/>
<polygon fill="midnightblue" stroke="midnightblue" points="203.5,-286.58 200,-276.58 196.5,-286.58 203.5,-286.58"/>
</g>
<!-- Node6 -->
<g id="node6" class="node">
<title>Node6</title>
<g id="a_node6"><a xlink:href="global_8h.html" target="_top" xlink:title=" ">
<polygon fill="white" stroke="black" points="271,-185 271,-204 321,-204 321,-185 271,-185"/>
<text text-anchor="middle" x="296" y="-192" font-family="Helvetica,sans-Serif" font-size="10.00">global.h</text>
</a>
</g>
</g>
<!-- Node1&#45;&gt;Node6 -->
<g id="edge19" class="edge">
<title>Node1&#45;&gt;Node6</title>
<path fill="none" stroke="midnightblue" d="M232.41,-313.41C248.12,-305.01 265.92,-292.86 277,-277 290.03,-258.34 294.23,-231.99 295.53,-214.36"/>
<polygon fill="midnightblue" stroke="midnightblue" points="299.03,-214.35 296.02,-204.19 292.04,-214.01 299.03,-214.35"/>
</g>
<!-- Node3 -->
<g id="node3" class="node">
<title>Node3</title>
<g id="a_node3"><a xlink:href="JSUList_8h.html" target="_top" xlink:title=" ">
<polygon fill="white" stroke="black" points="0,-56.5 0,-86.5 136,-86.5 136,-56.5 0,-56.5"/>
<text text-anchor="start" x="8" y="-74.5" font-family="Helvetica,sans-Serif" font-size="10.00">JSystem/JSupport/JSUList</text>
<text text-anchor="middle" x="68" y="-63.5" font-family="Helvetica,sans-Serif" font-size="10.00">/JSUList.h</text>
</a>
</g>
</g>
<!-- Node2&#45;&gt;Node3 -->
<g id="edge2" class="edge">
<title>Node2&#45;&gt;Node3</title>
<path fill="none" stroke="midnightblue" d="M94.44,-179.14C89.41,-158.86 80.16,-121.53 74.04,-96.86"/>
<polygon fill="midnightblue" stroke="midnightblue" points="77.36,-95.7 71.55,-86.84 70.56,-97.39 77.36,-95.7"/>
</g>
<!-- Node4 -->
<g id="node4" class="node">
<title>Node4</title>
<g id="a_node4"><a xlink:href="types_8h.html" target="_top" xlink:title=" ">
<polygon fill="white" stroke="black" points="225.5,-0.5 225.5,-19.5 306.5,-19.5 306.5,-0.5 225.5,-0.5"/>
<text text-anchor="middle" x="266" y="-7.5" font-family="Helvetica,sans-Serif" font-size="10.00">dolphin/types.h</text>
</a>
</g>
</g>
<!-- Node2&#45;&gt;Node4 -->
<g id="edge4" class="edge">
<title>Node2&#45;&gt;Node4</title>
<path fill="none" stroke="midnightblue" d="M104.4,-179.49C117.15,-152.77 147.98,-93.83 188,-56 202.02,-42.75 220.64,-31.82 236.18,-24.05"/>
<polygon fill="midnightblue" stroke="midnightblue" points="237.89,-27.11 245.38,-19.63 234.85,-20.8 237.89,-27.11"/>
</g>
<!-- Node3&#45;&gt;Node4 -->
<g id="edge3" class="edge">
<title>Node3&#45;&gt;Node4</title>
<path fill="none" stroke="midnightblue" d="M114.67,-56.47C149.13,-46.12 195.46,-32.2 227.74,-22.5"/>
<polygon fill="midnightblue" stroke="midnightblue" points="229.12,-25.74 237.69,-19.51 227.11,-19.03 229.12,-25.74"/>
</g>
<!-- Node5&#45;&gt;Node2 -->
<g id="edge6" class="edge">
<title>Node5&#45;&gt;Node2</title>
<path fill="none" stroke="midnightblue" d="M177.87,-246.4C163.43,-237.2 144.4,-225.07 128.53,-214.95"/>
<polygon fill="midnightblue" stroke="midnightblue" points="130.4,-212 120.09,-209.58 126.64,-217.9 130.4,-212"/>
</g>
<!-- Node5&#45;&gt;Node4 -->
<g id="edge7" class="edge">
<title>Node5&#45;&gt;Node4</title>
<path fill="none" stroke="midnightblue" d="M203.79,-246.12C212.58,-212.72 235.07,-127.34 254,-56 256.31,-47.3 258.88,-37.65 261.05,-29.53"/>
<polygon fill="midnightblue" stroke="midnightblue" points="264.49,-30.19 263.69,-19.63 257.73,-28.38 264.49,-30.19"/>
</g>
<!-- Node5&#45;&gt;Node6 -->
<g id="edge8" class="edge">
<title>Node5&#45;&gt;Node6</title>
<path fill="none" stroke="midnightblue" d="M220.83,-246.4C236.78,-235.6 258.7,-220.76 274.75,-209.89"/>
<polygon fill="midnightblue" stroke="midnightblue" points="277.12,-212.51 283.44,-204.01 273.19,-206.72 277.12,-212.51"/>
</g>
<!-- Node6&#45;&gt;Node4 -->
<g id="edge9" class="edge">
<title>Node6&#45;&gt;Node4</title>
<path fill="none" stroke="midnightblue" d="M292.02,-184.91C284.01,-167.12 266.21,-124.75 260,-87 257.76,-73.4 259.09,-69.75 260,-56 260.57,-47.34 261.77,-37.81 262.94,-29.75"/>
<polygon fill="midnightblue" stroke="midnightblue" points="266.44,-30.01 264.51,-19.59 259.52,-28.94 266.44,-30.01"/>
</g>
<!-- Node7 -->
<g id="node7" class="node">
<title>Node7</title>
<g id="a_node7"><a xlink:href="AR_8h.html" target="_top" xlink:title=" ">
<polygon fill="white" stroke="black" points="268.5,-62 268.5,-81 317.5,-81 317.5,-62 268.5,-62"/>
<text text-anchor="middle" x="293" y="-69" font-family="Helvetica,sans-Serif" font-size="10.00">ar/AR.h</text>
</a>
</g>
</g>
<!-- Node6&#45;&gt;Node7 -->
<g id="edge10" class="edge">
<title>Node6&#45;&gt;Node7</title>
<path fill="none" stroke="midnightblue" d="M295.78,-184.8C295.3,-165.35 294.13,-117.99 293.47,-91.4"/>
<polygon fill="midnightblue" stroke="midnightblue" points="296.96,-91.03 293.21,-81.12 289.96,-91.21 296.96,-91.03"/>
</g>
<!-- Node8 -->
<g id="node8" class="node">
<title>Node8</title>
<g id="a_node8"><a xlink:href="ARQ_8h.html" target="_top" xlink:title=" ">
<polygon fill="white" stroke="black" points="306,-123.5 306,-142.5 362,-142.5 362,-123.5 306,-123.5"/>
<text text-anchor="middle" x="334" y="-130.5" font-family="Helvetica,sans-Serif" font-size="10.00">ar/ARQ.h</text>
</a>
</g>
</g>
<!-- Node6&#45;&gt;Node8 -->
<g id="edge12" class="edge">
<title>Node6&#45;&gt;Node8</title>
<path fill="none" stroke="midnightblue" d="M301.44,-184.98C307.09,-176.14 316.06,-162.09 323.16,-150.98"/>
<polygon fill="midnightblue" stroke="midnightblue" points="326.13,-152.82 328.57,-142.51 320.23,-149.05 326.13,-152.82"/>
</g>
<!-- Node9 -->
<g id="node9" class="node">
<title>Node9</title>
<g id="a_node9"><a xlink:href="mwcc_8h.html" target="_top" xlink:title=" ">
<polygon fill="white" stroke="black" points="380,-123.5 380,-142.5 430,-142.5 430,-123.5 380,-123.5"/>
<text text-anchor="middle" x="405" y="-130.5" font-family="Helvetica,sans-Serif" font-size="10.00">mwcc.h</text>
</a>
</g>
</g>
<!-- Node6&#45;&gt;Node9 -->
<g id="edge14" class="edge">
<title>Node6&#45;&gt;Node9</title>
<path fill="none" stroke="midnightblue" d="M311.62,-184.98C329.59,-175.17 359.32,-158.93 380.41,-147.42"/>
<polygon fill="midnightblue" stroke="midnightblue" points="382.31,-150.37 389.41,-142.51 378.96,-144.23 382.31,-150.37"/>
</g>
<!-- Node10 -->
<g id="node10" class="node">
<title>Node10</title>
<g id="a_node10"><a xlink:href="OS_8h.html" target="_top" xlink:title=" ">
<polygon fill="white" stroke="black" points="448,-123.5 448,-142.5 500,-142.5 500,-123.5 448,-123.5"/>
<text text-anchor="middle" x="474" y="-130.5" font-family="Helvetica,sans-Serif" font-size="10.00">os/OS.h</text>
</a>
</g>
</g>
<!-- Node6&#45;&gt;Node10 -->
<g id="edge15" class="edge">
<title>Node6&#45;&gt;Node10</title>
<path fill="none" stroke="midnightblue" d="M321.13,-185.1C351.83,-174.84 403.96,-157.41 438.69,-145.8"/>
<polygon fill="midnightblue" stroke="midnightblue" points="440.05,-149.04 448.43,-142.55 437.83,-142.4 440.05,-149.04"/>
</g>
<!-- Node7&#45;&gt;Node4 -->
<g id="edge11" class="edge">
<title>Node7&#45;&gt;Node4</title>
<path fill="none" stroke="midnightblue" d="M289.13,-61.98C285.2,-53.32 279,-39.65 274.01,-28.65"/>
<polygon fill="midnightblue" stroke="midnightblue" points="277.18,-27.17 269.86,-19.51 270.81,-30.06 277.18,-27.17"/>
</g>
<!-- Node8&#45;&gt;Node4 -->
<g id="edge13" class="edge">
<title>Node8&#45;&gt;Node4</title>
<path fill="none" stroke="midnightblue" d="M335.37,-123.35C337.28,-108.51 339.24,-77.7 327,-56 319.48,-42.66 306.19,-32.16 293.94,-24.66"/>
<polygon fill="midnightblue" stroke="midnightblue" points="295.3,-21.41 284.88,-19.52 291.85,-27.5 295.3,-21.41"/>
</g>
<!-- Node10&#45;&gt;Node4 -->
<g id="edge16" class="edge">
<title>Node10&#45;&gt;Node4</title>
<path fill="none" stroke="midnightblue" d="M459.72,-123.5C435.98,-109.37 386.83,-80.24 345,-56 326.68,-45.38 305.86,-33.54 290.2,-24.66"/>
<polygon fill="midnightblue" stroke="midnightblue" points="291.61,-21.44 281.18,-19.56 288.16,-27.53 291.61,-21.44"/>
</g>
<!-- Node11 -->
<g id="node11" class="node">
<title>Node11</title>
<g id="a_node11"><a xlink:href="dvd_8h.html" target="_top" xlink:title=" ">
<polygon fill="white" stroke="black" points="436.5,-62 436.5,-81 495.5,-81 495.5,-62 436.5,-62"/>
<text text-anchor="middle" x="466" y="-69" font-family="Helvetica,sans-Serif" font-size="10.00">dvd/dvd.h</text>
</a>
</g>
</g>
<!-- Node10&#45;&gt;Node11 -->
<g id="edge17" class="edge">
<title>Node10&#45;&gt;Node11</title>
<path fill="none" stroke="midnightblue" d="M472.85,-123.48C471.73,-115.08 469.96,-101.98 468.51,-91.16"/>
<polygon fill="midnightblue" stroke="midnightblue" points="471.95,-90.45 467.14,-81.01 465.01,-91.39 471.95,-90.45"/>
</g>
<!-- Node11&#45;&gt;Node4 -->
<g id="edge18" class="edge">
<title>Node11&#45;&gt;Node4</title>
<path fill="none" stroke="midnightblue" d="M437.34,-61.98C402.44,-51.59 343.35,-34.01 304.5,-22.45"/>
<polygon fill="midnightblue" stroke="midnightblue" points="305.18,-19.01 294.6,-19.51 303.19,-25.72 305.18,-19.01"/>
</g>
</g>
</svg>
