<?xml version="1.0" encoding="UTF-8" standalone="no"?>
<!DOCTYPE svg PUBLIC "-//W3C//DTD SVG 1.1//EN"
 "http://www.w3.org/Graphics/SVG/1.1/DTD/svg11.dtd">
<!-- Generated by graphviz version 2.44.0 ()
 -->
<!-- Title: libs/JSystem/JKernel/JKRDvdArchive.cpp Pages: 1 -->
<svg width="1447pt" height="564pt"
 viewBox="0.00 0.00 1446.50 564.00" xmlns="http://www.w3.org/2000/svg" xmlns:xlink="http://www.w3.org/1999/xlink">
<g id="graph0" class="graph" transform="scale(1 1) rotate(0) translate(4 560)">
<title>libs/JSystem/JKernel/JKRDvdArchive.cpp</title>
<polygon fill="white" stroke="transparent" points="-4,4 -4,-560 1442.5,-560 1442.5,4 -4,4"/>
<!-- Node1 -->
<g id="node1" class="node">
<title>Node1</title>
<g id="a_node1"><a xlink:title=" ">
<polygon fill="#bfbfbf" stroke="black" points="921.5,-525.5 921.5,-555.5 1030.5,-555.5 1030.5,-525.5 921.5,-525.5"/>
<text text-anchor="start" x="929.5" y="-543.5" font-family="Helvetica,sans-Serif" font-size="10.00">libs/JSystem/JKernel</text>
<text text-anchor="middle" x="976" y="-532.5" font-family="Helvetica,sans-Serif" font-size="10.00">/JKRDvdArchive.cpp</text>
</a>
</g>
</g>
<!-- Node2 -->
<g id="node2" class="node">
<title>Node2</title>
<g id="a_node2"><a xlink:href="JKRDvdArchive_8h.html" target="_top" xlink:title=" ">
<polygon fill="white" stroke="black" points="100.5,-458.5 100.5,-488.5 263.5,-488.5 263.5,-458.5 100.5,-458.5"/>
<text text-anchor="start" x="108.5" y="-476.5" font-family="Helvetica,sans-Serif" font-size="10.00">JSystem/JKernel/JKRDvdArchive</text>
<text text-anchor="middle" x="182" y="-465.5" font-family="Helvetica,sans-Serif" font-size="10.00">/JKRDvdArchive.h</text>
</a>
</g>
</g>
<!-- Node1&#45;&gt;Node2 -->
<g id="edge1" class="edge">
<title>Node1&#45;&gt;Node2</title>
<path fill="none" stroke="midnightblue" d="M921.43,-535.03C787.33,-524.05 440.52,-495.66 273.95,-482.03"/>
<polygon fill="midnightblue" stroke="midnightblue" points="273.98,-478.52 263.73,-481.19 273.41,-485.5 273.98,-478.52"/>
</g>
<!-- Node11 -->
<g id="node11" class="node">
<title>Node11</title>
<g id="a_node11"><a xlink:href="global_8h.html" target="_top" xlink:title=" ">
<polygon fill="white" stroke="black" points="907,-196 907,-215 957,-215 957,-196 907,-196"/>
<text text-anchor="middle" x="932" y="-203" font-family="Helvetica,sans-Serif" font-size="10.00">global.h</text>
</a>
</g>
</g>
<!-- Node1&#45;&gt;Node11 -->
<g id="edge48" class="edge">
<title>Node1&#45;&gt;Node11</title>
<path fill="none" stroke="midnightblue" d="M985.78,-525.19C1000.84,-501.71 1028,-453.07 1028,-407.5 1028,-407.5 1028,-407.5 1028,-338.5 1028,-301.31 1030.3,-287.49 1009,-257 997.45,-240.46 978.56,-227.95 962.39,-219.52"/>
<polygon fill="midnightblue" stroke="midnightblue" points="963.78,-216.3 953.26,-215.03 960.69,-222.58 963.78,-216.3"/>
</g>
<!-- Node18 -->
<g id="node18" class="node">
<title>Node18</title>
<g id="a_node18"><a xlink:href="JKRDvdFile_8h.html" target="_top" xlink:title=" ">
<polygon fill="white" stroke="black" points="700,-257.5 700,-287.5 846,-287.5 846,-257.5 700,-257.5"/>
<text text-anchor="start" x="708" y="-275.5" font-family="Helvetica,sans-Serif" font-size="10.00">JSystem/JKernel/JKRDvdFile</text>
<text text-anchor="middle" x="773" y="-264.5" font-family="Helvetica,sans-Serif" font-size="10.00">/JKRDvdFile.h</text>
</a>
</g>
</g>
<!-- Node1&#45;&gt;Node18 -->
<g id="edge32" class="edge">
<title>Node1&#45;&gt;Node18</title>
<path fill="none" stroke="midnightblue" d="M965.09,-525.2C931.62,-481.35 830.27,-348.54 789.88,-295.62"/>
<polygon fill="midnightblue" stroke="midnightblue" points="792.57,-293.38 783.72,-287.55 787.01,-297.62 792.57,-293.38"/>
</g>
<!-- Node20 -->
<g id="node20" class="node">
<title>Node20</title>
<g id="a_node20"><a xlink:href="JKRDvdRipper_8h.html" target="_top" xlink:title=" ">
<polygon fill="white" stroke="black" points="419,-391.5 419,-421.5 577,-421.5 577,-391.5 419,-391.5"/>
<text text-anchor="start" x="427" y="-409.5" font-family="Helvetica,sans-Serif" font-size="10.00">JSystem/JKernel/JKRDvdRipper</text>
<text text-anchor="middle" x="498" y="-398.5" font-family="Helvetica,sans-Serif" font-size="10.00">/JKRDvdRipper.h</text>
</a>
</g>
</g>
<!-- Node1&#45;&gt;Node20 -->
<g id="edge39" class="edge">
<title>Node1&#45;&gt;Node20</title>
<path fill="none" stroke="midnightblue" d="M921.42,-525.57C882.72,-515.61 829.6,-501.76 783,-489 703.94,-467.35 612.93,-441.09 555.44,-424.34"/>
<polygon fill="midnightblue" stroke="midnightblue" points="556.39,-420.97 545.81,-421.53 554.43,-427.69 556.39,-420.97"/>
</g>
<!-- Node21 -->
<g id="node21" class="node">
<title>Node21</title>
<g id="a_node21"><a xlink:href="JKRExpHeap_8h.html" target="_top" xlink:title=" ">
<polygon fill="white" stroke="black" points="848,-324.5 848,-354.5 1000,-354.5 1000,-324.5 848,-324.5"/>
<text text-anchor="start" x="856" y="-342.5" font-family="Helvetica,sans-Serif" font-size="10.00">JSystem/JKernel/JKRExpHeap</text>
<text text-anchor="middle" x="924" y="-331.5" font-family="Helvetica,sans-Serif" font-size="10.00">/JKRExpHeap.h</text>
</a>
</g>
</g>
<!-- Node1&#45;&gt;Node21 -->
<g id="edge42" class="edge">
<title>Node1&#45;&gt;Node21</title>
<path fill="none" stroke="midnightblue" d="M972.26,-525.19C963.43,-491.41 941.23,-406.44 930.29,-364.57"/>
<polygon fill="midnightblue" stroke="midnightblue" points="933.62,-363.47 927.71,-354.68 926.85,-365.24 933.62,-363.47"/>
</g>
<!-- Node23 -->
<g id="node23" class="node">
<title>Node23</title>
<g id="a_node23"><a xlink:href="string_8h.html" target="_top" xlink:title=" ">
<polygon fill="white" stroke="black" points="1103.5,-397 1103.5,-416 1180.5,-416 1180.5,-397 1103.5,-397"/>
<text text-anchor="middle" x="1142" y="-404" font-family="Helvetica,sans-Serif" font-size="10.00">msl_c/string.h</text>
</a>
</g>
</g>
<!-- Node1&#45;&gt;Node23 -->
<g id="edge49" class="edge">
<title>Node1&#45;&gt;Node23</title>
<path fill="none" stroke="midnightblue" d="M994.89,-525.29C1008.16,-515.25 1026.26,-501.43 1042,-489 1070.78,-466.27 1103.66,-439.27 1123.62,-422.76"/>
<polygon fill="midnightblue" stroke="midnightblue" points="1126.11,-425.25 1131.58,-416.17 1121.64,-419.86 1126.11,-425.25"/>
</g>
<!-- Node24 -->
<g id="node24" class="node">
<title>Node24</title>
<g id="a_node24"><a xlink:title=" ">
<polygon fill="white" stroke="#bfbfbf" points="1094.5,-458.5 1094.5,-488.5 1257.5,-488.5 1257.5,-458.5 1094.5,-458.5"/>
<text text-anchor="start" x="1102.5" y="-476.5" font-family="Helvetica,sans-Serif" font-size="10.00">JSystem/JKernel/JKRDvdArchive</text>
<text text-anchor="middle" x="1176" y="-465.5" font-family="Helvetica,sans-Serif" font-size="10.00">/asm/func_802D7DB4.s</text>
</a>
</g>
</g>
<!-- Node1&#45;&gt;Node24 -->
<g id="edge51" class="edge">
<title>Node1&#45;&gt;Node24</title>
<path fill="none" stroke="midnightblue" d="M1019.4,-525.4C1049.8,-515.52 1090.61,-502.25 1122.94,-491.74"/>
<polygon fill="midnightblue" stroke="midnightblue" points="1124.26,-495 1132.69,-488.58 1122.1,-488.34 1124.26,-495"/>
</g>
<!-- Node25 -->
<g id="node25" class="node">
<title>Node25</title>
<g id="a_node25"><a xlink:title=" ">
<polygon fill="white" stroke="#bfbfbf" points="1275.5,-458.5 1275.5,-488.5 1438.5,-488.5 1438.5,-458.5 1275.5,-458.5"/>
<text text-anchor="start" x="1283.5" y="-476.5" font-family="Helvetica,sans-Serif" font-size="10.00">JSystem/JKernel/JKRDvdArchive</text>
<text text-anchor="middle" x="1357" y="-465.5" font-family="Helvetica,sans-Serif" font-size="10.00">/asm/func_802D8168.s</text>
</a>
</g>
</g>
<!-- Node1&#45;&gt;Node25 -->
<g id="edge52" class="edge">
<title>Node1&#45;&gt;Node25</title>
<path fill="none" stroke="midnightblue" d="M1030.59,-530.19C1091.71,-519.76 1191.77,-502.69 1265.02,-490.19"/>
<polygon fill="midnightblue" stroke="midnightblue" points="1265.9,-493.59 1275.17,-488.46 1264.72,-486.69 1265.9,-493.59"/>
</g>
<!-- Node3 -->
<g id="node3" class="node">
<title>Node3</title>
<g id="a_node3"><a xlink:href="JKRArchive_8h.html" target="_top" xlink:title=" ">
<polygon fill="white" stroke="black" points="109,-391.5 109,-421.5 255,-421.5 255,-391.5 109,-391.5"/>
<text text-anchor="start" x="117" y="-409.5" font-family="Helvetica,sans-Serif" font-size="10.00">JSystem/JKernel/JKRArchive</text>
<text text-anchor="middle" x="182" y="-398.5" font-family="Helvetica,sans-Serif" font-size="10.00">/JKRArchive.h</text>
</a>
</g>
</g>
<!-- Node2&#45;&gt;Node3 -->
<g id="edge2" class="edge">
<title>Node2&#45;&gt;Node3</title>
<path fill="none" stroke="midnightblue" d="M182,-458.4C182,-450.64 182,-440.81 182,-431.86"/>
<polygon fill="midnightblue" stroke="midnightblue" points="185.5,-431.58 182,-421.58 178.5,-431.58 185.5,-431.58"/>
</g>
<!-- Node7 -->
<g id="node7" class="node">
<title>Node7</title>
<g id="a_node7"><a xlink:href="types_8h.html" target="_top" xlink:title=" ">
<polygon fill="white" stroke="black" points="649.5,-0.5 649.5,-19.5 730.5,-19.5 730.5,-0.5 649.5,-0.5"/>
<text text-anchor="middle" x="690" y="-7.5" font-family="Helvetica,sans-Serif" font-size="10.00">dolphin/types.h</text>
</a>
</g>
</g>
<!-- Node2&#45;&gt;Node7 -->
<g id="edge31" class="edge">
<title>Node2&#45;&gt;Node7</title>
<path fill="none" stroke="midnightblue" d="M128.38,-458.41C74.69,-440.68 0,-404.51 0,-340.5 0,-340.5 0,-340.5 0,-137.5 0,-92.52 20.61,-77.71 60,-56 110.18,-28.34 498.4,-15.85 639.2,-12.2"/>
<polygon fill="midnightblue" stroke="midnightblue" points="639.39,-15.69 649.3,-11.94 639.22,-8.69 639.39,-15.69"/>
</g>
<!-- Node4 -->
<g id="node4" class="node">
<title>Node4</title>
<g id="a_node4"><a xlink:href="JKRDecomp_8h.html" target="_top" xlink:title=" ">
<polygon fill="white" stroke="black" points="321.5,-324.5 321.5,-354.5 470.5,-354.5 470.5,-324.5 321.5,-324.5"/>
<text text-anchor="start" x="329.5" y="-342.5" font-family="Helvetica,sans-Serif" font-size="10.00">JSystem/JKernel/JKRDecomp</text>
<text text-anchor="middle" x="396" y="-331.5" font-family="Helvetica,sans-Serif" font-size="10.00">/JKRDecomp.h</text>
</a>
</g>
</g>
<!-- Node3&#45;&gt;Node4 -->
<g id="edge3" class="edge">
<title>Node3&#45;&gt;Node4</title>
<path fill="none" stroke="midnightblue" d="M228.17,-391.48C260.83,-381.56 304.8,-368.2 339.54,-357.65"/>
<polygon fill="midnightblue" stroke="midnightblue" points="340.99,-360.87 349.54,-354.61 338.96,-354.17 340.99,-360.87"/>
</g>
<!-- Node6 -->
<g id="node6" class="node">
<title>Node6</title>
<g id="a_node6"><a xlink:href="SArc_8h.html" target="_top" xlink:title=" ">
<polygon fill="white" stroke="black" points="66.5,-196 66.5,-215 189.5,-215 189.5,-196 66.5,-196"/>
<text text-anchor="middle" x="128" y="-203" font-family="Helvetica,sans-Serif" font-size="10.00">JSystem/JKernel/SArc.h</text>
</a>
</g>
</g>
<!-- Node3&#45;&gt;Node6 -->
<g id="edge29" class="edge">
<title>Node3&#45;&gt;Node6</title>
<path fill="none" stroke="midnightblue" d="M168.51,-391.39C149.75,-370.69 116.66,-329.96 104,-288 97.37,-266.01 107.68,-240.63 116.78,-224.11"/>
<polygon fill="midnightblue" stroke="midnightblue" points="120.04,-225.46 122.12,-215.08 114.02,-221.9 120.04,-225.46"/>
</g>
<!-- Node3&#45;&gt;Node7 -->
<g id="edge30" class="edge">
<title>Node3&#45;&gt;Node7</title>
<path fill="none" stroke="midnightblue" d="M146.4,-391.37C103.76,-371.83 38,-332.17 38,-273.5 38,-273.5 38,-273.5 38,-137.5 38,-68.55 104.55,-77.67 170,-56 256.13,-27.48 525.69,-16.05 639.01,-12.42"/>
<polygon fill="midnightblue" stroke="midnightblue" points="639.27,-15.91 649.16,-12.1 639.05,-8.91 639.27,-15.91"/>
</g>
<!-- Node17 -->
<g id="node17" class="node">
<title>Node17</title>
<g id="a_node17"><a xlink:href="JKRFileLoader_8h.html" target="_top" xlink:title=" ">
<polygon fill="white" stroke="black" points="246,-190.5 246,-220.5 404,-220.5 404,-190.5 246,-190.5"/>
<text text-anchor="start" x="254" y="-208.5" font-family="Helvetica,sans-Serif" font-size="10.00">JSystem/JKernel/JKRFileLoader</text>
<text text-anchor="middle" x="325" y="-197.5" font-family="Helvetica,sans-Serif" font-size="10.00">/JKRFileLoader.h</text>
</a>
</g>
</g>
<!-- Node3&#45;&gt;Node17 -->
<g id="edge26" class="edge">
<title>Node3&#45;&gt;Node17</title>
<path fill="none" stroke="midnightblue" d="M200.99,-391.28C226.74,-371.05 272.54,-331.54 299,-288 309.76,-270.3 316.51,-247.7 320.43,-230.79"/>
<polygon fill="midnightblue" stroke="midnightblue" points="323.94,-231.12 322.61,-220.61 317.09,-229.65 323.94,-231.12"/>
</g>
<!-- Node5 -->
<g id="node5" class="node">
<title>Node5</title>
<g id="a_node5"><a xlink:href="JKRCompression_8h.html" target="_top" xlink:title=" ">
<polygon fill="white" stroke="black" points="112.5,-263 112.5,-282 289.5,-282 289.5,-263 112.5,-263"/>
<text text-anchor="middle" x="201" y="-270" font-family="Helvetica,sans-Serif" font-size="10.00">JSystem/JKernel/JKRCompression.h</text>
</a>
</g>
</g>
<!-- Node4&#45;&gt;Node5 -->
<g id="edge4" class="edge">
<title>Node4&#45;&gt;Node5</title>
<path fill="none" stroke="midnightblue" d="M353.69,-324.4C318.56,-312.69 269.19,-296.23 236.2,-285.23"/>
<polygon fill="midnightblue" stroke="midnightblue" points="237.11,-281.85 226.52,-282.01 234.9,-288.49 237.11,-281.85"/>
</g>
<!-- Node4&#45;&gt;Node7 -->
<g id="edge25" class="edge">
<title>Node4&#45;&gt;Node7</title>
<path fill="none" stroke="midnightblue" d="M402.6,-324.2C413,-300.34 432,-250.68 432,-206.5 432,-206.5 432,-206.5 432,-137.5 432,-99.74 428.04,-81.38 456,-56 482.27,-32.14 578.44,-20.05 639.01,-14.67"/>
<polygon fill="midnightblue" stroke="midnightblue" points="639.48,-18.14 649.14,-13.8 638.88,-11.17 639.48,-18.14"/>
</g>
<!-- Node8 -->
<g id="node8" class="node">
<title>Node8</title>
<g id="a_node8"><a xlink:href="JKRThread_8h.html" target="_top" xlink:title=" ">
<polygon fill="white" stroke="black" points="510.5,-257.5 510.5,-287.5 653.5,-287.5 653.5,-257.5 510.5,-257.5"/>
<text text-anchor="start" x="518.5" y="-275.5" font-family="Helvetica,sans-Serif" font-size="10.00">JSystem/JKernel/JKRThread</text>
<text text-anchor="middle" x="582" y="-264.5" font-family="Helvetica,sans-Serif" font-size="10.00">/JKRThread.h</text>
</a>
</g>
</g>
<!-- Node4&#45;&gt;Node8 -->
<g id="edge8" class="edge">
<title>Node4&#45;&gt;Node8</title>
<path fill="none" stroke="midnightblue" d="M436.36,-324.4C464.51,-314.56 502.26,-301.37 532.27,-290.88"/>
<polygon fill="midnightblue" stroke="midnightblue" points="533.43,-294.18 541.72,-287.58 531.12,-287.57 533.43,-294.18"/>
</g>
<!-- Node5&#45;&gt;Node6 -->
<g id="edge5" class="edge">
<title>Node5&#45;&gt;Node6</title>
<path fill="none" stroke="midnightblue" d="M191.15,-262.73C179.44,-252.31 159.68,-234.71 145.38,-221.97"/>
<polygon fill="midnightblue" stroke="midnightblue" points="147.49,-219.16 137.69,-215.13 142.83,-224.39 147.49,-219.16"/>
</g>
<!-- Node5&#45;&gt;Node7 -->
<g id="edge7" class="edge">
<title>Node5&#45;&gt;Node7</title>
<path fill="none" stroke="midnightblue" d="M203.55,-262.82C208.38,-247.24 219.96,-213.94 237,-190 287.7,-118.78 302.17,-93.79 381,-56 425.59,-34.62 563.53,-20.86 639.14,-14.72"/>
<polygon fill="midnightblue" stroke="midnightblue" points="639.69,-18.19 649.38,-13.9 639.14,-11.21 639.69,-18.19"/>
</g>
<!-- Node6&#45;&gt;Node7 -->
<g id="edge6" class="edge">
<title>Node6&#45;&gt;Node7</title>
<path fill="none" stroke="midnightblue" d="M129.46,-195.9C134.4,-169.67 153.15,-90.42 204,-56 239.46,-32 521.96,-17.84 639.24,-12.95"/>
<polygon fill="midnightblue" stroke="midnightblue" points="639.55,-16.44 649.4,-12.53 639.26,-9.45 639.55,-16.44"/>
</g>
<!-- Node8&#45;&gt;Node7 -->
<g id="edge13" class="edge">
<title>Node8&#45;&gt;Node7</title>
<path fill="none" stroke="midnightblue" d="M573.83,-257.4C552.94,-219.31 502.83,-113.34 556,-56 577.4,-32.92 610.99,-21.67 639.18,-16.19"/>
<polygon fill="midnightblue" stroke="midnightblue" points="640.05,-19.59 649.29,-14.42 638.84,-12.7 640.05,-19.59"/>
</g>
<!-- Node9 -->
<g id="node9" class="node">
<title>Node9</title>
<g id="a_node9"><a xlink:href="JKRDisposer_8h.html" target="_top" xlink:title=" ">
<polygon fill="white" stroke="black" points="547.5,-123.5 547.5,-153.5 698.5,-153.5 698.5,-123.5 547.5,-123.5"/>
<text text-anchor="start" x="555.5" y="-141.5" font-family="Helvetica,sans-Serif" font-size="10.00">JSystem/JKernel/JKRDisposer</text>
<text text-anchor="middle" x="623" y="-130.5" font-family="Helvetica,sans-Serif" font-size="10.00">/JKRDisposer.h</text>
</a>
</g>
</g>
<!-- Node8&#45;&gt;Node9 -->
<g id="edge9" class="edge">
<title>Node8&#45;&gt;Node9</title>
<path fill="none" stroke="midnightblue" d="M586.39,-257.37C593.39,-234.85 607.15,-190.53 615.66,-163.12"/>
<polygon fill="midnightblue" stroke="midnightblue" points="619.02,-164.11 618.64,-153.52 612.34,-162.04 619.02,-164.11"/>
</g>
<!-- Node8&#45;&gt;Node11 -->
<g id="edge14" class="edge">
<title>Node8&#45;&gt;Node11</title>
<path fill="none" stroke="midnightblue" d="M653.67,-258.19C727.66,-244.45 840.05,-223.58 896.71,-213.05"/>
<polygon fill="midnightblue" stroke="midnightblue" points="897.43,-216.48 906.62,-211.21 896.15,-209.6 897.43,-216.48"/>
</g>
<!-- Node9&#45;&gt;Node7 -->
<g id="edge12" class="edge">
<title>Node9&#45;&gt;Node7</title>
<path fill="none" stroke="midnightblue" d="M600.8,-123.4C578.09,-107.18 548.32,-79.73 565,-56 581.76,-32.16 612.43,-20.89 639.19,-15.59"/>
<polygon fill="midnightblue" stroke="midnightblue" points="639.97,-19 649.22,-13.84 638.77,-12.11 639.97,-19"/>
</g>
<!-- Node10 -->
<g id="node10" class="node">
<title>Node10</title>
<g id="a_node10"><a xlink:href="JSUList_8h.html" target="_top" xlink:title=" ">
<polygon fill="white" stroke="black" points="574,-56.5 574,-86.5 710,-86.5 710,-56.5 574,-56.5"/>
<text text-anchor="start" x="582" y="-74.5" font-family="Helvetica,sans-Serif" font-size="10.00">JSystem/JSupport/JSUList</text>
<text text-anchor="middle" x="642" y="-63.5" font-family="Helvetica,sans-Serif" font-size="10.00">/JSUList.h</text>
</a>
</g>
</g>
<!-- Node9&#45;&gt;Node10 -->
<g id="edge10" class="edge">
<title>Node9&#45;&gt;Node10</title>
<path fill="none" stroke="midnightblue" d="M627.12,-123.4C629.44,-115.47 632.39,-105.38 635.05,-96.27"/>
<polygon fill="midnightblue" stroke="midnightblue" points="638.44,-97.16 637.89,-86.58 631.72,-95.19 638.44,-97.16"/>
</g>
<!-- Node10&#45;&gt;Node7 -->
<g id="edge11" class="edge">
<title>Node10&#45;&gt;Node7</title>
<path fill="none" stroke="midnightblue" d="M653.38,-56.4C660.35,-47.75 669.31,-36.64 676.63,-27.58"/>
<polygon fill="midnightblue" stroke="midnightblue" points="679.46,-29.64 683.02,-19.66 674.01,-25.24 679.46,-29.64"/>
</g>
<!-- Node11&#45;&gt;Node7 -->
<g id="edge15" class="edge">
<title>Node11&#45;&gt;Node7</title>
<path fill="none" stroke="midnightblue" d="M932.52,-195.93C933.57,-170.48 932.96,-94.68 892,-56 870.51,-35.71 793.21,-22.91 740.71,-16.36"/>
<polygon fill="midnightblue" stroke="midnightblue" points="740.91,-12.86 730.56,-15.13 740.07,-19.81 740.91,-12.86"/>
</g>
<!-- Node12 -->
<g id="node12" class="node">
<title>Node12</title>
<g id="a_node12"><a xlink:href="AR_8h.html" target="_top" xlink:title=" ">
<polygon fill="white" stroke="black" points="958.5,-62 958.5,-81 1007.5,-81 1007.5,-62 958.5,-62"/>
<text text-anchor="middle" x="983" y="-69" font-family="Helvetica,sans-Serif" font-size="10.00">ar/AR.h</text>
</a>
</g>
</g>
<!-- Node11&#45;&gt;Node12 -->
<g id="edge16" class="edge">
<title>Node11&#45;&gt;Node12</title>
<path fill="none" stroke="midnightblue" d="M935.35,-195.84C943.56,-174.58 964.86,-119.46 975.99,-90.65"/>
<polygon fill="midnightblue" stroke="midnightblue" points="979.37,-91.61 979.71,-81.02 972.84,-89.09 979.37,-91.61"/>
</g>
<!-- Node13 -->
<g id="node13" class="node">
<title>Node13</title>
<g id="a_node13"><a xlink:href="ARQ_8h.html" target="_top" xlink:title=" ">
<polygon fill="white" stroke="black" points="1026,-62 1026,-81 1082,-81 1082,-62 1026,-62"/>
<text text-anchor="middle" x="1054" y="-69" font-family="Helvetica,sans-Serif" font-size="10.00">ar/ARQ.h</text>
</a>
</g>
</g>
<!-- Node11&#45;&gt;Node13 -->
<g id="edge18" class="edge">
<title>Node11&#45;&gt;Node13</title>
<path fill="none" stroke="midnightblue" d="M940,-195.84C960.17,-174.02 1013.31,-116.53 1039.28,-88.42"/>
<polygon fill="midnightblue" stroke="midnightblue" points="1041.91,-90.74 1046.12,-81.02 1036.77,-85.99 1041.91,-90.74"/>
</g>
<!-- Node14 -->
<g id="node14" class="node">
<title>Node14</title>
<g id="a_node14"><a xlink:href="mwcc_8h.html" target="_top" xlink:title=" ">
<polygon fill="white" stroke="black" points="1034,-129 1034,-148 1084,-148 1084,-129 1034,-129"/>
<text text-anchor="middle" x="1059" y="-136" font-family="Helvetica,sans-Serif" font-size="10.00">mwcc.h</text>
</a>
</g>
</g>
<!-- Node11&#45;&gt;Node14 -->
<g id="edge20" class="edge">
<title>Node11&#45;&gt;Node14</title>
<path fill="none" stroke="midnightblue" d="M948.86,-195.87C970.4,-184.84 1007.9,-165.66 1033.08,-152.77"/>
<polygon fill="midnightblue" stroke="midnightblue" points="1034.76,-155.84 1042.07,-148.17 1031.57,-149.61 1034.76,-155.84"/>
</g>
<!-- Node15 -->
<g id="node15" class="node">
<title>Node15</title>
<g id="a_node15"><a xlink:href="OS_8h.html" target="_top" xlink:title=" ">
<polygon fill="white" stroke="black" points="850,-129 850,-148 902,-148 902,-129 850,-129"/>
<text text-anchor="middle" x="876" y="-136" font-family="Helvetica,sans-Serif" font-size="10.00">os/OS.h</text>
</a>
</g>
</g>
<!-- Node11&#45;&gt;Node15 -->
<g id="edge21" class="edge">
<title>Node11&#45;&gt;Node15</title>
<path fill="none" stroke="midnightblue" d="M924.45,-195.73C915.72,-185.6 901.15,-168.69 890.26,-156.06"/>
<polygon fill="midnightblue" stroke="midnightblue" points="892.61,-153.42 883.43,-148.13 887.31,-157.99 892.61,-153.42"/>
</g>
<!-- Node12&#45;&gt;Node7 -->
<g id="edge17" class="edge">
<title>Node12&#45;&gt;Node7</title>
<path fill="none" stroke="midnightblue" d="M962.18,-61.97C956.36,-59.8 949.99,-57.63 944,-56 874.52,-37.1 792.13,-24.19 740.44,-17.2"/>
<polygon fill="midnightblue" stroke="midnightblue" points="740.9,-13.73 730.53,-15.88 739.98,-20.67 740.9,-13.73"/>
</g>
<!-- Node13&#45;&gt;Node7 -->
<g id="edge19" class="edge">
<title>Node13&#45;&gt;Node7</title>
<path fill="none" stroke="midnightblue" d="M1034.7,-61.94C1029.08,-59.72 1022.87,-57.53 1017,-56 921.27,-31.03 805.94,-19.27 740.99,-14.26"/>
<polygon fill="midnightblue" stroke="midnightblue" points="740.85,-10.75 730.62,-13.49 740.33,-17.73 740.85,-10.75"/>
</g>
<!-- Node15&#45;&gt;Node7 -->
<g id="edge22" class="edge">
<title>Node15&#45;&gt;Node7</title>
<path fill="none" stroke="midnightblue" d="M878.75,-128.72C883.27,-112.39 890.16,-77.08 873,-56 856.46,-35.69 789.03,-23.18 740.83,-16.66"/>
<polygon fill="midnightblue" stroke="midnightblue" points="741.23,-13.18 730.86,-15.36 740.33,-20.13 741.23,-13.18"/>
</g>
<!-- Node16 -->
<g id="node16" class="node">
<title>Node16</title>
<g id="a_node16"><a xlink:href="dvd_8h.html" target="_top" xlink:title=" ">
<polygon fill="white" stroke="black" points="804.5,-62 804.5,-81 863.5,-81 863.5,-62 804.5,-62"/>
<text text-anchor="middle" x="834" y="-69" font-family="Helvetica,sans-Serif" font-size="10.00">dvd/dvd.h</text>
</a>
</g>
</g>
<!-- Node15&#45;&gt;Node16 -->
<g id="edge23" class="edge">
<title>Node15&#45;&gt;Node16</title>
<path fill="none" stroke="midnightblue" d="M870.34,-128.73C863.91,-118.79 853.28,-102.34 845.17,-89.79"/>
<polygon fill="midnightblue" stroke="midnightblue" points="847.94,-87.63 839.57,-81.13 842.06,-91.43 847.94,-87.63"/>
</g>
<!-- Node16&#45;&gt;Node7 -->
<g id="edge24" class="edge">
<title>Node16&#45;&gt;Node7</title>
<path fill="none" stroke="midnightblue" d="M813.37,-61.98C788.88,-51.86 747.85,-34.9 719.89,-23.35"/>
<polygon fill="midnightblue" stroke="midnightblue" points="721.17,-20.09 710.59,-19.51 718.5,-26.56 721.17,-20.09"/>
</g>
<!-- Node17&#45;&gt;Node7 -->
<g id="edge28" class="edge">
<title>Node17&#45;&gt;Node7</title>
<path fill="none" stroke="midnightblue" d="M329.44,-190.23C339.65,-159.96 367.87,-89.39 418,-56 453.43,-32.4 570.93,-19.87 639.36,-14.42"/>
<polygon fill="midnightblue" stroke="midnightblue" points="639.79,-17.9 649.49,-13.64 639.25,-10.92 639.79,-17.9"/>
</g>
<!-- Node17&#45;&gt;Node9 -->
<g id="edge27" class="edge">
<title>Node17&#45;&gt;Node9</title>
<path fill="none" stroke="midnightblue" d="M389.29,-190.48C436.12,-180.26 499.65,-166.41 548.65,-155.72"/>
<polygon fill="midnightblue" stroke="midnightblue" points="549.54,-159.11 558.56,-153.55 548.05,-152.27 549.54,-159.11"/>
</g>
<!-- Node18&#45;&gt;Node7 -->
<g id="edge36" class="edge">
<title>Node18&#45;&gt;Node7</title>
<path fill="none" stroke="midnightblue" d="M773.36,-257.47C773.7,-221.71 770.96,-125.08 735,-56 728.98,-44.44 718.96,-33.99 709.9,-26.07"/>
<polygon fill="midnightblue" stroke="midnightblue" points="711.94,-23.21 702,-19.55 707.49,-28.61 711.94,-23.21"/>
</g>
<!-- Node18&#45;&gt;Node11 -->
<g id="edge38" class="edge">
<title>Node18&#45;&gt;Node11</title>
<path fill="none" stroke="midnightblue" d="M807.5,-257.4C835.65,-245.89 875.01,-229.8 901.89,-218.81"/>
<polygon fill="midnightblue" stroke="midnightblue" points="903.26,-222.03 911.19,-215.01 900.61,-215.55 903.26,-222.03"/>
</g>
<!-- Node18&#45;&gt;Node16 -->
<g id="edge37" class="edge">
<title>Node18&#45;&gt;Node16</title>
<path fill="none" stroke="midnightblue" d="M777.39,-257.19C788.22,-221.83 816.25,-130.39 828.33,-91"/>
<polygon fill="midnightblue" stroke="midnightblue" points="831.7,-91.95 831.28,-81.36 825.01,-89.9 831.7,-91.95"/>
</g>
<!-- Node19 -->
<g id="node19" class="node">
<title>Node19</title>
<g id="a_node19"><a xlink:href="JKRFile_8h.html" target="_top" xlink:title=" ">
<polygon fill="white" stroke="black" points="617,-190.5 617,-220.5 745,-220.5 745,-190.5 617,-190.5"/>
<text text-anchor="start" x="625" y="-208.5" font-family="Helvetica,sans-Serif" font-size="10.00">JSystem/JKernel/JKRFile</text>
<text text-anchor="middle" x="681" y="-197.5" font-family="Helvetica,sans-Serif" font-size="10.00">/JKRFile.h</text>
</a>
</g>
</g>
<!-- Node18&#45;&gt;Node19 -->
<g id="edge33" class="edge">
<title>Node18&#45;&gt;Node19</title>
<path fill="none" stroke="midnightblue" d="M753.04,-257.4C740.26,-248.37 723.48,-236.51 709.33,-226.52"/>
<polygon fill="midnightblue" stroke="midnightblue" points="711.11,-223.49 700.92,-220.58 707.07,-229.21 711.11,-223.49"/>
</g>
<!-- Node19&#45;&gt;Node7 -->
<g id="edge35" class="edge">
<title>Node19&#45;&gt;Node7</title>
<path fill="none" stroke="midnightblue" d="M690.11,-190.48C696.09,-180.65 703.6,-166.99 708,-154 722.07,-112.49 731.37,-98.05 719,-56 715.99,-45.76 709.85,-35.66 703.99,-27.63"/>
<polygon fill="midnightblue" stroke="midnightblue" points="706.59,-25.27 697.67,-19.54 701.07,-29.58 706.59,-25.27"/>
</g>
<!-- Node19&#45;&gt;Node9 -->
<g id="edge34" class="edge">
<title>Node19&#45;&gt;Node9</title>
<path fill="none" stroke="midnightblue" d="M668.41,-190.4C660.81,-181.88 650.97,-170.85 642.39,-161.23"/>
<polygon fill="midnightblue" stroke="midnightblue" points="644.83,-158.71 635.56,-153.58 639.61,-163.37 644.83,-158.71"/>
</g>
<!-- Node20&#45;&gt;Node4 -->
<g id="edge40" class="edge">
<title>Node20&#45;&gt;Node4</title>
<path fill="none" stroke="midnightblue" d="M475.87,-391.4C461.43,-382.2 442.4,-370.07 426.53,-359.95"/>
<polygon fill="midnightblue" stroke="midnightblue" points="428.4,-357 418.09,-354.58 424.64,-362.9 428.4,-357"/>
</g>
<!-- Node20&#45;&gt;Node7 -->
<g id="edge41" class="edge">
<title>Node20&#45;&gt;Node7</title>
<path fill="none" stroke="midnightblue" d="M494.32,-391.27C481.75,-339.02 445.93,-155.63 534,-56 560.25,-26.3 604.73,-15.65 639.5,-12.09"/>
<polygon fill="midnightblue" stroke="midnightblue" points="639.82,-15.57 649.48,-11.23 639.22,-8.6 639.82,-15.57"/>
</g>
<!-- Node21&#45;&gt;Node7 -->
<g id="edge47" class="edge">
<title>Node21&#45;&gt;Node7</title>
<path fill="none" stroke="midnightblue" d="M1000.2,-326.33C1065.81,-311 1150,-277.5 1150,-206.5 1150,-206.5 1150,-206.5 1150,-137.5 1150,-96.95 1142.33,-79.09 1109,-56 1050.54,-15.5 839.22,-10.56 740.93,-10.53"/>
<polygon fill="midnightblue" stroke="midnightblue" points="740.64,-7.03 730.65,-10.54 740.65,-14.03 740.64,-7.03"/>
</g>
<!-- Node22 -->
<g id="node22" class="node">
<title>Node22</title>
<g id="a_node22"><a xlink:href="JKRHeap_8h.html" target="_top" xlink:title=" ">
<polygon fill="white" stroke="black" points="864,-257.5 864,-287.5 1000,-287.5 1000,-257.5 864,-257.5"/>
<text text-anchor="start" x="872" y="-275.5" font-family="Helvetica,sans-Serif" font-size="10.00">JSystem/JKernel/JKRHeap</text>
<text text-anchor="middle" x="932" y="-264.5" font-family="Helvetica,sans-Serif" font-size="10.00">/JKRHeap.h</text>
</a>
</g>
</g>
<!-- Node21&#45;&gt;Node22 -->
<g id="edge43" class="edge">
<title>Node21&#45;&gt;Node22</title>
<path fill="none" stroke="midnightblue" d="M925.74,-324.4C926.7,-316.56 927.93,-306.6 929.04,-297.57"/>
<polygon fill="midnightblue" stroke="midnightblue" points="932.52,-297.93 930.27,-287.58 925.57,-297.07 932.52,-297.93"/>
</g>
<!-- Node22&#45;&gt;Node7 -->
<g id="edge45" class="edge">
<title>Node22&#45;&gt;Node7</title>
<path fill="none" stroke="midnightblue" d="M967.35,-257.45C1006.28,-239.82 1066.82,-205.52 1093,-154 1101.18,-137.9 1105.62,-71.87 1091,-56 1067.65,-30.66 843.35,-17.69 740.76,-13.04"/>
<polygon fill="midnightblue" stroke="midnightblue" points="740.78,-9.54 730.63,-12.59 740.47,-16.53 740.78,-9.54"/>
</g>
<!-- Node22&#45;&gt;Node9 -->
<g id="edge44" class="edge">
<title>Node22&#45;&gt;Node9</title>
<path fill="none" stroke="midnightblue" d="M902.64,-257.39C867.55,-240.67 806.94,-212.3 754,-190 726.73,-178.51 695.87,-166.57 670.95,-157.18"/>
<polygon fill="midnightblue" stroke="midnightblue" points="671.96,-153.82 661.37,-153.58 669.5,-160.37 671.96,-153.82"/>
</g>
<!-- Node22&#45;&gt;Node11 -->
<g id="edge46" class="edge">
<title>Node22&#45;&gt;Node11</title>
<path fill="none" stroke="midnightblue" d="M932,-257.4C932,-248.06 932,-235.71 932,-225.52"/>
<polygon fill="midnightblue" stroke="midnightblue" points="935.5,-225.19 932,-215.19 928.5,-225.19 935.5,-225.19"/>
</g>
<!-- Node23&#45;&gt;Node7 -->
<g id="edge50" class="edge">
<title>Node23&#45;&gt;Node7</title>
<path fill="none" stroke="midnightblue" d="M1147.28,-396.9C1159.36,-376.37 1188,-322.52 1188,-273.5 1188,-273.5 1188,-273.5 1188,-137.5 1188,-95 1174,-78.58 1138,-56 1072.94,-15.18 843.8,-10.51 740.81,-10.55"/>
<polygon fill="midnightblue" stroke="midnightblue" points="740.65,-7.05 730.65,-10.57 740.66,-14.05 740.65,-7.05"/>
</g>
</g>
</svg>
