<?xml version="1.0" encoding="UTF-8" standalone="no"?>
<!DOCTYPE svg PUBLIC "-//W3C//DTD SVG 1.1//EN"
 "http://www.w3.org/Graphics/SVG/1.1/DTD/svg11.dtd">
<!-- Generated by graphviz version 2.44.0 ()
 -->
<!-- Title: include/JSystem/JKernel/JKRDvdFile/JKRDvdFile.h Pages: 1 -->
<!--zoomable 296 -->
<svg id="main" version="1.1" xmlns="http://www.w3.org/2000/svg" xmlns:xlink="http://www.w3.org/1999/xlink" xml:space="preserve" onload="init(evt)">
<style type="text/css"><![CDATA[
.edge:hover path { stroke: red; }
.edge:hover polygon { stroke: red; fill: red; }
]]></style>
<script type="text/javascript"><![CDATA[
var edges = document.getElementsByTagName('g');
if (edges && edges.length) {
  for (var i=0;i<edges.length;i++) {
    if (edges[i].id.substr(0,4)=='edge') {
      edges[i].setAttribute('class','edge');
    }
  }
}
]]></script>
        <defs>
                <circle id="rim" cx="0" cy="0" r="7"/>
                <circle id="rim2" cx="0" cy="0" r="3.5"/>
                <g id="zoomPlus">
                        <use xlink:href="#rim" fill="#404040">
                                <set attributeName="fill" to="#808080" begin="zoomplus.mouseover" end="zoomplus.mouseout"/>
                        </use>
                        <path d="M-4,0h8M0,-4v8" fill="none" stroke="white" stroke-width="1.5" pointer-events="none"/>
                </g>
                <g id="zoomMin">
                        <use xlink:href="#rim" fill="#404040">
                                <set attributeName="fill" to="#808080" begin="zoomminus.mouseover" end="zoomminus.mouseout"/>
                        </use>
                        <path d="M-4,0h8" fill="none" stroke="white" stroke-width="1.5" pointer-events="none"/>
                </g>
                <g id="dirArrow">
                        <path fill="none" stroke="white" stroke-width="1.5" d="M0,-3.0v7 M-2.5,-0.5L0,-3.0L2.5,-0.5"/>
                </g>
               <g id="resetDef">
                       <use xlink:href="#rim2" fill="#404040">
                               <set attributeName="fill" to="#808080" begin="reset.mouseover" end="reset.mouseout"/>
                       </use>
               </g>
        </defs>

<script type="text/javascript">
var viewWidth = 520;
var viewHeight = 296;
var sectionId = 'dynsection-0';
</script>
<script xlink:href="svgpan.js"/>
<svg id="graph" class="graph">
<g id="viewport">
<title>include/JSystem/JKernel/JKRDvdFile/JKRDvdFile.h</title>
<polygon fill="white" stroke="transparent" points="-4,4 -4,-292 516.03,-292 516.03,4 -4,4"/>
<!-- Node1 -->
<g id="node1" class="node">
<title>Node1</title>
<g id="a_node1"><a xlink:title=" ">
<polygon fill="#bfbfbf" stroke="black" points="160.03,-257.5 160.03,-287.5 294.03,-287.5 294.03,-257.5 160.03,-257.5"/>
<text text-anchor="start" x="168.03" y="-275.5" font-family="Helvetica,sans-Serif" font-size="10.00">include/JSystem/JKernel</text>
<text text-anchor="middle" x="227.03" y="-264.5" font-family="Helvetica,sans-Serif" font-size="10.00">/JKRDvdFile/JKRDvdFile.h</text>
</a>
</g>
</g>
<!-- Node2 -->
<g id="node2" class="node">
<title>Node2</title>
<g id="a_node2"><a xlink:href="JKRFile_8h.html" target="_top" xlink:title=" ">
<polygon fill="white" stroke="black" points="25.03,-190.5 25.03,-220.5 153.03,-220.5 153.03,-190.5 25.03,-190.5"/>
<text text-anchor="start" x="33.03" y="-208.5" font-family="Helvetica,sans-Serif" font-size="10.00">JSystem/JKernel/JKRFile</text>
<text text-anchor="middle" x="89.03" y="-197.5" font-family="Helvetica,sans-Serif" font-size="10.00">/JKRFile.h</text>
</a>
</g>
</g>
<!-- Node1&#45;&gt;Node2 -->
<g id="edge1" class="edge">
<title>Node1&#45;&gt;Node2</title>
<path fill="none" stroke="midnightblue" d="M197.08,-257.4C176.83,-247.86 149.88,-235.16 127.96,-224.84"/>
<polygon fill="midnightblue" stroke="midnightblue" points="129.45,-221.67 118.91,-220.58 126.47,-228 129.45,-221.67"/>
</g>
<!-- Node5 -->
<g id="node5" class="node">
<title>Node5</title>
<g id="a_node5"><a xlink:href="types_8h.html" target="_top" xlink:title=" ">
<polygon fill="white" stroke="black" points="221.53,-0.5 221.53,-19.5 302.53,-19.5 302.53,-0.5 221.53,-0.5"/>
<text text-anchor="middle" x="262.03" y="-7.5" font-family="Helvetica,sans-Serif" font-size="10.00">dolphin/types.h</text>
</a>
</g>
</g>
<!-- Node1&#45;&gt;Node5 -->
<g id="edge7" class="edge">
<title>Node1&#45;&gt;Node5</title>
<path fill="none" stroke="midnightblue" d="M223.29,-257.29C214.73,-221.9 196.35,-127.52 223.03,-56 227.2,-44.81 235.54,-34.56 243.45,-26.68"/>
<polygon fill="midnightblue" stroke="midnightblue" points="246.09,-29 251.04,-19.63 241.32,-23.87 246.09,-29"/>
</g>
<!-- Node6 -->
<g id="node6" class="node">
<title>Node6</title>
<g id="a_node6"><a xlink:href="dvd_8h.html" target="_top" xlink:title=" ">
<polygon fill="white" stroke="black" points="232.53,-62 232.53,-81 291.53,-81 291.53,-62 232.53,-62"/>
<text text-anchor="middle" x="262.03" y="-69" font-family="Helvetica,sans-Serif" font-size="10.00">dvd/dvd.h</text>
</a>
</g>
</g>
<!-- Node1&#45;&gt;Node6 -->
<g id="edge8" class="edge">
<title>Node1&#45;&gt;Node6</title>
<path fill="none" stroke="midnightblue" d="M229.54,-257.19C235.75,-221.91 251.77,-130.78 258.73,-91.25"/>
<polygon fill="midnightblue" stroke="midnightblue" points="262.18,-91.82 260.47,-81.36 255.29,-90.6 262.18,-91.82"/>
</g>
<!-- Node7 -->
<g id="node7" class="node">
<title>Node7</title>
<g id="a_node7"><a xlink:href="global_8h.html" target="_top" xlink:title=" ">
<polygon fill="white" stroke="black" points="352.03,-196 352.03,-215 402.03,-215 402.03,-196 352.03,-196"/>
<text text-anchor="middle" x="377.03" y="-203" font-family="Helvetica,sans-Serif" font-size="10.00">global.h</text>
</a>
</g>
</g>
<!-- Node1&#45;&gt;Node7 -->
<g id="edge10" class="edge">
<title>Node1&#45;&gt;Node7</title>
<path fill="none" stroke="midnightblue" d="M259.57,-257.4C285.89,-245.99 322.61,-230.08 347.95,-219.1"/>
<polygon fill="midnightblue" stroke="midnightblue" points="349.61,-222.19 357.39,-215.01 346.83,-215.77 349.61,-222.19"/>
</g>
<!-- Node3 -->
<g id="node3" class="node">
<title>Node3</title>
<g id="a_node3"><a xlink:href="JKRDisposer_8h.html" target="_top" xlink:title=" ">
<polygon fill="white" stroke="black" points="13.53,-123.5 13.53,-153.5 164.53,-153.5 164.53,-123.5 13.53,-123.5"/>
<text text-anchor="start" x="21.53" y="-141.5" font-family="Helvetica,sans-Serif" font-size="10.00">JSystem/JKernel/JKRDisposer</text>
<text text-anchor="middle" x="89.03" y="-130.5" font-family="Helvetica,sans-Serif" font-size="10.00">/JKRDisposer.h</text>
</a>
</g>
</g>
<!-- Node2&#45;&gt;Node3 -->
<g id="edge2" class="edge">
<title>Node2&#45;&gt;Node3</title>
<path fill="none" stroke="midnightblue" d="M89.03,-190.4C89.03,-182.64 89.03,-172.81 89.03,-163.86"/>
<polygon fill="midnightblue" stroke="midnightblue" points="92.53,-163.58 89.03,-153.58 85.53,-163.58 92.53,-163.58"/>
</g>
<!-- Node2&#45;&gt;Node5 -->
<g id="edge6" class="edge">
<title>Node2&#45;&gt;Node5</title>
<path fill="none" stroke="midnightblue" d="M47.62,-190.4C30.99,-182.46 13.53,-170.71 4.03,-154 -10.03,-129.3 18.15,-59.59 22.03,-56 48.92,-31.11 148.93,-19.31 211.05,-14.28"/>
<polygon fill="midnightblue" stroke="midnightblue" points="211.36,-17.77 221.05,-13.5 210.81,-10.79 211.36,-17.77"/>
</g>
<!-- Node4 -->
<g id="node4" class="node">
<title>Node4</title>
<g id="a_node4"><a xlink:href="JSUList_8h.html" target="_top" xlink:title=" ">
<polygon fill="white" stroke="black" points="40.03,-56.5 40.03,-86.5 176.03,-86.5 176.03,-56.5 40.03,-56.5"/>
<text text-anchor="start" x="48.03" y="-74.5" font-family="Helvetica,sans-Serif" font-size="10.00">JSystem/JSupport/JSUList</text>
<text text-anchor="middle" x="108.03" y="-63.5" font-family="Helvetica,sans-Serif" font-size="10.00">/JSUList.h</text>
</a>
</g>
</g>
<!-- Node3&#45;&gt;Node4 -->
<g id="edge3" class="edge">
<title>Node3&#45;&gt;Node4</title>
<path fill="none" stroke="midnightblue" d="M93.15,-123.4C95.46,-115.47 98.41,-105.38 101.08,-96.27"/>
<polygon fill="midnightblue" stroke="midnightblue" points="104.46,-97.16 103.91,-86.58 97.75,-95.19 104.46,-97.16"/>
</g>
<!-- Node3&#45;&gt;Node5 -->
<g id="edge5" class="edge">
<title>Node3&#45;&gt;Node5</title>
<path fill="none" stroke="midnightblue" d="M66.6,-123.21C43.25,-106.58 12.47,-78.52 31.03,-56 53.38,-28.87 150.02,-17.88 211,-13.59"/>
<polygon fill="midnightblue" stroke="midnightblue" points="211.46,-17.07 221.21,-12.91 211,-10.09 211.46,-17.07"/>
</g>
<!-- Node4&#45;&gt;Node5 -->
<g id="edge4" class="edge">
<title>Node4&#45;&gt;Node5</title>
<path fill="none" stroke="midnightblue" d="M144.52,-56.4C170.59,-46.33 205.32,-32.91 230.25,-23.28"/>
<polygon fill="midnightblue" stroke="midnightblue" points="231.55,-26.53 239.62,-19.66 229.03,-20 231.55,-26.53"/>
</g>
<!-- Node6&#45;&gt;Node5 -->
<g id="edge9" class="edge">
<title>Node6&#45;&gt;Node5</title>
<path fill="none" stroke="midnightblue" d="M262.03,-61.98C262.03,-53.58 262.03,-40.48 262.03,-29.66"/>
<polygon fill="midnightblue" stroke="midnightblue" points="265.53,-29.51 262.03,-19.51 258.53,-29.51 265.53,-29.51"/>
</g>
<!-- Node7&#45;&gt;Node5 -->
<g id="edge11" class="edge">
<title>Node7&#45;&gt;Node5</title>
<path fill="none" stroke="midnightblue" d="M375.2,-195.69C369.83,-171.44 352.3,-102.42 318.03,-56 309.14,-43.97 296.29,-33.33 285.14,-25.42"/>
<polygon fill="midnightblue" stroke="midnightblue" points="286.91,-22.4 276.67,-19.7 282.99,-28.2 286.91,-22.4"/>
</g>
<!-- Node8 -->
<g id="node8" class="node">
<title>Node8</title>
<g id="a_node8"><a xlink:href="AR_8h.html" target="_top" xlink:title=" ">
<polygon fill="white" stroke="black" points="386.53,-62 386.53,-81 435.53,-81 435.53,-62 386.53,-62"/>
<text text-anchor="middle" x="411.03" y="-69" font-family="Helvetica,sans-Serif" font-size="10.00">ar/AR.h</text>
</a>
</g>
</g>
<!-- Node7&#45;&gt;Node8 -->
<g id="edge12" class="edge">
<title>Node7&#45;&gt;Node8</title>
<path fill="none" stroke="midnightblue" d="M379.26,-195.84C384.71,-174.67 398.8,-119.95 406.25,-91.03"/>
<polygon fill="midnightblue" stroke="midnightblue" points="409.73,-91.58 408.83,-81.02 402.95,-89.83 409.73,-91.58"/>
</g>
<!-- Node9 -->
<g id="node9" class="node">
<title>Node9</title>
<g id="a_node9"><a xlink:href="ARQ_8h.html" target="_top" xlink:title=" ">
<polygon fill="white" stroke="black" points="454.03,-62 454.03,-81 510.03,-81 510.03,-62 454.03,-62"/>
<text text-anchor="middle" x="482.03" y="-69" font-family="Helvetica,sans-Serif" font-size="10.00">ar/ARQ.h</text>
</a>
</g>
</g>
<!-- Node7&#45;&gt;Node9 -->
<g id="edge14" class="edge">
<title>Node7&#45;&gt;Node9</title>
<path fill="none" stroke="midnightblue" d="M383.91,-195.84C401.12,-174.21 446.22,-117.51 468.78,-89.15"/>
<polygon fill="midnightblue" stroke="midnightblue" points="471.76,-91.03 475.25,-81.02 466.28,-86.67 471.76,-91.03"/>
</g>
<!-- Node10 -->
<g id="node10" class="node">
<title>Node10</title>
<g id="a_node10"><a xlink:href="mwcc_8h.html" target="_top" xlink:title=" ">
<polygon fill="white" stroke="black" points="462.03,-129 462.03,-148 512.03,-148 512.03,-129 462.03,-129"/>
<text text-anchor="middle" x="487.03" y="-136" font-family="Helvetica,sans-Serif" font-size="10.00">mwcc.h</text>
</a>
</g>
</g>
<!-- Node7&#45;&gt;Node10 -->
<g id="edge16" class="edge">
<title>Node7&#45;&gt;Node10</title>
<path fill="none" stroke="midnightblue" d="M391.86,-195.73C410.33,-184.82 442.1,-166.05 463.81,-153.22"/>
<polygon fill="midnightblue" stroke="midnightblue" points="465.6,-156.23 472.43,-148.13 462.04,-150.2 465.6,-156.23"/>
</g>
<!-- Node11 -->
<g id="node11" class="node">
<title>Node11</title>
<g id="a_node11"><a xlink:href="OS_8h.html" target="_top" xlink:title=" ">
<polygon fill="white" stroke="black" points="278.03,-129 278.03,-148 330.03,-148 330.03,-129 278.03,-129"/>
<text text-anchor="middle" x="304.03" y="-136" font-family="Helvetica,sans-Serif" font-size="10.00">os/OS.h</text>
</a>
</g>
</g>
<!-- Node7&#45;&gt;Node11 -->
<g id="edge17" class="edge">
<title>Node7&#45;&gt;Node11</title>
<path fill="none" stroke="midnightblue" d="M367.18,-195.73C355.47,-185.31 335.71,-167.71 321.4,-154.97"/>
<polygon fill="midnightblue" stroke="midnightblue" points="323.51,-152.16 313.71,-148.13 318.86,-157.39 323.51,-152.16"/>
</g>
<!-- Node8&#45;&gt;Node5 -->
<g id="edge13" class="edge">
<title>Node8&#45;&gt;Node5</title>
<path fill="none" stroke="midnightblue" d="M389.68,-61.98C364.34,-51.86 321.89,-34.9 292.95,-23.35"/>
<polygon fill="midnightblue" stroke="midnightblue" points="293.92,-19.97 283.33,-19.51 291.32,-26.47 293.92,-19.97"/>
</g>
<!-- Node9&#45;&gt;Node5 -->
<g id="edge15" class="edge">
<title>Node9&#45;&gt;Node5</title>
<path fill="none" stroke="midnightblue" d="M460.88,-61.91C455.44,-59.84 449.55,-57.73 444.03,-56 400.16,-42.26 349.3,-29.99 312.52,-21.74"/>
<polygon fill="midnightblue" stroke="midnightblue" points="313.06,-18.28 302.54,-19.53 311.54,-25.11 313.06,-18.28"/>
</g>
<!-- Node11&#45;&gt;Node5 -->
<g id="edge18" class="edge">
<title>Node11&#45;&gt;Node5</title>
<path fill="none" stroke="midnightblue" d="M305.39,-128.55C307.37,-113.12 309.78,-80.78 300.03,-56 295.7,-45.01 287.54,-34.78 279.89,-26.86"/>
<polygon fill="midnightblue" stroke="midnightblue" points="282.18,-24.21 272.57,-19.76 277.31,-29.23 282.18,-24.21"/>
</g>
<!-- Node11&#45;&gt;Node6 -->
<g id="edge19" class="edge">
<title>Node11&#45;&gt;Node6</title>
<path fill="none" stroke="midnightblue" d="M298.36,-128.73C291.94,-118.79 281.31,-102.34 273.2,-89.79"/>
<polygon fill="midnightblue" stroke="midnightblue" points="275.97,-87.63 267.6,-81.13 270.09,-91.43 275.97,-87.63"/>
</g>
</g>
</svg>
        <g id="navigator" transform="translate(0 0)" fill="#404254">
                <rect fill="#f2f5e9" fill-opacity="0.5" stroke="#606060" stroke-width=".5" x="0" y="0" width="60" height="60"/>
                <use id="zoomplus" xlink:href="#zoomPlus" x="17" y="9" onmousedown="handleZoom(evt,'in')"/>
                <use id="zoomminus" xlink:href="#zoomMin" x="42" y="9" onmousedown="handleZoom(evt,'out')"/>
                <use id="reset" xlink:href="#resetDef" x="30" y="36" onmousedown="handleReset()"/>
                <g id="arrowUp" xlink:href="#dirArrow" transform="translate(30 24)" onmousedown="handlePan(0,-1)">
                  <use xlink:href="#rim" fill="#404040">
                        <set attributeName="fill" to="#808080" begin="arrowUp.mouseover" end="arrowUp.mouseout"/>
                  </use>
                  <path fill="none" stroke="white" stroke-width="1.5" d="M0,-3.0v7 M-2.5,-0.5L0,-3.0L2.5,-0.5"/>
                </g>
                <g id="arrowRight" xlink:href="#dirArrow" transform="rotate(90) translate(36 -43)" onmousedown="handlePan(1,0)">
                  <use xlink:href="#rim" fill="#404040">
                        <set attributeName="fill" to="#808080" begin="arrowRight.mouseover" end="arrowRight.mouseout"/>
                  </use>
                  <path fill="none" stroke="white" stroke-width="1.5" d="M0,-3.0v7 M-2.5,-0.5L0,-3.0L2.5,-0.5"/>
                </g>
                <g id="arrowDown" xlink:href="#dirArrow" transform="rotate(180) translate(-30 -48)" onmousedown="handlePan(0,1)">
                  <use xlink:href="#rim" fill="#404040">
                        <set attributeName="fill" to="#808080" begin="arrowDown.mouseover" end="arrowDown.mouseout"/>
                  </use>
                  <path fill="none" stroke="white" stroke-width="1.5" d="M0,-3.0v7 M-2.5,-0.5L0,-3.0L2.5,-0.5"/>
                </g>
                <g id="arrowLeft" xlink:href="#dirArrow" transform="rotate(270) translate(-36 17)" onmousedown="handlePan(-1,0)">
                  <use xlink:href="#rim" fill="#404040">
                        <set attributeName="fill" to="#808080" begin="arrowLeft.mouseover" end="arrowLeft.mouseout"/>
                  </use>
                  <path fill="none" stroke="white" stroke-width="1.5" d="M0,-3.0v7 M-2.5,-0.5L0,-3.0L2.5,-0.5"/>
                </g>
        </g>
        <svg viewBox="0 0 15 15" width="100%" height="30px" preserveAspectRatio="xMaxYMin meet">
         <g id="arrow_out" transform="scale(0.3 0.3)">
          <a xlink:href="JKRDvdFile_8h__incl_org.svg" target="_base">
           <rect id="button" ry="5" rx="5" y="6" x="6" height="38" width="38"
                fill="#f2f5e9" fill-opacity="0.5" stroke="#606060" stroke-width="1.0"/>
           <path id="arrow"
             d="M 11.500037,31.436501 C 11.940474,20.09759 22.043105,11.32322 32.158766,21.979434 L 37.068811,17.246167 C 37.068811,17.246167 37.088388,32 37.088388,32 L 22.160133,31.978069 C 22.160133,31.978069 26.997745,27.140456 26.997745,27.140456 C 18.528582,18.264221 13.291696,25.230495 11.500037,31.436501 z"
             style="fill:#404040;"/>
          </a>
         </g>
        </svg>
</svg>
