<?xml version="1.0" encoding="UTF-8" standalone="no"?>
<!DOCTYPE svg PUBLIC "-//W3C//DTD SVG 1.1//EN"
 "http://www.w3.org/Graphics/SVG/1.1/DTD/svg11.dtd">
<!-- Generated by graphviz version 2.44.0 ()
 -->
<!-- Title: include/JSystem/JKernel/JKRDecomp/JKRDecomp.h Pages: 1 -->
<svg width="748pt" height="352pt"
 viewBox="0.00 0.00 748.00 352.00" xmlns="http://www.w3.org/2000/svg" xmlns:xlink="http://www.w3.org/1999/xlink">
<g id="graph0" class="graph" transform="scale(1 1) rotate(0) translate(4 348)">
<title>include/JSystem/JKernel/JKRDecomp/JKRDecomp.h</title>
<polygon fill="white" stroke="transparent" points="-4,4 -4,-348 744,-348 744,4 -4,4"/>
<!-- Node1 -->
<g id="node1" class="node">
<title>Node1</title>
<g id="a_node1"><a xlink:title=" ">
<polygon fill="#bfbfbf" stroke="black" points="134.5,-313.5 134.5,-343.5 274.5,-343.5 274.5,-313.5 134.5,-313.5"/>
<text text-anchor="start" x="142.5" y="-331.5" font-family="Helvetica,sans-Serif" font-size="10.00">include/JSystem/JKernel</text>
<text text-anchor="middle" x="204.5" y="-320.5" font-family="Helvetica,sans-Serif" font-size="10.00">/JKRDecomp/JKRDecomp.h</text>
</a>
</g>
</g>
<!-- Node2 -->
<g id="node2" class="node">
<title>Node2</title>
<g id="a_node2"><a xlink:href="JKRCompression_8h.html" target="_top" xlink:title=" ">
<polygon fill="white" stroke="black" points="0,-129 0,-148 177,-148 177,-129 0,-129"/>
<text text-anchor="middle" x="88.5" y="-136" font-family="Helvetica,sans-Serif" font-size="10.00">JSystem/JKernel/JKRCompression.h</text>
</a>
</g>
</g>
<!-- Node1&#45;&gt;Node2 -->
<g id="edge1" class="edge">
<title>Node1&#45;&gt;Node2</title>
<path fill="none" stroke="midnightblue" d="M195.78,-313.37C174.89,-279.51 122,-193.79 99.21,-156.87"/>
<polygon fill="midnightblue" stroke="midnightblue" points="102.1,-154.88 93.87,-148.21 96.14,-158.55 102.1,-154.88"/>
</g>
<!-- Node4 -->
<g id="node4" class="node">
<title>Node4</title>
<g id="a_node4"><a xlink:href="types_8h.html" target="_top" xlink:title=" ">
<polygon fill="white" stroke="black" points="336,-0.5 336,-19.5 417,-19.5 417,-0.5 336,-0.5"/>
<text text-anchor="middle" x="376.5" y="-7.5" font-family="Helvetica,sans-Serif" font-size="10.00">dolphin/types.h</text>
</a>
</g>
</g>
<!-- Node1&#45;&gt;Node4 -->
<g id="edge22" class="edge">
<title>Node1&#45;&gt;Node4</title>
<path fill="none" stroke="midnightblue" d="M204.5,-313.46C204.5,-290.12 204.5,-241.85 204.5,-201 204.5,-201 204.5,-201 204.5,-137.5 204.5,-74.08 281.33,-38.93 332.29,-22.59"/>
<polygon fill="midnightblue" stroke="midnightblue" points="333.58,-25.85 342.11,-19.57 331.52,-19.16 333.58,-25.85"/>
</g>
<!-- Node5 -->
<g id="node5" class="node">
<title>Node5</title>
<g id="a_node5"><a xlink:href="JKRThread_8h.html" target="_top" xlink:title=" ">
<polygon fill="white" stroke="black" points="244,-246.5 244,-276.5 387,-276.5 387,-246.5 244,-246.5"/>
<text text-anchor="start" x="252" y="-264.5" font-family="Helvetica,sans-Serif" font-size="10.00">JSystem/JKernel/JKRThread</text>
<text text-anchor="middle" x="315.5" y="-253.5" font-family="Helvetica,sans-Serif" font-size="10.00">/JKRThread.h</text>
</a>
</g>
</g>
<!-- Node1&#45;&gt;Node5 -->
<g id="edge5" class="edge">
<title>Node1&#45;&gt;Node5</title>
<path fill="none" stroke="midnightblue" d="M228.59,-313.4C244.44,-304.11 265.39,-291.84 282.76,-281.67"/>
<polygon fill="midnightblue" stroke="midnightblue" points="284.6,-284.65 291.46,-276.58 281.06,-278.61 284.6,-284.65"/>
</g>
<!-- Node3 -->
<g id="node3" class="node">
<title>Node3</title>
<g id="a_node3"><a xlink:href="SArc_8h.html" target="_top" xlink:title=" ">
<polygon fill="white" stroke="black" points="15,-62 15,-81 138,-81 138,-62 15,-62"/>
<text text-anchor="middle" x="76.5" y="-69" font-family="Helvetica,sans-Serif" font-size="10.00">JSystem/JKernel/SArc.h</text>
</a>
</g>
</g>
<!-- Node2&#45;&gt;Node3 -->
<g id="edge2" class="edge">
<title>Node2&#45;&gt;Node3</title>
<path fill="none" stroke="midnightblue" d="M86.88,-128.73C85.12,-119.18 82.24,-103.62 79.97,-91.28"/>
<polygon fill="midnightblue" stroke="midnightblue" points="83.35,-90.33 78.09,-81.13 76.47,-91.6 83.35,-90.33"/>
</g>
<!-- Node2&#45;&gt;Node4 -->
<g id="edge4" class="edge">
<title>Node2&#45;&gt;Node4</title>
<path fill="none" stroke="midnightblue" d="M98.09,-128.94C119.34,-110.11 170.15,-65.98 190.5,-56 233.63,-34.86 287.37,-23.24 325.98,-17.14"/>
<polygon fill="midnightblue" stroke="midnightblue" points="326.58,-20.59 335.95,-15.63 325.54,-13.67 326.58,-20.59"/>
</g>
<!-- Node3&#45;&gt;Node4 -->
<g id="edge3" class="edge">
<title>Node3&#45;&gt;Node4</title>
<path fill="none" stroke="midnightblue" d="M119.48,-61.98C174.05,-51.15 268.03,-32.51 325.97,-21.02"/>
<polygon fill="midnightblue" stroke="midnightblue" points="326.87,-24.41 336,-19.03 325.51,-17.55 326.87,-24.41"/>
</g>
<!-- Node5&#45;&gt;Node4 -->
<g id="edge10" class="edge">
<title>Node5&#45;&gt;Node4</title>
<path fill="none" stroke="midnightblue" d="M303.6,-246.13C284.76,-221.62 251.19,-169.84 261.5,-123 268.55,-90.96 269.99,-79.87 292.5,-56 306.07,-41.61 325.28,-30.85 341.91,-23.46"/>
<polygon fill="midnightblue" stroke="midnightblue" points="343.47,-26.6 351.34,-19.5 340.76,-20.15 343.47,-26.6"/>
</g>
<!-- Node6 -->
<g id="node6" class="node">
<title>Node6</title>
<g id="a_node6"><a xlink:href="JKRDisposer_8h.html" target="_top" xlink:title=" ">
<polygon fill="white" stroke="black" points="271,-123.5 271,-153.5 422,-153.5 422,-123.5 271,-123.5"/>
<text text-anchor="start" x="279" y="-141.5" font-family="Helvetica,sans-Serif" font-size="10.00">JSystem/JKernel/JKRDisposer</text>
<text text-anchor="middle" x="346.5" y="-130.5" font-family="Helvetica,sans-Serif" font-size="10.00">/JKRDisposer.h</text>
</a>
</g>
</g>
<!-- Node5&#45;&gt;Node6 -->
<g id="edge6" class="edge">
<title>Node5&#45;&gt;Node6</title>
<path fill="none" stroke="midnightblue" d="M319.18,-246.14C324.4,-225.77 334.02,-188.2 340.34,-163.53"/>
<polygon fill="midnightblue" stroke="midnightblue" points="343.74,-164.39 342.83,-153.84 336.95,-162.66 343.74,-164.39"/>
</g>
<!-- Node8 -->
<g id="node8" class="node">
<title>Node8</title>
<g id="a_node8"><a xlink:href="global_8h.html" target="_top" xlink:title=" ">
<polygon fill="white" stroke="black" points="511.5,-190.5 511.5,-209.5 561.5,-209.5 561.5,-190.5 511.5,-190.5"/>
<text text-anchor="middle" x="536.5" y="-197.5" font-family="Helvetica,sans-Serif" font-size="10.00">global.h</text>
</a>
</g>
</g>
<!-- Node5&#45;&gt;Node8 -->
<g id="edge11" class="edge">
<title>Node5&#45;&gt;Node8</title>
<path fill="none" stroke="midnightblue" d="M367.59,-246.47C408.83,-235.37 465.28,-220.17 501.33,-210.47"/>
<polygon fill="midnightblue" stroke="midnightblue" points="502.63,-213.74 511.37,-207.76 500.81,-206.99 502.63,-213.74"/>
</g>
<!-- Node6&#45;&gt;Node4 -->
<g id="edge9" class="edge">
<title>Node6&#45;&gt;Node4</title>
<path fill="none" stroke="midnightblue" d="M328.49,-123.38C310.06,-107.13 285.92,-79.66 299.5,-56 308.12,-40.99 323.89,-30.5 338.93,-23.46"/>
<polygon fill="midnightblue" stroke="midnightblue" points="340.32,-26.67 348.13,-19.51 337.56,-20.24 340.32,-26.67"/>
</g>
<!-- Node7 -->
<g id="node7" class="node">
<title>Node7</title>
<g id="a_node7"><a xlink:href="JSUList_8h.html" target="_top" xlink:title=" ">
<polygon fill="white" stroke="black" points="308.5,-56.5 308.5,-86.5 444.5,-86.5 444.5,-56.5 308.5,-56.5"/>
<text text-anchor="start" x="316.5" y="-74.5" font-family="Helvetica,sans-Serif" font-size="10.00">JSystem/JSupport/JSUList</text>
<text text-anchor="middle" x="376.5" y="-63.5" font-family="Helvetica,sans-Serif" font-size="10.00">/JSUList.h</text>
</a>
</g>
</g>
<!-- Node6&#45;&gt;Node7 -->
<g id="edge7" class="edge">
<title>Node6&#45;&gt;Node7</title>
<path fill="none" stroke="midnightblue" d="M353.01,-123.4C356.74,-115.3 361.53,-104.94 365.8,-95.69"/>
<polygon fill="midnightblue" stroke="midnightblue" points="368.99,-97.12 370,-86.58 362.63,-94.19 368.99,-97.12"/>
</g>
<!-- Node7&#45;&gt;Node4 -->
<g id="edge8" class="edge">
<title>Node7&#45;&gt;Node4</title>
<path fill="none" stroke="midnightblue" d="M376.5,-56.4C376.5,-48.47 376.5,-38.46 376.5,-29.86"/>
<polygon fill="midnightblue" stroke="midnightblue" points="380,-29.66 376.5,-19.66 373,-29.66 380,-29.66"/>
</g>
<!-- Node8&#45;&gt;Node4 -->
<g id="edge12" class="edge">
<title>Node8&#45;&gt;Node4</title>
<path fill="none" stroke="midnightblue" d="M533.29,-190.26C524.1,-166.26 495.66,-98.28 453.5,-56 440.1,-42.56 421.88,-31.68 406.53,-23.98"/>
<polygon fill="midnightblue" stroke="midnightblue" points="407.94,-20.77 397.41,-19.6 404.91,-27.09 407.94,-20.77"/>
</g>
<!-- Node9 -->
<g id="node9" class="node">
<title>Node9</title>
<g id="a_node9"><a xlink:href="AR_8h.html" target="_top" xlink:title=" ">
<polygon fill="white" stroke="black" points="501,-62 501,-81 550,-81 550,-62 501,-62"/>
<text text-anchor="middle" x="525.5" y="-69" font-family="Helvetica,sans-Serif" font-size="10.00">ar/AR.h</text>
</a>
</g>
</g>
<!-- Node8&#45;&gt;Node9 -->
<g id="edge13" class="edge">
<title>Node8&#45;&gt;Node9</title>
<path fill="none" stroke="midnightblue" d="M535.74,-190.31C533.98,-169.99 529.55,-119.05 527.13,-91.28"/>
<polygon fill="midnightblue" stroke="midnightblue" points="530.61,-90.91 526.26,-81.26 523.64,-91.52 530.61,-90.91"/>
</g>
<!-- Node10 -->
<g id="node10" class="node">
<title>Node10</title>
<g id="a_node10"><a xlink:href="ARQ_8h.html" target="_top" xlink:title=" ">
<polygon fill="white" stroke="black" points="568.5,-62 568.5,-81 624.5,-81 624.5,-62 568.5,-62"/>
<text text-anchor="middle" x="596.5" y="-69" font-family="Helvetica,sans-Serif" font-size="10.00">ar/ARQ.h</text>
</a>
</g>
</g>
<!-- Node8&#45;&gt;Node10 -->
<g id="edge15" class="edge">
<title>Node8&#45;&gt;Node10</title>
<path fill="none" stroke="midnightblue" d="M540.62,-190.31C550.34,-169.81 574.85,-118.15 587.94,-90.54"/>
<polygon fill="midnightblue" stroke="midnightblue" points="591.22,-91.79 592.35,-81.26 584.9,-88.79 591.22,-91.79"/>
</g>
<!-- Node11 -->
<g id="node11" class="node">
<title>Node11</title>
<g id="a_node11"><a xlink:href="mwcc_8h.html" target="_top" xlink:title=" ">
<polygon fill="white" stroke="black" points="583.5,-129 583.5,-148 633.5,-148 633.5,-129 583.5,-129"/>
<text text-anchor="middle" x="608.5" y="-136" font-family="Helvetica,sans-Serif" font-size="10.00">mwcc.h</text>
</a>
</g>
</g>
<!-- Node8&#45;&gt;Node11 -->
<g id="edge17" class="edge">
<title>Node8&#45;&gt;Node11</title>
<path fill="none" stroke="midnightblue" d="M546.82,-190.48C558.15,-181.11 576.57,-165.88 590.34,-154.51"/>
<polygon fill="midnightblue" stroke="midnightblue" points="592.72,-157.08 598.2,-148.01 588.27,-151.68 592.72,-157.08"/>
</g>
<!-- Node12 -->
<g id="node12" class="node">
<title>Node12</title>
<g id="a_node12"><a xlink:href="OS_8h.html" target="_top" xlink:title=" ">
<polygon fill="white" stroke="black" points="651.5,-129 651.5,-148 703.5,-148 703.5,-129 651.5,-129"/>
<text text-anchor="middle" x="677.5" y="-136" font-family="Helvetica,sans-Serif" font-size="10.00">os/OS.h</text>
</a>
</g>
</g>
<!-- Node8&#45;&gt;Node12 -->
<g id="edge18" class="edge">
<title>Node8&#45;&gt;Node12</title>
<path fill="none" stroke="midnightblue" d="M556.7,-190.48C580.57,-180.4 620.5,-163.55 647.87,-152"/>
<polygon fill="midnightblue" stroke="midnightblue" points="649.48,-155.12 657.34,-148.01 646.76,-148.67 649.48,-155.12"/>
</g>
<!-- Node9&#45;&gt;Node4 -->
<g id="edge14" class="edge">
<title>Node9&#45;&gt;Node4</title>
<path fill="none" stroke="midnightblue" d="M504.15,-61.98C478.81,-51.86 436.36,-34.9 407.43,-23.35"/>
<polygon fill="midnightblue" stroke="midnightblue" points="408.39,-19.97 397.81,-19.51 405.8,-26.47 408.39,-19.97"/>
</g>
<!-- Node10&#45;&gt;Node4 -->
<g id="edge16" class="edge">
<title>Node10&#45;&gt;Node4</title>
<path fill="none" stroke="midnightblue" d="M575.36,-61.91C569.91,-59.84 564.03,-57.73 558.5,-56 514.63,-42.26 463.78,-29.99 427,-21.74"/>
<polygon fill="midnightblue" stroke="midnightblue" points="427.53,-18.28 417.01,-19.53 426.02,-25.11 427.53,-18.28"/>
</g>
<!-- Node12&#45;&gt;Node4 -->
<g id="edge19" class="edge">
<title>Node12&#45;&gt;Node4</title>
<path fill="none" stroke="midnightblue" d="M675.53,-128.95C671.15,-112.03 658.94,-74.33 633.5,-56 601.28,-32.78 492.6,-20.25 427.34,-14.67"/>
<polygon fill="midnightblue" stroke="midnightblue" points="427.51,-11.17 417.25,-13.83 426.93,-18.15 427.51,-11.17"/>
</g>
<!-- Node13 -->
<g id="node13" class="node">
<title>Node13</title>
<g id="a_node13"><a xlink:href="dvd_8h.html" target="_top" xlink:title=" ">
<polygon fill="white" stroke="black" points="681,-62 681,-81 740,-81 740,-62 681,-62"/>
<text text-anchor="middle" x="710.5" y="-69" font-family="Helvetica,sans-Serif" font-size="10.00">dvd/dvd.h</text>
</a>
</g>
</g>
<!-- Node12&#45;&gt;Node13 -->
<g id="edge20" class="edge">
<title>Node12&#45;&gt;Node13</title>
<path fill="none" stroke="midnightblue" d="M681.95,-128.73C686.95,-118.89 695.19,-102.66 701.53,-90.16"/>
<polygon fill="midnightblue" stroke="midnightblue" points="704.71,-91.63 706.12,-81.13 698.47,-88.46 704.71,-91.63"/>
</g>
<!-- Node13&#45;&gt;Node4 -->
<g id="edge21" class="edge">
<title>Node13&#45;&gt;Node4</title>
<path fill="none" stroke="midnightblue" d="M686.96,-61.95C680.4,-59.79 673.23,-57.62 666.5,-56 583.79,-36.1 485.6,-23.01 427.31,-16.32"/>
<polygon fill="midnightblue" stroke="midnightblue" points="427.59,-12.83 417.26,-15.18 426.8,-19.78 427.59,-12.83"/>
</g>
</g>
</svg>
