<?xml version="1.0" encoding="UTF-8" standalone="no"?>
<!DOCTYPE svg PUBLIC "-//W3C//DTD SVG 1.1//EN"
 "http://www.w3.org/Graphics/SVG/1.1/DTD/svg11.dtd">
<!-- Generated by graphviz version 2.44.0 ()
 -->
<!-- Title: include/JSystem/JKernel/JKRDvdRipper/JKRDvdRipper.h Pages: 1 -->
<!--zoomable 419 -->
<svg id="main" version="1.1" xmlns="http://www.w3.org/2000/svg" xmlns:xlink="http://www.w3.org/1999/xlink" xml:space="preserve" onload="init(evt)">
<style type="text/css"><![CDATA[
.edge:hover path { stroke: red; }
.edge:hover polygon { stroke: red; fill: red; }
]]></style>
<script type="text/javascript"><![CDATA[
var edges = document.getElementsByTagName('g');
if (edges && edges.length) {
  for (var i=0;i<edges.length;i++) {
    if (edges[i].id.substr(0,4)=='edge') {
      edges[i].setAttribute('class','edge');
    }
  }
}
]]></script>
        <defs>
                <circle id="rim" cx="0" cy="0" r="7"/>
                <circle id="rim2" cx="0" cy="0" r="3.5"/>
                <g id="zoomPlus">
                        <use xlink:href="#rim" fill="#404040">
                                <set attributeName="fill" to="#808080" begin="zoomplus.mouseover" end="zoomplus.mouseout"/>
                        </use>
                        <path d="M-4,0h8M0,-4v8" fill="none" stroke="white" stroke-width="1.5" pointer-events="none"/>
                </g>
                <g id="zoomMin">
                        <use xlink:href="#rim" fill="#404040">
                                <set attributeName="fill" to="#808080" begin="zoomminus.mouseover" end="zoomminus.mouseout"/>
                        </use>
                        <path d="M-4,0h8" fill="none" stroke="white" stroke-width="1.5" pointer-events="none"/>
                </g>
                <g id="dirArrow">
                        <path fill="none" stroke="white" stroke-width="1.5" d="M0,-3.0v7 M-2.5,-0.5L0,-3.0L2.5,-0.5"/>
                </g>
               <g id="resetDef">
                       <use xlink:href="#rim2" fill="#404040">
                               <set attributeName="fill" to="#808080" begin="reset.mouseover" end="reset.mouseout"/>
                       </use>
               </g>
        </defs>

<script type="text/javascript">
var viewWidth = 778;
var viewHeight = 419;
var sectionId = 'dynsection-0';
</script>
<script xlink:href="svgpan.js"/>
<svg id="graph" class="graph">
<g id="viewport">
<title>include/JSystem/JKernel/JKRDvdRipper/JKRDvdRipper.h</title>
<polygon fill="white" stroke="transparent" points="-4,4 -4,-415 774.42,-415 774.42,4 -4,4"/>
<!-- Node1 -->
<g id="node1" class="node">
<title>Node1</title>
<g id="a_node1"><a xlink:title=" ">
<polygon fill="#bfbfbf" stroke="black" points="376.5,-380.5 376.5,-410.5 534.5,-410.5 534.5,-380.5 376.5,-380.5"/>
<text text-anchor="start" x="384.5" y="-398.5" font-family="Helvetica,sans-Serif" font-size="10.00">include/JSystem/JKernel</text>
<text text-anchor="middle" x="455.5" y="-387.5" font-family="Helvetica,sans-Serif" font-size="10.00">/JKRDvdRipper/JKRDvdRipper.h</text>
</a>
</g>
</g>
<!-- Node2 -->
<g id="node2" class="node">
<title>Node2</title>
<g id="a_node2"><a xlink:href="JKRDecomp_8h.html" target="_top" xlink:title=" ">
<polygon fill="white" stroke="black" points="170,-313.5 170,-343.5 319,-343.5 319,-313.5 170,-313.5"/>
<text text-anchor="start" x="178" y="-331.5" font-family="Helvetica,sans-Serif" font-size="10.00">JSystem/JKernel/JKRDecomp</text>
<text text-anchor="middle" x="244.5" y="-320.5" font-family="Helvetica,sans-Serif" font-size="10.00">/JKRDecomp.h</text>
</a>
</g>
</g>
<!-- Node1&#45;&gt;Node2 -->
<g id="edge1" class="edge">
<title>Node1&#45;&gt;Node2</title>
<path fill="none" stroke="midnightblue" d="M409.98,-380.48C377.78,-370.56 334.42,-357.2 300.17,-346.65"/>
<polygon fill="midnightblue" stroke="midnightblue" points="300.89,-343.21 290.31,-343.61 298.83,-349.9 300.89,-343.21"/>
</g>
<!-- Node5 -->
<g id="node5" class="node">
<title>Node5</title>
<g id="a_node5"><a xlink:href="types_8h.html" target="_top" xlink:title=" ">
<polygon fill="white" stroke="black" points="384,-0.5 384,-19.5 465,-19.5 465,-0.5 384,-0.5"/>
<text text-anchor="middle" x="424.5" y="-7.5" font-family="Helvetica,sans-Serif" font-size="10.00">dolphin/types.h</text>
</a>
</g>
</g>
<!-- Node1&#45;&gt;Node5 -->
<g id="edge24" class="edge">
<title>Node1&#45;&gt;Node5</title>
<path fill="none" stroke="midnightblue" d="M534.89,-393.93C627.62,-388.58 768.5,-363.79 768.5,-262.5 768.5,-262.5 768.5,-262.5 768.5,-137.5 768.5,-100.2 776.19,-80.99 748.5,-56 709.36,-20.68 556.57,-12.92 475.57,-11.33"/>
<polygon fill="midnightblue" stroke="midnightblue" points="475.17,-7.82 465.11,-11.15 475.05,-14.82 475.17,-7.82"/>
</g>
<!-- Node3 -->
<g id="node3" class="node">
<title>Node3</title>
<g id="a_node3"><a xlink:href="JKRCompression_8h.html" target="_top" xlink:title=" ">
<polygon fill="white" stroke="black" points="0,-129 0,-148 177,-148 177,-129 0,-129"/>
<text text-anchor="middle" x="88.5" y="-136" font-family="Helvetica,sans-Serif" font-size="10.00">JSystem/JKernel/JKRCompression.h</text>
</a>
</g>
</g>
<!-- Node2&#45;&gt;Node3 -->
<g id="edge2" class="edge">
<title>Node2&#45;&gt;Node3</title>
<path fill="none" stroke="midnightblue" d="M227.69,-313.2C216.64,-303.46 202.12,-290.02 190.5,-277 154.37,-236.51 117.89,-183.84 99.94,-156.95"/>
<polygon fill="midnightblue" stroke="midnightblue" points="102.64,-154.69 94.2,-148.28 96.81,-158.55 102.64,-154.69"/>
</g>
<!-- Node2&#45;&gt;Node5 -->
<g id="edge23" class="edge">
<title>Node2&#45;&gt;Node5</title>
<path fill="none" stroke="midnightblue" d="M236.79,-313.17C225.16,-290.19 204.5,-243.38 204.5,-201 204.5,-201 204.5,-201 204.5,-137.5 204.5,-59.82 308.86,-29.13 373.83,-17.56"/>
<polygon fill="midnightblue" stroke="midnightblue" points="374.61,-20.98 383.89,-15.86 373.45,-14.07 374.61,-20.98"/>
</g>
<!-- Node6 -->
<g id="node6" class="node">
<title>Node6</title>
<g id="a_node6"><a xlink:href="JKRThread_8h.html" target="_top" xlink:title=" ">
<polygon fill="white" stroke="black" points="244,-246.5 244,-276.5 387,-276.5 387,-246.5 244,-246.5"/>
<text text-anchor="start" x="252" y="-264.5" font-family="Helvetica,sans-Serif" font-size="10.00">JSystem/JKernel/JKRThread</text>
<text text-anchor="middle" x="315.5" y="-253.5" font-family="Helvetica,sans-Serif" font-size="10.00">/JKRThread.h</text>
</a>
</g>
</g>
<!-- Node2&#45;&gt;Node6 -->
<g id="edge6" class="edge">
<title>Node2&#45;&gt;Node6</title>
<path fill="none" stroke="midnightblue" d="M259.91,-313.4C269.49,-304.62 281.99,-293.18 292.7,-283.37"/>
<polygon fill="midnightblue" stroke="midnightblue" points="295.11,-285.91 300.12,-276.58 290.38,-280.75 295.11,-285.91"/>
</g>
<!-- Node4 -->
<g id="node4" class="node">
<title>Node4</title>
<g id="a_node4"><a xlink:href="SArc_8h.html" target="_top" xlink:title=" ">
<polygon fill="white" stroke="black" points="15,-62 15,-81 138,-81 138,-62 15,-62"/>
<text text-anchor="middle" x="76.5" y="-69" font-family="Helvetica,sans-Serif" font-size="10.00">JSystem/JKernel/SArc.h</text>
</a>
</g>
</g>
<!-- Node3&#45;&gt;Node4 -->
<g id="edge3" class="edge">
<title>Node3&#45;&gt;Node4</title>
<path fill="none" stroke="midnightblue" d="M86.88,-128.73C85.12,-119.18 82.24,-103.62 79.97,-91.28"/>
<polygon fill="midnightblue" stroke="midnightblue" points="83.35,-90.33 78.09,-81.13 76.47,-91.6 83.35,-90.33"/>
</g>
<!-- Node3&#45;&gt;Node5 -->
<g id="edge5" class="edge">
<title>Node3&#45;&gt;Node5</title>
<path fill="none" stroke="midnightblue" d="M98.05,-128.87C119.24,-109.9 169.92,-65.49 190.5,-56 249.77,-28.67 324.87,-17.93 373.77,-13.72"/>
<polygon fill="midnightblue" stroke="midnightblue" points="374.1,-17.2 383.79,-12.92 373.54,-10.23 374.1,-17.2"/>
</g>
<!-- Node4&#45;&gt;Node5 -->
<g id="edge4" class="edge">
<title>Node4&#45;&gt;Node5</title>
<path fill="none" stroke="midnightblue" d="M120.27,-61.96C130.82,-59.95 142.05,-57.86 152.5,-56 229.53,-42.28 319.09,-27.74 373.77,-19.01"/>
<polygon fill="midnightblue" stroke="midnightblue" points="374.57,-22.43 383.89,-17.4 373.47,-15.52 374.57,-22.43"/>
</g>
<!-- Node6&#45;&gt;Node5 -->
<g id="edge11" class="edge">
<title>Node6&#45;&gt;Node5</title>
<path fill="none" stroke="midnightblue" d="M303.66,-246.14C284.91,-221.65 251.48,-169.9 261.5,-123 268.32,-91.09 267.36,-77.95 291.5,-56 314.13,-35.42 346.52,-24.21 373.68,-18.12"/>
<polygon fill="midnightblue" stroke="midnightblue" points="374.71,-21.48 383.8,-16.03 373.29,-14.62 374.71,-21.48"/>
</g>
<!-- Node7 -->
<g id="node7" class="node">
<title>Node7</title>
<g id="a_node7"><a xlink:href="JKRDisposer_8h.html" target="_top" xlink:title=" ">
<polygon fill="white" stroke="black" points="271,-123.5 271,-153.5 422,-153.5 422,-123.5 271,-123.5"/>
<text text-anchor="start" x="279" y="-141.5" font-family="Helvetica,sans-Serif" font-size="10.00">JSystem/JKernel/JKRDisposer</text>
<text text-anchor="middle" x="346.5" y="-130.5" font-family="Helvetica,sans-Serif" font-size="10.00">/JKRDisposer.h</text>
</a>
</g>
</g>
<!-- Node6&#45;&gt;Node7 -->
<g id="edge7" class="edge">
<title>Node6&#45;&gt;Node7</title>
<path fill="none" stroke="midnightblue" d="M319.18,-246.14C324.4,-225.77 334.02,-188.2 340.34,-163.53"/>
<polygon fill="midnightblue" stroke="midnightblue" points="343.74,-164.39 342.83,-153.84 336.95,-162.66 343.74,-164.39"/>
</g>
<!-- Node9 -->
<g id="node9" class="node">
<title>Node9</title>
<g id="a_node9"><a xlink:href="global_8h.html" target="_top" xlink:title=" ">
<polygon fill="white" stroke="black" points="512.5,-190.5 512.5,-209.5 562.5,-209.5 562.5,-190.5 512.5,-190.5"/>
<text text-anchor="middle" x="537.5" y="-197.5" font-family="Helvetica,sans-Serif" font-size="10.00">global.h</text>
</a>
</g>
</g>
<!-- Node6&#45;&gt;Node9 -->
<g id="edge12" class="edge">
<title>Node6&#45;&gt;Node9</title>
<path fill="none" stroke="midnightblue" d="M367.83,-246.47C409.25,-235.37 465.96,-220.17 502.17,-210.47"/>
<polygon fill="midnightblue" stroke="midnightblue" points="503.51,-213.73 512.26,-207.76 501.69,-206.97 503.51,-213.73"/>
</g>
<!-- Node7&#45;&gt;Node5 -->
<g id="edge10" class="edge">
<title>Node7&#45;&gt;Node5</title>
<path fill="none" stroke="midnightblue" d="M328.41,-123.48C309.19,-106.87 283.63,-78.58 299.5,-56 316.26,-32.16 346.93,-20.89 373.69,-15.59"/>
<polygon fill="midnightblue" stroke="midnightblue" points="374.47,-19 383.72,-13.84 373.27,-12.11 374.47,-19"/>
</g>
<!-- Node8 -->
<g id="node8" class="node">
<title>Node8</title>
<g id="a_node8"><a xlink:href="JSUList_8h.html" target="_top" xlink:title=" ">
<polygon fill="white" stroke="black" points="308.5,-56.5 308.5,-86.5 444.5,-86.5 444.5,-56.5 308.5,-56.5"/>
<text text-anchor="start" x="316.5" y="-74.5" font-family="Helvetica,sans-Serif" font-size="10.00">JSystem/JSupport/JSUList</text>
<text text-anchor="middle" x="376.5" y="-63.5" font-family="Helvetica,sans-Serif" font-size="10.00">/JSUList.h</text>
</a>
</g>
</g>
<!-- Node7&#45;&gt;Node8 -->
<g id="edge8" class="edge">
<title>Node7&#45;&gt;Node8</title>
<path fill="none" stroke="midnightblue" d="M353.01,-123.4C356.74,-115.3 361.53,-104.94 365.8,-95.69"/>
<polygon fill="midnightblue" stroke="midnightblue" points="368.99,-97.12 370,-86.58 362.63,-94.19 368.99,-97.12"/>
</g>
<!-- Node8&#45;&gt;Node5 -->
<g id="edge9" class="edge">
<title>Node8&#45;&gt;Node5</title>
<path fill="none" stroke="midnightblue" d="M387.88,-56.4C394.85,-47.75 403.81,-36.64 411.13,-27.58"/>
<polygon fill="midnightblue" stroke="midnightblue" points="413.96,-29.64 417.52,-19.66 408.51,-25.24 413.96,-29.64"/>
</g>
<!-- Node9&#45;&gt;Node5 -->
<g id="edge13" class="edge">
<title>Node9&#45;&gt;Node5</title>
<path fill="none" stroke="midnightblue" d="M532.51,-190.22C519.69,-167.73 484.44,-106.27 453.5,-56 447.77,-46.68 441.17,-36.42 435.73,-28.05"/>
<polygon fill="midnightblue" stroke="midnightblue" points="438.57,-26.01 430.17,-19.56 432.71,-29.84 438.57,-26.01"/>
</g>
<!-- Node10 -->
<g id="node10" class="node">
<title>Node10</title>
<g id="a_node10"><a xlink:href="AR_8h.html" target="_top" xlink:title=" ">
<polygon fill="white" stroke="black" points="501,-62 501,-81 550,-81 550,-62 501,-62"/>
<text text-anchor="middle" x="525.5" y="-69" font-family="Helvetica,sans-Serif" font-size="10.00">ar/AR.h</text>
</a>
</g>
</g>
<!-- Node9&#45;&gt;Node10 -->
<g id="edge14" class="edge">
<title>Node9&#45;&gt;Node10</title>
<path fill="none" stroke="midnightblue" d="M536.68,-190.31C534.75,-169.99 529.92,-119.05 527.28,-91.28"/>
<polygon fill="midnightblue" stroke="midnightblue" points="530.76,-90.88 526.33,-81.26 523.79,-91.54 530.76,-90.88"/>
</g>
<!-- Node11 -->
<g id="node11" class="node">
<title>Node11</title>
<g id="a_node11"><a xlink:href="ARQ_8h.html" target="_top" xlink:title=" ">
<polygon fill="white" stroke="black" points="568.5,-62 568.5,-81 624.5,-81 624.5,-62 568.5,-62"/>
<text text-anchor="middle" x="596.5" y="-69" font-family="Helvetica,sans-Serif" font-size="10.00">ar/ARQ.h</text>
</a>
</g>
</g>
<!-- Node9&#45;&gt;Node11 -->
<g id="edge16" class="edge">
<title>Node9&#45;&gt;Node11</title>
<path fill="none" stroke="midnightblue" d="M541.56,-190.31C551.11,-169.81 575.21,-118.15 588.09,-90.54"/>
<polygon fill="midnightblue" stroke="midnightblue" points="591.36,-91.8 592.42,-81.26 585.02,-88.84 591.36,-91.8"/>
</g>
<!-- Node12 -->
<g id="node12" class="node">
<title>Node12</title>
<g id="a_node12"><a xlink:href="mwcc_8h.html" target="_top" xlink:title=" ">
<polygon fill="white" stroke="black" points="584.5,-129 584.5,-148 634.5,-148 634.5,-129 584.5,-129"/>
<text text-anchor="middle" x="609.5" y="-136" font-family="Helvetica,sans-Serif" font-size="10.00">mwcc.h</text>
</a>
</g>
</g>
<!-- Node9&#45;&gt;Node12 -->
<g id="edge18" class="edge">
<title>Node9&#45;&gt;Node12</title>
<path fill="none" stroke="midnightblue" d="M547.82,-190.48C559.15,-181.11 577.57,-165.88 591.34,-154.51"/>
<polygon fill="midnightblue" stroke="midnightblue" points="593.72,-157.08 599.2,-148.01 589.27,-151.68 593.72,-157.08"/>
</g>
<!-- Node13 -->
<g id="node13" class="node">
<title>Node13</title>
<g id="a_node13"><a xlink:href="OS_8h.html" target="_top" xlink:title=" ">
<polygon fill="white" stroke="black" points="652.5,-129 652.5,-148 704.5,-148 704.5,-129 652.5,-129"/>
<text text-anchor="middle" x="678.5" y="-136" font-family="Helvetica,sans-Serif" font-size="10.00">os/OS.h</text>
</a>
</g>
</g>
<!-- Node9&#45;&gt;Node13 -->
<g id="edge19" class="edge">
<title>Node9&#45;&gt;Node13</title>
<path fill="none" stroke="midnightblue" d="M557.7,-190.48C581.57,-180.4 621.5,-163.55 648.87,-152"/>
<polygon fill="midnightblue" stroke="midnightblue" points="650.48,-155.12 658.34,-148.01 647.76,-148.67 650.48,-155.12"/>
</g>
<!-- Node10&#45;&gt;Node5 -->
<g id="edge15" class="edge">
<title>Node10&#45;&gt;Node5</title>
<path fill="none" stroke="midnightblue" d="M511.03,-61.98C494.53,-52.25 467.32,-36.23 447.82,-24.74"/>
<polygon fill="midnightblue" stroke="midnightblue" points="449.34,-21.57 438.94,-19.51 445.78,-27.6 449.34,-21.57"/>
</g>
<!-- Node11&#45;&gt;Node5 -->
<g id="edge17" class="edge">
<title>Node11&#45;&gt;Node5</title>
<path fill="none" stroke="midnightblue" d="M574.45,-61.91C569.24,-59.93 563.68,-57.86 558.5,-56 525.62,-44.21 487.89,-31.62 460.86,-22.77"/>
<polygon fill="midnightblue" stroke="midnightblue" points="461.64,-19.34 451.05,-19.56 459.47,-26 461.64,-19.34"/>
</g>
<!-- Node13&#45;&gt;Node5 -->
<g id="edge20" class="edge">
<title>Node13&#45;&gt;Node5</title>
<path fill="none" stroke="midnightblue" d="M676.29,-128.77C671.53,-111.86 658.67,-74.71 633.5,-56 587.49,-21.8 520.91,-12.49 475.34,-10.48"/>
<polygon fill="midnightblue" stroke="midnightblue" points="475.2,-6.97 465.09,-10.14 474.96,-13.97 475.2,-6.97"/>
</g>
<!-- Node14 -->
<g id="node14" class="node">
<title>Node14</title>
<g id="a_node14"><a xlink:href="dvd_8h.html" target="_top" xlink:title=" ">
<polygon fill="white" stroke="black" points="681,-62 681,-81 740,-81 740,-62 681,-62"/>
<text text-anchor="middle" x="710.5" y="-69" font-family="Helvetica,sans-Serif" font-size="10.00">dvd/dvd.h</text>
</a>
</g>
</g>
<!-- Node13&#45;&gt;Node14 -->
<g id="edge21" class="edge">
<title>Node13&#45;&gt;Node14</title>
<path fill="none" stroke="midnightblue" d="M682.82,-128.73C687.66,-118.89 695.65,-102.66 701.81,-90.16"/>
<polygon fill="midnightblue" stroke="midnightblue" points="704.98,-91.64 706.25,-81.13 698.7,-88.55 704.98,-91.64"/>
</g>
<!-- Node14&#45;&gt;Node5 -->
<g id="edge22" class="edge">
<title>Node14&#45;&gt;Node5</title>
<path fill="none" stroke="midnightblue" d="M686.47,-61.93C680.03,-59.82 673.04,-57.68 666.5,-56 601.19,-39.25 524.46,-26.05 475.19,-18.39"/>
<polygon fill="midnightblue" stroke="midnightblue" points="475.53,-14.9 465.11,-16.84 474.47,-21.82 475.53,-14.9"/>
</g>
</g>
</svg>
        <g id="navigator" transform="translate(0 0)" fill="#404254">
                <rect fill="#f2f5e9" fill-opacity="0.5" stroke="#606060" stroke-width=".5" x="0" y="0" width="60" height="60"/>
                <use id="zoomplus" xlink:href="#zoomPlus" x="17" y="9" onmousedown="handleZoom(evt,'in')"/>
                <use id="zoomminus" xlink:href="#zoomMin" x="42" y="9" onmousedown="handleZoom(evt,'out')"/>
                <use id="reset" xlink:href="#resetDef" x="30" y="36" onmousedown="handleReset()"/>
                <g id="arrowUp" xlink:href="#dirArrow" transform="translate(30 24)" onmousedown="handlePan(0,-1)">
                  <use xlink:href="#rim" fill="#404040">
                        <set attributeName="fill" to="#808080" begin="arrowUp.mouseover" end="arrowUp.mouseout"/>
                  </use>
                  <path fill="none" stroke="white" stroke-width="1.5" d="M0,-3.0v7 M-2.5,-0.5L0,-3.0L2.5,-0.5"/>
                </g>
                <g id="arrowRight" xlink:href="#dirArrow" transform="rotate(90) translate(36 -43)" onmousedown="handlePan(1,0)">
                  <use xlink:href="#rim" fill="#404040">
                        <set attributeName="fill" to="#808080" begin="arrowRight.mouseover" end="arrowRight.mouseout"/>
                  </use>
                  <path fill="none" stroke="white" stroke-width="1.5" d="M0,-3.0v7 M-2.5,-0.5L0,-3.0L2.5,-0.5"/>
                </g>
                <g id="arrowDown" xlink:href="#dirArrow" transform="rotate(180) translate(-30 -48)" onmousedown="handlePan(0,1)">
                  <use xlink:href="#rim" fill="#404040">
                        <set attributeName="fill" to="#808080" begin="arrowDown.mouseover" end="arrowDown.mouseout"/>
                  </use>
                  <path fill="none" stroke="white" stroke-width="1.5" d="M0,-3.0v7 M-2.5,-0.5L0,-3.0L2.5,-0.5"/>
                </g>
                <g id="arrowLeft" xlink:href="#dirArrow" transform="rotate(270) translate(-36 17)" onmousedown="handlePan(-1,0)">
                  <use xlink:href="#rim" fill="#404040">
                        <set attributeName="fill" to="#808080" begin="arrowLeft.mouseover" end="arrowLeft.mouseout"/>
                  </use>
                  <path fill="none" stroke="white" stroke-width="1.5" d="M0,-3.0v7 M-2.5,-0.5L0,-3.0L2.5,-0.5"/>
                </g>
        </g>
        <svg viewBox="0 0 15 15" width="100%" height="30px" preserveAspectRatio="xMaxYMin meet">
         <g id="arrow_out" transform="scale(0.3 0.3)">
          <a xlink:href="JKRDvdRipper_8h__incl_org.svg" target="_base">
           <rect id="button" ry="5" rx="5" y="6" x="6" height="38" width="38"
                fill="#f2f5e9" fill-opacity="0.5" stroke="#606060" stroke-width="1.0"/>
           <path id="arrow"
             d="M 11.500037,31.436501 C 11.940474,20.09759 22.043105,11.32322 32.158766,21.979434 L 37.068811,17.246167 C 37.068811,17.246167 37.088388,32 37.088388,32 L 22.160133,31.978069 C 22.160133,31.978069 26.997745,27.140456 26.997745,27.140456 C 18.528582,18.264221 13.291696,25.230495 11.500037,31.436501 z"
             style="fill:#404040;"/>
          </a>
         </g>
        </svg>
</svg>
