<?xml version="1.0" encoding="UTF-8" standalone="no"?>
<!DOCTYPE svg PUBLIC "-//W3C//DTD SVG 1.1//EN"
 "http://www.w3.org/Graphics/SVG/1.1/DTD/svg11.dtd">
<!-- Generated by graphviz version 2.44.0 ()
 -->
<!-- Title: libs/JSystem/JKernel/JKRFileCache.cpp Pages: 1 -->
<svg width="1340pt" height="430pt"
 viewBox="0.00 0.00 1339.84 430.00" xmlns="http://www.w3.org/2000/svg" xmlns:xlink="http://www.w3.org/1999/xlink">
<g id="graph0" class="graph" transform="scale(1 1) rotate(0) translate(4 426)">
<title>libs/JSystem/JKernel/JKRFileCache.cpp</title>
<polygon fill="white" stroke="transparent" points="-4,4 -4,-426 1335.84,-426 1335.84,4 -4,4"/>
<!-- Node1 -->
<g id="node1" class="node">
<title>Node1</title>
<g id="a_node1"><a xlink:title=" ">
<polygon fill="#bfbfbf" stroke="black" points="655.34,-391.5 655.34,-421.5 764.34,-421.5 764.34,-391.5 655.34,-391.5"/>
<text text-anchor="start" x="663.34" y="-409.5" font-family="Helvetica,sans-Serif" font-size="10.00">libs/JSystem/JKernel</text>
<text text-anchor="middle" x="709.84" y="-398.5" font-family="Helvetica,sans-Serif" font-size="10.00">/JKRFileCache.cpp</text>
</a>
</g>
</g>
<!-- Node2 -->
<g id="node2" class="node">
<title>Node2</title>
<g id="a_node2"><a xlink:href="JKRFileCache_8h.html" target="_top" xlink:title=" ">
<polygon fill="white" stroke="black" points="23.84,-257.5 23.84,-287.5 179.84,-287.5 179.84,-257.5 23.84,-257.5"/>
<text text-anchor="start" x="31.84" y="-275.5" font-family="Helvetica,sans-Serif" font-size="10.00">JSystem/JKernel/JKRFileCache</text>
<text text-anchor="middle" x="101.84" y="-264.5" font-family="Helvetica,sans-Serif" font-size="10.00">/JKRFileCache.h</text>
</a>
</g>
</g>
<!-- Node1&#45;&gt;Node2 -->
<g id="edge1" class="edge">
<title>Node1&#45;&gt;Node2</title>
<path fill="none" stroke="midnightblue" d="M655.12,-396.42C599.49,-386.96 510.9,-371.28 434.84,-355 340.31,-334.77 231.69,-307.41 164.91,-290.1"/>
<polygon fill="midnightblue" stroke="midnightblue" points="165.52,-286.65 154.96,-287.52 163.76,-293.42 165.52,-286.65"/>
</g>
<!-- Node7 -->
<g id="node7" class="node">
<title>Node7</title>
<g id="a_node7"><a xlink:href="JKRDvdFile_8h.html" target="_top" xlink:title=" ">
<polygon fill="white" stroke="black" points="319.84,-257.5 319.84,-287.5 465.84,-287.5 465.84,-257.5 319.84,-257.5"/>
<text text-anchor="start" x="327.84" y="-275.5" font-family="Helvetica,sans-Serif" font-size="10.00">JSystem/JKernel/JKRDvdFile</text>
<text text-anchor="middle" x="392.84" y="-264.5" font-family="Helvetica,sans-Serif" font-size="10.00">/JKRDvdFile.h</text>
</a>
</g>
</g>
<!-- Node1&#45;&gt;Node7 -->
<g id="edge9" class="edge">
<title>Node1&#45;&gt;Node7</title>
<path fill="none" stroke="midnightblue" d="M654.98,-401.7C606.53,-396.48 535.19,-384.13 479.84,-355 451.92,-340.31 426.4,-314.21 410.32,-295.51"/>
<polygon fill="midnightblue" stroke="midnightblue" points="412.93,-293.17 403.83,-287.75 407.56,-297.66 412.93,-293.17"/>
</g>
<!-- Node9 -->
<g id="node9" class="node">
<title>Node9</title>
<g id="a_node9"><a xlink:href="dvd_8h.html" target="_top" xlink:title=" ">
<polygon fill="white" stroke="black" points="714.34,-62 714.34,-81 773.34,-81 773.34,-62 714.34,-62"/>
<text text-anchor="middle" x="743.84" y="-69" font-family="Helvetica,sans-Serif" font-size="10.00">dvd/dvd.h</text>
</a>
</g>
</g>
<!-- Node1&#45;&gt;Node9 -->
<g id="edge36" class="edge">
<title>Node1&#45;&gt;Node9</title>
<path fill="none" stroke="midnightblue" d="M721.1,-391.25C728.27,-381.53 737.24,-368.1 742.84,-355 757.45,-320.8 761.84,-310.69 761.84,-273.5 761.84,-273.5 761.84,-273.5 761.84,-204.5 761.84,-163.78 753.32,-116.65 748.01,-91.17"/>
<polygon fill="midnightblue" stroke="midnightblue" points="751.36,-90.13 745.83,-81.09 744.52,-91.61 751.36,-90.13"/>
</g>
<!-- Node10 -->
<g id="node10" class="node">
<title>Node10</title>
<g id="a_node10"><a xlink:href="global_8h.html" target="_top" xlink:title=" ">
<polygon fill="white" stroke="black" points="457.84,-196 457.84,-215 507.84,-215 507.84,-196 457.84,-196"/>
<text text-anchor="middle" x="482.84" y="-203" font-family="Helvetica,sans-Serif" font-size="10.00">global.h</text>
</a>
</g>
</g>
<!-- Node1&#45;&gt;Node10 -->
<g id="edge37" class="edge">
<title>Node1&#45;&gt;Node10</title>
<path fill="none" stroke="midnightblue" d="M655.16,-394.98C625.77,-387.39 590.09,-374.88 562.84,-355 518.18,-322.42 495.89,-257.16 487.25,-225.12"/>
<polygon fill="midnightblue" stroke="midnightblue" points="490.61,-224.11 484.76,-215.28 483.82,-225.83 490.61,-224.11"/>
</g>
<!-- Node15 -->
<g id="node15" class="node">
<title>Node15</title>
<g id="a_node15"><a xlink:href="JKRExpHeap_8h.html" target="_top" xlink:title=" ">
<polygon fill="white" stroke="black" points="581.84,-324.5 581.84,-354.5 733.84,-354.5 733.84,-324.5 581.84,-324.5"/>
<text text-anchor="start" x="589.84" y="-342.5" font-family="Helvetica,sans-Serif" font-size="10.00">JSystem/JKernel/JKRExpHeap</text>
<text text-anchor="middle" x="657.84" y="-331.5" font-family="Helvetica,sans-Serif" font-size="10.00">/JKRExpHeap.h</text>
</a>
</g>
</g>
<!-- Node1&#45;&gt;Node15 -->
<g id="edge26" class="edge">
<title>Node1&#45;&gt;Node15</title>
<path fill="none" stroke="midnightblue" d="M698.55,-391.4C691.81,-382.96 683.09,-372.07 675.45,-362.52"/>
<polygon fill="midnightblue" stroke="midnightblue" points="678.08,-360.2 669.1,-354.58 672.61,-364.57 678.08,-360.2"/>
</g>
<!-- Node16 -->
<g id="node16" class="node">
<title>Node16</title>
<g id="a_node16"><a xlink:href="JKRHeap_8h.html" target="_top" xlink:title=" ">
<polygon fill="white" stroke="black" points="521.84,-257.5 521.84,-287.5 657.84,-287.5 657.84,-257.5 521.84,-257.5"/>
<text text-anchor="start" x="529.84" y="-275.5" font-family="Helvetica,sans-Serif" font-size="10.00">JSystem/JKernel/JKRHeap</text>
<text text-anchor="middle" x="589.84" y="-264.5" font-family="Helvetica,sans-Serif" font-size="10.00">/JKRHeap.h</text>
</a>
</g>
</g>
<!-- Node1&#45;&gt;Node16 -->
<g id="edge35" class="edge">
<title>Node1&#45;&gt;Node16</title>
<path fill="none" stroke="midnightblue" d="M655.25,-400.21C625.64,-394.24 591.39,-381.62 572.84,-355 560.91,-337.89 567.83,-314.18 576.13,-296.74"/>
<polygon fill="midnightblue" stroke="midnightblue" points="579.28,-298.27 580.78,-287.78 573.07,-295.05 579.28,-298.27"/>
</g>
<!-- Node17 -->
<g id="node17" class="node">
<title>Node17</title>
<g id="a_node17"><a xlink:href="JKRFileFinder_8h.html" target="_top" xlink:title=" ">
<polygon fill="white" stroke="black" points="790.34,-123.5 790.34,-153.5 945.34,-153.5 945.34,-123.5 790.34,-123.5"/>
<text text-anchor="start" x="798.34" y="-141.5" font-family="Helvetica,sans-Serif" font-size="10.00">JSystem/JKernel/JKRFileFinder</text>
<text text-anchor="middle" x="867.84" y="-130.5" font-family="Helvetica,sans-Serif" font-size="10.00">/JKRFileFinder.h</text>
</a>
</g>
</g>
<!-- Node1&#45;&gt;Node17 -->
<g id="edge32" class="edge">
<title>Node1&#45;&gt;Node17</title>
<path fill="none" stroke="midnightblue" d="M734.02,-391.4C747.75,-382.4 764.42,-369.7 775.84,-355 823.02,-294.27 850.69,-205.72 861.93,-163.55"/>
<polygon fill="midnightblue" stroke="midnightblue" points="865.38,-164.2 864.5,-153.64 858.6,-162.45 865.38,-164.2"/>
</g>
<!-- Node18 -->
<g id="node18" class="node">
<title>Node18</title>
<g id="a_node18"><a xlink:href="string_8h.html" target="_top" xlink:title=" ">
<polygon fill="white" stroke="black" points="899.34,-62 899.34,-81 976.34,-81 976.34,-62 899.34,-62"/>
<text text-anchor="middle" x="937.84" y="-69" font-family="Helvetica,sans-Serif" font-size="10.00">msl_c/string.h</text>
</a>
</g>
</g>
<!-- Node1&#45;&gt;Node18 -->
<g id="edge38" class="edge">
<title>Node1&#45;&gt;Node18</title>
<path fill="none" stroke="midnightblue" d="M764.54,-402.03C841.86,-393.83 973.84,-366.25 973.84,-273.5 973.84,-273.5 973.84,-273.5 973.84,-204.5 973.84,-162.52 956.67,-115.58 946.05,-90.55"/>
<polygon fill="midnightblue" stroke="midnightblue" points="949.19,-88.99 941.97,-81.24 942.78,-91.8 949.19,-88.99"/>
</g>
<!-- Node19 -->
<g id="node19" class="node">
<title>Node19</title>
<g id="a_node19"><a xlink:title=" ">
<polygon fill="white" stroke="#bfbfbf" points="1001.84,-324.5 1001.84,-354.5 1157.84,-354.5 1157.84,-324.5 1001.84,-324.5"/>
<text text-anchor="start" x="1009.84" y="-342.5" font-family="Helvetica,sans-Serif" font-size="10.00">JSystem/JKernel/JKRFileCache</text>
<text text-anchor="middle" x="1079.84" y="-331.5" font-family="Helvetica,sans-Serif" font-size="10.00">/asm/func_802D4D44.s</text>
</a>
</g>
</g>
<!-- Node1&#45;&gt;Node19 -->
<g id="edge40" class="edge">
<title>Node1&#45;&gt;Node19</title>
<path fill="none" stroke="midnightblue" d="M764.43,-395.91C824.21,-385.41 920.95,-368.41 991.54,-356.01"/>
<polygon fill="midnightblue" stroke="midnightblue" points="992.52,-359.39 1001.76,-354.22 991.31,-352.5 992.52,-359.39"/>
</g>
<!-- Node20 -->
<g id="node20" class="node">
<title>Node20</title>
<g id="a_node20"><a xlink:title=" ">
<polygon fill="white" stroke="#bfbfbf" points="1175.84,-324.5 1175.84,-354.5 1331.84,-354.5 1331.84,-324.5 1175.84,-324.5"/>
<text text-anchor="start" x="1183.84" y="-342.5" font-family="Helvetica,sans-Serif" font-size="10.00">JSystem/JKernel/JKRFileCache</text>
<text text-anchor="middle" x="1253.84" y="-331.5" font-family="Helvetica,sans-Serif" font-size="10.00">/asm/func_802D50D4.s</text>
</a>
</g>
</g>
<!-- Node1&#45;&gt;Node20 -->
<g id="edge41" class="edge">
<title>Node1&#45;&gt;Node20</title>
<path fill="none" stroke="midnightblue" d="M764.47,-400.44C848.47,-392.46 1014.61,-375.8 1165.68,-355.11"/>
<polygon fill="midnightblue" stroke="midnightblue" points="1166.18,-358.58 1175.61,-353.75 1165.23,-351.64 1166.18,-358.58"/>
</g>
<!-- Node3 -->
<g id="node3" class="node">
<title>Node3</title>
<g id="a_node3"><a xlink:href="JKRFileLoader_8h.html" target="_top" xlink:title=" ">
<polygon fill="white" stroke="black" points="22.84,-190.5 22.84,-220.5 180.84,-220.5 180.84,-190.5 22.84,-190.5"/>
<text text-anchor="start" x="30.84" y="-208.5" font-family="Helvetica,sans-Serif" font-size="10.00">JSystem/JKernel/JKRFileLoader</text>
<text text-anchor="middle" x="101.84" y="-197.5" font-family="Helvetica,sans-Serif" font-size="10.00">/JKRFileLoader.h</text>
</a>
</g>
</g>
<!-- Node2&#45;&gt;Node3 -->
<g id="edge2" class="edge">
<title>Node2&#45;&gt;Node3</title>
<path fill="none" stroke="midnightblue" d="M101.84,-257.4C101.84,-249.64 101.84,-239.81 101.84,-230.86"/>
<polygon fill="midnightblue" stroke="midnightblue" points="105.34,-230.58 101.84,-220.58 98.34,-230.58 105.34,-230.58"/>
</g>
<!-- Node6 -->
<g id="node6" class="node">
<title>Node6</title>
<g id="a_node6"><a xlink:href="types_8h.html" target="_top" xlink:title=" ">
<polygon fill="white" stroke="black" points="408.34,-0.5 408.34,-19.5 489.34,-19.5 489.34,-0.5 408.34,-0.5"/>
<text text-anchor="middle" x="448.84" y="-7.5" font-family="Helvetica,sans-Serif" font-size="10.00">dolphin/types.h</text>
</a>
</g>
</g>
<!-- Node2&#45;&gt;Node6 -->
<g id="edge8" class="edge">
<title>Node2&#45;&gt;Node6</title>
<path fill="none" stroke="midnightblue" d="M58.09,-257.32C41.16,-249.45 23.55,-237.77 13.84,-221 -27.36,-149.86 31.61,-104.01 112.84,-56 160.03,-28.11 316.45,-16.98 398.15,-12.99"/>
<polygon fill="midnightblue" stroke="midnightblue" points="398.38,-16.48 408.21,-12.51 398.05,-9.49 398.38,-16.48"/>
</g>
<!-- Node4 -->
<g id="node4" class="node">
<title>Node4</title>
<g id="a_node4"><a xlink:href="JKRDisposer_8h.html" target="_top" xlink:title=" ">
<polygon fill="white" stroke="black" points="133.34,-123.5 133.34,-153.5 284.34,-153.5 284.34,-123.5 133.34,-123.5"/>
<text text-anchor="start" x="141.34" y="-141.5" font-family="Helvetica,sans-Serif" font-size="10.00">JSystem/JKernel/JKRDisposer</text>
<text text-anchor="middle" x="208.84" y="-130.5" font-family="Helvetica,sans-Serif" font-size="10.00">/JKRDisposer.h</text>
</a>
</g>
</g>
<!-- Node3&#45;&gt;Node4 -->
<g id="edge3" class="edge">
<title>Node3&#45;&gt;Node4</title>
<path fill="none" stroke="midnightblue" d="M125.05,-190.4C140.2,-181.2 160.17,-169.07 176.81,-158.95"/>
<polygon fill="midnightblue" stroke="midnightblue" points="178.93,-161.76 185.66,-153.58 175.3,-155.78 178.93,-161.76"/>
</g>
<!-- Node3&#45;&gt;Node6 -->
<g id="edge7" class="edge">
<title>Node3&#45;&gt;Node6</title>
<path fill="none" stroke="midnightblue" d="M100.53,-190.08C98.7,-160.15 99.18,-91.17 137.84,-56 175,-22.18 319.74,-13.73 397.97,-11.65"/>
<polygon fill="midnightblue" stroke="midnightblue" points="398.18,-15.15 408.09,-11.41 398.01,-8.15 398.18,-15.15"/>
</g>
<!-- Node5 -->
<g id="node5" class="node">
<title>Node5</title>
<g id="a_node5"><a xlink:href="JSUList_8h.html" target="_top" xlink:title=" ">
<polygon fill="white" stroke="black" points="155.84,-56.5 155.84,-86.5 291.84,-86.5 291.84,-56.5 155.84,-56.5"/>
<text text-anchor="start" x="163.84" y="-74.5" font-family="Helvetica,sans-Serif" font-size="10.00">JSystem/JSupport/JSUList</text>
<text text-anchor="middle" x="223.84" y="-63.5" font-family="Helvetica,sans-Serif" font-size="10.00">/JSUList.h</text>
</a>
</g>
</g>
<!-- Node4&#45;&gt;Node5 -->
<g id="edge4" class="edge">
<title>Node4&#45;&gt;Node5</title>
<path fill="none" stroke="midnightblue" d="M212.09,-123.4C213.9,-115.56 216.2,-105.6 218.28,-96.57"/>
<polygon fill="midnightblue" stroke="midnightblue" points="221.75,-97.11 220.59,-86.58 214.93,-95.53 221.75,-97.11"/>
</g>
<!-- Node4&#45;&gt;Node6 -->
<g id="edge6" class="edge">
<title>Node4&#45;&gt;Node6</title>
<path fill="none" stroke="midnightblue" d="M184.98,-123.25C160.13,-106.65 127.33,-78.62 146.84,-56 178.68,-19.06 320.74,-11.98 398.15,-10.91"/>
<polygon fill="midnightblue" stroke="midnightblue" points="398.21,-14.41 408.17,-10.8 398.13,-7.41 398.21,-14.41"/>
</g>
<!-- Node5&#45;&gt;Node6 -->
<g id="edge5" class="edge">
<title>Node5&#45;&gt;Node6</title>
<path fill="none" stroke="midnightblue" d="M276.87,-56.47C316.54,-45.99 370.04,-31.84 406.78,-22.12"/>
<polygon fill="midnightblue" stroke="midnightblue" points="407.9,-25.45 416.67,-19.51 406.11,-18.68 407.9,-25.45"/>
</g>
<!-- Node7&#45;&gt;Node6 -->
<g id="edge13" class="edge">
<title>Node7&#45;&gt;Node6</title>
<path fill="none" stroke="midnightblue" d="M390.89,-257.42C386.59,-221.94 378.93,-126.65 408.84,-56 413.54,-44.88 422.14,-34.64 430.17,-26.74"/>
<polygon fill="midnightblue" stroke="midnightblue" points="432.85,-29.03 437.83,-19.68 428.11,-23.88 432.85,-29.03"/>
</g>
<!-- Node8 -->
<g id="node8" class="node">
<title>Node8</title>
<g id="a_node8"><a xlink:href="JKRFile_8h.html" target="_top" xlink:title=" ">
<polygon fill="white" stroke="black" points="236.84,-190.5 236.84,-220.5 364.84,-220.5 364.84,-190.5 236.84,-190.5"/>
<text text-anchor="start" x="244.84" y="-208.5" font-family="Helvetica,sans-Serif" font-size="10.00">JSystem/JKernel/JKRFile</text>
<text text-anchor="middle" x="300.84" y="-197.5" font-family="Helvetica,sans-Serif" font-size="10.00">/JKRFile.h</text>
</a>
</g>
</g>
<!-- Node7&#45;&gt;Node8 -->
<g id="edge10" class="edge">
<title>Node7&#45;&gt;Node8</title>
<path fill="none" stroke="midnightblue" d="M372.87,-257.4C360.09,-248.37 343.32,-236.51 329.17,-226.52"/>
<polygon fill="midnightblue" stroke="midnightblue" points="330.95,-223.49 320.76,-220.58 326.91,-229.21 330.95,-223.49"/>
</g>
<!-- Node7&#45;&gt;Node9 -->
<g id="edge14" class="edge">
<title>Node7&#45;&gt;Node9</title>
<path fill="none" stroke="midnightblue" d="M431.77,-257.4C456.54,-248 489.07,-234.86 516.84,-221 598.37,-180.31 686.33,-116.3 724.42,-87.46"/>
<polygon fill="midnightblue" stroke="midnightblue" points="726.76,-90.08 732.6,-81.23 722.52,-84.51 726.76,-90.08"/>
</g>
<!-- Node7&#45;&gt;Node10 -->
<g id="edge16" class="edge">
<title>Node7&#45;&gt;Node10</title>
<path fill="none" stroke="midnightblue" d="M412.36,-257.4C427.32,-246.6 447.87,-231.76 462.91,-220.89"/>
<polygon fill="midnightblue" stroke="midnightblue" points="465,-223.7 471.06,-215.01 460.9,-218.02 465,-223.7"/>
</g>
<!-- Node8&#45;&gt;Node4 -->
<g id="edge11" class="edge">
<title>Node8&#45;&gt;Node4</title>
<path fill="none" stroke="midnightblue" d="M280.87,-190.4C268.09,-181.37 251.32,-169.51 237.17,-159.52"/>
<polygon fill="midnightblue" stroke="midnightblue" points="238.95,-156.49 228.76,-153.58 234.91,-162.21 238.95,-156.49"/>
</g>
<!-- Node8&#45;&gt;Node6 -->
<g id="edge12" class="edge">
<title>Node8&#45;&gt;Node6</title>
<path fill="none" stroke="midnightblue" d="M301.07,-190.35C302.3,-161.52 308.99,-95.42 343.84,-56 358.05,-39.92 379.01,-29.39 398.47,-22.6"/>
<polygon fill="midnightblue" stroke="midnightblue" points="399.73,-25.87 408.17,-19.47 397.58,-19.21 399.73,-25.87"/>
</g>
<!-- Node9&#45;&gt;Node6 -->
<g id="edge15" class="edge">
<title>Node9&#45;&gt;Node6</title>
<path fill="none" stroke="midnightblue" d="M719.81,-61.9C713.37,-59.79 706.39,-57.66 699.84,-56 631.38,-38.67 550.78,-25.47 499.75,-17.98"/>
<polygon fill="midnightblue" stroke="midnightblue" points="500.04,-14.48 489.64,-16.51 499.03,-21.41 500.04,-14.48"/>
</g>
<!-- Node10&#45;&gt;Node6 -->
<g id="edge17" class="edge">
<title>Node10&#45;&gt;Node6</title>
<path fill="none" stroke="midnightblue" d="M475.34,-195.86C459.96,-177.42 425.37,-132.22 414.84,-87 411.71,-73.58 410.46,-69.06 414.84,-56 418.44,-45.25 425.74,-35.02 432.65,-27.04"/>
<polygon fill="midnightblue" stroke="midnightblue" points="435.31,-29.32 439.55,-19.61 430.18,-24.56 435.31,-29.32"/>
</g>
<!-- Node11 -->
<g id="node11" class="node">
<title>Node11</title>
<g id="a_node11"><a xlink:href="AR_8h.html" target="_top" xlink:title=" ">
<polygon fill="white" stroke="black" points="424.34,-62 424.34,-81 473.34,-81 473.34,-62 424.34,-62"/>
<text text-anchor="middle" x="448.84" y="-69" font-family="Helvetica,sans-Serif" font-size="10.00">ar/AR.h</text>
</a>
</g>
</g>
<!-- Node10&#45;&gt;Node11 -->
<g id="edge18" class="edge">
<title>Node10&#45;&gt;Node11</title>
<path fill="none" stroke="midnightblue" d="M477.43,-195.94C471.56,-186.19 462.4,-169.59 457.84,-154 451.73,-133.13 449.7,-108.15 449.06,-91.39"/>
<polygon fill="midnightblue" stroke="midnightblue" points="452.56,-91.17 448.81,-81.26 445.56,-91.34 452.56,-91.17"/>
</g>
<!-- Node12 -->
<g id="node12" class="node">
<title>Node12</title>
<g id="a_node12"><a xlink:href="ARQ_8h.html" target="_top" xlink:title=" ">
<polygon fill="white" stroke="black" points="491.84,-62 491.84,-81 547.84,-81 547.84,-62 491.84,-62"/>
<text text-anchor="middle" x="519.84" y="-69" font-family="Helvetica,sans-Serif" font-size="10.00">ar/ARQ.h</text>
</a>
</g>
</g>
<!-- Node10&#45;&gt;Node12 -->
<g id="edge20" class="edge">
<title>Node10&#45;&gt;Node12</title>
<path fill="none" stroke="midnightblue" d="M482.51,-195.69C482.2,-180.48 482.69,-148.46 490.84,-123 494.62,-111.16 501.47,-99.04 507.55,-89.64"/>
<polygon fill="midnightblue" stroke="midnightblue" points="510.52,-91.5 513.25,-81.26 504.73,-87.56 510.52,-91.5"/>
</g>
<!-- Node13 -->
<g id="node13" class="node">
<title>Node13</title>
<g id="a_node13"><a xlink:href="mwcc_8h.html" target="_top" xlink:title=" ">
<polygon fill="white" stroke="black" points="499.84,-129 499.84,-148 549.84,-148 549.84,-129 499.84,-129"/>
<text text-anchor="middle" x="524.84" y="-136" font-family="Helvetica,sans-Serif" font-size="10.00">mwcc.h</text>
</a>
</g>
</g>
<!-- Node10&#45;&gt;Node13 -->
<g id="edge22" class="edge">
<title>Node10&#45;&gt;Node13</title>
<path fill="none" stroke="midnightblue" d="M488.5,-195.73C494.92,-185.79 505.56,-169.34 513.66,-156.79"/>
<polygon fill="midnightblue" stroke="midnightblue" points="516.77,-158.43 519.26,-148.13 510.89,-154.63 516.77,-158.43"/>
</g>
<!-- Node14 -->
<g id="node14" class="node">
<title>Node14</title>
<g id="a_node14"><a xlink:href="OS_8h.html" target="_top" xlink:title=" ">
<polygon fill="white" stroke="black" points="567.84,-129 567.84,-148 619.84,-148 619.84,-129 567.84,-129"/>
<text text-anchor="middle" x="593.84" y="-136" font-family="Helvetica,sans-Serif" font-size="10.00">os/OS.h</text>
</a>
</g>
</g>
<!-- Node10&#45;&gt;Node14 -->
<g id="edge23" class="edge">
<title>Node10&#45;&gt;Node14</title>
<path fill="none" stroke="midnightblue" d="M497.81,-195.73C516.45,-184.82 548.5,-166.05 570.4,-153.22"/>
<polygon fill="midnightblue" stroke="midnightblue" points="572.24,-156.2 579.1,-148.13 568.7,-150.16 572.24,-156.2"/>
</g>
<!-- Node11&#45;&gt;Node6 -->
<g id="edge19" class="edge">
<title>Node11&#45;&gt;Node6</title>
<path fill="none" stroke="midnightblue" d="M448.84,-61.98C448.84,-53.58 448.84,-40.48 448.84,-29.66"/>
<polygon fill="midnightblue" stroke="midnightblue" points="452.34,-29.51 448.84,-19.51 445.34,-29.51 452.34,-29.51"/>
</g>
<!-- Node12&#45;&gt;Node6 -->
<g id="edge21" class="edge">
<title>Node12&#45;&gt;Node6</title>
<path fill="none" stroke="midnightblue" d="M509.66,-61.98C498.49,-52.61 480.32,-37.38 466.74,-26.01"/>
<polygon fill="midnightblue" stroke="midnightblue" points="468.9,-23.25 458.99,-19.51 464.41,-28.61 468.9,-23.25"/>
</g>
<!-- Node14&#45;&gt;Node6 -->
<g id="edge24" class="edge">
<title>Node14&#45;&gt;Node6</title>
<path fill="none" stroke="midnightblue" d="M592.07,-128.66C588.36,-112.23 578.26,-76.76 556.84,-56 540.48,-40.15 517.72,-29.55 497.32,-22.64"/>
<polygon fill="midnightblue" stroke="midnightblue" points="498.12,-19.22 487.53,-19.54 496.01,-25.9 498.12,-19.22"/>
</g>
<!-- Node14&#45;&gt;Node9 -->
<g id="edge25" class="edge">
<title>Node14&#45;&gt;Node9</title>
<path fill="none" stroke="midnightblue" d="M613.75,-128.87C639.53,-117.7 684.65,-98.15 714.39,-85.26"/>
<polygon fill="midnightblue" stroke="midnightblue" points="716.05,-88.35 723.83,-81.17 713.27,-81.93 716.05,-88.35"/>
</g>
<!-- Node15&#45;&gt;Node6 -->
<g id="edge31" class="edge">
<title>Node15&#45;&gt;Node6</title>
<path fill="none" stroke="midnightblue" d="M662.84,-324.45C670.9,-300.55 685.84,-250.31 685.84,-206.5 685.84,-206.5 685.84,-206.5 685.84,-137.5 685.84,-53.88 569.58,-25.34 499.92,-15.74"/>
<polygon fill="midnightblue" stroke="midnightblue" points="499.94,-12.22 489.58,-14.41 499.05,-19.16 499.94,-12.22"/>
</g>
<!-- Node15&#45;&gt;Node16 -->
<g id="edge27" class="edge">
<title>Node15&#45;&gt;Node16</title>
<path fill="none" stroke="midnightblue" d="M643.08,-324.4C633.99,-315.71 622.17,-304.4 611.97,-294.66"/>
<polygon fill="midnightblue" stroke="midnightblue" points="614.21,-291.96 604.56,-287.58 609.37,-297.02 614.21,-291.96"/>
</g>
<!-- Node16&#45;&gt;Node4 -->
<g id="edge28" class="edge">
<title>Node16&#45;&gt;Node4</title>
<path fill="none" stroke="midnightblue" d="M521.53,-262.46C417.37,-248.61 230.54,-223.47 227.84,-221 212.14,-206.67 208.18,-182.1 207.67,-163.68"/>
<polygon fill="midnightblue" stroke="midnightblue" points="211.17,-163.68 207.7,-153.66 204.17,-163.65 211.17,-163.68"/>
</g>
<!-- Node16&#45;&gt;Node6 -->
<g id="edge29" class="edge">
<title>Node16&#45;&gt;Node6</title>
<path fill="none" stroke="midnightblue" d="M598.82,-257.45C614.6,-230.93 644.25,-171.8 628.84,-123 617.88,-88.31 610.95,-77.8 581.84,-56 557.7,-37.93 525.83,-26.81 499.35,-20.15"/>
<polygon fill="midnightblue" stroke="midnightblue" points="500.02,-16.72 489.49,-17.81 498.41,-23.53 500.02,-16.72"/>
</g>
<!-- Node16&#45;&gt;Node10 -->
<g id="edge30" class="edge">
<title>Node16&#45;&gt;Node10</title>
<path fill="none" stroke="midnightblue" d="M566.62,-257.4C548.51,-246.39 523.5,-231.2 505.52,-220.28"/>
<polygon fill="midnightblue" stroke="midnightblue" points="507.2,-217.21 496.84,-215.01 503.57,-223.19 507.2,-217.21"/>
</g>
<!-- Node17&#45;&gt;Node6 -->
<g id="edge33" class="edge">
<title>Node17&#45;&gt;Node6</title>
<path fill="none" stroke="midnightblue" d="M857.7,-123.5C843.22,-104.66 814.68,-71.72 781.84,-56 733.11,-32.68 580.63,-19.55 500,-14.07"/>
<polygon fill="midnightblue" stroke="midnightblue" points="499.8,-10.55 489.59,-13.38 499.33,-17.54 499.8,-10.55"/>
</g>
<!-- Node17&#45;&gt;Node9 -->
<g id="edge34" class="edge">
<title>Node17&#45;&gt;Node9</title>
<path fill="none" stroke="midnightblue" d="M840.93,-123.4C819.56,-112.19 789.89,-96.64 768.99,-85.69"/>
<polygon fill="midnightblue" stroke="midnightblue" points="770.55,-82.55 760.06,-81.01 767.3,-88.75 770.55,-82.55"/>
</g>
<!-- Node18&#45;&gt;Node6 -->
<g id="edge39" class="edge">
<title>Node18&#45;&gt;Node6</title>
<path fill="none" stroke="midnightblue" d="M898.91,-63.73C883.36,-61.14 865.28,-58.26 848.84,-56 723.7,-38.78 575.87,-23.44 499.77,-15.91"/>
<polygon fill="midnightblue" stroke="midnightblue" points="499.81,-12.4 489.52,-14.91 499.12,-19.37 499.81,-12.4"/>
</g>
</g>
</svg>
