<?xml version="1.0" encoding="UTF-8" standalone="no"?>
<!DOCTYPE svg PUBLIC "-//W3C//DTD SVG 1.1//EN"
 "http://www.w3.org/Graphics/SVG/1.1/DTD/svg11.dtd">
<!-- Generated by graphviz version 2.44.0 ()
 -->
<!-- Title: libs/JSystem/JKernel/JKRFileFinder.cpp Pages: 1 -->
<!--zoomable 497 -->
<svg id="main" version="1.1" xmlns="http://www.w3.org/2000/svg" xmlns:xlink="http://www.w3.org/1999/xlink" xml:space="preserve" onload="init(evt)">
<style type="text/css"><![CDATA[
.edge:hover path { stroke: red; }
.edge:hover polygon { stroke: red; fill: red; }
]]></style>
<script type="text/javascript"><![CDATA[
var edges = document.getElementsByTagName('g');
if (edges && edges.length) {
  for (var i=0;i<edges.length;i++) {
    if (edges[i].id.substr(0,4)=='edge') {
      edges[i].setAttribute('class','edge');
    }
  }
}
]]></script>
        <defs>
                <circle id="rim" cx="0" cy="0" r="7"/>
                <circle id="rim2" cx="0" cy="0" r="3.5"/>
                <g id="zoomPlus">
                        <use xlink:href="#rim" fill="#404040">
                                <set attributeName="fill" to="#808080" begin="zoomplus.mouseover" end="zoomplus.mouseout"/>
                        </use>
                        <path d="M-4,0h8M0,-4v8" fill="none" stroke="white" stroke-width="1.5" pointer-events="none"/>
                </g>
                <g id="zoomMin">
                        <use xlink:href="#rim" fill="#404040">
                                <set attributeName="fill" to="#808080" begin="zoomminus.mouseover" end="zoomminus.mouseout"/>
                        </use>
                        <path d="M-4,0h8" fill="none" stroke="white" stroke-width="1.5" pointer-events="none"/>
                </g>
                <g id="dirArrow">
                        <path fill="none" stroke="white" stroke-width="1.5" d="M0,-3.0v7 M-2.5,-0.5L0,-3.0L2.5,-0.5"/>
                </g>
               <g id="resetDef">
                       <use xlink:href="#rim2" fill="#404040">
                               <set attributeName="fill" to="#808080" begin="reset.mouseover" end="reset.mouseout"/>
                       </use>
               </g>
        </defs>

<script type="text/javascript">
var viewWidth = 1112;
var viewHeight = 497;
var sectionId = 'dynsection-0';
</script>
<script xlink:href="svgpan.js"/>
<svg id="graph" class="graph">
<g id="viewport">
<title>libs/JSystem/JKernel/JKRFileFinder.cpp</title>
<polygon fill="white" stroke="transparent" points="-4,4 -4,-493 1108,-493 1108,4 -4,4"/>
<!-- Node1 -->
<g id="node1" class="node">
<title>Node1</title>
<g id="a_node1"><a xlink:title=" ">
<polygon fill="#bfbfbf" stroke="black" points="457,-458.5 457,-488.5 566,-488.5 566,-458.5 457,-458.5"/>
<text text-anchor="start" x="465" y="-476.5" font-family="Helvetica,sans-Serif" font-size="10.00">libs/JSystem/JKernel</text>
<text text-anchor="middle" x="511.5" y="-465.5" font-family="Helvetica,sans-Serif" font-size="10.00">/JKRFileFinder.cpp</text>
</a>
</g>
</g>
<!-- Node2 -->
<g id="node2" class="node">
<title>Node2</title>
<g id="a_node2"><a xlink:href="JKRFileFinder_8h.html" target="_top" xlink:title=" ">
<polygon fill="white" stroke="black" points="0,-123.5 0,-153.5 155,-153.5 155,-123.5 0,-123.5"/>
<text text-anchor="start" x="8" y="-141.5" font-family="Helvetica,sans-Serif" font-size="10.00">JSystem/JKernel/JKRFileFinder</text>
<text text-anchor="middle" x="77.5" y="-130.5" font-family="Helvetica,sans-Serif" font-size="10.00">/JKRFileFinder.h</text>
</a>
</g>
</g>
<!-- Node1&#45;&gt;Node2 -->
<g id="edge1" class="edge">
<title>Node1&#45;&gt;Node2</title>
<path fill="none" stroke="midnightblue" d="M456.73,-469.61C372.67,-464.31 216.59,-450.84 169.5,-422 131.59,-398.78 111.5,-384.96 111.5,-340.5 111.5,-340.5 111.5,-340.5 111.5,-271.5 111.5,-232.64 97.51,-189.33 87.48,-163.26"/>
<polygon fill="midnightblue" stroke="midnightblue" points="90.68,-161.84 83.74,-153.84 84.18,-164.42 90.68,-161.84"/>
</g>
<!-- Node4 -->
<g id="node4" class="node">
<title>Node4</title>
<g id="a_node4"><a xlink:href="dvd_8h.html" target="_top" xlink:title=" ">
<polygon fill="white" stroke="black" points="157,-62 157,-81 216,-81 216,-62 157,-62"/>
<text text-anchor="middle" x="186.5" y="-69" font-family="Helvetica,sans-Serif" font-size="10.00">dvd/dvd.h</text>
</a>
</g>
</g>
<!-- Node1&#45;&gt;Node4 -->
<g id="edge33" class="edge">
<title>Node1&#45;&gt;Node4</title>
<path fill="none" stroke="midnightblue" d="M456.97,-462.26C363.7,-443.16 183.5,-398.74 183.5,-340.5 183.5,-340.5 183.5,-340.5 183.5,-204.5 183.5,-164.15 184.92,-116.87 185.8,-91.28"/>
<polygon fill="midnightblue" stroke="midnightblue" points="189.31,-91.27 186.17,-81.15 182.31,-91.02 189.31,-91.27"/>
</g>
<!-- Node5 -->
<g id="node5" class="node">
<title>Node5</title>
<g id="a_node5"><a xlink:href="JKRArchive_8h.html" target="_top" xlink:title=" ">
<polygon fill="white" stroke="black" points="438.5,-391.5 438.5,-421.5 584.5,-421.5 584.5,-391.5 438.5,-391.5"/>
<text text-anchor="start" x="446.5" y="-409.5" font-family="Helvetica,sans-Serif" font-size="10.00">JSystem/JKernel/JKRArchive</text>
<text text-anchor="middle" x="511.5" y="-398.5" font-family="Helvetica,sans-Serif" font-size="10.00">/JKRArchive.h</text>
</a>
</g>
</g>
<!-- Node1&#45;&gt;Node5 -->
<g id="edge5" class="edge">
<title>Node1&#45;&gt;Node5</title>
<path fill="none" stroke="midnightblue" d="M511.5,-458.4C511.5,-450.64 511.5,-440.81 511.5,-431.86"/>
<polygon fill="midnightblue" stroke="midnightblue" points="515,-431.58 511.5,-421.58 508,-431.58 515,-431.58"/>
</g>
<!-- Node12 -->
<g id="node12" class="node">
<title>Node12</title>
<g id="a_node12"><a xlink:href="global_8h.html" target="_top" xlink:title=" ">
<polygon fill="white" stroke="black" points="304.5,-196 304.5,-215 354.5,-215 354.5,-196 304.5,-196"/>
<text text-anchor="middle" x="329.5" y="-203" font-family="Helvetica,sans-Serif" font-size="10.00">global.h</text>
</a>
</g>
</g>
<!-- Node1&#45;&gt;Node12 -->
<g id="edge34" class="edge">
<title>Node1&#45;&gt;Node12</title>
<path fill="none" stroke="midnightblue" d="M482.7,-458.32C466.08,-449.3 445.38,-436.59 429.5,-422 374.98,-371.89 354.09,-358.19 330.5,-288 323.61,-267.51 324.59,-242.46 326.5,-225.58"/>
<polygon fill="midnightblue" stroke="midnightblue" points="330.01,-225.74 327.88,-215.36 323.07,-224.8 330.01,-225.74"/>
</g>
<!-- Node18 -->
<g id="node18" class="node">
<title>Node18</title>
<g id="a_node18"><a xlink:title=" ">
<polygon fill="white" stroke="#bfbfbf" points="603,-391.5 603,-421.5 758,-421.5 758,-391.5 603,-391.5"/>
<text text-anchor="start" x="611" y="-409.5" font-family="Helvetica,sans-Serif" font-size="10.00">JSystem/JKernel/JKRFileFinder</text>
<text text-anchor="middle" x="680.5" y="-398.5" font-family="Helvetica,sans-Serif" font-size="10.00">/asm/func_802D47F4.s</text>
</a>
</g>
</g>
<!-- Node1&#45;&gt;Node18 -->
<g id="edge35" class="edge">
<title>Node1&#45;&gt;Node18</title>
<path fill="none" stroke="midnightblue" d="M548.17,-458.4C573.42,-448.69 607.16,-435.71 634.25,-425.29"/>
<polygon fill="midnightblue" stroke="midnightblue" points="635.82,-428.43 643.9,-421.58 633.31,-421.9 635.82,-428.43"/>
</g>
<!-- Node19 -->
<g id="node19" class="node">
<title>Node19</title>
<g id="a_node19"><a xlink:title=" ">
<polygon fill="white" stroke="#bfbfbf" points="776,-391.5 776,-421.5 931,-421.5 931,-391.5 776,-391.5"/>
<text text-anchor="start" x="784" y="-409.5" font-family="Helvetica,sans-Serif" font-size="10.00">JSystem/JKernel/JKRFileFinder</text>
<text text-anchor="middle" x="853.5" y="-398.5" font-family="Helvetica,sans-Serif" font-size="10.00">/asm/func_802D4874.s</text>
</a>
</g>
</g>
<!-- Node1&#45;&gt;Node19 -->
<g id="edge36" class="edge">
<title>Node1&#45;&gt;Node19</title>
<path fill="none" stroke="midnightblue" d="M566.07,-462.13C620.94,-451.7 706.26,-435.48 769.71,-423.43"/>
<polygon fill="midnightblue" stroke="midnightblue" points="770.52,-426.83 779.69,-421.53 769.22,-419.96 770.52,-426.83"/>
</g>
<!-- Node20 -->
<g id="node20" class="node">
<title>Node20</title>
<g id="a_node20"><a xlink:title=" ">
<polygon fill="white" stroke="#bfbfbf" points="949,-391.5 949,-421.5 1104,-421.5 1104,-391.5 949,-391.5"/>
<text text-anchor="start" x="957" y="-409.5" font-family="Helvetica,sans-Serif" font-size="10.00">JSystem/JKernel/JKRFileFinder</text>
<text text-anchor="middle" x="1026.5" y="-398.5" font-family="Helvetica,sans-Serif" font-size="10.00">/asm/func_802D4958.s</text>
</a>
</g>
</g>
<!-- Node1&#45;&gt;Node20 -->
<g id="edge37" class="edge">
<title>Node1&#45;&gt;Node20</title>
<path fill="none" stroke="midnightblue" d="M566.13,-466.95C645.84,-458.66 798.93,-442 938.67,-422.22"/>
<polygon fill="midnightblue" stroke="midnightblue" points="939.3,-425.67 948.71,-420.79 938.32,-418.74 939.3,-425.67"/>
</g>
<!-- Node3 -->
<g id="node3" class="node">
<title>Node3</title>
<g id="a_node3"><a xlink:href="types_8h.html" target="_top" xlink:title=" ">
<polygon fill="white" stroke="black" points="452,-0.5 452,-19.5 533,-19.5 533,-0.5 452,-0.5"/>
<text text-anchor="middle" x="492.5" y="-7.5" font-family="Helvetica,sans-Serif" font-size="10.00">dolphin/types.h</text>
</a>
</g>
</g>
<!-- Node2&#45;&gt;Node3 -->
<g id="edge2" class="edge">
<title>Node2&#45;&gt;Node3</title>
<path fill="none" stroke="midnightblue" d="M85.09,-123.49C96.11,-104.65 118.46,-71.7 147.5,-56 197.24,-29.12 358.7,-17.49 441.91,-13.18"/>
<polygon fill="midnightblue" stroke="midnightblue" points="442.08,-16.68 451.9,-12.68 441.73,-9.68 442.08,-16.68"/>
</g>
<!-- Node2&#45;&gt;Node4 -->
<g id="edge3" class="edge">
<title>Node2&#45;&gt;Node4</title>
<path fill="none" stroke="midnightblue" d="M101.15,-123.4C119.68,-112.34 145.31,-97.06 163.64,-86.13"/>
<polygon fill="midnightblue" stroke="midnightblue" points="165.44,-89.13 172.23,-81.01 161.85,-83.12 165.44,-89.13"/>
</g>
<!-- Node4&#45;&gt;Node3 -->
<g id="edge4" class="edge">
<title>Node4&#45;&gt;Node3</title>
<path fill="none" stroke="midnightblue" d="M213.87,-61.98C221.18,-59.87 229.1,-57.72 236.5,-56 307.17,-39.59 390.05,-26.04 441.93,-18.24"/>
<polygon fill="midnightblue" stroke="midnightblue" points="442.5,-21.69 451.88,-16.75 441.47,-14.76 442.5,-21.69"/>
</g>
<!-- Node5&#45;&gt;Node3 -->
<g id="edge32" class="edge">
<title>Node5&#45;&gt;Node3</title>
<path fill="none" stroke="midnightblue" d="M581.39,-391.43C703.65,-365.85 943.5,-310.9 943.5,-273.5 943.5,-273.5 943.5,-273.5 943.5,-137.5 943.5,-55.21 661.61,-23.97 543.55,-14.49"/>
<polygon fill="midnightblue" stroke="midnightblue" points="543.56,-10.98 533.32,-13.69 543.02,-17.96 543.56,-10.98"/>
</g>
<!-- Node6 -->
<g id="node6" class="node">
<title>Node6</title>
<g id="a_node6"><a xlink:href="JKRDecomp_8h.html" target="_top" xlink:title=" ">
<polygon fill="white" stroke="black" points="437,-324.5 437,-354.5 586,-354.5 586,-324.5 437,-324.5"/>
<text text-anchor="start" x="445" y="-342.5" font-family="Helvetica,sans-Serif" font-size="10.00">JSystem/JKernel/JKRDecomp</text>
<text text-anchor="middle" x="511.5" y="-331.5" font-family="Helvetica,sans-Serif" font-size="10.00">/JKRDecomp.h</text>
</a>
</g>
</g>
<!-- Node5&#45;&gt;Node6 -->
<g id="edge6" class="edge">
<title>Node5&#45;&gt;Node6</title>
<path fill="none" stroke="midnightblue" d="M511.5,-391.4C511.5,-383.64 511.5,-373.81 511.5,-364.86"/>
<polygon fill="midnightblue" stroke="midnightblue" points="515,-364.58 511.5,-354.58 508,-364.58 515,-364.58"/>
</g>
<!-- Node8 -->
<g id="node8" class="node">
<title>Node8</title>
<g id="a_node8"><a xlink:href="SArc_8h.html" target="_top" xlink:title=" ">
<polygon fill="white" stroke="black" points="616,-196 616,-215 739,-215 739,-196 616,-196"/>
<text text-anchor="middle" x="677.5" y="-203" font-family="Helvetica,sans-Serif" font-size="10.00">JSystem/JKernel/SArc.h</text>
</a>
</g>
</g>
<!-- Node5&#45;&gt;Node8 -->
<g id="edge31" class="edge">
<title>Node5&#45;&gt;Node8</title>
<path fill="none" stroke="midnightblue" d="M569.26,-391.39C620.15,-375.55 691.22,-344.37 724.5,-288 738.04,-265.07 715.27,-238.29 696.95,-221.87"/>
<polygon fill="midnightblue" stroke="midnightblue" points="698.88,-218.91 688.99,-215.1 694.34,-224.24 698.88,-218.91"/>
</g>
<!-- Node17 -->
<g id="node17" class="node">
<title>Node17</title>
<g id="a_node17"><a xlink:href="JKRFileLoader_8h.html" target="_top" xlink:title=" ">
<polygon fill="white" stroke="black" points="757.5,-190.5 757.5,-220.5 915.5,-220.5 915.5,-190.5 757.5,-190.5"/>
<text text-anchor="start" x="765.5" y="-208.5" font-family="Helvetica,sans-Serif" font-size="10.00">JSystem/JKernel/JKRFileLoader</text>
<text text-anchor="middle" x="836.5" y="-197.5" font-family="Helvetica,sans-Serif" font-size="10.00">/JKRFileLoader.h</text>
</a>
</g>
</g>
<!-- Node5&#45;&gt;Node17 -->
<g id="edge28" class="edge">
<title>Node5&#45;&gt;Node17</title>
<path fill="none" stroke="midnightblue" d="M572.65,-391.4C615.29,-380.93 667.91,-366.52 687.5,-355 744.43,-321.52 795.28,-261.24 820.23,-228.73"/>
<polygon fill="midnightblue" stroke="midnightblue" points="823.05,-230.8 826.29,-220.72 817.47,-226.58 823.05,-230.8"/>
</g>
<!-- Node6&#45;&gt;Node3 -->
<g id="edge27" class="edge">
<title>Node6&#45;&gt;Node3</title>
<path fill="none" stroke="midnightblue" d="M511.5,-324.24C511.5,-300.03 511.5,-249.35 511.5,-206.5 511.5,-206.5 511.5,-206.5 511.5,-137.5 511.5,-98.77 502.68,-54.11 497.06,-29.57"/>
<polygon fill="midnightblue" stroke="midnightblue" points="500.39,-28.44 494.68,-19.52 493.58,-30.06 500.39,-28.44"/>
</g>
<!-- Node7 -->
<g id="node7" class="node">
<title>Node7</title>
<g id="a_node7"><a xlink:href="JKRCompression_8h.html" target="_top" xlink:title=" ">
<polygon fill="white" stroke="black" points="539,-263 539,-282 716,-282 716,-263 539,-263"/>
<text text-anchor="middle" x="627.5" y="-270" font-family="Helvetica,sans-Serif" font-size="10.00">JSystem/JKernel/JKRCompression.h</text>
</a>
</g>
</g>
<!-- Node6&#45;&gt;Node7 -->
<g id="edge7" class="edge">
<title>Node6&#45;&gt;Node7</title>
<path fill="none" stroke="midnightblue" d="M536.67,-324.4C556.48,-313.29 583.92,-297.92 603.44,-286.98"/>
<polygon fill="midnightblue" stroke="midnightblue" points="605.31,-289.95 612.32,-282.01 601.88,-283.84 605.31,-289.95"/>
</g>
<!-- Node9 -->
<g id="node9" class="node">
<title>Node9</title>
<g id="a_node9"><a xlink:href="JKRThread_8h.html" target="_top" xlink:title=" ">
<polygon fill="white" stroke="black" points="340,-257.5 340,-287.5 483,-287.5 483,-257.5 340,-257.5"/>
<text text-anchor="start" x="348" y="-275.5" font-family="Helvetica,sans-Serif" font-size="10.00">JSystem/JKernel/JKRThread</text>
<text text-anchor="middle" x="411.5" y="-264.5" font-family="Helvetica,sans-Serif" font-size="10.00">/JKRThread.h</text>
</a>
</g>
</g>
<!-- Node6&#45;&gt;Node9 -->
<g id="edge11" class="edge">
<title>Node6&#45;&gt;Node9</title>
<path fill="none" stroke="midnightblue" d="M489.8,-324.4C475.78,-315.28 457.33,-303.29 441.86,-293.24"/>
<polygon fill="midnightblue" stroke="midnightblue" points="443.45,-290.09 433.16,-287.58 439.63,-295.96 443.45,-290.09"/>
</g>
<!-- Node7&#45;&gt;Node3 -->
<g id="edge10" class="edge">
<title>Node7&#45;&gt;Node3</title>
<path fill="none" stroke="midnightblue" d="M623.61,-262.72C607.92,-227.35 548.91,-95.29 525.5,-56 519.67,-46.22 512.24,-35.94 505.91,-27.68"/>
<polygon fill="midnightblue" stroke="midnightblue" points="508.52,-25.33 499.59,-19.62 503.01,-29.65 508.52,-25.33"/>
</g>
<!-- Node7&#45;&gt;Node8 -->
<g id="edge8" class="edge">
<title>Node7&#45;&gt;Node8</title>
<path fill="none" stroke="midnightblue" d="M634.24,-262.73C642.04,-252.6 655.05,-235.69 664.76,-223.06"/>
<polygon fill="midnightblue" stroke="midnightblue" points="667.54,-225.19 670.86,-215.13 661.99,-220.92 667.54,-225.19"/>
</g>
<!-- Node8&#45;&gt;Node3 -->
<g id="edge9" class="edge">
<title>Node8&#45;&gt;Node3</title>
<path fill="none" stroke="midnightblue" d="M700.56,-195.96C718.5,-188 742.34,-174.3 754.5,-154 776.93,-116.57 788.69,-89.31 760.5,-56 733.25,-23.8 613.31,-14.63 543.46,-12.02"/>
<polygon fill="midnightblue" stroke="midnightblue" points="543.23,-8.51 533.12,-11.67 542.99,-15.51 543.23,-8.51"/>
</g>
<!-- Node9&#45;&gt;Node3 -->
<g id="edge16" class="edge">
<title>Node9&#45;&gt;Node3</title>
<path fill="none" stroke="midnightblue" d="M415.85,-257.49C429.51,-213.58 471.49,-78.56 486.82,-29.26"/>
<polygon fill="midnightblue" stroke="midnightblue" points="490.19,-30.21 489.82,-19.63 483.51,-28.14 490.19,-30.21"/>
</g>
<!-- Node10 -->
<g id="node10" class="node">
<title>Node10</title>
<g id="a_node10"><a xlink:href="JKRDisposer_8h.html" target="_top" xlink:title=" ">
<polygon fill="white" stroke="black" points="595,-123.5 595,-153.5 746,-153.5 746,-123.5 595,-123.5"/>
<text text-anchor="start" x="603" y="-141.5" font-family="Helvetica,sans-Serif" font-size="10.00">JSystem/JKernel/JKRDisposer</text>
<text text-anchor="middle" x="670.5" y="-130.5" font-family="Helvetica,sans-Serif" font-size="10.00">/JKRDisposer.h</text>
</a>
</g>
</g>
<!-- Node9&#45;&gt;Node10 -->
<g id="edge12" class="edge">
<title>Node9&#45;&gt;Node10</title>
<path fill="none" stroke="midnightblue" d="M439.22,-257.37C486.24,-233.41 581.65,-184.78 634.03,-158.09"/>
<polygon fill="midnightblue" stroke="midnightblue" points="635.66,-161.18 642.98,-153.52 632.48,-154.95 635.66,-161.18"/>
</g>
<!-- Node9&#45;&gt;Node12 -->
<g id="edge17" class="edge">
<title>Node9&#45;&gt;Node12</title>
<path fill="none" stroke="midnightblue" d="M393.71,-257.4C380.42,-246.86 362.27,-232.48 348.66,-221.69"/>
<polygon fill="midnightblue" stroke="midnightblue" points="350.48,-218.66 340.47,-215.19 346.13,-224.15 350.48,-218.66"/>
</g>
<!-- Node10&#45;&gt;Node3 -->
<g id="edge15" class="edge">
<title>Node10&#45;&gt;Node3</title>
<path fill="none" stroke="midnightblue" d="M653.05,-123.47C632.15,-106.84 595.89,-78.54 563.5,-56 547.78,-45.06 529.51,-33.51 515.45,-24.85"/>
<polygon fill="midnightblue" stroke="midnightblue" points="517.24,-21.84 506.88,-19.61 513.59,-27.81 517.24,-21.84"/>
</g>
<!-- Node11 -->
<g id="node11" class="node">
<title>Node11</title>
<g id="a_node11"><a xlink:href="JSUList_8h.html" target="_top" xlink:title=" ">
<polygon fill="white" stroke="black" points="615.5,-56.5 615.5,-86.5 751.5,-86.5 751.5,-56.5 615.5,-56.5"/>
<text text-anchor="start" x="623.5" y="-74.5" font-family="Helvetica,sans-Serif" font-size="10.00">JSystem/JSupport/JSUList</text>
<text text-anchor="middle" x="683.5" y="-63.5" font-family="Helvetica,sans-Serif" font-size="10.00">/JSUList.h</text>
</a>
</g>
</g>
<!-- Node10&#45;&gt;Node11 -->
<g id="edge13" class="edge">
<title>Node10&#45;&gt;Node11</title>
<path fill="none" stroke="midnightblue" d="M673.32,-123.4C674.89,-115.56 676.88,-105.6 678.69,-96.57"/>
<polygon fill="midnightblue" stroke="midnightblue" points="682.16,-97.07 680.68,-86.58 675.29,-95.7 682.16,-97.07"/>
</g>
<!-- Node11&#45;&gt;Node3 -->
<g id="edge14" class="edge">
<title>Node11&#45;&gt;Node3</title>
<path fill="none" stroke="midnightblue" d="M638.24,-56.4C605.09,-46.07 560.65,-32.23 529.6,-22.56"/>
<polygon fill="midnightblue" stroke="midnightblue" points="530.6,-19.2 520.01,-19.57 528.52,-25.89 530.6,-19.2"/>
</g>
<!-- Node12&#45;&gt;Node3 -->
<g id="edge18" class="edge">
<title>Node12&#45;&gt;Node3</title>
<path fill="none" stroke="midnightblue" d="M324.52,-195.65C311.22,-170.68 278.07,-98.76 311.5,-56 327.43,-35.62 393.98,-23.15 441.76,-16.66"/>
<polygon fill="midnightblue" stroke="midnightblue" points="442.49,-20.09 451.95,-15.32 441.58,-13.15 442.49,-20.09"/>
</g>
<!-- Node13 -->
<g id="node13" class="node">
<title>Node13</title>
<g id="a_node13"><a xlink:href="AR_8h.html" target="_top" xlink:title=" ">
<polygon fill="white" stroke="black" points="321,-62 321,-81 370,-81 370,-62 321,-62"/>
<text text-anchor="middle" x="345.5" y="-69" font-family="Helvetica,sans-Serif" font-size="10.00">ar/AR.h</text>
</a>
</g>
</g>
<!-- Node12&#45;&gt;Node13 -->
<g id="edge19" class="edge">
<title>Node12&#45;&gt;Node13</title>
<path fill="none" stroke="midnightblue" d="M330.55,-195.84C333.12,-174.67 339.75,-119.95 343.25,-91.03"/>
<polygon fill="midnightblue" stroke="midnightblue" points="346.74,-91.37 344.47,-81.02 339.79,-90.53 346.74,-91.37"/>
</g>
<!-- Node14 -->
<g id="node14" class="node">
<title>Node14</title>
<g id="a_node14"><a xlink:href="ARQ_8h.html" target="_top" xlink:title=" ">
<polygon fill="white" stroke="black" points="389.5,-62 389.5,-81 445.5,-81 445.5,-62 389.5,-62"/>
<text text-anchor="middle" x="417.5" y="-69" font-family="Helvetica,sans-Serif" font-size="10.00">ar/ARQ.h</text>
</a>
</g>
</g>
<!-- Node12&#45;&gt;Node14 -->
<g id="edge21" class="edge">
<title>Node12&#45;&gt;Node14</title>
<path fill="none" stroke="midnightblue" d="M354.69,-197.48C375.32,-190.25 403.2,-176.77 416.5,-154 427.68,-134.85 425.55,-108.62 422.21,-91.14"/>
<polygon fill="midnightblue" stroke="midnightblue" points="425.56,-90.08 419.98,-81.08 418.73,-91.6 425.56,-90.08"/>
</g>
<!-- Node15 -->
<g id="node15" class="node">
<title>Node15</title>
<g id="a_node15"><a xlink:href="mwcc_8h.html" target="_top" xlink:title=" ">
<polygon fill="white" stroke="black" points="357.5,-129 357.5,-148 407.5,-148 407.5,-129 357.5,-129"/>
<text text-anchor="middle" x="382.5" y="-136" font-family="Helvetica,sans-Serif" font-size="10.00">mwcc.h</text>
</a>
</g>
</g>
<!-- Node12&#45;&gt;Node15 -->
<g id="edge23" class="edge">
<title>Node12&#45;&gt;Node15</title>
<path fill="none" stroke="midnightblue" d="M336.65,-195.73C344.91,-185.6 358.7,-168.69 369,-156.06"/>
<polygon fill="midnightblue" stroke="midnightblue" points="371.86,-158.09 375.47,-148.13 366.43,-153.67 371.86,-158.09"/>
</g>
<!-- Node16 -->
<g id="node16" class="node">
<title>Node16</title>
<g id="a_node16"><a xlink:href="OS_8h.html" target="_top" xlink:title=" ">
<polygon fill="white" stroke="black" points="211.5,-129 211.5,-148 263.5,-148 263.5,-129 211.5,-129"/>
<text text-anchor="middle" x="237.5" y="-136" font-family="Helvetica,sans-Serif" font-size="10.00">os/OS.h</text>
</a>
</g>
</g>
<!-- Node12&#45;&gt;Node16 -->
<g id="edge24" class="edge">
<title>Node12&#45;&gt;Node16</title>
<path fill="none" stroke="midnightblue" d="M317.09,-195.73C301.92,-185.01 276.02,-166.72 257.9,-153.91"/>
<polygon fill="midnightblue" stroke="midnightblue" points="259.9,-151.04 249.71,-148.13 255.86,-156.76 259.9,-151.04"/>
</g>
<!-- Node13&#45;&gt;Node3 -->
<g id="edge20" class="edge">
<title>Node13&#45;&gt;Node3</title>
<path fill="none" stroke="midnightblue" d="M366.21,-61.88C370.91,-59.93 375.87,-57.89 380.5,-56 407.88,-44.83 439.11,-32.3 461.62,-23.3"/>
<polygon fill="midnightblue" stroke="midnightblue" points="463.01,-26.52 471,-19.56 460.42,-20.02 463.01,-26.52"/>
</g>
<!-- Node14&#45;&gt;Node3 -->
<g id="edge22" class="edge">
<title>Node14&#45;&gt;Node3</title>
<path fill="none" stroke="midnightblue" d="M428.25,-61.98C440.05,-52.61 459.24,-37.38 473.58,-26.01"/>
<polygon fill="midnightblue" stroke="midnightblue" points="476.12,-28.47 481.77,-19.51 471.76,-22.98 476.12,-28.47"/>
</g>
<!-- Node16&#45;&gt;Node3 -->
<g id="edge25" class="edge">
<title>Node16&#45;&gt;Node3</title>
<path fill="none" stroke="midnightblue" d="M239.15,-128.78C242.83,-111.89 253.35,-74.76 277.5,-56 302.66,-36.45 386.58,-23.25 441.83,-16.44"/>
<polygon fill="midnightblue" stroke="midnightblue" points="442.28,-19.91 451.79,-15.24 441.44,-12.96 442.28,-19.91"/>
</g>
<!-- Node16&#45;&gt;Node4 -->
<g id="edge26" class="edge">
<title>Node16&#45;&gt;Node4</title>
<path fill="none" stroke="midnightblue" d="M230.62,-128.73C222.67,-118.6 209.4,-101.69 199.49,-89.06"/>
<polygon fill="midnightblue" stroke="midnightblue" points="202.2,-86.83 193.27,-81.13 196.69,-91.16 202.2,-86.83"/>
</g>
<!-- Node17&#45;&gt;Node3 -->
<g id="edge30" class="edge">
<title>Node17&#45;&gt;Node3</title>
<path fill="none" stroke="midnightblue" d="M835.9,-190.4C833.82,-160.46 824.46,-90.49 782.5,-56 746.91,-26.74 616.87,-16.37 543.59,-12.79"/>
<polygon fill="midnightblue" stroke="midnightblue" points="543.36,-9.28 533.21,-12.31 543.04,-16.27 543.36,-9.28"/>
</g>
<!-- Node17&#45;&gt;Node10 -->
<g id="edge29" class="edge">
<title>Node17&#45;&gt;Node10</title>
<path fill="none" stroke="midnightblue" d="M800.48,-190.4C775.68,-180.69 742.54,-167.71 715.93,-157.29"/>
<polygon fill="midnightblue" stroke="midnightblue" points="717.04,-153.96 706.45,-153.58 714.48,-160.48 717.04,-153.96"/>
</g>
</g>
</svg>
        <g id="navigator" transform="translate(0 0)" fill="#404254">
                <rect fill="#f2f5e9" fill-opacity="0.5" stroke="#606060" stroke-width=".5" x="0" y="0" width="60" height="60"/>
                <use id="zoomplus" xlink:href="#zoomPlus" x="17" y="9" onmousedown="handleZoom(evt,'in')"/>
                <use id="zoomminus" xlink:href="#zoomMin" x="42" y="9" onmousedown="handleZoom(evt,'out')"/>
                <use id="reset" xlink:href="#resetDef" x="30" y="36" onmousedown="handleReset()"/>
                <g id="arrowUp" xlink:href="#dirArrow" transform="translate(30 24)" onmousedown="handlePan(0,-1)">
                  <use xlink:href="#rim" fill="#404040">
                        <set attributeName="fill" to="#808080" begin="arrowUp.mouseover" end="arrowUp.mouseout"/>
                  </use>
                  <path fill="none" stroke="white" stroke-width="1.5" d="M0,-3.0v7 M-2.5,-0.5L0,-3.0L2.5,-0.5"/>
                </g>
                <g id="arrowRight" xlink:href="#dirArrow" transform="rotate(90) translate(36 -43)" onmousedown="handlePan(1,0)">
                  <use xlink:href="#rim" fill="#404040">
                        <set attributeName="fill" to="#808080" begin="arrowRight.mouseover" end="arrowRight.mouseout"/>
                  </use>
                  <path fill="none" stroke="white" stroke-width="1.5" d="M0,-3.0v7 M-2.5,-0.5L0,-3.0L2.5,-0.5"/>
                </g>
                <g id="arrowDown" xlink:href="#dirArrow" transform="rotate(180) translate(-30 -48)" onmousedown="handlePan(0,1)">
                  <use xlink:href="#rim" fill="#404040">
                        <set attributeName="fill" to="#808080" begin="arrowDown.mouseover" end="arrowDown.mouseout"/>
                  </use>
                  <path fill="none" stroke="white" stroke-width="1.5" d="M0,-3.0v7 M-2.5,-0.5L0,-3.0L2.5,-0.5"/>
                </g>
                <g id="arrowLeft" xlink:href="#dirArrow" transform="rotate(270) translate(-36 17)" onmousedown="handlePan(-1,0)">
                  <use xlink:href="#rim" fill="#404040">
                        <set attributeName="fill" to="#808080" begin="arrowLeft.mouseover" end="arrowLeft.mouseout"/>
                  </use>
                  <path fill="none" stroke="white" stroke-width="1.5" d="M0,-3.0v7 M-2.5,-0.5L0,-3.0L2.5,-0.5"/>
                </g>
        </g>
        <svg viewBox="0 0 15 15" width="100%" height="30px" preserveAspectRatio="xMaxYMin meet">
         <g id="arrow_out" transform="scale(0.3 0.3)">
          <a xlink:href="JKRFileFinder_8cpp__incl_org.svg" target="_base">
           <rect id="button" ry="5" rx="5" y="6" x="6" height="38" width="38"
                fill="#f2f5e9" fill-opacity="0.5" stroke="#606060" stroke-width="1.0"/>
           <path id="arrow"
             d="M 11.500037,31.436501 C 11.940474,20.09759 22.043105,11.32322 32.158766,21.979434 L 37.068811,17.246167 C 37.068811,17.246167 37.088388,32 37.088388,32 L 22.160133,31.978069 C 22.160133,31.978069 26.997745,27.140456 26.997745,27.140456 C 18.528582,18.264221 13.291696,25.230495 11.500037,31.436501 z"
             style="fill:#404040;"/>
          </a>
         </g>
        </svg>
</svg>
