<?xml version="1.0" encoding="UTF-8" standalone="no"?>
<!DOCTYPE svg PUBLIC "-//W3C//DTD SVG 1.1//EN"
 "http://www.w3.org/Graphics/SVG/1.1/DTD/svg11.dtd">
<!-- Generated by graphviz version 2.44.0 ()
 -->
<!-- Title: include/JSystem/JKernel/JKRThread/JKRThread.h Pages: 1 -->
<svg width="516pt" height="285pt"
 viewBox="0.00 0.00 515.50 285.00" xmlns="http://www.w3.org/2000/svg" xmlns:xlink="http://www.w3.org/1999/xlink">
<g id="graph0" class="graph" transform="scale(1 1) rotate(0) translate(4 281)">
<title>include/JSystem/JKernel/JKRThread/JKRThread.h</title>
<polygon fill="white" stroke="transparent" points="-4,4 -4,-281 511.5,-281 511.5,4 -4,4"/>
<!-- Node1 -->
<g id="node1" class="node">
<title>Node1</title>
<g id="a_node1"><a xlink:title=" ">
<polygon fill="#bfbfbf" stroke="black" points="138,-246.5 138,-276.5 266,-276.5 266,-246.5 138,-246.5"/>
<text text-anchor="start" x="146" y="-264.5" font-family="Helvetica,sans-Serif" font-size="10.00">include/JSystem/JKernel</text>
<text text-anchor="middle" x="202" y="-253.5" font-family="Helvetica,sans-Serif" font-size="10.00">/JKRThread/JKRThread.h</text>
</a>
</g>
</g>
<!-- Node2 -->
<g id="node2" class="node">
<title>Node2</title>
<g id="a_node2"><a xlink:href="JKRDisposer_8h.html" target="_top" xlink:title=" ">
<polygon fill="white" stroke="black" points="22.5,-123.5 22.5,-153.5 173.5,-153.5 173.5,-123.5 22.5,-123.5"/>
<text text-anchor="start" x="30.5" y="-141.5" font-family="Helvetica,sans-Serif" font-size="10.00">JSystem/JKernel/JKRDisposer</text>
<text text-anchor="middle" x="98" y="-130.5" font-family="Helvetica,sans-Serif" font-size="10.00">/JKRDisposer.h</text>
</a>
</g>
</g>
<!-- Node1&#45;&gt;Node2 -->
<g id="edge1" class="edge">
<title>Node1&#45;&gt;Node2</title>
<path fill="none" stroke="midnightblue" d="M189.66,-246.14C171.68,-225.22 138.12,-186.17 116.98,-161.58"/>
<polygon fill="midnightblue" stroke="midnightblue" points="119.5,-159.14 110.32,-153.84 114.19,-163.7 119.5,-159.14"/>
</g>
<!-- Node4 -->
<g id="node4" class="node">
<title>Node4</title>
<g id="a_node4"><a xlink:href="types_8h.html" target="_top" xlink:title=" ">
<polygon fill="white" stroke="black" points="225.5,-0.5 225.5,-19.5 306.5,-19.5 306.5,-0.5 225.5,-0.5"/>
<text text-anchor="middle" x="266" y="-7.5" font-family="Helvetica,sans-Serif" font-size="10.00">dolphin/types.h</text>
</a>
</g>
</g>
<!-- Node1&#45;&gt;Node4 -->
<g id="edge5" class="edge">
<title>Node1&#45;&gt;Node4</title>
<path fill="none" stroke="midnightblue" d="M205.6,-246.11C213.97,-212.69 235.44,-127.26 254,-56 256.27,-47.29 258.84,-37.64 261.01,-29.51"/>
<polygon fill="midnightblue" stroke="midnightblue" points="264.46,-30.18 263.67,-19.62 257.69,-28.37 264.46,-30.18"/>
</g>
<!-- Node5 -->
<g id="node5" class="node">
<title>Node5</title>
<g id="a_node5"><a xlink:href="global_8h.html" target="_top" xlink:title=" ">
<polygon fill="white" stroke="black" points="279,-190.5 279,-209.5 329,-209.5 329,-190.5 279,-190.5"/>
<text text-anchor="middle" x="304" y="-197.5" font-family="Helvetica,sans-Serif" font-size="10.00">global.h</text>
</a>
</g>
</g>
<!-- Node1&#45;&gt;Node5 -->
<g id="edge6" class="edge">
<title>Node1&#45;&gt;Node5</title>
<path fill="none" stroke="midnightblue" d="M226.17,-246.4C242.52,-236.86 264.01,-224.32 280.27,-214.84"/>
<polygon fill="midnightblue" stroke="midnightblue" points="282.28,-217.72 289.16,-209.66 278.76,-211.67 282.28,-217.72"/>
</g>
<!-- Node3 -->
<g id="node3" class="node">
<title>Node3</title>
<g id="a_node3"><a xlink:href="JSUList_8h.html" target="_top" xlink:title=" ">
<polygon fill="white" stroke="black" points="0,-56.5 0,-86.5 136,-86.5 136,-56.5 0,-56.5"/>
<text text-anchor="start" x="8" y="-74.5" font-family="Helvetica,sans-Serif" font-size="10.00">JSystem/JSupport/JSUList</text>
<text text-anchor="middle" x="68" y="-63.5" font-family="Helvetica,sans-Serif" font-size="10.00">/JSUList.h</text>
</a>
</g>
</g>
<!-- Node2&#45;&gt;Node3 -->
<g id="edge2" class="edge">
<title>Node2&#45;&gt;Node3</title>
<path fill="none" stroke="midnightblue" d="M91.49,-123.4C87.76,-115.3 82.97,-104.94 78.7,-95.69"/>
<polygon fill="midnightblue" stroke="midnightblue" points="81.87,-94.19 74.5,-86.58 75.51,-97.12 81.87,-94.19"/>
</g>
<!-- Node2&#45;&gt;Node4 -->
<g id="edge4" class="edge">
<title>Node2&#45;&gt;Node4</title>
<path fill="none" stroke="midnightblue" d="M111.84,-123.23C128.85,-106.12 159.04,-77.1 188,-56 204.43,-44.03 224.29,-32.61 239.86,-24.27"/>
<polygon fill="midnightblue" stroke="midnightblue" points="241.71,-27.25 248.93,-19.5 238.45,-21.06 241.71,-27.25"/>
</g>
<!-- Node3&#45;&gt;Node4 -->
<g id="edge3" class="edge">
<title>Node3&#45;&gt;Node4</title>
<path fill="none" stroke="midnightblue" d="M114.67,-56.47C149.13,-46.12 195.46,-32.2 227.74,-22.5"/>
<polygon fill="midnightblue" stroke="midnightblue" points="229.12,-25.74 237.69,-19.51 227.11,-19.03 229.12,-25.74"/>
</g>
<!-- Node5&#45;&gt;Node4 -->
<g id="edge7" class="edge">
<title>Node5&#45;&gt;Node4</title>
<path fill="none" stroke="midnightblue" d="M299.18,-190.35C289.26,-172.01 266.84,-127.53 259,-87 255.23,-67.53 258.26,-44.85 261.43,-29.36"/>
<polygon fill="midnightblue" stroke="midnightblue" points="264.87,-30.04 263.67,-19.51 258.04,-28.49 264.87,-30.04"/>
</g>
<!-- Node6 -->
<g id="node6" class="node">
<title>Node6</title>
<g id="a_node6"><a xlink:href="AR_8h.html" target="_top" xlink:title=" ">
<polygon fill="white" stroke="black" points="268.5,-62 268.5,-81 317.5,-81 317.5,-62 268.5,-62"/>
<text text-anchor="middle" x="293" y="-69" font-family="Helvetica,sans-Serif" font-size="10.00">ar/AR.h</text>
</a>
</g>
</g>
<!-- Node5&#45;&gt;Node6 -->
<g id="edge8" class="edge">
<title>Node5&#45;&gt;Node6</title>
<path fill="none" stroke="midnightblue" d="M303.24,-190.31C301.48,-169.99 297.05,-119.05 294.63,-91.28"/>
<polygon fill="midnightblue" stroke="midnightblue" points="298.11,-90.91 293.76,-81.26 291.14,-91.52 298.11,-90.91"/>
</g>
<!-- Node7 -->
<g id="node7" class="node">
<title>Node7</title>
<g id="a_node7"><a xlink:href="ARQ_8h.html" target="_top" xlink:title=" ">
<polygon fill="white" stroke="black" points="336,-62 336,-81 392,-81 392,-62 336,-62"/>
<text text-anchor="middle" x="364" y="-69" font-family="Helvetica,sans-Serif" font-size="10.00">ar/ARQ.h</text>
</a>
</g>
</g>
<!-- Node5&#45;&gt;Node7 -->
<g id="edge10" class="edge">
<title>Node5&#45;&gt;Node7</title>
<path fill="none" stroke="midnightblue" d="M308.12,-190.31C317.84,-169.81 342.35,-118.15 355.44,-90.54"/>
<polygon fill="midnightblue" stroke="midnightblue" points="358.72,-91.79 359.85,-81.26 352.4,-88.79 358.72,-91.79"/>
</g>
<!-- Node8 -->
<g id="node8" class="node">
<title>Node8</title>
<g id="a_node8"><a xlink:href="mwcc_8h.html" target="_top" xlink:title=" ">
<polygon fill="white" stroke="black" points="351,-129 351,-148 401,-148 401,-129 351,-129"/>
<text text-anchor="middle" x="376" y="-136" font-family="Helvetica,sans-Serif" font-size="10.00">mwcc.h</text>
</a>
</g>
</g>
<!-- Node5&#45;&gt;Node8 -->
<g id="edge12" class="edge">
<title>Node5&#45;&gt;Node8</title>
<path fill="none" stroke="midnightblue" d="M314.32,-190.48C325.65,-181.11 344.07,-165.88 357.84,-154.51"/>
<polygon fill="midnightblue" stroke="midnightblue" points="360.22,-157.08 365.7,-148.01 355.77,-151.68 360.22,-157.08"/>
</g>
<!-- Node9 -->
<g id="node9" class="node">
<title>Node9</title>
<g id="a_node9"><a xlink:href="OS_8h.html" target="_top" xlink:title=" ">
<polygon fill="white" stroke="black" points="419,-129 419,-148 471,-148 471,-129 419,-129"/>
<text text-anchor="middle" x="445" y="-136" font-family="Helvetica,sans-Serif" font-size="10.00">os/OS.h</text>
</a>
</g>
</g>
<!-- Node5&#45;&gt;Node9 -->
<g id="edge13" class="edge">
<title>Node5&#45;&gt;Node9</title>
<path fill="none" stroke="midnightblue" d="M324.2,-190.48C348.07,-180.4 388,-163.55 415.37,-152"/>
<polygon fill="midnightblue" stroke="midnightblue" points="416.98,-155.12 424.84,-148.01 414.26,-148.67 416.98,-155.12"/>
</g>
<!-- Node6&#45;&gt;Node4 -->
<g id="edge9" class="edge">
<title>Node6&#45;&gt;Node4</title>
<path fill="none" stroke="midnightblue" d="M289.13,-61.98C285.2,-53.32 279,-39.65 274.01,-28.65"/>
<polygon fill="midnightblue" stroke="midnightblue" points="277.18,-27.17 269.86,-19.51 270.81,-30.06 277.18,-27.17"/>
</g>
<!-- Node7&#45;&gt;Node4 -->
<g id="edge11" class="edge">
<title>Node7&#45;&gt;Node4</title>
<path fill="none" stroke="midnightblue" d="M349.96,-61.98C333.95,-52.25 307.55,-36.23 288.63,-24.74"/>
<polygon fill="midnightblue" stroke="midnightblue" points="290.38,-21.71 280.01,-19.51 286.75,-27.69 290.38,-21.71"/>
</g>
<!-- Node9&#45;&gt;Node4 -->
<g id="edge14" class="edge">
<title>Node9&#45;&gt;Node4</title>
<path fill="none" stroke="midnightblue" d="M442.63,-128.75C437.7,-112.15 424.76,-75.96 401,-56 377.16,-35.97 344.08,-24.76 316.63,-18.53"/>
<polygon fill="midnightblue" stroke="midnightblue" points="317.31,-15.1 306.8,-16.46 315.86,-21.95 317.31,-15.1"/>
</g>
<!-- Node10 -->
<g id="node10" class="node">
<title>Node10</title>
<g id="a_node10"><a xlink:href="dvd_8h.html" target="_top" xlink:title=" ">
<polygon fill="white" stroke="black" points="448.5,-62 448.5,-81 507.5,-81 507.5,-62 448.5,-62"/>
<text text-anchor="middle" x="478" y="-69" font-family="Helvetica,sans-Serif" font-size="10.00">dvd/dvd.h</text>
</a>
</g>
</g>
<!-- Node9&#45;&gt;Node10 -->
<g id="edge15" class="edge">
<title>Node9&#45;&gt;Node10</title>
<path fill="none" stroke="midnightblue" d="M449.45,-128.73C454.45,-118.89 462.69,-102.66 469.03,-90.16"/>
<polygon fill="midnightblue" stroke="midnightblue" points="472.21,-91.63 473.62,-81.13 465.97,-88.46 472.21,-91.63"/>
</g>
<!-- Node10&#45;&gt;Node4 -->
<g id="edge16" class="edge">
<title>Node10&#45;&gt;Node4</title>
<path fill="none" stroke="midnightblue" d="M452.95,-61.97C446.77,-59.95 440.17,-57.84 434,-56 392.31,-43.56 344.32,-30.87 310.34,-22.15"/>
<polygon fill="midnightblue" stroke="midnightblue" points="310.82,-18.66 300.27,-19.57 309.09,-25.44 310.82,-18.66"/>
</g>
</g>
</svg>
