<?xml version="1.0" encoding="UTF-8" standalone="no"?>
<!DOCTYPE svg PUBLIC "-//W3C//DTD SVG 1.1//EN"
 "http://www.w3.org/Graphics/SVG/1.1/DTD/svg11.dtd">
<!-- Generated by graphviz version 2.44.0 ()
 -->
<!-- Title: libs/JSystem/JKernel/JKRThread.cpp Pages: 1 -->
<!--zoomable 419 -->
<svg id="main" version="1.1" xmlns="http://www.w3.org/2000/svg" xmlns:xlink="http://www.w3.org/1999/xlink" xml:space="preserve" onload="init(evt)">
<style type="text/css"><![CDATA[
.edge:hover path { stroke: red; }
.edge:hover polygon { stroke: red; fill: red; }
]]></style>
<script type="text/javascript"><![CDATA[
var edges = document.getElementsByTagName('g');
if (edges && edges.length) {
  for (var i=0;i<edges.length;i++) {
    if (edges[i].id.substr(0,4)=='edge') {
      edges[i].setAttribute('class','edge');
    }
  }
}
]]></script>
        <defs>
                <circle id="rim" cx="0" cy="0" r="7"/>
                <circle id="rim2" cx="0" cy="0" r="3.5"/>
                <g id="zoomPlus">
                        <use xlink:href="#rim" fill="#404040">
                                <set attributeName="fill" to="#808080" begin="zoomplus.mouseover" end="zoomplus.mouseout"/>
                        </use>
                        <path d="M-4,0h8M0,-4v8" fill="none" stroke="white" stroke-width="1.5" pointer-events="none"/>
                </g>
                <g id="zoomMin">
                        <use xlink:href="#rim" fill="#404040">
                                <set attributeName="fill" to="#808080" begin="zoomminus.mouseover" end="zoomminus.mouseout"/>
                        </use>
                        <path d="M-4,0h8" fill="none" stroke="white" stroke-width="1.5" pointer-events="none"/>
                </g>
                <g id="dirArrow">
                        <path fill="none" stroke="white" stroke-width="1.5" d="M0,-3.0v7 M-2.5,-0.5L0,-3.0L2.5,-0.5"/>
                </g>
               <g id="resetDef">
                       <use xlink:href="#rim2" fill="#404040">
                               <set attributeName="fill" to="#808080" begin="reset.mouseover" end="reset.mouseout"/>
                       </use>
               </g>
        </defs>

<script type="text/javascript">
var viewWidth = 1679;
var viewHeight = 419;
var sectionId = 'dynsection-0';
</script>
<script xlink:href="svgpan.js"/>
<svg id="graph" class="graph">
<g id="viewport">
<title>libs/JSystem/JKernel/JKRThread.cpp</title>
<polygon fill="white" stroke="transparent" points="-4,4 -4,-415 1674.84,-415 1674.84,4 -4,4"/>
<!-- Node1 -->
<g id="node1" class="node">
<title>Node1</title>
<g id="a_node1"><a xlink:title=" ">
<polygon fill="#bfbfbf" stroke="black" points="739.84,-380.5 739.84,-410.5 848.84,-410.5 848.84,-380.5 739.84,-380.5"/>
<text text-anchor="start" x="747.84" y="-398.5" font-family="Helvetica,sans-Serif" font-size="10.00">libs/JSystem/JKernel</text>
<text text-anchor="middle" x="794.34" y="-387.5" font-family="Helvetica,sans-Serif" font-size="10.00">/JKRThread.cpp</text>
</a>
</g>
</g>
<!-- Node2 -->
<g id="node2" class="node">
<title>Node2</title>
<g id="a_node2"><a xlink:href="JKRThread_8h.html" target="_top" xlink:title=" ">
<polygon fill="white" stroke="black" points="142.84,-246.5 142.84,-276.5 285.84,-276.5 285.84,-246.5 142.84,-246.5"/>
<text text-anchor="start" x="150.84" y="-264.5" font-family="Helvetica,sans-Serif" font-size="10.00">JSystem/JKernel/JKRThread</text>
<text text-anchor="middle" x="214.34" y="-253.5" font-family="Helvetica,sans-Serif" font-size="10.00">/JKRThread.h</text>
</a>
</g>
</g>
<!-- Node1&#45;&gt;Node2 -->
<g id="edge1" class="edge">
<title>Node1&#45;&gt;Node2</title>
<path fill="none" stroke="midnightblue" d="M739.71,-392.8C630.12,-388.74 387.39,-376.29 311.34,-344 279.84,-330.63 250.81,-303.41 232.87,-284.12"/>
<polygon fill="midnightblue" stroke="midnightblue" points="235.42,-281.71 226.11,-276.65 230.23,-286.41 235.42,-281.71"/>
</g>
<!-- Node6 -->
<g id="node6" class="node">
<title>Node6</title>
<g id="a_node6"><a xlink:href="global_8h.html" target="_top" xlink:title=" ">
<polygon fill="white" stroke="black" points="306.34,-185 306.34,-204 356.34,-204 356.34,-185 306.34,-185"/>
<text text-anchor="middle" x="331.34" y="-192" font-family="Helvetica,sans-Serif" font-size="10.00">global.h</text>
</a>
</g>
</g>
<!-- Node1&#45;&gt;Node6 -->
<g id="edge25" class="edge">
<title>Node1&#45;&gt;Node6</title>
<path fill="none" stroke="midnightblue" d="M739.79,-394.62C639.06,-393.79 429.01,-386.81 372.34,-344 332.05,-313.56 328.89,-247.24 330,-214.53"/>
<polygon fill="midnightblue" stroke="midnightblue" points="333.52,-214.29 330.55,-204.12 326.53,-213.93 333.52,-214.29"/>
</g>
<!-- Node12 -->
<g id="node12" class="node">
<title>Node12</title>
<g id="a_node12"><a xlink:href="JKRExpHeap_8h.html" target="_top" xlink:title=" ">
<polygon fill="white" stroke="black" points="391.34,-313.5 391.34,-343.5 543.34,-343.5 543.34,-313.5 391.34,-313.5"/>
<text text-anchor="start" x="399.34" y="-331.5" font-family="Helvetica,sans-Serif" font-size="10.00">JSystem/JKernel/JKRExpHeap</text>
<text text-anchor="middle" x="467.34" y="-320.5" font-family="Helvetica,sans-Serif" font-size="10.00">/JKRExpHeap.h</text>
</a>
</g>
</g>
<!-- Node1&#45;&gt;Node12 -->
<g id="edge18" class="edge">
<title>Node1&#45;&gt;Node12</title>
<path fill="none" stroke="midnightblue" d="M739.61,-383.62C687.27,-373.22 607.73,-357.41 548.11,-345.55"/>
<polygon fill="midnightblue" stroke="midnightblue" points="548.46,-342.06 537.97,-343.54 547.1,-348.92 548.46,-342.06"/>
</g>
<!-- Node13 -->
<g id="node13" class="node">
<title>Node13</title>
<g id="a_node13"><a xlink:href="JKRHeap_8h.html" target="_top" xlink:title=" ">
<polygon fill="white" stroke="black" points="353.34,-246.5 353.34,-276.5 489.34,-276.5 489.34,-246.5 353.34,-246.5"/>
<text text-anchor="start" x="361.34" y="-264.5" font-family="Helvetica,sans-Serif" font-size="10.00">JSystem/JKernel/JKRHeap</text>
<text text-anchor="middle" x="421.34" y="-253.5" font-family="Helvetica,sans-Serif" font-size="10.00">/JKRHeap.h</text>
</a>
</g>
</g>
<!-- Node1&#45;&gt;Node13 -->
<g id="edge24" class="edge">
<title>Node1&#45;&gt;Node13</title>
<path fill="none" stroke="midnightblue" d="M739.69,-391.77C633.07,-385.88 405.65,-370.34 382.34,-344 366.84,-326.48 382.64,-301.71 398.53,-284.08"/>
<polygon fill="midnightblue" stroke="midnightblue" points="401.35,-286.19 405.72,-276.54 396.29,-281.36 401.35,-286.19"/>
</g>
<!-- Node14 -->
<g id="node14" class="node">
<title>Node14</title>
<g id="a_node14"><a xlink:title=" ">
<polygon fill="white" stroke="#bfbfbf" points="561.84,-313.5 561.84,-343.5 704.84,-343.5 704.84,-313.5 561.84,-313.5"/>
<text text-anchor="start" x="569.84" y="-331.5" font-family="Helvetica,sans-Serif" font-size="10.00">JSystem/JKernel/JKRThread</text>
<text text-anchor="middle" x="633.34" y="-320.5" font-family="Helvetica,sans-Serif" font-size="10.00">/asm/func_802D199C.s</text>
</a>
</g>
</g>
<!-- Node1&#45;&gt;Node14 -->
<g id="edge26" class="edge">
<title>Node1&#45;&gt;Node14</title>
<path fill="none" stroke="midnightblue" d="M759.41,-380.4C735.46,-370.73 703.49,-357.82 677.74,-347.43"/>
<polygon fill="midnightblue" stroke="midnightblue" points="678.79,-344.07 668.21,-343.58 676.17,-350.57 678.79,-344.07"/>
</g>
<!-- Node15 -->
<g id="node15" class="node">
<title>Node15</title>
<g id="a_node15"><a xlink:title=" ">
<polygon fill="white" stroke="#bfbfbf" points="722.84,-313.5 722.84,-343.5 865.84,-343.5 865.84,-313.5 722.84,-313.5"/>
<text text-anchor="start" x="730.84" y="-331.5" font-family="Helvetica,sans-Serif" font-size="10.00">JSystem/JKernel/JKRThread</text>
<text text-anchor="middle" x="794.34" y="-320.5" font-family="Helvetica,sans-Serif" font-size="10.00">/asm/func_802D1A14.s</text>
</a>
</g>
</g>
<!-- Node1&#45;&gt;Node15 -->
<g id="edge27" class="edge">
<title>Node1&#45;&gt;Node15</title>
<path fill="none" stroke="midnightblue" d="M794.34,-380.4C794.34,-372.64 794.34,-362.81 794.34,-353.86"/>
<polygon fill="midnightblue" stroke="midnightblue" points="797.84,-353.58 794.34,-343.58 790.84,-353.58 797.84,-353.58"/>
</g>
<!-- Node16 -->
<g id="node16" class="node">
<title>Node16</title>
<g id="a_node16"><a xlink:title=" ">
<polygon fill="white" stroke="#bfbfbf" points="883.84,-313.5 883.84,-343.5 1026.84,-343.5 1026.84,-313.5 883.84,-313.5"/>
<text text-anchor="start" x="891.84" y="-331.5" font-family="Helvetica,sans-Serif" font-size="10.00">JSystem/JKernel/JKRThread</text>
<text text-anchor="middle" x="955.34" y="-320.5" font-family="Helvetica,sans-Serif" font-size="10.00">/asm/func_802D1A70.s</text>
</a>
</g>
</g>
<!-- Node1&#45;&gt;Node16 -->
<g id="edge28" class="edge">
<title>Node1&#45;&gt;Node16</title>
<path fill="none" stroke="midnightblue" d="M829.27,-380.4C853.22,-370.73 885.19,-357.82 910.94,-347.43"/>
<polygon fill="midnightblue" stroke="midnightblue" points="912.51,-350.57 920.47,-343.58 909.89,-344.07 912.51,-350.57"/>
</g>
<!-- Node17 -->
<g id="node17" class="node">
<title>Node17</title>
<g id="a_node17"><a xlink:title=" ">
<polygon fill="white" stroke="#bfbfbf" points="1044.84,-313.5 1044.84,-343.5 1187.84,-343.5 1187.84,-313.5 1044.84,-313.5"/>
<text text-anchor="start" x="1052.84" y="-331.5" font-family="Helvetica,sans-Serif" font-size="10.00">JSystem/JKernel/JKRThread</text>
<text text-anchor="middle" x="1116.34" y="-320.5" font-family="Helvetica,sans-Serif" font-size="10.00">/asm/func_802D1AE4.s</text>
</a>
</g>
</g>
<!-- Node1&#45;&gt;Node17 -->
<g id="edge29" class="edge">
<title>Node1&#45;&gt;Node17</title>
<path fill="none" stroke="midnightblue" d="M848.96,-383.47C900.53,-373.06 978.44,-357.34 1036.88,-345.54"/>
<polygon fill="midnightblue" stroke="midnightblue" points="1037.71,-348.94 1046.82,-343.53 1036.32,-342.08 1037.71,-348.94"/>
</g>
<!-- Node18 -->
<g id="node18" class="node">
<title>Node18</title>
<g id="a_node18"><a xlink:title=" ">
<polygon fill="white" stroke="#bfbfbf" points="1205.84,-313.5 1205.84,-343.5 1348.84,-343.5 1348.84,-313.5 1205.84,-313.5"/>
<text text-anchor="start" x="1213.84" y="-331.5" font-family="Helvetica,sans-Serif" font-size="10.00">JSystem/JKernel/JKRThread</text>
<text text-anchor="middle" x="1277.34" y="-320.5" font-family="Helvetica,sans-Serif" font-size="10.00">/asm/func_802D1C74.s</text>
</a>
</g>
</g>
<!-- Node1&#45;&gt;Node18 -->
<g id="edge30" class="edge">
<title>Node1&#45;&gt;Node18</title>
<path fill="none" stroke="midnightblue" d="M848.9,-388.62C924.52,-380.26 1065.7,-363.89 1195.31,-344.27"/>
<polygon fill="midnightblue" stroke="midnightblue" points="1196.05,-347.69 1205.41,-342.73 1195,-340.77 1196.05,-347.69"/>
</g>
<!-- Node19 -->
<g id="node19" class="node">
<title>Node19</title>
<g id="a_node19"><a xlink:title=" ">
<polygon fill="white" stroke="#bfbfbf" points="1366.84,-313.5 1366.84,-343.5 1509.84,-343.5 1509.84,-313.5 1366.84,-313.5"/>
<text text-anchor="start" x="1374.84" y="-331.5" font-family="Helvetica,sans-Serif" font-size="10.00">JSystem/JKernel/JKRThread</text>
<text text-anchor="middle" x="1438.34" y="-320.5" font-family="Helvetica,sans-Serif" font-size="10.00">/asm/func_802D1E1C.s</text>
</a>
</g>
</g>
<!-- Node1&#45;&gt;Node19 -->
<g id="edge31" class="edge">
<title>Node1&#45;&gt;Node19</title>
<path fill="none" stroke="midnightblue" d="M848.97,-391.25C948.17,-384.99 1164.7,-369.68 1356.45,-344.19"/>
<polygon fill="midnightblue" stroke="midnightblue" points="1356.98,-347.65 1366.43,-342.85 1356.05,-340.71 1356.98,-347.65"/>
</g>
<!-- Node20 -->
<g id="node20" class="node">
<title>Node20</title>
<g id="a_node20"><a xlink:title=" ">
<polygon fill="white" stroke="#bfbfbf" points="1527.84,-313.5 1527.84,-343.5 1670.84,-343.5 1670.84,-313.5 1527.84,-313.5"/>
<text text-anchor="start" x="1535.84" y="-331.5" font-family="Helvetica,sans-Serif" font-size="10.00">JSystem/JKernel/JKRThread</text>
<text text-anchor="middle" x="1599.34" y="-320.5" font-family="Helvetica,sans-Serif" font-size="10.00">/asm/func_802D1E4C.s</text>
</a>
</g>
</g>
<!-- Node1&#45;&gt;Node20 -->
<g id="edge32" class="edge">
<title>Node1&#45;&gt;Node20</title>
<path fill="none" stroke="midnightblue" d="M849.11,-392.74C968.7,-388.45 1262.32,-375.51 1517.24,-344.18"/>
<polygon fill="midnightblue" stroke="midnightblue" points="1517.95,-347.62 1527.44,-342.92 1517.08,-340.67 1517.95,-347.62"/>
</g>
<!-- Node3 -->
<g id="node3" class="node">
<title>Node3</title>
<g id="a_node3"><a xlink:href="JKRDisposer_8h.html" target="_top" xlink:title=" ">
<polygon fill="white" stroke="black" points="108.84,-179.5 108.84,-209.5 259.84,-209.5 259.84,-179.5 108.84,-179.5"/>
<text text-anchor="start" x="116.84" y="-197.5" font-family="Helvetica,sans-Serif" font-size="10.00">JSystem/JKernel/JKRDisposer</text>
<text text-anchor="middle" x="184.34" y="-186.5" font-family="Helvetica,sans-Serif" font-size="10.00">/JKRDisposer.h</text>
</a>
</g>
</g>
<!-- Node2&#45;&gt;Node3 -->
<g id="edge2" class="edge">
<title>Node2&#45;&gt;Node3</title>
<path fill="none" stroke="midnightblue" d="M207.83,-246.4C204.1,-238.3 199.31,-227.94 195.04,-218.69"/>
<polygon fill="midnightblue" stroke="midnightblue" points="198.21,-217.19 190.84,-209.58 191.85,-220.12 198.21,-217.19"/>
</g>
<!-- Node5 -->
<g id="node5" class="node">
<title>Node5</title>
<g id="a_node5"><a xlink:href="types_8h.html" target="_top" xlink:title=" ">
<polygon fill="white" stroke="black" points="276.84,-0.5 276.84,-19.5 357.84,-19.5 357.84,-0.5 276.84,-0.5"/>
<text text-anchor="middle" x="317.34" y="-7.5" font-family="Helvetica,sans-Serif" font-size="10.00">dolphin/types.h</text>
</a>
</g>
</g>
<!-- Node2&#45;&gt;Node5 -->
<g id="edge6" class="edge">
<title>Node2&#45;&gt;Node5</title>
<path fill="none" stroke="midnightblue" d="M159.16,-246.45C84.77,-224.67 -33.71,-178.24 9.34,-112 37.83,-68.16 187.21,-34.76 266.99,-19.73"/>
<polygon fill="midnightblue" stroke="midnightblue" points="267.64,-23.17 276.83,-17.9 266.36,-16.29 267.64,-23.17"/>
</g>
<!-- Node2&#45;&gt;Node6 -->
<g id="edge7" class="edge">
<title>Node2&#45;&gt;Node6</title>
<path fill="none" stroke="midnightblue" d="M239.73,-246.4C259.71,-235.29 287.38,-219.92 307.07,-208.98"/>
<polygon fill="midnightblue" stroke="midnightblue" points="308.99,-211.92 316.03,-204.01 305.59,-205.8 308.99,-211.92"/>
</g>
<!-- Node4 -->
<g id="node4" class="node">
<title>Node4</title>
<g id="a_node4"><a xlink:href="JSUList_8h.html" target="_top" xlink:title=" ">
<polygon fill="white" stroke="black" points="18.34,-112.5 18.34,-142.5 154.34,-142.5 154.34,-112.5 18.34,-112.5"/>
<text text-anchor="start" x="26.34" y="-130.5" font-family="Helvetica,sans-Serif" font-size="10.00">JSystem/JSupport/JSUList</text>
<text text-anchor="middle" x="86.34" y="-119.5" font-family="Helvetica,sans-Serif" font-size="10.00">/JSUList.h</text>
</a>
</g>
</g>
<!-- Node3&#45;&gt;Node4 -->
<g id="edge3" class="edge">
<title>Node3&#45;&gt;Node4</title>
<path fill="none" stroke="midnightblue" d="M163.08,-179.4C149.33,-170.28 131.25,-158.29 116.1,-148.24"/>
<polygon fill="midnightblue" stroke="midnightblue" points="117.83,-145.19 107.56,-142.58 113.96,-151.02 117.83,-145.19"/>
</g>
<!-- Node3&#45;&gt;Node5 -->
<g id="edge5" class="edge">
<title>Node3&#45;&gt;Node5</title>
<path fill="none" stroke="midnightblue" d="M181.74,-179.27C177.63,-152.18 172.81,-92.62 201.34,-56 217.14,-35.72 243.31,-24.57 266.81,-18.45"/>
<polygon fill="midnightblue" stroke="midnightblue" points="267.74,-21.82 276.67,-16.12 266.14,-15.01 267.74,-21.82"/>
</g>
<!-- Node4&#45;&gt;Node5 -->
<g id="edge4" class="edge">
<title>Node4&#45;&gt;Node5</title>
<path fill="none" stroke="midnightblue" d="M99.21,-112.33C114.33,-96.49 140.85,-71.08 168.34,-56 199.1,-39.13 236.98,-27.8 266.85,-20.72"/>
<polygon fill="midnightblue" stroke="midnightblue" points="267.68,-24.12 276.65,-18.49 266.12,-17.3 267.68,-24.12"/>
</g>
<!-- Node6&#45;&gt;Node5 -->
<g id="edge8" class="edge">
<title>Node6&#45;&gt;Node5</title>
<path fill="none" stroke="midnightblue" d="M333.11,-184.97C335.09,-174.97 338.17,-157.87 339.34,-143 340.42,-129.26 340.81,-125.7 339.34,-112 336.18,-82.64 327.99,-49.3 322.55,-29.22"/>
<polygon fill="midnightblue" stroke="midnightblue" points="325.91,-28.24 319.85,-19.54 319.16,-30.12 325.91,-28.24"/>
</g>
<!-- Node7 -->
<g id="node7" class="node">
<title>Node7</title>
<g id="a_node7"><a xlink:href="AR_8h.html" target="_top" xlink:title=" ">
<polygon fill="white" stroke="black" points="364.84,-56.5 364.84,-75.5 413.84,-75.5 413.84,-56.5 364.84,-56.5"/>
<text text-anchor="middle" x="389.34" y="-63.5" font-family="Helvetica,sans-Serif" font-size="10.00">ar/AR.h</text>
</a>
</g>
</g>
<!-- Node6&#45;&gt;Node7 -->
<g id="edge9" class="edge">
<title>Node6&#45;&gt;Node7</title>
<path fill="none" stroke="midnightblue" d="M340.64,-184.73C350.07,-175.31 364.37,-159.47 372.34,-143 381.16,-124.79 385.48,-101.89 387.54,-86.02"/>
<polygon fill="midnightblue" stroke="midnightblue" points="391.05,-86.19 388.68,-75.86 384.09,-85.41 391.05,-86.19"/>
</g>
<!-- Node8 -->
<g id="node8" class="node">
<title>Node8</title>
<g id="a_node8"><a xlink:href="ARQ_8h.html" target="_top" xlink:title=" ">
<polygon fill="white" stroke="black" points="432.34,-56.5 432.34,-75.5 488.34,-75.5 488.34,-56.5 432.34,-56.5"/>
<text text-anchor="middle" x="460.34" y="-63.5" font-family="Helvetica,sans-Serif" font-size="10.00">ar/ARQ.h</text>
</a>
</g>
</g>
<!-- Node6&#45;&gt;Node8 -->
<g id="edge11" class="edge">
<title>Node6&#45;&gt;Node8</title>
<path fill="none" stroke="midnightblue" d="M343.02,-184.68C355.63,-174.96 376.09,-158.63 392.34,-143 412.36,-123.73 433.39,-99.53 446.67,-83.68"/>
<polygon fill="midnightblue" stroke="midnightblue" points="449.5,-85.75 453.19,-75.82 444.11,-81.28 449.5,-85.75"/>
</g>
<!-- Node9 -->
<g id="node9" class="node">
<title>Node9</title>
<g id="a_node9"><a xlink:href="mwcc_8h.html" target="_top" xlink:title=" ">
<polygon fill="white" stroke="black" points="280.34,-118 280.34,-137 330.34,-137 330.34,-118 280.34,-118"/>
<text text-anchor="middle" x="305.34" y="-125" font-family="Helvetica,sans-Serif" font-size="10.00">mwcc.h</text>
</a>
</g>
</g>
<!-- Node6&#45;&gt;Node9 -->
<g id="edge13" class="edge">
<title>Node6&#45;&gt;Node9</title>
<path fill="none" stroke="midnightblue" d="M327.83,-184.73C323.93,-174.99 317.53,-158.98 312.55,-146.53"/>
<polygon fill="midnightblue" stroke="midnightblue" points="315.75,-145.11 308.79,-137.13 309.26,-147.71 315.75,-145.11"/>
</g>
<!-- Node10 -->
<g id="node10" class="node">
<title>Node10</title>
<g id="a_node10"><a xlink:href="OS_8h.html" target="_top" xlink:title=" ">
<polygon fill="white" stroke="black" points="210.34,-118 210.34,-137 262.34,-137 262.34,-118 210.34,-118"/>
<text text-anchor="middle" x="236.34" y="-125" font-family="Helvetica,sans-Serif" font-size="10.00">os/OS.h</text>
</a>
</g>
</g>
<!-- Node6&#45;&gt;Node10 -->
<g id="edge14" class="edge">
<title>Node6&#45;&gt;Node10</title>
<path fill="none" stroke="midnightblue" d="M318.53,-184.73C302.86,-174.01 276.12,-155.72 257.41,-142.91"/>
<polygon fill="midnightblue" stroke="midnightblue" points="259.18,-139.89 248.95,-137.13 255.23,-145.66 259.18,-139.89"/>
</g>
<!-- Node7&#45;&gt;Node5 -->
<g id="edge10" class="edge">
<title>Node7&#45;&gt;Node5</title>
<path fill="none" stroke="midnightblue" d="M377.77,-56.32C366.92,-48.18 350.46,-35.84 337.46,-26.09"/>
<polygon fill="midnightblue" stroke="midnightblue" points="339.22,-23.03 329.12,-19.83 335.02,-28.63 339.22,-23.03"/>
</g>
<!-- Node8&#45;&gt;Node5 -->
<g id="edge12" class="edge">
<title>Node8&#45;&gt;Node5</title>
<path fill="none" stroke="midnightblue" d="M437.68,-56.44C413.94,-47.48 376.43,-33.31 349.6,-23.18"/>
<polygon fill="midnightblue" stroke="midnightblue" points="350.48,-19.77 339.89,-19.52 348.01,-26.32 350.48,-19.77"/>
</g>
<!-- Node10&#45;&gt;Node5 -->
<g id="edge15" class="edge">
<title>Node10&#45;&gt;Node5</title>
<path fill="none" stroke="midnightblue" d="M244.2,-117.89C252.98,-108.09 267.39,-91.44 278.34,-76 289.26,-60.6 300.19,-42.06 307.69,-28.72"/>
<polygon fill="midnightblue" stroke="midnightblue" points="310.91,-30.12 312.69,-19.68 304.79,-26.73 310.91,-30.12"/>
</g>
<!-- Node11 -->
<g id="node11" class="node">
<title>Node11</title>
<g id="a_node11"><a xlink:href="dvd_8h.html" target="_top" xlink:title=" ">
<polygon fill="white" stroke="black" points="210.84,-56.5 210.84,-75.5 269.84,-75.5 269.84,-56.5 210.84,-56.5"/>
<text text-anchor="middle" x="240.34" y="-63.5" font-family="Helvetica,sans-Serif" font-size="10.00">dvd/dvd.h</text>
</a>
</g>
</g>
<!-- Node10&#45;&gt;Node11 -->
<g id="edge16" class="edge">
<title>Node10&#45;&gt;Node11</title>
<path fill="none" stroke="midnightblue" d="M236.91,-117.98C237.48,-109.58 238.36,-96.48 239.09,-85.66"/>
<polygon fill="midnightblue" stroke="midnightblue" points="242.59,-85.72 239.77,-75.51 235.6,-85.25 242.59,-85.72"/>
</g>
<!-- Node11&#45;&gt;Node5 -->
<g id="edge17" class="edge">
<title>Node11&#45;&gt;Node5</title>
<path fill="none" stroke="midnightblue" d="M252.71,-56.32C264.5,-48.06 282.47,-35.45 296.48,-25.63"/>
<polygon fill="midnightblue" stroke="midnightblue" points="298.82,-28.26 305,-19.65 294.8,-22.53 298.82,-28.26"/>
</g>
<!-- Node12&#45;&gt;Node5 -->
<g id="edge23" class="edge">
<title>Node12&#45;&gt;Node5</title>
<path fill="none" stroke="midnightblue" d="M484.95,-313.31C510.37,-291.1 554.34,-245.45 554.34,-195.5 554.34,-195.5 554.34,-195.5 554.34,-126.5 554.34,-91.11 545.42,-77.54 517.34,-56 474.34,-23.01 411.72,-13.34 368.04,-10.93"/>
<polygon fill="midnightblue" stroke="midnightblue" points="368.07,-7.43 357.92,-10.48 367.76,-14.42 368.07,-7.43"/>
</g>
<!-- Node12&#45;&gt;Node13 -->
<g id="edge19" class="edge">
<title>Node12&#45;&gt;Node13</title>
<path fill="none" stroke="midnightblue" d="M457.36,-313.4C451.45,-305.05 443.84,-294.29 437.13,-284.81"/>
<polygon fill="midnightblue" stroke="midnightblue" points="439.94,-282.72 431.3,-276.58 434.22,-286.76 439.94,-282.72"/>
</g>
<!-- Node13&#45;&gt;Node3 -->
<g id="edge20" class="edge">
<title>Node13&#45;&gt;Node3</title>
<path fill="none" stroke="midnightblue" d="M370.21,-246.48C333.73,-236.47 284.5,-222.97 245.88,-212.38"/>
<polygon fill="midnightblue" stroke="midnightblue" points="246.36,-208.88 235.79,-209.61 244.51,-215.63 246.36,-208.88"/>
</g>
<!-- Node13&#45;&gt;Node5 -->
<g id="edge21" class="edge">
<title>Node13&#45;&gt;Node5</title>
<path fill="none" stroke="midnightblue" d="M435.12,-246.41C468.02,-211.06 545.01,-117.05 497.34,-56 481.55,-35.78 415.7,-23.3 368.22,-16.75"/>
<polygon fill="midnightblue" stroke="midnightblue" points="368.46,-13.26 358.09,-15.41 367.54,-20.19 368.46,-13.26"/>
</g>
<!-- Node13&#45;&gt;Node6 -->
<g id="edge22" class="edge">
<title>Node13&#45;&gt;Node6</title>
<path fill="none" stroke="midnightblue" d="M401.81,-246.4C386.86,-235.6 366.31,-220.76 351.26,-209.89"/>
<polygon fill="midnightblue" stroke="midnightblue" points="353.27,-207.02 343.12,-204.01 349.18,-212.7 353.27,-207.02"/>
</g>
</g>
</svg>
        <g id="navigator" transform="translate(0 0)" fill="#404254">
                <rect fill="#f2f5e9" fill-opacity="0.5" stroke="#606060" stroke-width=".5" x="0" y="0" width="60" height="60"/>
                <use id="zoomplus" xlink:href="#zoomPlus" x="17" y="9" onmousedown="handleZoom(evt,'in')"/>
                <use id="zoomminus" xlink:href="#zoomMin" x="42" y="9" onmousedown="handleZoom(evt,'out')"/>
                <use id="reset" xlink:href="#resetDef" x="30" y="36" onmousedown="handleReset()"/>
                <g id="arrowUp" xlink:href="#dirArrow" transform="translate(30 24)" onmousedown="handlePan(0,-1)">
                  <use xlink:href="#rim" fill="#404040">
                        <set attributeName="fill" to="#808080" begin="arrowUp.mouseover" end="arrowUp.mouseout"/>
                  </use>
                  <path fill="none" stroke="white" stroke-width="1.5" d="M0,-3.0v7 M-2.5,-0.5L0,-3.0L2.5,-0.5"/>
                </g>
                <g id="arrowRight" xlink:href="#dirArrow" transform="rotate(90) translate(36 -43)" onmousedown="handlePan(1,0)">
                  <use xlink:href="#rim" fill="#404040">
                        <set attributeName="fill" to="#808080" begin="arrowRight.mouseover" end="arrowRight.mouseout"/>
                  </use>
                  <path fill="none" stroke="white" stroke-width="1.5" d="M0,-3.0v7 M-2.5,-0.5L0,-3.0L2.5,-0.5"/>
                </g>
                <g id="arrowDown" xlink:href="#dirArrow" transform="rotate(180) translate(-30 -48)" onmousedown="handlePan(0,1)">
                  <use xlink:href="#rim" fill="#404040">
                        <set attributeName="fill" to="#808080" begin="arrowDown.mouseover" end="arrowDown.mouseout"/>
                  </use>
                  <path fill="none" stroke="white" stroke-width="1.5" d="M0,-3.0v7 M-2.5,-0.5L0,-3.0L2.5,-0.5"/>
                </g>
                <g id="arrowLeft" xlink:href="#dirArrow" transform="rotate(270) translate(-36 17)" onmousedown="handlePan(-1,0)">
                  <use xlink:href="#rim" fill="#404040">
                        <set attributeName="fill" to="#808080" begin="arrowLeft.mouseover" end="arrowLeft.mouseout"/>
                  </use>
                  <path fill="none" stroke="white" stroke-width="1.5" d="M0,-3.0v7 M-2.5,-0.5L0,-3.0L2.5,-0.5"/>
                </g>
        </g>
        <svg viewBox="0 0 15 15" width="100%" height="30px" preserveAspectRatio="xMaxYMin meet">
         <g id="arrow_out" transform="scale(0.3 0.3)">
          <a xlink:href="JKRThread_8cpp__incl_org.svg" target="_base">
           <rect id="button" ry="5" rx="5" y="6" x="6" height="38" width="38"
                fill="#f2f5e9" fill-opacity="0.5" stroke="#606060" stroke-width="1.0"/>
           <path id="arrow"
             d="M 11.500037,31.436501 C 11.940474,20.09759 22.043105,11.32322 32.158766,21.979434 L 37.068811,17.246167 C 37.068811,17.246167 37.088388,32 37.088388,32 L 22.160133,31.978069 C 22.160133,31.978069 26.997745,27.140456 26.997745,27.140456 C 18.528582,18.264221 13.291696,25.230495 11.500037,31.436501 z"
             style="fill:#404040;"/>
          </a>
         </g>
        </svg>
</svg>
