<?xml version="1.0" encoding="UTF-8" standalone="no"?>
<!DOCTYPE svg PUBLIC "-//W3C//DTD SVG 1.1//EN"
 "http://www.w3.org/Graphics/SVG/1.1/DTD/svg11.dtd">
<!-- Generated by graphviz version 2.44.0 ()
 -->
<!-- Title: libs/JSystem/JSupport/JSUList.cpp Pages: 1 -->
<svg width="432pt" height="274pt"
 viewBox="0.00 0.00 432.00 274.00" xmlns="http://www.w3.org/2000/svg" xmlns:xlink="http://www.w3.org/1999/xlink">
<g id="graph0" class="graph" transform="scale(1 1) rotate(0) translate(4 270)">
<title>libs/JSystem/JSupport/JSUList.cpp</title>
<polygon fill="white" stroke="transparent" points="-4,4 -4,-270 428,-270 428,4 -4,4"/>
<!-- Node1 -->
<g id="node1" class="node">
<title>Node1</title>
<g id="a_node1"><a xlink:title=" ">
<polygon fill="#bfbfbf" stroke="black" points="77.5,-235.5 77.5,-265.5 192.5,-265.5 192.5,-235.5 77.5,-235.5"/>
<text text-anchor="start" x="85.5" y="-253.5" font-family="Helvetica,sans-Serif" font-size="10.00">libs/JSystem/JSupport</text>
<text text-anchor="middle" x="135" y="-242.5" font-family="Helvetica,sans-Serif" font-size="10.00">/JSUList.cpp</text>
</a>
</g>
</g>
<!-- Node2 -->
<g id="node2" class="node">
<title>Node2</title>
<g id="a_node2"><a xlink:href="JSUList_8h.html" target="_top" xlink:title=" ">
<polygon fill="white" stroke="black" points="0,-56.5 0,-86.5 136,-86.5 136,-56.5 0,-56.5"/>
<text text-anchor="start" x="8" y="-74.5" font-family="Helvetica,sans-Serif" font-size="10.00">JSystem/JSupport/JSUList</text>
<text text-anchor="middle" x="68" y="-63.5" font-family="Helvetica,sans-Serif" font-size="10.00">/JSUList.h</text>
</a>
</g>
</g>
<!-- Node1&#45;&gt;Node2 -->
<g id="edge1" class="edge">
<title>Node1&#45;&gt;Node2</title>
<path fill="none" stroke="midnightblue" d="M129.63,-235.31C118.16,-205.02 91.18,-133.73 77.02,-96.34"/>
<polygon fill="midnightblue" stroke="midnightblue" points="80.21,-94.87 73.4,-86.75 73.66,-97.34 80.21,-94.87"/>
</g>
<!-- Node4 -->
<g id="node4" class="node">
<title>Node4</title>
<g id="a_node4"><a xlink:href="global_8h.html" target="_top" xlink:title=" ">
<polygon fill="white" stroke="black" points="205,-179.5 205,-198.5 255,-198.5 255,-179.5 205,-179.5"/>
<text text-anchor="middle" x="230" y="-186.5" font-family="Helvetica,sans-Serif" font-size="10.00">global.h</text>
</a>
</g>
</g>
<!-- Node1&#45;&gt;Node4 -->
<g id="edge3" class="edge">
<title>Node1&#45;&gt;Node4</title>
<path fill="none" stroke="midnightblue" d="M157.51,-235.4C172.6,-225.95 192.39,-213.56 207.47,-204.11"/>
<polygon fill="midnightblue" stroke="midnightblue" points="209.56,-206.93 216.18,-198.66 205.84,-201 209.56,-206.93"/>
</g>
<!-- Node3 -->
<g id="node3" class="node">
<title>Node3</title>
<g id="a_node3"><a xlink:href="types_8h.html" target="_top" xlink:title=" ">
<polygon fill="white" stroke="black" points="202.5,-0.5 202.5,-19.5 283.5,-19.5 283.5,-0.5 202.5,-0.5"/>
<text text-anchor="middle" x="243" y="-7.5" font-family="Helvetica,sans-Serif" font-size="10.00">dolphin/types.h</text>
</a>
</g>
</g>
<!-- Node2&#45;&gt;Node3 -->
<g id="edge2" class="edge">
<title>Node2&#45;&gt;Node3</title>
<path fill="none" stroke="midnightblue" d="M109.47,-56.4C139.58,-46.16 179.85,-32.47 208.27,-22.81"/>
<polygon fill="midnightblue" stroke="midnightblue" points="209.45,-26.1 217.79,-19.57 207.2,-19.48 209.45,-26.1"/>
</g>
<!-- Node4&#45;&gt;Node3 -->
<g id="edge4" class="edge">
<title>Node4&#45;&gt;Node3</title>
<path fill="none" stroke="midnightblue" d="M222.22,-179.37C203.83,-157.85 160.81,-100.39 183,-56 189.73,-42.54 202.61,-32.07 214.71,-24.62"/>
<polygon fill="midnightblue" stroke="midnightblue" points="216.73,-27.5 223.7,-19.52 213.28,-21.41 216.73,-27.5"/>
</g>
<!-- Node5 -->
<g id="node5" class="node">
<title>Node5</title>
<g id="a_node5"><a xlink:href="AR_8h.html" target="_top" xlink:title=" ">
<polygon fill="white" stroke="black" points="192.5,-62 192.5,-81 241.5,-81 241.5,-62 192.5,-62"/>
<text text-anchor="middle" x="217" y="-69" font-family="Helvetica,sans-Serif" font-size="10.00">ar/AR.h</text>
</a>
</g>
</g>
<!-- Node4&#45;&gt;Node5 -->
<g id="edge5" class="edge">
<title>Node4&#45;&gt;Node5</title>
<path fill="none" stroke="midnightblue" d="M227.91,-179.43C225.8,-170.42 222.64,-155.8 221,-143 218.77,-125.54 217.78,-105.48 217.35,-91.24"/>
<polygon fill="midnightblue" stroke="midnightblue" points="220.84,-91.13 217.1,-81.22 213.85,-91.3 220.84,-91.13"/>
</g>
<!-- Node6 -->
<g id="node6" class="node">
<title>Node6</title>
<g id="a_node6"><a xlink:href="ARQ_8h.html" target="_top" xlink:title=" ">
<polygon fill="white" stroke="black" points="230,-123.5 230,-142.5 286,-142.5 286,-123.5 230,-123.5"/>
<text text-anchor="middle" x="258" y="-130.5" font-family="Helvetica,sans-Serif" font-size="10.00">ar/ARQ.h</text>
</a>
</g>
</g>
<!-- Node4&#45;&gt;Node6 -->
<g id="edge7" class="edge">
<title>Node4&#45;&gt;Node6</title>
<path fill="none" stroke="midnightblue" d="M234.62,-179.08C238.46,-171.69 244.02,-160.95 248.76,-151.81"/>
<polygon fill="midnightblue" stroke="midnightblue" points="251.97,-153.24 253.46,-142.75 245.75,-150.02 251.97,-153.24"/>
</g>
<!-- Node7 -->
<g id="node7" class="node">
<title>Node7</title>
<g id="a_node7"><a xlink:href="mwcc_8h.html" target="_top" xlink:title=" ">
<polygon fill="white" stroke="black" points="304,-123.5 304,-142.5 354,-142.5 354,-123.5 304,-123.5"/>
<text text-anchor="middle" x="329" y="-130.5" font-family="Helvetica,sans-Serif" font-size="10.00">mwcc.h</text>
</a>
</g>
</g>
<!-- Node4&#45;&gt;Node7 -->
<g id="edge9" class="edge">
<title>Node4&#45;&gt;Node7</title>
<path fill="none" stroke="midnightblue" d="M245.91,-179.32C261.64,-170.74 285.94,-157.49 304.21,-147.52"/>
<polygon fill="midnightblue" stroke="midnightblue" points="306.03,-150.52 313.13,-142.65 302.68,-144.37 306.03,-150.52"/>
</g>
<!-- Node8 -->
<g id="node8" class="node">
<title>Node8</title>
<g id="a_node8"><a xlink:href="OS_8h.html" target="_top" xlink:title=" ">
<polygon fill="white" stroke="black" points="372,-123.5 372,-142.5 424,-142.5 424,-123.5 372,-123.5"/>
<text text-anchor="middle" x="398" y="-130.5" font-family="Helvetica,sans-Serif" font-size="10.00">os/OS.h</text>
</a>
</g>
</g>
<!-- Node4&#45;&gt;Node8 -->
<g id="edge10" class="edge">
<title>Node4&#45;&gt;Node8</title>
<path fill="none" stroke="midnightblue" d="M255.15,-179.92C283.48,-170.81 329.76,-155.93 361.94,-145.59"/>
<polygon fill="midnightblue" stroke="midnightblue" points="363.4,-148.8 371.85,-142.41 361.25,-142.13 363.4,-148.8"/>
</g>
<!-- Node5&#45;&gt;Node3 -->
<g id="edge6" class="edge">
<title>Node5&#45;&gt;Node3</title>
<path fill="none" stroke="midnightblue" d="M220.73,-61.98C224.47,-53.4 230.36,-39.93 235.14,-28.98"/>
<polygon fill="midnightblue" stroke="midnightblue" points="238.48,-30.07 239.28,-19.51 232.07,-27.27 238.48,-30.07"/>
</g>
<!-- Node6&#45;&gt;Node3 -->
<g id="edge8" class="edge">
<title>Node6&#45;&gt;Node3</title>
<path fill="none" stroke="midnightblue" d="M257.21,-123.09C255.91,-108.88 253.15,-80.21 250,-56 248.86,-47.27 247.39,-37.62 246.09,-29.5"/>
<polygon fill="midnightblue" stroke="midnightblue" points="249.54,-28.91 244.47,-19.61 242.63,-30.04 249.54,-28.91"/>
</g>
<!-- Node8&#45;&gt;Node3 -->
<g id="edge11" class="edge">
<title>Node8&#45;&gt;Node3</title>
<path fill="none" stroke="midnightblue" d="M386.85,-123.3C360.6,-102.8 294.64,-51.31 261.96,-25.8"/>
<polygon fill="midnightblue" stroke="midnightblue" points="264.08,-23.02 254.05,-19.62 259.78,-28.54 264.08,-23.02"/>
</g>
<!-- Node9 -->
<g id="node9" class="node">
<title>Node9</title>
<g id="a_node9"><a xlink:href="dvd_8h.html" target="_top" xlink:title=" ">
<polygon fill="white" stroke="black" points="360.5,-62 360.5,-81 419.5,-81 419.5,-62 360.5,-62"/>
<text text-anchor="middle" x="390" y="-69" font-family="Helvetica,sans-Serif" font-size="10.00">dvd/dvd.h</text>
</a>
</g>
</g>
<!-- Node8&#45;&gt;Node9 -->
<g id="edge12" class="edge">
<title>Node8&#45;&gt;Node9</title>
<path fill="none" stroke="midnightblue" d="M396.85,-123.48C395.73,-115.08 393.96,-101.98 392.51,-91.16"/>
<polygon fill="midnightblue" stroke="midnightblue" points="395.95,-90.45 391.14,-81.01 389.01,-91.39 395.95,-90.45"/>
</g>
<!-- Node9&#45;&gt;Node3 -->
<g id="edge13" class="edge">
<title>Node9&#45;&gt;Node3</title>
<path fill="none" stroke="midnightblue" d="M368.94,-61.98C343.94,-51.86 302.06,-34.9 273.51,-23.35"/>
<polygon fill="midnightblue" stroke="midnightblue" points="274.61,-20.02 264.02,-19.51 271.98,-26.51 274.61,-20.02"/>
</g>
</g>
</svg>
