<?xml version="1.0" encoding="UTF-8" standalone="no"?>
<!DOCTYPE svg PUBLIC "-//W3C//DTD SVG 1.1//EN"
 "http://www.w3.org/Graphics/SVG/1.1/DTD/svg11.dtd">
<!-- Generated by graphviz version 2.44.0 ()
 -->
<!-- Title: include/JSystem/JUtility/JUTGamePad/JUTGamePad.h Pages: 1 -->
<svg width="518pt" height="341pt"
 viewBox="0.00 0.00 518.00 341.00" xmlns="http://www.w3.org/2000/svg" xmlns:xlink="http://www.w3.org/1999/xlink">
<g id="graph0" class="graph" transform="scale(1 1) rotate(0) translate(4 337)">
<title>include/JSystem/JUtility/JUTGamePad/JUTGamePad.h</title>
<polygon fill="white" stroke="transparent" points="-4,4 -4,-337 514,-337 514,4 -4,4"/>
<!-- Node1 -->
<g id="node1" class="node">
<title>Node1</title>
<g id="a_node1"><a xlink:title=" ">
<polygon fill="#bfbfbf" stroke="black" points="124.5,-302.5 124.5,-332.5 279.5,-332.5 279.5,-302.5 124.5,-302.5"/>
<text text-anchor="start" x="132.5" y="-320.5" font-family="Helvetica,sans-Serif" font-size="10.00">include/JSystem/JUtility</text>
<text text-anchor="middle" x="202" y="-309.5" font-family="Helvetica,sans-Serif" font-size="10.00">/JUTGamePad/JUTGamePad.h</text>
</a>
</g>
</g>
<!-- Node2 -->
<g id="node2" class="node">
<title>Node2</title>
<g id="a_node2"><a xlink:href="JKRDisposer_8h.html" target="_top" xlink:title=" ">
<polygon fill="white" stroke="black" points="22.5,-235.5 22.5,-265.5 173.5,-265.5 173.5,-235.5 22.5,-235.5"/>
<text text-anchor="start" x="30.5" y="-253.5" font-family="Helvetica,sans-Serif" font-size="10.00">JSystem/JKernel/JKRDisposer</text>
<text text-anchor="middle" x="98" y="-242.5" font-family="Helvetica,sans-Serif" font-size="10.00">/JKRDisposer.h</text>
</a>
</g>
</g>
<!-- Node1&#45;&gt;Node2 -->
<g id="edge1" class="edge">
<title>Node1&#45;&gt;Node2</title>
<path fill="none" stroke="midnightblue" d="M179.43,-302.4C164.71,-293.2 145.31,-281.07 129.13,-270.95"/>
<polygon fill="midnightblue" stroke="midnightblue" points="130.86,-267.91 120.52,-265.58 127.15,-273.84 130.86,-267.91"/>
</g>
<!-- Node3 -->
<g id="node3" class="node">
<title>Node3</title>
<g id="a_node3"><a xlink:href="JSUList_8h.html" target="_top" xlink:title=" ">
<polygon fill="white" stroke="black" points="0,-168.5 0,-198.5 136,-198.5 136,-168.5 0,-168.5"/>
<text text-anchor="start" x="8" y="-186.5" font-family="Helvetica,sans-Serif" font-size="10.00">JSystem/JSupport/JSUList</text>
<text text-anchor="middle" x="68" y="-175.5" font-family="Helvetica,sans-Serif" font-size="10.00">/JSUList.h</text>
</a>
</g>
</g>
<!-- Node1&#45;&gt;Node3 -->
<g id="edge5" class="edge">
<title>Node1&#45;&gt;Node3</title>
<path fill="none" stroke="midnightblue" d="M124.35,-305.46C78.57,-297.18 26.94,-284.15 13,-266 -2.42,-245.92 18.49,-221.75 38.81,-204.97"/>
<polygon fill="midnightblue" stroke="midnightblue" points="41.08,-207.64 46.78,-198.71 36.75,-202.13 41.08,-207.64"/>
</g>
<!-- Node4 -->
<g id="node4" class="node">
<title>Node4</title>
<g id="a_node4"><a xlink:href="types_8h.html" target="_top" xlink:title=" ">
<polygon fill="white" stroke="black" points="228.5,-0.5 228.5,-19.5 309.5,-19.5 309.5,-0.5 228.5,-0.5"/>
<text text-anchor="middle" x="269" y="-7.5" font-family="Helvetica,sans-Serif" font-size="10.00">dolphin/types.h</text>
</a>
</g>
</g>
<!-- Node1&#45;&gt;Node4 -->
<g id="edge6" class="edge">
<title>Node1&#45;&gt;Node4</title>
<path fill="none" stroke="midnightblue" d="M202,-302.24C202,-278.03 202,-227.35 202,-184.5 202,-184.5 202,-184.5 202,-121 202,-82.7 231.99,-46.42 251.84,-26.59"/>
<polygon fill="midnightblue" stroke="midnightblue" points="254.33,-29.05 259.11,-19.6 249.48,-24 254.33,-29.05"/>
</g>
<!-- Node5 -->
<g id="node5" class="node">
<title>Node5</title>
<g id="a_node5"><a xlink:href="OS_8h.html" target="_top" xlink:title=" ">
<polygon fill="white" stroke="black" points="251,-112.5 251,-131.5 303,-131.5 303,-112.5 251,-112.5"/>
<text text-anchor="middle" x="277" y="-119.5" font-family="Helvetica,sans-Serif" font-size="10.00">os/OS.h</text>
</a>
</g>
</g>
<!-- Node1&#45;&gt;Node5 -->
<g id="edge7" class="edge">
<title>Node1&#45;&gt;Node5</title>
<path fill="none" stroke="midnightblue" d="M207.51,-302.27C220.93,-267.65 255.27,-179.06 270.06,-140.91"/>
<polygon fill="midnightblue" stroke="midnightblue" points="273.33,-142.17 273.68,-131.58 266.8,-139.64 273.33,-142.17"/>
</g>
<!-- Node7 -->
<g id="node7" class="node">
<title>Node7</title>
<g id="a_node7"><a xlink:href="pad_8h.html" target="_top" xlink:title=" ">
<polygon fill="white" stroke="black" points="316.5,-241 316.5,-260 375.5,-260 375.5,-241 316.5,-241"/>
<text text-anchor="middle" x="346" y="-248" font-family="Helvetica,sans-Serif" font-size="10.00">pad/pad.h</text>
</a>
</g>
</g>
<!-- Node1&#45;&gt;Node7 -->
<g id="edge11" class="edge">
<title>Node1&#45;&gt;Node7</title>
<path fill="none" stroke="midnightblue" d="M233.25,-302.4C258.4,-291.04 293.45,-275.22 317.77,-264.24"/>
<polygon fill="midnightblue" stroke="midnightblue" points="319.48,-267.31 327.15,-260.01 316.6,-260.93 319.48,-267.31"/>
</g>
<!-- Node2&#45;&gt;Node3 -->
<g id="edge2" class="edge">
<title>Node2&#45;&gt;Node3</title>
<path fill="none" stroke="midnightblue" d="M91.49,-235.4C87.76,-227.3 82.97,-216.94 78.7,-207.69"/>
<polygon fill="midnightblue" stroke="midnightblue" points="81.87,-206.19 74.5,-198.58 75.51,-209.12 81.87,-206.19"/>
</g>
<!-- Node2&#45;&gt;Node4 -->
<g id="edge4" class="edge">
<title>Node2&#45;&gt;Node4</title>
<path fill="none" stroke="midnightblue" d="M114.86,-235.09C124.88,-225.71 137.13,-212.71 145,-199 178.02,-141.43 146.38,-107.69 188,-56 199.7,-41.47 217.41,-30.87 233.3,-23.63"/>
<polygon fill="midnightblue" stroke="midnightblue" points="235.05,-26.68 242.88,-19.54 232.31,-20.24 235.05,-26.68"/>
</g>
<!-- Node3&#45;&gt;Node4 -->
<g id="edge3" class="edge">
<title>Node3&#45;&gt;Node4</title>
<path fill="none" stroke="midnightblue" d="M73.65,-168.24C84.59,-142.35 111.09,-87.38 150,-56 169.77,-40.06 195.79,-29.36 218.45,-22.41"/>
<polygon fill="midnightblue" stroke="midnightblue" points="219.63,-25.71 228.26,-19.56 217.68,-18.99 219.63,-25.71"/>
</g>
<!-- Node5&#45;&gt;Node4 -->
<g id="edge8" class="edge">
<title>Node5&#45;&gt;Node4</title>
<path fill="none" stroke="midnightblue" d="M272.63,-112.31C268.44,-103.44 262.4,-89.14 260,-76 257.15,-60.42 260.06,-42.58 263.3,-29.54"/>
<polygon fill="midnightblue" stroke="midnightblue" points="266.68,-30.44 265.99,-19.87 259.94,-28.57 266.68,-30.44"/>
</g>
<!-- Node6 -->
<g id="node6" class="node">
<title>Node6</title>
<g id="a_node6"><a xlink:href="dvd_8h.html" target="_top" xlink:title=" ">
<polygon fill="white" stroke="black" points="268.5,-56.5 268.5,-75.5 327.5,-75.5 327.5,-56.5 268.5,-56.5"/>
<text text-anchor="middle" x="298" y="-63.5" font-family="Helvetica,sans-Serif" font-size="10.00">dvd/dvd.h</text>
</a>
</g>
</g>
<!-- Node5&#45;&gt;Node6 -->
<g id="edge9" class="edge">
<title>Node5&#45;&gt;Node6</title>
<path fill="none" stroke="midnightblue" d="M280.47,-112.08C283.31,-104.77 287.43,-94.18 290.96,-85.1"/>
<polygon fill="midnightblue" stroke="midnightblue" points="294.23,-86.34 294.6,-75.75 287.71,-83.8 294.23,-86.34"/>
</g>
<!-- Node6&#45;&gt;Node4 -->
<g id="edge10" class="edge">
<title>Node6&#45;&gt;Node4</title>
<path fill="none" stroke="midnightblue" d="M293.21,-56.08C289.24,-48.69 283.47,-37.95 278.57,-28.81"/>
<polygon fill="midnightblue" stroke="midnightblue" points="281.51,-26.91 273.7,-19.75 275.35,-30.22 281.51,-26.91"/>
</g>
<!-- Node8 -->
<g id="node8" class="node">
<title>Node8</title>
<g id="a_node8"><a xlink:href="global_8h.html" target="_top" xlink:title=" ">
<polygon fill="white" stroke="black" points="350,-174 350,-193 400,-193 400,-174 350,-174"/>
<text text-anchor="middle" x="375" y="-181" font-family="Helvetica,sans-Serif" font-size="10.00">global.h</text>
</a>
</g>
</g>
<!-- Node7&#45;&gt;Node8 -->
<g id="edge12" class="edge">
<title>Node7&#45;&gt;Node8</title>
<path fill="none" stroke="midnightblue" d="M349.91,-240.73C354.26,-230.99 361.4,-214.98 366.96,-202.53"/>
<polygon fill="midnightblue" stroke="midnightblue" points="370.27,-203.69 371.15,-193.13 363.88,-200.83 370.27,-203.69"/>
</g>
<!-- Node8&#45;&gt;Node4 -->
<g id="edge13" class="edge">
<title>Node8&#45;&gt;Node4</title>
<path fill="none" stroke="midnightblue" d="M374.41,-173.93C372.54,-152.15 365.04,-93.73 337,-56 326.98,-42.52 311.65,-31.87 298.08,-24.32"/>
<polygon fill="midnightblue" stroke="midnightblue" points="299.53,-21.13 289.05,-19.6 296.28,-27.33 299.53,-21.13"/>
</g>
<!-- Node8&#45;&gt;Node5 -->
<g id="edge19" class="edge">
<title>Node8&#45;&gt;Node5</title>
<path fill="none" stroke="midnightblue" d="M360.96,-173.98C344.95,-164.25 318.55,-148.23 299.63,-136.74"/>
<polygon fill="midnightblue" stroke="midnightblue" points="301.38,-133.71 291.01,-131.51 297.75,-139.69 301.38,-133.71"/>
</g>
<!-- Node9 -->
<g id="node9" class="node">
<title>Node9</title>
<g id="a_node9"><a xlink:href="AR_8h.html" target="_top" xlink:title=" ">
<polygon fill="white" stroke="black" points="384.5,-56.5 384.5,-75.5 433.5,-75.5 433.5,-56.5 384.5,-56.5"/>
<text text-anchor="middle" x="409" y="-63.5" font-family="Helvetica,sans-Serif" font-size="10.00">ar/AR.h</text>
</a>
</g>
</g>
<!-- Node8&#45;&gt;Node9 -->
<g id="edge14" class="edge">
<title>Node8&#45;&gt;Node9</title>
<path fill="none" stroke="midnightblue" d="M377.56,-173.82C383.04,-155.17 396.06,-110.94 403.52,-85.63"/>
<polygon fill="midnightblue" stroke="midnightblue" points="406.95,-86.36 406.41,-75.78 400.23,-84.39 406.95,-86.36"/>
</g>
<!-- Node10 -->
<g id="node10" class="node">
<title>Node10</title>
<g id="a_node10"><a xlink:href="ARQ_8h.html" target="_top" xlink:title=" ">
<polygon fill="white" stroke="black" points="452,-56.5 452,-75.5 508,-75.5 508,-56.5 452,-56.5"/>
<text text-anchor="middle" x="480" y="-63.5" font-family="Helvetica,sans-Serif" font-size="10.00">ar/ARQ.h</text>
</a>
</g>
</g>
<!-- Node8&#45;&gt;Node10 -->
<g id="edge16" class="edge">
<title>Node8&#45;&gt;Node10</title>
<path fill="none" stroke="midnightblue" d="M382.89,-173.82C400.37,-154.59 442.6,-108.14 465.18,-83.31"/>
<polygon fill="midnightblue" stroke="midnightblue" points="467.88,-85.54 472.02,-75.78 462.7,-80.83 467.88,-85.54"/>
</g>
<!-- Node11 -->
<g id="node11" class="node">
<title>Node11</title>
<g id="a_node11"><a xlink:href="mwcc_8h.html" target="_top" xlink:title=" ">
<polygon fill="white" stroke="black" points="460,-112.5 460,-131.5 510,-131.5 510,-112.5 460,-112.5"/>
<text text-anchor="middle" x="485" y="-119.5" font-family="Helvetica,sans-Serif" font-size="10.00">mwcc.h</text>
</a>
</g>
</g>
<!-- Node8&#45;&gt;Node11 -->
<g id="edge18" class="edge">
<title>Node8&#45;&gt;Node11</title>
<path fill="none" stroke="midnightblue" d="M390.76,-173.98C408.98,-164.12 439.17,-147.79 460.47,-136.27"/>
<polygon fill="midnightblue" stroke="midnightblue" points="462.14,-139.35 469.27,-131.51 458.81,-133.19 462.14,-139.35"/>
</g>
<!-- Node9&#45;&gt;Node4 -->
<g id="edge15" class="edge">
<title>Node9&#45;&gt;Node4</title>
<path fill="none" stroke="midnightblue" d="M386.82,-56.44C363.57,-47.48 326.85,-33.31 300.58,-23.18"/>
<polygon fill="midnightblue" stroke="midnightblue" points="301.67,-19.85 291.08,-19.52 299.15,-26.38 301.67,-19.85"/>
</g>
<!-- Node10&#45;&gt;Node4 -->
<g id="edge17" class="edge">
<title>Node10&#45;&gt;Node4</title>
<path fill="none" stroke="midnightblue" d="M451.98,-57.83C416.25,-48.69 354.1,-32.78 312.27,-22.07"/>
<polygon fill="midnightblue" stroke="midnightblue" points="312.91,-18.63 302.36,-19.54 311.18,-25.41 312.91,-18.63"/>
</g>
</g>
</svg>
