<?xml version="1.0" encoding="UTF-8" standalone="no"?>
<!DOCTYPE svg PUBLIC "-//W3C//DTD SVG 1.1//EN"
 "http://www.w3.org/Graphics/SVG/1.1/DTD/svg11.dtd">
<!-- Generated by graphviz version 2.44.0 ()
 -->
<!-- Title: libs/JSystem/JUtility/JUTGamePad.cpp Pages: 1 -->
<svg width="1958pt" height="408pt"
 viewBox="0.00 0.00 1958.00 408.00" xmlns="http://www.w3.org/2000/svg" xmlns:xlink="http://www.w3.org/1999/xlink">
<g id="graph0" class="graph" transform="scale(1 1) rotate(0) translate(4 404)">
<title>libs/JSystem/JUtility/JUTGamePad.cpp</title>
<polygon fill="white" stroke="transparent" points="-4,4 -4,-404 1954,-404 1954,4 -4,4"/>
<!-- Node1 -->
<g id="node1" class="node">
<title>Node1</title>
<g id="a_node1"><a xlink:title=" ">
<polygon fill="#bfbfbf" stroke="black" points="982,-369.5 982,-399.5 1088,-399.5 1088,-369.5 982,-369.5"/>
<text text-anchor="start" x="990" y="-387.5" font-family="Helvetica,sans-Serif" font-size="10.00">libs/JSystem/JUtility</text>
<text text-anchor="middle" x="1035" y="-376.5" font-family="Helvetica,sans-Serif" font-size="10.00">/JUTGamePad.cpp</text>
</a>
</g>
</g>
<!-- Node2 -->
<g id="node2" class="node">
<title>Node2</title>
<g id="a_node2"><a xlink:href="JUTGamePad_8h.html" target="_top" xlink:title=" ">
<polygon fill="white" stroke="black" points="184,-302.5 184,-332.5 320,-332.5 320,-302.5 184,-302.5"/>
<text text-anchor="start" x="192" y="-320.5" font-family="Helvetica,sans-Serif" font-size="10.00">JSystem/JUtility/JUTGame</text>
<text text-anchor="middle" x="252" y="-309.5" font-family="Helvetica,sans-Serif" font-size="10.00">Pad/JUTGamePad.h</text>
</a>
</g>
</g>
<!-- Node1&#45;&gt;Node2 -->
<g id="edge1" class="edge">
<title>Node1&#45;&gt;Node2</title>
<path fill="none" stroke="midnightblue" d="M981.8,-379.08C846.65,-367.86 489.61,-338.23 330.47,-325.01"/>
<polygon fill="midnightblue" stroke="midnightblue" points="330.54,-321.51 320.28,-324.17 329.96,-328.48 330.54,-321.51"/>
</g>
<!-- Node9 -->
<g id="node9" class="node">
<title>Node9</title>
<g id="a_node9"><a xlink:href="global_8h.html" target="_top" xlink:title=" ">
<polygon fill="white" stroke="black" points="370,-174 370,-193 420,-193 420,-174 370,-174"/>
<text text-anchor="middle" x="395" y="-181" font-family="Helvetica,sans-Serif" font-size="10.00">global.h</text>
</a>
</g>
</g>
<!-- Node1&#45;&gt;Node9 -->
<g id="edge21" class="edge">
<title>Node1&#45;&gt;Node9</title>
<path fill="none" stroke="midnightblue" d="M981.73,-382.61C870.37,-380.02 616.93,-370.11 540,-333 477.65,-302.92 427.22,-234.35 405.93,-202"/>
<polygon fill="midnightblue" stroke="midnightblue" points="408.63,-199.73 400.28,-193.21 402.74,-203.52 408.63,-199.73"/>
</g>
<!-- Node13 -->
<g id="node13" class="node">
<title>Node13</title>
<g id="a_node13"><a xlink:href="math_8h.html" target="_top" xlink:title=" ">
<polygon fill="white" stroke="black" points="506.5,-56.5 506.5,-75.5 581.5,-75.5 581.5,-56.5 506.5,-56.5"/>
<text text-anchor="middle" x="544" y="-63.5" font-family="Helvetica,sans-Serif" font-size="10.00">msl_c/math.h</text>
</a>
</g>
</g>
<!-- Node1&#45;&gt;Node13 -->
<g id="edge22" class="edge">
<title>Node1&#45;&gt;Node13</title>
<path fill="none" stroke="midnightblue" d="M981.82,-381.11C866.87,-375.45 603.11,-359.7 573,-333 545.17,-308.33 554,-288.69 554,-251.5 554,-251.5 554,-251.5 554,-182.5 554,-148.24 549.58,-108.47 546.61,-85.67"/>
<polygon fill="midnightblue" stroke="midnightblue" points="550.07,-85.11 545.27,-75.67 543.14,-86.05 550.07,-85.11"/>
</g>
<!-- Node14 -->
<g id="node14" class="node">
<title>Node14</title>
<g id="a_node14"><a xlink:title=" ">
<polygon fill="white" stroke="#bfbfbf" points="582,-302.5 582,-332.5 718,-332.5 718,-302.5 582,-302.5"/>
<text text-anchor="start" x="590" y="-320.5" font-family="Helvetica,sans-Serif" font-size="10.00">JSystem/JUtility/JUTGame</text>
<text text-anchor="middle" x="650" y="-309.5" font-family="Helvetica,sans-Serif" font-size="10.00">Pad/asm/func_802E06DC.s</text>
</a>
</g>
</g>
<!-- Node1&#45;&gt;Node14 -->
<g id="edge24" class="edge">
<title>Node1&#45;&gt;Node14</title>
<path fill="none" stroke="midnightblue" d="M981.79,-375.17C922.45,-365.79 823.32,-349.85 728.1,-333.17"/>
<polygon fill="midnightblue" stroke="midnightblue" points="728.46,-329.68 718,-331.4 727.25,-336.57 728.46,-329.68"/>
</g>
<!-- Node15 -->
<g id="node15" class="node">
<title>Node15</title>
<g id="a_node15"><a xlink:title=" ">
<polygon fill="white" stroke="#bfbfbf" points="736,-302.5 736,-332.5 872,-332.5 872,-302.5 736,-302.5"/>
<text text-anchor="start" x="744" y="-320.5" font-family="Helvetica,sans-Serif" font-size="10.00">JSystem/JUtility/JUTGame</text>
<text text-anchor="middle" x="804" y="-309.5" font-family="Helvetica,sans-Serif" font-size="10.00">Pad/asm/func_802E07B0.s</text>
</a>
</g>
</g>
<!-- Node1&#45;&gt;Node15 -->
<g id="edge25" class="edge">
<title>Node1&#45;&gt;Node15</title>
<path fill="none" stroke="midnightblue" d="M985.16,-369.48C949.61,-359.47 901.63,-345.97 863.98,-335.38"/>
<polygon fill="midnightblue" stroke="midnightblue" points="864.72,-331.95 854.15,-332.61 862.83,-338.69 864.72,-331.95"/>
</g>
<!-- Node16 -->
<g id="node16" class="node">
<title>Node16</title>
<g id="a_node16"><a xlink:title=" ">
<polygon fill="white" stroke="#bfbfbf" points="890,-302.5 890,-332.5 1026,-332.5 1026,-302.5 890,-302.5"/>
<text text-anchor="start" x="898" y="-320.5" font-family="Helvetica,sans-Serif" font-size="10.00">JSystem/JUtility/JUTGame</text>
<text text-anchor="middle" x="958" y="-309.5" font-family="Helvetica,sans-Serif" font-size="10.00">Pad/asm/func_802E08E4.s</text>
</a>
</g>
</g>
<!-- Node1&#45;&gt;Node16 -->
<g id="edge26" class="edge">
<title>Node1&#45;&gt;Node16</title>
<path fill="none" stroke="midnightblue" d="M1018.29,-369.4C1007.8,-360.54 994.08,-348.96 982.39,-339.09"/>
<polygon fill="midnightblue" stroke="midnightblue" points="984.57,-336.35 974.68,-332.58 980.06,-341.7 984.57,-336.35"/>
</g>
<!-- Node17 -->
<g id="node17" class="node">
<title>Node17</title>
<g id="a_node17"><a xlink:title=" ">
<polygon fill="white" stroke="#bfbfbf" points="1044,-302.5 1044,-332.5 1180,-332.5 1180,-302.5 1044,-302.5"/>
<text text-anchor="start" x="1052" y="-320.5" font-family="Helvetica,sans-Serif" font-size="10.00">JSystem/JUtility/JUTGame</text>
<text text-anchor="middle" x="1112" y="-309.5" font-family="Helvetica,sans-Serif" font-size="10.00">Pad/asm/func_802E0CD8.s</text>
</a>
</g>
</g>
<!-- Node1&#45;&gt;Node17 -->
<g id="edge27" class="edge">
<title>Node1&#45;&gt;Node17</title>
<path fill="none" stroke="midnightblue" d="M1051.71,-369.4C1062.2,-360.54 1075.92,-348.96 1087.61,-339.09"/>
<polygon fill="midnightblue" stroke="midnightblue" points="1089.94,-341.7 1095.32,-332.58 1085.43,-336.35 1089.94,-341.7"/>
</g>
<!-- Node18 -->
<g id="node18" class="node">
<title>Node18</title>
<g id="a_node18"><a xlink:title=" ">
<polygon fill="white" stroke="#bfbfbf" points="1198,-302.5 1198,-332.5 1334,-332.5 1334,-302.5 1198,-302.5"/>
<text text-anchor="start" x="1206" y="-320.5" font-family="Helvetica,sans-Serif" font-size="10.00">JSystem/JUtility/JUTGame</text>
<text text-anchor="middle" x="1266" y="-309.5" font-family="Helvetica,sans-Serif" font-size="10.00">Pad/asm/func_802E108C.s</text>
</a>
</g>
</g>
<!-- Node1&#45;&gt;Node18 -->
<g id="edge28" class="edge">
<title>Node1&#45;&gt;Node18</title>
<path fill="none" stroke="midnightblue" d="M1084.84,-369.48C1120.39,-359.47 1168.37,-345.97 1206.02,-335.38"/>
<polygon fill="midnightblue" stroke="midnightblue" points="1207.17,-338.69 1215.85,-332.61 1205.28,-331.95 1207.17,-338.69"/>
</g>
<!-- Node19 -->
<g id="node19" class="node">
<title>Node19</title>
<g id="a_node19"><a xlink:title=" ">
<polygon fill="white" stroke="#bfbfbf" points="1352,-302.5 1352,-332.5 1488,-332.5 1488,-302.5 1352,-302.5"/>
<text text-anchor="start" x="1360" y="-320.5" font-family="Helvetica,sans-Serif" font-size="10.00">JSystem/JUtility/JUTGame</text>
<text text-anchor="middle" x="1420" y="-309.5" font-family="Helvetica,sans-Serif" font-size="10.00">Pad/asm/func_802E1238.s</text>
</a>
</g>
</g>
<!-- Node1&#45;&gt;Node19 -->
<g id="edge29" class="edge">
<title>Node1&#45;&gt;Node19</title>
<path fill="none" stroke="midnightblue" d="M1088.21,-375.17C1147.55,-365.79 1246.68,-349.85 1341.9,-333.17"/>
<polygon fill="midnightblue" stroke="midnightblue" points="1342.75,-336.57 1352,-331.4 1341.54,-329.68 1342.75,-336.57"/>
</g>
<!-- Node20 -->
<g id="node20" class="node">
<title>Node20</title>
<g id="a_node20"><a xlink:title=" ">
<polygon fill="white" stroke="#bfbfbf" points="1506,-302.5 1506,-332.5 1642,-332.5 1642,-302.5 1506,-302.5"/>
<text text-anchor="start" x="1514" y="-320.5" font-family="Helvetica,sans-Serif" font-size="10.00">JSystem/JUtility/JUTGame</text>
<text text-anchor="middle" x="1574" y="-309.5" font-family="Helvetica,sans-Serif" font-size="10.00">Pad/asm/func_802E1500.s</text>
</a>
</g>
</g>
<!-- Node1&#45;&gt;Node20 -->
<g id="edge30" class="edge">
<title>Node1&#45;&gt;Node20</title>
<path fill="none" stroke="midnightblue" d="M1088.18,-379.03C1172.45,-371.66 1342.06,-355.62 1495.53,-333.15"/>
<polygon fill="midnightblue" stroke="midnightblue" points="1496.23,-336.59 1505.61,-331.66 1495.21,-329.66 1496.23,-336.59"/>
</g>
<!-- Node21 -->
<g id="node21" class="node">
<title>Node21</title>
<g id="a_node21"><a xlink:title=" ">
<polygon fill="white" stroke="#bfbfbf" points="1660,-302.5 1660,-332.5 1796,-332.5 1796,-302.5 1660,-302.5"/>
<text text-anchor="start" x="1668" y="-320.5" font-family="Helvetica,sans-Serif" font-size="10.00">JSystem/JUtility/JUTGame</text>
<text text-anchor="middle" x="1728" y="-309.5" font-family="Helvetica,sans-Serif" font-size="10.00">Pad/asm/func_802E1720.s</text>
</a>
</g>
</g>
<!-- Node1&#45;&gt;Node21 -->
<g id="edge31" class="edge">
<title>Node1&#45;&gt;Node21</title>
<path fill="none" stroke="midnightblue" d="M1088.35,-381C1193.73,-375.67 1436.17,-361.37 1649.49,-333.11"/>
<polygon fill="midnightblue" stroke="midnightblue" points="1650.18,-336.55 1659.63,-331.76 1649.25,-329.62 1650.18,-336.55"/>
</g>
<!-- Node22 -->
<g id="node22" class="node">
<title>Node22</title>
<g id="a_node22"><a xlink:title=" ">
<polygon fill="white" stroke="#bfbfbf" points="1814,-302.5 1814,-332.5 1950,-332.5 1950,-302.5 1814,-302.5"/>
<text text-anchor="start" x="1822" y="-320.5" font-family="Helvetica,sans-Serif" font-size="10.00">JSystem/JUtility/JUTGame</text>
<text text-anchor="middle" x="1882" y="-309.5" font-family="Helvetica,sans-Serif" font-size="10.00">Pad/asm/func_802E199C.s</text>
</a>
</g>
</g>
<!-- Node1&#45;&gt;Node22 -->
<g id="edge32" class="edge">
<title>Node1&#45;&gt;Node22</title>
<path fill="none" stroke="midnightblue" d="M1088.42,-382.21C1212.39,-378.75 1529.33,-367.16 1803.49,-333.09"/>
<polygon fill="midnightblue" stroke="midnightblue" points="1804.15,-336.54 1813.63,-331.82 1803.28,-329.59 1804.15,-336.54"/>
</g>
<!-- Node3 -->
<g id="node3" class="node">
<title>Node3</title>
<g id="a_node3"><a xlink:href="JKRDisposer_8h.html" target="_top" xlink:title=" ">
<polygon fill="white" stroke="black" points="45.5,-235.5 45.5,-265.5 196.5,-265.5 196.5,-235.5 45.5,-235.5"/>
<text text-anchor="start" x="53.5" y="-253.5" font-family="Helvetica,sans-Serif" font-size="10.00">JSystem/JKernel/JKRDisposer</text>
<text text-anchor="middle" x="121" y="-242.5" font-family="Helvetica,sans-Serif" font-size="10.00">/JKRDisposer.h</text>
</a>
</g>
</g>
<!-- Node2&#45;&gt;Node3 -->
<g id="edge2" class="edge">
<title>Node2&#45;&gt;Node3</title>
<path fill="none" stroke="midnightblue" d="M223.57,-302.4C204.52,-292.94 179.22,-280.39 158.52,-270.12"/>
<polygon fill="midnightblue" stroke="midnightblue" points="159.88,-266.89 149.37,-265.58 156.77,-273.16 159.88,-266.89"/>
</g>
<!-- Node4 -->
<g id="node4" class="node">
<title>Node4</title>
<g id="a_node4"><a xlink:href="JSUList_8h.html" target="_top" xlink:title=" ">
<polygon fill="white" stroke="black" points="0,-168.5 0,-198.5 136,-198.5 136,-168.5 0,-168.5"/>
<text text-anchor="start" x="8" y="-186.5" font-family="Helvetica,sans-Serif" font-size="10.00">JSystem/JSupport/JSUList</text>
<text text-anchor="middle" x="68" y="-175.5" font-family="Helvetica,sans-Serif" font-size="10.00">/JSUList.h</text>
</a>
</g>
</g>
<!-- Node2&#45;&gt;Node4 -->
<g id="edge6" class="edge">
<title>Node2&#45;&gt;Node4</title>
<path fill="none" stroke="midnightblue" d="M183.85,-309.73C127.65,-302.57 54.28,-289.04 36,-266 22.12,-248.5 34.72,-224.23 47.97,-206.74"/>
<polygon fill="midnightblue" stroke="midnightblue" points="50.86,-208.73 54.42,-198.75 45.41,-204.34 50.86,-208.73"/>
</g>
<!-- Node5 -->
<g id="node5" class="node">
<title>Node5</title>
<g id="a_node5"><a xlink:href="types_8h.html" target="_top" xlink:title=" ">
<polygon fill="white" stroke="black" points="257.5,-0.5 257.5,-19.5 338.5,-19.5 338.5,-0.5 257.5,-0.5"/>
<text text-anchor="middle" x="298" y="-7.5" font-family="Helvetica,sans-Serif" font-size="10.00">dolphin/types.h</text>
</a>
</g>
</g>
<!-- Node2&#45;&gt;Node5 -->
<g id="edge7" class="edge">
<title>Node2&#45;&gt;Node5</title>
<path fill="none" stroke="midnightblue" d="M247.89,-302.23C236.94,-261.25 210.63,-140.75 253,-56 258.75,-44.5 268.57,-34.16 277.57,-26.29"/>
<polygon fill="midnightblue" stroke="midnightblue" points="279.96,-28.86 285.47,-19.81 275.52,-23.45 279.96,-28.86"/>
</g>
<!-- Node6 -->
<g id="node6" class="node">
<title>Node6</title>
<g id="a_node6"><a xlink:href="OS_8h.html" target="_top" xlink:title=" ">
<polygon fill="white" stroke="black" points="254,-112.5 254,-131.5 306,-131.5 306,-112.5 254,-112.5"/>
<text text-anchor="middle" x="280" y="-119.5" font-family="Helvetica,sans-Serif" font-size="10.00">os/OS.h</text>
</a>
</g>
</g>
<!-- Node2&#45;&gt;Node6 -->
<g id="edge8" class="edge">
<title>Node2&#45;&gt;Node6</title>
<path fill="none" stroke="midnightblue" d="M254.06,-302.27C259.03,-267.94 271.67,-180.57 277.27,-141.9"/>
<polygon fill="midnightblue" stroke="midnightblue" points="280.79,-141.98 278.76,-131.58 273.86,-140.97 280.79,-141.98"/>
</g>
<!-- Node8 -->
<g id="node8" class="node">
<title>Node8</title>
<g id="a_node8"><a xlink:href="pad_8h.html" target="_top" xlink:title=" ">
<polygon fill="white" stroke="black" points="323.5,-241 323.5,-260 382.5,-260 382.5,-241 323.5,-241"/>
<text text-anchor="middle" x="353" y="-248" font-family="Helvetica,sans-Serif" font-size="10.00">pad/pad.h</text>
</a>
</g>
</g>
<!-- Node2&#45;&gt;Node8 -->
<g id="edge12" class="edge">
<title>Node2&#45;&gt;Node8</title>
<path fill="none" stroke="midnightblue" d="M273.92,-302.4C290.85,-291.5 314.19,-276.48 331.12,-265.58"/>
<polygon fill="midnightblue" stroke="midnightblue" points="333.27,-268.36 339.78,-260.01 329.48,-262.48 333.27,-268.36"/>
</g>
<!-- Node3&#45;&gt;Node4 -->
<g id="edge3" class="edge">
<title>Node3&#45;&gt;Node4</title>
<path fill="none" stroke="midnightblue" d="M109.5,-235.4C102.62,-226.96 93.74,-216.07 85.96,-206.52"/>
<polygon fill="midnightblue" stroke="midnightblue" points="88.51,-204.11 79.48,-198.58 83.08,-208.54 88.51,-204.11"/>
</g>
<!-- Node3&#45;&gt;Node5 -->
<g id="edge5" class="edge">
<title>Node3&#45;&gt;Node5</title>
<path fill="none" stroke="midnightblue" d="M128.53,-235.17C133.58,-225.2 140.18,-211.5 145,-199 168.87,-137.07 143.38,-105.13 188,-56 203.57,-38.86 226.63,-28.1 247.62,-21.42"/>
<polygon fill="midnightblue" stroke="midnightblue" points="248.79,-24.72 257.39,-18.54 246.81,-18.01 248.79,-24.72"/>
</g>
<!-- Node4&#45;&gt;Node5 -->
<g id="edge4" class="edge">
<title>Node4&#45;&gt;Node5</title>
<path fill="none" stroke="midnightblue" d="M73.29,-168.4C83.8,-142.27 109.86,-86.23 150,-56 178.24,-34.74 216.56,-23.44 247.14,-17.49"/>
<polygon fill="midnightblue" stroke="midnightblue" points="247.97,-20.89 257.18,-15.67 246.72,-14.01 247.97,-20.89"/>
</g>
<!-- Node6&#45;&gt;Node5 -->
<g id="edge9" class="edge">
<title>Node6&#45;&gt;Node5</title>
<path fill="none" stroke="midnightblue" d="M273.83,-112.49C265.55,-99.99 252.7,-75.96 260,-56 264.06,-44.91 272.19,-34.67 279.89,-26.76"/>
<polygon fill="midnightblue" stroke="midnightblue" points="282.47,-29.14 287.29,-19.7 277.64,-24.07 282.47,-29.14"/>
</g>
<!-- Node7 -->
<g id="node7" class="node">
<title>Node7</title>
<g id="a_node7"><a xlink:href="dvd_8h.html" target="_top" xlink:title=" ">
<polygon fill="white" stroke="black" points="268.5,-56.5 268.5,-75.5 327.5,-75.5 327.5,-56.5 268.5,-56.5"/>
<text text-anchor="middle" x="298" y="-63.5" font-family="Helvetica,sans-Serif" font-size="10.00">dvd/dvd.h</text>
</a>
</g>
</g>
<!-- Node6&#45;&gt;Node7 -->
<g id="edge10" class="edge">
<title>Node6&#45;&gt;Node7</title>
<path fill="none" stroke="midnightblue" d="M282.97,-112.08C285.38,-104.85 288.86,-94.41 291.87,-85.4"/>
<polygon fill="midnightblue" stroke="midnightblue" points="295.24,-86.34 295.08,-75.75 288.6,-84.13 295.24,-86.34"/>
</g>
<!-- Node7&#45;&gt;Node5 -->
<g id="edge11" class="edge">
<title>Node7&#45;&gt;Node5</title>
<path fill="none" stroke="midnightblue" d="M298,-56.08C298,-49.01 298,-38.86 298,-29.99"/>
<polygon fill="midnightblue" stroke="midnightblue" points="301.5,-29.75 298,-19.75 294.5,-29.75 301.5,-29.75"/>
</g>
<!-- Node8&#45;&gt;Node9 -->
<g id="edge13" class="edge">
<title>Node8&#45;&gt;Node9</title>
<path fill="none" stroke="midnightblue" d="M358.66,-240.73C365.09,-230.79 375.72,-214.34 383.83,-201.79"/>
<polygon fill="midnightblue" stroke="midnightblue" points="386.94,-203.43 389.43,-193.13 381.06,-199.63 386.94,-203.43"/>
</g>
<!-- Node9&#45;&gt;Node5 -->
<g id="edge14" class="edge">
<title>Node9&#45;&gt;Node5</title>
<path fill="none" stroke="midnightblue" d="M388.43,-173.97C381.17,-164.25 369.54,-147.67 362,-132 346.59,-99.96 354.54,-86.93 337,-56 331.03,-45.48 322.37,-35.18 314.73,-27.09"/>
<polygon fill="midnightblue" stroke="midnightblue" points="317.07,-24.48 307.56,-19.81 312.09,-29.39 317.07,-24.48"/>
</g>
<!-- Node9&#45;&gt;Node6 -->
<g id="edge20" class="edge">
<title>Node9&#45;&gt;Node6</title>
<path fill="none" stroke="midnightblue" d="M378.52,-173.98C359.39,-164.08 327.63,-147.64 305.35,-136.12"/>
<polygon fill="midnightblue" stroke="midnightblue" points="306.94,-133 296.45,-131.51 303.72,-139.21 306.94,-133"/>
</g>
<!-- Node10 -->
<g id="node10" class="node">
<title>Node10</title>
<g id="a_node10"><a xlink:href="AR_8h.html" target="_top" xlink:title=" ">
<polygon fill="white" stroke="black" points="370.5,-112.5 370.5,-131.5 419.5,-131.5 419.5,-112.5 370.5,-112.5"/>
<text text-anchor="middle" x="395" y="-119.5" font-family="Helvetica,sans-Serif" font-size="10.00">ar/AR.h</text>
</a>
</g>
</g>
<!-- Node9&#45;&gt;Node10 -->
<g id="edge15" class="edge">
<title>Node9&#45;&gt;Node10</title>
<path fill="none" stroke="midnightblue" d="M395,-173.98C395,-165.58 395,-152.48 395,-141.66"/>
<polygon fill="midnightblue" stroke="midnightblue" points="398.5,-141.51 395,-131.51 391.5,-141.51 398.5,-141.51"/>
</g>
<!-- Node11 -->
<g id="node11" class="node">
<title>Node11</title>
<g id="a_node11"><a xlink:href="ARQ_8h.html" target="_top" xlink:title=" ">
<polygon fill="white" stroke="black" points="422,-56.5 422,-75.5 478,-75.5 478,-56.5 422,-56.5"/>
<text text-anchor="middle" x="450" y="-63.5" font-family="Helvetica,sans-Serif" font-size="10.00">ar/ARQ.h</text>
</a>
</g>
</g>
<!-- Node9&#45;&gt;Node11 -->
<g id="edge17" class="edge">
<title>Node9&#45;&gt;Node11</title>
<path fill="none" stroke="midnightblue" d="M402.08,-173.66C409.6,-163.93 421.42,-147.59 429,-132 436.29,-117 441.91,-98.87 445.49,-85.57"/>
<polygon fill="midnightblue" stroke="midnightblue" points="448.93,-86.26 448.01,-75.71 442.14,-84.53 448.93,-86.26"/>
</g>
<!-- Node12 -->
<g id="node12" class="node">
<title>Node12</title>
<g id="a_node12"><a xlink:href="mwcc_8h.html" target="_top" xlink:title=" ">
<polygon fill="white" stroke="black" points="476,-112.5 476,-131.5 526,-131.5 526,-112.5 476,-112.5"/>
<text text-anchor="middle" x="501" y="-119.5" font-family="Helvetica,sans-Serif" font-size="10.00">mwcc.h</text>
</a>
</g>
</g>
<!-- Node9&#45;&gt;Node12 -->
<g id="edge19" class="edge">
<title>Node9&#45;&gt;Node12</title>
<path fill="none" stroke="midnightblue" d="M410.19,-173.98C427.66,-164.17 456.58,-147.93 477.08,-136.42"/>
<polygon fill="midnightblue" stroke="midnightblue" points="478.83,-139.46 485.84,-131.51 475.41,-133.35 478.83,-139.46"/>
</g>
<!-- Node10&#45;&gt;Node5 -->
<g id="edge16" class="edge">
<title>Node10&#45;&gt;Node5</title>
<path fill="none" stroke="midnightblue" d="M393.45,-112.1C390.73,-98.67 384,-72.98 370,-56 358.77,-42.38 342.29,-31.66 327.93,-24.1"/>
<polygon fill="midnightblue" stroke="midnightblue" points="329.38,-20.91 318.87,-19.59 326.26,-27.18 329.38,-20.91"/>
</g>
<!-- Node11&#45;&gt;Node5 -->
<g id="edge18" class="edge">
<title>Node11&#45;&gt;Node5</title>
<path fill="none" stroke="midnightblue" d="M425.92,-56.44C400.46,-47.4 360.11,-33.06 331.54,-22.92"/>
<polygon fill="midnightblue" stroke="midnightblue" points="332.57,-19.57 321.97,-19.52 330.22,-26.16 332.57,-19.57"/>
</g>
<!-- Node13&#45;&gt;Node5 -->
<g id="edge23" class="edge">
<title>Node13&#45;&gt;Node5</title>
<path fill="none" stroke="midnightblue" d="M506.37,-56.74C463.61,-47.35 393.69,-32.01 346.78,-21.71"/>
<polygon fill="midnightblue" stroke="midnightblue" points="347.36,-18.25 336.84,-19.53 345.86,-25.09 347.36,-18.25"/>
</g>
</g>
</svg>
