<?xml version="1.0" encoding="UTF-8" standalone="no"?>
<!DOCTYPE svg PUBLIC "-//W3C//DTD SVG 1.1//EN"
 "http://www.w3.org/Graphics/SVG/1.1/DTD/svg11.dtd">
<!-- Generated by graphviz version 2.44.0 ()
 -->
<!-- Title: libs/JSystem/JUtility/JUTXfb.cpp Pages: 1 -->
<!--zoomable 430 -->
<svg id="main" version="1.1" xmlns="http://www.w3.org/2000/svg" xmlns:xlink="http://www.w3.org/1999/xlink" xml:space="preserve" onload="init(evt)">
<style type="text/css"><![CDATA[
.edge:hover path { stroke: red; }
.edge:hover polygon { stroke: red; fill: red; }
]]></style>
<script type="text/javascript"><![CDATA[
var edges = document.getElementsByTagName('g');
if (edges && edges.length) {
  for (var i=0;i<edges.length;i++) {
    if (edges[i].id.substr(0,4)=='edge') {
      edges[i].setAttribute('class','edge');
    }
  }
}
]]></script>
        <defs>
                <circle id="rim" cx="0" cy="0" r="7"/>
                <circle id="rim2" cx="0" cy="0" r="3.5"/>
                <g id="zoomPlus">
                        <use xlink:href="#rim" fill="#404040">
                                <set attributeName="fill" to="#808080" begin="zoomplus.mouseover" end="zoomplus.mouseout"/>
                        </use>
                        <path d="M-4,0h8M0,-4v8" fill="none" stroke="white" stroke-width="1.5" pointer-events="none"/>
                </g>
                <g id="zoomMin">
                        <use xlink:href="#rim" fill="#404040">
                                <set attributeName="fill" to="#808080" begin="zoomminus.mouseover" end="zoomminus.mouseout"/>
                        </use>
                        <path d="M-4,0h8" fill="none" stroke="white" stroke-width="1.5" pointer-events="none"/>
                </g>
                <g id="dirArrow">
                        <path fill="none" stroke="white" stroke-width="1.5" d="M0,-3.0v7 M-2.5,-0.5L0,-3.0L2.5,-0.5"/>
                </g>
               <g id="resetDef">
                       <use xlink:href="#rim2" fill="#404040">
                               <set attributeName="fill" to="#808080" begin="reset.mouseover" end="reset.mouseout"/>
                       </use>
               </g>
        </defs>

<script type="text/javascript">
var viewWidth = 644;
var viewHeight = 430;
var sectionId = 'dynsection-0';
</script>
<script xlink:href="svgpan.js"/>
<svg id="graph" class="graph">
<g id="viewport">
<title>libs/JSystem/JUtility/JUTXfb.cpp</title>
<polygon fill="white" stroke="transparent" points="-4,4 -4,-426 640,-426 640,4 -4,4"/>
<!-- Node1 -->
<g id="node1" class="node">
<title>Node1</title>
<g id="a_node1"><a xlink:title=" ">
<polygon fill="#bfbfbf" stroke="black" points="291,-391.5 291,-421.5 397,-421.5 397,-391.5 291,-391.5"/>
<text text-anchor="start" x="299" y="-409.5" font-family="Helvetica,sans-Serif" font-size="10.00">libs/JSystem/JUtility</text>
<text text-anchor="middle" x="344" y="-398.5" font-family="Helvetica,sans-Serif" font-size="10.00">/JUTXfb.cpp</text>
</a>
</g>
</g>
<!-- Node2 -->
<g id="node2" class="node">
<title>Node2</title>
<g id="a_node2"><a xlink:href="JUTXfb_8h.html" target="_top" xlink:title=" ">
<polygon fill="white" stroke="black" points="169.5,-324.5 169.5,-354.5 294.5,-354.5 294.5,-324.5 169.5,-324.5"/>
<text text-anchor="start" x="177.5" y="-342.5" font-family="Helvetica,sans-Serif" font-size="10.00">JSystem/JUtility/JUTXfb</text>
<text text-anchor="middle" x="232" y="-331.5" font-family="Helvetica,sans-Serif" font-size="10.00">/JUTXfb.h</text>
</a>
</g>
</g>
<!-- Node1&#45;&gt;Node2 -->
<g id="edge1" class="edge">
<title>Node1&#45;&gt;Node2</title>
<path fill="none" stroke="midnightblue" d="M319.7,-391.4C303.7,-382.11 282.56,-369.84 265.04,-359.67"/>
<polygon fill="midnightblue" stroke="midnightblue" points="266.66,-356.57 256.25,-354.58 263.15,-362.62 266.66,-356.57"/>
</g>
<!-- Node7 -->
<g id="node7" class="node">
<title>Node7</title>
<g id="a_node7"><a xlink:href="global_8h.html" target="_top" xlink:title=" ">
<polygon fill="white" stroke="black" points="300,-196 300,-215 350,-215 350,-196 300,-196"/>
<text text-anchor="middle" x="325" y="-203" font-family="Helvetica,sans-Serif" font-size="10.00">global.h</text>
</a>
</g>
</g>
<!-- Node1&#45;&gt;Node7 -->
<g id="edge27" class="edge">
<title>Node1&#45;&gt;Node7</title>
<path fill="none" stroke="midnightblue" d="M342.63,-391.19C339.27,-355.99 330.6,-265.17 326.81,-225.51"/>
<polygon fill="midnightblue" stroke="midnightblue" points="330.28,-224.98 325.85,-215.36 323.31,-225.65 330.28,-224.98"/>
</g>
<!-- Node14 -->
<g id="node14" class="node">
<title>Node14</title>
<g id="a_node14"><a xlink:href="JUTVideo_8h.html" target="_top" xlink:title=" ">
<polygon fill="white" stroke="black" points="398,-190.5 398,-220.5 532,-220.5 532,-190.5 398,-190.5"/>
<text text-anchor="start" x="406" y="-208.5" font-family="Helvetica,sans-Serif" font-size="10.00">JSystem/JUtility/JUTVideo</text>
<text text-anchor="middle" x="465" y="-197.5" font-family="Helvetica,sans-Serif" font-size="10.00">/JUTVideo.h</text>
</a>
</g>
</g>
<!-- Node1&#45;&gt;Node14 -->
<g id="edge22" class="edge">
<title>Node1&#45;&gt;Node14</title>
<path fill="none" stroke="midnightblue" d="M349.95,-391.3C357.08,-374.75 369.73,-346.77 383,-324 403.11,-289.51 430.23,-252.08 447.67,-228.96"/>
<polygon fill="midnightblue" stroke="midnightblue" points="450.59,-230.91 453.85,-220.83 445.01,-226.67 450.59,-230.91"/>
</g>
<!-- Node16 -->
<g id="node16" class="node">
<title>Node16</title>
<g id="a_node16"><a xlink:title=" ">
<polygon fill="white" stroke="#bfbfbf" points="391.5,-324.5 391.5,-354.5 516.5,-354.5 516.5,-324.5 391.5,-324.5"/>
<text text-anchor="start" x="399.5" y="-342.5" font-family="Helvetica,sans-Serif" font-size="10.00">JSystem/JUtility/JUTXfb</text>
<text text-anchor="middle" x="454" y="-331.5" font-family="Helvetica,sans-Serif" font-size="10.00">/asm/func_802E5260.s</text>
</a>
</g>
</g>
<!-- Node1&#45;&gt;Node16 -->
<g id="edge28" class="edge">
<title>Node1&#45;&gt;Node16</title>
<path fill="none" stroke="midnightblue" d="M367.87,-391.4C383.58,-382.11 404.35,-369.84 421.55,-359.67"/>
<polygon fill="midnightblue" stroke="midnightblue" points="423.35,-362.68 430.18,-354.58 419.79,-356.65 423.35,-362.68"/>
</g>
<!-- Node3 -->
<g id="node3" class="node">
<title>Node3</title>
<g id="a_node3"><a xlink:href="JKRHeap_8h.html" target="_top" xlink:title=" ">
<polygon fill="white" stroke="black" points="138,-257.5 138,-287.5 274,-287.5 274,-257.5 138,-257.5"/>
<text text-anchor="start" x="146" y="-275.5" font-family="Helvetica,sans-Serif" font-size="10.00">JSystem/JKernel/JKRHeap</text>
<text text-anchor="middle" x="206" y="-264.5" font-family="Helvetica,sans-Serif" font-size="10.00">/JKRHeap.h</text>
</a>
</g>
</g>
<!-- Node2&#45;&gt;Node3 -->
<g id="edge2" class="edge">
<title>Node2&#45;&gt;Node3</title>
<path fill="none" stroke="midnightblue" d="M226.36,-324.4C223.16,-316.39 219.06,-306.16 215.39,-296.98"/>
<polygon fill="midnightblue" stroke="midnightblue" points="218.59,-295.56 211.63,-287.58 212.09,-298.16 218.59,-295.56"/>
</g>
<!-- Node6 -->
<g id="node6" class="node">
<title>Node6</title>
<g id="a_node6"><a xlink:href="types_8h.html" target="_top" xlink:title=" ">
<polygon fill="white" stroke="black" points="280.5,-0.5 280.5,-19.5 361.5,-19.5 361.5,-0.5 280.5,-0.5"/>
<text text-anchor="middle" x="321" y="-7.5" font-family="Helvetica,sans-Serif" font-size="10.00">dolphin/types.h</text>
</a>
</g>
</g>
<!-- Node2&#45;&gt;Node6 -->
<g id="edge19" class="edge">
<title>Node2&#45;&gt;Node6</title>
<path fill="none" stroke="midnightblue" d="M169.22,-330.15C100.51,-317.06 0,-284.58 0,-206.5 0,-206.5 0,-206.5 0,-137.5 0,-88.57 31.23,-79.75 74,-56 135.63,-21.78 217.96,-12.84 270.25,-10.89"/>
<polygon fill="midnightblue" stroke="midnightblue" points="270.4,-14.39 280.29,-10.59 270.19,-7.39 270.4,-14.39"/>
</g>
<!-- Node13 -->
<g id="node13" class="node">
<title>Node13</title>
<g id="a_node13"><a xlink:href="GX_8h.html" target="_top" xlink:title=" ">
<polygon fill="white" stroke="black" points="534.5,-129 534.5,-148 585.5,-148 585.5,-129 534.5,-129"/>
<text text-anchor="middle" x="560" y="-136" font-family="Helvetica,sans-Serif" font-size="10.00">gx/GX.h</text>
</a>
</g>
</g>
<!-- Node2&#45;&gt;Node13 -->
<g id="edge20" class="edge">
<title>Node2&#45;&gt;Node13</title>
<path fill="none" stroke="midnightblue" d="M294.57,-332.03C364.98,-321.35 477.74,-293.39 541,-221 556.13,-203.69 559.81,-176.64 560.42,-158.5"/>
<polygon fill="midnightblue" stroke="midnightblue" points="563.92,-158.31 560.47,-148.3 556.92,-158.28 563.92,-158.31"/>
</g>
<!-- Node4 -->
<g id="node4" class="node">
<title>Node4</title>
<g id="a_node4"><a xlink:href="JKRDisposer_8h.html" target="_top" xlink:title=" ">
<polygon fill="white" stroke="black" points="88.5,-123.5 88.5,-153.5 239.5,-153.5 239.5,-123.5 88.5,-123.5"/>
<text text-anchor="start" x="96.5" y="-141.5" font-family="Helvetica,sans-Serif" font-size="10.00">JSystem/JKernel/JKRDisposer</text>
<text text-anchor="middle" x="164" y="-130.5" font-family="Helvetica,sans-Serif" font-size="10.00">/JKRDisposer.h</text>
</a>
</g>
</g>
<!-- Node3&#45;&gt;Node4 -->
<g id="edge3" class="edge">
<title>Node3&#45;&gt;Node4</title>
<path fill="none" stroke="midnightblue" d="M201.51,-257.37C194.34,-234.85 180.24,-190.53 171.52,-163.12"/>
<polygon fill="midnightblue" stroke="midnightblue" points="174.83,-161.99 168.46,-153.52 168.16,-164.12 174.83,-161.99"/>
</g>
<!-- Node3&#45;&gt;Node6 -->
<g id="edge7" class="edge">
<title>Node3&#45;&gt;Node6</title>
<path fill="none" stroke="midnightblue" d="M181.17,-257.47C150.5,-238.54 99.81,-201.61 79,-154 70.34,-134.18 77.94,-64.78 86,-56 110.24,-29.61 208.53,-18.35 270.06,-13.82"/>
<polygon fill="midnightblue" stroke="midnightblue" points="270.62,-17.28 280.35,-13.09 270.13,-10.3 270.62,-17.28"/>
</g>
<!-- Node3&#45;&gt;Node7 -->
<g id="edge8" class="edge">
<title>Node3&#45;&gt;Node7</title>
<path fill="none" stroke="midnightblue" d="M231.82,-257.4C252.24,-246.24 280.55,-230.78 300.59,-219.83"/>
<polygon fill="midnightblue" stroke="midnightblue" points="302.33,-222.87 309.43,-215.01 298.97,-216.73 302.33,-222.87"/>
</g>
<!-- Node5 -->
<g id="node5" class="node">
<title>Node5</title>
<g id="a_node5"><a xlink:href="JSUList_8h.html" target="_top" xlink:title=" ">
<polygon fill="white" stroke="black" points="104,-56.5 104,-86.5 240,-86.5 240,-56.5 104,-56.5"/>
<text text-anchor="start" x="112" y="-74.5" font-family="Helvetica,sans-Serif" font-size="10.00">JSystem/JSupport/JSUList</text>
<text text-anchor="middle" x="172" y="-63.5" font-family="Helvetica,sans-Serif" font-size="10.00">/JSUList.h</text>
</a>
</g>
</g>
<!-- Node4&#45;&gt;Node5 -->
<g id="edge4" class="edge">
<title>Node4&#45;&gt;Node5</title>
<path fill="none" stroke="midnightblue" d="M165.74,-123.4C166.7,-115.56 167.93,-105.6 169.04,-96.57"/>
<polygon fill="midnightblue" stroke="midnightblue" points="172.52,-96.93 170.27,-86.58 165.57,-96.07 172.52,-96.93"/>
</g>
<!-- Node4&#45;&gt;Node6 -->
<g id="edge6" class="edge">
<title>Node4&#45;&gt;Node6</title>
<path fill="none" stroke="midnightblue" d="M137.66,-123.48C110.71,-107.32 75.36,-79.93 95,-56 116.71,-29.54 210.36,-18.35 270.08,-13.83"/>
<polygon fill="midnightblue" stroke="midnightblue" points="270.36,-17.32 280.09,-13.12 269.86,-10.34 270.36,-17.32"/>
</g>
<!-- Node5&#45;&gt;Node6 -->
<g id="edge5" class="edge">
<title>Node5&#45;&gt;Node6</title>
<path fill="none" stroke="midnightblue" d="M207.31,-56.4C232.42,-46.37 265.84,-33.03 289.94,-23.4"/>
<polygon fill="midnightblue" stroke="midnightblue" points="291.33,-26.62 299.32,-19.66 288.73,-20.12 291.33,-26.62"/>
</g>
<!-- Node7&#45;&gt;Node6 -->
<g id="edge9" class="edge">
<title>Node7&#45;&gt;Node6</title>
<path fill="none" stroke="midnightblue" d="M319.22,-195.67C304.8,-172.46 269.57,-107.98 287,-56 290.6,-45.25 297.9,-35.02 304.82,-27.04"/>
<polygon fill="midnightblue" stroke="midnightblue" points="307.48,-29.32 311.71,-19.61 302.35,-24.56 307.48,-29.32"/>
</g>
<!-- Node8 -->
<g id="node8" class="node">
<title>Node8</title>
<g id="a_node8"><a xlink:href="AR_8h.html" target="_top" xlink:title=" ">
<polygon fill="white" stroke="black" points="296.5,-62 296.5,-81 345.5,-81 345.5,-62 296.5,-62"/>
<text text-anchor="middle" x="321" y="-69" font-family="Helvetica,sans-Serif" font-size="10.00">ar/AR.h</text>
</a>
</g>
</g>
<!-- Node7&#45;&gt;Node8 -->
<g id="edge10" class="edge">
<title>Node7&#45;&gt;Node8</title>
<path fill="none" stroke="midnightblue" d="M324.74,-195.84C324.1,-174.67 322.44,-119.95 321.56,-91.03"/>
<polygon fill="midnightblue" stroke="midnightblue" points="325.06,-90.91 321.26,-81.02 318.06,-91.12 325.06,-90.91"/>
</g>
<!-- Node9 -->
<g id="node9" class="node">
<title>Node9</title>
<g id="a_node9"><a xlink:href="ARQ_8h.html" target="_top" xlink:title=" ">
<polygon fill="white" stroke="black" points="364,-62 364,-81 420,-81 420,-62 364,-62"/>
<text text-anchor="middle" x="392" y="-69" font-family="Helvetica,sans-Serif" font-size="10.00">ar/ARQ.h</text>
</a>
</g>
</g>
<!-- Node7&#45;&gt;Node9 -->
<g id="edge12" class="edge">
<title>Node7&#45;&gt;Node9</title>
<path fill="none" stroke="midnightblue" d="M328.76,-195.82C335.32,-180.79 349.48,-149.05 363,-123 368.8,-111.83 375.82,-99.58 381.5,-89.94"/>
<polygon fill="midnightblue" stroke="midnightblue" points="384.52,-91.7 386.63,-81.31 378.51,-88.11 384.52,-91.7"/>
</g>
<!-- Node10 -->
<g id="node10" class="node">
<title>Node10</title>
<g id="a_node10"><a xlink:href="mwcc_8h.html" target="_top" xlink:title=" ">
<polygon fill="white" stroke="black" points="372,-129 372,-148 422,-148 422,-129 372,-129"/>
<text text-anchor="middle" x="397" y="-136" font-family="Helvetica,sans-Serif" font-size="10.00">mwcc.h</text>
</a>
</g>
</g>
<!-- Node7&#45;&gt;Node10 -->
<g id="edge14" class="edge">
<title>Node7&#45;&gt;Node10</title>
<path fill="none" stroke="midnightblue" d="M334.71,-195.73C346.26,-185.31 365.75,-167.71 379.86,-154.97"/>
<polygon fill="midnightblue" stroke="midnightblue" points="382.37,-157.43 387.44,-148.13 377.68,-152.23 382.37,-157.43"/>
</g>
<!-- Node11 -->
<g id="node11" class="node">
<title>Node11</title>
<g id="a_node11"><a xlink:href="OS_8h.html" target="_top" xlink:title=" ">
<polygon fill="white" stroke="black" points="440,-129 440,-148 492,-148 492,-129 440,-129"/>
<text text-anchor="middle" x="466" y="-136" font-family="Helvetica,sans-Serif" font-size="10.00">os/OS.h</text>
</a>
</g>
</g>
<!-- Node7&#45;&gt;Node11 -->
<g id="edge15" class="edge">
<title>Node7&#45;&gt;Node11</title>
<path fill="none" stroke="midnightblue" d="M343.72,-195.87C367.85,-184.75 410,-165.32 437.95,-152.43"/>
<polygon fill="midnightblue" stroke="midnightblue" points="439.58,-155.53 447.2,-148.17 436.65,-149.18 439.58,-155.53"/>
</g>
<!-- Node8&#45;&gt;Node6 -->
<g id="edge11" class="edge">
<title>Node8&#45;&gt;Node6</title>
<path fill="none" stroke="midnightblue" d="M321,-61.98C321,-53.58 321,-40.48 321,-29.66"/>
<polygon fill="midnightblue" stroke="midnightblue" points="324.5,-29.51 321,-19.51 317.5,-29.51 324.5,-29.51"/>
</g>
<!-- Node9&#45;&gt;Node6 -->
<g id="edge13" class="edge">
<title>Node9&#45;&gt;Node6</title>
<path fill="none" stroke="midnightblue" d="M381.83,-61.98C370.65,-52.61 352.48,-37.38 338.91,-26.01"/>
<polygon fill="midnightblue" stroke="midnightblue" points="341.07,-23.25 331.15,-19.51 336.57,-28.61 341.07,-23.25"/>
</g>
<!-- Node11&#45;&gt;Node6 -->
<g id="edge16" class="edge">
<title>Node11&#45;&gt;Node6</title>
<path fill="none" stroke="midnightblue" d="M464.24,-128.66C460.53,-112.23 450.43,-76.76 429,-56 412.64,-40.15 389.89,-29.55 369.48,-22.64"/>
<polygon fill="midnightblue" stroke="midnightblue" points="370.28,-19.22 359.69,-19.54 368.17,-25.9 370.28,-19.22"/>
</g>
<!-- Node12 -->
<g id="node12" class="node">
<title>Node12</title>
<g id="a_node12"><a xlink:href="dvd_8h.html" target="_top" xlink:title=" ">
<polygon fill="white" stroke="black" points="476.5,-62 476.5,-81 535.5,-81 535.5,-62 476.5,-62"/>
<text text-anchor="middle" x="506" y="-69" font-family="Helvetica,sans-Serif" font-size="10.00">dvd/dvd.h</text>
</a>
</g>
</g>
<!-- Node11&#45;&gt;Node12 -->
<g id="edge17" class="edge">
<title>Node11&#45;&gt;Node12</title>
<path fill="none" stroke="midnightblue" d="M471.39,-128.73C477.51,-118.79 487.64,-102.34 495.36,-89.79"/>
<polygon fill="midnightblue" stroke="midnightblue" points="498.43,-91.48 500.69,-81.13 492.47,-87.81 498.43,-91.48"/>
</g>
<!-- Node12&#45;&gt;Node6 -->
<g id="edge18" class="edge">
<title>Node12&#45;&gt;Node6</title>
<path fill="none" stroke="midnightblue" d="M479.96,-61.87C474.05,-59.93 467.81,-57.89 462,-56 426.58,-44.51 386.08,-31.61 357.6,-22.58"/>
<polygon fill="midnightblue" stroke="midnightblue" points="358.65,-19.24 348.05,-19.55 356.53,-25.91 358.65,-19.24"/>
</g>
<!-- Node13&#45;&gt;Node6 -->
<g id="edge21" class="edge">
<title>Node13&#45;&gt;Node6</title>
<path fill="none" stroke="midnightblue" d="M561.23,-128.98C563.1,-112.44 564.57,-75.9 545,-56 521.38,-31.99 430.54,-20.04 372.05,-14.7"/>
<polygon fill="midnightblue" stroke="midnightblue" points="372.15,-11.2 361.88,-13.81 371.54,-18.17 372.15,-11.2"/>
</g>
<!-- Node14&#45;&gt;Node11 -->
<g id="edge24" class="edge">
<title>Node14&#45;&gt;Node11</title>
<path fill="none" stroke="midnightblue" d="M465.22,-190.4C465.36,-181.06 465.55,-168.71 465.71,-158.52"/>
<polygon fill="midnightblue" stroke="midnightblue" points="469.21,-158.25 465.87,-148.19 462.21,-158.14 469.21,-158.25"/>
</g>
<!-- Node14&#45;&gt;Node13 -->
<g id="edge23" class="edge">
<title>Node14&#45;&gt;Node13</title>
<path fill="none" stroke="midnightblue" d="M485.61,-190.4C501.4,-179.6 523.09,-164.76 538.97,-153.89"/>
<polygon fill="midnightblue" stroke="midnightblue" points="541.29,-156.54 547.57,-148.01 537.34,-150.77 541.29,-156.54"/>
</g>
<!-- Node15 -->
<g id="node15" class="node">
<title>Node15</title>
<g id="a_node15"><a xlink:href="VI_8h.html" target="_top" xlink:title=" ">
<polygon fill="white" stroke="black" points="592,-62 592,-81 636,-81 636,-62 592,-62"/>
<text text-anchor="middle" x="614" y="-69" font-family="Helvetica,sans-Serif" font-size="10.00">vi/VI.h</text>
</a>
</g>
</g>
<!-- Node14&#45;&gt;Node15 -->
<g id="edge25" class="edge">
<title>Node14&#45;&gt;Node15</title>
<path fill="none" stroke="midnightblue" d="M532.3,-191.8C555.12,-184.34 578.89,-172.56 595,-154 610.07,-136.63 613.77,-109.59 614.4,-91.48"/>
<polygon fill="midnightblue" stroke="midnightblue" points="617.9,-91.31 614.46,-81.28 610.9,-91.26 617.9,-91.31"/>
</g>
<!-- Node15&#45;&gt;Node6 -->
<g id="edge26" class="edge">
<title>Node15&#45;&gt;Node6</title>
<path fill="none" stroke="midnightblue" d="M594.83,-61.91C589.46,-59.75 583.57,-57.59 578,-56 507.77,-35.95 424.04,-23.3 371.69,-16.69"/>
<polygon fill="midnightblue" stroke="midnightblue" points="372.01,-13.2 361.65,-15.45 371.15,-20.15 372.01,-13.2"/>
</g>
</g>
</svg>
        <g id="navigator" transform="translate(0 0)" fill="#404254">
                <rect fill="#f2f5e9" fill-opacity="0.5" stroke="#606060" stroke-width=".5" x="0" y="0" width="60" height="60"/>
                <use id="zoomplus" xlink:href="#zoomPlus" x="17" y="9" onmousedown="handleZoom(evt,'in')"/>
                <use id="zoomminus" xlink:href="#zoomMin" x="42" y="9" onmousedown="handleZoom(evt,'out')"/>
                <use id="reset" xlink:href="#resetDef" x="30" y="36" onmousedown="handleReset()"/>
                <g id="arrowUp" xlink:href="#dirArrow" transform="translate(30 24)" onmousedown="handlePan(0,-1)">
                  <use xlink:href="#rim" fill="#404040">
                        <set attributeName="fill" to="#808080" begin="arrowUp.mouseover" end="arrowUp.mouseout"/>
                  </use>
                  <path fill="none" stroke="white" stroke-width="1.5" d="M0,-3.0v7 M-2.5,-0.5L0,-3.0L2.5,-0.5"/>
                </g>
                <g id="arrowRight" xlink:href="#dirArrow" transform="rotate(90) translate(36 -43)" onmousedown="handlePan(1,0)">
                  <use xlink:href="#rim" fill="#404040">
                        <set attributeName="fill" to="#808080" begin="arrowRight.mouseover" end="arrowRight.mouseout"/>
                  </use>
                  <path fill="none" stroke="white" stroke-width="1.5" d="M0,-3.0v7 M-2.5,-0.5L0,-3.0L2.5,-0.5"/>
                </g>
                <g id="arrowDown" xlink:href="#dirArrow" transform="rotate(180) translate(-30 -48)" onmousedown="handlePan(0,1)">
                  <use xlink:href="#rim" fill="#404040">
                        <set attributeName="fill" to="#808080" begin="arrowDown.mouseover" end="arrowDown.mouseout"/>
                  </use>
                  <path fill="none" stroke="white" stroke-width="1.5" d="M0,-3.0v7 M-2.5,-0.5L0,-3.0L2.5,-0.5"/>
                </g>
                <g id="arrowLeft" xlink:href="#dirArrow" transform="rotate(270) translate(-36 17)" onmousedown="handlePan(-1,0)">
                  <use xlink:href="#rim" fill="#404040">
                        <set attributeName="fill" to="#808080" begin="arrowLeft.mouseover" end="arrowLeft.mouseout"/>
                  </use>
                  <path fill="none" stroke="white" stroke-width="1.5" d="M0,-3.0v7 M-2.5,-0.5L0,-3.0L2.5,-0.5"/>
                </g>
        </g>
        <svg viewBox="0 0 15 15" width="100%" height="30px" preserveAspectRatio="xMaxYMin meet">
         <g id="arrow_out" transform="scale(0.3 0.3)">
          <a xlink:href="JUTXfb_8cpp__incl_org.svg" target="_base">
           <rect id="button" ry="5" rx="5" y="6" x="6" height="38" width="38"
                fill="#f2f5e9" fill-opacity="0.5" stroke="#606060" stroke-width="1.0"/>
           <path id="arrow"
             d="M 11.500037,31.436501 C 11.940474,20.09759 22.043105,11.32322 32.158766,21.979434 L 37.068811,17.246167 C 37.068811,17.246167 37.088388,32 37.088388,32 L 22.160133,31.978069 C 22.160133,31.978069 26.997745,27.140456 26.997745,27.140456 C 18.528582,18.264221 13.291696,25.230495 11.500037,31.436501 z"
             style="fill:#404040;"/>
          </a>
         </g>
        </svg>
</svg>
