<?xml version="1.0" encoding="UTF-8" standalone="no"?>
<!DOCTYPE svg PUBLIC "-//W3C//DTD SVG 1.1//EN"
 "http://www.w3.org/Graphics/SVG/1.1/DTD/svg11.dtd">
<!-- Generated by graphviz version 2.44.0 ()
 -->
<!-- Title: include/JSystem/JUtility/JUTXfb/JUTXfb.h Pages: 1 -->
<svg width="624pt" height="352pt"
 viewBox="0.00 0.00 623.50 352.00" xmlns="http://www.w3.org/2000/svg" xmlns:xlink="http://www.w3.org/1999/xlink">
<g id="graph0" class="graph" transform="scale(1 1) rotate(0) translate(4 348)">
<title>include/JSystem/JUtility/JUTXfb/JUTXfb.h</title>
<polygon fill="white" stroke="transparent" points="-4,4 -4,-348 619.5,-348 619.5,4 -4,4"/>
<!-- Node1 -->
<g id="node1" class="node">
<title>Node1</title>
<g id="a_node1"><a xlink:title=" ">
<polygon fill="#bfbfbf" stroke="black" points="475,-313.5 475,-343.5 597,-343.5 597,-313.5 475,-313.5"/>
<text text-anchor="start" x="483" y="-331.5" font-family="Helvetica,sans-Serif" font-size="10.00">include/JSystem/JUtility</text>
<text text-anchor="middle" x="536" y="-320.5" font-family="Helvetica,sans-Serif" font-size="10.00">/JUTXfb/JUTXfb.h</text>
</a>
</g>
</g>
<!-- Node2 -->
<g id="node2" class="node">
<title>Node2</title>
<g id="a_node2"><a xlink:href="JKRHeap_8h.html" target="_top" xlink:title=" ">
<polygon fill="white" stroke="black" points="173,-246.5 173,-276.5 309,-276.5 309,-246.5 173,-246.5"/>
<text text-anchor="start" x="181" y="-264.5" font-family="Helvetica,sans-Serif" font-size="10.00">JSystem/JKernel/JKRHeap</text>
<text text-anchor="middle" x="241" y="-253.5" font-family="Helvetica,sans-Serif" font-size="10.00">/JKRHeap.h</text>
</a>
</g>
</g>
<!-- Node1&#45;&gt;Node2 -->
<g id="edge1" class="edge">
<title>Node1&#45;&gt;Node2</title>
<path fill="none" stroke="midnightblue" d="M474.88,-314.03C428.3,-303.77 363.98,-289.6 314.58,-278.71"/>
<polygon fill="midnightblue" stroke="midnightblue" points="315.11,-275.25 304.59,-276.51 313.61,-282.08 315.11,-275.25"/>
</g>
<!-- Node5 -->
<g id="node5" class="node">
<title>Node5</title>
<g id="a_node5"><a xlink:href="types_8h.html" target="_top" xlink:title=" ">
<polygon fill="white" stroke="black" points="287.5,-0.5 287.5,-19.5 368.5,-19.5 368.5,-0.5 287.5,-0.5"/>
<text text-anchor="middle" x="328" y="-7.5" font-family="Helvetica,sans-Serif" font-size="10.00">dolphin/types.h</text>
</a>
</g>
</g>
<!-- Node1&#45;&gt;Node5 -->
<g id="edge18" class="edge">
<title>Node1&#45;&gt;Node5</title>
<path fill="none" stroke="midnightblue" d="M536,-313.46C536,-290.12 536,-241.85 536,-201 536,-201 536,-201 536,-137.5 536,-100.2 542.45,-82.3 516,-56 496.89,-37 427.79,-24.13 378.92,-17.18"/>
<polygon fill="midnightblue" stroke="midnightblue" points="379.21,-13.68 368.83,-15.78 378.26,-20.62 379.21,-13.68"/>
</g>
<!-- Node12 -->
<g id="node12" class="node">
<title>Node12</title>
<g id="a_node12"><a xlink:href="GX_8h.html" target="_top" xlink:title=" ">
<polygon fill="white" stroke="black" points="564.5,-190.5 564.5,-209.5 615.5,-209.5 615.5,-190.5 564.5,-190.5"/>
<text text-anchor="middle" x="590" y="-197.5" font-family="Helvetica,sans-Serif" font-size="10.00">gx/GX.h</text>
</a>
</g>
</g>
<!-- Node1&#45;&gt;Node12 -->
<g id="edge19" class="edge">
<title>Node1&#45;&gt;Node12</title>
<path fill="none" stroke="midnightblue" d="M541.99,-313.48C551.83,-290.41 571.44,-244.48 582.3,-219.03"/>
<polygon fill="midnightblue" stroke="midnightblue" points="585.54,-220.36 586.25,-209.79 579.1,-217.61 585.54,-220.36"/>
</g>
<!-- Node3 -->
<g id="node3" class="node">
<title>Node3</title>
<g id="a_node3"><a xlink:href="JKRDisposer_8h.html" target="_top" xlink:title=" ">
<polygon fill="white" stroke="black" points="22.5,-123.5 22.5,-153.5 173.5,-153.5 173.5,-123.5 22.5,-123.5"/>
<text text-anchor="start" x="30.5" y="-141.5" font-family="Helvetica,sans-Serif" font-size="10.00">JSystem/JKernel/JKRDisposer</text>
<text text-anchor="middle" x="98" y="-130.5" font-family="Helvetica,sans-Serif" font-size="10.00">/JKRDisposer.h</text>
</a>
</g>
</g>
<!-- Node2&#45;&gt;Node3 -->
<g id="edge2" class="edge">
<title>Node2&#45;&gt;Node3</title>
<path fill="none" stroke="midnightblue" d="M224.32,-246.38C199.13,-225.07 151.26,-184.57 122.23,-160"/>
<polygon fill="midnightblue" stroke="midnightblue" points="124.47,-157.31 114.58,-153.53 119.95,-162.66 124.47,-157.31"/>
</g>
<!-- Node2&#45;&gt;Node5 -->
<g id="edge6" class="edge">
<title>Node2&#45;&gt;Node5</title>
<path fill="none" stroke="midnightblue" d="M237.09,-246.28C228.26,-211.02 210.35,-117.92 248,-56 257.12,-41 273.2,-30.58 288.56,-23.57"/>
<polygon fill="midnightblue" stroke="midnightblue" points="290.09,-26.73 297.97,-19.64 287.39,-20.27 290.09,-26.73"/>
</g>
<!-- Node6 -->
<g id="node6" class="node">
<title>Node6</title>
<g id="a_node6"><a xlink:href="global_8h.html" target="_top" xlink:title=" ">
<polygon fill="white" stroke="black" points="280,-190.5 280,-209.5 330,-209.5 330,-190.5 280,-190.5"/>
<text text-anchor="middle" x="305" y="-197.5" font-family="Helvetica,sans-Serif" font-size="10.00">global.h</text>
</a>
</g>
</g>
<!-- Node2&#45;&gt;Node6 -->
<g id="edge7" class="edge">
<title>Node2&#45;&gt;Node6</title>
<path fill="none" stroke="midnightblue" d="M256.17,-246.4C265.75,-237.49 278.16,-225.95 288.07,-216.74"/>
<polygon fill="midnightblue" stroke="midnightblue" points="290.75,-219.03 295.69,-209.66 285.98,-213.9 290.75,-219.03"/>
</g>
<!-- Node4 -->
<g id="node4" class="node">
<title>Node4</title>
<g id="a_node4"><a xlink:href="JSUList_8h.html" target="_top" xlink:title=" ">
<polygon fill="white" stroke="black" points="0,-56.5 0,-86.5 136,-86.5 136,-56.5 0,-56.5"/>
<text text-anchor="start" x="8" y="-74.5" font-family="Helvetica,sans-Serif" font-size="10.00">JSystem/JSupport/JSUList</text>
<text text-anchor="middle" x="68" y="-63.5" font-family="Helvetica,sans-Serif" font-size="10.00">/JSUList.h</text>
</a>
</g>
</g>
<!-- Node3&#45;&gt;Node4 -->
<g id="edge3" class="edge">
<title>Node3&#45;&gt;Node4</title>
<path fill="none" stroke="midnightblue" d="M91.49,-123.4C87.76,-115.3 82.97,-104.94 78.7,-95.69"/>
<polygon fill="midnightblue" stroke="midnightblue" points="81.87,-94.19 74.5,-86.58 75.51,-97.12 81.87,-94.19"/>
</g>
<!-- Node3&#45;&gt;Node5 -->
<g id="edge5" class="edge">
<title>Node3&#45;&gt;Node5</title>
<path fill="none" stroke="midnightblue" d="M110.01,-123.41C126.07,-105.4 156.23,-74.33 188,-56 215.67,-40.03 249.74,-28.92 277.34,-21.74"/>
<polygon fill="midnightblue" stroke="midnightblue" points="278.35,-25.09 287.19,-19.27 276.64,-18.3 278.35,-25.09"/>
</g>
<!-- Node4&#45;&gt;Node5 -->
<g id="edge4" class="edge">
<title>Node4&#45;&gt;Node5</title>
<path fill="none" stroke="midnightblue" d="M129.29,-56.47C175.71,-45.85 238.54,-31.47 281.02,-21.75"/>
<polygon fill="midnightblue" stroke="midnightblue" points="281.86,-25.15 290.83,-19.51 280.3,-18.33 281.86,-25.15"/>
</g>
<!-- Node6&#45;&gt;Node5 -->
<g id="edge8" class="edge">
<title>Node6&#45;&gt;Node5</title>
<path fill="none" stroke="midnightblue" d="M297.49,-190.17C278.79,-167.05 233.41,-103.24 259,-56 266.75,-41.7 281.23,-31.22 294.94,-23.99"/>
<polygon fill="midnightblue" stroke="midnightblue" points="296.74,-27.01 304.21,-19.5 293.69,-20.71 296.74,-27.01"/>
</g>
<!-- Node7 -->
<g id="node7" class="node">
<title>Node7</title>
<g id="a_node7"><a xlink:href="AR_8h.html" target="_top" xlink:title=" ">
<polygon fill="white" stroke="black" points="268.5,-62 268.5,-81 317.5,-81 317.5,-62 268.5,-62"/>
<text text-anchor="middle" x="293" y="-69" font-family="Helvetica,sans-Serif" font-size="10.00">ar/AR.h</text>
</a>
</g>
</g>
<!-- Node6&#45;&gt;Node7 -->
<g id="edge9" class="edge">
<title>Node6&#45;&gt;Node7</title>
<path fill="none" stroke="midnightblue" d="M304.18,-190.31C302.25,-169.99 297.42,-119.05 294.78,-91.28"/>
<polygon fill="midnightblue" stroke="midnightblue" points="298.26,-90.88 293.83,-81.26 291.29,-91.54 298.26,-90.88"/>
</g>
<!-- Node8 -->
<g id="node8" class="node">
<title>Node8</title>
<g id="a_node8"><a xlink:href="ARQ_8h.html" target="_top" xlink:title=" ">
<polygon fill="white" stroke="black" points="336,-62 336,-81 392,-81 392,-62 336,-62"/>
<text text-anchor="middle" x="364" y="-69" font-family="Helvetica,sans-Serif" font-size="10.00">ar/ARQ.h</text>
</a>
</g>
</g>
<!-- Node6&#45;&gt;Node8 -->
<g id="edge11" class="edge">
<title>Node6&#45;&gt;Node8</title>
<path fill="none" stroke="midnightblue" d="M309.06,-190.31C318.61,-169.81 342.71,-118.15 355.59,-90.54"/>
<polygon fill="midnightblue" stroke="midnightblue" points="358.86,-91.8 359.92,-81.26 352.52,-88.84 358.86,-91.8"/>
</g>
<!-- Node9 -->
<g id="node9" class="node">
<title>Node9</title>
<g id="a_node9"><a xlink:href="mwcc_8h.html" target="_top" xlink:title=" ">
<polygon fill="white" stroke="black" points="352,-129 352,-148 402,-148 402,-129 352,-129"/>
<text text-anchor="middle" x="377" y="-136" font-family="Helvetica,sans-Serif" font-size="10.00">mwcc.h</text>
</a>
</g>
</g>
<!-- Node6&#45;&gt;Node9 -->
<g id="edge13" class="edge">
<title>Node6&#45;&gt;Node9</title>
<path fill="none" stroke="midnightblue" d="M315.32,-190.48C326.65,-181.11 345.07,-165.88 358.84,-154.51"/>
<polygon fill="midnightblue" stroke="midnightblue" points="361.22,-157.08 366.7,-148.01 356.77,-151.68 361.22,-157.08"/>
</g>
<!-- Node10 -->
<g id="node10" class="node">
<title>Node10</title>
<g id="a_node10"><a xlink:href="OS_8h.html" target="_top" xlink:title=" ">
<polygon fill="white" stroke="black" points="420,-129 420,-148 472,-148 472,-129 420,-129"/>
<text text-anchor="middle" x="446" y="-136" font-family="Helvetica,sans-Serif" font-size="10.00">os/OS.h</text>
</a>
</g>
</g>
<!-- Node6&#45;&gt;Node10 -->
<g id="edge14" class="edge">
<title>Node6&#45;&gt;Node10</title>
<path fill="none" stroke="midnightblue" d="M325.2,-190.48C349.07,-180.4 389,-163.55 416.37,-152"/>
<polygon fill="midnightblue" stroke="midnightblue" points="417.98,-155.12 425.84,-148.01 415.26,-148.67 417.98,-155.12"/>
</g>
<!-- Node7&#45;&gt;Node5 -->
<g id="edge10" class="edge">
<title>Node7&#45;&gt;Node5</title>
<path fill="none" stroke="midnightblue" d="M298.01,-61.98C303.16,-53.23 311.31,-39.37 317.82,-28.31"/>
<polygon fill="midnightblue" stroke="midnightblue" points="320.94,-29.9 322.99,-19.51 314.91,-26.35 320.94,-29.9"/>
</g>
<!-- Node8&#45;&gt;Node5 -->
<g id="edge12" class="edge">
<title>Node8&#45;&gt;Node5</title>
<path fill="none" stroke="midnightblue" d="M358.84,-61.98C353.55,-53.23 345.16,-39.37 338.47,-28.31"/>
<polygon fill="midnightblue" stroke="midnightblue" points="341.32,-26.25 333.15,-19.51 335.33,-29.88 341.32,-26.25"/>
</g>
<!-- Node10&#45;&gt;Node5 -->
<g id="edge15" class="edge">
<title>Node10&#45;&gt;Node5</title>
<path fill="none" stroke="midnightblue" d="M442.98,-128.98C437.02,-113.08 422.41,-78.46 401,-56 388.44,-42.83 371.24,-31.98 356.68,-24.23"/>
<polygon fill="midnightblue" stroke="midnightblue" points="358.08,-21.01 347.58,-19.6 354.9,-27.25 358.08,-21.01"/>
</g>
<!-- Node11 -->
<g id="node11" class="node">
<title>Node11</title>
<g id="a_node11"><a xlink:href="dvd_8h.html" target="_top" xlink:title=" ">
<polygon fill="white" stroke="black" points="448.5,-62 448.5,-81 507.5,-81 507.5,-62 448.5,-62"/>
<text text-anchor="middle" x="478" y="-69" font-family="Helvetica,sans-Serif" font-size="10.00">dvd/dvd.h</text>
</a>
</g>
</g>
<!-- Node10&#45;&gt;Node11 -->
<g id="edge16" class="edge">
<title>Node10&#45;&gt;Node11</title>
<path fill="none" stroke="midnightblue" d="M450.32,-128.73C455.16,-118.89 463.15,-102.66 469.31,-90.16"/>
<polygon fill="midnightblue" stroke="midnightblue" points="472.48,-91.64 473.75,-81.13 466.2,-88.55 472.48,-91.64"/>
</g>
<!-- Node11&#45;&gt;Node5 -->
<g id="edge17" class="edge">
<title>Node11&#45;&gt;Node5</title>
<path fill="none" stroke="midnightblue" d="M456.51,-61.98C430.89,-51.81 387.89,-34.76 358.76,-23.2"/>
<polygon fill="midnightblue" stroke="midnightblue" points="360.04,-19.94 349.45,-19.51 357.46,-26.45 360.04,-19.94"/>
</g>
<!-- Node12&#45;&gt;Node5 -->
<g id="edge20" class="edge">
<title>Node12&#45;&gt;Node5</title>
<path fill="none" stroke="midnightblue" d="M590.43,-190.38C591.16,-165.47 589.65,-92.86 550,-56 525.62,-33.33 436.36,-20.96 378.72,-15.19"/>
<polygon fill="midnightblue" stroke="midnightblue" points="378.99,-11.7 368.7,-14.22 378.32,-18.66 378.99,-11.7"/>
</g>
</g>
</svg>
