<?xml version="1.0" encoding="UTF-8" standalone="no"?>
<!DOCTYPE svg PUBLIC "-//W3C//DTD SVG 1.1//EN"
 "http://www.w3.org/Graphics/SVG/1.1/DTD/svg11.dtd">
<!-- Generated by graphviz version 2.44.0 ()
 -->
<!-- Title: src/m_Do/m_Do_mtx.cpp Pages: 1 -->
<!--zoomable 263 -->
<svg id="main" version="1.1" xmlns="http://www.w3.org/2000/svg" xmlns:xlink="http://www.w3.org/1999/xlink" xml:space="preserve" onload="init(evt)">
<style type="text/css"><![CDATA[
.edge:hover path { stroke: red; }
.edge:hover polygon { stroke: red; fill: red; }
]]></style>
<script type="text/javascript"><![CDATA[
var edges = document.getElementsByTagName('g');
if (edges && edges.length) {
  for (var i=0;i<edges.length;i++) {
    if (edges[i].id.substr(0,4)=='edge') {
      edges[i].setAttribute('class','edge');
    }
  }
}
]]></script>
        <defs>
                <circle id="rim" cx="0" cy="0" r="7"/>
                <circle id="rim2" cx="0" cy="0" r="3.5"/>
                <g id="zoomPlus">
                        <use xlink:href="#rim" fill="#404040">
                                <set attributeName="fill" to="#808080" begin="zoomplus.mouseover" end="zoomplus.mouseout"/>
                        </use>
                        <path d="M-4,0h8M0,-4v8" fill="none" stroke="white" stroke-width="1.5" pointer-events="none"/>
                </g>
                <g id="zoomMin">
                        <use xlink:href="#rim" fill="#404040">
                                <set attributeName="fill" to="#808080" begin="zoomminus.mouseover" end="zoomminus.mouseout"/>
                        </use>
                        <path d="M-4,0h8" fill="none" stroke="white" stroke-width="1.5" pointer-events="none"/>
                </g>
                <g id="dirArrow">
                        <path fill="none" stroke="white" stroke-width="1.5" d="M0,-3.0v7 M-2.5,-0.5L0,-3.0L2.5,-0.5"/>
                </g>
               <g id="resetDef">
                       <use xlink:href="#rim2" fill="#404040">
                               <set attributeName="fill" to="#808080" begin="reset.mouseover" end="reset.mouseout"/>
                       </use>
               </g>
        </defs>

<script type="text/javascript">
var viewWidth = 5347;
var viewHeight = 263;
var sectionId = 'dynsection-0';
</script>
<script xlink:href="svgpan.js"/>
<svg id="graph" class="graph">
<g id="viewport">
<title>src/m_Do/m_Do_mtx.cpp</title>
<polygon fill="white" stroke="transparent" points="-4,4 -4,-259 5342.5,-259 5342.5,4 -4,4"/>
<!-- Node1 -->
<g id="node1" class="node">
<title>Node1</title>
<g id="a_node1"><a xlink:title=" ">
<polygon fill="#bfbfbf" stroke="black" points="2607,-235.5 2607,-254.5 2733,-254.5 2733,-235.5 2607,-235.5"/>
<text text-anchor="middle" x="2670" y="-242.5" font-family="Helvetica,sans-Serif" font-size="10.00">src/m_Do/m_Do_mtx.cpp</text>
</a>
</g>
</g>
<!-- Node2 -->
<g id="node2" class="node">
<title>Node2</title>
<g id="a_node2"><a xlink:href="JMath_8h.html" target="_top" xlink:title=" ">
<polygon fill="white" stroke="black" points="0,-56.5 0,-75.5 122,-75.5 122,-56.5 0,-56.5"/>
<text text-anchor="middle" x="61" y="-63.5" font-family="Helvetica,sans-Serif" font-size="10.00">JSystem/JMath/JMath.h</text>
</a>
</g>
</g>
<!-- Node1&#45;&gt;Node2 -->
<g id="edge1" class="edge">
<title>Node1&#45;&gt;Node2</title>
<path fill="none" stroke="midnightblue" d="M2606.72,-243.87C2236.49,-243 363.21,-236.75 248,-199 175.51,-175.25 106.59,-112.9 76.65,-83.19"/>
<polygon fill="midnightblue" stroke="midnightblue" points="78.79,-80.38 69.26,-75.74 73.81,-85.31 78.79,-80.38"/>
</g>
<!-- Node4 -->
<g id="node4" class="node">
<title>Node4</title>
<g id="a_node4"><a xlink:href="global_8h.html" target="_top" xlink:title=" ">
<polygon fill="white" stroke="black" points="257,-174 257,-193 307,-193 307,-174 257,-174"/>
<text text-anchor="middle" x="282" y="-181" font-family="Helvetica,sans-Serif" font-size="10.00">global.h</text>
</a>
</g>
</g>
<!-- Node1&#45;&gt;Node4 -->
<g id="edge3" class="edge">
<title>Node1&#45;&gt;Node4</title>
<path fill="none" stroke="midnightblue" d="M2606.9,-243.48C2289.04,-240.72 860.96,-226.99 418,-199 383.69,-196.83 344.69,-192.48 317.28,-189.1"/>
<polygon fill="midnightblue" stroke="midnightblue" points="317.37,-185.59 307.01,-187.82 316.5,-192.54 317.37,-185.59"/>
</g>
<!-- Node10 -->
<g id="node10" class="node">
<title>Node10</title>
<g id="a_node10"><a xlink:href="mtx__vec_8h.html" target="_top" xlink:title=" ">
<polygon fill="white" stroke="black" points="417.5,-56.5 417.5,-75.5 478.5,-75.5 478.5,-56.5 417.5,-56.5"/>
<text text-anchor="middle" x="448" y="-63.5" font-family="Helvetica,sans-Serif" font-size="10.00">mtx_vec.h</text>
</a>
</g>
</g>
<!-- Node1&#45;&gt;Node10 -->
<g id="edge14" class="edge">
<title>Node1&#45;&gt;Node10</title>
<path fill="none" stroke="midnightblue" d="M2606.9,-243.91C2249.16,-243.27 490.2,-238.11 451,-199 421.07,-169.14 432.71,-113.79 441.56,-85.18"/>
<polygon fill="midnightblue" stroke="midnightblue" points="444.9,-86.22 444.72,-75.63 438.25,-84.02 444.9,-86.22"/>
</g>
<!-- Node11 -->
<g id="node11" class="node">
<title>Node11</title>
<g id="a_node11"><a xlink:title=" ">
<polygon fill="white" stroke="#bfbfbf" points="460.5,-168.5 460.5,-198.5 595.5,-198.5 595.5,-168.5 460.5,-168.5"/>
<text text-anchor="start" x="468.5" y="-186.5" font-family="Helvetica,sans-Serif" font-size="10.00">m_Do/m_Do_mtx/asm/func</text>
<text text-anchor="middle" x="528" y="-175.5" font-family="Helvetica,sans-Serif" font-size="10.00">_8000C0CC.s</text>
</a>
</g>
</g>
<!-- Node1&#45;&gt;Node11 -->
<g id="edge16" class="edge">
<title>Node1&#45;&gt;Node11</title>
<path fill="none" stroke="midnightblue" d="M2606.89,-244.04C2307.48,-244.04 1027.47,-241.53 605.97,-199.07"/>
<polygon fill="midnightblue" stroke="midnightblue" points="606.18,-195.57 595.87,-198.03 605.46,-202.54 606.18,-195.57"/>
</g>
<!-- Node12 -->
<g id="node12" class="node">
<title>Node12</title>
<g id="a_node12"><a xlink:title=" ">
<polygon fill="white" stroke="#bfbfbf" points="613.5,-168.5 613.5,-198.5 748.5,-198.5 748.5,-168.5 613.5,-168.5"/>
<text text-anchor="start" x="621.5" y="-186.5" font-family="Helvetica,sans-Serif" font-size="10.00">m_Do/m_Do_mtx/asm/func</text>
<text text-anchor="middle" x="681" y="-175.5" font-family="Helvetica,sans-Serif" font-size="10.00">_8000C164.s</text>
</a>
</g>
</g>
<!-- Node1&#45;&gt;Node12 -->
<g id="edge17" class="edge">
<title>Node1&#45;&gt;Node12</title>
<path fill="none" stroke="midnightblue" d="M2606.63,-243.89C2320.84,-243.21 1149.3,-238.07 758.72,-198.91"/>
<polygon fill="midnightblue" stroke="midnightblue" points="758.82,-195.4 748.51,-197.86 758.1,-202.36 758.82,-195.4"/>
</g>
<!-- Node13 -->
<g id="node13" class="node">
<title>Node13</title>
<g id="a_node13"><a xlink:title=" ">
<polygon fill="white" stroke="#bfbfbf" points="766.5,-168.5 766.5,-198.5 901.5,-198.5 901.5,-168.5 766.5,-168.5"/>
<text text-anchor="start" x="774.5" y="-186.5" font-family="Helvetica,sans-Serif" font-size="10.00">m_Do/m_Do_mtx/asm/func</text>
<text text-anchor="middle" x="834" y="-175.5" font-family="Helvetica,sans-Serif" font-size="10.00">_8000C208.s</text>
</a>
</g>
</g>
<!-- Node1&#45;&gt;Node13 -->
<g id="edge18" class="edge">
<title>Node1&#45;&gt;Node13</title>
<path fill="none" stroke="midnightblue" d="M2606.73,-243.74C2335.67,-242.44 1270.26,-235.13 911.66,-198.9"/>
<polygon fill="midnightblue" stroke="midnightblue" points="911.82,-195.4 901.52,-197.85 911.1,-202.36 911.82,-195.4"/>
</g>
<!-- Node14 -->
<g id="node14" class="node">
<title>Node14</title>
<g id="a_node14"><a xlink:title=" ">
<polygon fill="white" stroke="#bfbfbf" points="919.5,-168.5 919.5,-198.5 1054.5,-198.5 1054.5,-168.5 919.5,-168.5"/>
<text text-anchor="start" x="927.5" y="-186.5" font-family="Helvetica,sans-Serif" font-size="10.00">m_Do/m_Do_mtx/asm/func</text>
<text text-anchor="middle" x="987" y="-175.5" font-family="Helvetica,sans-Serif" font-size="10.00">_8000C2A0.s</text>
</a>
</g>
</g>
<!-- Node1&#45;&gt;Node14 -->
<g id="edge19" class="edge">
<title>Node1&#45;&gt;Node14</title>
<path fill="none" stroke="midnightblue" d="M2606.66,-243.56C2350.76,-241.6 1391.88,-232.2 1064.94,-198.93"/>
<polygon fill="midnightblue" stroke="midnightblue" points="1064.83,-195.4 1054.52,-197.84 1064.1,-202.36 1064.83,-195.4"/>
</g>
<!-- Node15 -->
<g id="node15" class="node">
<title>Node15</title>
<g id="a_node15"><a xlink:title=" ">
<polygon fill="white" stroke="#bfbfbf" points="1072.5,-168.5 1072.5,-198.5 1207.5,-198.5 1207.5,-168.5 1072.5,-168.5"/>
<text text-anchor="start" x="1080.5" y="-186.5" font-family="Helvetica,sans-Serif" font-size="10.00">m_Do/m_Do_mtx/asm/func</text>
<text text-anchor="middle" x="1140" y="-175.5" font-family="Helvetica,sans-Serif" font-size="10.00">_8000C344.s</text>
</a>
</g>
</g>
<!-- Node1&#45;&gt;Node15 -->
<g id="edge20" class="edge">
<title>Node1&#45;&gt;Node15</title>
<path fill="none" stroke="midnightblue" d="M2606.6,-243.35C2366.57,-240.67 1512.69,-229.28 1217.77,-198.92"/>
<polygon fill="midnightblue" stroke="midnightblue" points="1217.83,-195.4 1207.52,-197.83 1217.09,-202.36 1217.83,-195.4"/>
</g>
<!-- Node16 -->
<g id="node16" class="node">
<title>Node16</title>
<g id="a_node16"><a xlink:title=" ">
<polygon fill="white" stroke="#bfbfbf" points="1225.5,-168.5 1225.5,-198.5 1360.5,-198.5 1360.5,-168.5 1225.5,-168.5"/>
<text text-anchor="start" x="1233.5" y="-186.5" font-family="Helvetica,sans-Serif" font-size="10.00">m_Do/m_Do_mtx/asm/func</text>
<text text-anchor="middle" x="1293" y="-175.5" font-family="Helvetica,sans-Serif" font-size="10.00">_8000C39C.s</text>
</a>
</g>
</g>
<!-- Node1&#45;&gt;Node16 -->
<g id="edge21" class="edge">
<title>Node1&#45;&gt;Node16</title>
<path fill="none" stroke="midnightblue" d="M2606.81,-243.08C2383.9,-239.65 1634.08,-226.39 1370.81,-198.92"/>
<polygon fill="midnightblue" stroke="midnightblue" points="1370.84,-195.4 1360.52,-197.81 1370.09,-202.36 1370.84,-195.4"/>
</g>
<!-- Node17 -->
<g id="node17" class="node">
<title>Node17</title>
<g id="a_node17"><a xlink:title=" ">
<polygon fill="white" stroke="#bfbfbf" points="1378.5,-168.5 1378.5,-198.5 1513.5,-198.5 1513.5,-168.5 1378.5,-168.5"/>
<text text-anchor="start" x="1386.5" y="-186.5" font-family="Helvetica,sans-Serif" font-size="10.00">m_Do/m_Do_mtx/asm/func</text>
<text text-anchor="middle" x="1446" y="-175.5" font-family="Helvetica,sans-Serif" font-size="10.00">_8000C3DC.s</text>
</a>
</g>
</g>
<!-- Node1&#45;&gt;Node17 -->
<g id="edge22" class="edge">
<title>Node1&#45;&gt;Node17</title>
<path fill="none" stroke="midnightblue" d="M2606.82,-242.75C2401.71,-238.48 1754.95,-223.51 1523.56,-198.9"/>
<polygon fill="midnightblue" stroke="midnightblue" points="1523.84,-195.41 1513.52,-197.8 1523.08,-202.37 1523.84,-195.41"/>
</g>
<!-- Node18 -->
<g id="node18" class="node">
<title>Node18</title>
<g id="a_node18"><a xlink:title=" ">
<polygon fill="white" stroke="#bfbfbf" points="1531.5,-168.5 1531.5,-198.5 1666.5,-198.5 1666.5,-168.5 1531.5,-168.5"/>
<text text-anchor="start" x="1539.5" y="-186.5" font-family="Helvetica,sans-Serif" font-size="10.00">m_Do/m_Do_mtx/asm/func</text>
<text text-anchor="middle" x="1599" y="-175.5" font-family="Helvetica,sans-Serif" font-size="10.00">_8000C434.s</text>
</a>
</g>
</g>
<!-- Node1&#45;&gt;Node18 -->
<g id="edge23" class="edge">
<title>Node1&#45;&gt;Node18</title>
<path fill="none" stroke="midnightblue" d="M2606.95,-244.22C2450.87,-244.1 2033.88,-239.76 1676.55,-198.93"/>
<polygon fill="midnightblue" stroke="midnightblue" points="1676.86,-195.44 1666.52,-197.77 1676.06,-202.4 1676.86,-195.44"/>
</g>
<!-- Node19 -->
<g id="node19" class="node">
<title>Node19</title>
<g id="a_node19"><a xlink:title=" ">
<polygon fill="white" stroke="#bfbfbf" points="1684.5,-168.5 1684.5,-198.5 1819.5,-198.5 1819.5,-168.5 1684.5,-168.5"/>
<text text-anchor="start" x="1692.5" y="-186.5" font-family="Helvetica,sans-Serif" font-size="10.00">m_Do/m_Do_mtx/asm/func</text>
<text text-anchor="middle" x="1752" y="-175.5" font-family="Helvetica,sans-Serif" font-size="10.00">_8000C474.s</text>
</a>
</g>
</g>
<!-- Node1&#45;&gt;Node19 -->
<g id="edge24" class="edge">
<title>Node1&#45;&gt;Node19</title>
<path fill="none" stroke="midnightblue" d="M2606.98,-243.48C2468.28,-241.72 2126.05,-233.99 1829.61,-198.95"/>
<polygon fill="midnightblue" stroke="midnightblue" points="1829.87,-195.45 1819.53,-197.74 1829.04,-202.4 1829.87,-195.45"/>
</g>
<!-- Node20 -->
<g id="node20" class="node">
<title>Node20</title>
<g id="a_node20"><a xlink:title=" ">
<polygon fill="white" stroke="#bfbfbf" points="1837.5,-168.5 1837.5,-198.5 1972.5,-198.5 1972.5,-168.5 1837.5,-168.5"/>
<text text-anchor="start" x="1845.5" y="-186.5" font-family="Helvetica,sans-Serif" font-size="10.00">m_Do/m_Do_mtx/asm/func</text>
<text text-anchor="middle" x="1905" y="-175.5" font-family="Helvetica,sans-Serif" font-size="10.00">_8000C4CC.s</text>
</a>
</g>
</g>
<!-- Node1&#45;&gt;Node20 -->
<g id="edge25" class="edge">
<title>Node1&#45;&gt;Node20</title>
<path fill="none" stroke="midnightblue" d="M2606.68,-242.41C2486.86,-238.86 2218.64,-228.24 1982.68,-198.97"/>
<polygon fill="midnightblue" stroke="midnightblue" points="1982.89,-195.47 1972.53,-197.69 1982.02,-202.41 1982.89,-195.47"/>
</g>
<!-- Node21 -->
<g id="node21" class="node">
<title>Node21</title>
<g id="a_node21"><a xlink:title=" ">
<polygon fill="white" stroke="#bfbfbf" points="1990.5,-168.5 1990.5,-198.5 2125.5,-198.5 2125.5,-168.5 1990.5,-168.5"/>
<text text-anchor="start" x="1998.5" y="-186.5" font-family="Helvetica,sans-Serif" font-size="10.00">m_Do/m_Do_mtx/asm/func</text>
<text text-anchor="middle" x="2058" y="-175.5" font-family="Helvetica,sans-Serif" font-size="10.00">_8000C50C.s</text>
</a>
</g>
</g>
<!-- Node1&#45;&gt;Node21 -->
<g id="edge26" class="edge">
<title>Node1&#45;&gt;Node21</title>
<path fill="none" stroke="midnightblue" d="M2606.77,-240.78C2508.29,-235.3 2312.16,-222.54 2135.54,-198.97"/>
<polygon fill="midnightblue" stroke="midnightblue" points="2135.92,-195.49 2125.54,-197.62 2134.98,-202.43 2135.92,-195.49"/>
</g>
<!-- Node22 -->
<g id="node22" class="node">
<title>Node22</title>
<g id="a_node22"><a xlink:title=" ">
<polygon fill="white" stroke="#bfbfbf" points="2143.5,-168.5 2143.5,-198.5 2278.5,-198.5 2278.5,-168.5 2143.5,-168.5"/>
<text text-anchor="start" x="2151.5" y="-186.5" font-family="Helvetica,sans-Serif" font-size="10.00">m_Do/m_Do_mtx/asm/func</text>
<text text-anchor="middle" x="2211" y="-175.5" font-family="Helvetica,sans-Serif" font-size="10.00">_8000C710.s</text>
</a>
</g>
</g>
<!-- Node1&#45;&gt;Node22 -->
<g id="edge27" class="edge">
<title>Node1&#45;&gt;Node22</title>
<path fill="none" stroke="midnightblue" d="M2606.96,-237.92C2533.15,-230.5 2407.02,-216.88 2288.53,-199.01"/>
<polygon fill="midnightblue" stroke="midnightblue" points="2288.97,-195.54 2278.56,-197.49 2287.92,-202.46 2288.97,-195.54"/>
</g>
<!-- Node23 -->
<g id="node23" class="node">
<title>Node23</title>
<g id="a_node23"><a xlink:title=" ">
<polygon fill="white" stroke="#bfbfbf" points="2296.5,-168.5 2296.5,-198.5 2431.5,-198.5 2431.5,-168.5 2296.5,-168.5"/>
<text text-anchor="start" x="2304.5" y="-186.5" font-family="Helvetica,sans-Serif" font-size="10.00">m_Do/m_Do_mtx/asm/func</text>
<text text-anchor="middle" x="2364" y="-175.5" font-family="Helvetica,sans-Serif" font-size="10.00">_8000C8D0.s</text>
</a>
</g>
</g>
<!-- Node1&#45;&gt;Node23 -->
<g id="edge28" class="edge">
<title>Node1&#45;&gt;Node23</title>
<path fill="none" stroke="midnightblue" d="M2626.16,-235.48C2578.12,-226.13 2500.13,-210.97 2441.68,-199.6"/>
<polygon fill="midnightblue" stroke="midnightblue" points="2442.22,-196.14 2431.74,-197.67 2440.89,-203.02 2442.22,-196.14"/>
</g>
<!-- Node24 -->
<g id="node24" class="node">
<title>Node24</title>
<g id="a_node24"><a xlink:title=" ">
<polygon fill="white" stroke="#bfbfbf" points="2449.5,-168.5 2449.5,-198.5 2584.5,-198.5 2584.5,-168.5 2449.5,-168.5"/>
<text text-anchor="start" x="2457.5" y="-186.5" font-family="Helvetica,sans-Serif" font-size="10.00">m_Do/m_Do_mtx/asm/func</text>
<text text-anchor="middle" x="2517" y="-175.5" font-family="Helvetica,sans-Serif" font-size="10.00">_8000C9B0.s</text>
</a>
</g>
</g>
<!-- Node1&#45;&gt;Node24 -->
<g id="edge29" class="edge">
<title>Node1&#45;&gt;Node24</title>
<path fill="none" stroke="midnightblue" d="M2648.08,-235.48C2625.9,-226.85 2590.96,-213.26 2562.73,-202.29"/>
<polygon fill="midnightblue" stroke="midnightblue" points="2563.65,-198.89 2553.06,-198.52 2561.11,-205.41 2563.65,-198.89"/>
</g>
<!-- Node25 -->
<g id="node25" class="node">
<title>Node25</title>
<g id="a_node25"><a xlink:title=" ">
<polygon fill="white" stroke="#bfbfbf" points="2602.5,-168.5 2602.5,-198.5 2737.5,-198.5 2737.5,-168.5 2602.5,-168.5"/>
<text text-anchor="start" x="2610.5" y="-186.5" font-family="Helvetica,sans-Serif" font-size="10.00">m_Do/m_Do_mtx/asm/func</text>
<text text-anchor="middle" x="2670" y="-175.5" font-family="Helvetica,sans-Serif" font-size="10.00">_8000CB5C.s</text>
</a>
</g>
</g>
<!-- Node1&#45;&gt;Node25 -->
<g id="edge30" class="edge">
<title>Node1&#45;&gt;Node25</title>
<path fill="none" stroke="midnightblue" d="M2670,-235.48C2670,-228.47 2670,-218.19 2670,-208.7"/>
<polygon fill="midnightblue" stroke="midnightblue" points="2673.5,-208.52 2670,-198.52 2666.5,-208.52 2673.5,-208.52"/>
</g>
<!-- Node26 -->
<g id="node26" class="node">
<title>Node26</title>
<g id="a_node26"><a xlink:title=" ">
<polygon fill="white" stroke="#bfbfbf" points="2755.5,-168.5 2755.5,-198.5 2890.5,-198.5 2890.5,-168.5 2755.5,-168.5"/>
<text text-anchor="start" x="2763.5" y="-186.5" font-family="Helvetica,sans-Serif" font-size="10.00">m_Do/m_Do_mtx/asm/func</text>
<text text-anchor="middle" x="2823" y="-175.5" font-family="Helvetica,sans-Serif" font-size="10.00">_8000CC00.s</text>
</a>
</g>
</g>
<!-- Node1&#45;&gt;Node26 -->
<g id="edge31" class="edge">
<title>Node1&#45;&gt;Node26</title>
<path fill="none" stroke="midnightblue" d="M2691.92,-235.48C2714.1,-226.85 2749.04,-213.26 2777.27,-202.29"/>
<polygon fill="midnightblue" stroke="midnightblue" points="2778.89,-205.41 2786.94,-198.52 2776.35,-198.89 2778.89,-205.41"/>
</g>
<!-- Node27 -->
<g id="node27" class="node">
<title>Node27</title>
<g id="a_node27"><a xlink:title=" ">
<polygon fill="white" stroke="#bfbfbf" points="2908.5,-168.5 2908.5,-198.5 3043.5,-198.5 3043.5,-168.5 2908.5,-168.5"/>
<text text-anchor="start" x="2916.5" y="-186.5" font-family="Helvetica,sans-Serif" font-size="10.00">m_Do/m_Do_mtx/asm/func</text>
<text text-anchor="middle" x="2976" y="-175.5" font-family="Helvetica,sans-Serif" font-size="10.00">_8000CCC8.s</text>
</a>
</g>
</g>
<!-- Node1&#45;&gt;Node27 -->
<g id="edge32" class="edge">
<title>Node1&#45;&gt;Node27</title>
<path fill="none" stroke="midnightblue" d="M2713.84,-235.48C2761.88,-226.13 2839.87,-210.97 2898.32,-199.6"/>
<polygon fill="midnightblue" stroke="midnightblue" points="2899.11,-203.02 2908.26,-197.67 2897.78,-196.14 2899.11,-203.02"/>
</g>
<!-- Node28 -->
<g id="node28" class="node">
<title>Node28</title>
<g id="a_node28"><a xlink:title=" ">
<polygon fill="white" stroke="#bfbfbf" points="3061.5,-168.5 3061.5,-198.5 3196.5,-198.5 3196.5,-168.5 3061.5,-168.5"/>
<text text-anchor="start" x="3069.5" y="-186.5" font-family="Helvetica,sans-Serif" font-size="10.00">m_Do/m_Do_mtx/asm/func</text>
<text text-anchor="middle" x="3129" y="-175.5" font-family="Helvetica,sans-Serif" font-size="10.00">_8000CD14.s</text>
</a>
</g>
</g>
<!-- Node1&#45;&gt;Node28 -->
<g id="edge33" class="edge">
<title>Node1&#45;&gt;Node28</title>
<path fill="none" stroke="midnightblue" d="M2733.22,-237.97C2807.22,-230.6 2933.69,-217.03 3051.58,-199.16"/>
<polygon fill="midnightblue" stroke="midnightblue" points="3052.14,-202.61 3061.5,-197.64 3051.08,-195.69 3052.14,-202.61"/>
</g>
<!-- Node29 -->
<g id="node29" class="node">
<title>Node29</title>
<g id="a_node29"><a xlink:title=" ">
<polygon fill="white" stroke="#bfbfbf" points="3214.5,-168.5 3214.5,-198.5 3349.5,-198.5 3349.5,-168.5 3214.5,-168.5"/>
<text text-anchor="start" x="3222.5" y="-186.5" font-family="Helvetica,sans-Serif" font-size="10.00">m_Do/m_Do_mtx/asm/func</text>
<text text-anchor="middle" x="3282" y="-175.5" font-family="Helvetica,sans-Serif" font-size="10.00">_8000CD64.s</text>
</a>
</g>
</g>
<!-- Node1&#45;&gt;Node29 -->
<g id="edge34" class="edge">
<title>Node1&#45;&gt;Node29</title>
<path fill="none" stroke="midnightblue" d="M2733.36,-240.84C2832.03,-235.43 3028.53,-222.77 3204.17,-199.17"/>
<polygon fill="midnightblue" stroke="midnightblue" points="3204.67,-202.63 3214.11,-197.82 3203.72,-195.7 3204.67,-202.63"/>
</g>
<!-- Node30 -->
<g id="node30" class="node">
<title>Node30</title>
<g id="a_node30"><a xlink:title=" ">
<polygon fill="white" stroke="#bfbfbf" points="3367.5,-168.5 3367.5,-198.5 3502.5,-198.5 3502.5,-168.5 3367.5,-168.5"/>
<text text-anchor="start" x="3375.5" y="-186.5" font-family="Helvetica,sans-Serif" font-size="10.00">m_Do/m_Do_mtx/asm/func</text>
<text text-anchor="middle" x="3435" y="-175.5" font-family="Helvetica,sans-Serif" font-size="10.00">_8000CD9C.s</text>
</a>
</g>
</g>
<!-- Node1&#45;&gt;Node30 -->
<g id="edge35" class="edge">
<title>Node1&#45;&gt;Node30</title>
<path fill="none" stroke="midnightblue" d="M2733.42,-242.47C2853.42,-239.01 3122.05,-228.54 3357.01,-199.16"/>
<polygon fill="midnightblue" stroke="midnightblue" points="3357.63,-202.61 3367.11,-197.88 3356.75,-195.66 3357.63,-202.61"/>
</g>
<!-- Node31 -->
<g id="node31" class="node">
<title>Node31</title>
<g id="a_node31"><a xlink:title=" ">
<polygon fill="white" stroke="#bfbfbf" points="3520.5,-168.5 3520.5,-198.5 3655.5,-198.5 3655.5,-168.5 3520.5,-168.5"/>
<text text-anchor="start" x="3528.5" y="-186.5" font-family="Helvetica,sans-Serif" font-size="10.00">m_Do/m_Do_mtx/asm/func</text>
<text text-anchor="middle" x="3588" y="-175.5" font-family="Helvetica,sans-Serif" font-size="10.00">_8000CDD4.s</text>
</a>
</g>
</g>
<!-- Node1&#45;&gt;Node31 -->
<g id="edge36" class="edge">
<title>Node1&#45;&gt;Node31</title>
<path fill="none" stroke="midnightblue" d="M2733.1,-243.53C2871.98,-241.88 3214.64,-234.37 3510.07,-199.13"/>
<polygon fill="midnightblue" stroke="midnightblue" points="3510.61,-202.59 3520.12,-197.92 3509.77,-195.64 3510.61,-202.59"/>
</g>
<!-- Node32 -->
<g id="node32" class="node">
<title>Node32</title>
<g id="a_node32"><a xlink:title=" ">
<polygon fill="white" stroke="#bfbfbf" points="3673.5,-168.5 3673.5,-198.5 3808.5,-198.5 3808.5,-168.5 3673.5,-168.5"/>
<text text-anchor="start" x="3681.5" y="-186.5" font-family="Helvetica,sans-Serif" font-size="10.00">m_Do/m_Do_mtx/asm/func</text>
<text text-anchor="middle" x="3741" y="-175.5" font-family="Helvetica,sans-Serif" font-size="10.00">_8000CE00.s</text>
</a>
</g>
</g>
<!-- Node1&#45;&gt;Node32 -->
<g id="edge37" class="edge">
<title>Node1&#45;&gt;Node32</title>
<path fill="none" stroke="midnightblue" d="M2733.12,-244.28C2889.37,-244.28 3306.81,-240.21 3663.13,-199.11"/>
<polygon fill="midnightblue" stroke="midnightblue" points="3663.59,-202.58 3673.12,-197.95 3662.78,-195.63 3663.59,-202.58"/>
</g>
<!-- Node33 -->
<g id="node33" class="node">
<title>Node33</title>
<g id="a_node33"><a xlink:title=" ">
<polygon fill="white" stroke="#bfbfbf" points="3826.5,-168.5 3826.5,-198.5 3961.5,-198.5 3961.5,-168.5 3826.5,-168.5"/>
<text text-anchor="start" x="3834.5" y="-186.5" font-family="Helvetica,sans-Serif" font-size="10.00">m_Do/m_Do_mtx/asm/func</text>
<text text-anchor="middle" x="3894" y="-175.5" font-family="Helvetica,sans-Serif" font-size="10.00">_8000CE38.s</text>
</a>
</g>
</g>
<!-- Node1&#45;&gt;Node33 -->
<g id="edge38" class="edge">
<title>Node1&#45;&gt;Node33</title>
<path fill="none" stroke="midnightblue" d="M2733.24,-242.77C2938.53,-238.57 3585.87,-223.77 3816.13,-199.08"/>
<polygon fill="midnightblue" stroke="midnightblue" points="3816.57,-202.55 3826.12,-197.97 3815.8,-195.59 3816.57,-202.55"/>
</g>
<!-- Node34 -->
<g id="node34" class="node">
<title>Node34</title>
<g id="a_node34"><a xlink:title=" ">
<polygon fill="white" stroke="#bfbfbf" points="3979.5,-168.5 3979.5,-198.5 4114.5,-198.5 4114.5,-168.5 3979.5,-168.5"/>
<text text-anchor="start" x="3987.5" y="-186.5" font-family="Helvetica,sans-Serif" font-size="10.00">m_Do/m_Do_mtx/asm/func</text>
<text text-anchor="middle" x="4047" y="-175.5" font-family="Helvetica,sans-Serif" font-size="10.00">_8000CE70.s</text>
</a>
</g>
</g>
<!-- Node1&#45;&gt;Node34 -->
<g id="edge39" class="edge">
<title>Node1&#45;&gt;Node34</title>
<path fill="none" stroke="midnightblue" d="M2733.24,-243.1C2956.33,-239.74 3706.74,-226.69 3968.88,-199.1"/>
<polygon fill="midnightblue" stroke="midnightblue" points="3969.56,-202.55 3979.13,-197.99 3968.81,-195.59 3969.56,-202.55"/>
</g>
<!-- Node35 -->
<g id="node35" class="node">
<title>Node35</title>
<g id="a_node35"><a xlink:title=" ">
<polygon fill="white" stroke="#bfbfbf" points="4132.5,-168.5 4132.5,-198.5 4267.5,-198.5 4267.5,-168.5 4132.5,-168.5"/>
<text text-anchor="start" x="4140.5" y="-186.5" font-family="Helvetica,sans-Serif" font-size="10.00">m_Do/m_Do_mtx/asm/func</text>
<text text-anchor="middle" x="4200" y="-175.5" font-family="Helvetica,sans-Serif" font-size="10.00">_8000CE9C.s</text>
</a>
</g>
</g>
<!-- Node1&#45;&gt;Node35 -->
<g id="edge40" class="edge">
<title>Node1&#45;&gt;Node35</title>
<path fill="none" stroke="midnightblue" d="M2733.03,-243.37C2972.66,-240.78 3827.96,-229.64 4121.91,-199.09"/>
<polygon fill="midnightblue" stroke="midnightblue" points="4122.56,-202.54 4132.13,-198 4121.81,-195.58 4122.56,-202.54"/>
</g>
<!-- Node36 -->
<g id="node36" class="node">
<title>Node36</title>
<g id="a_node36"><a xlink:title=" ">
<polygon fill="white" stroke="#bfbfbf" points="4285.5,-168.5 4285.5,-198.5 4420.5,-198.5 4420.5,-168.5 4285.5,-168.5"/>
<text text-anchor="start" x="4293.5" y="-186.5" font-family="Helvetica,sans-Serif" font-size="10.00">m_Do/m_Do_mtx/asm/func</text>
<text text-anchor="middle" x="4353" y="-175.5" font-family="Helvetica,sans-Serif" font-size="10.00">_8000CED4.s</text>
</a>
</g>
</g>
<!-- Node1&#45;&gt;Node36 -->
<g id="edge41" class="edge">
<title>Node1&#45;&gt;Node36</title>
<path fill="none" stroke="midnightblue" d="M2733.39,-243.58C2989.45,-241.7 3948.96,-232.58 4274.74,-199.11"/>
<polygon fill="midnightblue" stroke="midnightblue" points="4275.55,-202.54 4285.13,-198.01 4274.82,-195.58 4275.55,-202.54"/>
</g>
<!-- Node37 -->
<g id="node37" class="node">
<title>Node37</title>
<g id="a_node37"><a xlink:title=" ">
<polygon fill="white" stroke="#bfbfbf" points="4438.5,-168.5 4438.5,-198.5 4573.5,-198.5 4573.5,-168.5 4438.5,-168.5"/>
<text text-anchor="start" x="4446.5" y="-186.5" font-family="Helvetica,sans-Serif" font-size="10.00">m_Do/m_Do_mtx/asm/func</text>
<text text-anchor="middle" x="4506" y="-175.5" font-family="Helvetica,sans-Serif" font-size="10.00">_8000CF0C.s</text>
</a>
</g>
</g>
<!-- Node1&#45;&gt;Node37 -->
<g id="edge42" class="edge">
<title>Node1&#45;&gt;Node37</title>
<path fill="none" stroke="midnightblue" d="M2733.3,-243.76C3004.54,-242.55 4070.58,-235.55 4428.02,-199.08"/>
<polygon fill="midnightblue" stroke="midnightblue" points="4428.55,-202.54 4438.13,-198.02 4427.82,-195.58 4428.55,-202.54"/>
</g>
<!-- Node38 -->
<g id="node38" class="node">
<title>Node38</title>
<g id="a_node38"><a xlink:title=" ">
<polygon fill="white" stroke="#bfbfbf" points="4591.5,-168.5 4591.5,-198.5 4726.5,-198.5 4726.5,-168.5 4591.5,-168.5"/>
<text text-anchor="start" x="4599.5" y="-186.5" font-family="Helvetica,sans-Serif" font-size="10.00">m_Do/m_Do_mtx/asm/func</text>
<text text-anchor="middle" x="4659" y="-175.5" font-family="Helvetica,sans-Serif" font-size="10.00">_8000CF44.s</text>
</a>
</g>
</g>
<!-- Node1&#45;&gt;Node38 -->
<g id="edge43" class="edge">
<title>Node1&#45;&gt;Node38</title>
<path fill="none" stroke="midnightblue" d="M2733.4,-243.92C3019.35,-243.32 4191.54,-238.53 4580.96,-199.08"/>
<polygon fill="midnightblue" stroke="midnightblue" points="4581.55,-202.54 4591.13,-198.02 4580.82,-195.58 4581.55,-202.54"/>
</g>
<!-- Node39 -->
<g id="node39" class="node">
<title>Node39</title>
<g id="a_node39"><a xlink:title=" ">
<polygon fill="white" stroke="#bfbfbf" points="4744.5,-168.5 4744.5,-198.5 4879.5,-198.5 4879.5,-168.5 4744.5,-168.5"/>
<text text-anchor="start" x="4752.5" y="-186.5" font-family="Helvetica,sans-Serif" font-size="10.00">m_Do/m_Do_mtx/asm/func</text>
<text text-anchor="middle" x="4812" y="-175.5" font-family="Helvetica,sans-Serif" font-size="10.00">_8000CF7C.s</text>
</a>
</g>
</g>
<!-- Node1&#45;&gt;Node39 -->
<g id="edge44" class="edge">
<title>Node1&#45;&gt;Node39</title>
<path fill="none" stroke="midnightblue" d="M2733.11,-244.04C3032.52,-244.04 4312.53,-241.53 4734.03,-199.07"/>
<polygon fill="midnightblue" stroke="midnightblue" points="4734.54,-202.54 4744.13,-198.03 4733.82,-195.57 4734.54,-202.54"/>
</g>
<!-- Node40 -->
<g id="node40" class="node">
<title>Node40</title>
<g id="a_node40"><a xlink:title=" ">
<polygon fill="white" stroke="#bfbfbf" points="4897.5,-168.5 4897.5,-198.5 5032.5,-198.5 5032.5,-168.5 4897.5,-168.5"/>
<text text-anchor="start" x="4905.5" y="-186.5" font-family="Helvetica,sans-Serif" font-size="10.00">m_Do/m_Do_mtx/asm/func</text>
<text text-anchor="middle" x="4965" y="-175.5" font-family="Helvetica,sans-Serif" font-size="10.00">_8000CFB8.s</text>
</a>
</g>
</g>
<!-- Node1&#45;&gt;Node40 -->
<g id="edge45" class="edge">
<title>Node1&#45;&gt;Node40</title>
<path fill="none" stroke="midnightblue" d="M2733.01,-244.15C3045.66,-244.7 4433.17,-244.54 4886.91,-199.08"/>
<polygon fill="midnightblue" stroke="midnightblue" points="4887.54,-202.54 4897.13,-198.03 4886.83,-195.57 4887.54,-202.54"/>
</g>
<!-- Node41 -->
<g id="node41" class="node">
<title>Node41</title>
<g id="a_node41"><a xlink:title=" ">
<polygon fill="white" stroke="#bfbfbf" points="5050.5,-168.5 5050.5,-198.5 5185.5,-198.5 5185.5,-168.5 5050.5,-168.5"/>
<text text-anchor="start" x="5058.5" y="-186.5" font-family="Helvetica,sans-Serif" font-size="10.00">m_Do/m_Do_mtx/asm/func</text>
<text text-anchor="middle" x="5118" y="-175.5" font-family="Helvetica,sans-Serif" font-size="10.00">_8000D034.s</text>
</a>
</g>
</g>
<!-- Node1&#45;&gt;Node41 -->
<g id="edge46" class="edge">
<title>Node1&#45;&gt;Node41</title>
<path fill="none" stroke="midnightblue" d="M2733.24,-244.25C3059.34,-245.33 4554.12,-247.54 5039.89,-199.08"/>
<polygon fill="midnightblue" stroke="midnightblue" points="5040.54,-202.54 5050.13,-198.04 5039.83,-195.57 5040.54,-202.54"/>
</g>
<!-- Node42 -->
<g id="node42" class="node">
<title>Node42</title>
<g id="a_node42"><a xlink:title=" ">
<polygon fill="white" stroke="#bfbfbf" points="5203.5,-168.5 5203.5,-198.5 5338.5,-198.5 5338.5,-168.5 5203.5,-168.5"/>
<text text-anchor="start" x="5211.5" y="-186.5" font-family="Helvetica,sans-Serif" font-size="10.00">m_Do/m_Do_mtx/asm/func</text>
<text text-anchor="middle" x="5271" y="-175.5" font-family="Helvetica,sans-Serif" font-size="10.00">_8000D070.s</text>
</a>
</g>
</g>
<!-- Node1&#45;&gt;Node42 -->
<g id="edge47" class="edge">
<title>Node1&#45;&gt;Node42</title>
<path fill="none" stroke="midnightblue" d="M2733.28,-243.52C3095.44,-240.68 4899.03,-225.39 5192.93,-199.03"/>
<polygon fill="midnightblue" stroke="midnightblue" points="5193.51,-202.49 5203.13,-198.04 5192.84,-195.52 5193.51,-202.49"/>
</g>
<!-- Node3 -->
<g id="node3" class="node">
<title>Node3</title>
<g id="a_node3"><a xlink:href="types_8h.html" target="_top" xlink:title=" ">
<polygon fill="white" stroke="black" points="215.5,-0.5 215.5,-19.5 296.5,-19.5 296.5,-0.5 215.5,-0.5"/>
<text text-anchor="middle" x="256" y="-7.5" font-family="Helvetica,sans-Serif" font-size="10.00">dolphin/types.h</text>
</a>
</g>
</g>
<!-- Node2&#45;&gt;Node3 -->
<g id="edge2" class="edge">
<title>Node2&#45;&gt;Node3</title>
<path fill="none" stroke="midnightblue" d="M91.9,-56.44C125.27,-47.2 178.59,-32.44 215.35,-22.26"/>
<polygon fill="midnightblue" stroke="midnightblue" points="216.54,-25.56 225.25,-19.52 214.67,-18.81 216.54,-25.56"/>
</g>
<!-- Node4&#45;&gt;Node3 -->
<g id="edge4" class="edge">
<title>Node4&#45;&gt;Node3</title>
<path fill="none" stroke="midnightblue" d="M256.63,-179.17C229.66,-174.13 188.29,-161.75 169,-132 143.16,-92.14 199.13,-47.22 232.86,-25"/>
<polygon fill="midnightblue" stroke="midnightblue" points="234.75,-27.94 241.29,-19.6 230.98,-22.04 234.75,-27.94"/>
</g>
<!-- Node5 -->
<g id="node5" class="node">
<title>Node5</title>
<g id="a_node5"><a xlink:href="AR_8h.html" target="_top" xlink:title=" ">
<polygon fill="white" stroke="black" points="178.5,-112.5 178.5,-131.5 227.5,-131.5 227.5,-112.5 178.5,-112.5"/>
<text text-anchor="middle" x="203" y="-119.5" font-family="Helvetica,sans-Serif" font-size="10.00">ar/AR.h</text>
</a>
</g>
</g>
<!-- Node4&#45;&gt;Node5 -->
<g id="edge5" class="edge">
<title>Node4&#45;&gt;Node5</title>
<path fill="none" stroke="midnightblue" d="M270.68,-173.98C258.13,-164.52 237.65,-149.1 222.5,-137.69"/>
<polygon fill="midnightblue" stroke="midnightblue" points="224.39,-134.73 214.3,-131.51 220.18,-140.32 224.39,-134.73"/>
</g>
<!-- Node6 -->
<g id="node6" class="node">
<title>Node6</title>
<g id="a_node6"><a xlink:href="ARQ_8h.html" target="_top" xlink:title=" ">
<polygon fill="white" stroke="black" points="228,-56.5 228,-75.5 284,-75.5 284,-56.5 228,-56.5"/>
<text text-anchor="middle" x="256" y="-63.5" font-family="Helvetica,sans-Serif" font-size="10.00">ar/ARQ.h</text>
</a>
</g>
</g>
<!-- Node4&#45;&gt;Node6 -->
<g id="edge7" class="edge">
<title>Node4&#45;&gt;Node6</title>
<path fill="none" stroke="midnightblue" d="M280.05,-173.82C275.85,-155.17 265.89,-110.94 260.19,-85.63"/>
<polygon fill="midnightblue" stroke="midnightblue" points="263.59,-84.77 257.98,-75.78 256.76,-86.31 263.59,-84.77"/>
</g>
<!-- Node7 -->
<g id="node7" class="node">
<title>Node7</title>
<g id="a_node7"><a xlink:href="mwcc_8h.html" target="_top" xlink:title=" ">
<polygon fill="white" stroke="black" points="284,-112.5 284,-131.5 334,-131.5 334,-112.5 284,-112.5"/>
<text text-anchor="middle" x="309" y="-119.5" font-family="Helvetica,sans-Serif" font-size="10.00">mwcc.h</text>
</a>
</g>
</g>
<!-- Node4&#45;&gt;Node7 -->
<g id="edge9" class="edge">
<title>Node4&#45;&gt;Node7</title>
<path fill="none" stroke="midnightblue" d="M285.87,-173.98C289.8,-165.32 296,-151.65 300.99,-140.65"/>
<polygon fill="midnightblue" stroke="midnightblue" points="304.19,-142.06 305.14,-131.51 297.82,-139.17 304.19,-142.06"/>
</g>
<!-- Node8 -->
<g id="node8" class="node">
<title>Node8</title>
<g id="a_node8"><a xlink:href="OS_8h.html" target="_top" xlink:title=" ">
<polygon fill="white" stroke="black" points="352,-112.5 352,-131.5 404,-131.5 404,-112.5 352,-112.5"/>
<text text-anchor="middle" x="378" y="-119.5" font-family="Helvetica,sans-Serif" font-size="10.00">os/OS.h</text>
</a>
</g>
</g>
<!-- Node4&#45;&gt;Node8 -->
<g id="edge10" class="edge">
<title>Node4&#45;&gt;Node8</title>
<path fill="none" stroke="midnightblue" d="M295.75,-173.98C311.37,-164.3 337.06,-148.37 355.58,-136.89"/>
<polygon fill="midnightblue" stroke="midnightblue" points="357.62,-139.75 364.27,-131.51 353.93,-133.8 357.62,-139.75"/>
</g>
<!-- Node5&#45;&gt;Node3 -->
<g id="edge6" class="edge">
<title>Node5&#45;&gt;Node3</title>
<path fill="none" stroke="midnightblue" d="M203.91,-112.16C205.52,-99.24 209.62,-74.7 219,-56 224.3,-45.42 232.49,-35.11 239.81,-27.04"/>
<polygon fill="midnightblue" stroke="midnightblue" points="242.36,-29.44 246.71,-19.78 237.28,-24.62 242.36,-29.44"/>
</g>
<!-- Node6&#45;&gt;Node3 -->
<g id="edge8" class="edge">
<title>Node6&#45;&gt;Node3</title>
<path fill="none" stroke="midnightblue" d="M256,-56.08C256,-49.01 256,-38.86 256,-29.99"/>
<polygon fill="midnightblue" stroke="midnightblue" points="259.5,-29.75 256,-19.75 252.5,-29.75 259.5,-29.75"/>
</g>
<!-- Node8&#45;&gt;Node3 -->
<g id="edge11" class="edge">
<title>Node8&#45;&gt;Node3</title>
<path fill="none" stroke="midnightblue" d="M368.43,-112.37C347.85,-93.81 299.16,-49.91 273.12,-26.44"/>
<polygon fill="midnightblue" stroke="midnightblue" points="275.3,-23.69 265.53,-19.59 270.61,-28.89 275.3,-23.69"/>
</g>
<!-- Node9 -->
<g id="node9" class="node">
<title>Node9</title>
<g id="a_node9"><a xlink:href="dvd_8h.html" target="_top" xlink:title=" ">
<polygon fill="white" stroke="black" points="340.5,-56.5 340.5,-75.5 399.5,-75.5 399.5,-56.5 340.5,-56.5"/>
<text text-anchor="middle" x="370" y="-63.5" font-family="Helvetica,sans-Serif" font-size="10.00">dvd/dvd.h</text>
</a>
</g>
</g>
<!-- Node8&#45;&gt;Node9 -->
<g id="edge12" class="edge">
<title>Node8&#45;&gt;Node9</title>
<path fill="none" stroke="midnightblue" d="M376.68,-112.08C375.62,-104.93 374.09,-94.64 372.77,-85.69"/>
<polygon fill="midnightblue" stroke="midnightblue" points="376.22,-85.13 371.3,-75.75 369.3,-86.16 376.22,-85.13"/>
</g>
<!-- Node9&#45;&gt;Node3 -->
<g id="edge13" class="edge">
<title>Node9&#45;&gt;Node3</title>
<path fill="none" stroke="midnightblue" d="M351.94,-56.44C333.43,-47.68 304.42,-33.94 283.14,-23.86"/>
<polygon fill="midnightblue" stroke="midnightblue" points="284.51,-20.63 273.98,-19.52 281.52,-26.96 284.51,-20.63"/>
</g>
<!-- Node10&#45;&gt;Node3 -->
<g id="edge15" class="edge">
<title>Node10&#45;&gt;Node3</title>
<path fill="none" stroke="midnightblue" d="M417.58,-56.44C384.72,-47.2 332.22,-32.44 296.03,-22.26"/>
<polygon fill="midnightblue" stroke="midnightblue" points="296.85,-18.85 286.28,-19.52 294.96,-25.59 296.85,-18.85"/>
</g>
</g>
</svg>
        <g id="navigator" transform="translate(0 0)" fill="#404254">
                <rect fill="#f2f5e9" fill-opacity="0.5" stroke="#606060" stroke-width=".5" x="0" y="0" width="60" height="60"/>
                <use id="zoomplus" xlink:href="#zoomPlus" x="17" y="9" onmousedown="handleZoom(evt,'in')"/>
                <use id="zoomminus" xlink:href="#zoomMin" x="42" y="9" onmousedown="handleZoom(evt,'out')"/>
                <use id="reset" xlink:href="#resetDef" x="30" y="36" onmousedown="handleReset()"/>
                <g id="arrowUp" xlink:href="#dirArrow" transform="translate(30 24)" onmousedown="handlePan(0,-1)">
                  <use xlink:href="#rim" fill="#404040">
                        <set attributeName="fill" to="#808080" begin="arrowUp.mouseover" end="arrowUp.mouseout"/>
                  </use>
                  <path fill="none" stroke="white" stroke-width="1.5" d="M0,-3.0v7 M-2.5,-0.5L0,-3.0L2.5,-0.5"/>
                </g>
                <g id="arrowRight" xlink:href="#dirArrow" transform="rotate(90) translate(36 -43)" onmousedown="handlePan(1,0)">
                  <use xlink:href="#rim" fill="#404040">
                        <set attributeName="fill" to="#808080" begin="arrowRight.mouseover" end="arrowRight.mouseout"/>
                  </use>
                  <path fill="none" stroke="white" stroke-width="1.5" d="M0,-3.0v7 M-2.5,-0.5L0,-3.0L2.5,-0.5"/>
                </g>
                <g id="arrowDown" xlink:href="#dirArrow" transform="rotate(180) translate(-30 -48)" onmousedown="handlePan(0,1)">
                  <use xlink:href="#rim" fill="#404040">
                        <set attributeName="fill" to="#808080" begin="arrowDown.mouseover" end="arrowDown.mouseout"/>
                  </use>
                  <path fill="none" stroke="white" stroke-width="1.5" d="M0,-3.0v7 M-2.5,-0.5L0,-3.0L2.5,-0.5"/>
                </g>
                <g id="arrowLeft" xlink:href="#dirArrow" transform="rotate(270) translate(-36 17)" onmousedown="handlePan(-1,0)">
                  <use xlink:href="#rim" fill="#404040">
                        <set attributeName="fill" to="#808080" begin="arrowLeft.mouseover" end="arrowLeft.mouseout"/>
                  </use>
                  <path fill="none" stroke="white" stroke-width="1.5" d="M0,-3.0v7 M-2.5,-0.5L0,-3.0L2.5,-0.5"/>
                </g>
        </g>
        <svg viewBox="0 0 15 15" width="100%" height="30px" preserveAspectRatio="xMaxYMin meet">
         <g id="arrow_out" transform="scale(0.3 0.3)">
          <a xlink:href="m__Do__mtx_8cpp__incl_org.svg" target="_base">
           <rect id="button" ry="5" rx="5" y="6" x="6" height="38" width="38"
                fill="#f2f5e9" fill-opacity="0.5" stroke="#606060" stroke-width="1.0"/>
           <path id="arrow"
             d="M 11.500037,31.436501 C 11.940474,20.09759 22.043105,11.32322 32.158766,21.979434 L 37.068811,17.246167 C 37.068811,17.246167 37.088388,32 37.088388,32 L 22.160133,31.978069 C 22.160133,31.978069 26.997745,27.140456 26.997745,27.140456 C 18.528582,18.264221 13.291696,25.230495 11.500037,31.436501 z"
             style="fill:#404040;"/>
          </a>
         </g>
        </svg>
</svg>
