<?xml version="1.0" encoding="UTF-8" standalone="no"?>
<!DOCTYPE svg PUBLIC "-//W3C//DTD SVG 1.1//EN"
 "http://www.w3.org/Graphics/SVG/1.1/DTD/svg11.dtd">
<!-- Generated by graphviz version 2.44.0 ()
 -->
<!-- Title: include/m_Do/m_Do_controller_pad/m_Do_controller_pad.h Pages: 1 -->
<svg width="1635pt" height="106pt"
 viewBox="0.00 0.00 1634.50 106.00" xmlns="http://www.w3.org/2000/svg" xmlns:xlink="http://www.w3.org/1999/xlink">
<g id="graph0" class="graph" transform="scale(1 1) rotate(0) translate(4 102)">
<title>include/m_Do/m_Do_controller_pad/m_Do_controller_pad.h</title>
<polygon fill="white" stroke="transparent" points="-4,4 -4,-102 1630.5,-102 1630.5,4 -4,4"/>
<!-- Node1 -->
<g id="node1" class="node">
<title>Node1</title>
<g id="a_node1"><a xlink:title=" ">
<polygon fill="#bfbfbf" stroke="black" points="657,-67.5 657,-97.5 806,-97.5 806,-67.5 657,-67.5"/>
<text text-anchor="start" x="665" y="-85.5" font-family="Helvetica,sans-Serif" font-size="10.00">include/m_Do/m_Do_controller</text>
<text text-anchor="middle" x="731.5" y="-74.5" font-family="Helvetica,sans-Serif" font-size="10.00">_pad/m_Do_controller_pad.h</text>
</a>
</g>
</g>
<!-- Node2 -->
<g id="node2" class="node">
<title>Node2</title>
<g id="a_node2"><a xlink:href="d__attention_8cpp.html" target="_top" xlink:title=" ">
<polygon fill="white" stroke="black" points="0,-6 0,-25 107,-25 107,-6 0,-6"/>
<text text-anchor="middle" x="53.5" y="-13" font-family="Helvetica,sans-Serif" font-size="10.00">src/d/d_attention.cpp</text>
</a>
</g>
</g>
<!-- Node1&#45;&gt;Node2 -->
<g id="edge1" class="edge">
<title>Node1&#45;&gt;Node2</title>
<path fill="none" stroke="midnightblue" d="M646.48,-78.51C527.22,-73.41 303.74,-60.56 115.5,-31 105.78,-29.47 95.33,-27.26 85.82,-25.01"/>
<polygon fill="midnightblue" stroke="midnightblue" points="646.51,-82.01 656.64,-78.93 646.8,-75.02 646.51,-82.01"/>
</g>
<!-- Node3 -->
<g id="node3" class="node">
<title>Node3</title>
<g id="a_node3"><a xlink:href="d__camera_8cpp.html" target="_top" xlink:title=" ">
<polygon fill="white" stroke="black" points="124.5,-6 124.5,-25 226.5,-25 226.5,-6 124.5,-6"/>
<text text-anchor="middle" x="175.5" y="-13" font-family="Helvetica,sans-Serif" font-size="10.00">src/d/d_camera.cpp</text>
</a>
</g>
</g>
<!-- Node1&#45;&gt;Node3 -->
<g id="edge2" class="edge">
<title>Node1&#45;&gt;Node3</title>
<path fill="none" stroke="midnightblue" d="M646.44,-76.36C547.27,-69.56 378.67,-55.47 235.5,-31 226.31,-29.43 216.44,-27.25 207.41,-25.06"/>
<polygon fill="midnightblue" stroke="midnightblue" points="646.49,-79.87 656.71,-77.06 646.97,-72.89 646.49,-79.87"/>
</g>
<!-- Node4 -->
<g id="node4" class="node">
<title>Node4</title>
<g id="a_node4"><a xlink:href="d__com__inf__game_8cpp.html" target="_top" xlink:title=" ">
<polygon fill="white" stroke="black" points="245,-0.5 245,-30.5 364,-30.5 364,-0.5 245,-0.5"/>
<text text-anchor="start" x="253" y="-18.5" font-family="Helvetica,sans-Serif" font-size="10.00">src/d/d_com/d_com_inf</text>
<text text-anchor="middle" x="304.5" y="-7.5" font-family="Helvetica,sans-Serif" font-size="10.00">_game.cpp</text>
</a>
</g>
</g>
<!-- Node1&#45;&gt;Node4 -->
<g id="edge3" class="edge">
<title>Node1&#45;&gt;Node4</title>
<path fill="none" stroke="midnightblue" d="M646.85,-71.18C574.15,-61.94 466.65,-47.34 373.5,-31 370.49,-30.47 367.4,-29.91 364.29,-29.32"/>
<polygon fill="midnightblue" stroke="midnightblue" points="646.52,-74.67 656.88,-72.45 647.4,-67.72 646.52,-74.67"/>
</g>
<!-- Node5 -->
<g id="node5" class="node">
<title>Node5</title>
<g id="a_node5"><a xlink:href="d__lib_8cpp.html" target="_top" xlink:title=" ">
<polygon fill="white" stroke="black" points="382.5,-6 382.5,-25 462.5,-25 462.5,-6 382.5,-6"/>
<text text-anchor="middle" x="422.5" y="-13" font-family="Helvetica,sans-Serif" font-size="10.00">src/d/d_lib.cpp</text>
</a>
</g>
</g>
<!-- Node1&#45;&gt;Node5 -->
<g id="edge4" class="edge">
<title>Node1&#45;&gt;Node5</title>
<path fill="none" stroke="midnightblue" d="M646.84,-67.18C595.79,-58.01 529.6,-45.2 471.5,-31 464.35,-29.25 456.68,-27.11 449.59,-25.02"/>
<polygon fill="midnightblue" stroke="midnightblue" points="646.38,-70.65 656.84,-68.96 647.61,-63.76 646.38,-70.65"/>
</g>
<!-- Node6 -->
<g id="node6" class="node">
<title>Node6</title>
<g id="a_node6"><a xlink:href="d__meter__map_8cpp.html" target="_top" xlink:title=" ">
<polygon fill="white" stroke="black" points="481,-0.5 481,-30.5 596,-30.5 596,-0.5 481,-0.5"/>
<text text-anchor="start" x="489" y="-18.5" font-family="Helvetica,sans-Serif" font-size="10.00">src/d/d_meter/d_meter</text>
<text text-anchor="middle" x="538.5" y="-7.5" font-family="Helvetica,sans-Serif" font-size="10.00">_map.cpp</text>
</a>
</g>
</g>
<!-- Node1&#45;&gt;Node6 -->
<g id="edge5" class="edge">
<title>Node1&#45;&gt;Node6</title>
<path fill="none" stroke="midnightblue" d="M679.81,-64.09C648.66,-53.6 609.49,-40.41 580.3,-30.58"/>
<polygon fill="midnightblue" stroke="midnightblue" points="679.03,-67.52 689.62,-67.4 681.26,-60.89 679.03,-67.52"/>
</g>
<!-- Node7 -->
<g id="node7" class="node">
<title>Node7</title>
<g id="a_node7"><a xlink:href="f__ap__game_8cpp.html" target="_top" xlink:title=" ">
<polygon fill="white" stroke="black" points="614,-6 614,-25 719,-25 719,-6 614,-6"/>
<text text-anchor="middle" x="666.5" y="-13" font-family="Helvetica,sans-Serif" font-size="10.00">src/f/f_ap_game.cpp</text>
</a>
</g>
</g>
<!-- Node1&#45;&gt;Node7 -->
<g id="edge6" class="edge">
<title>Node1&#45;&gt;Node7</title>
<path fill="none" stroke="midnightblue" d="M710,-60C698.13,-48.13 684.05,-34.05 675.19,-25.19"/>
<polygon fill="midnightblue" stroke="midnightblue" points="707.85,-62.8 717.4,-67.4 712.8,-57.85 707.85,-62.8"/>
</g>
<!-- Node8 -->
<g id="node8" class="node">
<title>Node8</title>
<g id="a_node8"><a xlink:href="d__a__alink_8cpp.html" target="_top" xlink:title=" ">
<polygon fill="white" stroke="black" points="737,-6 737,-25 856,-25 856,-6 737,-6"/>
<text text-anchor="middle" x="796.5" y="-13" font-family="Helvetica,sans-Serif" font-size="10.00">src/d/d_a/d_a_alink.cpp</text>
</a>
</g>
</g>
<!-- Node1&#45;&gt;Node8 -->
<g id="edge7" class="edge">
<title>Node1&#45;&gt;Node8</title>
<path fill="none" stroke="midnightblue" d="M753,-60C764.87,-48.13 778.95,-34.05 787.81,-25.19"/>
<polygon fill="midnightblue" stroke="midnightblue" points="750.2,-57.85 745.6,-67.4 755.15,-62.8 750.2,-57.85"/>
</g>
<!-- Node9 -->
<g id="node9" class="node">
<title>Node9</title>
<g id="a_node9"><a xlink:href="f__pc__manager_8cpp.html" target="_top" xlink:title=" ">
<polygon fill="white" stroke="black" points="874.5,-6 874.5,-25 1014.5,-25 1014.5,-6 874.5,-6"/>
<text text-anchor="middle" x="944.5" y="-13" font-family="Helvetica,sans-Serif" font-size="10.00">src/f/f_pc/f_pc_manager.cpp</text>
</a>
</g>
</g>
<!-- Node1&#45;&gt;Node9 -->
<g id="edge8" class="edge">
<title>Node1&#45;&gt;Node9</title>
<path fill="none" stroke="midnightblue" d="M787.17,-64.51C828.74,-51.83 883.81,-35.02 916.55,-25.03"/>
<polygon fill="midnightblue" stroke="midnightblue" points="786,-61.21 777.46,-67.48 788.04,-67.9 786,-61.21"/>
</g>
<!-- Node10 -->
<g id="node10" class="node">
<title>Node10</title>
<g id="a_node10"><a xlink:href="m__Do__controller__pad_8cpp.html" target="_top" xlink:title=" ">
<polygon fill="white" stroke="black" points="1032.5,-0.5 1032.5,-30.5 1164.5,-30.5 1164.5,-0.5 1032.5,-0.5"/>
<text text-anchor="start" x="1040.5" y="-18.5" font-family="Helvetica,sans-Serif" font-size="10.00">src/m_Do/m_Do_controller</text>
<text text-anchor="middle" x="1098.5" y="-7.5" font-family="Helvetica,sans-Serif" font-size="10.00">_pad.cpp</text>
</a>
</g>
</g>
<!-- Node1&#45;&gt;Node10 -->
<g id="edge9" class="edge">
<title>Node1&#45;&gt;Node10</title>
<path fill="none" stroke="midnightblue" d="M816.19,-67.31C874.52,-57.42 953.78,-43.77 1023.5,-31 1026.37,-30.47 1029.3,-29.93 1032.26,-29.38"/>
<polygon fill="midnightblue" stroke="midnightblue" points="815.56,-63.86 806.29,-68.98 816.73,-70.77 815.56,-63.86"/>
</g>
<!-- Node11 -->
<g id="node11" class="node">
<title>Node11</title>
<g id="a_node11"><a xlink:href="m__Do__graphic_8cpp.html" target="_top" xlink:title=" ">
<polygon fill="white" stroke="black" points="1182.5,-6 1182.5,-25 1324.5,-25 1324.5,-6 1182.5,-6"/>
<text text-anchor="middle" x="1253.5" y="-13" font-family="Helvetica,sans-Serif" font-size="10.00">src/m_Do/m_Do_graphic.cpp</text>
</a>
</g>
</g>
<!-- Node1&#45;&gt;Node11 -->
<g id="edge10" class="edge">
<title>Node1&#45;&gt;Node11</title>
<path fill="none" stroke="midnightblue" d="M816.44,-73.46C905.59,-64.64 1049.71,-49.27 1173.5,-31 1185.09,-29.29 1197.57,-27.16 1209.15,-25.07"/>
<polygon fill="midnightblue" stroke="midnightblue" points="815.99,-69.99 806.38,-74.46 816.68,-76.96 815.99,-69.99"/>
</g>
<!-- Node12 -->
<g id="node12" class="node">
<title>Node12</title>
<g id="a_node12"><a xlink:href="m__Do__main_8cpp.html" target="_top" xlink:title=" ">
<polygon fill="white" stroke="black" points="1343,-6 1343,-25 1474,-25 1474,-6 1343,-6"/>
<text text-anchor="middle" x="1408.5" y="-13" font-family="Helvetica,sans-Serif" font-size="10.00">src/m_Do/m_Do_main.cpp</text>
</a>
</g>
</g>
<!-- Node1&#45;&gt;Node12 -->
<g id="edge11" class="edge">
<title>Node1&#45;&gt;Node12</title>
<path fill="none" stroke="midnightblue" d="M816.71,-77.24C933.63,-70.73 1150.21,-56.33 1333.5,-31 1344.93,-29.42 1357.25,-27.24 1368.54,-25.05"/>
<polygon fill="midnightblue" stroke="midnightblue" points="816.19,-73.76 806.4,-77.81 816.57,-80.75 816.19,-73.76"/>
</g>
<!-- Node13 -->
<g id="node13" class="node">
<title>Node13</title>
<g id="a_node13"><a xlink:href="c__API__controller__pad_8cpp.html" target="_top" xlink:title=" ">
<polygon fill="white" stroke="black" points="1492.5,-0.5 1492.5,-30.5 1626.5,-30.5 1626.5,-0.5 1492.5,-0.5"/>
<text text-anchor="start" x="1500.5" y="-18.5" font-family="Helvetica,sans-Serif" font-size="10.00">libs/SSystem/SComponent</text>
<text text-anchor="middle" x="1559.5" y="-7.5" font-family="Helvetica,sans-Serif" font-size="10.00">/c_API_controller_pad.cpp</text>
</a>
</g>
</g>
<!-- Node1&#45;&gt;Node13 -->
<g id="edge12" class="edge">
<title>Node1&#45;&gt;Node13</title>
<path fill="none" stroke="midnightblue" d="M816.45,-79.16C956.11,-74.55 1242.77,-61.93 1483.5,-31 1486.43,-30.62 1489.42,-30.2 1492.43,-29.75"/>
<polygon fill="midnightblue" stroke="midnightblue" points="816.12,-75.66 806.24,-79.49 816.35,-82.66 816.12,-75.66"/>
</g>
</g>
</svg>
