<?xml version="1.0" encoding="UTF-8" standalone="no"?>
<!DOCTYPE svg PUBLIC "-//W3C//DTD SVG 1.1//EN"
 "http://www.w3.org/Graphics/SVG/1.1/DTD/svg11.dtd">
<!-- Generated by graphviz version 2.44.0 ()
 -->
<!-- Title: include/m_Do/m_Do_ext/m_Do_ext.h Pages: 1 -->
<svg width="1288pt" height="553pt"
 viewBox="0.00 0.00 1288.11 553.00" xmlns="http://www.w3.org/2000/svg" xmlns:xlink="http://www.w3.org/1999/xlink">
<g id="graph0" class="graph" transform="scale(1 1) rotate(0) translate(4 549)">
<title>include/m_Do/m_Do_ext/m_Do_ext.h</title>
<polygon fill="white" stroke="transparent" points="-4,4 -4,-549 1284.11,-549 1284.11,4 -4,4"/>
<!-- Node1 -->
<g id="node1" class="node">
<title>Node1</title>
<g id="a_node1"><a xlink:title=" ">
<polygon fill="#bfbfbf" stroke="black" points="184.11,-514.5 184.11,-544.5 306.11,-544.5 306.11,-514.5 184.11,-514.5"/>
<text text-anchor="start" x="192.11" y="-532.5" font-family="Helvetica,sans-Serif" font-size="10.00">include/m_Do/m_Do_ext</text>
<text text-anchor="middle" x="245.11" y="-521.5" font-family="Helvetica,sans-Serif" font-size="10.00">/m_Do_ext.h</text>
</a>
</g>
</g>
<!-- Node2 -->
<g id="node2" class="node">
<title>Node2</title>
<g id="a_node2"><a xlink:href="J3DAnimation_8h.html" target="_top" xlink:title=" ">
<polygon fill="white" stroke="black" points="126.11,-447.5 126.11,-477.5 266.11,-477.5 266.11,-447.5 126.11,-447.5"/>
<text text-anchor="start" x="134.11" y="-465.5" font-family="Helvetica,sans-Serif" font-size="10.00">JSystem/J3DGraphAnimator</text>
<text text-anchor="middle" x="196.11" y="-454.5" font-family="Helvetica,sans-Serif" font-size="10.00">/J3DAnimation.h</text>
</a>
</g>
</g>
<!-- Node1&#45;&gt;Node2 -->
<g id="edge1" class="edge">
<title>Node1&#45;&gt;Node2</title>
<path fill="none" stroke="midnightblue" d="M234.48,-514.4C228.18,-506.05 220.07,-495.29 212.93,-485.81"/>
<polygon fill="midnightblue" stroke="midnightblue" points="215.53,-483.45 206.72,-477.58 209.94,-487.67 215.53,-483.45"/>
</g>
<!-- Node3 -->
<g id="node3" class="node">
<title>Node3</title>
<g id="a_node3"><a xlink:href="global_8h.html" target="_top" xlink:title=" ">
<polygon fill="white" stroke="black" points="127.11,-185 127.11,-204 177.11,-204 177.11,-185 127.11,-185"/>
<text text-anchor="middle" x="152.11" y="-192" font-family="Helvetica,sans-Serif" font-size="10.00">global.h</text>
</a>
</g>
</g>
<!-- Node1&#45;&gt;Node3 -->
<g id="edge47" class="edge">
<title>Node1&#45;&gt;Node3</title>
<path fill="none" stroke="midnightblue" d="M183.79,-517.17C159.85,-509.79 134.12,-497.71 117.11,-478 92.81,-449.84 98.11,-433.69 98.11,-396.5 98.11,-396.5 98.11,-396.5 98.11,-327.5 98.11,-283.56 124.05,-237.12 139.97,-212.75"/>
<polygon fill="midnightblue" stroke="midnightblue" points="143,-214.51 145.7,-204.27 137.2,-210.6 143,-214.51"/>
</g>
<!-- Node8 -->
<g id="node8" class="node">
<title>Node8</title>
<g id="a_node8"><a xlink:href="OS_8h.html" target="_top" xlink:title=" ">
<polygon fill="white" stroke="black" points="19.11,-123.5 19.11,-142.5 71.11,-142.5 71.11,-123.5 19.11,-123.5"/>
<text text-anchor="middle" x="45.11" y="-130.5" font-family="Helvetica,sans-Serif" font-size="10.00">os/OS.h</text>
</a>
</g>
</g>
<!-- Node1&#45;&gt;Node8 -->
<g id="edge48" class="edge">
<title>Node1&#45;&gt;Node8</title>
<path fill="none" stroke="midnightblue" d="M184.08,-519.29C154.41,-512.19 119.91,-499.73 95.11,-478 64.76,-451.4 55.11,-436.85 55.11,-396.5 55.11,-396.5 55.11,-396.5 55.11,-260.5 55.11,-222.08 50.47,-177.31 47.51,-152.66"/>
<polygon fill="midnightblue" stroke="midnightblue" points="50.96,-152.06 46.25,-142.57 44.02,-152.93 50.96,-152.06"/>
</g>
<!-- Node10 -->
<g id="node10" class="node">
<title>Node10</title>
<g id="a_node10"><a xlink:href="JKRExpHeap_8h.html" target="_top" xlink:title=" ">
<polygon fill="white" stroke="black" points="173.11,-313.5 173.11,-343.5 325.11,-343.5 325.11,-313.5 173.11,-313.5"/>
<text text-anchor="start" x="181.11" y="-331.5" font-family="Helvetica,sans-Serif" font-size="10.00">JSystem/JKernel/JKRExpHeap</text>
<text text-anchor="middle" x="249.11" y="-320.5" font-family="Helvetica,sans-Serif" font-size="10.00">/JKRExpHeap.h</text>
</a>
</g>
</g>
<!-- Node1&#45;&gt;Node10 -->
<g id="edge13" class="edge">
<title>Node1&#45;&gt;Node10</title>
<path fill="none" stroke="midnightblue" d="M256.28,-514.43C263.2,-504.79 271.43,-491.37 275.11,-478 287.01,-434.65 271.24,-382.63 259.57,-353.08"/>
<polygon fill="midnightblue" stroke="midnightblue" points="262.72,-351.53 255.67,-343.62 256.24,-354.2 262.72,-351.53"/>
</g>
<!-- Node14 -->
<g id="node14" class="node">
<title>Node14</title>
<g id="a_node14"><a xlink:href="JKRSolidHeap_8h.html" target="_top" xlink:title=" ">
<polygon fill="white" stroke="black" points="323.11,-380.5 323.11,-410.5 457.11,-410.5 457.11,-380.5 323.11,-380.5"/>
<text text-anchor="start" x="331.11" y="-398.5" font-family="Helvetica,sans-Serif" font-size="10.00">JSystem/JKernel/JKRSolid</text>
<text text-anchor="middle" x="390.11" y="-387.5" font-family="Helvetica,sans-Serif" font-size="10.00">Heap/JKRSolidHeap.h</text>
</a>
</g>
</g>
<!-- Node1&#45;&gt;Node14 -->
<g id="edge22" class="edge">
<title>Node1&#45;&gt;Node14</title>
<path fill="none" stroke="midnightblue" d="M263.73,-514.42C276.5,-504.55 293.68,-490.89 308.11,-478 329.85,-458.58 353.31,-434.96 369.55,-418.16"/>
<polygon fill="midnightblue" stroke="midnightblue" points="372.5,-420.15 376.9,-410.51 367.45,-415.3 372.5,-420.15"/>
</g>
<!-- Node15 -->
<g id="node15" class="node">
<title>Node15</title>
<g id="a_node15"><a xlink:href="d__resource_8h.html" target="_top" xlink:title=" ">
<polygon fill="white" stroke="black" points="541.61,-453 541.61,-472 672.61,-472 672.61,-453 541.61,-453"/>
<text text-anchor="middle" x="607.11" y="-460" font-family="Helvetica,sans-Serif" font-size="10.00">d/d_resource/d_resource.h</text>
</a>
</g>
</g>
<!-- Node1&#45;&gt;Node15 -->
<g id="edge25" class="edge">
<title>Node1&#45;&gt;Node15</title>
<path fill="none" stroke="midnightblue" d="M306.52,-517.47C374.53,-505.26 483.33,-485.72 549.7,-473.81"/>
<polygon fill="midnightblue" stroke="midnightblue" points="550.35,-477.25 559.57,-472.03 549.11,-470.36 550.35,-477.25"/>
</g>
<!-- Node2&#45;&gt;Node3 -->
<g id="edge2" class="edge">
<title>Node2&#45;&gt;Node3</title>
<path fill="none" stroke="midnightblue" d="M191.29,-447.22C184.12,-425.3 170.74,-381.9 164.11,-344 156.03,-297.87 153.38,-242.71 152.52,-214.37"/>
<polygon fill="midnightblue" stroke="midnightblue" points="156.01,-214.18 152.25,-204.28 149.01,-214.36 156.01,-214.18"/>
</g>
<!-- Node4 -->
<g id="node4" class="node">
<title>Node4</title>
<g id="a_node4"><a xlink:href="types_8h.html" target="_top" xlink:title=" ">
<polygon fill="white" stroke="black" points="411.61,-0.5 411.61,-19.5 492.61,-19.5 492.61,-0.5 411.61,-0.5"/>
<text text-anchor="middle" x="452.11" y="-7.5" font-family="Helvetica,sans-Serif" font-size="10.00">dolphin/types.h</text>
</a>
</g>
</g>
<!-- Node3&#45;&gt;Node4 -->
<g id="edge3" class="edge">
<title>Node3&#45;&gt;Node4</title>
<path fill="none" stroke="midnightblue" d="M143.03,-184.63C130.74,-171.52 111.23,-146.01 119.11,-123 131.32,-87.34 138.68,-75.21 171.11,-56 209.06,-33.52 330.81,-20.5 400.97,-14.69"/>
<polygon fill="midnightblue" stroke="midnightblue" points="401.66,-18.14 411.35,-13.85 401.1,-11.17 401.66,-18.14"/>
</g>
<!-- Node5 -->
<g id="node5" class="node">
<title>Node5</title>
<g id="a_node5"><a xlink:href="AR_8h.html" target="_top" xlink:title=" ">
<polygon fill="white" stroke="black" points="127.61,-123.5 127.61,-142.5 176.61,-142.5 176.61,-123.5 127.61,-123.5"/>
<text text-anchor="middle" x="152.11" y="-130.5" font-family="Helvetica,sans-Serif" font-size="10.00">ar/AR.h</text>
</a>
</g>
</g>
<!-- Node3&#45;&gt;Node5 -->
<g id="edge4" class="edge">
<title>Node3&#45;&gt;Node5</title>
<path fill="none" stroke="midnightblue" d="M152.11,-184.98C152.11,-176.58 152.11,-163.48 152.11,-152.66"/>
<polygon fill="midnightblue" stroke="midnightblue" points="155.61,-152.51 152.11,-142.51 148.61,-152.51 155.61,-152.51"/>
</g>
<!-- Node6 -->
<g id="node6" class="node">
<title>Node6</title>
<g id="a_node6"><a xlink:href="ARQ_8h.html" target="_top" xlink:title=" ">
<polygon fill="white" stroke="black" points="215.11,-62 215.11,-81 271.11,-81 271.11,-62 215.11,-62"/>
<text text-anchor="middle" x="243.11" y="-69" font-family="Helvetica,sans-Serif" font-size="10.00">ar/ARQ.h</text>
</a>
</g>
</g>
<!-- Node3&#45;&gt;Node6 -->
<g id="edge6" class="edge">
<title>Node3&#45;&gt;Node6</title>
<path fill="none" stroke="midnightblue" d="M158.65,-184.8C173.67,-164.83 210.83,-115.42 230.47,-89.3"/>
<polygon fill="midnightblue" stroke="midnightblue" points="233.41,-91.22 236.62,-81.12 227.81,-87.01 233.41,-91.22"/>
</g>
<!-- Node7 -->
<g id="node7" class="node">
<title>Node7</title>
<g id="a_node7"><a xlink:href="mwcc_8h.html" target="_top" xlink:title=" ">
<polygon fill="white" stroke="black" points="233.11,-123.5 233.11,-142.5 283.11,-142.5 283.11,-123.5 233.11,-123.5"/>
<text text-anchor="middle" x="258.11" y="-130.5" font-family="Helvetica,sans-Serif" font-size="10.00">mwcc.h</text>
</a>
</g>
</g>
<!-- Node3&#45;&gt;Node7 -->
<g id="edge8" class="edge">
<title>Node3&#45;&gt;Node7</title>
<path fill="none" stroke="midnightblue" d="M167.29,-184.98C184.77,-175.17 213.69,-158.93 234.19,-147.42"/>
<polygon fill="midnightblue" stroke="midnightblue" points="235.94,-150.46 242.95,-142.51 232.52,-144.35 235.94,-150.46"/>
</g>
<!-- Node3&#45;&gt;Node8 -->
<g id="edge9" class="edge">
<title>Node3&#45;&gt;Node8</title>
<path fill="none" stroke="midnightblue" d="M136.78,-184.98C119.14,-175.17 89.95,-158.93 69.25,-147.42"/>
<polygon fill="midnightblue" stroke="midnightblue" points="70.85,-144.31 60.41,-142.51 67.45,-150.43 70.85,-144.31"/>
</g>
<!-- Node5&#45;&gt;Node4 -->
<g id="edge5" class="edge">
<title>Node5&#45;&gt;Node4</title>
<path fill="none" stroke="midnightblue" d="M155.63,-123.25C162.63,-107.1 179.89,-72.69 206.11,-56 237.76,-35.84 338.85,-22.39 401.15,-15.78"/>
<polygon fill="midnightblue" stroke="midnightblue" points="401.6,-19.25 411.18,-14.74 400.87,-12.29 401.6,-19.25"/>
</g>
<!-- Node6&#45;&gt;Node4 -->
<g id="edge7" class="edge">
<title>Node6&#45;&gt;Node4</title>
<path fill="none" stroke="midnightblue" d="M271.29,-62.48C307.63,-52.13 371.03,-34.08 412.28,-22.34"/>
<polygon fill="midnightblue" stroke="midnightblue" points="413.35,-25.67 422,-19.57 411.43,-18.94 413.35,-25.67"/>
</g>
<!-- Node8&#45;&gt;Node4 -->
<g id="edge10" class="edge">
<title>Node8&#45;&gt;Node4</title>
<path fill="none" stroke="midnightblue" d="M34.63,-123.38C17.53,-108.31 -12.69,-76.79 6.11,-56 32.21,-27.13 289.86,-15.9 401.24,-12.37"/>
<polygon fill="midnightblue" stroke="midnightblue" points="401.67,-15.86 411.55,-12.05 401.45,-8.86 401.67,-15.86"/>
</g>
<!-- Node9 -->
<g id="node9" class="node">
<title>Node9</title>
<g id="a_node9"><a xlink:href="dvd_8h.html" target="_top" xlink:title=" ">
<polygon fill="white" stroke="black" points="15.61,-62 15.61,-81 74.61,-81 74.61,-62 15.61,-62"/>
<text text-anchor="middle" x="45.11" y="-69" font-family="Helvetica,sans-Serif" font-size="10.00">dvd/dvd.h</text>
</a>
</g>
</g>
<!-- Node8&#45;&gt;Node9 -->
<g id="edge11" class="edge">
<title>Node8&#45;&gt;Node9</title>
<path fill="none" stroke="midnightblue" d="M45.11,-123.48C45.11,-115.08 45.11,-101.98 45.11,-91.16"/>
<polygon fill="midnightblue" stroke="midnightblue" points="48.61,-91.01 45.11,-81.01 41.61,-91.01 48.61,-91.01"/>
</g>
<!-- Node9&#45;&gt;Node4 -->
<g id="edge12" class="edge">
<title>Node9&#45;&gt;Node4</title>
<path fill="none" stroke="midnightblue" d="M68.16,-61.97C74.84,-59.75 82.2,-57.55 89.11,-56 198.73,-31.39 330.2,-19.3 400.97,-14.18"/>
<polygon fill="midnightblue" stroke="midnightblue" points="401.65,-17.65 411.38,-13.45 401.16,-10.66 401.65,-17.65"/>
</g>
<!-- Node10&#45;&gt;Node4 -->
<g id="edge21" class="edge">
<title>Node10&#45;&gt;Node4</title>
<path fill="none" stroke="midnightblue" d="M251.93,-313.24C262.11,-262.98 298.34,-95.06 335.11,-56 352.52,-37.5 378.38,-26.52 401.36,-20.04"/>
<polygon fill="midnightblue" stroke="midnightblue" points="402.54,-23.35 411.34,-17.45 400.78,-16.58 402.54,-23.35"/>
</g>
<!-- Node11 -->
<g id="node11" class="node">
<title>Node11</title>
<g id="a_node11"><a xlink:href="JKRHeap_8h.html" target="_top" xlink:title=" ">
<polygon fill="white" stroke="black" points="318.11,-246.5 318.11,-276.5 454.11,-276.5 454.11,-246.5 318.11,-246.5"/>
<text text-anchor="start" x="326.11" y="-264.5" font-family="Helvetica,sans-Serif" font-size="10.00">JSystem/JKernel/JKRHeap</text>
<text text-anchor="middle" x="386.11" y="-253.5" font-family="Helvetica,sans-Serif" font-size="10.00">/JKRHeap.h</text>
</a>
</g>
</g>
<!-- Node10&#45;&gt;Node11 -->
<g id="edge14" class="edge">
<title>Node10&#45;&gt;Node11</title>
<path fill="none" stroke="midnightblue" d="M278.83,-313.4C298.85,-303.9 325.46,-291.28 347.16,-280.98"/>
<polygon fill="midnightblue" stroke="midnightblue" points="348.9,-284.03 356.44,-276.58 345.9,-277.7 348.9,-284.03"/>
</g>
<!-- Node11&#45;&gt;Node3 -->
<g id="edge20" class="edge">
<title>Node11&#45;&gt;Node3</title>
<path fill="none" stroke="midnightblue" d="M335.62,-246.48C290.76,-234.01 226.35,-216.12 186.98,-205.19"/>
<polygon fill="midnightblue" stroke="midnightblue" points="187.87,-201.8 177.3,-202.5 185.99,-208.55 187.87,-201.8"/>
</g>
<!-- Node11&#45;&gt;Node4 -->
<g id="edge19" class="edge">
<title>Node11&#45;&gt;Node4</title>
<path fill="none" stroke="midnightblue" d="M386.14,-246.49C386.69,-212.47 390.92,-123.34 419.11,-56 423.45,-45.63 430.63,-35.42 437.19,-27.35"/>
<polygon fill="midnightblue" stroke="midnightblue" points="440.05,-29.4 443.9,-19.53 434.73,-24.84 440.05,-29.4"/>
</g>
<!-- Node12 -->
<g id="node12" class="node">
<title>Node12</title>
<g id="a_node12"><a xlink:href="JKRDisposer_8h.html" target="_top" xlink:title=" ">
<polygon fill="white" stroke="black" points="475.61,-179.5 475.61,-209.5 626.61,-209.5 626.61,-179.5 475.61,-179.5"/>
<text text-anchor="start" x="483.61" y="-197.5" font-family="Helvetica,sans-Serif" font-size="10.00">JSystem/JKernel/JKRDisposer</text>
<text text-anchor="middle" x="551.11" y="-186.5" font-family="Helvetica,sans-Serif" font-size="10.00">/JKRDisposer.h</text>
</a>
</g>
</g>
<!-- Node11&#45;&gt;Node12 -->
<g id="edge15" class="edge">
<title>Node11&#45;&gt;Node12</title>
<path fill="none" stroke="midnightblue" d="M421.91,-246.4C446.56,-236.69 479.5,-223.71 505.95,-213.29"/>
<polygon fill="midnightblue" stroke="midnightblue" points="507.35,-216.5 515.37,-209.58 504.79,-209.99 507.35,-216.5"/>
</g>
<!-- Node12&#45;&gt;Node4 -->
<g id="edge18" class="edge">
<title>Node12&#45;&gt;Node4</title>
<path fill="none" stroke="midnightblue" d="M542.56,-179.17C530.51,-158.86 508.02,-120.43 490.11,-87 479.58,-67.35 468.24,-44.41 460.71,-28.92"/>
<polygon fill="midnightblue" stroke="midnightblue" points="463.67,-27 456.17,-19.51 457.37,-30.04 463.67,-27"/>
</g>
<!-- Node13 -->
<g id="node13" class="node">
<title>Node13</title>
<g id="a_node13"><a xlink:href="JSUList_8h.html" target="_top" xlink:title=" ">
<polygon fill="white" stroke="black" points="499.11,-56.5 499.11,-86.5 635.11,-86.5 635.11,-56.5 499.11,-56.5"/>
<text text-anchor="start" x="507.11" y="-74.5" font-family="Helvetica,sans-Serif" font-size="10.00">JSystem/JSupport/JSUList</text>
<text text-anchor="middle" x="567.11" y="-63.5" font-family="Helvetica,sans-Serif" font-size="10.00">/JSUList.h</text>
</a>
</g>
</g>
<!-- Node12&#45;&gt;Node13 -->
<g id="edge16" class="edge">
<title>Node12&#45;&gt;Node13</title>
<path fill="none" stroke="midnightblue" d="M553.01,-179.14C555.69,-158.86 560.62,-121.53 563.89,-96.86"/>
<polygon fill="midnightblue" stroke="midnightblue" points="567.37,-97.21 565.21,-86.84 560.43,-96.29 567.37,-97.21"/>
</g>
<!-- Node13&#45;&gt;Node4 -->
<g id="edge17" class="edge">
<title>Node13&#45;&gt;Node4</title>
<path fill="none" stroke="midnightblue" d="M539.85,-56.4C521.08,-46.68 496.28,-33.86 477.84,-24.31"/>
<polygon fill="midnightblue" stroke="midnightblue" points="479.33,-21.14 468.84,-19.66 476.11,-27.36 479.33,-21.14"/>
</g>
<!-- Node14&#45;&gt;Node4 -->
<g id="edge24" class="edge">
<title>Node14&#45;&gt;Node4</title>
<path fill="none" stroke="midnightblue" d="M380.42,-380.35C369.27,-364.08 350.4,-336.59 334.11,-313 323.04,-296.97 314.93,-295.59 309.11,-277 304.99,-263.85 305.94,-259.41 309.11,-246 330.8,-154.11 347.68,-131.69 404.11,-56 412.35,-44.95 423.48,-34.32 432.95,-26.17"/>
<polygon fill="midnightblue" stroke="midnightblue" points="435.28,-28.78 440.73,-19.7 430.81,-23.4 435.28,-28.78"/>
</g>
<!-- Node14&#45;&gt;Node11 -->
<g id="edge23" class="edge">
<title>Node14&#45;&gt;Node11</title>
<path fill="none" stroke="midnightblue" d="M389.68,-380.37C389,-358.04 387.68,-314.31 386.85,-286.85"/>
<polygon fill="midnightblue" stroke="midnightblue" points="390.33,-286.41 386.53,-276.52 383.34,-286.63 390.33,-286.41"/>
</g>
<!-- Node15&#45;&gt;Node4 -->
<g id="edge44" class="edge">
<title>Node15&#45;&gt;Node4</title>
<path fill="none" stroke="midnightblue" d="M672.83,-458.61C812.89,-450.64 1128.11,-422.4 1128.11,-329.5 1128.11,-329.5 1128.11,-329.5 1128.11,-132 1128.11,-66.22 1063.74,-76.1 1001.11,-56 909.18,-26.5 620.76,-15.54 502.97,-12.23"/>
<polygon fill="midnightblue" stroke="midnightblue" points="502.88,-8.72 492.78,-11.95 502.68,-15.72 502.88,-8.72"/>
</g>
<!-- Node15&#45;&gt;Node11 -->
<g id="edge42" class="edge">
<title>Node15&#45;&gt;Node11</title>
<path fill="none" stroke="midnightblue" d="M597.61,-452.95C565.04,-423.62 457.25,-326.56 409.37,-283.45"/>
<polygon fill="midnightblue" stroke="midnightblue" points="411.47,-280.62 401.69,-276.53 406.78,-285.83 411.47,-280.62"/>
</g>
<!-- Node15&#45;&gt;Node14 -->
<g id="edge43" class="edge">
<title>Node15&#45;&gt;Node14</title>
<path fill="none" stroke="midnightblue" d="M578.29,-452.87C544.81,-442.84 488.78,-426.06 446.54,-413.4"/>
<polygon fill="midnightblue" stroke="midnightblue" points="447.52,-410.04 436.94,-410.53 445.51,-416.75 447.52,-410.04"/>
</g>
<!-- Node16 -->
<g id="node16" class="node">
<title>Node16</title>
<g id="a_node16"><a xlink:href="JKRArchive_8h.html" target="_top" xlink:title=" ">
<polygon fill="white" stroke="black" points="747.11,-380.5 747.11,-410.5 893.11,-410.5 893.11,-380.5 747.11,-380.5"/>
<text text-anchor="start" x="755.11" y="-398.5" font-family="Helvetica,sans-Serif" font-size="10.00">JSystem/JKernel/JKRArchive</text>
<text text-anchor="middle" x="820.11" y="-387.5" font-family="Helvetica,sans-Serif" font-size="10.00">/JKRArchive.h</text>
</a>
</g>
</g>
<!-- Node15&#45;&gt;Node16 -->
<g id="edge26" class="edge">
<title>Node15&#45;&gt;Node16</title>
<path fill="none" stroke="midnightblue" d="M635.39,-452.87C668.18,-442.86 723.02,-426.13 764.45,-413.48"/>
<polygon fill="midnightblue" stroke="midnightblue" points="765.6,-416.79 774.14,-410.53 763.55,-410.1 765.6,-416.79"/>
</g>
<!-- Node22 -->
<g id="node22" class="node">
<title>Node22</title>
<g id="a_node22"><a xlink:href="m__Do__dvd__thread_8h.html" target="_top" xlink:title=" ">
<polygon fill="white" stroke="black" points="1156.11,-56.5 1156.11,-86.5 1280.11,-86.5 1280.11,-56.5 1156.11,-56.5"/>
<text text-anchor="start" x="1164.11" y="-74.5" font-family="Helvetica,sans-Serif" font-size="10.00">m_Do/m_Do_dvd_thread</text>
<text text-anchor="middle" x="1218.11" y="-63.5" font-family="Helvetica,sans-Serif" font-size="10.00">/m_Do_dvd_thread.h</text>
</a>
</g>
</g>
<!-- Node15&#45;&gt;Node22 -->
<g id="edge45" class="edge">
<title>Node15&#45;&gt;Node22</title>
<path fill="none" stroke="midnightblue" d="M672.79,-458.57C806.94,-452.13 1103.09,-435.32 1142.11,-411 1178.17,-388.52 1192.11,-372 1192.11,-329.5 1192.11,-329.5 1192.11,-329.5 1192.11,-193.5 1192.11,-159.25 1202.19,-120.74 1209.8,-96.55"/>
<polygon fill="midnightblue" stroke="midnightblue" points="1213.2,-97.41 1212.97,-86.81 1206.54,-95.24 1213.2,-97.41"/>
</g>
<!-- Node16&#45;&gt;Node4 -->
<g id="edge41" class="edge">
<title>Node16&#45;&gt;Node4</title>
<path fill="none" stroke="midnightblue" d="M893.17,-389.59C973.14,-379.79 1090.11,-350.42 1090.11,-262.5 1090.11,-262.5 1090.11,-262.5 1090.11,-132 1090.11,-41.46 989.03,-77.62 901.11,-56 759.61,-21.21 586.71,-13.22 502.73,-11.45"/>
<polygon fill="midnightblue" stroke="midnightblue" points="502.76,-7.95 492.7,-11.26 502.63,-14.95 502.76,-7.95"/>
</g>
<!-- Node17 -->
<g id="node17" class="node">
<title>Node17</title>
<g id="a_node17"><a xlink:href="JKRDecomp_8h.html" target="_top" xlink:title=" ">
<polygon fill="white" stroke="black" points="745.61,-313.5 745.61,-343.5 894.61,-343.5 894.61,-313.5 745.61,-313.5"/>
<text text-anchor="start" x="753.61" y="-331.5" font-family="Helvetica,sans-Serif" font-size="10.00">JSystem/JKernel/JKRDecomp</text>
<text text-anchor="middle" x="820.11" y="-320.5" font-family="Helvetica,sans-Serif" font-size="10.00">/JKRDecomp.h</text>
</a>
</g>
</g>
<!-- Node16&#45;&gt;Node17 -->
<g id="edge27" class="edge">
<title>Node16&#45;&gt;Node17</title>
<path fill="none" stroke="midnightblue" d="M820.11,-380.4C820.11,-372.64 820.11,-362.81 820.11,-353.86"/>
<polygon fill="midnightblue" stroke="midnightblue" points="823.61,-353.58 820.11,-343.58 816.61,-353.58 823.61,-353.58"/>
</g>
<!-- Node19 -->
<g id="node19" class="node">
<title>Node19</title>
<g id="a_node19"><a xlink:href="SArc_8h.html" target="_top" xlink:title=" ">
<polygon fill="white" stroke="black" points="886.61,-185 886.61,-204 1009.61,-204 1009.61,-185 886.61,-185"/>
<text text-anchor="middle" x="948.11" y="-192" font-family="Helvetica,sans-Serif" font-size="10.00">JSystem/JKernel/SArc.h</text>
</a>
</g>
</g>
<!-- Node16&#45;&gt;Node19 -->
<g id="edge40" class="edge">
<title>Node16&#45;&gt;Node19</title>
<path fill="none" stroke="midnightblue" d="M878.13,-380.46C929.26,-364.69 1000.65,-333.54 1034.11,-277 1041.12,-265.14 1040.95,-257.96 1034.11,-246 1023.87,-228.12 1004.58,-215.96 986.85,-208.05"/>
<polygon fill="midnightblue" stroke="midnightblue" points="987.82,-204.66 977.24,-204.09 985.15,-211.13 987.82,-204.66"/>
</g>
<!-- Node21 -->
<g id="node21" class="node">
<title>Node21</title>
<g id="a_node21"><a xlink:href="JKRFileLoader_8h.html" target="_top" xlink:title=" ">
<polygon fill="white" stroke="black" points="472.11,-246.5 472.11,-276.5 630.11,-276.5 630.11,-246.5 472.11,-246.5"/>
<text text-anchor="start" x="480.11" y="-264.5" font-family="Helvetica,sans-Serif" font-size="10.00">JSystem/JKernel/JKRFileLoader</text>
<text text-anchor="middle" x="551.11" y="-253.5" font-family="Helvetica,sans-Serif" font-size="10.00">/JKRFileLoader.h</text>
</a>
</g>
</g>
<!-- Node16&#45;&gt;Node21 -->
<g id="edge37" class="edge">
<title>Node16&#45;&gt;Node21</title>
<path fill="none" stroke="midnightblue" d="M791.57,-380.5C742.75,-356.54 643.18,-307.68 588.73,-280.96"/>
<polygon fill="midnightblue" stroke="midnightblue" points="590.27,-277.82 579.75,-276.56 587.19,-284.1 590.27,-277.82"/>
</g>
<!-- Node17&#45;&gt;Node4 -->
<g id="edge36" class="edge">
<title>Node17&#45;&gt;Node4</title>
<path fill="none" stroke="midnightblue" d="M820.11,-313.24C820.11,-289.03 820.11,-238.35 820.11,-195.5 820.11,-195.5 820.11,-195.5 820.11,-132 820.11,-66 603.82,-30.08 502.88,-16.91"/>
<polygon fill="midnightblue" stroke="midnightblue" points="503.26,-13.43 492.9,-15.63 502.37,-20.37 503.26,-13.43"/>
</g>
<!-- Node18 -->
<g id="node18" class="node">
<title>Node18</title>
<g id="a_node18"><a xlink:href="JKRCompression_8h.html" target="_top" xlink:title=" ">
<polygon fill="white" stroke="black" points="847.61,-252 847.61,-271 1024.61,-271 1024.61,-252 847.61,-252"/>
<text text-anchor="middle" x="936.11" y="-259" font-family="Helvetica,sans-Serif" font-size="10.00">JSystem/JKernel/JKRCompression.h</text>
</a>
</g>
</g>
<!-- Node17&#45;&gt;Node18 -->
<g id="edge28" class="edge">
<title>Node17&#45;&gt;Node18</title>
<path fill="none" stroke="midnightblue" d="M845.28,-313.4C865.09,-302.29 892.53,-286.92 912.05,-275.98"/>
<polygon fill="midnightblue" stroke="midnightblue" points="913.91,-278.95 920.93,-271.01 910.49,-272.84 913.91,-278.95"/>
</g>
<!-- Node20 -->
<g id="node20" class="node">
<title>Node20</title>
<g id="a_node20"><a xlink:href="JKRThread_8h.html" target="_top" xlink:title=" ">
<polygon fill="white" stroke="black" points="648.61,-246.5 648.61,-276.5 791.61,-276.5 791.61,-246.5 648.61,-246.5"/>
<text text-anchor="start" x="656.61" y="-264.5" font-family="Helvetica,sans-Serif" font-size="10.00">JSystem/JKernel/JKRThread</text>
<text text-anchor="middle" x="720.11" y="-253.5" font-family="Helvetica,sans-Serif" font-size="10.00">/JKRThread.h</text>
</a>
</g>
</g>
<!-- Node17&#45;&gt;Node20 -->
<g id="edge32" class="edge">
<title>Node17&#45;&gt;Node20</title>
<path fill="none" stroke="midnightblue" d="M798.41,-313.4C784.39,-304.28 765.94,-292.29 750.47,-282.24"/>
<polygon fill="midnightblue" stroke="midnightblue" points="752.06,-279.09 741.76,-276.58 748.24,-284.96 752.06,-279.09"/>
</g>
<!-- Node18&#45;&gt;Node4 -->
<g id="edge31" class="edge">
<title>Node18&#45;&gt;Node4</title>
<path fill="none" stroke="midnightblue" d="M922.34,-251.96C909.11,-243.06 889.5,-227.91 878.11,-210 839.91,-149.93 888.33,-102.12 834.11,-56 785.31,-14.49 595.1,-9.93 502.85,-10.24"/>
<polygon fill="midnightblue" stroke="midnightblue" points="502.61,-6.74 492.63,-10.3 502.65,-13.74 502.61,-6.74"/>
</g>
<!-- Node18&#45;&gt;Node19 -->
<g id="edge29" class="edge">
<title>Node18&#45;&gt;Node19</title>
<path fill="none" stroke="midnightblue" d="M937.73,-251.73C939.49,-242.18 942.36,-226.62 944.64,-214.28"/>
<polygon fill="midnightblue" stroke="midnightblue" points="948.14,-214.6 946.51,-204.13 941.26,-213.33 948.14,-214.6"/>
</g>
<!-- Node19&#45;&gt;Node4 -->
<g id="edge30" class="edge">
<title>Node19&#45;&gt;Node4</title>
<path fill="none" stroke="midnightblue" d="M946.25,-184.85C940.4,-159.91 919.82,-87.69 872.11,-56 812.73,-16.56 601.3,-11.07 503.02,-10.71"/>
<polygon fill="midnightblue" stroke="midnightblue" points="502.75,-7.21 492.74,-10.69 502.73,-14.21 502.75,-7.21"/>
</g>
<!-- Node20&#45;&gt;Node3 -->
<g id="edge35" class="edge">
<title>Node20&#45;&gt;Node3</title>
<path fill="none" stroke="midnightblue" d="M648.6,-247.4C645.4,-246.91 642.22,-246.44 639.11,-246 470.55,-222.21 267.7,-204.74 187.35,-198.26"/>
<polygon fill="midnightblue" stroke="midnightblue" points="187.53,-194.76 177.28,-197.45 186.97,-201.74 187.53,-194.76"/>
</g>
<!-- Node20&#45;&gt;Node4 -->
<g id="edge34" class="edge">
<title>Node20&#45;&gt;Node4</title>
<path fill="none" stroke="midnightblue" d="M719.26,-246.32C716.25,-209.07 702.78,-107.73 644.11,-56 623.39,-37.73 552.49,-24.61 502.91,-17.41"/>
<polygon fill="midnightblue" stroke="midnightblue" points="503.38,-13.94 492.99,-16.01 502.4,-20.87 503.38,-13.94"/>
</g>
<!-- Node20&#45;&gt;Node12 -->
<g id="edge33" class="edge">
<title>Node20&#45;&gt;Node12</title>
<path fill="none" stroke="midnightblue" d="M683.44,-246.4C658.19,-236.69 624.45,-223.71 597.36,-213.29"/>
<polygon fill="midnightblue" stroke="midnightblue" points="598.3,-209.9 587.71,-209.58 595.78,-216.43 598.3,-209.9"/>
</g>
<!-- Node21&#45;&gt;Node4 -->
<g id="edge39" class="edge">
<title>Node21&#45;&gt;Node4</title>
<path fill="none" stroke="midnightblue" d="M511.64,-246.37C495.06,-238.33 477.29,-226.51 467.11,-210 431.69,-152.53 441.49,-67.27 448.2,-29.81"/>
<polygon fill="midnightblue" stroke="midnightblue" points="451.68,-30.28 450.13,-19.8 444.8,-28.96 451.68,-30.28"/>
</g>
<!-- Node21&#45;&gt;Node12 -->
<g id="edge38" class="edge">
<title>Node21&#45;&gt;Node12</title>
<path fill="none" stroke="midnightblue" d="M551.11,-246.4C551.11,-238.64 551.11,-228.81 551.11,-219.86"/>
<polygon fill="midnightblue" stroke="midnightblue" points="554.61,-219.58 551.11,-209.58 547.61,-219.58 554.61,-219.58"/>
</g>
<!-- Node22&#45;&gt;Node4 -->
<g id="edge46" class="edge">
<title>Node22&#45;&gt;Node4</title>
<path fill="none" stroke="midnightblue" d="M1155.99,-58C1151.31,-57.26 1146.64,-56.58 1142.11,-56 904.23,-25.67 617.45,-15.27 502.93,-12.17"/>
<polygon fill="midnightblue" stroke="midnightblue" points="502.81,-8.66 492.72,-11.9 502.62,-15.66 502.81,-8.66"/>
</g>
</g>
</svg>
