<?xml version="1.0" encoding="UTF-8" standalone="no"?>
<!DOCTYPE svg PUBLIC "-//W3C//DTD SVG 1.1//EN"
 "http://www.w3.org/Graphics/SVG/1.1/DTD/svg11.dtd">
<!-- Generated by graphviz version 2.44.0 ()
 -->
<!-- Title: include/m_Do/m_Do_main/m_Do_main.h Pages: 1 -->
<!--zoomable 486 -->
<svg id="main" version="1.1" xmlns="http://www.w3.org/2000/svg" xmlns:xlink="http://www.w3.org/1999/xlink" xml:space="preserve" onload="init(evt)">
<style type="text/css"><![CDATA[
.edge:hover path { stroke: red; }
.edge:hover polygon { stroke: red; fill: red; }
]]></style>
<script type="text/javascript"><![CDATA[
var edges = document.getElementsByTagName('g');
if (edges && edges.length) {
  for (var i=0;i<edges.length;i++) {
    if (edges[i].id.substr(0,4)=='edge') {
      edges[i].setAttribute('class','edge');
    }
  }
}
]]></script>
        <defs>
                <circle id="rim" cx="0" cy="0" r="7"/>
                <circle id="rim2" cx="0" cy="0" r="3.5"/>
                <g id="zoomPlus">
                        <use xlink:href="#rim" fill="#404040">
                                <set attributeName="fill" to="#808080" begin="zoomplus.mouseover" end="zoomplus.mouseout"/>
                        </use>
                        <path d="M-4,0h8M0,-4v8" fill="none" stroke="white" stroke-width="1.5" pointer-events="none"/>
                </g>
                <g id="zoomMin">
                        <use xlink:href="#rim" fill="#404040">
                                <set attributeName="fill" to="#808080" begin="zoomminus.mouseover" end="zoomminus.mouseout"/>
                        </use>
                        <path d="M-4,0h8" fill="none" stroke="white" stroke-width="1.5" pointer-events="none"/>
                </g>
                <g id="dirArrow">
                        <path fill="none" stroke="white" stroke-width="1.5" d="M0,-3.0v7 M-2.5,-0.5L0,-3.0L2.5,-0.5"/>
                </g>
               <g id="resetDef">
                       <use xlink:href="#rim2" fill="#404040">
                               <set attributeName="fill" to="#808080" begin="reset.mouseover" end="reset.mouseout"/>
                       </use>
               </g>
        </defs>

<script type="text/javascript">
var viewWidth = 910;
var viewHeight = 486;
var sectionId = 'dynsection-0';
</script>
<script xlink:href="svgpan.js"/>
<svg id="graph" class="graph">
<g id="viewport">
<title>include/m_Do/m_Do_main/m_Do_main.h</title>
<polygon fill="white" stroke="transparent" points="-4,4 -4,-482 905.63,-482 905.63,4 -4,4"/>
<!-- Node1 -->
<g id="node1" class="node">
<title>Node1</title>
<g id="a_node1"><a xlink:title=" ">
<polygon fill="#bfbfbf" stroke="black" points="237.63,-447.5 237.63,-477.5 368.63,-477.5 368.63,-447.5 237.63,-447.5"/>
<text text-anchor="start" x="245.63" y="-465.5" font-family="Helvetica,sans-Serif" font-size="10.00">include/m_Do/m_Do_main</text>
<text text-anchor="middle" x="303.13" y="-454.5" font-family="Helvetica,sans-Serif" font-size="10.00">/m_Do_main.h</text>
</a>
</g>
</g>
<!-- Node2 -->
<g id="node2" class="node">
<title>Node2</title>
<g id="a_node2"><a xlink:href="JKRExpHeap_8h.html" target="_top" xlink:title=" ">
<polygon fill="white" stroke="black" points="66.13,-313.5 66.13,-343.5 218.13,-343.5 218.13,-313.5 66.13,-313.5"/>
<text text-anchor="start" x="74.13" y="-331.5" font-family="Helvetica,sans-Serif" font-size="10.00">JSystem/JKernel/JKRExpHeap</text>
<text text-anchor="middle" x="142.13" y="-320.5" font-family="Helvetica,sans-Serif" font-size="10.00">/JKRExpHeap.h</text>
</a>
</g>
</g>
<!-- Node1&#45;&gt;Node2 -->
<g id="edge1" class="edge">
<title>Node1&#45;&gt;Node2</title>
<path fill="none" stroke="midnightblue" d="M285.9,-447.37C257.33,-423.95 200.05,-376.99 167.06,-349.94"/>
<polygon fill="midnightblue" stroke="midnightblue" points="169.18,-347.16 159.23,-343.52 164.75,-352.57 169.18,-347.16"/>
</g>
<!-- Node3 -->
<g id="node3" class="node">
<title>Node3</title>
<g id="a_node3"><a xlink:href="JKRHeap_8h.html" target="_top" xlink:title=" ">
<polygon fill="white" stroke="black" points="339.13,-246.5 339.13,-276.5 475.13,-276.5 475.13,-246.5 339.13,-246.5"/>
<text text-anchor="start" x="347.13" y="-264.5" font-family="Helvetica,sans-Serif" font-size="10.00">JSystem/JKernel/JKRHeap</text>
<text text-anchor="middle" x="407.13" y="-253.5" font-family="Helvetica,sans-Serif" font-size="10.00">/JKRHeap.h</text>
</a>
</g>
</g>
<!-- Node1&#45;&gt;Node3 -->
<g id="edge20" class="edge">
<title>Node1&#45;&gt;Node3</title>
<path fill="none" stroke="midnightblue" d="M313.92,-447.34C329.87,-425.91 359.9,-383.55 379.13,-344 388.14,-325.46 395.56,-303.26 400.5,-286.72"/>
<polygon fill="midnightblue" stroke="midnightblue" points="403.96,-287.34 403.37,-276.76 397.24,-285.39 403.96,-287.34"/>
</g>
<!-- Node6 -->
<g id="node6" class="node">
<title>Node6</title>
<g id="a_node6"><a xlink:href="types_8h.html" target="_top" xlink:title=" ">
<polygon fill="white" stroke="black" points="485.63,-0.5 485.63,-19.5 566.63,-19.5 566.63,-0.5 485.63,-0.5"/>
<text text-anchor="middle" x="526.13" y="-7.5" font-family="Helvetica,sans-Serif" font-size="10.00">dolphin/types.h</text>
</a>
</g>
</g>
<!-- Node1&#45;&gt;Node6 -->
<g id="edge34" class="edge">
<title>Node1&#45;&gt;Node6</title>
<path fill="none" stroke="midnightblue" d="M237.62,-456.91C159.15,-447.44 38.13,-418.42 38.13,-329.5 38.13,-329.5 38.13,-329.5 38.13,-126.5 38.13,-37.37 350.28,-16.93 475.27,-12.32"/>
<polygon fill="midnightblue" stroke="midnightblue" points="475.49,-15.81 485.36,-11.96 475.24,-8.82 475.49,-15.81"/>
</g>
<!-- Node13 -->
<g id="node13" class="node">
<title>Node13</title>
<g id="a_node13"><a xlink:href="JKRSolidHeap_8h.html" target="_top" xlink:title=" ">
<polygon fill="white" stroke="black" points="236.13,-313.5 236.13,-343.5 370.13,-343.5 370.13,-313.5 236.13,-313.5"/>
<text text-anchor="start" x="244.13" y="-331.5" font-family="Helvetica,sans-Serif" font-size="10.00">JSystem/JKernel/JKRSolid</text>
<text text-anchor="middle" x="303.13" y="-320.5" font-family="Helvetica,sans-Serif" font-size="10.00">Heap/JKRSolidHeap.h</text>
</a>
</g>
</g>
<!-- Node1&#45;&gt;Node13 -->
<g id="edge21" class="edge">
<title>Node1&#45;&gt;Node13</title>
<path fill="none" stroke="midnightblue" d="M303.13,-447.37C303.13,-425.04 303.13,-381.31 303.13,-353.85"/>
<polygon fill="midnightblue" stroke="midnightblue" points="306.63,-353.52 303.13,-343.52 299.63,-353.52 306.63,-353.52"/>
</g>
<!-- Node14 -->
<g id="node14" class="node">
<title>Node14</title>
<g id="a_node14"><a xlink:href="JUTConsole_8h.html" target="_top" xlink:title=" ">
<polygon fill="white" stroke="black" points="468.63,-380.5 468.63,-410.5 613.63,-410.5 613.63,-380.5 468.63,-380.5"/>
<text text-anchor="start" x="476.63" y="-398.5" font-family="Helvetica,sans-Serif" font-size="10.00">JSystem/JUtility/JUTConsole</text>
<text text-anchor="middle" x="541.13" y="-387.5" font-family="Helvetica,sans-Serif" font-size="10.00">/JUTConsole.h</text>
</a>
</g>
</g>
<!-- Node1&#45;&gt;Node14 -->
<g id="edge24" class="edge">
<title>Node1&#45;&gt;Node14</title>
<path fill="none" stroke="midnightblue" d="M354.48,-447.48C391.1,-437.47 440.54,-423.97 479.33,-413.38"/>
<polygon fill="midnightblue" stroke="midnightblue" points="480.73,-416.62 489.46,-410.61 478.89,-409.87 480.73,-416.62"/>
</g>
<!-- Node2&#45;&gt;Node3 -->
<g id="edge2" class="edge">
<title>Node2&#45;&gt;Node3</title>
<path fill="none" stroke="midnightblue" d="M199.3,-313.48C240.52,-303.37 296.3,-289.68 339.7,-279.04"/>
<polygon fill="midnightblue" stroke="midnightblue" points="340.72,-282.39 349.6,-276.61 339.05,-275.59 340.72,-282.39"/>
</g>
<!-- Node2&#45;&gt;Node6 -->
<g id="edge19" class="edge">
<title>Node2&#45;&gt;Node6</title>
<path fill="none" stroke="midnightblue" d="M107.39,-313.4C65.35,-293.77 0.13,-253.9 0.13,-195.5 0.13,-195.5 0.13,-195.5 0.13,-126.5 0.13,-93.4 -1.9,-76.45 24.13,-56 59.1,-28.52 355.18,-16.3 475.55,-12.44"/>
<polygon fill="midnightblue" stroke="midnightblue" points="475.73,-15.94 485.62,-12.12 475.51,-8.94 475.73,-15.94"/>
</g>
<!-- Node4 -->
<g id="node4" class="node">
<title>Node4</title>
<g id="a_node4"><a xlink:href="JKRDisposer_8h.html" target="_top" xlink:title=" ">
<polygon fill="white" stroke="black" points="350.63,-179.5 350.63,-209.5 501.63,-209.5 501.63,-179.5 350.63,-179.5"/>
<text text-anchor="start" x="358.63" y="-197.5" font-family="Helvetica,sans-Serif" font-size="10.00">JSystem/JKernel/JKRDisposer</text>
<text text-anchor="middle" x="426.13" y="-186.5" font-family="Helvetica,sans-Serif" font-size="10.00">/JKRDisposer.h</text>
</a>
</g>
</g>
<!-- Node3&#45;&gt;Node4 -->
<g id="edge3" class="edge">
<title>Node3&#45;&gt;Node4</title>
<path fill="none" stroke="midnightblue" d="M411.25,-246.4C413.56,-238.47 416.52,-228.38 419.18,-219.27"/>
<polygon fill="midnightblue" stroke="midnightblue" points="422.57,-220.16 422.01,-209.58 415.85,-218.19 422.57,-220.16"/>
</g>
<!-- Node3&#45;&gt;Node6 -->
<g id="edge7" class="edge">
<title>Node3&#45;&gt;Node6</title>
<path fill="none" stroke="midnightblue" d="M378.22,-246.45C364.28,-237.99 348.92,-225.78 341.13,-210 320.95,-169.16 349.96,-152.33 371.13,-112 384.66,-86.22 382.68,-74.55 405.13,-56 425.31,-39.32 452.27,-28.5 475.61,-21.65"/>
<polygon fill="midnightblue" stroke="midnightblue" points="476.66,-24.99 485.37,-18.96 474.8,-18.25 476.66,-24.99"/>
</g>
<!-- Node7 -->
<g id="node7" class="node">
<title>Node7</title>
<g id="a_node7"><a xlink:href="global_8h.html" target="_top" xlink:title=" ">
<polygon fill="white" stroke="black" points="665.13,-185 665.13,-204 715.13,-204 715.13,-185 665.13,-185"/>
<text text-anchor="middle" x="690.13" y="-192" font-family="Helvetica,sans-Serif" font-size="10.00">global.h</text>
</a>
</g>
</g>
<!-- Node3&#45;&gt;Node7 -->
<g id="edge8" class="edge">
<title>Node3&#45;&gt;Node7</title>
<path fill="none" stroke="midnightblue" d="M468.18,-246.48C525.29,-233.36 608.56,-214.23 655.18,-203.53"/>
<polygon fill="midnightblue" stroke="midnightblue" points="656.14,-206.9 665.1,-201.25 654.57,-200.08 656.14,-206.9"/>
</g>
<!-- Node5 -->
<g id="node5" class="node">
<title>Node5</title>
<g id="a_node5"><a xlink:href="JSUList_8h.html" target="_top" xlink:title=" ">
<polygon fill="white" stroke="black" points="388.13,-112.5 388.13,-142.5 524.13,-142.5 524.13,-112.5 388.13,-112.5"/>
<text text-anchor="start" x="396.13" y="-130.5" font-family="Helvetica,sans-Serif" font-size="10.00">JSystem/JSupport/JSUList</text>
<text text-anchor="middle" x="456.13" y="-119.5" font-family="Helvetica,sans-Serif" font-size="10.00">/JSUList.h</text>
</a>
</g>
</g>
<!-- Node4&#45;&gt;Node5 -->
<g id="edge4" class="edge">
<title>Node4&#45;&gt;Node5</title>
<path fill="none" stroke="midnightblue" d="M432.64,-179.4C436.37,-171.3 441.15,-160.94 445.43,-151.69"/>
<polygon fill="midnightblue" stroke="midnightblue" points="448.62,-153.12 449.63,-142.58 442.26,-150.19 448.62,-153.12"/>
</g>
<!-- Node4&#45;&gt;Node6 -->
<g id="edge6" class="edge">
<title>Node4&#45;&gt;Node6</title>
<path fill="none" stroke="midnightblue" d="M407.32,-179.37C396.86,-170.29 384.83,-157.49 379.13,-143 374.08,-130.18 372.71,-124.19 379.13,-112 402.72,-67.17 456.2,-38.38 491.73,-23.45"/>
<polygon fill="midnightblue" stroke="midnightblue" points="493.28,-26.6 501.23,-19.6 490.65,-20.11 493.28,-26.6"/>
</g>
<!-- Node5&#45;&gt;Node6 -->
<g id="edge5" class="edge">
<title>Node5&#45;&gt;Node6</title>
<path fill="none" stroke="midnightblue" d="M464.71,-112.34C477.55,-91.15 501.74,-51.24 515.62,-28.34"/>
<polygon fill="midnightblue" stroke="midnightblue" points="518.68,-30.04 520.87,-19.67 512.7,-26.41 518.68,-30.04"/>
</g>
<!-- Node7&#45;&gt;Node6 -->
<g id="edge9" class="edge">
<title>Node7&#45;&gt;Node6</title>
<path fill="none" stroke="midnightblue" d="M689.48,-184.95C688.02,-169.59 683.6,-136.63 671.13,-112 656.31,-82.76 649.26,-75.79 623.13,-56 604.52,-41.9 580.78,-30.8 561.45,-23.15"/>
<polygon fill="midnightblue" stroke="midnightblue" points="562.67,-19.86 552.08,-19.57 560.17,-26.4 562.67,-19.86"/>
</g>
<!-- Node8 -->
<g id="node8" class="node">
<title>Node8</title>
<g id="a_node8"><a xlink:href="AR_8h.html" target="_top" xlink:title=" ">
<polygon fill="white" stroke="black" points="670.63,-56.5 670.63,-75.5 719.63,-75.5 719.63,-56.5 670.63,-56.5"/>
<text text-anchor="middle" x="695.13" y="-63.5" font-family="Helvetica,sans-Serif" font-size="10.00">ar/AR.h</text>
</a>
</g>
</g>
<!-- Node7&#45;&gt;Node8 -->
<g id="edge10" class="edge">
<title>Node7&#45;&gt;Node8</title>
<path fill="none" stroke="midnightblue" d="M693.35,-184.71C696.81,-174.76 702.09,-157.96 704.13,-143 705.98,-129.35 705.48,-125.71 704.13,-112 703.25,-103.17 701.44,-93.51 699.66,-85.4"/>
<polygon fill="midnightblue" stroke="midnightblue" points="703.04,-84.49 697.36,-75.55 696.23,-86.08 703.04,-84.49"/>
</g>
<!-- Node9 -->
<g id="node9" class="node">
<title>Node9</title>
<g id="a_node9"><a xlink:href="ARQ_8h.html" target="_top" xlink:title=" ">
<polygon fill="white" stroke="black" points="738.13,-56.5 738.13,-75.5 794.13,-75.5 794.13,-56.5 738.13,-56.5"/>
<text text-anchor="middle" x="766.13" y="-63.5" font-family="Helvetica,sans-Serif" font-size="10.00">ar/ARQ.h</text>
</a>
</g>
</g>
<!-- Node7&#45;&gt;Node9 -->
<g id="edge12" class="edge">
<title>Node7&#45;&gt;Node9</title>
<path fill="none" stroke="midnightblue" d="M695.35,-184.81C707.72,-164.22 738.98,-112.19 755.51,-84.68"/>
<polygon fill="midnightblue" stroke="midnightblue" points="758.72,-86.13 760.87,-75.76 752.72,-82.53 758.72,-86.13"/>
</g>
<!-- Node10 -->
<g id="node10" class="node">
<title>Node10</title>
<g id="a_node10"><a xlink:href="mwcc_8h.html" target="_top" xlink:title=" ">
<polygon fill="white" stroke="black" points="542.13,-118 542.13,-137 592.13,-137 592.13,-118 542.13,-118"/>
<text text-anchor="middle" x="567.13" y="-125" font-family="Helvetica,sans-Serif" font-size="10.00">mwcc.h</text>
</a>
</g>
</g>
<!-- Node7&#45;&gt;Node10 -->
<g id="edge14" class="edge">
<title>Node7&#45;&gt;Node10</title>
<path fill="none" stroke="midnightblue" d="M673.79,-184.87C653.02,-173.89 616.94,-154.82 592.56,-141.94"/>
<polygon fill="midnightblue" stroke="midnightblue" points="594,-138.75 583.53,-137.17 590.73,-144.93 594,-138.75"/>
</g>
<!-- Node11 -->
<g id="node11" class="node">
<title>Node11</title>
<g id="a_node11"><a xlink:href="OS_8h.html" target="_top" xlink:title=" ">
<polygon fill="white" stroke="black" points="610.13,-118 610.13,-137 662.13,-137 662.13,-118 610.13,-118"/>
<text text-anchor="middle" x="636.13" y="-125" font-family="Helvetica,sans-Serif" font-size="10.00">os/OS.h</text>
</a>
</g>
</g>
<!-- Node7&#45;&gt;Node11 -->
<g id="edge15" class="edge">
<title>Node7&#45;&gt;Node11</title>
<path fill="none" stroke="midnightblue" d="M682.84,-184.73C674.42,-174.6 660.38,-157.69 649.88,-145.06"/>
<polygon fill="midnightblue" stroke="midnightblue" points="652.38,-142.58 643.29,-137.13 646.99,-147.06 652.38,-142.58"/>
</g>
<!-- Node8&#45;&gt;Node6 -->
<g id="edge11" class="edge">
<title>Node8&#45;&gt;Node6</title>
<path fill="none" stroke="midnightblue" d="M670.55,-57.15C642.18,-48.08 595.23,-33.08 562.6,-22.65"/>
<polygon fill="midnightblue" stroke="midnightblue" points="563.56,-19.29 552.96,-19.58 561.43,-25.95 563.56,-19.29"/>
</g>
<!-- Node9&#45;&gt;Node6 -->
<g id="edge13" class="edge">
<title>Node9&#45;&gt;Node6</title>
<path fill="none" stroke="midnightblue" d="M737.86,-58.06C734.91,-57.36 731.96,-56.66 729.13,-56 676.83,-43.84 616.78,-30.62 575.63,-21.68"/>
<polygon fill="midnightblue" stroke="midnightblue" points="576.37,-18.26 565.86,-19.56 574.89,-25.1 576.37,-18.26"/>
</g>
<!-- Node11&#45;&gt;Node6 -->
<g id="edge16" class="edge">
<title>Node11&#45;&gt;Node6</title>
<path fill="none" stroke="midnightblue" d="M616.95,-117.82C593.54,-106.88 555.86,-88.06 546.13,-76 535.36,-62.66 530.37,-43.54 528.07,-29.49"/>
<polygon fill="midnightblue" stroke="midnightblue" points="531.53,-28.97 526.75,-19.52 524.6,-29.9 531.53,-28.97"/>
</g>
<!-- Node12 -->
<g id="node12" class="node">
<title>Node12</title>
<g id="a_node12"><a xlink:href="dvd_8h.html" target="_top" xlink:title=" ">
<polygon fill="white" stroke="black" points="554.63,-56.5 554.63,-75.5 613.63,-75.5 613.63,-56.5 554.63,-56.5"/>
<text text-anchor="middle" x="584.13" y="-63.5" font-family="Helvetica,sans-Serif" font-size="10.00">dvd/dvd.h</text>
</a>
</g>
</g>
<!-- Node11&#45;&gt;Node12 -->
<g id="edge17" class="edge">
<title>Node11&#45;&gt;Node12</title>
<path fill="none" stroke="midnightblue" d="M628.68,-117.98C620.8,-108.96 608.18,-94.52 598.38,-83.31"/>
<polygon fill="midnightblue" stroke="midnightblue" points="600.78,-80.74 591.56,-75.51 595.51,-85.34 600.78,-80.74"/>
</g>
<!-- Node12&#45;&gt;Node6 -->
<g id="edge18" class="edge">
<title>Node12&#45;&gt;Node6</title>
<path fill="none" stroke="midnightblue" d="M574.81,-56.32C566.23,-48.34 553.31,-36.31 542.94,-26.65"/>
<polygon fill="midnightblue" stroke="midnightblue" points="545.32,-24.09 535.61,-19.83 540.55,-29.21 545.32,-24.09"/>
</g>
<!-- Node13&#45;&gt;Node3 -->
<g id="edge22" class="edge">
<title>Node13&#45;&gt;Node3</title>
<path fill="none" stroke="midnightblue" d="M325.69,-313.4C340.41,-304.2 359.82,-292.07 376,-281.95"/>
<polygon fill="midnightblue" stroke="midnightblue" points="377.98,-284.84 384.6,-276.58 374.27,-278.91 377.98,-284.84"/>
</g>
<!-- Node13&#45;&gt;Node6 -->
<g id="edge23" class="edge">
<title>Node13&#45;&gt;Node6</title>
<path fill="none" stroke="midnightblue" d="M299.73,-313.34C294.26,-289.27 284.13,-238.8 284.13,-195.5 284.13,-195.5 284.13,-195.5 284.13,-126.5 284.13,-42.42 404.59,-19.49 475.53,-13.27"/>
<polygon fill="midnightblue" stroke="midnightblue" points="475.93,-16.75 485.62,-12.47 475.38,-9.78 475.93,-16.75"/>
</g>
<!-- Node14&#45;&gt;Node3 -->
<g id="edge25" class="edge">
<title>Node14&#45;&gt;Node3</title>
<path fill="none" stroke="midnightblue" d="M508.65,-380.38C491.3,-371.69 470.44,-359.29 455.13,-344 438.42,-327.32 425.34,-303.66 417.08,-286.13"/>
<polygon fill="midnightblue" stroke="midnightblue" points="420.09,-284.29 412.78,-276.62 413.71,-287.17 420.09,-284.29"/>
</g>
<!-- Node14&#45;&gt;Node5 -->
<g id="edge26" class="edge">
<title>Node14&#45;&gt;Node5</title>
<path fill="none" stroke="midnightblue" d="M583.45,-380.3C600.14,-372.39 617.58,-360.68 627.13,-344 633.97,-332.04 631.94,-325.91 627.13,-313 599.79,-239.65 526.9,-178.56 485.65,-148.53"/>
<polygon fill="midnightblue" stroke="midnightblue" points="487.52,-145.57 477.35,-142.6 483.45,-151.26 487.52,-145.57"/>
</g>
<!-- Node14&#45;&gt;Node6 -->
<g id="edge33" class="edge">
<title>Node14&#45;&gt;Node6</title>
<path fill="none" stroke="midnightblue" d="M613.86,-390.95C697.12,-382.52 822.13,-354.53 822.13,-262.5 822.13,-262.5 822.13,-262.5 822.13,-126.5 822.13,-94.05 827.22,-77.74 803.13,-56 770.64,-26.67 647.32,-16.35 576.66,-12.79"/>
<polygon fill="midnightblue" stroke="midnightblue" points="576.79,-9.3 566.64,-12.32 576.46,-16.29 576.79,-9.3"/>
</g>
<!-- Node15 -->
<g id="node15" class="node">
<title>Node15</title>
<g id="a_node15"><a xlink:href="JUTResFont_8h.html" target="_top" xlink:title=" ">
<polygon fill="white" stroke="black" points="464.13,-319 464.13,-338 618.13,-338 618.13,-319 464.13,-319"/>
<text text-anchor="middle" x="541.13" y="-326" font-family="Helvetica,sans-Serif" font-size="10.00">JSystem/JUtility/JUTResFont.h</text>
</a>
</g>
</g>
<!-- Node14&#45;&gt;Node15 -->
<g id="edge27" class="edge">
<title>Node14&#45;&gt;Node15</title>
<path fill="none" stroke="midnightblue" d="M541.13,-380.4C541.13,-371.06 541.13,-358.71 541.13,-348.52"/>
<polygon fill="midnightblue" stroke="midnightblue" points="544.63,-348.19 541.13,-338.19 537.63,-348.19 544.63,-348.19"/>
</g>
<!-- Node15&#45;&gt;Node3 -->
<g id="edge28" class="edge">
<title>Node15&#45;&gt;Node3</title>
<path fill="none" stroke="midnightblue" d="M523.33,-318.87C503.49,-309.24 470.8,-293.39 445.14,-280.94"/>
<polygon fill="midnightblue" stroke="midnightblue" points="446.57,-277.74 436.05,-276.53 443.52,-284.04 446.57,-277.74"/>
</g>
<!-- Node16 -->
<g id="node16" class="node">
<title>Node16</title>
<g id="a_node16"><a xlink:href="JUTFont_8h.html" target="_top" xlink:title=" ">
<polygon fill="white" stroke="black" points="664.63,-246.5 664.63,-276.5 793.63,-276.5 793.63,-246.5 664.63,-246.5"/>
<text text-anchor="start" x="672.63" y="-264.5" font-family="Helvetica,sans-Serif" font-size="10.00">JSystem/JUtility/JUTFont</text>
<text text-anchor="middle" x="729.13" y="-253.5" font-family="Helvetica,sans-Serif" font-size="10.00">/JUTFont.h</text>
</a>
</g>
</g>
<!-- Node15&#45;&gt;Node16 -->
<g id="edge29" class="edge">
<title>Node15&#45;&gt;Node16</title>
<path fill="none" stroke="midnightblue" d="M566.09,-318.87C594.79,-308.95 642.62,-292.41 679.07,-279.81"/>
<polygon fill="midnightblue" stroke="midnightblue" points="680.25,-283.1 688.55,-276.53 677.96,-276.49 680.25,-283.1"/>
</g>
<!-- Node16&#45;&gt;Node7 -->
<g id="edge30" class="edge">
<title>Node16&#45;&gt;Node7</title>
<path fill="none" stroke="midnightblue" d="M720.66,-246.4C714.76,-236.56 706.85,-223.38 700.56,-212.89"/>
<polygon fill="midnightblue" stroke="midnightblue" points="703.49,-210.97 695.34,-204.19 697.49,-214.57 703.49,-210.97"/>
</g>
<!-- Node17 -->
<g id="node17" class="node">
<title>Node17</title>
<g id="a_node17"><a xlink:href="GX_8h.html" target="_top" xlink:title=" ">
<polygon fill="white" stroke="black" points="850.63,-56.5 850.63,-75.5 901.63,-75.5 901.63,-56.5 850.63,-56.5"/>
<text text-anchor="middle" x="876.13" y="-63.5" font-family="Helvetica,sans-Serif" font-size="10.00">gx/GX.h</text>
</a>
</g>
</g>
<!-- Node16&#45;&gt;Node17 -->
<g id="edge31" class="edge">
<title>Node16&#45;&gt;Node17</title>
<path fill="none" stroke="midnightblue" d="M739.94,-246.27C766.46,-211.35 834.7,-121.54 863.25,-83.94"/>
<polygon fill="midnightblue" stroke="midnightblue" points="866.35,-85.66 869.61,-75.58 860.77,-81.42 866.35,-85.66"/>
</g>
<!-- Node17&#45;&gt;Node6 -->
<g id="edge32" class="edge">
<title>Node17&#45;&gt;Node6</title>
<path fill="none" stroke="midnightblue" d="M850.37,-58.9C845.64,-57.87 840.75,-56.85 836.13,-56 745.38,-39.23 638.74,-24.92 577.14,-17.18"/>
<polygon fill="midnightblue" stroke="midnightblue" points="577.27,-13.67 566.91,-15.9 576.4,-20.61 577.27,-13.67"/>
</g>
</g>
</svg>
        <g id="navigator" transform="translate(0 0)" fill="#404254">
                <rect fill="#f2f5e9" fill-opacity="0.5" stroke="#606060" stroke-width=".5" x="0" y="0" width="60" height="60"/>
                <use id="zoomplus" xlink:href="#zoomPlus" x="17" y="9" onmousedown="handleZoom(evt,'in')"/>
                <use id="zoomminus" xlink:href="#zoomMin" x="42" y="9" onmousedown="handleZoom(evt,'out')"/>
                <use id="reset" xlink:href="#resetDef" x="30" y="36" onmousedown="handleReset()"/>
                <g id="arrowUp" xlink:href="#dirArrow" transform="translate(30 24)" onmousedown="handlePan(0,-1)">
                  <use xlink:href="#rim" fill="#404040">
                        <set attributeName="fill" to="#808080" begin="arrowUp.mouseover" end="arrowUp.mouseout"/>
                  </use>
                  <path fill="none" stroke="white" stroke-width="1.5" d="M0,-3.0v7 M-2.5,-0.5L0,-3.0L2.5,-0.5"/>
                </g>
                <g id="arrowRight" xlink:href="#dirArrow" transform="rotate(90) translate(36 -43)" onmousedown="handlePan(1,0)">
                  <use xlink:href="#rim" fill="#404040">
                        <set attributeName="fill" to="#808080" begin="arrowRight.mouseover" end="arrowRight.mouseout"/>
                  </use>
                  <path fill="none" stroke="white" stroke-width="1.5" d="M0,-3.0v7 M-2.5,-0.5L0,-3.0L2.5,-0.5"/>
                </g>
                <g id="arrowDown" xlink:href="#dirArrow" transform="rotate(180) translate(-30 -48)" onmousedown="handlePan(0,1)">
                  <use xlink:href="#rim" fill="#404040">
                        <set attributeName="fill" to="#808080" begin="arrowDown.mouseover" end="arrowDown.mouseout"/>
                  </use>
                  <path fill="none" stroke="white" stroke-width="1.5" d="M0,-3.0v7 M-2.5,-0.5L0,-3.0L2.5,-0.5"/>
                </g>
                <g id="arrowLeft" xlink:href="#dirArrow" transform="rotate(270) translate(-36 17)" onmousedown="handlePan(-1,0)">
                  <use xlink:href="#rim" fill="#404040">
                        <set attributeName="fill" to="#808080" begin="arrowLeft.mouseover" end="arrowLeft.mouseout"/>
                  </use>
                  <path fill="none" stroke="white" stroke-width="1.5" d="M0,-3.0v7 M-2.5,-0.5L0,-3.0L2.5,-0.5"/>
                </g>
        </g>
        <svg viewBox="0 0 15 15" width="100%" height="30px" preserveAspectRatio="xMaxYMin meet">
         <g id="arrow_out" transform="scale(0.3 0.3)">
          <a xlink:href="m__Do__main_8h__incl_org.svg" target="_base">
           <rect id="button" ry="5" rx="5" y="6" x="6" height="38" width="38"
                fill="#f2f5e9" fill-opacity="0.5" stroke="#606060" stroke-width="1.0"/>
           <path id="arrow"
             d="M 11.500037,31.436501 C 11.940474,20.09759 22.043105,11.32322 32.158766,21.979434 L 37.068811,17.246167 C 37.068811,17.246167 37.088388,32 37.088388,32 L 22.160133,31.978069 C 22.160133,31.978069 26.997745,27.140456 26.997745,27.140456 C 18.528582,18.264221 13.291696,25.230495 11.500037,31.436501 z"
             style="fill:#404040;"/>
          </a>
         </g>
        </svg>
</svg>
