<?xml version="1.0" encoding="UTF-8" standalone="no"?>
<!DOCTYPE svg PUBLIC "-//W3C//DTD SVG 1.1//EN"
 "http://www.w3.org/Graphics/SVG/1.1/DTD/svg11.dtd">
<!-- Generated by graphviz version 2.44.0 ()
 -->
<!-- Title: src/m_Do/m_Do_dvd_thread.cpp Pages: 1 -->
<svg width="4564pt" height="375pt"
 viewBox="0.00 0.00 4563.50 375.00" xmlns="http://www.w3.org/2000/svg" xmlns:xlink="http://www.w3.org/1999/xlink">
<g id="graph0" class="graph" transform="scale(1 1) rotate(0) translate(4 371)">
<title>src/m_Do/m_Do_dvd_thread.cpp</title>
<polygon fill="white" stroke="transparent" points="-4,4 -4,-371 4559.5,-371 4559.5,4 -4,4"/>
<!-- Node1 -->
<g id="node1" class="node">
<title>Node1</title>
<g id="a_node1"><a xlink:title=" ">
<polygon fill="#bfbfbf" stroke="black" points="2142.5,-347.5 2142.5,-366.5 2300.5,-366.5 2300.5,-347.5 2142.5,-347.5"/>
<text text-anchor="middle" x="2221.5" y="-354.5" font-family="Helvetica,sans-Serif" font-size="10.00">src/m_Do/m_Do_dvd_thread.cpp</text>
</a>
</g>
</g>
<!-- Node2 -->
<g id="node2" class="node">
<title>Node2</title>
<g id="a_node2"><a xlink:href="c__list_8h.html" target="_top" xlink:title=" ">
<polygon fill="white" stroke="black" points="6,-286 6,-305 113,-305 113,-286 6,-286"/>
<text text-anchor="middle" x="59.5" y="-293" font-family="Helvetica,sans-Serif" font-size="10.00">SComponent/c_list.h</text>
</a>
</g>
</g>
<!-- Node1&#45;&gt;Node2 -->
<g id="edge1" class="edge">
<title>Node1&#45;&gt;Node2</title>
<path fill="none" stroke="midnightblue" d="M2142.36,-356.23C1810.58,-356.91 530.4,-356.45 129.5,-311 121.35,-310.08 112.74,-308.66 104.45,-307.07"/>
<polygon fill="midnightblue" stroke="midnightblue" points="105.04,-303.62 94.55,-305.07 103.66,-310.48 105.04,-303.62"/>
</g>
<!-- Node4 -->
<g id="node4" class="node">
<title>Node4</title>
<g id="a_node4"><a xlink:href="global_8h.html" target="_top" xlink:title=" ">
<polygon fill="white" stroke="black" points="75.5,-168.5 75.5,-187.5 125.5,-187.5 125.5,-168.5 75.5,-168.5"/>
<text text-anchor="middle" x="100.5" y="-175.5" font-family="Helvetica,sans-Serif" font-size="10.00">global.h</text>
</a>
</g>
</g>
<!-- Node1&#45;&gt;Node4 -->
<g id="edge14" class="edge">
<title>Node1&#45;&gt;Node4</title>
<path fill="none" stroke="midnightblue" d="M2142.26,-355.42C1769.24,-352.55 204.48,-338.84 162.5,-311 127.19,-287.58 141.82,-262.21 123.5,-224 119.13,-214.89 114.04,-204.87 109.76,-196.6"/>
<polygon fill="midnightblue" stroke="midnightblue" points="112.77,-194.81 105.04,-187.56 106.57,-198.05 112.77,-194.81"/>
</g>
<!-- Node11 -->
<g id="node11" class="node">
<title>Node11</title>
<g id="a_node11"><a xlink:title=" ">
<polygon fill="white" stroke="#bfbfbf" points="171.5,-280.5 171.5,-310.5 295.5,-310.5 295.5,-280.5 171.5,-280.5"/>
<text text-anchor="start" x="179.5" y="-298.5" font-family="Helvetica,sans-Serif" font-size="10.00">m_Do/m_Do_dvd_thread</text>
<text text-anchor="middle" x="233.5" y="-287.5" font-family="Helvetica,sans-Serif" font-size="10.00">/asm/func_800157FC.s</text>
</a>
</g>
</g>
<!-- Node1&#45;&gt;Node11 -->
<g id="edge15" class="edge">
<title>Node1&#45;&gt;Node11</title>
<path fill="none" stroke="midnightblue" d="M2142.44,-356.02C1831.26,-355.81 689.62,-352.26 305.77,-310.97"/>
<polygon fill="midnightblue" stroke="midnightblue" points="306.06,-307.48 295.74,-309.86 305.29,-314.44 306.06,-307.48"/>
</g>
<!-- Node12 -->
<g id="node12" class="node">
<title>Node12</title>
<g id="a_node12"><a xlink:title=" ">
<polygon fill="white" stroke="#bfbfbf" points="313.5,-280.5 313.5,-310.5 437.5,-310.5 437.5,-280.5 313.5,-280.5"/>
<text text-anchor="start" x="321.5" y="-298.5" font-family="Helvetica,sans-Serif" font-size="10.00">m_Do/m_Do_dvd_thread</text>
<text text-anchor="middle" x="375.5" y="-287.5" font-family="Helvetica,sans-Serif" font-size="10.00">/asm/func_80015858.s</text>
</a>
</g>
</g>
<!-- Node1&#45;&gt;Node12 -->
<g id="edge16" class="edge">
<title>Node1&#45;&gt;Node12</title>
<path fill="none" stroke="midnightblue" d="M2142.26,-355.85C1845.89,-354.98 802.11,-349.32 447.77,-310.97"/>
<polygon fill="midnightblue" stroke="midnightblue" points="448.06,-307.48 437.74,-309.86 447.29,-314.44 448.06,-307.48"/>
</g>
<!-- Node13 -->
<g id="node13" class="node">
<title>Node13</title>
<g id="a_node13"><a xlink:title=" ">
<polygon fill="white" stroke="#bfbfbf" points="455.5,-280.5 455.5,-310.5 579.5,-310.5 579.5,-280.5 455.5,-280.5"/>
<text text-anchor="start" x="463.5" y="-298.5" font-family="Helvetica,sans-Serif" font-size="10.00">m_Do/m_Do_dvd_thread</text>
<text text-anchor="middle" x="517.5" y="-287.5" font-family="Helvetica,sans-Serif" font-size="10.00">/asm/func_800158B4.s</text>
</a>
</g>
</g>
<!-- Node1&#45;&gt;Node13 -->
<g id="edge17" class="edge">
<title>Node1&#45;&gt;Node13</title>
<path fill="none" stroke="midnightblue" d="M2142.11,-355.64C1861.36,-354.09 915.36,-346.39 590.11,-311.01"/>
<polygon fill="midnightblue" stroke="midnightblue" points="590.07,-307.48 579.74,-309.85 589.29,-314.44 590.07,-307.48"/>
</g>
<!-- Node14 -->
<g id="node14" class="node">
<title>Node14</title>
<g id="a_node14"><a xlink:title=" ">
<polygon fill="white" stroke="#bfbfbf" points="597.5,-280.5 597.5,-310.5 721.5,-310.5 721.5,-280.5 597.5,-280.5"/>
<text text-anchor="start" x="605.5" y="-298.5" font-family="Helvetica,sans-Serif" font-size="10.00">m_Do/m_Do_dvd_thread</text>
<text text-anchor="middle" x="659.5" y="-287.5" font-family="Helvetica,sans-Serif" font-size="10.00">/asm/func_800158DC.s</text>
</a>
</g>
</g>
<!-- Node1&#45;&gt;Node14 -->
<g id="edge18" class="edge">
<title>Node1&#45;&gt;Node14</title>
<path fill="none" stroke="midnightblue" d="M2142.17,-355.4C1877.89,-353.12 1027.91,-343.47 732.03,-311"/>
<polygon fill="midnightblue" stroke="midnightblue" points="732.07,-307.49 721.74,-309.84 731.28,-314.44 732.07,-307.49"/>
</g>
<!-- Node15 -->
<g id="node15" class="node">
<title>Node15</title>
<g id="a_node15"><a xlink:title=" ">
<polygon fill="white" stroke="#bfbfbf" points="739.5,-280.5 739.5,-310.5 863.5,-310.5 863.5,-280.5 739.5,-280.5"/>
<text text-anchor="start" x="747.5" y="-298.5" font-family="Helvetica,sans-Serif" font-size="10.00">m_Do/m_Do_dvd_thread</text>
<text text-anchor="middle" x="801.5" y="-287.5" font-family="Helvetica,sans-Serif" font-size="10.00">/asm/func_800158FC.s</text>
</a>
</g>
</g>
<!-- Node1&#45;&gt;Node15 -->
<g id="edge19" class="edge">
<title>Node1&#45;&gt;Node15</title>
<path fill="none" stroke="midnightblue" d="M2142.41,-355.11C1895.53,-352.05 1140.29,-340.58 873.78,-310.98"/>
<polygon fill="midnightblue" stroke="midnightblue" points="874.08,-307.49 863.74,-309.83 873.28,-314.44 874.08,-307.49"/>
</g>
<!-- Node16 -->
<g id="node16" class="node">
<title>Node16</title>
<g id="a_node16"><a xlink:title=" ">
<polygon fill="white" stroke="#bfbfbf" points="881.5,-280.5 881.5,-310.5 1005.5,-310.5 1005.5,-280.5 881.5,-280.5"/>
<text text-anchor="start" x="889.5" y="-298.5" font-family="Helvetica,sans-Serif" font-size="10.00">m_Do/m_Do_dvd_thread</text>
<text text-anchor="middle" x="943.5" y="-287.5" font-family="Helvetica,sans-Serif" font-size="10.00">/asm/func_80015944.s</text>
</a>
</g>
</g>
<!-- Node1&#45;&gt;Node16 -->
<g id="edge20" class="edge">
<title>Node1&#45;&gt;Node16</title>
<path fill="none" stroke="midnightblue" d="M2142.26,-354.75C1913.36,-350.86 1252.95,-337.69 1015.7,-310.97"/>
<polygon fill="midnightblue" stroke="midnightblue" points="1016.08,-307.49 1005.74,-309.81 1015.27,-314.45 1016.08,-307.49"/>
</g>
<!-- Node17 -->
<g id="node17" class="node">
<title>Node17</title>
<g id="a_node17"><a xlink:title=" ">
<polygon fill="white" stroke="#bfbfbf" points="1023.5,-280.5 1023.5,-310.5 1147.5,-310.5 1147.5,-280.5 1023.5,-280.5"/>
<text text-anchor="start" x="1031.5" y="-298.5" font-family="Helvetica,sans-Serif" font-size="10.00">m_Do/m_Do_dvd_thread</text>
<text text-anchor="middle" x="1085.5" y="-287.5" font-family="Helvetica,sans-Serif" font-size="10.00">/asm/func_8001598C.s</text>
</a>
</g>
</g>
<!-- Node1&#45;&gt;Node17 -->
<g id="edge21" class="edge">
<title>Node1&#45;&gt;Node17</title>
<path fill="none" stroke="midnightblue" d="M2142.21,-354.29C1932.54,-349.5 1365.85,-334.83 1157.68,-310.98"/>
<polygon fill="midnightblue" stroke="midnightblue" points="1158.09,-307.5 1147.75,-309.8 1157.26,-314.45 1158.09,-307.5"/>
</g>
<!-- Node18 -->
<g id="node18" class="node">
<title>Node18</title>
<g id="a_node18"><a xlink:title=" ">
<polygon fill="white" stroke="#bfbfbf" points="1165.5,-280.5 1165.5,-310.5 1289.5,-310.5 1289.5,-280.5 1165.5,-280.5"/>
<text text-anchor="start" x="1173.5" y="-298.5" font-family="Helvetica,sans-Serif" font-size="10.00">m_Do/m_Do_dvd_thread</text>
<text text-anchor="middle" x="1227.5" y="-287.5" font-family="Helvetica,sans-Serif" font-size="10.00">/asm/func_800159B4.s</text>
</a>
</g>
</g>
<!-- Node1&#45;&gt;Node18 -->
<g id="edge22" class="edge">
<title>Node1&#45;&gt;Node18</title>
<path fill="none" stroke="midnightblue" d="M2142.44,-356.2C1984.16,-355.72 1617.1,-350.18 1300.06,-311.06"/>
<polygon fill="midnightblue" stroke="midnightblue" points="1300.11,-307.54 1289.75,-309.77 1299.24,-314.48 1300.11,-307.54"/>
</g>
<!-- Node19 -->
<g id="node19" class="node">
<title>Node19</title>
<g id="a_node19"><a xlink:title=" ">
<polygon fill="white" stroke="#bfbfbf" points="1307.5,-280.5 1307.5,-310.5 1431.5,-310.5 1431.5,-280.5 1307.5,-280.5"/>
<text text-anchor="start" x="1315.5" y="-298.5" font-family="Helvetica,sans-Serif" font-size="10.00">m_Do/m_Do_dvd_thread</text>
<text text-anchor="middle" x="1369.5" y="-287.5" font-family="Helvetica,sans-Serif" font-size="10.00">/asm/func_800159DC.s</text>
</a>
</g>
</g>
<!-- Node1&#45;&gt;Node19 -->
<g id="edge23" class="edge">
<title>Node1&#45;&gt;Node19</title>
<path fill="none" stroke="midnightblue" d="M2142.44,-355.2C2002.83,-352.95 1703.44,-344.46 1441.83,-311.04"/>
<polygon fill="midnightblue" stroke="midnightblue" points="1442.12,-307.55 1431.75,-309.74 1441.22,-314.49 1442.12,-307.55"/>
</g>
<!-- Node20 -->
<g id="node20" class="node">
<title>Node20</title>
<g id="a_node20"><a xlink:title=" ">
<polygon fill="white" stroke="#bfbfbf" points="1449.5,-280.5 1449.5,-310.5 1573.5,-310.5 1573.5,-280.5 1449.5,-280.5"/>
<text text-anchor="start" x="1457.5" y="-298.5" font-family="Helvetica,sans-Serif" font-size="10.00">m_Do/m_Do_dvd_thread</text>
<text text-anchor="middle" x="1511.5" y="-287.5" font-family="Helvetica,sans-Serif" font-size="10.00">/asm/func_800159E4.s</text>
</a>
</g>
</g>
<!-- Node1&#45;&gt;Node20 -->
<g id="edge24" class="edge">
<title>Node1&#45;&gt;Node20</title>
<path fill="none" stroke="midnightblue" d="M2142.46,-353.77C2023.36,-349.66 1790.69,-338.78 1583.9,-311.07"/>
<polygon fill="midnightblue" stroke="midnightblue" points="1584.14,-307.57 1573.76,-309.7 1583.2,-314.51 1584.14,-307.57"/>
</g>
<!-- Node21 -->
<g id="node21" class="node">
<title>Node21</title>
<g id="a_node21"><a xlink:title=" ">
<polygon fill="white" stroke="#bfbfbf" points="1591.5,-280.5 1591.5,-310.5 1715.5,-310.5 1715.5,-280.5 1591.5,-280.5"/>
<text text-anchor="start" x="1599.5" y="-298.5" font-family="Helvetica,sans-Serif" font-size="10.00">m_Do/m_Do_dvd_thread</text>
<text text-anchor="middle" x="1653.5" y="-287.5" font-family="Helvetica,sans-Serif" font-size="10.00">/asm/func_80015A3C.s</text>
</a>
</g>
</g>
<!-- Node1&#45;&gt;Node21 -->
<g id="edge25" class="edge">
<title>Node1&#45;&gt;Node21</title>
<path fill="none" stroke="midnightblue" d="M2142.42,-351.56C2046.21,-345.55 1878.68,-333.12 1725.82,-311.09"/>
<polygon fill="midnightblue" stroke="midnightblue" points="1726.17,-307.6 1715.77,-309.62 1725.16,-314.53 1726.17,-307.6"/>
</g>
<!-- Node22 -->
<g id="node22" class="node">
<title>Node22</title>
<g id="a_node22"><a xlink:title=" ">
<polygon fill="white" stroke="#bfbfbf" points="1733.5,-280.5 1733.5,-310.5 1857.5,-310.5 1857.5,-280.5 1733.5,-280.5"/>
<text text-anchor="start" x="1741.5" y="-298.5" font-family="Helvetica,sans-Serif" font-size="10.00">m_Do/m_Do_dvd_thread</text>
<text text-anchor="middle" x="1795.5" y="-287.5" font-family="Helvetica,sans-Serif" font-size="10.00">/asm/func_80015A90.s</text>
</a>
</g>
</g>
<!-- Node1&#45;&gt;Node22 -->
<g id="edge26" class="edge">
<title>Node1&#45;&gt;Node22</title>
<path fill="none" stroke="midnightblue" d="M2142.29,-347.69C2072.51,-339.97 1967.9,-327.44 1867.77,-311.14"/>
<polygon fill="midnightblue" stroke="midnightblue" points="1868.22,-307.67 1857.79,-309.5 1867.09,-314.57 1868.22,-307.67"/>
</g>
<!-- Node23 -->
<g id="node23" class="node">
<title>Node23</title>
<g id="a_node23"><a xlink:title=" ">
<polygon fill="white" stroke="#bfbfbf" points="1875.5,-280.5 1875.5,-310.5 1999.5,-310.5 1999.5,-280.5 1875.5,-280.5"/>
<text text-anchor="start" x="1883.5" y="-298.5" font-family="Helvetica,sans-Serif" font-size="10.00">m_Do/m_Do_dvd_thread</text>
<text text-anchor="middle" x="1937.5" y="-287.5" font-family="Helvetica,sans-Serif" font-size="10.00">/asm/func_80015AD8.s</text>
</a>
</g>
</g>
<!-- Node1&#45;&gt;Node23 -->
<g id="edge27" class="edge">
<title>Node1&#45;&gt;Node23</title>
<path fill="none" stroke="midnightblue" d="M2180.81,-347.48C2136.19,-338.13 2063.74,-322.95 2009.47,-311.58"/>
<polygon fill="midnightblue" stroke="midnightblue" points="2010.07,-308.13 1999.56,-309.5 2008.63,-314.98 2010.07,-308.13"/>
</g>
<!-- Node24 -->
<g id="node24" class="node">
<title>Node24</title>
<g id="a_node24"><a xlink:title=" ">
<polygon fill="white" stroke="#bfbfbf" points="2017.5,-280.5 2017.5,-310.5 2141.5,-310.5 2141.5,-280.5 2017.5,-280.5"/>
<text text-anchor="start" x="2025.5" y="-298.5" font-family="Helvetica,sans-Serif" font-size="10.00">m_Do/m_Do_dvd_thread</text>
<text text-anchor="middle" x="2079.5" y="-287.5" font-family="Helvetica,sans-Serif" font-size="10.00">/asm/func_80015B74.s</text>
</a>
</g>
</g>
<!-- Node1&#45;&gt;Node24 -->
<g id="edge28" class="edge">
<title>Node1&#45;&gt;Node24</title>
<path fill="none" stroke="midnightblue" d="M2201.15,-347.48C2180.66,-338.89 2148.43,-325.38 2122.29,-314.43"/>
<polygon fill="midnightblue" stroke="midnightblue" points="2123.54,-311.16 2112.97,-310.52 2120.84,-317.62 2123.54,-311.16"/>
</g>
<!-- Node25 -->
<g id="node25" class="node">
<title>Node25</title>
<g id="a_node25"><a xlink:title=" ">
<polygon fill="white" stroke="#bfbfbf" points="2159.5,-280.5 2159.5,-310.5 2283.5,-310.5 2283.5,-280.5 2159.5,-280.5"/>
<text text-anchor="start" x="2167.5" y="-298.5" font-family="Helvetica,sans-Serif" font-size="10.00">m_Do/m_Do_dvd_thread</text>
<text text-anchor="middle" x="2221.5" y="-287.5" font-family="Helvetica,sans-Serif" font-size="10.00">/asm/func_80015BB8.s</text>
</a>
</g>
</g>
<!-- Node1&#45;&gt;Node25 -->
<g id="edge29" class="edge">
<title>Node1&#45;&gt;Node25</title>
<path fill="none" stroke="midnightblue" d="M2221.5,-347.48C2221.5,-340.47 2221.5,-330.19 2221.5,-320.7"/>
<polygon fill="midnightblue" stroke="midnightblue" points="2225,-320.52 2221.5,-310.52 2218,-320.52 2225,-320.52"/>
</g>
<!-- Node26 -->
<g id="node26" class="node">
<title>Node26</title>
<g id="a_node26"><a xlink:title=" ">
<polygon fill="white" stroke="#bfbfbf" points="2301.5,-280.5 2301.5,-310.5 2425.5,-310.5 2425.5,-280.5 2301.5,-280.5"/>
<text text-anchor="start" x="2309.5" y="-298.5" font-family="Helvetica,sans-Serif" font-size="10.00">m_Do/m_Do_dvd_thread</text>
<text text-anchor="middle" x="2363.5" y="-287.5" font-family="Helvetica,sans-Serif" font-size="10.00">/asm/func_80015C18.s</text>
</a>
</g>
</g>
<!-- Node1&#45;&gt;Node26 -->
<g id="edge30" class="edge">
<title>Node1&#45;&gt;Node26</title>
<path fill="none" stroke="midnightblue" d="M2241.85,-347.48C2262.34,-338.89 2294.57,-325.38 2320.71,-314.43"/>
<polygon fill="midnightblue" stroke="midnightblue" points="2322.16,-317.62 2330.03,-310.52 2319.46,-311.16 2322.16,-317.62"/>
</g>
<!-- Node27 -->
<g id="node27" class="node">
<title>Node27</title>
<g id="a_node27"><a xlink:title=" ">
<polygon fill="white" stroke="#bfbfbf" points="2443.5,-280.5 2443.5,-310.5 2567.5,-310.5 2567.5,-280.5 2443.5,-280.5"/>
<text text-anchor="start" x="2451.5" y="-298.5" font-family="Helvetica,sans-Serif" font-size="10.00">m_Do/m_Do_dvd_thread</text>
<text text-anchor="middle" x="2505.5" y="-287.5" font-family="Helvetica,sans-Serif" font-size="10.00">/asm/func_80015C74.s</text>
</a>
</g>
</g>
<!-- Node1&#45;&gt;Node27 -->
<g id="edge31" class="edge">
<title>Node1&#45;&gt;Node27</title>
<path fill="none" stroke="midnightblue" d="M2262.19,-347.48C2306.81,-338.13 2379.26,-322.95 2433.53,-311.58"/>
<polygon fill="midnightblue" stroke="midnightblue" points="2434.37,-314.98 2443.44,-309.5 2432.93,-308.13 2434.37,-314.98"/>
</g>
<!-- Node28 -->
<g id="node28" class="node">
<title>Node28</title>
<g id="a_node28"><a xlink:title=" ">
<polygon fill="white" stroke="#bfbfbf" points="2585.5,-280.5 2585.5,-310.5 2709.5,-310.5 2709.5,-280.5 2585.5,-280.5"/>
<text text-anchor="start" x="2593.5" y="-298.5" font-family="Helvetica,sans-Serif" font-size="10.00">m_Do/m_Do_dvd_thread</text>
<text text-anchor="middle" x="2647.5" y="-287.5" font-family="Helvetica,sans-Serif" font-size="10.00">/asm/func_80015CF0.s</text>
</a>
</g>
</g>
<!-- Node1&#45;&gt;Node28 -->
<g id="edge32" class="edge">
<title>Node1&#45;&gt;Node28</title>
<path fill="none" stroke="midnightblue" d="M2300.71,-347.69C2370.49,-339.97 2475.1,-327.44 2575.23,-311.14"/>
<polygon fill="midnightblue" stroke="midnightblue" points="2575.91,-314.57 2585.21,-309.5 2574.78,-307.67 2575.91,-314.57"/>
</g>
<!-- Node29 -->
<g id="node29" class="node">
<title>Node29</title>
<g id="a_node29"><a xlink:title=" ">
<polygon fill="white" stroke="#bfbfbf" points="2727.5,-280.5 2727.5,-310.5 2851.5,-310.5 2851.5,-280.5 2727.5,-280.5"/>
<text text-anchor="start" x="2735.5" y="-298.5" font-family="Helvetica,sans-Serif" font-size="10.00">m_Do/m_Do_dvd_thread</text>
<text text-anchor="middle" x="2789.5" y="-287.5" font-family="Helvetica,sans-Serif" font-size="10.00">/asm/func_80015D44.s</text>
</a>
</g>
</g>
<!-- Node1&#45;&gt;Node29 -->
<g id="edge33" class="edge">
<title>Node1&#45;&gt;Node29</title>
<path fill="none" stroke="midnightblue" d="M2300.58,-351.56C2396.79,-345.55 2564.32,-333.12 2717.18,-311.09"/>
<polygon fill="midnightblue" stroke="midnightblue" points="2717.84,-314.53 2727.23,-309.62 2716.83,-307.6 2717.84,-314.53"/>
</g>
<!-- Node30 -->
<g id="node30" class="node">
<title>Node30</title>
<g id="a_node30"><a xlink:title=" ">
<polygon fill="white" stroke="#bfbfbf" points="2869.5,-280.5 2869.5,-310.5 2993.5,-310.5 2993.5,-280.5 2869.5,-280.5"/>
<text text-anchor="start" x="2877.5" y="-298.5" font-family="Helvetica,sans-Serif" font-size="10.00">m_Do/m_Do_dvd_thread</text>
<text text-anchor="middle" x="2931.5" y="-287.5" font-family="Helvetica,sans-Serif" font-size="10.00">/asm/func_80015DA4.s</text>
</a>
</g>
</g>
<!-- Node1&#45;&gt;Node30 -->
<g id="edge34" class="edge">
<title>Node1&#45;&gt;Node30</title>
<path fill="none" stroke="midnightblue" d="M2300.54,-353.77C2419.64,-349.66 2652.31,-338.78 2859.1,-311.07"/>
<polygon fill="midnightblue" stroke="midnightblue" points="2859.8,-314.51 2869.24,-309.7 2858.86,-307.57 2859.8,-314.51"/>
</g>
<!-- Node31 -->
<g id="node31" class="node">
<title>Node31</title>
<g id="a_node31"><a xlink:title=" ">
<polygon fill="white" stroke="#bfbfbf" points="3011.5,-280.5 3011.5,-310.5 3135.5,-310.5 3135.5,-280.5 3011.5,-280.5"/>
<text text-anchor="start" x="3019.5" y="-298.5" font-family="Helvetica,sans-Serif" font-size="10.00">m_Do/m_Do_dvd_thread</text>
<text text-anchor="middle" x="3073.5" y="-287.5" font-family="Helvetica,sans-Serif" font-size="10.00">/asm/func_80015E14.s</text>
</a>
</g>
</g>
<!-- Node1&#45;&gt;Node31 -->
<g id="edge35" class="edge">
<title>Node1&#45;&gt;Node31</title>
<path fill="none" stroke="midnightblue" d="M2300.56,-355.2C2440.17,-352.95 2739.56,-344.46 3001.17,-311.04"/>
<polygon fill="midnightblue" stroke="midnightblue" points="3001.78,-314.49 3011.25,-309.74 3000.88,-307.55 3001.78,-314.49"/>
</g>
<!-- Node32 -->
<g id="node32" class="node">
<title>Node32</title>
<g id="a_node32"><a xlink:title=" ">
<polygon fill="white" stroke="#bfbfbf" points="3153.5,-280.5 3153.5,-310.5 3277.5,-310.5 3277.5,-280.5 3153.5,-280.5"/>
<text text-anchor="start" x="3161.5" y="-298.5" font-family="Helvetica,sans-Serif" font-size="10.00">m_Do/m_Do_dvd_thread</text>
<text text-anchor="middle" x="3215.5" y="-287.5" font-family="Helvetica,sans-Serif" font-size="10.00">/asm/func_80015EDC.s</text>
</a>
</g>
</g>
<!-- Node1&#45;&gt;Node32 -->
<g id="edge36" class="edge">
<title>Node1&#45;&gt;Node32</title>
<path fill="none" stroke="midnightblue" d="M2300.56,-356.2C2458.84,-355.72 2825.9,-350.18 3142.94,-311.06"/>
<polygon fill="midnightblue" stroke="midnightblue" points="3143.76,-314.48 3153.25,-309.77 3142.89,-307.54 3143.76,-314.48"/>
</g>
<!-- Node33 -->
<g id="node33" class="node">
<title>Node33</title>
<g id="a_node33"><a xlink:title=" ">
<polygon fill="white" stroke="#bfbfbf" points="3295.5,-280.5 3295.5,-310.5 3419.5,-310.5 3419.5,-280.5 3295.5,-280.5"/>
<text text-anchor="start" x="3303.5" y="-298.5" font-family="Helvetica,sans-Serif" font-size="10.00">m_Do/m_Do_dvd_thread</text>
<text text-anchor="middle" x="3357.5" y="-287.5" font-family="Helvetica,sans-Serif" font-size="10.00">/asm/func_80016108.s</text>
</a>
</g>
</g>
<!-- Node1&#45;&gt;Node33 -->
<g id="edge37" class="edge">
<title>Node1&#45;&gt;Node33</title>
<path fill="none" stroke="midnightblue" d="M2300.79,-354.29C2510.46,-349.5 3077.15,-334.83 3285.32,-310.98"/>
<polygon fill="midnightblue" stroke="midnightblue" points="3285.74,-314.45 3295.25,-309.8 3284.91,-307.5 3285.74,-314.45"/>
</g>
<!-- Node34 -->
<g id="node34" class="node">
<title>Node34</title>
<g id="a_node34"><a xlink:title=" ">
<polygon fill="white" stroke="#bfbfbf" points="3437.5,-280.5 3437.5,-310.5 3561.5,-310.5 3561.5,-280.5 3437.5,-280.5"/>
<text text-anchor="start" x="3445.5" y="-298.5" font-family="Helvetica,sans-Serif" font-size="10.00">m_Do/m_Do_dvd_thread</text>
<text text-anchor="middle" x="3499.5" y="-287.5" font-family="Helvetica,sans-Serif" font-size="10.00">/asm/func_80016168.s</text>
</a>
</g>
</g>
<!-- Node1&#45;&gt;Node34 -->
<g id="edge38" class="edge">
<title>Node1&#45;&gt;Node34</title>
<path fill="none" stroke="midnightblue" d="M2300.74,-354.75C2529.64,-350.86 3190.05,-337.69 3427.3,-310.97"/>
<polygon fill="midnightblue" stroke="midnightblue" points="3427.73,-314.45 3437.26,-309.81 3426.92,-307.49 3427.73,-314.45"/>
</g>
<!-- Node35 -->
<g id="node35" class="node">
<title>Node35</title>
<g id="a_node35"><a xlink:title=" ">
<polygon fill="white" stroke="#bfbfbf" points="3579.5,-280.5 3579.5,-310.5 3703.5,-310.5 3703.5,-280.5 3579.5,-280.5"/>
<text text-anchor="start" x="3587.5" y="-298.5" font-family="Helvetica,sans-Serif" font-size="10.00">m_Do/m_Do_dvd_thread</text>
<text text-anchor="middle" x="3641.5" y="-287.5" font-family="Helvetica,sans-Serif" font-size="10.00">/asm/func_800161E0.s</text>
</a>
</g>
</g>
<!-- Node1&#45;&gt;Node35 -->
<g id="edge39" class="edge">
<title>Node1&#45;&gt;Node35</title>
<path fill="none" stroke="midnightblue" d="M2300.59,-355.11C2547.47,-352.05 3302.71,-340.58 3569.22,-310.98"/>
<polygon fill="midnightblue" stroke="midnightblue" points="3569.72,-314.44 3579.26,-309.83 3568.92,-307.49 3569.72,-314.44"/>
</g>
<!-- Node36 -->
<g id="node36" class="node">
<title>Node36</title>
<g id="a_node36"><a xlink:title=" ">
<polygon fill="white" stroke="#bfbfbf" points="3721.5,-280.5 3721.5,-310.5 3845.5,-310.5 3845.5,-280.5 3721.5,-280.5"/>
<text text-anchor="start" x="3729.5" y="-298.5" font-family="Helvetica,sans-Serif" font-size="10.00">m_Do/m_Do_dvd_thread</text>
<text text-anchor="middle" x="3783.5" y="-287.5" font-family="Helvetica,sans-Serif" font-size="10.00">/asm/func_800162B0.s</text>
</a>
</g>
</g>
<!-- Node1&#45;&gt;Node36 -->
<g id="edge40" class="edge">
<title>Node1&#45;&gt;Node36</title>
<path fill="none" stroke="midnightblue" d="M2300.83,-355.4C2565.11,-353.12 3415.09,-343.47 3710.97,-311"/>
<polygon fill="midnightblue" stroke="midnightblue" points="3711.72,-314.44 3721.26,-309.84 3710.93,-307.49 3711.72,-314.44"/>
</g>
<!-- Node37 -->
<g id="node37" class="node">
<title>Node37</title>
<g id="a_node37"><a xlink:title=" ">
<polygon fill="white" stroke="#bfbfbf" points="3863.5,-280.5 3863.5,-310.5 3987.5,-310.5 3987.5,-280.5 3863.5,-280.5"/>
<text text-anchor="start" x="3871.5" y="-298.5" font-family="Helvetica,sans-Serif" font-size="10.00">m_Do/m_Do_dvd_thread</text>
<text text-anchor="middle" x="3925.5" y="-287.5" font-family="Helvetica,sans-Serif" font-size="10.00">/asm/func_80016338.s</text>
</a>
</g>
</g>
<!-- Node1&#45;&gt;Node37 -->
<g id="edge41" class="edge">
<title>Node1&#45;&gt;Node37</title>
<path fill="none" stroke="midnightblue" d="M2300.89,-355.64C2581.64,-354.09 3527.64,-346.39 3852.89,-311.01"/>
<polygon fill="midnightblue" stroke="midnightblue" points="3853.71,-314.44 3863.26,-309.85 3852.93,-307.48 3853.71,-314.44"/>
</g>
<!-- Node38 -->
<g id="node38" class="node">
<title>Node38</title>
<g id="a_node38"><a xlink:title=" ">
<polygon fill="white" stroke="#bfbfbf" points="4005.5,-280.5 4005.5,-310.5 4129.5,-310.5 4129.5,-280.5 4005.5,-280.5"/>
<text text-anchor="start" x="4013.5" y="-298.5" font-family="Helvetica,sans-Serif" font-size="10.00">m_Do/m_Do_dvd_thread</text>
<text text-anchor="middle" x="4067.5" y="-287.5" font-family="Helvetica,sans-Serif" font-size="10.00">/asm/func_80016394.s</text>
</a>
</g>
</g>
<!-- Node1&#45;&gt;Node38 -->
<g id="edge42" class="edge">
<title>Node1&#45;&gt;Node38</title>
<path fill="none" stroke="midnightblue" d="M2300.74,-355.85C2597.11,-354.98 3640.89,-349.32 3995.23,-310.97"/>
<polygon fill="midnightblue" stroke="midnightblue" points="3995.71,-314.44 4005.26,-309.86 3994.94,-307.48 3995.71,-314.44"/>
</g>
<!-- Node39 -->
<g id="node39" class="node">
<title>Node39</title>
<g id="a_node39"><a xlink:title=" ">
<polygon fill="white" stroke="#bfbfbf" points="4147.5,-280.5 4147.5,-310.5 4271.5,-310.5 4271.5,-280.5 4147.5,-280.5"/>
<text text-anchor="start" x="4155.5" y="-298.5" font-family="Helvetica,sans-Serif" font-size="10.00">m_Do/m_Do_dvd_thread</text>
<text text-anchor="middle" x="4209.5" y="-287.5" font-family="Helvetica,sans-Serif" font-size="10.00">/asm/func_8001645C.s</text>
</a>
</g>
</g>
<!-- Node1&#45;&gt;Node39 -->
<g id="edge43" class="edge">
<title>Node1&#45;&gt;Node39</title>
<path fill="none" stroke="midnightblue" d="M2300.56,-356.02C2611.74,-355.81 3753.38,-352.26 4137.23,-310.97"/>
<polygon fill="midnightblue" stroke="midnightblue" points="4137.71,-314.44 4147.26,-309.86 4136.94,-307.48 4137.71,-314.44"/>
</g>
<!-- Node40 -->
<g id="node40" class="node">
<title>Node40</title>
<g id="a_node40"><a xlink:title=" ">
<polygon fill="white" stroke="#bfbfbf" points="4289.5,-280.5 4289.5,-310.5 4413.5,-310.5 4413.5,-280.5 4289.5,-280.5"/>
<text text-anchor="start" x="4297.5" y="-298.5" font-family="Helvetica,sans-Serif" font-size="10.00">m_Do/m_Do_dvd_thread</text>
<text text-anchor="middle" x="4351.5" y="-287.5" font-family="Helvetica,sans-Serif" font-size="10.00">/asm/func_800164BC.s</text>
</a>
</g>
</g>
<!-- Node1&#45;&gt;Node40 -->
<g id="edge44" class="edge">
<title>Node1&#45;&gt;Node40</title>
<path fill="none" stroke="midnightblue" d="M2300.77,-356.17C2626.73,-356.58 3865.62,-355.21 4279.06,-310.99"/>
<polygon fill="midnightblue" stroke="midnightblue" points="4279.7,-314.44 4289.26,-309.87 4278.94,-307.48 4279.7,-314.44"/>
</g>
<!-- Node41 -->
<g id="node41" class="node">
<title>Node41</title>
<g id="a_node41"><a xlink:title=" ">
<polygon fill="white" stroke="#bfbfbf" points="4431.5,-280.5 4431.5,-310.5 4555.5,-310.5 4555.5,-280.5 4431.5,-280.5"/>
<text text-anchor="start" x="4439.5" y="-298.5" font-family="Helvetica,sans-Serif" font-size="10.00">m_Do/m_Do_dvd_thread</text>
<text text-anchor="middle" x="4493.5" y="-287.5" font-family="Helvetica,sans-Serif" font-size="10.00">/asm/func_80016574.s</text>
</a>
</g>
</g>
<!-- Node1&#45;&gt;Node41 -->
<g id="edge45" class="edge">
<title>Node1&#45;&gt;Node41</title>
<path fill="none" stroke="midnightblue" d="M2300.68,-356.3C2640.59,-357.3 3978.51,-358.17 4421.29,-310.96"/>
<polygon fill="midnightblue" stroke="midnightblue" points="4421.7,-314.44 4431.26,-309.87 4420.94,-307.48 4421.7,-314.44"/>
</g>
<!-- Node3 -->
<g id="node3" class="node">
<title>Node3</title>
<g id="a_node3"><a xlink:href="c__node_8h.html" target="_top" xlink:title=" ">
<polygon fill="white" stroke="black" points="0,-224.5 0,-243.5 115,-243.5 115,-224.5 0,-224.5"/>
<text text-anchor="middle" x="57.5" y="-231.5" font-family="Helvetica,sans-Serif" font-size="10.00">SComponent/c_node.h</text>
</a>
</g>
</g>
<!-- Node2&#45;&gt;Node3 -->
<g id="edge2" class="edge">
<title>Node2&#45;&gt;Node3</title>
<path fill="none" stroke="midnightblue" d="M59.21,-285.98C58.93,-277.58 58.49,-264.48 58.13,-253.66"/>
<polygon fill="midnightblue" stroke="midnightblue" points="61.62,-253.39 57.79,-243.51 54.62,-253.62 61.62,-253.39"/>
</g>
<!-- Node3&#45;&gt;Node4 -->
<g id="edge3" class="edge">
<title>Node3&#45;&gt;Node4</title>
<path fill="none" stroke="midnightblue" d="M64.6,-224.08C70.74,-216.38 79.77,-205.03 87.24,-195.65"/>
<polygon fill="midnightblue" stroke="midnightblue" points="90.04,-197.75 93.53,-187.75 84.56,-193.39 90.04,-197.75"/>
</g>
<!-- Node5 -->
<g id="node5" class="node">
<title>Node5</title>
<g id="a_node5"><a xlink:href="types_8h.html" target="_top" xlink:title=" ">
<polygon fill="white" stroke="black" points="93,-0.5 93,-19.5 174,-19.5 174,-0.5 93,-0.5"/>
<text text-anchor="middle" x="133.5" y="-7.5" font-family="Helvetica,sans-Serif" font-size="10.00">dolphin/types.h</text>
</a>
</g>
</g>
<!-- Node4&#45;&gt;Node5 -->
<g id="edge4" class="edge">
<title>Node4&#45;&gt;Node5</title>
<path fill="none" stroke="midnightblue" d="M88.35,-168.31C61.72,-148.17 2.62,-96.92 29.5,-56 41.57,-37.63 62.91,-26.72 83.13,-20.26"/>
<polygon fill="midnightblue" stroke="midnightblue" points="84.29,-23.57 92.92,-17.44 82.35,-16.85 84.29,-23.57"/>
</g>
<!-- Node6 -->
<g id="node6" class="node">
<title>Node6</title>
<g id="a_node6"><a xlink:href="AR_8h.html" target="_top" xlink:title=" ">
<polygon fill="white" stroke="black" points="38,-56.5 38,-75.5 87,-75.5 87,-56.5 38,-56.5"/>
<text text-anchor="middle" x="62.5" y="-63.5" font-family="Helvetica,sans-Serif" font-size="10.00">ar/AR.h</text>
</a>
</g>
</g>
<!-- Node4&#45;&gt;Node6 -->
<g id="edge5" class="edge">
<title>Node4&#45;&gt;Node6</title>
<path fill="none" stroke="midnightblue" d="M97.52,-168.37C91.36,-150.54 77.11,-109.3 68.81,-85.27"/>
<polygon fill="midnightblue" stroke="midnightblue" points="72.04,-83.9 65.47,-75.59 65.43,-86.19 72.04,-83.9"/>
</g>
<!-- Node7 -->
<g id="node7" class="node">
<title>Node7</title>
<g id="a_node7"><a xlink:href="ARQ_8h.html" target="_top" xlink:title=" ">
<polygon fill="white" stroke="black" points="105.5,-56.5 105.5,-75.5 161.5,-75.5 161.5,-56.5 105.5,-56.5"/>
<text text-anchor="middle" x="133.5" y="-63.5" font-family="Helvetica,sans-Serif" font-size="10.00">ar/ARQ.h</text>
</a>
</g>
</g>
<!-- Node4&#45;&gt;Node7 -->
<g id="edge7" class="edge">
<title>Node4&#45;&gt;Node7</title>
<path fill="none" stroke="midnightblue" d="M103.03,-168.15C106.63,-155.63 113.46,-132.04 119.5,-112 122.16,-103.18 125.19,-93.41 127.75,-85.23"/>
<polygon fill="midnightblue" stroke="midnightblue" points="131.11,-86.2 130.77,-75.61 124.44,-84.1 131.11,-86.2"/>
</g>
<!-- Node8 -->
<g id="node8" class="node">
<title>Node8</title>
<g id="a_node8"><a xlink:href="mwcc_8h.html" target="_top" xlink:title=" ">
<polygon fill="white" stroke="black" points="128.5,-112.5 128.5,-131.5 178.5,-131.5 178.5,-112.5 128.5,-112.5"/>
<text text-anchor="middle" x="153.5" y="-119.5" font-family="Helvetica,sans-Serif" font-size="10.00">mwcc.h</text>
</a>
</g>
</g>
<!-- Node4&#45;&gt;Node8 -->
<g id="edge9" class="edge">
<title>Node4&#45;&gt;Node8</title>
<path fill="none" stroke="midnightblue" d="M109.25,-168.08C116.97,-160.22 128.4,-148.57 137.72,-139.08"/>
<polygon fill="midnightblue" stroke="midnightblue" points="140.4,-141.34 144.91,-131.75 135.41,-136.44 140.4,-141.34"/>
</g>
<!-- Node9 -->
<g id="node9" class="node">
<title>Node9</title>
<g id="a_node9"><a xlink:href="OS_8h.html" target="_top" xlink:title=" ">
<polygon fill="white" stroke="black" points="196.5,-112.5 196.5,-131.5 248.5,-131.5 248.5,-112.5 196.5,-112.5"/>
<text text-anchor="middle" x="222.5" y="-119.5" font-family="Helvetica,sans-Serif" font-size="10.00">os/OS.h</text>
</a>
</g>
</g>
<!-- Node4&#45;&gt;Node9 -->
<g id="edge10" class="edge">
<title>Node4&#45;&gt;Node9</title>
<path fill="none" stroke="midnightblue" d="M119.83,-168.44C139.82,-159.6 171.24,-145.69 194.06,-135.59"/>
<polygon fill="midnightblue" stroke="midnightblue" points="195.53,-138.76 203.26,-131.52 192.7,-132.36 195.53,-138.76"/>
</g>
<!-- Node6&#45;&gt;Node5 -->
<g id="edge6" class="edge">
<title>Node6&#45;&gt;Node5</title>
<path fill="none" stroke="midnightblue" d="M73.91,-56.32C84.61,-48.18 100.84,-35.84 113.66,-26.09"/>
<polygon fill="midnightblue" stroke="midnightblue" points="116.04,-28.67 121.89,-19.83 111.81,-23.1 116.04,-28.67"/>
</g>
<!-- Node7&#45;&gt;Node5 -->
<g id="edge8" class="edge">
<title>Node7&#45;&gt;Node5</title>
<path fill="none" stroke="midnightblue" d="M133.5,-56.08C133.5,-49.01 133.5,-38.86 133.5,-29.99"/>
<polygon fill="midnightblue" stroke="midnightblue" points="137,-29.75 133.5,-19.75 130,-29.75 137,-29.75"/>
</g>
<!-- Node9&#45;&gt;Node5 -->
<g id="edge11" class="edge">
<title>Node9&#45;&gt;Node5</title>
<path fill="none" stroke="midnightblue" d="M215.47,-112.14C205.51,-99.6 186.7,-75.98 170.5,-56 162.76,-46.46 154.03,-35.83 147,-27.31"/>
<polygon fill="midnightblue" stroke="midnightblue" points="149.7,-25.08 140.63,-19.6 144.3,-29.54 149.7,-25.08"/>
</g>
<!-- Node10 -->
<g id="node10" class="node">
<title>Node10</title>
<g id="a_node10"><a xlink:href="dvd_8h.html" target="_top" xlink:title=" ">
<polygon fill="white" stroke="black" points="218,-56.5 218,-75.5 277,-75.5 277,-56.5 218,-56.5"/>
<text text-anchor="middle" x="247.5" y="-63.5" font-family="Helvetica,sans-Serif" font-size="10.00">dvd/dvd.h</text>
</a>
</g>
</g>
<!-- Node9&#45;&gt;Node10 -->
<g id="edge12" class="edge">
<title>Node9&#45;&gt;Node10</title>
<path fill="none" stroke="midnightblue" d="M226.63,-112.08C230.01,-104.77 234.92,-94.18 239.12,-85.1"/>
<polygon fill="midnightblue" stroke="midnightblue" points="242.42,-86.3 243.45,-75.75 236.07,-83.36 242.42,-86.3"/>
</g>
<!-- Node10&#45;&gt;Node5 -->
<g id="edge13" class="edge">
<title>Node10&#45;&gt;Node5</title>
<path fill="none" stroke="midnightblue" d="M229.44,-56.44C210.93,-47.68 181.92,-33.94 160.64,-23.86"/>
<polygon fill="midnightblue" stroke="midnightblue" points="162.01,-20.63 151.48,-19.52 159.02,-26.96 162.01,-20.63"/>
</g>
</g>
</svg>
