<?xml version="1.0" encoding="UTF-8" standalone="no"?>
<!DOCTYPE svg PUBLIC "-//W3C//DTD SVG 1.1//EN"
 "http://www.w3.org/Graphics/SVG/1.1/DTD/svg11.dtd">
<!-- Generated by graphviz version 2.44.0 ()
 -->
<!-- Title: include/m_Do/m_Do_Reset/m_Do_Reset.h Pages: 1 -->
<!--zoomable 419 -->
<svg id="main" version="1.1" xmlns="http://www.w3.org/2000/svg" xmlns:xlink="http://www.w3.org/1999/xlink" xml:space="preserve" onload="init(evt)">
<style type="text/css"><![CDATA[
.edge:hover path { stroke: red; }
.edge:hover polygon { stroke: red; fill: red; }
]]></style>
<script type="text/javascript"><![CDATA[
var edges = document.getElementsByTagName('g');
if (edges && edges.length) {
  for (var i=0;i<edges.length;i++) {
    if (edges[i].id.substr(0,4)=='edge') {
      edges[i].setAttribute('class','edge');
    }
  }
}
]]></script>
        <defs>
                <circle id="rim" cx="0" cy="0" r="7"/>
                <circle id="rim2" cx="0" cy="0" r="3.5"/>
                <g id="zoomPlus">
                        <use xlink:href="#rim" fill="#404040">
                                <set attributeName="fill" to="#808080" begin="zoomplus.mouseover" end="zoomplus.mouseout"/>
                        </use>
                        <path d="M-4,0h8M0,-4v8" fill="none" stroke="white" stroke-width="1.5" pointer-events="none"/>
                </g>
                <g id="zoomMin">
                        <use xlink:href="#rim" fill="#404040">
                                <set attributeName="fill" to="#808080" begin="zoomminus.mouseover" end="zoomminus.mouseout"/>
                        </use>
                        <path d="M-4,0h8" fill="none" stroke="white" stroke-width="1.5" pointer-events="none"/>
                </g>
                <g id="dirArrow">
                        <path fill="none" stroke="white" stroke-width="1.5" d="M0,-3.0v7 M-2.5,-0.5L0,-3.0L2.5,-0.5"/>
                </g>
               <g id="resetDef">
                       <use xlink:href="#rim2" fill="#404040">
                               <set attributeName="fill" to="#808080" begin="reset.mouseover" end="reset.mouseout"/>
                       </use>
               </g>
        </defs>

<script type="text/javascript">
var viewWidth = 666;
var viewHeight = 419;
var sectionId = 'dynsection-0';
</script>
<script xlink:href="svgpan.js"/>
<svg id="graph" class="graph">
<g id="viewport">
<title>include/m_Do/m_Do_Reset/m_Do_Reset.h</title>
<polygon fill="white" stroke="transparent" points="-4,4 -4,-415 661.5,-415 661.5,4 -4,4"/>
<!-- Node1 -->
<g id="node1" class="node">
<title>Node1</title>
<g id="a_node1"><a xlink:title=" ">
<polygon fill="#bfbfbf" stroke="black" points="522.5,-380.5 522.5,-410.5 657.5,-410.5 657.5,-380.5 522.5,-380.5"/>
<text text-anchor="start" x="530.5" y="-398.5" font-family="Helvetica,sans-Serif" font-size="10.00">include/m_Do/m_Do_Reset</text>
<text text-anchor="middle" x="590" y="-387.5" font-family="Helvetica,sans-Serif" font-size="10.00">/m_Do_Reset.h</text>
</a>
</g>
</g>
<!-- Node2 -->
<g id="node2" class="node">
<title>Node2</title>
<g id="a_node2"><a xlink:href="JUTXfb_8h.html" target="_top" xlink:title=" ">
<polygon fill="white" stroke="black" points="482.5,-313.5 482.5,-343.5 607.5,-343.5 607.5,-313.5 482.5,-313.5"/>
<text text-anchor="start" x="490.5" y="-331.5" font-family="Helvetica,sans-Serif" font-size="10.00">JSystem/JUtility/JUTXfb</text>
<text text-anchor="middle" x="545" y="-320.5" font-family="Helvetica,sans-Serif" font-size="10.00">/JUTXfb.h</text>
</a>
</g>
</g>
<!-- Node1&#45;&gt;Node2 -->
<g id="edge1" class="edge">
<title>Node1&#45;&gt;Node2</title>
<path fill="none" stroke="midnightblue" d="M580.24,-380.4C574.46,-372.05 567.01,-361.29 560.45,-351.81"/>
<polygon fill="midnightblue" stroke="midnightblue" points="563.32,-349.81 554.75,-343.58 557.56,-353.79 563.32,-349.81"/>
</g>
<!-- Node6 -->
<g id="node6" class="node">
<title>Node6</title>
<g id="a_node6"><a xlink:href="types_8h.html" target="_top" xlink:title=" ">
<polygon fill="white" stroke="black" points="323.5,-0.5 323.5,-19.5 404.5,-19.5 404.5,-0.5 323.5,-0.5"/>
<text text-anchor="middle" x="364" y="-7.5" font-family="Helvetica,sans-Serif" font-size="10.00">dolphin/types.h</text>
</a>
</g>
</g>
<!-- Node1&#45;&gt;Node6 -->
<g id="edge22" class="edge">
<title>Node1&#45;&gt;Node6</title>
<path fill="none" stroke="midnightblue" d="M600.16,-380.24C615.8,-356.84 644,-308.31 644,-262.5 644,-262.5 644,-262.5 644,-137.5 644,-38.21 495.96,-16.43 415.17,-11.94"/>
<polygon fill="midnightblue" stroke="midnightblue" points="414.87,-8.42 404.71,-11.43 414.53,-15.41 414.87,-8.42"/>
</g>
<!-- Node3 -->
<g id="node3" class="node">
<title>Node3</title>
<g id="a_node3"><a xlink:href="JKRHeap_8h.html" target="_top" xlink:title=" ">
<polygon fill="white" stroke="black" points="173,-246.5 173,-276.5 309,-276.5 309,-246.5 173,-246.5"/>
<text text-anchor="start" x="181" y="-264.5" font-family="Helvetica,sans-Serif" font-size="10.00">JSystem/JKernel/JKRHeap</text>
<text text-anchor="middle" x="241" y="-253.5" font-family="Helvetica,sans-Serif" font-size="10.00">/JKRHeap.h</text>
</a>
</g>
</g>
<!-- Node2&#45;&gt;Node3 -->
<g id="edge2" class="edge">
<title>Node2&#45;&gt;Node3</title>
<path fill="none" stroke="midnightblue" d="M482.38,-314.11C434.31,-303.83 367.74,-289.6 316.69,-278.68"/>
<polygon fill="midnightblue" stroke="midnightblue" points="317.2,-275.21 306.69,-276.55 315.74,-282.06 317.2,-275.21"/>
</g>
<!-- Node2&#45;&gt;Node6 -->
<g id="edge19" class="edge">
<title>Node2&#45;&gt;Node6</title>
<path fill="none" stroke="midnightblue" d="M543.35,-313.48C540.75,-290.17 536,-241.95 536,-201 536,-201 536,-201 536,-137.5 536,-100.2 541.74,-82.99 516,-56 489.83,-28.57 447.82,-17.63 414.58,-13.38"/>
<polygon fill="midnightblue" stroke="midnightblue" points="414.91,-9.89 404.58,-12.26 414.13,-16.85 414.91,-9.89"/>
</g>
<!-- Node13 -->
<g id="node13" class="node">
<title>Node13</title>
<g id="a_node13"><a xlink:href="GX_8h.html" target="_top" xlink:title=" ">
<polygon fill="white" stroke="black" points="564.5,-190.5 564.5,-209.5 615.5,-209.5 615.5,-190.5 564.5,-190.5"/>
<text text-anchor="middle" x="590" y="-197.5" font-family="Helvetica,sans-Serif" font-size="10.00">gx/GX.h</text>
</a>
</g>
</g>
<!-- Node2&#45;&gt;Node13 -->
<g id="edge20" class="edge">
<title>Node2&#45;&gt;Node13</title>
<path fill="none" stroke="midnightblue" d="M549.99,-313.48C558.16,-290.51 574.39,-244.89 583.47,-219.37"/>
<polygon fill="midnightblue" stroke="midnightblue" points="586.82,-220.38 586.87,-209.79 580.22,-218.04 586.82,-220.38"/>
</g>
<!-- Node4 -->
<g id="node4" class="node">
<title>Node4</title>
<g id="a_node4"><a xlink:href="JKRDisposer_8h.html" target="_top" xlink:title=" ">
<polygon fill="white" stroke="black" points="22.5,-123.5 22.5,-153.5 173.5,-153.5 173.5,-123.5 22.5,-123.5"/>
<text text-anchor="start" x="30.5" y="-141.5" font-family="Helvetica,sans-Serif" font-size="10.00">JSystem/JKernel/JKRDisposer</text>
<text text-anchor="middle" x="98" y="-130.5" font-family="Helvetica,sans-Serif" font-size="10.00">/JKRDisposer.h</text>
</a>
</g>
</g>
<!-- Node3&#45;&gt;Node4 -->
<g id="edge3" class="edge">
<title>Node3&#45;&gt;Node4</title>
<path fill="none" stroke="midnightblue" d="M224.32,-246.38C199.13,-225.07 151.26,-184.57 122.23,-160"/>
<polygon fill="midnightblue" stroke="midnightblue" points="124.47,-157.31 114.58,-153.53 119.95,-162.66 124.47,-157.31"/>
</g>
<!-- Node3&#45;&gt;Node6 -->
<g id="edge7" class="edge">
<title>Node3&#45;&gt;Node6</title>
<path fill="none" stroke="midnightblue" d="M236.51,-246.46C226.05,-210.82 203.97,-115.45 246,-56 261.41,-34.21 288.84,-22.97 313.38,-17.17"/>
<polygon fill="midnightblue" stroke="midnightblue" points="314.26,-20.56 323.32,-15.07 312.82,-13.71 314.26,-20.56"/>
</g>
<!-- Node7 -->
<g id="node7" class="node">
<title>Node7</title>
<g id="a_node7"><a xlink:href="global_8h.html" target="_top" xlink:title=" ">
<polygon fill="white" stroke="black" points="280,-190.5 280,-209.5 330,-209.5 330,-190.5 280,-190.5"/>
<text text-anchor="middle" x="305" y="-197.5" font-family="Helvetica,sans-Serif" font-size="10.00">global.h</text>
</a>
</g>
</g>
<!-- Node3&#45;&gt;Node7 -->
<g id="edge8" class="edge">
<title>Node3&#45;&gt;Node7</title>
<path fill="none" stroke="midnightblue" d="M256.17,-246.4C265.75,-237.49 278.16,-225.95 288.07,-216.74"/>
<polygon fill="midnightblue" stroke="midnightblue" points="290.75,-219.03 295.69,-209.66 285.98,-213.9 290.75,-219.03"/>
</g>
<!-- Node5 -->
<g id="node5" class="node">
<title>Node5</title>
<g id="a_node5"><a xlink:href="JSUList_8h.html" target="_top" xlink:title=" ">
<polygon fill="white" stroke="black" points="0,-56.5 0,-86.5 136,-86.5 136,-56.5 0,-56.5"/>
<text text-anchor="start" x="8" y="-74.5" font-family="Helvetica,sans-Serif" font-size="10.00">JSystem/JSupport/JSUList</text>
<text text-anchor="middle" x="68" y="-63.5" font-family="Helvetica,sans-Serif" font-size="10.00">/JSUList.h</text>
</a>
</g>
</g>
<!-- Node4&#45;&gt;Node5 -->
<g id="edge4" class="edge">
<title>Node4&#45;&gt;Node5</title>
<path fill="none" stroke="midnightblue" d="M91.49,-123.4C87.76,-115.3 82.97,-104.94 78.7,-95.69"/>
<polygon fill="midnightblue" stroke="midnightblue" points="81.87,-94.19 74.5,-86.58 75.51,-97.12 81.87,-94.19"/>
</g>
<!-- Node4&#45;&gt;Node6 -->
<g id="edge6" class="edge">
<title>Node4&#45;&gt;Node6</title>
<path fill="none" stroke="midnightblue" d="M109.57,-123.43C125.38,-105.13 155.51,-73.46 188,-56 227.23,-34.92 276.74,-23.4 313.25,-17.31"/>
<polygon fill="midnightblue" stroke="midnightblue" points="313.85,-20.76 323.18,-15.73 312.75,-13.85 313.85,-20.76"/>
</g>
<!-- Node5&#45;&gt;Node6 -->
<g id="edge5" class="edge">
<title>Node5&#45;&gt;Node6</title>
<path fill="none" stroke="midnightblue" d="M136.28,-56.77C190.32,-45.91 264.56,-30.99 313.38,-21.18"/>
<polygon fill="midnightblue" stroke="midnightblue" points="314.28,-24.56 323.4,-19.16 312.9,-17.7 314.28,-24.56"/>
</g>
<!-- Node7&#45;&gt;Node6 -->
<g id="edge9" class="edge">
<title>Node7&#45;&gt;Node6</title>
<path fill="none" stroke="midnightblue" d="M297.32,-190.24C277.7,-166.75 229.28,-101.07 259,-56 271.3,-37.35 293.11,-26.4 313.68,-19.98"/>
<polygon fill="midnightblue" stroke="midnightblue" points="314.64,-23.35 323.31,-17.26 312.74,-16.61 314.64,-23.35"/>
</g>
<!-- Node8 -->
<g id="node8" class="node">
<title>Node8</title>
<g id="a_node8"><a xlink:href="AR_8h.html" target="_top" xlink:title=" ">
<polygon fill="white" stroke="black" points="268.5,-62 268.5,-81 317.5,-81 317.5,-62 268.5,-62"/>
<text text-anchor="middle" x="293" y="-69" font-family="Helvetica,sans-Serif" font-size="10.00">ar/AR.h</text>
</a>
</g>
</g>
<!-- Node7&#45;&gt;Node8 -->
<g id="edge10" class="edge">
<title>Node7&#45;&gt;Node8</title>
<path fill="none" stroke="midnightblue" d="M304.18,-190.31C302.25,-169.99 297.42,-119.05 294.78,-91.28"/>
<polygon fill="midnightblue" stroke="midnightblue" points="298.26,-90.88 293.83,-81.26 291.29,-91.54 298.26,-90.88"/>
</g>
<!-- Node9 -->
<g id="node9" class="node">
<title>Node9</title>
<g id="a_node9"><a xlink:href="ARQ_8h.html" target="_top" xlink:title=" ">
<polygon fill="white" stroke="black" points="336,-62 336,-81 392,-81 392,-62 336,-62"/>
<text text-anchor="middle" x="364" y="-69" font-family="Helvetica,sans-Serif" font-size="10.00">ar/ARQ.h</text>
</a>
</g>
</g>
<!-- Node7&#45;&gt;Node9 -->
<g id="edge12" class="edge">
<title>Node7&#45;&gt;Node9</title>
<path fill="none" stroke="midnightblue" d="M309.06,-190.31C318.61,-169.81 342.71,-118.15 355.59,-90.54"/>
<polygon fill="midnightblue" stroke="midnightblue" points="358.86,-91.8 359.92,-81.26 352.52,-88.84 358.86,-91.8"/>
</g>
<!-- Node10 -->
<g id="node10" class="node">
<title>Node10</title>
<g id="a_node10"><a xlink:href="mwcc_8h.html" target="_top" xlink:title=" ">
<polygon fill="white" stroke="black" points="352,-129 352,-148 402,-148 402,-129 352,-129"/>
<text text-anchor="middle" x="377" y="-136" font-family="Helvetica,sans-Serif" font-size="10.00">mwcc.h</text>
</a>
</g>
</g>
<!-- Node7&#45;&gt;Node10 -->
<g id="edge14" class="edge">
<title>Node7&#45;&gt;Node10</title>
<path fill="none" stroke="midnightblue" d="M315.32,-190.48C326.65,-181.11 345.07,-165.88 358.84,-154.51"/>
<polygon fill="midnightblue" stroke="midnightblue" points="361.22,-157.08 366.7,-148.01 356.77,-151.68 361.22,-157.08"/>
</g>
<!-- Node11 -->
<g id="node11" class="node">
<title>Node11</title>
<g id="a_node11"><a xlink:href="OS_8h.html" target="_top" xlink:title=" ">
<polygon fill="white" stroke="black" points="420,-129 420,-148 472,-148 472,-129 420,-129"/>
<text text-anchor="middle" x="446" y="-136" font-family="Helvetica,sans-Serif" font-size="10.00">os/OS.h</text>
</a>
</g>
</g>
<!-- Node7&#45;&gt;Node11 -->
<g id="edge15" class="edge">
<title>Node7&#45;&gt;Node11</title>
<path fill="none" stroke="midnightblue" d="M325.2,-190.48C349.07,-180.4 389,-163.55 416.37,-152"/>
<polygon fill="midnightblue" stroke="midnightblue" points="417.98,-155.12 425.84,-148.01 415.26,-148.67 417.98,-155.12"/>
</g>
<!-- Node8&#45;&gt;Node6 -->
<g id="edge11" class="edge">
<title>Node8&#45;&gt;Node6</title>
<path fill="none" stroke="midnightblue" d="M303.17,-61.98C314.35,-52.61 332.52,-37.38 346.09,-26.01"/>
<polygon fill="midnightblue" stroke="midnightblue" points="348.43,-28.61 353.85,-19.51 343.93,-23.25 348.43,-28.61"/>
</g>
<!-- Node9&#45;&gt;Node6 -->
<g id="edge13" class="edge">
<title>Node9&#45;&gt;Node6</title>
<path fill="none" stroke="midnightblue" d="M364,-61.98C364,-53.58 364,-40.48 364,-29.66"/>
<polygon fill="midnightblue" stroke="midnightblue" points="367.5,-29.51 364,-19.51 360.5,-29.51 367.5,-29.51"/>
</g>
<!-- Node11&#45;&gt;Node6 -->
<g id="edge16" class="edge">
<title>Node11&#45;&gt;Node6</title>
<path fill="none" stroke="midnightblue" d="M441.77,-128.63C434.33,-113.31 418.06,-81.14 401,-56 394.25,-46.06 385.81,-35.66 378.69,-27.37"/>
<polygon fill="midnightblue" stroke="midnightblue" points="381.1,-24.8 371.87,-19.59 375.83,-29.42 381.1,-24.8"/>
</g>
<!-- Node12 -->
<g id="node12" class="node">
<title>Node12</title>
<g id="a_node12"><a xlink:href="dvd_8h.html" target="_top" xlink:title=" ">
<polygon fill="white" stroke="black" points="448.5,-62 448.5,-81 507.5,-81 507.5,-62 448.5,-62"/>
<text text-anchor="middle" x="478" y="-69" font-family="Helvetica,sans-Serif" font-size="10.00">dvd/dvd.h</text>
</a>
</g>
</g>
<!-- Node11&#45;&gt;Node12 -->
<g id="edge17" class="edge">
<title>Node11&#45;&gt;Node12</title>
<path fill="none" stroke="midnightblue" d="M450.32,-128.73C455.16,-118.89 463.15,-102.66 469.31,-90.16"/>
<polygon fill="midnightblue" stroke="midnightblue" points="472.48,-91.64 473.75,-81.13 466.2,-88.55 472.48,-91.64"/>
</g>
<!-- Node12&#45;&gt;Node6 -->
<g id="edge18" class="edge">
<title>Node12&#45;&gt;Node6</title>
<path fill="none" stroke="midnightblue" d="M461.67,-61.98C442.79,-52.12 411.49,-35.79 389.42,-24.27"/>
<polygon fill="midnightblue" stroke="midnightblue" points="390.79,-21.03 380.3,-19.51 387.55,-27.24 390.79,-21.03"/>
</g>
<!-- Node13&#45;&gt;Node6 -->
<g id="edge21" class="edge">
<title>Node13&#45;&gt;Node6</title>
<path fill="none" stroke="midnightblue" d="M590.36,-190.45C590.91,-165.74 588.95,-93.6 550,-56 530.86,-37.53 462.91,-24.56 414.68,-17.44"/>
<polygon fill="midnightblue" stroke="midnightblue" points="415.11,-13.96 404.72,-16 414.12,-20.89 415.11,-13.96"/>
</g>
</g>
</svg>
        <g id="navigator" transform="translate(0 0)" fill="#404254">
                <rect fill="#f2f5e9" fill-opacity="0.5" stroke="#606060" stroke-width=".5" x="0" y="0" width="60" height="60"/>
                <use id="zoomplus" xlink:href="#zoomPlus" x="17" y="9" onmousedown="handleZoom(evt,'in')"/>
                <use id="zoomminus" xlink:href="#zoomMin" x="42" y="9" onmousedown="handleZoom(evt,'out')"/>
                <use id="reset" xlink:href="#resetDef" x="30" y="36" onmousedown="handleReset()"/>
                <g id="arrowUp" xlink:href="#dirArrow" transform="translate(30 24)" onmousedown="handlePan(0,-1)">
                  <use xlink:href="#rim" fill="#404040">
                        <set attributeName="fill" to="#808080" begin="arrowUp.mouseover" end="arrowUp.mouseout"/>
                  </use>
                  <path fill="none" stroke="white" stroke-width="1.5" d="M0,-3.0v7 M-2.5,-0.5L0,-3.0L2.5,-0.5"/>
                </g>
                <g id="arrowRight" xlink:href="#dirArrow" transform="rotate(90) translate(36 -43)" onmousedown="handlePan(1,0)">
                  <use xlink:href="#rim" fill="#404040">
                        <set attributeName="fill" to="#808080" begin="arrowRight.mouseover" end="arrowRight.mouseout"/>
                  </use>
                  <path fill="none" stroke="white" stroke-width="1.5" d="M0,-3.0v7 M-2.5,-0.5L0,-3.0L2.5,-0.5"/>
                </g>
                <g id="arrowDown" xlink:href="#dirArrow" transform="rotate(180) translate(-30 -48)" onmousedown="handlePan(0,1)">
                  <use xlink:href="#rim" fill="#404040">
                        <set attributeName="fill" to="#808080" begin="arrowDown.mouseover" end="arrowDown.mouseout"/>
                  </use>
                  <path fill="none" stroke="white" stroke-width="1.5" d="M0,-3.0v7 M-2.5,-0.5L0,-3.0L2.5,-0.5"/>
                </g>
                <g id="arrowLeft" xlink:href="#dirArrow" transform="rotate(270) translate(-36 17)" onmousedown="handlePan(-1,0)">
                  <use xlink:href="#rim" fill="#404040">
                        <set attributeName="fill" to="#808080" begin="arrowLeft.mouseover" end="arrowLeft.mouseout"/>
                  </use>
                  <path fill="none" stroke="white" stroke-width="1.5" d="M0,-3.0v7 M-2.5,-0.5L0,-3.0L2.5,-0.5"/>
                </g>
        </g>
        <svg viewBox="0 0 15 15" width="100%" height="30px" preserveAspectRatio="xMaxYMin meet">
         <g id="arrow_out" transform="scale(0.3 0.3)">
          <a xlink:href="m__Do__Reset_8h__incl_org.svg" target="_base">
           <rect id="button" ry="5" rx="5" y="6" x="6" height="38" width="38"
                fill="#f2f5e9" fill-opacity="0.5" stroke="#606060" stroke-width="1.0"/>
           <path id="arrow"
             d="M 11.500037,31.436501 C 11.940474,20.09759 22.043105,11.32322 32.158766,21.979434 L 37.068811,17.246167 C 37.068811,17.246167 37.088388,32 37.088388,32 L 22.160133,31.978069 C 22.160133,31.978069 26.997745,27.140456 26.997745,27.140456 C 18.528582,18.264221 13.291696,25.230495 11.500037,31.436501 z"
             style="fill:#404040;"/>
          </a>
         </g>
        </svg>
</svg>
