<?xml version="1.0" encoding="UTF-8" standalone="no"?>
<!DOCTYPE svg PUBLIC "-//W3C//DTD SVG 1.1//EN"
 "http://www.w3.org/Graphics/SVG/1.1/DTD/svg11.dtd">
<!-- Generated by graphviz version 2.44.0 ()
 -->
<!-- Title: src/m_Do/m_Do_controller_pad.cpp Pages: 1 -->
<!--zoomable 564 -->
<svg id="main" version="1.1" xmlns="http://www.w3.org/2000/svg" xmlns:xlink="http://www.w3.org/1999/xlink" xml:space="preserve" onload="init(evt)">
<style type="text/css"><![CDATA[
.edge:hover path { stroke: red; }
.edge:hover polygon { stroke: red; fill: red; }
]]></style>
<script type="text/javascript"><![CDATA[
var edges = document.getElementsByTagName('g');
if (edges && edges.length) {
  for (var i=0;i<edges.length;i++) {
    if (edges[i].id.substr(0,4)=='edge') {
      edges[i].setAttribute('class','edge');
    }
  }
}
]]></script>
        <defs>
                <circle id="rim" cx="0" cy="0" r="7"/>
                <circle id="rim2" cx="0" cy="0" r="3.5"/>
                <g id="zoomPlus">
                        <use xlink:href="#rim" fill="#404040">
                                <set attributeName="fill" to="#808080" begin="zoomplus.mouseover" end="zoomplus.mouseout"/>
                        </use>
                        <path d="M-4,0h8M0,-4v8" fill="none" stroke="white" stroke-width="1.5" pointer-events="none"/>
                </g>
                <g id="zoomMin">
                        <use xlink:href="#rim" fill="#404040">
                                <set attributeName="fill" to="#808080" begin="zoomminus.mouseover" end="zoomminus.mouseout"/>
                        </use>
                        <path d="M-4,0h8" fill="none" stroke="white" stroke-width="1.5" pointer-events="none"/>
                </g>
                <g id="dirArrow">
                        <path fill="none" stroke="white" stroke-width="1.5" d="M0,-3.0v7 M-2.5,-0.5L0,-3.0L2.5,-0.5"/>
                </g>
               <g id="resetDef">
                       <use xlink:href="#rim2" fill="#404040">
                               <set attributeName="fill" to="#808080" begin="reset.mouseover" end="reset.mouseout"/>
                       </use>
               </g>
        </defs>

<script type="text/javascript">
var viewWidth = 1610;
var viewHeight = 564;
var sectionId = 'dynsection-0';
</script>
<script xlink:href="svgpan.js"/>
<svg id="graph" class="graph">
<g id="viewport">
<title>src/m_Do/m_Do_controller_pad.cpp</title>
<polygon fill="white" stroke="transparent" points="-4,4 -4,-560 1606,-560 1606,4 -4,4"/>
<!-- Node1 -->
<g id="node1" class="node">
<title>Node1</title>
<g id="a_node1"><a xlink:title=" ">
<polygon fill="#bfbfbf" stroke="black" points="692,-525.5 692,-555.5 824,-555.5 824,-525.5 692,-525.5"/>
<text text-anchor="start" x="700" y="-543.5" font-family="Helvetica,sans-Serif" font-size="10.00">src/m_Do/m_Do_controller</text>
<text text-anchor="middle" x="758" y="-532.5" font-family="Helvetica,sans-Serif" font-size="10.00">_pad.cpp</text>
</a>
</g>
</g>
<!-- Node2 -->
<g id="node2" class="node">
<title>Node2</title>
<g id="a_node2"><a xlink:href="m__Do__controller__pad_8h.html" target="_top" xlink:title=" ">
<polygon fill="white" stroke="black" points="305,-380.5 305,-410.5 445,-410.5 445,-380.5 305,-380.5"/>
<text text-anchor="start" x="313" y="-398.5" font-family="Helvetica,sans-Serif" font-size="10.00">m_Do/m_Do_controller</text>
<text text-anchor="middle" x="375" y="-387.5" font-family="Helvetica,sans-Serif" font-size="10.00">_pad/m_Do_controller_pad.h</text>
</a>
</g>
</g>
<!-- Node1&#45;&gt;Node2 -->
<g id="edge1" class="edge">
<title>Node1&#45;&gt;Node2</title>
<path fill="none" stroke="midnightblue" d="M691.73,-533.4C616.18,-525.56 498.09,-510.38 459,-489 428.86,-472.52 403.86,-441.03 389.18,-419.4"/>
<polygon fill="midnightblue" stroke="midnightblue" points="391.95,-417.25 383.53,-410.82 386.1,-421.09 391.95,-417.25"/>
</g>
<!-- Node3 -->
<g id="node3" class="node">
<title>Node3</title>
<g id="a_node3"><a xlink:href="JUTGamePad_8h.html" target="_top" xlink:title=" ">
<polygon fill="white" stroke="black" points="501,-313.5 501,-343.5 637,-343.5 637,-313.5 501,-313.5"/>
<text text-anchor="start" x="509" y="-331.5" font-family="Helvetica,sans-Serif" font-size="10.00">JSystem/JUtility/JUTGame</text>
<text text-anchor="middle" x="569" y="-320.5" font-family="Helvetica,sans-Serif" font-size="10.00">Pad/JUTGamePad.h</text>
</a>
</g>
</g>
<!-- Node1&#45;&gt;Node3 -->
<g id="edge24" class="edge">
<title>Node1&#45;&gt;Node3</title>
<path fill="none" stroke="midnightblue" d="M733.82,-525.36C719.09,-516.08 700.4,-503.1 686,-489 642.22,-446.14 602.64,-385.56 582.67,-352.77"/>
<polygon fill="midnightblue" stroke="midnightblue" points="585.5,-350.68 577.34,-343.92 579.5,-354.29 585.5,-350.68"/>
</g>
<!-- Node9 -->
<g id="node9" class="node">
<title>Node9</title>
<g id="a_node9"><a xlink:href="pad_8h.html" target="_top" xlink:title=" ">
<polygon fill="white" stroke="black" points="442.5,-252 442.5,-271 501.5,-271 501.5,-252 442.5,-252"/>
<text text-anchor="middle" x="472" y="-259" font-family="Helvetica,sans-Serif" font-size="10.00">pad/pad.h</text>
</a>
</g>
</g>
<!-- Node1&#45;&gt;Node9 -->
<g id="edge62" class="edge">
<title>Node1&#45;&gt;Node9</title>
<path fill="none" stroke="midnightblue" d="M718.5,-525.43C696.26,-516.6 668.52,-504.06 646,-489 567.86,-436.74 539.37,-425.2 492,-344 480.56,-324.39 475.64,-298.45 473.53,-281.15"/>
<polygon fill="midnightblue" stroke="midnightblue" points="477.02,-280.78 472.52,-271.19 470.05,-281.49 477.02,-280.78"/>
</g>
<!-- Node10 -->
<g id="node10" class="node">
<title>Node10</title>
<g id="a_node10"><a xlink:href="global_8h.html" target="_top" xlink:title=" ">
<polygon fill="white" stroke="black" points="336,-185 336,-204 386,-204 386,-185 336,-185"/>
<text text-anchor="middle" x="361" y="-192" font-family="Helvetica,sans-Serif" font-size="10.00">global.h</text>
</a>
</g>
</g>
<!-- Node1&#45;&gt;Node10 -->
<g id="edge33" class="edge">
<title>Node1&#45;&gt;Node10</title>
<path fill="none" stroke="midnightblue" d="M691.72,-536.93C598.94,-532.33 425.51,-520.07 281,-489 152.46,-461.37 0,-527.98 0,-396.5 0,-396.5 0,-396.5 0,-327.5 0,-277.97 32.48,-269.65 76,-246 157.3,-201.82 269.09,-195.07 325.45,-194.76"/>
<polygon fill="midnightblue" stroke="midnightblue" points="325.63,-198.26 335.63,-194.77 325.64,-191.26 325.63,-198.26"/>
</g>
<!-- Node15 -->
<g id="node15" class="node">
<title>Node15</title>
<g id="a_node15"><a xlink:href="c__lib_8h.html" target="_top" xlink:title=" ">
<polygon fill="white" stroke="black" points="110,-386 110,-405 214,-405 214,-386 110,-386"/>
<text text-anchor="middle" x="162" y="-393" font-family="Helvetica,sans-Serif" font-size="10.00">SComponent/c_lib.h</text>
</a>
</g>
</g>
<!-- Node1&#45;&gt;Node15 -->
<g id="edge25" class="edge">
<title>Node1&#45;&gt;Node15</title>
<path fill="none" stroke="midnightblue" d="M691.82,-534.31C620.62,-527.73 504.48,-514.09 407,-489 325.95,-468.14 234.78,-429.45 189.96,-409.36"/>
<polygon fill="midnightblue" stroke="midnightblue" points="191.16,-406.06 180.6,-405.14 188.28,-412.44 191.16,-406.06"/>
</g>
<!-- Node19 -->
<g id="node19" class="node">
<title>Node19</title>
<g id="a_node19"><a xlink:href="m__Do__Reset_8h.html" target="_top" xlink:title=" ">
<polygon fill="white" stroke="black" points="1472,-380.5 1472,-410.5 1602,-410.5 1602,-380.5 1472,-380.5"/>
<text text-anchor="start" x="1480" y="-398.5" font-family="Helvetica,sans-Serif" font-size="10.00">m_Do/m_Do_Reset/m_Do</text>
<text text-anchor="middle" x="1537" y="-387.5" font-family="Helvetica,sans-Serif" font-size="10.00">_Reset.h</text>
</a>
</g>
</g>
<!-- Node1&#45;&gt;Node19 -->
<g id="edge34" class="edge">
<title>Node1&#45;&gt;Node19</title>
<path fill="none" stroke="midnightblue" d="M779.93,-525.49C794.39,-515.88 813.45,-502.47 829,-489 848.48,-472.12 845.63,-457.87 869,-447 987.9,-391.69 1327.83,-426.87 1458,-411 1459.28,-410.84 1460.58,-410.68 1461.88,-410.51"/>
<polygon fill="midnightblue" stroke="midnightblue" points="1462.59,-413.94 1472,-409.07 1461.61,-407.01 1462.59,-413.94"/>
</g>
<!-- Node23 -->
<g id="node23" class="node">
<title>Node23</title>
<g id="a_node23"><a xlink:href="m__Do__main_8h.html" target="_top" xlink:title=" ">
<polygon fill="white" stroke="black" points="695.5,-453 695.5,-483 820.5,-483 820.5,-453 695.5,-453"/>
<text text-anchor="start" x="703.5" y="-471" font-family="Helvetica,sans-Serif" font-size="10.00">m_Do/m_Do_main/m_Do</text>
<text text-anchor="middle" x="758" y="-460" font-family="Helvetica,sans-Serif" font-size="10.00">_main.h</text>
</a>
</g>
</g>
<!-- Node1&#45;&gt;Node23 -->
<g id="edge44" class="edge">
<title>Node1&#45;&gt;Node23</title>
<path fill="none" stroke="midnightblue" d="M758,-525.23C758,-516.16 758,-504.16 758,-493.58"/>
<polygon fill="midnightblue" stroke="midnightblue" points="761.5,-493.25 758,-483.25 754.5,-493.25 761.5,-493.25"/>
</g>
<!-- Node29 -->
<g id="node29" class="node">
<title>Node29</title>
<g id="a_node29"><a xlink:title=" ">
<polygon fill="white" stroke="#bfbfbf" points="877.5,-447.5 877.5,-488.5 1008.5,-488.5 1008.5,-447.5 877.5,-447.5"/>
<text text-anchor="start" x="885.5" y="-476.5" font-family="Helvetica,sans-Serif" font-size="10.00">m_Do/m_Do_controller</text>
<text text-anchor="start" x="885.5" y="-465.5" font-family="Helvetica,sans-Serif" font-size="10.00">_pad/asm/mDoCPd_c_NS</text>
<text text-anchor="middle" x="943" y="-454.5" font-family="Helvetica,sans-Serif" font-size="10.00">_create.s</text>
</a>
</g>
</g>
<!-- Node1&#45;&gt;Node29 -->
<g id="edge63" class="edge">
<title>Node1&#45;&gt;Node29</title>
<path fill="none" stroke="midnightblue" d="M794.99,-525.4C819.91,-515.91 853.35,-503.16 882.14,-492.19"/>
<polygon fill="midnightblue" stroke="midnightblue" points="883.61,-495.38 891.71,-488.55 881.12,-488.84 883.61,-495.38"/>
</g>
<!-- Node30 -->
<g id="node30" class="node">
<title>Node30</title>
<g id="a_node30"><a xlink:title=" ">
<polygon fill="white" stroke="#bfbfbf" points="1026.5,-447.5 1026.5,-488.5 1157.5,-488.5 1157.5,-447.5 1026.5,-447.5"/>
<text text-anchor="start" x="1034.5" y="-476.5" font-family="Helvetica,sans-Serif" font-size="10.00">m_Do/m_Do_controller</text>
<text text-anchor="start" x="1034.5" y="-465.5" font-family="Helvetica,sans-Serif" font-size="10.00">_pad/asm/mDoCPd_c_NS</text>
<text text-anchor="middle" x="1092" y="-454.5" font-family="Helvetica,sans-Serif" font-size="10.00">_read.s</text>
</a>
</g>
</g>
<!-- Node1&#45;&gt;Node30 -->
<g id="edge64" class="edge">
<title>Node1&#45;&gt;Node30</title>
<path fill="none" stroke="midnightblue" d="M824.26,-527.99C874.61,-518.94 945.75,-505.47 1016.34,-489.32"/>
<polygon fill="midnightblue" stroke="midnightblue" points="1017.34,-492.68 1026.29,-487.02 1015.76,-485.86 1017.34,-492.68"/>
</g>
<!-- Node31 -->
<g id="node31" class="node">
<title>Node31</title>
<g id="a_node31"><a xlink:title=" ">
<polygon fill="white" stroke="#bfbfbf" points="1175.5,-447.5 1175.5,-488.5 1306.5,-488.5 1306.5,-447.5 1175.5,-447.5"/>
<text text-anchor="start" x="1183.5" y="-476.5" font-family="Helvetica,sans-Serif" font-size="10.00">m_Do/m_Do_controller</text>
<text text-anchor="start" x="1183.5" y="-465.5" font-family="Helvetica,sans-Serif" font-size="10.00">_pad/asm/mDoCPd_c_NS</text>
<text text-anchor="middle" x="1241" y="-454.5" font-family="Helvetica,sans-Serif" font-size="10.00">_convert.s</text>
</a>
</g>
</g>
<!-- Node1&#45;&gt;Node31 -->
<g id="edge65" class="edge">
<title>Node1&#45;&gt;Node31</title>
<path fill="none" stroke="midnightblue" d="M824.33,-534.21C903.47,-527.25 1039.86,-513.21 1165.19,-489.23"/>
<polygon fill="midnightblue" stroke="midnightblue" points="1166.2,-492.6 1175.35,-487.26 1164.86,-485.73 1166.2,-492.6"/>
</g>
<!-- Node32 -->
<g id="node32" class="node">
<title>Node32</title>
<g id="a_node32"><a xlink:title=" ">
<polygon fill="white" stroke="#bfbfbf" points="1324.5,-447.5 1324.5,-488.5 1455.5,-488.5 1455.5,-447.5 1324.5,-447.5"/>
<text text-anchor="start" x="1332.5" y="-476.5" font-family="Helvetica,sans-Serif" font-size="10.00">m_Do/m_Do_controller</text>
<text text-anchor="start" x="1332.5" y="-465.5" font-family="Helvetica,sans-Serif" font-size="10.00">_pad/asm/mDoCPd_c_NS</text>
<text text-anchor="middle" x="1390" y="-454.5" font-family="Helvetica,sans-Serif" font-size="10.00">_LRlockCheck.s</text>
</a>
</g>
</g>
<!-- Node1&#45;&gt;Node32 -->
<g id="edge66" class="edge">
<title>Node1&#45;&gt;Node32</title>
<path fill="none" stroke="midnightblue" d="M824.21,-537.23C927.31,-532.87 1132.48,-520.93 1314.35,-489.15"/>
<polygon fill="midnightblue" stroke="midnightblue" points="1315.13,-492.56 1324.37,-487.37 1313.91,-485.67 1315.13,-492.56"/>
</g>
<!-- Node2&#45;&gt;Node3 -->
<g id="edge2" class="edge">
<title>Node2&#45;&gt;Node3</title>
<path fill="none" stroke="midnightblue" d="M417.1,-380.4C446.46,-370.56 485.83,-357.37 517.13,-346.88"/>
<polygon fill="midnightblue" stroke="midnightblue" points="518.62,-350.07 526.99,-343.58 516.39,-343.43 518.62,-350.07"/>
</g>
<!-- Node14 -->
<g id="node14" class="node">
<title>Node14</title>
<g id="a_node14"><a xlink:href="c__API__controller__pad_8h.html" target="_top" xlink:title=" ">
<polygon fill="white" stroke="black" points="276,-246.5 276,-276.5 424,-276.5 424,-246.5 276,-246.5"/>
<text text-anchor="start" x="284" y="-264.5" font-family="Helvetica,sans-Serif" font-size="10.00">SComponent/c_API_controller</text>
<text text-anchor="middle" x="350" y="-253.5" font-family="Helvetica,sans-Serif" font-size="10.00">_pad.h</text>
</a>
</g>
</g>
<!-- Node2&#45;&gt;Node14 -->
<g id="edge22" class="edge">
<title>Node2&#45;&gt;Node14</title>
<path fill="none" stroke="midnightblue" d="M372.32,-380.37C368.08,-357.94 359.74,-313.92 354.54,-286.49"/>
<polygon fill="midnightblue" stroke="midnightblue" points="357.96,-285.7 352.66,-276.52 351.08,-287 357.96,-285.7"/>
</g>
<!-- Node4 -->
<g id="node4" class="node">
<title>Node4</title>
<g id="a_node4"><a xlink:href="JKRDisposer_8h.html" target="_top" xlink:title=" ">
<polygon fill="white" stroke="black" points="686.5,-179.5 686.5,-209.5 837.5,-209.5 837.5,-179.5 686.5,-179.5"/>
<text text-anchor="start" x="694.5" y="-197.5" font-family="Helvetica,sans-Serif" font-size="10.00">JSystem/JKernel/JKRDisposer</text>
<text text-anchor="middle" x="762" y="-186.5" font-family="Helvetica,sans-Serif" font-size="10.00">/JKRDisposer.h</text>
</a>
</g>
</g>
<!-- Node3&#45;&gt;Node4 -->
<g id="edge3" class="edge">
<title>Node3&#45;&gt;Node4</title>
<path fill="none" stroke="midnightblue" d="M589.65,-313.37C624.19,-289.75 693.74,-242.19 733.11,-215.26"/>
<polygon fill="midnightblue" stroke="midnightblue" points="735.22,-218.06 741.49,-209.52 731.26,-212.28 735.22,-218.06"/>
</g>
<!-- Node5 -->
<g id="node5" class="node">
<title>Node5</title>
<g id="a_node5"><a xlink:href="JSUList_8h.html" target="_top" xlink:title=" ">
<polygon fill="white" stroke="black" points="604,-112.5 604,-142.5 740,-142.5 740,-112.5 604,-112.5"/>
<text text-anchor="start" x="612" y="-130.5" font-family="Helvetica,sans-Serif" font-size="10.00">JSystem/JSupport/JSUList</text>
<text text-anchor="middle" x="672" y="-119.5" font-family="Helvetica,sans-Serif" font-size="10.00">/JSUList.h</text>
</a>
</g>
</g>
<!-- Node3&#45;&gt;Node5 -->
<g id="edge7" class="edge">
<title>Node3&#45;&gt;Node5</title>
<path fill="none" stroke="midnightblue" d="M575.85,-313.49C588.84,-287.04 618.05,-228.01 644,-179 648.82,-169.89 654.29,-159.95 659.1,-151.32"/>
<polygon fill="midnightblue" stroke="midnightblue" points="662.17,-153 664.01,-142.57 656.07,-149.58 662.17,-153"/>
</g>
<!-- Node6 -->
<g id="node6" class="node">
<title>Node6</title>
<g id="a_node6"><a xlink:href="types_8h.html" target="_top" xlink:title=" ">
<polygon fill="white" stroke="black" points="727.5,-0.5 727.5,-19.5 808.5,-19.5 808.5,-0.5 727.5,-0.5"/>
<text text-anchor="middle" x="768" y="-7.5" font-family="Helvetica,sans-Serif" font-size="10.00">dolphin/types.h</text>
</a>
</g>
</g>
<!-- Node3&#45;&gt;Node6 -->
<g id="edge8" class="edge">
<title>Node3&#45;&gt;Node6</title>
<path fill="none" stroke="midnightblue" d="M566.71,-313.47C561.52,-276.89 552.38,-176.88 595,-112 625.96,-64.87 687.09,-36.93 727.77,-22.77"/>
<polygon fill="midnightblue" stroke="midnightblue" points="729.01,-26.04 737.38,-19.55 726.79,-19.41 729.01,-26.04"/>
</g>
<!-- Node7 -->
<g id="node7" class="node">
<title>Node7</title>
<g id="a_node7"><a xlink:href="OS_8h.html" target="_top" xlink:title=" ">
<polygon fill="white" stroke="black" points="496,-118 496,-137 548,-137 548,-118 496,-118"/>
<text text-anchor="middle" x="522" y="-125" font-family="Helvetica,sans-Serif" font-size="10.00">os/OS.h</text>
</a>
</g>
</g>
<!-- Node3&#45;&gt;Node7 -->
<g id="edge9" class="edge">
<title>Node3&#45;&gt;Node7</title>
<path fill="none" stroke="midnightblue" d="M564.51,-313.43C561.36,-303.34 557.17,-289.4 554,-277 542.16,-230.74 531.06,-175.64 525.58,-147.34"/>
<polygon fill="midnightblue" stroke="midnightblue" points="528.97,-146.42 523.64,-137.26 522.09,-147.74 528.97,-146.42"/>
</g>
<!-- Node3&#45;&gt;Node9 -->
<g id="edge13" class="edge">
<title>Node3&#45;&gt;Node9</title>
<path fill="none" stroke="midnightblue" d="M547.95,-313.4C531.69,-302.5 509.28,-287.48 493.02,-276.58"/>
<polygon fill="midnightblue" stroke="midnightblue" points="494.95,-273.67 484.7,-271.01 491.05,-279.48 494.95,-273.67"/>
</g>
<!-- Node4&#45;&gt;Node5 -->
<g id="edge4" class="edge">
<title>Node4&#45;&gt;Node5</title>
<path fill="none" stroke="midnightblue" d="M742.47,-179.4C729.97,-170.37 713.56,-158.51 699.72,-148.52"/>
<polygon fill="midnightblue" stroke="midnightblue" points="701.65,-145.59 691.49,-142.58 697.55,-151.27 701.65,-145.59"/>
</g>
<!-- Node4&#45;&gt;Node6 -->
<g id="edge6" class="edge">
<title>Node4&#45;&gt;Node6</title>
<path fill="none" stroke="midnightblue" d="M762.46,-179.48C763.53,-147.1 766.16,-67.04 767.37,-30.16"/>
<polygon fill="midnightblue" stroke="midnightblue" points="770.88,-29.93 767.71,-19.82 763.88,-29.7 770.88,-29.93"/>
</g>
<!-- Node5&#45;&gt;Node6 -->
<g id="edge5" class="edge">
<title>Node5&#45;&gt;Node6</title>
<path fill="none" stroke="midnightblue" d="M683.77,-112.34C701.62,-90.86 735.44,-50.17 754.34,-27.43"/>
<polygon fill="midnightblue" stroke="midnightblue" points="757.09,-29.6 760.79,-19.67 751.71,-25.12 757.09,-29.6"/>
</g>
<!-- Node7&#45;&gt;Node6 -->
<g id="edge10" class="edge">
<title>Node7&#45;&gt;Node6</title>
<path fill="none" stroke="midnightblue" d="M529.69,-117.73C543.22,-102.83 572.84,-72.58 604,-56 639.55,-37.09 683.77,-25.55 717.33,-18.9"/>
<polygon fill="midnightblue" stroke="midnightblue" points="718.21,-22.3 727.38,-16.99 716.91,-15.42 718.21,-22.3"/>
</g>
<!-- Node8 -->
<g id="node8" class="node">
<title>Node8</title>
<g id="a_node8"><a xlink:href="dvd_8h.html" target="_top" xlink:title=" ">
<polygon fill="white" stroke="black" points="492.5,-56.5 492.5,-75.5 551.5,-75.5 551.5,-56.5 492.5,-56.5"/>
<text text-anchor="middle" x="522" y="-63.5" font-family="Helvetica,sans-Serif" font-size="10.00">dvd/dvd.h</text>
</a>
</g>
</g>
<!-- Node7&#45;&gt;Node8 -->
<g id="edge11" class="edge">
<title>Node7&#45;&gt;Node8</title>
<path fill="none" stroke="midnightblue" d="M522,-117.98C522,-109.58 522,-96.48 522,-85.66"/>
<polygon fill="midnightblue" stroke="midnightblue" points="525.5,-85.51 522,-75.51 518.5,-85.51 525.5,-85.51"/>
</g>
<!-- Node8&#45;&gt;Node6 -->
<g id="edge12" class="edge">
<title>Node8&#45;&gt;Node6</title>
<path fill="none" stroke="midnightblue" d="M551.67,-58.49C593.16,-49.38 669,-32.73 718.96,-21.76"/>
<polygon fill="midnightblue" stroke="midnightblue" points="719.88,-25.15 728.9,-19.58 718.38,-18.31 719.88,-25.15"/>
</g>
<!-- Node9&#45;&gt;Node10 -->
<g id="edge14" class="edge">
<title>Node9&#45;&gt;Node10</title>
<path fill="none" stroke="midnightblue" d="M457.03,-251.73C438.39,-240.82 406.34,-222.05 384.43,-209.22"/>
<polygon fill="midnightblue" stroke="midnightblue" points="386.13,-206.16 375.73,-204.13 382.59,-212.2 386.13,-206.16"/>
</g>
<!-- Node10&#45;&gt;Node6 -->
<g id="edge15" class="edge">
<title>Node10&#45;&gt;Node6</title>
<path fill="none" stroke="midnightblue" d="M355.61,-184.74C341.61,-160.76 307.43,-93.29 341,-56 365.77,-28.49 609.17,-16.58 717.02,-12.62"/>
<polygon fill="midnightblue" stroke="midnightblue" points="717.46,-16.11 727.33,-12.25 717.21,-9.11 717.46,-16.11"/>
</g>
<!-- Node10&#45;&gt;Node7 -->
<g id="edge21" class="edge">
<title>Node10&#45;&gt;Node7</title>
<path fill="none" stroke="midnightblue" d="M382.38,-184.87C410.36,-173.57 459.59,-153.7 491.49,-140.82"/>
<polygon fill="midnightblue" stroke="midnightblue" points="492.83,-144.05 500.79,-137.06 490.21,-137.56 492.83,-144.05"/>
</g>
<!-- Node11 -->
<g id="node11" class="node">
<title>Node11</title>
<g id="a_node11"><a xlink:href="AR_8h.html" target="_top" xlink:title=" ">
<polygon fill="white" stroke="black" points="350.5,-56.5 350.5,-75.5 399.5,-75.5 399.5,-56.5 350.5,-56.5"/>
<text text-anchor="middle" x="375" y="-63.5" font-family="Helvetica,sans-Serif" font-size="10.00">ar/AR.h</text>
</a>
</g>
</g>
<!-- Node10&#45;&gt;Node11 -->
<g id="edge16" class="edge">
<title>Node10&#45;&gt;Node11</title>
<path fill="none" stroke="midnightblue" d="M361.96,-184.81C364.21,-164.49 369.85,-113.55 372.92,-85.78"/>
<polygon fill="midnightblue" stroke="midnightblue" points="376.41,-86.08 374.03,-75.76 369.45,-85.31 376.41,-86.08"/>
</g>
<!-- Node12 -->
<g id="node12" class="node">
<title>Node12</title>
<g id="a_node12"><a xlink:href="ARQ_8h.html" target="_top" xlink:title=" ">
<polygon fill="white" stroke="black" points="418,-56.5 418,-75.5 474,-75.5 474,-56.5 418,-56.5"/>
<text text-anchor="middle" x="446" y="-63.5" font-family="Helvetica,sans-Serif" font-size="10.00">ar/ARQ.h</text>
</a>
</g>
</g>
<!-- Node10&#45;&gt;Node12 -->
<g id="edge18" class="edge">
<title>Node10&#45;&gt;Node12</title>
<path fill="none" stroke="midnightblue" d="M366.84,-184.81C380.73,-164.13 415.94,-111.73 434.36,-84.32"/>
<polygon fill="midnightblue" stroke="midnightblue" points="437.44,-86.01 440.12,-75.76 431.63,-82.1 437.44,-86.01"/>
</g>
<!-- Node13 -->
<g id="node13" class="node">
<title>Node13</title>
<g id="a_node13"><a xlink:href="mwcc_8h.html" target="_top" xlink:title=" ">
<polygon fill="white" stroke="black" points="427,-118 427,-137 477,-137 477,-118 427,-118"/>
<text text-anchor="middle" x="452" y="-125" font-family="Helvetica,sans-Serif" font-size="10.00">mwcc.h</text>
</a>
</g>
</g>
<!-- Node10&#45;&gt;Node13 -->
<g id="edge20" class="edge">
<title>Node10&#45;&gt;Node13</title>
<path fill="none" stroke="midnightblue" d="M373.27,-184.73C388.15,-174.11 413.43,-156.05 431.33,-143.26"/>
<polygon fill="midnightblue" stroke="midnightblue" points="433.82,-145.79 439.92,-137.13 429.75,-140.09 433.82,-145.79"/>
</g>
<!-- Node11&#45;&gt;Node6 -->
<g id="edge17" class="edge">
<title>Node11&#45;&gt;Node6</title>
<path fill="none" stroke="midnightblue" d="M399.79,-58.03C402.88,-57.28 406,-56.58 409,-56 517.8,-34.88 647.16,-21.5 717.06,-15.22"/>
<polygon fill="midnightblue" stroke="midnightblue" points="717.69,-18.68 727.34,-14.31 717.07,-11.7 717.69,-18.68"/>
</g>
<!-- Node12&#45;&gt;Node6 -->
<g id="edge19" class="edge">
<title>Node12&#45;&gt;Node6</title>
<path fill="none" stroke="midnightblue" d="M474.23,-57.88C477.18,-57.21 480.15,-56.57 483,-56 564.38,-39.71 659.8,-25.65 717,-17.77"/>
<polygon fill="midnightblue" stroke="midnightblue" points="717.79,-21.19 727.23,-16.37 716.84,-14.26 717.79,-21.19"/>
</g>
<!-- Node14&#45;&gt;Node10 -->
<g id="edge23" class="edge">
<title>Node14&#45;&gt;Node10</title>
<path fill="none" stroke="midnightblue" d="M352.39,-246.4C353.98,-236.96 356.1,-224.45 357.84,-214.19"/>
<polygon fill="midnightblue" stroke="midnightblue" points="361.31,-214.64 359.53,-204.19 354.41,-213.47 361.31,-214.64"/>
</g>
<!-- Node15&#45;&gt;Node10 -->
<g id="edge32" class="edge">
<title>Node15&#45;&gt;Node10</title>
<path fill="none" stroke="midnightblue" d="M144.69,-385.97C129.7,-377.55 108.92,-363.17 99,-344 78.97,-305.28 67.2,-279.58 95,-246 123.89,-211.1 260.1,-200.13 325.62,-196.83"/>
<polygon fill="midnightblue" stroke="midnightblue" points="326.05,-200.32 335.88,-196.35 325.72,-193.33 326.05,-200.32"/>
</g>
<!-- Node16 -->
<g id="node16" class="node">
<title>Node16</title>
<g id="a_node16"><a xlink:href="c__xyz_8h.html" target="_top" xlink:title=" ">
<polygon fill="white" stroke="black" points="108.5,-319 108.5,-338 215.5,-338 215.5,-319 108.5,-319"/>
<text text-anchor="middle" x="162" y="-326" font-family="Helvetica,sans-Serif" font-size="10.00">SComponent/c_xyz.h</text>
</a>
</g>
</g>
<!-- Node15&#45;&gt;Node16 -->
<g id="edge26" class="edge">
<title>Node15&#45;&gt;Node16</title>
<path fill="none" stroke="midnightblue" d="M162,-385.73C162,-376.18 162,-360.62 162,-348.28"/>
<polygon fill="midnightblue" stroke="midnightblue" points="165.5,-348.13 162,-338.13 158.5,-348.13 165.5,-348.13"/>
</g>
<!-- Node16&#45;&gt;Node10 -->
<g id="edge29" class="edge">
<title>Node16&#45;&gt;Node10</title>
<path fill="none" stroke="midnightblue" d="M173.97,-318.7C187.45,-308.73 209.97,-291.92 229,-277 246.15,-263.55 248.87,-258.1 267,-246 288.48,-231.66 314.45,-217.96 333.65,-208.45"/>
<polygon fill="midnightblue" stroke="midnightblue" points="335.29,-211.55 342.74,-204.01 332.22,-205.26 335.29,-211.55"/>
</g>
<!-- Node17 -->
<g id="node17" class="node">
<title>Node17</title>
<g id="a_node17"><a xlink:href="c__math_8h.html" target="_top" xlink:title=" ">
<polygon fill="white" stroke="black" points="104,-252 104,-271 220,-271 220,-252 104,-252"/>
<text text-anchor="middle" x="162" y="-259" font-family="Helvetica,sans-Serif" font-size="10.00">SComponent/c_math.h</text>
</a>
</g>
</g>
<!-- Node16&#45;&gt;Node17 -->
<g id="edge27" class="edge">
<title>Node16&#45;&gt;Node17</title>
<path fill="none" stroke="midnightblue" d="M162,-318.73C162,-309.18 162,-293.62 162,-281.28"/>
<polygon fill="midnightblue" stroke="midnightblue" points="165.5,-281.13 162,-271.13 158.5,-281.13 165.5,-281.13"/>
</g>
<!-- Node18 -->
<g id="node18" class="node">
<title>Node18</title>
<g id="a_node18"><a xlink:href="mtx__vec_8h.html" target="_top" xlink:title=" ">
<polygon fill="white" stroke="black" points="139.5,-56.5 139.5,-75.5 200.5,-75.5 200.5,-56.5 139.5,-56.5"/>
<text text-anchor="middle" x="170" y="-63.5" font-family="Helvetica,sans-Serif" font-size="10.00">mtx_vec.h</text>
</a>
</g>
</g>
<!-- Node16&#45;&gt;Node18 -->
<g id="edge30" class="edge">
<title>Node16&#45;&gt;Node18</title>
<path fill="none" stroke="midnightblue" d="M142.38,-318.92C126.36,-310.72 104.81,-296.68 95,-277 88.85,-264.67 92.28,-259.51 95,-246 107.58,-183.4 142.63,-115.4 159.99,-84.29"/>
<polygon fill="midnightblue" stroke="midnightblue" points="163.07,-85.97 164.96,-75.54 156.98,-82.51 163.07,-85.97"/>
</g>
<!-- Node17&#45;&gt;Node10 -->
<g id="edge28" class="edge">
<title>Node17&#45;&gt;Node10</title>
<path fill="none" stroke="midnightblue" d="M188.43,-251.87C223.83,-240.3 286.74,-219.76 326.03,-206.92"/>
<polygon fill="midnightblue" stroke="midnightblue" points="327.3,-210.19 335.72,-203.76 325.13,-203.53 327.3,-210.19"/>
</g>
<!-- Node18&#45;&gt;Node6 -->
<g id="edge31" class="edge">
<title>Node18&#45;&gt;Node6</title>
<path fill="none" stroke="midnightblue" d="M200.89,-62.21C297.92,-53.45 597.22,-26.42 717.34,-15.57"/>
<polygon fill="midnightblue" stroke="midnightblue" points="717.73,-19.05 727.38,-14.67 717.1,-12.08 717.73,-19.05"/>
</g>
<!-- Node19&#45;&gt;Node6 -->
<g id="edge43" class="edge">
<title>Node19&#45;&gt;Node6</title>
<path fill="none" stroke="midnightblue" d="M1534.5,-380.29C1530.47,-356.16 1523,-305.59 1523,-262.5 1523,-262.5 1523,-262.5 1523,-126.5 1523,-87.83 1505.86,-74.68 1472,-56 1415.26,-24.7 971.19,-14.4 818.99,-11.77"/>
<polygon fill="midnightblue" stroke="midnightblue" points="819.02,-8.27 808.96,-11.6 818.9,-15.26 819.02,-8.27"/>
</g>
<!-- Node20 -->
<g id="node20" class="node">
<title>Node20</title>
<g id="a_node20"><a xlink:href="JUTXfb_8h.html" target="_top" xlink:title=" ">
<polygon fill="white" stroke="black" points="1304.5,-313.5 1304.5,-343.5 1429.5,-343.5 1429.5,-313.5 1304.5,-313.5"/>
<text text-anchor="start" x="1312.5" y="-331.5" font-family="Helvetica,sans-Serif" font-size="10.00">JSystem/JUtility/JUTXfb</text>
<text text-anchor="middle" x="1367" y="-320.5" font-family="Helvetica,sans-Serif" font-size="10.00">/JUTXfb.h</text>
</a>
</g>
</g>
<!-- Node19&#45;&gt;Node20 -->
<g id="edge35" class="edge">
<title>Node19&#45;&gt;Node20</title>
<path fill="none" stroke="midnightblue" d="M1500.11,-380.4C1474.61,-370.64 1440.48,-357.59 1413.17,-347.15"/>
<polygon fill="midnightblue" stroke="midnightblue" points="1414.41,-343.88 1403.82,-343.58 1411.91,-350.42 1414.41,-343.88"/>
</g>
<!-- Node20&#45;&gt;Node6 -->
<g id="edge40" class="edge">
<title>Node20&#45;&gt;Node6</title>
<path fill="none" stroke="midnightblue" d="M1353.7,-313.34C1333.65,-290.46 1298,-243.08 1298,-195.5 1298,-195.5 1298,-195.5 1298,-126.5 1298,-29.08 951.82,-13.69 819.02,-11.37"/>
<polygon fill="midnightblue" stroke="midnightblue" points="818.76,-7.86 808.71,-11.2 818.65,-14.86 818.76,-7.86"/>
</g>
<!-- Node21 -->
<g id="node21" class="node">
<title>Node21</title>
<g id="a_node21"><a xlink:href="JKRHeap_8h.html" target="_top" xlink:title=" ">
<polygon fill="white" stroke="black" points="896,-246.5 896,-276.5 1032,-276.5 1032,-246.5 896,-246.5"/>
<text text-anchor="start" x="904" y="-264.5" font-family="Helvetica,sans-Serif" font-size="10.00">JSystem/JKernel/JKRHeap</text>
<text text-anchor="middle" x="964" y="-253.5" font-family="Helvetica,sans-Serif" font-size="10.00">/JKRHeap.h</text>
</a>
</g>
</g>
<!-- Node20&#45;&gt;Node21 -->
<g id="edge36" class="edge">
<title>Node20&#45;&gt;Node21</title>
<path fill="none" stroke="midnightblue" d="M1304.2,-314.67C1301.09,-314.09 1298.01,-313.53 1295,-313 1208.84,-297.76 1109.57,-282.98 1042.39,-273.39"/>
<polygon fill="midnightblue" stroke="midnightblue" points="1042.7,-269.9 1032.3,-271.96 1041.71,-276.83 1042.7,-269.9"/>
</g>
<!-- Node22 -->
<g id="node22" class="node">
<title>Node22</title>
<g id="a_node22"><a xlink:href="GX_8h.html" target="_top" xlink:title=" ">
<polygon fill="white" stroke="black" points="1088.5,-185 1088.5,-204 1139.5,-204 1139.5,-185 1088.5,-185"/>
<text text-anchor="middle" x="1114" y="-192" font-family="Helvetica,sans-Serif" font-size="10.00">gx/GX.h</text>
</a>
</g>
</g>
<!-- Node20&#45;&gt;Node22 -->
<g id="edge41" class="edge">
<title>Node20&#45;&gt;Node22</title>
<path fill="none" stroke="midnightblue" d="M1339.92,-313.37C1290.79,-287.74 1187.59,-233.9 1139.58,-208.85"/>
<polygon fill="midnightblue" stroke="midnightblue" points="1140.96,-205.62 1130.48,-204.1 1137.72,-211.83 1140.96,-205.62"/>
</g>
<!-- Node21&#45;&gt;Node4 -->
<g id="edge37" class="edge">
<title>Node21&#45;&gt;Node4</title>
<path fill="none" stroke="midnightblue" d="M920.17,-246.4C889.46,-236.52 848.25,-223.25 815.59,-212.74"/>
<polygon fill="midnightblue" stroke="midnightblue" points="816.34,-209.31 805.75,-209.58 814.19,-215.97 816.34,-209.31"/>
</g>
<!-- Node21&#45;&gt;Node6 -->
<g id="edge38" class="edge">
<title>Node21&#45;&gt;Node6</title>
<path fill="none" stroke="midnightblue" d="M962.02,-246.25C956.22,-209.7 935.99,-111.56 880,-56 863.31,-39.43 839.73,-28.75 818.5,-21.96"/>
<polygon fill="midnightblue" stroke="midnightblue" points="819.22,-18.52 808.63,-19.03 817.22,-25.23 819.22,-18.52"/>
</g>
<!-- Node21&#45;&gt;Node10 -->
<g id="edge39" class="edge">
<title>Node21&#45;&gt;Node10</title>
<path fill="none" stroke="midnightblue" d="M895.62,-247.29C892.71,-246.83 889.83,-246.4 887,-246 702.99,-219.9 480.81,-203.48 396.11,-197.77"/>
<polygon fill="midnightblue" stroke="midnightblue" points="396.22,-194.27 386.01,-197.09 395.75,-201.25 396.22,-194.27"/>
</g>
<!-- Node22&#45;&gt;Node6 -->
<g id="edge42" class="edge">
<title>Node22&#45;&gt;Node6</title>
<path fill="none" stroke="midnightblue" d="M1114.41,-184.75C1115.04,-160.18 1113.17,-90.14 1074,-56 1036.88,-23.65 895.93,-14.56 818.95,-12"/>
<polygon fill="midnightblue" stroke="midnightblue" points="818.63,-8.49 808.53,-11.68 818.41,-15.49 818.63,-8.49"/>
</g>
<!-- Node23&#45;&gt;Node6 -->
<g id="edge61" class="edge">
<title>Node23&#45;&gt;Node6</title>
<path fill="none" stroke="midnightblue" d="M801.74,-453C809.44,-450.8 817.42,-448.7 825,-447 928.53,-423.77 956.31,-428.26 1061,-411 1229.35,-383.24 1315.16,-461.37 1439,-344 1466,-318.41 1458,-299.69 1458,-262.5 1458,-262.5 1458,-262.5 1458,-126.5 1458,-28.89 1345.47,-76.34 1250,-56 1095.22,-23.02 907.37,-14.21 818.83,-11.86"/>
<polygon fill="midnightblue" stroke="midnightblue" points="818.87,-8.36 808.79,-11.61 818.7,-15.36 818.87,-8.36"/>
</g>
<!-- Node23&#45;&gt;Node21 -->
<g id="edge48" class="edge">
<title>Node23&#45;&gt;Node21</title>
<path fill="none" stroke="midnightblue" d="M785.66,-452.88C822.19,-433.01 886.47,-393.62 926,-344 939.77,-326.71 949.94,-303.61 956.27,-286.42"/>
<polygon fill="midnightblue" stroke="midnightblue" points="959.71,-287.18 959.72,-276.58 953.11,-284.86 959.71,-287.18"/>
</g>
<!-- Node24 -->
<g id="node24" class="node">
<title>Node24</title>
<g id="a_node24"><a xlink:href="JKRExpHeap_8h.html" target="_top" xlink:title=" ">
<polygon fill="white" stroke="black" points="982,-313.5 982,-343.5 1134,-343.5 1134,-313.5 982,-313.5"/>
<text text-anchor="start" x="990" y="-331.5" font-family="Helvetica,sans-Serif" font-size="10.00">JSystem/JKernel/JKRExpHeap</text>
<text text-anchor="middle" x="1058" y="-320.5" font-family="Helvetica,sans-Serif" font-size="10.00">/JKRExpHeap.h</text>
</a>
</g>
</g>
<!-- Node23&#45;&gt;Node24 -->
<g id="edge45" class="edge">
<title>Node23&#45;&gt;Node24</title>
<path fill="none" stroke="midnightblue" d="M811.98,-452.94C873.03,-436.98 964.48,-412.92 968,-411 996.23,-395.64 1022.75,-369.68 1039.59,-351.18"/>
<polygon fill="midnightblue" stroke="midnightblue" points="1042.37,-353.32 1046.4,-343.52 1037.14,-348.67 1042.37,-353.32"/>
</g>
<!-- Node25 -->
<g id="node25" class="node">
<title>Node25</title>
<g id="a_node25"><a xlink:href="JKRSolidHeap_8h.html" target="_top" xlink:title=" ">
<polygon fill="white" stroke="black" points="1152,-313.5 1152,-343.5 1286,-343.5 1286,-313.5 1152,-313.5"/>
<text text-anchor="start" x="1160" y="-331.5" font-family="Helvetica,sans-Serif" font-size="10.00">JSystem/JKernel/JKRSolid</text>
<text text-anchor="middle" x="1219" y="-320.5" font-family="Helvetica,sans-Serif" font-size="10.00">Heap/JKRSolidHeap.h</text>
</a>
</g>
</g>
<!-- Node23&#45;&gt;Node25 -->
<g id="edge49" class="edge">
<title>Node23&#45;&gt;Node25</title>
<path fill="none" stroke="midnightblue" d="M810.95,-452.94C818.99,-450.89 827.21,-448.85 835,-447 908.87,-429.45 929.15,-432.41 1002,-411 1063.92,-392.81 1133.42,-365.42 1176.7,-347.5"/>
<polygon fill="midnightblue" stroke="midnightblue" points="1178.17,-350.68 1186.06,-343.61 1175.48,-344.22 1178.17,-350.68"/>
</g>
<!-- Node26 -->
<g id="node26" class="node">
<title>Node26</title>
<g id="a_node26"><a xlink:href="JUTConsole_8h.html" target="_top" xlink:title=" ">
<polygon fill="white" stroke="black" points="685.5,-380.5 685.5,-410.5 830.5,-410.5 830.5,-380.5 685.5,-380.5"/>
<text text-anchor="start" x="693.5" y="-398.5" font-family="Helvetica,sans-Serif" font-size="10.00">JSystem/JUtility/JUTConsole</text>
<text text-anchor="middle" x="758" y="-387.5" font-family="Helvetica,sans-Serif" font-size="10.00">/JUTConsole.h</text>
</a>
</g>
</g>
<!-- Node23&#45;&gt;Node26 -->
<g id="edge52" class="edge">
<title>Node23&#45;&gt;Node26</title>
<path fill="none" stroke="midnightblue" d="M758,-452.73C758,-443.66 758,-431.66 758,-421.08"/>
<polygon fill="midnightblue" stroke="midnightblue" points="761.5,-420.75 758,-410.75 754.5,-420.75 761.5,-420.75"/>
</g>
<!-- Node24&#45;&gt;Node6 -->
<g id="edge47" class="edge">
<title>Node24&#45;&gt;Node6</title>
<path fill="none" stroke="midnightblue" d="M1058.36,-313.24C1058.93,-289.04 1060,-238.36 1060,-195.5 1060,-195.5 1060,-195.5 1060,-126.5 1060,-75.21 902.27,-36.92 818.66,-20.23"/>
<polygon fill="midnightblue" stroke="midnightblue" points="819.09,-16.75 808.6,-18.26 817.74,-23.62 819.09,-16.75"/>
</g>
<!-- Node24&#45;&gt;Node21 -->
<g id="edge46" class="edge">
<title>Node24&#45;&gt;Node21</title>
<path fill="none" stroke="midnightblue" d="M1037.6,-313.4C1024.55,-304.37 1007.4,-292.51 992.95,-282.52"/>
<polygon fill="midnightblue" stroke="midnightblue" points="994.57,-279.39 984.36,-276.58 990.59,-285.14 994.57,-279.39"/>
</g>
<!-- Node25&#45;&gt;Node6 -->
<g id="edge51" class="edge">
<title>Node25&#45;&gt;Node6</title>
<path fill="none" stroke="midnightblue" d="M1213.99,-313.45C1205.94,-289.55 1191,-239.31 1191,-195.5 1191,-195.5 1191,-195.5 1191,-126.5 1191,-73.56 1144.06,-75.89 1095,-56 1002.62,-18.56 884.81,-11.22 818.78,-10.37"/>
<polygon fill="midnightblue" stroke="midnightblue" points="818.66,-6.86 808.64,-10.28 818.61,-13.86 818.66,-6.86"/>
</g>
<!-- Node25&#45;&gt;Node21 -->
<g id="edge50" class="edge">
<title>Node25&#45;&gt;Node21</title>
<path fill="none" stroke="midnightblue" d="M1163.98,-313.48C1124.4,-303.39 1070.87,-289.74 1029.15,-279.11"/>
<polygon fill="midnightblue" stroke="midnightblue" points="1029.91,-275.69 1019.36,-276.61 1028.18,-282.47 1029.91,-275.69"/>
</g>
<!-- Node26&#45;&gt;Node5 -->
<g id="edge54" class="edge">
<title>Node26&#45;&gt;Node5</title>
<path fill="none" stroke="midnightblue" d="M730.48,-380.49C716.57,-371.91 700.8,-359.57 692,-344 657.12,-282.3 662.78,-194.51 668.18,-152.59"/>
<polygon fill="midnightblue" stroke="midnightblue" points="671.67,-152.89 669.59,-142.5 664.74,-151.92 671.67,-152.89"/>
</g>
<!-- Node26&#45;&gt;Node6 -->
<g id="edge60" class="edge">
<title>Node26&#45;&gt;Node6</title>
<path fill="none" stroke="midnightblue" d="M745.39,-380.19C737.86,-370.66 729.01,-357.45 725,-344 712.44,-301.83 709.74,-278.86 739,-246 772.65,-208.21 817.42,-251.05 847,-210 855.06,-198.82 850,-192.45 847,-179 833.87,-120.22 797.81,-57.73 779.3,-28.27"/>
<polygon fill="midnightblue" stroke="midnightblue" points="782.09,-26.14 773.75,-19.6 776.19,-29.91 782.09,-26.14"/>
</g>
<!-- Node26&#45;&gt;Node21 -->
<g id="edge53" class="edge">
<title>Node26&#45;&gt;Node21</title>
<path fill="none" stroke="midnightblue" d="M817.83,-380.41C843.72,-372.45 873.42,-360.68 897,-344 919.16,-328.33 938.11,-303.49 950.15,-285.36"/>
<polygon fill="midnightblue" stroke="midnightblue" points="953.33,-286.87 955.79,-276.56 947.44,-283.09 953.33,-286.87"/>
</g>
<!-- Node27 -->
<g id="node27" class="node">
<title>Node27</title>
<g id="a_node27"><a xlink:href="JUTResFont_8h.html" target="_top" xlink:title=" ">
<polygon fill="white" stroke="black" points="734,-319 734,-338 888,-338 888,-319 734,-319"/>
<text text-anchor="middle" x="811" y="-326" font-family="Helvetica,sans-Serif" font-size="10.00">JSystem/JUtility/JUTResFont.h</text>
</a>
</g>
</g>
<!-- Node26&#45;&gt;Node27 -->
<g id="edge55" class="edge">
<title>Node26&#45;&gt;Node27</title>
<path fill="none" stroke="midnightblue" d="M769.5,-380.4C777.68,-370.36 788.71,-356.84 797.34,-346.25"/>
<polygon fill="midnightblue" stroke="midnightblue" points="800.3,-348.16 803.91,-338.19 794.88,-343.73 800.3,-348.16"/>
</g>
<!-- Node27&#45;&gt;Node21 -->
<g id="edge56" class="edge">
<title>Node27&#45;&gt;Node21</title>
<path fill="none" stroke="midnightblue" d="M831.32,-318.87C854.28,-309.12 892.28,-292.97 921.74,-280.45"/>
<polygon fill="midnightblue" stroke="midnightblue" points="923.14,-283.66 930.98,-276.53 920.41,-277.22 923.14,-283.66"/>
</g>
<!-- Node28 -->
<g id="node28" class="node">
<title>Node28</title>
<g id="a_node28"><a xlink:href="JUTFont_8h.html" target="_top" xlink:title=" ">
<polygon fill="white" stroke="black" points="748.5,-246.5 748.5,-276.5 877.5,-276.5 877.5,-246.5 748.5,-246.5"/>
<text text-anchor="start" x="756.5" y="-264.5" font-family="Helvetica,sans-Serif" font-size="10.00">JSystem/JUtility/JUTFont</text>
<text text-anchor="middle" x="813" y="-253.5" font-family="Helvetica,sans-Serif" font-size="10.00">/JUTFont.h</text>
</a>
</g>
</g>
<!-- Node27&#45;&gt;Node28 -->
<g id="edge57" class="edge">
<title>Node27&#45;&gt;Node28</title>
<path fill="none" stroke="midnightblue" d="M811.27,-318.73C811.52,-310.54 811.91,-297.92 812.25,-286.71"/>
<polygon fill="midnightblue" stroke="midnightblue" points="815.76,-286.69 812.57,-276.59 808.76,-286.48 815.76,-286.69"/>
</g>
<!-- Node28&#45;&gt;Node10 -->
<g id="edge58" class="edge">
<title>Node28&#45;&gt;Node10</title>
<path fill="none" stroke="midnightblue" d="M748.24,-251.19C651.25,-237.24 471.6,-211.41 395.99,-200.53"/>
<polygon fill="midnightblue" stroke="midnightblue" points="396.42,-197.06 386.03,-199.1 395.43,-203.99 396.42,-197.06"/>
</g>
<!-- Node28&#45;&gt;Node22 -->
<g id="edge59" class="edge">
<title>Node28&#45;&gt;Node22</title>
<path fill="none" stroke="midnightblue" d="M877.57,-246.56C939.02,-233.29 1029.2,-213.81 1078.53,-203.16"/>
<polygon fill="midnightblue" stroke="midnightblue" points="1079.38,-206.56 1088.41,-201.03 1077.9,-199.72 1079.38,-206.56"/>
</g>
</g>
</svg>
        <g id="navigator" transform="translate(0 0)" fill="#404254">
                <rect fill="#f2f5e9" fill-opacity="0.5" stroke="#606060" stroke-width=".5" x="0" y="0" width="60" height="60"/>
                <use id="zoomplus" xlink:href="#zoomPlus" x="17" y="9" onmousedown="handleZoom(evt,'in')"/>
                <use id="zoomminus" xlink:href="#zoomMin" x="42" y="9" onmousedown="handleZoom(evt,'out')"/>
                <use id="reset" xlink:href="#resetDef" x="30" y="36" onmousedown="handleReset()"/>
                <g id="arrowUp" xlink:href="#dirArrow" transform="translate(30 24)" onmousedown="handlePan(0,-1)">
                  <use xlink:href="#rim" fill="#404040">
                        <set attributeName="fill" to="#808080" begin="arrowUp.mouseover" end="arrowUp.mouseout"/>
                  </use>
                  <path fill="none" stroke="white" stroke-width="1.5" d="M0,-3.0v7 M-2.5,-0.5L0,-3.0L2.5,-0.5"/>
                </g>
                <g id="arrowRight" xlink:href="#dirArrow" transform="rotate(90) translate(36 -43)" onmousedown="handlePan(1,0)">
                  <use xlink:href="#rim" fill="#404040">
                        <set attributeName="fill" to="#808080" begin="arrowRight.mouseover" end="arrowRight.mouseout"/>
                  </use>
                  <path fill="none" stroke="white" stroke-width="1.5" d="M0,-3.0v7 M-2.5,-0.5L0,-3.0L2.5,-0.5"/>
                </g>
                <g id="arrowDown" xlink:href="#dirArrow" transform="rotate(180) translate(-30 -48)" onmousedown="handlePan(0,1)">
                  <use xlink:href="#rim" fill="#404040">
                        <set attributeName="fill" to="#808080" begin="arrowDown.mouseover" end="arrowDown.mouseout"/>
                  </use>
                  <path fill="none" stroke="white" stroke-width="1.5" d="M0,-3.0v7 M-2.5,-0.5L0,-3.0L2.5,-0.5"/>
                </g>
                <g id="arrowLeft" xlink:href="#dirArrow" transform="rotate(270) translate(-36 17)" onmousedown="handlePan(-1,0)">
                  <use xlink:href="#rim" fill="#404040">
                        <set attributeName="fill" to="#808080" begin="arrowLeft.mouseover" end="arrowLeft.mouseout"/>
                  </use>
                  <path fill="none" stroke="white" stroke-width="1.5" d="M0,-3.0v7 M-2.5,-0.5L0,-3.0L2.5,-0.5"/>
                </g>
        </g>
        <svg viewBox="0 0 15 15" width="100%" height="30px" preserveAspectRatio="xMaxYMin meet">
         <g id="arrow_out" transform="scale(0.3 0.3)">
          <a xlink:href="m__Do__controller__pad_8cpp__incl_org.svg" target="_base">
           <rect id="button" ry="5" rx="5" y="6" x="6" height="38" width="38"
                fill="#f2f5e9" fill-opacity="0.5" stroke="#606060" stroke-width="1.0"/>
           <path id="arrow"
             d="M 11.500037,31.436501 C 11.940474,20.09759 22.043105,11.32322 32.158766,21.979434 L 37.068811,17.246167 C 37.068811,17.246167 37.088388,32 37.088388,32 L 22.160133,31.978069 C 22.160133,31.978069 26.997745,27.140456 26.997745,27.140456 C 18.528582,18.264221 13.291696,25.230495 11.500037,31.436501 z"
             style="fill:#404040;"/>
          </a>
         </g>
        </svg>
</svg>
