<?xml version="1.0" encoding="UTF-8" standalone="no"?>
<!DOCTYPE svg PUBLIC "-//W3C//DTD SVG 1.1//EN"
 "http://www.w3.org/Graphics/SVG/1.1/DTD/svg11.dtd">
<!-- Generated by graphviz version 2.44.0 ()
 -->
<!-- Title: src/m_Do/m_Do_DVDError.cpp Pages: 1 -->
<svg width="780pt" height="263pt"
 viewBox="0.00 0.00 779.50 263.00" xmlns="http://www.w3.org/2000/svg" xmlns:xlink="http://www.w3.org/1999/xlink">
<g id="graph0" class="graph" transform="scale(1 1) rotate(0) translate(4 259)">
<title>src/m_Do/m_Do_DVDError.cpp</title>
<polygon fill="white" stroke="transparent" points="-4,4 -4,-259 775.5,-259 775.5,4 -4,4"/>
<!-- Node1 -->
<g id="node1" class="node">
<title>Node1</title>
<g id="a_node1"><a xlink:title=" ">
<polygon fill="#bfbfbf" stroke="black" points="236,-235.5 236,-254.5 387,-254.5 387,-235.5 236,-235.5"/>
<text text-anchor="middle" x="311.5" y="-242.5" font-family="Helvetica,sans-Serif" font-size="10.00">src/m_Do/m_Do_DVDError.cpp</text>
</a>
</g>
</g>
<!-- Node2 -->
<g id="node2" class="node">
<title>Node2</title>
<g id="a_node2"><a xlink:href="dvd_8h.html" target="_top" xlink:title=" ">
<polygon fill="white" stroke="black" points="0,-56.5 0,-75.5 59,-75.5 59,-56.5 0,-56.5"/>
<text text-anchor="middle" x="29.5" y="-63.5" font-family="Helvetica,sans-Serif" font-size="10.00">dvd/dvd.h</text>
</a>
</g>
</g>
<!-- Node1&#45;&gt;Node2 -->
<g id="edge1" class="edge">
<title>Node1&#45;&gt;Node2</title>
<path fill="none" stroke="midnightblue" d="M235.78,-236.42C196.7,-230.23 149.24,-219.07 110.5,-199 71.11,-178.59 56.64,-171.53 36.5,-132 29.17,-117.62 27.83,-99.16 28.08,-85.59"/>
<polygon fill="midnightblue" stroke="midnightblue" points="31.58,-85.7 28.57,-75.54 24.58,-85.36 31.58,-85.7"/>
</g>
<!-- Node4 -->
<g id="node4" class="node">
<title>Node4</title>
<g id="a_node4"><a xlink:href="global_8h.html" target="_top" xlink:title=" ">
<polygon fill="white" stroke="black" points="119.5,-174 119.5,-193 169.5,-193 169.5,-174 119.5,-174"/>
<text text-anchor="middle" x="144.5" y="-181" font-family="Helvetica,sans-Serif" font-size="10.00">global.h</text>
</a>
</g>
</g>
<!-- Node1&#45;&gt;Node4 -->
<g id="edge3" class="edge">
<title>Node1&#45;&gt;Node4</title>
<path fill="none" stroke="midnightblue" d="M284.28,-235.47C257.25,-226.83 214.71,-212.82 178.5,-199 176.85,-198.37 175.16,-197.71 173.47,-197.03"/>
<polygon fill="midnightblue" stroke="midnightblue" points="174.39,-193.63 163.81,-193.04 171.72,-200.09 174.39,-193.63"/>
</g>
<!-- Node9 -->
<g id="node9" class="node">
<title>Node9</title>
<g id="a_node9"><a xlink:title=" ">
<polygon fill="white" stroke="#bfbfbf" points="187.5,-174 187.5,-193 235.5,-193 235.5,-174 187.5,-174"/>
<text text-anchor="middle" x="211.5" y="-181" font-family="Helvetica,sans-Serif" font-size="10.00">os/os.h</text>
</a>
</g>
</g>
<!-- Node1&#45;&gt;Node9 -->
<g id="edge13" class="edge">
<title>Node1&#45;&gt;Node9</title>
<path fill="none" stroke="midnightblue" d="M297.17,-235.48C280.84,-225.75 253.9,-209.73 234.59,-198.24"/>
<polygon fill="midnightblue" stroke="midnightblue" points="236.18,-195.11 225.8,-193.01 232.61,-201.13 236.18,-195.11"/>
</g>
<!-- Node10 -->
<g id="node10" class="node">
<title>Node10</title>
<g id="a_node10"><a xlink:title=" ">
<polygon fill="white" stroke="#bfbfbf" points="253.5,-168.5 253.5,-198.5 369.5,-198.5 369.5,-168.5 253.5,-168.5"/>
<text text-anchor="start" x="261.5" y="-186.5" font-family="Helvetica,sans-Serif" font-size="10.00">m_Do/m_Do_DVDError</text>
<text text-anchor="middle" x="311.5" y="-175.5" font-family="Helvetica,sans-Serif" font-size="10.00">/asm/func_8001659C.s</text>
</a>
</g>
</g>
<!-- Node1&#45;&gt;Node10 -->
<g id="edge14" class="edge">
<title>Node1&#45;&gt;Node10</title>
<path fill="none" stroke="midnightblue" d="M311.5,-235.48C311.5,-228.47 311.5,-218.19 311.5,-208.7"/>
<polygon fill="midnightblue" stroke="midnightblue" points="315,-208.52 311.5,-198.52 308,-208.52 315,-208.52"/>
</g>
<!-- Node11 -->
<g id="node11" class="node">
<title>Node11</title>
<g id="a_node11"><a xlink:title=" ">
<polygon fill="white" stroke="#bfbfbf" points="387.5,-168.5 387.5,-198.5 503.5,-198.5 503.5,-168.5 387.5,-168.5"/>
<text text-anchor="start" x="395.5" y="-186.5" font-family="Helvetica,sans-Serif" font-size="10.00">m_Do/m_Do_DVDError</text>
<text text-anchor="middle" x="445.5" y="-175.5" font-family="Helvetica,sans-Serif" font-size="10.00">/asm/func_8001665C.s</text>
</a>
</g>
</g>
<!-- Node1&#45;&gt;Node11 -->
<g id="edge15" class="edge">
<title>Node1&#45;&gt;Node11</title>
<path fill="none" stroke="midnightblue" d="M330.7,-235.48C349.87,-226.96 379.92,-213.62 404.47,-202.72"/>
<polygon fill="midnightblue" stroke="midnightblue" points="406.2,-205.78 413.92,-198.52 403.36,-199.38 406.2,-205.78"/>
</g>
<!-- Node12 -->
<g id="node12" class="node">
<title>Node12</title>
<g id="a_node12"><a xlink:title=" ">
<polygon fill="white" stroke="#bfbfbf" points="521.5,-168.5 521.5,-198.5 637.5,-198.5 637.5,-168.5 521.5,-168.5"/>
<text text-anchor="start" x="529.5" y="-186.5" font-family="Helvetica,sans-Serif" font-size="10.00">m_Do/m_Do_DVDError</text>
<text text-anchor="middle" x="579.5" y="-175.5" font-family="Helvetica,sans-Serif" font-size="10.00">/asm/func_800166A4.s</text>
</a>
</g>
</g>
<!-- Node1&#45;&gt;Node12 -->
<g id="edge16" class="edge">
<title>Node1&#45;&gt;Node12</title>
<path fill="none" stroke="midnightblue" d="M349.9,-235.48C391.96,-226.14 460.25,-210.98 511.44,-199.61"/>
<polygon fill="midnightblue" stroke="midnightblue" points="512.43,-202.98 521.44,-197.39 510.91,-196.14 512.43,-202.98"/>
</g>
<!-- Node13 -->
<g id="node13" class="node">
<title>Node13</title>
<g id="a_node13"><a xlink:title=" ">
<polygon fill="white" stroke="#bfbfbf" points="655.5,-168.5 655.5,-198.5 771.5,-198.5 771.5,-168.5 655.5,-168.5"/>
<text text-anchor="start" x="663.5" y="-186.5" font-family="Helvetica,sans-Serif" font-size="10.00">m_Do/m_Do_DVDError</text>
<text text-anchor="middle" x="713.5" y="-175.5" font-family="Helvetica,sans-Serif" font-size="10.00">/asm/func_80016704.s</text>
</a>
</g>
</g>
<!-- Node1&#45;&gt;Node13 -->
<g id="edge17" class="edge">
<title>Node1&#45;&gt;Node13</title>
<path fill="none" stroke="midnightblue" d="M387.27,-235.57C453.01,-227.85 550.95,-215.4 645.43,-199.1"/>
<polygon fill="midnightblue" stroke="midnightblue" points="646.2,-202.52 655.45,-197.36 645,-195.63 646.2,-202.52"/>
</g>
<!-- Node3 -->
<g id="node3" class="node">
<title>Node3</title>
<g id="a_node3"><a xlink:href="types_8h.html" target="_top" xlink:title=" ">
<polygon fill="white" stroke="black" points="85,-0.5 85,-19.5 166,-19.5 166,-0.5 85,-0.5"/>
<text text-anchor="middle" x="125.5" y="-7.5" font-family="Helvetica,sans-Serif" font-size="10.00">dolphin/types.h</text>
</a>
</g>
</g>
<!-- Node2&#45;&gt;Node3 -->
<g id="edge2" class="edge">
<title>Node2&#45;&gt;Node3</title>
<path fill="none" stroke="midnightblue" d="M44.92,-56.32C60.04,-47.82 83.32,-34.73 100.97,-24.8"/>
<polygon fill="midnightblue" stroke="midnightblue" points="103.11,-27.61 110.11,-19.65 99.68,-21.51 103.11,-27.61"/>
</g>
<!-- Node4&#45;&gt;Node3 -->
<g id="edge4" class="edge">
<title>Node4&#45;&gt;Node3</title>
<path fill="none" stroke="midnightblue" d="M143.53,-173.76C140.58,-147.15 131.67,-66.71 127.59,-29.84"/>
<polygon fill="midnightblue" stroke="midnightblue" points="131.02,-29.07 126.44,-19.52 124.07,-29.84 131.02,-29.07"/>
</g>
<!-- Node5 -->
<g id="node5" class="node">
<title>Node5</title>
<g id="a_node5"><a xlink:href="AR_8h.html" target="_top" xlink:title=" ">
<polygon fill="white" stroke="black" points="154,-56.5 154,-75.5 203,-75.5 203,-56.5 154,-56.5"/>
<text text-anchor="middle" x="178.5" y="-63.5" font-family="Helvetica,sans-Serif" font-size="10.00">ar/AR.h</text>
</a>
</g>
</g>
<!-- Node4&#45;&gt;Node5 -->
<g id="edge5" class="edge">
<title>Node4&#45;&gt;Node5</title>
<path fill="none" stroke="midnightblue" d="M147.06,-173.82C152.54,-155.17 165.56,-110.94 173.02,-85.63"/>
<polygon fill="midnightblue" stroke="midnightblue" points="176.45,-86.36 175.91,-75.78 169.73,-84.39 176.45,-86.36"/>
</g>
<!-- Node6 -->
<g id="node6" class="node">
<title>Node6</title>
<g id="a_node6"><a xlink:href="ARQ_8h.html" target="_top" xlink:title=" ">
<polygon fill="white" stroke="black" points="221.5,-56.5 221.5,-75.5 277.5,-75.5 277.5,-56.5 221.5,-56.5"/>
<text text-anchor="middle" x="249.5" y="-63.5" font-family="Helvetica,sans-Serif" font-size="10.00">ar/ARQ.h</text>
</a>
</g>
</g>
<!-- Node4&#45;&gt;Node6 -->
<g id="edge7" class="edge">
<title>Node4&#45;&gt;Node6</title>
<path fill="none" stroke="midnightblue" d="M152.39,-173.82C169.87,-154.59 212.1,-108.14 234.68,-83.31"/>
<polygon fill="midnightblue" stroke="midnightblue" points="237.38,-85.54 241.52,-75.78 232.2,-80.83 237.38,-85.54"/>
</g>
<!-- Node7 -->
<g id="node7" class="node">
<title>Node7</title>
<g id="a_node7"><a xlink:href="mwcc_8h.html" target="_top" xlink:title=" ">
<polygon fill="white" stroke="black" points="229.5,-112.5 229.5,-131.5 279.5,-131.5 279.5,-112.5 229.5,-112.5"/>
<text text-anchor="middle" x="254.5" y="-119.5" font-family="Helvetica,sans-Serif" font-size="10.00">mwcc.h</text>
</a>
</g>
</g>
<!-- Node4&#45;&gt;Node7 -->
<g id="edge9" class="edge">
<title>Node4&#45;&gt;Node7</title>
<path fill="none" stroke="midnightblue" d="M160.26,-173.98C178.48,-164.12 208.67,-147.79 229.97,-136.27"/>
<polygon fill="midnightblue" stroke="midnightblue" points="231.64,-139.35 238.77,-131.51 228.31,-133.19 231.64,-139.35"/>
</g>
<!-- Node8 -->
<g id="node8" class="node">
<title>Node8</title>
<g id="a_node8"><a xlink:href="OS_8h.html" target="_top" xlink:title=" ">
<polygon fill="white" stroke="black" points="45.5,-112.5 45.5,-131.5 97.5,-131.5 97.5,-112.5 45.5,-112.5"/>
<text text-anchor="middle" x="71.5" y="-119.5" font-family="Helvetica,sans-Serif" font-size="10.00">os/OS.h</text>
</a>
</g>
</g>
<!-- Node4&#45;&gt;Node8 -->
<g id="edge10" class="edge">
<title>Node4&#45;&gt;Node8</title>
<path fill="none" stroke="midnightblue" d="M134.04,-173.98C122.55,-164.61 103.87,-149.38 89.91,-138.01"/>
<polygon fill="midnightblue" stroke="midnightblue" points="91.9,-135.11 81.94,-131.51 87.48,-140.54 91.9,-135.11"/>
</g>
<!-- Node5&#45;&gt;Node3 -->
<g id="edge6" class="edge">
<title>Node5&#45;&gt;Node3</title>
<path fill="none" stroke="midnightblue" d="M169.75,-56.08C162.03,-48.22 150.6,-36.57 141.28,-27.08"/>
<polygon fill="midnightblue" stroke="midnightblue" points="143.59,-24.44 134.09,-19.75 138.6,-29.34 143.59,-24.44"/>
</g>
<!-- Node6&#45;&gt;Node3 -->
<g id="edge8" class="edge">
<title>Node6&#45;&gt;Node3</title>
<path fill="none" stroke="midnightblue" d="M229.85,-56.44C209.54,-47.6 177.6,-33.69 154.4,-23.59"/>
<polygon fill="midnightblue" stroke="midnightblue" points="155.62,-20.3 145.06,-19.52 152.83,-26.72 155.62,-20.3"/>
</g>
<!-- Node8&#45;&gt;Node2 -->
<g id="edge12" class="edge">
<title>Node8&#45;&gt;Node2</title>
<path fill="none" stroke="midnightblue" d="M64.56,-112.08C58.57,-104.38 49.75,-93.03 42.45,-83.65"/>
<polygon fill="midnightblue" stroke="midnightblue" points="45.21,-81.5 36.31,-75.75 39.68,-85.79 45.21,-81.5"/>
</g>
<!-- Node8&#45;&gt;Node3 -->
<g id="edge11" class="edge">
<title>Node8&#45;&gt;Node3</title>
<path fill="none" stroke="midnightblue" d="M75.74,-112.37C84.57,-94.38 105.1,-52.55 116.85,-28.63"/>
<polygon fill="midnightblue" stroke="midnightblue" points="120.02,-30.11 121.28,-19.59 113.73,-27.03 120.02,-30.11"/>
</g>
</g>
</svg>
