<?xml version="1.0" encoding="UTF-8" standalone="no"?>
<!DOCTYPE svg PUBLIC "-//W3C//DTD SVG 1.1//EN"
 "http://www.w3.org/Graphics/SVG/1.1/DTD/svg11.dtd">
<!-- Generated by graphviz version 2.44.0 ()
 -->
<!-- Title: include/msl_c/math.h Pages: 1 -->
<svg width="1790pt" height="95pt"
 viewBox="0.00 0.00 1789.50 95.00" xmlns="http://www.w3.org/2000/svg" xmlns:xlink="http://www.w3.org/1999/xlink">
<g id="graph0" class="graph" transform="scale(1 1) rotate(0) translate(4 91)">
<title>include/msl_c/math.h</title>
<polygon fill="white" stroke="transparent" points="-4,4 -4,-91 1785.5,-91 1785.5,4 -4,4"/>
<!-- Node1 -->
<g id="node1" class="node">
<title>Node1</title>
<g id="a_node1"><a xlink:title=" ">
<polygon fill="#bfbfbf" stroke="black" points="760,-67.5 760,-86.5 869,-86.5 869,-67.5 760,-67.5"/>
<text text-anchor="middle" x="814.5" y="-74.5" font-family="Helvetica,sans-Serif" font-size="10.00">include/msl_c/math.h</text>
</a>
</g>
</g>
<!-- Node2 -->
<g id="node2" class="node">
<title>Node2</title>
<g id="a_node2"><a xlink:href="d__attention_8cpp.html" target="_top" xlink:title=" ">
<polygon fill="white" stroke="black" points="0,-6 0,-25 107,-25 107,-6 0,-6"/>
<text text-anchor="middle" x="53.5" y="-13" font-family="Helvetica,sans-Serif" font-size="10.00">src/d/d_attention.cpp</text>
</a>
</g>
</g>
<!-- Node1&#45;&gt;Node2 -->
<g id="edge1" class="edge">
<title>Node1&#45;&gt;Node2</title>
<path fill="none" stroke="midnightblue" d="M749.72,-75.4C625.86,-73.46 347.17,-65.31 115.5,-31 105.66,-29.54 95.07,-27.32 85.48,-25.05"/>
<polygon fill="midnightblue" stroke="midnightblue" points="749.75,-78.9 759.8,-75.55 749.85,-71.9 749.75,-78.9"/>
</g>
<!-- Node3 -->
<g id="node3" class="node">
<title>Node3</title>
<g id="a_node3"><a xlink:href="d__camera_8cpp.html" target="_top" xlink:title=" ">
<polygon fill="white" stroke="black" points="124.5,-6 124.5,-25 226.5,-25 226.5,-6 124.5,-6"/>
<text text-anchor="middle" x="175.5" y="-13" font-family="Helvetica,sans-Serif" font-size="10.00">src/d/d_camera.cpp</text>
</a>
</g>
</g>
<!-- Node1&#45;&gt;Node3 -->
<g id="edge2" class="edge">
<title>Node1&#45;&gt;Node3</title>
<path fill="none" stroke="midnightblue" d="M749.85,-74.34C642.44,-70.83 420.72,-60.39 235.5,-31 226.08,-29.51 215.96,-27.3 206.76,-25.05"/>
<polygon fill="midnightblue" stroke="midnightblue" points="749.77,-77.84 759.88,-74.66 750,-70.84 749.77,-77.84"/>
</g>
<!-- Node4 -->
<g id="node4" class="node">
<title>Node4</title>
<g id="a_node4"><a xlink:href="d__kankyo__rain_8cpp.html" target="_top" xlink:title=" ">
<polygon fill="white" stroke="black" points="245,-0.5 245,-30.5 372,-30.5 372,-0.5 245,-0.5"/>
<text text-anchor="start" x="253" y="-18.5" font-family="Helvetica,sans-Serif" font-size="10.00">src/d/d_kankyo/d_kankyo</text>
<text text-anchor="middle" x="308.5" y="-7.5" font-family="Helvetica,sans-Serif" font-size="10.00">_rain.cpp</text>
</a>
</g>
</g>
<!-- Node1&#45;&gt;Node4 -->
<g id="edge3" class="edge">
<title>Node1&#45;&gt;Node4</title>
<path fill="none" stroke="midnightblue" d="M749.8,-71.23C664.78,-64.52 510.93,-50.85 380.5,-31 377.73,-30.58 374.9,-30.12 372.04,-29.64"/>
<polygon fill="midnightblue" stroke="midnightblue" points="749.58,-74.72 759.82,-72.01 750.12,-67.74 749.58,-74.72"/>
</g>
<!-- Node5 -->
<g id="node5" class="node">
<title>Node5</title>
<g id="a_node5"><a xlink:href="d__kankyo_8cpp.html" target="_top" xlink:title=" ">
<polygon fill="white" stroke="black" points="390,-6 390,-25 491,-25 491,-6 390,-6"/>
<text text-anchor="middle" x="440.5" y="-13" font-family="Helvetica,sans-Serif" font-size="10.00">src/d/d_kankyo.cpp</text>
</a>
</g>
</g>
<!-- Node1&#45;&gt;Node5 -->
<g id="edge4" class="edge">
<title>Node1&#45;&gt;Node5</title>
<path fill="none" stroke="midnightblue" d="M749.95,-68.68C686.05,-60.98 585.6,-47.69 499.5,-31 490.8,-29.31 481.46,-27.17 472.83,-25.06"/>
<polygon fill="midnightblue" stroke="midnightblue" points="749.53,-72.15 759.88,-69.86 750.36,-65.2 749.53,-72.15"/>
</g>
<!-- Node6 -->
<g id="node6" class="node">
<title>Node6</title>
<g id="a_node6"><a xlink:href="f__op__actor__mng_8cpp.html" target="_top" xlink:title=" ">
<polygon fill="white" stroke="black" points="509,-0.5 509,-30.5 616,-30.5 616,-0.5 509,-0.5"/>
<text text-anchor="start" x="517" y="-18.5" font-family="Helvetica,sans-Serif" font-size="10.00">src/f/f_op/f_op_actor</text>
<text text-anchor="middle" x="562.5" y="-7.5" font-family="Helvetica,sans-Serif" font-size="10.00">_mng.cpp</text>
</a>
</g>
</g>
<!-- Node1&#45;&gt;Node6 -->
<g id="edge5" class="edge">
<title>Node1&#45;&gt;Node6</title>
<path fill="none" stroke="midnightblue" d="M768.49,-65.14C725.53,-54.99 661.42,-39.86 616.15,-29.17"/>
<polygon fill="midnightblue" stroke="midnightblue" points="767.86,-68.58 778.39,-67.48 769.47,-61.77 767.86,-68.58"/>
</g>
<!-- Node7 -->
<g id="node7" class="node">
<title>Node7</title>
<g id="a_node7"><a xlink:href="functionvalue_8cpp.html" target="_top" xlink:title=" ">
<polygon fill="white" stroke="black" points="634,-0.5 634,-30.5 743,-30.5 743,-0.5 634,-0.5"/>
<text text-anchor="start" x="642" y="-18.5" font-family="Helvetica,sans-Serif" font-size="10.00">libs/JSystem/JStudio</text>
<text text-anchor="middle" x="688.5" y="-7.5" font-family="Helvetica,sans-Serif" font-size="10.00">/functionvalue.cpp</text>
</a>
</g>
</g>
<!-- Node1&#45;&gt;Node7 -->
<g id="edge6" class="edge">
<title>Node1&#45;&gt;Node7</title>
<path fill="none" stroke="midnightblue" d="M787.39,-63.2C767.03,-53.58 739.16,-40.42 718.2,-30.52"/>
<polygon fill="midnightblue" stroke="midnightblue" points="785.91,-66.37 796.45,-67.48 788.9,-60.04 785.91,-66.37"/>
</g>
<!-- Node8 -->
<g id="node8" class="node">
<title>Node8</title>
<g id="a_node8"><a xlink:href="JUTGamePad_8cpp.html" target="_top" xlink:title=" ">
<polygon fill="white" stroke="black" points="761.5,-0.5 761.5,-30.5 867.5,-30.5 867.5,-0.5 761.5,-0.5"/>
<text text-anchor="start" x="769.5" y="-18.5" font-family="Helvetica,sans-Serif" font-size="10.00">libs/JSystem/JUtility</text>
<text text-anchor="middle" x="814.5" y="-7.5" font-family="Helvetica,sans-Serif" font-size="10.00">/JUTGamePad.cpp</text>
</a>
</g>
</g>
<!-- Node1&#45;&gt;Node8 -->
<g id="edge7" class="edge">
<title>Node1&#45;&gt;Node8</title>
<path fill="none" stroke="midnightblue" d="M814.5,-57.23C814.5,-48.59 814.5,-38.5 814.5,-30.52"/>
<polygon fill="midnightblue" stroke="midnightblue" points="811,-57.48 814.5,-67.48 818,-57.48 811,-57.48"/>
</g>
<!-- Node9 -->
<g id="node9" class="node">
<title>Node9</title>
<g id="a_node9"><a xlink:href="c__angle_8cpp.html" target="_top" xlink:title=" ">
<polygon fill="white" stroke="black" points="885.5,-0.5 885.5,-30.5 1019.5,-30.5 1019.5,-0.5 885.5,-0.5"/>
<text text-anchor="start" x="893.5" y="-18.5" font-family="Helvetica,sans-Serif" font-size="10.00">libs/SSystem/SComponent</text>
<text text-anchor="middle" x="952.5" y="-7.5" font-family="Helvetica,sans-Serif" font-size="10.00">/c_angle.cpp</text>
</a>
</g>
</g>
<!-- Node1&#45;&gt;Node9 -->
<g id="edge8" class="edge">
<title>Node1&#45;&gt;Node9</title>
<path fill="none" stroke="midnightblue" d="M843.58,-63.46C865.94,-53.82 896.81,-40.51 919.98,-30.52"/>
<polygon fill="midnightblue" stroke="midnightblue" points="842.07,-60.3 834.27,-67.48 844.84,-66.73 842.07,-60.3"/>
</g>
<!-- Node10 -->
<g id="node10" class="node">
<title>Node10</title>
<g id="a_node10"><a xlink:href="c__m3d__g__pla_8cpp.html" target="_top" xlink:title=" ">
<polygon fill="white" stroke="black" points="1037.5,-0.5 1037.5,-30.5 1171.5,-30.5 1171.5,-0.5 1037.5,-0.5"/>
<text text-anchor="start" x="1045.5" y="-18.5" font-family="Helvetica,sans-Serif" font-size="10.00">libs/SSystem/SComponent</text>
<text text-anchor="middle" x="1104.5" y="-7.5" font-family="Helvetica,sans-Serif" font-size="10.00">/c_m3d_g_pla.cpp</text>
</a>
</g>
</g>
<!-- Node1&#45;&gt;Node10 -->
<g id="edge9" class="edge">
<title>Node1&#45;&gt;Node10</title>
<path fill="none" stroke="midnightblue" d="M865.86,-65.46C913.6,-55.67 985.01,-41.02 1037.27,-30.29"/>
<polygon fill="midnightblue" stroke="midnightblue" points="865.14,-62.04 856.05,-67.48 866.55,-68.89 865.14,-62.04"/>
</g>
<!-- Node11 -->
<g id="node11" class="node">
<title>Node11</title>
<g id="a_node11"><a xlink:href="c__math_8cpp.html" target="_top" xlink:title=" ">
<polygon fill="white" stroke="black" points="1189.5,-0.5 1189.5,-30.5 1323.5,-30.5 1323.5,-0.5 1189.5,-0.5"/>
<text text-anchor="start" x="1197.5" y="-18.5" font-family="Helvetica,sans-Serif" font-size="10.00">libs/SSystem/SComponent</text>
<text text-anchor="middle" x="1256.5" y="-7.5" font-family="Helvetica,sans-Serif" font-size="10.00">/c_math.cpp</text>
</a>
</g>
</g>
<!-- Node1&#45;&gt;Node11 -->
<g id="edge10" class="edge">
<title>Node1&#45;&gt;Node11</title>
<path fill="none" stroke="midnightblue" d="M879.23,-69.35C952.51,-61.52 1075.39,-47.47 1180.5,-31 1183.42,-30.54 1186.4,-30.06 1189.41,-29.55"/>
<polygon fill="midnightblue" stroke="midnightblue" points="878.8,-65.88 869.22,-70.41 879.54,-72.84 878.8,-65.88"/>
</g>
<!-- Node12 -->
<g id="node12" class="node">
<title>Node12</title>
<g id="a_node12"><a xlink:href="c__xyz_8cpp.html" target="_top" xlink:title=" ">
<polygon fill="white" stroke="black" points="1341.5,-0.5 1341.5,-30.5 1475.5,-30.5 1475.5,-0.5 1341.5,-0.5"/>
<text text-anchor="start" x="1349.5" y="-18.5" font-family="Helvetica,sans-Serif" font-size="10.00">libs/SSystem/SComponent</text>
<text text-anchor="middle" x="1408.5" y="-7.5" font-family="Helvetica,sans-Serif" font-size="10.00">/c_xyz.cpp</text>
</a>
</g>
</g>
<!-- Node1&#45;&gt;Node12 -->
<g id="edge11" class="edge">
<title>Node1&#45;&gt;Node12</title>
<path fill="none" stroke="midnightblue" d="M879.22,-72.5C977.51,-66.71 1170.14,-53.48 1332.5,-31 1335.43,-30.59 1338.41,-30.15 1341.42,-29.68"/>
<polygon fill="midnightblue" stroke="midnightblue" points="878.93,-69.01 869.15,-73.09 879.33,-76 878.93,-69.01"/>
</g>
<!-- Node13 -->
<g id="node13" class="node">
<title>Node13</title>
<g id="a_node13"><a xlink:href="c__m3d_8cpp.html" target="_top" xlink:title=" ">
<polygon fill="white" stroke="black" points="1493.5,-0.5 1493.5,-30.5 1627.5,-30.5 1627.5,-0.5 1493.5,-0.5"/>
<text text-anchor="start" x="1501.5" y="-18.5" font-family="Helvetica,sans-Serif" font-size="10.00">libs/SSystem/SComponent</text>
<text text-anchor="middle" x="1560.5" y="-7.5" font-family="Helvetica,sans-Serif" font-size="10.00">/c_m3d.cpp</text>
</a>
</g>
</g>
<!-- Node1&#45;&gt;Node13 -->
<g id="edge12" class="edge">
<title>Node1&#45;&gt;Node13</title>
<path fill="none" stroke="midnightblue" d="M879.56,-74.25C999.57,-70.45 1263.72,-59.37 1484.5,-31 1487.43,-30.62 1490.42,-30.2 1493.43,-29.75"/>
<polygon fill="midnightblue" stroke="midnightblue" points="879.32,-70.76 869.43,-74.57 879.54,-77.76 879.32,-70.76"/>
</g>
<!-- Node14 -->
<g id="node14" class="node">
<title>Node14</title>
<g id="a_node14"><a xlink:href="Z2Calc_8cpp.html" target="_top" xlink:title=" ">
<polygon fill="white" stroke="black" points="1645.5,-6 1645.5,-25 1781.5,-25 1781.5,-6 1645.5,-6"/>
<text text-anchor="middle" x="1713.5" y="-13" font-family="Helvetica,sans-Serif" font-size="10.00">libs/Z2AudioLib/Z2Calc.cpp</text>
</a>
</g>
</g>
<!-- Node1&#45;&gt;Node14 -->
<g id="edge13" class="edge">
<title>Node1&#45;&gt;Node14</title>
<path fill="none" stroke="midnightblue" d="M879.12,-75.35C1018.16,-73.31 1355.85,-64.96 1636.5,-31 1648.65,-29.53 1661.78,-27.3 1673.69,-25.03"/>
<polygon fill="midnightblue" stroke="midnightblue" points="879.01,-71.85 869.06,-75.49 879.11,-78.85 879.01,-71.85"/>
</g>
</g>
</svg>
