<?xml version="1.0" encoding="UTF-8" standalone="no"?>
<!DOCTYPE svg PUBLIC "-//W3C//DTD SVG 1.1//EN"
 "http://www.w3.org/Graphics/SVG/1.1/DTD/svg11.dtd">
<!-- Generated by graphviz version 2.44.0 ()
 -->
<!-- Title: include/os/OS.h Pages: 1 -->
<svg width="5399pt" height="229pt"
 viewBox="0.00 0.00 5398.50 229.00" xmlns="http://www.w3.org/2000/svg" xmlns:xlink="http://www.w3.org/1999/xlink">
<g id="graph0" class="graph" transform="scale(1 1) rotate(0) translate(4 225)">
<title>include/os/OS.h</title>
<polygon fill="white" stroke="transparent" points="-4,4 -4,-225 5394.5,-225 5394.5,4 -4,4"/>
<!-- Node1 -->
<g id="node1" class="node">
<title>Node1</title>
<g id="a_node1"><a xlink:title=" ">
<polygon fill="#bfbfbf" stroke="black" points="4765.5,-201.5 4765.5,-220.5 4851.5,-220.5 4851.5,-201.5 4765.5,-201.5"/>
<text text-anchor="middle" x="4808.5" y="-208.5" font-family="Helvetica,sans-Serif" font-size="10.00">include/os/OS.h</text>
</a>
</g>
</g>
<!-- Node2 -->
<g id="node2" class="node">
<title>Node2</title>
<g id="a_node2"><a xlink:href="d__kankyo_8cpp.html" target="_top" xlink:title=" ">
<polygon fill="white" stroke="black" points="0,-73 0,-92 101,-92 101,-73 0,-73"/>
<text text-anchor="middle" x="50.5" y="-80" font-family="Helvetica,sans-Serif" font-size="10.00">src/d/d_kankyo.cpp</text>
</a>
</g>
</g>
<!-- Node1&#45;&gt;Node2 -->
<g id="edge1" class="edge">
<title>Node1&#45;&gt;Node2</title>
<path fill="none" stroke="midnightblue" d="M4755.23,-208.98C4513.85,-204.36 3498.55,-184.66 2665.5,-165 1529.43,-138.18 1235.76,-249.37 109.5,-98 99.78,-96.69 89.33,-94.42 79.97,-92.06"/>
<polygon fill="midnightblue" stroke="midnightblue" points="4755.41,-212.49 4765.47,-209.18 4755.54,-205.49 4755.41,-212.49"/>
</g>
<!-- Node3 -->
<g id="node3" class="node">
<title>Node3</title>
<g id="a_node3"><a xlink:href="d__kyeff_8cpp.html" target="_top" xlink:title=" ">
<polygon fill="white" stroke="black" points="2675,-140 2675,-159 2788,-159 2788,-140 2675,-140"/>
<text text-anchor="middle" x="2731.5" y="-147" font-family="Helvetica,sans-Serif" font-size="10.00">src/d/d_ky/d_kyeff.cpp</text>
</a>
</g>
</g>
<!-- Node1&#45;&gt;Node3 -->
<g id="edge2" class="edge">
<title>Node1&#45;&gt;Node3</title>
<path fill="none" stroke="midnightblue" d="M4755.09,-210.23C4476.91,-211.21 3191.59,-213.01 2796.5,-165 2785.83,-163.7 2774.33,-161.43 2764.02,-159.07"/>
<polygon fill="midnightblue" stroke="midnightblue" points="4755.33,-213.73 4765.32,-210.19 4755.31,-206.73 4755.33,-213.73"/>
</g>
<!-- Node4 -->
<g id="node4" class="node">
<title>Node4</title>
<g id="a_node4"><a xlink:href="d__lib_8cpp.html" target="_top" xlink:title=" ">
<polygon fill="white" stroke="black" points="5104.5,-73 5104.5,-92 5184.5,-92 5184.5,-73 5104.5,-73"/>
<text text-anchor="middle" x="5144.5" y="-80" font-family="Helvetica,sans-Serif" font-size="10.00">src/d/d_lib.cpp</text>
</a>
</g>
</g>
<!-- Node1&#45;&gt;Node4 -->
<g id="edge3" class="edge">
<title>Node1&#45;&gt;Node4</title>
<path fill="none" stroke="midnightblue" d="M4816.78,-192.11C4826.02,-174.3 4842.71,-147.71 4865.5,-134 4953.78,-80.89 4993.94,-120.39 5094.5,-98 5102,-96.33 5110.03,-94.17 5117.41,-92.03"/>
<polygon fill="midnightblue" stroke="midnightblue" points="4813.59,-190.67 4812.32,-201.19 4819.87,-193.75 4813.59,-190.67"/>
</g>
<!-- Node5 -->
<g id="node5" class="node">
<title>Node5</title>
<g id="a_node5"><a xlink:href="d__save_8cpp.html" target="_top" xlink:title=" ">
<polygon fill="white" stroke="black" points="4617,-140 4617,-159 4742,-159 4742,-140 4617,-140"/>
<text text-anchor="middle" x="4679.5" y="-147" font-family="Helvetica,sans-Serif" font-size="10.00">src/d/d_save/d_save.cpp</text>
</a>
</g>
</g>
<!-- Node1&#45;&gt;Node5 -->
<g id="edge4" class="edge">
<title>Node1&#45;&gt;Node5</title>
<path fill="none" stroke="midnightblue" d="M4780.69,-197.17C4755.66,-185.63 4719.58,-168.99 4697.95,-159.01"/>
<polygon fill="midnightblue" stroke="midnightblue" points="4779.47,-200.46 4790.02,-201.48 4782.4,-194.11 4779.47,-200.46"/>
</g>
<!-- Node6 -->
<g id="node6" class="node">
<title>Node6</title>
<g id="a_node6"><a xlink:href="m__Do__printf_8cpp.html" target="_top" xlink:title=" ">
<polygon fill="white" stroke="black" points="4934.5,-6 4934.5,-25 5066.5,-25 5066.5,-6 4934.5,-6"/>
<text text-anchor="middle" x="5000.5" y="-13" font-family="Helvetica,sans-Serif" font-size="10.00">src/m_Do/m_Do_printf.cpp</text>
</a>
</g>
</g>
<!-- Node1&#45;&gt;Node6 -->
<g id="edge5" class="edge">
<title>Node1&#45;&gt;Node6</title>
<path fill="none" stroke="midnightblue" d="M4861.69,-208.09C4967.84,-203.74 5197.88,-191.34 5221.5,-165 5244.62,-139.23 5205.01,-77 5193.5,-67 5158.6,-36.67 5107.61,-24.24 5066.81,-19.29"/>
<polygon fill="midnightblue" stroke="midnightblue" points="4861.36,-204.6 4851.51,-208.5 4861.64,-211.6 4861.36,-204.6"/>
</g>
<!-- Node7 -->
<g id="node7" class="node">
<title>Node7</title>
<g id="a_node7"><a xlink:href="global_8h.html" target="_top" xlink:title=" ">
<polygon fill="white" stroke="red" points="2806,-140 2806,-159 2889,-159 2889,-140 2806,-140"/>
<text text-anchor="middle" x="2847.5" y="-147" font-family="Helvetica,sans-Serif" font-size="10.00">include/global.h</text>
</a>
</g>
</g>
<!-- Node1&#45;&gt;Node7 -->
<g id="edge6" class="edge">
<title>Node1&#45;&gt;Node7</title>
<path fill="none" stroke="midnightblue" d="M4755.22,-208.38C4471.61,-199.78 3142.55,-159.45 2889.26,-151.77"/>
<polygon fill="midnightblue" stroke="midnightblue" points="4755.15,-211.88 4765.26,-208.69 4755.37,-204.89 4755.15,-211.88"/>
</g>
<!-- Node244 -->
<g id="node46" class="node">
<title>Node244</title>
<g id="a_node46"><a xlink:href="m__Do__ext_8h.html" target="_top" xlink:title=" ">
<polygon fill="white" stroke="red" points="4738.5,-67.5 4738.5,-97.5 4860.5,-97.5 4860.5,-67.5 4738.5,-67.5"/>
<text text-anchor="start" x="4746.5" y="-85.5" font-family="Helvetica,sans-Serif" font-size="10.00">include/m_Do/m_Do_ext</text>
<text text-anchor="middle" x="4799.5" y="-74.5" font-family="Helvetica,sans-Serif" font-size="10.00">/m_Do_ext.h</text>
</a>
</g>
</g>
<!-- Node1&#45;&gt;Node244 -->
<g id="edge60" class="edge">
<title>Node1&#45;&gt;Node244</title>
<path fill="none" stroke="midnightblue" d="M4801.45,-191.74C4798.69,-183.67 4795.87,-174 4794.5,-165 4790.94,-141.59 4794.15,-114.04 4796.82,-97.72"/>
<polygon fill="midnightblue" stroke="midnightblue" points="4798.19,-193.02 4804.9,-201.22 4804.77,-190.63 4798.19,-193.02"/>
</g>
<!-- Node312 -->
<g id="node47" class="node">
<title>Node312</title>
<g id="a_node47"><a xlink:href="m__Do__printf_8h.html" target="_top" xlink:title=" ">
<polygon fill="white" stroke="red" points="4955,-67.5 4955,-97.5 5086,-97.5 5086,-67.5 4955,-67.5"/>
<text text-anchor="start" x="4963" y="-85.5" font-family="Helvetica,sans-Serif" font-size="10.00">include/m_Do/m_Do_printf</text>
<text text-anchor="middle" x="5020.5" y="-74.5" font-family="Helvetica,sans-Serif" font-size="10.00">/m_Do_printf.h</text>
</a>
</g>
</g>
<!-- Node1&#45;&gt;Node312 -->
<g id="edge61" class="edge">
<title>Node1&#45;&gt;Node312</title>
<path fill="none" stroke="midnightblue" d="M4809.46,-191.33C4811.36,-174.1 4816.84,-148.99 4832.5,-134 4841.73,-125.16 4905.68,-109.14 4956.47,-97.51"/>
<polygon fill="midnightblue" stroke="midnightblue" points="4805.97,-191.08 4808.66,-201.32 4812.95,-191.63 4805.97,-191.08"/>
</g>
<!-- Node381 -->
<g id="node48" class="node">
<title>Node381</title>
<g id="a_node48"><a xlink:href="JKRAramPiece_8h.html" target="_top" xlink:title=" ">
<polygon fill="white" stroke="red" points="5048.5,-134.5 5048.5,-164.5 5212.5,-164.5 5212.5,-134.5 5048.5,-134.5"/>
<text text-anchor="start" x="5056.5" y="-152.5" font-family="Helvetica,sans-Serif" font-size="10.00">include/JSystem/JKernel</text>
<text text-anchor="middle" x="5130.5" y="-141.5" font-family="Helvetica,sans-Serif" font-size="10.00">/JKRAramPiece/JKRAramPiece.h</text>
</a>
</g>
</g>
<!-- Node1&#45;&gt;Node381 -->
<g id="edge56" class="edge">
<title>Node1&#45;&gt;Node381</title>
<path fill="none" stroke="midnightblue" d="M4861.72,-200.17C4914.33,-190.44 4995.33,-175.48 5054.66,-164.51"/>
<polygon fill="midnightblue" stroke="midnightblue" points="4860.79,-196.78 4851.59,-202.04 4862.06,-203.66 4860.79,-196.78"/>
</g>
<!-- Node314 -->
<g id="node49" class="node">
<title>Node314</title>
<g id="a_node49"><a xlink:href="JUTGamePad_8h.html" target="_top" xlink:title=" ">
<polygon fill="white" stroke="red" points="4875,-134.5 4875,-164.5 5030,-164.5 5030,-134.5 4875,-134.5"/>
<text text-anchor="start" x="4883" y="-152.5" font-family="Helvetica,sans-Serif" font-size="10.00">include/JSystem/JUtility</text>
<text text-anchor="middle" x="4952.5" y="-141.5" font-family="Helvetica,sans-Serif" font-size="10.00">/JUTGamePad/JUTGamePad.h</text>
</a>
</g>
</g>
<!-- Node1&#45;&gt;Node314 -->
<g id="edge57" class="edge">
<title>Node1&#45;&gt;Node314</title>
<path fill="none" stroke="midnightblue" d="M4838.53,-197.59C4861.88,-187.94 4894.28,-174.56 4918.56,-164.52"/>
<polygon fill="midnightblue" stroke="midnightblue" points="4837.04,-194.42 4829.13,-201.48 4839.71,-200.89 4837.04,-194.42"/>
</g>
<!-- Node382 -->
<g id="node50" class="node">
<title>Node382</title>
<g id="a_node50"><a xlink:href="JUTVideo_8h.html" target="_top" xlink:title=" ">
<polygon fill="white" stroke="red" points="5268.5,-134.5 5268.5,-164.5 5390.5,-164.5 5390.5,-134.5 5268.5,-134.5"/>
<text text-anchor="start" x="5276.5" y="-152.5" font-family="Helvetica,sans-Serif" font-size="10.00">include/JSystem/JUtility</text>
<text text-anchor="middle" x="5329.5" y="-141.5" font-family="Helvetica,sans-Serif" font-size="10.00">/JUTVideo/JUTVideo.h</text>
</a>
</g>
</g>
<!-- Node1&#45;&gt;Node382 -->
<g id="edge59" class="edge">
<title>Node1&#45;&gt;Node382</title>
<path fill="none" stroke="midnightblue" d="M4861.76,-206.19C4945.59,-199.85 5113.32,-185.73 5254.5,-165 5258.96,-164.35 5263.56,-163.61 5268.18,-162.82"/>
<polygon fill="midnightblue" stroke="midnightblue" points="4861.42,-202.71 4851.71,-206.95 4861.95,-209.69 4861.42,-202.71"/>
</g>
<!-- Node7&#45;&gt;Node2 -->
<g id="edge17" class="edge">
<title>Node7&#45;&gt;Node2</title>
<path fill="none" stroke="midnightblue" d="M2812.45,-137.23C2807.15,-135.91 2801.72,-134.76 2796.5,-134 2205.62,-47.6 701.84,-173.75 109.5,-98 99.67,-96.74 89.1,-94.45 79.66,-92.06"/>
<polygon fill="midnightblue" stroke="midnightblue" points="2811.8,-140.68 2822.36,-139.93 2813.64,-133.93 2811.8,-140.68"/>
</g>
<!-- Node7&#45;&gt;Node4 -->
<g id="edge20" class="edge">
<title>Node7&#45;&gt;Node4</title>
<path fill="none" stroke="midnightblue" d="M2899.69,-148.14C3216.12,-145.84 4871.41,-132.26 5094.5,-98 5102.9,-96.71 5111.87,-94.41 5119.86,-92.02"/>
<polygon fill="midnightblue" stroke="midnightblue" points="2899.41,-144.64 2889.43,-148.21 2899.46,-151.64 2899.41,-144.64"/>
</g>
<!-- Node7&#45;&gt;Node6 -->
<g id="edge47" class="edge">
<title>Node7&#45;&gt;Node6</title>
<path fill="none" stroke="midnightblue" d="M2899.29,-148.08C3207.53,-145.49 4790.55,-130.64 4887.5,-98 4932.66,-82.79 4975.23,-42.73 4992.46,-25.07"/>
<polygon fill="midnightblue" stroke="midnightblue" points="2899.25,-144.58 2889.28,-148.17 2899.31,-151.58 2899.25,-144.58"/>
</g>
<!-- Node8 -->
<g id="node8" class="node">
<title>Node8</title>
<g id="a_node8"><a xlink:href="d__a__horse__static_8cpp.html" target="_top" xlink:title=" ">
<polygon fill="white" stroke="black" points="3476,-67.5 3476,-97.5 3581,-97.5 3581,-67.5 3476,-67.5"/>
<text text-anchor="start" x="3484" y="-85.5" font-family="Helvetica,sans-Serif" font-size="10.00">src/d/d_a/d_a_horse</text>
<text text-anchor="middle" x="3528.5" y="-74.5" font-family="Helvetica,sans-Serif" font-size="10.00">_static.cpp</text>
</a>
</g>
</g>
<!-- Node7&#45;&gt;Node8 -->
<g id="edge7" class="edge">
<title>Node7&#45;&gt;Node8</title>
<path fill="none" stroke="midnightblue" d="M2899.21,-146.87C3005.85,-142.95 3257.75,-130.74 3466.5,-98 3469.56,-97.52 3472.69,-96.97 3475.84,-96.38"/>
<polygon fill="midnightblue" stroke="midnightblue" points="2898.91,-143.38 2889.04,-147.24 2899.16,-150.38 2898.91,-143.38"/>
</g>
<!-- Node9 -->
<g id="node9" class="node">
<title>Node9</title>
<g id="a_node9"><a xlink:href="d__a__item__static_8cpp.html" target="_top" xlink:title=" ">
<polygon fill="white" stroke="black" points="3599.5,-67.5 3599.5,-97.5 3699.5,-97.5 3699.5,-67.5 3599.5,-67.5"/>
<text text-anchor="start" x="3607.5" y="-85.5" font-family="Helvetica,sans-Serif" font-size="10.00">src/d/d_a/d_a_item</text>
<text text-anchor="middle" x="3649.5" y="-74.5" font-family="Helvetica,sans-Serif" font-size="10.00">_static.cpp</text>
</a>
</g>
</g>
<!-- Node7&#45;&gt;Node9 -->
<g id="edge8" class="edge">
<title>Node7&#45;&gt;Node9</title>
<path fill="none" stroke="midnightblue" d="M2899.32,-147.98C3020.68,-146.11 3332.5,-137.51 3589.5,-98 3592.68,-97.51 3595.93,-96.94 3599.21,-96.31"/>
<polygon fill="midnightblue" stroke="midnightblue" points="2899.15,-144.48 2889.2,-148.13 2899.25,-151.48 2899.15,-144.48"/>
</g>
<!-- Node10 -->
<g id="node10" class="node">
<title>Node10</title>
<g id="a_node10"><a xlink:href="d__attention_8cpp.html" target="_top" xlink:title=" ">
<polygon fill="white" stroke="black" points="3820,-6 3820,-25 3927,-25 3927,-6 3820,-6"/>
<text text-anchor="middle" x="3873.5" y="-13" font-family="Helvetica,sans-Serif" font-size="10.00">src/d/d_attention.cpp</text>
</a>
</g>
</g>
<!-- Node7&#45;&gt;Node10 -->
<g id="edge9" class="edge">
<title>Node7&#45;&gt;Node10</title>
<path fill="none" stroke="midnightblue" d="M2899.45,-147.31C3074.1,-143.06 3633.3,-127.29 3708.5,-98 3728.81,-90.09 3727.71,-78.04 3746.5,-67 3778.41,-48.24 3818.59,-33.59 3845.11,-25.01"/>
<polygon fill="midnightblue" stroke="midnightblue" points="2899.15,-143.82 2889.24,-147.56 2899.32,-150.82 2899.15,-143.82"/>
</g>
<!-- Node11 -->
<g id="node11" class="node">
<title>Node11</title>
<g id="a_node11"><a xlink:href="d__bg__s__poly__pass__chk_8cpp.html" target="_top" xlink:title=" ">
<polygon fill="white" stroke="black" points="3756,-67.5 3756,-97.5 3875,-97.5 3875,-67.5 3756,-67.5"/>
<text text-anchor="start" x="3764" y="-85.5" font-family="Helvetica,sans-Serif" font-size="10.00">src/d/d_bg/d_bg_s_poly</text>
<text text-anchor="middle" x="3815.5" y="-74.5" font-family="Helvetica,sans-Serif" font-size="10.00">_pass_chk.cpp</text>
</a>
</g>
</g>
<!-- Node7&#45;&gt;Node11 -->
<g id="edge10" class="edge">
<title>Node7&#45;&gt;Node11</title>
<path fill="none" stroke="midnightblue" d="M2899.38,-148.05C3037.1,-146.32 3423.18,-137.99 3741.5,-98 3746.18,-97.41 3751,-96.7 3755.84,-95.92"/>
<polygon fill="midnightblue" stroke="midnightblue" points="2899.08,-144.55 2889.12,-148.17 2899.16,-151.55 2899.08,-144.55"/>
</g>
<!-- Node12 -->
<g id="node12" class="node">
<title>Node12</title>
<g id="a_node12"><a xlink:href="d__com__inf__game_8cpp.html" target="_top" xlink:title=" ">
<polygon fill="white" stroke="black" points="4759,-0.5 4759,-30.5 4878,-30.5 4878,-0.5 4759,-0.5"/>
<text text-anchor="start" x="4767" y="-18.5" font-family="Helvetica,sans-Serif" font-size="10.00">src/d/d_com/d_com_inf</text>
<text text-anchor="middle" x="4818.5" y="-7.5" font-family="Helvetica,sans-Serif" font-size="10.00">_game.cpp</text>
</a>
</g>
</g>
<!-- Node7&#45;&gt;Node12 -->
<g id="edge11" class="edge">
<title>Node7&#45;&gt;Node12</title>
<path fill="none" stroke="midnightblue" d="M2899.56,-148.19C3212.74,-146.23 4834.06,-134.33 4869.5,-98 4889.43,-77.57 4859.98,-48.07 4838.22,-30.73"/>
<polygon fill="midnightblue" stroke="midnightblue" points="2899.37,-144.69 2889.4,-148.26 2899.42,-151.69 2899.37,-144.69"/>
</g>
<!-- Node13 -->
<g id="node13" class="node">
<title>Node13</title>
<g id="a_node13"><a xlink:href="d__file__sel__info_8cpp.html" target="_top" xlink:title=" ">
<polygon fill="white" stroke="black" points="3893,-67.5 3893,-97.5 3982,-97.5 3982,-67.5 3893,-67.5"/>
<text text-anchor="start" x="3901" y="-85.5" font-family="Helvetica,sans-Serif" font-size="10.00">src/d/d_file/d_file</text>
<text text-anchor="middle" x="3937.5" y="-74.5" font-family="Helvetica,sans-Serif" font-size="10.00">_sel_info.cpp</text>
</a>
</g>
</g>
<!-- Node7&#45;&gt;Node13 -->
<g id="edge12" class="edge">
<title>Node7&#45;&gt;Node13</title>
<path fill="none" stroke="midnightblue" d="M2899.39,-147.44C3081.47,-143.48 3690.66,-128.23 3883.5,-98 3886.57,-97.52 3889.71,-96.93 3892.87,-96.27"/>
<polygon fill="midnightblue" stroke="midnightblue" points="2899.2,-143.94 2889.28,-147.65 2899.35,-150.94 2899.2,-143.94"/>
</g>
<!-- Node14 -->
<g id="node14" class="node">
<title>Node14</title>
<g id="a_node14"><a xlink:href="d__item_8cpp.html" target="_top" xlink:title=" ">
<polygon fill="white" stroke="black" points="4000,-73 4000,-92 4121,-92 4121,-73 4000,-73"/>
<text text-anchor="middle" x="4060.5" y="-80" font-family="Helvetica,sans-Serif" font-size="10.00">src/d/d_item/d_item.cpp</text>
</a>
</g>
</g>
<!-- Node7&#45;&gt;Node14 -->
<g id="edge13" class="edge">
<title>Node7&#45;&gt;Node14</title>
<path fill="none" stroke="midnightblue" d="M2899.43,-147.31C3093.35,-142.7 3774.94,-124.91 3990.5,-98 4001.71,-96.6 4013.79,-94.36 4024.71,-92.06"/>
<polygon fill="midnightblue" stroke="midnightblue" points="2899.14,-143.82 2889.23,-147.55 2899.31,-150.82 2899.14,-143.82"/>
</g>
<!-- Node15 -->
<g id="node15" class="node">
<title>Node15</title>
<g id="a_node15"><a xlink:href="d__kankyo__data_8cpp.html" target="_top" xlink:title=" ">
<polygon fill="white" stroke="black" points="4178,-67.5 4178,-97.5 4305,-97.5 4305,-67.5 4178,-67.5"/>
<text text-anchor="start" x="4186" y="-85.5" font-family="Helvetica,sans-Serif" font-size="10.00">src/d/d_kankyo/d_kankyo</text>
<text text-anchor="middle" x="4241.5" y="-74.5" font-family="Helvetica,sans-Serif" font-size="10.00">_data.cpp</text>
</a>
</g>
</g>
<!-- Node7&#45;&gt;Node15 -->
<g id="edge14" class="edge">
<title>Node7&#45;&gt;Node15</title>
<path fill="none" stroke="midnightblue" d="M2899.37,-147.52C3111.29,-143.35 3911.97,-126.05 4163.5,-98 4168.15,-97.48 4172.95,-96.84 4177.76,-96.13"/>
<polygon fill="midnightblue" stroke="midnightblue" points="2899.08,-144.02 2889.15,-147.72 2899.21,-151.02 2899.08,-144.02"/>
</g>
<!-- Node16 -->
<g id="node16" class="node">
<title>Node16</title>
<g id="a_node16"><a xlink:href="d__kankyo__rain_8cpp.html" target="_top" xlink:title=" ">
<polygon fill="white" stroke="black" points="4323,-67.5 4323,-97.5 4450,-97.5 4450,-67.5 4323,-67.5"/>
<text text-anchor="start" x="4331" y="-85.5" font-family="Helvetica,sans-Serif" font-size="10.00">src/d/d_kankyo/d_kankyo</text>
<text text-anchor="middle" x="4386.5" y="-74.5" font-family="Helvetica,sans-Serif" font-size="10.00">_rain.cpp</text>
</a>
</g>
</g>
<!-- Node7&#45;&gt;Node16 -->
<g id="edge15" class="edge">
<title>Node7&#45;&gt;Node16</title>
<path fill="none" stroke="midnightblue" d="M2899.61,-147.84C3126.7,-144.76 4031.17,-130.68 4313.5,-98 4316.58,-97.64 4319.73,-97.23 4322.89,-96.76"/>
<polygon fill="midnightblue" stroke="midnightblue" points="2899.26,-144.34 2889.31,-147.97 2899.36,-151.34 2899.26,-144.34"/>
</g>
<!-- Node17 -->
<g id="node17" class="node">
<title>Node17</title>
<g id="a_node17"><a xlink:href="d__kankyo__wether_8cpp.html" target="_top" xlink:title=" ">
<polygon fill="white" stroke="black" points="4468,-67.5 4468,-97.5 4595,-97.5 4595,-67.5 4468,-67.5"/>
<text text-anchor="start" x="4476" y="-85.5" font-family="Helvetica,sans-Serif" font-size="10.00">src/d/d_kankyo/d_kankyo</text>
<text text-anchor="middle" x="4531.5" y="-74.5" font-family="Helvetica,sans-Serif" font-size="10.00">_wether.cpp</text>
</a>
</g>
</g>
<!-- Node7&#45;&gt;Node17 -->
<g id="edge16" class="edge">
<title>Node7&#45;&gt;Node17</title>
<path fill="none" stroke="midnightblue" d="M2899.19,-148.03C3139.13,-145.65 4145.86,-133.7 4458.5,-98 4461.58,-97.65 4464.73,-97.23 4467.9,-96.77"/>
<polygon fill="midnightblue" stroke="midnightblue" points="2898.97,-144.53 2889,-148.13 2899.03,-151.53 2898.97,-144.53"/>
</g>
<!-- Node18 -->
<g id="node18" class="node">
<title>Node18</title>
<g id="a_node18"><a xlink:href="d__kantera__icon__meter_8cpp.html" target="_top" xlink:title=" ">
<polygon fill="white" stroke="black" points="4613,-67.5 4613,-97.5 4720,-97.5 4720,-67.5 4613,-67.5"/>
<text text-anchor="start" x="4621" y="-85.5" font-family="Helvetica,sans-Serif" font-size="10.00">src/d/d_kantera_icon</text>
<text text-anchor="middle" x="4666.5" y="-74.5" font-family="Helvetica,sans-Serif" font-size="10.00">_meter.cpp</text>
</a>
</g>
</g>
<!-- Node7&#45;&gt;Node18 -->
<g id="edge18" class="edge">
<title>Node7&#45;&gt;Node18</title>
<path fill="none" stroke="midnightblue" d="M2899.3,-148.39C3152.49,-147.64 4261.3,-141.86 4603.5,-98 4606.51,-97.61 4609.58,-97.15 4612.67,-96.63"/>
<polygon fill="midnightblue" stroke="midnightblue" points="2899.26,-144.89 2889.27,-148.42 2899.28,-151.89 2899.26,-144.89"/>
</g>
<!-- Node19 -->
<g id="node19" class="node">
<title>Node19</title>
<g id="a_node19"><a xlink:href="d__kyeff2_8cpp.html" target="_top" xlink:title=" ">
<polygon fill="white" stroke="black" points="119,-73 119,-92 238,-92 238,-73 119,-73"/>
<text text-anchor="middle" x="178.5" y="-80" font-family="Helvetica,sans-Serif" font-size="10.00">src/d/d_ky/d_kyeff2.cpp</text>
</a>
</g>
</g>
<!-- Node7&#45;&gt;Node19 -->
<g id="edge19" class="edge">
<title>Node7&#45;&gt;Node19</title>
<path fill="none" stroke="midnightblue" d="M2812.45,-137.24C2807.15,-135.91 2801.72,-134.76 2796.5,-134 2235.77,-51.8 809.67,-161.4 246.5,-98 235.22,-96.73 223.06,-94.44 212.18,-92.05"/>
<polygon fill="midnightblue" stroke="midnightblue" points="2811.8,-140.69 2822.36,-139.94 2813.64,-133.93 2811.8,-140.69"/>
</g>
<!-- Node20 -->
<g id="node20" class="node">
<title>Node20</title>
<g id="a_node20"><a xlink:href="d__meter__button_8cpp.html" target="_top" xlink:title=" ">
<polygon fill="white" stroke="black" points="256,-67.5 256,-97.5 371,-97.5 371,-67.5 256,-67.5"/>
<text text-anchor="start" x="264" y="-85.5" font-family="Helvetica,sans-Serif" font-size="10.00">src/d/d_meter/d_meter</text>
<text text-anchor="middle" x="313.5" y="-74.5" font-family="Helvetica,sans-Serif" font-size="10.00">_button.cpp</text>
</a>
</g>
</g>
<!-- Node7&#45;&gt;Node20 -->
<g id="edge21" class="edge">
<title>Node7&#45;&gt;Node20</title>
<path fill="none" stroke="midnightblue" d="M2812.45,-137.24C2807.15,-135.92 2801.72,-134.77 2796.5,-134 2265.04,-55.88 913.09,-159.95 379.5,-98 376.82,-97.69 374.09,-97.32 371.34,-96.9"/>
<polygon fill="midnightblue" stroke="midnightblue" points="2811.79,-140.69 2822.36,-139.94 2813.64,-133.94 2811.79,-140.69"/>
</g>
<!-- Node21 -->
<g id="node21" class="node">
<title>Node21</title>
<g id="a_node21"><a xlink:href="d__meter__haihai_8cpp.html" target="_top" xlink:title=" ">
<polygon fill="white" stroke="black" points="389,-67.5 389,-97.5 504,-97.5 504,-67.5 389,-67.5"/>
<text text-anchor="start" x="397" y="-85.5" font-family="Helvetica,sans-Serif" font-size="10.00">src/d/d_meter/d_meter</text>
<text text-anchor="middle" x="446.5" y="-74.5" font-family="Helvetica,sans-Serif" font-size="10.00">_haihai.cpp</text>
</a>
</g>
</g>
<!-- Node7&#45;&gt;Node21 -->
<g id="edge22" class="edge">
<title>Node7&#45;&gt;Node21</title>
<path fill="none" stroke="midnightblue" d="M2812.45,-137.24C2807.15,-135.92 2801.72,-134.77 2796.5,-134 2294.31,-59.96 1016.71,-156.76 512.5,-98 509.82,-97.69 507.09,-97.31 504.34,-96.89"/>
<polygon fill="midnightblue" stroke="midnightblue" points="2811.79,-140.69 2822.36,-139.95 2813.63,-133.94 2811.79,-140.69"/>
</g>
<!-- Node22 -->
<g id="node22" class="node">
<title>Node22</title>
<g id="a_node22"><a xlink:href="d__meter__hakusha_8cpp.html" target="_top" xlink:title=" ">
<polygon fill="white" stroke="black" points="522,-67.5 522,-97.5 637,-97.5 637,-67.5 522,-67.5"/>
<text text-anchor="start" x="530" y="-85.5" font-family="Helvetica,sans-Serif" font-size="10.00">src/d/d_meter/d_meter</text>
<text text-anchor="middle" x="579.5" y="-74.5" font-family="Helvetica,sans-Serif" font-size="10.00">_hakusha.cpp</text>
</a>
</g>
</g>
<!-- Node7&#45;&gt;Node22 -->
<g id="edge23" class="edge">
<title>Node7&#45;&gt;Node22</title>
<path fill="none" stroke="midnightblue" d="M2812.45,-137.25C2807.15,-135.92 2801.72,-134.77 2796.5,-134 2324.9,-64.22 1125.47,-149.27 651.5,-98 646.81,-97.49 641.97,-96.83 637.12,-96.06"/>
<polygon fill="midnightblue" stroke="midnightblue" points="2811.79,-140.7 2822.36,-139.95 2813.63,-133.94 2811.79,-140.7"/>
</g>
<!-- Node23 -->
<g id="node23" class="node">
<title>Node23</title>
<g id="a_node23"><a xlink:href="d__meter__HIO_8cpp.html" target="_top" xlink:title=" ">
<polygon fill="white" stroke="black" points="4359,-0.5 4359,-30.5 4474,-30.5 4474,-0.5 4359,-0.5"/>
<text text-anchor="start" x="4367" y="-18.5" font-family="Helvetica,sans-Serif" font-size="10.00">src/d/d_meter/d_meter</text>
<text text-anchor="middle" x="4416.5" y="-7.5" font-family="Helvetica,sans-Serif" font-size="10.00">_HIO.cpp</text>
</a>
</g>
</g>
<!-- Node7&#45;&gt;Node23 -->
<g id="edge24" class="edge">
<title>Node7&#45;&gt;Node23</title>
<path fill="none" stroke="midnightblue" d="M2899.48,-148.36C3125.05,-147.47 4012.98,-141.26 4129.5,-98 4150.26,-90.29 4148.43,-76.36 4168.5,-67 4229.83,-38.41 4307.12,-25.94 4358.97,-20.55"/>
<polygon fill="midnightblue" stroke="midnightblue" points="2899.24,-144.86 2889.25,-148.39 2899.26,-151.86 2899.24,-144.86"/>
</g>
<!-- Node24 -->
<g id="node24" class="node">
<title>Node24</title>
<g id="a_node24"><a xlink:href="d__meter__map_8cpp.html" target="_top" xlink:title=" ">
<polygon fill="white" stroke="black" points="694,-67.5 694,-97.5 809,-97.5 809,-67.5 694,-67.5"/>
<text text-anchor="start" x="702" y="-85.5" font-family="Helvetica,sans-Serif" font-size="10.00">src/d/d_meter/d_meter</text>
<text text-anchor="middle" x="751.5" y="-74.5" font-family="Helvetica,sans-Serif" font-size="10.00">_map.cpp</text>
</a>
</g>
</g>
<!-- Node7&#45;&gt;Node24 -->
<g id="edge25" class="edge">
<title>Node7&#45;&gt;Node24</title>
<path fill="none" stroke="midnightblue" d="M2812.45,-137.25C2807.15,-135.93 2801.72,-134.78 2796.5,-134 2361.43,-69.31 1254.33,-149.44 817.5,-98 814.82,-97.68 812.09,-97.31 809.34,-96.89"/>
<polygon fill="midnightblue" stroke="midnightblue" points="2811.79,-140.7 2822.36,-139.96 2813.63,-133.95 2811.79,-140.7"/>
</g>
<!-- Node25 -->
<g id="node25" class="node">
<title>Node25</title>
<g id="a_node25"><a xlink:href="d__meter__string_8cpp.html" target="_top" xlink:title=" ">
<polygon fill="white" stroke="black" points="827,-67.5 827,-97.5 942,-97.5 942,-67.5 827,-67.5"/>
<text text-anchor="start" x="835" y="-85.5" font-family="Helvetica,sans-Serif" font-size="10.00">src/d/d_meter/d_meter</text>
<text text-anchor="middle" x="884.5" y="-74.5" font-family="Helvetica,sans-Serif" font-size="10.00">_string.cpp</text>
</a>
</g>
</g>
<!-- Node7&#45;&gt;Node25 -->
<g id="edge26" class="edge">
<title>Node7&#45;&gt;Node25</title>
<path fill="none" stroke="midnightblue" d="M2812.44,-137.26C2807.15,-135.94 2801.71,-134.78 2796.5,-134 2390.7,-73.39 1357.95,-146.25 950.5,-98 947.82,-97.68 945.09,-97.31 942.34,-96.88"/>
<polygon fill="midnightblue" stroke="midnightblue" points="2811.79,-140.71 2822.36,-139.96 2813.63,-133.96 2811.79,-140.71"/>
</g>
<!-- Node26 -->
<g id="node26" class="node">
<title>Node26</title>
<g id="a_node26"><a xlink:href="d__meter_8cpp.html" target="_top" xlink:title=" ">
<polygon fill="white" stroke="black" points="960,-73 960,-92 1055,-92 1055,-73 960,-73"/>
<text text-anchor="middle" x="1007.5" y="-80" font-family="Helvetica,sans-Serif" font-size="10.00">src/d/d_meter.cpp</text>
</a>
</g>
</g>
<!-- Node7&#45;&gt;Node26 -->
<g id="edge27" class="edge">
<title>Node7&#45;&gt;Node26</title>
<path fill="none" stroke="midnightblue" d="M2812.44,-137.27C2807.15,-135.94 2801.71,-134.78 2796.5,-134 2415.57,-76.86 1445.08,-150.63 1063.5,-98 1054.15,-96.71 1044.11,-94.41 1035.16,-92.02"/>
<polygon fill="midnightblue" stroke="midnightblue" points="2811.79,-140.72 2822.36,-139.97 2813.63,-133.96 2811.79,-140.72"/>
</g>
<!-- Node27 -->
<g id="node27" class="node">
<title>Node27</title>
<g id="a_node27"><a xlink:href="d__meter2__draw_8cpp.html" target="_top" xlink:title=" ">
<polygon fill="white" stroke="black" points="1073,-67.5 1073,-97.5 1198,-97.5 1198,-67.5 1073,-67.5"/>
<text text-anchor="start" x="1081" y="-85.5" font-family="Helvetica,sans-Serif" font-size="10.00">src/d/d_meter2/d_meter2</text>
<text text-anchor="middle" x="1135.5" y="-74.5" font-family="Helvetica,sans-Serif" font-size="10.00">_draw.cpp</text>
</a>
</g>
</g>
<!-- Node7&#45;&gt;Node27 -->
<g id="edge28" class="edge">
<title>Node7&#45;&gt;Node27</title>
<path fill="none" stroke="midnightblue" d="M2812.44,-137.28C2807.15,-135.95 2801.71,-134.79 2796.5,-134 2447.04,-81.25 1557.71,-137.52 1206.5,-98 1203.75,-97.69 1200.95,-97.33 1198.12,-96.92"/>
<polygon fill="midnightblue" stroke="midnightblue" points="2811.79,-140.73 2822.36,-139.98 2813.63,-133.97 2811.79,-140.73"/>
</g>
<!-- Node28 -->
<g id="node28" class="node">
<title>Node28</title>
<g id="a_node28"><a xlink:href="d__meter2__info_8cpp.html" target="_top" xlink:title=" ">
<polygon fill="white" stroke="black" points="1216,-67.5 1216,-97.5 1341,-97.5 1341,-67.5 1216,-67.5"/>
<text text-anchor="start" x="1224" y="-85.5" font-family="Helvetica,sans-Serif" font-size="10.00">src/d/d_meter2/d_meter2</text>
<text text-anchor="middle" x="1278.5" y="-74.5" font-family="Helvetica,sans-Serif" font-size="10.00">_info.cpp</text>
</a>
</g>
</g>
<!-- Node7&#45;&gt;Node28 -->
<g id="edge29" class="edge">
<title>Node7&#45;&gt;Node28</title>
<path fill="none" stroke="midnightblue" d="M2812.44,-137.29C2807.15,-135.96 2801.71,-134.79 2796.5,-134 2478.72,-85.66 1669.93,-133.86 1350.5,-98 1347.46,-97.66 1344.36,-97.25 1341.23,-96.8"/>
<polygon fill="midnightblue" stroke="midnightblue" points="2811.79,-140.74 2822.36,-139.99 2813.63,-133.98 2811.79,-140.74"/>
</g>
<!-- Node29 -->
<g id="node29" class="node">
<title>Node29</title>
<g id="a_node29"><a xlink:href="d__meter2_8cpp.html" target="_top" xlink:title=" ">
<polygon fill="white" stroke="black" points="1359.5,-73 1359.5,-92 1459.5,-92 1459.5,-73 1359.5,-73"/>
<text text-anchor="middle" x="1409.5" y="-80" font-family="Helvetica,sans-Serif" font-size="10.00">src/d/d_meter2.cpp</text>
</a>
</g>
</g>
<!-- Node7&#45;&gt;Node29 -->
<g id="edge30" class="edge">
<title>Node7&#45;&gt;Node29</title>
<path fill="none" stroke="midnightblue" d="M2812.27,-137.25C2807.03,-135.94 2801.66,-134.79 2796.5,-134 2212.87,-44.57 2053.64,-176.91 1468.5,-98 1458.78,-96.69 1448.33,-94.42 1438.97,-92.06"/>
<polygon fill="midnightblue" stroke="midnightblue" points="2811.53,-140.68 2822.09,-139.93 2813.36,-133.92 2811.53,-140.68"/>
</g>
<!-- Node30 -->
<g id="node30" class="node">
<title>Node30</title>
<g id="a_node30"><a xlink:href="d__save__HIO_8cpp.html" target="_top" xlink:title=" ">
<polygon fill="white" stroke="black" points="1478,-67.5 1478,-97.5 1585,-97.5 1585,-67.5 1478,-67.5"/>
<text text-anchor="start" x="1486" y="-85.5" font-family="Helvetica,sans-Serif" font-size="10.00">src/d/d_save/d_save</text>
<text text-anchor="middle" x="1531.5" y="-74.5" font-family="Helvetica,sans-Serif" font-size="10.00">_HIO.cpp</text>
</a>
</g>
</g>
<!-- Node7&#45;&gt;Node30 -->
<g id="edge31" class="edge">
<title>Node7&#45;&gt;Node30</title>
<path fill="none" stroke="midnightblue" d="M2812.27,-137.27C2807.03,-135.95 2801.66,-134.8 2796.5,-134 2268.32,-52.3 2124.58,-166.27 1594.5,-98 1591.49,-97.61 1588.42,-97.15 1585.33,-96.62"/>
<polygon fill="midnightblue" stroke="midnightblue" points="2811.52,-140.69 2822.09,-139.94 2813.36,-133.94 2811.52,-140.69"/>
</g>
<!-- Node31 -->
<g id="node31" class="node">
<title>Node31</title>
<g id="a_node31"><a xlink:href="d__stage_8cpp.html" target="_top" xlink:title=" ">
<polygon fill="white" stroke="black" points="1603.5,-73 1603.5,-92 1697.5,-92 1697.5,-73 1603.5,-73"/>
<text text-anchor="middle" x="1650.5" y="-80" font-family="Helvetica,sans-Serif" font-size="10.00">src/d/d_stage.cpp</text>
</a>
</g>
</g>
<!-- Node7&#45;&gt;Node31 -->
<g id="edge32" class="edge">
<title>Node7&#45;&gt;Node31</title>
<path fill="none" stroke="midnightblue" d="M2812.27,-137.28C2807.03,-135.96 2801.65,-134.81 2796.5,-134 2317.6,-59.17 2186.25,-167.17 1706.5,-98 1697.26,-96.67 1687.34,-94.39 1678.45,-92.03"/>
<polygon fill="midnightblue" stroke="midnightblue" points="2811.52,-140.71 2822.09,-139.96 2813.36,-133.95 2811.52,-140.71"/>
</g>
<!-- Node32 -->
<g id="node32" class="node">
<title>Node32</title>
<g id="a_node32"><a xlink:href="f__ap__game_8cpp.html" target="_top" xlink:title=" ">
<polygon fill="white" stroke="black" points="1716,-73 1716,-92 1821,-92 1821,-73 1716,-73"/>
<text text-anchor="middle" x="1768.5" y="-80" font-family="Helvetica,sans-Serif" font-size="10.00">src/f/f_ap_game.cpp</text>
</a>
</g>
</g>
<!-- Node7&#45;&gt;Node32 -->
<g id="edge33" class="edge">
<title>Node7&#45;&gt;Node32</title>
<path fill="none" stroke="midnightblue" d="M2812.26,-137.3C2807.02,-135.98 2801.65,-134.82 2796.5,-134 2371.72,-66.71 2255.65,-156.01 1829.5,-98 1819.58,-96.65 1808.91,-94.4 1799.31,-92.06"/>
<polygon fill="midnightblue" stroke="midnightblue" points="2811.52,-140.73 2822.09,-139.98 2813.36,-133.97 2811.52,-140.73"/>
</g>
<!-- Node33 -->
<g id="node33" class="node">
<title>Node33</title>
<g id="a_node33"><a xlink:href="f__op__actor__tag_8cpp.html" target="_top" xlink:title=" ">
<polygon fill="white" stroke="black" points="1839,-67.5 1839,-97.5 1946,-97.5 1946,-67.5 1839,-67.5"/>
<text text-anchor="start" x="1847" y="-85.5" font-family="Helvetica,sans-Serif" font-size="10.00">src/f/f_op/f_op_actor</text>
<text text-anchor="middle" x="1892.5" y="-74.5" font-family="Helvetica,sans-Serif" font-size="10.00">_tag.cpp</text>
</a>
</g>
</g>
<!-- Node7&#45;&gt;Node33 -->
<g id="edge34" class="edge">
<title>Node7&#45;&gt;Node33</title>
<path fill="none" stroke="midnightblue" d="M2812.09,-137.28C2806.9,-135.98 2801.59,-134.82 2796.5,-134 2426.71,-74.37 2325.59,-148.87 1954.5,-98 1951.76,-97.62 1948.97,-97.18 1946.15,-96.7"/>
<polygon fill="midnightblue" stroke="midnightblue" points="2811.25,-140.68 2821.82,-139.93 2813.09,-133.93 2811.25,-140.68"/>
</g>
<!-- Node34 -->
<g id="node34" class="node">
<title>Node34</title>
<g id="a_node34"><a xlink:href="f__op__camera_8cpp.html" target="_top" xlink:title=" ">
<polygon fill="white" stroke="black" points="1964,-73 1964,-92 2099,-92 2099,-73 1964,-73"/>
<text text-anchor="middle" x="2031.5" y="-80" font-family="Helvetica,sans-Serif" font-size="10.00">src/f/f_op/f_op_camera.cpp</text>
</a>
</g>
</g>
<!-- Node7&#45;&gt;Node34 -->
<g id="edge35" class="edge">
<title>Node7&#45;&gt;Node34</title>
<path fill="none" stroke="midnightblue" d="M2812.08,-137.33C2806.9,-136.02 2801.59,-134.85 2796.5,-134 2494,-83.75 2411.92,-134.82 2107.5,-98 2095.5,-96.55 2082.54,-94.33 2070.79,-92.05"/>
<polygon fill="midnightblue" stroke="midnightblue" points="2811.24,-140.73 2821.81,-139.98 2813.08,-133.97 2811.24,-140.73"/>
</g>
<!-- Node35 -->
<g id="node35" class="node">
<title>Node35</title>
<g id="a_node35"><a xlink:href="f__op__camera__mng_8cpp.html" target="_top" xlink:title=" ">
<polygon fill="white" stroke="black" points="2117,-67.5 2117,-97.5 2234,-97.5 2234,-67.5 2117,-67.5"/>
<text text-anchor="start" x="2125" y="-85.5" font-family="Helvetica,sans-Serif" font-size="10.00">src/f/f_op/f_op_camera</text>
<text text-anchor="middle" x="2175.5" y="-74.5" font-family="Helvetica,sans-Serif" font-size="10.00">_mng.cpp</text>
</a>
</g>
</g>
<!-- Node7&#45;&gt;Node35 -->
<g id="edge36" class="edge">
<title>Node7&#45;&gt;Node35</title>
<path fill="none" stroke="midnightblue" d="M2811.51,-137.25C2806.51,-135.98 2801.4,-134.85 2796.5,-134 2553.79,-92.09 2487.47,-131.77 2243.5,-98 2240.39,-97.57 2237.21,-97.08 2234.01,-96.54"/>
<polygon fill="midnightblue" stroke="midnightblue" points="2810.97,-140.73 2821.54,-139.97 2812.81,-133.97 2810.97,-140.73"/>
</g>
<!-- Node36 -->
<g id="node36" class="node">
<title>Node36</title>
<g id="a_node36"><a xlink:href="f__op__draw__iter_8cpp.html" target="_top" xlink:title=" ">
<polygon fill="white" stroke="black" points="2252.5,-67.5 2252.5,-97.5 2358.5,-97.5 2358.5,-67.5 2252.5,-67.5"/>
<text text-anchor="start" x="2260.5" y="-85.5" font-family="Helvetica,sans-Serif" font-size="10.00">src/f/f_op/f_op_draw</text>
<text text-anchor="middle" x="2305.5" y="-74.5" font-family="Helvetica,sans-Serif" font-size="10.00">_iter.cpp</text>
</a>
</g>
</g>
<!-- Node7&#45;&gt;Node36 -->
<g id="edge37" class="edge">
<title>Node7&#45;&gt;Node36</title>
<path fill="none" stroke="midnightblue" d="M2811.33,-137.29C2806.38,-136.03 2801.34,-134.88 2796.5,-134 2608.27,-99.68 2556.49,-127.87 2367.5,-98 2364.66,-97.55 2361.76,-97.04 2358.84,-96.5"/>
<polygon fill="midnightblue" stroke="midnightblue" points="2810.69,-140.74 2821.26,-139.99 2812.53,-133.99 2810.69,-140.74"/>
</g>
<!-- Node37 -->
<g id="node37" class="node">
<title>Node37</title>
<g id="a_node37"><a xlink:href="f__op__draw__tag_8cpp.html" target="_top" xlink:title=" ">
<polygon fill="white" stroke="black" points="2376.5,-67.5 2376.5,-97.5 2482.5,-97.5 2482.5,-67.5 2376.5,-67.5"/>
<text text-anchor="start" x="2384.5" y="-85.5" font-family="Helvetica,sans-Serif" font-size="10.00">src/f/f_op/f_op_draw</text>
<text text-anchor="middle" x="2429.5" y="-74.5" font-family="Helvetica,sans-Serif" font-size="10.00">_tag.cpp</text>
</a>
</g>
</g>
<!-- Node7&#45;&gt;Node37 -->
<g id="edge38" class="edge">
<title>Node7&#45;&gt;Node37</title>
<path fill="none" stroke="midnightblue" d="M2810.43,-137.22C2805.76,-136.02 2801.04,-134.91 2796.5,-134 2662.65,-107.25 2625.94,-121.58 2491.5,-98 2488.56,-97.48 2485.55,-96.92 2482.52,-96.31"/>
<polygon fill="midnightblue" stroke="midnightblue" points="2809.87,-140.69 2820.43,-139.94 2811.7,-133.94 2809.87,-140.69"/>
</g>
<!-- Node38 -->
<g id="node38" class="node">
<title>Node38</title>
<g id="a_node38"><a xlink:href="f__op__kankyo_8cpp.html" target="_top" xlink:title=" ">
<polygon fill="white" stroke="black" points="2500.5,-73 2500.5,-92 2634.5,-92 2634.5,-73 2500.5,-73"/>
<text text-anchor="middle" x="2567.5" y="-80" font-family="Helvetica,sans-Serif" font-size="10.00">src/f/f_op/f_op_kankyo.cpp</text>
</a>
</g>
</g>
<!-- Node7&#45;&gt;Node38 -->
<g id="edge39" class="edge">
<title>Node7&#45;&gt;Node38</title>
<path fill="none" stroke="midnightblue" d="M2809.02,-137.29C2804.8,-136.15 2800.57,-135.03 2796.5,-134 2731.76,-117.67 2655.99,-101.54 2609.88,-92.05"/>
<polygon fill="midnightblue" stroke="midnightblue" points="2808.15,-140.69 2818.72,-139.99 2810.02,-133.94 2808.15,-140.69"/>
</g>
<!-- Node39 -->
<g id="node39" class="node">
<title>Node39</title>
<g id="a_node39"><a xlink:href="f__op__kankyo__mng_8cpp.html" target="_top" xlink:title=" ">
<polygon fill="white" stroke="black" points="2652.5,-67.5 2652.5,-97.5 2768.5,-97.5 2768.5,-67.5 2652.5,-67.5"/>
<text text-anchor="start" x="2660.5" y="-85.5" font-family="Helvetica,sans-Serif" font-size="10.00">src/f/f_op/f_op_kankyo</text>
<text text-anchor="middle" x="2710.5" y="-74.5" font-family="Helvetica,sans-Serif" font-size="10.00">_mng.cpp</text>
</a>
</g>
</g>
<!-- Node7&#45;&gt;Node39 -->
<g id="edge40" class="edge">
<title>Node7&#45;&gt;Node39</title>
<path fill="none" stroke="midnightblue" d="M2820.04,-135.47C2796.88,-124.49 2763.81,-108.79 2740.07,-97.53"/>
<polygon fill="midnightblue" stroke="midnightblue" points="2818.77,-138.74 2829.31,-139.87 2821.77,-132.42 2818.77,-138.74"/>
</g>
<!-- Node40 -->
<g id="node40" class="node">
<title>Node40</title>
<g id="a_node40"><a xlink:href="f__op__msg_8cpp.html" target="_top" xlink:title=" ">
<polygon fill="white" stroke="black" points="2786.5,-73 2786.5,-92 2908.5,-92 2908.5,-73 2786.5,-73"/>
<text text-anchor="middle" x="2847.5" y="-80" font-family="Helvetica,sans-Serif" font-size="10.00">src/f/f_op/f_op_msg.cpp</text>
</a>
</g>
</g>
<!-- Node7&#45;&gt;Node40 -->
<g id="edge41" class="edge">
<title>Node7&#45;&gt;Node40</title>
<path fill="none" stroke="midnightblue" d="M2847.5,-129.54C2847.5,-117.17 2847.5,-101.62 2847.5,-92.13"/>
<polygon fill="midnightblue" stroke="midnightblue" points="2844,-129.73 2847.5,-139.73 2851,-129.73 2844,-129.73"/>
</g>
<!-- Node41 -->
<g id="node41" class="node">
<title>Node41</title>
<g id="a_node41"><a xlink:href="f__op__msg__mng_8cpp.html" target="_top" xlink:title=" ">
<polygon fill="white" stroke="black" points="2228.5,-0.5 2228.5,-30.5 2332.5,-30.5 2332.5,-0.5 2228.5,-0.5"/>
<text text-anchor="start" x="2236.5" y="-18.5" font-family="Helvetica,sans-Serif" font-size="10.00">src/f/f_op/f_op_msg</text>
<text text-anchor="middle" x="2280.5" y="-7.5" font-family="Helvetica,sans-Serif" font-size="10.00">_mng.cpp</text>
</a>
</g>
</g>
<!-- Node7&#45;&gt;Node41 -->
<g id="edge42" class="edge">
<title>Node7&#45;&gt;Node41</title>
<path fill="none" stroke="midnightblue" d="M2812.45,-137.25C2807.15,-135.93 2801.72,-134.77 2796.5,-134 2738.46,-125.4 725.63,-139.84 684.5,-98 674.84,-88.17 674.91,-76.9 684.5,-67 711.99,-38.63 1956.48,-20.74 2228.38,-17.16"/>
<polygon fill="midnightblue" stroke="midnightblue" points="2811.79,-140.7 2822.36,-139.95 2813.63,-133.95 2811.79,-140.7"/>
</g>
<!-- Node42 -->
<g id="node42" class="node">
<title>Node42</title>
<g id="a_node42"><a xlink:href="f__op__overlap_8cpp.html" target="_top" xlink:title=" ">
<polygon fill="white" stroke="black" points="2926.5,-73 2926.5,-92 3060.5,-92 3060.5,-73 2926.5,-73"/>
<text text-anchor="middle" x="2993.5" y="-80" font-family="Helvetica,sans-Serif" font-size="10.00">src/f/f_op/f_op_overlap.cpp</text>
</a>
</g>
</g>
<!-- Node7&#45;&gt;Node42 -->
<g id="edge43" class="edge">
<title>Node7&#45;&gt;Node42</title>
<path fill="none" stroke="midnightblue" d="M2876.07,-135.78C2904.98,-122.91 2948.9,-103.35 2974.03,-92.17"/>
<polygon fill="midnightblue" stroke="midnightblue" points="2874.6,-132.6 2866.89,-139.87 2877.45,-139 2874.6,-132.6"/>
</g>
<!-- Node43 -->
<g id="node43" class="node">
<title>Node43</title>
<g id="a_node43"><a xlink:href="f__op__overlap__mng_8cpp.html" target="_top" xlink:title=" ">
<polygon fill="white" stroke="black" points="3078.5,-67.5 3078.5,-97.5 3194.5,-97.5 3194.5,-67.5 3078.5,-67.5"/>
<text text-anchor="start" x="3086.5" y="-85.5" font-family="Helvetica,sans-Serif" font-size="10.00">src/f/f_op/f_op_overlap</text>
<text text-anchor="middle" x="3136.5" y="-74.5" font-family="Helvetica,sans-Serif" font-size="10.00">_mng.cpp</text>
</a>
</g>
</g>
<!-- Node7&#45;&gt;Node43 -->
<g id="edge44" class="edge">
<title>Node7&#45;&gt;Node43</title>
<path fill="none" stroke="midnightblue" d="M2895.54,-137.7C2945.76,-126.4 3024.62,-108.66 3078.34,-96.58"/>
<polygon fill="midnightblue" stroke="midnightblue" points="2894.57,-134.33 2885.58,-139.94 2896.1,-141.16 2894.57,-134.33"/>
</g>
<!-- Node44 -->
<g id="node44" class="node">
<title>Node44</title>
<g id="a_node44"><a xlink:href="f__op__overlap__req_8cpp.html" target="_top" xlink:title=" ">
<polygon fill="white" stroke="black" points="3212.5,-67.5 3212.5,-97.5 3328.5,-97.5 3328.5,-67.5 3212.5,-67.5"/>
<text text-anchor="start" x="3220.5" y="-85.5" font-family="Helvetica,sans-Serif" font-size="10.00">src/f/f_op/f_op_overlap</text>
<text text-anchor="middle" x="3270.5" y="-74.5" font-family="Helvetica,sans-Serif" font-size="10.00">_req.cpp</text>
</a>
</g>
</g>
<!-- Node7&#45;&gt;Node44 -->
<g id="edge45" class="edge">
<title>Node7&#45;&gt;Node44</title>
<path fill="none" stroke="midnightblue" d="M2899.27,-142.35C2968.72,-133.82 3095.81,-117.27 3203.5,-98 3206.43,-97.48 3209.42,-96.92 3212.45,-96.33"/>
<polygon fill="midnightblue" stroke="midnightblue" points="2898.54,-138.91 2889.04,-143.6 2899.39,-145.86 2898.54,-138.91"/>
</g>
<!-- Node45 -->
<g id="node45" class="node">
<title>Node45</title>
<g id="a_node45"><a xlink:href="f__op__scene__mng_8cpp.html" target="_top" xlink:title=" ">
<polygon fill="white" stroke="black" points="3347,-67.5 3347,-97.5 3458,-97.5 3458,-67.5 3347,-67.5"/>
<text text-anchor="start" x="3355" y="-85.5" font-family="Helvetica,sans-Serif" font-size="10.00">src/f/f_op/f_op_scene</text>
<text text-anchor="middle" x="3402.5" y="-74.5" font-family="Helvetica,sans-Serif" font-size="10.00">_mng.cpp</text>
</a>
</g>
</g>
<!-- Node7&#45;&gt;Node45 -->
<g id="edge46" class="edge">
<title>Node7&#45;&gt;Node45</title>
<path fill="none" stroke="midnightblue" d="M2899.18,-145.17C2988.82,-138.94 3178.76,-123.8 3337.5,-98 3340.58,-97.5 3343.74,-96.94 3346.91,-96.35"/>
<polygon fill="midnightblue" stroke="midnightblue" points="2898.75,-141.69 2889.02,-145.86 2899.23,-148.67 2898.75,-141.69"/>
</g>
<!-- Node7&#45;&gt;Node244 -->
<g id="edge48" class="edge">
<title>Node7&#45;&gt;Node244</title>
<path fill="none" stroke="midnightblue" d="M2899.08,-148.33C3162.51,-147.3 4359.58,-140.3 4728.5,-98 4731.75,-97.63 4735.07,-97.18 4738.42,-96.68"/>
<polygon fill="midnightblue" stroke="midnightblue" points="2899.02,-144.83 2889.03,-148.37 2899.04,-151.83 2899.02,-144.83"/>
</g>
<!-- Node7&#45;&gt;Node312 -->
<g id="edge54" class="edge">
<title>Node7&#45;&gt;Node312</title>
<path fill="none" stroke="midnightblue" d="M2899.32,-148.34C3180.64,-147.31 4526.82,-140.22 4940.5,-98 4945.13,-97.53 4949.9,-96.94 4954.69,-96.26"/>
<polygon fill="midnightblue" stroke="midnightblue" points="2898.99,-144.84 2889,-148.38 2899.02,-151.84 2898.99,-144.84"/>
</g>
<!-- Node244&#45;&gt;Node6 -->
<g id="edge53" class="edge">
<title>Node244&#45;&gt;Node6</title>
<path fill="none" stroke="midnightblue" d="M4852.78,-64.27C4891.95,-51.6 4943.5,-34.93 4974.19,-25.01"/>
<polygon fill="midnightblue" stroke="midnightblue" points="4851.55,-60.99 4843.11,-67.4 4853.71,-67.65 4851.55,-60.99"/>
</g>
<!-- Node244&#45;&gt;Node10 -->
<g id="edge49" class="edge">
<title>Node244&#45;&gt;Node10</title>
<path fill="none" stroke="midnightblue" d="M4728.8,-67.04C4728.7,-67.03 4728.6,-67.01 4728.5,-67 4427.36,-27.56 4062.49,-18.91 3927.27,-17.02"/>
<polygon fill="midnightblue" stroke="midnightblue" points="4728,-70.46 4738.4,-68.45 4729.02,-63.53 4728,-70.46"/>
</g>
<!-- Node244&#45;&gt;Node12 -->
<g id="edge50" class="edge">
<title>Node244&#45;&gt;Node12</title>
<path fill="none" stroke="midnightblue" d="M4806.46,-57.7C4809.12,-48.59 4812.07,-38.49 4814.39,-30.58"/>
<polygon fill="midnightblue" stroke="midnightblue" points="4803.07,-56.82 4803.62,-67.4 4809.79,-58.78 4803.07,-56.82"/>
</g>
<!-- Node244&#45;&gt;Node23 -->
<g id="edge51" class="edge">
<title>Node244&#45;&gt;Node23</title>
<path fill="none" stroke="midnightblue" d="M4728.8,-67.06C4728.7,-67.04 4728.6,-67.02 4728.5,-67 4639.98,-50.8 4536.83,-34.63 4474.13,-25.1"/>
<polygon fill="midnightblue" stroke="midnightblue" points="4727.87,-70.44 4738.34,-68.84 4729.16,-63.56 4727.87,-70.44"/>
</g>
<!-- Node244&#45;&gt;Node41 -->
<g id="edge52" class="edge">
<title>Node244&#45;&gt;Node41</title>
<path fill="none" stroke="midnightblue" d="M4728.8,-67.03C4728.7,-67.02 4728.6,-67.01 4728.5,-67 4483,-39.63 2665.2,-20.33 2332.66,-17.01"/>
<polygon fill="midnightblue" stroke="midnightblue" points="4728.05,-70.47 4738.42,-68.3 4728.96,-63.52 4728.05,-70.47"/>
</g>
<!-- Node312&#45;&gt;Node6 -->
<g id="edge55" class="edge">
<title>Node312&#45;&gt;Node6</title>
<path fill="none" stroke="midnightblue" d="M5013.15,-57.6C5009.66,-46.28 5005.72,-33.46 5003.18,-25.19"/>
<polygon fill="midnightblue" stroke="midnightblue" points="5009.87,-58.87 5016.16,-67.4 5016.56,-56.81 5009.87,-58.87"/>
</g>
<!-- Node314&#45;&gt;Node4 -->
<g id="edge58" class="edge">
<title>Node314&#45;&gt;Node4</title>
<path fill="none" stroke="midnightblue" d="M5003.87,-131.11C5041.23,-118.46 5090.17,-101.89 5119.37,-92.01"/>
<polygon fill="midnightblue" stroke="midnightblue" points="5002.51,-127.87 4994.16,-134.4 5004.76,-134.5 5002.51,-127.87"/>
</g>
</g>
</svg>
