<?xml version="1.0" encoding="UTF-8" standalone="no"?>
<!DOCTYPE svg PUBLIC "-//W3C//DTD SVG 1.1//EN"
 "http://www.w3.org/Graphics/SVG/1.1/DTD/svg11.dtd">
<!-- Generated by graphviz version 2.44.0 ()
 -->
<!-- Title: libs/JSystem/JStudio/stb.cpp Pages: 1 -->
<svg width="2532pt" height="341pt"
 viewBox="0.00 0.00 2532.00 341.00" xmlns="http://www.w3.org/2000/svg" xmlns:xlink="http://www.w3.org/1999/xlink">
<g id="graph0" class="graph" transform="scale(1 1) rotate(0) translate(4 337)">
<title>libs/JSystem/JStudio/stb.cpp</title>
<polygon fill="white" stroke="transparent" points="-4,4 -4,-337 2528,-337 2528,4 -4,4"/>
<!-- Node1 -->
<g id="node1" class="node">
<title>Node1</title>
<g id="a_node1"><a xlink:title=" ">
<polygon fill="#bfbfbf" stroke="black" points="1307,-302.5 1307,-332.5 1416,-332.5 1416,-302.5 1307,-302.5"/>
<text text-anchor="start" x="1315" y="-320.5" font-family="Helvetica,sans-Serif" font-size="10.00">libs/JSystem/JStudio</text>
<text text-anchor="middle" x="1361.5" y="-309.5" font-family="Helvetica,sans-Serif" font-size="10.00">/stb.cpp</text>
</a>
</g>
</g>
<!-- Node2 -->
<g id="node2" class="node">
<title>Node2</title>
<g id="a_node2"><a xlink:href="stb_8h.html" target="_top" xlink:title=" ">
<polygon fill="white" stroke="black" points="179,-235.5 179,-254.5 294,-254.5 294,-235.5 179,-235.5"/>
<text text-anchor="middle" x="236.5" y="-242.5" font-family="Helvetica,sans-Serif" font-size="10.00">JSystem/JStudio/stb.h</text>
</a>
</g>
</g>
<!-- Node1&#45;&gt;Node2 -->
<g id="edge1" class="edge">
<title>Node1&#45;&gt;Node2</title>
<path fill="none" stroke="midnightblue" d="M1306.75,-315.64C1118.6,-312.4 499.39,-299.4 303.5,-266 292.35,-264.1 280.43,-260.93 269.79,-257.67"/>
<polygon fill="midnightblue" stroke="midnightblue" points="270.63,-254.26 260.04,-254.55 268.5,-260.93 270.63,-254.26"/>
</g>
<!-- Node13 -->
<g id="node13" class="node">
<title>Node13</title>
<g id="a_node13"><a xlink:title=" ">
<polygon fill="white" stroke="#bfbfbf" points="312.5,-224.5 312.5,-265.5 484.5,-265.5 484.5,-224.5 312.5,-224.5"/>
<text text-anchor="start" x="320.5" y="-253.5" font-family="Helvetica,sans-Serif" font-size="10.00">JSystem/JStudio/asm</text>
<text text-anchor="start" x="320.5" y="-242.5" font-family="Helvetica,sans-Serif" font-size="10.00">/forward__Q37JStudio3stb7TObject</text>
<text text-anchor="middle" x="398.5" y="-231.5" font-family="Helvetica,sans-Serif" font-size="10.00">FUl.s</text>
</a>
</g>
</g>
<!-- Node1&#45;&gt;Node13 -->
<g id="edge19" class="edge">
<title>Node1&#45;&gt;Node13</title>
<path fill="none" stroke="midnightblue" d="M1306.89,-316.15C1171.07,-314.67 807.03,-306.99 494.77,-266.06"/>
<polygon fill="midnightblue" stroke="midnightblue" points="494.99,-262.56 484.62,-264.72 494.07,-269.5 494.99,-262.56"/>
</g>
<!-- Node14 -->
<g id="node14" class="node">
<title>Node14</title>
<g id="a_node14"><a xlink:title=" ">
<polygon fill="white" stroke="#bfbfbf" points="502.5,-224.5 502.5,-265.5 652.5,-265.5 652.5,-224.5 502.5,-224.5"/>
<text text-anchor="start" x="510.5" y="-253.5" font-family="Helvetica,sans-Serif" font-size="10.00">JSystem/JStudio/asm</text>
<text text-anchor="start" x="510.5" y="-242.5" font-family="Helvetica,sans-Serif" font-size="10.00">/process_sequence__</text>
<text text-anchor="middle" x="577.5" y="-231.5" font-family="Helvetica,sans-Serif" font-size="10.00">_Q37JStudio3stb7TObjectFv.s</text>
</a>
</g>
</g>
<!-- Node1&#45;&gt;Node14 -->
<g id="edge20" class="edge">
<title>Node1&#45;&gt;Node14</title>
<path fill="none" stroke="midnightblue" d="M1306.7,-315.56C1189.9,-312.89 907.79,-303.01 663.1,-266.12"/>
<polygon fill="midnightblue" stroke="midnightblue" points="663.36,-262.62 652.94,-264.57 662.3,-269.54 663.36,-262.62"/>
</g>
<!-- Node15 -->
<g id="node15" class="node">
<title>Node15</title>
<g id="a_node15"><a xlink:title=" ">
<polygon fill="white" stroke="#bfbfbf" points="670.5,-224.5 670.5,-265.5 864.5,-265.5 864.5,-224.5 670.5,-224.5"/>
<text text-anchor="start" x="678.5" y="-253.5" font-family="Helvetica,sans-Serif" font-size="10.00">JSystem/JStudio/asm</text>
<text text-anchor="start" x="678.5" y="-242.5" font-family="Helvetica,sans-Serif" font-size="10.00">/process_paragraph_reserved</text>
<text text-anchor="middle" x="767.5" y="-231.5" font-family="Helvetica,sans-Serif" font-size="10.00">___Q37JStudio3stb7TObjectFUlPCvUl.s</text>
</a>
</g>
</g>
<!-- Node1&#45;&gt;Node15 -->
<g id="edge21" class="edge">
<title>Node1&#45;&gt;Node15</title>
<path fill="none" stroke="midnightblue" d="M1306.91,-312.3C1216.65,-305.03 1030.76,-288.67 874.5,-266 874.4,-265.99 874.3,-265.97 874.19,-265.96"/>
<polygon fill="midnightblue" stroke="midnightblue" points="874.96,-262.53 864.55,-264.5 873.91,-269.45 874.96,-262.53"/>
</g>
<!-- Node16 -->
<g id="node16" class="node">
<title>Node16</title>
<g id="a_node16"><a xlink:title=" ">
<polygon fill="white" stroke="#bfbfbf" points="883,-224.5 883,-265.5 1066,-265.5 1066,-224.5 883,-224.5"/>
<text text-anchor="start" x="891" y="-253.5" font-family="Helvetica,sans-Serif" font-size="10.00">JSystem/JStudio/asm</text>
<text text-anchor="start" x="891" y="-242.5" font-family="Helvetica,sans-Serif" font-size="10.00">/appendObject__Q37JStudio3stb8</text>
<text text-anchor="middle" x="974.5" y="-231.5" font-family="Helvetica,sans-Serif" font-size="10.00">TControlFPQ37JStudio3stb7TObject.s</text>
</a>
</g>
</g>
<!-- Node1&#45;&gt;Node16 -->
<g id="edge22" class="edge">
<title>Node1&#45;&gt;Node16</title>
<path fill="none" stroke="midnightblue" d="M1306.88,-307.2C1251.41,-297.68 1162.79,-282.26 1076.15,-266.1"/>
<polygon fill="midnightblue" stroke="midnightblue" points="1076.62,-262.63 1066.14,-264.23 1075.33,-269.51 1076.62,-262.63"/>
</g>
<!-- Node17 -->
<g id="node17" class="node">
<title>Node17</title>
<g id="a_node17"><a xlink:title=" ">
<polygon fill="white" stroke="#bfbfbf" points="1084,-224.5 1084,-265.5 1267,-265.5 1267,-224.5 1084,-224.5"/>
<text text-anchor="start" x="1092" y="-253.5" font-family="Helvetica,sans-Serif" font-size="10.00">JSystem/JStudio/asm</text>
<text text-anchor="start" x="1092" y="-242.5" font-family="Helvetica,sans-Serif" font-size="10.00">/removeObject__Q37JStudio3stb8</text>
<text text-anchor="middle" x="1175.5" y="-231.5" font-family="Helvetica,sans-Serif" font-size="10.00">TControlFPQ37JStudio3stb7TObject.s</text>
</a>
</g>
</g>
<!-- Node1&#45;&gt;Node17 -->
<g id="edge23" class="edge">
<title>Node1&#45;&gt;Node17</title>
<path fill="none" stroke="midnightblue" d="M1324.31,-302.4C1299.26,-292.91 1265.63,-280.16 1236.69,-269.19"/>
<polygon fill="midnightblue" stroke="midnightblue" points="1237.66,-265.82 1227.07,-265.55 1235.18,-272.36 1237.66,-265.82"/>
</g>
<!-- Node18 -->
<g id="node18" class="node">
<title>Node18</title>
<g id="a_node18"><a xlink:title=" ">
<polygon fill="white" stroke="#bfbfbf" points="1285.5,-224.5 1285.5,-265.5 1437.5,-265.5 1437.5,-224.5 1285.5,-224.5"/>
<text text-anchor="start" x="1293.5" y="-253.5" font-family="Helvetica,sans-Serif" font-size="10.00">JSystem/JStudio/asm</text>
<text text-anchor="start" x="1293.5" y="-242.5" font-family="Helvetica,sans-Serif" font-size="10.00">/destroyObject_all_</text>
<text text-anchor="middle" x="1361.5" y="-231.5" font-family="Helvetica,sans-Serif" font-size="10.00">_Q37JStudio3stb8TControlFv.s</text>
</a>
</g>
</g>
<!-- Node1&#45;&gt;Node18 -->
<g id="edge24" class="edge">
<title>Node1&#45;&gt;Node18</title>
<path fill="none" stroke="midnightblue" d="M1361.5,-302.23C1361.5,-294.57 1361.5,-284.84 1361.5,-275.63"/>
<polygon fill="midnightblue" stroke="midnightblue" points="1365,-275.59 1361.5,-265.59 1358,-275.59 1365,-275.59"/>
</g>
<!-- Node19 -->
<g id="node19" class="node">
<title>Node19</title>
<g id="a_node19"><a xlink:title=" ">
<polygon fill="white" stroke="#bfbfbf" points="1456,-224.5 1456,-265.5 1603,-265.5 1603,-224.5 1456,-224.5"/>
<text text-anchor="start" x="1464" y="-253.5" font-family="Helvetica,sans-Serif" font-size="10.00">JSystem/JStudio/asm</text>
<text text-anchor="start" x="1464" y="-242.5" font-family="Helvetica,sans-Serif" font-size="10.00">/getObject__Q37JStudio3stb8</text>
<text text-anchor="middle" x="1529.5" y="-231.5" font-family="Helvetica,sans-Serif" font-size="10.00">TControlFPCvUl.s</text>
</a>
</g>
</g>
<!-- Node1&#45;&gt;Node19 -->
<g id="edge25" class="edge">
<title>Node1&#45;&gt;Node19</title>
<path fill="none" stroke="midnightblue" d="M1395.09,-302.4C1417.52,-292.99 1447.56,-280.39 1473.55,-269.48"/>
<polygon fill="midnightblue" stroke="midnightblue" points="1475.05,-272.64 1482.92,-265.55 1472.35,-266.19 1475.05,-272.64"/>
</g>
<!-- Node20 -->
<g id="node20" class="node">
<title>Node20</title>
<g id="a_node20"><a xlink:title=" ">
<polygon fill="white" stroke="#bfbfbf" points="1621.5,-230 1621.5,-260 1803.5,-260 1803.5,-230 1621.5,-230"/>
<text text-anchor="start" x="1629.5" y="-248" font-family="Helvetica,sans-Serif" font-size="10.00">JSystem/JStudio/asm</text>
<text text-anchor="middle" x="1712.5" y="-237" font-family="Helvetica,sans-Serif" font-size="10.00">/reset__Q37JStudio3stb8TControlFv.s</text>
</a>
</g>
</g>
<!-- Node1&#45;&gt;Node20 -->
<g id="edge26" class="edge">
<title>Node1&#45;&gt;Node20</title>
<path fill="none" stroke="midnightblue" d="M1416.34,-305.48C1474.39,-293.83 1566.56,-275.31 1632.66,-262.04"/>
<polygon fill="midnightblue" stroke="midnightblue" points="1633.51,-265.43 1642.63,-260.03 1632.14,-258.57 1633.51,-265.43"/>
</g>
<!-- Node21 -->
<g id="node21" class="node">
<title>Node21</title>
<g id="a_node21"><a xlink:title=" ">
<polygon fill="white" stroke="#bfbfbf" points="1821.5,-224.5 1821.5,-265.5 1995.5,-265.5 1995.5,-224.5 1821.5,-224.5"/>
<text text-anchor="start" x="1829.5" y="-253.5" font-family="Helvetica,sans-Serif" font-size="10.00">JSystem/JStudio/asm</text>
<text text-anchor="start" x="1829.5" y="-242.5" font-family="Helvetica,sans-Serif" font-size="10.00">/forward__Q37JStudio3stb8TControl</text>
<text text-anchor="middle" x="1908.5" y="-231.5" font-family="Helvetica,sans-Serif" font-size="10.00">FUl.s</text>
</a>
</g>
</g>
<!-- Node1&#45;&gt;Node21 -->
<g id="edge27" class="edge">
<title>Node1&#45;&gt;Node21</title>
<path fill="none" stroke="midnightblue" d="M1416.22,-312.04C1499.39,-304.9 1662.77,-289.43 1811.24,-266.13"/>
<polygon fill="midnightblue" stroke="midnightblue" points="1812.12,-269.53 1821.44,-264.51 1811.02,-262.62 1812.12,-269.53"/>
</g>
<!-- Node22 -->
<g id="node22" class="node">
<title>Node22</title>
<g id="a_node22"><a xlink:title=" ">
<polygon fill="white" stroke="#bfbfbf" points="2013.5,-224.5 2013.5,-265.5 2197.5,-265.5 2197.5,-224.5 2013.5,-224.5"/>
<text text-anchor="start" x="2021.5" y="-253.5" font-family="Helvetica,sans-Serif" font-size="10.00">JSystem/JStudio/asm</text>
<text text-anchor="start" x="2021.5" y="-242.5" font-family="Helvetica,sans-Serif" font-size="10.00">/parseHeader_next__Q37JStudio3stb6</text>
<text text-anchor="middle" x="2105.5" y="-231.5" font-family="Helvetica,sans-Serif" font-size="10.00">TParseFPPCvPUlUl.s</text>
</a>
</g>
</g>
<!-- Node1&#45;&gt;Node22 -->
<g id="edge28" class="edge">
<title>Node1&#45;&gt;Node22</title>
<path fill="none" stroke="midnightblue" d="M1416.35,-314.36C1526.04,-309.61 1780.32,-296.24 2003.45,-266.06"/>
<polygon fill="midnightblue" stroke="midnightblue" points="2003.94,-269.53 2013.38,-264.7 2002.99,-262.59 2003.94,-269.53"/>
</g>
<!-- Node23 -->
<g id="node23" class="node">
<title>Node23</title>
<g id="a_node23"><a xlink:title=" ">
<polygon fill="white" stroke="#bfbfbf" points="2216,-224.5 2216,-265.5 2393,-265.5 2393,-224.5 2216,-224.5"/>
<text text-anchor="start" x="2224" y="-253.5" font-family="Helvetica,sans-Serif" font-size="10.00">JSystem/JStudio/asm</text>
<text text-anchor="start" x="2224" y="-242.5" font-family="Helvetica,sans-Serif" font-size="10.00">/parseBlock_next__Q37JStudio3stb6</text>
<text text-anchor="middle" x="2304.5" y="-231.5" font-family="Helvetica,sans-Serif" font-size="10.00">TParseFPPCvPUlUl.s</text>
</a>
</g>
</g>
<!-- Node1&#45;&gt;Node23 -->
<g id="edge29" class="edge">
<title>Node1&#45;&gt;Node23</title>
<path fill="none" stroke="midnightblue" d="M1416.13,-315.91C1549.41,-313.9 1901.94,-305.12 2205.59,-266.01"/>
<polygon fill="midnightblue" stroke="midnightblue" points="2206.46,-269.42 2215.92,-264.66 2205.55,-262.48 2206.46,-269.42"/>
</g>
<!-- Node24 -->
<g id="node24" class="node">
<title>Node24</title>
<g id="a_node24"><a xlink:title=" ">
<polygon fill="white" stroke="#bfbfbf" points="2411,-230 2411,-260 2524,-260 2524,-230 2411,-230"/>
<text text-anchor="start" x="2419" y="-248" font-family="Helvetica,sans-Serif" font-size="10.00">JSystem/JStudio/asm</text>
<text text-anchor="middle" x="2467.5" y="-237" font-family="Helvetica,sans-Serif" font-size="10.00">/std_NS_find_if_X2_.s</text>
</a>
</g>
</g>
<!-- Node1&#45;&gt;Node24 -->
<g id="edge30" class="edge">
<title>Node1&#45;&gt;Node24</title>
<path fill="none" stroke="midnightblue" d="M1416.03,-315.65C1601.95,-312.48 2210.13,-299.71 2402.5,-266 2407.46,-265.13 2412.57,-264 2417.65,-262.71"/>
<polygon fill="midnightblue" stroke="midnightblue" points="2418.59,-266.08 2427.31,-260.07 2416.75,-259.33 2418.59,-266.08"/>
</g>
<!-- Node3 -->
<g id="node3" class="node">
<title>Node3</title>
<g id="a_node3"><a xlink:href="binary_8h.html" target="_top" xlink:title=" ">
<polygon fill="white" stroke="black" points="0,-168.5 0,-187.5 131,-187.5 131,-168.5 0,-168.5"/>
<text text-anchor="middle" x="65.5" y="-175.5" font-family="Helvetica,sans-Serif" font-size="10.00">JSystem/JGadget/binary.h</text>
</a>
</g>
</g>
<!-- Node2&#45;&gt;Node3 -->
<g id="edge2" class="edge">
<title>Node2&#45;&gt;Node3</title>
<path fill="none" stroke="midnightblue" d="M213.79,-235.37C183.94,-224.02 131.33,-204.02 97.47,-191.15"/>
<polygon fill="midnightblue" stroke="midnightblue" points="98.62,-187.85 88.03,-187.56 96.13,-194.39 98.62,-187.85"/>
</g>
<!-- Node5 -->
<g id="node5" class="node">
<title>Node5</title>
<g id="a_node5"><a xlink:href="linklist_8h.html" target="_top" xlink:title=" ">
<polygon fill="white" stroke="black" points="55,-56.5 55,-75.5 188,-75.5 188,-56.5 55,-56.5"/>
<text text-anchor="middle" x="121.5" y="-63.5" font-family="Helvetica,sans-Serif" font-size="10.00">JSystem/JGadget/linklist.h</text>
</a>
</g>
</g>
<!-- Node2&#45;&gt;Node5 -->
<g id="edge4" class="edge">
<title>Node2&#45;&gt;Node5</title>
<path fill="none" stroke="midnightblue" d="M230.95,-235.46C213.16,-208.08 157.27,-122.05 132.97,-84.65"/>
<polygon fill="midnightblue" stroke="midnightblue" points="135.65,-82.35 127.26,-75.87 129.78,-86.16 135.65,-82.35"/>
</g>
<!-- Node6 -->
<g id="node6" class="node">
<title>Node6</title>
<g id="a_node6"><a xlink:href="object-id_8h.html" target="_top" xlink:title=" ">
<polygon fill="white" stroke="black" points="206.5,-56.5 206.5,-75.5 344.5,-75.5 344.5,-56.5 206.5,-56.5"/>
<text text-anchor="middle" x="275.5" y="-63.5" font-family="Helvetica,sans-Serif" font-size="10.00">JSystem/JStudio/object&#45;id.h</text>
</a>
</g>
</g>
<!-- Node2&#45;&gt;Node6 -->
<g id="edge6" class="edge">
<title>Node2&#45;&gt;Node6</title>
<path fill="none" stroke="midnightblue" d="M238.38,-235.46C244.34,-208.43 262.89,-124.24 271.29,-86.11"/>
<polygon fill="midnightblue" stroke="midnightblue" points="274.81,-86.39 273.55,-75.87 267.98,-84.88 274.81,-86.39"/>
</g>
<!-- Node7 -->
<g id="node7" class="node">
<title>Node7</title>
<g id="a_node7"><a xlink:href="global_8h.html" target="_top" xlink:title=" ">
<polygon fill="white" stroke="black" points="413.5,-168.5 413.5,-187.5 463.5,-187.5 463.5,-168.5 413.5,-168.5"/>
<text text-anchor="middle" x="438.5" y="-175.5" font-family="Helvetica,sans-Serif" font-size="10.00">global.h</text>
</a>
</g>
</g>
<!-- Node2&#45;&gt;Node7 -->
<g id="edge8" class="edge">
<title>Node2&#45;&gt;Node7</title>
<path fill="none" stroke="midnightblue" d="M263.32,-235.37C299.53,-223.72 364.09,-202.94 403.91,-190.13"/>
<polygon fill="midnightblue" stroke="midnightblue" points="405.03,-193.45 413.47,-187.05 402.88,-186.78 405.03,-193.45"/>
</g>
<!-- Node4 -->
<g id="node4" class="node">
<title>Node4</title>
<g id="a_node4"><a xlink:href="types_8h.html" target="_top" xlink:title=" ">
<polygon fill="white" stroke="black" points="358,-0.5 358,-19.5 439,-19.5 439,-0.5 358,-0.5"/>
<text text-anchor="middle" x="398.5" y="-7.5" font-family="Helvetica,sans-Serif" font-size="10.00">dolphin/types.h</text>
</a>
</g>
</g>
<!-- Node3&#45;&gt;Node4 -->
<g id="edge3" class="edge">
<title>Node3&#45;&gt;Node4</title>
<path fill="none" stroke="midnightblue" d="M60,-168.41C46.83,-146.64 16.65,-88.76 45.5,-56 65.15,-33.68 254.91,-19.48 347.79,-13.81"/>
<polygon fill="midnightblue" stroke="midnightblue" points="348.04,-17.3 357.81,-13.21 347.62,-10.32 348.04,-17.3"/>
</g>
<!-- Node5&#45;&gt;Node4 -->
<g id="edge5" class="edge">
<title>Node5&#45;&gt;Node4</title>
<path fill="none" stroke="midnightblue" d="M165.39,-56.44C215.02,-46.77 295.69,-31.04 347.92,-20.86"/>
<polygon fill="midnightblue" stroke="midnightblue" points="348.82,-24.25 357.97,-18.9 347.48,-17.38 348.82,-24.25"/>
</g>
<!-- Node6&#45;&gt;Node4 -->
<g id="edge7" class="edge">
<title>Node6&#45;&gt;Node4</title>
<path fill="none" stroke="midnightblue" d="M294.99,-56.44C315.14,-47.6 346.82,-33.69 369.83,-23.59"/>
<polygon fill="midnightblue" stroke="midnightblue" points="371.35,-26.74 379.1,-19.52 368.54,-20.33 371.35,-26.74"/>
</g>
<!-- Node7&#45;&gt;Node4 -->
<g id="edge9" class="edge">
<title>Node7&#45;&gt;Node4</title>
<path fill="none" stroke="midnightblue" d="M432.83,-168.28C422.18,-151.34 399.56,-112.45 391.5,-76 388.05,-60.42 390.5,-42.34 393.41,-29.21"/>
<polygon fill="midnightblue" stroke="midnightblue" points="396.81,-30.06 395.85,-19.51 390.02,-28.36 396.81,-30.06"/>
</g>
<!-- Node8 -->
<g id="node8" class="node">
<title>Node8</title>
<g id="a_node8"><a xlink:href="AR_8h.html" target="_top" xlink:title=" ">
<polygon fill="white" stroke="black" points="401,-56.5 401,-75.5 450,-75.5 450,-56.5 401,-56.5"/>
<text text-anchor="middle" x="425.5" y="-63.5" font-family="Helvetica,sans-Serif" font-size="10.00">ar/AR.h</text>
</a>
</g>
</g>
<!-- Node7&#45;&gt;Node8 -->
<g id="edge10" class="edge">
<title>Node7&#45;&gt;Node8</title>
<path fill="none" stroke="midnightblue" d="M436.42,-168.43C434.33,-159.42 431.17,-144.8 429.5,-132 427.49,-116.56 426.49,-98.93 425.99,-85.93"/>
<polygon fill="midnightblue" stroke="midnightblue" points="429.48,-85.75 425.66,-75.87 422.49,-85.97 429.48,-85.75"/>
</g>
<!-- Node9 -->
<g id="node9" class="node">
<title>Node9</title>
<g id="a_node9"><a xlink:href="ARQ_8h.html" target="_top" xlink:title=" ">
<polygon fill="white" stroke="black" points="438.5,-112.5 438.5,-131.5 494.5,-131.5 494.5,-112.5 438.5,-112.5"/>
<text text-anchor="middle" x="466.5" y="-119.5" font-family="Helvetica,sans-Serif" font-size="10.00">ar/ARQ.h</text>
</a>
</g>
</g>
<!-- Node7&#45;&gt;Node9 -->
<g id="edge12" class="edge">
<title>Node7&#45;&gt;Node9</title>
<path fill="none" stroke="midnightblue" d="M443.12,-168.08C446.96,-160.69 452.52,-149.95 457.26,-140.81"/>
<polygon fill="midnightblue" stroke="midnightblue" points="460.47,-142.24 461.96,-131.75 454.25,-139.02 460.47,-142.24"/>
</g>
<!-- Node10 -->
<g id="node10" class="node">
<title>Node10</title>
<g id="a_node10"><a xlink:href="mwcc_8h.html" target="_top" xlink:title=" ">
<polygon fill="white" stroke="black" points="512.5,-112.5 512.5,-131.5 562.5,-131.5 562.5,-112.5 512.5,-112.5"/>
<text text-anchor="middle" x="537.5" y="-119.5" font-family="Helvetica,sans-Serif" font-size="10.00">mwcc.h</text>
</a>
</g>
</g>
<!-- Node7&#45;&gt;Node10 -->
<g id="edge14" class="edge">
<title>Node7&#45;&gt;Node10</title>
<path fill="none" stroke="midnightblue" d="M454.41,-168.32C470.14,-159.74 494.44,-146.49 512.71,-136.52"/>
<polygon fill="midnightblue" stroke="midnightblue" points="514.53,-139.52 521.63,-131.65 511.18,-133.37 514.53,-139.52"/>
</g>
<!-- Node11 -->
<g id="node11" class="node">
<title>Node11</title>
<g id="a_node11"><a xlink:href="OS_8h.html" target="_top" xlink:title=" ">
<polygon fill="white" stroke="black" points="580.5,-112.5 580.5,-131.5 632.5,-131.5 632.5,-112.5 580.5,-112.5"/>
<text text-anchor="middle" x="606.5" y="-119.5" font-family="Helvetica,sans-Serif" font-size="10.00">os/OS.h</text>
</a>
</g>
</g>
<!-- Node7&#45;&gt;Node11 -->
<g id="edge15" class="edge">
<title>Node7&#45;&gt;Node11</title>
<path fill="none" stroke="midnightblue" d="M463.65,-168.92C491.98,-159.81 538.26,-144.93 570.44,-134.59"/>
<polygon fill="midnightblue" stroke="midnightblue" points="571.9,-137.8 580.35,-131.41 569.75,-131.13 571.9,-137.8"/>
</g>
<!-- Node8&#45;&gt;Node4 -->
<g id="edge11" class="edge">
<title>Node8&#45;&gt;Node4</title>
<path fill="none" stroke="midnightblue" d="M421.04,-56.08C417.35,-48.69 411.98,-37.95 407.41,-28.81"/>
<polygon fill="midnightblue" stroke="midnightblue" points="410.48,-27.13 402.88,-19.75 404.22,-30.26 410.48,-27.13"/>
</g>
<!-- Node9&#45;&gt;Node4 -->
<g id="edge13" class="edge">
<title>Node9&#45;&gt;Node4</title>
<path fill="none" stroke="midnightblue" d="M467.48,-112.34C468.54,-99.21 468.87,-73.91 458.5,-56 450.86,-42.8 437.65,-32.26 425.56,-24.71"/>
<polygon fill="midnightblue" stroke="midnightblue" points="427.06,-21.53 416.65,-19.52 423.53,-27.57 427.06,-21.53"/>
</g>
<!-- Node11&#45;&gt;Node4 -->
<g id="edge16" class="edge">
<title>Node11&#45;&gt;Node4</title>
<path fill="none" stroke="midnightblue" d="M590.18,-112.37C554.03,-93.25 467.01,-47.23 423.76,-24.36"/>
<polygon fill="midnightblue" stroke="midnightblue" points="425.22,-21.17 414.75,-19.59 421.95,-27.36 425.22,-21.17"/>
</g>
<!-- Node12 -->
<g id="node12" class="node">
<title>Node12</title>
<g id="a_node12"><a xlink:href="dvd_8h.html" target="_top" xlink:title=" ">
<polygon fill="white" stroke="black" points="569,-56.5 569,-75.5 628,-75.5 628,-56.5 569,-56.5"/>
<text text-anchor="middle" x="598.5" y="-63.5" font-family="Helvetica,sans-Serif" font-size="10.00">dvd/dvd.h</text>
</a>
</g>
</g>
<!-- Node11&#45;&gt;Node12 -->
<g id="edge17" class="edge">
<title>Node11&#45;&gt;Node12</title>
<path fill="none" stroke="midnightblue" d="M605.18,-112.08C604.12,-104.93 602.59,-94.64 601.27,-85.69"/>
<polygon fill="midnightblue" stroke="midnightblue" points="604.72,-85.13 599.8,-75.75 597.8,-86.16 604.72,-85.13"/>
</g>
<!-- Node12&#45;&gt;Node4 -->
<g id="edge18" class="edge">
<title>Node12&#45;&gt;Node4</title>
<path fill="none" stroke="midnightblue" d="M568.99,-57.03C534.88,-47.82 478.5,-32.6 439.98,-22.2"/>
<polygon fill="midnightblue" stroke="midnightblue" points="440.68,-18.76 430.11,-19.54 438.86,-25.52 440.68,-18.76"/>
</g>
</g>
</svg>
