<?xml version="1.0" encoding="UTF-8" standalone="no"?>
<!DOCTYPE svg PUBLIC "-//W3C//DTD SVG 1.1//EN"
 "http://www.w3.org/Graphics/SVG/1.1/DTD/svg11.dtd">
<!-- Generated by graphviz version 2.44.0 ()
 -->
<!-- Title: include/JSystem/JStudio/stb.h Pages: 1 -->
<svg width="622pt" height="263pt"
 viewBox="0.00 0.00 621.50 263.00" xmlns="http://www.w3.org/2000/svg" xmlns:xlink="http://www.w3.org/1999/xlink">
<g id="graph0" class="graph" transform="scale(1 1) rotate(0) translate(4 259)">
<title>include/JSystem/JStudio/stb.h</title>
<polygon fill="white" stroke="transparent" points="-4,4 -4,-259 617.5,-259 617.5,4 -4,4"/>
<!-- Node1 -->
<g id="node1" class="node">
<title>Node1</title>
<g id="a_node1"><a xlink:title=" ">
<polygon fill="#bfbfbf" stroke="black" points="146,-224.5 146,-254.5 271,-254.5 271,-224.5 146,-224.5"/>
<text text-anchor="start" x="154" y="-242.5" font-family="Helvetica,sans-Serif" font-size="10.00">include/JSystem/JStudio</text>
<text text-anchor="middle" x="208.5" y="-231.5" font-family="Helvetica,sans-Serif" font-size="10.00">/stb.h</text>
</a>
</g>
</g>
<!-- Node2 -->
<g id="node2" class="node">
<title>Node2</title>
<g id="a_node2"><a xlink:href="binary_8h.html" target="_top" xlink:title=" ">
<polygon fill="white" stroke="black" points="0,-56.5 0,-75.5 131,-75.5 131,-56.5 0,-56.5"/>
<text text-anchor="middle" x="65.5" y="-63.5" font-family="Helvetica,sans-Serif" font-size="10.00">JSystem/JGadget/binary.h</text>
</a>
</g>
</g>
<!-- Node1&#45;&gt;Node2 -->
<g id="edge1" class="edge">
<title>Node1&#45;&gt;Node2</title>
<path fill="none" stroke="midnightblue" d="M145.72,-226.09C123.56,-218.64 100.46,-206.78 85.5,-188 61.93,-158.4 61.45,-111.59 63.35,-85.73"/>
<polygon fill="midnightblue" stroke="midnightblue" points="66.84,-86.03 64.29,-75.74 59.87,-85.37 66.84,-86.03"/>
</g>
<!-- Node4 -->
<g id="node4" class="node">
<title>Node4</title>
<g id="a_node4"><a xlink:href="linklist_8h.html" target="_top" xlink:title=" ">
<polygon fill="white" stroke="black" points="95,-168.5 95,-187.5 228,-187.5 228,-168.5 95,-168.5"/>
<text text-anchor="middle" x="161.5" y="-175.5" font-family="Helvetica,sans-Serif" font-size="10.00">JSystem/JGadget/linklist.h</text>
</a>
</g>
</g>
<!-- Node1&#45;&gt;Node4 -->
<g id="edge3" class="edge">
<title>Node1&#45;&gt;Node4</title>
<path fill="none" stroke="midnightblue" d="M197.36,-224.4C190.53,-215.75 181.76,-204.64 174.59,-195.58"/>
<polygon fill="midnightblue" stroke="midnightblue" points="177.28,-193.34 168.34,-187.66 171.79,-197.67 177.28,-193.34"/>
</g>
<!-- Node5 -->
<g id="node5" class="node">
<title>Node5</title>
<g id="a_node5"><a xlink:href="object-id_8h.html" target="_top" xlink:title=" ">
<polygon fill="white" stroke="black" points="187.5,-56.5 187.5,-75.5 325.5,-75.5 325.5,-56.5 187.5,-56.5"/>
<text text-anchor="middle" x="256.5" y="-63.5" font-family="Helvetica,sans-Serif" font-size="10.00">JSystem/JStudio/object&#45;id.h</text>
</a>
</g>
</g>
<!-- Node1&#45;&gt;Node5 -->
<g id="edge5" class="edge">
<title>Node1&#45;&gt;Node5</title>
<path fill="none" stroke="midnightblue" d="M218.23,-224.1C224.4,-214.32 232.02,-200.88 236.5,-188 248.59,-153.27 253.47,-110.32 255.37,-86.05"/>
<polygon fill="midnightblue" stroke="midnightblue" points="258.88,-85.98 256.08,-75.76 251.9,-85.49 258.88,-85.98"/>
</g>
<!-- Node6 -->
<g id="node6" class="node">
<title>Node6</title>
<g id="a_node6"><a xlink:href="global_8h.html" target="_top" xlink:title=" ">
<polygon fill="white" stroke="black" points="394.5,-168.5 394.5,-187.5 444.5,-187.5 444.5,-168.5 394.5,-168.5"/>
<text text-anchor="middle" x="419.5" y="-175.5" font-family="Helvetica,sans-Serif" font-size="10.00">global.h</text>
</a>
</g>
</g>
<!-- Node1&#45;&gt;Node6 -->
<g id="edge7" class="edge">
<title>Node1&#45;&gt;Node6</title>
<path fill="none" stroke="midnightblue" d="M258.24,-224.47C297.16,-213.5 350.29,-198.52 384.75,-188.8"/>
<polygon fill="midnightblue" stroke="midnightblue" points="385.7,-192.17 394.38,-186.08 383.8,-185.43 385.7,-192.17"/>
</g>
<!-- Node3 -->
<g id="node3" class="node">
<title>Node3</title>
<g id="a_node3"><a xlink:href="types_8h.html" target="_top" xlink:title=" ">
<polygon fill="white" stroke="black" points="339,-0.5 339,-19.5 420,-19.5 420,-0.5 339,-0.5"/>
<text text-anchor="middle" x="379.5" y="-7.5" font-family="Helvetica,sans-Serif" font-size="10.00">dolphin/types.h</text>
</a>
</g>
</g>
<!-- Node2&#45;&gt;Node3 -->
<g id="edge2" class="edge">
<title>Node2&#45;&gt;Node3</title>
<path fill="none" stroke="midnightblue" d="M115.25,-56.44C173.66,-46.4 269.98,-29.83 328.79,-19.72"/>
<polygon fill="midnightblue" stroke="midnightblue" points="329.7,-23.12 338.97,-17.97 328.52,-16.22 329.7,-23.12"/>
</g>
<!-- Node4&#45;&gt;Node3 -->
<g id="edge4" class="edge">
<title>Node4&#45;&gt;Node3</title>
<path fill="none" stroke="midnightblue" d="M159.74,-168.31C155.85,-146.33 149.01,-87.96 178.5,-56 198.45,-34.38 275.78,-21.96 328.5,-15.85"/>
<polygon fill="midnightblue" stroke="midnightblue" points="329.14,-19.3 338.69,-14.71 328.36,-12.34 329.14,-19.3"/>
</g>
<!-- Node5&#45;&gt;Node3 -->
<g id="edge6" class="edge">
<title>Node5&#45;&gt;Node3</title>
<path fill="none" stroke="midnightblue" d="M275.99,-56.44C296.14,-47.6 327.82,-33.69 350.83,-23.59"/>
<polygon fill="midnightblue" stroke="midnightblue" points="352.35,-26.74 360.1,-19.52 349.54,-20.33 352.35,-26.74"/>
</g>
<!-- Node6&#45;&gt;Node3 -->
<g id="edge8" class="edge">
<title>Node6&#45;&gt;Node3</title>
<path fill="none" stroke="midnightblue" d="M413.83,-168.28C403.18,-151.34 380.56,-112.45 372.5,-76 369.05,-60.42 371.5,-42.34 374.41,-29.21"/>
<polygon fill="midnightblue" stroke="midnightblue" points="377.81,-30.06 376.85,-19.51 371.02,-28.36 377.81,-30.06"/>
</g>
<!-- Node7 -->
<g id="node7" class="node">
<title>Node7</title>
<g id="a_node7"><a xlink:href="AR_8h.html" target="_top" xlink:title=" ">
<polygon fill="white" stroke="black" points="382,-56.5 382,-75.5 431,-75.5 431,-56.5 382,-56.5"/>
<text text-anchor="middle" x="406.5" y="-63.5" font-family="Helvetica,sans-Serif" font-size="10.00">ar/AR.h</text>
</a>
</g>
</g>
<!-- Node6&#45;&gt;Node7 -->
<g id="edge9" class="edge">
<title>Node6&#45;&gt;Node7</title>
<path fill="none" stroke="midnightblue" d="M417.42,-168.43C415.33,-159.42 412.17,-144.8 410.5,-132 408.49,-116.56 407.49,-98.93 406.99,-85.93"/>
<polygon fill="midnightblue" stroke="midnightblue" points="410.48,-85.75 406.66,-75.87 403.49,-85.97 410.48,-85.75"/>
</g>
<!-- Node8 -->
<g id="node8" class="node">
<title>Node8</title>
<g id="a_node8"><a xlink:href="ARQ_8h.html" target="_top" xlink:title=" ">
<polygon fill="white" stroke="black" points="419.5,-112.5 419.5,-131.5 475.5,-131.5 475.5,-112.5 419.5,-112.5"/>
<text text-anchor="middle" x="447.5" y="-119.5" font-family="Helvetica,sans-Serif" font-size="10.00">ar/ARQ.h</text>
</a>
</g>
</g>
<!-- Node6&#45;&gt;Node8 -->
<g id="edge11" class="edge">
<title>Node6&#45;&gt;Node8</title>
<path fill="none" stroke="midnightblue" d="M424.12,-168.08C427.96,-160.69 433.52,-149.95 438.26,-140.81"/>
<polygon fill="midnightblue" stroke="midnightblue" points="441.47,-142.24 442.96,-131.75 435.25,-139.02 441.47,-142.24"/>
</g>
<!-- Node9 -->
<g id="node9" class="node">
<title>Node9</title>
<g id="a_node9"><a xlink:href="mwcc_8h.html" target="_top" xlink:title=" ">
<polygon fill="white" stroke="black" points="493.5,-112.5 493.5,-131.5 543.5,-131.5 543.5,-112.5 493.5,-112.5"/>
<text text-anchor="middle" x="518.5" y="-119.5" font-family="Helvetica,sans-Serif" font-size="10.00">mwcc.h</text>
</a>
</g>
</g>
<!-- Node6&#45;&gt;Node9 -->
<g id="edge13" class="edge">
<title>Node6&#45;&gt;Node9</title>
<path fill="none" stroke="midnightblue" d="M435.41,-168.32C451.14,-159.74 475.44,-146.49 493.71,-136.52"/>
<polygon fill="midnightblue" stroke="midnightblue" points="495.53,-139.52 502.63,-131.65 492.18,-133.37 495.53,-139.52"/>
</g>
<!-- Node10 -->
<g id="node10" class="node">
<title>Node10</title>
<g id="a_node10"><a xlink:href="OS_8h.html" target="_top" xlink:title=" ">
<polygon fill="white" stroke="black" points="561.5,-112.5 561.5,-131.5 613.5,-131.5 613.5,-112.5 561.5,-112.5"/>
<text text-anchor="middle" x="587.5" y="-119.5" font-family="Helvetica,sans-Serif" font-size="10.00">os/OS.h</text>
</a>
</g>
</g>
<!-- Node6&#45;&gt;Node10 -->
<g id="edge14" class="edge">
<title>Node6&#45;&gt;Node10</title>
<path fill="none" stroke="midnightblue" d="M444.65,-168.92C472.98,-159.81 519.26,-144.93 551.44,-134.59"/>
<polygon fill="midnightblue" stroke="midnightblue" points="552.9,-137.8 561.35,-131.41 550.75,-131.13 552.9,-137.8"/>
</g>
<!-- Node7&#45;&gt;Node3 -->
<g id="edge10" class="edge">
<title>Node7&#45;&gt;Node3</title>
<path fill="none" stroke="midnightblue" d="M402.04,-56.08C398.35,-48.69 392.98,-37.95 388.41,-28.81"/>
<polygon fill="midnightblue" stroke="midnightblue" points="391.48,-27.13 383.88,-19.75 385.22,-30.26 391.48,-27.13"/>
</g>
<!-- Node8&#45;&gt;Node3 -->
<g id="edge12" class="edge">
<title>Node8&#45;&gt;Node3</title>
<path fill="none" stroke="midnightblue" d="M448.48,-112.34C449.54,-99.21 449.87,-73.91 439.5,-56 431.86,-42.8 418.65,-32.26 406.56,-24.71"/>
<polygon fill="midnightblue" stroke="midnightblue" points="408.06,-21.53 397.65,-19.52 404.53,-27.57 408.06,-21.53"/>
</g>
<!-- Node10&#45;&gt;Node3 -->
<g id="edge15" class="edge">
<title>Node10&#45;&gt;Node3</title>
<path fill="none" stroke="midnightblue" d="M571.18,-112.37C535.03,-93.25 448.01,-47.23 404.76,-24.36"/>
<polygon fill="midnightblue" stroke="midnightblue" points="406.22,-21.17 395.75,-19.59 402.95,-27.36 406.22,-21.17"/>
</g>
<!-- Node11 -->
<g id="node11" class="node">
<title>Node11</title>
<g id="a_node11"><a xlink:href="dvd_8h.html" target="_top" xlink:title=" ">
<polygon fill="white" stroke="black" points="550,-56.5 550,-75.5 609,-75.5 609,-56.5 550,-56.5"/>
<text text-anchor="middle" x="579.5" y="-63.5" font-family="Helvetica,sans-Serif" font-size="10.00">dvd/dvd.h</text>
</a>
</g>
</g>
<!-- Node10&#45;&gt;Node11 -->
<g id="edge16" class="edge">
<title>Node10&#45;&gt;Node11</title>
<path fill="none" stroke="midnightblue" d="M586.18,-112.08C585.12,-104.93 583.59,-94.64 582.27,-85.69"/>
<polygon fill="midnightblue" stroke="midnightblue" points="585.72,-85.13 580.8,-75.75 578.8,-86.16 585.72,-85.13"/>
</g>
<!-- Node11&#45;&gt;Node3 -->
<g id="edge17" class="edge">
<title>Node11&#45;&gt;Node3</title>
<path fill="none" stroke="midnightblue" d="M549.99,-57.03C515.88,-47.82 459.5,-32.6 420.98,-22.2"/>
<polygon fill="midnightblue" stroke="midnightblue" points="421.68,-18.76 411.11,-19.54 419.86,-25.52 421.68,-18.76"/>
</g>
</g>
</svg>
