<?xml version="1.0" encoding="UTF-8" standalone="no"?>
<!DOCTYPE svg PUBLIC "-//W3C//DTD SVG 1.1//EN"
 "http://www.w3.org/Graphics/SVG/1.1/DTD/svg11.dtd">
<!-- Generated by graphviz version 2.44.0 ()
 -->
<!-- Title: dEvent_manager_c Pages: 1 -->
<svg width="379pt" height="163pt"
 viewBox="0.00 0.00 379.00 163.00" xmlns="http://www.w3.org/2000/svg" xmlns:xlink="http://www.w3.org/1999/xlink">
<g id="graph0" class="graph" transform="scale(1 1) rotate(0) translate(4 159)">
<title>dEvent_manager_c</title>
<polygon fill="white" stroke="transparent" points="-4,4 -4,-159 375,-159 375,4 -4,4"/>
<!-- Node1 -->
<g id="node1" class="node">
<title>Node1</title>
<g id="a_node1"><a xlink:title=" ">
<polygon fill="#bfbfbf" stroke="black" points="131,-0.5 131,-19.5 231,-19.5 231,-0.5 131,-0.5"/>
<text text-anchor="middle" x="181" y="-7.5" font-family="Helvetica,sans-Serif" font-size="10.00">dEvent_manager_c</text>
</a>
</g>
</g>
<!-- Node2 -->
<g id="node2" class="node">
<title>Node2</title>
<g id="a_node2"><a xlink:href="classdEvent__exception__c.html" target="_top" xlink:title=" ">
<polygon fill="white" stroke="black" points="0,-78.5 0,-97.5 104,-97.5 104,-78.5 0,-78.5"/>
<text text-anchor="middle" x="52" y="-85.5" font-family="Helvetica,sans-Serif" font-size="10.00">dEvent_exception_c</text>
</a>
</g>
</g>
<!-- Node2&#45;&gt;Node1 -->
<g id="edge1" class="edge">
<title>Node2&#45;&gt;Node1</title>
<path fill="none" stroke="#9a32cd" stroke-dasharray="5,2" d="M54.52,-68.24C56.86,-57.93 61.36,-45.71 70,-38 86.57,-23.21 109.89,-16.19 130.88,-12.98"/>
<polygon fill="#9a32cd" stroke="#9a32cd" points="51.02,-67.91 52.74,-78.37 57.92,-69.13 51.02,-67.91"/>
<text text-anchor="middle" x="106.5" y="-46.5" font-family="Helvetica,sans-Serif" font-size="10.00"> event_exception</text>
</g>
<!-- Node3 -->
<g id="node3" class="node">
<title>Node3</title>
<g id="a_node3"><a xlink:href="classcXyz.html" target="_top" xlink:title=" ">
<polygon fill="white" stroke="black" points="122,-78.5 122,-97.5 160,-97.5 160,-78.5 122,-78.5"/>
<text text-anchor="middle" x="141" y="-85.5" font-family="Helvetica,sans-Serif" font-size="10.00">cXyz</text>
</a>
</g>
</g>
<!-- Node3&#45;&gt;Node1 -->
<g id="edge2" class="edge">
<title>Node3&#45;&gt;Node1</title>
<path fill="none" stroke="#9a32cd" stroke-dasharray="5,2" d="M144.13,-68.17C146.25,-58.68 149.67,-47.26 155,-38 159.03,-31.01 165.25,-24.45 170.6,-19.55"/>
<polygon fill="#9a32cd" stroke="#9a32cd" points="140.66,-67.69 142.2,-78.18 147.53,-69.02 140.66,-67.69"/>
<text text-anchor="middle" x="172" y="-52" font-family="Helvetica,sans-Serif" font-size="10.00"> goal</text>
<text text-anchor="middle" x="172" y="-41" font-family="Helvetica,sans-Serif" font-size="10.00">position</text>
</g>
<!-- Node4 -->
<g id="node4" class="node">
<title>Node4</title>
<g id="a_node4"><a xlink:href="structVec.html" target="_top" xlink:title=" ">
<polygon fill="white" stroke="black" points="124,-135.5 124,-154.5 158,-154.5 158,-135.5 124,-135.5"/>
<text text-anchor="middle" x="141" y="-142.5" font-family="Helvetica,sans-Serif" font-size="10.00">Vec</text>
</a>
</g>
</g>
<!-- Node4&#45;&gt;Node3 -->
<g id="edge3" class="edge">
<title>Node4&#45;&gt;Node3</title>
<path fill="none" stroke="midnightblue" d="M141,-125.12C141,-115.82 141,-105.06 141,-97.71"/>
<polygon fill="midnightblue" stroke="midnightblue" points="137.5,-125.41 141,-135.41 144.5,-125.41 137.5,-125.41"/>
</g>
<!-- Node5 -->
<g id="node5" class="node">
<title>Node5</title>
<g id="a_node5"><a xlink:href="classdEvDtFlag__c.html" target="_top" xlink:title=" ">
<polygon fill="white" stroke="black" points="178,-78.5 178,-97.5 250,-97.5 250,-78.5 178,-78.5"/>
<text text-anchor="middle" x="214" y="-85.5" font-family="Helvetica,sans-Serif" font-size="10.00">dEvDtFlag_c</text>
</a>
</g>
</g>
<!-- Node5&#45;&gt;Node1 -->
<g id="edge4" class="edge">
<title>Node5&#45;&gt;Node1</title>
<path fill="none" stroke="#9a32cd" stroke-dasharray="5,2" d="M206.04,-68.67C199.29,-53.11 189.89,-31.47 184.74,-19.62"/>
<polygon fill="#9a32cd" stroke="#9a32cd" points="203.02,-70.5 210.21,-78.28 209.44,-67.72 203.02,-70.5"/>
<text text-anchor="middle" x="236.5" y="-46.5" font-family="Helvetica,sans-Serif" font-size="10.00"> event_data_flag</text>
</g>
<!-- Node6 -->
<g id="node6" class="node">
<title>Node6</title>
<g id="a_node6"><a xlink:href="classdEvDtBase__c.html" target="_top" xlink:title=" ">
<polygon fill="white" stroke="black" points="269,-78.5 269,-97.5 345,-97.5 345,-78.5 269,-78.5"/>
<text text-anchor="middle" x="307" y="-85.5" font-family="Helvetica,sans-Serif" font-size="10.00">dEvDtBase_c</text>
</a>
</g>
</g>
<!-- Node6&#45;&gt;Node1 -->
<g id="edge5" class="edge">
<title>Node6&#45;&gt;Node1</title>
<path fill="none" stroke="#9a32cd" stroke-dasharray="5,2" d="M299.7,-69.21C294.54,-58.71 286.63,-45.95 276,-38 263.09,-28.35 246.85,-22.15 231.47,-18.16"/>
<polygon fill="#9a32cd" stroke="#9a32cd" points="296.52,-70.68 303.81,-78.37 302.91,-67.81 296.52,-70.68"/>
<text text-anchor="middle" x="332.5" y="-46.5" font-family="Helvetica,sans-Serif" font-size="10.00"> event_data_base</text>
</g>
</g>
</svg>
