<?xml version="1.0" encoding="UTF-8" standalone="no"?>
<!DOCTYPE svg PUBLIC "-//W3C//DTD SVG 1.1//EN"
 "http://www.w3.org/Graphics/SVG/1.1/DTD/svg11.dtd">
<!-- Generated by graphviz version 2.44.0 ()
 -->
<!-- Title: unk2 Pages: 1 -->
<svg width="234pt" height="164pt"
 viewBox="0.00 0.00 234.00 164.00" xmlns="http://www.w3.org/2000/svg" xmlns:xlink="http://www.w3.org/1999/xlink">
<g id="graph0" class="graph" transform="scale(1 1) rotate(0) translate(4 160)">
<title>unk2</title>
<polygon fill="white" stroke="transparent" points="-4,4 -4,-160 230,-160 230,4 -4,4"/>
<!-- Node1 -->
<g id="node1" class="node">
<title>Node1</title>
<g id="a_node1"><a xlink:title=" ">
<polygon fill="#bfbfbf" stroke="black" points="117.5,-0.5 117.5,-19.5 155.5,-19.5 155.5,-0.5 117.5,-0.5"/>
<text text-anchor="middle" x="136.5" y="-7.5" font-family="Helvetica,sans-Serif" font-size="10.00">unk2</text>
</a>
</g>
</g>
<!-- Node2 -->
<g id="node2" class="node">
<title>Node2</title>
<g id="a_node2"><a xlink:href="structcreate__tag__class.html" target="_top" xlink:title=" ">
<polygon fill="white" stroke="black" points="0,-67.5 0,-86.5 91,-86.5 91,-67.5 0,-67.5"/>
<text text-anchor="middle" x="45.5" y="-74.5" font-family="Helvetica,sans-Serif" font-size="10.00">create_tag_class</text>
</a>
</g>
</g>
<!-- Node2&#45;&gt;Node1 -->
<g id="edge1" class="edge">
<title>Node2&#45;&gt;Node1</title>
<path fill="none" stroke="#9a32cd" stroke-dasharray="5,2" d="M65.91,-61.42C83.9,-48.57 109.51,-30.28 124.42,-19.63"/>
<polygon fill="#9a32cd" stroke="#9a32cd" points="63.88,-58.57 57.77,-67.23 67.94,-64.27 63.88,-58.57"/>
<text text-anchor="middle" x="110.5" y="-41" font-family="Helvetica,sans-Serif" font-size="10.00"> mTag</text>
</g>
<!-- Node3 -->
<g id="node3" class="node">
<title>Node3</title>
<g id="a_node3"><a xlink:href="structnode__class.html" target="_top" xlink:title=" ">
<polygon fill="white" stroke="black" points="12.5,-135.5 12.5,-154.5 78.5,-154.5 78.5,-135.5 12.5,-135.5"/>
<text text-anchor="middle" x="45.5" y="-142.5" font-family="Helvetica,sans-Serif" font-size="10.00">node_class</text>
</a>
</g>
</g>
<!-- Node3&#45;&gt;Node2 -->
<g id="edge2" class="edge">
<title>Node3&#45;&gt;Node2</title>
<path fill="none" stroke="#9a32cd" stroke-dasharray="5,2" d="M45.5,-125.04C45.5,-112.47 45.5,-96.56 45.5,-86.84"/>
<polygon fill="#9a32cd" stroke="#9a32cd" points="42,-125.37 45.5,-135.37 49,-125.37 42,-125.37"/>
<text text-anchor="middle" x="65.5" y="-108" font-family="Helvetica,sans-Serif" font-size="10.00"> mpNode</text>
</g>
<!-- Node3&#45;&gt;Node3 -->
<g id="edge3" class="edge">
<title>Node3&#45;&gt;Node3</title>
<path fill="none" stroke="#9a32cd" stroke-dasharray="5,2" d="M89.15,-150.25C93.63,-149.22 96.5,-147.47 96.5,-145 96.5,-140.95 88.78,-138.83 78.85,-138.64"/>
<polygon fill="#9a32cd" stroke="#9a32cd" points="88.42,-146.81 78.85,-151.36 89.17,-153.77 88.42,-146.81"/>
<text text-anchor="middle" x="126.5" y="-148" font-family="Helvetica,sans-Serif" font-size="10.00"> mpNextNode</text>
<text text-anchor="middle" x="126.5" y="-137" font-family="Helvetica,sans-Serif" font-size="10.00">mpPrevNode</text>
</g>
<!-- Node4 -->
<g id="node4" class="node">
<title>Node4</title>
<g id="a_node4"><a xlink:href="structprocess__method__class.html" target="_top" xlink:title=" ">
<polygon fill="white" stroke="black" points="109,-67.5 109,-86.5 226,-86.5 226,-67.5 109,-67.5"/>
<text text-anchor="middle" x="167.5" y="-74.5" font-family="Helvetica,sans-Serif" font-size="10.00">process_method_class</text>
</a>
</g>
</g>
<!-- Node4&#45;&gt;Node1 -->
<g id="edge4" class="edge">
<title>Node4&#45;&gt;Node1</title>
<path fill="none" stroke="#9a32cd" stroke-dasharray="5,2" d="M158.99,-58.16C153.01,-45.63 145.28,-29.41 140.61,-19.63"/>
<polygon fill="#9a32cd" stroke="#9a32cd" points="155.86,-59.71 163.32,-67.23 162.17,-56.7 155.86,-59.71"/>
<text text-anchor="middle" x="176" y="-41" font-family="Helvetica,sans-Serif" font-size="10.00"> mpPcMtd</text>
</g>
</g>
</svg>
