<?xml version="1.0" encoding="UTF-8" standalone="no"?>
<!DOCTYPE svg PUBLIC "-//W3C//DTD SVG 1.1//EN"
 "http://www.w3.org/Graphics/SVG/1.1/DTD/svg11.dtd">
<!-- Generated by graphviz version 2.44.0 ()
 -->
<!-- Title: libs/Z2AudioLib/Z2AudioArcLoader.cpp Pages: 1 -->
<!--zoomable 363 -->
<svg id="main" version="1.1" xmlns="http://www.w3.org/2000/svg" xmlns:xlink="http://www.w3.org/1999/xlink" xml:space="preserve" onload="init(evt)">
<style type="text/css"><![CDATA[
.edge:hover path { stroke: red; }
.edge:hover polygon { stroke: red; fill: red; }
]]></style>
<script type="text/javascript"><![CDATA[
var edges = document.getElementsByTagName('g');
if (edges && edges.length) {
  for (var i=0;i<edges.length;i++) {
    if (edges[i].id.substr(0,4)=='edge') {
      edges[i].setAttribute('class','edge');
    }
  }
}
]]></script>
        <defs>
                <circle id="rim" cx="0" cy="0" r="7"/>
                <circle id="rim2" cx="0" cy="0" r="3.5"/>
                <g id="zoomPlus">
                        <use xlink:href="#rim" fill="#404040">
                                <set attributeName="fill" to="#808080" begin="zoomplus.mouseover" end="zoomplus.mouseout"/>
                        </use>
                        <path d="M-4,0h8M0,-4v8" fill="none" stroke="white" stroke-width="1.5" pointer-events="none"/>
                </g>
                <g id="zoomMin">
                        <use xlink:href="#rim" fill="#404040">
                                <set attributeName="fill" to="#808080" begin="zoomminus.mouseover" end="zoomminus.mouseout"/>
                        </use>
                        <path d="M-4,0h8" fill="none" stroke="white" stroke-width="1.5" pointer-events="none"/>
                </g>
                <g id="dirArrow">
                        <path fill="none" stroke="white" stroke-width="1.5" d="M0,-3.0v7 M-2.5,-0.5L0,-3.0L2.5,-0.5"/>
                </g>
               <g id="resetDef">
                       <use xlink:href="#rim2" fill="#404040">
                               <set attributeName="fill" to="#808080" begin="reset.mouseover" end="reset.mouseout"/>
                       </use>
               </g>
        </defs>

<script type="text/javascript">
var viewWidth = 1664;
var viewHeight = 363;
var sectionId = 'dynsection-0';
</script>
<script xlink:href="svgpan.js"/>
<svg id="graph" class="graph">
<g id="viewport">
<title>libs/Z2AudioLib/Z2AudioArcLoader.cpp</title>
<polygon fill="white" stroke="transparent" points="-4,4 -4,-359 1660,-359 1660,4 -4,4"/>
<!-- Node1 -->
<g id="node1" class="node">
<title>Node1</title>
<g id="a_node1"><a xlink:title=" ">
<polygon fill="#bfbfbf" stroke="black" points="762,-324.5 762,-354.5 900,-354.5 900,-324.5 762,-324.5"/>
<text text-anchor="start" x="770" y="-342.5" font-family="Helvetica,sans-Serif" font-size="10.00">libs/Z2AudioLib/Z2AudioArc</text>
<text text-anchor="middle" x="831" y="-331.5" font-family="Helvetica,sans-Serif" font-size="10.00">Loader.cpp</text>
</a>
</g>
</g>
<!-- Node2 -->
<g id="node2" class="node">
<title>Node2</title>
<g id="a_node2"><a xlink:href="Z2AudioArcLoader_8h.html" target="_top" xlink:title=" ">
<polygon fill="white" stroke="black" points="163,-257.5 163,-287.5 313,-287.5 313,-257.5 163,-257.5"/>
<text text-anchor="start" x="171" y="-275.5" font-family="Helvetica,sans-Serif" font-size="10.00">Z2AudioLib/Z2AudioArcLoader</text>
<text text-anchor="middle" x="238" y="-264.5" font-family="Helvetica,sans-Serif" font-size="10.00">/Z2AudioArcLoader.h</text>
</a>
</g>
</g>
<!-- Node1&#45;&gt;Node2 -->
<g id="edge1" class="edge">
<title>Node1&#45;&gt;Node2</title>
<path fill="none" stroke="midnightblue" d="M761.66,-333.21C665.54,-325.53 486.18,-309.92 323.27,-288.11"/>
<polygon fill="midnightblue" stroke="midnightblue" points="323.44,-284.6 313.06,-286.73 322.51,-291.54 323.44,-284.6"/>
</g>
<!-- Node6 -->
<g id="node6" class="node">
<title>Node6</title>
<g id="a_node6"><a xlink:href="JAUSectionHeap_8h.html" target="_top" xlink:title=" ">
<polygon fill="white" stroke="black" points="330.5,-257.5 330.5,-287.5 479.5,-287.5 479.5,-257.5 330.5,-257.5"/>
<text text-anchor="start" x="338.5" y="-275.5" font-family="Helvetica,sans-Serif" font-size="10.00">JSystem/JAudio2/JAUSection</text>
<text text-anchor="middle" x="405" y="-264.5" font-family="Helvetica,sans-Serif" font-size="10.00">Heap.h</text>
</a>
</g>
</g>
<!-- Node1&#45;&gt;Node6 -->
<g id="edge5" class="edge">
<title>Node1&#45;&gt;Node6</title>
<path fill="none" stroke="midnightblue" d="M761.82,-328.79C694.91,-319.28 590.38,-304.13 489.68,-288.09"/>
<polygon fill="midnightblue" stroke="midnightblue" points="490.07,-284.6 479.64,-286.48 488.96,-291.52 490.07,-284.6"/>
</g>
<!-- Node7 -->
<g id="node7" class="node">
<title>Node7</title>
<g id="a_node7"><a xlink:href="JKRHeap_8h.html" target="_top" xlink:title=" ">
<polygon fill="white" stroke="black" points="498,-257.5 498,-287.5 634,-287.5 634,-257.5 498,-257.5"/>
<text text-anchor="start" x="506" y="-275.5" font-family="Helvetica,sans-Serif" font-size="10.00">JSystem/JKernel/JKRHeap</text>
<text text-anchor="middle" x="566" y="-264.5" font-family="Helvetica,sans-Serif" font-size="10.00">/JKRHeap.h</text>
</a>
</g>
</g>
<!-- Node1&#45;&gt;Node7 -->
<g id="edge6" class="edge">
<title>Node1&#45;&gt;Node7</title>
<path fill="none" stroke="midnightblue" d="M773.83,-324.48C732.61,-314.37 676.83,-300.68 633.43,-290.04"/>
<polygon fill="midnightblue" stroke="midnightblue" points="634.08,-286.59 623.53,-287.61 632.41,-293.39 634.08,-286.59"/>
</g>
<!-- Node10 -->
<g id="node10" class="node">
<title>Node10</title>
<g id="a_node10"><a xlink:href="global_8h.html" target="_top" xlink:title=" ">
<polygon fill="white" stroke="black" points="637,-196 637,-215 687,-215 687,-196 637,-196"/>
<text text-anchor="middle" x="662" y="-203" font-family="Helvetica,sans-Serif" font-size="10.00">global.h</text>
</a>
</g>
</g>
<!-- Node1&#45;&gt;Node10 -->
<g id="edge24" class="edge">
<title>Node1&#45;&gt;Node10</title>
<path fill="none" stroke="midnightblue" d="M761.66,-330.16C732.99,-323.29 701.7,-310.78 681,-288 665.47,-270.9 661.9,-243.6 661.43,-225.37"/>
<polygon fill="midnightblue" stroke="midnightblue" points="664.93,-225.37 661.45,-215.36 657.93,-225.35 664.93,-225.37"/>
</g>
<!-- Node16 -->
<g id="node16" class="node">
<title>Node16</title>
<g id="a_node16"><a xlink:href="Z2FxLineMgr_8h.html" target="_top" xlink:title=" ">
<polygon fill="white" stroke="black" points="690,-257.5 690,-287.5 816,-287.5 816,-257.5 690,-257.5"/>
<text text-anchor="start" x="698" y="-275.5" font-family="Helvetica,sans-Serif" font-size="10.00">Z2AudioLib/Z2FxLineMgr</text>
<text text-anchor="middle" x="753" y="-264.5" font-family="Helvetica,sans-Serif" font-size="10.00">/Z2FxLineMgr.h</text>
</a>
</g>
</g>
<!-- Node1&#45;&gt;Node16 -->
<g id="edge23" class="edge">
<title>Node1&#45;&gt;Node16</title>
<path fill="none" stroke="midnightblue" d="M814.08,-324.4C803.45,-315.54 789.55,-303.96 777.7,-294.09"/>
<polygon fill="midnightblue" stroke="midnightblue" points="779.81,-291.29 769.89,-287.58 775.33,-296.67 779.81,-291.29"/>
</g>
<!-- Node17 -->
<g id="node17" class="node">
<title>Node17</title>
<g id="a_node17"><a xlink:title=" ">
<polygon fill="white" stroke="#bfbfbf" points="834,-257.5 834,-287.5 984,-287.5 984,-257.5 834,-257.5"/>
<text text-anchor="start" x="842" y="-275.5" font-family="Helvetica,sans-Serif" font-size="10.00">Z2AudioLib/Z2AudioArcLoader</text>
<text text-anchor="middle" x="909" y="-264.5" font-family="Helvetica,sans-Serif" font-size="10.00">/asm/func_802A9A34.s</text>
</a>
</g>
</g>
<!-- Node1&#45;&gt;Node17 -->
<g id="edge25" class="edge">
<title>Node1&#45;&gt;Node17</title>
<path fill="none" stroke="midnightblue" d="M847.92,-324.4C858.55,-315.54 872.45,-303.96 884.3,-294.09"/>
<polygon fill="midnightblue" stroke="midnightblue" points="886.67,-296.67 892.11,-287.58 882.19,-291.29 886.67,-296.67"/>
</g>
<!-- Node18 -->
<g id="node18" class="node">
<title>Node18</title>
<g id="a_node18"><a xlink:title=" ">
<polygon fill="white" stroke="#bfbfbf" points="1002,-257.5 1002,-287.5 1152,-287.5 1152,-257.5 1002,-257.5"/>
<text text-anchor="start" x="1010" y="-275.5" font-family="Helvetica,sans-Serif" font-size="10.00">Z2AudioLib/Z2AudioArcLoader</text>
<text text-anchor="middle" x="1077" y="-264.5" font-family="Helvetica,sans-Serif" font-size="10.00">/asm/func_802A9A70.s</text>
</a>
</g>
</g>
<!-- Node1&#45;&gt;Node18 -->
<g id="edge26" class="edge">
<title>Node1&#45;&gt;Node18</title>
<path fill="none" stroke="midnightblue" d="M884.08,-324.48C922.18,-314.41 973.68,-300.8 1013.89,-290.17"/>
<polygon fill="midnightblue" stroke="midnightblue" points="1014.82,-293.55 1023.6,-287.61 1013.03,-286.78 1014.82,-293.55"/>
</g>
<!-- Node19 -->
<g id="node19" class="node">
<title>Node19</title>
<g id="a_node19"><a xlink:title=" ">
<polygon fill="white" stroke="#bfbfbf" points="1170,-257.5 1170,-287.5 1320,-287.5 1320,-257.5 1170,-257.5"/>
<text text-anchor="start" x="1178" y="-275.5" font-family="Helvetica,sans-Serif" font-size="10.00">Z2AudioLib/Z2AudioArcLoader</text>
<text text-anchor="middle" x="1245" y="-264.5" font-family="Helvetica,sans-Serif" font-size="10.00">/asm/func_802A9AC8.s</text>
</a>
</g>
</g>
<!-- Node1&#45;&gt;Node19 -->
<g id="edge27" class="edge">
<title>Node1&#45;&gt;Node19</title>
<path fill="none" stroke="midnightblue" d="M900.27,-328.29C964.8,-318.69 1063.98,-303.71 1159.75,-288.19"/>
<polygon fill="midnightblue" stroke="midnightblue" points="1160.6,-291.59 1169.91,-286.54 1159.47,-284.69 1160.6,-291.59"/>
</g>
<!-- Node20 -->
<g id="node20" class="node">
<title>Node20</title>
<g id="a_node20"><a xlink:title=" ">
<polygon fill="white" stroke="#bfbfbf" points="1338,-257.5 1338,-287.5 1488,-287.5 1488,-257.5 1338,-257.5"/>
<text text-anchor="start" x="1346" y="-275.5" font-family="Helvetica,sans-Serif" font-size="10.00">Z2AudioLib/Z2AudioArcLoader</text>
<text text-anchor="middle" x="1413" y="-264.5" font-family="Helvetica,sans-Serif" font-size="10.00">/asm/func_802A9B54.s</text>
</a>
</g>
</g>
<!-- Node1&#45;&gt;Node20 -->
<g id="edge28" class="edge">
<title>Node1&#45;&gt;Node20</title>
<path fill="none" stroke="midnightblue" d="M900.06,-333.03C994.4,-325.22 1169.04,-309.54 1327.97,-288.08"/>
<polygon fill="midnightblue" stroke="midnightblue" points="1328.5,-291.54 1337.93,-286.73 1327.55,-284.61 1328.5,-291.54"/>
</g>
<!-- Node21 -->
<g id="node21" class="node">
<title>Node21</title>
<g id="a_node21"><a xlink:title=" ">
<polygon fill="white" stroke="#bfbfbf" points="1506,-257.5 1506,-287.5 1656,-287.5 1656,-257.5 1506,-257.5"/>
<text text-anchor="start" x="1514" y="-275.5" font-family="Helvetica,sans-Serif" font-size="10.00">Z2AudioLib/Z2AudioArcLoader</text>
<text text-anchor="middle" x="1581" y="-264.5" font-family="Helvetica,sans-Serif" font-size="10.00">/asm/func_802A9B58.s</text>
</a>
</g>
</g>
<!-- Node1&#45;&gt;Node21 -->
<g id="edge29" class="edge">
<title>Node1&#45;&gt;Node21</title>
<path fill="none" stroke="midnightblue" d="M900.25,-335.43C1019.74,-329.64 1272.54,-315.31 1496,-288.04"/>
<polygon fill="midnightblue" stroke="midnightblue" points="1496.45,-291.52 1505.95,-286.82 1495.59,-284.57 1496.45,-291.52"/>
</g>
<!-- Node3 -->
<g id="node3" class="node">
<title>Node3</title>
<g id="a_node3"><a xlink:href="JAUAudioArcInterpreter_8h.html" target="_top" xlink:title=" ">
<polygon fill="white" stroke="black" points="0,-190.5 0,-220.5 140,-220.5 140,-190.5 0,-190.5"/>
<text text-anchor="start" x="8" y="-208.5" font-family="Helvetica,sans-Serif" font-size="10.00">JSystem/JAudio2/JAUAudio</text>
<text text-anchor="middle" x="70" y="-197.5" font-family="Helvetica,sans-Serif" font-size="10.00">ArcInterpreter.h</text>
</a>
</g>
</g>
<!-- Node2&#45;&gt;Node3 -->
<g id="edge2" class="edge">
<title>Node2&#45;&gt;Node3</title>
<path fill="none" stroke="midnightblue" d="M201.55,-257.4C176.45,-247.69 142.91,-234.71 115.98,-224.29"/>
<polygon fill="midnightblue" stroke="midnightblue" points="116.97,-220.92 106.38,-220.58 114.45,-227.45 116.97,-220.92"/>
</g>
<!-- Node4 -->
<g id="node4" class="node">
<title>Node4</title>
<g id="a_node4"><a xlink:href="JAUAudioArcLoader_8h.html" target="_top" xlink:title=" ">
<polygon fill="white" stroke="black" points="158.5,-190.5 158.5,-220.5 319.5,-220.5 319.5,-190.5 158.5,-190.5"/>
<text text-anchor="start" x="166.5" y="-208.5" font-family="Helvetica,sans-Serif" font-size="10.00">JSystem/JAudio2/JAUAudio</text>
<text text-anchor="middle" x="239" y="-197.5" font-family="Helvetica,sans-Serif" font-size="10.00">ArcLoader/JAUAudioArcLoader.h</text>
</a>
</g>
</g>
<!-- Node2&#45;&gt;Node4 -->
<g id="edge3" class="edge">
<title>Node2&#45;&gt;Node4</title>
<path fill="none" stroke="midnightblue" d="M238.22,-257.4C238.34,-249.64 238.49,-239.81 238.63,-230.86"/>
<polygon fill="midnightblue" stroke="midnightblue" points="242.13,-230.63 238.78,-220.58 235.13,-230.52 242.13,-230.63"/>
</g>
<!-- Node5 -->
<g id="node5" class="node">
<title>Node5</title>
<g id="a_node5"><a xlink:href="types_8h.html" target="_top" xlink:title=" ">
<polygon fill="white" stroke="black" points="578.5,-0.5 578.5,-19.5 659.5,-19.5 659.5,-0.5 578.5,-0.5"/>
<text text-anchor="middle" x="619" y="-7.5" font-family="Helvetica,sans-Serif" font-size="10.00">dolphin/types.h</text>
</a>
</g>
</g>
<!-- Node2&#45;&gt;Node5 -->
<g id="edge4" class="edge">
<title>Node2&#45;&gt;Node5</title>
<path fill="none" stroke="midnightblue" d="M273.37,-257.42C291.57,-248.89 313.2,-236.63 329,-221 389.01,-161.66 355.27,-106.36 423,-56 465.19,-24.63 525.56,-14.6 568.13,-11.65"/>
<polygon fill="midnightblue" stroke="midnightblue" points="568.5,-15.14 578.27,-11.06 568.09,-8.15 568.5,-15.14"/>
</g>
<!-- Node7&#45;&gt;Node5 -->
<g id="edge11" class="edge">
<title>Node7&#45;&gt;Node5</title>
<path fill="none" stroke="midnightblue" d="M538.8,-257.4C506.17,-238.75 453.08,-202.5 431,-154 422.76,-135.91 425.84,-68.01 436,-56 452.92,-36 520.26,-23.42 568.33,-16.79"/>
<polygon fill="midnightblue" stroke="midnightblue" points="568.82,-20.26 578.27,-15.47 567.9,-13.32 568.82,-20.26"/>
</g>
<!-- Node8 -->
<g id="node8" class="node">
<title>Node8</title>
<g id="a_node8"><a xlink:href="JKRDisposer_8h.html" target="_top" xlink:title=" ">
<polygon fill="white" stroke="black" points="439.5,-123.5 439.5,-153.5 590.5,-153.5 590.5,-123.5 439.5,-123.5"/>
<text text-anchor="start" x="447.5" y="-141.5" font-family="Helvetica,sans-Serif" font-size="10.00">JSystem/JKernel/JKRDisposer</text>
<text text-anchor="middle" x="515" y="-130.5" font-family="Helvetica,sans-Serif" font-size="10.00">/JKRDisposer.h</text>
</a>
</g>
</g>
<!-- Node7&#45;&gt;Node8 -->
<g id="edge7" class="edge">
<title>Node7&#45;&gt;Node8</title>
<path fill="none" stroke="midnightblue" d="M560.54,-257.37C551.84,-234.85 534.72,-190.53 524.13,-163.12"/>
<polygon fill="midnightblue" stroke="midnightblue" points="527.29,-161.59 520.42,-153.52 520.76,-164.11 527.29,-161.59"/>
</g>
<!-- Node7&#45;&gt;Node10 -->
<g id="edge12" class="edge">
<title>Node7&#45;&gt;Node10</title>
<path fill="none" stroke="midnightblue" d="M586.83,-257.4C602.78,-246.6 624.7,-231.76 640.75,-220.89"/>
<polygon fill="midnightblue" stroke="midnightblue" points="643.12,-223.51 649.44,-215.01 639.19,-217.72 643.12,-223.51"/>
</g>
<!-- Node8&#45;&gt;Node5 -->
<g id="edge10" class="edge">
<title>Node8&#45;&gt;Node5</title>
<path fill="none" stroke="midnightblue" d="M488.43,-123.39C461.78,-107.39 427.18,-80.35 446,-56 460.91,-36.71 522.68,-24.15 568.18,-17.32"/>
<polygon fill="midnightblue" stroke="midnightblue" points="568.8,-20.77 578.2,-15.87 567.8,-13.84 568.8,-20.77"/>
</g>
<!-- Node9 -->
<g id="node9" class="node">
<title>Node9</title>
<g id="a_node9"><a xlink:href="JSUList_8h.html" target="_top" xlink:title=" ">
<polygon fill="white" stroke="black" points="455,-56.5 455,-86.5 591,-86.5 591,-56.5 455,-56.5"/>
<text text-anchor="start" x="463" y="-74.5" font-family="Helvetica,sans-Serif" font-size="10.00">JSystem/JSupport/JSUList</text>
<text text-anchor="middle" x="523" y="-63.5" font-family="Helvetica,sans-Serif" font-size="10.00">/JSUList.h</text>
</a>
</g>
</g>
<!-- Node8&#45;&gt;Node9 -->
<g id="edge8" class="edge">
<title>Node8&#45;&gt;Node9</title>
<path fill="none" stroke="midnightblue" d="M516.74,-123.4C517.7,-115.56 518.93,-105.6 520.04,-96.57"/>
<polygon fill="midnightblue" stroke="midnightblue" points="523.52,-96.93 521.27,-86.58 516.57,-96.07 523.52,-96.93"/>
</g>
<!-- Node9&#45;&gt;Node5 -->
<g id="edge9" class="edge">
<title>Node9&#45;&gt;Node5</title>
<path fill="none" stroke="midnightblue" d="M545.75,-56.4C560.99,-46.95 580.99,-34.56 596.24,-25.11"/>
<polygon fill="midnightblue" stroke="midnightblue" points="598.38,-27.9 605.03,-19.66 594.69,-21.95 598.38,-27.9"/>
</g>
<!-- Node10&#45;&gt;Node5 -->
<g id="edge13" class="edge">
<title>Node10&#45;&gt;Node5</title>
<path fill="none" stroke="midnightblue" d="M660.1,-195.94C653.62,-166.79 632.33,-70.97 623.21,-29.93"/>
<polygon fill="midnightblue" stroke="midnightblue" points="626.57,-28.91 620.98,-19.91 619.73,-30.43 626.57,-28.91"/>
</g>
<!-- Node11 -->
<g id="node11" class="node">
<title>Node11</title>
<g id="a_node11"><a xlink:href="AR_8h.html" target="_top" xlink:title=" ">
<polygon fill="white" stroke="black" points="647.5,-62 647.5,-81 696.5,-81 696.5,-62 647.5,-62"/>
<text text-anchor="middle" x="672" y="-69" font-family="Helvetica,sans-Serif" font-size="10.00">ar/AR.h</text>
</a>
</g>
</g>
<!-- Node10&#45;&gt;Node11 -->
<g id="edge14" class="edge">
<title>Node10&#45;&gt;Node11</title>
<path fill="none" stroke="midnightblue" d="M662.66,-195.84C664.26,-174.67 668.41,-119.95 670.6,-91.03"/>
<polygon fill="midnightblue" stroke="midnightblue" points="674.09,-91.26 671.35,-81.02 667.11,-90.73 674.09,-91.26"/>
</g>
<!-- Node12 -->
<g id="node12" class="node">
<title>Node12</title>
<g id="a_node12"><a xlink:href="ARQ_8h.html" target="_top" xlink:title=" ">
<polygon fill="white" stroke="black" points="715,-62 715,-81 771,-81 771,-62 715,-62"/>
<text text-anchor="middle" x="743" y="-69" font-family="Helvetica,sans-Serif" font-size="10.00">ar/ARQ.h</text>
</a>
</g>
</g>
<!-- Node10&#45;&gt;Node12 -->
<g id="edge16" class="edge">
<title>Node10&#45;&gt;Node12</title>
<path fill="none" stroke="midnightblue" d="M667.31,-195.84C680.47,-174.39 714.78,-118.49 732.33,-89.9"/>
<polygon fill="midnightblue" stroke="midnightblue" points="735.52,-91.37 737.77,-81.02 729.56,-87.71 735.52,-91.37"/>
</g>
<!-- Node13 -->
<g id="node13" class="node">
<title>Node13</title>
<g id="a_node13"><a xlink:href="mwcc_8h.html" target="_top" xlink:title=" ">
<polygon fill="white" stroke="black" points="727,-129 727,-148 777,-148 777,-129 727,-129"/>
<text text-anchor="middle" x="752" y="-136" font-family="Helvetica,sans-Serif" font-size="10.00">mwcc.h</text>
</a>
</g>
</g>
<!-- Node10&#45;&gt;Node13 -->
<g id="edge18" class="edge">
<title>Node10&#45;&gt;Node13</title>
<path fill="none" stroke="midnightblue" d="M674.14,-195.73C688.85,-185.11 713.86,-167.05 731.56,-154.26"/>
<polygon fill="midnightblue" stroke="midnightblue" points="734,-156.82 740.05,-148.13 729.9,-151.14 734,-156.82"/>
</g>
<!-- Node14 -->
<g id="node14" class="node">
<title>Node14</title>
<g id="a_node14"><a xlink:href="OS_8h.html" target="_top" xlink:title=" ">
<polygon fill="white" stroke="black" points="795,-129 795,-148 847,-148 847,-129 795,-129"/>
<text text-anchor="middle" x="821" y="-136" font-family="Helvetica,sans-Serif" font-size="10.00">os/OS.h</text>
</a>
</g>
</g>
<!-- Node10&#45;&gt;Node14 -->
<g id="edge19" class="edge">
<title>Node10&#45;&gt;Node14</title>
<path fill="none" stroke="midnightblue" d="M683.08,-195.96C707.76,-185.95 749.88,-168.84 786,-154 787.59,-153.35 789.22,-152.68 790.86,-152"/>
<polygon fill="midnightblue" stroke="midnightblue" points="792.37,-155.16 800.28,-148.11 789.7,-148.69 792.37,-155.16"/>
</g>
<!-- Node11&#45;&gt;Node5 -->
<g id="edge15" class="edge">
<title>Node11&#45;&gt;Node5</title>
<path fill="none" stroke="midnightblue" d="M664.41,-61.98C656.3,-52.87 643.27,-38.24 633.24,-26.98"/>
<polygon fill="midnightblue" stroke="midnightblue" points="635.84,-24.65 626.58,-19.51 630.62,-29.3 635.84,-24.65"/>
</g>
<!-- Node12&#45;&gt;Node5 -->
<g id="edge17" class="edge">
<title>Node12&#45;&gt;Node5</title>
<path fill="none" stroke="midnightblue" d="M725.23,-61.98C704.52,-52.03 670.05,-35.49 646.01,-23.96"/>
<polygon fill="midnightblue" stroke="midnightblue" points="647.26,-20.68 636.73,-19.51 644.23,-26.99 647.26,-20.68"/>
</g>
<!-- Node14&#45;&gt;Node5 -->
<g id="edge20" class="edge">
<title>Node14&#45;&gt;Node5</title>
<path fill="none" stroke="midnightblue" d="M819.13,-128.91C815.04,-112.26 803.73,-75.53 780,-56 748.93,-30.43 704.28,-19.36 669.89,-14.58"/>
<polygon fill="midnightblue" stroke="midnightblue" points="669.92,-11.06 659.57,-13.29 669.05,-18 669.92,-11.06"/>
</g>
<!-- Node15 -->
<g id="node15" class="node">
<title>Node15</title>
<g id="a_node15"><a xlink:href="dvd_8h.html" target="_top" xlink:title=" ">
<polygon fill="white" stroke="black" points="827.5,-62 827.5,-81 886.5,-81 886.5,-62 827.5,-62"/>
<text text-anchor="middle" x="857" y="-69" font-family="Helvetica,sans-Serif" font-size="10.00">dvd/dvd.h</text>
</a>
</g>
</g>
<!-- Node14&#45;&gt;Node15 -->
<g id="edge21" class="edge">
<title>Node14&#45;&gt;Node15</title>
<path fill="none" stroke="midnightblue" d="M825.86,-128.73C831.31,-118.89 840.3,-102.66 847.22,-90.16"/>
<polygon fill="midnightblue" stroke="midnightblue" points="850.44,-91.57 852.22,-81.13 844.31,-88.18 850.44,-91.57"/>
</g>
<!-- Node15&#45;&gt;Node5 -->
<g id="edge22" class="edge">
<title>Node15&#45;&gt;Node5</title>
<path fill="none" stroke="midnightblue" d="M832.45,-61.98C826.15,-59.91 819.35,-57.78 813,-56 764.76,-42.49 708.98,-29.86 669.65,-21.44"/>
<polygon fill="midnightblue" stroke="midnightblue" points="670.28,-17.99 659.77,-19.34 668.83,-24.84 670.28,-17.99"/>
</g>
</g>
</svg>
        <g id="navigator" transform="translate(0 0)" fill="#404254">
                <rect fill="#f2f5e9" fill-opacity="0.5" stroke="#606060" stroke-width=".5" x="0" y="0" width="60" height="60"/>
                <use id="zoomplus" xlink:href="#zoomPlus" x="17" y="9" onmousedown="handleZoom(evt,'in')"/>
                <use id="zoomminus" xlink:href="#zoomMin" x="42" y="9" onmousedown="handleZoom(evt,'out')"/>
                <use id="reset" xlink:href="#resetDef" x="30" y="36" onmousedown="handleReset()"/>
                <g id="arrowUp" xlink:href="#dirArrow" transform="translate(30 24)" onmousedown="handlePan(0,-1)">
                  <use xlink:href="#rim" fill="#404040">
                        <set attributeName="fill" to="#808080" begin="arrowUp.mouseover" end="arrowUp.mouseout"/>
                  </use>
                  <path fill="none" stroke="white" stroke-width="1.5" d="M0,-3.0v7 M-2.5,-0.5L0,-3.0L2.5,-0.5"/>
                </g>
                <g id="arrowRight" xlink:href="#dirArrow" transform="rotate(90) translate(36 -43)" onmousedown="handlePan(1,0)">
                  <use xlink:href="#rim" fill="#404040">
                        <set attributeName="fill" to="#808080" begin="arrowRight.mouseover" end="arrowRight.mouseout"/>
                  </use>
                  <path fill="none" stroke="white" stroke-width="1.5" d="M0,-3.0v7 M-2.5,-0.5L0,-3.0L2.5,-0.5"/>
                </g>
                <g id="arrowDown" xlink:href="#dirArrow" transform="rotate(180) translate(-30 -48)" onmousedown="handlePan(0,1)">
                  <use xlink:href="#rim" fill="#404040">
                        <set attributeName="fill" to="#808080" begin="arrowDown.mouseover" end="arrowDown.mouseout"/>
                  </use>
                  <path fill="none" stroke="white" stroke-width="1.5" d="M0,-3.0v7 M-2.5,-0.5L0,-3.0L2.5,-0.5"/>
                </g>
                <g id="arrowLeft" xlink:href="#dirArrow" transform="rotate(270) translate(-36 17)" onmousedown="handlePan(-1,0)">
                  <use xlink:href="#rim" fill="#404040">
                        <set attributeName="fill" to="#808080" begin="arrowLeft.mouseover" end="arrowLeft.mouseout"/>
                  </use>
                  <path fill="none" stroke="white" stroke-width="1.5" d="M0,-3.0v7 M-2.5,-0.5L0,-3.0L2.5,-0.5"/>
                </g>
        </g>
        <svg viewBox="0 0 15 15" width="100%" height="30px" preserveAspectRatio="xMaxYMin meet">
         <g id="arrow_out" transform="scale(0.3 0.3)">
          <a xlink:href="Z2AudioArcLoader_8cpp__incl_org.svg" target="_base">
           <rect id="button" ry="5" rx="5" y="6" x="6" height="38" width="38"
                fill="#f2f5e9" fill-opacity="0.5" stroke="#606060" stroke-width="1.0"/>
           <path id="arrow"
             d="M 11.500037,31.436501 C 11.940474,20.09759 22.043105,11.32322 32.158766,21.979434 L 37.068811,17.246167 C 37.068811,17.246167 37.088388,32 37.088388,32 L 22.160133,31.978069 C 22.160133,31.978069 26.997745,27.140456 26.997745,27.140456 C 18.528582,18.264221 13.291696,25.230495 11.500037,31.436501 z"
             style="fill:#404040;"/>
          </a>
         </g>
        </svg>
</svg>
