<?xml version="1.0" encoding="UTF-8" standalone="no"?>
<!DOCTYPE svg PUBLIC "-//W3C//DTD SVG 1.1//EN"
 "http://www.w3.org/Graphics/SVG/1.1/DTD/svg11.dtd">
<!-- Generated by graphviz version 2.44.0 ()
 -->
<!-- Title: include/Z2AudioLib/Z2AudioMgr/Z2AudioMgr.h Pages: 1 -->
<!--zoomable 553 -->
<svg id="main" version="1.1" xmlns="http://www.w3.org/2000/svg" xmlns:xlink="http://www.w3.org/1999/xlink" xml:space="preserve" onload="init(evt)">
<style type="text/css"><![CDATA[
.edge:hover path { stroke: red; }
.edge:hover polygon { stroke: red; fill: red; }
]]></style>
<script type="text/javascript"><![CDATA[
var edges = document.getElementsByTagName('g');
if (edges && edges.length) {
  for (var i=0;i<edges.length;i++) {
    if (edges[i].id.substr(0,4)=='edge') {
      edges[i].setAttribute('class','edge');
    }
  }
}
]]></script>
        <defs>
                <circle id="rim" cx="0" cy="0" r="7"/>
                <circle id="rim2" cx="0" cy="0" r="3.5"/>
                <g id="zoomPlus">
                        <use xlink:href="#rim" fill="#404040">
                                <set attributeName="fill" to="#808080" begin="zoomplus.mouseover" end="zoomplus.mouseout"/>
                        </use>
                        <path d="M-4,0h8M0,-4v8" fill="none" stroke="white" stroke-width="1.5" pointer-events="none"/>
                </g>
                <g id="zoomMin">
                        <use xlink:href="#rim" fill="#404040">
                                <set attributeName="fill" to="#808080" begin="zoomminus.mouseover" end="zoomminus.mouseout"/>
                        </use>
                        <path d="M-4,0h8" fill="none" stroke="white" stroke-width="1.5" pointer-events="none"/>
                </g>
                <g id="dirArrow">
                        <path fill="none" stroke="white" stroke-width="1.5" d="M0,-3.0v7 M-2.5,-0.5L0,-3.0L2.5,-0.5"/>
                </g>
               <g id="resetDef">
                       <use xlink:href="#rim2" fill="#404040">
                               <set attributeName="fill" to="#808080" begin="reset.mouseover" end="reset.mouseout"/>
                       </use>
               </g>
        </defs>

<script type="text/javascript">
var viewWidth = 1270;
var viewHeight = 553;
var sectionId = 'dynsection-0';
</script>
<script xlink:href="svgpan.js"/>
<svg id="graph" class="graph">
<g id="viewport">
<title>include/Z2AudioLib/Z2AudioMgr/Z2AudioMgr.h</title>
<polygon fill="white" stroke="transparent" points="-4,4 -4,-549 1265.5,-549 1265.5,4 -4,4"/>
<!-- Node1 -->
<g id="node1" class="node">
<title>Node1</title>
<g id="a_node1"><a xlink:title=" ">
<polygon fill="#bfbfbf" stroke="black" points="693.5,-514.5 693.5,-544.5 828.5,-544.5 828.5,-514.5 693.5,-514.5"/>
<text text-anchor="start" x="701.5" y="-532.5" font-family="Helvetica,sans-Serif" font-size="10.00">include/Z2AudioLib</text>
<text text-anchor="middle" x="761" y="-521.5" font-family="Helvetica,sans-Serif" font-size="10.00">/Z2AudioMgr/Z2AudioMgr.h</text>
</a>
</g>
</g>
<!-- Node2 -->
<g id="node2" class="node">
<title>Node2</title>
<g id="a_node2"><a xlink:href="JKRAramArchive_8h.html" target="_top" xlink:title=" ">
<polygon fill="white" stroke="black" points="222.5,-447.5 222.5,-477.5 391.5,-477.5 391.5,-447.5 222.5,-447.5"/>
<text text-anchor="start" x="230.5" y="-465.5" font-family="Helvetica,sans-Serif" font-size="10.00">JSystem/JKernel/JKRAramArchive</text>
<text text-anchor="middle" x="307" y="-454.5" font-family="Helvetica,sans-Serif" font-size="10.00">/JKRAramArchive.h</text>
</a>
</g>
</g>
<!-- Node1&#45;&gt;Node2 -->
<g id="edge1" class="edge">
<title>Node1&#45;&gt;Node2</title>
<path fill="none" stroke="midnightblue" d="M693.03,-518.77C615.7,-507.7 488.88,-489.54 401.84,-477.08"/>
<polygon fill="midnightblue" stroke="midnightblue" points="402.09,-473.58 391.7,-475.63 401.1,-480.51 402.09,-473.58"/>
</g>
<!-- Node18 -->
<g id="node18" class="node">
<title>Node18</title>
<g id="a_node18"><a xlink:href="JKRSolidHeap_8h.html" target="_top" xlink:title=" ">
<polygon fill="white" stroke="black" points="694,-313.5 694,-343.5 828,-343.5 828,-313.5 694,-313.5"/>
<text text-anchor="start" x="702" y="-331.5" font-family="Helvetica,sans-Serif" font-size="10.00">JSystem/JKernel/JKRSolid</text>
<text text-anchor="middle" x="761" y="-320.5" font-family="Helvetica,sans-Serif" font-size="10.00">Heap/JKRSolidHeap.h</text>
</a>
</g>
</g>
<!-- Node1&#45;&gt;Node18 -->
<g id="edge32" class="edge">
<title>Node1&#45;&gt;Node18</title>
<path fill="none" stroke="midnightblue" d="M761,-514.19C761,-480.48 761,-395.8 761,-353.84"/>
<polygon fill="midnightblue" stroke="midnightblue" points="764.5,-353.68 761,-343.68 757.5,-353.68 764.5,-353.68"/>
</g>
<!-- Node20 -->
<g id="node20" class="node">
<title>Node20</title>
<g id="a_node20"><a xlink:href="Z2SceneMgr_8h.html" target="_top" xlink:title=" ">
<polygon fill="white" stroke="black" points="881.5,-380.5 881.5,-410.5 1006.5,-410.5 1006.5,-380.5 881.5,-380.5"/>
<text text-anchor="start" x="889.5" y="-398.5" font-family="Helvetica,sans-Serif" font-size="10.00">Z2AudioLib/Z2SceneMgr</text>
<text text-anchor="middle" x="944" y="-387.5" font-family="Helvetica,sans-Serif" font-size="10.00">/Z2SceneMgr.h</text>
</a>
</g>
</g>
<!-- Node1&#45;&gt;Node20 -->
<g id="edge38" class="edge">
<title>Node1&#45;&gt;Node20</title>
<path fill="none" stroke="midnightblue" d="M780.58,-514.37C813.19,-490.85 878.72,-443.59 916.13,-416.6"/>
<polygon fill="midnightblue" stroke="midnightblue" points="918.49,-419.21 924.56,-410.52 914.4,-413.54 918.49,-419.21"/>
</g>
<!-- Node3 -->
<g id="node3" class="node">
<title>Node3</title>
<g id="a_node3"><a xlink:href="JKRArchive_8h.html" target="_top" xlink:title=" ">
<polygon fill="white" stroke="black" points="234,-380.5 234,-410.5 380,-410.5 380,-380.5 234,-380.5"/>
<text text-anchor="start" x="242" y="-398.5" font-family="Helvetica,sans-Serif" font-size="10.00">JSystem/JKernel/JKRArchive</text>
<text text-anchor="middle" x="307" y="-387.5" font-family="Helvetica,sans-Serif" font-size="10.00">/JKRArchive.h</text>
</a>
</g>
</g>
<!-- Node2&#45;&gt;Node3 -->
<g id="edge2" class="edge">
<title>Node2&#45;&gt;Node3</title>
<path fill="none" stroke="midnightblue" d="M307,-447.4C307,-439.64 307,-429.81 307,-420.86"/>
<polygon fill="midnightblue" stroke="midnightblue" points="310.5,-420.58 307,-410.58 303.5,-420.58 310.5,-420.58"/>
</g>
<!-- Node7 -->
<g id="node7" class="node">
<title>Node7</title>
<g id="a_node7"><a xlink:href="types_8h.html" target="_top" xlink:title=" ">
<polygon fill="white" stroke="black" points="605.5,-0.5 605.5,-19.5 686.5,-19.5 686.5,-0.5 605.5,-0.5"/>
<text text-anchor="middle" x="646" y="-7.5" font-family="Helvetica,sans-Serif" font-size="10.00">dolphin/types.h</text>
</a>
</g>
</g>
<!-- Node2&#45;&gt;Node7 -->
<g id="edge31" class="edge">
<title>Node2&#45;&gt;Node7</title>
<path fill="none" stroke="midnightblue" d="M222.3,-459.92C131.43,-453.2 0,-426.68 0,-329.5 0,-329.5 0,-329.5 0,-132 0,-86.97 26.71,-76.11 67,-56 113.61,-32.74 462.27,-17.71 594.95,-12.78"/>
<polygon fill="midnightblue" stroke="midnightblue" points="595.38,-16.27 605.24,-12.4 595.12,-9.27 595.38,-16.27"/>
</g>
<!-- Node4 -->
<g id="node4" class="node">
<title>Node4</title>
<g id="a_node4"><a xlink:href="JKRDecomp_8h.html" target="_top" xlink:title=" ">
<polygon fill="white" stroke="black" points="86.5,-313.5 86.5,-343.5 235.5,-343.5 235.5,-313.5 86.5,-313.5"/>
<text text-anchor="start" x="94.5" y="-331.5" font-family="Helvetica,sans-Serif" font-size="10.00">JSystem/JKernel/JKRDecomp</text>
<text text-anchor="middle" x="161" y="-320.5" font-family="Helvetica,sans-Serif" font-size="10.00">/JKRDecomp.h</text>
</a>
</g>
</g>
<!-- Node3&#45;&gt;Node4 -->
<g id="edge3" class="edge">
<title>Node3&#45;&gt;Node4</title>
<path fill="none" stroke="midnightblue" d="M275.32,-380.4C253.8,-370.81 225.13,-358.05 201.88,-347.7"/>
<polygon fill="midnightblue" stroke="midnightblue" points="203.18,-344.45 192.62,-343.58 200.33,-350.84 203.18,-344.45"/>
</g>
<!-- Node6 -->
<g id="node6" class="node">
<title>Node6</title>
<g id="a_node6"><a xlink:href="SArc_8h.html" target="_top" xlink:title=" ">
<polygon fill="white" stroke="black" points="208.5,-185 208.5,-204 331.5,-204 331.5,-185 208.5,-185"/>
<text text-anchor="middle" x="270" y="-192" font-family="Helvetica,sans-Serif" font-size="10.00">JSystem/JKernel/SArc.h</text>
</a>
</g>
</g>
<!-- Node3&#45;&gt;Node6 -->
<g id="edge29" class="edge">
<title>Node3&#45;&gt;Node6</title>
<path fill="none" stroke="midnightblue" d="M304.34,-380.19C297.78,-344.91 280.84,-253.78 273.49,-214.25"/>
<polygon fill="midnightblue" stroke="midnightblue" points="276.92,-213.55 271.65,-204.36 270.03,-214.83 276.92,-213.55"/>
</g>
<!-- Node3&#45;&gt;Node7 -->
<g id="edge30" class="edge">
<title>Node3&#45;&gt;Node7</title>
<path fill="none" stroke="midnightblue" d="M380.14,-381.28C479.8,-361.16 646,-319.11 646,-262.5 646,-262.5 646,-262.5 646,-132 646,-95.71 646,-53.31 646,-29.56"/>
<polygon fill="midnightblue" stroke="midnightblue" points="649.5,-29.51 646,-19.51 642.5,-29.51 649.5,-29.51"/>
</g>
<!-- Node17 -->
<g id="node17" class="node">
<title>Node17</title>
<g id="a_node17"><a xlink:href="JKRFileLoader_8h.html" target="_top" xlink:title=" ">
<polygon fill="white" stroke="black" points="298,-246.5 298,-276.5 456,-276.5 456,-246.5 298,-246.5"/>
<text text-anchor="start" x="306" y="-264.5" font-family="Helvetica,sans-Serif" font-size="10.00">JSystem/JKernel/JKRFileLoader</text>
<text text-anchor="middle" x="377" y="-253.5" font-family="Helvetica,sans-Serif" font-size="10.00">/JKRFileLoader.h</text>
</a>
</g>
</g>
<!-- Node3&#45;&gt;Node17 -->
<g id="edge26" class="edge">
<title>Node3&#45;&gt;Node17</title>
<path fill="none" stroke="midnightblue" d="M314.49,-380.37C326.54,-357.65 350.35,-312.75 364.86,-285.4"/>
<polygon fill="midnightblue" stroke="midnightblue" points="367.97,-287 369.56,-276.52 361.79,-283.72 367.97,-287"/>
</g>
<!-- Node5 -->
<g id="node5" class="node">
<title>Node5</title>
<g id="a_node5"><a xlink:href="JKRCompression_8h.html" target="_top" xlink:title=" ">
<polygon fill="white" stroke="black" points="65.5,-252 65.5,-271 242.5,-271 242.5,-252 65.5,-252"/>
<text text-anchor="middle" x="154" y="-259" font-family="Helvetica,sans-Serif" font-size="10.00">JSystem/JKernel/JKRCompression.h</text>
</a>
</g>
</g>
<!-- Node4&#45;&gt;Node5 -->
<g id="edge4" class="edge">
<title>Node4&#45;&gt;Node5</title>
<path fill="none" stroke="midnightblue" d="M159.48,-313.4C158.47,-303.96 157.12,-291.45 156.01,-281.19"/>
<polygon fill="midnightblue" stroke="midnightblue" points="159.49,-280.76 154.94,-271.19 152.53,-281.51 159.49,-280.76"/>
</g>
<!-- Node4&#45;&gt;Node7 -->
<g id="edge25" class="edge">
<title>Node4&#45;&gt;Node7</title>
<path fill="none" stroke="midnightblue" d="M109.63,-313.44C90.18,-305.68 69.5,-294.05 56,-277 32.97,-247.92 38,-232.6 38,-195.5 38,-195.5 38,-195.5 38,-132 38,-18.75 448.88,-9.93 595.1,-10.37"/>
<polygon fill="midnightblue" stroke="midnightblue" points="595.15,-13.87 605.16,-10.42 595.18,-6.87 595.15,-13.87"/>
</g>
<!-- Node8 -->
<g id="node8" class="node">
<title>Node8</title>
<g id="a_node8"><a xlink:href="JKRThread_8h.html" target="_top" xlink:title=" ">
<polygon fill="white" stroke="black" points="474.5,-246.5 474.5,-276.5 617.5,-276.5 617.5,-246.5 474.5,-246.5"/>
<text text-anchor="start" x="482.5" y="-264.5" font-family="Helvetica,sans-Serif" font-size="10.00">JSystem/JKernel/JKRThread</text>
<text text-anchor="middle" x="546" y="-253.5" font-family="Helvetica,sans-Serif" font-size="10.00">/JKRThread.h</text>
</a>
</g>
</g>
<!-- Node4&#45;&gt;Node8 -->
<g id="edge8" class="edge">
<title>Node4&#45;&gt;Node8</title>
<path fill="none" stroke="midnightblue" d="M235.69,-315.36C294.91,-305.67 380.06,-291.61 464.44,-277.08"/>
<polygon fill="midnightblue" stroke="midnightblue" points="465.19,-280.51 474.45,-275.36 464.01,-273.61 465.19,-280.51"/>
</g>
<!-- Node5&#45;&gt;Node6 -->
<g id="edge5" class="edge">
<title>Node5&#45;&gt;Node6</title>
<path fill="none" stroke="midnightblue" d="M169.64,-251.73C189.21,-240.77 222.92,-221.88 245.82,-209.05"/>
<polygon fill="midnightblue" stroke="midnightblue" points="247.59,-212.07 254.6,-204.13 244.17,-205.96 247.59,-212.07"/>
</g>
<!-- Node5&#45;&gt;Node7 -->
<g id="edge7" class="edge">
<title>Node5&#45;&gt;Node7</title>
<path fill="none" stroke="midnightblue" d="M157.71,-251.91C164.59,-236.47 180.34,-203.39 199,-179 246.74,-116.59 255.4,-90.5 326,-56 372.37,-33.34 517.38,-20.01 595.29,-14.3"/>
<polygon fill="midnightblue" stroke="midnightblue" points="595.64,-17.78 605.37,-13.58 595.14,-10.8 595.64,-17.78"/>
</g>
<!-- Node6&#45;&gt;Node7 -->
<g id="edge6" class="edge">
<title>Node6&#45;&gt;Node7</title>
<path fill="none" stroke="midnightblue" d="M273.05,-184.92C282.31,-160.2 312.7,-88.5 364,-56 401.57,-32.2 525.01,-19.65 595.49,-14.28"/>
<polygon fill="midnightblue" stroke="midnightblue" points="595.77,-17.77 605.48,-13.54 595.25,-10.79 595.77,-17.77"/>
</g>
<!-- Node8&#45;&gt;Node7 -->
<g id="edge13" class="edge">
<title>Node8&#45;&gt;Node7</title>
<path fill="none" stroke="midnightblue" d="M502.25,-246.32C485.32,-238.45 467.71,-226.77 458,-210 440.7,-180.12 391.79,-140.59 459,-56 475.77,-34.89 545.82,-22.5 595.24,-16.24"/>
<polygon fill="midnightblue" stroke="midnightblue" points="595.94,-19.68 605.44,-14.99 595.09,-12.73 595.94,-19.68"/>
</g>
<!-- Node9 -->
<g id="node9" class="node">
<title>Node9</title>
<g id="a_node9"><a xlink:href="JKRDisposer_8h.html" target="_top" xlink:title=" ">
<polygon fill="white" stroke="black" points="466.5,-179.5 466.5,-209.5 617.5,-209.5 617.5,-179.5 466.5,-179.5"/>
<text text-anchor="start" x="474.5" y="-197.5" font-family="Helvetica,sans-Serif" font-size="10.00">JSystem/JKernel/JKRDisposer</text>
<text text-anchor="middle" x="542" y="-186.5" font-family="Helvetica,sans-Serif" font-size="10.00">/JKRDisposer.h</text>
</a>
</g>
</g>
<!-- Node8&#45;&gt;Node9 -->
<g id="edge9" class="edge">
<title>Node8&#45;&gt;Node9</title>
<path fill="none" stroke="midnightblue" d="M545.13,-246.4C544.65,-238.56 544.04,-228.6 543.48,-219.57"/>
<polygon fill="midnightblue" stroke="midnightblue" points="546.97,-219.34 542.87,-209.58 539.99,-219.77 546.97,-219.34"/>
</g>
<!-- Node11 -->
<g id="node11" class="node">
<title>Node11</title>
<g id="a_node11"><a xlink:href="global_8h.html" target="_top" xlink:title=" ">
<polygon fill="white" stroke="black" points="889,-185 889,-204 939,-204 939,-185 889,-185"/>
<text text-anchor="middle" x="914" y="-192" font-family="Helvetica,sans-Serif" font-size="10.00">global.h</text>
</a>
</g>
</g>
<!-- Node8&#45;&gt;Node11 -->
<g id="edge14" class="edge">
<title>Node8&#45;&gt;Node11</title>
<path fill="none" stroke="midnightblue" d="M617.83,-247.81C696.36,-233.94 818.98,-212.28 878.8,-201.72"/>
<polygon fill="midnightblue" stroke="midnightblue" points="879.63,-205.12 888.87,-199.94 878.41,-198.23 879.63,-205.12"/>
</g>
<!-- Node9&#45;&gt;Node7 -->
<g id="edge12" class="edge">
<title>Node9&#45;&gt;Node7</title>
<path fill="none" stroke="midnightblue" d="M524.88,-179.21C495.56,-153.03 441.8,-96.36 473,-56 487.91,-36.71 549.68,-24.15 595.18,-17.32"/>
<polygon fill="midnightblue" stroke="midnightblue" points="595.8,-20.77 605.2,-15.87 594.8,-13.84 595.8,-20.77"/>
</g>
<!-- Node10 -->
<g id="node10" class="node">
<title>Node10</title>
<g id="a_node10"><a xlink:href="JSUList_8h.html" target="_top" xlink:title=" ">
<polygon fill="white" stroke="black" points="482,-56.5 482,-86.5 618,-86.5 618,-56.5 482,-56.5"/>
<text text-anchor="start" x="490" y="-74.5" font-family="Helvetica,sans-Serif" font-size="10.00">JSystem/JSupport/JSUList</text>
<text text-anchor="middle" x="550" y="-63.5" font-family="Helvetica,sans-Serif" font-size="10.00">/JSUList.h</text>
</a>
</g>
</g>
<!-- Node9&#45;&gt;Node10 -->
<g id="edge10" class="edge">
<title>Node9&#45;&gt;Node10</title>
<path fill="none" stroke="midnightblue" d="M542.95,-179.14C544.29,-158.86 546.76,-121.53 548.39,-96.86"/>
<polygon fill="midnightblue" stroke="midnightblue" points="551.88,-97.05 549.05,-86.84 544.9,-96.58 551.88,-97.05"/>
</g>
<!-- Node10&#45;&gt;Node7 -->
<g id="edge11" class="edge">
<title>Node10&#45;&gt;Node7</title>
<path fill="none" stroke="midnightblue" d="M572.75,-56.4C587.99,-46.95 607.99,-34.56 623.24,-25.11"/>
<polygon fill="midnightblue" stroke="midnightblue" points="625.38,-27.9 632.03,-19.66 621.69,-21.95 625.38,-27.9"/>
</g>
<!-- Node11&#45;&gt;Node7 -->
<g id="edge15" class="edge">
<title>Node11&#45;&gt;Node7</title>
<path fill="none" stroke="midnightblue" d="M925.07,-184.59C940,-171.42 963.58,-145.85 953,-123 933.65,-81.22 915.47,-75.99 874,-56 817.11,-28.58 744.56,-17.87 696.76,-13.68"/>
<polygon fill="midnightblue" stroke="midnightblue" points="696.91,-10.18 686.66,-12.86 696.34,-17.16 696.91,-10.18"/>
</g>
<!-- Node12 -->
<g id="node12" class="node">
<title>Node12</title>
<g id="a_node12"><a xlink:href="AR_8h.html" target="_top" xlink:title=" ">
<polygon fill="white" stroke="black" points="988.5,-62 988.5,-81 1037.5,-81 1037.5,-62 988.5,-62"/>
<text text-anchor="middle" x="1013" y="-69" font-family="Helvetica,sans-Serif" font-size="10.00">ar/AR.h</text>
</a>
</g>
</g>
<!-- Node11&#45;&gt;Node12 -->
<g id="edge16" class="edge">
<title>Node11&#45;&gt;Node12</title>
<path fill="none" stroke="midnightblue" d="M931.98,-184.83C948.12,-176.24 971.44,-161.66 986,-143 998.07,-127.53 1005.25,-106.05 1009.14,-90.88"/>
<polygon fill="midnightblue" stroke="midnightblue" points="1012.55,-91.65 1011.41,-81.12 1005.74,-90.07 1012.55,-91.65"/>
</g>
<!-- Node13 -->
<g id="node13" class="node">
<title>Node13</title>
<g id="a_node13"><a xlink:href="ARQ_8h.html" target="_top" xlink:title=" ">
<polygon fill="white" stroke="black" points="750,-123.5 750,-142.5 806,-142.5 806,-123.5 750,-123.5"/>
<text text-anchor="middle" x="778" y="-130.5" font-family="Helvetica,sans-Serif" font-size="10.00">ar/ARQ.h</text>
</a>
</g>
</g>
<!-- Node11&#45;&gt;Node13 -->
<g id="edge18" class="edge">
<title>Node11&#45;&gt;Node13</title>
<path fill="none" stroke="midnightblue" d="M894.51,-184.98C871.59,-174.95 833.31,-158.2 806.92,-146.65"/>
<polygon fill="midnightblue" stroke="midnightblue" points="808.01,-143.31 797.45,-142.51 805.21,-149.72 808.01,-143.31"/>
</g>
<!-- Node14 -->
<g id="node14" class="node">
<title>Node14</title>
<g id="a_node14"><a xlink:href="mwcc_8h.html" target="_top" xlink:title=" ">
<polygon fill="white" stroke="black" points="894,-123.5 894,-142.5 944,-142.5 944,-123.5 894,-123.5"/>
<text text-anchor="middle" x="919" y="-130.5" font-family="Helvetica,sans-Serif" font-size="10.00">mwcc.h</text>
</a>
</g>
</g>
<!-- Node11&#45;&gt;Node14 -->
<g id="edge20" class="edge">
<title>Node11&#45;&gt;Node14</title>
<path fill="none" stroke="midnightblue" d="M914.72,-184.98C915.42,-176.58 916.52,-163.48 917.43,-152.66"/>
<polygon fill="midnightblue" stroke="midnightblue" points="920.94,-152.77 918.28,-142.51 913.96,-152.18 920.94,-152.77"/>
</g>
<!-- Node15 -->
<g id="node15" class="node">
<title>Node15</title>
<g id="a_node15"><a xlink:href="OS_8h.html" target="_top" xlink:title=" ">
<polygon fill="white" stroke="black" points="824,-123.5 824,-142.5 876,-142.5 876,-123.5 824,-123.5"/>
<text text-anchor="middle" x="850" y="-130.5" font-family="Helvetica,sans-Serif" font-size="10.00">os/OS.h</text>
</a>
</g>
</g>
<!-- Node11&#45;&gt;Node15 -->
<g id="edge21" class="edge">
<title>Node11&#45;&gt;Node15</title>
<path fill="none" stroke="midnightblue" d="M904.83,-184.98C894.85,-175.7 878.69,-160.67 866.49,-149.33"/>
<polygon fill="midnightblue" stroke="midnightblue" points="868.86,-146.75 859.15,-142.51 864.09,-151.88 868.86,-146.75"/>
</g>
<!-- Node12&#45;&gt;Node7 -->
<g id="edge17" class="edge">
<title>Node12&#45;&gt;Node7</title>
<path fill="none" stroke="midnightblue" d="M992.62,-61.96C986.7,-59.75 980.17,-57.55 974,-56 877.56,-31.77 761.68,-19.74 696.67,-14.48"/>
<polygon fill="midnightblue" stroke="midnightblue" points="696.93,-10.99 686.69,-13.7 696.38,-17.97 696.93,-10.99"/>
</g>
<!-- Node13&#45;&gt;Node7 -->
<g id="edge19" class="edge">
<title>Node13&#45;&gt;Node7</title>
<path fill="none" stroke="midnightblue" d="M775.19,-123.4C769.79,-108.09 756.67,-75.83 736,-56 720.9,-41.51 700.22,-30.72 682.49,-23.35"/>
<polygon fill="midnightblue" stroke="midnightblue" points="683.59,-20.02 673,-19.61 681.02,-26.53 683.59,-20.02"/>
</g>
<!-- Node15&#45;&gt;Node7 -->
<g id="edge22" class="edge">
<title>Node15&#45;&gt;Node7</title>
<path fill="none" stroke="midnightblue" d="M854.31,-123.35C861.31,-107.96 872.84,-75.57 857,-56 837.2,-31.54 752.48,-19.8 696.6,-14.62"/>
<polygon fill="midnightblue" stroke="midnightblue" points="696.79,-11.13 686.52,-13.73 696.18,-18.1 696.79,-11.13"/>
</g>
<!-- Node16 -->
<g id="node16" class="node">
<title>Node16</title>
<g id="a_node16"><a xlink:href="dvd_8h.html" target="_top" xlink:title=" ">
<polygon fill="white" stroke="black" points="788.5,-62 788.5,-81 847.5,-81 847.5,-62 788.5,-62"/>
<text text-anchor="middle" x="818" y="-69" font-family="Helvetica,sans-Serif" font-size="10.00">dvd/dvd.h</text>
</a>
</g>
</g>
<!-- Node15&#45;&gt;Node16 -->
<g id="edge23" class="edge">
<title>Node15&#45;&gt;Node16</title>
<path fill="none" stroke="midnightblue" d="M845.42,-123.48C840.76,-114.82 833.41,-101.15 827.49,-90.15"/>
<polygon fill="midnightblue" stroke="midnightblue" points="830.4,-88.16 822.58,-81.01 824.23,-91.47 830.4,-88.16"/>
</g>
<!-- Node16&#45;&gt;Node7 -->
<g id="edge24" class="edge">
<title>Node16&#45;&gt;Node7</title>
<path fill="none" stroke="midnightblue" d="M793.36,-61.98C763.72,-51.72 713.82,-34.46 680.4,-22.9"/>
<polygon fill="midnightblue" stroke="midnightblue" points="681.19,-19.47 670.6,-19.51 678.9,-26.09 681.19,-19.47"/>
</g>
<!-- Node17&#45;&gt;Node7 -->
<g id="edge28" class="edge">
<title>Node17&#45;&gt;Node7</title>
<path fill="none" stroke="midnightblue" d="M376.43,-246.36C375.74,-209.2 379.36,-108.07 435,-56 457.8,-34.66 540.42,-22.03 595.26,-15.81"/>
<polygon fill="midnightblue" stroke="midnightblue" points="595.94,-19.26 605.49,-14.69 595.17,-12.3 595.94,-19.26"/>
</g>
<!-- Node17&#45;&gt;Node9 -->
<g id="edge27" class="edge">
<title>Node17&#45;&gt;Node9</title>
<path fill="none" stroke="midnightblue" d="M412.8,-246.4C437.45,-236.69 470.39,-223.71 496.84,-213.29"/>
<polygon fill="midnightblue" stroke="midnightblue" points="498.25,-216.5 506.27,-209.58 495.68,-209.99 498.25,-216.5"/>
</g>
<!-- Node18&#45;&gt;Node7 -->
<g id="edge37" class="edge">
<title>Node18&#45;&gt;Node7</title>
<path fill="none" stroke="midnightblue" d="M785.59,-313.29C798.09,-304.59 812.09,-292.19 819,-277 824.71,-264.46 823.39,-259.06 819,-246 800.71,-191.57 774.46,-189.67 741,-143 713.78,-105.03 709.73,-93.6 682,-56 674.95,-46.44 666.69,-36.06 659.87,-27.69"/>
<polygon fill="midnightblue" stroke="midnightblue" points="662.44,-25.3 653.38,-19.8 657.03,-29.75 662.44,-25.3"/>
</g>
<!-- Node19 -->
<g id="node19" class="node">
<title>Node19</title>
<g id="a_node19"><a xlink:href="JKRHeap_8h.html" target="_top" xlink:title=" ">
<polygon fill="white" stroke="black" points="674,-246.5 674,-276.5 810,-276.5 810,-246.5 674,-246.5"/>
<text text-anchor="start" x="682" y="-264.5" font-family="Helvetica,sans-Serif" font-size="10.00">JSystem/JKernel/JKRHeap</text>
<text text-anchor="middle" x="742" y="-253.5" font-family="Helvetica,sans-Serif" font-size="10.00">/JKRHeap.h</text>
</a>
</g>
</g>
<!-- Node18&#45;&gt;Node19 -->
<g id="edge33" class="edge">
<title>Node18&#45;&gt;Node19</title>
<path fill="none" stroke="midnightblue" d="M756.88,-313.4C754.56,-305.47 751.61,-295.38 748.95,-286.27"/>
<polygon fill="midnightblue" stroke="midnightblue" points="752.28,-285.19 746.11,-276.58 745.56,-287.16 752.28,-285.19"/>
</g>
<!-- Node19&#45;&gt;Node7 -->
<g id="edge35" class="edge">
<title>Node19&#45;&gt;Node7</title>
<path fill="none" stroke="midnightblue" d="M736.56,-246.37C720.19,-203.82 671.35,-76.89 653.04,-29.3"/>
<polygon fill="midnightblue" stroke="midnightblue" points="656.29,-28.01 649.44,-19.93 649.76,-30.52 656.29,-28.01"/>
</g>
<!-- Node19&#45;&gt;Node9 -->
<g id="edge34" class="edge">
<title>Node19&#45;&gt;Node9</title>
<path fill="none" stroke="midnightblue" d="M698.6,-246.4C668.2,-236.52 627.39,-223.25 595.06,-212.74"/>
<polygon fill="midnightblue" stroke="midnightblue" points="595.9,-209.34 585.31,-209.58 593.74,-216 595.9,-209.34"/>
</g>
<!-- Node19&#45;&gt;Node11 -->
<g id="edge36" class="edge">
<title>Node19&#45;&gt;Node11</title>
<path fill="none" stroke="midnightblue" d="M779.32,-246.4C809.9,-234.84 852.73,-218.66 881.82,-207.66"/>
<polygon fill="midnightblue" stroke="midnightblue" points="883.37,-210.82 891.49,-204.01 880.9,-204.27 883.37,-210.82"/>
</g>
<!-- Node20&#45;&gt;Node11 -->
<g id="edge48" class="edge">
<title>Node20&#45;&gt;Node11</title>
<path fill="none" stroke="midnightblue" d="M939.57,-380.21C933,-358.27 920.92,-314.85 916,-277 913.21,-255.56 913.04,-230.69 913.35,-214.12"/>
<polygon fill="midnightblue" stroke="midnightblue" points="916.85,-214.2 913.62,-204.11 909.86,-214.01 916.85,-214.2"/>
</g>
<!-- Node21 -->
<g id="node21" class="node">
<title>Node21</title>
<g id="a_node21"><a xlink:href="JAISe_8h.html" target="_top" xlink:title=" ">
<polygon fill="white" stroke="black" points="1138.5,-246.5 1138.5,-276.5 1261.5,-276.5 1261.5,-246.5 1138.5,-246.5"/>
<text text-anchor="start" x="1146.5" y="-264.5" font-family="Helvetica,sans-Serif" font-size="10.00">JSystem/JAudio2/JAISe</text>
<text text-anchor="middle" x="1200" y="-253.5" font-family="Helvetica,sans-Serif" font-size="10.00">/JAISe.h</text>
</a>
</g>
</g>
<!-- Node20&#45;&gt;Node21 -->
<g id="edge39" class="edge">
<title>Node20&#45;&gt;Node21</title>
<path fill="none" stroke="midnightblue" d="M988.85,-380.47C1015.41,-371.47 1049.36,-358.71 1078,-344 1112.71,-326.17 1149.56,-300.49 1173.57,-282.75"/>
<polygon fill="midnightblue" stroke="midnightblue" points="1175.88,-285.39 1181.8,-276.6 1171.69,-279.78 1175.88,-285.39"/>
</g>
<!-- Node22 -->
<g id="node22" class="node">
<title>Node22</title>
<g id="a_node22"><a xlink:href="Z2SeqMgr_8h.html" target="_top" xlink:title=" ">
<polygon fill="white" stroke="black" points="955,-313.5 955,-343.5 1069,-343.5 1069,-313.5 955,-313.5"/>
<text text-anchor="start" x="963" y="-331.5" font-family="Helvetica,sans-Serif" font-size="10.00">Z2AudioLib/Z2SeqMgr</text>
<text text-anchor="middle" x="1012" y="-320.5" font-family="Helvetica,sans-Serif" font-size="10.00">/Z2SeqMgr.h</text>
</a>
</g>
</g>
<!-- Node20&#45;&gt;Node22 -->
<g id="edge41" class="edge">
<title>Node20&#45;&gt;Node22</title>
<path fill="none" stroke="midnightblue" d="M958.75,-380.4C967.84,-371.71 979.67,-360.4 989.87,-350.66"/>
<polygon fill="midnightblue" stroke="midnightblue" points="992.46,-353.02 997.27,-343.58 987.63,-347.96 992.46,-353.02"/>
</g>
<!-- Node21&#45;&gt;Node11 -->
<g id="edge40" class="edge">
<title>Node21&#45;&gt;Node11</title>
<path fill="none" stroke="midnightblue" d="M1138.29,-246.48C1080.59,-233.36 996.43,-214.23 949.32,-203.53"/>
<polygon fill="midnightblue" stroke="midnightblue" points="949.82,-200.05 939.29,-201.25 948.27,-206.88 949.82,-200.05"/>
</g>
<!-- Node22&#45;&gt;Node11 -->
<g id="edge47" class="edge">
<title>Node22&#45;&gt;Node11</title>
<path fill="none" stroke="midnightblue" d="M979.25,-313.45C963.36,-305.06 945.32,-292.9 934,-277 920.77,-258.4 916.24,-232.04 914.72,-214.38"/>
<polygon fill="midnightblue" stroke="midnightblue" points="918.2,-213.98 914.09,-204.21 911.21,-214.41 918.2,-213.98"/>
</g>
<!-- Node22&#45;&gt;Node21 -->
<g id="edge42" class="edge">
<title>Node22&#45;&gt;Node21</title>
<path fill="none" stroke="midnightblue" d="M1052.79,-313.4C1081.25,-303.56 1119.4,-290.37 1149.73,-279.88"/>
<polygon fill="midnightblue" stroke="midnightblue" points="1150.98,-283.15 1159.29,-276.58 1148.69,-276.54 1150.98,-283.15"/>
</g>
<!-- Node23 -->
<g id="node23" class="node">
<title>Node23</title>
<g id="a_node23"><a xlink:href="JAISound_8h.html" target="_top" xlink:title=" ">
<polygon fill="white" stroke="black" points="942.5,-246.5 942.5,-276.5 1081.5,-276.5 1081.5,-246.5 942.5,-246.5"/>
<text text-anchor="start" x="950.5" y="-264.5" font-family="Helvetica,sans-Serif" font-size="10.00">JSystem/JAudio2/JAISound</text>
<text text-anchor="middle" x="1012" y="-253.5" font-family="Helvetica,sans-Serif" font-size="10.00">/JAISound.h</text>
</a>
</g>
</g>
<!-- Node22&#45;&gt;Node23 -->
<g id="edge43" class="edge">
<title>Node22&#45;&gt;Node23</title>
<path fill="none" stroke="midnightblue" d="M1012,-313.4C1012,-305.64 1012,-295.81 1012,-286.86"/>
<polygon fill="midnightblue" stroke="midnightblue" points="1015.5,-286.58 1012,-276.58 1008.5,-286.58 1015.5,-286.58"/>
</g>
<!-- Node24 -->
<g id="node24" class="node">
<title>Node24</title>
<g id="a_node24"><a xlink:href="Z2Param_8h.html" target="_top" xlink:title=" ">
<polygon fill="white" stroke="black" points="1055.5,-56.5 1055.5,-86.5 1164.5,-86.5 1164.5,-56.5 1055.5,-56.5"/>
<text text-anchor="start" x="1063.5" y="-74.5" font-family="Helvetica,sans-Serif" font-size="10.00">Z2AudioLib/Z2Param</text>
<text text-anchor="middle" x="1110" y="-63.5" font-family="Helvetica,sans-Serif" font-size="10.00">/Z2Param.h</text>
</a>
</g>
</g>
<!-- Node22&#45;&gt;Node24 -->
<g id="edge45" class="edge">
<title>Node22&#45;&gt;Node24</title>
<path fill="none" stroke="midnightblue" d="M1047.81,-313.39C1063.74,-305.21 1081.09,-293.26 1091,-277 1125.68,-220.1 1119.85,-137.31 1114.18,-96.74"/>
<polygon fill="midnightblue" stroke="midnightblue" points="1117.61,-96.06 1112.65,-86.7 1110.69,-97.11 1117.61,-96.06"/>
</g>
<!-- Node23&#45;&gt;Node11 -->
<g id="edge44" class="edge">
<title>Node23&#45;&gt;Node11</title>
<path fill="none" stroke="midnightblue" d="M990.74,-246.4C974.3,-235.5 951.66,-220.48 935.23,-209.58"/>
<polygon fill="midnightblue" stroke="midnightblue" points="937.09,-206.62 926.83,-204.01 933.22,-212.45 937.09,-206.62"/>
</g>
<!-- Node24&#45;&gt;Node7 -->
<g id="edge46" class="edge">
<title>Node24&#45;&gt;Node7</title>
<path fill="none" stroke="midnightblue" d="M1055.44,-57.54C1052.59,-56.99 1049.77,-56.47 1047,-56 922.02,-34.68 773.33,-21.01 696.92,-14.83"/>
<polygon fill="midnightblue" stroke="midnightblue" points="696.87,-11.32 686.63,-14.01 696.32,-18.3 696.87,-11.32"/>
</g>
</g>
</svg>
        <g id="navigator" transform="translate(0 0)" fill="#404254">
                <rect fill="#f2f5e9" fill-opacity="0.5" stroke="#606060" stroke-width=".5" x="0" y="0" width="60" height="60"/>
                <use id="zoomplus" xlink:href="#zoomPlus" x="17" y="9" onmousedown="handleZoom(evt,'in')"/>
                <use id="zoomminus" xlink:href="#zoomMin" x="42" y="9" onmousedown="handleZoom(evt,'out')"/>
                <use id="reset" xlink:href="#resetDef" x="30" y="36" onmousedown="handleReset()"/>
                <g id="arrowUp" xlink:href="#dirArrow" transform="translate(30 24)" onmousedown="handlePan(0,-1)">
                  <use xlink:href="#rim" fill="#404040">
                        <set attributeName="fill" to="#808080" begin="arrowUp.mouseover" end="arrowUp.mouseout"/>
                  </use>
                  <path fill="none" stroke="white" stroke-width="1.5" d="M0,-3.0v7 M-2.5,-0.5L0,-3.0L2.5,-0.5"/>
                </g>
                <g id="arrowRight" xlink:href="#dirArrow" transform="rotate(90) translate(36 -43)" onmousedown="handlePan(1,0)">
                  <use xlink:href="#rim" fill="#404040">
                        <set attributeName="fill" to="#808080" begin="arrowRight.mouseover" end="arrowRight.mouseout"/>
                  </use>
                  <path fill="none" stroke="white" stroke-width="1.5" d="M0,-3.0v7 M-2.5,-0.5L0,-3.0L2.5,-0.5"/>
                </g>
                <g id="arrowDown" xlink:href="#dirArrow" transform="rotate(180) translate(-30 -48)" onmousedown="handlePan(0,1)">
                  <use xlink:href="#rim" fill="#404040">
                        <set attributeName="fill" to="#808080" begin="arrowDown.mouseover" end="arrowDown.mouseout"/>
                  </use>
                  <path fill="none" stroke="white" stroke-width="1.5" d="M0,-3.0v7 M-2.5,-0.5L0,-3.0L2.5,-0.5"/>
                </g>
                <g id="arrowLeft" xlink:href="#dirArrow" transform="rotate(270) translate(-36 17)" onmousedown="handlePan(-1,0)">
                  <use xlink:href="#rim" fill="#404040">
                        <set attributeName="fill" to="#808080" begin="arrowLeft.mouseover" end="arrowLeft.mouseout"/>
                  </use>
                  <path fill="none" stroke="white" stroke-width="1.5" d="M0,-3.0v7 M-2.5,-0.5L0,-3.0L2.5,-0.5"/>
                </g>
        </g>
        <svg viewBox="0 0 15 15" width="100%" height="30px" preserveAspectRatio="xMaxYMin meet">
         <g id="arrow_out" transform="scale(0.3 0.3)">
          <a xlink:href="Z2AudioMgr_8h__incl_org.svg" target="_base">
           <rect id="button" ry="5" rx="5" y="6" x="6" height="38" width="38"
                fill="#f2f5e9" fill-opacity="0.5" stroke="#606060" stroke-width="1.0"/>
           <path id="arrow"
             d="M 11.500037,31.436501 C 11.940474,20.09759 22.043105,11.32322 32.158766,21.979434 L 37.068811,17.246167 C 37.068811,17.246167 37.088388,32 37.088388,32 L 22.160133,31.978069 C 22.160133,31.978069 26.997745,27.140456 26.997745,27.140456 C 18.528582,18.264221 13.291696,25.230495 11.500037,31.436501 z"
             style="fill:#404040;"/>
          </a>
         </g>
        </svg>
</svg>
