<?xml version="1.0" encoding="UTF-8" standalone="no"?>
<!DOCTYPE svg PUBLIC "-//W3C//DTD SVG 1.1//EN"
 "http://www.w3.org/Graphics/SVG/1.1/DTD/svg11.dtd">
<!-- Generated by graphviz version 2.44.0 ()
 -->
<!-- Title: libs/Z2AudioLib/Z2Calc.cpp Pages: 1 -->
<svg width="422pt" height="308pt"
 viewBox="0.00 0.00 421.50 308.00" xmlns="http://www.w3.org/2000/svg" xmlns:xlink="http://www.w3.org/1999/xlink">
<g id="graph0" class="graph" transform="scale(1 1) rotate(0) translate(4 304)">
<title>libs/Z2AudioLib/Z2Calc.cpp</title>
<polygon fill="white" stroke="transparent" points="-4,4 -4,-304 417.5,-304 417.5,4 -4,4"/>
<!-- Node1 -->
<g id="node1" class="node">
<title>Node1</title>
<g id="a_node1"><a xlink:title=" ">
<polygon fill="#bfbfbf" stroke="black" points="212,-280.5 212,-299.5 348,-299.5 348,-280.5 212,-280.5"/>
<text text-anchor="middle" x="280" y="-287.5" font-family="Helvetica,sans-Serif" font-size="10.00">libs/Z2AudioLib/Z2Calc.cpp</text>
</a>
</g>
</g>
<!-- Node2 -->
<g id="node2" class="node">
<title>Node2</title>
<g id="a_node2"><a xlink:href="Z2Calc_8h.html" target="_top" xlink:title=" ">
<polygon fill="white" stroke="black" points="112.5,-224.5 112.5,-243.5 253.5,-243.5 253.5,-224.5 112.5,-224.5"/>
<text text-anchor="middle" x="183" y="-231.5" font-family="Helvetica,sans-Serif" font-size="10.00">Z2AudioLib/Z2Calc/Z2Calc.h</text>
</a>
</g>
</g>
<!-- Node1&#45;&gt;Node2 -->
<g id="edge1" class="edge">
<title>Node1&#45;&gt;Node2</title>
<path fill="none" stroke="midnightblue" d="M264.42,-280.32C249,-271.74 225.19,-258.49 207.29,-248.52"/>
<polygon fill="midnightblue" stroke="midnightblue" points="208.99,-245.46 198.55,-243.65 205.58,-251.58 208.99,-245.46"/>
</g>
<!-- Node11 -->
<g id="node11" class="node">
<title>Node11</title>
<g id="a_node11"><a xlink:href="math_8h.html" target="_top" xlink:title=" ">
<polygon fill="white" stroke="black" points="338.5,-56.5 338.5,-75.5 413.5,-75.5 413.5,-56.5 338.5,-56.5"/>
<text text-anchor="middle" x="376" y="-63.5" font-family="Helvetica,sans-Serif" font-size="10.00">msl_c/math.h</text>
</a>
</g>
</g>
<!-- Node1&#45;&gt;Node11 -->
<g id="edge15" class="edge">
<title>Node1&#45;&gt;Node11</title>
<path fill="none" stroke="midnightblue" d="M285,-280.41C298.38,-257.17 335.47,-190.84 358,-132 363.89,-116.62 368.74,-98.53 371.91,-85.34"/>
<polygon fill="midnightblue" stroke="midnightblue" points="375.33,-86.11 374.18,-75.58 368.51,-84.53 375.33,-86.11"/>
</g>
<!-- Node3 -->
<g id="node3" class="node">
<title>Node3</title>
<g id="a_node3"><a xlink:href="random_8h.html" target="_top" xlink:title=" ">
<polygon fill="white" stroke="black" points="0,-168.5 0,-187.5 128,-187.5 128,-168.5 0,-168.5"/>
<text text-anchor="middle" x="64" y="-175.5" font-family="Helvetica,sans-Serif" font-size="10.00">JSystem/JMath/random.h</text>
</a>
</g>
</g>
<!-- Node2&#45;&gt;Node3 -->
<g id="edge2" class="edge">
<title>Node2&#45;&gt;Node3</title>
<path fill="none" stroke="midnightblue" d="M164.14,-224.44C144.73,-215.64 114.27,-201.81 92.04,-191.72"/>
<polygon fill="midnightblue" stroke="midnightblue" points="93.32,-188.46 82.77,-187.52 90.43,-194.84 93.32,-188.46"/>
</g>
<!-- Node5 -->
<g id="node5" class="node">
<title>Node5</title>
<g id="a_node5"><a xlink:href="global_8h.html" target="_top" xlink:title=" ">
<polygon fill="white" stroke="black" points="158,-168.5 158,-187.5 208,-187.5 208,-168.5 158,-168.5"/>
<text text-anchor="middle" x="183" y="-175.5" font-family="Helvetica,sans-Serif" font-size="10.00">global.h</text>
</a>
</g>
</g>
<!-- Node2&#45;&gt;Node5 -->
<g id="edge4" class="edge">
<title>Node2&#45;&gt;Node5</title>
<path fill="none" stroke="midnightblue" d="M183,-224.08C183,-217.01 183,-206.86 183,-197.99"/>
<polygon fill="midnightblue" stroke="midnightblue" points="186.5,-197.75 183,-187.75 179.5,-197.75 186.5,-197.75"/>
</g>
<!-- Node4 -->
<g id="node4" class="node">
<title>Node4</title>
<g id="a_node4"><a xlink:href="types_8h.html" target="_top" xlink:title=" ">
<polygon fill="white" stroke="black" points="154.5,-0.5 154.5,-19.5 235.5,-19.5 235.5,-0.5 154.5,-0.5"/>
<text text-anchor="middle" x="195" y="-7.5" font-family="Helvetica,sans-Serif" font-size="10.00">dolphin/types.h</text>
</a>
</g>
</g>
<!-- Node3&#45;&gt;Node4 -->
<g id="edge3" class="edge">
<title>Node3&#45;&gt;Node4</title>
<path fill="none" stroke="midnightblue" d="M64.07,-168.25C64.69,-146.61 69.15,-89.9 98,-56 111.26,-40.42 131.08,-29.92 149.35,-23"/>
<polygon fill="midnightblue" stroke="midnightblue" points="150.73,-26.23 159,-19.62 148.41,-19.63 150.73,-26.23"/>
</g>
<!-- Node5&#45;&gt;Node4 -->
<g id="edge5" class="edge">
<title>Node5&#45;&gt;Node4</title>
<path fill="none" stroke="midnightblue" d="M170.11,-168.22C142.53,-148.33 82.3,-98.22 108,-56 117.46,-40.46 134.21,-30.05 150.5,-23.19"/>
<polygon fill="midnightblue" stroke="midnightblue" points="151.9,-26.4 159.99,-19.55 149.4,-19.87 151.9,-26.4"/>
</g>
<!-- Node6 -->
<g id="node6" class="node">
<title>Node6</title>
<g id="a_node6"><a xlink:href="AR_8h.html" target="_top" xlink:title=" ">
<polygon fill="white" stroke="black" points="117.5,-56.5 117.5,-75.5 166.5,-75.5 166.5,-56.5 117.5,-56.5"/>
<text text-anchor="middle" x="142" y="-63.5" font-family="Helvetica,sans-Serif" font-size="10.00">ar/AR.h</text>
</a>
</g>
</g>
<!-- Node5&#45;&gt;Node6 -->
<g id="edge6" class="edge">
<title>Node5&#45;&gt;Node6</title>
<path fill="none" stroke="midnightblue" d="M173.12,-168.49C164.25,-160.18 151.78,-146.68 146,-132 140.24,-117.35 139.56,-99.41 140.14,-86.09"/>
<polygon fill="midnightblue" stroke="midnightblue" points="143.66,-86 140.88,-75.78 136.67,-85.5 143.66,-86"/>
</g>
<!-- Node7 -->
<g id="node7" class="node">
<title>Node7</title>
<g id="a_node7"><a xlink:href="ARQ_8h.html" target="_top" xlink:title=" ">
<polygon fill="white" stroke="black" points="155,-112.5 155,-131.5 211,-131.5 211,-112.5 155,-112.5"/>
<text text-anchor="middle" x="183" y="-119.5" font-family="Helvetica,sans-Serif" font-size="10.00">ar/ARQ.h</text>
</a>
</g>
</g>
<!-- Node5&#45;&gt;Node7 -->
<g id="edge8" class="edge">
<title>Node5&#45;&gt;Node7</title>
<path fill="none" stroke="midnightblue" d="M183,-168.08C183,-161.01 183,-150.86 183,-141.99"/>
<polygon fill="midnightblue" stroke="midnightblue" points="186.5,-141.75 183,-131.75 179.5,-141.75 186.5,-141.75"/>
</g>
<!-- Node8 -->
<g id="node8" class="node">
<title>Node8</title>
<g id="a_node8"><a xlink:href="mwcc_8h.html" target="_top" xlink:title=" ">
<polygon fill="white" stroke="black" points="229,-112.5 229,-131.5 279,-131.5 279,-112.5 229,-112.5"/>
<text text-anchor="middle" x="254" y="-119.5" font-family="Helvetica,sans-Serif" font-size="10.00">mwcc.h</text>
</a>
</g>
</g>
<!-- Node5&#45;&gt;Node8 -->
<g id="edge10" class="edge">
<title>Node5&#45;&gt;Node8</title>
<path fill="none" stroke="midnightblue" d="M194.41,-168.32C205.11,-160.18 221.34,-147.84 234.16,-138.09"/>
<polygon fill="midnightblue" stroke="midnightblue" points="236.54,-140.67 242.39,-131.83 232.31,-135.1 236.54,-140.67"/>
</g>
<!-- Node9 -->
<g id="node9" class="node">
<title>Node9</title>
<g id="a_node9"><a xlink:href="OS_8h.html" target="_top" xlink:title=" ">
<polygon fill="white" stroke="black" points="297,-112.5 297,-131.5 349,-131.5 349,-112.5 297,-112.5"/>
<text text-anchor="middle" x="323" y="-119.5" font-family="Helvetica,sans-Serif" font-size="10.00">os/OS.h</text>
</a>
</g>
</g>
<!-- Node5&#45;&gt;Node9 -->
<g id="edge11" class="edge">
<title>Node5&#45;&gt;Node9</title>
<path fill="none" stroke="midnightblue" d="M205.18,-168.44C228.43,-159.48 265.15,-145.31 291.42,-135.18"/>
<polygon fill="midnightblue" stroke="midnightblue" points="292.85,-138.38 300.92,-131.52 290.33,-131.85 292.85,-138.38"/>
</g>
<!-- Node6&#45;&gt;Node4 -->
<g id="edge7" class="edge">
<title>Node6&#45;&gt;Node4</title>
<path fill="none" stroke="midnightblue" d="M150.75,-56.08C158.47,-48.22 169.9,-36.57 179.22,-27.08"/>
<polygon fill="midnightblue" stroke="midnightblue" points="181.9,-29.34 186.41,-19.75 176.91,-24.44 181.9,-29.34"/>
</g>
<!-- Node7&#45;&gt;Node4 -->
<g id="edge9" class="edge">
<title>Node7&#45;&gt;Node4</title>
<path fill="none" stroke="midnightblue" d="M183.94,-112.37C185.88,-94.62 190.35,-53.67 192.97,-29.6"/>
<polygon fill="midnightblue" stroke="midnightblue" points="196.46,-29.91 194.06,-19.59 189.5,-29.15 196.46,-29.91"/>
</g>
<!-- Node9&#45;&gt;Node4 -->
<g id="edge12" class="edge">
<title>Node9&#45;&gt;Node4</title>
<path fill="none" stroke="midnightblue" d="M306.59,-112.38C291.59,-104.1 269.19,-90.71 252,-76 234.98,-61.43 218.42,-41.75 207.58,-27.87"/>
<polygon fill="midnightblue" stroke="midnightblue" points="210.19,-25.52 201.33,-19.7 204.63,-29.77 210.19,-25.52"/>
</g>
<!-- Node10 -->
<g id="node10" class="node">
<title>Node10</title>
<g id="a_node10"><a xlink:href="dvd_8h.html" target="_top" xlink:title=" ">
<polygon fill="white" stroke="black" points="261.5,-56.5 261.5,-75.5 320.5,-75.5 320.5,-56.5 261.5,-56.5"/>
<text text-anchor="middle" x="291" y="-63.5" font-family="Helvetica,sans-Serif" font-size="10.00">dvd/dvd.h</text>
</a>
</g>
</g>
<!-- Node9&#45;&gt;Node10 -->
<g id="edge13" class="edge">
<title>Node9&#45;&gt;Node10</title>
<path fill="none" stroke="midnightblue" d="M317.72,-112.08C313.29,-104.61 306.84,-93.72 301.38,-84.52"/>
<polygon fill="midnightblue" stroke="midnightblue" points="304.29,-82.57 296.19,-75.75 298.27,-86.14 304.29,-82.57"/>
</g>
<!-- Node10&#45;&gt;Node4 -->
<g id="edge14" class="edge">
<title>Node10&#45;&gt;Node4</title>
<path fill="none" stroke="midnightblue" d="M275.58,-56.32C260.46,-47.82 237.18,-34.73 219.53,-24.8"/>
<polygon fill="midnightblue" stroke="midnightblue" points="220.82,-21.51 210.39,-19.65 217.39,-27.61 220.82,-21.51"/>
</g>
<!-- Node11&#45;&gt;Node4 -->
<g id="edge16" class="edge">
<title>Node11&#45;&gt;Node4</title>
<path fill="none" stroke="midnightblue" d="M347.32,-56.44C316.47,-47.24 267.27,-32.56 233.17,-22.39"/>
<polygon fill="midnightblue" stroke="midnightblue" points="234.13,-19.02 223.55,-19.52 232.13,-25.73 234.13,-19.02"/>
</g>
</g>
</svg>
