<?xml version="1.0" encoding="UTF-8" standalone="no"?>
<!DOCTYPE svg PUBLIC "-//W3C//DTD SVG 1.1//EN"
 "http://www.w3.org/Graphics/SVG/1.1/DTD/svg11.dtd">
<!-- Generated by graphviz version 2.44.0 ()
 -->
<!-- Title: include/Z2AudioLib/Z2Calc/Z2Calc.h Pages: 1 -->
<svg width="2006pt" height="106pt"
 viewBox="0.00 0.00 2005.50 106.00" xmlns="http://www.w3.org/2000/svg" xmlns:xlink="http://www.w3.org/1999/xlink">
<g id="graph0" class="graph" transform="scale(1 1) rotate(0) translate(4 102)">
<title>include/Z2AudioLib/Z2Calc/Z2Calc.h</title>
<polygon fill="white" stroke="transparent" points="-4,4 -4,-102 2001.5,-102 2001.5,4 -4,4"/>
<!-- Node1 -->
<g id="node1" class="node">
<title>Node1</title>
<g id="a_node1"><a xlink:title=" ">
<polygon fill="#bfbfbf" stroke="black" points="956.5,-67.5 956.5,-97.5 1056.5,-97.5 1056.5,-67.5 956.5,-67.5"/>
<text text-anchor="start" x="964.5" y="-85.5" font-family="Helvetica,sans-Serif" font-size="10.00">include/Z2AudioLib</text>
<text text-anchor="middle" x="1006.5" y="-74.5" font-family="Helvetica,sans-Serif" font-size="10.00">/Z2Calc/Z2Calc.h</text>
</a>
</g>
</g>
<!-- Node2 -->
<g id="node2" class="node">
<title>Node2</title>
<g id="a_node2"><a xlink:href="Z2Audience_8cpp.html" target="_top" xlink:title=" ">
<polygon fill="white" stroke="black" points="0,-6 0,-25 157,-25 157,-6 0,-6"/>
<text text-anchor="middle" x="78.5" y="-13" font-family="Helvetica,sans-Serif" font-size="10.00">libs/Z2AudioLib/Z2Audience.cpp</text>
</a>
</g>
</g>
<!-- Node1&#45;&gt;Node2 -->
<g id="edge1" class="edge">
<title>Node1&#45;&gt;Node2</title>
<path fill="none" stroke="midnightblue" d="M945.77,-80C807.22,-76.1 457.28,-63.61 166.5,-31 152.81,-29.46 138,-27.24 124.5,-25"/>
<polygon fill="midnightblue" stroke="midnightblue" points="946.07,-83.51 956.16,-80.29 946.26,-76.51 946.07,-83.51"/>
</g>
<!-- Node3 -->
<g id="node3" class="node">
<title>Node3</title>
<g id="a_node3"><a xlink:href="Z2Calc_8cpp.html" target="_top" xlink:title=" ">
<polygon fill="white" stroke="black" points="175.5,-6 175.5,-25 311.5,-25 311.5,-6 175.5,-6"/>
<text text-anchor="middle" x="243.5" y="-13" font-family="Helvetica,sans-Serif" font-size="10.00">libs/Z2AudioLib/Z2Calc.cpp</text>
</a>
</g>
</g>
<!-- Node1&#45;&gt;Node3 -->
<g id="edge2" class="edge">
<title>Node1&#45;&gt;Node3</title>
<path fill="none" stroke="midnightblue" d="M946.32,-79.35C826.68,-74.57 550.62,-61.04 320.5,-31 308.63,-29.45 295.82,-27.25 284.12,-25.04"/>
<polygon fill="midnightblue" stroke="midnightblue" points="946.25,-82.85 956.38,-79.75 946.53,-75.86 946.25,-82.85"/>
</g>
<!-- Node4 -->
<g id="node4" class="node">
<title>Node4</title>
<g id="a_node4"><a xlink:href="Z2Creature_8cpp.html" target="_top" xlink:title=" ">
<polygon fill="white" stroke="black" points="330,-6 330,-25 483,-25 483,-6 330,-6"/>
<text text-anchor="middle" x="406.5" y="-13" font-family="Helvetica,sans-Serif" font-size="10.00">libs/Z2AudioLib/Z2Creature.cpp</text>
</a>
</g>
</g>
<!-- Node1&#45;&gt;Node4 -->
<g id="edge3" class="edge">
<title>Node1&#45;&gt;Node4</title>
<path fill="none" stroke="midnightblue" d="M946.15,-76.98C849.8,-69.46 655.37,-52.98 491.5,-31 478.89,-29.31 465.28,-27.14 452.73,-25"/>
<polygon fill="midnightblue" stroke="midnightblue" points="946.05,-80.49 956.29,-77.77 946.59,-73.51 946.05,-80.49"/>
</g>
<!-- Node5 -->
<g id="node5" class="node">
<title>Node5</title>
<g id="a_node5"><a xlink:href="Z2EnvSeMgr_8cpp.html" target="_top" xlink:title=" ">
<polygon fill="white" stroke="black" points="501,-6 501,-25 662,-25 662,-6 501,-6"/>
<text text-anchor="middle" x="581.5" y="-13" font-family="Helvetica,sans-Serif" font-size="10.00">libs/Z2AudioLib/Z2EnvSeMgr.cpp</text>
</a>
</g>
</g>
<!-- Node1&#45;&gt;Node5 -->
<g id="edge4" class="edge">
<title>Node1&#45;&gt;Node5</title>
<path fill="none" stroke="midnightblue" d="M946.28,-72.61C879.2,-62.66 767.54,-45.98 671.5,-31 659.3,-29.1 646.18,-27.01 633.84,-25.02"/>
<polygon fill="midnightblue" stroke="midnightblue" points="945.84,-76.08 956.25,-74.09 946.87,-69.16 945.84,-76.08"/>
</g>
<!-- Node6 -->
<g id="node6" class="node">
<title>Node6</title>
<g id="a_node6"><a xlink:href="Z2LinkMgr_8cpp.html" target="_top" xlink:title=" ">
<polygon fill="white" stroke="black" points="680.5,-6 680.5,-25 832.5,-25 832.5,-6 680.5,-6"/>
<text text-anchor="middle" x="756.5" y="-13" font-family="Helvetica,sans-Serif" font-size="10.00">libs/Z2AudioLib/Z2LinkMgr.cpp</text>
</a>
</g>
</g>
<!-- Node1&#45;&gt;Node6 -->
<g id="edge5" class="edge">
<title>Node1&#45;&gt;Node6</title>
<path fill="none" stroke="midnightblue" d="M946.29,-65.85C896.95,-53.02 828.99,-35.35 789.2,-25"/>
<polygon fill="midnightblue" stroke="midnightblue" points="945.65,-69.3 956.21,-68.42 947.41,-62.52 945.65,-69.3"/>
</g>
<!-- Node7 -->
<g id="node7" class="node">
<title>Node7</title>
<g id="a_node7"><a xlink:href="Z2SeMgr_8cpp.html" target="_top" xlink:title=" ">
<polygon fill="white" stroke="black" points="851,-6 851,-25 996,-25 996,-6 851,-6"/>
<text text-anchor="middle" x="923.5" y="-13" font-family="Helvetica,sans-Serif" font-size="10.00">libs/Z2AudioLib/Z2SeMgr.cpp</text>
</a>
</g>
</g>
<!-- Node1&#45;&gt;Node7 -->
<g id="edge6" class="edge">
<title>Node1&#45;&gt;Node7</title>
<path fill="none" stroke="midnightblue" d="M980.33,-61.01C964.92,-48.94 946.24,-34.3 934.6,-25.19"/>
<polygon fill="midnightblue" stroke="midnightblue" points="978.46,-63.99 988.49,-67.4 982.78,-58.47 978.46,-63.99"/>
</g>
<!-- Node8 -->
<g id="node8" class="node">
<title>Node8</title>
<g id="a_node8"><a xlink:href="Z2SeqMgr_8cpp.html" target="_top" xlink:title=" ">
<polygon fill="white" stroke="black" points="1014.5,-6 1014.5,-25 1164.5,-25 1164.5,-6 1014.5,-6"/>
<text text-anchor="middle" x="1089.5" y="-13" font-family="Helvetica,sans-Serif" font-size="10.00">libs/Z2AudioLib/Z2SeqMgr.cpp</text>
</a>
</g>
</g>
<!-- Node1&#45;&gt;Node8 -->
<g id="edge7" class="edge">
<title>Node1&#45;&gt;Node8</title>
<path fill="none" stroke="midnightblue" d="M1032.67,-61.01C1048.08,-48.94 1066.76,-34.3 1078.4,-25.19"/>
<polygon fill="midnightblue" stroke="midnightblue" points="1030.22,-58.47 1024.51,-67.4 1034.54,-63.99 1030.22,-58.47"/>
</g>
<!-- Node9 -->
<g id="node9" class="node">
<title>Node9</title>
<g id="a_node9"><a xlink:href="Z2SoundInfo_8cpp.html" target="_top" xlink:title=" ">
<polygon fill="white" stroke="black" points="1183,-6 1183,-25 1344,-25 1344,-6 1183,-6"/>
<text text-anchor="middle" x="1263.5" y="-13" font-family="Helvetica,sans-Serif" font-size="10.00">libs/Z2AudioLib/Z2SoundInfo.cpp</text>
</a>
</g>
</g>
<!-- Node1&#45;&gt;Node9 -->
<g id="edge8" class="edge">
<title>Node1&#45;&gt;Node9</title>
<path fill="none" stroke="midnightblue" d="M1066.55,-66.31C1117.39,-53.45 1188.43,-35.49 1229.84,-25.01"/>
<polygon fill="midnightblue" stroke="midnightblue" points="1065.5,-62.97 1056.66,-68.81 1067.22,-69.75 1065.5,-62.97"/>
</g>
<!-- Node10 -->
<g id="node10" class="node">
<title>Node10</title>
<g id="a_node10"><a xlink:href="Z2SoundObject_8cpp.html" target="_top" xlink:title=" ">
<polygon fill="white" stroke="black" points="1362,-6 1362,-25 1535,-25 1535,-6 1362,-6"/>
<text text-anchor="middle" x="1448.5" y="-13" font-family="Helvetica,sans-Serif" font-size="10.00">libs/Z2AudioLib/Z2SoundObject.cpp</text>
</a>
</g>
</g>
<!-- Node1&#45;&gt;Node10 -->
<g id="edge9" class="edge">
<title>Node1&#45;&gt;Node10</title>
<path fill="none" stroke="midnightblue" d="M1066.78,-72.86C1136.01,-62.9 1252.99,-45.98 1353.5,-31 1366.29,-29.09 1380.04,-27.01 1393,-25.04"/>
<polygon fill="midnightblue" stroke="midnightblue" points="1065.91,-69.45 1056.51,-74.33 1066.91,-76.37 1065.91,-69.45"/>
</g>
<!-- Node11 -->
<g id="node11" class="node">
<title>Node11</title>
<g id="a_node11"><a xlink:href="Z2SoundObjMgr_8cpp.html" target="_top" xlink:title=" ">
<polygon fill="white" stroke="black" points="1553,-0.5 1553,-30.5 1694,-30.5 1694,-0.5 1553,-0.5"/>
<text text-anchor="start" x="1561" y="-18.5" font-family="Helvetica,sans-Serif" font-size="10.00">libs/Z2AudioLib/Z2SoundObj</text>
<text text-anchor="middle" x="1623.5" y="-7.5" font-family="Helvetica,sans-Serif" font-size="10.00">Mgr.cpp</text>
</a>
</g>
</g>
<!-- Node1&#45;&gt;Node11 -->
<g id="edge10" class="edge">
<title>Node1&#45;&gt;Node11</title>
<path fill="none" stroke="midnightblue" d="M1066.92,-77.57C1166.68,-70.69 1371.95,-54.89 1544.5,-31 1547.26,-30.62 1550.08,-30.21 1552.91,-29.77"/>
<polygon fill="midnightblue" stroke="midnightblue" points="1066.47,-74.09 1056.74,-78.27 1066.95,-81.08 1066.47,-74.09"/>
</g>
<!-- Node12 -->
<g id="node12" class="node">
<title>Node12</title>
<g id="a_node12"><a xlink:href="Z2StatusMgr_8cpp.html" target="_top" xlink:title=" ">
<polygon fill="white" stroke="black" points="1712,-0.5 1712,-30.5 1839,-30.5 1839,-0.5 1712,-0.5"/>
<text text-anchor="start" x="1720" y="-18.5" font-family="Helvetica,sans-Serif" font-size="10.00">libs/Z2AudioLib/Z2Status</text>
<text text-anchor="middle" x="1775.5" y="-7.5" font-family="Helvetica,sans-Serif" font-size="10.00">Mgr.cpp</text>
</a>
</g>
</g>
<!-- Node1&#45;&gt;Node12 -->
<g id="edge11" class="edge">
<title>Node1&#45;&gt;Node12</title>
<path fill="none" stroke="midnightblue" d="M1066.77,-79.7C1187.89,-75.51 1469.3,-62.94 1703.5,-31 1706.28,-30.62 1709.11,-30.2 1711.97,-29.75"/>
<polygon fill="midnightblue" stroke="midnightblue" points="1066.47,-76.21 1056.59,-80.04 1066.7,-83.2 1066.47,-76.21"/>
</g>
<!-- Node13 -->
<g id="node13" class="node">
<title>Node13</title>
<g id="a_node13"><a xlink:href="Z2WolfHowlMgr_8cpp.html" target="_top" xlink:title=" ">
<polygon fill="white" stroke="black" points="1857.5,-0.5 1857.5,-30.5 1997.5,-30.5 1997.5,-0.5 1857.5,-0.5"/>
<text text-anchor="start" x="1865.5" y="-18.5" font-family="Helvetica,sans-Serif" font-size="10.00">libs/Z2AudioLib/Z2WolfHowl</text>
<text text-anchor="middle" x="1927.5" y="-7.5" font-family="Helvetica,sans-Serif" font-size="10.00">Mgr.cpp</text>
</a>
</g>
</g>
<!-- Node1&#45;&gt;Node13 -->
<g id="edge12" class="edge">
<title>Node1&#45;&gt;Node13</title>
<path fill="none" stroke="midnightblue" d="M1066.91,-80.4C1205.54,-77.31 1556.98,-66.36 1848.5,-31 1851.41,-30.65 1854.37,-30.26 1857.36,-29.83"/>
<polygon fill="midnightblue" stroke="midnightblue" points="1066.44,-76.9 1056.52,-80.62 1066.59,-83.9 1066.44,-76.9"/>
</g>
</g>
</svg>
