<?xml version="1.0" encoding="UTF-8" standalone="no"?>
<!DOCTYPE svg PUBLIC "-//W3C//DTD SVG 1.1//EN"
 "http://www.w3.org/Graphics/SVG/1.1/DTD/svg11.dtd">
<!-- Generated by graphviz version 2.44.0 ()
 -->
<!-- Title: include/Z2AudioLib/Z2EnvSeMgr/Z2EnvSeMgr.h Pages: 1 -->
<svg width="2964pt" height="240pt"
 viewBox="0.00 0.00 2964.01 240.00" xmlns="http://www.w3.org/2000/svg" xmlns:xlink="http://www.w3.org/1999/xlink">
<g id="graph0" class="graph" transform="scale(1 1) rotate(0) translate(4 236)">
<title>include/Z2AudioLib/Z2EnvSeMgr/Z2EnvSeMgr.h</title>
<polygon fill="white" stroke="transparent" points="-4,4 -4,-236 2960.01,-236 2960.01,4 -4,4"/>
<!-- Node1 -->
<g id="node1" class="node">
<title>Node1</title>
<g id="a_node1"><a xlink:title=" ">
<polygon fill="#bfbfbf" stroke="black" points="318.01,-201.5 318.01,-231.5 461.01,-231.5 461.01,-201.5 318.01,-201.5"/>
<text text-anchor="start" x="326.01" y="-219.5" font-family="Helvetica,sans-Serif" font-size="10.00">include/Z2AudioLib</text>
<text text-anchor="middle" x="389.51" y="-208.5" font-family="Helvetica,sans-Serif" font-size="10.00">/Z2EnvSeMgr/Z2EnvSeMgr.h</text>
</a>
</g>
</g>
<!-- Node2 -->
<g id="node2" class="node">
<title>Node2</title>
<g id="a_node2"><a xlink:href="d__kyeff_8cpp.html" target="_top" xlink:title=" ">
<polygon fill="white" stroke="black" points="64.01,-6 64.01,-25 177.01,-25 177.01,-6 64.01,-6"/>
<text text-anchor="middle" x="120.51" y="-13" font-family="Helvetica,sans-Serif" font-size="10.00">src/d/d_ky/d_kyeff.cpp</text>
</a>
</g>
</g>
<!-- Node1&#45;&gt;Node2 -->
<g id="edge1" class="edge">
<title>Node1&#45;&gt;Node2</title>
<path fill="none" stroke="midnightblue" d="M307.71,-210.23C202.43,-202.59 30.71,-186.94 11.51,-165 -32.19,-115.07 66.56,-48.52 105.55,-25.09"/>
<polygon fill="midnightblue" stroke="midnightblue" points="307.77,-213.74 317.99,-210.96 308.27,-206.76 307.77,-213.74"/>
</g>
<!-- Node3 -->
<g id="node3" class="node">
<title>Node3</title>
<g id="a_node3"><a xlink:href="Z2EnvSeMgr_8cpp.html" target="_top" xlink:title=" ">
<polygon fill="white" stroke="black" points="21.01,-140 21.01,-159 182.01,-159 182.01,-140 21.01,-140"/>
<text text-anchor="middle" x="101.51" y="-147" font-family="Helvetica,sans-Serif" font-size="10.00">libs/Z2AudioLib/Z2EnvSeMgr.cpp</text>
</a>
</g>
</g>
<!-- Node1&#45;&gt;Node3 -->
<g id="edge2" class="edge">
<title>Node1&#45;&gt;Node3</title>
<path fill="none" stroke="midnightblue" d="M317.42,-199.23C260.87,-186.47 184.42,-169.21 139.3,-159.03"/>
<polygon fill="midnightblue" stroke="midnightblue" points="316.85,-202.69 327.38,-201.48 318.39,-195.86 316.85,-202.69"/>
</g>
<!-- Node4 -->
<g id="node4" class="node">
<title>Node4</title>
<g id="a_node4"><a xlink:href="Z2SceneMgr_8cpp.html" target="_top" xlink:title=" ">
<polygon fill="white" stroke="black" points="200.01,-140 200.01,-159 361.01,-159 361.01,-140 200.01,-140"/>
<text text-anchor="middle" x="280.51" y="-147" font-family="Helvetica,sans-Serif" font-size="10.00">libs/Z2AudioLib/Z2SceneMgr.cpp</text>
</a>
</g>
</g>
<!-- Node1&#45;&gt;Node4 -->
<g id="edge3" class="edge">
<title>Node1&#45;&gt;Node4</title>
<path fill="none" stroke="midnightblue" d="M357.05,-196.14C336.33,-183.79 310.51,-168.39 294.78,-159.01"/>
<polygon fill="midnightblue" stroke="midnightblue" points="355.48,-199.28 365.86,-201.4 359.07,-193.27 355.48,-199.28"/>
</g>
<!-- Node5 -->
<g id="node5" class="node">
<title>Node5</title>
<g id="a_node5"><a xlink:href="Z2SoundStarter_8cpp.html" target="_top" xlink:title=" ">
<polygon fill="white" stroke="black" points="332.01,-6 332.01,-25 505.01,-25 505.01,-6 332.01,-6"/>
<text text-anchor="middle" x="418.51" y="-13" font-family="Helvetica,sans-Serif" font-size="10.00">libs/Z2AudioLib/Z2SoundStarter.cpp</text>
</a>
</g>
</g>
<!-- Node1&#45;&gt;Node5 -->
<g id="edge4" class="edge">
<title>Node1&#45;&gt;Node5</title>
<path fill="none" stroke="midnightblue" d="M388.35,-190.96C386.51,-173.75 381.9,-150.91 370.51,-134 355.02,-110.99 332.28,-122.63 319.51,-98 313.17,-85.77 312.32,-78.75 319.51,-67 332.92,-45.12 359.11,-32.34 381.19,-25.12"/>
<polygon fill="midnightblue" stroke="midnightblue" points="384.9,-191.65 389.21,-201.33 391.88,-191.07 384.9,-191.65"/>
</g>
<!-- Node6 -->
<g id="node6" class="node">
<title>Node6</title>
<g id="a_node6"><a xlink:href="Z2SpeechMgr2_8cpp.html" target="_top" xlink:title=" ">
<polygon fill="white" stroke="black" points="523.01,-0.5 523.01,-30.5 654.01,-30.5 654.01,-0.5 523.01,-0.5"/>
<text text-anchor="start" x="531.01" y="-18.5" font-family="Helvetica,sans-Serif" font-size="10.00">libs/Z2AudioLib/Z2Speech</text>
<text text-anchor="middle" x="588.51" y="-7.5" font-family="Helvetica,sans-Serif" font-size="10.00">Mgr2.cpp</text>
</a>
</g>
</g>
<!-- Node1&#45;&gt;Node6 -->
<g id="edge5" class="edge">
<title>Node1&#45;&gt;Node6</title>
<path fill="none" stroke="midnightblue" d="M448.39,-197.9C494.83,-180.59 556.6,-149.2 586.51,-98 598.72,-77.1 595.51,-47.76 592.04,-30.58"/>
<polygon fill="midnightblue" stroke="midnightblue" points="446.95,-194.7 438.73,-201.38 449.32,-201.28 446.95,-194.7"/>
</g>
<!-- Node7 -->
<g id="node7" class="node">
<title>Node7</title>
<g id="a_node7"><a xlink:href="d__kankyo_8h.html" target="_top" xlink:title=" ">
<polygon fill="white" stroke="black" points="822.51,-134.5 822.51,-164.5 922.51,-164.5 922.51,-134.5 822.51,-134.5"/>
<text text-anchor="start" x="830.51" y="-152.5" font-family="Helvetica,sans-Serif" font-size="10.00">include/d/d_kankyo</text>
<text text-anchor="middle" x="872.51" y="-141.5" font-family="Helvetica,sans-Serif" font-size="10.00">/d_kankyo.h</text>
</a>
</g>
</g>
<!-- Node1&#45;&gt;Node7 -->
<g id="edge6" class="edge">
<title>Node1&#45;&gt;Node7</title>
<path fill="none" stroke="midnightblue" d="M471.15,-204.51C571.65,-190.99 739.2,-168.44 822.43,-157.24"/>
<polygon fill="midnightblue" stroke="midnightblue" points="470.49,-201.07 461.04,-205.87 471.42,-208.01 470.49,-201.07"/>
</g>
<!-- Node20 -->
<g id="node20" class="node">
<title>Node20</title>
<g id="a_node20"><a xlink:href="m__Do__audio_8h.html" target="_top" xlink:title=" ">
<polygon fill="white" stroke="black" points="1374.01,-67.5 1374.01,-97.5 1507.01,-97.5 1507.01,-67.5 1374.01,-67.5"/>
<text text-anchor="start" x="1382.01" y="-85.5" font-family="Helvetica,sans-Serif" font-size="10.00">include/m_Do/m_Do_audio</text>
<text text-anchor="middle" x="1440.51" y="-74.5" font-family="Helvetica,sans-Serif" font-size="10.00">/m_Do_audio.h</text>
</a>
</g>
</g>
<!-- Node1&#45;&gt;Node20 -->
<g id="edge42" class="edge">
<title>Node1&#45;&gt;Node20</title>
<path fill="none" stroke="midnightblue" d="M471.13,-209.45C577.35,-201.21 768.65,-185.17 931.51,-165 1124.77,-141.07 1172.62,-131.14 1364.51,-98 1367.56,-97.47 1370.67,-96.93 1373.81,-96.36"/>
<polygon fill="midnightblue" stroke="midnightblue" points="470.82,-205.96 461.12,-210.22 471.36,-212.94 470.82,-205.96"/>
</g>
<!-- Node7&#45;&gt;Node2 -->
<g id="edge12" class="edge">
<title>Node7&#45;&gt;Node2</title>
<path fill="none" stroke="midnightblue" d="M812.34,-148.81C709.71,-148.06 494.93,-140.91 319.51,-98 248.62,-80.66 169.95,-42.27 136.72,-25.1"/>
<polygon fill="midnightblue" stroke="midnightblue" points="812.49,-152.31 822.51,-148.87 812.52,-145.31 812.49,-152.31"/>
</g>
<!-- Node8 -->
<g id="node8" class="node">
<title>Node8</title>
<g id="a_node8"><a xlink:href="d__com__inf__game_8cpp.html" target="_top" xlink:title=" ">
<polygon fill="white" stroke="black" points="1198.01,-0.5 1198.01,-30.5 1317.01,-30.5 1317.01,-0.5 1198.01,-0.5"/>
<text text-anchor="start" x="1206.01" y="-18.5" font-family="Helvetica,sans-Serif" font-size="10.00">src/d/d_com/d_com_inf</text>
<text text-anchor="middle" x="1257.51" y="-7.5" font-family="Helvetica,sans-Serif" font-size="10.00">_game.cpp</text>
</a>
</g>
</g>
<!-- Node7&#45;&gt;Node8 -->
<g id="edge7" class="edge">
<title>Node7&#45;&gt;Node8</title>
<path fill="none" stroke="midnightblue" d="M932.9,-142.93C985.94,-136.57 1064.4,-123.54 1128.51,-98 1171.58,-80.84 1216.05,-49.06 1239.88,-30.66"/>
<polygon fill="midnightblue" stroke="midnightblue" points="932.18,-139.49 922.65,-144.11 932.98,-146.44 932.18,-139.49"/>
</g>
<!-- Node9 -->
<g id="node9" class="node">
<title>Node9</title>
<g id="a_node9"><a xlink:href="d__kankyo__data_8cpp.html" target="_top" xlink:title=" ">
<polygon fill="white" stroke="black" points="809.01,-67.5 809.01,-97.5 936.01,-97.5 936.01,-67.5 809.01,-67.5"/>
<text text-anchor="start" x="817.01" y="-85.5" font-family="Helvetica,sans-Serif" font-size="10.00">src/d/d_kankyo/d_kankyo</text>
<text text-anchor="middle" x="872.51" y="-74.5" font-family="Helvetica,sans-Serif" font-size="10.00">_data.cpp</text>
</a>
</g>
</g>
<!-- Node7&#45;&gt;Node9 -->
<g id="edge8" class="edge">
<title>Node7&#45;&gt;Node9</title>
<path fill="none" stroke="midnightblue" d="M872.51,-124.11C872.51,-115.15 872.51,-105.32 872.51,-97.58"/>
<polygon fill="midnightblue" stroke="midnightblue" points="869.01,-124.4 872.51,-134.4 876.01,-124.4 869.01,-124.4"/>
</g>
<!-- Node10 -->
<g id="node10" class="node">
<title>Node10</title>
<g id="a_node10"><a xlink:href="d__kankyo__rain_8cpp.html" target="_top" xlink:title=" ">
<polygon fill="white" stroke="black" points="954.01,-67.5 954.01,-97.5 1081.01,-97.5 1081.01,-67.5 954.01,-67.5"/>
<text text-anchor="start" x="962.01" y="-85.5" font-family="Helvetica,sans-Serif" font-size="10.00">src/d/d_kankyo/d_kankyo</text>
<text text-anchor="middle" x="1017.51" y="-74.5" font-family="Helvetica,sans-Serif" font-size="10.00">_rain.cpp</text>
</a>
</g>
</g>
<!-- Node7&#45;&gt;Node10 -->
<g id="edge9" class="edge">
<title>Node7&#45;&gt;Node10</title>
<path fill="none" stroke="midnightblue" d="M913.18,-130.27C936.28,-119.92 964.75,-107.15 986.11,-97.58"/>
<polygon fill="midnightblue" stroke="midnightblue" points="911.67,-127.11 903.98,-134.4 914.53,-133.5 911.67,-127.11"/>
</g>
<!-- Node11 -->
<g id="node11" class="node">
<title>Node11</title>
<g id="a_node11"><a xlink:href="d__kankyo__wether_8cpp.html" target="_top" xlink:title=" ">
<polygon fill="white" stroke="black" points="934.01,-0.5 934.01,-30.5 1061.01,-30.5 1061.01,-0.5 934.01,-0.5"/>
<text text-anchor="start" x="942.01" y="-18.5" font-family="Helvetica,sans-Serif" font-size="10.00">src/d/d_kankyo/d_kankyo</text>
<text text-anchor="middle" x="997.51" y="-7.5" font-family="Helvetica,sans-Serif" font-size="10.00">_wether.cpp</text>
</a>
</g>
</g>
<!-- Node7&#45;&gt;Node11 -->
<g id="edge10" class="edge">
<title>Node7&#45;&gt;Node11</title>
<path fill="none" stroke="midnightblue" d="M932.68,-142.86C990.24,-136.08 1071.1,-122.42 1090.51,-98 1099.09,-87.21 1097.56,-78.84 1090.51,-67 1080.37,-49.95 1062.23,-38.29 1044.65,-30.52"/>
<polygon fill="midnightblue" stroke="midnightblue" points="932.12,-139.4 922.58,-144.01 932.91,-146.36 932.12,-139.4"/>
</g>
<!-- Node12 -->
<g id="node12" class="node">
<title>Node12</title>
<g id="a_node12"><a xlink:href="d__kankyo_8cpp.html" target="_top" xlink:title=" ">
<polygon fill="white" stroke="black" points="1079.01,-6 1079.01,-25 1180.01,-25 1180.01,-6 1079.01,-6"/>
<text text-anchor="middle" x="1129.51" y="-13" font-family="Helvetica,sans-Serif" font-size="10.00">src/d/d_kankyo.cpp</text>
</a>
</g>
</g>
<!-- Node7&#45;&gt;Node12 -->
<g id="edge11" class="edge">
<title>Node7&#45;&gt;Node12</title>
<path fill="none" stroke="midnightblue" d="M932.87,-142.54C993.64,-135.33 1081.82,-121.2 1106.51,-98 1127.3,-78.47 1129.79,-41.74 1129.78,-25.09"/>
<polygon fill="midnightblue" stroke="midnightblue" points="932.15,-139.1 922.62,-143.72 932.95,-146.05 932.15,-139.1"/>
</g>
<!-- Node13 -->
<g id="node13" class="node">
<title>Node13</title>
<g id="a_node13"><a xlink:href="d__a__alink_8cpp.html" target="_top" xlink:title=" ">
<polygon fill="white" stroke="black" points="672.01,-6 672.01,-25 791.01,-25 791.01,-6 672.01,-6"/>
<text text-anchor="middle" x="731.51" y="-13" font-family="Helvetica,sans-Serif" font-size="10.00">src/d/d_a/d_a_alink.cpp</text>
</a>
</g>
</g>
<!-- Node7&#45;&gt;Node13 -->
<g id="edge13" class="edge">
<title>Node7&#45;&gt;Node13</title>
<path fill="none" stroke="midnightblue" d="M812.26,-142.17C757.24,-135.01 681.77,-121.2 663.51,-98 642.2,-70.92 688.31,-39.92 714.71,-25.17"/>
<polygon fill="midnightblue" stroke="midnightblue" points="811.92,-145.66 822.28,-143.43 812.79,-138.71 811.92,-145.66"/>
</g>
<!-- Node14 -->
<g id="node14" class="node">
<title>Node14</title>
<g id="a_node14"><a xlink:href="m__Do__graphic_8cpp.html" target="_top" xlink:title=" ">
<polygon fill="white" stroke="black" points="1213.51,-73 1213.51,-92 1355.51,-92 1355.51,-73 1213.51,-73"/>
<text text-anchor="middle" x="1284.51" y="-80" font-family="Helvetica,sans-Serif" font-size="10.00">src/m_Do/m_Do_graphic.cpp</text>
</a>
</g>
</g>
<!-- Node7&#45;&gt;Node14 -->
<g id="edge14" class="edge">
<title>Node7&#45;&gt;Node14</title>
<path fill="none" stroke="midnightblue" d="M932.85,-139.47C998.51,-129.58 1106.54,-113.11 1199.51,-98 1211.04,-96.13 1223.43,-94.05 1235.09,-92.07"/>
<polygon fill="midnightblue" stroke="midnightblue" points="932.06,-136.05 922.69,-141 933.1,-142.97 932.06,-136.05"/>
</g>
<!-- Node15 -->
<g id="node15" class="node">
<title>Node15</title>
<g id="a_node15"><a xlink:href="d__a__alink_8h.html" target="_top" xlink:title=" ">
<polygon fill="white" stroke="black" points="672.01,-67.5 672.01,-97.5 791.01,-97.5 791.01,-67.5 672.01,-67.5"/>
<text text-anchor="start" x="680.01" y="-85.5" font-family="Helvetica,sans-Serif" font-size="10.00">include/d/d_a/d_a_alink</text>
<text text-anchor="middle" x="731.51" y="-74.5" font-family="Helvetica,sans-Serif" font-size="10.00">/d_a_alink.h</text>
</a>
</g>
</g>
<!-- Node7&#45;&gt;Node15 -->
<g id="edge15" class="edge">
<title>Node7&#45;&gt;Node15</title>
<path fill="none" stroke="midnightblue" d="M832.67,-130.13C810.26,-119.8 782.73,-107.11 762.05,-97.58"/>
<polygon fill="midnightblue" stroke="midnightblue" points="831.37,-133.39 841.92,-134.4 834.3,-127.03 831.37,-133.39"/>
</g>
<!-- Node17 -->
<g id="node17" class="node">
<title>Node17</title>
<g id="a_node17"><a xlink:href="d__kyeff_8h.html" target="_top" xlink:title=" ">
<polygon fill="white" stroke="black" points="328.01,-67.5 328.01,-97.5 441.01,-97.5 441.01,-67.5 328.01,-67.5"/>
<text text-anchor="start" x="336.01" y="-85.5" font-family="Helvetica,sans-Serif" font-size="10.00">include/d/d_ky/d_kyeff</text>
<text text-anchor="middle" x="384.51" y="-74.5" font-family="Helvetica,sans-Serif" font-size="10.00">/d_kyeff.h</text>
</a>
</g>
</g>
<!-- Node7&#45;&gt;Node17 -->
<g id="edge18" class="edge">
<title>Node7&#45;&gt;Node17</title>
<path fill="none" stroke="midnightblue" d="M812.11,-143.13C729.96,-135.41 578.54,-119.67 450.51,-98 447.51,-97.49 444.43,-96.94 441.33,-96.35"/>
<polygon fill="midnightblue" stroke="midnightblue" points="811.99,-146.64 822.27,-144.08 812.64,-139.67 811.99,-146.64"/>
</g>
<!-- Node18 -->
<g id="node18" class="node">
<title>Node18</title>
<g id="a_node18"><a xlink:href="d__kyeff2_8h.html" target="_top" xlink:title=" ">
<polygon fill="white" stroke="black" points="459.51,-67.5 459.51,-97.5 577.51,-97.5 577.51,-67.5 459.51,-67.5"/>
<text text-anchor="start" x="467.51" y="-85.5" font-family="Helvetica,sans-Serif" font-size="10.00">include/d/d_ky/d_kyeff2</text>
<text text-anchor="middle" x="518.51" y="-74.5" font-family="Helvetica,sans-Serif" font-size="10.00">/d_kyeff2.h</text>
</a>
</g>
</g>
<!-- Node7&#45;&gt;Node18 -->
<g id="edge20" class="edge">
<title>Node7&#45;&gt;Node18</title>
<path fill="none" stroke="midnightblue" d="M811.99,-137.39C746.42,-125.35 642.51,-106.27 577.53,-94.34"/>
<polygon fill="midnightblue" stroke="midnightblue" points="811.7,-140.89 822.17,-139.26 812.97,-134.01 811.7,-140.89"/>
</g>
<!-- Node7&#45;&gt;Node20 -->
<g id="edge22" class="edge">
<title>Node7&#45;&gt;Node20</title>
<path fill="none" stroke="midnightblue" d="M932.69,-144.01C1025.62,-136.69 1209.54,-120.69 1364.51,-98 1367.57,-97.55 1370.69,-97.07 1373.84,-96.56"/>
<polygon fill="midnightblue" stroke="midnightblue" points="932.32,-140.52 922.62,-144.79 932.87,-147.5 932.32,-140.52"/>
</g>
<!-- Node15&#45;&gt;Node13 -->
<g id="edge17" class="edge">
<title>Node15&#45;&gt;Node13</title>
<path fill="none" stroke="midnightblue" d="M731.51,-57.25C731.51,-46.02 731.51,-33.38 731.51,-25.19"/>
<polygon fill="midnightblue" stroke="midnightblue" points="728.01,-57.4 731.51,-67.4 735.01,-57.4 728.01,-57.4"/>
</g>
<!-- Node16 -->
<g id="node16" class="node">
<title>Node16</title>
<g id="a_node16"><a xlink:href="d__attention_8cpp.html" target="_top" xlink:title=" ">
<polygon fill="white" stroke="black" points="809.01,-6 809.01,-25 916.01,-25 916.01,-6 809.01,-6"/>
<text text-anchor="middle" x="862.51" y="-13" font-family="Helvetica,sans-Serif" font-size="10.00">src/d/d_attention.cpp</text>
</a>
</g>
</g>
<!-- Node15&#45;&gt;Node16 -->
<g id="edge16" class="edge">
<title>Node15&#45;&gt;Node16</title>
<path fill="none" stroke="midnightblue" d="M769.2,-62.8C794.31,-50.34 826.12,-34.56 845.37,-25.01"/>
<polygon fill="midnightblue" stroke="midnightblue" points="767.34,-59.82 759.94,-67.4 770.45,-66.09 767.34,-59.82"/>
</g>
<!-- Node17&#45;&gt;Node2 -->
<g id="edge19" class="edge">
<title>Node17&#45;&gt;Node2</title>
<path fill="none" stroke="midnightblue" d="M318.11,-65.15C266.34,-52.4 196.53,-35.22 155.24,-25.05"/>
<polygon fill="midnightblue" stroke="midnightblue" points="317.33,-68.56 327.88,-67.56 319.01,-61.77 317.33,-68.56"/>
</g>
<!-- Node19 -->
<g id="node19" class="node">
<title>Node19</title>
<g id="a_node19"><a xlink:href="d__kyeff2_8cpp.html" target="_top" xlink:title=" ">
<polygon fill="white" stroke="black" points="195.01,-6 195.01,-25 314.01,-25 314.01,-6 195.01,-6"/>
<text text-anchor="middle" x="254.51" y="-13" font-family="Helvetica,sans-Serif" font-size="10.00">src/d/d_ky/d_kyeff2.cpp</text>
</a>
</g>
</g>
<!-- Node18&#45;&gt;Node19 -->
<g id="edge21" class="edge">
<title>Node18&#45;&gt;Node19</title>
<path fill="none" stroke="midnightblue" d="M451.78,-65.07C400.01,-52.32 330.34,-35.17 289.15,-25.03"/>
<polygon fill="midnightblue" stroke="midnightblue" points="451.01,-68.48 461.55,-67.48 452.68,-61.69 451.01,-68.48"/>
</g>
<!-- Node20&#45;&gt;Node2 -->
<g id="edge28" class="edge">
<title>Node20&#45;&gt;Node2</title>
<path fill="none" stroke="midnightblue" d="M1363.83,-67.07C842.09,-10.82 703.03,-95.07 186.51,-31 175.69,-29.66 164.02,-27.38 153.54,-25.02"/>
<polygon fill="midnightblue" stroke="midnightblue" points="1363.55,-70.56 1373.88,-68.17 1364.31,-63.61 1363.55,-70.56"/>
</g>
<!-- Node20&#45;&gt;Node5 -->
<g id="edge40" class="edge">
<title>Node20&#45;&gt;Node5</title>
<path fill="none" stroke="midnightblue" d="M1363.79,-67.05C987.17,-24.22 887.58,-66.97 514.51,-31 499.41,-29.54 483.07,-27.32 468.21,-25.05"/>
<polygon fill="midnightblue" stroke="midnightblue" points="1363.54,-70.55 1373.87,-68.21 1364.34,-63.59 1363.54,-70.55"/>
</g>
<!-- Node20&#45;&gt;Node6 -->
<g id="edge41" class="edge">
<title>Node20&#45;&gt;Node6</title>
<path fill="none" stroke="midnightblue" d="M1363.66,-67.03C1053.01,-30.51 969.87,-68.3 663.51,-31 660.49,-30.63 657.4,-30.21 654.28,-29.75"/>
<polygon fill="midnightblue" stroke="midnightblue" points="1363.52,-70.54 1373.87,-68.25 1364.35,-63.59 1363.52,-70.54"/>
</g>
<!-- Node20&#45;&gt;Node8 -->
<g id="edge25" class="edge">
<title>Node20&#45;&gt;Node8</title>
<path fill="none" stroke="midnightblue" d="M1391.12,-63.96C1361.64,-53.48 1324.7,-40.37 1297.14,-30.58"/>
<polygon fill="midnightblue" stroke="midnightblue" points="1390.21,-67.35 1400.81,-67.4 1392.55,-60.75 1390.21,-67.35"/>
</g>
<!-- Node20&#45;&gt;Node11 -->
<g id="edge26" class="edge">
<title>Node20&#45;&gt;Node11</title>
<path fill="none" stroke="midnightblue" d="M1363.81,-66.96C1232.74,-46.89 1197.32,-51.33 1070.51,-31 1067.45,-30.51 1064.32,-29.98 1061.16,-29.43"/>
<polygon fill="midnightblue" stroke="midnightblue" points="1363.41,-70.44 1373.83,-68.52 1364.48,-63.53 1363.41,-70.44"/>
</g>
<!-- Node20&#45;&gt;Node12 -->
<g id="edge27" class="edge">
<title>Node20&#45;&gt;Node12</title>
<path fill="none" stroke="midnightblue" d="M1363.73,-66.85C1313.96,-57.15 1247.78,-43.9 1189.51,-31 1181.14,-29.15 1172.14,-27.04 1163.73,-25.01"/>
<polygon fill="midnightblue" stroke="midnightblue" points="1363.29,-70.33 1373.78,-68.8 1364.63,-63.46 1363.29,-70.33"/>
</g>
<!-- Node20&#45;&gt;Node13 -->
<g id="edge33" class="edge">
<title>Node20&#45;&gt;Node13</title>
<path fill="none" stroke="midnightblue" d="M1363.73,-67.03C1113.56,-36.17 1046.11,-64.47 800.51,-31 789.6,-29.51 777.83,-27.28 767.16,-25.01"/>
<polygon fill="midnightblue" stroke="midnightblue" points="1363.5,-70.53 1373.86,-68.3 1364.37,-63.58 1363.5,-70.53"/>
</g>
<!-- Node20&#45;&gt;Node16 -->
<g id="edge23" class="edge">
<title>Node20&#45;&gt;Node16</title>
<path fill="none" stroke="midnightblue" d="M1363.85,-67.02C1168.78,-41.28 1115.75,-60.53 925.51,-31 915.64,-29.47 905.02,-27.25 895.36,-25"/>
<polygon fill="midnightblue" stroke="midnightblue" points="1363.47,-70.5 1373.85,-68.36 1364.41,-63.57 1363.47,-70.5"/>
</g>
<!-- Node21 -->
<g id="node21" class="node">
<title>Node21</title>
<g id="a_node21"><a xlink:href="d__camera_8cpp.html" target="_top" xlink:title=" ">
<polygon fill="white" stroke="black" points="2025.51,-6 2025.51,-25 2127.51,-25 2127.51,-6 2025.51,-6"/>
<text text-anchor="middle" x="2076.51" y="-13" font-family="Helvetica,sans-Serif" font-size="10.00">src/d/d_camera.cpp</text>
</a>
</g>
</g>
<!-- Node20&#45;&gt;Node21 -->
<g id="edge24" class="edge">
<title>Node20&#45;&gt;Node21</title>
<path fill="none" stroke="midnightblue" d="M1517.53,-78.41C1628.43,-73.14 1839.27,-60.02 2016.51,-31 2025.82,-29.48 2035.82,-27.29 2044.93,-25.07"/>
<polygon fill="midnightblue" stroke="midnightblue" points="1517.26,-74.92 1507.44,-78.89 1517.59,-81.92 1517.26,-74.92"/>
</g>
<!-- Node22 -->
<g id="node22" class="node">
<title>Node22</title>
<g id="a_node22"><a xlink:href="d__meter__button_8cpp.html" target="_top" xlink:title=" ">
<polygon fill="white" stroke="black" points="2145.01,-0.5 2145.01,-30.5 2260.01,-30.5 2260.01,-0.5 2145.01,-0.5"/>
<text text-anchor="start" x="2153.01" y="-18.5" font-family="Helvetica,sans-Serif" font-size="10.00">src/d/d_meter/d_meter</text>
<text text-anchor="middle" x="2202.51" y="-7.5" font-family="Helvetica,sans-Serif" font-size="10.00">_button.cpp</text>
</a>
</g>
</g>
<!-- Node20&#45;&gt;Node22 -->
<g id="edge29" class="edge">
<title>Node20&#45;&gt;Node22</title>
<path fill="none" stroke="midnightblue" d="M1517.22,-79.54C1645.86,-75.44 1912.98,-63.49 2136.51,-31 2139.3,-30.59 2142.14,-30.14 2145.01,-29.64"/>
<polygon fill="midnightblue" stroke="midnightblue" points="1516.96,-76.04 1507.07,-79.85 1517.18,-83.04 1516.96,-76.04"/>
</g>
<!-- Node23 -->
<g id="node23" class="node">
<title>Node23</title>
<g id="a_node23"><a xlink:href="d__meter__map_8cpp.html" target="_top" xlink:title=" ">
<polygon fill="white" stroke="black" points="2278.01,-0.5 2278.01,-30.5 2393.01,-30.5 2393.01,-0.5 2278.01,-0.5"/>
<text text-anchor="start" x="2286.01" y="-18.5" font-family="Helvetica,sans-Serif" font-size="10.00">src/d/d_meter/d_meter</text>
<text text-anchor="middle" x="2335.51" y="-7.5" font-family="Helvetica,sans-Serif" font-size="10.00">_map.cpp</text>
</a>
</g>
</g>
<!-- Node20&#45;&gt;Node23 -->
<g id="edge30" class="edge">
<title>Node20&#45;&gt;Node23</title>
<path fill="none" stroke="midnightblue" d="M1517.47,-80.8C1664.37,-78.57 1994.6,-69.34 2269.51,-31 2272.19,-30.63 2274.91,-30.2 2277.66,-29.74"/>
<polygon fill="midnightblue" stroke="midnightblue" points="1517.17,-77.3 1507.22,-80.94 1517.27,-84.3 1517.17,-77.3"/>
</g>
<!-- Node24 -->
<g id="node24" class="node">
<title>Node24</title>
<g id="a_node24"><a xlink:href="d__meter2__draw_8cpp.html" target="_top" xlink:title=" ">
<polygon fill="white" stroke="black" points="2411.01,-0.5 2411.01,-30.5 2536.01,-30.5 2536.01,-0.5 2411.01,-0.5"/>
<text text-anchor="start" x="2419.01" y="-18.5" font-family="Helvetica,sans-Serif" font-size="10.00">src/d/d_meter2/d_meter2</text>
<text text-anchor="middle" x="2473.51" y="-7.5" font-family="Helvetica,sans-Serif" font-size="10.00">_draw.cpp</text>
</a>
</g>
</g>
<!-- Node20&#45;&gt;Node24 -->
<g id="edge31" class="edge">
<title>Node20&#45;&gt;Node24</title>
<path fill="none" stroke="midnightblue" d="M1517.75,-81.34C1681.51,-80.15 2075.41,-72.75 2402.51,-31 2405.26,-30.65 2408.06,-30.25 2410.88,-29.82"/>
<polygon fill="midnightblue" stroke="midnightblue" points="1517.27,-77.84 1507.3,-81.41 1517.32,-84.84 1517.27,-77.84"/>
</g>
<!-- Node25 -->
<g id="node25" class="node">
<title>Node25</title>
<g id="a_node25"><a xlink:href="d__meter2_8cpp.html" target="_top" xlink:title=" ">
<polygon fill="white" stroke="black" points="2554.51,-6 2554.51,-25 2654.51,-25 2654.51,-6 2554.51,-6"/>
<text text-anchor="middle" x="2604.51" y="-13" font-family="Helvetica,sans-Serif" font-size="10.00">src/d/d_meter2.cpp</text>
</a>
</g>
</g>
<!-- Node20&#45;&gt;Node25 -->
<g id="edge32" class="edge">
<title>Node20&#45;&gt;Node25</title>
<path fill="none" stroke="midnightblue" d="M1517.16,-79.95C1733.59,-75.25 2346.48,-59.72 2545.51,-31 2555.12,-29.61 2565.44,-27.35 2574.72,-25.02"/>
<polygon fill="midnightblue" stroke="midnightblue" points="1517.08,-76.45 1507.16,-80.16 1517.24,-83.45 1517.08,-76.45"/>
</g>
<!-- Node26 -->
<g id="node26" class="node">
<title>Node26</title>
<g id="a_node26"><a xlink:href="m__Do__audio_8cpp.html" target="_top" xlink:title=" ">
<polygon fill="white" stroke="black" points="2672.51,-6 2672.51,-25 2806.51,-25 2806.51,-6 2672.51,-6"/>
<text text-anchor="middle" x="2739.51" y="-13" font-family="Helvetica,sans-Serif" font-size="10.00">src/m_Do/m_Do_audio.cpp</text>
</a>
</g>
</g>
<!-- Node20&#45;&gt;Node26 -->
<g id="edge34" class="edge">
<title>Node20&#45;&gt;Node26</title>
<path fill="none" stroke="midnightblue" d="M1517.11,-82.24C1710.19,-83.27 2232.13,-80.78 2663.51,-31 2675.66,-29.6 2688.77,-27.36 2700.63,-25.06"/>
<polygon fill="midnightblue" stroke="midnightblue" points="1517.09,-78.74 1507.07,-82.18 1517.05,-85.74 1517.09,-78.74"/>
</g>
<!-- Node27 -->
<g id="node27" class="node">
<title>Node27</title>
<g id="a_node27"><a xlink:href="m__Do__main_8cpp.html" target="_top" xlink:title=" ">
<polygon fill="white" stroke="black" points="2825.01,-6 2825.01,-25 2956.01,-25 2956.01,-6 2825.01,-6"/>
<text text-anchor="middle" x="2890.51" y="-13" font-family="Helvetica,sans-Serif" font-size="10.00">src/m_Do/m_Do_main.cpp</text>
</a>
</g>
</g>
<!-- Node20&#45;&gt;Node27 -->
<g id="edge35" class="edge">
<title>Node20&#45;&gt;Node27</title>
<path fill="none" stroke="midnightblue" d="M1517.47,-80.24C1768.37,-75.88 2561.09,-60.09 2815.51,-31 2827.64,-29.61 2840.73,-27.35 2852.53,-25.02"/>
<polygon fill="midnightblue" stroke="midnightblue" points="1517.29,-76.74 1507.36,-80.41 1517.41,-83.74 1517.29,-76.74"/>
</g>
<!-- Node28 -->
<g id="node28" class="node">
<title>Node28</title>
<g id="a_node28"><a xlink:href="Z2AudioMgr_8cpp.html" target="_top" xlink:title=" ">
<polygon fill="white" stroke="black" points="1335.51,-6 1335.51,-25 1493.51,-25 1493.51,-6 1335.51,-6"/>
<text text-anchor="middle" x="1414.51" y="-13" font-family="Helvetica,sans-Serif" font-size="10.00">libs/Z2AudioLib/Z2AudioMgr.cpp</text>
</a>
</g>
</g>
<!-- Node20&#45;&gt;Node28 -->
<g id="edge36" class="edge">
<title>Node20&#45;&gt;Node28</title>
<path fill="none" stroke="midnightblue" d="M1431.09,-57.94C1426.53,-46.54 1421.33,-33.55 1417.99,-25.19"/>
<polygon fill="midnightblue" stroke="midnightblue" points="1427.91,-59.41 1434.87,-67.4 1434.41,-56.81 1427.91,-59.41"/>
</g>
<!-- Node29 -->
<g id="node29" class="node">
<title>Node29</title>
<g id="a_node29"><a xlink:href="Z2Creature_8cpp.html" target="_top" xlink:title=" ">
<polygon fill="white" stroke="black" points="1512.01,-6 1512.01,-25 1665.01,-25 1665.01,-6 1512.01,-6"/>
<text text-anchor="middle" x="1588.51" y="-13" font-family="Helvetica,sans-Serif" font-size="10.00">libs/Z2AudioLib/Z2Creature.cpp</text>
</a>
</g>
</g>
<!-- Node20&#45;&gt;Node29 -->
<g id="edge37" class="edge">
<title>Node20&#45;&gt;Node29</title>
<path fill="none" stroke="midnightblue" d="M1481.96,-63.3C1510.51,-50.76 1547.11,-34.68 1569.14,-25.01"/>
<polygon fill="midnightblue" stroke="midnightblue" points="1480.38,-60.17 1472.63,-67.4 1483.19,-66.58 1480.38,-60.17"/>
</g>
<!-- Node30 -->
<g id="node30" class="node">
<title>Node30</title>
<g id="a_node30"><a xlink:href="Z2SeMgr_8cpp.html" target="_top" xlink:title=" ">
<polygon fill="white" stroke="black" points="1683.01,-6 1683.01,-25 1828.01,-25 1828.01,-6 1683.01,-6"/>
<text text-anchor="middle" x="1755.51" y="-13" font-family="Helvetica,sans-Serif" font-size="10.00">libs/Z2AudioLib/Z2SeMgr.cpp</text>
</a>
</g>
</g>
<!-- Node20&#45;&gt;Node30 -->
<g id="edge38" class="edge">
<title>Node20&#45;&gt;Node30</title>
<path fill="none" stroke="midnightblue" d="M1517.43,-65.63C1579.33,-52.85 1663.96,-35.39 1713.87,-25.09"/>
<polygon fill="midnightblue" stroke="midnightblue" points="1516.4,-62.27 1507.32,-67.72 1517.82,-69.12 1516.4,-62.27"/>
</g>
<!-- Node31 -->
<g id="node31" class="node">
<title>Node31</title>
<g id="a_node31"><a xlink:href="Z2SoundMgr_8cpp.html" target="_top" xlink:title=" ">
<polygon fill="white" stroke="black" points="1846.01,-6 1846.01,-25 2007.01,-25 2007.01,-6 1846.01,-6"/>
<text text-anchor="middle" x="1926.51" y="-13" font-family="Helvetica,sans-Serif" font-size="10.00">libs/Z2AudioLib/Z2SoundMgr.cpp</text>
</a>
</g>
</g>
<!-- Node20&#45;&gt;Node31 -->
<g id="edge39" class="edge">
<title>Node20&#45;&gt;Node31</title>
<path fill="none" stroke="midnightblue" d="M1517.34,-72.54C1597.39,-63 1726.41,-47.11 1837.51,-31 1850.06,-29.18 1863.58,-27.06 1876.2,-25.01"/>
<polygon fill="midnightblue" stroke="midnightblue" points="1516.86,-69.07 1507.34,-73.72 1517.68,-76.02 1516.86,-69.07"/>
</g>
</g>
</svg>
