<?xml version="1.0" encoding="UTF-8" standalone="no"?>
<!DOCTYPE svg PUBLIC "-//W3C//DTD SVG 1.1//EN"
 "http://www.w3.org/Graphics/SVG/1.1/DTD/svg11.dtd">
<!-- Generated by graphviz version 2.44.0 ()
 -->
<!-- Title: include/Z2AudioLib/Z2SeqMgr/Z2SeqMgr.h Pages: 1 -->
<svg width="412pt" height="341pt"
 viewBox="0.00 0.00 412.00 341.00" xmlns="http://www.w3.org/2000/svg" xmlns:xlink="http://www.w3.org/1999/xlink">
<g id="graph0" class="graph" transform="scale(1 1) rotate(0) translate(4 337)">
<title>include/Z2AudioLib/Z2SeqMgr/Z2SeqMgr.h</title>
<polygon fill="white" stroke="transparent" points="-4,4 -4,-337 408,-337 408,4 -4,4"/>
<!-- Node1 -->
<g id="node1" class="node">
<title>Node1</title>
<g id="a_node1"><a xlink:title=" ">
<polygon fill="#bfbfbf" stroke="black" points="140.5,-302.5 140.5,-332.5 260.5,-332.5 260.5,-302.5 140.5,-302.5"/>
<text text-anchor="start" x="148.5" y="-320.5" font-family="Helvetica,sans-Serif" font-size="10.00">include/Z2AudioLib</text>
<text text-anchor="middle" x="200.5" y="-309.5" font-family="Helvetica,sans-Serif" font-size="10.00">/Z2SeqMgr/Z2SeqMgr.h</text>
</a>
</g>
</g>
<!-- Node2 -->
<g id="node2" class="node">
<title>Node2</title>
<g id="a_node2"><a xlink:href="JAISe_8h.html" target="_top" xlink:title=" ">
<polygon fill="white" stroke="black" points="0,-235.5 0,-265.5 123,-265.5 123,-235.5 0,-235.5"/>
<text text-anchor="start" x="8" y="-253.5" font-family="Helvetica,sans-Serif" font-size="10.00">JSystem/JAudio2/JAISe</text>
<text text-anchor="middle" x="61.5" y="-242.5" font-family="Helvetica,sans-Serif" font-size="10.00">/JAISe.h</text>
</a>
</g>
</g>
<!-- Node1&#45;&gt;Node2 -->
<g id="edge1" class="edge">
<title>Node1&#45;&gt;Node2</title>
<path fill="none" stroke="midnightblue" d="M170.34,-302.4C149.94,-292.86 122.8,-280.16 100.72,-269.84"/>
<polygon fill="midnightblue" stroke="midnightblue" points="102.14,-266.64 91.6,-265.58 99.18,-272.98 102.14,-266.64"/>
</g>
<!-- Node3 -->
<g id="node3" class="node">
<title>Node3</title>
<g id="a_node3"><a xlink:href="global_8h.html" target="_top" xlink:title=" ">
<polygon fill="white" stroke="black" points="122.5,-174 122.5,-193 172.5,-193 172.5,-174 122.5,-174"/>
<text text-anchor="middle" x="147.5" y="-181" font-family="Helvetica,sans-Serif" font-size="10.00">global.h</text>
</a>
</g>
</g>
<!-- Node1&#45;&gt;Node3 -->
<g id="edge17" class="edge">
<title>Node1&#45;&gt;Node3</title>
<path fill="none" stroke="midnightblue" d="M190.79,-302.45C184.34,-292.6 176.05,-278.93 170.5,-266 161.64,-245.36 155.16,-220.34 151.38,-203.51"/>
<polygon fill="midnightblue" stroke="midnightblue" points="154.72,-202.36 149.2,-193.32 147.87,-203.83 154.72,-202.36"/>
</g>
<!-- Node10 -->
<g id="node10" class="node">
<title>Node10</title>
<g id="a_node10"><a xlink:href="JAISound_8h.html" target="_top" xlink:title=" ">
<polygon fill="white" stroke="black" points="180,-235.5 180,-265.5 319,-265.5 319,-235.5 180,-235.5"/>
<text text-anchor="start" x="188" y="-253.5" font-family="Helvetica,sans-Serif" font-size="10.00">JSystem/JAudio2/JAISound</text>
<text text-anchor="middle" x="249.5" y="-242.5" font-family="Helvetica,sans-Serif" font-size="10.00">/JAISound.h</text>
</a>
</g>
</g>
<!-- Node1&#45;&gt;Node10 -->
<g id="edge13" class="edge">
<title>Node1&#45;&gt;Node10</title>
<path fill="none" stroke="midnightblue" d="M211.13,-302.4C217.42,-294.05 225.54,-283.29 232.68,-273.81"/>
<polygon fill="midnightblue" stroke="midnightblue" points="235.66,-275.67 238.89,-265.58 230.07,-271.45 235.66,-275.67"/>
</g>
<!-- Node11 -->
<g id="node11" class="node">
<title>Node11</title>
<g id="a_node11"><a xlink:href="Z2Param_8h.html" target="_top" xlink:title=" ">
<polygon fill="white" stroke="black" points="295,-168.5 295,-198.5 404,-198.5 404,-168.5 295,-168.5"/>
<text text-anchor="start" x="303" y="-186.5" font-family="Helvetica,sans-Serif" font-size="10.00">Z2AudioLib/Z2Param</text>
<text text-anchor="middle" x="349.5" y="-175.5" font-family="Helvetica,sans-Serif" font-size="10.00">/Z2Param.h</text>
</a>
</g>
</g>
<!-- Node1&#45;&gt;Node11 -->
<g id="edge15" class="edge">
<title>Node1&#45;&gt;Node11</title>
<path fill="none" stroke="midnightblue" d="M260.61,-305.28C284.78,-297.9 311.02,-285.78 328.5,-266 342.36,-250.31 347.28,-226.66 348.93,-208.87"/>
<polygon fill="midnightblue" stroke="midnightblue" points="352.44,-208.88 349.59,-198.67 345.45,-208.43 352.44,-208.88"/>
</g>
<!-- Node2&#45;&gt;Node3 -->
<g id="edge2" class="edge">
<title>Node2&#45;&gt;Node3</title>
<path fill="none" stroke="midnightblue" d="M80.16,-235.4C94.23,-224.76 113.49,-210.2 127.81,-199.38"/>
<polygon fill="midnightblue" stroke="midnightblue" points="130.13,-202.02 136,-193.19 125.91,-196.43 130.13,-202.02"/>
</g>
<!-- Node4 -->
<g id="node4" class="node">
<title>Node4</title>
<g id="a_node4"><a xlink:href="types_8h.html" target="_top" xlink:title=" ">
<polygon fill="white" stroke="black" points="166,-0.5 166,-19.5 247,-19.5 247,-0.5 166,-0.5"/>
<text text-anchor="middle" x="206.5" y="-7.5" font-family="Helvetica,sans-Serif" font-size="10.00">dolphin/types.h</text>
</a>
</g>
</g>
<!-- Node3&#45;&gt;Node4 -->
<g id="edge3" class="edge">
<title>Node3&#45;&gt;Node4</title>
<path fill="none" stroke="midnightblue" d="M135.43,-173.88C107.57,-152.92 43.39,-97.97 73.5,-56 92.12,-30.04 126.53,-18.87 155.68,-14.14"/>
<polygon fill="midnightblue" stroke="midnightblue" points="156.33,-17.59 165.74,-12.73 155.35,-10.66 156.33,-17.59"/>
</g>
<!-- Node5 -->
<g id="node5" class="node">
<title>Node5</title>
<g id="a_node5"><a xlink:href="AR_8h.html" target="_top" xlink:title=" ">
<polygon fill="white" stroke="black" points="83,-56.5 83,-75.5 132,-75.5 132,-56.5 83,-56.5"/>
<text text-anchor="middle" x="107.5" y="-63.5" font-family="Helvetica,sans-Serif" font-size="10.00">ar/AR.h</text>
</a>
</g>
</g>
<!-- Node3&#45;&gt;Node5 -->
<g id="edge4" class="edge">
<title>Node3&#45;&gt;Node5</title>
<path fill="none" stroke="midnightblue" d="M144.49,-173.82C138.01,-155.09 122.58,-110.55 113.84,-85.29"/>
<polygon fill="midnightblue" stroke="midnightblue" points="117.12,-84.09 110.54,-75.78 110.51,-86.38 117.12,-84.09"/>
</g>
<!-- Node6 -->
<g id="node6" class="node">
<title>Node6</title>
<g id="a_node6"><a xlink:href="ARQ_8h.html" target="_top" xlink:title=" ">
<polygon fill="white" stroke="black" points="150.5,-56.5 150.5,-75.5 206.5,-75.5 206.5,-56.5 150.5,-56.5"/>
<text text-anchor="middle" x="178.5" y="-63.5" font-family="Helvetica,sans-Serif" font-size="10.00">ar/ARQ.h</text>
</a>
</g>
</g>
<!-- Node3&#45;&gt;Node6 -->
<g id="edge6" class="edge">
<title>Node3&#45;&gt;Node6</title>
<path fill="none" stroke="midnightblue" d="M149.63,-173.79C152.91,-160.46 159.47,-134.18 165.5,-112 167.9,-103.16 170.71,-93.39 173.1,-85.22"/>
<polygon fill="midnightblue" stroke="midnightblue" points="176.46,-86.19 175.93,-75.6 169.75,-84.21 176.46,-86.19"/>
</g>
<!-- Node7 -->
<g id="node7" class="node">
<title>Node7</title>
<g id="a_node7"><a xlink:href="mwcc_8h.html" target="_top" xlink:title=" ">
<polygon fill="white" stroke="black" points="174.5,-112.5 174.5,-131.5 224.5,-131.5 224.5,-112.5 174.5,-112.5"/>
<text text-anchor="middle" x="199.5" y="-119.5" font-family="Helvetica,sans-Serif" font-size="10.00">mwcc.h</text>
</a>
</g>
</g>
<!-- Node3&#45;&gt;Node7 -->
<g id="edge8" class="edge">
<title>Node3&#45;&gt;Node7</title>
<path fill="none" stroke="midnightblue" d="M154.95,-173.98C162.83,-164.96 175.44,-150.52 185.24,-139.31"/>
<polygon fill="midnightblue" stroke="midnightblue" points="188.12,-141.34 192.06,-131.51 182.85,-136.74 188.12,-141.34"/>
</g>
<!-- Node8 -->
<g id="node8" class="node">
<title>Node8</title>
<g id="a_node8"><a xlink:href="OS_8h.html" target="_top" xlink:title=" ">
<polygon fill="white" stroke="black" points="242.5,-112.5 242.5,-131.5 294.5,-131.5 294.5,-112.5 242.5,-112.5"/>
<text text-anchor="middle" x="268.5" y="-119.5" font-family="Helvetica,sans-Serif" font-size="10.00">os/OS.h</text>
</a>
</g>
</g>
<!-- Node3&#45;&gt;Node8 -->
<g id="edge9" class="edge">
<title>Node3&#45;&gt;Node8</title>
<path fill="none" stroke="midnightblue" d="M164.84,-173.98C185.05,-164.03 218.69,-147.49 242.14,-135.96"/>
<polygon fill="midnightblue" stroke="midnightblue" points="243.77,-139.06 251.2,-131.51 240.68,-132.78 243.77,-139.06"/>
</g>
<!-- Node5&#45;&gt;Node4 -->
<g id="edge5" class="edge">
<title>Node5&#45;&gt;Node4</title>
<path fill="none" stroke="midnightblue" d="M123.41,-56.32C139.14,-47.74 163.44,-34.49 181.71,-24.52"/>
<polygon fill="midnightblue" stroke="midnightblue" points="183.53,-27.52 190.63,-19.65 180.18,-21.37 183.53,-27.52"/>
</g>
<!-- Node6&#45;&gt;Node4 -->
<g id="edge7" class="edge">
<title>Node6&#45;&gt;Node4</title>
<path fill="none" stroke="midnightblue" d="M183.12,-56.08C186.96,-48.69 192.52,-37.95 197.26,-28.81"/>
<polygon fill="midnightblue" stroke="midnightblue" points="200.47,-30.24 201.96,-19.75 194.25,-27.02 200.47,-30.24"/>
</g>
<!-- Node8&#45;&gt;Node4 -->
<g id="edge10" class="edge">
<title>Node8&#45;&gt;Node4</title>
<path fill="none" stroke="midnightblue" d="M263.63,-112.37C253.45,-94.3 229.71,-52.18 216.26,-28.31"/>
<polygon fill="midnightblue" stroke="midnightblue" points="219.3,-26.58 211.34,-19.59 213.2,-30.02 219.3,-26.58"/>
</g>
<!-- Node9 -->
<g id="node9" class="node">
<title>Node9</title>
<g id="a_node9"><a xlink:href="dvd_8h.html" target="_top" xlink:title=" ">
<polygon fill="white" stroke="black" points="263,-56.5 263,-75.5 322,-75.5 322,-56.5 263,-56.5"/>
<text text-anchor="middle" x="292.5" y="-63.5" font-family="Helvetica,sans-Serif" font-size="10.00">dvd/dvd.h</text>
</a>
</g>
</g>
<!-- Node8&#45;&gt;Node9 -->
<g id="edge11" class="edge">
<title>Node8&#45;&gt;Node9</title>
<path fill="none" stroke="midnightblue" d="M272.46,-112.08C275.71,-104.77 280.42,-94.18 284.45,-85.1"/>
<polygon fill="midnightblue" stroke="midnightblue" points="287.75,-86.31 288.61,-75.75 281.35,-83.47 287.75,-86.31"/>
</g>
<!-- Node9&#45;&gt;Node4 -->
<g id="edge12" class="edge">
<title>Node9&#45;&gt;Node4</title>
<path fill="none" stroke="midnightblue" d="M278.68,-56.32C265.27,-47.9 244.68,-34.97 228.91,-25.07"/>
<polygon fill="midnightblue" stroke="midnightblue" points="230.61,-22.01 220.28,-19.65 226.89,-27.94 230.61,-22.01"/>
</g>
<!-- Node10&#45;&gt;Node3 -->
<g id="edge14" class="edge">
<title>Node10&#45;&gt;Node3</title>
<path fill="none" stroke="midnightblue" d="M227.37,-235.4C210.26,-224.5 186.7,-209.48 169.6,-198.58"/>
<polygon fill="midnightblue" stroke="midnightblue" points="171.16,-195.43 160.85,-193.01 167.4,-201.33 171.16,-195.43"/>
</g>
<!-- Node11&#45;&gt;Node4 -->
<g id="edge16" class="edge">
<title>Node11&#45;&gt;Node4</title>
<path fill="none" stroke="midnightblue" d="M351.83,-168.13C355.14,-142.54 358.11,-88.69 331.5,-56 313.37,-33.74 283.32,-22.48 257.23,-16.8"/>
<polygon fill="midnightblue" stroke="midnightblue" points="257.57,-13.3 247.08,-14.82 256.22,-20.17 257.57,-13.3"/>
</g>
</g>
</svg>
