<?xml version="1.0" encoding="UTF-8" standalone="no"?>
<!DOCTYPE svg PUBLIC "-//W3C//DTD SVG 1.1//EN"
 "http://www.w3.org/Graphics/SVG/1.1/DTD/svg11.dtd">
<!-- Generated by graphviz version 2.44.0 ()
 -->
<!-- Title: include/Z2AudioLib/Z2SoundObject/Z2SoundObject.h Pages: 1 -->
<svg width="1662pt" height="296pt"
 viewBox="0.00 0.00 1662.31 296.00" xmlns="http://www.w3.org/2000/svg" xmlns:xlink="http://www.w3.org/1999/xlink">
<g id="graph0" class="graph" transform="scale(1 1) rotate(0) translate(4 292)">
<title>include/Z2AudioLib/Z2SoundObject/Z2SoundObject.h</title>
<polygon fill="white" stroke="transparent" points="-4,4 -4,-292 1658.31,-292 1658.31,4 -4,4"/>
<!-- Node1 -->
<g id="node1" class="node">
<title>Node1</title>
<g id="a_node1"><a xlink:title=" ">
<polygon fill="#bfbfbf" stroke="black" points="1132.31,-257.5 1132.31,-287.5 1297.31,-287.5 1297.31,-257.5 1132.31,-257.5"/>
<text text-anchor="start" x="1140.31" y="-275.5" font-family="Helvetica,sans-Serif" font-size="10.00">include/Z2AudioLib</text>
<text text-anchor="middle" x="1214.81" y="-264.5" font-family="Helvetica,sans-Serif" font-size="10.00">/Z2SoundObject/Z2SoundObject.h</text>
</a>
</g>
</g>
<!-- Node2 -->
<g id="node2" class="node">
<title>Node2</title>
<g id="a_node2"><a xlink:href="d__a__alink_8cpp.html" target="_top" xlink:title=" ">
<polygon fill="white" stroke="black" points="1259.31,-0.5 1259.31,-19.5 1378.31,-19.5 1378.31,-0.5 1259.31,-0.5"/>
<text text-anchor="middle" x="1318.81" y="-7.5" font-family="Helvetica,sans-Serif" font-size="10.00">src/d/d_a/d_a_alink.cpp</text>
</a>
</g>
</g>
<!-- Node1&#45;&gt;Node2 -->
<g id="edge1" class="edge">
<title>Node1&#45;&gt;Node2</title>
<path fill="none" stroke="midnightblue" d="M1121.97,-269.3C814.83,-260.43 -140.16,-219.53 17.81,-56 61.43,-10.84 1009.89,-10.18 1259.21,-10.79"/>
<polygon fill="midnightblue" stroke="midnightblue" points="1122.09,-272.8 1132.19,-269.59 1122.29,-265.8 1122.09,-272.8"/>
</g>
<!-- Node3 -->
<g id="node3" class="node">
<title>Node3</title>
<g id="a_node3"><a xlink:href="Z2Creature_8cpp.html" target="_top" xlink:title=" ">
<polygon fill="white" stroke="black" points="27.31,-62 27.31,-81 180.31,-81 180.31,-62 27.31,-62"/>
<text text-anchor="middle" x="103.81" y="-69" font-family="Helvetica,sans-Serif" font-size="10.00">libs/Z2AudioLib/Z2Creature.cpp</text>
</a>
</g>
</g>
<!-- Node1&#45;&gt;Node3 -->
<g id="edge2" class="edge">
<title>Node1&#45;&gt;Node3</title>
<path fill="none" stroke="midnightblue" d="M1122.04,-261.77C970.7,-245.07 661.69,-207.5 403.81,-154 301.82,-132.84 183.1,-97.26 130.84,-81.03"/>
<polygon fill="midnightblue" stroke="midnightblue" points="1121.89,-265.28 1132.22,-262.89 1122.66,-258.32 1121.89,-265.28"/>
</g>
<!-- Node4 -->
<g id="node4" class="node">
<title>Node4</title>
<g id="a_node4"><a xlink:href="Z2LinkMgr_8cpp.html" target="_top" xlink:title=" ">
<polygon fill="white" stroke="black" points="1326.81,-62 1326.81,-81 1478.81,-81 1478.81,-62 1326.81,-62"/>
<text text-anchor="middle" x="1402.81" y="-69" font-family="Helvetica,sans-Serif" font-size="10.00">libs/Z2AudioLib/Z2LinkMgr.cpp</text>
</a>
</g>
</g>
<!-- Node1&#45;&gt;Node4 -->
<g id="edge3" class="edge">
<title>Node1&#45;&gt;Node4</title>
<path fill="none" stroke="midnightblue" d="M1245.67,-251.67C1258.76,-242.8 1273.93,-231.9 1286.81,-221 1318.72,-194 1327.05,-186.92 1352.81,-154 1372.25,-129.16 1390.38,-96.3 1398.43,-81.01"/>
<polygon fill="midnightblue" stroke="midnightblue" points="1243.37,-248.99 1236.99,-257.46 1247.25,-254.82 1243.37,-248.99"/>
</g>
<!-- Node5 -->
<g id="node5" class="node">
<title>Node5</title>
<g id="a_node5"><a xlink:href="Z2SoundObject_8cpp.html" target="_top" xlink:title=" ">
<polygon fill="white" stroke="black" points="1422.31,-196 1422.31,-215 1595.31,-215 1595.31,-196 1422.31,-196"/>
<text text-anchor="middle" x="1508.81" y="-203" font-family="Helvetica,sans-Serif" font-size="10.00">libs/Z2AudioLib/Z2SoundObject.cpp</text>
</a>
</g>
</g>
<!-- Node1&#45;&gt;Node5 -->
<g id="edge4" class="edge">
<title>Node1&#45;&gt;Node5</title>
<path fill="none" stroke="midnightblue" d="M1288.05,-255.31C1345.81,-242.54 1424.08,-225.23 1470.24,-215.03"/>
<polygon fill="midnightblue" stroke="midnightblue" points="1287.25,-251.9 1278.24,-257.48 1288.76,-258.73 1287.25,-251.9"/>
</g>
<!-- Node6 -->
<g id="node6" class="node">
<title>Node6</title>
<g id="a_node6"><a xlink:href="Z2Creature_8h.html" target="_top" xlink:title=" ">
<polygon fill="white" stroke="black" points="1151.81,-190.5 1151.81,-220.5 1277.81,-220.5 1277.81,-190.5 1151.81,-190.5"/>
<text text-anchor="start" x="1159.81" y="-208.5" font-family="Helvetica,sans-Serif" font-size="10.00">include/Z2AudioLib</text>
<text text-anchor="middle" x="1214.81" y="-197.5" font-family="Helvetica,sans-Serif" font-size="10.00">/Z2Creature/Z2Creature.h</text>
</a>
</g>
</g>
<!-- Node1&#45;&gt;Node6 -->
<g id="edge5" class="edge">
<title>Node1&#45;&gt;Node6</title>
<path fill="none" stroke="midnightblue" d="M1214.81,-247.11C1214.81,-238.15 1214.81,-228.32 1214.81,-220.58"/>
<polygon fill="midnightblue" stroke="midnightblue" points="1211.31,-247.4 1214.81,-257.4 1218.31,-247.4 1211.31,-247.4"/>
</g>
<!-- Node6&#45;&gt;Node2 -->
<g id="edge7" class="edge">
<title>Node6&#45;&gt;Node2</title>
<path fill="none" stroke="midnightblue" d="M1198.91,-181.61C1194.03,-173.3 1189.29,-163.59 1186.81,-154 1180.94,-131.31 1191.82,-58.54 1193.81,-56 1209.6,-35.85 1235.2,-24.71 1259.13,-18.56"/>
<polygon fill="midnightblue" stroke="midnightblue" points="1196.09,-183.7 1204.37,-190.31 1202.02,-179.98 1196.09,-183.7"/>
</g>
<!-- Node6&#45;&gt;Node3 -->
<g id="edge8" class="edge">
<title>Node6&#45;&gt;Node3</title>
<path fill="none" stroke="midnightblue" d="M1141.66,-199.83C1030,-192.35 810.41,-176.21 624.81,-154 430.58,-130.76 382.93,-118.15 189.81,-87 178.15,-85.12 165.61,-83.04 153.82,-81.05"/>
<polygon fill="midnightblue" stroke="midnightblue" points="1141.59,-203.33 1151.8,-200.51 1142.06,-196.35 1141.59,-203.33"/>
</g>
<!-- Node7 -->
<g id="node7" class="node">
<title>Node7</title>
<g id="a_node7"><a xlink:href="d__a__horse__static_8cpp.html" target="_top" xlink:title=" ">
<polygon fill="white" stroke="black" points="1203.31,-56.5 1203.31,-86.5 1308.31,-86.5 1308.31,-56.5 1203.31,-56.5"/>
<text text-anchor="start" x="1211.31" y="-74.5" font-family="Helvetica,sans-Serif" font-size="10.00">src/d/d_a/d_a_horse</text>
<text text-anchor="middle" x="1255.81" y="-63.5" font-family="Helvetica,sans-Serif" font-size="10.00">_static.cpp</text>
</a>
</g>
</g>
<!-- Node6&#45;&gt;Node7 -->
<g id="edge6" class="edge">
<title>Node6&#45;&gt;Node7</title>
<path fill="none" stroke="midnightblue" d="M1287.52,-189.69C1306.37,-182.2 1324.53,-170.94 1335.81,-154 1343.45,-142.53 1342.46,-135.07 1335.81,-123 1326.69,-106.46 1309.62,-94.59 1293.59,-86.53"/>
<polygon fill="midnightblue" stroke="midnightblue" points="1286.13,-186.47 1277.93,-193.17 1288.52,-193.05 1286.13,-186.47"/>
</g>
<!-- Node8 -->
<g id="node8" class="node">
<title>Node8</title>
<g id="a_node8"><a xlink:href="d__a__horse__static_8h.html" target="_top" xlink:title=" ">
<polygon fill="white" stroke="black" points="1196.31,-123.5 1196.31,-153.5 1327.31,-153.5 1327.31,-123.5 1196.31,-123.5"/>
<text text-anchor="start" x="1204.31" y="-141.5" font-family="Helvetica,sans-Serif" font-size="10.00">include/d/d_a/d_a_horse</text>
<text text-anchor="middle" x="1261.81" y="-130.5" font-family="Helvetica,sans-Serif" font-size="10.00">_static/d_a_horse_static.h</text>
</a>
</g>
</g>
<!-- Node6&#45;&gt;Node8 -->
<g id="edge9" class="edge">
<title>Node6&#45;&gt;Node8</title>
<path fill="none" stroke="midnightblue" d="M1230.97,-182.16C1237.82,-172.68 1245.6,-161.92 1251.63,-153.58"/>
<polygon fill="midnightblue" stroke="midnightblue" points="1228.03,-180.24 1225.01,-190.4 1233.71,-184.34 1228.03,-180.24"/>
</g>
<!-- Node9 -->
<g id="node9" class="node">
<title>Node9</title>
<g id="a_node9"><a xlink:href="Z2LinkMgr_8h.html" target="_top" xlink:title=" ">
<polygon fill="white" stroke="black" points="1436.31,-123.5 1436.31,-153.5 1559.31,-153.5 1559.31,-123.5 1436.31,-123.5"/>
<text text-anchor="start" x="1444.31" y="-141.5" font-family="Helvetica,sans-Serif" font-size="10.00">include/Z2AudioLib</text>
<text text-anchor="middle" x="1497.81" y="-130.5" font-family="Helvetica,sans-Serif" font-size="10.00">/Z2LinkMgr/Z2LinkMgr.h</text>
</a>
</g>
</g>
<!-- Node6&#45;&gt;Node9 -->
<g id="edge11" class="edge">
<title>Node6&#45;&gt;Node9</title>
<path fill="none" stroke="midnightblue" d="M1285.84,-188.19C1332.19,-177.54 1392.08,-163.78 1436.38,-153.61"/>
<polygon fill="midnightblue" stroke="midnightblue" points="1284.83,-184.83 1275.87,-190.48 1286.4,-191.65 1284.83,-184.83"/>
</g>
<!-- Node12 -->
<g id="node12" class="node">
<title>Node12</title>
<g id="a_node12"><a xlink:href="Z2SoundObjMgr_8h.html" target="_top" xlink:title=" ">
<polygon fill="white" stroke="black" points="634.31,-123.5 634.31,-153.5 805.31,-153.5 805.31,-123.5 634.31,-123.5"/>
<text text-anchor="start" x="642.31" y="-141.5" font-family="Helvetica,sans-Serif" font-size="10.00">include/Z2AudioLib</text>
<text text-anchor="middle" x="719.81" y="-130.5" font-family="Helvetica,sans-Serif" font-size="10.00">/Z2SoundObjMgr/Z2SoundObjMgr.h</text>
</a>
</g>
</g>
<!-- Node6&#45;&gt;Node12 -->
<g id="edge17" class="edge">
<title>Node6&#45;&gt;Node12</title>
<path fill="none" stroke="midnightblue" d="M1141.53,-194.88C1051.89,-183.11 900.37,-163.21 805.44,-150.74"/>
<polygon fill="midnightblue" stroke="midnightblue" points="1141.25,-198.37 1151.62,-196.2 1142.16,-191.43 1141.25,-198.37"/>
</g>
<!-- Node8&#45;&gt;Node7 -->
<g id="edge10" class="edge">
<title>Node8&#45;&gt;Node7</title>
<path fill="none" stroke="midnightblue" d="M1259.59,-113.4C1258.75,-104.37 1257.83,-94.41 1257.11,-86.58"/>
<polygon fill="midnightblue" stroke="midnightblue" points="1256.11,-113.76 1260.51,-123.4 1263.08,-113.12 1256.11,-113.76"/>
</g>
<!-- Node9&#45;&gt;Node2 -->
<g id="edge12" class="edge">
<title>Node9&#45;&gt;Node2</title>
<path fill="none" stroke="midnightblue" d="M1501.49,-113.22C1502.77,-95.31 1501.29,-71.48 1487.81,-56 1473.26,-39.28 1420.34,-27 1377.54,-19.53"/>
<polygon fill="midnightblue" stroke="midnightblue" points="1498,-112.91 1500.45,-123.22 1504.96,-113.64 1498,-112.91"/>
</g>
<!-- Node9&#45;&gt;Node4 -->
<g id="edge13" class="edge">
<title>Node9&#45;&gt;Node4</title>
<path fill="none" stroke="midnightblue" d="M1468.79,-117.64C1450.86,-105.37 1428.77,-90.26 1415.25,-81.01"/>
<polygon fill="midnightblue" stroke="midnightblue" points="1466.97,-120.64 1477.2,-123.4 1470.92,-114.86 1466.97,-120.64"/>
</g>
<!-- Node10 -->
<g id="node10" class="node">
<title>Node10</title>
<g id="a_node10"><a xlink:href="d__a__alink_8h.html" target="_top" xlink:title=" ">
<polygon fill="white" stroke="black" points="1535.31,-56.5 1535.31,-86.5 1654.31,-86.5 1654.31,-56.5 1535.31,-56.5"/>
<text text-anchor="start" x="1543.31" y="-74.5" font-family="Helvetica,sans-Serif" font-size="10.00">include/d/d_a/d_a_alink</text>
<text text-anchor="middle" x="1594.81" y="-63.5" font-family="Helvetica,sans-Serif" font-size="10.00">/d_a_alink.h</text>
</a>
</g>
</g>
<!-- Node9&#45;&gt;Node10 -->
<g id="edge14" class="edge">
<title>Node9&#45;&gt;Node10</title>
<path fill="none" stroke="midnightblue" d="M1527.31,-117.73C1542.32,-107.68 1560.21,-95.68 1573.81,-86.58"/>
<polygon fill="midnightblue" stroke="midnightblue" points="1525.22,-114.92 1518.86,-123.4 1529.12,-120.74 1525.22,-114.92"/>
</g>
<!-- Node10&#45;&gt;Node2 -->
<g id="edge16" class="edge">
<title>Node10&#45;&gt;Node2</title>
<path fill="none" stroke="midnightblue" d="M1525.29,-55.51C1472.47,-44.13 1401.73,-28.87 1358.26,-19.5"/>
<polygon fill="midnightblue" stroke="midnightblue" points="1524.75,-58.98 1535.26,-57.66 1526.23,-52.13 1524.75,-58.98"/>
</g>
<!-- Node11 -->
<g id="node11" class="node">
<title>Node11</title>
<g id="a_node11"><a xlink:href="d__attention_8cpp.html" target="_top" xlink:title=" ">
<polygon fill="white" stroke="black" points="1541.31,-0.5 1541.31,-19.5 1648.31,-19.5 1648.31,-0.5 1541.31,-0.5"/>
<text text-anchor="middle" x="1594.81" y="-7.5" font-family="Helvetica,sans-Serif" font-size="10.00">src/d/d_attention.cpp</text>
</a>
</g>
</g>
<!-- Node10&#45;&gt;Node11 -->
<g id="edge15" class="edge">
<title>Node10&#45;&gt;Node11</title>
<path fill="none" stroke="midnightblue" d="M1594.81,-46.29C1594.81,-36.86 1594.81,-26.65 1594.81,-19.66"/>
<polygon fill="midnightblue" stroke="midnightblue" points="1591.31,-46.4 1594.81,-56.4 1598.31,-46.4 1591.31,-46.4"/>
</g>
<!-- Node12&#45;&gt;Node3 -->
<g id="edge19" class="edge">
<title>Node12&#45;&gt;Node3</title>
<path fill="none" stroke="midnightblue" d="M624.16,-130.47C517.85,-122.18 341.17,-106.94 189.81,-87 177.05,-85.32 163.28,-83.16 150.59,-81.02"/>
<polygon fill="midnightblue" stroke="midnightblue" points="623.99,-133.97 634.23,-131.25 624.53,-126.99 623.99,-133.97"/>
</g>
<!-- Node12&#45;&gt;Node4 -->
<g id="edge20" class="edge">
<title>Node12&#45;&gt;Node4</title>
<path fill="none" stroke="midnightblue" d="M815.66,-131.84C933.81,-124.3 1140.58,-109.27 1316.81,-87 1329.73,-85.37 1343.68,-83.2 1356.5,-81.03"/>
<polygon fill="midnightblue" stroke="midnightblue" points="815.32,-128.36 805.56,-132.48 815.76,-135.34 815.32,-128.36"/>
</g>
<!-- Node13 -->
<g id="node13" class="node">
<title>Node13</title>
<g id="a_node13"><a xlink:href="Z2AudioMgr_8cpp.html" target="_top" xlink:title=" ">
<polygon fill="white" stroke="black" points="808.81,-62 808.81,-81 966.81,-81 966.81,-62 808.81,-62"/>
<text text-anchor="middle" x="887.81" y="-69" font-family="Helvetica,sans-Serif" font-size="10.00">libs/Z2AudioLib/Z2AudioMgr.cpp</text>
</a>
</g>
</g>
<!-- Node12&#45;&gt;Node13 -->
<g id="edge18" class="edge">
<title>Node12&#45;&gt;Node13</title>
<path fill="none" stroke="midnightblue" d="M765.6,-119.78C798.18,-107.18 840.49,-90.81 865.82,-81.01"/>
<polygon fill="midnightblue" stroke="midnightblue" points="764.33,-116.52 756.27,-123.4 766.85,-123.05 764.33,-116.52"/>
</g>
<!-- Node14 -->
<g id="node14" class="node">
<title>Node14</title>
<g id="a_node14"><a xlink:href="Z2SceneMgr_8cpp.html" target="_top" xlink:title=" ">
<polygon fill="white" stroke="black" points="985.31,-62 985.31,-81 1146.31,-81 1146.31,-62 985.31,-62"/>
<text text-anchor="middle" x="1065.81" y="-69" font-family="Helvetica,sans-Serif" font-size="10.00">libs/Z2AudioLib/Z2SceneMgr.cpp</text>
</a>
</g>
</g>
<!-- Node12&#45;&gt;Node14 -->
<g id="edge21" class="edge">
<title>Node12&#45;&gt;Node14</title>
<path fill="none" stroke="midnightblue" d="M804.33,-121.62C872.46,-108.82 965.65,-91.32 1020.41,-81.03"/>
<polygon fill="midnightblue" stroke="midnightblue" points="803.64,-118.19 794.46,-123.48 804.94,-125.07 803.64,-118.19"/>
</g>
<!-- Node15 -->
<g id="node15" class="node">
<title>Node15</title>
<g id="a_node15"><a xlink:href="Z2SeMgr_8cpp.html" target="_top" xlink:title=" ">
<polygon fill="white" stroke="black" points="317.31,-62 317.31,-81 462.31,-81 462.31,-62 317.31,-62"/>
<text text-anchor="middle" x="389.81" y="-69" font-family="Helvetica,sans-Serif" font-size="10.00">libs/Z2AudioLib/Z2SeMgr.cpp</text>
</a>
</g>
</g>
<!-- Node12&#45;&gt;Node15 -->
<g id="edge22" class="edge">
<title>Node12&#45;&gt;Node15</title>
<path fill="none" stroke="midnightblue" d="M638.41,-121.47C573.5,-108.68 485.13,-91.27 433.11,-81.03"/>
<polygon fill="midnightblue" stroke="midnightblue" points="638.13,-124.98 648.61,-123.48 639.48,-118.11 638.13,-124.98"/>
</g>
<!-- Node16 -->
<g id="node16" class="node">
<title>Node16</title>
<g id="a_node16"><a xlink:href="Z2SeqMgr_8cpp.html" target="_top" xlink:title=" ">
<polygon fill="white" stroke="black" points="480.81,-62 480.81,-81 630.81,-81 630.81,-62 480.81,-62"/>
<text text-anchor="middle" x="555.81" y="-69" font-family="Helvetica,sans-Serif" font-size="10.00">libs/Z2AudioLib/Z2SeqMgr.cpp</text>
</a>
</g>
</g>
<!-- Node12&#45;&gt;Node16 -->
<g id="edge23" class="edge">
<title>Node12&#45;&gt;Node16</title>
<path fill="none" stroke="midnightblue" d="M674.7,-119.62C642.96,-107.04 601.9,-90.77 577.28,-81.01"/>
<polygon fill="midnightblue" stroke="midnightblue" points="673.64,-122.97 684.23,-123.4 676.22,-116.46 673.64,-122.97"/>
</g>
<!-- Node17 -->
<g id="node17" class="node">
<title>Node17</title>
<g id="a_node17"><a xlink:href="Z2SoundObjMgr_8cpp.html" target="_top" xlink:title=" ">
<polygon fill="white" stroke="black" points="649.31,-56.5 649.31,-86.5 790.31,-86.5 790.31,-56.5 649.31,-56.5"/>
<text text-anchor="start" x="657.31" y="-74.5" font-family="Helvetica,sans-Serif" font-size="10.00">libs/Z2AudioLib/Z2SoundObj</text>
<text text-anchor="middle" x="719.81" y="-63.5" font-family="Helvetica,sans-Serif" font-size="10.00">Mgr.cpp</text>
</a>
</g>
</g>
<!-- Node12&#45;&gt;Node17 -->
<g id="edge24" class="edge">
<title>Node12&#45;&gt;Node17</title>
<path fill="none" stroke="midnightblue" d="M719.81,-113.11C719.81,-104.15 719.81,-94.32 719.81,-86.58"/>
<polygon fill="midnightblue" stroke="midnightblue" points="716.31,-113.4 719.81,-123.4 723.31,-113.4 716.31,-113.4"/>
</g>
<!-- Node18 -->
<g id="node18" class="node">
<title>Node18</title>
<g id="a_node18"><a xlink:href="Z2AudioLib_8h.html" target="_top" xlink:title=" ">
<polygon fill="white" stroke="black" points="198.81,-56.5 198.81,-86.5 298.81,-86.5 298.81,-56.5 198.81,-56.5"/>
<text text-anchor="start" x="206.81" y="-74.5" font-family="Helvetica,sans-Serif" font-size="10.00">include/Z2AudioLib</text>
<text text-anchor="middle" x="248.81" y="-63.5" font-family="Helvetica,sans-Serif" font-size="10.00">/Z2AudioLib.h</text>
</a>
</g>
</g>
<!-- Node12&#45;&gt;Node18 -->
<g id="edge25" class="edge">
<title>Node12&#45;&gt;Node18</title>
<path fill="none" stroke="midnightblue" d="M624.13,-129.03C540.31,-120.83 415.43,-106.75 307.81,-87 304.91,-86.47 301.93,-85.88 298.94,-85.25"/>
<polygon fill="midnightblue" stroke="midnightblue" points="623.85,-132.52 634.14,-130 624.53,-125.55 623.85,-132.52"/>
</g>
<!-- Node19 -->
<g id="node19" class="node">
<title>Node19</title>
<g id="a_node19"><a xlink:href="m__Do__audio_8cpp.html" target="_top" xlink:title=" ">
<polygon fill="white" stroke="black" points="181.81,-0.5 181.81,-19.5 315.81,-19.5 315.81,-0.5 181.81,-0.5"/>
<text text-anchor="middle" x="248.81" y="-7.5" font-family="Helvetica,sans-Serif" font-size="10.00">src/m_Do/m_Do_audio.cpp</text>
</a>
</g>
</g>
<!-- Node18&#45;&gt;Node19 -->
<g id="edge26" class="edge">
<title>Node18&#45;&gt;Node19</title>
<path fill="none" stroke="midnightblue" d="M248.81,-46.29C248.81,-36.86 248.81,-26.65 248.81,-19.66"/>
<polygon fill="midnightblue" stroke="midnightblue" points="245.31,-46.4 248.81,-56.4 252.31,-46.4 245.31,-46.4"/>
</g>
</g>
</svg>
