<?xml version="1.0" encoding="UTF-8" standalone="no"?>
<!DOCTYPE svg PUBLIC "-//W3C//DTD SVG 1.1//EN"
 "http://www.w3.org/Graphics/SVG/1.1/DTD/svg11.dtd">
<!-- Generated by graphviz version 2.44.0 ()
 -->
<!-- Title: include/Z2AudioLib/Z2SoundHandles/Z2SoundHandles.h Pages: 1 -->
<!--zoomable 363 -->
<svg id="main" version="1.1" xmlns="http://www.w3.org/2000/svg" xmlns:xlink="http://www.w3.org/1999/xlink" xml:space="preserve" onload="init(evt)">
<style type="text/css"><![CDATA[
.edge:hover path { stroke: red; }
.edge:hover polygon { stroke: red; fill: red; }
]]></style>
<script type="text/javascript"><![CDATA[
var edges = document.getElementsByTagName('g');
if (edges && edges.length) {
  for (var i=0;i<edges.length;i++) {
    if (edges[i].id.substr(0,4)=='edge') {
      edges[i].setAttribute('class','edge');
    }
  }
}
]]></script>
        <defs>
                <circle id="rim" cx="0" cy="0" r="7"/>
                <circle id="rim2" cx="0" cy="0" r="3.5"/>
                <g id="zoomPlus">
                        <use xlink:href="#rim" fill="#404040">
                                <set attributeName="fill" to="#808080" begin="zoomplus.mouseover" end="zoomplus.mouseout"/>
                        </use>
                        <path d="M-4,0h8M0,-4v8" fill="none" stroke="white" stroke-width="1.5" pointer-events="none"/>
                </g>
                <g id="zoomMin">
                        <use xlink:href="#rim" fill="#404040">
                                <set attributeName="fill" to="#808080" begin="zoomminus.mouseover" end="zoomminus.mouseout"/>
                        </use>
                        <path d="M-4,0h8" fill="none" stroke="white" stroke-width="1.5" pointer-events="none"/>
                </g>
                <g id="dirArrow">
                        <path fill="none" stroke="white" stroke-width="1.5" d="M0,-3.0v7 M-2.5,-0.5L0,-3.0L2.5,-0.5"/>
                </g>
               <g id="resetDef">
                       <use xlink:href="#rim2" fill="#404040">
                               <set attributeName="fill" to="#808080" begin="reset.mouseover" end="reset.mouseout"/>
                       </use>
               </g>
        </defs>

<script type="text/javascript">
var viewWidth = 1688;
var viewHeight = 363;
var sectionId = 'dynsection-1';
</script>
<script xlink:href="svgpan.js"/>
<svg id="graph" class="graph">
<g id="viewport">
<title>include/Z2AudioLib/Z2SoundHandles/Z2SoundHandles.h</title>
<polygon fill="white" stroke="transparent" points="-4,4 -4,-359 1684,-359 1684,4 -4,4"/>
<!-- Node1 -->
<g id="node1" class="node">
<title>Node1</title>
<g id="a_node1"><a xlink:title=" ">
<polygon fill="#bfbfbf" stroke="black" points="104,-324.5 104,-354.5 284,-354.5 284,-324.5 104,-324.5"/>
<text text-anchor="start" x="112" y="-342.5" font-family="Helvetica,sans-Serif" font-size="10.00">include/Z2AudioLib</text>
<text text-anchor="middle" x="194" y="-331.5" font-family="Helvetica,sans-Serif" font-size="10.00">/Z2SoundHandles/Z2SoundHandles.h</text>
</a>
</g>
</g>
<!-- Node2 -->
<g id="node2" class="node">
<title>Node2</title>
<g id="a_node2"><a xlink:href="Z2LinkMgr_8cpp.html" target="_top" xlink:title=" ">
<polygon fill="white" stroke="black" points="0,-62 0,-81 152,-81 152,-62 0,-62"/>
<text text-anchor="middle" x="76" y="-69" font-family="Helvetica,sans-Serif" font-size="10.00">libs/Z2AudioLib/Z2LinkMgr.cpp</text>
</a>
</g>
</g>
<!-- Node1&#45;&gt;Node2 -->
<g id="edge1" class="edge">
<title>Node1&#45;&gt;Node2</title>
<path fill="none" stroke="midnightblue" d="M144.44,-320.4C103.84,-302.38 49.96,-270.24 30,-221 9.01,-169.22 52.04,-104.09 69.28,-81.05"/>
<polygon fill="midnightblue" stroke="midnightblue" points="143.09,-323.63 153.66,-324.35 145.85,-317.19 143.09,-323.63"/>
</g>
<!-- Node3 -->
<g id="node3" class="node">
<title>Node3</title>
<g id="a_node3"><a xlink:href="Z2SoundHandles_8cpp.html" target="_top" xlink:title=" ">
<polygon fill="white" stroke="black" points="104,-263 104,-282 284,-282 284,-263 104,-263"/>
<text text-anchor="middle" x="194" y="-270" font-family="Helvetica,sans-Serif" font-size="10.00">libs/Z2AudioLib/Z2SoundHandles.cpp</text>
</a>
</g>
</g>
<!-- Node1&#45;&gt;Node3 -->
<g id="edge2" class="edge">
<title>Node1&#45;&gt;Node3</title>
<path fill="none" stroke="midnightblue" d="M194,-314.25C194,-303.02 194,-290.38 194,-282.19"/>
<polygon fill="midnightblue" stroke="midnightblue" points="190.5,-314.4 194,-324.4 197.5,-314.4 190.5,-314.4"/>
</g>
<!-- Node4 -->
<g id="node4" class="node">
<title>Node4</title>
<g id="a_node4"><a xlink:href="Z2SoundObject_8h.html" target="_top" xlink:title=" ">
<polygon fill="white" stroke="black" points="334.5,-257.5 334.5,-287.5 499.5,-287.5 499.5,-257.5 334.5,-257.5"/>
<text text-anchor="start" x="342.5" y="-275.5" font-family="Helvetica,sans-Serif" font-size="10.00">include/Z2AudioLib</text>
<text text-anchor="middle" x="417" y="-264.5" font-family="Helvetica,sans-Serif" font-size="10.00">/Z2SoundObject/Z2SoundObject.h</text>
</a>
</g>
</g>
<!-- Node1&#45;&gt;Node4 -->
<g id="edge3" class="edge">
<title>Node1&#45;&gt;Node4</title>
<path fill="none" stroke="midnightblue" d="M252.05,-321.58C288.27,-311.02 334.35,-297.59 368.59,-287.61"/>
<polygon fill="midnightblue" stroke="midnightblue" points="250.73,-318.32 242.11,-324.48 252.69,-325.04 250.73,-318.32"/>
</g>
<!-- Node4&#45;&gt;Node2 -->
<g id="edge6" class="edge">
<title>Node4&#45;&gt;Node2</title>
<path fill="none" stroke="midnightblue" d="M378.97,-253.03C334.18,-230.89 257.89,-192.01 195,-154 154.28,-129.39 108.45,-96.42 87.53,-81.05"/>
<polygon fill="midnightblue" stroke="midnightblue" points="377.52,-256.21 388.04,-257.49 380.61,-249.93 377.52,-256.21"/>
</g>
<!-- Node5 -->
<g id="node5" class="node">
<title>Node5</title>
<g id="a_node5"><a xlink:href="d__a__alink_8cpp.html" target="_top" xlink:title=" ">
<polygon fill="white" stroke="black" points="296.5,-0.5 296.5,-19.5 415.5,-19.5 415.5,-0.5 296.5,-0.5"/>
<text text-anchor="middle" x="356" y="-7.5" font-family="Helvetica,sans-Serif" font-size="10.00">src/d/d_a/d_a_alink.cpp</text>
</a>
</g>
</g>
<!-- Node4&#45;&gt;Node5 -->
<g id="edge4" class="edge">
<title>Node4&#45;&gt;Node5</title>
<path fill="none" stroke="midnightblue" d="M509.84,-268.02C799.64,-255.54 1659.87,-205.56 1516,-56 1477.55,-16.03 647.56,-11.53 415.69,-11.05"/>
<polygon fill="midnightblue" stroke="midnightblue" points="509.61,-264.52 499.77,-268.44 509.91,-271.52 509.61,-264.52"/>
</g>
<!-- Node6 -->
<g id="node6" class="node">
<title>Node6</title>
<g id="a_node6"><a xlink:href="Z2Creature_8cpp.html" target="_top" xlink:title=" ">
<polygon fill="white" stroke="black" points="507.5,-62 507.5,-81 660.5,-81 660.5,-62 507.5,-62"/>
<text text-anchor="middle" x="584" y="-69" font-family="Helvetica,sans-Serif" font-size="10.00">libs/Z2AudioLib/Z2Creature.cpp</text>
</a>
</g>
</g>
<!-- Node4&#45;&gt;Node6 -->
<g id="edge5" class="edge">
<title>Node4&#45;&gt;Node6</title>
<path fill="none" stroke="midnightblue" d="M468.63,-253.45C486.83,-245.41 506.58,-234.64 522,-221 548.5,-197.56 551.23,-186.59 565,-154 575.63,-128.84 580.89,-96.68 582.94,-81.37"/>
<polygon fill="midnightblue" stroke="midnightblue" points="467.13,-250.28 459.28,-257.4 469.85,-256.73 467.13,-250.28"/>
</g>
<!-- Node7 -->
<g id="node7" class="node">
<title>Node7</title>
<g id="a_node7"><a xlink:href="Z2SoundObject_8cpp.html" target="_top" xlink:title=" ">
<polygon fill="white" stroke="black" points="39.5,-196 39.5,-215 212.5,-215 212.5,-196 39.5,-196"/>
<text text-anchor="middle" x="126" y="-203" font-family="Helvetica,sans-Serif" font-size="10.00">libs/Z2AudioLib/Z2SoundObject.cpp</text>
</a>
</g>
</g>
<!-- Node4&#45;&gt;Node7 -->
<g id="edge7" class="edge">
<title>Node4&#45;&gt;Node7</title>
<path fill="none" stroke="midnightblue" d="M344.15,-255.23C287.02,-242.47 209.77,-225.21 164.18,-215.03"/>
<polygon fill="midnightblue" stroke="midnightblue" points="343.69,-258.71 354.22,-257.48 345.22,-251.88 343.69,-258.71"/>
</g>
<!-- Node8 -->
<g id="node8" class="node">
<title>Node8</title>
<g id="a_node8"><a xlink:href="Z2Creature_8h.html" target="_top" xlink:title=" ">
<polygon fill="white" stroke="black" points="387,-190.5 387,-220.5 513,-220.5 513,-190.5 387,-190.5"/>
<text text-anchor="start" x="395" y="-208.5" font-family="Helvetica,sans-Serif" font-size="10.00">include/Z2AudioLib</text>
<text text-anchor="middle" x="450" y="-197.5" font-family="Helvetica,sans-Serif" font-size="10.00">/Z2Creature/Z2Creature.h</text>
</a>
</g>
</g>
<!-- Node4&#45;&gt;Node8 -->
<g id="edge8" class="edge">
<title>Node4&#45;&gt;Node8</title>
<path fill="none" stroke="midnightblue" d="M428.79,-248.28C433.49,-239.02 438.75,-228.66 442.85,-220.58"/>
<polygon fill="midnightblue" stroke="midnightblue" points="425.57,-246.89 424.16,-257.4 431.81,-250.06 425.57,-246.89"/>
</g>
<!-- Node8&#45;&gt;Node5 -->
<g id="edge10" class="edge">
<title>Node8&#45;&gt;Node5</title>
<path fill="none" stroke="midnightblue" d="M409.22,-185.21C396.64,-177.28 384,-166.88 376,-154 348.5,-109.7 352.49,-42.98 354.95,-19.52"/>
<polygon fill="midnightblue" stroke="midnightblue" points="407.48,-188.25 417.87,-190.31 411.03,-182.22 407.48,-188.25"/>
</g>
<!-- Node8&#45;&gt;Node6 -->
<g id="edge11" class="edge">
<title>Node8&#45;&gt;Node6</title>
<path fill="none" stroke="midnightblue" d="M495.18,-185.96C511.05,-177.86 528.11,-167.17 541,-154 562.49,-132.05 575.93,-97.18 581.31,-81.12"/>
<polygon fill="midnightblue" stroke="midnightblue" points="493.48,-182.89 486.02,-190.42 496.54,-189.19 493.48,-182.89"/>
</g>
<!-- Node9 -->
<g id="node9" class="node">
<title>Node9</title>
<g id="a_node9"><a xlink:href="d__a__horse__static_8cpp.html" target="_top" xlink:title=" ">
<polygon fill="white" stroke="black" points="384.5,-56.5 384.5,-86.5 489.5,-86.5 489.5,-56.5 384.5,-56.5"/>
<text text-anchor="start" x="392.5" y="-74.5" font-family="Helvetica,sans-Serif" font-size="10.00">src/d/d_a/d_a_horse</text>
<text text-anchor="middle" x="437" y="-63.5" font-family="Helvetica,sans-Serif" font-size="10.00">_static.cpp</text>
</a>
</g>
</g>
<!-- Node8&#45;&gt;Node9 -->
<g id="edge9" class="edge">
<title>Node8&#45;&gt;Node9</title>
<path fill="none" stroke="midnightblue" d="M493.7,-185.11C506.08,-177.33 518.06,-167.05 525,-154 531.47,-141.84 531.9,-134.92 525,-123 515.29,-106.23 497.68,-94.55 480.75,-86.68"/>
<polygon fill="midnightblue" stroke="midnightblue" points="491.58,-182.3 484.69,-190.34 495.1,-188.35 491.58,-182.3"/>
</g>
<!-- Node10 -->
<g id="node10" class="node">
<title>Node10</title>
<g id="a_node10"><a xlink:href="d__a__horse__static_8h.html" target="_top" xlink:title=" ">
<polygon fill="white" stroke="black" points="384.5,-123.5 384.5,-153.5 515.5,-153.5 515.5,-123.5 384.5,-123.5"/>
<text text-anchor="start" x="392.5" y="-141.5" font-family="Helvetica,sans-Serif" font-size="10.00">include/d/d_a/d_a_horse</text>
<text text-anchor="middle" x="450" y="-130.5" font-family="Helvetica,sans-Serif" font-size="10.00">_static/d_a_horse_static.h</text>
</a>
</g>
</g>
<!-- Node8&#45;&gt;Node10 -->
<g id="edge12" class="edge">
<title>Node8&#45;&gt;Node10</title>
<path fill="none" stroke="midnightblue" d="M450,-180.11C450,-171.15 450,-161.32 450,-153.58"/>
<polygon fill="midnightblue" stroke="midnightblue" points="446.5,-180.4 450,-190.4 453.5,-180.4 446.5,-180.4"/>
</g>
<!-- Node11 -->
<g id="node11" class="node">
<title>Node11</title>
<g id="a_node11"><a xlink:href="Z2LinkMgr_8h.html" target="_top" xlink:title=" ">
<polygon fill="white" stroke="black" points="204.5,-123.5 204.5,-153.5 327.5,-153.5 327.5,-123.5 204.5,-123.5"/>
<text text-anchor="start" x="212.5" y="-141.5" font-family="Helvetica,sans-Serif" font-size="10.00">include/Z2AudioLib</text>
<text text-anchor="middle" x="266" y="-130.5" font-family="Helvetica,sans-Serif" font-size="10.00">/Z2LinkMgr/Z2LinkMgr.h</text>
</a>
</g>
</g>
<!-- Node8&#45;&gt;Node11 -->
<g id="edge14" class="edge">
<title>Node8&#45;&gt;Node11</title>
<path fill="none" stroke="midnightblue" d="M400.33,-186.96C370.7,-176.48 333.56,-163.37 305.85,-153.58"/>
<polygon fill="midnightblue" stroke="midnightblue" points="399.48,-190.37 410.07,-190.4 401.81,-183.76 399.48,-190.37"/>
</g>
<!-- Node14 -->
<g id="node14" class="node">
<title>Node14</title>
<g id="a_node14"><a xlink:href="Z2SoundObjMgr_8h.html" target="_top" xlink:title=" ">
<polygon fill="white" stroke="black" points="831.5,-123.5 831.5,-153.5 1002.5,-153.5 1002.5,-123.5 831.5,-123.5"/>
<text text-anchor="start" x="839.5" y="-141.5" font-family="Helvetica,sans-Serif" font-size="10.00">include/Z2AudioLib</text>
<text text-anchor="middle" x="917" y="-130.5" font-family="Helvetica,sans-Serif" font-size="10.00">/Z2SoundObjMgr/Z2SoundObjMgr.h</text>
</a>
</g>
</g>
<!-- Node8&#45;&gt;Node14 -->
<g id="edge20" class="edge">
<title>Node8&#45;&gt;Node14</title>
<path fill="none" stroke="midnightblue" d="M523.39,-194.29C606.92,-182.66 743.2,-163.69 831.48,-151.4"/>
<polygon fill="midnightblue" stroke="midnightblue" points="522.89,-190.82 513.47,-195.67 523.85,-197.75 522.89,-190.82"/>
</g>
<!-- Node10&#45;&gt;Node9 -->
<g id="edge13" class="edge">
<title>Node10&#45;&gt;Node9</title>
<path fill="none" stroke="midnightblue" d="M445.18,-113.4C443.37,-104.37 441.38,-94.41 439.82,-86.58"/>
<polygon fill="midnightblue" stroke="midnightblue" points="441.79,-114.28 447.18,-123.4 448.65,-112.9 441.79,-114.28"/>
</g>
<!-- Node11&#45;&gt;Node2 -->
<g id="edge16" class="edge">
<title>Node11&#45;&gt;Node2</title>
<path fill="none" stroke="midnightblue" d="M215.16,-120.11C178.2,-107.46 129.76,-90.89 100.87,-81.01"/>
<polygon fill="midnightblue" stroke="midnightblue" points="214.18,-123.47 224.77,-123.4 216.44,-116.85 214.18,-123.47"/>
</g>
<!-- Node11&#45;&gt;Node5 -->
<g id="edge15" class="edge">
<title>Node11&#45;&gt;Node5</title>
<path fill="none" stroke="midnightblue" d="M282.01,-115C302.18,-86.65 335.88,-39.28 349.75,-19.79"/>
<polygon fill="midnightblue" stroke="midnightblue" points="278.92,-113.3 275.98,-123.48 284.62,-117.36 278.92,-113.3"/>
</g>
<!-- Node12 -->
<g id="node12" class="node">
<title>Node12</title>
<g id="a_node12"><a xlink:href="d__a__alink_8h.html" target="_top" xlink:title=" ">
<polygon fill="white" stroke="black" points="170.5,-56.5 170.5,-86.5 289.5,-86.5 289.5,-56.5 170.5,-56.5"/>
<text text-anchor="start" x="178.5" y="-74.5" font-family="Helvetica,sans-Serif" font-size="10.00">include/d/d_a/d_a_alink</text>
<text text-anchor="middle" x="230" y="-63.5" font-family="Helvetica,sans-Serif" font-size="10.00">/d_a_alink.h</text>
</a>
</g>
</g>
<!-- Node11&#45;&gt;Node12 -->
<g id="edge17" class="edge">
<title>Node11&#45;&gt;Node12</title>
<path fill="none" stroke="midnightblue" d="M253.3,-114.58C248.13,-105.24 242.32,-94.75 237.8,-86.58"/>
<polygon fill="midnightblue" stroke="midnightblue" points="250.28,-116.34 258.19,-123.4 256.41,-112.95 250.28,-116.34"/>
</g>
<!-- Node12&#45;&gt;Node5 -->
<g id="edge19" class="edge">
<title>Node12&#45;&gt;Node5</title>
<path fill="none" stroke="midnightblue" d="M269,-52.08C291.89,-41.28 319.74,-28.12 337.67,-19.66"/>
<polygon fill="midnightblue" stroke="midnightblue" points="267.41,-48.96 259.86,-56.4 270.4,-55.29 267.41,-48.96"/>
</g>
<!-- Node13 -->
<g id="node13" class="node">
<title>Node13</title>
<g id="a_node13"><a xlink:href="d__attention_8cpp.html" target="_top" xlink:title=" ">
<polygon fill="white" stroke="black" points="171.5,-0.5 171.5,-19.5 278.5,-19.5 278.5,-0.5 171.5,-0.5"/>
<text text-anchor="middle" x="225" y="-7.5" font-family="Helvetica,sans-Serif" font-size="10.00">src/d/d_attention.cpp</text>
</a>
</g>
</g>
<!-- Node12&#45;&gt;Node13 -->
<g id="edge18" class="edge">
<title>Node12&#45;&gt;Node13</title>
<path fill="none" stroke="midnightblue" d="M227.97,-46.29C227.17,-36.86 226.32,-26.65 225.73,-19.66"/>
<polygon fill="midnightblue" stroke="midnightblue" points="224.49,-46.73 228.82,-56.4 231.47,-46.14 224.49,-46.73"/>
</g>
<!-- Node14&#45;&gt;Node2 -->
<g id="edge23" class="edge">
<title>Node14&#45;&gt;Node2</title>
<path fill="none" stroke="midnightblue" d="M821.31,-134.25C677.55,-128.65 397.48,-114.99 161,-87 147.92,-85.45 133.79,-83.25 120.87,-81.04"/>
<polygon fill="midnightblue" stroke="midnightblue" points="821.3,-137.75 831.42,-134.64 821.56,-130.75 821.3,-137.75"/>
</g>
<!-- Node14&#45;&gt;Node6 -->
<g id="edge22" class="edge">
<title>Node14&#45;&gt;Node6</title>
<path fill="none" stroke="midnightblue" d="M835.26,-121.54C769.72,-108.75 680.29,-91.3 627.69,-81.03"/>
<polygon fill="midnightblue" stroke="midnightblue" points="834.67,-125 845.15,-123.48 836.01,-118.12 834.67,-125"/>
</g>
<!-- Node15 -->
<g id="node15" class="node">
<title>Node15</title>
<g id="a_node15"><a xlink:href="Z2AudioMgr_8cpp.html" target="_top" xlink:title=" ">
<polygon fill="white" stroke="black" points="838,-62 838,-81 996,-81 996,-62 838,-62"/>
<text text-anchor="middle" x="917" y="-69" font-family="Helvetica,sans-Serif" font-size="10.00">libs/Z2AudioLib/Z2AudioMgr.cpp</text>
</a>
</g>
</g>
<!-- Node14&#45;&gt;Node15 -->
<g id="edge21" class="edge">
<title>Node14&#45;&gt;Node15</title>
<path fill="none" stroke="midnightblue" d="M917,-113.25C917,-102.02 917,-89.38 917,-81.19"/>
<polygon fill="midnightblue" stroke="midnightblue" points="913.5,-113.4 917,-123.4 920.5,-113.4 913.5,-113.4"/>
</g>
<!-- Node16 -->
<g id="node16" class="node">
<title>Node16</title>
<g id="a_node16"><a xlink:href="Z2SceneMgr_8cpp.html" target="_top" xlink:title=" ">
<polygon fill="white" stroke="black" points="1014.5,-62 1014.5,-81 1175.5,-81 1175.5,-62 1014.5,-62"/>
<text text-anchor="middle" x="1095" y="-69" font-family="Helvetica,sans-Serif" font-size="10.00">libs/Z2AudioLib/Z2SceneMgr.cpp</text>
</a>
</g>
</g>
<!-- Node14&#45;&gt;Node16 -->
<g id="edge24" class="edge">
<title>Node14&#45;&gt;Node16</title>
<path fill="none" stroke="midnightblue" d="M965.07,-119.95C999.64,-107.32 1044.75,-90.85 1071.7,-81.01"/>
<polygon fill="midnightblue" stroke="midnightblue" points="963.82,-116.68 955.62,-123.4 966.22,-123.25 963.82,-116.68"/>
</g>
<!-- Node17 -->
<g id="node17" class="node">
<title>Node17</title>
<g id="a_node17"><a xlink:href="Z2SeMgr_8cpp.html" target="_top" xlink:title=" ">
<polygon fill="white" stroke="black" points="1193.5,-62 1193.5,-81 1338.5,-81 1338.5,-62 1193.5,-62"/>
<text text-anchor="middle" x="1266" y="-69" font-family="Helvetica,sans-Serif" font-size="10.00">libs/Z2AudioLib/Z2SeMgr.cpp</text>
</a>
</g>
</g>
<!-- Node14&#45;&gt;Node17 -->
<g id="edge25" class="edge">
<title>Node14&#45;&gt;Node17</title>
<path fill="none" stroke="midnightblue" d="M1002.25,-121.62C1070.97,-108.82 1164.97,-91.32 1220.21,-81.03"/>
<polygon fill="midnightblue" stroke="midnightblue" points="1001.49,-118.2 992.3,-123.48 1002.77,-125.09 1001.49,-118.2"/>
</g>
<!-- Node18 -->
<g id="node18" class="node">
<title>Node18</title>
<g id="a_node18"><a xlink:href="Z2SeqMgr_8cpp.html" target="_top" xlink:title=" ">
<polygon fill="white" stroke="black" points="1357,-62 1357,-81 1507,-81 1507,-62 1357,-62"/>
<text text-anchor="middle" x="1432" y="-69" font-family="Helvetica,sans-Serif" font-size="10.00">libs/Z2AudioLib/Z2SeqMgr.cpp</text>
</a>
</g>
</g>
<!-- Node14&#45;&gt;Node18 -->
<g id="edge26" class="edge">
<title>Node14&#45;&gt;Node18</title>
<path fill="none" stroke="midnightblue" d="M1012.81,-127.78C1100.28,-118.55 1233.07,-103.64 1348,-87 1360.16,-85.24 1373.26,-83.1 1385.42,-81"/>
<polygon fill="midnightblue" stroke="midnightblue" points="1012.21,-124.32 1002.63,-128.85 1012.95,-131.29 1012.21,-124.32"/>
</g>
<!-- Node19 -->
<g id="node19" class="node">
<title>Node19</title>
<g id="a_node19"><a xlink:href="Z2SoundObjMgr_8cpp.html" target="_top" xlink:title=" ">
<polygon fill="white" stroke="black" points="678.5,-56.5 678.5,-86.5 819.5,-86.5 819.5,-56.5 678.5,-56.5"/>
<text text-anchor="start" x="686.5" y="-74.5" font-family="Helvetica,sans-Serif" font-size="10.00">libs/Z2AudioLib/Z2SoundObj</text>
<text text-anchor="middle" x="749" y="-63.5" font-family="Helvetica,sans-Serif" font-size="10.00">Mgr.cpp</text>
</a>
</g>
</g>
<!-- Node14&#45;&gt;Node19 -->
<g id="edge27" class="edge">
<title>Node14&#45;&gt;Node19</title>
<path fill="none" stroke="midnightblue" d="M870.95,-119.68C844,-109.26 810.46,-96.28 785.38,-86.58"/>
<polygon fill="midnightblue" stroke="midnightblue" points="869.96,-123.05 880.55,-123.4 872.48,-116.52 869.96,-123.05"/>
</g>
<!-- Node20 -->
<g id="node20" class="node">
<title>Node20</title>
<g id="a_node20"><a xlink:href="Z2AudioLib_8h.html" target="_top" xlink:title=" ">
<polygon fill="white" stroke="black" points="1563,-56.5 1563,-86.5 1663,-86.5 1663,-56.5 1563,-56.5"/>
<text text-anchor="start" x="1571" y="-74.5" font-family="Helvetica,sans-Serif" font-size="10.00">include/Z2AudioLib</text>
<text text-anchor="middle" x="1613" y="-63.5" font-family="Helvetica,sans-Serif" font-size="10.00">/Z2AudioLib.h</text>
</a>
</g>
</g>
<!-- Node14&#45;&gt;Node20 -->
<g id="edge28" class="edge">
<title>Node14&#45;&gt;Node20</title>
<path fill="none" stroke="midnightblue" d="M1013.11,-131.31C1131.58,-123.24 1338.98,-107.67 1516,-87 1531.22,-85.22 1547.73,-82.9 1562.74,-80.64"/>
<polygon fill="midnightblue" stroke="midnightblue" points="1012.72,-127.83 1002.98,-132 1013.19,-134.81 1012.72,-127.83"/>
</g>
<!-- Node21 -->
<g id="node21" class="node">
<title>Node21</title>
<g id="a_node21"><a xlink:href="m__Do__audio_8cpp.html" target="_top" xlink:title=" ">
<polygon fill="white" stroke="black" points="1546,-0.5 1546,-19.5 1680,-19.5 1680,-0.5 1546,-0.5"/>
<text text-anchor="middle" x="1613" y="-7.5" font-family="Helvetica,sans-Serif" font-size="10.00">src/m_Do/m_Do_audio.cpp</text>
</a>
</g>
</g>
<!-- Node20&#45;&gt;Node21 -->
<g id="edge29" class="edge">
<title>Node20&#45;&gt;Node21</title>
<path fill="none" stroke="midnightblue" d="M1613,-46.29C1613,-36.86 1613,-26.65 1613,-19.66"/>
<polygon fill="midnightblue" stroke="midnightblue" points="1609.5,-46.4 1613,-56.4 1616.5,-46.4 1609.5,-46.4"/>
</g>
</g>
</svg>
        <g id="navigator" transform="translate(0 0)" fill="#404254">
                <rect fill="#f2f5e9" fill-opacity="0.5" stroke="#606060" stroke-width=".5" x="0" y="0" width="60" height="60"/>
                <use id="zoomplus" xlink:href="#zoomPlus" x="17" y="9" onmousedown="handleZoom(evt,'in')"/>
                <use id="zoomminus" xlink:href="#zoomMin" x="42" y="9" onmousedown="handleZoom(evt,'out')"/>
                <use id="reset" xlink:href="#resetDef" x="30" y="36" onmousedown="handleReset()"/>
                <g id="arrowUp" xlink:href="#dirArrow" transform="translate(30 24)" onmousedown="handlePan(0,-1)">
                  <use xlink:href="#rim" fill="#404040">
                        <set attributeName="fill" to="#808080" begin="arrowUp.mouseover" end="arrowUp.mouseout"/>
                  </use>
                  <path fill="none" stroke="white" stroke-width="1.5" d="M0,-3.0v7 M-2.5,-0.5L0,-3.0L2.5,-0.5"/>
                </g>
                <g id="arrowRight" xlink:href="#dirArrow" transform="rotate(90) translate(36 -43)" onmousedown="handlePan(1,0)">
                  <use xlink:href="#rim" fill="#404040">
                        <set attributeName="fill" to="#808080" begin="arrowRight.mouseover" end="arrowRight.mouseout"/>
                  </use>
                  <path fill="none" stroke="white" stroke-width="1.5" d="M0,-3.0v7 M-2.5,-0.5L0,-3.0L2.5,-0.5"/>
                </g>
                <g id="arrowDown" xlink:href="#dirArrow" transform="rotate(180) translate(-30 -48)" onmousedown="handlePan(0,1)">
                  <use xlink:href="#rim" fill="#404040">
                        <set attributeName="fill" to="#808080" begin="arrowDown.mouseover" end="arrowDown.mouseout"/>
                  </use>
                  <path fill="none" stroke="white" stroke-width="1.5" d="M0,-3.0v7 M-2.5,-0.5L0,-3.0L2.5,-0.5"/>
                </g>
                <g id="arrowLeft" xlink:href="#dirArrow" transform="rotate(270) translate(-36 17)" onmousedown="handlePan(-1,0)">
                  <use xlink:href="#rim" fill="#404040">
                        <set attributeName="fill" to="#808080" begin="arrowLeft.mouseover" end="arrowLeft.mouseout"/>
                  </use>
                  <path fill="none" stroke="white" stroke-width="1.5" d="M0,-3.0v7 M-2.5,-0.5L0,-3.0L2.5,-0.5"/>
                </g>
        </g>
        <svg viewBox="0 0 15 15" width="100%" height="30px" preserveAspectRatio="xMaxYMin meet">
         <g id="arrow_out" transform="scale(0.3 0.3)">
          <a xlink:href="Z2SoundHandles_8h__dep__incl_org.svg" target="_base">
           <rect id="button" ry="5" rx="5" y="6" x="6" height="38" width="38"
                fill="#f2f5e9" fill-opacity="0.5" stroke="#606060" stroke-width="1.0"/>
           <path id="arrow"
             d="M 11.500037,31.436501 C 11.940474,20.09759 22.043105,11.32322 32.158766,21.979434 L 37.068811,17.246167 C 37.068811,17.246167 37.088388,32 37.088388,32 L 22.160133,31.978069 C 22.160133,31.978069 26.997745,27.140456 26.997745,27.140456 C 18.528582,18.264221 13.291696,25.230495 11.500037,31.436501 z"
             style="fill:#404040;"/>
          </a>
         </g>
        </svg>
</svg>
