<?xml version="1.0" encoding="UTF-8" standalone="no"?>
<!DOCTYPE svg PUBLIC "-//W3C//DTD SVG 1.1//EN"
 "http://www.w3.org/Graphics/SVG/1.1/DTD/svg11.dtd">
<!-- Generated by graphviz version 2.44.0 ()
 -->
<!-- Title: include/Z2AudioLib/Z2SpeechMgr2/Z2SpeechMgr2.h Pages: 1 -->
<svg width="449pt" height="330pt"
 viewBox="0.00 0.00 449.39 330.00" xmlns="http://www.w3.org/2000/svg" xmlns:xlink="http://www.w3.org/1999/xlink">
<g id="graph0" class="graph" transform="scale(1 1) rotate(0) translate(4 326)">
<title>include/Z2AudioLib/Z2SpeechMgr2/Z2SpeechMgr2.h</title>
<polygon fill="white" stroke="transparent" points="-4,4 -4,-326 445.39,-326 445.39,4 -4,4"/>
<!-- Node1 -->
<g id="node1" class="node">
<title>Node1</title>
<g id="a_node1"><a xlink:title=" ">
<polygon fill="#bfbfbf" stroke="black" points="204.39,-291.5 204.39,-321.5 366.39,-321.5 366.39,-291.5 204.39,-291.5"/>
<text text-anchor="start" x="212.39" y="-309.5" font-family="Helvetica,sans-Serif" font-size="10.00">include/Z2AudioLib</text>
<text text-anchor="middle" x="285.39" y="-298.5" font-family="Helvetica,sans-Serif" font-size="10.00">/Z2SpeechMgr2/Z2SpeechMgr2.h</text>
</a>
</g>
</g>
<!-- Node2 -->
<g id="node2" class="node">
<title>Node2</title>
<g id="a_node2"><a xlink:href="JAISound_8h.html" target="_top" xlink:title=" ">
<polygon fill="white" stroke="black" points="76.89,-224.5 76.89,-254.5 215.89,-254.5 215.89,-224.5 76.89,-224.5"/>
<text text-anchor="start" x="84.89" y="-242.5" font-family="Helvetica,sans-Serif" font-size="10.00">JSystem/JAudio2/JAISound</text>
<text text-anchor="middle" x="146.39" y="-231.5" font-family="Helvetica,sans-Serif" font-size="10.00">/JAISound.h</text>
</a>
</g>
</g>
<!-- Node1&#45;&gt;Node2 -->
<g id="edge1" class="edge">
<title>Node1&#45;&gt;Node2</title>
<path fill="none" stroke="midnightblue" d="M255.23,-291.4C234.83,-281.86 207.69,-269.16 185.61,-258.84"/>
<polygon fill="midnightblue" stroke="midnightblue" points="187.03,-255.64 176.49,-254.58 184.07,-261.98 187.03,-255.64"/>
</g>
<!-- Node4 -->
<g id="node4" class="node">
<title>Node4</title>
<g id="a_node4"><a xlink:href="types_8h.html" target="_top" xlink:title=" ">
<polygon fill="white" stroke="black" points="128.89,-0.5 128.89,-19.5 209.89,-19.5 209.89,-0.5 128.89,-0.5"/>
<text text-anchor="middle" x="169.39" y="-7.5" font-family="Helvetica,sans-Serif" font-size="10.00">dolphin/types.h</text>
</a>
</g>
</g>
<!-- Node1&#45;&gt;Node4 -->
<g id="edge15" class="edge">
<title>Node1&#45;&gt;Node4</title>
<path fill="none" stroke="midnightblue" d="M285.39,-291.46C285.39,-268.12 285.39,-219.85 285.39,-179 285.39,-179 285.39,-179 285.39,-121 285.39,-90.77 285.22,-78.81 265.39,-56 251.88,-40.45 231.84,-29.9 213.56,-22.95"/>
<polygon fill="midnightblue" stroke="midnightblue" points="214.52,-19.57 203.92,-19.54 212.18,-26.17 214.52,-19.57"/>
</g>
<!-- Node10 -->
<g id="node10" class="node">
<title>Node10</title>
<g id="a_node10"><a xlink:href="random_8h.html" target="_top" xlink:title=" ">
<polygon fill="white" stroke="black" points="313.39,-168.5 313.39,-187.5 441.39,-187.5 441.39,-168.5 313.39,-168.5"/>
<text text-anchor="middle" x="377.39" y="-175.5" font-family="Helvetica,sans-Serif" font-size="10.00">JSystem/JMath/random.h</text>
</a>
</g>
</g>
<!-- Node1&#45;&gt;Node10 -->
<g id="edge13" class="edge">
<title>Node1&#45;&gt;Node10</title>
<path fill="none" stroke="midnightblue" d="M295.59,-291.48C312.59,-268.1 346.66,-221.25 365.01,-196.02"/>
<polygon fill="midnightblue" stroke="midnightblue" points="367.95,-197.93 371,-187.79 362.29,-193.82 367.95,-197.93"/>
</g>
<!-- Node3 -->
<g id="node3" class="node">
<title>Node3</title>
<g id="a_node3"><a xlink:href="global_8h.html" target="_top" xlink:title=" ">
<polygon fill="white" stroke="black" points="94.39,-168.5 94.39,-187.5 144.39,-187.5 144.39,-168.5 94.39,-168.5"/>
<text text-anchor="middle" x="119.39" y="-175.5" font-family="Helvetica,sans-Serif" font-size="10.00">global.h</text>
</a>
</g>
</g>
<!-- Node2&#45;&gt;Node3 -->
<g id="edge2" class="edge">
<title>Node2&#45;&gt;Node3</title>
<path fill="none" stroke="midnightblue" d="M139.99,-224.4C136.27,-216.2 131.54,-205.78 127.56,-196.99"/>
<polygon fill="midnightblue" stroke="midnightblue" points="130.64,-195.32 123.32,-187.66 124.26,-198.21 130.64,-195.32"/>
</g>
<!-- Node3&#45;&gt;Node4 -->
<g id="edge3" class="edge">
<title>Node3&#45;&gt;Node4</title>
<path fill="none" stroke="midnightblue" d="M100.23,-168.4C60.19,-149.24 -25.9,-101.19 8.39,-56 21.8,-38.33 76.62,-25.71 118.61,-18.42"/>
<polygon fill="midnightblue" stroke="midnightblue" points="119.42,-21.83 128.7,-16.72 118.26,-14.93 119.42,-21.83"/>
</g>
<!-- Node5 -->
<g id="node5" class="node">
<title>Node5</title>
<g id="a_node5"><a xlink:href="AR_8h.html" target="_top" xlink:title=" ">
<polygon fill="white" stroke="black" points="17.89,-56.5 17.89,-75.5 66.89,-75.5 66.89,-56.5 17.89,-56.5"/>
<text text-anchor="middle" x="42.39" y="-63.5" font-family="Helvetica,sans-Serif" font-size="10.00">ar/AR.h</text>
</a>
</g>
</g>
<!-- Node3&#45;&gt;Node5 -->
<g id="edge4" class="edge">
<title>Node3&#45;&gt;Node5</title>
<path fill="none" stroke="midnightblue" d="M113.35,-168.37C100.64,-150.22 70.95,-107.8 54.28,-83.99"/>
<polygon fill="midnightblue" stroke="midnightblue" points="57.01,-81.78 48.41,-75.59 51.27,-85.79 57.01,-81.78"/>
</g>
<!-- Node6 -->
<g id="node6" class="node">
<title>Node6</title>
<g id="a_node6"><a xlink:href="ARQ_8h.html" target="_top" xlink:title=" ">
<polygon fill="white" stroke="black" points="85.39,-56.5 85.39,-75.5 141.39,-75.5 141.39,-56.5 85.39,-56.5"/>
<text text-anchor="middle" x="113.39" y="-63.5" font-family="Helvetica,sans-Serif" font-size="10.00">ar/ARQ.h</text>
</a>
</g>
</g>
<!-- Node3&#45;&gt;Node6 -->
<g id="edge6" class="edge">
<title>Node3&#45;&gt;Node6</title>
<path fill="none" stroke="midnightblue" d="M118.92,-168.37C117.95,-150.62 115.72,-109.67 114.41,-85.6"/>
<polygon fill="midnightblue" stroke="midnightblue" points="117.9,-85.39 113.86,-75.59 110.91,-85.77 117.9,-85.39"/>
</g>
<!-- Node7 -->
<g id="node7" class="node">
<title>Node7</title>
<g id="a_node7"><a xlink:href="mwcc_8h.html" target="_top" xlink:title=" ">
<polygon fill="white" stroke="black" points="127.39,-112.5 127.39,-131.5 177.39,-131.5 177.39,-112.5 127.39,-112.5"/>
<text text-anchor="middle" x="152.39" y="-119.5" font-family="Helvetica,sans-Serif" font-size="10.00">mwcc.h</text>
</a>
</g>
</g>
<!-- Node3&#45;&gt;Node7 -->
<g id="edge8" class="edge">
<title>Node3&#45;&gt;Node7</title>
<path fill="none" stroke="midnightblue" d="M124.84,-168.08C129.41,-160.61 136.06,-149.72 141.68,-140.52"/>
<polygon fill="midnightblue" stroke="midnightblue" points="144.82,-142.11 147.04,-131.75 138.84,-138.46 144.82,-142.11"/>
</g>
<!-- Node8 -->
<g id="node8" class="node">
<title>Node8</title>
<g id="a_node8"><a xlink:href="OS_8h.html" target="_top" xlink:title=" ">
<polygon fill="white" stroke="black" points="195.39,-112.5 195.39,-131.5 247.39,-131.5 247.39,-112.5 195.39,-112.5"/>
<text text-anchor="middle" x="221.39" y="-119.5" font-family="Helvetica,sans-Serif" font-size="10.00">os/OS.h</text>
</a>
</g>
</g>
<!-- Node3&#45;&gt;Node8 -->
<g id="edge9" class="edge">
<title>Node3&#45;&gt;Node8</title>
<path fill="none" stroke="midnightblue" d="M135.78,-168.32C152.06,-159.7 177.26,-146.36 196.11,-136.39"/>
<polygon fill="midnightblue" stroke="midnightblue" points="197.84,-139.43 205.04,-131.65 194.57,-133.24 197.84,-139.43"/>
</g>
<!-- Node5&#45;&gt;Node4 -->
<g id="edge5" class="edge">
<title>Node5&#45;&gt;Node4</title>
<path fill="none" stroke="midnightblue" d="M62.51,-56.44C83.42,-47.56 116.33,-33.56 140.11,-23.45"/>
<polygon fill="midnightblue" stroke="midnightblue" points="141.53,-26.65 149.36,-19.52 138.79,-20.21 141.53,-26.65"/>
</g>
<!-- Node6&#45;&gt;Node4 -->
<g id="edge7" class="edge">
<title>Node6&#45;&gt;Node4</title>
<path fill="none" stroke="midnightblue" d="M122.39,-56.32C130.59,-48.42 142.9,-36.55 152.86,-26.94"/>
<polygon fill="midnightblue" stroke="midnightblue" points="155.46,-29.29 160.23,-19.83 150.6,-24.26 155.46,-29.29"/>
</g>
<!-- Node8&#45;&gt;Node4 -->
<g id="edge10" class="edge">
<title>Node8&#45;&gt;Node4</title>
<path fill="none" stroke="midnightblue" d="M213.56,-112.3C206.15,-103.65 195.17,-89.73 188.39,-76 181.07,-61.17 176.06,-43.02 173.03,-29.67"/>
<polygon fill="midnightblue" stroke="midnightblue" points="176.43,-28.83 170.94,-19.77 169.58,-30.27 176.43,-28.83"/>
</g>
<!-- Node9 -->
<g id="node9" class="node">
<title>Node9</title>
<g id="a_node9"><a xlink:href="dvd_8h.html" target="_top" xlink:title=" ">
<polygon fill="white" stroke="black" points="197.89,-56.5 197.89,-75.5 256.89,-75.5 256.89,-56.5 197.89,-56.5"/>
<text text-anchor="middle" x="227.39" y="-63.5" font-family="Helvetica,sans-Serif" font-size="10.00">dvd/dvd.h</text>
</a>
</g>
</g>
<!-- Node8&#45;&gt;Node9 -->
<g id="edge11" class="edge">
<title>Node8&#45;&gt;Node9</title>
<path fill="none" stroke="midnightblue" d="M222.38,-112.08C223.18,-104.93 224.32,-94.64 225.31,-85.69"/>
<polygon fill="midnightblue" stroke="midnightblue" points="228.79,-86.08 226.42,-75.75 221.84,-85.3 228.79,-86.08"/>
</g>
<!-- Node9&#45;&gt;Node4 -->
<g id="edge12" class="edge">
<title>Node9&#45;&gt;Node4</title>
<path fill="none" stroke="midnightblue" d="M218.07,-56.32C209.5,-48.34 196.58,-36.31 186.2,-26.65"/>
<polygon fill="midnightblue" stroke="midnightblue" points="188.58,-24.09 178.88,-19.83 183.81,-29.21 188.58,-24.09"/>
</g>
<!-- Node10&#45;&gt;Node4 -->
<g id="edge14" class="edge">
<title>Node10&#45;&gt;Node4</title>
<path fill="none" stroke="midnightblue" d="M374.14,-168.27C365.46,-146.2 339.69,-87.65 299.39,-56 276.42,-37.96 245.74,-26.89 219.95,-20.24"/>
<polygon fill="midnightblue" stroke="midnightblue" points="220.51,-16.78 209.97,-17.83 218.86,-23.58 220.51,-16.78"/>
</g>
</g>
</svg>
