<?xml version="1.0" encoding="UTF-8" standalone="no"?>
<!DOCTYPE svg PUBLIC "-//W3C//DTD SVG 1.1//EN"
 "http://www.w3.org/Graphics/SVG/1.1/DTD/svg11.dtd">
<!-- Generated by graphviz version 2.44.0 ()
 -->
<!-- Title: include/Z2AudioLib/Z2StatusMgr/Z2StatusMgr.h Pages: 1 -->
<svg width="311pt" height="263pt"
 viewBox="0.00 0.00 310.77 263.00" xmlns="http://www.w3.org/2000/svg" xmlns:xlink="http://www.w3.org/1999/xlink">
<g id="graph0" class="graph" transform="scale(1 1) rotate(0) translate(4 259)">
<title>include/Z2AudioLib/Z2StatusMgr/Z2StatusMgr.h</title>
<polygon fill="white" stroke="transparent" points="-4,4 -4,-259 306.77,-259 306.77,4 -4,4"/>
<!-- Node1 -->
<g id="node1" class="node">
<title>Node1</title>
<g id="a_node1"><a xlink:title=" ">
<polygon fill="#bfbfbf" stroke="black" points="104.77,-224.5 104.77,-254.5 247.77,-254.5 247.77,-224.5 104.77,-224.5"/>
<text text-anchor="start" x="112.77" y="-242.5" font-family="Helvetica,sans-Serif" font-size="10.00">include/Z2AudioLib</text>
<text text-anchor="middle" x="176.27" y="-231.5" font-family="Helvetica,sans-Serif" font-size="10.00">/Z2StatusMgr/Z2StatusMgr.h</text>
</a>
</g>
</g>
<!-- Node2 -->
<g id="node2" class="node">
<title>Node2</title>
<g id="a_node2"><a xlink:href="global_8h.html" target="_top" xlink:title=" ">
<polygon fill="white" stroke="black" points="90.27,-168.5 90.27,-187.5 140.27,-187.5 140.27,-168.5 90.27,-168.5"/>
<text text-anchor="middle" x="115.27" y="-175.5" font-family="Helvetica,sans-Serif" font-size="10.00">global.h</text>
</a>
</g>
</g>
<!-- Node1&#45;&gt;Node2 -->
<g id="edge1" class="edge">
<title>Node1&#45;&gt;Node2</title>
<path fill="none" stroke="midnightblue" d="M161.81,-224.4C152.67,-215.49 140.85,-203.95 131.4,-194.74"/>
<polygon fill="midnightblue" stroke="midnightblue" points="133.74,-192.13 124.14,-187.66 128.86,-197.15 133.74,-192.13"/>
</g>
<!-- Node9 -->
<g id="node9" class="node">
<title>Node9</title>
<g id="a_node9"><a xlink:href="mtx__vec_8h.html" target="_top" xlink:title=" ">
<polygon fill="white" stroke="black" points="241.77,-56.5 241.77,-75.5 302.77,-75.5 302.77,-56.5 241.77,-56.5"/>
<text text-anchor="middle" x="272.27" y="-63.5" font-family="Helvetica,sans-Serif" font-size="10.00">mtx_vec.h</text>
</a>
</g>
</g>
<!-- Node1&#45;&gt;Node9 -->
<g id="edge12" class="edge">
<title>Node1&#45;&gt;Node9</title>
<path fill="none" stroke="midnightblue" d="M189.2,-224.43C206.41,-205.03 236.68,-168.3 254.27,-132 261.45,-117.18 266.17,-99.03 268.97,-85.68"/>
<polygon fill="midnightblue" stroke="midnightblue" points="272.42,-86.25 270.88,-75.77 265.55,-84.93 272.42,-86.25"/>
</g>
<!-- Node3 -->
<g id="node3" class="node">
<title>Node3</title>
<g id="a_node3"><a xlink:href="types_8h.html" target="_top" xlink:title=" ">
<polygon fill="white" stroke="black" points="75.77,-0.5 75.77,-19.5 156.77,-19.5 156.77,-0.5 75.77,-0.5"/>
<text text-anchor="middle" x="116.27" y="-7.5" font-family="Helvetica,sans-Serif" font-size="10.00">dolphin/types.h</text>
</a>
</g>
</g>
<!-- Node2&#45;&gt;Node3 -->
<g id="edge2" class="edge">
<title>Node2&#45;&gt;Node3</title>
<path fill="none" stroke="midnightblue" d="M90.64,-168.42C72.74,-161.12 49,-149.08 33.27,-132 9.17,-105.85 -11.46,-85.59 8.27,-56 21.21,-36.58 44.29,-25.53 65.8,-19.24"/>
<polygon fill="midnightblue" stroke="midnightblue" points="66.76,-22.61 75.54,-16.68 64.97,-15.84 66.76,-22.61"/>
</g>
<!-- Node4 -->
<g id="node4" class="node">
<title>Node4</title>
<g id="a_node4"><a xlink:href="AR_8h.html" target="_top" xlink:title=" ">
<polygon fill="white" stroke="black" points="17.77,-56.5 17.77,-75.5 66.77,-75.5 66.77,-56.5 17.77,-56.5"/>
<text text-anchor="middle" x="42.27" y="-63.5" font-family="Helvetica,sans-Serif" font-size="10.00">ar/AR.h</text>
</a>
</g>
</g>
<!-- Node2&#45;&gt;Node4 -->
<g id="edge3" class="edge">
<title>Node2&#45;&gt;Node4</title>
<path fill="none" stroke="midnightblue" d="M90.14,-168.86C73.31,-161.95 52.43,-150.2 42.27,-132 34.44,-117.99 35.31,-99.49 37.63,-85.81"/>
<polygon fill="midnightblue" stroke="midnightblue" points="41.13,-86.16 39.76,-75.66 34.28,-84.73 41.13,-86.16"/>
</g>
<!-- Node5 -->
<g id="node5" class="node">
<title>Node5</title>
<g id="a_node5"><a xlink:href="ARQ_8h.html" target="_top" xlink:title=" ">
<polygon fill="white" stroke="black" points="51.27,-112.5 51.27,-131.5 107.27,-131.5 107.27,-112.5 51.27,-112.5"/>
<text text-anchor="middle" x="79.27" y="-119.5" font-family="Helvetica,sans-Serif" font-size="10.00">ar/ARQ.h</text>
</a>
</g>
</g>
<!-- Node2&#45;&gt;Node5 -->
<g id="edge5" class="edge">
<title>Node2&#45;&gt;Node5</title>
<path fill="none" stroke="midnightblue" d="M109.32,-168.08C104.29,-160.53 96.93,-149.49 90.75,-140.23"/>
<polygon fill="midnightblue" stroke="midnightblue" points="93.56,-138.13 85.1,-131.75 87.73,-142.01 93.56,-138.13"/>
</g>
<!-- Node6 -->
<g id="node6" class="node">
<title>Node6</title>
<g id="a_node6"><a xlink:href="mwcc_8h.html" target="_top" xlink:title=" ">
<polygon fill="white" stroke="black" points="125.27,-112.5 125.27,-131.5 175.27,-131.5 175.27,-112.5 125.27,-112.5"/>
<text text-anchor="middle" x="150.27" y="-119.5" font-family="Helvetica,sans-Serif" font-size="10.00">mwcc.h</text>
</a>
</g>
</g>
<!-- Node2&#45;&gt;Node6 -->
<g id="edge7" class="edge">
<title>Node2&#45;&gt;Node6</title>
<path fill="none" stroke="midnightblue" d="M121.05,-168.08C125.94,-160.53 133.09,-149.49 139.1,-140.23"/>
<polygon fill="midnightblue" stroke="midnightblue" points="142.09,-142.05 144.59,-131.75 136.22,-138.24 142.09,-142.05"/>
</g>
<!-- Node7 -->
<g id="node7" class="node">
<title>Node7</title>
<g id="a_node7"><a xlink:href="OS_8h.html" target="_top" xlink:title=" ">
<polygon fill="white" stroke="black" points="193.27,-112.5 193.27,-131.5 245.27,-131.5 245.27,-112.5 193.27,-112.5"/>
<text text-anchor="middle" x="219.27" y="-119.5" font-family="Helvetica,sans-Serif" font-size="10.00">os/OS.h</text>
</a>
</g>
</g>
<!-- Node2&#45;&gt;Node7 -->
<g id="edge8" class="edge">
<title>Node2&#45;&gt;Node7</title>
<path fill="none" stroke="midnightblue" d="M131.98,-168.32C148.58,-159.7 174.27,-146.36 193.49,-136.39"/>
<polygon fill="midnightblue" stroke="midnightblue" points="195.34,-139.37 202.6,-131.65 192.11,-133.16 195.34,-139.37"/>
</g>
<!-- Node4&#45;&gt;Node3 -->
<g id="edge4" class="edge">
<title>Node4&#45;&gt;Node3</title>
<path fill="none" stroke="midnightblue" d="M54.16,-56.32C65.42,-48.11 82.55,-35.6 95.97,-25.81"/>
<polygon fill="midnightblue" stroke="midnightblue" points="98.15,-28.56 104.16,-19.83 94.02,-22.9 98.15,-28.56"/>
</g>
<!-- Node5&#45;&gt;Node3 -->
<g id="edge6" class="edge">
<title>Node5&#45;&gt;Node3</title>
<path fill="none" stroke="midnightblue" d="M82.17,-112.37C88.17,-94.54 102.04,-53.3 110.12,-29.27"/>
<polygon fill="midnightblue" stroke="midnightblue" points="113.51,-30.19 113.38,-19.59 106.87,-27.95 113.51,-30.19"/>
</g>
<!-- Node7&#45;&gt;Node3 -->
<g id="edge9" class="edge">
<title>Node7&#45;&gt;Node3</title>
<path fill="none" stroke="midnightblue" d="M203.39,-112.4C189.52,-104.32 169.42,-91.22 155.27,-76 142.27,-62.02 131.48,-43.02 124.57,-29.17"/>
<polygon fill="midnightblue" stroke="midnightblue" points="127.54,-27.27 120.07,-19.76 121.22,-30.29 127.54,-27.27"/>
</g>
<!-- Node8 -->
<g id="node8" class="node">
<title>Node8</title>
<g id="a_node8"><a xlink:href="dvd_8h.html" target="_top" xlink:title=" ">
<polygon fill="white" stroke="black" points="164.77,-56.5 164.77,-75.5 223.77,-75.5 223.77,-56.5 164.77,-56.5"/>
<text text-anchor="middle" x="194.27" y="-63.5" font-family="Helvetica,sans-Serif" font-size="10.00">dvd/dvd.h</text>
</a>
</g>
</g>
<!-- Node7&#45;&gt;Node8 -->
<g id="edge10" class="edge">
<title>Node7&#45;&gt;Node8</title>
<path fill="none" stroke="midnightblue" d="M215.14,-112.08C211.75,-104.77 206.85,-94.18 202.65,-85.1"/>
<polygon fill="midnightblue" stroke="midnightblue" points="205.69,-83.36 198.32,-75.75 199.34,-86.3 205.69,-83.36"/>
</g>
<!-- Node8&#45;&gt;Node3 -->
<g id="edge11" class="edge">
<title>Node8&#45;&gt;Node3</title>
<path fill="none" stroke="midnightblue" d="M181.73,-56.32C169.68,-47.98 151.24,-35.21 137,-25.35"/>
<polygon fill="midnightblue" stroke="midnightblue" points="138.98,-22.47 128.77,-19.65 135,-28.22 138.98,-22.47"/>
</g>
<!-- Node9&#45;&gt;Node3 -->
<g id="edge13" class="edge">
<title>Node9&#45;&gt;Node3</title>
<path fill="none" stroke="midnightblue" d="M247.55,-56.44C221.42,-47.4 180.01,-33.06 150.69,-22.92"/>
<polygon fill="midnightblue" stroke="midnightblue" points="151.46,-19.48 140.87,-19.52 149.17,-26.1 151.46,-19.48"/>
</g>
</g>
</svg>
